<svg xmlns="http://www.w3.org/2000/svg" xmlns:xlink="http://www.w3.org/1999/xlink" viewBox="0 0 634.93 634.93"><defs><style>.cls-1{fill:none;}.cls-2{opacity:0.2;}.cls-3{clip-path:url(#clip-path);}.cls-4{fill:#eef2f4;}.cls-5{fill:#3c7cbf;}.cls-6{fill:#ebb533;}.cls-7{fill:#ed7303;}.cls-8{fill:#92c04f;}.cls-9{fill:#fff;}</style><clipPath id="clip-path" transform="translate(-1 -1)"><rect class="cls-1" width="636.94" height="636.93"/></clipPath></defs><g id="Capa_2" data-name="Capa 2"><g id="Capa_1-2" data-name="Capa 1"><g class="cls-2"><g class="cls-3"><path class="cls-4" d="M318.47,635.93c175.33,0,317.46-142.13,317.46-317.46S493.8,1,318.47,1,1,143.13,1,318.47,143.13,635.93,318.47,635.93" transform="translate(-1 -1)"/></g></g><path class="cls-4" d="M318.47,491.25A175.07,175.07,0,1,0,143.4,316.19,175.06,175.06,0,0,0,318.47,491.25" transform="translate(-1 -1)"/><path class="cls-5" d="M192.61,288.07v-18.2h4.8l3.78,6.67a56.58,56.58,0,0,1,3,6.24h.06a73.09,73.09,0,0,1-.33-7.61v-5.3h3.78v18.2h-4.32l-3.88-7a63.72,63.72,0,0,1-3.16-6.42h-.11c.14,2.42.19,5,.19,8v5.48Z" transform="translate(-1 -1)"/><path class="cls-5" d="M223.71,283.83c0,1.73.06,3.13.11,4.24h-3.56l-.19-1.86H220a4.74,4.74,0,0,1-4.13,2.15c-2.7,0-4.65-1.67-4.65-5.75v-7.74h4.11V282c0,1.91.62,3.07,2.07,3.07a2.19,2.19,0,0,0,2.06-1.43,2.32,2.32,0,0,0,.16-.89v-7.85h4.1Z" transform="translate(-1 -1)"/><path class="cls-5" d="M230.25,282.78c.13,1.7,1.81,2.51,3.72,2.51a10.84,10.84,0,0,0,3.65-.57l.54,2.78a12.44,12.44,0,0,1-4.78.84c-4.48,0-7-2.59-7-6.72,0-3.35,2.11-7.05,6.67-7.05,4.27,0,5.88,3.32,5.88,6.59a10.42,10.42,0,0,1-.13,1.62Zm4.83-2.81a2.38,2.38,0,0,0-2.3-2.67,2.71,2.71,0,0,0-2.56,2.67Z" transform="translate(-1 -1)"/><path class="cls-5" d="M241.51,284.48a8,8,0,0,0,3.53,1c1.24,0,1.76-.41,1.76-1.08s-.41-1-1.92-1.51c-2.75-.92-3.81-2.4-3.78-3.94,0-2.49,2.11-4.35,5.37-4.35a8.76,8.76,0,0,1,3.7.78l-.7,2.81a6.92,6.92,0,0,0-2.86-.73c-1,0-1.57.41-1.57,1.05s.52,1,2.14,1.52c2.51.86,3.53,2.13,3.56,4.05,0,2.48-1.92,4.29-5.7,4.29a9.32,9.32,0,0,1-4.26-.95Z" transform="translate(-1 -1)"/><path class="cls-5" d="M258,271.28v3.59h2.94v3H258v4.78c0,1.59.4,2.32,1.62,2.32a5.09,5.09,0,0,0,1.21-.11l0,3.11a8.6,8.6,0,0,1-2.65.35,4.35,4.35,0,0,1-3.1-1.14c-.76-.78-1.13-2.05-1.13-3.91v-5.4h-1.76v-3h1.76v-2.48Z" transform="translate(-1 -1)"/><path class="cls-5" d="M263.57,279.21c0-1.94,0-3.21-.11-4.34H267l.16,2.45h.11a3.84,3.84,0,0,1,3.56-2.75,4.27,4.27,0,0,1,.86.08v3.86a6.36,6.36,0,0,0-1.1-.11,2.62,2.62,0,0,0-2.81,2.08,4.26,4.26,0,0,0-.08.92v6.67h-4.1Z" transform="translate(-1 -1)"/><path class="cls-5" d="M284.73,284.88a16.46,16.46,0,0,0,.22,3.19h-3.7l-.25-1.32h-.08a4.74,4.74,0,0,1-3.77,1.61,4,4,0,0,1-4.27-4c0-3.43,3.08-5.05,7.75-5.05v-.16c0-.71-.38-1.7-2.41-1.7a7.61,7.61,0,0,0-3.64,1l-.76-2.62a10.89,10.89,0,0,1,5.13-1.19c4.4,0,5.78,2.59,5.78,5.7Zm-4-3.05c-2.16,0-3.83.51-3.83,2.08a1.48,1.48,0,0,0,1.62,1.57,2.27,2.27,0,0,0,2.13-1.51,2.71,2.71,0,0,0,.08-.71Z" transform="translate(-1 -1)"/><path class="cls-5" d="M297.12,282.78c.14,1.7,1.81,2.51,3.73,2.51a10.78,10.78,0,0,0,3.64-.57l.54,2.78a12.38,12.38,0,0,1-4.77.84c-4.48,0-7.05-2.59-7.05-6.72,0-3.35,2.11-7.05,6.67-7.05,4.26,0,5.88,3.32,5.88,6.59a10.42,10.42,0,0,1-.13,1.62ZM302,280a2.38,2.38,0,0,0-2.3-2.67A2.71,2.71,0,0,0,297.1,280Z" transform="translate(-1 -1)"/><path class="cls-5" d="M308.38,284.48a8.06,8.06,0,0,0,3.54,1c1.24,0,1.76-.41,1.76-1.08s-.41-1-1.92-1.51c-2.75-.92-3.81-2.4-3.78-3.94,0-2.49,2.11-4.35,5.37-4.35a8.76,8.76,0,0,1,3.7.78l-.7,2.81a7,7,0,0,0-2.86-.73c-1,0-1.57.41-1.57,1.05s.51,1,2.13,1.52c2.51.86,3.54,2.13,3.57,4.05,0,2.48-1.92,4.29-5.7,4.29a9.26,9.26,0,0,1-4.26-.95Z" transform="translate(-1 -1)"/><path class="cls-5" d="M324.83,271.28v3.59h2.94v3h-2.94v4.78c0,1.59.4,2.32,1.62,2.32a5.09,5.09,0,0,0,1.21-.11l0,3.11a8.6,8.6,0,0,1-2.65.35,4.35,4.35,0,0,1-3.1-1.14c-.76-.78-1.13-2.05-1.13-3.91v-5.4h-1.76v-3h1.76v-2.48Z" transform="translate(-1 -1)"/><path class="cls-5" d="M330.44,279.21c0-1.94,0-3.21-.1-4.34h3.5l.17,2.45h.1a3.86,3.86,0,0,1,3.57-2.75,4.34,4.34,0,0,1,.86.08v3.86a6.48,6.48,0,0,0-1.11-.11,2.61,2.61,0,0,0-2.8,2.08,4.26,4.26,0,0,0-.08.92v6.67h-4.11Z" transform="translate(-1 -1)"/><path class="cls-5" d="M351.61,284.88a17.43,17.43,0,0,0,.21,3.19h-3.69l-.25-1.32h-.08a4.75,4.75,0,0,1-3.78,1.61,4,4,0,0,1-4.26-4c0-3.43,3.08-5.05,7.74-5.05v-.16c0-.71-.37-1.7-2.4-1.7a7.61,7.61,0,0,0-3.64,1l-.76-2.62a10.89,10.89,0,0,1,5.13-1.19c4.4,0,5.78,2.59,5.78,5.7Zm-4-3.05c-2.16,0-3.83.51-3.83,2.08a1.48,1.48,0,0,0,1.62,1.57,2.27,2.27,0,0,0,2.13-1.51,3.22,3.22,0,0,0,.08-.71Z" transform="translate(-1 -1)"/><path class="cls-5" d="M359.47,271.28v3.59h2.94v3h-2.94v4.78c0,1.59.4,2.32,1.62,2.32a5.09,5.09,0,0,0,1.21-.11l0,3.11a8.6,8.6,0,0,1-2.65.35,4.35,4.35,0,0,1-3.1-1.14,5.44,5.44,0,0,1-1.14-3.91v-5.4h-1.75v-3h1.75v-2.48Z" transform="translate(-1 -1)"/><path class="cls-5" d="M368,282.78c.13,1.7,1.8,2.51,3.72,2.51a10.88,10.88,0,0,0,3.65-.57l.54,2.78a12.44,12.44,0,0,1-4.78.84c-4.48,0-7.05-2.59-7.05-6.72,0-3.35,2.11-7.05,6.67-7.05,4.26,0,5.88,3.32,5.88,6.59a10.42,10.42,0,0,1-.13,1.62Zm4.83-2.81a2.38,2.38,0,0,0-2.3-2.67A2.71,2.71,0,0,0,368,280Z" transform="translate(-1 -1)"/><path class="cls-5" d="M391.86,286.15c0,2.54-.51,4.62-2,5.94a8,8,0,0,1-5.34,1.62,10.57,10.57,0,0,1-4.76-1l.81-3.13a8.12,8.12,0,0,0,3.84,1,3.14,3.14,0,0,0,3.43-3.48v-.84h-.06a4.26,4.26,0,0,1-3.56,1.7c-3.27,0-5.59-2.65-5.59-6.42,0-4.27,2.73-7,6-7a3.93,3.93,0,0,1,3.62,1.89h0l.14-1.59H392c-.05.86-.11,2-.11,3.94Zm-4.1-5.91a3.33,3.33,0,0,0-.08-.76,2.24,2.24,0,0,0-2.21-1.8c-1.51,0-2.7,1.34-2.7,3.75,0,2,1,3.51,2.67,3.51a2.26,2.26,0,0,0,2.19-1.65,3.71,3.71,0,0,0,.13-1.11Z" transform="translate(-1 -1)"/><path class="cls-5" d="M397.29,273.25a2.05,2.05,0,1,1,2.22-2.05,2,2,0,0,1-2.22,2.05Zm-2,14.82v-13.2h4.1v13.2Z" transform="translate(-1 -1)"/><path class="cls-5" d="M413.76,284.88a17.3,17.3,0,0,0,.22,3.19h-3.7l-.24-1.32H410a4.74,4.74,0,0,1-3.77,1.61,4,4,0,0,1-4.27-4c0-3.43,3.08-5.05,7.75-5.05v-.16c0-.71-.38-1.7-2.4-1.7a7.68,7.68,0,0,0-3.65,1l-.75-2.62a10.82,10.82,0,0,1,5.13-1.19c4.39,0,5.77,2.59,5.77,5.7Zm-4-3.05c-2.16,0-3.83.51-3.83,2.08a1.48,1.48,0,0,0,1.62,1.57,2.27,2.27,0,0,0,2.13-1.51,2.71,2.71,0,0,0,.08-.71Z" transform="translate(-1 -1)"/><path class="cls-5" d="M435.82,268.88v15.25c0,1.48.05,3.05.11,3.94h-3.65l-.16-1.92H432a4.6,4.6,0,0,1-4.13,2.21c-3.13,0-5.64-2.67-5.64-6.77,0-4.43,2.75-7,5.91-7a4,4,0,0,1,3.48,1.49h.06v-7.18Zm-4.1,11.6a3.17,3.17,0,0,0-.06-.75,2.43,2.43,0,0,0-2.4-2c-1.89,0-2.83,1.67-2.83,3.75s1.1,3.62,2.8,3.62a2.44,2.44,0,0,0,2.41-2,5.25,5.25,0,0,0,.08-.92Z" transform="translate(-1 -1)"/><path class="cls-5" d="M442.36,282.78c.13,1.7,1.8,2.51,3.72,2.51a10.84,10.84,0,0,0,3.65-.57l.54,2.78a12.44,12.44,0,0,1-4.78.84c-4.48,0-7.05-2.59-7.05-6.72,0-3.35,2.11-7.05,6.67-7.05,4.26,0,5.88,3.32,5.88,6.59a10.42,10.42,0,0,1-.13,1.62Zm4.83-2.81a2.38,2.38,0,0,0-2.3-2.67,2.71,2.71,0,0,0-2.56,2.67Z" transform="translate(-1 -1)"/><path class="cls-5" d="M189.14,303.14a33.26,33.26,0,0,1,5.54-.4c3.48,0,5.75.65,7.47,1.94a8,8,0,0,1,3.08,6.86,9.34,9.34,0,0,1-3,7.37c-1.92,1.59-4.86,2.35-8.43,2.35a36.24,36.24,0,0,1-4.67-.27ZM193.25,318a7.77,7.77,0,0,0,1.43.08c3.75,0,6.21-2,6.21-6.37,0-3.78-2.22-5.77-5.78-5.77a8.83,8.83,0,0,0-1.86.16Z" transform="translate(-1 -1)"/><path class="cls-5" d="M210,306.25a2.05,2.05,0,1,1,2.21-2.05,2,2,0,0,1-2.19,2.05Zm-2,14.82v-13.2h4.11v13.2Z" transform="translate(-1 -1)"/><path class="cls-5" d="M218.46,307.87l1.79,6.13c.32,1.1.54,2.15.75,3.21h.08c.22-1.08.43-2.08.73-3.21l1.7-6.13h4.32l-4.91,13.2h-4.1L214,307.87Z" transform="translate(-1 -1)"/><path class="cls-5" d="M232.5,315.78c.14,1.7,1.81,2.51,3.73,2.51a10.78,10.78,0,0,0,3.64-.57l.54,2.78a12.38,12.38,0,0,1-4.77.84c-4.49,0-7-2.59-7-6.72,0-3.35,2.11-7.05,6.67-7.05,4.26,0,5.88,3.32,5.88,6.59a10.42,10.42,0,0,1-.13,1.62Zm4.84-2.81a2.38,2.38,0,0,0-2.3-2.67,2.71,2.71,0,0,0-2.56,2.67Z" transform="translate(-1 -1)"/><path class="cls-5" d="M243.85,312.21c0-1.94,0-3.21-.11-4.34h3.51l.16,2.45h.11a3.84,3.84,0,0,1,3.56-2.75,4.27,4.27,0,0,1,.86.08v3.86a6.36,6.36,0,0,0-1.1-.11,2.62,2.62,0,0,0-2.81,2.08,5,5,0,0,0-.08.92v6.67h-4.1Z" transform="translate(-1 -1)"/><path class="cls-5" d="M254.24,317.48a8,8,0,0,0,3.54,1c1.24,0,1.75-.41,1.75-1.08s-.4-1-1.92-1.51c-2.75-.92-3.8-2.4-3.77-3.94,0-2.49,2.1-4.35,5.37-4.35a8.67,8.67,0,0,1,3.69.78l-.7,2.81a6.92,6.92,0,0,0-2.86-.73c-1,0-1.56.41-1.56,1.06s.51,1,2.13,1.51c2.51.86,3.53,2.13,3.56,4.05,0,2.48-1.91,4.29-5.69,4.29a9.34,9.34,0,0,1-4.27-.95Z" transform="translate(-1 -1)"/><path class="cls-5" d="M268.14,306.25a2.05,2.05,0,1,1,2.22-2.05,2,2,0,0,1-2.22,2.05Zm-2,14.82v-13.2h4.1v13.2Z" transform="translate(-1 -1)"/><path class="cls-5" d="M286.42,301.88v15.25c0,1.48.05,3.05.11,3.94h-3.65l-.16-1.92h-.08a4.6,4.6,0,0,1-4.13,2.21c-3.13,0-5.64-2.67-5.64-6.77,0-4.43,2.75-7,5.91-7a4,4,0,0,1,3.48,1.49h.06v-7.18Zm-4.1,11.6a3.17,3.17,0,0,0-.06-.75,2.43,2.43,0,0,0-2.4-2c-1.89,0-2.83,1.67-2.83,3.75s1.1,3.62,2.8,3.62a2.44,2.44,0,0,0,2.41-2,5.25,5.25,0,0,0,.08-.92Z" transform="translate(-1 -1)"/><path class="cls-5" d="M300.86,317.88a17.3,17.3,0,0,0,.22,3.19h-3.7l-.24-1.32h-.08a4.76,4.76,0,0,1-3.78,1.61,4,4,0,0,1-4.26-4c0-3.43,3.07-5.05,7.74-5.05v-.16c0-.71-.38-1.7-2.4-1.7a7.61,7.61,0,0,0-3.64,1l-.76-2.62a10.89,10.89,0,0,1,5.13-1.19c4.4,0,5.77,2.59,5.77,5.7Zm-4-3.05c-2.16,0-3.84.51-3.84,2.08a1.48,1.48,0,0,0,1.62,1.57,2.28,2.28,0,0,0,2.14-1.51,3.22,3.22,0,0,0,.08-.71Z" transform="translate(-1 -1)"/><path class="cls-5" d="M317,301.88v15.25c0,1.48.05,3.05.11,3.94h-3.65l-.16-1.92h-.08a4.6,4.6,0,0,1-4.13,2.21c-3.13,0-5.64-2.67-5.64-6.77,0-4.43,2.75-7,5.91-7a4,4,0,0,1,3.48,1.49h.06v-7.18Zm-4.1,11.6a3.17,3.17,0,0,0-.06-.75,2.43,2.43,0,0,0-2.4-2c-1.89,0-2.83,1.67-2.83,3.75s1.1,3.62,2.8,3.62a2.44,2.44,0,0,0,2.41-2,5.25,5.25,0,0,0,.08-.92Z" transform="translate(-1 -1)"/><path class="cls-5" d="M329.43,315.78c.14,1.7,1.81,2.51,3.73,2.51a10.78,10.78,0,0,0,3.64-.57l.54,2.78a12.4,12.4,0,0,1-4.78.84c-4.48,0-7-2.59-7-6.72,0-3.35,2.1-7.05,6.67-7.05,4.26,0,5.88,3.32,5.88,6.59a10.42,10.42,0,0,1-.13,1.62Zm4.84-2.81a2.38,2.38,0,0,0-2.3-2.67,2.71,2.71,0,0,0-2.56,2.67Z" transform="translate(-1 -1)"/><path class="cls-5" d="M350.76,302.87v18.2h-4.1v-18.2Z" transform="translate(-1 -1)"/><path class="cls-5" d="M354.33,312.08c0-1.65-.06-3-.11-4.21h3.56l.19,1.83h.08a4.75,4.75,0,0,1,4.08-2.13c2.7,0,4.72,1.81,4.72,5.7v7.8h-4.1v-7.32c0-1.7-.6-2.86-2.08-2.86a2.24,2.24,0,0,0-2.1,1.54,2.92,2.92,0,0,0-.14,1v7.61h-4.1Z" transform="translate(-1 -1)"/><path class="cls-5" d="M380.16,320.72a9.35,9.35,0,0,1-3.67.62c-4.26,0-7-2.62-7-6.75,0-3.83,2.65-7,7.56-7a9.6,9.6,0,0,1,3.13.51l-.65,3.05a5.68,5.68,0,0,0-2.29-.4,3.69,3.69,0,0,0,.08,7.37,5.79,5.79,0,0,0,2.35-.44Z" transform="translate(-1 -1)"/><path class="cls-5" d="M382.65,301.88h4.1v19.19h-4.1Z" transform="translate(-1 -1)"/><path class="cls-5" d="M402.57,316.83c0,1.73.06,3.13.11,4.24h-3.56l-.19-1.86h-.08a4.74,4.74,0,0,1-4.13,2.15c-2.7,0-4.65-1.67-4.65-5.74v-7.75h4.11V315c0,1.91.62,3.07,2.08,3.07a2.19,2.19,0,0,0,2.05-1.43,2.15,2.15,0,0,0,.16-.89v-7.85h4.1Z" transform="translate(-1 -1)"/><path class="cls-5" d="M406,317.48a8,8,0,0,0,3.53,1c1.25,0,1.76-.41,1.76-1.08s-.41-1-1.92-1.51c-2.75-.92-3.8-2.4-3.78-3.94,0-2.49,2.11-4.35,5.37-4.35a8.76,8.76,0,0,1,3.7.78l-.7,2.81a6.92,6.92,0,0,0-2.86-.73c-1,0-1.57.41-1.57,1.06s.52,1,2.14,1.51c2.51.86,3.53,2.13,3.56,4.05,0,2.48-1.92,4.29-5.7,4.29a9.32,9.32,0,0,1-4.26-.95Z" transform="translate(-1 -1)"/><path class="cls-5" d="M419.88,306.25a2.05,2.05,0,1,1,2.22-2.05,2,2,0,0,1-2.22,2.05Zm-2,14.82v-13.2H422v13.2Z" transform="translate(-1 -1)"/><path class="cls-5" d="M431.41,321.36a6.46,6.46,0,0,1-6.83-6.8c0-4.26,2.81-7,7.07-7a6.42,6.42,0,0,1,6.72,6.78,6.6,6.6,0,0,1-6.93,7Zm.11-2.94c1.62,0,2.62-1.59,2.62-4,0-1.94-.76-3.94-2.62-3.94s-2.7,2-2.7,4c0,2.24.94,3.94,2.67,3.94Zm4.26-16.3-3.29,4.1h-2.81l2.32-4.1Z" transform="translate(-1 -1)"/><path class="cls-5" d="M441,312.08c0-1.65,0-3-.1-4.21h3.56l.19,1.83h.08a4.74,4.74,0,0,1,4.07-2.13c2.7,0,4.73,1.81,4.73,5.7v7.8h-4.11v-7.32c0-1.7-.59-2.86-2.07-2.86a2.25,2.25,0,0,0-2.11,1.54,2.93,2.93,0,0,0-.13,1v7.61H441Z" transform="translate(-1 -1)"/><path class="cls-5" d="M256.94,341.19c0,3.67,2,5.13,4.39,5.13a6.74,6.74,0,0,0,3.19-.64l.29.88a7.57,7.57,0,0,1-3.62.75c-3.32,0-5.38-2.4-5.38-5.79,0-3.84,2.21-6.24,5.18-6.24,3.77,0,4.49,3.56,4.49,5.21a2.9,2.9,0,0,1-.05.7Zm7.34-.92c0-1.6-.65-4-3.43-4-2.54,0-3.62,2.26-3.84,4Z" transform="translate(-1 -1)"/><path class="cls-5" d="M267.81,345.56a5.12,5.12,0,0,0,2.59.79c1.83,0,2.69-1,2.69-2.19s-.77-1.94-2.43-2.61c-1.89-.72-2.92-1.75-2.92-3.15,0-1.68,1.32-3.12,3.55-3.12a4.45,4.45,0,0,1,2.54.72l-.43.94a3.86,3.86,0,0,0-2.3-.7,2,2,0,0,0-2.24,2c0,1.2.82,1.71,2.38,2.36,1.87.74,3,1.68,3,3.43,0,2-1.54,3.29-3.89,3.29a5.65,5.65,0,0,1-2.93-.79Z" transform="translate(-1 -1)"/><path class="cls-5" d="M279,333v2.55h3.29v.93H279V344c0,1.47.46,2.38,1.68,2.38a4.16,4.16,0,0,0,1.32-.17l.15.86a4.42,4.42,0,0,1-1.61.27,2.47,2.47,0,0,1-2-.79,4.21,4.21,0,0,1-.72-2.76v-7.28H275.9v-.93h1.94v-2.12Z" transform="translate(-1 -1)"/><path class="cls-5" d="M292,344.33a16.67,16.67,0,0,0,.17,2.74h-1.06l-.17-1.66h0a4.41,4.41,0,0,1-3.7,1.92,3.12,3.12,0,0,1-3.38-3.17c0-2.66,2.32-4.27,7-4.22v-.31c0-1.13-.22-3.41-3-3.39a5,5,0,0,0-2.91.87l-.36-.84a6.35,6.35,0,0,1,3.39-1c3.33,0,4,2.5,4,4.54Zm-1.15-3.43c-2.52-.07-5.83.31-5.83,3.07a2.2,2.2,0,0,0,2.3,2.4,3.45,3.45,0,0,0,3.41-2.3,2.1,2.1,0,0,0,.12-.7Zm.24-10.35-2.93,3.32h-.89l2.14-3.32Z" transform="translate(-1 -1)"/><path class="cls-5" d="M301.58,341.19c0,3.67,2,5.13,4.39,5.13a6.74,6.74,0,0,0,3.19-.64l.29.88a7.59,7.59,0,0,1-3.63.75c-3.31,0-5.37-2.4-5.37-5.79,0-3.84,2.21-6.24,5.18-6.24,3.77,0,4.49,3.56,4.49,5.21a2.9,2.9,0,0,1-.05.7Zm7.34-.92c0-1.6-.65-4-3.43-4-2.55,0-3.63,2.26-3.84,4Z" transform="translate(-1 -1)"/><path class="cls-5" d="M312.88,338.31c0-1.06,0-1.85-.1-2.76h1.08l.08,2.06h0a4.34,4.34,0,0,1,4-2.33c1.11,0,4,.55,4,4.87v6.92h-1.16v-6.82c0-2.11-.81-4-3.19-4a3.72,3.72,0,0,0-3.6,3.68v7.15h-1.15Z" transform="translate(-1 -1)"/><path class="cls-5" d="M325.62,347.07V336.48H324v-.93h1.65v-.63a5.67,5.67,0,0,1,1.28-4.15,3.64,3.64,0,0,1,2.56-1,3.46,3.46,0,0,1,1.73.41l-.36.86a3.17,3.17,0,0,0-1.46-.31c-2.16,0-2.59,2-2.59,4.18v.65h3.07v.93h-3.07v10.59Z" transform="translate(-1 -1)"/><path class="cls-5" d="M335.92,347.33c-3,0-5.28-2.33-5.28-5.93,0-3.93,2.59-6.12,5.45-6.12,3.19,0,5.35,2.4,5.35,5.93,0,4.27-2.95,6.12-5.5,6.12Zm.07-1c2.4,0,4.3-2.16,4.3-5.11,0-2.11-1.18-5-4.23-5s-4.27,2.62-4.27,5.09c0,2.88,1.82,5,4.18,5Z" transform="translate(-1 -1)"/><path class="cls-5" d="M352.46,346.56a7.89,7.89,0,0,1-3.39.75c-3.31,0-5.52-2.43-5.52-5.88a5.79,5.79,0,0,1,5.93-6.15,5.88,5.88,0,0,1,3,.72l-.4.94a5.16,5.16,0,0,0-2.72-.67c-3.09,0-4.68,2.35-4.68,5.06,0,3,1.9,5,4.56,5a6.35,6.35,0,0,0,2.88-.67Z" transform="translate(-1 -1)"/><path class="cls-5" d="M362.39,344.33a17.85,17.85,0,0,0,.17,2.74H361.5l-.16-1.66h0a4.41,4.41,0,0,1-3.7,1.92,3.12,3.12,0,0,1-3.38-3.17c0-2.66,2.33-4.27,7-4.22v-.31c0-1.13-.22-3.41-2.95-3.39a5,5,0,0,0-2.91.87l-.36-.84a6.38,6.38,0,0,1,3.39-1c3.33,0,4,2.5,4,4.54Zm-1.15-3.43c-2.52-.07-5.83.31-5.83,3.07a2.2,2.2,0,0,0,2.3,2.4,3.44,3.44,0,0,0,3.41-2.3,1.87,1.87,0,0,0,.12-.7Z" transform="translate(-1 -1)"/><path class="cls-5" d="M375.3,330v14.4c0,.84,0,1.85.1,2.67h-1l-.1-2.19h0a4.34,4.34,0,0,1-4.1,2.45c-2.86,0-5-2.37-5-5.81,0-3.84,2.35-6.24,5.19-6.24a4,4,0,0,1,3.76,2h0V330Zm-1.15,10.11a4,4,0,0,0-.12-1.06,3.68,3.68,0,0,0-3.62-2.81c-2.52,0-4.11,2.19-4.11,5.16,0,2.6,1.3,5,4,5a3.82,3.82,0,0,0,3.69-3,2.91,2.91,0,0,0,.12-1Z" transform="translate(-1 -1)"/><path class="cls-5" d="M386.18,344.33a17.84,17.84,0,0,0,.16,2.74h-1l-.17-1.66h-.05a4.41,4.41,0,0,1-3.7,1.92,3.13,3.13,0,0,1-3.38-3.17c0-2.66,2.33-4.27,7-4.22v-.31c0-1.13-.21-3.41-2.95-3.39a5,5,0,0,0-2.9.87l-.36-.84a6.32,6.32,0,0,1,3.38-1c3.34,0,4,2.5,4,4.54ZM385,340.9c-2.52-.07-5.83.31-5.83,3.07a2.2,2.2,0,0,0,2.3,2.4,3.44,3.44,0,0,0,3.41-2.3,1.87,1.87,0,0,0,.12-.7Z" transform="translate(-1 -1)"/><path class="cls-5" d="M245.05,367.19c0,3.67,2,5.13,4.39,5.13a6.79,6.79,0,0,0,3.2-.64l.28.88a7.53,7.53,0,0,1-3.62.75c-3.31,0-5.38-2.4-5.38-5.79,0-3.84,2.21-6.24,5.19-6.24,3.76,0,4.49,3.56,4.49,5.21a2.9,2.9,0,0,1,0,.7Zm7.35-.92c0-1.6-.65-4-3.44-4-2.54,0-3.62,2.26-3.84,4Z" transform="translate(-1 -1)"/><path class="cls-5" d="M256.35,364.31c0-1.06,0-1.85-.09-2.76h1.08l.07,2.06h0a4.32,4.32,0,0,1,4-2.33c1.1,0,4,.55,4,4.87v6.92H264.3v-6.82c0-2.11-.82-4-3.19-4a3.7,3.7,0,0,0-3.46,2.67,4.1,4.1,0,0,0-.14,1v7.15h-1.16Z" transform="translate(-1 -1)"/><path class="cls-5" d="M282.87,372.56a7.8,7.8,0,0,1-3.38.75c-3.31,0-5.52-2.43-5.52-5.88a5.79,5.79,0,0,1,5.93-6.15,5.88,5.88,0,0,1,3,.72l-.4.94a5.19,5.19,0,0,0-2.72-.67c-3.09,0-4.68,2.35-4.68,5.06,0,3,1.9,5,4.56,5a6.35,6.35,0,0,0,2.88-.67Z" transform="translate(-1 -1)"/><path class="cls-5" d="M294.32,370.26c0,1,0,1.92.1,2.81h-1.08l-.07-2.07h0a4.44,4.44,0,0,1-3.94,2.33c-1.46,0-3.93-.74-3.93-5.09v-6.69h1.15V368c0,2.49.77,4.29,3.05,4.29A3.79,3.79,0,0,0,293,370a4.18,4.18,0,0,0,.22-1.28v-7.17h1.15Z" transform="translate(-1 -1)"/><path class="cls-5" d="M305.19,370.33a17.85,17.85,0,0,0,.17,2.74h-1.05l-.17-1.66h-.05a4.41,4.41,0,0,1-3.7,1.92,3.13,3.13,0,0,1-3.38-3.17c0-2.66,2.33-4.27,7-4.22v-.31c0-1.13-.21-3.41-3-3.39a5,5,0,0,0-2.9.87l-.37-.84a6.38,6.38,0,0,1,3.39-1c3.34,0,4,2.5,4,4.54ZM304,366.9c-2.52-.07-5.83.31-5.83,3.07a2.2,2.2,0,0,0,2.3,2.4,3.44,3.44,0,0,0,3.41-2.3,1.87,1.87,0,0,0,.12-.7Z" transform="translate(-1 -1)"/><path class="cls-5" d="M310.16,359v2.55h3.29v.93h-3.29V370c0,1.47.46,2.38,1.68,2.38a4.16,4.16,0,0,0,1.32-.17l.15.86a4.47,4.47,0,0,1-1.61.27,2.47,2.47,0,0,1-2-.79,4.21,4.21,0,0,1-.72-2.76v-7.28h-1.94v-.93H309v-2.12Z" transform="translate(-1 -1)"/><path class="cls-5" d="M315.9,365c0-1.15,0-2.32-.1-3.45h1.06l.05,2.33H317a3.54,3.54,0,0,1,3.26-2.6,3.37,3.37,0,0,1,.48.05v1.08a4.61,4.61,0,0,0-.55,0c-1.58,0-2.71,1.37-3,3.21a4.93,4.93,0,0,0-.1,1.11v6.36H315.9Z" transform="translate(-1 -1)"/><path class="cls-5" d="M326.91,373.33c-3,0-5.28-2.33-5.28-5.93,0-3.93,2.6-6.12,5.45-6.12,3.19,0,5.35,2.4,5.35,5.93,0,4.27-2.95,6.12-5.49,6.12Zm.08-1c2.4,0,4.29-2.16,4.29-5.11,0-2.11-1.17-5-4.22-5s-4.28,2.62-4.28,5.09c0,2.88,1.83,5,4.18,5Z" transform="translate(-1 -1)"/><path class="cls-5" d="M341,365.22c0-1.44,0-2.57-.1-3.67H342l.08,2.18h0a4.62,4.62,0,0,1,4.28-2.45c2.95,0,4.94,2.45,4.94,5.84,0,4.1-2.45,6.21-5.23,6.21a4.34,4.34,0,0,1-3.91-2.13h-.05v6.62H341Zm1.15,3.31a3.85,3.85,0,0,0,.09.91,3.9,3.9,0,0,0,3.8,2.93c2.64,0,4.15-2.13,4.15-5.21,0-2.59-1.44-4.92-4.06-4.92a4,4,0,0,0-3.81,3.05,4.2,4.2,0,0,0-.17,1Z" transform="translate(-1 -1)"/><path class="cls-5" d="M354.78,359.24a.92.92,0,0,1-.89-1,1,1,0,0,1,.93-1,1,1,0,0,1,.92,1,.93.93,0,0,1-.94,1Zm-.53,13.83V361.55h1.15v11.52Z" transform="translate(-1 -1)"/><path class="cls-5" d="M359.05,356h1.15v17.07h-1.15Z" transform="translate(-1 -1)"/><path class="cls-5" d="M371.1,370.33a16.67,16.67,0,0,0,.17,2.74h-1.06l-.17-1.66H370a4.37,4.37,0,0,1-3.69,1.92,3.13,3.13,0,0,1-3.39-3.17c0-2.66,2.33-4.27,7-4.22v-.31c0-1.13-.21-3.41-2.95-3.39a5,5,0,0,0-2.9.87l-.36-.84a6.32,6.32,0,0,1,3.38-1c3.34,0,4,2.5,4,4.54Zm-1.16-3.43c-2.52-.07-5.83.31-5.83,3.07a2.2,2.2,0,0,0,2.31,2.4,3.43,3.43,0,0,0,3.4-2.3,1.87,1.87,0,0,0,.12-.7Z" transform="translate(-1 -1)"/><path class="cls-5" d="M374.6,365c0-1.15,0-2.32-.1-3.45h1.06l.05,2.33h.07a3.54,3.54,0,0,1,3.26-2.6,3.37,3.37,0,0,1,.48.05v1.08a4.53,4.53,0,0,0-.55,0c-1.58,0-2.71,1.37-3,3.21a5.59,5.59,0,0,0-.1,1.11v6.36H374.6Z" transform="translate(-1 -1)"/><path class="cls-5" d="M381.51,367.19c0,3.67,2,5.13,4.39,5.13a6.79,6.79,0,0,0,3.2-.64l.28.88a7.53,7.53,0,0,1-3.62.75c-3.31,0-5.38-2.4-5.38-5.79,0-3.84,2.21-6.24,5.19-6.24,3.77,0,4.49,3.56,4.49,5.21a2.9,2.9,0,0,1-.05.7Zm7.35-.92c0-1.6-.65-4-3.44-4-2.54,0-3.62,2.26-3.84,4Z" transform="translate(-1 -1)"/><path class="cls-5" d="M392.38,371.56a5.16,5.16,0,0,0,2.6.79c1.82,0,2.68-1,2.68-2.19s-.76-1.94-2.42-2.61c-1.9-.72-2.93-1.75-2.93-3.15,0-1.68,1.32-3.12,3.55-3.12a4.51,4.51,0,0,1,2.55.72l-.43.94a3.9,3.9,0,0,0-2.31-.7,2,2,0,0,0-2.23,2c0,1.2.82,1.71,2.38,2.36,1.87.74,3,1.68,3,3.43,0,2-1.53,3.29-3.89,3.29a5.61,5.61,0,0,1-2.92-.79Z" transform="translate(-1 -1)"/><path class="cls-5" d="M65,308.05a30.25,30.25,0,0,1-30-34.57A279.58,279.58,0,0,1,270.52,38a30.27,30.27,0,0,1,8.72,59.91A219.59,219.59,0,0,0,95.34,282.12a30.15,30.15,0,0,1-29.95,25.93Z" transform="translate(-1 -1)"/><path class="cls-6" d="M559.3,308.05a30.12,30.12,0,0,1-29.92-25.9A219.59,219.59,0,0,0,345.12,97.8,30.24,30.24,0,1,1,353.79,38,279.55,279.55,0,0,1,589.35,273.51a30.21,30.21,0,0,1-29.94,34.54Z" transform="translate(-1 -1)"/><path class="cls-7" d="M349.22,591.69A30.09,30.09,0,0,1,345,531.82,219.58,219.58,0,0,0,529.44,347a29.94,29.94,0,0,1,29.77-25.8h.38a30.07,30.07,0,0,1,29.78,34.37A279.55,279.55,0,0,1,353.61,591.37a30.77,30.77,0,0,1-4.39.32Z" transform="translate(-1 -1)"/><path class="cls-8" d="M275.1,591.69a31,31,0,0,1-4.4-.32A279.6,279.6,0,0,1,35,355.64a30.1,30.1,0,0,1,29.82-34.4h.69a30,30,0,0,1,29.8,25.83,219.58,219.58,0,0,0,184.1,184.7,30.12,30.12,0,0,1-4.28,59.92Z" transform="translate(-1 -1)"/><polygon class="cls-9" points="89.11 213.03 86.89 218.11 91.61 220.16 94.08 214.5 95.5 215.11 92.29 222.47 79.21 216.78 82.29 209.71 83.7 210.33 81.36 215.71 85.5 217.5 87.71 212.42 89.11 213.03"/><path class="cls-9" d="M95.78,201.25c-2.56-1.28-5.85-1.27-7.2,1.43s.49,5.44,3.26,6.8S97.73,210.59,99,208s-.33-5.3-3.24-6.76m9,2.81c-1.32,1.49-2.68,2.92-3.93,4.14a2.84,2.84,0,0,0-.58.68c-1.63,3-5.16,4.44-9.26,2.38s-5.47-5.86-3.74-9.31,5.55-4.36,9.32-2.47c3.27,1.64,4.61,4.2,4.28,6.69l.08,0c1-1.11,2-2.34,2.68-3.32Z" transform="translate(-1 -1)"/><path class="cls-9" d="M93,191.63l7.3,4.24c2.77,1.61,4.65,1.06,5.61-.59,1.06-1.83.53-3.7-2.2-5.28l-7.3-4.24.93-1.61,7.2,4.17c3.79,2.2,4.18,5.1,2.63,7.77s-4,3.59-7.84,1.37l-7.27-4.22Z" transform="translate(-1 -1)"/><rect class="cls-9" x="105.18" y="176.55" width="1.84" height="14.26" transform="translate(-106.82 173.45) rotate(-57.5)"/><path class="cls-9" d="M114.38,181.35a12.65,12.65,0,0,0,1.15-1.47c2.25-3.23,1.67-6.24-1.49-8.44-2.75-1.94-5.59-1.6-7.82,1.59a11.32,11.32,0,0,0-1.08,1.88ZM103,175.64a26.18,26.18,0,0,1,2-3.38c1.51-2.17,3.09-3.36,4.76-3.72a6.59,6.59,0,0,1,5.35,1.28,7.51,7.51,0,0,1,3.37,4.86c.33,1.85-.34,4.07-1.92,6.34a30.09,30.09,0,0,1-2.05,2.65Z" transform="translate(-1 -1)"/><path class="cls-9" d="M122.35,163l-4.09-1.43c-.92-.33-1.72-.69-2.5-1l0,0c.54.69,1.08,1.41,1.59,2.16l2.38,3.65Zm-1.75,4.57,2.61,3.93L122,173l-8.22-12.62,1.37-1.74,14.23,5-1.22,1.55-4.47-1.58Z" transform="translate(-1 -1)"/><path class="cls-9" d="M131.09,159.43a11.84,11.84,0,0,0,1.32-1.33c2.61-2.95,2.37-6-.51-8.56-2.51-2.25-5.37-2.24-8,.68a10.43,10.43,0,0,0-1.29,1.75Zm-10.67-7a26.52,26.52,0,0,1,2.38-3.13c1.75-2,3.46-3,5.16-3.15a6.6,6.6,0,0,1,5.17,1.88,7.58,7.58,0,0,1,2.79,5.22c.12,1.88-.8,4-2.64,6.08a32.23,32.23,0,0,1-2.34,2.4Z" transform="translate(-1 -1)"/><path class="cls-9" d="M144.36,145.18a11.7,11.7,0,0,0,1.41-1.21c2.84-2.73,2.86-5.8.19-8.58-2.32-2.44-5.17-2.66-8,0a10.69,10.69,0,0,0-1.43,1.63Zm-10.07-7.82a26.23,26.23,0,0,1,2.62-2.93c1.9-1.83,3.69-2.69,5.39-2.72a6.56,6.56,0,0,1,5,2.3,7.54,7.54,0,0,1,2.37,5.42c0,1.89-1.13,3.93-3.13,5.85a29.71,29.71,0,0,1-2.53,2.2Z" transform="translate(-1 -1)"/><polygon class="cls-9" points="154.76 126.73 150.56 130.35 153.92 134.24 158.6 130.2 159.61 131.37 153.54 136.62 144.22 125.82 150.04 120.79 151.05 121.96 146.62 125.79 149.57 129.2 153.76 125.57 154.76 126.73"/><path class="cls-9" d="M174.9,120.54a13.06,13.06,0,0,1-3,3.25,6.7,6.7,0,0,1-10.18-1.4c-2.52-3.42-2-7.66,1.8-10.52a8.74,8.74,0,0,1,3.24-1.6l.55,1.47a7.42,7.42,0,0,0-2.9,1.39,5.34,5.34,0,0,0-1.18,8c2.17,2.91,5.19,3.32,7.86,1.33a6,6,0,0,0,1.74-1.77l-2.54-3.41L167.92,119l-.88-1.19,3.77-2.81Z" transform="translate(-1 -1)"/><path class="cls-9" d="M174,100.81l-.86,3.55-1.27.85.27-3.16Zm6.3,8.8-4.61,3.07,2.86,4.28,5.14-3.43.85,1.29-6.67,4.45L170,107.4l6.41-4.27.86,1.28-4.88,3.26,2.51,3.75,4.61-3.08Z" transform="translate(-1 -1)"/><path class="cls-9" d="M186.88,113.34l-7.28-12.27,1.73-1,7.61,3.87a40.39,40.39,0,0,1,4.57,2.68l0,0c-1.12-1.56-2-3-3.18-4.94l-3-5.13,1.49-.89,7.28,12.27-1.6,1-7.59-3.91a44.73,44.73,0,0,1-4.72-2.74l-.05,0c1,1.49,1.92,3,3.13,5l3.11,5.24Z" transform="translate(-1 -1)"/><polygon class="cls-9" points="201.65 95.84 196.74 98.41 199.12 102.97 204.6 100.1 205.31 101.47 198.21 105.19 191.59 92.55 198.41 88.98 199.13 90.35 193.94 93.07 196.03 97.06 200.94 94.49 201.65 95.84"/><path class="cls-9" d="M207.26,93.61l1.71-.8c1.78-.83,2.46-2.33,1.77-3.81-.77-1.67-2.32-1.84-4.1-1a7.39,7.39,0,0,0-1.57.92Zm-4.41-5.12a20.32,20.32,0,0,1,3.08-1.76c1.79-.83,3.09-1,4.23-.68a3.53,3.53,0,0,1,2.16,2,3.74,3.74,0,0,1-.9,4.44l0,0a3.57,3.57,0,0,1,3.11,1.73,23,23,0,0,0,2.65,3.09l-1.73.8a19.36,19.36,0,0,1-2.3-2.69c-1.21-1.61-2.21-2-3.76-1.31l-1.57.73,2.6,5.61-1.66.77Z" transform="translate(-1 -1)"/><path class="cls-9" d="M217.93,89.38c1.13,2.83,3.67,4.76,6.37,3.69s3.25-4.19,2-7.2c-1-2.64-3.52-4.84-6.37-3.71s-3.2,4.31-2,7.22m10.2-4.31c1.82,4.56,0,8.08-3.38,9.43s-7-.35-8.63-4.36c-1.67-4.21-.15-8,3.39-9.41s7.06.41,8.62,4.34" transform="translate(-1 -1)"/><path class="cls-9" d="M73.68,404.82l13.23-5.32.75,1.87-5,6.92a40.41,40.41,0,0,1-3.34,4.11l0,0c1.71-.87,3.3-1.55,5.36-2.38l5.54-2.23.64,1.61-13.23,5.32L77,413l5-6.9a45.82,45.82,0,0,1,3.43-4.24l-.05-.06c-1.63.77-3.2,1.45-5.4,2.33l-5.65,2.27Z" transform="translate(-1 -1)"/><path class="cls-9" d="M86.46,417.2c-2.75,1.31-4.5,4-3.25,6.59s4.39,3,7.31,1.58c2.56-1.23,4.6-3.84,3.28-6.61s-4.51-2.91-7.34-1.56m5,9.89c-4.43,2.11-8.07.54-9.63-2.75s-.13-7,3.77-8.9c4.09-1.95,8-.69,9.61,2.75s.07,7.07-3.75,8.9" transform="translate(-1 -1)"/><path class="cls-9" d="M91.5,439.38a11,11,0,0,0,.85,1.66c2,3.4,5,4.13,8.28,2.19,2.92-1.68,3.81-4.4,1.84-7.76a11.16,11.16,0,0,0-1.25-1.77Zm10-7.95a26.79,26.79,0,0,1,2.23,3.23c1.33,2.28,1.75,4.22,1.38,5.88a6.57,6.57,0,0,1-3.41,4.32,7.52,7.52,0,0,1-5.82,1c-1.82-.48-3.56-2-5-4.41a27,27,0,0,1-1.54-3Z" transform="translate(-1 -1)"/><rect class="cls-9" x="96.59" y="447.7" width="14.26" height="1.84" transform="translate(-227.12 126.33) rotate(-32.73)"/><path class="cls-9" d="M102.32,455.45a6.54,6.54,0,0,0,1.12,3.24c1.07,1.55,2.51,1.89,3.7,1.07s1.28-1.82.8-3.83c-.65-2.38-.48-4.25,1.17-5.39,1.83-1.27,4.23-.7,5.81,1.58a6.41,6.41,0,0,1,1.22,3l-1.52.44a5.66,5.66,0,0,0-1-2.61c-1.11-1.6-2.48-1.55-3.28-1-1.1.76-1.14,1.84-.65,3.89.61,2.51.35,4.19-1.37,5.38s-4.3,1-6.22-1.77a7.31,7.31,0,0,1-1.32-3.51Z" transform="translate(-1 -1)"/><path class="cls-9" d="M113.88,474.21a9.23,9.23,0,0,1-2.84-2.57c-2.45-3.19-2.28-7.14,1.43-10A7.11,7.11,0,0,1,123,463a7.76,7.76,0,0,1,1.56,3.07l-1.46.57a6.83,6.83,0,0,0-1.29-2.65c-2-2.65-5.08-3.11-8.05-.82-2.77,2.13-3.32,5.09-1.21,7.84a7.41,7.41,0,0,0,2.3,2Z" transform="translate(-1 -1)"/><path class="cls-9" d="M122.87,473.87l1.23,1.43c1.28,1.5,2.91,1.74,4.15.68,1.4-1.19,1.14-2.73-.11-4.22a7.87,7.87,0,0,0-1.31-1.28Zm3.74-5.62a18.29,18.29,0,0,1,2.52,2.49c1.28,1.49,1.84,2.69,1.8,3.89a3.53,3.53,0,0,1-1.32,2.61,3.75,3.75,0,0,1-4.52.33l0,0a3.54,3.54,0,0,1-.82,3.47,22.8,22.8,0,0,0-2.26,3.38L120.72,483a18.72,18.72,0,0,1,2-2.94c1.22-1.6,1.29-2.66.25-4l-1.13-1.32-4.69,4-1.2-1.4Z" transform="translate(-1 -1)"/><rect class="cls-9" x="122.94" y="481.79" width="14.27" height="1.84" transform="translate(-293.67 214.85) rotate(-42.66)"/><path class="cls-9" d="M141.5,495.6c1.33-1.49,2.91-3.28,4.18-4.53l-.05-.05c-1.52.85-3.19,1.7-5.08,2.6l-6.65,3.16-1-1,3.13-6.46c.92-1.91,1.81-3.62,2.71-5.11l0,0c-1.28,1.24-3,2.87-4.62,4.3l-4.57,4.09-1.25-1.23L139,481.9l1.68,1.65-3.11,6.62c-.81,1.67-1.56,3.12-2.35,4.43l0,0a48.78,48.78,0,0,1,4.44-2.37l6.65-3.13,1.67,1.64-9.37,10.79-1.29-1.26Z" transform="translate(-1 -1)"/><rect class="cls-9" x="140.14" y="498.73" width="14.26" height="1.84" transform="translate(-324.33 275.34) rotate(-48.19)"/><path class="cls-9" d="M146.55,508.57l9-11,1.55,1.27-1.05,8.48a40.14,40.14,0,0,1-1,5.2h.05c1.07-1.58,2.14-2.94,3.55-4.66l3.79-4.61,1.34,1.1-9.05,11-1.44-1.18,1.09-8.47a46.72,46.72,0,0,1,1-5.37l-.06,0c-1.06,1.46-2.11,2.81-3.62,4.64l-3.86,4.71Z" transform="translate(-1 -1)"/><path class="cls-9" d="M167.75,517.59l1.28-4.14c.29-.94.62-1.75.93-2.55l0,0c-.67.56-1.37,1.12-2.1,1.66l-3.56,2.52ZM163.12,516l-3.84,2.76-1.54-1.12L170.05,509l1.79,1.31-4.44,14.4-1.6-1.16,1.41-4.53Z" transform="translate(-1 -1)"/><path class="cls-9" d="M178.73,531.5A9,9,0,0,1,175.2,530c-3.37-2.18-4.53-6-2-9.88a7.09,7.09,0,0,1,10.32-2.24,7.59,7.59,0,0,1,2.5,2.37l-1.19,1a6.71,6.71,0,0,0-2.09-2.06c-2.81-1.82-5.84-1.23-7.87,1.91-1.9,2.93-1.43,5.91,1.48,7.79a7.39,7.39,0,0,0,2.84,1.14Z" transform="translate(-1 -1)"/><rect class="cls-9" x="178.83" y="527.1" width="14.27" height="1.84" transform="translate(-363.99 417.3) rotate(-59.3)"/><path class="cls-9" d="M203,525.63l-3.53.89-1.34-.72,2.9-1.24Zm-11.69,5.63c-1.45,2.68-1.28,5.87,1.27,7.24s5.3-.2,6.83-3.06c1.34-2.5,1.44-5.81-1.26-7.26s-5.36.32-6.84,3.08m9.86,5c-2.32,4.33-6.19,5.21-9.39,3.48s-4.27-5.6-2.23-9.4c2.14-4,6-5.27,9.38-3.47s4.24,5.66,2.24,9.39" transform="translate(-1 -1)"/><path class="cls-9" d="M201.37,544.46l5.94-13,1.83.84,1.15,8.47a40,40,0,0,1,.39,5.28h0c.64-1.8,1.32-3.4,2.25-5.42l2.49-5.43,1.58.73-6,13-1.69-.78-1.1-8.47a43.74,43.74,0,0,1-.44-5.44h-.07c-.65,1.68-1.33,3.26-2.32,5.41l-2.54,5.54Z" transform="translate(-1 -1)"/><path class="cls-9" d="M415.48,547.6a9,9,0,0,1-3.21,2.08c-3.71,1.55-7.48.37-9.29-3.94a7.11,7.11,0,0,1,4-9.79,7.83,7.83,0,0,1,3.37-.72l.17,1.56a6.88,6.88,0,0,0-2.89.56c-3.08,1.29-4.31,4.12-2.86,7.58,1.34,3.22,4.06,4.52,7.26,3.18a7.34,7.34,0,0,0,2.55-1.71Z" transform="translate(-1 -1)"/><path class="cls-9" d="M416.44,539.92c1.33,2.74,4,4.48,6.62,3.21s2.93-4.41,1.52-7.33c-1.24-2.55-3.86-4.57-6.63-3.22s-2.88,4.52-1.51,7.34m9.86-5c2.14,4.41.59,8.06-2.68,9.65s-7,.17-8.93-3.71c-2-4.07-.74-8,2.68-9.63s7.08-.12,8.93,3.69" transform="translate(-1 -1)"/><path class="cls-9" d="M440.16,528.26c-1.08-1.67-2.38-3.69-3.24-5.24l-.06,0c.41,1.69.78,3.53,1.13,5.6l1.25,7.26-1.21.69-5.38-4.75c-1.58-1.41-3-2.73-4.18-4l0,0c.85,1.57,1.94,3.69,2.89,5.61L434,539l-1.53.87L426.29,527l2-1.17,5.53,4.78c1.39,1.23,2.59,2.35,3.64,3.46l.05,0c-.4-1.43-.74-3-1.08-4.92l-1.22-7.25,2-1.16,7.85,11.94-1.56.89Z" transform="translate(-1 -1)"/><path class="cls-9" d="M442.38,517.42l4.66,7c1.77,2.67,3.7,3,5.29,2,1.76-1.17,2.12-3.08.38-5.71l-4.67-7,1.55-1,4.6,6.94c2.42,3.65,1.49,6.42-1.09,8.13s-5.19,1.43-7.63-2.25l-4.64-7Z" transform="translate(-1 -1)"/><path class="cls-9" d="M461.13,522l-8.56-11.4,1.6-1.21,8,3a40.4,40.4,0,0,1,4.83,2.17l0,0c-1.28-1.42-2.35-2.78-3.69-4.55l-3.58-4.77,1.38-1,8.57,11.39-1.49,1.12-8-3.06a46.14,46.14,0,0,1-5-2.2l0,.05c1.16,1.38,2.23,2.72,3.65,4.61l3.66,4.87Z" transform="translate(-1 -1)"/><rect class="cls-9" x="468.29" y="499.55" width="1.84" height="14.27" transform="translate(-215.8 410.73) rotate(-39.3)"/><path class="cls-9" d="M478.16,506.6a10.91,10.91,0,0,0,1.46-1.16c2.95-2.62,3.08-5.68.52-8.56-2.23-2.53-5.07-2.85-8-.26a10.26,10.26,0,0,0-1.48,1.57Zm-9.76-8.2a27.09,27.09,0,0,1,2.73-2.82c2-1.76,3.79-2.55,5.5-2.51a6.54,6.54,0,0,1,4.9,2.48,7.56,7.56,0,0,1,2.16,5.51c-.11,1.88-1.28,3.88-3.35,5.73a29.32,29.32,0,0,1-2.61,2.09Z" transform="translate(-1 -1)"/><path class="cls-9" d="M489.69,489.67l-3.89-1.92c-.88-.44-1.63-.89-2.36-1.32l0,0c.45.75.9,1.53,1.31,2.34l1.93,3.91Zm-2.3,4.32,2.12,4.22-1.35,1.35L481.53,486l1.57-1.57,13.52,6.67-1.4,1.39-4.24-2.1Z" transform="translate(-1 -1)"/><path class="cls-9" d="M499.07,486.31a11.63,11.63,0,0,0,1.32-1.32c2.62-2.93,2.41-6-.47-8.56-2.49-2.26-5.36-2.26-7.95.64a9.69,9.69,0,0,0-1.3,1.74Zm-10.64-7a26.65,26.65,0,0,1,2.39-3.12c1.76-2,3.48-3,5.18-3.13a6.58,6.58,0,0,1,5.16,1.92,7.54,7.54,0,0,1,2.77,5.23c.1,1.88-.83,4-2.68,6.07a28.08,28.08,0,0,1-2.35,2.38Z" transform="translate(-1 -1)"/><polygon class="cls-9" points="503.08 459.38 504.18 457.9 514.41 465.45 518.04 460.55 519.28 461.47 514.56 467.86 503.08 459.38"/><path class="cls-9" d="M527.13,451.17a13.12,13.12,0,0,1-1.78,4.08,6.68,6.68,0,0,1-10.05,2.1c-3.52-2.37-4.49-6.53-1.84-10.51a9.1,9.1,0,0,1,2.52-2.6l1,1.21a7.14,7.14,0,0,0-2.26,2.28,5.34,5.34,0,0,0,1.58,8c3,2,6,1.38,7.85-1.39a5.94,5.94,0,0,0,1-2.25l-3.54-2.36-1.61,2.41-1.23-.82,2.61-3.91Z" transform="translate(-1 -1)"/><path class="cls-9" d="M529.54,445.76a9.87,9.87,0,0,0,.86-1.28c1-1.64,1.26-3.51-.52-4.57s-3.22,0-4.25,1.77l-.77,1.31Zm-5.89-3.48.86-1.44c1-1.67.69-3.17-.49-3.87-1.44-.86-2.65-.1-3.6,1.51a8.18,8.18,0,0,0-.72,1.47Zm-6-1.39a17.61,17.61,0,0,1,1.46-3A5.87,5.87,0,0,1,522,435a3,3,0,0,1,2.77.27,3.38,3.38,0,0,1,1.47,3.67l0,0a3.68,3.68,0,0,1,4.58-.71,3.84,3.84,0,0,1,1.84,2.49c.28,1.32-.18,2.92-1.36,4.92a22.91,22.91,0,0,1-1.6,2.38Z" transform="translate(-1 -1)"/><polygon class="cls-9" points="525.09 427.98 523.05 431.81 521.67 431.08 526.62 421.75 528 422.48 525.96 426.33 537.18 432.28 536.3 433.93 525.09 427.98"/><polygon class="cls-9" points="532.52 416.31 537.03 418.41 539.05 414.08 540.2 414.62 538.18 418.95 542.72 421.07 542.15 422.3 537.6 420.17 535.58 424.51 534.43 423.97 536.45 419.64 531.95 417.53 532.52 416.31"/><polygon class="cls-9" points="370.04 70.78 365.82 69.75 366.2 68.22 376.46 70.73 376.09 72.26 371.85 71.22 368.83 83.56 367.02 83.12 370.04 70.78"/><path class="cls-9" d="M382.8,82l-.18-4.33c-.05-1,0-1.86,0-2.71h0c-.44.75-.91,1.52-1.42,2.28l-2.5,3.56Zm-4.89.07-2.68,3.89-1.83-.54,8.66-12.33,2.13.63.66,15.06L383,88.2l-.21-4.73Z" transform="translate(-1 -1)"/><polygon class="cls-9" points="390.85 75.09 392.59 75.69 388.41 87.71 394.17 89.71 393.66 91.17 386.17 88.56 390.85 75.09"/><polygon class="cls-9" points="405.27 88.57 400.13 86.52 398.22 91.29 403.95 93.58 403.38 95.02 395.94 92.04 401.23 78.8 408.38 81.66 407.81 83.09 402.36 80.92 400.69 85.1 405.84 87.16 405.27 88.57"/><path class="cls-9" d="M406.89,97.07l6-12.95,1.83.85,1.12,8.46a39.82,39.82,0,0,1,.38,5.28h.05c.64-1.8,1.33-3.39,2.26-5.41L421,87.89l1.57.72-6,13-1.69-.78-1.07-8.47a45.82,45.82,0,0,1-.43-5.44h-.06c-.66,1.68-1.34,3.25-2.34,5.4l-2.55,5.54Z" transform="translate(-1 -1)"/><polygon class="cls-9" points="427.12 92.22 423.28 90.19 424.01 88.81 433.35 93.74 432.62 95.13 428.76 93.09 422.83 104.32 421.18 103.45 427.12 92.22"/><path class="cls-9" d="M433.44,102.53c-1.56,2.62-1.54,5.81.95,7.29s5.3,0,7-2.74c1.45-2.44,1.7-5.74-.93-7.31s-5.37.07-7,2.76m9.63,5.47c-2.52,4.22-6.41,4.92-9.54,3.06s-4-5.79-1.8-9.5c2.32-3.89,6.26-5,9.53-3s4,5.85,1.81,9.48" transform="translate(-1 -1)"/><path class="cls-9" d="M454.12,123.88a9.11,9.11,0,0,1-3.47-1.62c-3.28-2.33-4.28-6.15-1.58-10a7.1,7.1,0,0,1,10.41-1.8,7.59,7.59,0,0,1,2.4,2.47l-1.23,1a6.81,6.81,0,0,0-2-2.15c-2.73-1.93-5.78-1.47-7.94,1.59-2,2.85-1.68,5.84,1.15,7.85a7.65,7.65,0,0,0,2.8,1.25Z" transform="translate(-1 -1)"/><path class="cls-9" d="M460.88,120.77c-1.9,2.38-2.31,5.55,0,7.35s5.25.75,7.27-1.78c1.76-2.22,2.45-5.46.05-7.38s-5.33-.64-7.28,1.81m8.8,6.71c-3.06,3.84-7,4-9.86,1.75s-3.2-6.28-.51-9.66c2.82-3.54,6.87-4.1,9.85-1.73s3.16,6.33.52,9.64" transform="translate(-1 -1)"/><path class="cls-9" d="M467.18,134.94l9.55-10.59,1.49,1.34-1.43,8.43a40.08,40.08,0,0,1-1.21,5.15l.05,0c1.15-1.53,2.28-2.85,3.77-4.5l4-4.43,1.29,1.16-9.56,10.6-1.38-1.25,1.48-8.41a45.78,45.78,0,0,1,1.21-5.32l-.06,0c-1.13,1.41-2.24,2.71-3.83,4.47l-4.08,4.53Z" transform="translate(-1 -1)"/><path class="cls-9" d="M483.52,148.37a11.49,11.49,0,0,0,1.2,1.42c2.7,2.87,5.77,2.91,8.57.27,2.47-2.3,2.71-5.15,0-8a10.35,10.35,0,0,0-1.62-1.44Zm7.91-10a26.61,26.61,0,0,1,2.9,2.64c1.82,1.93,2.67,3.72,2.68,5.43a6.6,6.6,0,0,1-2.35,5,7.56,7.56,0,0,1-5.44,2.31c-1.89-.06-3.92-1.16-5.83-3.18a28.72,28.72,0,0,1-2.17-2.55Z" transform="translate(-1 -1)"/><rect class="cls-9" x="489.86" y="153.78" width="14.26" height="1.84" transform="translate(19.27 362.66) rotate(-40.96)"/><path class="cls-9" d="M496.17,161.22a6.47,6.47,0,0,0,1.35,3.15c1.18,1.46,2.65,1.69,3.77.79s1.15-1.91.51-3.87c-.82-2.33-.79-4.21.78-5.47,1.72-1.4,4.16-1,5.91,1.15a6.44,6.44,0,0,1,1.44,2.89l-1.49.55a5.83,5.83,0,0,0-1.18-2.54c-1.22-1.51-2.59-1.35-3.35-.74-1,.84-1,1.93-.35,3.93.79,2.47.66,4.15-1,5.47s-4.22,1.31-6.33-1.3a7.41,7.41,0,0,1-1.59-3.4Z" transform="translate(-1 -1)"/><path class="cls-9" d="M507.57,179a9.17,9.17,0,0,1-2.77-2.64c-2.37-3.25-2.11-7.19,1.67-10A7.09,7.09,0,0,1,516.91,168a7.76,7.76,0,0,1,1.49,3.11l-1.48.53A6.72,6.72,0,0,0,515.7,169c-2-2.7-5-3.23-8-1-2.82,2.07-3.45,5-1.4,7.81a7.44,7.44,0,0,0,2.25,2.08Z" transform="translate(-1 -1)"/><path class="cls-9" d="M517.52,184.18l2.68-3.41c.61-.78,1.2-1.42,1.78-2l0,0c-.82.28-1.68.56-2.55.8l-4.22,1.08ZM513.76,181l-4.57,1.2-1-1.59,14.6-3.72L524,178.8l-9.31,11.85L513.59,189l2.93-3.72Z" transform="translate(-1 -1)"/><path class="cls-9" d="M523.06,190.75a6.1,6.1,0,0,0,.64,1.39c1.11,1.92,2.72,2.56,4.42,1.57s1.76-2.55.74-4.31a7.5,7.5,0,0,0-1-1.43Zm5-5a22,22,0,0,1,2,2.92,5.91,5.91,0,0,1,1,4.06,3.85,3.85,0,0,1-2,2.57,4.15,4.15,0,0,1-3.19.57,5.88,5.88,0,0,1-3.54-3,6.39,6.39,0,0,1-.63-1.34l-5,2.86-.92-1.6Z" transform="translate(-1 -1)"/><path class="cls-9" d="M529.28,204.76l3-3.13c.68-.71,1.33-1.29,2-1.86l0,0c-.85.2-1.73.39-2.62.55l-4.31.66Zm-3.43-3.48-4.67.75-.88-1.69,14.9-2.28,1,2-10.41,10.89-.91-1.75,3.28-3.42Z" transform="translate(-1 -1)"/><path class="cls-9" d="M531.23,221.72a9.18,9.18,0,0,1-2.18-3.15c-1.66-3.66-.59-7.47,3.67-9.4a7.1,7.1,0,0,1,9.89,3.69,7.57,7.57,0,0,1,.82,3.35l-1.55.22a6.71,6.71,0,0,0-.65-2.87c-1.38-3.05-4.24-4.19-7.65-2.64-3.18,1.44-4.4,4.2-3,7.36a7.42,7.42,0,0,0,1.78,2.49Z" transform="translate(-1 -1)"/><rect class="cls-9" x="531.61" y="221.68" width="14.26" height="1.84" transform="translate(-45.17 218.83) rotate(-22.18)"/><path class="cls-9" d="M535.86,230.71a12.28,12.28,0,0,0,.53,1.79c1.34,3.71,4.13,5,7.75,3.67,3.18-1.12,4.55-3.63,3.23-7.3a10,10,0,0,0-.91-2Zm11.25-6a26.81,26.81,0,0,1,1.61,3.59c.89,2.49.95,4.47.28,6a6.57,6.57,0,0,1-4.14,3.62,7.51,7.51,0,0,1-5.92-.06c-1.7-.8-3.12-2.63-4.06-5.24a27.07,27.07,0,0,1-1-3.2Z" transform="translate(-1 -1)"/><path class="cls-9" d="M546.2,247.83l3.54-2.5c.81-.57,1.56-1,2.29-1.45v0c-.87,0-1.77.06-2.68,0l-4.35-.17Zm-2.7-4.08-4.72-.14-.54-1.83,15,.6.63,2.13-12.3,8.71-.56-1.88,3.87-2.74Z" transform="translate(-1 -1)"/><path class="cls-9" d="M544.06,257a11.53,11.53,0,0,0,.31,1.84c.9,3.83,3.52,5.41,7.28,4.54,3.28-.74,4.93-3.08,4.05-6.87a10.2,10.2,0,0,0-.68-2.06Zm11.87-4.65a25.77,25.77,0,0,1,1.17,3.75c.6,2.57.43,4.55-.42,6a6.57,6.57,0,0,1-4.54,3.11,7.53,7.53,0,0,1-5.86-.74c-1.6-1-2.8-3-3.43-5.68a29.55,29.55,0,0,1-.59-3.29Z" transform="translate(-1 -1)"/></g></g></svg>