<svg id="Capa_1" data-name="Capa 1" xmlns="http://www.w3.org/2000/svg" viewBox="0 0 514.98 58.19"><defs><style>.cls-1{opacity:0.2;}.cls-2{fill:#7ab2e1;}</style></defs><g class="cls-1"><path class="cls-2" d="M25.53,61.1h-.6a.89.89,0,0,1-.88-.59l-6.56-16.6L11,60.53a.9.9,0,0,1-.87.57h-.6a1,1,0,0,1-.92-.72L1.54,35.22A.9.9,0,0,1,2.45,34H5.9a1,1,0,0,1,.91.71l3.76,14.43L16.34,34.2a.85.85,0,0,1,.87-.57h.67a.85.85,0,0,1,.88.58l5.8,14.93,3.68-14.43a1,1,0,0,1,.92-.71h3.45a.9.9,0,0,1,.91,1.22L26.44,60.39A1,1,0,0,1,25.53,61.1Zm-8.3-17.88h.52l6.77,17.12a.41.41,0,0,0,.41.26h.6a.49.49,0,0,0,.43-.34L33,35.08a.41.41,0,0,0-.43-.58H29.16a.51.51,0,0,0-.43.34L24.86,50h-.52L18.29,34.38c0-.12-.12-.25-.41-.25h-.67c-.29,0-.37.13-.4.24l-6,15.6h-.52l0-.19L6.33,34.84a.53.53,0,0,0-.43-.34H2.45a.46.46,0,0,0-.39.16.46.46,0,0,0,0,.42H2L9.1,60.25a.47.47,0,0,0,.43.35h.6a.39.39,0,0,0,.41-.28Z" transform="translate(-1.49 -2.9)"/><path class="cls-2" d="M58.91,60.72H55.65a1.33,1.33,0,0,1-1.31-.89l-1.77-3.9H41.69l-1.77,3.9a1.37,1.37,0,0,1-1.31.89H35.35a.91.91,0,0,1-.87-1.33h0L46.13,34.18a.92.92,0,0,1,.87-.55h.37a.88.88,0,0,1,.86.55L59.77,59.39a.92.92,0,0,1,0,.91A.94.94,0,0,1,58.91,60.72ZM41.37,55.43H52.89l1.9,4.19c.23.46.43.6.86.6h3.26a.46.46,0,0,0,.4-.19.44.44,0,0,0,0-.43L47.78,34.39a.38.38,0,0,0-.41-.26H47a.43.43,0,0,0-.42.27L34.94,59.6a.44.44,0,0,0,0,.43.47.47,0,0,0,.41.19h3.26a.89.89,0,0,0,.85-.59Zm9.91-3.66H43L46.87,43h.44Zm-7.53-.5H50.5l-3.41-7.51Z" transform="translate(-1.49 -2.9)"/><path class="cls-2" d="M79.14,60.72H65.43a1,1,0,0,1-1-1V35a1,1,0,0,1,1-1h3.45a1,1,0,0,1,1,1V55.73h9.3a1,1,0,0,1,1,1v3.07A1,1,0,0,1,79.14,60.72ZM65.43,34.5A.46.46,0,0,0,65,35v24.8a.46.46,0,0,0,.46.46H79.14a.46.46,0,0,0,.46-.46V56.69a.46.46,0,0,0-.46-.46h-9.8V35a.49.49,0,0,0-.46-.46Z" transform="translate(-1.49 -2.9)"/><path class="cls-2" d="M99.07,61.1H98.4a.93.93,0,0,1-.86-.55L91.17,46.4,89.09,60a1,1,0,0,1-.92.77H84.8a1,1,0,0,1-.75-.31,1,1,0,0,1-.21-.84L88.3,34.4a.87.87,0,0,1,.92-.77h.6a.93.93,0,0,1,.86.51l8.07,17.32,8.08-17.32a.89.89,0,0,1,.86-.51h.6a.88.88,0,0,1,.92.78l4.42,25.16a1,1,0,0,1-.16.82.94.94,0,0,1-.76.33H109.3a1.05,1.05,0,0,1-1-.74L106.23,46.4,99.94,60.54A.88.88,0,0,1,99.07,61.1ZM90.8,45.46h.49L98,60.33a.42.42,0,0,0,.41.27h.67a.39.39,0,0,0,.4-.24l6.63-14.9h.49l2.25,14.41a.55.55,0,0,0,.46.35h3.41a.48.48,0,0,0,.37-.14.52.52,0,0,0,.06-.42l-4.42-25.18a.39.39,0,0,0-.43-.35h-.6a.39.39,0,0,0-.41.23L99,52.18h-.43L90.23,34.36a.42.42,0,0,0-.41-.23h-.6a.39.39,0,0,0-.43.34h0L84.34,59.65a.5.5,0,0,0,.09.43.47.47,0,0,0,.37.14h3.37a.48.48,0,0,0,.43-.35Z" transform="translate(-1.49 -2.9)"/><path class="cls-2" d="M141.3,60.72H138a1.32,1.32,0,0,1-1.31-.89L135,55.93H124.08l-1.77,3.9a1.38,1.38,0,0,1-1.32.89h-3.26a.91.91,0,0,1-.86-1.33h0l11.65-25.21a.92.92,0,0,1,.86-.55h.38a.88.88,0,0,1,.86.55l11.54,25.21a.91.91,0,0,1-.86,1.33Zm-17.55-5.29h11.53l1.9,4.19c.23.46.42.6.86.6h3.26a.46.46,0,0,0,.4-.19.44.44,0,0,0,0-.43L130.17,34.39a.39.39,0,0,0-.41-.26h-.38a.42.42,0,0,0-.41.27L117.32,59.6a.42.42,0,0,0,.41.62H121a.89.89,0,0,0,.86-.59Zm9.92-3.66h-8.31l3.9-8.74h.43Zm-7.53-.5h6.75l-3.41-7.51Z" transform="translate(-1.49 -2.9)"/><path class="cls-2" d="M165.61,60.72h-3.93a.88.88,0,0,1-.82-.47l-4.92-9.79h-3.75v9.3a1,1,0,0,1-1,1h-3.45a1,1,0,0,1-1-1V35a1,1,0,0,1,1-1h10.71a8.36,8.36,0,0,1,8.42,8.3,8.47,8.47,0,0,1-5.44,7.7l5,9.27a1,1,0,0,1,0,1A1,1,0,0,1,165.61,60.72ZM151.69,50h4.56L161.3,60a.4.4,0,0,0,.38.2h3.93A.46.46,0,0,0,166,60a.54.54,0,0,0,0-.51l-5.27-9.76.26-.1a8,8,0,0,0,5.39-7.34,7.87,7.87,0,0,0-7.92-7.8H147.78a.46.46,0,0,0-.46.46v24.8a.46.46,0,0,0,.46.46h3.45a.49.49,0,0,0,.46-.46Zm6.39-3.51h-6.35v-8h6.35a4,4,0,0,1,4,3.89A4.07,4.07,0,0,1,158.08,46.45Zm-5.85-.5h5.85a3.56,3.56,0,0,0,3.46-3.57A3.47,3.47,0,0,0,158.08,39h-5.85Z" transform="translate(-1.49 -2.9)"/><path class="cls-2" d="M182.1,60.72h-3.49a1,1,0,0,1-1-1V39h-5.48a1,1,0,0,1-1-1V35a1,1,0,0,1,1-1h16.37a1,1,0,0,1,1,1V38a1,1,0,0,1-1,1h-5.48V59.76A1,1,0,0,1,182.1,60.72ZM172.17,34.5a.46.46,0,0,0-.46.46V38a.46.46,0,0,0,.46.46h6V59.76a.49.49,0,0,0,.46.46h3.49a.48.48,0,0,0,.46-.46V38.49h6A.45.45,0,0,0,189,38V35a.46.46,0,0,0-.46-.46Z" transform="translate(-1.49 -2.9)"/><path class="cls-2" d="M211.25,60.72H196a1,1,0,0,1-1-1V35a1,1,0,0,1,1-1h15.25a1,1,0,0,1,1,1V38a1,1,0,0,1-1,1H200.41v5.65h9a1,1,0,0,1,1,1v3.11a1,1,0,0,1-1,1h-9v6.06h10.84a1,1,0,0,1,1,1v3.07A1,1,0,0,1,211.25,60.72ZM196,34.5a.46.46,0,0,0-.46.46v24.8a.46.46,0,0,0,.46.46h15.25a.46.46,0,0,0,.46-.46V56.69a.46.46,0,0,0-.46-.46H199.91V49.17h9.5a.46.46,0,0,0,.46-.46V45.6a.48.48,0,0,0-.46-.46h-9.5V38.49h11.34a.46.46,0,0,0,.46-.46V35a.46.46,0,0,0-.46-.46Z" transform="translate(-1.49 -2.9)"/><path class="cls-2" d="M230.32,61.1a13.74,13.74,0,1,1,0-27.47,13,13,0,0,1,9.23,3.54,1,1,0,0,1,.34.7,1,1,0,0,1-.29.71l-2.29,2.36a.85.85,0,0,1-.6.3,1,1,0,0,1-.69-.3,8.62,8.62,0,0,0-5.59-2.13,8.2,8.2,0,0,0-8.1,8.48,8.18,8.18,0,0,0,8.14,8.4A8.71,8.71,0,0,0,236,53.61a.94.94,0,0,1,1.27,0l2.33,2.4a.83.83,0,0,1,.26.59,1.06,1.06,0,0,1-.3.77A13,13,0,0,1,230.32,61.1Zm0-27a13.24,13.24,0,1,0,0,26.47A12.59,12.59,0,0,0,239.25,57a.54.54,0,0,0,.15-.39.31.31,0,0,0-.11-.25L237,54a.44.44,0,0,0-.59,0,9.2,9.2,0,0,1-5.89,2.2,8.68,8.68,0,0,1-8.64-8.9,8.7,8.7,0,0,1,8.6-9,9.13,9.13,0,0,1,5.93,2.27.51.51,0,0,0,.33.16.39.39,0,0,0,.26-.14l2.29-2.37a.48.48,0,0,0,.15-.34.44.44,0,0,0-.17-.34A12.48,12.48,0,0,0,230.32,34.13Z" transform="translate(-1.49 -2.9)"/><path class="cls-2" d="M257.25,61.1a13.55,13.55,0,0,1-13.69-13.7,13.72,13.72,0,1,1,27.43,0A13.57,13.57,0,0,1,257.25,61.1Zm0-27A13.25,13.25,0,0,0,244.06,47.4a13.22,13.22,0,0,0,26.43,0A13.27,13.27,0,0,0,257.25,34.13Zm0,22.1a8.87,8.87,0,1,1,8.87-8.83A8.84,8.84,0,0,1,257.25,56.23Zm0-17.24a8.37,8.37,0,1,0,8.37,8.41A8.5,8.5,0,0,0,257.25,39Z" transform="translate(-1.49 -2.9)"/><path class="cls-2" d="M284.61,61.1a12,12,0,0,1-8.41-3,1,1,0,0,1-.24-1.44l1.35-2.33a1.07,1.07,0,0,1,.74-.53,1.1,1.1,0,0,1,.9.2,8.84,8.84,0,0,0,5.51,2.27c1.8,0,3.15-1.13,3.15-2.64,0-1.68-1.37-2.95-4.6-4.26s-7.2-3.47-7.2-8.32c0-3.59,2.72-7.44,8.68-7.44a13.53,13.53,0,0,1,7.64,2.55,1,1,0,0,1,.44.68,1.15,1.15,0,0,1-.16.9L291,39.9a1.22,1.22,0,0,1-1.65.51l-.28-.17a8.8,8.8,0,0,0-4.79-1.84c-2.11,0-3,1.19-3,2.37,0,1.58,1.24,2.73,4.27,4,3.94,1.59,8,3.86,8,8.7C293.47,57.15,290.36,61.1,284.61,61.1Zm-6.34-6.81-.12,0a.59.59,0,0,0-.41.29l-1.35,2.33c-.27.48-.15.57.13.8h0a11.5,11.5,0,0,0,8.08,2.86c5.43,0,8.36-3.7,8.36-7.17,0-4.54-3.88-6.71-7.67-8.23-3.25-1.33-4.58-2.61-4.58-4.43,0-1.43,1.1-2.87,3.55-2.87a9.33,9.33,0,0,1,5.06,1.92l.28.17c.31.22.74,0,1-.37L292,37.48a.68.68,0,0,0,.09-.51.59.59,0,0,0-.23-.37,13,13,0,0,0-7.37-2.47c-5.62,0-8.18,3.59-8.18,6.94,0,4.55,3.93,6.66,6.89,7.86,3.45,1.39,4.91,2.8,4.91,4.72a3.39,3.39,0,0,1-3.65,3.14,9.21,9.21,0,0,1-5.81-2.37A.62.62,0,0,0,278.27,54.29Z" transform="translate(-1.49 -2.9)"/><path class="cls-2" d="M303.94,60.72h-3.49a1,1,0,0,1-1-1V35a1,1,0,0,1,1-1h3.49a1,1,0,0,1,1,1v24.8A1,1,0,0,1,303.94,60.72ZM300.45,34.5A.49.49,0,0,0,300,35v24.8a.49.49,0,0,0,.46.46h3.49a.48.48,0,0,0,.46-.46V35a.48.48,0,0,0-.46-.46Z" transform="translate(-1.49 -2.9)"/><path class="cls-2" d="M320.05,61.1a12,12,0,0,1-8.4-3,1,1,0,0,1-.25-1.44l1.35-2.33a1.09,1.09,0,0,1,.74-.53,1.13,1.13,0,0,1,.91.2,8.81,8.81,0,0,0,5.5,2.27,2.91,2.91,0,0,0,3.16-2.64c0-1.68-1.38-2.95-4.6-4.26s-7.2-3.47-7.2-8.32c0-3.59,2.71-7.44,8.68-7.44a13.6,13.6,0,0,1,7.64,2.55,1.12,1.12,0,0,1,.44.68,1.15,1.15,0,0,1-.16.9l-1.42,2.14a1.23,1.23,0,0,1-1.66.51l-.27-.17a8.86,8.86,0,0,0-4.8-1.84c-2.1,0-3,1.19-3,2.37,0,1.58,1.24,2.73,4.27,4,3.95,1.59,8,3.86,8,8.7C328.91,57.15,325.81,61.1,320.05,61.1Zm-6.34-6.81-.12,0a.55.55,0,0,0-.4.29l-1.35,2.33c-.28.48-.16.57.12.8h0a11.52,11.52,0,0,0,8.08,2.86c5.43,0,8.36-3.7,8.36-7.17,0-4.54-3.87-6.71-7.67-8.23-3.25-1.33-4.58-2.61-4.58-4.43,0-1.43,1.1-2.87,3.55-2.87a9.33,9.33,0,0,1,5.06,1.92l.28.17c.32.22.74,0,1-.37l1.42-2.14a.64.64,0,0,0,.09-.51.56.56,0,0,0-.23-.37,13,13,0,0,0-7.36-2.47c-5.62,0-8.18,3.59-8.18,6.94,0,4.55,3.93,6.66,6.88,7.86,3.45,1.39,4.92,2.8,4.92,4.72a3.4,3.4,0,0,1-3.66,3.14c-2.47,0-4.15-1.12-5.81-2.37A.62.62,0,0,0,313.71,54.29Z" transform="translate(-1.49 -2.9)"/><path class="cls-2" d="M343.61,60.72h-3.48a1,1,0,0,1-1-1V39h-5.48a1,1,0,0,1-1-1V35a1,1,0,0,1,1-1h16.37a1,1,0,0,1,1,1V38a1,1,0,0,1-1,1h-5.48V59.76A1,1,0,0,1,343.61,60.72ZM333.69,34.5a.46.46,0,0,0-.46.46V38a.45.45,0,0,0,.46.46h6V59.76a.48.48,0,0,0,.46.46h3.48a.49.49,0,0,0,.47-.46V38.49h6a.46.46,0,0,0,.46-.46V35a.46.46,0,0,0-.46-.46Z" transform="translate(-1.49 -2.9)"/><path class="cls-2" d="M372.72,60.72H357.48a1,1,0,0,1-1-1V35a1,1,0,0,1,1-1h15.24a1,1,0,0,1,1,1V38a1,1,0,0,1-1,1H361.89v5.65h9a1,1,0,0,1,1,1v3.11a1,1,0,0,1-1,1h-9v6.06h10.83a1,1,0,0,1,1,1v3.07A1,1,0,0,1,372.72,60.72ZM357.48,34.5A.46.46,0,0,0,357,35v24.8a.46.46,0,0,0,.46.46h15.24a.47.47,0,0,0,.47-.46V56.69a.47.47,0,0,0-.47-.46H361.39V49.17h9.5a.46.46,0,0,0,.46-.46V45.6a.48.48,0,0,0-.46-.46h-9.5V38.49h11.33a.46.46,0,0,0,.47-.46V35a.47.47,0,0,0-.47-.46Z" transform="translate(-1.49 -2.9)"/><path class="cls-2" d="M393.78,61.1h-.67a.92.92,0,0,1-.86-.55L385.87,46.4,383.8,60a1,1,0,0,1-.92.77h-3.37a1,1,0,0,1-.75-.31,1,1,0,0,1-.21-.84L383,34.4a.87.87,0,0,1,.92-.77h.6a.93.93,0,0,1,.86.51l8.07,17.32,8.07-17.32a.91.91,0,0,1,.87-.51h.6a.89.89,0,0,1,.92.78l4.42,25.16a1,1,0,0,1-.17.82.92.92,0,0,1-.75.33H404a1.07,1.07,0,0,1-1-.74L400.94,46.4l-6.29,14.14A.89.89,0,0,1,393.78,61.1Zm-8.27-15.64H386l6.7,14.87a.42.42,0,0,0,.41.27h.67a.39.39,0,0,0,.4-.24l6.63-14.9h.49l2.24,14.41a.58.58,0,0,0,.47.35h3.41a.44.44,0,0,0,.36-.14.53.53,0,0,0,.07-.42l-4.43-25.18a.37.37,0,0,0-.42-.35h-.6a.41.41,0,0,0-.42.23l-8.3,17.82h-.43l-8.31-17.82a.43.43,0,0,0-.41-.23h-.6a.38.38,0,0,0-.43.34h0L379,59.65a.54.54,0,0,0,.1.43.46.46,0,0,0,.37.14h3.37a.49.49,0,0,0,.43-.35Z" transform="translate(-1.49 -2.9)"/><path class="cls-2" d="M436,60.72h-3.26a1.33,1.33,0,0,1-1.31-.89l-1.77-3.9H418.78L417,59.83a1.35,1.35,0,0,1-1.31.89h-3.26a.94.94,0,0,1-.82-.42.92.92,0,0,1,0-.91h0l11.65-25.21a.91.91,0,0,1,.86-.55h.37a.89.89,0,0,1,.87.55l11.54,25.21a.91.91,0,0,1-.87,1.33Zm-17.54-5.29H430l1.9,4.19c.24.46.43.6.86.6H436a.48.48,0,0,0,.41-.19.46.46,0,0,0,0-.43L424.87,34.39a.38.38,0,0,0-.41-.26h-.37a.42.42,0,0,0-.41.27L412,59.6a.44.44,0,0,0,0,.43.46.46,0,0,0,.4.19h3.26a.88.88,0,0,0,.85-.59Zm9.91-3.66h-8.3L424,43h.43Zm-7.53-.5h6.76l-3.41-7.51Z" transform="translate(-1.49 -2.9)"/><path class="cls-2" d="M461.85,61.1h-.59a.89.89,0,0,1-.88-.59l-6.56-16.6-6.49,16.62a.9.9,0,0,1-.87.57h-.6a1,1,0,0,1-.92-.72l-7.08-25.16a.91.91,0,0,1,.92-1.22h3.45a1,1,0,0,1,.91.71l3.76,14.43,5.77-14.94a.85.85,0,0,1,.87-.57h.67a.86.86,0,0,1,.88.58l5.79,14.93,3.69-14.43a1,1,0,0,1,.92-.71h3.44a1,1,0,0,1,.8.36,1,1,0,0,1,.12.86l-7.08,25.17A1,1,0,0,1,461.85,61.1Zm-8.29-17.88h.52l6.77,17.12a.4.4,0,0,0,.41.26h.59a.47.47,0,0,0,.44-.34l7.08-25.18a.49.49,0,0,0,0-.42.5.5,0,0,0-.4-.16h-3.44a.54.54,0,0,0-.44.34L461.19,50h-.52l-6.05-15.59c0-.12-.12-.25-.41-.25h-.67c-.29,0-.37.13-.4.24l-6,15.6h-.52l-.05-.19-3.89-14.94a.53.53,0,0,0-.43-.34h-3.45a.41.41,0,0,0-.43.58h0l7.08,25.17a.46.46,0,0,0,.43.35h.6a.39.39,0,0,0,.41-.28Z" transform="translate(-1.49 -2.9)"/><path class="cls-2" d="M495.27,60.72H492a1.32,1.32,0,0,1-1.31-.89l-1.78-3.9H478.05l-1.77,3.9a1.35,1.35,0,0,1-1.31.89h-3.26a.94.94,0,0,1-.82-.42.92.92,0,0,1,0-.91h0L482.5,34.18a.91.91,0,0,1,.86-.55h.38a.88.88,0,0,1,.86.55l11.54,25.21a.91.91,0,0,1-.87,1.33Zm-17.54-5.29h11.52l1.91,4.19c.23.46.42.6.86.6h3.25a.47.47,0,0,0,.41-.19.44.44,0,0,0,0-.43L484.15,34.39a.39.39,0,0,0-.41-.26h-.38a.42.42,0,0,0-.41.27L471.3,59.6a.44.44,0,0,0,0,.43.46.46,0,0,0,.4.19H475a.89.89,0,0,0,.86-.59Zm9.92-3.66h-8.31l3.9-8.74h.43Zm-7.54-.5h6.76l-3.41-7.51Z" transform="translate(-1.49 -2.9)"/><path class="cls-2" d="M515.51,60.72H501.8a1,1,0,0,1-1-1V35a1,1,0,0,1,1-1h3.44a1,1,0,0,1,1,1V55.73h9.3a1,1,0,0,1,1,1v3.07A1,1,0,0,1,515.51,60.72ZM501.8,34.5a.46.46,0,0,0-.46.46v24.8a.46.46,0,0,0,.46.46h13.71a.46.46,0,0,0,.46-.46V56.69a.46.46,0,0,0-.46-.46h-9.8V35a.49.49,0,0,0-.47-.46Z" transform="translate(-1.49 -2.9)"/><path class="cls-2" d="M19.06,30H3.82a1,1,0,0,1-1-1V4.24a1,1,0,0,1,1-1H19.06a1,1,0,0,1,1,1V7.31a1,1,0,0,1-1,1H8.23v5.65h9a1,1,0,0,1,1,1V18a1,1,0,0,1-1,1h-9V25H19.06a1,1,0,0,1,1,1V29A1,1,0,0,1,19.06,30ZM3.82,3.78a.46.46,0,0,0-.46.46V29a.46.46,0,0,0,.46.46H19.06a.47.47,0,0,0,.47-.46V26a.46.46,0,0,0-.47-.46H7.73V18.45h9.5a.46.46,0,0,0,.46-.46V14.88a.48.48,0,0,0-.46-.46H7.73V7.77H19.06a.47.47,0,0,0,.47-.46V4.24a.47.47,0,0,0-.47-.46Z" transform="translate(-1.49 -2.9)"/><path class="cls-2" d="M38.14,30.37a13.74,13.74,0,1,1,0-27.47,13,13,0,0,1,9.23,3.55,1,1,0,0,1,.34.7,1,1,0,0,1-.29.71l-2.29,2.36a.87.87,0,0,1-.6.3,1,1,0,0,1-.69-.3,8.62,8.62,0,0,0-5.59-2.13,8.21,8.21,0,0,0-8.11,8.47A8.19,8.19,0,0,0,38.29,25a8.73,8.73,0,0,0,5.57-2.08.93.93,0,0,1,1.27,0l2.33,2.4a.83.83,0,0,1,.26.59,1.06,1.06,0,0,1-.3.77A13.08,13.08,0,0,1,38.14,30.37Zm0-27a13.24,13.24,0,1,0,0,26.47,12.54,12.54,0,0,0,8.92-3.56.58.58,0,0,0,.16-.4.3.3,0,0,0-.11-.24l-2.34-2.41a.44.44,0,0,0-.59,0,9.2,9.2,0,0,1-5.89,2.2,8.69,8.69,0,0,1-8.65-8.91,8.7,8.7,0,0,1,8.61-9,9.07,9.07,0,0,1,5.93,2.27.49.49,0,0,0,.33.16.39.39,0,0,0,.26-.14l2.29-2.37a.48.48,0,0,0,.15-.34A.55.55,0,0,0,47,6.82,12.52,12.52,0,0,0,38.14,3.4Z" transform="translate(-1.49 -2.9)"/><path class="cls-2" d="M65.11,30.37a13.55,13.55,0,0,1-13.7-13.69,13.72,13.72,0,1,1,27.44,0A13.57,13.57,0,0,1,65.11,30.37Zm0-27a13.26,13.26,0,0,0-13.2,13.28,13.22,13.22,0,0,0,26.44,0A13.28,13.28,0,0,0,65.11,3.4Zm0,22.11A8.87,8.87,0,1,1,74,16.68,8.84,8.84,0,0,1,65.11,25.51Zm0-17.24a8.37,8.37,0,1,0,8.37,8.41A8.5,8.5,0,0,0,65.11,8.27Z" transform="translate(-1.49 -2.9)"/><path class="cls-2" d="M92.46,30.37a12,12,0,0,1-8.4-3A.94.94,0,0,1,83.82,26l1.35-2.33a1.11,1.11,0,0,1,.73-.54,1.17,1.17,0,0,1,.91.21,8.81,8.81,0,0,0,5.5,2.27c1.8,0,3.16-1.14,3.16-2.64,0-1.68-1.38-3-4.6-4.26s-7.2-3.47-7.2-8.32c0-3.59,2.72-7.45,8.68-7.45A13.54,13.54,0,0,1,100,5.46a1,1,0,0,1,.44.68,1.16,1.16,0,0,1-.16.9L98.85,9.17a1.22,1.22,0,0,1-1.66.52l-.27-.17c-1.51-.95-2.93-1.85-4.8-1.85-2.1,0-3,1.2-3,2.38,0,1.58,1.23,2.73,4.26,4,4,1.59,8,3.86,8,8.7C101.33,26.42,98.22,30.37,92.46,30.37Zm-6.33-6.8H86a.6.6,0,0,0-.4.3L84.25,26.2c-.27.49-.16.58.13.81h0a11.47,11.47,0,0,0,8.08,2.86c5.44,0,8.37-3.69,8.37-7.16,0-4.54-3.88-6.71-7.68-8.24-3.25-1.32-4.57-2.6-4.57-4.42,0-1.43,1.09-2.88,3.54-2.88A9.34,9.34,0,0,1,97.19,9.1l.27.17c.32.21.74,0,1-.37l1.43-2.14a.69.69,0,0,0,.08-.52.52.52,0,0,0-.23-.36A12.94,12.94,0,0,0,92.35,3.4c-5.62,0-8.18,3.6-8.18,7,0,4.55,3.93,6.66,6.89,7.86C94.5,19.6,96,21,96,22.93a3.4,3.4,0,0,1-3.66,3.14c-2.46,0-4.15-1.13-5.81-2.38A.68.68,0,0,0,86.13,23.57Z" transform="translate(-1.49 -2.9)"/><path class="cls-2" d="M111.76,30h-3.49a1,1,0,0,1-1-1V4.24a1,1,0,0,1,1-1h3.49a1,1,0,0,1,1,1V29A1,1,0,0,1,111.76,30ZM108.27,3.78a.49.49,0,0,0-.46.46V29a.49.49,0,0,0,.46.46h3.49a.49.49,0,0,0,.46-.46V4.24a.49.49,0,0,0-.46-.46Z" transform="translate(-1.49 -2.9)"/><path class="cls-2" d="M127.83,30.37a12,12,0,0,1-8.4-3,1,1,0,0,1-.25-1.44l1.35-2.33a1.16,1.16,0,0,1,.74-.54,1.17,1.17,0,0,1,.91.21,8.81,8.81,0,0,0,5.5,2.27c1.8,0,3.16-1.14,3.16-2.64,0-1.68-1.38-3-4.6-4.26S119,15.2,119,10.35c0-3.59,2.71-7.45,8.68-7.45a13.58,13.58,0,0,1,7.64,2.56,1.08,1.08,0,0,1,.44.68,1.16,1.16,0,0,1-.16.9l-1.42,2.13a1.23,1.23,0,0,1-1.66.52l-.27-.17c-1.51-.95-2.93-1.85-4.8-1.85-2.1,0-3,1.2-3,2.38,0,1.58,1.23,2.73,4.26,4,3.95,1.59,8,3.86,8,8.7C136.7,26.42,133.59,30.37,127.83,30.37Zm-6.34-6.8h-.12a.6.6,0,0,0-.4.3l-1.35,2.32c-.27.49-.16.58.12.81h0a11.47,11.47,0,0,0,8.08,2.86c5.43,0,8.37-3.69,8.37-7.16,0-4.54-3.88-6.71-7.68-8.24-3.25-1.32-4.57-2.6-4.57-4.42,0-1.43,1.09-2.88,3.54-2.88a9.28,9.28,0,0,1,5.06,1.93l.28.17c.32.21.74,0,1-.37l1.43-2.14a.69.69,0,0,0,.08-.52.56.56,0,0,0-.23-.36,12.94,12.94,0,0,0-7.36-2.48c-5.62,0-8.18,3.6-8.18,7,0,4.55,3.93,6.66,6.89,7.86,3.44,1.39,4.91,2.8,4.91,4.72a3.4,3.4,0,0,1-3.66,3.14c-2.46,0-4.15-1.13-5.81-2.38A.69.69,0,0,0,121.49,23.57Z" transform="translate(-1.49 -2.9)"/><path class="cls-2" d="M151.36,30h-3.49a1,1,0,0,1-1-1V8.27h-5.48a1,1,0,0,1-1-1V4.24a1,1,0,0,1,1-1H157.8a1,1,0,0,1,1,1V7.31a1,1,0,0,1-1,1h-5.48V29A1,1,0,0,1,151.36,30ZM141.43,3.78a.46.46,0,0,0-.46.46V7.31a.46.46,0,0,0,.46.46h6V29a.49.49,0,0,0,.46.46h3.49a.48.48,0,0,0,.46-.46V7.77h6a.46.46,0,0,0,.46-.46V4.24a.46.46,0,0,0-.46-.46Z" transform="translate(-1.49 -2.9)"/><path class="cls-2" d="M180.47,30H165.22a1,1,0,0,1-1-1V4.24a1,1,0,0,1,1-1h15.25a1,1,0,0,1,1,1V7.31a1,1,0,0,1-1,1H169.63v5.65h9a1,1,0,0,1,1,1V18a1,1,0,0,1-1,1h-9V25h10.84a1,1,0,0,1,1,1V29A1,1,0,0,1,180.47,30ZM165.22,3.78a.46.46,0,0,0-.46.46V29a.46.46,0,0,0,.46.46h15.25a.46.46,0,0,0,.46-.46V26a.46.46,0,0,0-.46-.46H169.13V18.45h9.5a.46.46,0,0,0,.46-.46V14.88a.48.48,0,0,0-.46-.46h-9.5V7.77h11.34a.46.46,0,0,0,.46-.46V4.24a.46.46,0,0,0-.46-.46Z" transform="translate(-1.49 -2.9)"/><path class="cls-2" d="M201.52,30.37h-.67a.91.91,0,0,1-.86-.55l-6.37-14.14-2.08,13.55a1,1,0,0,1-.92.77h-3.37a1,1,0,0,1-.75-.31,1.07,1.07,0,0,1-.21-.84l4.46-25.17a.89.89,0,0,1,.92-.78h.6a.94.94,0,0,1,.86.52l8.08,17.32,8.07-17.32a.9.9,0,0,1,.86-.52h.6a.89.89,0,0,1,.92.78l4.42,25.16a1,1,0,0,1-.16.83,1,1,0,0,1-.76.33h-3.41a1.06,1.06,0,0,1-.95-.74l-2.12-13.58-6.29,14.13A.87.87,0,0,1,201.52,30.37Zm-8.26-15.63h.48l6.7,14.87a.42.42,0,0,0,.41.26h.67a.37.37,0,0,0,.4-.24l6.63-14.89H209l2.25,14.41a.56.56,0,0,0,.46.35h3.41a.48.48,0,0,0,.37-.14.49.49,0,0,0,.06-.42L211.17,3.76a.4.4,0,0,0-.43-.36h-.6a.39.39,0,0,0-.41.24l-8.31,17.82H201L192.68,3.63a.44.44,0,0,0-.41-.23h-.6a.38.38,0,0,0-.42.35h0l-4.45,25.17a.5.5,0,0,0,.09.43.47.47,0,0,0,.37.14h3.37a.48.48,0,0,0,.43-.35Z" transform="translate(-1.49 -2.9)"/><path class="cls-2" d="M243.75,30h-3.26a1.32,1.32,0,0,1-1.31-.89l-1.77-3.9H226.53l-1.77,3.89a1.37,1.37,0,0,1-1.32.9h-3.26a.91.91,0,0,1-.86-1.33h0L231,3.46a.93.93,0,0,1,.86-.56h.38a.89.89,0,0,1,.86.55l11.54,25.22a.92.92,0,0,1,0,.91A.94.94,0,0,1,243.75,30ZM226.2,24.71h11.53l1.9,4.19c.23.46.43.6.86.6h3.26a.46.46,0,0,0,.4-.19.44.44,0,0,0,0-.43L232.62,3.67a.39.39,0,0,0-.41-.27h-.38a.43.43,0,0,0-.41.28l-11.65,25.2a.42.42,0,0,0,.41.62h3.26a.89.89,0,0,0,.86-.59Zm9.92-3.66h-8.3l3.89-8.74h.44Zm-7.53-.5h6.75L231.93,13Z" transform="translate(-1.49 -2.9)"/><path class="cls-2" d="M269.6,30.37H269a.87.87,0,0,1-.87-.58l-6.57-16.6L255.07,29.8a.89.89,0,0,1-.87.57h-.6a1,1,0,0,1-.91-.71L245.61,4.5a1,1,0,0,1,.12-.87,1,1,0,0,1,.79-.35H250a1,1,0,0,1,.91.7l3.77,14.44,5.76-14.94a.86.86,0,0,1,.87-.58H262a.86.86,0,0,1,.87.59l5.8,14.92L272.32,4a1,1,0,0,1,.91-.71h3.45a.94.94,0,0,1,.79.35,1,1,0,0,1,.12.87l-7.08,25.17A1,1,0,0,1,269.6,30.37Zm-8.3-17.88h.53l6.77,17.13a.38.38,0,0,0,.4.25h.6a.47.47,0,0,0,.43-.33l7.08-25.18a.48.48,0,0,0,0-.43.46.46,0,0,0-.39-.15h-3.45a.53.53,0,0,0-.43.34l-3.87,15.13h-.51L262.36,3.66a.36.36,0,0,0-.4-.26h-.68a.37.37,0,0,0-.4.24l-6,15.61h-.51l0-.19L250.4,4.12a.51.51,0,0,0-.43-.34h-3.45a.48.48,0,0,0-.39.15.48.48,0,0,0,0,.43h0l7.08,25.17a.47.47,0,0,0,.43.34h.6a.4.4,0,0,0,.42-.27Z" transform="translate(-1.49 -2.9)"/><path class="cls-2" d="M303,30h-3.26a1.33,1.33,0,0,1-1.31-.89l-1.77-3.9H285.8L284,29.1a1.37,1.37,0,0,1-1.32.9h-3.25a.91.91,0,0,1-.87-1.33h0L290.24,3.46a.93.93,0,0,1,.87-.56h.37a.89.89,0,0,1,.86.55l11.54,25.22a.92.92,0,0,1,0,.91A.94.94,0,0,1,303,30Zm-17.54-5.29H297l1.9,4.19c.23.46.43.6.86.6H303a.46.46,0,0,0,.4-.19.44.44,0,0,0,0-.43L291.89,3.67a.39.39,0,0,0-.41-.27h-.37a.44.44,0,0,0-.42.28l-11.64,25.2a.44.44,0,0,0,0,.43.47.47,0,0,0,.41.19h3.25a.89.89,0,0,0,.86-.59Zm9.91-3.66h-8.3L291,12.31h.44Zm-7.53-.5h6.75L291.2,13Z" transform="translate(-1.49 -2.9)"/><path class="cls-2" d="M323.21,30H309.5a1,1,0,0,1-1-1V4.24a1,1,0,0,1,1-1H313a1,1,0,0,1,1,1V25h9.3a1,1,0,0,1,1,1V29A1,1,0,0,1,323.21,30ZM309.5,3.78a.46.46,0,0,0-.46.46V29a.46.46,0,0,0,.46.46h13.71a.47.47,0,0,0,.47-.46V26a.46.46,0,0,0-.47-.46h-9.8V4.24a.48.48,0,0,0-.46-.46Z" transform="translate(-1.49 -2.9)"/><path class="cls-2" d="M343.15,30.37h-.68a.91.91,0,0,1-.86-.55l-6.37-14.14-2.07,13.55a1,1,0,0,1-.93.77h-3.37a1,1,0,0,1-.75-.31,1.07,1.07,0,0,1-.21-.84l4.46-25.17a.89.89,0,0,1,.92-.78h.6a.94.94,0,0,1,.86.52l8.08,17.32L350.9,3.42a.9.9,0,0,1,.86-.52h.6a.89.89,0,0,1,.92.78l4.42,25.16a1,1,0,0,1-.16.83,1,1,0,0,1-.76.33h-3.41a1.07,1.07,0,0,1-.95-.74l-2.11-13.58L344,29.81A.87.87,0,0,1,343.15,30.37Zm-8.27-15.63h.49l6.69,14.87a.42.42,0,0,0,.41.26h.68a.39.39,0,0,0,.4-.24l6.63-14.89h.48l2.25,14.41a.58.58,0,0,0,.46.35h3.41a.47.47,0,0,0,.37-.14.49.49,0,0,0,.06-.42L352.79,3.76a.39.39,0,0,0-.43-.36h-.6a.39.39,0,0,0-.41.24L343,21.46h-.43L334.3,3.63a.44.44,0,0,0-.41-.23h-.6a.38.38,0,0,0-.42.35h0l-4.46,25.17a.5.5,0,0,0,.09.43.47.47,0,0,0,.37.14h3.37a.48.48,0,0,0,.43-.35Z" transform="translate(-1.49 -2.9)"/><path class="cls-2" d="M385.37,30h-3.26a1.33,1.33,0,0,1-1.31-.89L379,25.21H368.15l-1.77,3.89a1.37,1.37,0,0,1-1.31.9h-3.26a.91.91,0,0,1-.87-1.33h0L372.59,3.46a.93.93,0,0,1,.87-.56h.37a.89.89,0,0,1,.86.55l11.54,25.22a.92.92,0,0,1,0,.91A.94.94,0,0,1,385.37,30Zm-17.54-5.29h11.52l1.9,4.19c.23.46.43.6.86.6h3.26a.46.46,0,0,0,.4-.19.44.44,0,0,0,0-.43L374.24,3.67a.39.39,0,0,0-.41-.27h-.37a.44.44,0,0,0-.42.28L361.4,28.88a.41.41,0,0,0,.41.62h3.26a.89.89,0,0,0,.85-.59Zm9.91-3.66h-8.3l3.89-8.74h.44Zm-7.53-.5H377L373.55,13Z" transform="translate(-1.49 -2.9)"/><path class="cls-2" d="M409.68,30h-3.93a.88.88,0,0,1-.82-.47L400,19.74h-3.76V29a1,1,0,0,1-1,1h-3.45a1,1,0,0,1-1-1V4.24a1,1,0,0,1,1-1h10.72a8.36,8.36,0,0,1,8.41,8.3,8.44,8.44,0,0,1-5.44,7.69l5,9.28a1,1,0,0,1,0,1A1,1,0,0,1,409.68,30ZM395.76,19.24h4.56l5.06,10.06a.37.37,0,0,0,.37.2h3.93a.46.46,0,0,0,.43-.21.52.52,0,0,0,0-.51L404.84,19l.26-.1a8,8,0,0,0,5.38-7.34,7.87,7.87,0,0,0-7.91-7.8H391.85a.46.46,0,0,0-.46.46V29a.46.46,0,0,0,.46.46h3.45a.48.48,0,0,0,.46-.46Zm6.4-3.51H395.8v-8h6.36a4,4,0,0,1,3.95,3.89A4.07,4.07,0,0,1,402.16,15.73Zm-5.86-.5h5.86a3.56,3.56,0,0,0,3.45-3.57,3.46,3.46,0,0,0-3.45-3.39H396.3Z" transform="translate(-1.49 -2.9)"/><path class="cls-2" d="M426.17,30h-3.48a1,1,0,0,1-1-1V8.27h-5.49a1,1,0,0,1-1-1V4.24a1,1,0,0,1,1-1h16.37a1,1,0,0,1,1,1V7.31a1,1,0,0,1-1,1h-5.48V29A1,1,0,0,1,426.17,30ZM416.24,3.78a.46.46,0,0,0-.46.46V7.31a.46.46,0,0,0,.46.46h6V29a.48.48,0,0,0,.46.46h3.48a.48.48,0,0,0,.46-.46V7.77h6a.47.47,0,0,0,.47-.46V4.24a.47.47,0,0,0-.47-.46Z" transform="translate(-1.49 -2.9)"/><path class="cls-2" d="M455.32,30H440.07a1,1,0,0,1-1-1V4.24a1,1,0,0,1,1-1h15.25a1,1,0,0,1,1,1V7.31a1,1,0,0,1-1,1H444.48v5.65h9a1,1,0,0,1,1,1V18a1,1,0,0,1-1,1h-9V25h10.84a1,1,0,0,1,1,1V29A1,1,0,0,1,455.32,30ZM440.07,3.78a.46.46,0,0,0-.46.46V29a.46.46,0,0,0,.46.46h15.25a.46.46,0,0,0,.46-.46V26a.46.46,0,0,0-.46-.46H444V18.45h9.5a.46.46,0,0,0,.46-.46V14.88a.48.48,0,0,0-.46-.46H444V7.77h11.34a.46.46,0,0,0,.46-.46V4.24a.46.46,0,0,0-.46-.46Z" transform="translate(-1.49 -2.9)"/><path class="cls-2" d="M474.39,30.37a13.74,13.74,0,1,1,0-27.47,13,13,0,0,1,9.23,3.55,1,1,0,0,1,.34.7.93.93,0,0,1-.29.71l-2.28,2.36a.87.87,0,0,1-.61.3,1,1,0,0,1-.69-.3,8.6,8.6,0,0,0-5.59-2.13,8.2,8.2,0,0,0-8.1,8.47A8.18,8.18,0,0,0,474.54,25a8.71,8.71,0,0,0,5.57-2.08.93.93,0,0,1,1.27,0l2.33,2.4a.8.8,0,0,1,.26.59,1.06,1.06,0,0,1-.3.77A13.08,13.08,0,0,1,474.39,30.37Zm0-27a13.24,13.24,0,1,0,0,26.47,12.56,12.56,0,0,0,8.93-3.56.53.53,0,0,0,.15-.4.3.3,0,0,0-.11-.24L481,23.26a.45.45,0,0,0-.6,0,9.2,9.2,0,0,1-5.89,2.2,8.68,8.68,0,0,1-8.64-8.91,8.7,8.7,0,0,1,8.6-9,9.1,9.1,0,0,1,5.94,2.27.45.45,0,0,0,.32.16.35.35,0,0,0,.26-.14l2.29-2.37a.44.44,0,0,0,.15-.34.47.47,0,0,0-.17-.35A12.5,12.5,0,0,0,474.39,3.4Z" transform="translate(-1.49 -2.9)"/><path class="cls-2" d="M501.36,30.37a13.54,13.54,0,0,1-13.69-13.69,13.72,13.72,0,1,1,27.43,0A13.56,13.56,0,0,1,501.36,30.37Zm0-27a13.25,13.25,0,0,0-13.19,13.28,13.22,13.22,0,0,0,26.43,0A13.28,13.28,0,0,0,501.36,3.4Zm0,22.11a8.87,8.87,0,1,1,8.87-8.83A8.84,8.84,0,0,1,501.36,25.51Zm0-17.24a8.37,8.37,0,1,0,8.37,8.41A8.5,8.5,0,0,0,501.36,8.27Z" transform="translate(-1.49 -2.9)"/></g></svg>