<svg id="Capa_1" data-name="Capa 1" xmlns="http://www.w3.org/2000/svg" viewBox="0 0 522.01 59.5"><defs><style>.cls-1{opacity:0.2;}.cls-2{fill:#7ab2e1;}</style></defs><g class="cls-1"><path class="cls-2" d="M16.62,28.51H7.56a1,1,0,0,1-1-1V2.16a1,1,0,0,1,1-1h9.06a13.69,13.69,0,1,1,0,27.38ZM7.56,1.74a.42.42,0,0,0-.39.42V27.48a.41.41,0,0,0,.39.42h9.06a13.08,13.08,0,1,0,0-26.16Zm8.6,22.1H11.5V5.76h4.66c5.24,0,8.91,3.71,8.91,9S21.4,23.84,16.16,23.84Zm-4.06-.6h4.06c4.89,0,8.3-3.48,8.3-8.46a8,8,0,0,0-8.3-8.42H12.1Z" transform="translate(-5 -0.75)"/><path class="cls-2" d="M53.18,28.51H37.61a1,1,0,0,1-1-1V2.16a1,1,0,0,1,1-1H53.18a1,1,0,0,1,1,1V5.3a1,1,0,0,1-1,1h-11V12h9.15a1.06,1.06,0,0,1,1,1V16.2a1,1,0,0,1-1,1H42.16v6.08h11a1,1,0,0,1,1,1v3.14A1,1,0,0,1,53.18,28.51ZM37.61,1.74a.42.42,0,0,0-.42.42V27.48a.42.42,0,0,0,.42.42H53.18a.42.42,0,0,0,.42-.42V24.34a.42.42,0,0,0-.42-.42H41.56v-7.3h9.75a.42.42,0,0,0,.42-.42V13a.45.45,0,0,0-.42-.42H41.56V5.72H53.18a.42.42,0,0,0,.42-.42V2.16a.42.42,0,0,0-.42-.42Z" transform="translate(-5 -0.75)"/><path class="cls-2" d="M67.94,28.89a12.23,12.23,0,0,1-8.61-3.06,1,1,0,0,1-.26-1.52l1.38-2.37a1.14,1.14,0,0,1,.79-.58,1.25,1.25,0,0,1,1,.22,8.88,8.88,0,0,0,5.59,2.31A2.92,2.92,0,0,0,71,21.25c0-1.7-1.4-3-4.67-4.31s-7.38-3.56-7.38-8.54A7.41,7.41,0,0,1,61,3.23,9.29,9.29,0,0,1,67.83.75a13.87,13.87,0,0,1,7.83,2.62,1.1,1.1,0,0,1,.46.72,1.22,1.22,0,0,1-.17,1L74.5,7.22a1.29,1.29,0,0,1-1.75.55l-.28-.18c-1.53-1-3-1.88-4.87-1.88-2.12,0-3.07,1.2-3.07,2.38,0,1.59,1.26,2.75,4.33,4,4,1.63,8.18,4,8.18,8.93a7.38,7.38,0,0,1-2.48,5.48A9.68,9.68,0,0,1,67.94,28.89ZM61.47,22h-.12a.53.53,0,0,0-.38.28L59.6,24.61c-.26.46-.17.53.12.76a11.69,11.69,0,0,0,8.22,2.92,9.17,9.17,0,0,0,6.22-2.23,6.81,6.81,0,0,0,2.28-5c0-4.61-4-6.82-7.81-8.37-3.34-1.36-4.7-2.68-4.7-4.56,0-1.48,1.13-3,3.67-3,2.07,0,3.58,1,5.19,2l.28.18a.47.47,0,0,0,.46,0,1.06,1.06,0,0,0,.47-.4l1.45-2.18a.63.63,0,0,0,.08-.49.52.52,0,0,0-.21-.35,13.26,13.26,0,0,0-7.49-2.52c-4,0-8.31,2.21-8.31,7.05,0,4.61,4,6.76,7,8,3.54,1.43,5,2.88,5,4.87a3.5,3.5,0,0,1-3.78,3.24c-2.53,0-4.26-1.15-6-2.43A.59.59,0,0,0,61.47,22Z" transform="translate(-5 -0.75)"/><path class="cls-2" d="M95.59,28.89a14.08,14.08,0,0,1-10-4.08,14.1,14.1,0,0,1,0-19.94,14,14,0,0,1,10-4.12,13.27,13.27,0,0,1,9.46,3.63,1.07,1.07,0,0,1,.36.75,1,1,0,0,1-.31.76L102.77,8.3a.91.91,0,0,1-.65.32,1,1,0,0,1-.74-.32,8.74,8.74,0,0,0-5.67-2.17,8,8,0,0,0-5.88,2.56,8.79,8.79,0,0,0-2.35,6.05,8.7,8.7,0,0,0,2.36,6,8.08,8.08,0,0,0,5.9,2.53,8.85,8.85,0,0,0,5.67-2.12,1,1,0,0,1,1.36,0l2.37,2.45a.85.85,0,0,1,.28.63,1.13,1.13,0,0,1-.32.82A13.36,13.36,0,0,1,95.59,28.89Zm0-27.54a13.47,13.47,0,1,0,0,26.94,12.77,12.77,0,0,0,9.08-3.63.51.51,0,0,0,.15-.37.3.3,0,0,0-.1-.22l-2.39-2.46a.4.4,0,0,0-.54,0,9.49,9.49,0,0,1-6.05,2.25,8.61,8.61,0,0,1-6.33-2.72,9.24,9.24,0,0,1-2.53-6.42,9.45,9.45,0,0,1,2.5-6.47,8.62,8.62,0,0,1,6.33-2.74,9.35,9.35,0,0,1,6.08,2.33.41.41,0,0,0,.31.16.34.34,0,0,0,.22-.13l2.35-2.42a.47.47,0,0,0,.14-.32.49.49,0,0,0-.16-.32A12.75,12.75,0,0,0,95.59,1.35Z" transform="translate(-5 -0.75)"/><path class="cls-2" d="M121.94,28.89a11.16,11.16,0,0,1-7.78-3,10.29,10.29,0,0,1-3.15-7.5V2.16a1.05,1.05,0,0,1,1-1h3.64a1,1,0,0,1,1,1v16a4.94,4.94,0,0,0,5.24,5.2,5,5,0,0,0,5.28-5.16v-16a1,1,0,0,1,1-1h3.63a1,1,0,0,1,1,1V18.38a10.26,10.26,0,0,1-3.16,7.5A11.22,11.22,0,0,1,121.94,28.89ZM112,1.74a.45.45,0,0,0-.42.42V18.38a9.64,9.64,0,0,0,3,7.06,10.52,10.52,0,0,0,7.36,2.85c5.91,0,10.37-4.26,10.37-9.91V2.16a.45.45,0,0,0-.43-.42h-3.63a.42.42,0,0,0-.42.42v16a5.58,5.58,0,0,1-5.89,5.77,5.52,5.52,0,0,1-5.85-5.81V2.16a.42.42,0,0,0-.42-.42Z" transform="translate(-5 -0.75)"/><path class="cls-2" d="M157,28.51H141.44a1,1,0,0,1-1-1V2.16a1,1,0,0,1,1-1H157a1,1,0,0,1,1,1V5.3a1,1,0,0,1-1,1H146V12h9.14a1.06,1.06,0,0,1,1,1V16.2a1,1,0,0,1-1,1H146v6.08h11a1,1,0,0,1,1,1v3.14A1,1,0,0,1,157,28.51ZM141.44,1.74a.42.42,0,0,0-.42.42V27.48a.42.42,0,0,0,.42.42H157a.42.42,0,0,0,.42-.42V24.34a.42.42,0,0,0-.42-.42H145.39v-7.3h9.74a.42.42,0,0,0,.43-.42V13a.45.45,0,0,0-.43-.42h-9.74V5.72H157a.42.42,0,0,0,.42-.42V2.16a.42.42,0,0,0-.42-.42Z" transform="translate(-5 -0.75)"/><path class="cls-2" d="M186.53,28.89H186a1.15,1.15,0,0,1-.87-.36l-15.24-16.8V27.48a1,1,0,0,1-1,1h-3.48a1.06,1.06,0,0,1-1-1V1.74a1,1,0,0,1,1-1H166a1.13,1.13,0,0,1,.86.36L182,17.27V2.16a1,1,0,0,1,1-1h3.52a1,1,0,0,1,1,1V27.9A1,1,0,0,1,186.53,28.89ZM169.66,10.73h.14l.08.09,15.69,17.3a.54.54,0,0,0,.43.17h.53a.42.42,0,0,0,.43-.39V2.16a.45.45,0,0,0-.43-.42H183a.42.42,0,0,0-.42.42v16.1h-.1v.28l-.3-.28h-.11l-.07-.08L166.39,1.53a.53.53,0,0,0-.43-.18h-.58a.42.42,0,0,0-.42.39V27.48a.45.45,0,0,0,.42.42h3.48a.42.42,0,0,0,.43-.42V10.73h.1v-.29Z" transform="translate(-5 -0.75)"/><path class="cls-2" d="M204.28,28.51h-3.56a1,1,0,0,1-1-1V6.33h-5.55a1,1,0,0,1-1-1V2.16a1,1,0,0,1,1-1h16.71a1,1,0,0,1,1,1V5.3a1,1,0,0,1-1,1H205.3V27.48A1,1,0,0,1,204.28,28.51ZM194.14,1.74a.42.42,0,0,0-.42.42V5.3a.42.42,0,0,0,.42.42h6.15V27.48a.45.45,0,0,0,.43.42h3.56a.45.45,0,0,0,.42-.42V5.72h6.15a.42.42,0,0,0,.43-.42V2.16a.42.42,0,0,0-.43-.42Z" transform="translate(-5 -0.75)"/><path class="cls-2" d="M229.17,28.89a13.95,13.95,0,0,1-14-14,14.1,14.1,0,0,1,4.08-10,14.06,14.06,0,0,1,24,10,14,14,0,0,1-14.07,14Zm0-27.54a13.31,13.31,0,0,0-9.52,4,13.47,13.47,0,1,0,9.52-3.95Zm0,22.57a9.08,9.08,0,0,1-6.4-15.5,9,9,0,0,1,12.82,0,9.07,9.07,0,0,1-6.42,15.5Zm0-17.59a8.34,8.34,0,0,0-6,2.52,8.49,8.49,0,1,0,12,0A8.37,8.37,0,0,0,229.17,6.33Z" transform="translate(-5 -0.75)"/><path class="cls-2" d="M19,60.21a14.05,14.05,0,0,1,0-28.1,14.79,14.79,0,0,1,9.53,3.63,1,1,0,0,1,.05,1.51l-2.36,2.48a1,1,0,0,1-1.42,0,8.3,8.3,0,0,0-5.57-2.14,8,8,0,0,0-5.86,2.55,8.71,8.71,0,0,0-2.41,6,8.4,8.4,0,0,0,8.31,8.46,11.5,11.5,0,0,0,4.25-.86V51H20.79a1,1,0,0,1-1-1V47a1,1,0,0,1,1-1h7.34a1,1,0,0,1,1,1v9.79a1,1,0,0,1-.43.86A19.72,19.72,0,0,1,19,60.21Zm0-27.5a13.3,13.3,0,0,0-9.51,3.95A13.45,13.45,0,0,0,5.6,46.22,13.33,13.33,0,0,0,19,59.61a19.32,19.32,0,0,0,9.32-2.44.42.42,0,0,0,.17-.36V47a.41.41,0,0,0-.39-.42H20.79a.4.4,0,0,0-.43.42v3a.4.4,0,0,0,.43.39h3.36v3.76l-.16.06a12.26,12.26,0,0,1-4.69,1,9,9,0,0,1-8.91-9.06A9.29,9.29,0,0,1,13,39.74,8.68,8.68,0,0,1,19.26,37a8.9,8.9,0,0,1,6,2.3c.26.23.42.17.58,0l2.37-2.48a.45.45,0,0,0,0-.65A14.16,14.16,0,0,0,19,32.71Z" transform="translate(-5 -0.75)"/><path class="cls-2" d="M57.77,59.87H54.44a1.4,1.4,0,0,1-1.38-.93l-1.8-4h-11l-1.8,4a1.45,1.45,0,0,1-1.38.94H33.71a1,1,0,0,1-.88-.45,1,1,0,0,1,0-1L44.68,32.71a1,1,0,0,1,.93-.6H46a1,1,0,0,1,.92.59L58.69,58.45a1,1,0,0,1,0,1A1,1,0,0,1,57.77,59.87Zm-17.94-5.5H51.65l2,4.31c.25.5.46.58.83.58h3.33a.38.38,0,0,0,.38-.56L46.37,33a.35.35,0,0,0-.38-.25h-.38a.39.39,0,0,0-.38.26L33.34,58.7a.39.39,0,0,0,0,.39.43.43,0,0,0,.37.17H37a.87.87,0,0,0,.83-.57Zm10.22-3.64H41.43l4-9H46Zm-7.69-.61h6.76l-3.41-7.5Z" transform="translate(-5 -0.75)"/><path class="cls-2" d="M85.57,60.25H85a1.15,1.15,0,0,1-.87-.36L68.93,43.09V58.84a1,1,0,0,1-1,1H64.42a1.06,1.06,0,0,1-1-1V33.1a1,1,0,0,1,1-1H65a1.13,1.13,0,0,1,.86.36L81,48.63V33.52a1,1,0,0,1,1-1h3.52a1,1,0,0,1,1,1V59.26A1,1,0,0,1,85.57,60.25ZM68.7,42.09h.14l.07.08,15.7,17.31a.54.54,0,0,0,.43.17h.53a.42.42,0,0,0,.43-.39V33.52a.45.45,0,0,0-.43-.42H82.05a.42.42,0,0,0-.42.42v16.1h-.11v.28l-.29-.28h-.11L65.43,32.89a.53.53,0,0,0-.43-.18h-.58a.42.42,0,0,0-.42.39V58.84a.45.45,0,0,0,.42.42H67.9a.42.42,0,0,0,.43-.42V42.09h.1V41.8Z" transform="translate(-5 -0.75)"/><path class="cls-2" d="M116.24,59.87h-3.32a1.4,1.4,0,0,1-1.38-.93l-1.8-4h-11l-1.79,4a1.48,1.48,0,0,1-1.39.94H92.19a1,1,0,0,1-.88-.45,1,1,0,0,1,0-1l11.9-25.73a1,1,0,0,1,.92-.6h.38a.94.94,0,0,1,.92.59l11.79,25.75a1,1,0,0,1-.93,1.42ZM98.3,54.37h11.83l2,4.31c.25.5.46.58.84.58h3.32a.38.38,0,0,0,.38-.56L104.84,33a.35.35,0,0,0-.38-.25h-.38a.39.39,0,0,0-.38.26L91.81,58.7a.41.41,0,0,0,0,.39.43.43,0,0,0,.38.17h3.32a.86.86,0,0,0,.83-.57Zm10.23-3.64H99.91l4-9h.51Zm-7.69-.61h6.75l-3.41-7.5Z" transform="translate(-5 -0.75)"/><path class="cls-2" d="M141.1,59.87h-4a1,1,0,0,1-.88-.51l-5-10h-3.76v9.45a1.06,1.06,0,0,1-1,1H122.9a1,1,0,0,1-1-1V33.52a1,1,0,0,1,1-1h10.93a8.46,8.46,0,0,1,3.1,16.4L142,58.31a1.1,1.1,0,0,1,0,1.07A1,1,0,0,1,141.1,59.87ZM126.84,48.78h4.73l.07.14,5.1,10.17a.37.37,0,0,0,.34.17h4a.42.42,0,0,0,.39-.19.47.47,0,0,0,0-.47l-5.4-10,.27-.11c3.42-1.38,5.52-4.23,5.52-7.46a8,8,0,0,0-8-7.92H122.9a.42.42,0,0,0-.43.42V58.84a.42.42,0,0,0,.43.42h3.51a.45.45,0,0,0,.43-.42Zm6.57-3.48h-6.53V37.08h6.53a4.11,4.11,0,0,1,4.09,4A4.21,4.21,0,0,1,133.41,45.3Zm-5.93-.61h5.93a3.6,3.6,0,0,0,3.49-3.6,3.5,3.5,0,0,0-3.49-3.4h-5.93Z" transform="translate(-5 -0.75)"/><path class="cls-2" d="M165.61,59.87H150.05a1,1,0,0,1-1-1V33.52a1,1,0,0,1,1-1h15.56a1,1,0,0,1,1,1v3.14a1,1,0,0,1-1,1h-11v5.66h9.15a1.06,1.06,0,0,1,1,1v3.18a1,1,0,0,1-1,1h-9.15v6.09h11a1,1,0,0,1,1,1v3.14A1,1,0,0,1,165.61,59.87ZM150.05,33.1a.42.42,0,0,0-.43.42V58.84a.42.42,0,0,0,.43.42h15.56a.42.42,0,0,0,.43-.42V55.7a.42.42,0,0,0-.43-.42H154V48h9.75a.42.42,0,0,0,.42-.42V44.38a.45.45,0,0,0-.42-.42H154V37.08h11.62a.42.42,0,0,0,.43-.42V33.52a.42.42,0,0,0-.43-.42Z" transform="translate(-5 -0.75)"/><path class="cls-2" d="M195.14,60.25h-.54a1.11,1.11,0,0,1-.86-.36L178.5,43.09V58.84a1,1,0,0,1-1,1H174a1.06,1.06,0,0,1-1-1V33.1a1,1,0,0,1,1-1h.57a1.11,1.11,0,0,1,.86.36l15.17,16.16V33.52a1,1,0,0,1,1-1h3.52a1,1,0,0,1,1,1V59.26A1,1,0,0,1,195.14,60.25ZM178.26,42.09h.14l.08.08,15.7,17.31a.52.52,0,0,0,.42.17h.54a.42.42,0,0,0,.42-.39V33.52a.45.45,0,0,0-.42-.42h-3.52a.42.42,0,0,0-.43.42v16.1h-.1v.28l-.3-.28h-.1l-.08-.08L175,32.89a.53.53,0,0,0-.43-.18H174a.42.42,0,0,0-.43.39V58.84a.45.45,0,0,0,.43.42h3.48a.42.42,0,0,0,.42-.42V42.09H178V41.8Z" transform="translate(-5 -0.75)"/><path class="cls-2" d="M214,59.87H205a1,1,0,0,1-1-1V33.52a1,1,0,0,1,1-1H214a13.69,13.69,0,1,1,0,27.38ZM205,33.1a.41.41,0,0,0-.38.42V58.84a.42.42,0,0,0,.38.42H214a13.08,13.08,0,1,0,0-26.16Zm8.61,22.1h-4.66V37.12h4.66c5.24,0,8.91,3.71,8.91,9S218.81,55.2,213.57,55.2Zm-4.06-.6h4.06c4.89,0,8.3-3.48,8.3-8.46a8,8,0,0,0-8.3-8.42h-4.06Z" transform="translate(-5 -0.75)"/><path class="cls-2" d="M250.59,59.87H235a1,1,0,0,1-1-1V33.52a1,1,0,0,1,1-1h15.57a1,1,0,0,1,1,1v3.14a1,1,0,0,1-1,1h-11v5.66h9.14a1.06,1.06,0,0,1,1,1v3.18a1,1,0,0,1-1,1h-9.14v6.09h11a1,1,0,0,1,1,1v3.14A1,1,0,0,1,250.59,59.87ZM235,33.1a.42.42,0,0,0-.42.42V58.84a.42.42,0,0,0,.42.42h15.57a.42.42,0,0,0,.42-.42V55.7a.42.42,0,0,0-.42-.42H239V48h9.74a.42.42,0,0,0,.43-.42V44.38a.45.45,0,0,0-.43-.42H239V37.08h11.62a.42.42,0,0,0,.42-.42V33.52a.42.42,0,0,0-.42-.42Z" transform="translate(-5 -0.75)"/><path class="cls-2" d="M265.35,60.25a12.23,12.23,0,0,1-8.61-3.06,1,1,0,0,1-.26-1.52l1.38-2.38a1.16,1.16,0,0,1,.79-.57,1.25,1.25,0,0,1,1,.22,8.88,8.88,0,0,0,5.59,2.31,2.91,2.91,0,0,0,3.17-2.65c0-1.69-1.39-3-4.66-4.3s-7.38-3.56-7.38-8.55a7.41,7.41,0,0,1,2.11-5.16,9.28,9.28,0,0,1,6.79-2.48,13.8,13.8,0,0,1,7.83,2.62,1.11,1.11,0,0,1,.47.72,1.27,1.27,0,0,1-.17,1l-1.45,2.17a1.62,1.62,0,0,1-.75.63,1.09,1.09,0,0,1-1-.08l-.27-.18c-1.53-1-3-1.88-4.88-1.88-2.11,0-3.06,1.2-3.06,2.38,0,1.59,1.25,2.75,4.33,4,4,1.63,8.18,4,8.18,8.93A7.38,7.38,0,0,1,272,57.86,9.7,9.7,0,0,1,265.35,60.25Zm-6.47-7-.12,0a.53.53,0,0,0-.38.28L257,56c-.26.46-.18.53.11.76a11.75,11.75,0,0,0,8.23,2.92,9.17,9.17,0,0,0,6.22-2.23,6.83,6.83,0,0,0,2.27-5c0-4.61-3.94-6.82-7.8-8.37-3.34-1.36-4.7-2.68-4.7-4.56,0-1.48,1.13-3,3.66-3,2.07,0,3.59,1,5.2,2l.28.18a.47.47,0,0,0,.46,0,1.11,1.11,0,0,0,.47-.4l1.45-2.18a.63.63,0,0,0,.08-.49.52.52,0,0,0-.21-.35,13.3,13.3,0,0,0-7.5-2.52c-4,0-8.3,2.21-8.3,7,0,4.62,4,6.77,7,8,3.54,1.43,5.05,2.88,5.05,4.86a3.5,3.5,0,0,1-3.78,3.25c-2.53,0-4.27-1.15-6-2.43A.62.62,0,0,0,258.88,53.3Z" transform="translate(-5 -0.75)"/><path class="cls-2" d="M293,60.25a14.1,14.1,0,0,1-10-4.08,14.09,14.09,0,0,1,10-24.06,13.25,13.25,0,0,1,9.45,3.63,1,1,0,0,1,.37.75,1,1,0,0,1-.31.76l-2.33,2.41a1,1,0,0,1-.66.32,1.05,1.05,0,0,1-.73-.32,8.74,8.74,0,0,0-5.68-2.17,8,8,0,0,0-5.88,2.56,8.83,8.83,0,0,0-2.34,6.05,8.7,8.7,0,0,0,2.36,6,8.08,8.08,0,0,0,5.9,2.53,8.8,8.8,0,0,0,5.66-2.12,1,1,0,0,1,1.36,0L302.59,55a.89.89,0,0,1,.28.63,1.13,1.13,0,0,1-.32.82A13.38,13.38,0,0,1,293,60.25Zm0-27.54a13.47,13.47,0,1,0,0,26.94A12.77,12.77,0,0,0,302.12,56a.56.56,0,0,0,.15-.37.35.35,0,0,0-.1-.22L299.78,53a.4.4,0,0,0-.54,0,9.49,9.49,0,0,1-6.05,2.25,8.69,8.69,0,0,1-6.34-2.72,9.28,9.28,0,0,1-2.53-6.42,9.42,9.42,0,0,1,2.51-6.47,8.57,8.57,0,0,1,6.32-2.74,9.35,9.35,0,0,1,6.09,2.33.45.45,0,0,0,.31.16.37.37,0,0,0,.22-.13l2.34-2.42a.41.41,0,0,0,.14-.32.45.45,0,0,0-.16-.32A12.71,12.71,0,0,0,293,32.71Z" transform="translate(-5 -0.75)"/><path class="cls-2" d="M319.39,60.25a11.16,11.16,0,0,1-7.78-3,10.26,10.26,0,0,1-3.16-7.5V33.52a1,1,0,0,1,1-1h3.63a1,1,0,0,1,1,1V49.47a5.27,5.27,0,0,0,10.53,0v-16a1,1,0,0,1,1-1h3.63a1,1,0,0,1,1,1V49.74a10.26,10.26,0,0,1-3.16,7.5A11.23,11.23,0,0,1,319.39,60.25ZM309.48,33.1a.45.45,0,0,0-.42.42V49.74a9.64,9.64,0,0,0,3,7.06,10.52,10.52,0,0,0,7.36,2.85c5.91,0,10.36-4.26,10.36-9.91V33.52a.45.45,0,0,0-.42-.42H325.7a.42.42,0,0,0-.43.42v16a5.58,5.58,0,0,1-5.88,5.77,5.52,5.52,0,0,1-5.85-5.81V33.52a.42.42,0,0,0-.43-.42Z" transform="translate(-5 -0.75)"/><path class="cls-2" d="M354.49,59.87H338.93a1,1,0,0,1-1-1V33.52a1,1,0,0,1,1-1h15.56a1,1,0,0,1,1,1v3.14a1,1,0,0,1-1,1h-11v5.66h9.14a1.06,1.06,0,0,1,1,1v3.18a1,1,0,0,1-1,1h-9.14v6.09h11a1,1,0,0,1,1,1v3.14A1,1,0,0,1,354.49,59.87ZM338.93,33.1a.42.42,0,0,0-.43.42V58.84a.42.42,0,0,0,.43.42h15.56a.42.42,0,0,0,.43-.42V55.7a.42.42,0,0,0-.43-.42H342.87V48h9.75a.42.42,0,0,0,.42-.42V44.38a.45.45,0,0,0-.42-.42h-9.75V37.08h11.62a.42.42,0,0,0,.43-.42V33.52a.42.42,0,0,0-.43-.42Z" transform="translate(-5 -0.75)"/><path class="cls-2" d="M384,60.25h-.54a1.11,1.11,0,0,1-.86-.36l-15.24-16.8V58.84a1,1,0,0,1-1,1h-3.48a1,1,0,0,1-1-1V33.1a1,1,0,0,1,1-1h.57a1.15,1.15,0,0,1,.87.36l15.16,16.16V33.52a1,1,0,0,1,1-1H384a1,1,0,0,1,1,1V59.26A1,1,0,0,1,384,60.25ZM367.14,42.09h.14l.08.08,15.7,17.31a.52.52,0,0,0,.42.17H384a.42.42,0,0,0,.42-.39V33.52a.45.45,0,0,0-.42-.42H380.5a.42.42,0,0,0-.43.42v16.1H380v.28l-.3-.28h-.1l-.08-.08L363.87,32.89a.52.52,0,0,0-.43-.18h-.57a.42.42,0,0,0-.43.39V58.84a.45.45,0,0,0,.43.42h3.48a.42.42,0,0,0,.42-.42V42.09h.11V41.8Z" transform="translate(-5 -0.75)"/><path class="cls-2" d="M401.76,59.87H398.2a1,1,0,0,1-1-1V37.69h-5.55a1,1,0,0,1-1-1V33.52a1,1,0,0,1,1-1h16.71a1,1,0,0,1,1,1v3.14a1,1,0,0,1-1,1h-5.55V58.84A1,1,0,0,1,401.76,59.87ZM391.63,33.1a.42.42,0,0,0-.43.42v3.14a.42.42,0,0,0,.43.42h6.15V58.84a.45.45,0,0,0,.42.42h3.56a.45.45,0,0,0,.43-.42V37.08h6.15a.42.42,0,0,0,.42-.42V33.52a.42.42,0,0,0-.42-.42Z" transform="translate(-5 -0.75)"/><path class="cls-2" d="M426.66,60.25a14,14,0,1,1,10-4.08A14,14,0,0,1,426.66,60.25Zm0-27.54a13.27,13.27,0,0,0-9.52,3.95,13.47,13.47,0,1,0,9.52-3.95Zm0,22.57a9.08,9.08,0,0,1-6.4-15.5,9,9,0,0,1,12.82,0,9.07,9.07,0,0,1-6.42,15.5Zm0-17.59a8.31,8.31,0,0,0-6,2.52,8.36,8.36,0,1,0,6-2.52Z" transform="translate(-5 -0.75)"/><path class="cls-2" d="M459.43,60.21a14.05,14.05,0,0,1,0-28.1A14.77,14.77,0,0,1,469,35.74a1.14,1.14,0,0,1,.35.76,1,1,0,0,1-.3.75l-2.36,2.48a1,1,0,0,1-1.42,0,8.3,8.3,0,0,0-5.57-2.14,8,8,0,0,0-5.86,2.55,8.7,8.7,0,0,0-2.4,6,8.39,8.39,0,0,0,8.3,8.46,11.5,11.5,0,0,0,4.25-.86V51h-2.76a1,1,0,0,1-1-1V47a1,1,0,0,1,1-1h7.34a1,1,0,0,1,1,1v9.79a1.06,1.06,0,0,1-.42.86A19.83,19.83,0,0,1,459.43,60.21Zm0-27.5a13.28,13.28,0,0,0-9.5,3.95A13.46,13.46,0,0,0,446,46.22a13.35,13.35,0,0,0,13.43,13.39,19.38,19.38,0,0,0,9.33-2.44.44.44,0,0,0,.16-.36V47a.41.41,0,0,0-.39-.42h-7.34a.4.4,0,0,0-.42.42v3a.39.39,0,0,0,.42.39h3.36v3.76l-.15.06a12.32,12.32,0,0,1-4.7,1,9,9,0,0,1-8.91-9.06,9.3,9.3,0,0,1,2.58-6.44A8.64,8.64,0,0,1,459.66,37a8.94,8.94,0,0,1,6,2.3c.26.23.42.17.58,0l2.36-2.48a.44.44,0,0,0,0-.65A14.16,14.16,0,0,0,459.43,32.71Z" transform="translate(-5 -0.75)"/><path class="cls-2" d="M498.17,59.87h-3.33a1.38,1.38,0,0,1-1.37-.93l-1.8-4H480.62l-1.79,4a1.48,1.48,0,0,1-1.39.94h-3.32a1,1,0,0,1-.89-.45,1,1,0,0,1,0-1l11.89-25.73a1,1,0,0,1,.93-.6h.38a1,1,0,0,1,.92.59L499.1,58.45a1,1,0,0,1-.93,1.42Zm-17.94-5.5h11.83L494,58.68c.25.5.45.58.83.58h3.33a.38.38,0,0,0,.38-.56L486.77,33a.35.35,0,0,0-.38-.25H486a.39.39,0,0,0-.38.26L473.74,58.7a.39.39,0,0,0,0,.39.43.43,0,0,0,.38.17h3.32a.86.86,0,0,0,.83-.57Zm10.23-3.64h-8.63l4-9h.5l.07.14Zm-7.69-.61h6.75l-3.41-7.5Z" transform="translate(-5 -0.75)"/><path class="cls-2" d="M526,60.25h-.53a1.11,1.11,0,0,1-.86-.36l-15.25-16.8V58.84a1,1,0,0,1-1,1h-3.48a1,1,0,0,1-1-1V33.1a1,1,0,0,1,1-1h.58a1.11,1.11,0,0,1,.86.36l15.17,16.16V33.52a1,1,0,0,1,1-1H526a1,1,0,0,1,1,1V59.26A1,1,0,0,1,526,60.25ZM509.1,42.09h.14l.08.09L525,59.48a.56.56,0,0,0,.43.17H526a.42.42,0,0,0,.43-.39V33.52a.45.45,0,0,0-.43-.42h-3.51a.42.42,0,0,0-.43.42v16.1h-.1v.28l-.3-.28h-.11L505.83,32.89a.53.53,0,0,0-.43-.18h-.58a.42.42,0,0,0-.42.39V58.84a.45.45,0,0,0,.42.42h3.48a.42.42,0,0,0,.43-.42V42.09h.1V41.8Z" transform="translate(-5 -0.75)"/></g></svg>