<svg id="Capa_1" data-name="Capa 1" xmlns="http://www.w3.org/2000/svg" viewBox="0 0 511.74 56.4"><defs><style>.cls-1{opacity:0.2;}.cls-2{fill:#7ab2e1;}</style></defs><g class="cls-1"><path class="cls-2" d="M19.3,60.36H4.53a.94.94,0,0,1-.94-.94v-24a.94.94,0,0,1,.94-.94H19.3a.94.94,0,0,1,.94.94v3a1,1,0,0,1-.94.94H8.81v5.45h8.71a1,1,0,0,1,.94.94v3a.94.94,0,0,1-.94.94H8.81V55.5H19.3a1,1,0,0,1,.94.94v3A.94.94,0,0,1,19.3,60.36ZM4.53,35a.44.44,0,0,0-.44.44v24a.44.44,0,0,0,.44.44H19.3a.44.44,0,0,0,.44-.44v-3A.44.44,0,0,0,19.3,56h-11V49.15h9.21a.44.44,0,0,0,.44-.44v-3a.46.46,0,0,0-.44-.44H8.31V38.81h11a.44.44,0,0,0,.44-.44v-3A.44.44,0,0,0,19.3,35Z" transform="translate(-3.59 -4.32)"/><path class="cls-2" d="M39.7,60.72h-.65a.89.89,0,0,1-.84-.53L32.05,46.5,30,59.6a1,1,0,0,1-.9.76H25.87a.94.94,0,0,1-.73-.31,1,1,0,0,1-.2-.81l4.32-24.4a.86.86,0,0,1,.9-.75h.58a.9.9,0,0,1,.84.5l7.81,16.77,7.82-16.77a.88.88,0,0,1,.84-.5h.58a.85.85,0,0,1,.9.76l4.29,24.38a1,1,0,0,1-.16.81.92.92,0,0,1-.74.32H49.61a1.05,1.05,0,0,1-.93-.73l-2-13.13L40.55,60.18A.86.86,0,0,1,39.7,60.72Zm-8-15.16h.49L38.66,60a.39.39,0,0,0,.39.25h.65c.23,0,.35-.11.38-.22l6.43-14.44H47l2.17,14a.54.54,0,0,0,.44.33h3.31a.47.47,0,0,0,.35-.13.52.52,0,0,0,.06-.4L49,34.92a.36.36,0,0,0-.41-.33h-.58a.38.38,0,0,0-.39.22l-8,17.27h-.43l-8-17.27a.41.41,0,0,0-.39-.22h-.58a.36.36,0,0,0-.41.32h0l-4.32,24.4a.5.5,0,0,0,.09.41.44.44,0,0,0,.35.13h3.27a.47.47,0,0,0,.41-.33Z" transform="translate(-3.59 -4.32)"/><path class="cls-2" d="M64.2,60.36H60.87a.94.94,0,0,1-.94-.94v-24a.94.94,0,0,1,.94-.94H69.4a8.35,8.35,0,1,1,0,16.69H65.14v8.28A1,1,0,0,1,64.2,60.36ZM60.87,35a.44.44,0,0,0-.44.44v24a.44.44,0,0,0,.44.44H64.2a.46.46,0,0,0,.44-.44V50.64h4.79A7.85,7.85,0,1,0,69.4,35Zm8.38,11.76H64.64V38.92h4.61a3.72,3.72,0,0,1,3.84,3.77A3.85,3.85,0,0,1,69.25,46.71Zm-4.11-.5h4.11a3.35,3.35,0,0,0,3.34-3.52,3.23,3.23,0,0,0-3.34-3.27H65.14Z" transform="translate(-3.59 -4.32)"/><path class="cls-2" d="M101.34,60.36H97.53a.88.88,0,0,1-.81-.46L92,50.41H88.34v9a1,1,0,0,1-.94.94H84.06a.94.94,0,0,1-.94-.94v-24a.94.94,0,0,1,.94-.94H94.44a8.12,8.12,0,0,1,8.17,8A8.21,8.21,0,0,1,97.33,50l4.85,9a1,1,0,0,1,0,1A.93.93,0,0,1,101.34,60.36ZM87.84,49.91h4.43l4.9,9.76a.36.36,0,0,0,.36.19h3.81a.43.43,0,0,0,.4-.2.48.48,0,0,0,0-.48l-5.11-9.47.26-.1a7.77,7.77,0,0,0,5.22-7.11A7.62,7.62,0,0,0,94.44,35H84.06a.44.44,0,0,0-.44.44v24a.44.44,0,0,0,.44.44H87.4a.46.46,0,0,0,.44-.44ZM94,46.53H87.88V38.81H94a3.86,3.86,0,0,1,3.85,3.77A4,4,0,0,1,94,46.53ZM88.38,46H94a3.45,3.45,0,0,0,3.35-3.45A3.35,3.35,0,0,0,94,39.31H88.38Z" transform="translate(-3.59 -4.32)"/><path class="cls-2" d="M124.61,60.36H109.83a.94.94,0,0,1-.94-.94v-24a.94.94,0,0,1,.94-.94h14.78a1,1,0,0,1,.94.94v3a1,1,0,0,1-.94.94h-10.5v5.45h8.72a1,1,0,0,1,.94.94v3a.94.94,0,0,1-.94.94h-8.72V55.5h10.5a1,1,0,0,1,.94.94v3A1,1,0,0,1,124.61,60.36ZM109.83,35a.44.44,0,0,0-.44.44v24a.44.44,0,0,0,.44.44h14.78a.44.44,0,0,0,.44-.44v-3a.44.44,0,0,0-.44-.44h-11V49.15h9.22a.44.44,0,0,0,.44-.44v-3a.47.47,0,0,0-.44-.44h-9.22V38.81h11a.44.44,0,0,0,.44-.44v-3a.44.44,0,0,0-.44-.44Z" transform="translate(-3.59 -4.32)"/><path class="cls-2" d="M138.62,60.72a11.58,11.58,0,0,1-8.15-2.89.92.92,0,0,1-.24-1.4l1.31-2.25a1.07,1.07,0,0,1,.72-.53,1.09,1.09,0,0,1,.88.2,8.54,8.54,0,0,0,5.33,2.2,2.81,2.81,0,0,0,3.06-2.55c0-1.62-1.34-2.86-4.46-4.12s-7-3.37-7-8.07c0-3.48,2.64-7.22,8.42-7.22a13.06,13.06,0,0,1,7.41,2.48,1,1,0,0,1,.43.66,1.15,1.15,0,0,1-.16.88l-1.37,2.06a1.2,1.2,0,0,1-1.62.51l-.27-.17a8.52,8.52,0,0,0-4.64-1.78c-2,0-2.94,1.15-2.94,2.29,0,1.52,1.19,2.64,4.12,3.83,3.83,1.54,7.75,3.75,7.75,8.44C147.22,56.89,144.2,60.72,138.62,60.72Zm-6.14-6.59h-.12a.57.57,0,0,0-.39.29l-1.3,2.25c-.26.46-.16.54.12.77h0a11.15,11.15,0,0,0,7.83,2.77c5.26,0,8.1-3.57,8.1-6.93,0-4.4-3.76-6.5-7.43-8-3.16-1.28-4.44-2.53-4.44-4.29,0-1.39,1.06-2.79,3.44-2.79a9,9,0,0,1,4.91,1.86l.27.17c.3.2.71,0,.93-.36l1.38-2.07a.65.65,0,0,0,.08-.5.63.63,0,0,0-.22-.35,12.63,12.63,0,0,0-7.13-2.39c-5.44,0-7.92,3.48-7.92,6.72,0,4.4,3.81,6.45,6.67,7.61,3.34,1.35,4.77,2.72,4.77,4.58a3.3,3.3,0,0,1-3.56,3,9,9,0,0,1-5.63-2.3A.58.58,0,0,0,132.48,54.13Z" transform="translate(-3.59 -4.32)"/><path class="cls-2" d="M173.5,60.36h-3.16a1.3,1.3,0,0,1-1.27-.86l-1.72-3.79H156.82l-1.71,3.78a1.33,1.33,0,0,1-1.28.87h-3.16a.89.89,0,0,1-.85-1.3h0l11.29-24.43a.91.91,0,0,1,.85-.54h.36a.85.85,0,0,1,.84.53l11.19,24.44a.89.89,0,0,1-.85,1.3Zm-17-5.15h11.17l1.85,4.07c.22.45.41.58.82.58h3.16a.43.43,0,0,0,.39-.18.42.42,0,0,0,0-.41L162.71,34.84a.37.37,0,0,0-.39-.25H162a.42.42,0,0,0-.4.26L150.28,59.27a.42.42,0,0,0,0,.41.45.45,0,0,0,.39.18h3.16a.86.86,0,0,0,.82-.57Zm9.62-3.53h-8.07l3.78-8.48h.43Zm-7.3-.5h6.53l-3.3-7.24Z" transform="translate(-3.59 -4.32)"/><path class="cls-2" d="M197.1,60.36h-3.82a.88.88,0,0,1-.8-.46l-4.76-9.49H184.1v9a1,1,0,0,1-.94.94h-3.34a.94.94,0,0,1-.94-.94v-24a.94.94,0,0,1,.94-.94H190.2a8.11,8.11,0,0,1,8.16,8A8.2,8.2,0,0,1,193.09,50l4.84,9a1,1,0,0,1,0,1A.94.94,0,0,1,197.1,60.36ZM183.6,49.91H188l4.9,9.76a.35.35,0,0,0,.35.19h3.82a.44.44,0,0,0,.4-.2.48.48,0,0,0,0-.48l-5.1-9.47.26-.1a7.78,7.78,0,0,0,5.21-7.11A7.62,7.62,0,0,0,190.2,35H179.82a.44.44,0,0,0-.44.44v24a.44.44,0,0,0,.44.44h3.34a.47.47,0,0,0,.44-.44Zm6.2-3.38h-6.17V38.81h6.17a3.85,3.85,0,0,1,3.84,3.77A4,4,0,0,1,189.8,46.53Zm-5.67-.5h5.67a3.44,3.44,0,0,0,3.34-3.45,3.35,3.35,0,0,0-3.34-3.27h-5.67Z" transform="translate(-3.59 -4.32)"/><path class="cls-2" d="M220.36,60.36H205.59a.94.94,0,0,1-.94-.94v-24a.94.94,0,0,1,.94-.94h14.77a.94.94,0,0,1,.94.94v3a1,1,0,0,1-.94.94H209.87v5.45h8.72a1,1,0,0,1,.93.94v3a.94.94,0,0,1-.93.94h-8.72V55.5h10.49a1,1,0,0,1,.94.94v3A.94.94,0,0,1,220.36,60.36ZM205.59,35a.44.44,0,0,0-.44.44v24a.44.44,0,0,0,.44.44h14.77a.44.44,0,0,0,.44-.44v-3a.44.44,0,0,0-.44-.44h-11V49.15h9.22a.43.43,0,0,0,.43-.44v-3a.46.46,0,0,0-.43-.44h-9.22V38.81h11a.44.44,0,0,0,.44-.44v-3a.44.44,0,0,0-.44-.44Z" transform="translate(-3.59 -4.32)"/><path class="cls-2" d="M238.77,60.69a13.12,13.12,0,0,1-13.28-13.25,13.33,13.33,0,0,1,13.28-13.35,14,14,0,0,1,9,3.43,1,1,0,0,1,.05,1.39l-2.25,2.35a.87.87,0,0,1-1.29,0A7.91,7.91,0,0,0,239,39.23a8.12,8.12,0,0,0,0,16.24,11,11,0,0,0,4.07-.83V52h-2.65a.91.91,0,0,1-.94-.91V48.2a.92.92,0,0,1,.94-.94h7a.93.93,0,0,1,.9.94v9.3a.93.93,0,0,1-.39.78A18.38,18.38,0,0,1,238.77,60.69Zm0-26.1A12.82,12.82,0,0,0,226,47.44a12.63,12.63,0,0,0,12.78,12.75,18.3,18.3,0,0,0,8.87-2.32.45.45,0,0,0,.17-.37V48.2a.44.44,0,0,0-.4-.44h-7a.41.41,0,0,0-.44.44v2.87a.41.41,0,0,0,.44.41h3.15V55l-.16.06A11.52,11.52,0,0,1,239,56a8.62,8.62,0,1,1,5.61-15.07c.29.26.46.16.6,0l2.25-2.35a.46.46,0,0,0,0-.67A13.43,13.43,0,0,0,238.77,34.59Z" transform="translate(-3.59 -4.32)"/><path class="cls-2" d="M270.57,60.36H255.79a.94.94,0,0,1-.94-.94v-24a.94.94,0,0,1,.94-.94h14.78a1,1,0,0,1,.94.94v3a1,1,0,0,1-.94.94h-10.5v5.45h8.72a1,1,0,0,1,.94.94v3a.94.94,0,0,1-.94.94h-8.72V55.5h10.5a1,1,0,0,1,.94.94v3A1,1,0,0,1,270.57,60.36ZM255.79,35a.44.44,0,0,0-.44.44v24a.44.44,0,0,0,.44.44h14.78a.44.44,0,0,0,.44-.44v-3a.44.44,0,0,0-.44-.44h-11V49.15h9.22a.44.44,0,0,0,.44-.44v-3a.47.47,0,0,0-.44-.44h-9.22V38.81h11a.44.44,0,0,0,.44-.44v-3a.44.44,0,0,0-.44-.44Z" transform="translate(-3.59 -4.32)"/><path class="cls-2" d="M298.59,60.72h-.51a1,1,0,0,1-.79-.32l-14.53-16v15a.94.94,0,0,1-.94.94h-3.31a1,1,0,0,1-.94-.94V35a.94.94,0,0,1,.94-.9h.55a1,1,0,0,1,.79.32l14.46,15.42V35.39a.94.94,0,0,1,.94-.94h3.34a1,1,0,0,1,.94.94V59.82A.93.93,0,0,1,298.59,60.72ZM282.26,43.56h.43l15,16.49a.51.51,0,0,0,.43.17h.51a.44.44,0,0,0,.44-.4V35.39a.47.47,0,0,0-.44-.44h-3.34a.44.44,0,0,0-.44.44V50.63h-.43l-.08-.08L279.49,34.76a.54.54,0,0,0-.43-.17h-.55a.44.44,0,0,0-.44.4V59.42a.47.47,0,0,0,.44.44h3.31a.44.44,0,0,0,.44-.44Z" transform="translate(-3.59 -4.32)"/><path class="cls-2" d="M322.73,60.36H308a1,1,0,0,1-.94-.94v-24a1,1,0,0,1,.94-.94h14.78a.94.94,0,0,1,.94.94v3a1,1,0,0,1-.94.94h-10.5v5.45H321a1,1,0,0,1,.94.94v3a.94.94,0,0,1-.94.94h-8.72V55.5h10.5a1,1,0,0,1,.94.94v3A.94.94,0,0,1,322.73,60.36ZM308,35a.44.44,0,0,0-.44.44v24a.44.44,0,0,0,.44.44h14.78a.44.44,0,0,0,.44-.44v-3a.44.44,0,0,0-.44-.44h-11V49.15H321a.44.44,0,0,0,.44-.44v-3a.47.47,0,0,0-.44-.44h-9.22V38.81h11a.44.44,0,0,0,.44-.44v-3a.44.44,0,0,0-.44-.44Z" transform="translate(-3.59 -4.32)"/><path class="cls-2" d="M348,60.36h-3.82a.88.88,0,0,1-.8-.46l-4.76-9.49H335v9a1,1,0,0,1-.94.94h-3.34a.94.94,0,0,1-.94-.94v-24a.94.94,0,0,1,.94-.94h10.38a8.11,8.11,0,0,1,8.16,8A8.2,8.2,0,0,1,344,50l4.84,9a1,1,0,0,1,0,1A.94.94,0,0,1,348,60.36Zm-13.5-10.45h4.43l4.9,9.76a.35.35,0,0,0,.35.19H348a.44.44,0,0,0,.4-.2.48.48,0,0,0,0-.48l-5.1-9.47.26-.1a7.78,7.78,0,0,0,5.21-7.11A7.62,7.62,0,0,0,341.06,35H330.68a.44.44,0,0,0-.44.44v24a.44.44,0,0,0,.44.44H334a.47.47,0,0,0,.44-.44Zm6.2-3.38h-6.17V38.81h6.17a3.85,3.85,0,0,1,3.84,3.77A4,4,0,0,1,340.66,46.53ZM335,46h5.67A3.44,3.44,0,0,0,344,42.58a3.35,3.35,0,0,0-3.34-3.27H335Z" transform="translate(-3.59 -4.32)"/><path class="cls-2" d="M376.2,60.36H373a1.31,1.31,0,0,1-1.28-.86L370,55.71H359.51l-1.71,3.78a1.33,1.33,0,0,1-1.28.87h-3.16a.92.92,0,0,1-.8-.41.91.91,0,0,1,0-.89h0l11.29-24.43a.89.89,0,0,1,.84-.54H365a.87.87,0,0,1,.84.53L377,59.06a.91.91,0,0,1,0,.89A.93.93,0,0,1,376.2,60.36Zm-17-5.15h11.18l1.84,4.07c.23.45.41.58.83.58h3.16a.42.42,0,0,0,.38-.18.45.45,0,0,0,0-.41L365.4,34.84a.36.36,0,0,0-.38-.25h-.37a.4.4,0,0,0-.39.26L353,59.27a.42.42,0,0,0,0,.41.42.42,0,0,0,.38.18h3.16a.84.84,0,0,0,.82-.57Zm9.63-3.53h-8.07l3.78-8.48H365Zm-7.3-.5H368l-3.3-7.24Z" transform="translate(-3.59 -4.32)"/><path class="cls-2" d="M388.36,60.36H385a1,1,0,0,1-.94-.94V39.31h-5.3a1,1,0,0,1-.94-.94v-3a.94.94,0,0,1,.94-.94H394.6a.94.94,0,0,1,.94.94v3a1,1,0,0,1-.94.94h-5.3V59.42A1,1,0,0,1,388.36,60.36ZM378.74,35a.44.44,0,0,0-.44.44v3a.44.44,0,0,0,.44.44h5.8V59.42a.46.46,0,0,0,.44.44h3.38a.47.47,0,0,0,.44-.44V38.81h5.8a.44.44,0,0,0,.44-.44v-3a.44.44,0,0,0-.44-.44Z" transform="translate(-3.59 -4.32)"/><path class="cls-2" d="M405.16,60.36h-3.37a1,1,0,0,1-.94-.94v-24a1,1,0,0,1,.94-.94h3.37a1,1,0,0,1,.94.94v24A1,1,0,0,1,405.16,60.36ZM401.79,35a.46.46,0,0,0-.44.44v24a.46.46,0,0,0,.44.44h3.37a.46.46,0,0,0,.44-.44v-24a.46.46,0,0,0-.44-.44Z" transform="translate(-3.59 -4.32)"/><path class="cls-2" d="M423,60.72h-.37a.89.89,0,0,1-.84-.53L410.56,35.75a.91.91,0,0,1,0-.89.93.93,0,0,1,.81-.41h3.7A.91.91,0,0,1,416,35l6.86,15.29L429.69,35a.91.91,0,0,1,.85-.55h3.7a.92.92,0,0,1,.8.41.91.91,0,0,1,0,.89L423.83,60.18A.9.9,0,0,1,423,60.72ZM411.41,35a.43.43,0,0,0-.39.18.42.42,0,0,0,0,.41h0L422.23,60a.39.39,0,0,0,.39.25H423a.39.39,0,0,0,.39-.26l11.25-24.42a.42.42,0,0,0,0-.41.42.42,0,0,0-.38-.18h-3.7a.41.41,0,0,0-.39.24L423.07,51h-.5L415.5,35.2a.43.43,0,0,0-.39-.25Z" transform="translate(-3.59 -4.32)"/><path class="cls-2" d="M458,60.36h-3.15a1.31,1.31,0,0,1-1.28-.86l-1.72-3.79H441.33l-1.71,3.78a1.33,1.33,0,0,1-1.28.87h-3.16a.92.92,0,0,1-.8-.41.91.91,0,0,1,0-.89h0l11.29-24.43a.89.89,0,0,1,.84-.54h.36a.85.85,0,0,1,.84.53l11.19,24.44a.91.91,0,0,1,0,.89A.93.93,0,0,1,458,60.36Zm-17-5.15h11.18L454,59.28c.22.45.41.58.83.58H458a.43.43,0,0,0,.39-.18.42.42,0,0,0,0-.41L447.22,34.84a.36.36,0,0,0-.39-.25h-.36a.4.4,0,0,0-.39.26L434.79,59.27a.42.42,0,0,0,0,.41.42.42,0,0,0,.38.18h3.16a.84.84,0,0,0,.82-.57Zm9.62-3.53h-8.07l3.79-8.48h.43Zm-7.3-.5h6.53l-3.3-7.24Z" transform="translate(-3.59 -4.32)"/><path class="cls-2" d="M479.07,60.36H464.29a1,1,0,0,1-.94-.94v-24a1,1,0,0,1,.94-.94h14.78a.94.94,0,0,1,.94.94v3a1,1,0,0,1-.94.94h-10.5v5.45h8.72a1,1,0,0,1,.94.94v3a.94.94,0,0,1-.94.94h-8.72V55.5h10.5a1,1,0,0,1,.94.94v3A.94.94,0,0,1,479.07,60.36ZM464.29,35a.44.44,0,0,0-.44.44v24a.44.44,0,0,0,.44.44h14.78a.44.44,0,0,0,.44-.44v-3a.44.44,0,0,0-.44-.44h-11V49.15h9.22a.44.44,0,0,0,.44-.44v-3a.46.46,0,0,0-.44-.44h-9.22V38.81h11a.44.44,0,0,0,.44-.44v-3a.44.44,0,0,0-.44-.44Z" transform="translate(-3.59 -4.32)"/><path class="cls-2" d="M499.47,60.72h-.66a.9.9,0,0,1-.84-.53L491.81,46.5l-2,13.1a1,1,0,0,1-.91.76h-3.26a1,1,0,0,1-.74-.31,1,1,0,0,1-.2-.81L489,34.84a.87.87,0,0,1,.9-.75h.58a.89.89,0,0,1,.84.5l7.82,16.77L507,34.59a.89.89,0,0,1,.85-.5h.58a.86.86,0,0,1,.9.76l4.28,24.38a.94.94,0,0,1-.16.81.92.92,0,0,1-.74.32h-3.3a1,1,0,0,1-.93-.73L506.4,46.5l-6.09,13.68A.85.85,0,0,1,499.47,60.72Zm-8-15.16h.48L498.43,60a.37.37,0,0,0,.38.25h.66a.37.37,0,0,0,.38-.22l6.43-14.44h.48l2.18,14a.53.53,0,0,0,.44.33h3.3a.38.38,0,0,0,.41-.53l-4.28-24.41a.37.37,0,0,0-.41-.33h-.58a.38.38,0,0,0-.4.22l-8.05,17.27H499l-8.06-17.27a.41.41,0,0,0-.39-.22h-.58a.35.35,0,0,0-.4.32h0l-4.32,24.4a.54.54,0,0,0,.09.41.48.48,0,0,0,.36.13h3.26a.46.46,0,0,0,.41-.33Z" transform="translate(-3.59 -4.32)"/></g><g class="cls-1"><path class="cls-2" d="M21.81,30.59H18a.88.88,0,0,1-.81-.46l-4.76-9.48H8.81v9a1,1,0,0,1-.94.94H4.53a.94.94,0,0,1-.94-.94v-24a1,1,0,0,1,.94-.94H14.91a8.12,8.12,0,0,1,8.16,8.06A8.21,8.21,0,0,1,17.8,20.2l4.85,9a1,1,0,0,1,0,1A.94.94,0,0,1,21.81,30.59ZM8.31,20.15h4.43l4.9,9.76a.37.37,0,0,0,.36.18h3.81a.43.43,0,0,0,.4-.2.48.48,0,0,0,0-.48l-5.1-9.47.26-.1a7.75,7.75,0,0,0,5.21-7.1,7.61,7.61,0,0,0-7.66-7.56H4.53a.44.44,0,0,0-.44.44v24a.44.44,0,0,0,.44.44H7.87a.47.47,0,0,0,.44-.44Zm6.2-3.39H8.34V9h6.17a3.86,3.86,0,0,1,3.84,3.77A4,4,0,0,1,14.51,16.76Zm-5.67-.5h5.67a3.44,3.44,0,0,0,3.34-3.45,3.35,3.35,0,0,0-3.34-3.27H8.84Z" transform="translate(-3.59 -4.32)"/><path class="cls-2" d="M45.08,30.59H30.3a.94.94,0,0,1-.94-.94v-24a1,1,0,0,1,.94-.94H45.08a1,1,0,0,1,.94.94v3a1,1,0,0,1-.94.94H34.58V15H43.3a1,1,0,0,1,.94.94v3a1,1,0,0,1-.94.94H34.58v5.85h10.5a1,1,0,0,1,.94.94v3A1,1,0,0,1,45.08,30.59ZM30.3,5.18a.44.44,0,0,0-.44.44v24a.44.44,0,0,0,.44.44H45.08a.44.44,0,0,0,.44-.44v-3a.44.44,0,0,0-.44-.44h-11V19.39H43.3a.44.44,0,0,0,.44-.44v-3a.47.47,0,0,0-.44-.44H34.08V9h11a.44.44,0,0,0,.44-.44v-3a.44.44,0,0,0-.44-.44Z" transform="translate(-3.59 -4.32)"/><path class="cls-2" d="M63.48,30.92A13.12,13.12,0,0,1,50.2,17.68,13.33,13.33,0,0,1,63.48,4.32a14,14,0,0,1,9,3.44,1,1,0,0,1,0,1.38L70.3,11.5a.87.87,0,0,1-1.29,0,7.9,7.9,0,0,0-5.31-2,8,8,0,0,0-7.88,8.17,8,8,0,0,0,7.91,8.06,11,11,0,0,0,4.07-.82V22.21H65.15a.91.91,0,0,1-.94-.9V18.44a.91.91,0,0,1,.94-.94h7a.93.93,0,0,1,.9.94v9.29a.93.93,0,0,1-.39.78A18.38,18.38,0,0,1,63.48,30.92Zm0-26.1A12.83,12.83,0,0,0,50.7,17.68,12.62,12.62,0,0,0,63.48,30.42a18.3,18.3,0,0,0,8.87-2.32.44.44,0,0,0,.17-.37V18.44a.43.43,0,0,0-.4-.44h-7a.42.42,0,0,0-.44.44v2.87a.41.41,0,0,0,.44.4H68.3v3.5l-.15.07a11.88,11.88,0,0,1-4.42.92,8.49,8.49,0,0,1-8.41-8.56A8.54,8.54,0,0,1,63.7,9a8.39,8.39,0,0,1,5.64,2.17c.29.25.46.15.6,0l2.25-2.36a.46.46,0,0,0,0-.67A13.48,13.48,0,0,0,63.48,4.82Z" transform="translate(-3.59 -4.32)"/><path class="cls-2" d="M95.28,30.59H80.5a.94.94,0,0,1-.94-.94v-24a1,1,0,0,1,.94-.94H95.28a1,1,0,0,1,.94.94v3a1,1,0,0,1-.94.94H84.78V15H93.5a1,1,0,0,1,.94.94v3a1,1,0,0,1-.94.94H84.78v5.85h10.5a1,1,0,0,1,.94.94v3A1,1,0,0,1,95.28,30.59ZM80.5,5.18a.44.44,0,0,0-.44.44v24a.44.44,0,0,0,.44.44H95.28a.44.44,0,0,0,.44-.44v-3a.44.44,0,0,0-.44-.44h-11V19.39H93.5a.44.44,0,0,0,.44-.44v-3a.47.47,0,0,0-.44-.44H84.28V9h11a.44.44,0,0,0,.44-.44v-3a.44.44,0,0,0-.44-.44Z" transform="translate(-3.59 -4.32)"/><path class="cls-2" d="M123.3,31h-.51a1,1,0,0,1-.79-.33l-14.53-16v15a.94.94,0,0,1-.94.94h-3.3a1,1,0,0,1-.94-.94V5.22a.93.93,0,0,1,.94-.9h.54a1,1,0,0,1,.79.33L119,20.06V5.62a1,1,0,0,1,.94-.94h3.34a1,1,0,0,1,.94.94V30.05A.94.94,0,0,1,123.3,31ZM107,13.8h.43l15,16.49a.54.54,0,0,0,.43.17h.51a.44.44,0,0,0,.44-.41V5.62a.47.47,0,0,0-.44-.44H120a.44.44,0,0,0-.44.44V20.87h-.43l-.07-.08L104.21,5a.55.55,0,0,0-.44-.18h-.54a.43.43,0,0,0-.44.4V29.65a.46.46,0,0,0,.44.44h3.3a.44.44,0,0,0,.44-.44Z" transform="translate(-3.59 -4.32)"/><path class="cls-2" d="M147.44,30.59H132.66a1,1,0,0,1-.94-.94v-24a1,1,0,0,1,.94-.94h14.78a1,1,0,0,1,.94.94v3a.94.94,0,0,1-.94.94h-10.5V15h8.72a1,1,0,0,1,.94.94v3a1,1,0,0,1-.94.94h-8.72v5.85h10.5a.94.94,0,0,1,.94.94v3A.94.94,0,0,1,147.44,30.59ZM132.66,5.18a.44.44,0,0,0-.44.44v24a.44.44,0,0,0,.44.44h14.78a.44.44,0,0,0,.44-.44v-3a.44.44,0,0,0-.44-.44h-11V19.39h9.22a.44.44,0,0,0,.44-.44v-3a.47.47,0,0,0-.44-.44h-9.22V9h11a.44.44,0,0,0,.44-.44v-3a.44.44,0,0,0-.44-.44Z" transform="translate(-3.59 -4.32)"/><path class="cls-2" d="M172.67,30.59h-3.82a.88.88,0,0,1-.8-.46l-4.76-9.48h-3.62v9a1,1,0,0,1-.94.94h-3.34a.94.94,0,0,1-.94-.94v-24a1,1,0,0,1,.94-.94h10.38a8.12,8.12,0,0,1,8.16,8.06,8.21,8.21,0,0,1-5.27,7.46l4.84,9a1,1,0,0,1,0,1A.94.94,0,0,1,172.67,30.59Zm-13.5-10.44h4.43l4.9,9.76a.37.37,0,0,0,.35.18h3.82a.44.44,0,0,0,.4-.2.48.48,0,0,0,0-.48L168,19.94l.26-.1a7.76,7.76,0,0,0,5.21-7.1,7.62,7.62,0,0,0-7.66-7.56H155.39a.44.44,0,0,0-.44.44v24a.44.44,0,0,0,.44.44h3.34a.47.47,0,0,0,.44-.44Zm6.2-3.39H159.2V9h6.17a3.86,3.86,0,0,1,3.84,3.77A4,4,0,0,1,165.37,16.76Zm-5.67-.5h5.67a3.44,3.44,0,0,0,3.34-3.45,3.35,3.35,0,0,0-3.34-3.27H159.7Z" transform="translate(-3.59 -4.32)"/><path class="cls-2" d="M200.91,30.59h-3.16a1.3,1.3,0,0,1-1.28-.86L194.76,26H184.22l-1.71,3.77a1.33,1.33,0,0,1-1.28.87h-3.16a.91.91,0,0,1-.8-.41.89.89,0,0,1,0-.88h0L188.52,4.87a.89.89,0,0,1,.84-.55h.37a.88.88,0,0,1,.84.54L201.75,29.3a.89.89,0,0,1-.84,1.29Zm-17-5.14h11.18l1.84,4.07c.23.44.41.57.83.57h3.16a.42.42,0,0,0,.38-.18.4.4,0,0,0,0-.4L190.12,5.07a.38.38,0,0,0-.39-.25h-.37a.4.4,0,0,0-.39.26L177.68,29.51a.43.43,0,0,0,0,.4.42.42,0,0,0,.38.18h3.16a.84.84,0,0,0,.82-.56Zm9.63-3.53h-8.07l3.78-8.49h.43Zm-7.3-.5h6.52l-3.29-7.25Z" transform="translate(-3.59 -4.32)"/><path class="cls-2" d="M213,30.59h-3.37a1,1,0,0,1-.94-.94V9.54h-5.31a.94.94,0,0,1-.94-.94v-3a1,1,0,0,1,.94-.94h15.86a1,1,0,0,1,.94.94v3a.94.94,0,0,1-.94.94H214V29.65A1,1,0,0,1,213,30.59ZM203.41,5.18a.44.44,0,0,0-.44.44v3a.44.44,0,0,0,.44.44h5.81V29.65a.46.46,0,0,0,.44.44H213a.46.46,0,0,0,.44-.44V9h5.8a.44.44,0,0,0,.44-.44v-3a.44.44,0,0,0-.44-.44Z" transform="translate(-3.59 -4.32)"/><path class="cls-2" d="M229.87,30.59H226.5a1,1,0,0,1-.94-.94v-24a1,1,0,0,1,.94-.94h3.37a1,1,0,0,1,.94.94v24A1,1,0,0,1,229.87,30.59ZM226.5,5.18a.47.47,0,0,0-.44.44v24a.46.46,0,0,0,.44.44h3.37a.46.46,0,0,0,.44-.44v-24a.47.47,0,0,0-.44-.44Z" transform="translate(-3.59 -4.32)"/><path class="cls-2" d="M247.7,31h-.37a.91.91,0,0,1-.84-.54L235.27,6a.89.89,0,0,1,.85-1.3h3.7a.91.91,0,0,1,.85.56l6.86,15.29,6.87-15.3a.91.91,0,0,1,.85-.55H259a.92.92,0,0,1,.8.41.88.88,0,0,1,0,.89L248.54,30.41A.9.9,0,0,1,247.7,31ZM236.12,5.18a.46.46,0,0,0-.39.18.43.43,0,0,0,0,.41h0L246.94,30.2a.4.4,0,0,0,.39.26h.37a.4.4,0,0,0,.39-.26L259.34,5.77a.4.4,0,0,0,0-.41.44.44,0,0,0-.38-.18h-3.7a.43.43,0,0,0-.39.25l-7.07,15.76h-.51L240.21,5.44a.42.42,0,0,0-.39-.26Z" transform="translate(-3.59 -4.32)"/><path class="cls-2" d="M282.73,30.59h-3.16a1.3,1.3,0,0,1-1.28-.86L276.58,26H266l-1.71,3.77a1.33,1.33,0,0,1-1.28.87h-3.16a.89.89,0,0,1-.84-1.29h0L270.34,4.87a.88.88,0,0,1,.84-.55h.37a.88.88,0,0,1,.84.54L283.57,29.3a.89.89,0,0,1,0,.88A.91.91,0,0,1,282.73,30.59Zm-17-5.14H276.9l1.84,4.07c.23.44.41.57.83.57h3.16a.42.42,0,0,0,.38-.18.43.43,0,0,0,0-.4L271.94,5.07a.38.38,0,0,0-.39-.25h-.37a.4.4,0,0,0-.39.26L259.5,29.51a.4.4,0,0,0,0,.4.42.42,0,0,0,.38.18h3.16a.84.84,0,0,0,.82-.56Zm9.63-3.53h-8.07l3.78-8.49h.43Zm-7.3-.5h6.52l-3.3-7.25Z" transform="translate(-3.59 -4.32)"/><path class="cls-2" d="M306.32,30.59h-3.81a.9.9,0,0,1-.81-.46L297,20.65h-3.63v9a1,1,0,0,1-.94.94H289a.94.94,0,0,1-.94-.94v-24a1,1,0,0,1,.94-.94h10.38a8.13,8.13,0,0,1,8.17,8.06,8.23,8.23,0,0,1-5.27,7.46l4.84,9a1,1,0,0,1,0,1A1,1,0,0,1,306.32,30.59Zm-13.5-10.44h4.43l4.9,9.76a.37.37,0,0,0,.36.18h3.81a.46.46,0,0,0,.41-.2.51.51,0,0,0,0-.48l-5.11-9.47.26-.1a7.76,7.76,0,0,0,5.22-7.1,7.62,7.62,0,0,0-7.67-7.56H289a.44.44,0,0,0-.44.44v24a.44.44,0,0,0,.44.44h3.34a.46.46,0,0,0,.44-.44Zm6.2-3.39h-6.16V9H299a3.86,3.86,0,0,1,3.85,3.77A4,4,0,0,1,299,16.76Zm-5.66-.5H299a3.44,3.44,0,0,0,3.35-3.45A3.35,3.35,0,0,0,299,9.54h-5.66Z" transform="translate(-3.59 -4.32)"/><path class="cls-2" d="M329.59,30.59H314.81a1,1,0,0,1-.94-.94v-24a1,1,0,0,1,.94-.94h14.78a1,1,0,0,1,.94.94v3a.94.94,0,0,1-.94.94h-10.5V15h8.72a1,1,0,0,1,.94.94v3a1,1,0,0,1-.94.94h-8.72v5.85h10.5a.94.94,0,0,1,.94.94v3A.94.94,0,0,1,329.59,30.59ZM314.81,5.18a.44.44,0,0,0-.44.44v24a.44.44,0,0,0,.44.44h14.78a.44.44,0,0,0,.44-.44v-3a.44.44,0,0,0-.44-.44h-11V19.39h9.22a.44.44,0,0,0,.44-.44v-3a.47.47,0,0,0-.44-.44h-9.22V9h11A.44.44,0,0,0,330,8.6v-3a.44.44,0,0,0-.44-.44Z" transform="translate(-3.59 -4.32)"/><path class="cls-2" d="M348,30.92a13.12,13.12,0,0,1-13.28-13.24A13.33,13.33,0,0,1,348,4.32a14,14,0,0,1,9,3.44,1,1,0,0,1,.05,1.38l-2.25,2.36a.87.87,0,0,1-1.29,0,7.9,7.9,0,0,0-5.31-2,8,8,0,0,0-7.88,8.17,8,8,0,0,0,7.92,8.06,11.07,11.07,0,0,0,4.07-.82V22.21h-2.66a.91.91,0,0,1-.94-.9V18.44a.92.92,0,0,1,.94-.94h7a.93.93,0,0,1,.9.94v9.29a.93.93,0,0,1-.39.78A18.34,18.34,0,0,1,348,30.92Zm0-26.1a12.83,12.83,0,0,0-12.78,12.86A12.62,12.62,0,0,0,348,30.42a18.3,18.3,0,0,0,8.87-2.32.44.44,0,0,0,.17-.37V18.44a.42.42,0,0,0-.4-.44h-7a.42.42,0,0,0-.44.44v2.87a.41.41,0,0,0,.44.4h3.16v3.5l-.16.07a11.77,11.77,0,0,1-4.41.92,8.5,8.5,0,0,1-8.42-8.56A8.54,8.54,0,0,1,348.21,9a8.43,8.43,0,0,1,5.65,2.17c.28.25.45.15.6,0l2.24-2.36a.46.46,0,0,0,0-.67A13.48,13.48,0,0,0,348,4.82Z" transform="translate(-3.59 -4.32)"/><path class="cls-2" d="M379.79,30.59H365a.94.94,0,0,1-.94-.94v-24a1,1,0,0,1,.94-.94h14.77a1,1,0,0,1,.94.94v3a.94.94,0,0,1-.94.94h-10.5V15H378a1,1,0,0,1,.94.94v3a1,1,0,0,1-.94.94h-8.72v5.85h10.5a.94.94,0,0,1,.94.94v3A.94.94,0,0,1,379.79,30.59ZM365,5.18a.44.44,0,0,0-.44.44v24a.43.43,0,0,0,.44.44h14.77a.44.44,0,0,0,.44-.44v-3a.44.44,0,0,0-.44-.44h-11V19.39H378a.44.44,0,0,0,.44-.44v-3a.47.47,0,0,0-.44-.44h-9.22V9h11a.44.44,0,0,0,.44-.44v-3a.44.44,0,0,0-.44-.44Z" transform="translate(-3.59 -4.32)"/><path class="cls-2" d="M407.81,31h-.51a1,1,0,0,1-.79-.33L392,14.61v15a.94.94,0,0,1-.94.94h-3.3a1,1,0,0,1-.94-.94V5.22a.93.93,0,0,1,.94-.9h.54a1.06,1.06,0,0,1,.8.33l14.45,15.41V5.62a1,1,0,0,1,.94-.94h3.34a1,1,0,0,1,.94.94V30.05A.94.94,0,0,1,407.81,31ZM391.48,13.8h.43l15,16.49a.56.56,0,0,0,.43.17h.51a.43.43,0,0,0,.44-.41V5.62a.47.47,0,0,0-.44-.44h-3.34a.44.44,0,0,0-.44.44V20.87h-.43l-.07-.08L388.72,5a.55.55,0,0,0-.44-.18h-.54a.43.43,0,0,0-.44.4V29.65a.46.46,0,0,0,.44.44H391a.44.44,0,0,0,.44-.44Z" transform="translate(-3.59 -4.32)"/><path class="cls-2" d="M432,30.59H417.18a.94.94,0,0,1-.94-.94v-24a1,1,0,0,1,.94-.94H432a1,1,0,0,1,.94.94v3a.94.94,0,0,1-.94.94H421.46V15h8.71a1,1,0,0,1,.94.94v3a1,1,0,0,1-.94.94h-8.71v5.85H432a.94.94,0,0,1,.94.94v3A.94.94,0,0,1,432,30.59ZM417.18,5.18a.44.44,0,0,0-.44.44v24a.43.43,0,0,0,.44.44H432a.44.44,0,0,0,.44-.44v-3a.44.44,0,0,0-.44-.44H421V19.39h9.21a.44.44,0,0,0,.44-.44v-3a.47.47,0,0,0-.44-.44H421V9h11a.44.44,0,0,0,.44-.44v-3a.44.44,0,0,0-.44-.44Z" transform="translate(-3.59 -4.32)"/><path class="cls-2" d="M457.18,30.59h-3.81a.88.88,0,0,1-.81-.46l-4.76-9.48h-3.62v9a1,1,0,0,1-.94.94H439.9a.94.94,0,0,1-.94-.94v-24a1,1,0,0,1,.94-.94h10.38a8.13,8.13,0,0,1,8.17,8.06,8.22,8.22,0,0,1-5.28,7.46l4.85,9a1,1,0,0,1,0,1A.93.93,0,0,1,457.18,30.59Zm-13.5-10.44h4.43l4.9,9.76a.37.37,0,0,0,.36.18h3.81a.43.43,0,0,0,.4-.2.48.48,0,0,0,0-.48l-5.11-9.47.26-.1a7.76,7.76,0,0,0,5.22-7.1,7.62,7.62,0,0,0-7.67-7.56H439.9a.44.44,0,0,0-.44.44v24a.44.44,0,0,0,.44.44h3.34a.46.46,0,0,0,.44-.44Zm6.2-3.39h-6.16V9h6.16a3.86,3.86,0,0,1,3.85,3.77A4,4,0,0,1,449.88,16.76Zm-5.66-.5h5.66a3.45,3.45,0,0,0,3.35-3.45,3.36,3.36,0,0,0-3.35-3.27h-5.66Z" transform="translate(-3.59 -4.32)"/><path class="cls-2" d="M485.42,30.59h-3.16a1.27,1.27,0,0,1-1.27-.86L479.27,26H468.74L467,29.72a1.31,1.31,0,0,1-1.28.87h-3.15a.89.89,0,0,1-.85-1.29h0L473,4.87a.9.9,0,0,1,.85-.55h.36a.85.85,0,0,1,.84.54L486.26,29.3a.89.89,0,0,1,0,.88A.92.92,0,0,1,485.42,30.59Zm-17-5.14h11.17l1.85,4.07c.22.44.41.57.82.57h3.16a.42.42,0,0,0,.38-.18.38.38,0,0,0,0-.4L474.63,5.07a.38.38,0,0,0-.39-.25h-.36a.41.41,0,0,0-.4.26L462.2,29.51a.41.41,0,0,0,0,.4.43.43,0,0,0,.39.18h3.15a.84.84,0,0,0,.82-.56ZM478,21.92H470l3.78-8.49h.43Zm-7.3-.5h6.52L474,14.17Z" transform="translate(-3.59 -4.32)"/><path class="cls-2" d="M497.58,30.59H494.2a1,1,0,0,1-.94-.94V9.54H488A.94.94,0,0,1,487,8.6v-3a1,1,0,0,1,.94-.94h15.86a1,1,0,0,1,.94.94v3a.94.94,0,0,1-.94.94h-5.3V29.65A1,1,0,0,1,497.58,30.59ZM488,5.18a.44.44,0,0,0-.44.44v3A.44.44,0,0,0,488,9h5.8V29.65a.47.47,0,0,0,.44.44h3.38a.46.46,0,0,0,.44-.44V9h5.8a.44.44,0,0,0,.44-.44v-3a.44.44,0,0,0-.44-.44Z" transform="translate(-3.59 -4.32)"/><path class="cls-2" d="M514.39,30.59H511a1,1,0,0,1-.94-.94v-24a1,1,0,0,1,.94-.94h3.38a1,1,0,0,1,.94.94v24A1,1,0,0,1,514.39,30.59ZM511,5.18a.47.47,0,0,0-.44.44v24a.46.46,0,0,0,.44.44h3.38a.47.47,0,0,0,.44-.44v-24a.47.47,0,0,0-.44-.44Z" transform="translate(-3.59 -4.32)"/></g></svg>