<svg id="Capa_1" data-name="Capa 1" xmlns="http://www.w3.org/2000/svg" viewBox="0 0 513.58 67.16"><defs><style>.cls-1{opacity:0.2;}.cls-2{fill:#7ab2e1;}</style></defs><g class="cls-1"><path class="cls-2" d="M16.06,67.91A13.89,13.89,0,1,1,29.94,54.06,13.79,13.79,0,0,1,16.06,67.91Zm0-27.17a13.28,13.28,0,1,0,9.4,22.71,13.31,13.31,0,0,0-9.4-22.71Zm0,22.26A9,9,0,0,1,9.74,47.71a8.85,8.85,0,0,1,12.65,0A8.94,8.94,0,0,1,16.06,63Zm0-17.35a8.22,8.22,0,0,0-5.89,2.48,8.37,8.37,0,1,0,11.79,0A8.28,8.28,0,0,0,16.06,45.65Z" transform="translate(-2.21 -0.75)"/><path class="cls-2" d="M49.82,67.91h-.68a1,1,0,0,1-.91-.59L41.88,53.23,39.82,66.71a1,1,0,0,1-1,.82h-3.4a1,1,0,0,1-.79-.33,1.09,1.09,0,0,1-.22-.88L38.92,41a.94.94,0,0,1,1-.82h.6a1,1,0,0,1,.91.55L49.5,58l8.08-17.34a1,1,0,0,1,.91-.55h.61a1,1,0,0,1,1,.83l4.44,25.34a1,1,0,0,1-.17.87,1,1,0,0,1-.8.35H60.12a1.13,1.13,0,0,1-1-.79L57,53.23,50.73,67.31A.93.93,0,0,1,49.82,67.91ZM41.45,52.06H42l6.76,15a.37.37,0,0,0,.37.23h.68c.26,0,.34-.16.35-.21l6.69-15h.57L59.7,66.62a.51.51,0,0,0,.42.31h3.43a.41.41,0,0,0,.33-.13.43.43,0,0,0,0-.38L59.48,41.06a.34.34,0,0,0-.38-.32h-.61a.36.36,0,0,0-.37.22l-8.37,18h-.5L40.87,41a.4.4,0,0,0-.37-.21h-.6a.33.33,0,0,0-.38.31L35,66.41a.52.52,0,0,0,.09.39.45.45,0,0,0,.33.13h3.4a.44.44,0,0,0,.38-.31Z" transform="translate(-2.21 -0.75)"/><path class="cls-2" d="M92.67,67.91h-.53a1.09,1.09,0,0,1-.85-.36L76.26,51V66.51a1,1,0,0,1-1,1H71.81a1.05,1.05,0,0,1-1-1V41.12a1,1,0,0,1,1-1h.56a1.15,1.15,0,0,1,.86.35l15,15.94V41.54a1,1,0,0,1,1-1h3.47a1,1,0,0,1,1,1V66.93A1,1,0,0,1,92.67,67.91ZM76,50h.14l.07.08L91.72,67.14a.53.53,0,0,0,.42.16h.53a.4.4,0,0,0,.41-.37V41.54a.44.44,0,0,0-.41-.42H89.2a.42.42,0,0,0-.42.42V57.42h-.1v.28l-.3-.28h-.1L72.8,40.91a.56.56,0,0,0-.43-.17h-.56a.42.42,0,0,0-.42.38V66.51a.45.45,0,0,0,.42.42h3.43a.42.42,0,0,0,.42-.42V50h.1v-.3Z" transform="translate(-2.21 -0.75)"/><path class="cls-2" d="M105.91,67.53H102.4a1.05,1.05,0,0,1-1-1v-25a1.05,1.05,0,0,1,1-1h3.51a1,1,0,0,1,1,1v25A1,1,0,0,1,105.91,67.53ZM102.4,41.12a.45.45,0,0,0-.42.42v25a.45.45,0,0,0,.42.42h3.51a.44.44,0,0,0,.41-.42v-25a.44.44,0,0,0-.41-.42Z" transform="translate(-2.21 -0.75)"/><path class="cls-2" d="M127,67.91a13.89,13.89,0,0,1-9.85-4A13.91,13.91,0,0,1,127,40.14a13.11,13.11,0,0,1,9.34,3.59,1,1,0,0,1,.35.74,1,1,0,0,1-.3.75l-2.3,2.37a.89.89,0,0,1-.65.32,1,1,0,0,1-.73-.31,8.55,8.55,0,0,0-5.59-2.14,7.85,7.85,0,0,0-5.8,2.52A8.68,8.68,0,0,0,119,54a8.58,8.58,0,0,0,2.33,5.92,7.94,7.94,0,0,0,5.82,2.49,8.75,8.75,0,0,0,5.58-2.08,1,1,0,0,1,1.34,0l2.35,2.42a.89.89,0,0,1,.28.63,1.17,1.17,0,0,1-.32.81A13.22,13.22,0,0,1,127,67.91Zm0-27.17a13.28,13.28,0,1,0,0,26.56,12.58,12.58,0,0,0,9-3.57.48.48,0,0,0,.14-.36.28.28,0,0,0-.09-.22l-2.36-2.43a.38.38,0,0,0-.52,0,9.34,9.34,0,0,1-6,2.22,8.55,8.55,0,0,1-6.26-2.68,9.13,9.13,0,0,1-2.5-6.33,9.26,9.26,0,0,1,2.48-6.38,8.44,8.44,0,0,1,6.24-2.71,9.24,9.24,0,0,1,6,2.3.43.43,0,0,0,.3.15.29.29,0,0,0,.21-.12L136,44.8a.4.4,0,0,0,0-.62A12.49,12.49,0,0,0,127,40.74Z" transform="translate(-2.21 -0.75)"/><path class="cls-2" d="M164,67.53h-3.28a1.4,1.4,0,0,1-1.37-.92l-1.77-3.91H146.69l-1.77,3.9a1.44,1.44,0,0,1-1.37.93h-3.28a1,1,0,0,1-.87-.45,1,1,0,0,1,0-1l11.73-25.39a1,1,0,0,1,.91-.59h.38a.93.93,0,0,1,.91.58l11.63,25.4a1,1,0,0,1-.92,1.41ZM146.3,62.1H158l1.93,4.25c.25.49.44.58.82.58H164a.4.4,0,0,0,.36-.17.41.41,0,0,0,0-.39L152.75,41a.35.35,0,0,0-.37-.24H152a.39.39,0,0,0-.37.25L139.9,66.37a.41.41,0,0,0,0,.39.41.41,0,0,0,.36.17h3.28a.85.85,0,0,0,.82-.57Zm10.1-3.59h-8.52l4-8.9h.5l.07.15Zm-7.59-.6h6.65l-3.36-7.39Z" transform="translate(-2.21 -0.75)"/><path class="cls-2" d="M191.42,67.91h-.52a1.13,1.13,0,0,1-.86-.36L175,51V66.51a1,1,0,0,1-1,1h-3.44a1.05,1.05,0,0,1-1-1V41.12a1,1,0,0,1,1-1h.57a1.12,1.12,0,0,1,.85.35l15,15.94V41.54a1,1,0,0,1,1-1h3.47a1,1,0,0,1,1,1V66.93A1,1,0,0,1,191.42,67.91ZM174.78,50h.14l.07.08,15.49,17.07a.52.52,0,0,0,.42.16h.52a.4.4,0,0,0,.42-.37V41.54a.45.45,0,0,0-.42-.42H188a.41.41,0,0,0-.41.42V57.42h-.1v.28l-.3-.28H187L171.55,40.91a.54.54,0,0,0-.42-.17h-.57a.41.41,0,0,0-.41.38V66.51a.44.44,0,0,0,.41.42H174a.42.42,0,0,0,.41-.42V50h.1v-.3Z" transform="translate(-2.21 -0.75)"/><path class="cls-2" d="M221.68,67.53h-3.29a1.38,1.38,0,0,1-1.36-.92l-1.77-3.91H204.37l-1.77,3.9a1.46,1.46,0,0,1-1.37.93H198a1,1,0,0,1-.92-1.41l11.74-25.39a1,1,0,0,1,.91-.59h.38a.94.94,0,0,1,.91.58l11.62,25.4a1,1,0,0,1-.91,1.41ZM204,62.1h11.67l1.92,4.25c.25.49.45.58.82.58h3.29a.41.41,0,0,0,.36-.17.39.39,0,0,0,0-.39L210.42,41a.33.33,0,0,0-.36-.24h-.38a.38.38,0,0,0-.37.25L197.58,66.37a.44.44,0,0,0,0,.39.41.41,0,0,0,.37.17h3.28a.84.84,0,0,0,.81-.57Zm10.09-3.59h-8.51l4-8.9H210Zm-7.59-.6h6.66l-3.36-7.39Z" transform="translate(-2.21 -0.75)"/><path class="cls-2" d="M242,67.53H228.2a1,1,0,0,1-1-1v-25a1,1,0,0,1,1-1h3.47a1.05,1.05,0,0,1,1,1V62.4H242a1,1,0,0,1,1,1v3.09A1,1,0,0,1,242,67.53ZM228.2,41.12a.41.41,0,0,0-.41.42v25a.41.41,0,0,0,.41.42H242a.41.41,0,0,0,.41-.42V63.42A.41.41,0,0,0,242,63h-9.92V41.54a.45.45,0,0,0-.42-.42Z" transform="translate(-2.21 -0.75)"/><path class="cls-2" d="M262.94,67.53h-13.8a1,1,0,0,1-1-1v-25a1,1,0,0,1,1-1h3.47a1,1,0,0,1,1,1V62.4h9.32a1,1,0,0,1,1,1v3.09A1,1,0,0,1,262.94,67.53Zm-13.8-26.41a.42.42,0,0,0-.42.42v25a.42.42,0,0,0,.42.42h13.8a.42.42,0,0,0,.42-.42V63.42a.42.42,0,0,0-.42-.42H253V41.54a.44.44,0,0,0-.41-.42Z" transform="translate(-2.21 -0.75)"/><path class="cls-2" d="M273.58,67.53h-3.51a1,1,0,0,1-1-1v-25a1,1,0,0,1,1-1h3.51a1,1,0,0,1,1,1v25A1,1,0,0,1,273.58,67.53Zm-3.51-26.41a.44.44,0,0,0-.41.42v25a.44.44,0,0,0,.41.42h3.51a.45.45,0,0,0,.42-.42v-25a.45.45,0,0,0-.42-.42Zm-1.33-2.29a1.57,1.57,0,0,1-1.27-.92c-.31-.62-.35-1.48.09-1.79l6.38-4.23a1.39,1.39,0,0,1,1.13-.15,2.21,2.21,0,0,1,1.34,1.18,2.53,2.53,0,0,1,.28,1.92,1.17,1.17,0,0,1-.61.71l-7,3.21A.86.86,0,0,1,268.74,38.83Zm-.83-2.21a1.2,1.2,0,0,0,.09,1c.26.48.65.67.85.58l7-3.21a.52.52,0,0,0,.29-.35,2,2,0,0,0-.24-1.46,1.61,1.61,0,0,0-1-.87.74.74,0,0,0-.64.08Z" transform="translate(-2.21 -0.75)"/><path class="cls-2" d="M292.21,67.53h-8.94a1,1,0,0,1-1-1v-25a1,1,0,0,1,1-1h8.94a13.51,13.51,0,1,1,0,27Zm-8.94-26.41a.41.41,0,0,0-.37.42v25a.41.41,0,0,0,.37.42h8.94a12.91,12.91,0,1,0,0-25.81Zm8.49,21.81h-4.6V45.08h4.6c5.18,0,8.79,3.67,8.79,8.91S296.94,62.93,291.76,62.93Zm-4-.61h4c4.82,0,8.19-3.42,8.19-8.33a7.89,7.89,0,0,0-8.19-8.3h-4Z" transform="translate(-2.21 -0.75)"/><path class="cls-2" d="M328.28,67.53H312.92a1,1,0,0,1-1-1v-25a1,1,0,0,1,1-1h15.36a1,1,0,0,1,1,1v3.09a1,1,0,0,1-1,1H317.41v5.58h9a1,1,0,0,1,1,1v3.13a1,1,0,0,1-1,1h-9v6h10.87a1,1,0,0,1,1,1v3.09A1,1,0,0,1,328.28,67.53ZM312.92,41.12a.41.41,0,0,0-.41.42v25a.41.41,0,0,0,.41.42h15.36a.42.42,0,0,0,.41-.42V63.42a.42.42,0,0,0-.41-.42H316.81V55.8h9.62a.41.41,0,0,0,.41-.42V52.25a.43.43,0,0,0-.41-.41h-9.62V45.05h11.47a.42.42,0,0,0,.41-.42V41.54a.42.42,0,0,0-.41-.42Z" transform="translate(-2.21 -0.75)"/><path class="cls-2" d="M354.49,67.53h-4a.94.94,0,0,1-.87-.51l-4.94-9.83H341v9.32a1,1,0,0,1-1,1h-3.47a1,1,0,0,1-1-1v-25a1,1,0,0,1,1-1h10.79a8.47,8.47,0,0,1,8.52,8.41,8.57,8.57,0,0,1-5.46,7.77l5,9.29a1.11,1.11,0,0,1,0,1.06A1.05,1.05,0,0,1,354.49,67.53ZM340.42,56.59h4.68l.07.14,5,10a.32.32,0,0,0,.33.18h4a.44.44,0,0,0,.39-.19.47.47,0,0,0,0-.46l-5.33-9.88.26-.11c3.38-1.36,5.45-4.17,5.45-7.36a7.88,7.88,0,0,0-7.92-7.81H336.54a.42.42,0,0,0-.42.42v25a.42.42,0,0,0,.42.42H340a.44.44,0,0,0,.41-.42Zm6.49-3.43h-6.45V45.05h6.45a4.05,4.05,0,0,1,4,4A4.15,4.15,0,0,1,346.91,53.16Zm-5.85-.61h5.85A3.53,3.53,0,0,0,350.34,49a3.44,3.44,0,0,0-3.43-3.36h-5.85Z" transform="translate(-2.21 -0.75)"/><path class="cls-2" d="M378.67,67.53H363.32a1,1,0,0,1-1-1v-25a1,1,0,0,1,1-1h15.35a1,1,0,0,1,1,1v3.09a1,1,0,0,1-1,1H367.81v5.58h9a1,1,0,0,1,1,1v3.13a1,1,0,0,1-1,1h-9v6h10.86a1,1,0,0,1,1,1v3.09A1,1,0,0,1,378.67,67.53ZM363.32,41.12a.42.42,0,0,0-.42.42v25a.42.42,0,0,0,.42.42h15.35a.42.42,0,0,0,.42-.42V63.42a.42.42,0,0,0-.42-.42H367.2V55.8h9.62a.42.42,0,0,0,.42-.42V52.25a.44.44,0,0,0-.42-.41H367.2V45.05h11.47a.42.42,0,0,0,.42-.42V41.54a.42.42,0,0,0-.42-.42Z" transform="translate(-2.21 -0.75)"/><path class="cls-2" d="M393.23,67.91a12,12,0,0,1-8.49-3,1,1,0,0,1-.26-1.51L385.84,61a1.12,1.12,0,0,1,.78-.56,1.18,1.18,0,0,1,.95.21A8.79,8.79,0,0,0,393.08,63a2.87,2.87,0,0,0,3.13-2.61c0-1.67-1.38-2.94-4.6-4.25s-7.28-3.51-7.28-8.42a7.34,7.34,0,0,1,2.08-5.1,9.16,9.16,0,0,1,6.71-2.45,13.66,13.66,0,0,1,7.72,2.59,1,1,0,0,1,.46.71,1.24,1.24,0,0,1-.16,1l-1.43,2.14a1.66,1.66,0,0,1-.75.62,1,1,0,0,1-1-.08l-.28-.17c-1.51-1-2.93-1.86-4.8-1.86-2.08,0-3,1.18-3,2.34,0,1.57,1.24,2.72,4.27,3.95,4,1.61,8.07,3.91,8.07,8.81a7.33,7.33,0,0,1-2.44,5.41A9.6,9.6,0,0,1,393.23,67.91Zm-6.38-6.85h-.11a.53.53,0,0,0-.38.27L385,63.68c-.25.45-.16.52.12.75a11.56,11.56,0,0,0,8.11,2.87,9,9,0,0,0,6.13-2.19,6.72,6.72,0,0,0,2.25-5c0-4.54-3.89-6.72-7.7-8.25-3.3-1.34-4.64-2.65-4.64-4.51,0-1.46,1.12-2.94,3.62-2.94,2,0,3.54,1,5.12,2l.29.17a.43.43,0,0,0,.44,0,1.09,1.09,0,0,0,.46-.4l1.44-2.15a.64.64,0,0,0,.07-.48.52.52,0,0,0-.2-.34,13,13,0,0,0-7.39-2.49c-3.95,0-8.19,2.18-8.19,6.95,0,4.55,3.94,6.67,6.9,7.87,3.49,1.41,5,2.85,5,4.8a3.46,3.46,0,0,1-3.73,3.21c-2.5,0-4.21-1.14-5.88-2.4A.58.58,0,0,0,386.85,61.06Z" transform="translate(-2.21 -0.75)"/><path class="cls-2" d="M420.47,67.91a13.79,13.79,0,1,1,9.83-4A13.82,13.82,0,0,1,420.47,67.91Zm0-27.17a13.28,13.28,0,1,0,9.4,3.9A13.12,13.12,0,0,0,420.47,40.74Zm0,22.26a9,9,0,0,1-6.32-15.29,8.85,8.85,0,0,1,12.65,0A8.94,8.94,0,0,1,420.47,63Zm0-17.35a8.22,8.22,0,0,0-5.89,2.48,8.37,8.37,0,1,0,11.79,0A8.28,8.28,0,0,0,420.47,45.65Z" transform="translate(-2.21 -0.75)"/><path class="cls-2" d="M454.19,67.91h-.68a1,1,0,0,1-.91-.59l-6.35-14.09-2.06,13.48a1,1,0,0,1-1,.82h-3.39a1.05,1.05,0,0,1-.8-.33,1.09,1.09,0,0,1-.22-.88L443.29,41a.94.94,0,0,1,1-.82h.6a1,1,0,0,1,.91.55L453.87,58,462,40.69a1,1,0,0,1,.92-.55h.6a.94.94,0,0,1,1,.83l4.45,25.34a1,1,0,0,1-1,1.22h-3.43a1.13,1.13,0,0,1-1-.79l-2.1-13.51-6.27,14.08A1,1,0,0,1,454.19,67.91Zm-8.37-15.85h.57l6.75,15a.38.38,0,0,0,.37.23h.68a.35.35,0,0,0,.36-.21l6.69-15h.56l2.27,14.56a.54.54,0,0,0,.42.31h3.43a.41.41,0,0,0,.33-.13.47.47,0,0,0,.06-.38l-4.46-25.36a.34.34,0,0,0-.38-.32h-.6a.37.37,0,0,0-.38.22l-8.37,18h-.5l-8.38-18a.39.39,0,0,0-.37-.21h-.6a.33.33,0,0,0-.38.31L439.4,66.41a.47.47,0,0,0,.08.39.46.46,0,0,0,.34.13h3.39a.42.42,0,0,0,.38-.31Z" transform="translate(-2.21 -0.75)"/><path class="cls-2" d="M497,67.91h-.53a1.11,1.11,0,0,1-.85-.36L480.63,51V66.51a1,1,0,0,1-1,1h-3.43a1,1,0,0,1-1-1V41.12a1,1,0,0,1,1-1h.57a1.13,1.13,0,0,1,.85.35l14.95,15.94V41.54a1,1,0,0,1,1-1H497a1,1,0,0,1,1,1V66.93A1,1,0,0,1,497,67.91ZM480.4,50h.14l.07.08L496.1,67.14a.51.51,0,0,0,.41.16H497a.41.41,0,0,0,.42-.37V41.54a.45.45,0,0,0-.42-.42h-3.47a.41.41,0,0,0-.41.42V57.42h-.11v.28l-.29-.28h-.11L477.17,40.91a.55.55,0,0,0-.42-.17h-.57a.42.42,0,0,0-.42.38V66.51a.45.45,0,0,0,.42.42h3.43a.42.42,0,0,0,.42-.42V50h.1v-.3Z" transform="translate(-2.21 -0.75)"/><path class="cls-2" d="M510.28,67.53h-3.51a1,1,0,0,1-1-1v-25a1,1,0,0,1,1-1h3.51a1,1,0,0,1,1,1v25A1,1,0,0,1,510.28,67.53Zm-3.51-26.41a.44.44,0,0,0-.41.42v25a.44.44,0,0,0,.41.42h3.51a.45.45,0,0,0,.42-.42v-25a.45.45,0,0,0-.42-.42Z" transform="translate(-2.21 -0.75)"/><path class="cls-2" d="M18.58,36.6H4.78a1,1,0,0,1-1-1v-25a1,1,0,0,1,1-1H8.25a1,1,0,0,1,1,1V31.47h9.31a1,1,0,0,1,1,1v3.09A1,1,0,0,1,18.58,36.6ZM4.78,10.19a.42.42,0,0,0-.42.42v25a.41.41,0,0,0,.42.41h13.8a.41.41,0,0,0,.42-.41V32.49a.42.42,0,0,0-.42-.42H8.66V10.61a.44.44,0,0,0-.41-.42Z" transform="translate(-2.21 -0.75)"/><path class="cls-2" d="M29.22,36.6H25.71a1.05,1.05,0,0,1-1-1v-25a1,1,0,0,1,1-1h3.51a1,1,0,0,1,1,1v25A1,1,0,0,1,29.22,36.6ZM25.71,10.19a.44.44,0,0,0-.41.42v25a.43.43,0,0,0,.41.41h3.51a.44.44,0,0,0,.42-.41v-25a.45.45,0,0,0-.42-.42ZM24.38,7.9A1.57,1.57,0,0,1,23.11,7c-.31-.62-.34-1.48.09-1.79L29.58,1A1.39,1.39,0,0,1,30.71.81,2.27,2.27,0,0,1,32.06,2a2.59,2.59,0,0,1,.27,1.93,1.16,1.16,0,0,1-.6.71l-7,3.2A.73.73,0,0,1,24.38,7.9Zm-.83-2.22a1.22,1.22,0,0,0,.09,1c.26.48.64.67.85.58l7-3.21a.54.54,0,0,0,.29-.35,2,2,0,0,0-.24-1.46,1.61,1.61,0,0,0-1-.87.74.74,0,0,0-.64.08Z" transform="translate(-2.21 -0.75)"/><path class="cls-2" d="M47.82,36.6H38.88a1,1,0,0,1-1-1v-25a1,1,0,0,1,1-1h8.94a13.51,13.51,0,1,1,0,27ZM38.88,10.19a.41.41,0,0,0-.38.42v25a.41.41,0,0,0,.38.41h8.94a12.9,12.9,0,1,0,0-25.8ZM47.36,32h-4.6V14.15h4.6c5.18,0,8.79,3.66,8.79,8.9S52.54,32,47.36,32Zm-4-.6h4c4.83,0,8.19-3.43,8.19-8.34a7.89,7.89,0,0,0-8.19-8.3h-4Z" transform="translate(-2.21 -0.75)"/><path class="cls-2" d="M83.88,36.6H68.53a1,1,0,0,1-1-1v-25a1,1,0,0,1,1-1H83.88a1,1,0,0,1,1,1V13.7a1,1,0,0,1-1,1H73V20.3h9a1.05,1.05,0,0,1,1,1v3.13a1,1,0,0,1-1,1H73v6H83.88a1,1,0,0,1,1,1v3.09A1,1,0,0,1,83.88,36.6ZM68.53,10.19a.42.42,0,0,0-.42.42v25a.41.41,0,0,0,.42.41H83.88a.41.41,0,0,0,.41-.41V32.49a.41.41,0,0,0-.41-.42H72.41v-7.2H82a.42.42,0,0,0,.42-.42V21.32A.45.45,0,0,0,82,20.9H72.41V14.11H83.88a.41.41,0,0,0,.41-.41V10.61a.41.41,0,0,0-.41-.42Z" transform="translate(-2.21 -0.75)"/><path class="cls-2" d="M110.1,36.6h-4a.94.94,0,0,1-.87-.51l-4.93-9.83h-3.7v9.32a1.05,1.05,0,0,1-1,1H92.14a1,1,0,0,1-1-1v-25a1,1,0,0,1,1-1h10.79A8.47,8.47,0,0,1,111.45,18,8.56,8.56,0,0,1,106,25.77l5,9.29a1.08,1.08,0,0,1,0,1.06A1,1,0,0,1,110.1,36.6ZM96,25.66h4.67l5.1,10.16a.34.34,0,0,0,.33.17h4a.42.42,0,0,0,.38-.18.47.47,0,0,0,0-.47l-5.33-9.87.26-.11c3.38-1.36,5.45-4.17,5.45-7.36a7.87,7.87,0,0,0-7.92-7.81H92.14a.42.42,0,0,0-.42.42v25a.41.41,0,0,0,.42.41h3.47a.44.44,0,0,0,.42-.41Zm6.48-3.44H96.06V14.11h6.45a4.06,4.06,0,0,1,4,4A4.15,4.15,0,0,1,102.51,22.22Zm-5.84-.6h5.84A3.54,3.54,0,0,0,106,18.07a3.44,3.44,0,0,0-3.44-3.35H96.67Z" transform="translate(-2.21 -0.75)"/><path class="cls-2" d="M134.27,36.6H118.92a1,1,0,0,1-1-1v-25a1,1,0,0,1,1-1h15.35a1,1,0,0,1,1,1V13.7a1,1,0,0,1-1,1H123.41V20.3h9a1,1,0,0,1,1,1v3.13a1,1,0,0,1-1,1h-9v6h10.86a1,1,0,0,1,1,1v3.09A1,1,0,0,1,134.27,36.6ZM118.92,10.19a.41.41,0,0,0-.41.42v25a.41.41,0,0,0,.41.41h15.35a.41.41,0,0,0,.42-.41V32.49a.42.42,0,0,0-.42-.42H122.81v-7.2h9.62a.41.41,0,0,0,.41-.42V21.32a.44.44,0,0,0-.41-.42h-9.62V14.11h11.46a.41.41,0,0,0,.42-.41V10.61a.42.42,0,0,0-.42-.42Z" transform="translate(-2.21 -0.75)"/><path class="cls-2" d="M148.83,37a12.11,12.11,0,0,1-8.49-3,1,1,0,0,1-.26-1.51l1.36-2.34a1.16,1.16,0,0,1,.78-.57,1.22,1.22,0,0,1,.95.22A8.81,8.81,0,0,0,148.68,32a2.88,2.88,0,0,0,3.14-2.6c0-1.67-1.38-2.94-4.61-4.25s-7.28-3.51-7.28-8.43A7.32,7.32,0,0,1,142,11.66a9.2,9.2,0,0,1,6.71-2.45,13.7,13.7,0,0,1,7.73,2.59,1.12,1.12,0,0,1,.46.71,1.24,1.24,0,0,1-.17,1l-1.43,2.14a1.29,1.29,0,0,1-1.74.54L153.3,16a8.84,8.84,0,0,0-4.8-1.86c-2.09,0-3,1.18-3,2.34,0,1.57,1.23,2.72,4.26,3.95,4,1.6,8.07,3.9,8.07,8.8a7.3,7.3,0,0,1-2.44,5.42A9.58,9.58,0,0,1,148.83,37Zm-6.37-6.85h-.12a.55.55,0,0,0-.37.28l-1.36,2.34c-.26.45-.17.52.11.75a11.56,11.56,0,0,0,8.11,2.87,9,9,0,0,0,6.13-2.2,6.7,6.7,0,0,0,2.25-5c0-4.54-3.89-6.71-7.7-8.24-3.29-1.35-4.64-2.65-4.64-4.51,0-1.46,1.12-2.94,3.63-2.94,2,0,3.53,1,5.12,2l.28.17c.3.2.69,0,.91-.36l1.43-2.15a.61.61,0,0,0,.08-.48.49.49,0,0,0-.21-.34,13,13,0,0,0-7.39-2.49c-3.94,0-8.19,2.17-8.19,6.94,0,4.56,3.94,6.68,6.91,7.87,3.49,1.42,5,2.85,5,4.81a3.47,3.47,0,0,1-3.74,3.21c-2.49,0-4.2-1.14-5.87-2.4A.55.55,0,0,0,142.46,30.12Z" transform="translate(-2.21 -0.75)"/><path class="cls-2" d="M176.07,37a13.76,13.76,0,0,1-13.84-13.84,13.89,13.89,0,0,1,4-9.85,13.88,13.88,0,0,1,19.64,0A13.86,13.86,0,0,1,176.07,37Zm0-27.16a13.13,13.13,0,0,0-9.39,3.89,13.3,13.3,0,0,0,18.8,18.82,13.3,13.3,0,0,0-9.41-22.71Zm0,22.26a9,9,0,0,1-6.32-15.29,8.83,8.83,0,0,1,12.65,0,8.94,8.94,0,0,1-6.33,15.29Zm0-17.35a8.26,8.26,0,0,0-5.89,2.48,8.37,8.37,0,1,0,11.8,0A8.3,8.3,0,0,0,176.07,14.72Z" transform="translate(-2.21 -0.75)"/><path class="cls-2" d="M209.79,37h-.68a1,1,0,0,1-.91-.58L201.85,22.3l-2.06,13.47a1,1,0,0,1-1,.83h-3.4a1,1,0,0,1-.79-.34,1.07,1.07,0,0,1-.23-.87L198.9,10a.93.93,0,0,1,1-.82h.61a1,1,0,0,1,.91.54l8.08,17.35,8.09-17.34a1,1,0,0,1,.91-.55h.6a.94.94,0,0,1,1,.83l4.45,25.34a.95.95,0,0,1-1,1.22h-3.43a1.14,1.14,0,0,1-1-.79L217,22.3l-6.27,14.08A.94.94,0,0,1,209.79,37Zm-8.37-15.84H202l.07.15,6.69,14.85a.36.36,0,0,0,.36.24h.68a.34.34,0,0,0,.36-.21l6.69-15h.57l0,.21,2.23,14.34a.52.52,0,0,0,.42.31h3.43a.44.44,0,0,0,.34-.12.51.51,0,0,0,0-.38l-4.45-25.36a.34.34,0,0,0-.39-.32h-.6a.36.36,0,0,0-.37.21l-8.38,18h-.5l-.06-.15L200.84,10a.38.38,0,0,0-.36-.21h-.61a.34.34,0,0,0-.38.3L195,35.48a.47.47,0,0,0,.08.39.46.46,0,0,0,.34.12h3.4a.44.44,0,0,0,.38-.3Z" transform="translate(-2.21 -0.75)"/><path class="cls-2" d="M252.64,37h-.52a1.12,1.12,0,0,1-.86-.35l-15-16.56V35.58a1,1,0,0,1-1,1h-3.44a1,1,0,0,1-1-1V10.19a1,1,0,0,1,1-1h.57a1.12,1.12,0,0,1,.85.35l15,15.94V10.61a1,1,0,0,1,1-1h3.47a1,1,0,0,1,1,1V36A1,1,0,0,1,252.64,37ZM236,19.06h.14l.08.08L251.7,36.21a.52.52,0,0,0,.42.16h.52a.4.4,0,0,0,.42-.38V10.61a.45.45,0,0,0-.42-.42h-3.47a.42.42,0,0,0-.41.42V26.49h-.1v.28l-.3-.28h-.11l-.07-.08L232.77,10a.52.52,0,0,0-.42-.17h-.57a.41.41,0,0,0-.41.38V35.58a.43.43,0,0,0,.41.41h3.44a.41.41,0,0,0,.41-.41V19.06h.1v-.3Z" transform="translate(-2.21 -0.75)"/><path class="cls-2" d="M265.88,36.6h-3.5a1,1,0,0,1-1-1v-25a1,1,0,0,1,1-1h3.5a1,1,0,0,1,1,1v25A1,1,0,0,1,265.88,36.6Zm-3.5-26.41a.45.45,0,0,0-.42.42v25a.44.44,0,0,0,.42.41h3.5a.44.44,0,0,0,.42-.41v-25a.45.45,0,0,0-.42-.42Z" transform="translate(-2.21 -0.75)"/><path class="cls-2" d="M287,37a13.89,13.89,0,0,1-9.85-4A13.9,13.9,0,0,1,287,9.21a13.07,13.07,0,0,1,9.33,3.59,1,1,0,0,1,.36.74,1,1,0,0,1-.31.75l-2.3,2.37a.89.89,0,0,1-.64.32,1.07,1.07,0,0,1-.73-.31,8.58,8.58,0,0,0-5.6-2.14,7.81,7.81,0,0,0-5.79,2.52A8.64,8.64,0,0,0,279,23a8.54,8.54,0,0,0,2.33,5.91,8,8,0,0,0,5.82,2.5,8.71,8.71,0,0,0,5.58-2.08,1,1,0,0,1,1.35,0l2.34,2.42a.84.84,0,0,1,.28.62,1.13,1.13,0,0,1-.32.82A13.2,13.2,0,0,1,287,37Zm0-27.16a13.28,13.28,0,1,0,0,26.56,12.6,12.6,0,0,0,9-3.57.54.54,0,0,0,.14-.36.27.27,0,0,0-.09-.22l-2.36-2.43a.39.39,0,0,0-.53,0,9.32,9.32,0,0,1-6,2.22,8.53,8.53,0,0,1-6.25-2.68,9.15,9.15,0,0,1-2.5-6.33,9.3,9.3,0,0,1,2.48-6.39,8.45,8.45,0,0,1,6.23-2.7,9.19,9.19,0,0,1,6,2.3.48.48,0,0,0,.29.15h0a.31.31,0,0,0,.22-.13l2.31-2.38a.49.49,0,0,0,.14-.32.47.47,0,0,0-.16-.31A12.54,12.54,0,0,0,287,9.81Z" transform="translate(-2.21 -0.75)"/><path class="cls-2" d="M324,36.6h-3.29a1.38,1.38,0,0,1-1.36-.92l-1.77-3.91H306.67l-1.77,3.9a1.47,1.47,0,0,1-1.37.93h-3.28a1,1,0,0,1-.87-.45,1,1,0,0,1-.05-1L311.06,9.8a1,1,0,0,1,.92-.59h.38a1,1,0,0,1,.91.58l11.62,25.4a1,1,0,0,1,0,1A1,1,0,0,1,324,36.6Zm-17.7-5.43H318l1.92,4.25c.25.49.45.57.82.57H324a.43.43,0,0,0,.36-.16.39.39,0,0,0,0-.39L312.72,10.05a.33.33,0,0,0-.36-.24H312a.37.37,0,0,0-.37.25L299.88,35.44a.41.41,0,0,0,0,.39.43.43,0,0,0,.37.16h3.28a.83.83,0,0,0,.81-.56Zm10.09-3.59h-8.51l4-8.9h.5l.07.14Zm-7.59-.6h6.66l-3.36-7.39Z" transform="translate(-2.21 -0.75)"/><path class="cls-2" d="M351.36,37h-.53a1.1,1.1,0,0,1-.85-.35L335,20.06V35.58a1,1,0,0,1-1,1H330.5a1,1,0,0,1-1-1V10.19a1,1,0,0,1,1-1h.57a1.13,1.13,0,0,1,.85.35L346.87,25.5V10.61a1,1,0,0,1,1-1h3.47a1,1,0,0,1,1,1V36A1,1,0,0,1,351.36,37ZM334.72,19.06h.14l.08.08,15.48,17.07a.51.51,0,0,0,.41.16h.53a.41.41,0,0,0,.42-.38V10.61a.45.45,0,0,0-.42-.42h-3.47a.41.41,0,0,0-.41.42V26.49h-.11v.28l-.29-.28H347l-.07-.08L331.49,10a.55.55,0,0,0-.42-.17h-.57a.42.42,0,0,0-.42.38V35.58a.44.44,0,0,0,.42.41h3.43a.41.41,0,0,0,.42-.41V19.06h.1v-.3Z" transform="translate(-2.21 -0.75)"/><path class="cls-2" d="M381.61,36.6h-3.28a1.38,1.38,0,0,1-1.36-.92l-1.77-3.91H364.3l-1.76,3.9a1.47,1.47,0,0,1-1.37.93h-3.28a1,1,0,0,1-.88-.45,1,1,0,0,1,0-1L368.7,9.8a1,1,0,0,1,.92-.59H370a1,1,0,0,1,.92.58l11.62,25.4a1,1,0,0,1,0,1A1,1,0,0,1,381.61,36.6Zm-17.69-5.43h11.66l1.93,4.25c.25.49.45.57.82.57h3.28a.43.43,0,0,0,.37-.16.41.41,0,0,0,0-.39L370.36,10.05a.35.35,0,0,0-.37-.24h-.37a.36.36,0,0,0-.37.25L357.52,35.44a.39.39,0,0,0,0,.39.43.43,0,0,0,.37.16h3.28a.83.83,0,0,0,.81-.56ZM374,27.58h-8.52l4-8.9h.5l.07.14Zm-7.59-.6h6.65l-3.36-7.39Z" transform="translate(-2.21 -0.75)"/><path class="cls-2" d="M402,36.6h-13.8a1,1,0,0,1-1-1v-25a1,1,0,0,1,1-1h3.47a1,1,0,0,1,1,1V31.47H402a1,1,0,0,1,1,1v3.09A1,1,0,0,1,402,36.6Zm-13.8-26.41a.42.42,0,0,0-.42.42v25a.41.41,0,0,0,.42.41H402a.41.41,0,0,0,.42-.41V32.49a.42.42,0,0,0-.42-.42h-9.92V10.61a.44.44,0,0,0-.41-.42Z" transform="translate(-2.21 -0.75)"/><path class="cls-2" d="M422.92,36.6H409.11a1,1,0,0,1-1-1v-25a1,1,0,0,1,1-1h3.47a1,1,0,0,1,1,1V31.47h9.32a1,1,0,0,1,1,1v3.09A1,1,0,0,1,422.92,36.6ZM409.11,10.19a.41.41,0,0,0-.41.42v25a.41.41,0,0,0,.41.41h13.81a.41.41,0,0,0,.41-.41V32.49a.41.41,0,0,0-.41-.42H413V10.61a.45.45,0,0,0-.42-.42Z" transform="translate(-2.21 -0.75)"/><path class="cls-2" d="M433.55,36.6h-3.5a1,1,0,0,1-1-1v-25a1,1,0,0,1,1-1h3.5a1,1,0,0,1,1,1v25A1,1,0,0,1,433.55,36.6Zm-3.5-26.41a.45.45,0,0,0-.42.42v25a.44.44,0,0,0,.42.41h3.5a.44.44,0,0,0,.42-.41v-25a.45.45,0,0,0-.42-.42ZM428.71,7.9A1.57,1.57,0,0,1,427.44,7c-.31-.62-.34-1.48.09-1.79L433.92,1A1.36,1.36,0,0,1,435,.81,2.24,2.24,0,0,1,436.39,2a2.6,2.6,0,0,1,.28,1.93,1.17,1.17,0,0,1-.61.71l-7,3.2A.8.8,0,0,1,428.71,7.9Zm-.83-2.22a1.2,1.2,0,0,0,.1,1c.25.48.64.67.85.58l7-3.21a.61.61,0,0,0,.29-.35,2,2,0,0,0-.25-1.46,1.62,1.62,0,0,0-1-.87.74.74,0,0,0-.64.08Z" transform="translate(-2.21 -0.75)"/><path class="cls-2" d="M452.15,36.6h-8.94a1,1,0,0,1-1-1v-25a1,1,0,0,1,1-1h8.94a13.51,13.51,0,1,1,0,27Zm-8.94-26.41a.41.41,0,0,0-.38.42v25a.41.41,0,0,0,.38.41h8.94a12.9,12.9,0,1,0,0-25.8ZM451.7,32h-4.6V14.15h4.6c5.17,0,8.79,3.66,8.79,8.9S456.87,32,451.7,32Zm-4-.6h4c4.82,0,8.19-3.43,8.19-8.34a7.89,7.89,0,0,0-8.19-8.3h-4Z" transform="translate(-2.21 -0.75)"/><path class="cls-2" d="M488.21,36.6H472.86a1,1,0,0,1-1-1v-25a1,1,0,0,1,1-1h15.35a1,1,0,0,1,1,1V13.7a1,1,0,0,1-1,1H477.35V20.3h9a1,1,0,0,1,1,1v3.13a1,1,0,0,1-1,1h-9v6h10.86a1,1,0,0,1,1,1v3.09A1,1,0,0,1,488.21,36.6ZM472.86,10.19a.42.42,0,0,0-.42.42v25a.41.41,0,0,0,.42.41h15.35a.41.41,0,0,0,.42-.41V32.49a.42.42,0,0,0-.42-.42H476.75v-7.2h9.62a.42.42,0,0,0,.41-.42V21.32a.45.45,0,0,0-.41-.42h-9.62V14.11h11.46a.41.41,0,0,0,.42-.41V10.61a.42.42,0,0,0-.42-.42Z" transform="translate(-2.21 -0.75)"/><path class="cls-2" d="M514.43,36.6h-4a.91.91,0,0,1-.87-.51l-4.94-9.83H501v9.32a1,1,0,0,1-1,1h-3.47a1,1,0,0,1-1-1v-25a1,1,0,0,1,1-1h10.79A8.48,8.48,0,0,1,515.79,18a8.58,8.58,0,0,1-5.46,7.77l5,9.29a1.08,1.08,0,0,1,0,1.06A1,1,0,0,1,514.43,36.6ZM500.36,25.66H505l5.1,10.16a.37.37,0,0,0,.34.17h4a.45.45,0,0,0,.39-.18.52.52,0,0,0,0-.47l-5.33-9.87.26-.11c3.38-1.36,5.45-4.17,5.45-7.36a7.88,7.88,0,0,0-7.93-7.81H496.47a.41.41,0,0,0-.41.42v25a.41.41,0,0,0,.41.41h3.47a.44.44,0,0,0,.42-.41Zm6.49-3.44H500.4V14.11h6.45a4,4,0,0,1,4,4A4.14,4.14,0,0,1,506.85,22.22Zm-5.85-.6h5.85a3.53,3.53,0,0,0,3.43-3.55,3.43,3.43,0,0,0-3.43-3.35H501Z" transform="translate(-2.21 -0.75)"/></g></svg>