<svg id="Capa_1" data-name="Capa 1" xmlns="http://www.w3.org/2000/svg" viewBox="0 0 511.73 56.41"><defs><style>.cls-1{opacity:0.2;}.cls-2,.cls-3{fill:#fff;}.cls-3{opacity:0.2;}</style></defs><g class="cls-1"><path class="cls-2" d="M15.71,56H.94A.94.94,0,0,1,0,55.1v-24a.94.94,0,0,1,.94-.94H15.71a.94.94,0,0,1,.94.94v3a1,1,0,0,1-.94.94H5.22v5.45h8.71a1,1,0,0,1,.94.94v3a.94.94,0,0,1-.94.94H5.22v5.81H15.71a1,1,0,0,1,.94.94v3A.94.94,0,0,1,15.71,56ZM.94,30.68a.44.44,0,0,0-.44.44v24a.44.44,0,0,0,.44.44H15.71a.44.44,0,0,0,.44-.44v-3a.44.44,0,0,0-.44-.44h-11V44.83h9.21a.44.44,0,0,0,.44-.44v-3a.46.46,0,0,0-.44-.44H4.72V34.49h11a.44.44,0,0,0,.44-.44v-3a.44.44,0,0,0-.45-.37Z" transform="translate(0 0)"/><path class="cls-2" d="M36.11,56.4h-.65a.9.9,0,0,1-.84-.53L28.46,42.18l-2.05,13.1a1,1,0,0,1-.9.76H22.28a.93.93,0,0,1-.73-.31,1,1,0,0,1-.2-.81l4.32-24.4a.86.86,0,0,1,.9-.75h.58a.91.91,0,0,1,.84.5L35.8,47l7.82-16.77a.87.87,0,0,1,.84-.5H45a.85.85,0,0,1,.9.76l4.29,24.38a1,1,0,0,1-.16.81.94.94,0,0,1-.74.32H46a1.05,1.05,0,0,1-.93-.73l-2-13.13L37,55.86A.87.87,0,0,1,36.11,56.4Zm-8-15.16h.49l6.47,14.44a.39.39,0,0,0,.39.25h.65c.23,0,.35-.11.38-.22l6.43-14.44h.49l2.17,14a.54.54,0,0,0,.44.33h3.31a.45.45,0,0,0,.35-.13.55.55,0,0,0,.06-.4L45.41,30.6a.35.35,0,0,0-.39-.33h-.6a.38.38,0,0,0-.39.22L36,47.76H35.6l-8-17.27a.41.41,0,0,0-.39-.22h-.58a.36.36,0,0,0-.41.3v0h0L21.9,55a.51.51,0,0,0,.09.41.45.45,0,0,0,.35.13h3.27A.49.49,0,0,0,26,55.2Z" transform="translate(0 0)"/><path class="cls-2" d="M60.61,56H57.28a.94.94,0,0,1-.94-.94v-24a.94.94,0,0,1,.94-.94h8.53a8.35,8.35,0,0,1,.58,16.69H61.55v8.28A1,1,0,0,1,60.61,56ZM57.28,30.68a.44.44,0,0,0-.44.44v24a.44.44,0,0,0,.44.44h3.33a.46.46,0,0,0,.44-.44v-8.8h4.79a7.85,7.85,0,1,0,0-15.64Zm8.38,11.76H61.05V34.6h4.61a3.72,3.72,0,0,1,3.84,3.6v.17a3.86,3.86,0,0,1-3.68,4h-.16Zm-4.11-.5h4.11A3.34,3.34,0,0,0,69,38.58v-.16a3.23,3.23,0,0,0-3.19-3.27H61.55Z" transform="translate(0 0)"/><path class="cls-2" d="M97.75,56H93.94a.87.87,0,0,1-.81-.46l-4.72-9.49H84.75v9a1,1,0,0,1-.94.94H80.47a.94.94,0,0,1-.94-.94h0v-24a.94.94,0,0,1,.94-.94H90.85a8.12,8.12,0,0,1,8.17,8,8.22,8.22,0,0,1-5.28,7.53l4.85,9a1,1,0,0,1,0,1A.92.92,0,0,1,97.75,56ZM84.25,45.59h4.43l4.9,9.76a.36.36,0,0,0,.36.19h3.81a.43.43,0,0,0,.4-.2.46.46,0,0,0,0-.48L93,45.39l.26-.1a7.78,7.78,0,0,0,5.22-7.11,7.62,7.62,0,0,0-7.67-7.5H80.47a.44.44,0,0,0-.44.44h0v24a.44.44,0,0,0,.44.44h3.34a.46.46,0,0,0,.44-.44Zm6.16-3.38H84.29V34.49h6.12a3.86,3.86,0,0,1,3.85,3.77A4,4,0,0,1,90.41,42.21Zm-5.62-.53h5.62a3.44,3.44,0,0,0,3.35-3.45A3.35,3.35,0,0,0,90.41,35H84.79Z" transform="translate(0 0)"/><path class="cls-2" d="M121,56H106.24a.94.94,0,0,1-.94-.94h0v-24a.94.94,0,0,1,.94-.94H121a1,1,0,0,1,.94.94v3A1,1,0,0,1,121,35h-10.5v5.45h8.72a1,1,0,0,1,.94.94v3a.94.94,0,0,1-.94.94h-8.72v5.81H121a1,1,0,0,1,.94.94v3A1,1,0,0,1,121,56ZM106.24,30.68a.44.44,0,0,0-.44.44h0v24a.44.44,0,0,0,.44.44H121a.44.44,0,0,0,.44-.44h0v-3a.44.44,0,0,0-.44-.44H110V44.83h9.22a.44.44,0,0,0,.44-.44h0v-3a.46.46,0,0,0-.44-.44H110V34.49h11a.44.44,0,0,0,.44-.44h0v-3a.44.44,0,0,0-.44-.44h0Z" transform="translate(0 0)"/><path class="cls-2" d="M135,56.4a11.55,11.55,0,0,1-8.15-2.89.93.93,0,0,1-.34-1.26.71.71,0,0,1,.1-.14L128,49.86a1.06,1.06,0,0,1,.72-.53,1.1,1.1,0,0,1,.88.2,8.52,8.52,0,0,0,5.33,2.2,2.81,2.81,0,0,0,3.06-2.54h0c0-1.62-1.34-2.86-4.46-4.12s-7-3.37-7-8.07c0-3.48,2.64-7.22,8.42-7.22a13.07,13.07,0,0,1,7.41,2.48,1,1,0,0,1,.43.66,1.14,1.14,0,0,1-.16.88l-1.37,2.06a1.2,1.2,0,0,1-1.62.51h0l-.27-.17a8.55,8.55,0,0,0-4.64-1.78c-2,0-2.94,1.15-2.94,2.29,0,1.52,1.19,2.64,4.12,3.83,3.83,1.54,7.75,3.75,7.75,8.44C143.63,52.57,140.61,56.4,135,56.4Zm-6.14-6.59h-.12a.55.55,0,0,0-.39.29l-1.3,2.25c-.26.46-.16.54.12.77h0A11.14,11.14,0,0,0,135,55.89c5.26,0,8.1-3.57,8.1-6.93,0-4.4-3.76-6.5-7.43-8-3.16-1.28-4.44-2.53-4.44-4.29,0-1.39,1.06-2.79,3.44-2.79a9,9,0,0,1,4.91,1.86l.27.17c.3.2.71,0,.93-.36l1.38-2.07a.67.67,0,0,0,.08-.5.62.62,0,0,0-.22-.35,12.63,12.63,0,0,0-7.13-2.39c-5.44,0-7.92,3.48-7.92,6.72,0,4.4,3.81,6.45,6.67,7.61,3.34,1.35,4.77,2.72,4.77,4.58a3.3,3.3,0,0,1-3.56,3,9,9,0,0,1-5.63-2.3A.56.56,0,0,0,128.89,49.81Z" transform="translate(0 0)"/><path class="cls-2" d="M169.91,56h-3.16a1.3,1.3,0,0,1-1.27-.86l-1.72-3.79H153.23l-1.71,3.78a1.34,1.34,0,0,1-1.28.87h-3.16a.89.89,0,0,1-1-.83.87.87,0,0,1,.1-.47h0l11.29-24.43a.91.91,0,0,1,.85-.54h.36a.86.86,0,0,1,.84.53l11.19,24.44a.88.88,0,0,1-.38,1.2.85.85,0,0,1-.47.1Zm-17-5.15h11.17L165.93,55c.22.45.41.58.82.58h3.16a.43.43,0,0,0,.39-.18.43.43,0,0,0,0-.41L159.12,30.52a.38.38,0,0,0-.39-.25h-.32a.44.44,0,0,0-.4.26L146.69,55a.43.43,0,0,0,0,.41.46.46,0,0,0,.39.18h3.16a.85.85,0,0,0,.82-.57Zm9.62-3.53h-8.07l3.78-8.48h.43Zm-7.3-.5h6.53l-3.3-7.24Z" transform="translate(0 0)"/><path class="cls-2" d="M193.51,56h-3.82a.89.89,0,0,1-.8-.46l-4.76-9.49h-3.62v9a1,1,0,0,1-.94.94h-3.34a.94.94,0,0,1-.94-.94h0v-24a.94.94,0,0,1,.94-.94h10.38a8.1,8.1,0,0,1,8.16,8,8.2,8.2,0,0,1-5.27,7.53l4.84,9a1,1,0,0,1,0,1A1,1,0,0,1,193.51,56ZM180,45.59h4.4l4.9,9.76a.35.35,0,0,0,.35.19h3.82a.46.46,0,0,0,.4-.2.46.46,0,0,0,0-.48l-5.1-9.47.26-.1a7.78,7.78,0,0,0,5.21-7.11,7.62,7.62,0,0,0-7.64-7.5H176.23a.44.44,0,0,0-.44.44h0v24a.44.44,0,0,0,.44.44h3.34a.46.46,0,0,0,.44-.44Zm6.2-3.38H180V34.49h6.17a3.85,3.85,0,0,1,3.84,3.77A4,4,0,0,1,186.21,42.21Zm-5.67-.5h5.67a3.43,3.43,0,0,0,3.34-3.45A3.34,3.34,0,0,0,186.21,35h-5.67Z" transform="translate(0 0)"/><path class="cls-2" d="M216.77,56H202a.94.94,0,0,1-.94-.94h0v-24a.94.94,0,0,1,.94-.94h14.77a.94.94,0,0,1,.94.94h0v3a1,1,0,0,1-.94.94H206.28v5.45H215a1,1,0,0,1,.93.94v3a.94.94,0,0,1-.93.94h-8.72v5.81h10.49a1,1,0,0,1,.94.94v3A.94.94,0,0,1,216.77,56ZM202,30.68a.44.44,0,0,0-.44.44h0v24a.44.44,0,0,0,.44.44h14.77a.44.44,0,0,0,.44-.44h0v-3a.44.44,0,0,0-.44-.44h-11V44.83H215a.43.43,0,0,0,.43-.43h0v-3A.46.46,0,0,0,215,41h-9.22V34.49h11a.44.44,0,0,0,.44-.44h0v-3a.44.44,0,0,0-.44-.44h0Z" transform="translate(0 0)"/><path class="cls-2" d="M235.18,56.37a13.12,13.12,0,0,1-13.28-13v-.29a13.33,13.33,0,0,1,13.28-13.35,14,14,0,0,1,9,3.43,1,1,0,0,1,0,1.39L242,36.94a.87.87,0,0,1-1.23.06l-.06-.06a7.92,7.92,0,0,0-5.28-2,8.12,8.12,0,0,0,0,16.24,11.12,11.12,0,0,0,4.07-.83V47.68h-2.65a.91.91,0,0,1-.94-.88V43.88a.92.92,0,0,1,.9-.94h7a.92.92,0,0,1,.9.94v9.3a.93.93,0,0,1-.39.78A18.39,18.39,0,0,1,235.18,56.37Zm0-26.1a12.82,12.82,0,0,0-12.77,12.85,12.62,12.62,0,0,0,12.51,12.75h.27a18.34,18.34,0,0,0,8.87-2.32.45.45,0,0,0,.17-.37v-9.3a.44.44,0,0,0-.4-.44h-7a.41.41,0,0,0-.44.38v2.93a.41.41,0,0,0,.41.41H240v3.52l-.16.06a11.51,11.51,0,0,1-4.41.94A8.62,8.62,0,1,1,241,36.61c.29.26.46.16.6,0l2.25-2.35a.46.46,0,0,0,0-.65l0,0A13.43,13.43,0,0,0,235.18,30.27Z" transform="translate(0 0)"/><path class="cls-2" d="M267,56H252.2a.94.94,0,0,1-.94-.94h0v-24a.94.94,0,0,1,.94-.94H267a1,1,0,0,1,.94.94v3A1,1,0,0,1,267,35h-10.5v5.45h8.72a1,1,0,0,1,.94.94v3a.94.94,0,0,1-.94.94h-8.72v5.81H267a1,1,0,0,1,.94.94v3A1,1,0,0,1,267,56ZM252.2,30.68a.44.44,0,0,0-.44.44h0v24a.44.44,0,0,0,.44.44H267a.44.44,0,0,0,.44-.44h0v-3a.44.44,0,0,0-.44-.44H256V44.83h9.22a.44.44,0,0,0,.44-.44h0v-3a.46.46,0,0,0-.44-.44H256V34.49h11a.44.44,0,0,0,.44-.44h0v-3a.44.44,0,0,0-.44-.44h0Z" transform="translate(0 0)"/><path class="cls-2" d="M295,56.4h-.51a1,1,0,0,1-.79-.32l-14.53-16v15a.94.94,0,0,1-.94.94h-3.31a1,1,0,0,1-.94-.94V30.68a.94.94,0,0,1,.94-.9h.55a1,1,0,0,1,.79.32l14.46,15.42V31.07a.94.94,0,0,1,.94-.94H295a1,1,0,0,1,.94.94V55.5A.92.92,0,0,1,295,56.4ZM278.67,39.24h.43l15,16.49a.51.51,0,0,0,.43.17H295a.44.44,0,0,0,.44-.4V31.07a.46.46,0,0,0-.44-.44H291.7a.44.44,0,0,0-.44.44h0V46.31h-.43l-.08-.08L275.9,30.44a.54.54,0,0,0-.43-.17h-.55a.44.44,0,0,0-.44.4V55.1a.46.46,0,0,0,.44.44h3.31a.44.44,0,0,0,.44-.44h0Z" transform="translate(0 0)"/><path class="cls-2" d="M319.14,56H304.41a1,1,0,0,1-.94-.94v-24a1,1,0,0,1,.94-.94h14.78a.94.94,0,0,1,.94.94h0v3a1,1,0,0,1-.94.94h-10.5v5.45h8.72a1,1,0,0,1,.94.94v3a.94.94,0,0,1-.94.94h-8.72v5.81h10.5a1,1,0,0,1,.94.94v3a.94.94,0,0,1-1,.92ZM304.41,30.68a.44.44,0,0,0-.44.44h0v24a.44.44,0,0,0,.44.44h14.78a.44.44,0,0,0,.44-.44h0v-3a.44.44,0,0,0-.44-.44h-11V44.83h9.22a.44.44,0,0,0,.44-.44h0v-3a.46.46,0,0,0-.44-.44h-9.22V34.49h11a.44.44,0,0,0,.44-.44h0v-3a.44.44,0,0,0-.44-.44h0Z" transform="translate(0 0)"/><path class="cls-2" d="M344.41,56h-3.82a.89.89,0,0,1-.8-.46L335,46.09h-3.62v9a1,1,0,0,1-.94.94h-3.34a.94.94,0,0,1-.94-.94h0v-24a.94.94,0,0,1,.94-.94h10.38a8.1,8.1,0,0,1,8.16,8,8.19,8.19,0,0,1-5.26,7.53l4.84,9a1,1,0,0,1,0,1A1,1,0,0,1,344.41,56Zm-13.5-10.45h4.43l4.9,9.76a.35.35,0,0,0,.35.19h3.82a.46.46,0,0,0,.4-.2.46.46,0,0,0,0-.48l-5.1-9.47.26-.1a7.78,7.78,0,0,0,5.21-7.11,7.62,7.62,0,0,0-7.71-7.5H327.09a.44.44,0,0,0-.44.44h0v24a.44.44,0,0,0,.44.44h3.32a.46.46,0,0,0,.44-.44Zm6.2-3.38h-6.17V34.49h6.17A3.85,3.85,0,0,1,341,38.26a4,4,0,0,1-3.88,4Zm-5.7-.53h5.67a3.44,3.44,0,0,0,3.33-3.42A3.34,3.34,0,0,0,337.07,35h-5.66Z" transform="translate(0 0)"/><path class="cls-2" d="M372.61,56h-3.2a1.31,1.31,0,0,1-1.28-.86l-1.72-3.79H355.92l-1.71,3.78a1.34,1.34,0,0,1-1.28.87h-3.16a.92.92,0,0,1-.8-.41.94.94,0,0,1,0-.89h0l11.29-24.43a.9.9,0,0,1,.84-.54h.31a.87.87,0,0,1,.84.53l11.16,24.44a.94.94,0,0,1,0,.89A.92.92,0,0,1,372.61,56Zm-17-5.15h11.18L368.63,55c.23.45.41.58.83.58h3.16a.44.44,0,0,0,.38-.18.43.43,0,0,0,0-.41L361.81,30.52a.36.36,0,0,0-.38-.25h-.37a.4.4,0,0,0-.39.26L349.41,55a.43.43,0,0,0,0,.41.44.44,0,0,0,.38.18H353a.84.84,0,0,0,.82-.57Zm9.63-3.53h-8.07L361,38.88h.46Zm-7.3-.5h6.47l-3.3-7.24Z" transform="translate(0 0)"/><path class="cls-2" d="M384.77,56h-3.36a1,1,0,0,1-.94-.94V35h-5.3a1,1,0,0,1-.94-.94v-3a.94.94,0,0,1,.94-.94H391a.94.94,0,0,1,.94.94h0v3A1,1,0,0,1,391,35h-5.3V55.1A1,1,0,0,1,384.77,56Zm-9.62-25.36a.44.44,0,0,0-.44.44h0v3a.44.44,0,0,0,.44.44H381V55.1a.46.46,0,0,0,.44.44h3.38a.46.46,0,0,0,.44-.44V34.49H391a.44.44,0,0,0,.44-.44h0v-3a.44.44,0,0,0-.44-.44h0Z" transform="translate(0 0)"/><path class="cls-2" d="M401.57,56H398.2a1,1,0,0,1-.94-.94v-24a1,1,0,0,1,.94-.94h3.37a1,1,0,0,1,.94.94v24A1,1,0,0,1,401.57,56ZM398.2,30.68a.46.46,0,0,0-.44.44v24a.46.46,0,0,0,.44.44h3.37a.46.46,0,0,0,.44-.44v-24a.46.46,0,0,0-.44-.44Z" transform="translate(0 0)"/><path class="cls-2" d="M419.41,56.4H419a.9.9,0,0,1-.84-.53L407,31.43a.86.86,0,0,1,.81-1.3h3.7a.91.91,0,0,1,.93.55L419.27,46l6.83-15.29a.9.9,0,0,1,.85-.55h3.7a.92.92,0,0,1,.8.41.94.94,0,0,1,0,.89L420.24,55.86A.9.9,0,0,1,419.41,56.4ZM407.82,30.68a.43.43,0,0,0-.39.18.43.43,0,0,0,0,.41h0l11.21,24.41a.39.39,0,0,0,.39.25h.38a.4.4,0,0,0,.39-.26l11.25-24.42a.43.43,0,0,0,0-.41.44.44,0,0,0-.38-.18H427a.41.41,0,0,0-.39.24l-7.1,15.78H419l-7.07-15.8a.43.43,0,0,0-.39-.25Z" transform="translate(0 0)"/><path class="cls-2" d="M454.41,56h-3.15a1.31,1.31,0,0,1-1.28-.86l-1.72-3.79H437.74L436,55.17a1.34,1.34,0,0,1-1.28.87h-3.16a.92.92,0,0,1-.8-.41.94.94,0,0,1,0-.89h0l11.29-24.43a.9.9,0,0,1,.84-.54h.36a.86.86,0,0,1,.84.53l11.19,24.44a.87.87,0,0,1-.9,1.3Zm-17-5.15h11.18L450.41,55c.22.45.41.58.83.58h3.17a.43.43,0,0,0,.39-.18.43.43,0,0,0,0-.41L443.63,30.52a.36.36,0,0,0-.39-.25h-.36a.4.4,0,0,0-.39.26L431.2,55a.43.43,0,0,0,0,.41.44.44,0,0,0,.38.18h3.16a.84.84,0,0,0,.82-.57ZM447,47.36H439l3.79-8.48h.43Zm-7.3-.5h6.53L443,39.62Z" transform="translate(0 0)"/><path class="cls-2" d="M475.48,56H460.7a1,1,0,0,1-.94-.94v-24a1,1,0,0,1,.94-.94h14.78a.94.94,0,0,1,.94.94h0v3a1,1,0,0,1-.94.94H465v5.45h8.72a1,1,0,0,1,.94.94v3a.94.94,0,0,1-.94.94H465v5.81h10.5a1,1,0,0,1,.94.94v3A.94.94,0,0,1,475.48,56ZM460.7,30.68a.44.44,0,0,0-.44.44h0v24a.44.44,0,0,0,.44.44h14.78a.44.44,0,0,0,.44-.44h0v-3a.44.44,0,0,0-.44-.44h-11V44.83h9.22a.44.44,0,0,0,.44-.44h0v-3a.46.46,0,0,0-.44-.44h-9.22V34.49h11a.44.44,0,0,0,.44-.44h0v-3a.44.44,0,0,0-.44-.44h0Z" transform="translate(0 0)"/><path class="cls-2" d="M495.88,56.4h-.66a.9.9,0,0,1-.84-.53l-6.16-13.69-2,13.1a1,1,0,0,1-.91.76h-3.26a.91.91,0,0,1-.94-1.12l4.3-24.4a.87.87,0,0,1,.9-.75h.58a.89.89,0,0,1,.84.5L495.55,47l7.86-16.77a.9.9,0,0,1,.85-.5h.58a.87.87,0,0,1,.9.76L510,54.91a.88.88,0,0,1-.9,1.13h-3.3a1,1,0,0,1-.93-.73l-2.08-13.13-6.09,13.68A.85.85,0,0,1,495.88,56.4Zm-8-15.16h.48l6.48,14.44a.37.37,0,0,0,.38.25h.66a.36.36,0,0,0,.38-.22l6.43-14.44h.48l2.18,14a.53.53,0,0,0,.44.33h3.3a.38.38,0,0,0,.44-.31.41.41,0,0,0,0-.22l-4.28-24.41a.37.37,0,0,0-.41-.33h-.58a.39.39,0,0,0-.4.22l-8.05,17.27h-.37l-8.06-17.27a.41.41,0,0,0-.39-.22h-.58a.35.35,0,0,0-.4.3v0h0l-4.32,24.4a.55.55,0,0,0,.09.41.49.49,0,0,0,.36.13h3.26a.45.45,0,0,0,.41-.33Z" transform="translate(0 0)"/></g><path class="cls-2" d="M14.21,15.88a8.22,8.22,0,0,0,5.27-7.43A8.12,8.12,0,0,0,11.32.39H.94A1,1,0,0,0,0,1.33v24a.94.94,0,0,0,.94.94H4.28a1,1,0,0,0,.94-.94v-9H8.84l4.76,9.48a.87.87,0,0,0,.81.46h3.81a.93.93,0,0,0,.84-.39,1,1,0,0,0,0-1Zm-3.29-3.44H4.75V4.68h6.17a3.86,3.86,0,0,1,3.84,3.77A4,4,0,0,1,10.92,12.44Z" transform="translate(0 0)"/><path class="cls-2" d="M41.49,26.27H26.71a.94.94,0,0,1-.94-.94h0v-24a1,1,0,0,1,.94-.94H41.49a1,1,0,0,1,.94.94v3a1,1,0,0,1-.94.94H31v5.41h8.72a1,1,0,0,1,.94.94v3a1,1,0,0,1-.94.94H31v5.85h10.5a1,1,0,0,1,.94.94v3A1,1,0,0,1,41.49,26.27Z" transform="translate(0 0)"/><path class="cls-2" d="M59.89,26.6a13.12,13.12,0,0,1-13.28-13v-.28A13.33,13.33,0,0,1,59.89,0a14,14,0,0,1,9,3.44,1,1,0,0,1,0,1.38L66.71,7.18a.87.87,0,0,1-1.23.06l-.06-.06a7.92,7.92,0,0,0-5.31-2,8,8,0,0,0-7.88,8.12v0a8,8,0,0,0,7.91,8.06,10.91,10.91,0,0,0,4.07-.82v-2.7H61.56a.91.91,0,0,1-.94-.88V14.12a.91.91,0,0,1,.88-.94h7.06a.92.92,0,0,1,.9.94v9.29a.93.93,0,0,1-.39.78A18.46,18.46,0,0,1,59.89,26.6Z" transform="translate(0 0)"/><path class="cls-2" d="M91.69,26.27H76.91a.94.94,0,0,1-.94-.94h0v-24a1,1,0,0,1,.94-.94H91.69a1,1,0,0,1,.94.94v3a1,1,0,0,1-.94.94H81.19v5.41h8.72a1,1,0,0,1,.94.94v3a1,1,0,0,1-.94.94H81.19v5.85h10.5a1,1,0,0,1,.94.94v3A1,1,0,0,1,91.69,26.27Z" transform="translate(0 0)"/><path class="cls-2" d="M119.71,26.68h-.51a1,1,0,0,1-.79-.33l-14.53-16v15a.94.94,0,0,1-.94.94h-3.3a1,1,0,0,1-.94-.94V.9a.92.92,0,0,1,.94-.9h.54a1,1,0,0,1,.79.33l14.44,15.41V1.3a1,1,0,0,1,.94-.94h3.34a1,1,0,0,1,.94.94V25.73A.93.93,0,0,1,119.71,26.68Z" transform="translate(0 0)"/><path class="cls-2" d="M143.85,26.27H129.07a1,1,0,0,1-.94-.94v-24a1,1,0,0,1,.94-.94h14.78a1,1,0,0,1,.94.94v3a.94.94,0,0,1-.94.94h-10.5v5.41h8.72a1,1,0,0,1,.94.94v3a1,1,0,0,1-.94.94h-8.72v5.85h10.5a.94.94,0,0,1,.94.94h0v3A.94.94,0,0,1,143.85,26.27Z" transform="translate(0 0)"/><path class="cls-2" d="M165.07,15.91a8.2,8.2,0,0,0,5.27-7.46A8.12,8.12,0,0,0,162.18.39H151.8a1,1,0,0,0-.94.94v24a.94.94,0,0,0,.94.94h3.34a1,1,0,0,0,.94-.94v-9h3.62l4.76,9.48a.89.89,0,0,0,.8.46h3.82a1,1,0,0,0,.83-.36,1,1,0,0,0,0-1Zm-3.29-3.47h-6.17V4.68h6.17a3.86,3.86,0,0,1,3.84,3.77A4,4,0,0,1,161.78,12.44Z" transform="translate(0 0)"/><path class="cls-2" d="M198.16,25,187,.54a.88.88,0,0,0-.84-.54h-.37a.88.88,0,0,0-.84.55L173.68,25a.87.87,0,0,0,0,.88.92.92,0,0,0,.8.41h3.16a1.34,1.34,0,0,0,1.28-.87l1.71-3.77h10.54l1.71,3.73a1.3,1.3,0,0,0,1.28.86h3.16a.88.88,0,0,0,.84-1.29ZM181.88,17.6l3.78-8.49h.43L190,17.6Z" transform="translate(0 0)"/><path class="cls-2" d="M209.41,26.27H206a1,1,0,0,1-.94-.94V5.22h-5.31a.94.94,0,0,1-.94-.94h0v-3a1,1,0,0,1,.94-.94h15.86a1,1,0,0,1,.94.94v3a.94.94,0,0,1-.94.94h-5.24V25.33A1,1,0,0,1,209.41,26.27Z" transform="translate(0 0)"/><path class="cls-2" d="M226.28,26.27h-3.37a1,1,0,0,1-.94-.94v-24a1,1,0,0,1,.94-.94h3.37a1,1,0,0,1,.94.94v24A1,1,0,0,1,226.28,26.27Z" transform="translate(0 0)"/><path class="cls-2" d="M244.11,26.68h-.37a.92.92,0,0,1-.84-.54L231.68,1.68a.88.88,0,0,1,.38-1.2.85.85,0,0,1,.47-.1h3.7a.92.92,0,0,1,.85.56l6.86,15.29L250.81.93a.9.9,0,0,1,.85-.55h3.75a.92.92,0,0,1,.8.41.89.89,0,0,1,0,.89L245,26.09A.9.9,0,0,1,244.11,26.68Z" transform="translate(0 0)"/><path class="cls-2" d="M280,25,268.8.54A.88.88,0,0,0,268,0h-.37a.88.88,0,0,0-.84.55L255.42,25a.87.87,0,0,0-.09.45.88.88,0,0,0,.93.84h3.16a1.34,1.34,0,0,0,1.28-.87l1.71-3.77H273l1.71,3.73a1.3,1.3,0,0,0,1.28.86h3.16a.91.91,0,0,0,.84-.41A.87.87,0,0,0,280,25ZM263.7,17.6l3.78-8.49h.43l3.86,8.49Z" transform="translate(0 0)"/><path class="cls-3" d="M302.73,26.27h-3.81a.9.9,0,0,1-.81-.46l-4.7-9.48h-3.63v9a1,1,0,0,1-.94.94h-3.43a.94.94,0,0,1-.94-.94h0v-24a1,1,0,0,1,.94-.94h10.38A8.13,8.13,0,0,1,304,8.45a8.23,8.23,0,0,1-5.27,7.46l4.84,9a.87.87,0,0,1-.8,1.36Zm-13.5-10.44h4.43l4.9,9.76a.35.35,0,0,0,.36.18h3.81a.47.47,0,0,0,.41-.2.51.51,0,0,0,0-.48L298,15.62l.26-.1a7.76,7.76,0,0,0,5.22-7.1A7.62,7.62,0,0,0,295.84.86H285.41a.44.44,0,0,0-.44.44h0v24a.44.44,0,0,0,.44.44h3.34a.46.46,0,0,0,.44-.44Zm6.2-3.39h-6.16V4.68h6.14a3.86,3.86,0,0,1,3.85,3.77,4,4,0,0,1-3.85,4Zm-5.66-.5h5.64a3.44,3.44,0,0,0,3.35-3.45,3.35,3.35,0,0,0-3.35-3.27h-5.66Z" transform="translate(0 0)"/><path class="cls-3" d="M326,26.27H311.22a1,1,0,0,1-.94-.94v-24a1,1,0,0,1,.94-.94H326a1,1,0,0,1,.94.94v3a.94.94,0,0,1-.94.94H315.5v5.41h8.72a1,1,0,0,1,.94.94v3a1,1,0,0,1-.94.94H315.5v5.85H326a.94.94,0,0,1,.94.94h0v3A.94.94,0,0,1,326,26.27ZM311.22.86a.44.44,0,0,0-.44.44h0v24a.44.44,0,0,0,.44.44H326a.44.44,0,0,0,.44-.44h0v-3a.44.44,0,0,0-.44-.44H315V15.07h9.22a.44.44,0,0,0,.44-.44h0v-3a.46.46,0,0,0-.44-.44H315V4.68h11a.43.43,0,0,0,.41-.4v-3A.44.44,0,0,0,326,.84h0Z" transform="translate(0 0)"/><path class="cls-3" d="M344.41,26.6a13.12,13.12,0,0,1-13.28-13v-.28A13.33,13.33,0,0,1,344.41,0a14,14,0,0,1,9,3.44,1,1,0,0,1,0,1.38l-2.25,2.36a.87.87,0,0,1-1.23.06l-.06-.06a7.92,7.92,0,0,0-5.31-2,8,8,0,0,0-7.88,8.12v0a8,8,0,0,0,7.92,8.06,10.91,10.91,0,0,0,4.07-.82v-2.7h-2.66a.91.91,0,0,1-.94-.88V14.12a.92.92,0,0,1,.9-.94h7a.92.92,0,0,1,.9.94v9.29a.93.93,0,0,1-.39.78A18.39,18.39,0,0,1,344.41,26.6Zm0-26.1a12.83,12.83,0,0,0-12.78,12.86,12.62,12.62,0,0,0,12.5,12.74h.28a18.34,18.34,0,0,0,8.87-2.32.45.45,0,0,0,.17-.37V14.12a.42.42,0,0,0-.4-.44h-7a.42.42,0,0,0-.44.4V17a.4.4,0,0,0,.42.4h3.18v3.5l-.16.07a11.72,11.72,0,0,1-4.41.92,8.5,8.5,0,0,1-8.42-8.56,8.54,8.54,0,0,1,8.4-8.64,8.42,8.42,0,0,1,5.65,2.17c.28.25.45.15.6,0l2.24-2.36a.46.46,0,0,0,0-.65l0,0A13.51,13.51,0,0,0,344.41.5Z" transform="translate(0 0)"/><path class="cls-3" d="M376.2,26.27H361.41a.94.94,0,0,1-.94-.94h0v-24a1,1,0,0,1,.94-.94h14.77a1,1,0,0,1,.94.94v3a.94.94,0,0,1-.94.94h-10.5v5.41h8.73a1,1,0,0,1,.94.94v3a1,1,0,0,1-.94.94h-8.72v5.85h10.5a.94.94,0,0,1,.94.94h0v3A.94.94,0,0,1,376.2,26.27ZM361.41.86a.44.44,0,0,0-.44.44h0v24a.43.43,0,0,0,.42.44h14.79a.44.44,0,0,0,.44-.44h0v-3a.44.44,0,0,0-.44-.44h-11V15.07h9.23a.44.44,0,0,0,.44-.44h0v-3a.46.46,0,0,0-.44-.44h-9.22V4.68h11a.44.44,0,0,0,.44-.44h0v-3a.44.44,0,0,0-.44-.44h0Z" transform="translate(0 0)"/><path class="cls-3" d="M404.22,26.68h-.51a1,1,0,0,1-.79-.33L388.41,10.29v15a.94.94,0,0,1-.94.94h-3.3a1,1,0,0,1-.94-.94V.9a.92.92,0,0,1,.94-.9h.54a1.06,1.06,0,0,1,.8.33L400,15.74V1.3a1,1,0,0,1,.94-.94h3.34a1,1,0,0,1,.94.94V25.73a.94.94,0,0,1-.93.95ZM387.89,9.48h.43l15,16.49a.54.54,0,0,0,.43.17h.51a.43.43,0,0,0,.44-.41V1.3a.46.46,0,0,0-.44-.44h-3.34a.44.44,0,0,0-.44.44h0V16.55h-.43l-.07-.08L385.13.68a.55.55,0,0,0-.44-.18h-.54a.43.43,0,0,0-.44.4V25.33a.46.46,0,0,0,.44.44h3.26a.44.44,0,0,0,.44-.44h0Z" transform="translate(0 0)"/><path class="cls-3" d="M428.41,26.27H413.59a.94.94,0,0,1-.94-.94h0v-24a1,1,0,0,1,.94-.94h14.82a1,1,0,0,1,.94.94v3a.94.94,0,0,1-.94.94H417.87v5.41h8.71a1,1,0,0,1,.94.94v3a1,1,0,0,1-.94.94h-8.71v5.85h10.54a.94.94,0,0,1,.94.94h0v3A.94.94,0,0,1,428.41,26.27ZM413.59.86a.44.44,0,0,0-.44.44h0v24a.43.43,0,0,0,.42.44h14.84a.44.44,0,0,0,.44-.44h0v-3a.44.44,0,0,0-.44-.44h-11V15.07h9.21a.44.44,0,0,0,.44-.44h0v-3a.46.46,0,0,0-.44-.44h-9.21V4.68h11a.44.44,0,0,0,.44-.44h0v-3a.44.44,0,0,0-.44-.44h0Z" transform="translate(0 0)"/><path class="cls-3" d="M453.59,26.27h-3.81a.87.87,0,0,1-.81-.46l-4.76-9.48h-3.62v9a1,1,0,0,1-.94.94h-3.34a.94.94,0,0,1-.94-.94h0v-24a1,1,0,0,1,.94-.94h10.38a8.13,8.13,0,0,1,8.17,8.06,8.22,8.22,0,0,1-5.28,7.46l4.85,9a1,1,0,0,1,0,1A.92.92,0,0,1,453.59,26.27Zm-13.5-10.44h4.43l4.9,9.76a.35.35,0,0,0,.36.18h3.81a.43.43,0,0,0,.4-.2.46.46,0,0,0,0-.48l-5.11-9.47.26-.1a7.76,7.76,0,0,0,5.22-7.1A7.62,7.62,0,0,0,446.69.86H436.31a.44.44,0,0,0-.44.44h0v24a.44.44,0,0,0,.44.44h3.34a.46.46,0,0,0,.44-.44Zm6.2-3.39h-6.16V4.68h6.16a3.86,3.86,0,0,1,3.85,3.77A4,4,0,0,1,446.29,12.44Zm-5.66-.5h5.66a3.44,3.44,0,0,0,3.35-3.45,3.35,3.35,0,0,0-3.35-3.27h-5.66Z" transform="translate(0 0)"/><path class="cls-3" d="M481.83,26.27h-3.16a1.26,1.26,0,0,1-1.27-.86l-1.72-3.73H465.15l-1.74,3.72a1.31,1.31,0,0,1-1.28.87H459a.89.89,0,0,1-.94-.83.9.9,0,0,1,.09-.46h0L469.41.55a.89.89,0,0,1,.85-.55h.36a.85.85,0,0,1,.84.54L482.67,25a.87.87,0,0,1,0,.88A.91.91,0,0,1,481.83,26.27Zm-17-5.14H476l1.85,4.07c.22.44.41.57.82.57h3.16a.44.44,0,0,0,.38-.18.36.36,0,0,0,0-.4L471,.75a.39.39,0,0,0-.39-.25h-.36a.4.4,0,0,0-.4.26L458.61,25.19a.41.41,0,0,0,0,.4.43.43,0,0,0,.39.18h3.15a.83.83,0,0,0,.82-.56Zm9.58-3.53h-8l3.78-8.49h.43Zm-7.3-.5h6.52l-3.22-7.25Z" transform="translate(0 0)"/><path class="cls-3" d="M494,26.27h-3.38a1,1,0,0,1-.94-.94V5.22h-5.26a1,1,0,0,1-1-.88V1.28a1,1,0,0,1,.94-.94h15.86a1,1,0,0,1,.94.94v3a.94.94,0,0,1-.94.94h-5.3V25.33A1,1,0,0,1,494,26.27ZM484.41.86a.44.44,0,0,0-.44.44h0v3a.44.44,0,0,0,.44.38h5.8V25.33a.46.46,0,0,0,.44.44H494a.46.46,0,0,0,.44-.44V4.68h5.8a.44.44,0,0,0,.44-.44h0v-3a.44.44,0,0,0-.44-.44h0Z" transform="translate(0 0)"/><path class="cls-3" d="M510.8,26.27h-3.39a1,1,0,0,1-.94-.94v-24a1,1,0,0,1,.94-.94h3.38a1,1,0,0,1,.94.94v24A1,1,0,0,1,510.8,26.27ZM507.41.86a.46.46,0,0,0-.44.44v24a.46.46,0,0,0,.44.44h3.38a.46.46,0,0,0,.44-.44V1.3a.46.46,0,0,0-.44-.44Z" transform="translate(0 0)"/></svg>