<svg xmlns="http://www.w3.org/2000/svg" xmlns:xlink="http://www.w3.org/1999/xlink" viewBox="0 0 611.94 326"><defs><style>.cls-1{fill:none;}.cls-2{clip-path:url(#clip-path);}.cls-3{fill:#eef2f4;}.cls-4{fill:#fff;}.cls-11,.cls-5{font-size:15px;fill:#4b5b6d;}.cls-5{font-family:MyriadPro-Bold, Myriad Pro;font-weight:700;}.cls-6{letter-spacing:0em;}.cls-7{letter-spacing:-0.01em;}.cls-8{letter-spacing:-0.01em;}.cls-9{letter-spacing:-0.01em;}.cls-10{letter-spacing:0em;}.cls-11{font-family:MyriadPro-Light, Myriad Pro;font-weight:300;}</style><clipPath id="clip-path" transform="translate(0)"><rect class="cls-1" width="611.94" height="326"/></clipPath></defs><g id="Layer_2" data-name="Layer 2"><g id="Layer_1-2" data-name="Layer 1"><g class="cls-2"><rect class="cls-3" width="611.94" height="326" rx="5.26"/><path class="cls-4" d="M5.26,0A5.25,5.25,0,0,0,0,5.26v49H611.94V5.26A5.26,5.26,0,0,0,606.68,0Z" transform="translate(0)"/><path class="cls-4" d="M0,303.75v17A5.25,5.25,0,0,0,5.26,326H606.68a5.25,5.25,0,0,0,5.26-5.26v-17Z" transform="translate(0)"/></g><text class="cls-5" transform="translate(12.29 25.25)">Emisiones <tspan class="cls-6" x="70.54" y="0">p</tspan><tspan x="79.54" y="0">or </tspan><tspan class="cls-7" x="96.93" y="0">r</tspan><tspan x="102.52" y="0">efrige</tspan><tspan class="cls-8" x="142.06" y="0">r</tspan><tspan x="147.6" y="0">a</tspan><tspan class="cls-9" x="155.52" y="0">nt</tspan><tspan class="cls-10" x="169.66" y="0">es</tspan></text><text class="cls-11" transform="translate(12.29 43.25)">2015 – 2020</text></g></g></svg>