<svg xmlns="http://www.w3.org/2000/svg" viewBox="0 0 705.87 412"><defs><style>.cls-1{fill:#eef2f4;}.cls-2{fill:#fff;}.cls-3{fill:#ffb71b;}.cls-4{font-size:11px;letter-spacing:-0.1em;}.cls-10,.cls-15,.cls-26,.cls-4{fill:#4d4d4f;}.cls-10,.cls-36,.cls-38,.cls-4,.cls-40,.cls-48{font-family:MyriadPro-Light, Myriad Pro;font-weight:300;}.cls-5{letter-spacing:-0.05em;}.cls-6{letter-spacing:0.01em;}.cls-7{letter-spacing:-0.06em;}.cls-8{letter-spacing:-0.07em;}.cls-9{letter-spacing:0em;}.cls-10,.cls-15,.cls-24{font-size:10px;}.cls-11{letter-spacing:-0.04em;}.cls-12{letter-spacing:0.02em;}.cls-13{letter-spacing:-0.02em;}.cls-14{letter-spacing:-0.03em;}.cls-15,.cls-24,.cls-26,.cls-44{font-family:MyriadPro-Bold, Myriad Pro;font-weight:700;}.cls-16{letter-spacing:0.04em;}.cls-17{letter-spacing:0.02em;}.cls-18{letter-spacing:-0.01em;}.cls-19{letter-spacing:-0.03em;}.cls-20{letter-spacing:-0.04em;}.cls-21{letter-spacing:-0.07em;}.cls-22{letter-spacing:-0.04em;}.cls-23{letter-spacing:-0.05em;}.cls-24,.cls-34{fill:#007dc3;}.cls-25{letter-spacing:0.02em;}.cls-26{font-size:20px;}.cls-27{letter-spacing:-0.08em;}.cls-28{letter-spacing:-0.03em;}.cls-29{letter-spacing:0.03em;}.cls-30{letter-spacing:0em;}.cls-31{letter-spacing:0.01em;}.cls-32,.cls-33,.cls-35,.cls-42,.cls-43{fill:none;}.cls-32{stroke:#6aaae4;}.cls-33{stroke:#007dc3;stroke-width:3px;}.cls-33,.cls-35,.cls-42,.cls-43{stroke-linecap:round;stroke-miterlimit:10;}.cls-35{stroke:#eef2f4;}.cls-35,.cls-43{stroke-width:2px;}.cls-36,.cls-38{font-size:12px;}.cls-36,.cls-38,.cls-40,.cls-44,.cls-48{fill:#4b5b6d;}.cls-37{letter-spacing:-0.07em;}.cls-38{letter-spacing:0.01em;}.cls-39{letter-spacing:0em;}.cls-40{font-size:7px;}.cls-41{letter-spacing:-0.02em;}.cls-42{stroke:#ffb71b;stroke-width:10px;}.cls-43{stroke:#fff;}.cls-44,.cls-48{font-size:15px;}.cls-45{letter-spacing:0em;}.cls-46{letter-spacing:-0.01em;}.cls-47{letter-spacing:0em;}.cls-49{letter-spacing:-0.03em;}.cls-50{letter-spacing:0em;}.cls-51{letter-spacing:0.01em;}.cls-52{letter-spacing:0em;}.cls-53{letter-spacing:-0.01em;}.cls-54{letter-spacing:0.01em;}.cls-55{letter-spacing:0em;}.cls-56{fill:#a6bdd1;}</style></defs><g id="Layer_2" data-name="Layer 2"><g id="Layer_1-2" data-name="Layer 1"><rect class="cls-1" width="705.87" height="412" rx="5.26"/><path class="cls-2" d="M5.26,0A5.25,5.25,0,0,0,0,5.26V68.51H705.87V5.26A5.26,5.26,0,0,0,700.61,0Z"/><path class="cls-2" d="M0,383.88v22.86A5.25,5.25,0,0,0,5.26,412H700.61a5.26,5.26,0,0,0,5.26-5.26V383.88Z"/><path class="cls-3" d="M147.34,242.47a4,4,0,0,0-4,4V341.7h10V246.47a4,4,0,0,0-4-4Z"/><path class="cls-3" d="M248.62,216a4,4,0,0,0-4,4V341.7h10V220a4,4,0,0,0-4-4Z"/><path class="cls-3" d="M349.91,201.31a4,4,0,0,0-4,4V341.7h10V205.31a4,4,0,0,0-4-4Z"/><path class="cls-3" d="M451.2,181.82a4,4,0,0,0-4,4V341.7h10V185.82a4,4,0,0,0-4-4Z"/><path class="cls-3" d="M552.49,167.13a4,4,0,0,0-4,4V341.7h10V171.13a4,4,0,0,0-4-4Z"/><text class="cls-4" transform="translate(137.17 235.47)">1<tspan class="cls-5" x="4.29" y="0">1</tspan><tspan class="cls-6" x="9.12" y="0">,</tspan><tspan class="cls-7" x="11.14" y="0">4</tspan><tspan class="cls-8" x="15.88" y="0">1</tspan><tspan class="cls-9" x="20.46" y="0">7</tspan></text><text class="cls-10" transform="translate(156.01 292.08)"><tspan class="cls-11">1</tspan><tspan class="cls-12" x="4.44" y="0">,</tspan><tspan class="cls-13" x="6.37" y="0">5</tspan><tspan class="cls-14" x="11.03" y="0">9</tspan><tspan x="15.66" y="0">1</tspan></text><text class="cls-15" transform="translate(562.81 257)"><tspan class="cls-16">2</tspan><tspan class="cls-17" x="5.94" y="0">,</tspan><tspan class="cls-18" x="8.74" y="0">0</tspan><tspan class="cls-19" x="14.16" y="0">1</tspan><tspan x="19.37" y="0">2</tspan></text><text class="cls-10" transform="translate(142.69 354.7)"><tspan class="cls-20">1</tspan><tspan x="4.49" y="0">6</tspan></text><text class="cls-10" transform="translate(242.71 354.7)"><tspan class="cls-21">1</tspan><tspan x="4.22" y="0">7</tspan></text><text class="cls-10" transform="translate(346.69 354.7)"><tspan class="cls-22">1</tspan><tspan x="4.47" y="0">8</tspan></text><text class="cls-10" transform="translate(446.85 354.7)"><tspan class="cls-23">1</tspan><tspan x="4.34" y="0">9</tspan></text><text class="cls-24" transform="translate(549.16 354.7)"><tspan class="cls-25">2</tspan><tspan x="5.75" y="0">0</tspan></text><text class="cls-26" transform="translate(522.91 153)"><tspan class="cls-27">1</tspan><tspan class="cls-28" x="9.54" y="0">1</tspan><tspan class="cls-29" x="20.06" y="0">,</tspan><tspan class="cls-30" x="25.82" y="0">8</tspan><tspan class="cls-31" x="36.96" y="0">3</tspan><tspan x="48.18" y="0">8</tspan></text><line class="cls-32" x1="101.65" y1="341.2" x2="621.07" y2="341.2"/><polyline class="cls-33" points="149.35 303.29 249.62 306.24 350.91 289.96 451.79 292.08 554.28 268.42"/><path class="cls-34" d="M148.85,308.94a5.66,5.66,0,1,0-5.66-5.66,5.67,5.67,0,0,0,5.66,5.66"/><circle class="cls-35" cx="148.85" cy="303.28" r="5.66" transform="translate(-0.58 0.28) rotate(-0.11)"/><path class="cls-34" d="M249.46,311.9a5.66,5.66,0,1,0-5.66-5.66,5.67,5.67,0,0,0,5.66,5.66"/><circle class="cls-35" cx="249.46" cy="306.24" r="5.66" transform="translate(-1.17 0.96) rotate(-0.22)"/><path class="cls-34" d="M350.91,295.62a5.66,5.66,0,1,0-5.66-5.66,5.67,5.67,0,0,0,5.66,5.66"/><circle class="cls-35" cx="350.91" cy="289.96" r="5.66" transform="translate(-1.11 1.34) rotate(-0.22)"/><path class="cls-34" d="M451.79,296.62a5.66,5.66,0,1,0-5.66-5.66,5.67,5.67,0,0,0,5.66,5.66"/><circle class="cls-35" cx="451.79" cy="290.96" r="5.66" transform="translate(-1.11 1.73) rotate(-0.22)"/><path class="cls-34" d="M553.28,274.08a5.66,5.66,0,1,0-5.66-5.66,5.67,5.67,0,0,0,5.66,5.66"/><circle class="cls-35" cx="553.28" cy="268.42" r="5.66" transform="translate(-2.06 4.28) rotate(-0.44)"/><text class="cls-36" transform="translate(419.25 37.43)"><tspan class="cls-37">T</tspan><tspan x="4.8" y="0">otal de construcción</tspan></text><text class="cls-38" transform="translate(419.25 51.83)">M<tspan class="cls-39" x="9.52" y="0">iles de m</tspan></text><text class="cls-40" transform="translate(471.56 47.84)">2</text><text class="cls-36" transform="translate(570.28 37.27)"><tspan class="cls-37">T</tspan><tspan x="4.8" y="0">oneladas </tspan><tspan class="cls-41" x="50.51" y="0">C</tspan><tspan x="57.16" y="0">O</tspan></text><text class="cls-40" transform="translate(635.48 41.26)">2</text><text class="cls-36" transform="translate(638.89 37.27)">eq</text><line class="cls-42" x1="394.65" y1="35.43" x2="404.68" y2="35.43"/><line class="cls-33" x1="539.82" y1="34.93" x2="563.67" y2="34.93"/><path class="cls-34" d="M551.64,40.59A5.66,5.66,0,1,0,546,34.93a5.67,5.67,0,0,0,5.66,5.66"/><circle class="cls-43" cx="551.64" cy="34.93" r="5.66" transform="translate(-0.25 4.28) rotate(-0.44)"/><text class="cls-44" transform="translate(74.4 29.85)"><tspan class="cls-45">I</tspan><tspan class="cls-46" x="4.32" y="0">n</tspan><tspan class="cls-47" x="13.03" y="0">t</tspan><tspan x="18.48" y="0">ensidad de emisiones 2015 - 2020 </tspan></text><text class="cls-48" transform="translate(74.4 47.85)"><tspan class="cls-49">W</tspan><tspan class="cls-50" x="11.9" y="0">almex </tspan><tspan class="cls-51" x="51.16" y="0">M</tspan><tspan x="62.94" y="0">éxico / </tspan><tspan class="cls-52" x="106.29" y="0">C</tspan><tspan x="114.76" y="0">ent</tspan><tspan class="cls-53" x="134.71" y="0">r</tspan><tspan x="138.97" y="0">oamé</tspan><tspan class="cls-54" x="173.32" y="0">r</tspan><tspan class="cls-55" x="177.84" y="0">ica</tspan></text><path class="cls-1" d="M40.81,52.2a19.6,19.6,0,1,0-19.6-19.6,19.59,19.59,0,0,0,19.6,19.6"/><path class="cls-56" d="M31.25,47.9a.46.46,0,0,1-.23,0,.5.5,0,0,1-.27-.45v-24A.48.48,0,0,1,31,23l8.9-6.27a.51.51,0,0,1,.79.41V29h-1V18.07l-7.89,5.56V46.44l7.89-5.56V34.16h1v7a.5.5,0,0,1-.22.41l-8.89,6.26a.52.52,0,0,1-.29.09"/><rect class="cls-56" x="32.88" y="23.91" width="1" height="7.64"/><rect class="cls-56" x="32.88" y="33.81" width="1" height="7.63"/><rect class="cls-56" x="35.19" y="36.9" width="1" height="5.27"/><rect class="cls-56" x="35.19" y="28.34" width="1" height="7.27"/><rect class="cls-56" x="35.19" y="22.7" width="1" height="3.94"/><rect class="cls-56" x="37.35" y="21.03" width="1" height="7.31"/><rect class="cls-56" x="37.35" y="34.41" width="1" height="5.67"/><polygon class="cls-56" points="46.87 27.89 46.87 25.95 43.42 25.95 43.42 24.94 47.87 24.94 47.87 25.96 50.13 24.39 47.87 22.81 47.87 23.84 43.42 23.84 43.42 22.83 46.87 22.83 46.87 20.89 51.88 24.39 46.87 27.89"/><polygon class="cls-56" points="47.18 44.82 47.18 42.88 43.73 42.88 43.73 41.88 48.19 41.88 48.19 42.9 50.44 41.32 48.19 39.75 48.19 40.77 43.73 40.77 43.73 39.77 47.18 39.77 47.18 37.82 52.2 41.32 47.18 44.82"/><polygon class="cls-56" points="42.52 35.94 42.52 33.54 37.85 33.54 37.85 32.54 43.52 32.54 43.52 34.01 46.9 31.66 43.52 29.3 43.52 30.78 37.85 30.78 37.85 29.77 42.52 29.77 42.52 27.38 48.65 31.66 42.52 35.94"/></g></g></svg>