<svg xmlns="http://www.w3.org/2000/svg" xmlns:xlink="http://www.w3.org/1999/xlink" viewBox="0 0 635.2 452.24"><defs><style>.cls-1,.cls-46,.cls-47,.cls-48,.cls-49{fill:none;}.cls-2{clip-path:url(#clip-path);}.cls-3{fill:#eef2f4;}.cls-4{fill:#fff;}.cls-14,.cls-25,.cls-28,.cls-41,.cls-5{font-size:28px;}.cls-5,.cls-6{fill:#1680c0;}.cls-14,.cls-25,.cls-28,.cls-41,.cls-5,.cls-50{font-family:MyriadPro-Bold, Myriad Pro;font-weight:700;}.cls-15,.cls-26,.cls-29,.cls-42,.cls-6{font-size:14.5px;font-family:MyriadPro-Light, Myriad Pro;font-weight:300;}.cls-7{letter-spacing:-0.02em;}.cls-8{letter-spacing:-0.02em;}.cls-9{letter-spacing:-0.01em;}.cls-10{letter-spacing:-0.02em;}.cls-11{letter-spacing:-0.02em;}.cls-12{letter-spacing:-0.01em;}.cls-13{letter-spacing:-0.01em;}.cls-14,.cls-15{fill:#f57f3d;}.cls-16{letter-spacing:-0.01em;}.cls-17{letter-spacing:-0.02em;}.cls-18{letter-spacing:-0.01em;}.cls-19{letter-spacing:-0.01em;}.cls-20{letter-spacing:0em;}.cls-21{letter-spacing:-0.01em;}.cls-22{letter-spacing:-0.01em;}.cls-23{letter-spacing:-0.02em;}.cls-24{letter-spacing:-0.01em;}.cls-25,.cls-26{fill:#62a9da;}.cls-27{letter-spacing:-0.01em;}.cls-28,.cls-29{fill:#78c25b;}.cls-30{letter-spacing:-0.03em;}.cls-31{letter-spacing:0em;}.cls-32{letter-spacing:-0.01em;}.cls-33{letter-spacing:0em;}.cls-34{letter-spacing:-0.02em;}.cls-35{letter-spacing:-0.01em;}.cls-36{letter-spacing:-0.02em;}.cls-37{letter-spacing:-0.03em;}.cls-38{letter-spacing:0em;}.cls-39{letter-spacing:0em;}.cls-40{letter-spacing:0em;}.cls-41,.cls-42,.cls-50{fill:#4b5b6d;}.cls-43{letter-spacing:-0.01em;}.cls-44{letter-spacing:-0.01em;}.cls-45{letter-spacing:-0.01em;}.cls-46{stroke:#78c25b;}.cls-46,.cls-47,.cls-48,.cls-49{stroke-linecap:round;stroke-width:16.98px;}.cls-46,.cls-47,.cls-48{stroke-linejoin:round;}.cls-47{stroke:#62a9da;}.cls-48{stroke:#f57f3d;}.cls-49{stroke:#1680c0;stroke-miterlimit:1;}.cls-50{font-size:14px;}.cls-51{letter-spacing:-0.01em;}.cls-52{fill:#a6bdd1;}</style><clipPath id="clip-path" transform="translate(0 0)"><rect class="cls-1" width="635.2" height="452.24"/></clipPath></defs><g id="Layer_2" data-name="Layer 2"><g id="Layer_1-2" data-name="Layer 1"><g class="cls-2"><rect class="cls-3" width="635.2" height="452.24" rx="5.67"/><path class="cls-4" d="M5.67,0A5.67,5.67,0,0,0,0,5.67V48.72H635.2v-43A5.67,5.67,0,0,0,629.53,0Z" transform="translate(0 0)"/><path class="cls-4" d="M0,433v13.57a5.67,5.67,0,0,0,5.67,5.67H629.53a5.67,5.67,0,0,0,5.67-5.67V433Z" transform="translate(0 0)"/></g><text class="cls-5" transform="translate(305.75 148.8)">%</text><text class="cls-6" transform="translate(292.54 166.2)"><tspan class="cls-7">r</tspan><tspan x="3.97" y="0">e</tspan><tspan class="cls-8" x="11.01" y="0">c</tspan><tspan class="cls-9" x="17.24" y="0">i</tspan><tspan class="cls-10" x="20.1" y="0">c</tspan><tspan class="cls-11" x="26.32" y="0">l</tspan><tspan class="cls-12" x="29.16" y="0">a</tspan><tspan class="cls-13" x="35.64" y="0">d</tspan><tspan x="43.41" y="0">o </tspan></text><text class="cls-14" transform="translate(305.75 199.8)">%</text><text class="cls-15" transform="translate(273.32 217.2)"><tspan class="cls-7">r</tspan><tspan class="cls-16" x="3.97" y="0">e</tspan><tspan class="cls-17" x="10.82" y="0">l</tspan><tspan class="cls-18" x="13.62" y="0">l</tspan><tspan class="cls-19" x="16.56" y="0">e</tspan><tspan class="cls-13" x="23.39" y="0">n</tspan><tspan x="31.04" y="0">o </tspan><tspan class="cls-20" x="41.93" y="0">s</tspan><tspan class="cls-21" x="47.31" y="0">a</tspan><tspan class="cls-11" x="53.68" y="0">n</tspan><tspan class="cls-22" x="61.22" y="0">i</tspan><tspan class="cls-12" x="64.1" y="0">t</tspan><tspan class="cls-23" x="68.48" y="0">a</tspan><tspan class="cls-24" x="74.85" y="0">r</tspan><tspan class="cls-9" x="79.01" y="0">i</tspan><tspan x="81.87" y="0">o </tspan></text><text class="cls-25" transform="translate(305.75 250.8)">%</text><text class="cls-26" transform="translate(295.64 268.2)"><tspan class="cls-27">d</tspan><tspan class="cls-18" x="7.77" y="0">o</tspan><tspan class="cls-21" x="15.36" y="0">n</tspan><tspan class="cls-12" x="22.91" y="0">a</tspan><tspan class="cls-13" x="29.39" y="0">d</tspan><tspan x="37.16" y="0">o</tspan></text><text class="cls-28" transform="translate(305.75 301.8)">%</text><text class="cls-29" transform="translate(220.74 319.2)"><tspan class="cls-30">c</tspan><tspan class="cls-18" x="6.06" y="0">o</tspan><tspan class="cls-19" x="13.64" y="0">m</tspan><tspan class="cls-31" x="25.32" y="0">p</tspan><tspan class="cls-32" x="33.33" y="0">o</tspan><tspan x="40.85" y="0">s</tspan><tspan class="cls-12" x="46.25" y="0">t</tspan><tspan class="cls-33" x="50.63" y="0">a y </tspan><tspan class="cls-19" x="69.95" y="0">a</tspan><tspan class="cls-34" x="76.33" y="0">l</tspan><tspan class="cls-8" x="79.14" y="0">i</tspan><tspan class="cls-35" x="81.94" y="0">m</tspan><tspan class="cls-19" x="93.74" y="0">e</tspan><tspan class="cls-36" x="100.57" y="0">n</tspan><tspan class="cls-37" x="107.99" y="0">t</tspan><tspan class="cls-38" x="112.07" y="0">o </tspan><tspan class="cls-39" x="122.96" y="0">p</tspan><tspan class="cls-23" x="130.9" y="0">a</tspan><tspan class="cls-39" x="137.27" y="0">r</tspan><tspan class="cls-40" x="141.49" y="0">a </tspan><tspan class="cls-19" x="151.25" y="0">g</tspan><tspan class="cls-21" x="158.93" y="0">an</tspan><tspan class="cls-12" x="172.85" y="0">a</tspan><tspan class="cls-24" x="179.33" y="0">d</tspan><tspan x="187.1" y="0">o</tspan></text><text class="cls-41" transform="translate(305.75 352.8)">%</text><text class="cls-42" transform="translate(282.33 370.2)"><tspan class="cls-18">b</tspan><tspan class="cls-9" x="7.87" y="0">i</tspan><tspan x="10.73" y="0">o</tspan><tspan class="cls-43" x="18.44" y="0">d</tspan><tspan class="cls-44" x="26.11" y="0">i</tspan><tspan class="cls-13" x="28.99" y="0">g</tspan><tspan class="cls-44" x="36.76" y="0">e</tspan><tspan x="43.63" y="0">s</tspan><tspan class="cls-16" x="49.04" y="0">t</tspan><tspan class="cls-9" x="53.33" y="0">i</tspan><tspan class="cls-45" x="56.19" y="0">รณ</tspan><tspan class="cls-38" x="63.77" y="0">n</tspan></text><g class="cls-2"><path class="cls-46" d="M304.68,91l4.75,0h.74" transform="translate(0 0)"/><path class="cls-47" d="M243.93,109A149.09,149.09,0,0,1,287.74,93.6" transform="translate(0 0)"/><path class="cls-48" d="M206.07,360.66c-61.5-61.73-61.5-161.81,0-223.54a150.93,150.93,0,0,1,22.84-19.06" transform="translate(0 0)"/><path class="cls-49" d="M327,91a158.13,158.13,0,0,1-8.92,316c-39.53,0-70.84-10-99.74-34.78" transform="translate(0 0)"/></g><text class="cls-50" transform="translate(71.31 29.55)">Residuos gene<tspan class="cls-51" x="90.27" y="0">r</tspan><tspan x="95.44" y="0">ados</tspan></text><g class="cls-2"><path class="cls-3" d="M41.34,43.64A19.28,19.28,0,1,0,22.07,24.36,19.28,19.28,0,0,0,41.34,43.64" transform="translate(0 0)"/><path class="cls-52" d="M47.08,19.55H34.6L35.8,30.8a3.34,3.34,0,0,0,.87,2,2.27,2.27,0,0,0,1.7.73h5a2.42,2.42,0,0,0,1.7-.73,3.4,3.4,0,0,0,.87-2Zm-4.35-3.84a1.46,1.46,0,0,0-.25-.55.7.7,0,0,0-.53-.33H39.67a.68.68,0,0,0-.52.33l0,0a1.54,1.54,0,0,0-.22.52Zm5.5,3.74L47,30.9a4.58,4.58,0,0,1-1.2,2.68,3.43,3.43,0,0,1-2.5,1.09h-5a3.4,3.4,0,0,1-2.5-1.09,4.48,4.48,0,0,1-1.2-2.68L33.44,19.45h-.72a.58.58,0,0,1-.58-.6V18.1a2.4,2.4,0,0,1,.65-1.65l0,0a2.26,2.26,0,0,1,1.65-.7h3.3a3.17,3.17,0,0,1,.45-1.21l0,0a1.79,1.79,0,0,1,1.45-.8H42a1.85,1.85,0,0,1,1.45.8,2.87,2.87,0,0,1,.5,1.24h3.3a2.25,2.25,0,0,1,1.65.69,2.4,2.4,0,0,1,.68,1.7v.75a.58.58,0,0,1-.58.6Zm-5.55,7a.59.59,0,0,1,.2-.8.55.55,0,0,1,.77.24L44.8,28a.58.58,0,0,1-.22.8.53.53,0,0,1-.28.07H41.93a.58.58,0,0,1-.58-.59.57.57,0,0,1,.58-.59H43.3Zm-2.45-2.22a.54.54,0,0,1-.78.21.6.6,0,0,1-.23-.8l1.11-2a.53.53,0,0,1,.77-.2.51.51,0,0,1,.23.23l1.12,2a.58.58,0,0,1-.22.8.55.55,0,0,1-.78-.23l-.65-1.14Zm-.56,3.41a.6.6,0,0,1,0,1.19H37.3a.6.6,0,0,1-.58-.6.54.54,0,0,1,.1-.33l1.13-2a.56.56,0,0,1,.77-.24.61.61,0,0,1,.23.8l-.65,1.16h1.37Zm-6.4-9.39H48.41V18.1a1.18,1.18,0,0,0-.35-.85,1.13,1.13,0,0,0-.83-.36H34.45a1.09,1.09,0,0,0-.83.36l0,0a1.28,1.28,0,0,0-.32.85Z" transform="translate(0 0)"/></g></g></g></svg>