<svg xmlns="http://www.w3.org/2000/svg" xmlns:xlink="http://www.w3.org/1999/xlink" viewBox="0 0 611.94 326"><defs><style>.cls-1,.cls-44{fill:none;}.cls-2{clip-path:url(#clip-path);}.cls-3{fill:#eef2f4;}.cls-4{fill:#fff;}.cls-36,.cls-5{font-size:15px;}.cls-33,.cls-36,.cls-5{fill:#4b5b6d;}.cls-19,.cls-22,.cls-37,.cls-5{font-family:MyriadPro-Bold, Myriad Pro;font-weight:700;}.cls-6{letter-spacing:-0.02em;}.cls-7{letter-spacing:0em;}.cls-8{letter-spacing:-0.01em;}.cls-29,.cls-9{font-size:10px;}.cls-19,.cls-22,.cls-29,.cls-39,.cls-69,.cls-9{fill:#4d4d4f;}.cls-29,.cls-36,.cls-39,.cls-9{font-family:MyriadPro-Light, Myriad Pro;font-weight:300;}.cls-10{letter-spacing:-0.04em;}.cls-11{letter-spacing:0.02em;}.cls-12{letter-spacing:0.03em;}.cls-13{letter-spacing:0.01em;}.cls-14,.cls-29{letter-spacing:0.01em;}.cls-15{letter-spacing:0.02em;}.cls-16{letter-spacing:-0.04em;}.cls-17{letter-spacing:0.01em;}.cls-18{letter-spacing:0.03em;}.cls-19,.cls-22,.cls-37,.cls-39{font-size:12px;}.cls-20{letter-spacing:0.04em;}.cls-21{letter-spacing:0.02em;}.cls-22,.cls-58{letter-spacing:0.01em;}.cls-23{letter-spacing:0.03em;}.cls-24{letter-spacing:0em;}.cls-25{letter-spacing:0em;}.cls-26{letter-spacing:0.03em;}.cls-27{letter-spacing:0.01em;}.cls-28{letter-spacing:0.02em;}.cls-30{letter-spacing:0.01em;}.cls-31{letter-spacing:0em;}.cls-32{letter-spacing:0em;}.cls-34,.cls-37{fill:#007dc3;}.cls-35{fill:#76bc21;}.cls-38{letter-spacing:0.01em;}.cls-40{letter-spacing:-0.06em;}.cls-41{letter-spacing:-0.05em;}.cls-42{letter-spacing:-0.08em;}.cls-43{letter-spacing:-0.05em;}.cls-44{stroke:#6aaae4;}.cls-45{letter-spacing:-0.02em;}.cls-46{letter-spacing:0em;}.cls-47{letter-spacing:0em;}.cls-48{letter-spacing:0em;}.cls-49{letter-spacing:-0.01em;}.cls-50{letter-spacing:0.01em;}.cls-51{letter-spacing:0em;}.cls-52{letter-spacing:0em;}.cls-53{letter-spacing:0em;}.cls-54{letter-spacing:0em;}.cls-55{letter-spacing:-0.06em;}.cls-56{letter-spacing:-0.01em;}.cls-57{letter-spacing:0em;}.cls-59{letter-spacing:0em;}.cls-60{letter-spacing:0em;}.cls-61{letter-spacing:-0.01em;}.cls-62{letter-spacing:-0.01em;}.cls-63{letter-spacing:-0.01em;}.cls-64{letter-spacing:-0.01em;}.cls-65{letter-spacing:0em;}.cls-66{letter-spacing:0em;}.cls-67{letter-spacing:0em;}.cls-68{letter-spacing:0.01em;}</style><clipPath id="clip-path" transform="translate(0)"><rect class="cls-1" width="611.94" height="326"/></clipPath></defs><g id="Layer_2" data-name="Layer 2"><g id="Layer_1-2" data-name="Layer 1"><g class="cls-2"><rect class="cls-3" width="611.94" height="326" rx="5.26"/><path class="cls-4" d="M5.26,0A5.25,5.25,0,0,0,0,5.26v49H611.94V5.26A5.26,5.26,0,0,0,606.68,0Z" transform="translate(0)"/><path class="cls-4" d="M0,303.75v17A5.25,5.25,0,0,0,5.26,326H606.68a5.25,5.25,0,0,0,5.26-5.26v-17Z" transform="translate(0)"/></g><text class="cls-5" transform="translate(12.29 25.25)"><tspan class="cls-6">C</tspan><tspan x="8.65" y="0">onsumo </tspan><tspan class="cls-7" x="65.94" y="0">t</tspan><tspan x="71.37" y="0">otal de ene</tspan><tspan class="cls-8" x="145.12" y="0">r</tspan><tspan x="150.72" y="0">gía</tspan></text><text class="cls-9" transform="translate(61.12 204.52)"><tspan class="cls-10">1</tspan><tspan class="cls-7" x="4.52" y="0">.</tspan><tspan x="6.21" y="0">9</tspan></text><text class="cls-9" transform="translate(85.38 136.74)"><tspan class="cls-11">6</tspan><tspan class="cls-12" x="5.1" y="0">.</tspan><tspan x="7.15" y="0">8</tspan></text><text class="cls-9" transform="translate(109.12 159.67)"><tspan class="cls-10">1</tspan><tspan class="cls-13" x="4.52" y="0">.</tspan><tspan x="6.31" y="0">7</tspan></text><text class="cls-9" transform="translate(166.51 196.07)"><tspan class="cls-14">2</tspan><tspan class="cls-15" x="4.98" y="0">.</tspan><tspan x="6.91" y="0">0</tspan></text><text class="cls-9" transform="translate(271.72 186.03)"><tspan class="cls-14">2</tspan><tspan class="cls-16" x="4.98" y="0">.</tspan><tspan x="6.27" y="0">1</tspan></text><text class="cls-9" transform="translate(376.79 182.96)"><tspan class="cls-17">2</tspan><tspan class="cls-18" x="4.98" y="0">.</tspan><tspan x="6.97" y="0">3</tspan></text><text class="cls-19" transform="translate(480.06 187.52)"><tspan class="cls-12">2</tspan><tspan class="cls-20" x="7.03" y="0">.</tspan><tspan x="10.6" y="0">3</tspan></text><text class="cls-9" transform="translate(401.41 135.74)"><tspan class="cls-17">4</tspan><tspan class="cls-21" x="4.98" y="0">.</tspan><tspan x="6.94" y="0">6</tspan></text><text class="cls-22" transform="translate(504.86 144.24)">3<tspan class="cls-23" x="6.77" y="0">.</tspan><tspan class="cls-24" x="10.2" y="0">4</tspan></text><text class="cls-9" transform="translate(425.58 131.08)"><tspan class="cls-25">5</tspan><tspan class="cls-26" x="4.9" y="0">.</tspan><tspan x="6.97" y="0">2</tspan></text><text class="cls-19" transform="translate(527.13 111.13)"><tspan class="cls-27">5</tspan><tspan class="cls-28" x="6.74" y="0">.</tspan><tspan x="10.06" y="0">9</tspan></text><text class="cls-29" transform="translate(294.72 159.74)">4<tspan class="cls-30" x="4.98" y="0">.</tspan><tspan class="cls-31" x="6.8" y="0">4</tspan></text><text class="cls-9" transform="translate(318.16 147.74)"><tspan class="cls-17">4</tspan><tspan class="cls-21" x="4.98" y="0">.</tspan><tspan x="6.94" y="0">6</tspan></text><text class="cls-9" transform="translate(189.29 135.74)"><tspan class="cls-32">5</tspan><tspan class="cls-30" x="4.9" y="0">.</tspan><tspan x="6.72" y="0">4</tspan></text><text class="cls-9" transform="translate(214.21 129.5)"><tspan class="cls-14">3</tspan><tspan class="cls-18" x="4.98" y="0">.</tspan><tspan x="6.97" y="0">3</tspan></text><g class="cls-2"><path class="cls-33" d="M66.33,210a4,4,0,0,0-4,4v50.89h9V214a4,4,0,0,0-4-4Z" transform="translate(0)"/><path class="cls-34" d="M90.14,144.41a4,4,0,0,0-4,4v116.5h9V148.41a4,4,0,0,0-4-4Z" transform="translate(0)"/><path class="cls-35" d="M113.94,165.62a4,4,0,0,0-4,4v95.29h9V169.62a4,4,0,0,0-4-4Z" transform="translate(0)"/><path class="cls-33" d="M171.52,201.82a4,4,0,0,0-4,4v59.09h9V205.82a4,4,0,0,0-4-4Z" transform="translate(0)"/><path class="cls-34" d="M195.33,141.13a4,4,0,0,0-4,4V264.91h9V145.13a4,4,0,0,0-4-4Z" transform="translate(0)"/><path class="cls-35" d="M219.13,136.21a4,4,0,0,0-4,4v124.7h9V140.21a4,4,0,0,0-4-4Z" transform="translate(0)"/><path class="cls-33" d="M276.71,190.52a4,4,0,0,0-4,4v70.39h9V194.52a4,4,0,0,0-4-4Z" transform="translate(0)"/><path class="cls-34" d="M300.51,165.62a4,4,0,0,0-4,4v95.29h9V169.62a4,4,0,0,0-4-4Z" transform="translate(0)"/><path class="cls-35" d="M324.32,152.7a4,4,0,0,0-4,4V264.91h9V156.7a4,4,0,0,0-4-4Z" transform="translate(0)"/><path class="cls-33" d="M382.9,190.52a4,4,0,0,0-4,4v70.39h9V194.52a4,4,0,0,0-4-4Z" transform="translate(0)"/><path class="cls-34" d="M406.7,141.13a4,4,0,0,0-4,4V264.91h9V145.13a4,4,0,0,0-4-4Z" transform="translate(0)"/><path class="cls-35" d="M430.51,136.21a4,4,0,0,0-4,4v124.7h9V140.21a4,4,0,0,0-4-4Z" transform="translate(0)"/><path class="cls-33" d="M488.09,193.62a4,4,0,0,0-4,4v67.29h9V197.62a4,4,0,0,0-4-4Z" transform="translate(0)"/><path class="cls-34" d="M511.89,149.33a4,4,0,0,0-4,4V264.91h9V153.33a4,4,0,0,0-4-4Z" transform="translate(0)"/><path class="cls-35" d="M535.7,116.12a4,4,0,0,0-4,4V264.91h9V120.12a4,4,0,0,0-4-4Z" transform="translate(0)"/></g><text class="cls-36" transform="translate(13.08 42.56)">millones de GJ</text><text class="cls-37" transform="translate(506.94 280.92)"><tspan class="cls-38">2</tspan><tspan x="6.79" y="0">0</tspan></text><text class="cls-39" transform="translate(401.94 280.92)"><tspan class="cls-40">1</tspan><tspan x="5.09" y="0">9</tspan></text><text class="cls-39" transform="translate(297.85 280.92)"><tspan class="cls-41">1</tspan><tspan x="5.24" y="0">8</tspan></text><text class="cls-39" transform="translate(193.94 280.92)"><tspan class="cls-42">1</tspan><tspan x="4.94" y="0">7</tspan></text><text class="cls-39" transform="translate(87.95 280.92)"><tspan class="cls-43">1</tspan><tspan x="5.27" y="0">6</tspan></text><line class="cls-44" x1="26.93" y1="264.95" x2="566.94" y2="264.95"/><text class="cls-39" transform="translate(284.61 30.85)"><tspan class="cls-45">C</tspan><tspan class="cls-46" x="6.65" y="0">o</tspan><tspan class="cls-47" x="13.06" y="0">m</tspan><tspan class="cls-48" x="22.85" y="0">b</tspan><tspan class="cls-49" x="29.5" y="0">u</tspan><tspan class="cls-50" x="35.76" y="0">s</tspan><tspan class="cls-51" x="40.37" y="0">t</tspan><tspan class="cls-52" x="44.05" y="0">i</tspan><tspan class="cls-53" x="46.5" y="0">b</tspan><tspan class="cls-54" x="53.16" y="0">l</tspan><tspan x="55.72" y="0">e</tspan></text><text class="cls-39" transform="translate(406.98 23.74)"><tspan class="cls-55">T</tspan><tspan class="cls-56" x="4.82" y="0">o</tspan><tspan class="cls-53" x="11.11" y="0">t</tspan><tspan class="cls-57" x="14.86" y="0">a</tspan><tspan class="cls-14" x="20.26" y="0">l</tspan><tspan class="cls-58" x="22.92" y="0"> </tspan><tspan class="cls-59" x="25.66" y="0">e</tspan><tspan class="cls-60" x="31.44" y="0">n</tspan><tspan class="cls-59" x="37.91" y="0">e</tspan><tspan class="cls-61" x="43.69" y="0">r</tspan><tspan class="cls-62" x="47.09" y="0">g</tspan><tspan class="cls-63" x="53.55" y="0">í</tspan><tspan x="55.96" y="0">a</tspan></text><text class="cls-39" transform="translate(406.98 37.74)"><tspan class="cls-54">n</tspan><tspan class="cls-14" x="6.44" y="0">o</tspan><tspan class="cls-58" x="12.95" y="0"> </tspan><tspan class="cls-64" x="15.68" y="0">r</tspan><tspan class="cls-59" x="19.09" y="0">e</tspan><tspan class="cls-65" x="24.88" y="0">n</tspan><tspan class="cls-8" x="31.33" y="0">o</tspan><tspan class="cls-66" x="37.63" y="0">v</tspan><tspan class="cls-51" x="43.12" y="0">a</tspan><tspan class="cls-60" x="48.54" y="0">b</tspan><tspan class="cls-67" x="55.2" y="0">l</tspan><tspan x="57.75" y="0">e </tspan></text><text class="cls-39" transform="translate(530 24.39)"><tspan class="cls-55">T</tspan><tspan class="cls-56" x="4.82" y="0">o</tspan><tspan class="cls-53" x="11.11" y="0">t</tspan><tspan class="cls-57" x="14.86" y="0">a</tspan><tspan class="cls-14" x="20.26" y="0">l</tspan><tspan class="cls-58" x="22.92" y="0"> </tspan><tspan class="cls-47" x="25.66" y="0">e</tspan><tspan class="cls-60" x="31.44" y="0">n</tspan><tspan class="cls-59" x="37.91" y="0">e</tspan><tspan class="cls-64" x="43.69" y="0">r</tspan><tspan class="cls-62" x="47.1" y="0">g</tspan><tspan class="cls-49" x="53.57" y="0">í</tspan><tspan x="55.97" y="0">a</tspan></text><text class="cls-39" transform="translate(530 38.39)"><tspan class="cls-64">r</tspan><tspan class="cls-59" x="3.41" y="0">e</tspan><tspan class="cls-65" x="9.19" y="0">n</tspan><tspan class="cls-8" x="15.65" y="0">o</tspan><tspan class="cls-68" x="21.95" y="0">v</tspan><tspan class="cls-51" x="27.43" y="0">a</tspan><tspan class="cls-60" x="32.86" y="0">b</tspan><tspan class="cls-67" x="39.52" y="0">l</tspan><tspan x="42.07" y="0">e </tspan></text><g class="cls-2"><path class="cls-35" d="M503.73,47a19.6,19.6,0,1,0-19.6-19.6A19.6,19.6,0,0,0,503.73,47" transform="translate(0)"/><path class="cls-4" d="M504,17.58a.32.32,0,0,0,.32-.32V14.32a.32.32,0,1,0-.64,0v2.94a.32.32,0,0,0,.32.32" transform="translate(0)"/><path class="cls-4" d="M501.49,15.82a.32.32,0,0,0-.23.39l.38,1.4a.33.33,0,0,0,.31.24H502a.32.32,0,0,0,.23-.4l-.37-1.39a.32.32,0,0,0-.4-.23" transform="translate(0)"/><path class="cls-4" d="M506.11,16.05l-.37,1.39a.33.33,0,0,0,.23.4h.08a.32.32,0,0,0,.31-.24l.38-1.4a.33.33,0,0,0-.63-.16" transform="translate(0)"/><path class="cls-4" d="M498.4,19.9a.32.32,0,0,0,.23-.1.33.33,0,0,0,0-.45l-2.08-2.08a.33.33,0,0,0-.45,0,.32.32,0,0,0,0,.46l2.07,2.07a.3.3,0,0,0,.23.1" transform="translate(0)"/><path class="cls-4" d="M497.14,21.54a.33.33,0,0,0,.28-.16.32.32,0,0,0-.12-.44l-1.25-.73a.34.34,0,0,0-.44.12.31.31,0,0,0,.12.44l1.25.73a.32.32,0,0,0,.16,0" transform="translate(0)"/><path class="cls-4" d="M499.16,16.79a.32.32,0,0,0-.12.44l.72,1.25a.33.33,0,0,0,.28.16.32.32,0,0,0,.28-.48l-.72-1.26a.32.32,0,0,0-.44-.11" transform="translate(0)"/><path class="cls-4" d="M511.65,23.45h.09l1.39-.37a.33.33,0,0,0,.23-.4.32.32,0,0,0-.39-.23l-1.4.38a.32.32,0,0,0,.08.63" transform="translate(0)"/><path class="cls-4" d="M495,22.44a.34.34,0,0,0-.4.23.33.33,0,0,0,.23.4l1.4.37h.08a.32.32,0,0,0,.31-.24.31.31,0,0,0-.23-.39Z" transform="translate(0)"/><path class="cls-4" d="M511.9,17.27a.33.33,0,0,0-.45,0l-2.08,2.08a.34.34,0,0,0,0,.46.35.35,0,0,0,.23.09.32.32,0,0,0,.23-.09l2.07-2.08a.32.32,0,0,0,0-.46" transform="translate(0)"/><path class="cls-4" d="M508.4,16.9l-.72,1.26a.33.33,0,0,0,.12.44.32.32,0,0,0,.16,0,.33.33,0,0,0,.28-.16l.72-1.25a.32.32,0,0,0-.11-.44.33.33,0,0,0-.45.11" transform="translate(0)"/><path class="cls-4" d="M510.86,21.54a.29.29,0,0,0,.16,0l1.25-.73a.31.31,0,0,0,.12-.44.33.33,0,0,0-.44-.12l-1.25.73a.32.32,0,0,0-.12.44.33.33,0,0,0,.28.16" transform="translate(0)"/><path class="cls-4" d="M490.29,33.74l1.49-4.36h4.69l.8.71-.62,3.65Zm2.84-8.28h4.94l-.15.86L497.63,28l-1.14.74H492Zm5,3.34.28.23,0,0-.32.21-.16.11-.21.14-.05,0-.2-.18-.05,0-.28-.24.06,0,.3-.19.2-.13.17-.11,0,0,.17.14Zm.19-1.12.23-1.36.15-.86h5V28l-1,.71h-3.63l-.32-.27-.49-.4Zm5.66-8a5.56,5.56,0,0,1,5.53,5.18H498.47A5.56,5.56,0,0,1,504,19.63m5.73,8.44-.49.4-.32.27h-3.63l-1-.71V25.46h5l.15.86.23,1.36Zm.2.67.17-.14,0,0,.17.11.2.13.3.19.06,0-.28.24-.05,0-.2.18-.05,0-.21-.14-.16-.11-.32-.21,0,0,.28-.23Zm.25-3.28h4.69L516,28.74h-4.49L510.37,28l-.29-1.68-.14-.86Zm7.53,8.28h-6.36l-.62-3.65.8-.71h4.69Zm-13,0h-.42V30.12l1-.74h3.64l1.14.77.62,3.59Zm-.33,3h-.86V34.38h.86Zm-1.06-7.67h0l.32-.23.13-.09.19-.15.19.15.13.09.32.23h0l-.33.25-.09.07-.23.18-.23-.18-.09-.07Zm-6.05,4.68.62-3.59,1.14-.77h3.64l1,.74v3.62H497.3Zm5.61.64v2.35h-2.66a.32.32,0,0,0-.32.32.32.32,0,0,0,.32.33h7.43a.32.32,0,0,0,.32-.33.32.32,0,0,0-.32-.32h-2.62V34.38h13.1a.31.31,0,0,0,.31-.42L515.41,25a.33.33,0,0,0-.31-.22h-4.92a6.19,6.19,0,0,0-12.36,0H492.9a.33.33,0,0,0-.31.22L489.53,34a.31.31,0,0,0,.31.42h13.07Z" transform="translate(0)"/><path class="cls-34" d="M380.71,47a19.6,19.6,0,1,0-19.6-19.6A19.6,19.6,0,0,0,380.71,47" transform="translate(0)"/></g><rect class="cls-4" x="373.88" y="14.45" width="1.08" height="5.4"/><rect class="cls-4" x="379.28" y="14.45" width="1.08" height="5.4"/><g class="cls-2"><path class="cls-4" d="M372.8,22.47a3.83,3.83,0,0,0,1.25.63l.37.12v3.11A1.63,1.63,0,0,0,376.05,28h2.16a1.62,1.62,0,0,0,1.61-1.62V23.22l.37-.12a3.93,3.93,0,0,0,1.25-.63V20.39H372.8ZM378.21,29h-2.16a2.71,2.71,0,0,1-2.71-2.7V24c-.81-.31-1.62-.78-1.62-1.44V19.31h10.8v3.24c0,.66-.81,1.13-1.62,1.44v2.34a2.69,2.69,0,0,1-2.69,2.7" transform="translate(0)"/></g><rect class="cls-4" x="375.5" y="23.09" width="3.24" height="1.08"/><rect class="cls-4" x="375.5" y="25.25" width="3.24" height="1.08"/><rect class="cls-4" x="376.58" y="28.49" width="1.08" height="11.88"/><g class="cls-2"><path class="cls-4" d="M385.77,30.65a.57.57,0,0,1,.39.16.55.55,0,0,1,.15.46l-.71,4.6L390,29.19l-2.58.37a.53.53,0,0,1-.61-.61l.71-4.61L383.11,31l2.59-.37h.07m-1.08,8.1a.43.43,0,0,1-.19,0,.53.53,0,0,1-.34-.58l1-6.3-3.06.43a.53.53,0,0,1-.53-.24.55.55,0,0,1,0-.59L388,21.71a.55.55,0,0,1,.65-.21.57.57,0,0,1,.34.59l-1,6.3,3.05-.44a.56.56,0,0,1,.54.25.55.55,0,0,1,0,.59l-6.47,9.72a.54.54,0,0,1-.45.24" transform="translate(0)"/><path class="cls-69" d="M258.34,47a19.6,19.6,0,1,0-19.6-19.6A19.6,19.6,0,0,0,258.34,47" transform="translate(0)"/><path class="cls-4" d="M257.87,17.66h-.95v-.47H255v.47h-.95v-.95a.48.48,0,0,1,.48-.47h2.85a.48.48,0,0,1,.48.47Z" transform="translate(0)"/></g><rect class="cls-4" x="253.59" y="16.24" width="4.75" height="0.95"/><g class="cls-2"><path class="cls-4" d="M252.16,19.09a.47.47,0,0,0-.47.47V20a.48.48,0,0,0,.47.48.47.47,0,0,1,.48.47v6.18a.48.48,0,0,1-.48.48.47.47,0,0,0-.47.47v.48a.47.47,0,0,0,.47.47.48.48,0,0,1,.48.48v6.18a.47.47,0,0,1-.48.47.48.48,0,0,0-.47.48v.47a.47.47,0,0,0,.47.48h12.36a.47.47,0,0,0,.48-.48v-.47a.48.48,0,0,0-.48-.48.47.47,0,0,1-.47-.47V29.55a.48.48,0,0,1,.47-.48.47.47,0,0,0,.48-.47v-.48a.47.47,0,0,0-.48-.47.48.48,0,0,1-.47-.48V21a.47.47,0,0,1,.47-.47A.48.48,0,0,0,265,20v-.48a.47.47,0,0,0-.48-.47Zm12.36,19.49H252.16a1.43,1.43,0,0,1-1.42-1.43v-.47a1.41,1.41,0,0,1,.95-1.34v-5.4a1.41,1.41,0,0,1-.95-1.34v-.48a1.41,1.41,0,0,1,.95-1.34v-5.4a1.41,1.41,0,0,1-.95-1.34v-.48a1.43,1.43,0,0,1,1.42-1.42h12.36A1.43,1.43,0,0,1,266,19.56V20a1.42,1.42,0,0,1-.95,1.34v5.4a1.42,1.42,0,0,1,.95,1.34v.48a1.42,1.42,0,0,1-.95,1.34v5.4a1.42,1.42,0,0,1,.95,1.34v.47a1.43,1.43,0,0,1-1.43,1.43" transform="translate(0)"/></g><rect class="cls-4" x="259.77" y="35.25" width="4.76" height="0.95"/><rect class="cls-4" x="252.16" y="35.25" width="2.85" height="0.95"/><rect class="cls-4" x="259.77" y="29.07" width="4.76" height="0.95"/><rect class="cls-4" x="252.16" y="29.07" width="2.85" height="0.95"/><rect class="cls-4" x="259.77" y="26.7" width="4.76" height="0.95"/><rect class="cls-4" x="252.16" y="26.7" width="2.85" height="0.95"/><rect class="cls-4" x="259.77" y="20.52" width="4.76" height="0.95"/><rect class="cls-4" x="252.16" y="20.52" width="2.85" height="0.95"/></g></g></svg>