<svg xmlns="http://www.w3.org/2000/svg" xmlns:xlink="http://www.w3.org/1999/xlink" viewBox="0 0 814.16 428"><defs><style>.cls-1,.cls-19,.cls-21,.cls-22,.cls-23,.cls-25,.cls-75{fill:none;}.cls-2{clip-path:url(#clip-path);}.cls-3{fill:#eef2f4;}.cls-4{fill:#fff;}.cls-10,.cls-5{font-size:15px;}.cls-10,.cls-11,.cls-5{fill:#4b5b6d;}.cls-12,.cls-5,.cls-53,.cls-57,.cls-59{font-family:MyriadPro-Bold, Myriad Pro;font-weight:700;}.cls-6{letter-spacing:0em;}.cls-7{letter-spacing:-0.01em;}.cls-8{letter-spacing:0em;}.cls-9{letter-spacing:-0.01em;}.cls-10,.cls-11,.cls-14,.cls-36,.cls-49{font-family:MyriadPro-Light, Myriad Pro;font-weight:300;}.cls-11{font-size:8.74px;}.cls-12,.cls-14,.cls-36,.cls-49{font-size:12px;}.cls-12{fill:#007dc3;}.cls-13{letter-spacing:0.01em;}.cls-14,.cls-36,.cls-49{fill:#4d4d4f;}.cls-15{letter-spacing:-0.06em;}.cls-16{letter-spacing:-0.05em;}.cls-17{letter-spacing:-0.08em;}.cls-18{letter-spacing:-0.05em;}.cls-19{stroke:#6aaae4;}.cls-20{fill:#a6bdd1;}.cls-21{stroke:#ffb71b;}.cls-21,.cls-22,.cls-23,.cls-25,.cls-75{stroke-linecap:round;}.cls-21,.cls-22,.cls-23,.cls-25{stroke-miterlimit:10;}.cls-21,.cls-22,.cls-23{stroke-width:3px;}.cls-22{stroke:#47c3d3;}.cls-23{stroke:#065498;}.cls-24,.cls-57{fill:#002f87;}.cls-25{stroke:#eef2f4;stroke-width:2px;}.cls-26,.cls-53{fill:#47c3d3;}.cls-27{fill:#fdb714;}.cls-28,.cls-49{letter-spacing:0.01em;}.cls-29{letter-spacing:0em;}.cls-30{letter-spacing:-0.02em;}.cls-31{letter-spacing:-0.01em;}.cls-32{letter-spacing:0em;}.cls-33{letter-spacing:-0.05em;}.cls-34{letter-spacing:0.01em;}.cls-35{letter-spacing:-0.02em;}.cls-36,.cls-39{letter-spacing:-0.05em;}.cls-37{letter-spacing:0.03em;}.cls-38{letter-spacing:0em;}.cls-40{letter-spacing:0em;}.cls-41{letter-spacing:0.02em;}.cls-42{letter-spacing:-0.06em;}.cls-43{letter-spacing:-0.04em;}.cls-44{letter-spacing:-0.02em;}.cls-45{letter-spacing:0.01em;}.cls-46{letter-spacing:-0.01em;}.cls-47{letter-spacing:-0.03em;}.cls-48{letter-spacing:0.03em;}.cls-50{letter-spacing:-0.02em;}.cls-51{letter-spacing:0em;}.cls-52{letter-spacing:-0.04em;}.cls-53,.cls-57,.cls-59{font-size:21.75px;}.cls-54{letter-spacing:0.01em;}.cls-55{letter-spacing:0.01em;}.cls-56{letter-spacing:0.02em;}.cls-58{letter-spacing:0.01em;}.cls-59{fill:#ffb71b;}.cls-60{letter-spacing:0.02em;}.cls-61{letter-spacing:0.02em;}.cls-62{letter-spacing:0.02em;}.cls-63{letter-spacing:0.01em;}.cls-64{letter-spacing:-0.01em;}.cls-65{letter-spacing:0.02em;}.cls-66{letter-spacing:0.02em;}.cls-67{letter-spacing:0em;}.cls-68{letter-spacing:0.01em;}.cls-69{letter-spacing:0.01em;}.cls-70{letter-spacing:0em;}.cls-71{letter-spacing:0.01em;}.cls-72{letter-spacing:0.01em;}.cls-73{letter-spacing:0.01em;}.cls-74{letter-spacing:0.01em;}.cls-75{stroke:#fff;stroke-linejoin:round;stroke-width:0.7px;}</style><clipPath id="clip-path" transform="translate(0)"><rect class="cls-1" width="814.16" height="428"/></clipPath></defs><g id="Layer_2" data-name="Layer 2"><g id="Layer_1-2" data-name="Layer 1"><g class="cls-2"><rect class="cls-3" width="814.16" height="428" rx="5.26"/><path class="cls-4" d="M5.26,0A5.25,5.25,0,0,0,0,5.26V71.17H814.16V5.26A5.25,5.25,0,0,0,808.9,0Z" transform="translate(0)"/><path class="cls-4" d="M0,398.78v24A5.25,5.25,0,0,0,5.26,428H808.9a5.25,5.25,0,0,0,5.26-5.26v-24Z" transform="translate(0)"/></g><text class="cls-5" transform="translate(67.7 29.4)"><tspan class="cls-6">I</tspan><tspan class="cls-7" x="4.32" y="0">n</tspan><tspan class="cls-8" x="13.03" y="0">t</tspan><tspan x="18.48" y="0">ensidad de ene</tspan><tspan class="cls-9" x="119.16" y="0">r</tspan><tspan x="124.74" y="0">gía</tspan></text><text class="cls-10" transform="translate(67.7 47.4)">GJ/m</text><text class="cls-11" transform="translate(99.78 42.41)">3</text><g class="cls-2"><path class="cls-3" d="M36.36,52a19.6,19.6,0,1,0-19.6-19.6A19.59,19.59,0,0,0,36.36,52" transform="translate(0)"/></g><text class="cls-12" transform="translate(601.41 365.72)"><tspan class="cls-13">2</tspan><tspan x="6.79" y="0">0</tspan></text><text class="cls-14" transform="translate(476.48 365.72)"><tspan class="cls-15">1</tspan><tspan x="5.09" y="0">9</tspan></text><text class="cls-14" transform="translate(375.88 365.72)"><tspan class="cls-16">1</tspan><tspan x="5.24" y="0">8</tspan></text><text class="cls-14" transform="translate(269.73 365.72)"><tspan class="cls-17">1</tspan><tspan x="4.94" y="0">7</tspan></text><text class="cls-14" transform="translate(149.21 365.72)"><tspan class="cls-18">1</tspan><tspan x="5.27" y="0">6</tspan></text><line class="cls-19" x1="89.3" y1="349.75" x2="720.3" y2="349.75"/><g class="cls-2"><path class="cls-20" d="M34.94,34.3a.63.63,0,0,1,.46.2.64.64,0,0,1,.16.56l-1.92,9.12L44.3,29.46l-6.73,1A.61.61,0,0,1,37,30.3a.64.64,0,0,1-.16-.56l1.93-9.12L28.11,35.34l6.73-1h.1M32.4,47.6a.74.74,0,0,1-.25-.05.64.64,0,0,1-.37-.71L34.13,35.7,26.8,36.83a.64.64,0,0,1-.64-.3.64.64,0,0,1,0-.7L39.5,17.46a.63.63,0,0,1,1.13.51L38.28,29.1,45.61,28a.64.64,0,0,1,.63.3.62.62,0,0,1,0,.7L32.92,47.34a.64.64,0,0,1-.52.26" transform="translate(0)"/></g><polyline class="cls-21" points="157.41 299 279.74 287 383.74 171.65 481.83 283 608.74 286"/><polyline class="cls-22" points="157.41 255 280.74 237.94 383.07 220 481.83 247.12 610.24 247.12"/><polyline class="cls-23" points="157.41 241.12 275.94 221 383.82 231.48 481.83 262 610.24 262"/><g class="cls-2"><path class="cls-24" d="M157.41,246.8a5.66,5.66,0,1,0-5.66-5.66,5.67,5.67,0,0,0,5.66,5.66" transform="translate(0)"/><circle class="cls-25" cx="157.41" cy="241.14" r="5.66" transform="translate(-0.46 0.3) rotate(-0.11)"/><path class="cls-26" d="M157.41,261.16a5.66,5.66,0,1,0-5.66-5.66,5.67,5.67,0,0,0,5.66,5.66" transform="translate(0)"/><circle class="cls-25" cx="157.41" cy="255.5" r="5.66" transform="translate(-0.49 0.3) rotate(-0.11)"/><path class="cls-26" d="M275.61,243.14a5.66,5.66,0,1,0-5.66-5.66,5.67,5.67,0,0,0,5.66,5.66" transform="translate(0)"/><circle class="cls-25" cx="275.61" cy="237.48" r="5.66" transform="translate(-0.91 1.06) rotate(-0.22)"/><path class="cls-26" d="M381.43,224.15a5.66,5.66,0,1,0-5.65-5.66,5.67,5.67,0,0,0,5.65,5.66" transform="translate(0)"/><circle class="cls-25" cx="381.43" cy="218.49" r="5.66" transform="translate(-0.83 1.46) rotate(-0.22)"/><path class="cls-26" d="M481.83,251.65a5.66,5.66,0,1,0-5.66-5.66,5.67,5.67,0,0,0,5.66,5.66" transform="translate(0)"/><circle class="cls-25" cx="481.83" cy="245.99" r="5.66" transform="translate(-0.94 1.85) rotate(-0.22)"/><path class="cls-24" d="M275.61,227a5.66,5.66,0,1,0-5.66-5.66,5.67,5.67,0,0,0,5.66,5.66" transform="translate(0)"/><circle class="cls-25" cx="275.61" cy="221.33" r="5.66" transform="translate(-0.85 1.06) rotate(-0.22)"/><path class="cls-24" d="M381.43,236a5.66,5.66,0,1,0-5.65-5.66,5.67,5.67,0,0,0,5.65,5.66" transform="translate(0)"/><circle class="cls-25" cx="381.43" cy="230.33" r="5.66" transform="translate(-0.88 1.46) rotate(-0.22)"/><path class="cls-24" d="M481.83,267a5.66,5.66,0,1,0-5.66-5.66,5.67,5.67,0,0,0,5.66,5.66" transform="translate(0)"/><circle class="cls-25" cx="481.83" cy="261.34" r="5.66" transform="translate(-1 1.85) rotate(-0.22)"/><path class="cls-24" d="M610.06,268a5.66,5.66,0,1,0-5.66-5.66,5.67,5.67,0,0,0,5.66,5.66" transform="translate(0)"/><circle class="cls-25" cx="610.06" cy="262.34" r="5.66" transform="translate(-2.01 4.72) rotate(-0.44)"/><path class="cls-26" d="M610.06,249.27a5.66,5.66,0,1,0-5.66-5.66,5.67,5.67,0,0,0,5.66,5.66" transform="translate(0)"/><circle class="cls-25" cx="610.06" cy="243.61" r="5.66" transform="translate(-1.86 4.72) rotate(-0.44)"/><path class="cls-27" d="M610.06,290.67A5.66,5.66,0,1,0,604.4,285a5.67,5.67,0,0,0,5.66,5.66" transform="translate(0)"/><circle class="cls-25" cx="610.06" cy="285.01" r="5.66" transform="translate(-2.18 4.72) rotate(-0.44)"/><path class="cls-27" d="M482,288.33a5.66,5.66,0,1,0-5.66-5.66,5.66,5.66,0,0,0,5.66,5.66" transform="translate(0)"/><circle class="cls-25" cx="481.95" cy="282.67" r="5.66" transform="translate(-1.08 1.85) rotate(-0.22)"/><path class="cls-27" d="M381.43,176.64a5.66,5.66,0,1,0-5.65-5.66,5.66,5.66,0,0,0,5.65,5.66" transform="translate(0)"/><circle class="cls-25" cx="381.43" cy="170.98" r="5.66" transform="translate(-0.65 1.47) rotate(-0.22)"/><path class="cls-27" d="M275.61,291.67A5.66,5.66,0,1,0,270,286a5.67,5.67,0,0,0,5.66,5.66" transform="translate(0)"/><circle class="cls-25" cx="275.61" cy="286.01" r="5.66" transform="translate(-1.09 1.06) rotate(-0.22)"/><path class="cls-27" d="M157.41,304a5.66,5.66,0,1,0-5.66-5.66,5.67,5.67,0,0,0,5.66,5.66" transform="translate(0)"/><circle class="cls-25" cx="157.41" cy="298.33" r="5.66" transform="translate(-0.57 0.3) rotate(-0.11)"/></g><text class="cls-14" transform="translate(148.08 314.34)"><tspan class="cls-28">0</tspan><tspan class="cls-29" x="5.92" y="0">.</tspan><tspan class="cls-30" x="7.97" y="0">7</tspan><tspan x="13.54" y="0">5</tspan></text><text class="cls-14" transform="translate(148.01 269.5)"><tspan class="cls-28">0</tspan><tspan class="cls-31" x="5.92" y="0">.</tspan><tspan class="cls-32" x="7.85" y="0">9</tspan><tspan x="13.68" y="0">5</tspan></text><text class="cls-14" transform="translate(266.64 253.14)"><tspan class="cls-33">1</tspan><tspan class="cls-34" x="5.3" y="0">.</tspan><tspan class="cls-35" x="7.52" y="0">0</tspan><tspan x="13.1" y="0">2</tspan></text><text class="cls-36" transform="translate(371.64 247.68)">1<tspan class="cls-13" x="5.3" y="0">.</tspan><tspan class="cls-37" x="7.52" y="0">0</tspan><tspan class="cls-38" x="13.73" y="0">4</tspan></text><text class="cls-14" transform="translate(371.85 211)"><tspan class="cls-39">1</tspan><tspan class="cls-13" x="5.3" y="0">.</tspan><tspan class="cls-40" x="7.52" y="0">0</tspan><tspan x="13.34" y="0">5</tspan></text><text class="cls-14" transform="translate(266.39 211)"><tspan class="cls-33">1</tspan><tspan class="cls-34" x="5.3" y="0">.</tspan><tspan class="cls-41" x="7.52" y="0">0</tspan><tspan x="13.63" y="0">6</tspan></text><text class="cls-14" transform="translate(372.51 162.53)"><tspan class="cls-39">1</tspan><tspan class="cls-42" x="5.3" y="0">.</tspan><tspan class="cls-43" x="6.73" y="0">1</tspan><tspan x="12.05" y="0">0</tspan></text><text class="cls-36" transform="translate(472.46 237.48)">1<tspan class="cls-13" x="5.3" y="0">.</tspan><tspan class="cls-44" x="7.52" y="0">0</tspan><tspan class="cls-38" x="13.15" y="0">3</tspan></text><text class="cls-14" transform="translate(472.4 298.32)"><tspan class="cls-45">0</tspan><tspan class="cls-46" x="5.92" y="0">.</tspan><tspan class="cls-47" x="7.84" y="0">9</tspan><tspan x="13.28" y="0">1</tspan></text><text class="cls-14" transform="translate(472.18 276.34)"><tspan class="cls-39">1</tspan><tspan class="cls-13" x="5.3" y="0">.</tspan><tspan class="cls-48" x="7.52" y="0">0</tspan><tspan x="13.7" y="0">0</tspan></text><text class="cls-49" transform="translate(148.14 230.99)">0<tspan class="cls-46" x="5.92" y="0">.</tspan><tspan class="cls-50" x="7.84" y="0">9</tspan><tspan class="cls-51" x="13.44" y="0">7</tspan></text><text class="cls-14" transform="translate(266.52 303)"><tspan class="cls-28">0</tspan><tspan class="cls-29" x="5.92" y="0">.</tspan><tspan class="cls-52" x="7.97" y="0">7</tspan><tspan x="13.37" y="0">6</tspan></text><text class="cls-53" transform="translate(618.92 250.65)"><tspan class="cls-54">0</tspan><tspan class="cls-55" x="12.2" y="0">.</tspan><tspan class="cls-56" x="18.16" y="0">9</tspan><tspan x="30.65" y="0">9</tspan></text><text class="cls-57" transform="translate(618.92 270.66)"><tspan class="cls-54">0</tspan><tspan class="cls-55" x="12.2" y="0">.</tspan><tspan class="cls-58" x="18.16" y="0">9</tspan><tspan x="30.49" y="0">8</tspan></text><text class="cls-59" transform="translate(618.92 293.67)"><tspan class="cls-54">0</tspan><tspan class="cls-55" x="12.2" y="0">.</tspan><tspan class="cls-60" x="18.16" y="0">9</tspan><tspan x="30.67" y="0">0</tspan></text><text class="cls-14" transform="translate(587.05 42.65)"><tspan class="cls-61">M</tspan><tspan class="cls-62" x="9.53" y="0">é</tspan><tspan class="cls-13" x="15.58" y="0">x</tspan><tspan class="cls-63" x="20.86" y="0">i</tspan><tspan class="cls-64" x="23.46" y="0">c</tspan><tspan x="28.73" y="0">o</tspan></text><text class="cls-14" transform="translate(392.73 42.65)"><tspan class="cls-61">M</tspan><tspan class="cls-65" x="9.53" y="0">é</tspan><tspan class="cls-13" x="15.58" y="0">x</tspan><tspan class="cls-63" x="20.86" y="0">i</tspan><tspan class="cls-64" x="23.46" y="0">c</tspan><tspan class="cls-62" x="28.73" y="0">o </tspan><tspan class="cls-66" x="38.2" y="0">y</tspan><tspan class="cls-65" x="43.72" y="0"> </tspan><tspan class="cls-67" x="46.57" y="0">C</tspan><tspan class="cls-68" x="53.35" y="0">e</tspan><tspan class="cls-29" x="59.24" y="0">n</tspan><tspan class="cls-69" x="65.64" y="0">t</tspan><tspan class="cls-29" x="69.46" y="0">r</tspan><tspan class="cls-61" x="72.96" y="0">o</tspan><tspan class="cls-70" x="79.54" y="0">a</tspan><tspan class="cls-71" x="85.04" y="0">m</tspan><tspan class="cls-72" x="95.04" y="0">é</tspan><tspan class="cls-73" x="100.93" y="0">r</tspan><tspan class="cls-63" x="104.61" y="0">i</tspan><tspan class="cls-71" x="107.22" y="0">c</tspan><tspan x="112.74" y="0">a</tspan></text><text class="cls-14" transform="translate(688.64 42.65)"><tspan class="cls-67">C</tspan><tspan class="cls-72" x="6.78" y="0">e</tspan><tspan class="cls-29" x="12.67" y="0">n</tspan><tspan class="cls-74" x="19.07" y="0">t</tspan><tspan class="cls-29" x="22.9" y="0">r</tspan><tspan class="cls-61" x="26.4" y="0">o</tspan><tspan class="cls-70" x="32.98" y="0">a</tspan><tspan class="cls-71" x="38.48" y="0">m</tspan><tspan class="cls-72" x="48.48" y="0">é</tspan><tspan class="cls-73" x="54.37" y="0">r</tspan><tspan class="cls-63" x="58.05" y="0">i</tspan><tspan class="cls-71" x="60.66" y="0">c</tspan><tspan x="66.18" y="0">a</tspan></text><g class="cls-2"><path class="cls-24" d="M559.39,57.75a19.6,19.6,0,1,0-19.6-19.6,19.59,19.59,0,0,0,19.6,19.6" transform="translate(0)"/><path class="cls-75" d="M555.24,30.8l-2.41-.07-2.89-1.35-2,0c0,.27,0,.34.13.57s.25.24.3.39c-.1,0-.11,0-.19.06.1.19.49.76.26.92.23.13.19.45.26.66s.16.28.35.45,1,.84.89,1.29l-.13,0c0,.1,0,.2,0,.3l-.09,0s0,.16,0,.21c-.22,0-.41-.11-.59,0s0,.27.19.41c.37.34.56.64,1.11.33.05.53.27.41.58.76s.41.9,0,1.08c0,.25.43.49.62.65s.29.35.44.49.32.13.45.27.11.37.32.45.46,0,.41-.28a2.62,2.62,0,0,0-.74-.85c-.24.26-.4-.24-.41-.36a4.5,4.5,0,0,0-.17-.63c-.12-.46,0-1-.37-1.43,0,.06,0,.13,0,.19l-.06,0c-.25-.21-.15-.47-.21-.74a1.2,1.2,0,0,0-.13-.28c-.07-.08-.22-.13-.25-.18s0-.2-.08-.29a1.89,1.89,0,0,0-.22-.31,2.37,2.37,0,0,1-.33-.68c-.1-.23-.31-.37-.44-.59a1.73,1.73,0,0,1-.15-.68,1.61,1.61,0,0,1,0-.69c.05-.21.19-.41.22-.63a1.6,1.6,0,0,0,.64.44l.6.29c-.19.29-.22.08-.16.44a3.13,3.13,0,0,0,.2.66,11.15,11.15,0,0,1,.42,1.23c.19,0,.1.09.2.17a2.84,2.84,0,0,1,.26.24c.1.12.05.2.21.3s.35,0,.41.09c.23.2-.12.38,0,.6a.64.64,0,0,0,.58.26.78.78,0,0,1,0,.31c.36-.06.31.29.6.29a1.34,1.34,0,0,1,.07.18.35.35,0,0,1-.22,0,1,1,0,0,1-.05-.16c-.29,0-.38.73-.2.86s.83,0,1,.47l.16-.09v.34c-.07,0-.17,0-.23,0,.08.27.55.26.75.44a3.34,3.34,0,0,1,.43.63c.12.2.17.44.28.63a2.28,2.28,0,0,0,.3.49c-.11.27.14.52.23.76s.12.3.07.41-.26.14-.29.31h.09s0,.09,0,.08c-.54-.1.11.93.31,1.11,0,0,0-.06,0-.08.21.18.66,0,.78.24-.1.07-.05.11-.1.19.47.06.4.41.71.55s.75.09,1.08.29.58.38.86.57a2.49,2.49,0,0,0,.38.25c.2.07.36,0,.55.06s.56.23.8.31.25.18.42.29a.48.48,0,0,0,.37.12c.64,0,1.13.32,1.81,0,1.25-.51,1.89.81,2.74,1.37a.78.78,0,0,0,.16-.21c-.23-.32,0-.58.19-.85s.17-.54.64-.5c.15,0,.64.21.77.11.34-.25-.34-.36-.33-.56-.24,0-.45-.27-.54-.44.32,0,.24-.29.31-.48a2.26,2.26,0,0,1,.78-.1c.22,0,.55.24.77.15s.16-.19.24-.25.19,0,.33-.15.18-.49.45-.51c0,.18-.08.31-.09.47l.26.12c.14-.19.11-.45.22-.65s.28-.27.33-.44a.86.86,0,0,0-.27.21,2.72,2.72,0,0,1,.51-1.23c.26-.41.32-.94-.34-.92a6.12,6.12,0,0,0-1.23.28c-.08,0-.11.08-.2.09a2.21,2.21,0,0,1-.34-.06.91.91,0,0,0-.67.13.47.47,0,0,1,.26.22c-.15.12-.43.23-.5.42s.09.32.06.42-.2.11-.21.17,0,.23,0,.29-.08.09-.25.22-.34.32-.24.55c-.18.05-.67.26-.45-.16a3.32,3.32,0,0,0-.53,0c-.27,0-.46.31-.68.39s-.58,0-.85.06-.31.1-.42,0-.12-.34-.26-.44-.51-.12-.74-.35a3.5,3.5,0,0,1-.46-.63c-.14-.22-.33-.38-.48-.6a2.13,2.13,0,0,1-.23-.74,1.2,1.2,0,0,1,0-.42c0-.09.11-.17.11-.28s-.1-.13-.1-.18a6.64,6.64,0,0,1,.17-1.33c0-.44-.18-1,.17-1.34,0,0,.1.14.1.21a4.89,4.89,0,0,1,.27-.87c-.25.24-1.13-.19-1.35-.42a1.66,1.66,0,0,1-.2-.63,2.24,2.24,0,0,0-.29-.69c-.32-.44-.6-.93-.88-1.37a1,1,0,0,0-.57-.48c-.38-.08-.5.15-.75.22,0-.05,0-.1,0-.15a.9.9,0,0,0-.15.18h0c-.18.57-.6.3-1,.12a1,1,0,0,1-.42-.27c-.11-.15,0-.33-.23-.4.31-.17-.05-.4-.21-.52a3.24,3.24,0,0,1-.34-.29c-.09-.12,0-.21-.12-.36-.33-.64-1.3-.25-1.85-.46a.71.71,0,0,0,0,.21" transform="translate(0)"/><path class="cls-26" d="M666.16,57.75a19.6,19.6,0,1,1,19.6-19.6,19.6,19.6,0,0,1-19.6,19.6" transform="translate(0)"/><path class="cls-75" d="M659.2,31.85a.44.44,0,0,0,.23-.09,1.31,1.31,0,0,0,.4-.55.77.77,0,0,0,0-.46c.16-.22,0-.22,0-.22l0-.35a3.9,3.9,0,0,0,.07-.4.68.68,0,0,0-.13-.26,2.37,2.37,0,0,0,.21-.42c.09-.23.09-.21.21-.3s0-.31,0-.54,0-.16-.12-.16-.31.12-.31,0,.15-.21,0-.23-.3.21-.39.3a1.75,1.75,0,0,0-.26.55c-.09.26-.14.21-.45,0s-.29.35-.29.35a10.05,10.05,0,0,1,0,2,11.76,11.76,0,0,0-.17,1.41l.5,0a2.19,2.19,0,0,0,.2-.39A.7.7,0,0,1,659.2,31.85Zm9.24,2.24c-.1-.11-.08-.23-.18-.32a.78.78,0,0,0-.41-.15c-.15,0,0,.14-.1.14s-.31-.21-.43-.24,0,.12.16.24-.07.08-.25,0-.15-.09-.1-.27-.15-.06-.2-.18.39,0,.46,0-.54-.56-.63-.62-.43.14-.53.15-.08-.16-.31-.28-.37-.15-.53,0a1.91,1.91,0,0,1-.7.08,1.22,1.22,0,0,1-.45-.14c-.14-.09-.34-.09-.31,0s-.11.12-.3.12-.25.07-.29.14a.29.29,0,0,1-.25.12l-.56-.06c-.12,0-.21.06-.34.08s-.62-.23-.83-.12-.22-.05-.43-.21-.69.27-.75.31-.16,0-.25,0l-.3.25a7.87,7.87,0,0,0-.62.54c-.21.23-.65.3-.71.39a.66.66,0,0,0,0,.5c.07.12.07.26-.13.42s-.19.26-.19.26h0a.75.75,0,0,1,.27.08c.19.1.16,0,.28.19s.21.32.3.33.17.16.33.21.23.07.26.16a.16.16,0,0,0,.23.07c.22-.11.21-.22.37-.19s.13.1.25.15.07.07.22.06.11-.17.22,0,.12.25.05.41-.07.22,0,.27.08.15,0,.15a.14.14,0,0,0-.14.08h0s0,0,.06,0,.22,0,.32-.09.16.06.16.06.05.18.09.28.29.25.38.36.37.2.51,0a.69.69,0,0,0,.15-.48c0-.17.16.12.24,0a.38.38,0,0,0,.05-.39c-.05-.17-.13-.34-.05-.42s.47,0,.56,0,.11.21.25,0,.15-.36.3-.4a.29.29,0,0,1,.36.06c.14.11.32.3.35.2s-.1-.25.11-.3.31,0,.35-.08a1.48,1.48,0,0,1,.2-.32c.05,0,.09-.17.2-.14s0,0,.17-.27.2-.09.19-.22a2.3,2.3,0,0,1,0-.28,1.41,1.41,0,0,1,.29-.12c.06,0,0-.11.17.07a.9.9,0,0,0,.43.26.33.33,0,0,0,.28,0,3.91,3.91,0,0,1,.61-.23c.11,0,.19-.08.29-.11s.36-.11.4-.14.05-.16.19-.18a3.09,3.09,0,0,1,.52.07Zm2.08,10.71a.16.16,0,0,0,.07.16c.09,0,.17.09.16,0a.17.17,0,0,0-.08-.16S670.51,44.75,670.52,44.8Zm-.25-.42a.08.08,0,0,0,0,.11c.08,0,.07.11.15.15s.08.08.17,0,.12,0,.06-.11a.44.44,0,0,0-.2-.1.41.41,0,0,1-.12-.07C670.31,44.37,670.27,44.3,670.27,44.38Zm6,1.69a.49.49,0,0,0,0,.25c0,.1.11,0,.16,0s.07-.26,0-.29-.14,0-.18.09m-4,1.7s-.16.08-.06.12a.36.36,0,0,0,.32-.06c.08-.06.13-.24-.07-.15Zm-1-.18s-.22.11-.24.2a.3.3,0,0,0,.16.28c.12.07.34.17.35.1s-.06-.18-.06-.18-.11,0-.14-.1S671.53,47.63,671.28,47.64ZM667.9,38.8s0,.15.06.21a.24.24,0,0,0,.21.06s.11-.16.06-.21-.1-.12-.16-.12A.63.63,0,0,0,667.9,38.8Zm-3.59,1.7a.1.1,0,0,0,0,.18c.13.11,0,.22.24.18s.2-.16.11-.26A.62.62,0,0,0,664.31,40.5Zm-.22.15a1.1,1.1,0,0,1-.17-.5c-.07-.4-.09-.58,0-.62a1.7,1.7,0,0,1,.74.28,3.39,3.39,0,0,0,.31.28,2.86,2.86,0,0,1,.36.32,3.62,3.62,0,0,1,.38.43c0,.06.16.18.11.34s0,.37-.22.27a4.53,4.53,0,0,0-.53-.15c-.16-.07-.25-.18-.31-.17s-.21.18-.44-.1S664.09,40.65,664.09,40.65Zm3.75,1h0Zm0,0h0ZM669.59,44c-.19-.07-.15-.13-.44-.35a9.18,9.18,0,0,1-1-1.46l-.25-.53s.1.45-.4.33-.4,0-.51-.12l-.31-.28a1.18,1.18,0,0,0-.28-.14l-.28,0a.35.35,0,0,1-.37.19c-.24-.06-.52-.16-.61-.19s-.47-.16-.47-.16-.1-.21-.21-.11.18.24-.24.28h0c.05.09,0,0,0,.12s-.17,0-.28.08,0,0,.09.17a.15.15,0,0,0,.24,0,1.13,1.13,0,0,1,.07.35c0,.14,0,.17-.18.28A.66.66,0,0,0,664,43a1.3,1.3,0,0,0,.64.64c.43.2.45.3.49.42s.13,0,.19,0,.22-.14.28-.25,0-.16-.13-.22a1,1,0,0,1-.41-.37c-.06-.13.17-.07.17-.07l.37.2a.81.81,0,0,0,.24.09s.24.24.34.37-.13.22-.12.3.15.1.3.19.44,0,.54.13.43.22.43.22a5.37,5.37,0,0,0,.59.47c.17.11,0,.3.06.42s-.17.2-.21.31.09.2.13.32.28.12.34.15a1.73,1.73,0,0,0,.34.09s0-.18-.13-.33-.13-.09-.24-.19.12-.16.12-.16a1.25,1.25,0,0,1,.27.09c.11.06.14.23.2.34a.44.44,0,0,1,0,.26,2.2,2.2,0,0,1,.27.27s0,.09.07.15.21-.11,0-.27-.19-.12-.07-.23.41-.09.31-.26-.16-.21-.16-.31-.06-.16,0-.24.3-.09.26-.2a1.6,1.6,0,0,0-.34-.3.88.88,0,0,1-.08-.27,3.33,3.33,0,0,1,.1-.44l.13-.06s.16-.12.27,0,.2-.06.2-.06A1.13,1.13,0,0,0,669.59,44Zm-1.79-2.41Zm.84-7.29a3.09,3.09,0,0,0-.52-.07c-.14,0-.14.14-.19.18s-.31.1-.4.14-.18.08-.29.11a3.91,3.91,0,0,0-.61.23.33.33,0,0,1-.28,0,.9.9,0,0,1-.43-.26c-.15-.18-.11-.07-.17-.07a1.41,1.41,0,0,0-.29.12,2.3,2.3,0,0,0,0,.28c0,.13,0,0-.19.22s-.07.29-.17.27-.15.09-.2.14a1.48,1.48,0,0,0-.2.32c0,.11-.14,0-.35.08s-.09.21-.11.3-.21-.09-.35-.2a.29.29,0,0,0-.36-.06c-.15,0-.16.16-.3.4s-.15,0-.25,0-.47-.08-.56,0,0,.25.05.42a.38.38,0,0,1-.05.39c-.08.12-.24-.17-.24,0a.69.69,0,0,1-.15.48c-.14.2-.51,0-.51,0s-.09.25-.19.25-.1-.34-.37-.28-.11.35,0,.44.1.13.23.22a8.34,8.34,0,0,1,.83.71c.09.1.23.13.35.28a3.46,3.46,0,0,1,.31.57c.09.18.33.31.37.37a4.63,4.63,0,0,0,.55.47,2.72,2.72,0,0,1,.51.61h0c.42,0,.15-.19.24-.28s.21.11.21.11.39.12.47.16.37.13.61.19a.35.35,0,0,0,.37-.19l.28,0a1.18,1.18,0,0,1,.28.14l.31.28c.11.08,0,0,.51.12s.4-.33.4-.33-.3-.3-.34-.56a.57.57,0,0,1,.13-.52c.13-.2.24-.22.24-.32s0-.17-.15-.18-.07,0-.13-.21.1-.07.22-.35-.1-.47-.15-.6.06-.3.19-.26.06-.2,0-.33.19,0,.23,0,.06-.26,0-.39a4.63,4.63,0,0,1-.05-1c0-.14,0-.39.05-.48a1.39,1.39,0,0,1,.19-.28c.07-.11.25-.56.35-.58s.06-.2,0-.38a2.19,2.19,0,0,0-.32-.63C668.22,34.51,668.64,34.33,668.64,34.33Zm-8.15,2.9h0a.14.14,0,0,1,0-.06.14.14,0,0,1,.14-.08c.12,0,.08-.11,0-.15s0-.11,0-.27.07-.22-.05-.41-.07,0-.22,0-.1,0-.22-.06-.08-.11-.25-.15-.15.08-.37.19a.16.16,0,0,1-.23-.07c0-.09-.1-.11-.26-.16s-.25-.19-.33-.21-.18-.19-.3-.33-.09-.09-.28-.19a.88.88,0,0,0-.49-.09c-.1,0-.17.16-.17.16v.12c0,.12,0,0-.14.11s-.09.1-.17.21a.46.46,0,0,1-.39.19c-.38,0-.33.44-.33.44l.16.12A3.35,3.35,0,0,0,658,37c.17.06.4.2.87.42a2.83,2.83,0,0,0,1.21.26c.21,0,.49-.25.45-.32A.12.12,0,0,1,660.49,37.23Zm18.83,9.43a1.6,1.6,0,0,0-.34-.59c-.12-.12.19-.34.19-.34a.78.78,0,0,1-.25-.19.63.63,0,0,0-.29-.2c-.17-.07-.2-.19-.31-.28a3,3,0,0,0-.61-.36c-.31-.14-.45-.33-.7-.33a1.6,1.6,0,0,1-.82-.12,1.38,1.38,0,0,0-.62-.11A1.47,1.47,0,0,0,675,44c-.28,0-.13.22-.19.3s-.35.09-.44.26-.22.18-.6.3a2.07,2.07,0,0,0-.76.37,1.49,1.49,0,0,1-.44.19,4.32,4.32,0,0,1-.74.09c-.3,0-.3-.14-.44-.28s-.32-.43-.46-.37.09.19.18.37-.34,0-.34,0-.35-.11-.43-.15-.08-.13-.2-.33,0-.25-.13-.42a.9.9,0,0,0-.46-.33c-.19-.07-.15-.13-.44-.35a9.18,9.18,0,0,1-1-1.46l-.25-.53c-.05-.09-.3-.3-.34-.56a.57.57,0,0,1,.13-.52c.13-.2.24-.22.24-.32s0-.17-.15-.18-.07,0-.13-.21.1-.07.22-.35-.1-.47-.15-.6.06-.3.19-.26.06-.2,0-.33.19,0,.23,0,.06-.26,0-.39a4.63,4.63,0,0,1-.05-1c0-.14,0-.39.05-.48a1.39,1.39,0,0,1,.19-.28c.07-.11.25-.56.35-.58s.06-.2,0-.38a2.19,2.19,0,0,0-.32-.63c-.1-.12.32-.3.32-.3l-.2-.24c-.1-.11-.08-.23-.18-.32a.78.78,0,0,0-.41-.15c-.15,0,0,.14-.1.14s-.31-.21-.43-.24,0,.12.16.24-.07.08-.25,0-.15-.09-.1-.27-.15-.06-.2-.18.39,0,.46,0-.54-.56-.63-.62-.43.14-.53.15-.08-.16-.31-.28-.37-.15-.53,0a1.91,1.91,0,0,1-.7.08,1.22,1.22,0,0,1-.45-.14c-.14-.09-.34-.09-.31,0s-.11.12-.3.12-.25.07-.29.14a.29.29,0,0,1-.25.12l-.56-.06c-.12,0-.21.06-.34.08s-.62-.23-.83-.12-.22-.05-.43-.21-.69.27-.75.31-.22,0-.32-.09a4.18,4.18,0,0,0-.52-.31c-.09,0,.11.22.11.22a.56.56,0,0,1-.27.18c-.16,0-.16-.16-.33-.24l-.15,0a2.19,2.19,0,0,0,.2-.39.7.7,0,0,1,.3-.35.44.44,0,0,0,.23-.09,1.31,1.31,0,0,0,.4-.55.77.77,0,0,0,0-.46c.16-.22,0-.22,0-.22l0-.35a3.9,3.9,0,0,0,.07-.4.68.68,0,0,0-.13-.26,2.37,2.37,0,0,0,.21-.42c.09-.23.09-.21.21-.3s0-.31,0-.54,0-.16-.12-.16-.31.12-.31,0,.15-.21,0-.23-.3.21-.39.3a1.75,1.75,0,0,0-.26.55c-.09.26-.14.21-.45,0s-.29.35-.29.35L655.23,29l-.05,1h-.73a5.51,5.51,0,0,0,1.09.9c.37.19.22.21.25.43s.29.23.34.23.07.2,0,.37a.76.76,0,0,0-.08.27h-2.18s-.85,1.34-.87,1.4.22.26.22.26a1.8,1.8,0,0,0-.2.58,1.34,1.34,0,0,1-.11.4c-.09.25,1.12.88,1.43,1.09a2.88,2.88,0,0,0,1.36.23,1.23,1.23,0,0,1,1,.39A3.35,3.35,0,0,0,658,37c.17.06.4.2.87.42a2.83,2.83,0,0,0,1.21.26c.21,0,.49-.25.45-.32s0-.19.06-.12.22,0,.32-.09.16.06.16.06.05.18.09.28.29.25.38.36-.09.25-.19.25-.1-.34-.37-.28-.11.35,0,.44.1.13.23.22a8.34,8.34,0,0,1,.83.71c.09.1.23.13.35.28a3.46,3.46,0,0,1,.31.57c.09.18.33.31.37.37a4.63,4.63,0,0,0,.55.47,2.72,2.72,0,0,1,.51.61c.05.09,0,0,0,.12s-.17,0-.28.08,0,0,.09.17a.15.15,0,0,0,.24,0,1.13,1.13,0,0,1,.07.35c0,.14,0,.17-.18.28A.66.66,0,0,0,664,43a1.3,1.3,0,0,0,.64.64c.43.2.45.3.49.42s.13,0,.19,0,.22-.14.28-.25,0-.16-.13-.22a1,1,0,0,1-.41-.37c-.06-.13.17-.07.17-.07l.37.2a.81.81,0,0,0,.24.09s.24.24.34.37-.13.22-.12.3.15.1.3.19.44,0,.54.13.43.22.43.22a5.37,5.37,0,0,0,.59.47c.17.11,0,.3.06.42s-.17.2-.21.31.09.2.13.32.28.12.34.15a1.73,1.73,0,0,0,.34.09s0-.18-.13-.33-.13-.09-.24-.19.12-.16.12-.16a1.25,1.25,0,0,1,.27.09c.11.06.14.23.2.34a.44.44,0,0,1,0,.26,2.2,2.2,0,0,1,.27.27c.06.09.1.28.17.34s0-.08,0-.28a.29.29,0,0,1,.15-.3,1,1,0,0,1,.39.06.83.83,0,0,0,.34.06s.12-.15.17-.07-.24.07.17.22l.08,0c.38.12.7.09.79.23s.11.32.24.53.31.13.54.26.11-.44.11-.44a.4.4,0,0,0,.23-.1.63.63,0,0,0,.08.4c.11.25.19.28.23.39s0,.28,0,.36.23.12.29.13.21-.1.33-.13a2.42,2.42,0,0,0,.4-.09c.05,0-.06-.16.25-.19s.35-.05.41-.22-.25-.36-.41-.5a5.33,5.33,0,0,1-.53-.51c-.09-.1.07-.22.17-.32s.14-.07.34-.07.43-.31.58-.4.26-.19.17-.27,0-.2.06-.34.42-.17.59-.29.68,0,.86.16.59.35.71.43,0,.34,0,.41.29.24.18,0,0-.21.28-.07.23,0,.25-.16a2.44,2.44,0,0,0,.28.54c.06.1-.2-.12-.35-.21s-.09.22-.08.49-.14,0-.36,0,0,.18.25.54a4.49,4.49,0,0,0,.72,1c.18.11.09-.31.26-.48s-.05-.24,0-.37.19.17.34.22.21-.13.41-.27-.1-.34.12-.41S679.35,46.8,679.32,46.66Z" transform="translate(0)"/><path class="cls-27" d="M365.08,57.75a19.6,19.6,0,1,0-19.6-19.6,19.59,19.59,0,0,0,19.6,19.6" transform="translate(0)"/><path class="cls-4" d="M365.08,34.27a1,1,0,0,0,1.07-.66l.55-6.22c0-.61-.71-1.11-1.62-1.11s-1.62.5-1.62,1.11l.55,6.22a1,1,0,0,0,1.07.66Z" transform="translate(0)"/><path class="cls-4" d="M361.72,36.21a1,1,0,0,0,0-1.26l-5.1-3.58c-.53-.31-1.33.06-1.78.84s-.37,1.66.16,2l5.65,2.63a1,1,0,0,0,1.11-.6Z" transform="translate(0)"/><path class="cls-4" d="M368.44,36.21a1,1,0,0,0,1.11.6l5.66-2.63c.53-.31.61-1.18.15-2s-1.24-1.15-1.78-.84L368.48,35a1,1,0,0,0,0,1.26Z" transform="translate(0)"/><path class="cls-4" d="M368.44,40.09a1,1,0,0,1,1.11-.6l5.66,2.63c.53.31.61,1.18.15,2s-1.24,1.15-1.78.84l-5.1-3.58a1,1,0,0,1,0-1.26Z" transform="translate(0)"/><path class="cls-4" d="M361.72,40.09a1,1,0,0,1,0,1.26l-5.1,3.58c-.53.31-1.33-.06-1.78-.84s-.37-1.66.16-2l5.65-2.63a1,1,0,0,1,1.11.6Z" transform="translate(0)"/><path class="cls-4" d="M365.08,42a1,1,0,0,1,1.07.66l.55,6.21c0,.62-.71,1.12-1.62,1.12s-1.62-.5-1.62-1.12l.55-6.21a1,1,0,0,1,1.07-.66Z" transform="translate(0)"/><path class="cls-4" d="M367.58,48.76a.47.47,0,1,1,0,.93.47.47,0,1,1,0-.93Zm0,.11a.36.36,0,1,0,.34.35.34.34,0,0,0-.34-.35Zm-.06.58h-.12V49l.18,0a.26.26,0,0,1,.16,0,.11.11,0,0,1,.05.09.13.13,0,0,1-.1.11h0a.15.15,0,0,1,.09.11.3.3,0,0,0,0,.11h-.13s0-.05,0-.1,0-.07-.08-.07h0Zm0-.25h0c.06,0,.1,0,.1-.06s0-.06-.09-.06h-.05Z" transform="translate(0)"/></g></g></g></svg>