<?xml version="1.0" encoding="utf-8"?>
<!-- Generator: Adobe Illustrator 25.2.0, SVG Export Plug-In . SVG Version: 6.00 Build 0)  -->
<svg version="1.1" id="Capa_1" xmlns="http://www.w3.org/2000/svg" xmlns:xlink="http://www.w3.org/1999/xlink" x="0px" y="0px"
	 viewBox="0 0 40 40" style="enable-background:new 0 0 40 40;" xml:space="preserve">
<style type="text/css">
	.st0{clip-path:url(#SVGID_2_);fill:#2670CA;}
	.st1{clip-path:url(#SVGID_2_);fill:#FFFFFF;}
</style>
<g>
	<defs>
		<rect id="SVGID_1_" x="0.4" y="0.4" width="39.2" height="39.2"/>
	</defs>
	<clipPath id="SVGID_2_">
		<use xlink:href="#SVGID_1_"  style="overflow:visible;"/>
	</clipPath>
	<path class="st0" d="M20,39.6c10.8,0,19.6-8.8,19.6-19.6C39.6,9.2,30.8,0.4,20,0.4S0.4,9.2,0.4,20C0.4,30.8,9.2,39.6,20,39.6"/>
	<path class="st1" d="M16,19.5L16,19.5c0-0.3,0.3-0.5,0.5-0.5c0.1,0,0.2,0,0.3,0.1l2.2,1.5v-2.1c0-0.3,0.2-0.5,0.5-0.5
		c0.1,0,0.2,0,0.3,0.1l3,2c0.1,0.1,0.2,0.2,0.2,0.4c0,0.3-0.2,0.5-0.5,0.5c-0.1,0-0.2,0-0.3-0.1L20,19.4v2.1c0,0.3-0.2,0.5-0.5,0.5
		c-0.1,0-0.2,0-0.3-0.1l-3-2C16.1,19.8,16,19.7,16,19.5 M28,18.5c0-0.3-0.2-0.5-0.5-0.5H27v4h0.5c0.3,0,0.5-0.2,0.5-0.5V18.5z
		 M26,17.5c0-0.8-0.7-1.5-1.5-1.5h-11c-0.8,0-1.5,0.7-1.5,1.5v5c0,0.8,0.7,1.5,1.5,1.5h11c0.8,0,1.5-0.7,1.5-1.5V17.5z M11,22.5v-5
		c0-1.4,1.1-2.5,2.5-2.5h11c1.2,0,2.2,0.8,2.4,2h0.6c0.8,0,1.5,0.7,1.5,1.5v3c0,0.8-0.7,1.5-1.5,1.5h-0.6c-0.2,1.2-1.3,2-2.4,2h-11
		C12.1,25,11,23.9,11,22.5"/>
</g>
</svg>
