<svg id="Capa_1" data-name="Capa 1" xmlns="http://www.w3.org/2000/svg" xmlns:xlink="http://www.w3.org/1999/xlink" viewBox="0 0 69 69"><defs><style>.cls-1,.cls-3{fill:none;}.cls-2{fill:#3eae49;}.cls-3{stroke:#fff;}.cls-4{clip-path:url(#clip-path);}.cls-5{fill:#fddb00;}.cls-6{fill:#ea1f27;}.cls-7{fill:#f5f5f5;}</style><clipPath id="clip-path"><rect class="cls-1" x="14.67" y="13.41" width="39.29" height="40.46"/></clipPath></defs><g id="Group_551" data-name="Group 551"><g id="Ellipse_47" data-name="Ellipse 47"><circle class="cls-2" cx="34.5" cy="34.5" r="34.5"/><circle class="cls-3" cx="34.5" cy="34.5" r="34"/></g><g id="Group_529" data-name="Group 529"><g class="cls-4"><g id="Group_529-2" data-name="Group 529-2"><path id="Path_600" data-name="Path 600" class="cls-5" d="M34.94,33.94l16.64,19.4s2.29,1.91,2.29-1.5V45.71c0-2.32.2-4.63,0-6.94a16.57,16.57,0,0,0-3.09-7c-1.5-2.21-3.48-4.82-5.68-6.23,0,0-2-1.2-4.78,2.11S34.94,34,34.94,34"/><path id="Path_601" data-name="Path 601" class="cls-6" d="M17.41,52.64l1.49-1.81c1.3-1.51,2.6-3,3.89-4.52l5.08-6c1.79-2.12,3.69-4.23,5.48-6.34s3.89-4.52,5.88-6.73c1.3-1.51,3.08-4,5.38-2.82,1.09.5,3.19,2.92,3.58,3,0-.2-2.29-2.71-2.79-3.32-1-1-5.67-6.53-7.17-8.24a8.56,8.56,0,0,0-.9-1s-2.59-3.21-5.77,0S20.8,27.41,20.8,27.41s-5.58,7.44-5.88,9.85a35.63,35.63,0,0,0-.2,6.53c0,2.32.1,4.63.1,6.94.1,1.61,1.1,3.72,2.59,1.91"/><path id="Path_602" data-name="Path 602" class="cls-5" d="M34.94,33.94l16.64,19.4s2.29,1.91,2.29-1.5V45.71c0-2.32.2-4.63,0-6.94a16.57,16.57,0,0,0-3.09-7c-1.5-2.21-3.48-4.82-5.68-6.23,0,0-2-1.2-4.78,2.11S34.94,34,34.94,34"/><path id="Path_603" data-name="Path 603" class="cls-6" d="M17.41,52.64l1.49-1.81c1.3-1.51,2.6-3,3.89-4.52l5.08-6c1.79-2.12,3.69-4.23,5.48-6.34s3.89-4.52,5.88-6.73c1.3-1.51,3.08-4,5.38-2.82,1.09.5,3.19,2.92,3.58,3,0-.2-2.29-2.71-2.79-3.32-1-1-5.67-6.53-7.17-8.24a8.56,8.56,0,0,0-.9-1s-2.59-3.21-5.77,0S20.8,27.41,20.8,27.41s-5.58,7.44-5.88,9.85a35.63,35.63,0,0,0-.2,6.53c0,2.32.1,4.63.1,6.94.1,1.61,1.1,3.72,2.59,1.91"/><path id="Path_604" data-name="Path 604" class="cls-7" d="M47.8,19.27H48a.28.28,0,0,0,.3-.23V19c0-.1-.1-.2-.3-.2h-.2Zm0,.8h-.4V18.56c.2,0,.4-.09.6-.09a3.11,3.11,0,0,1,.6.09c.1.1.1.2.1.41a.28.28,0,0,1-.23.3H48.4v.1c.2,0,.2.1.3.3a.58.58,0,0,0,.1.4h-.4a1,1,0,0,1-.1-.4c0-.1-.1-.2-.3-.2h-.2Zm-1-.8a1.2,1.2,0,1,0,2.39.21v-.21A1.21,1.21,0,0,0,48.1,18a1.19,1.19,0,0,0-1.3,1.09.74.74,0,0,0,0,.21m2.88,0A1.67,1.67,0,0,1,48,20.88a1.59,1.59,0,0,1-1.59-1.57v0a1.49,1.49,0,0,1,1.49-1.51H48a1.6,1.6,0,0,1,1.7,1.47v0"/></g></g></g></g></svg>