<svg id="Capa_1" data-name="Capa 1" xmlns="http://www.w3.org/2000/svg" xmlns:xlink="http://www.w3.org/1999/xlink" viewBox="0 0 39.2 39.2"><defs><style>.cls-1,.cls-4{fill:none;}.cls-2{clip-path:url(#clip-path);}.cls-3{fill:#fff;}.cls-4{stroke:#a6bdd1;stroke-miterlimit:10;stroke-width:0.9px;}</style><clipPath id="clip-path" transform="translate(0.24)"><rect class="cls-1" x="-0.24" width="39.2" height="39.2"/></clipPath></defs><g class="cls-2"><path class="cls-3" d="M19.36,39.2A19.6,19.6,0,1,0-.24,19.6a19.59,19.59,0,0,0,19.6,19.6" transform="translate(0.24)"/><path class="cls-4" d="M23.36,22.82a4,4,0,0,0-8,0m12,0v-2H25.68A6.21,6.21,0,0,0,24.89,19l1.19-1.18L24,15.67l-1.19,1.17a9.74,9.74,0,0,0-1.91-.78V14.39h-3v1.67a6.62,6.62,0,0,0-1.9.78l-1.19-1.17-2.12,2.1L13.84,19a6.6,6.6,0,0,0-.8,1.89H11.36v2m18,1.49h-20V12.41a1,1,0,0,1,1-1h18a1,1,0,0,1,1,1ZM17.86,25.8h3m8,2h-19a2,2,0,0,1-2-2V24.31h23V25.8A2,2,0,0,1,28.86,27.78Z" transform="translate(0.24)"/></g></svg>