<?xml version="1.0" encoding="utf-8"?>
<!-- Generator: Adobe Illustrator 25.2.0, SVG Export Plug-In . SVG Version: 6.00 Build 0)  -->
<svg version="1.1" id="Capa_1" xmlns="http://www.w3.org/2000/svg" xmlns:xlink="http://www.w3.org/1999/xlink" x="0px" y="0px"
	 viewBox="0 0 40 40" style="enable-background:new 0 0 40 40;" xml:space="preserve">
<style type="text/css">
	.st0{clip-path:url(#SVGID_2_);}
	.st1{clip-path:url(#SVGID_4_);fill:none;stroke:#EEF1F3;stroke-miterlimit:10;}
	.st2{opacity:0.25;clip-path:url(#SVGID_4_);}
	.st3{clip-path:url(#SVGID_6_);fill:#EEF1F3;}
	.st4{clip-path:url(#SVGID_4_);fill:#FFFFFF;}
</style>
<g>
	<defs>
		<rect id="SVGID_1_" x="1" y="1" width="38.1" height="38.1"/>
	</defs>
	<clipPath id="SVGID_2_">
		<use xlink:href="#SVGID_1_"  style="overflow:visible;"/>
	</clipPath>
	<g class="st0">
		<defs>
			<rect id="SVGID_3_" x="1" y="1" width="38.1" height="38.1"/>
		</defs>
		<clipPath id="SVGID_4_">
			<use xlink:href="#SVGID_3_"  style="overflow:visible;"/>
		</clipPath>
		<path class="st1" d="M20,38.6c10.3,0,18.6-8.3,18.6-18.6C38.6,9.7,30.3,1.4,20,1.4S1.4,9.7,1.4,20C1.4,30.3,9.7,38.6,20,38.6z"/>
		<g class="st2">
			<g>
				<defs>
					<rect id="SVGID_5_" x="-7.1" y="-5.2" width="54.2" height="44.7"/>
				</defs>
				<clipPath id="SVGID_6_">
					<use xlink:href="#SVGID_5_"  style="overflow:visible;"/>
				</clipPath>
				<path class="st3" d="M20,38.6c10.3,0,18.6-8.3,18.6-18.6C38.6,9.7,30.3,1.4,20,1.4S1.4,9.7,1.4,20C1.4,30.3,9.7,38.6,20,38.6"/>
			</g>
		</g>
		<path class="st4" d="M26.2,26.2h-0.9c-0.3,0-0.5-0.2-0.5-0.5s0.2-0.5,0.5-0.5h0.9c0.3,0,0.5,0.2,0.5,0.5S26.4,26.2,26.2,26.2
			 M15.3,14.8v5.7h6.6v-3.3c0-0.8,0.7-1.4,1.4-1.4h1.4v-0.9H15.3z M14.8,12.9c-0.8,0-1.4,0.7-1.4,1.4v8.1h8.5v-0.9h-7.1
			c-0.3,0-0.5-0.2-0.5-0.5v-6.6c0-0.3,0.2-0.5,0.5-0.5h10.4c0.3,0,0.5,0.2,0.5,0.5v1.4h0.9v-1.4c0-0.8-0.7-1.4-1.4-1.4H14.8z
			 M11.6,23.3c0.2,0.6,0.8,0.9,1.3,0.9h9v-0.9H11.6z M23.3,16.7c-0.3,0-0.5,0.2-0.5,0.5v9.5c0,0.3,0.2,0.5,0.5,0.5h4.7
			c0.3,0,0.5-0.2,0.5-0.5v-9.5c0-0.3-0.2-0.5-0.5-0.5H23.3z M28.1,28.1h-4.7c-0.8,0-1.4-0.7-1.4-1.4v-1.4h-9c-1.3,0-2.4-1-2.4-2.4
			c0-0.3,0.2-0.5,0.5-0.5h1.4v-8.1c0-1.3,1-2.4,2.4-2.4h10.4c1.3,0,2.4,1,2.4,2.4v1.4h0.5c0.8,0,1.4,0.7,1.4,1.4v9.5
			C29.5,27.4,28.8,28.1,28.1,28.1"/>
	</g>
</g>
</svg>
