<?xml version="1.0" encoding="utf-8"?>
<!-- Generator: Adobe Illustrator 25.2.0, SVG Export Plug-In . SVG Version: 6.00 Build 0)  -->
<svg version="1.1" id="Capa_1" xmlns="http://www.w3.org/2000/svg" xmlns:xlink="http://www.w3.org/1999/xlink" x="0px" y="0px"
	 viewBox="0 0 40 40" style="enable-background:new 0 0 40 40;" xml:space="preserve">
<style type="text/css">
	.st0{fill:#EEF2F4;}
	.st1{fill:#A6BCD0;}
</style>
<g>
	<circle id="Ellipse_8" class="st0" cx="20" cy="20" r="19.6"/>
	<g transform="translate(-1625.5 -431.5)">
		<path class="st1" d="M1647.3,461c-1.3,0-2.7-0.6-3.5-1.6l-4.2-5.1c-0.4-0.5-0.5-1.2-0.2-1.8v-0.1c0.3-0.6,0.9-1,1.4-1
			s1.1,0.2,1.5,0.6l0.9,0.8c0.1,0.1,0.2,0.1,0.3,0.1c0.1,0,0.1,0,0.2,0c0.1-0.1,0.2-0.2,0.2-0.4v-4.2c-1.6-0.8-2.4-2.8-1.6-4.5
			c0.8-1.6,2.8-2.4,4.5-1.6c1.7,0.8,2.4,2.8,1.6,4.5c-0.3,0.7-0.9,1.2-1.6,1.6v0.4c0.8-0.3,1.5,0.1,1.8,0.9v0.1
			c0.8-0.3,1.5,0.1,1.8,0.8c0,0.1,0,0.1,0.1,0.2c0.8-0.3,1.5,0.1,1.8,0.8c0.1,0.2,0.1,0.4,0.1,0.6v3.8
			C1652.6,458.7,1650.2,461,1647.3,461z M1640.8,452.5c-0.3,0-0.5,0.2-0.6,0.4v0.1c-0.1,0.3-0.1,0.6,0.1,0.9l4.2,5.1
			c0.7,0.9,1.7,1.3,2.8,1.3c2.4,0,4.3-1.9,4.3-4.3v-3.8c0-0.3-0.2-0.5-0.5-0.5s-0.5,0.2-0.5,0.5v1c0,0.3-0.2,0.5-0.5,0.5
			s-0.5-0.2-0.5-0.5v-1.9c0-0.3-0.2-0.5-0.5-0.5s-0.5,0.2-0.5,0.5v1.9c0,0.3-0.2,0.5-0.5,0.5c-0.3,0-0.5-0.2-0.5-0.5v-2.9
			c0-0.3-0.2-0.5-0.5-0.5s-0.5,0.2-0.5,0.5v2.9c0,0.3-0.2,0.5-0.5,0.5c-0.3,0-0.5-0.2-0.5-0.5v-7.6c0-0.3-0.2-0.5-0.5-0.5
			s-0.5,0.2-0.5,0.5v7.2c0,0.5-0.3,1-0.8,1.2c-0.5,0.2-1,0.2-1.4-0.2l-0.9-0.8C1641.6,452.5,1641.2,452.5,1640.8,452.5z
			 M1645.4,443.9c0.8,0,1.4,0.7,1.4,1.4v1.9c1-0.8,1.2-2.3,0.5-3.3c-0.8-1-2.3-1.2-3.3-0.5s-1.2,2.3-0.5,3.3
			c0.1,0.2,0.3,0.4,0.5,0.5v-1.9C1644,444.5,1644.6,443.9,1645.4,443.9z"/>
	</g>
</g>
</svg>
