<svg xmlns="http://www.w3.org/2000/svg" viewBox="0 0 39.2 39.2"><defs><style>.cls-1{fill:#007dc3;}.cls-2{fill:#fff;}</style></defs><g id="Capa_2" data-name="Capa 2"><g id="Capa_1-2" data-name="Capa 1"><path class="cls-1" d="M19.6,39.2A19.6,19.6,0,1,0,0,19.6,19.61,19.61,0,0,0,19.6,39.2"/><path class="cls-2" d="M23.11,20.75a.5.5,0,0,0-.5.5v2a.5.5,0,0,0,.5.5h1a.51.51,0,0,0,.5-.5v-2a.5.5,0,0,0-.5-.5Zm1,4h-1a1.5,1.5,0,0,1-1.5-1.5v-2a1.5,1.5,0,0,1,1.5-1.5h1a1.5,1.5,0,0,1,1.5,1.5v2a1.5,1.5,0,0,1-1.5,1.5m.5-10a.5.5,0,0,1,.5.5v1a.5.5,0,0,0,.5.5h2.5a.51.51,0,0,0,.5-.5v-.81a.43.43,0,0,0,0-.19l-1.8-4.5H12.45l-1.8,4.5a.43.43,0,0,0,0,.19v.81a.5.5,0,0,0,.5.5h2.5a.51.51,0,0,0,.5-.5v-1a.5.5,0,0,1,.5-.5.5.5,0,0,1,.5.5v1a.5.5,0,0,0,.5.5h3a.51.51,0,0,0,.5-.5v-1a.5.5,0,0,1,.5-.5.5.5,0,0,1,.5.5v1a.5.5,0,0,0,.5.5h3a.51.51,0,0,0,.5-.5v-1a.5.5,0,0,1,.5-.5m-9.5,6a.5.5,0,0,0-.5.5v5.5h4v-5.5a.5.5,0,0,0-.5-.5Zm11,7h-13a2.5,2.5,0,0,1-2.5-2.5V17.66a1.43,1.43,0,0,0,.5.09h.5v7.5a1.5,1.5,0,0,0,1.5,1.5h.5v-5.5a1.5,1.5,0,0,1,1.5-1.5h3a1.5,1.5,0,0,1,1.5,1.5v5.5h6.5a1.5,1.5,0,0,0,1.5-1.5v-7.5h-2a1.48,1.48,0,0,1-1-.39,1.5,1.5,0,0,1-1,.39h-3a1.48,1.48,0,0,1-1-.39,1.5,1.5,0,0,1-1,.39h-3a1.48,1.48,0,0,1-1-.39,1.5,1.5,0,0,1-1,.39h-2v-.5h-1v.41a1.5,1.5,0,0,1-1-1.41v-.81a1.54,1.54,0,0,1,.1-.56l1.93-4.82a.5.5,0,0,1,.47-.31h15a.49.49,0,0,1,.46.31l1.93,4.82a1.55,1.55,0,0,1,.11.56v.81a1.5,1.5,0,0,1-1,1.41v-.41h-1v.5h.5a1.43,1.43,0,0,0,.5-.09v7.59a2.5,2.5,0,0,1-2.5,2.5"/></g></g></svg>