<svg id="Capa_1" data-name="Capa 1" xmlns="http://www.w3.org/2000/svg" xmlns:xlink="http://www.w3.org/1999/xlink" viewBox="0 0 88.5 38.49"><defs><style>.cls-1{fill:none;}.cls-2{clip-path:url(#clip-path);}.cls-3{fill:#fbb800;}.cls-4{opacity:0.4;}.cls-5{clip-path:url(#clip-path-3);}.cls-6{opacity:0.2;}.cls-7{clip-path:url(#clip-path-4);}</style><clipPath id="clip-path" transform="translate(-1.75 -2.76)"><rect class="cls-1" x="1.75" y="2.76" width="88.5" height="38.49"/></clipPath><clipPath id="clip-path-3" transform="translate(-1.75 -2.76)"><rect class="cls-1" x="19.93" y="-23.79" width="46.69" height="91.59"/></clipPath><clipPath id="clip-path-4" transform="translate(-1.75 -2.76)"><rect class="cls-1" x="-1.2" y="-23.41" width="38.99" height="90.81"/></clipPath></defs><g class="cls-2"><g class="cls-2"><path class="cls-3" d="M71,2.76a19.56,19.56,0,0,1,3.85.38,19.26,19.26,0,0,1,0,37.72,19.69,19.69,0,0,1-7.7,0,19.26,19.26,0,0,1,0-37.72A19.48,19.48,0,0,1,71,2.76" transform="translate(-1.75 -2.76)"/><g class="cls-4"><g class="cls-5"><path class="cls-3" d="M42.12,2.76A19.48,19.48,0,0,1,46,3.14V40.86a19.69,19.69,0,0,1-7.7,0,19.26,19.26,0,0,1,0-37.72,19.56,19.56,0,0,1,3.85-.38" transform="translate(-1.75 -2.76)"/></g></g><g class="cls-6"><g class="cls-7"><path class="cls-3" d="M17.14,3.14V40.86a19.26,19.26,0,0,1,0-37.72" transform="translate(-1.75 -2.76)"/></g></g></g></g></svg>