<svg xmlns="http://www.w3.org/2000/svg" viewBox="0 0 39.2 39.2"><defs><style>.cls-1{fill:#fff;}.cls-2{fill:#a6bdd1;}</style></defs><g id="Capa_2" data-name="Capa 2"><g id="Capa_1-2" data-name="Capa 1"><path class="cls-1" d="M19.6,39.2A19.6,19.6,0,1,0,0,19.6,19.61,19.61,0,0,0,19.6,39.2"/><path class="cls-2" d="M13,14.73l1,6H26.7l1.7-6Zm14.1,10H15.8a2.57,2.57,0,0,1-2.5-2.1l-.2-1.3L11.9,14a1.5,1.5,0,0,0-1.5-1.3h-.3a.5.5,0,1,1,0-1h.3a2.56,2.56,0,0,1,2.5,2H29.1a.47.47,0,0,1,.5.5v.1l-2,7a.66.66,0,0,1-.5.4H14.2l.1.7a1.5,1.5,0,0,0,1.5,1.3H27.1a.5.5,0,0,1,0,1m-11.5,2a1,1,0,1,0,1,1,.94.94,0,0,0-1-1m0,3a2,2,0,1,1,2-2,2,2,0,0,1-2,2m9-3a1,1,0,1,0,1,1,.94.94,0,0,0-1-1m0,3a2,2,0,1,1,2-2,2,2,0,0,1-2,2"/></g></g></svg>