<svg xmlns="http://www.w3.org/2000/svg" viewBox="0 0 39.2 39.2"><defs><style>.cls-1{fill:#3977bb;}.cls-2{fill:#fff;}</style></defs><g id="Capa_2" data-name="Capa 2"><g id="Capa_1-2" data-name="Capa 1"><path class="cls-1" d="M19.6,39.2A19.6,19.6,0,1,0,0,19.6,19.6,19.6,0,0,0,19.6,39.2"/><path class="cls-2" d="M24,19.47a3.24,3.24,0,0,0-1.66-1.37,5,5,0,0,0,1.12-1.76,1.53,1.53,0,1,0,0-3.05,4.59,4.59,0,0,0-8.65,0,1.53,1.53,0,1,0,0,3.05,4.73,4.73,0,0,0,1.12,1.76,3.28,3.28,0,0,0-1.66,1.37,9.37,9.37,0,0,1-2-3.94,6.88,6.88,0,0,1,13.75,0,9.37,9.37,0,0,1-2,3.94m2,3.24a6.88,6.88,0,0,1-11.66,4.94,17.26,17.26,0,0,1,6-4.23A12.12,12.12,0,0,0,26,18.35Zm-9-3.82a4.52,4.52,0,0,0,4.17,0,2.28,2.28,0,0,1,2,1.37,11.19,11.19,0,0,1-3.33,2.24l-.82.39-.81-.39a11.51,11.51,0,0,1-3.34-2.24A2.43,2.43,0,0,1,17,18.89m.64-5.17a2,2,0,0,0,3.48-1.45,1.15,1.15,0,0,0,0-.41,3.53,3.53,0,0,1,1.45,2.06.5.5,0,0,0,.49.39h.4a.5.5,0,0,1,.51.5.51.51,0,0,1-.51.51h-.38a.49.49,0,0,0-.48.39,3.56,3.56,0,0,1-6.9,0,.5.5,0,0,0-.48-.39h-.41a.51.51,0,0,1-.51-.51.5.5,0,0,1,.51-.5h.38a.49.49,0,0,0,.48-.39,3.6,3.6,0,0,1,3.47-2.67.9.9,0,0,1,.71.31,1,1,0,0,1,.3.71,1,1,0,0,1-.3.71,1.06,1.06,0,0,1-1.45,0,.5.5,0,0,0-.71,0,.57.57,0,0,0,0,.74m-4,13.16a7.06,7.06,0,0,1-1.4-4.17V18.35a11.83,11.83,0,0,0,5.65,5.07l.11,0a17.16,17.16,0,0,0-4.36,3.41M19.12,7.69a7.91,7.91,0,0,0-7.9,7.86v7.16a7.9,7.9,0,0,0,15.79,0V15.58a7.89,7.89,0,0,0-7.89-7.89"/></g></g></svg>