<svg id="Capa_1" data-name="Capa 1" xmlns="http://www.w3.org/2000/svg" xmlns:xlink="http://www.w3.org/1999/xlink" viewBox="0 0 39.2 39.2"><defs><style>.cls-1{fill:none;}.cls-2{clip-path:url(#clip-path);}.cls-3{fill:#0071ce;}.cls-4{fill:#fff;}</style><clipPath id="clip-path" transform="translate(0.47)"><rect class="cls-1" x="-0.47" width="39.2" height="39.2"/></clipPath></defs><g class="cls-2"><path class="cls-3" d="M19.13,39.2A19.6,19.6,0,1,0-.47,19.6a19.6,19.6,0,0,0,19.6,19.6" transform="translate(0.47)"/><path class="cls-4" d="M18.63,10.58h-3a.5.5,0,0,1,0-1h3a.5.5,0,0,1,0,1m-3,5a1.34,1.34,0,0,0-1.5,1.1v.4c0,1.1,1,2.2,3,3.4,2-1.2,3-2.3,3-3.4a1.34,1.34,0,0,0-1.1-1.5h-.4a1.23,1.23,0,0,0-1.1.7c-.1.3-.4.4-.6.2a.22.22,0,0,1-.2-.2,1.23,1.23,0,0,0-1.1-.7m1.5,6c-.1,0-.2,0-.2-.1-2.6-1.4-3.8-2.9-3.8-4.4a2.27,2.27,0,0,1,2.1-2.5h.4a2,2,0,0,1,1.5.6,2,2,0,0,1,1.5-.6,2.27,2.27,0,0,1,2.5,2.1v.4c0,1.5-1.2,3-3.8,4.4,0,.1-.1.1-.2.1m-3.5-13a1.54,1.54,0,0,0-1.5,1.5v16a1.54,1.54,0,0,0,1.5,1.5h3.2l-.1-.1a2,2,0,0,1-.4-1.8,1.63,1.63,0,0,1,1.5-1.1,3,3,0,0,1,1.5.5,2.73,2.73,0,0,0,1.8.5.94.94,0,0,0,1-1V10.08a2.1,2.1,0,0,0-.4-1.1,2.1,2.1,0,0,0-1.1-.4Zm13,23a.47.47,0,0,1-.5-.5v-9a3.63,3.63,0,0,0-3-3.5v6a2,2,0,0,1-2,2,4.2,4.2,0,0,1-2.4-.7,1.61,1.61,0,0,0-.9-.3.51.51,0,0,0-.5.4.8.8,0,0,0,.2.9l3.5,3.9a.49.49,0,1,1-.7.7l-2.6-2.9h-4.1a2.48,2.48,0,0,1-2.5-2.5v-16a2.48,2.48,0,0,1,2.5-2.5h7a2.48,2.48,0,0,1,2.5,2.5v7.5a4.54,4.54,0,0,1,4,4.5v9a.47.47,0,0,1-.5.5" transform="translate(0.47)"/></g></svg>