<?xml version="1.0" encoding="utf-8"?>
<!-- Generator: Adobe Illustrator 25.2.0, SVG Export Plug-In . SVG Version: 6.00 Build 0)  -->
<svg version="1.1" id="Capa_1" xmlns="http://www.w3.org/2000/svg" xmlns:xlink="http://www.w3.org/1999/xlink" x="0px" y="0px"
	 viewBox="0 0 40 40" style="enable-background:new 0 0 40 40;" xml:space="preserve">
<style type="text/css">
	.st0{clip-path:url(#SVGID_2_);fill:#2670CA;}
	.st1{clip-path:url(#SVGID_2_);fill:#FFFFFF;}
</style>
<g>
	<defs>
		<rect id="SVGID_1_" x="0.4" y="0.4" width="39.2" height="39.2"/>
	</defs>
	<clipPath id="SVGID_2_">
		<use xlink:href="#SVGID_1_"  style="overflow:visible;"/>
	</clipPath>
	<path class="st0" d="M20,39.6c10.8,0,19.6-8.8,19.6-19.6C39.6,9.2,30.8,0.4,20,0.4S0.4,9.2,0.4,20C0.4,30.8,9.2,39.6,20,39.6"/>
	<path class="st1" d="M19,11c-3.9,0-7,3.1-7,7s3.1,7,7,7s7-3.1,7-7c0-1.2-0.3-2.4-0.9-3.5C23.8,12.3,21.5,11,19,11 M28.5,28
		c-0.1,0-0.3-0.1-0.4-0.1L24.3,24c-3.3,2.9-8.4,2.6-11.3-0.7s-2.6-8.4,0.7-11.3s8.4-2.6,11.3,0.7c2.7,3,2.7,7.6,0,10.6l3.9,3.9
		c0.2,0.2,0.2,0.5,0,0.7C28.8,27.9,28.6,28,28.5,28"/>
</g>
</svg>
