<svg xmlns="http://www.w3.org/2000/svg" viewBox="0 0 39.2 39.2"><defs><style>.cls-1{fill:#3977bb;}.cls-2{fill:#fff;}</style></defs><g id="Capa_2" data-name="Capa 2"><g id="Capa_1-2" data-name="Capa 1"><path class="cls-1" d="M19.6,39.2A19.6,19.6,0,1,0,0,19.6,19.6,19.6,0,0,0,19.6,39.2"/><path class="cls-2" d="M22.1,23.6h-7a.5.5,0,0,1,0-1h7a.5.5,0,0,1,0,1m-2,2h-5a.5.5,0,0,1,0-1h5a.5.5,0,0,1,0,1m-1.5-13a2,2,0,1,0,2,2,2,2,0,0,0-2-2m-1.5,4.6-1.3.8a1.46,1.46,0,0,0-.7,1.3v.3h7v-.4a1.71,1.71,0,0,0-.7-1.3l-1.3-.8a2.82,2.82,0,0,1-1.5.4,2,2,0,0,1-1.5-.3m1.5-5.6a3,3,0,0,1,3,3,2.64,2.64,0,0,1-.7,1.9l1,.6a2.47,2.47,0,0,1,1.2,2.1v.4h1.5V11.1a1.54,1.54,0,0,0-1.5-1.5h-9a1.54,1.54,0,0,0-1.5,1.5v8.5h1.5v-.4a2.44,2.44,0,0,1,1.2-2.1l1-.6a2.91,2.91,0,0,1,.4-4.2,2.64,2.64,0,0,1,1.9-.7m-6,9v5.5a1.54,1.54,0,0,0,1.5,1.5h9a1.54,1.54,0,0,0,1.5-1.5V20.6Zm2.1,8a1.5,1.5,0,0,0,1.4,1h9a1.54,1.54,0,0,0,1.5-1.5v-15a1.5,1.5,0,0,0-1-1.4V26.1a2.48,2.48,0,0,1-2.5,2.5Zm10.4,2h-9a2.67,2.67,0,0,1-2.5-2,2.48,2.48,0,0,1-2-2.5v-15a2.48,2.48,0,0,1,2.5-2.5h9a2.67,2.67,0,0,1,2.5,2,2.48,2.48,0,0,1,2,2.5v15a2.48,2.48,0,0,1-2.5,2.5"/></g></g></svg>