<svg xmlns="http://www.w3.org/2000/svg" viewBox="0 0 38.55 38.55"><defs><style>.cls-1{fill:#eef2f4;}.cls-2{fill:#a6bdd1;}</style></defs><g id="Capa_2" data-name="Capa 2"><g id="Capa_1-2" data-name="Capa 1"><path class="cls-1" d="M19.28,38.55A19.28,19.28,0,1,0,0,19.28,19.27,19.27,0,0,0,19.28,38.55"/><path class="cls-2" d="M23,21.28a.47.47,0,0,0-.5.5v2a.47.47,0,0,0,.5.5h1a.47.47,0,0,0,.5-.5v-2a.47.47,0,0,0-.5-.5Zm1,4H23a1.54,1.54,0,0,1-1.5-1.5v-2a1.54,1.54,0,0,1,1.5-1.5h1a1.54,1.54,0,0,1,1.5,1.5v2a1.54,1.54,0,0,1-1.5,1.5m.5-10a.47.47,0,0,1,.5.5v1a.47.47,0,0,0,.5.5H28a.47.47,0,0,0,.5-.5v-1l-1.8-4.5H12.27l-1.8,4.5v1a.47.47,0,0,0,.5.5h2.5a.47.47,0,0,0,.5-.5v-1a.5.5,0,0,1,1,0v1a.47.47,0,0,0,.5.5h3a.47.47,0,0,0,.5-.5v-1a.5.5,0,0,1,1,0v1a.47.47,0,0,0,.5.5h3a.47.47,0,0,0,.5-.5v-1a.47.47,0,0,1,.5-.5m-9.5,6a.47.47,0,0,0-.5.5v5.5h4v-5.5a.47.47,0,0,0-.5-.5Zm11,7H13a2.48,2.48,0,0,1-2.5-2.5v-7.6a.9.9,0,0,0,.5.1h.5v7.5a1.54,1.54,0,0,0,1.5,1.5h.5v-5.5a1.54,1.54,0,0,1,1.5-1.5h3a1.54,1.54,0,0,1,1.5,1.5v5.5H26a1.54,1.54,0,0,0,1.5-1.5v-7.5h-2a1.28,1.28,0,0,1-1-.4,1.78,1.78,0,0,1-1,.4h-3a1.28,1.28,0,0,1-1-.4,1.78,1.78,0,0,1-1,.4h-3a1.28,1.28,0,0,1-1-.4,1.28,1.28,0,0,1-1,.4h-2v-.5h-1v.4a1.5,1.5,0,0,1-1-1.4V16a1.27,1.27,0,0,1,.1-.6l1.9-4.8a.55.55,0,0,1,.5-.3H27a.55.55,0,0,1,.5.3l1.9,4.8a1.27,1.27,0,0,1,.1.6v.8a1.5,1.5,0,0,1-1,1.4v-.4h-1v.5H28a.9.9,0,0,0,.5-.1v7.6a2.48,2.48,0,0,1-2.5,2.5"/></g></g></svg>