<?xml version="1.0" encoding="utf-8"?>
<!-- Generator: Adobe Illustrator 25.1.0, SVG Export Plug-In . SVG Version: 6.00 Build 0)  -->
<svg version="1.1" id="Capa_1" xmlns="http://www.w3.org/2000/svg" xmlns:xlink="http://www.w3.org/1999/xlink" x="0px" y="0px"
	 viewBox="0 0 38.5 38.5" style="enable-background:new 0 0 38.5 38.5;" xml:space="preserve">
<style type="text/css">
	.st0{fill:#7DBED2;}
	.st1{fill:none;stroke:#FFFFFF;stroke-width:0.7;stroke-linecap:round;stroke-linejoin:round;}
</style>
<g id="Capa_2_1_">
	<g id="Capa_1-2">
		<path class="st0" d="M19.3,38.5C8.6,38.6,0,29.9,0,19.3S8.6,0,19.3,0s19.3,8.6,19.3,19.3c0,0,0,0,0,0
			C38.5,29.9,29.9,38.5,19.3,38.5"/>
		<path class="st1" d="M12.4,13.1c0.1,0,0.2,0,0.2-0.1c0.2-0.1,0.3-0.3,0.4-0.6c0-0.1,0-0.3,0-0.4c0.2-0.2,0-0.2,0-0.2v-0.3
			c0,0,0.1-0.3,0.1-0.4c0-0.1-0.1-0.2-0.1-0.3c0.1-0.1,0.2-0.3,0.2-0.4c0.1-0.2,0.1-0.2,0.2-0.3s0-0.3,0-0.5s0-0.2-0.1-0.2
			S13,9.5,13,9.4s0.1-0.2,0-0.2s-0.3,0.2-0.4,0.3c-0.1,0.2-0.2,0.4-0.3,0.6c-0.1,0.3-0.1,0.2-0.4,0s-0.3,0.3-0.3,0.3
			c0.1,0.7,0.1,1.3,0,2c-0.1,0.5-0.1,0.9-0.2,1.4l0.5,0.1c0.1-0.1,0.1-0.3,0.2-0.4C12.2,13.3,12.3,13.1,12.4,13.1z M21.5,15.3
			c-0.1-0.1-0.1-0.2-0.2-0.3c-0.1-0.1-0.3-0.1-0.4-0.1c-0.1,0,0,0.1-0.1,0.1s-0.3-0.2-0.4-0.2s0,0.1,0.2,0.2s-0.1,0.1-0.2,0
			s-0.1-0.1-0.1-0.3s-0.1-0.1-0.2-0.2s0.4,0,0.5,0s-0.5-0.6-0.6-0.6s-0.4,0.1-0.5,0.1s-0.1-0.2-0.3-0.3s-0.4-0.1-0.5,0
			c-0.2,0.1-0.4,0.1-0.7,0.1c-0.2,0-0.3-0.1-0.5-0.1c-0.1-0.1-0.3-0.1-0.3,0s-0.1,0.1-0.3,0.1s-0.2,0.1-0.3,0.1
			c-0.1,0.1-0.2,0.1-0.2,0.1c-0.1,0-0.4-0.1-0.6-0.1s-0.2,0.1-0.3,0.1s-0.6-0.2-0.8-0.1s-0.2-0.1-0.4-0.2s-0.7,0.3-0.7,0.3
			s-0.2,0-0.3-0.1l-0.3,0.2c-0.2,0.2-0.4,0.3-0.6,0.5c-0.2,0.2-0.6,0.3-0.7,0.4c-0.1,0.2-0.1,0.3-0.1,0.5c0.1,0.1,0.1,0.3-0.1,0.4
			c-0.2,0.2-0.2,0.3-0.2,0.3l0,0c0.1,0,0.2,0,0.3,0.1c0.2,0.1,0.1,0,0.3,0.2S11.9,17,12,17s0.2,0.1,0.3,0.2s0.2,0.1,0.3,0.1
			c0,0.1,0.1,0.1,0.2,0.1c0,0,0,0,0,0c0.2-0.1,0.2-0.2,0.4-0.2s0.1,0.1,0.2,0.1s0.1,0.1,0.2,0.1s0.1-0.2,0.2,0s0.1,0.2,0,0.4
			s-0.1,0.2,0,0.3s0.1,0.1-0.1,0.1c-0.1,0-0.1,0-0.1,0.1l0,0l0,0c0,0,0.2,0,0.3-0.1s0.2,0,0.2,0s0.1,0.2,0.1,0.3s0.3,0.2,0.4,0.4
			s0.4,0.2,0.5,0c0.1-0.1,0.2-0.3,0.1-0.5c0-0.2,0.2,0.1,0.2,0c0.1-0.1,0.1-0.3,0.1-0.4c-0.1-0.2-0.1-0.3-0.1-0.4s0.5,0,0.6,0
			s0.1,0.2,0.2,0s0.1-0.3,0.3-0.4c0.1-0.1,0.3,0,0.4,0.1c0.1,0.1,0.3,0.3,0.3,0.2s-0.1-0.2,0.1-0.3s0.3,0,0.3-0.1
			c0.1-0.1,0.1-0.2,0.2-0.3c0,0,0.1-0.2,0.2-0.1s0,0,0.2-0.3s0.2-0.1,0.2-0.2c0-0.1,0-0.2,0-0.3c0.1,0,0.2-0.1,0.3-0.1
			c0.1,0,0-0.1,0.2,0.1c0.1,0.1,0.3,0.2,0.4,0.2c0.1,0,0.2,0,0.3,0c0.2-0.1,0.4-0.2,0.6-0.2c0.1,0,0.2-0.1,0.3-0.1
			c0.1,0,0.4-0.1,0.4-0.1s0-0.2,0.2-0.2c0.2,0,0.3,0,0.5,0.1C21.7,15.6,21.6,15.4,21.5,15.3z M23.5,25.8c0,0.1,0,0.1,0.1,0.2
			c0.1,0,0.2,0.1,0.2,0c0-0.1,0-0.1-0.1-0.2C23.7,25.8,23.5,25.8,23.5,25.8L23.5,25.8z M23.3,25.4c0,0,0,0.1,0,0.1
			c0.1,0,0.1,0.1,0.1,0.1s0.1,0.1,0.2,0s0.1,0,0.1-0.1c-0.1,0-0.1-0.1-0.2-0.1C23.4,25.5,23.4,25.5,23.3,25.4
			C23.4,25.4,23.3,25.3,23.3,25.4L23.3,25.4z M29.2,27.1c0,0.1,0,0.2,0,0.2c0,0.1,0.1,0,0.1,0s0.1-0.3,0-0.3S29.2,27,29.2,27.1
			 M25.1,28.8c0,0-0.2,0.1-0.1,0.1c0.1,0,0.2,0,0.3-0.1c0.1-0.1,0.1-0.2-0.1-0.1L25.1,28.8z M24.2,28.6c0,0-0.2,0.1-0.2,0.2
			c0,0.1,0.1,0.2,0.2,0.3c0.1,0.1,0.3,0.2,0.3,0.1S24.4,29,24.4,29s-0.1,0-0.1-0.1S24.5,28.6,24.2,28.6L24.2,28.6z M21,19.9
			c0,0,0,0.1,0.1,0.2c0.1,0.1,0.1,0.1,0.2,0.1c0,0,0.1-0.1,0-0.2s-0.1-0.1-0.1-0.1C21.1,19.9,21.1,19.9,21,19.9z M17.5,21.6
			c0,0-0.1,0.1,0,0.2s0,0.2,0.2,0.2s0.2-0.1,0.1-0.3C17.7,21.6,17.6,21.6,17.5,21.6L17.5,21.6z M17.2,21.7c-0.1-0.1-0.1-0.3-0.1-0.5
			c-0.1-0.4-0.1-0.6,0-0.6c0.3,0,0.5,0.1,0.7,0.3c0.1,0.1,0.2,0.2,0.3,0.3c0.1,0.1,0.2,0.2,0.4,0.3c0.1,0.1,0.4,0.4,0.4,0.4
			s0.1,0.2,0.1,0.3s0,0.4-0.2,0.3s-0.4-0.1-0.5-0.1s-0.2-0.2-0.3-0.2s-0.2,0.2-0.4-0.1S17.2,21.7,17.2,21.7L17.2,21.7z M20.9,22.7
			L20.9,22.7z M20.9,22.7L20.9,22.7z M22.7,25.1c-0.2-0.1-0.1-0.1-0.4-0.4c-0.4-0.4-0.7-0.9-1-1.4c0,0-0.2-0.4-0.2-0.5
			s0.1,0.5-0.4,0.3s-0.4,0-0.5-0.1s-0.3-0.2-0.3-0.3c-0.1-0.1-0.2-0.1-0.3-0.1l-0.3,0c-0.1,0.1-0.2,0.2-0.4,0.2
			c-0.2,0-0.4-0.1-0.6-0.2c-0.1,0-0.5-0.2-0.5-0.2s-0.1-0.2-0.2-0.1s0.2,0.2-0.2,0.3l0,0c0,0.1,0,0,0,0.1s-0.2,0.1-0.3,0.1
			s0,0,0.1,0.2c0,0.1,0.1,0.1,0.2,0c0,0,0,0,0,0c0,0.1,0.1,0.2,0.1,0.4c0,0.1,0,0.2-0.2,0.3c-0.1,0.1-0.2,0.3-0.1,0.5
			c0.1,0.3,0.3,0.5,0.6,0.6c0.4,0.2,0.4,0.3,0.5,0.4s0.1,0,0.2,0s0.2-0.1,0.3-0.2s0-0.2-0.1-0.2c-0.2-0.1-0.3-0.2-0.4-0.4
			c-0.1-0.1,0.2-0.1,0.2-0.1l0.4,0.2c0.1,0,0.1,0.1,0.2,0.1c0,0,0.2,0.2,0.3,0.4s-0.1,0.2-0.1,0.3s0.1,0.1,0.3,0.2s0.4,0,0.5,0.1
			s0.4,0.2,0.4,0.2c0.2,0.2,0.4,0.3,0.6,0.5c0.2,0.1,0,0.3,0.1,0.4s-0.2,0.2-0.2,0.3S21,27,21,27.1s0.3,0.1,0.3,0.1
			c0.1,0,0.2,0.1,0.3,0.1c0,0,0-0.2-0.1-0.3s-0.1-0.1-0.2-0.2s0.1-0.2,0.1-0.2c0.1,0,0.2,0,0.3,0.1c0.1,0.1,0.1,0.2,0.2,0.3
			c0,0.1,0,0.2,0,0.3c0.1,0.1,0.2,0.2,0.3,0.3c0,0,0.1,0.1,0.1,0.1c0,0,0.2-0.1,0-0.3s-0.2-0.1-0.1-0.2s0.4-0.1,0.3-0.3
			s-0.2-0.2-0.2-0.3s-0.1-0.2,0-0.2s0.3-0.1,0.2-0.2S22.2,26,22.2,26c0-0.1-0.1-0.2-0.1-0.3c0-0.1,0.1-0.3,0.1-0.4l0.1-0.1
			c0,0,0.2-0.1,0.3,0s0.2-0.1,0.2-0.1C22.8,25.1,22.7,25.1,22.7,25.1L22.7,25.1z M20.9,22.7L20.9,22.7z M21.8,15.5
			c-0.2,0-0.3-0.1-0.5-0.1c-0.1,0-0.1,0.1-0.2,0.2s-0.3,0.1-0.4,0.1c-0.1,0-0.2,0.1-0.3,0.1C20.2,16,20,16,19.8,16.1
			c-0.1,0-0.2,0-0.3,0c-0.2,0-0.3-0.1-0.4-0.2c-0.1-0.2-0.1-0.1-0.2-0.1c-0.1,0-0.2,0.1-0.3,0.1c0,0.1,0,0.2,0,0.3
			c0,0.1,0,0-0.2,0.2s-0.1,0.3-0.2,0.3s-0.1,0.1-0.2,0.1c-0.1,0.1-0.1,0.2-0.2,0.3c0,0.1-0.1,0-0.3,0.1s-0.1,0.2-0.1,0.3
			s-0.2-0.1-0.3-0.2c-0.1-0.1-0.2-0.1-0.4-0.1c-0.1,0-0.2,0.2-0.3,0.4s-0.1,0-0.2,0s-0.5-0.1-0.6,0s0,0.2,0.1,0.4
			c0,0.1,0,0.3-0.1,0.4c-0.1,0.1-0.2-0.2-0.2,0c0,0.2,0,0.3-0.1,0.5c-0.1,0.2-0.5,0-0.5,0s-0.1,0.2-0.2,0.2s-0.1-0.3-0.4-0.3
			s-0.1,0.4,0.1,0.4s0.1,0.1,0.2,0.2s0.7,0.6,0.8,0.7s0.2,0.1,0.4,0.3c0.1,0.2,0.2,0.4,0.3,0.6c0.1,0.2,0.3,0.3,0.4,0.4
			c0.2,0.2,0.3,0.3,0.5,0.5c0.2,0.2,0.4,0.4,0.5,0.6l0,0c0.4,0,0.2-0.2,0.2-0.3s0.2,0.1,0.2,0.1s0.4,0.1,0.5,0.2
			c0.2,0.1,0.4,0.1,0.6,0.2c0.1,0,0.3,0,0.4-0.2l0.3,0c0.1,0,0.2,0.1,0.3,0.1c0,0.1,0.2,0.2,0.3,0.3s0,0,0.5,0.1s0.4-0.3,0.4-0.3
			s-0.3-0.3-0.3-0.5c0-0.2,0-0.4,0.1-0.5c0.1-0.2,0.2-0.2,0.2-0.3s0-0.2-0.1-0.2s-0.1,0-0.1-0.2s0.1-0.1,0.2-0.4s-0.1-0.5-0.1-0.6
			s0.1-0.3,0.2-0.3s0.1-0.2,0-0.3s0.2,0,0.2,0s0-0.2,0-0.4c0-0.3,0-0.7,0-1c0-0.1,0-0.4,0-0.5c0.1-0.1,0.1-0.2,0.2-0.3
			c0.1-0.1,0.2-0.5,0.4-0.6s0-0.2,0-0.4c-0.1-0.2-0.2-0.4-0.3-0.6C21.3,15.7,21.7,15.5,21.8,15.5L21.8,15.5z M13.8,18.4L13.8,18.4
			C13.7,18.4,13.7,18.4,13.8,18.4c0-0.1,0.1-0.1,0.1-0.1c0.1,0,0.1-0.1,0.1-0.1s0-0.1,0-0.3s0.1-0.2,0-0.4s-0.1,0-0.2,0
			s-0.1,0-0.2-0.1s-0.1-0.1-0.2-0.1s-0.1,0.1-0.4,0.2c-0.1,0-0.2,0-0.2,0c0,0,0,0,0,0c0-0.1-0.1-0.1-0.3-0.1S12.1,17,12,17
			s-0.2-0.2-0.3-0.3s-0.1-0.1-0.3-0.2c-0.1-0.1-0.3-0.1-0.5-0.1c-0.1,0-0.2,0.1-0.2,0.1v0.1c0,0.1,0,0-0.1,0.1s-0.1,0.1-0.2,0.2
			c-0.1,0.1-0.2,0.2-0.4,0.2c-0.4,0-0.3,0.4-0.3,0.4l0,0l0.1,0.1c0.4,0.2,0.8,0.4,1.3,0.4c0.2,0.1,0.4,0.2,0.9,0.4
			c0.4,0.2,0.8,0.3,1.2,0.3c0.2,0,0.5-0.2,0.4-0.3C13.7,18.4,13.7,18.4,13.8,18.4L13.8,18.4z M32.3,27.7c-0.1-0.2-0.2-0.4-0.3-0.6
			c-0.1-0.1,0.2-0.3,0.2-0.3c-0.1,0-0.2-0.1-0.2-0.2c-0.1-0.1-0.2-0.2-0.3-0.2c-0.2-0.1-0.2-0.2-0.3-0.3c-0.2-0.1-0.4-0.3-0.6-0.4
			c-0.3-0.1-0.5-0.3-0.7-0.3c-0.3,0-0.5,0-0.8-0.1c-0.2-0.1-0.5-0.1-0.6-0.1c-0.2-0.1-0.3-0.1-0.5-0.1c-0.3,0-0.1,0.2-0.2,0.3
			s-0.4,0.1-0.4,0.3s-0.2,0.2-0.6,0.3c-0.3,0.1-0.5,0.2-0.7,0.4c-0.1,0.1-0.3,0.2-0.4,0.2c-0.2,0.1-0.5,0.1-0.7,0.1
			c-0.3,0-0.3-0.1-0.4-0.3s-0.3-0.4-0.5-0.4s0.1,0.2,0.2,0.4s-0.3,0-0.3,0c-0.1,0-0.3-0.1-0.4-0.1c-0.1,0-0.1-0.1-0.2-0.3
			s0-0.2-0.1-0.4c-0.1-0.2-0.3-0.3-0.5-0.3c-0.2-0.1-0.1-0.1-0.4-0.4c-0.4-0.4-0.7-0.9-1-1.4c0,0-0.2-0.4-0.2-0.5s-0.3-0.3-0.3-0.5
			c0-0.2,0-0.4,0.1-0.5c0.1-0.2,0.2-0.2,0.2-0.3s0-0.2-0.1-0.2s-0.1,0-0.1-0.2s0.1-0.1,0.2-0.4s-0.1-0.5-0.1-0.6s0.1-0.3,0.2-0.3
			s0.1-0.2,0-0.3s0.2,0,0.2,0s0-0.2,0-0.4c0-0.3,0-0.7,0-1c0-0.1,0-0.4,0-0.5c0.1-0.1,0.1-0.2,0.2-0.3c0.1-0.1,0.2-0.5,0.4-0.6
			s0-0.2,0-0.4c-0.1-0.2-0.2-0.4-0.3-0.6c-0.1-0.1,0.3-0.3,0.3-0.3s-0.1-0.1-0.2-0.2s-0.1-0.2-0.2-0.3c-0.1-0.1-0.3-0.1-0.4-0.1
			c-0.1,0,0,0.1-0.1,0.1s-0.3-0.2-0.4-0.2s0,0.1,0.2,0.2s-0.1,0.1-0.2,0s-0.1-0.1-0.1-0.3s-0.1-0.1-0.2-0.2s0.4,0,0.5,0
			S20,14,19.9,13.9s-0.4,0.1-0.5,0.1s-0.1-0.2-0.3-0.3s-0.4-0.1-0.5,0c-0.2,0.1-0.4,0.1-0.7,0.1c-0.2,0-0.3-0.1-0.5-0.1
			c-0.1-0.1-0.3-0.1-0.3,0s-0.1,0.1-0.3,0.1s-0.2,0.1-0.3,0.1c-0.1,0.1-0.2,0.1-0.2,0.1c-0.1,0-0.4-0.1-0.6-0.1s-0.2,0.1-0.3,0.1
			s-0.6-0.2-0.8-0.1s-0.2-0.1-0.4-0.2s-0.7,0.3-0.7,0.3s-0.2,0-0.3-0.1c-0.2-0.1-0.3-0.2-0.5-0.3c-0.1,0,0.1,0.2,0.1,0.2
			c-0.1,0.1-0.2,0.1-0.3,0.2c-0.2,0-0.2-0.2-0.3-0.2c0,0-0.1,0-0.1,0c0.1-0.1,0.1-0.3,0.2-0.4c0-0.1,0.2-0.3,0.3-0.3
			c0.1,0,0.2,0,0.2-0.1c0.2-0.1,0.3-0.3,0.4-0.6c0-0.1,0-0.3,0-0.4c0.2-0.2,0-0.2,0-0.2v-0.3c0,0,0.1-0.3,0.1-0.4
			c0-0.1-0.1-0.2-0.1-0.3c0.1-0.1,0.2-0.3,0.2-0.4c0.1-0.2,0.1-0.2,0.2-0.3s0-0.3,0-0.5s0-0.2-0.1-0.2s-0.3,0.1-0.3,0s0.1-0.2,0-0.2
			s-0.3,0.2-0.4,0.3c-0.1,0.2-0.2,0.4-0.3,0.6c-0.1,0.3-0.1,0.2-0.4,0s-0.3,0.3-0.3,0.3l-3.1-0.1v1H7.8c0.3,0.3,0.7,0.6,1.1,0.9
			c0.4,0.2,0.2,0.2,0.2,0.4s0.3,0.2,0.3,0.2s0.1,0.2,0,0.4c0,0.1-0.1,0.2-0.1,0.3H7.2c0,0-0.8,1.3-0.8,1.4s0.2,0.3,0.2,0.3
			c-0.1,0.2-0.2,0.4-0.2,0.6c-0.1,0.3-0.1,0.4-0.1,0.4c-0.1,0.2,1.1,0.9,1.4,1.1c0.4,0.2,0.9,0.2,1.3,0.2c0.4,0,0.7,0.1,1,0.4
			c0.4,0.2,0.8,0.4,1.3,0.4c0.2,0.1,0.4,0.2,0.9,0.4c0.4,0.2,0.8,0.3,1.2,0.3c0.2,0,0.5-0.2,0.4-0.3s0-0.2,0-0.1s0.2,0,0.3-0.1
			s0.2,0,0.2,0s0.1,0.2,0.1,0.3s0.3,0.2,0.4,0.4s-0.1,0.2-0.2,0.2s-0.1-0.3-0.4-0.3s-0.1,0.4,0.1,0.4s0.1,0.1,0.2,0.2
			s0.7,0.6,0.8,0.7s0.2,0.1,0.4,0.3c0.1,0.2,0.2,0.4,0.3,0.6c0.1,0.2,0.3,0.3,0.4,0.4c0.2,0.2,0.3,0.3,0.5,0.5
			c0.2,0.2,0.4,0.4,0.5,0.6c0,0.1,0,0,0,0.1s-0.2,0.1-0.3,0.1s0,0,0.1,0.2c0,0.1,0.1,0.1,0.2,0c0,0,0,0,0,0c0,0.1,0.1,0.2,0.1,0.4
			c0,0.1,0,0.2-0.2,0.3c-0.1,0.1-0.2,0.3-0.1,0.5c0.1,0.3,0.3,0.5,0.6,0.6c0.4,0.2,0.4,0.3,0.5,0.4s0.1,0,0.2,0s0.2-0.1,0.3-0.2
			s0-0.2-0.1-0.2c-0.2-0.1-0.3-0.2-0.4-0.4c-0.1-0.1,0.2-0.1,0.2-0.1l0.4,0.2c0.1,0,0.1,0.1,0.2,0.1c0,0,0.2,0.2,0.3,0.4
			s-0.1,0.2-0.1,0.3s0.1,0.1,0.3,0.2s0.4,0,0.5,0.1s0.4,0.2,0.4,0.2c0.2,0.2,0.4,0.3,0.6,0.5c0.2,0.1,0,0.3,0.1,0.4
			s-0.2,0.2-0.2,0.3s0.1,0.2,0.1,0.3s0.3,0.1,0.3,0.1c0.1,0,0.2,0.1,0.3,0.1c0,0,0-0.2-0.1-0.3s-0.1-0.1-0.2-0.2s0.1-0.2,0.1-0.2
			c0.1,0,0.2,0,0.3,0.1c0.1,0.1,0.1,0.2,0.2,0.3c0,0.1,0,0.2,0,0.3c0.1,0.1,0.2,0.2,0.3,0.3c0.1,0.1,0.1,0.3,0.2,0.3s0-0.1,0-0.3
			c0-0.1,0-0.2,0.1-0.3c0.1,0,0.3,0,0.4,0c0.1,0,0.2,0.1,0.3,0.1c0,0,0.1-0.1,0.2-0.1s-0.2,0.1,0.2,0.2h0.1c0.4,0.1,0.7,0.1,0.8,0.2
			s0.1,0.3,0.2,0.5s0.3,0.1,0.5,0.3s0.1-0.4,0.1-0.4c0.1,0,0.2,0,0.2-0.1c0,0.1,0,0.3,0.1,0.4c0.1,0.2,0.2,0.3,0.2,0.4s0,0.3,0,0.4
			s0.2,0.1,0.3,0.1s0.2-0.1,0.3-0.1c0.1,0,0.3,0,0.4-0.1c0.1,0-0.1-0.2,0.2-0.2s0.3,0,0.4-0.2s-0.2-0.4-0.4-0.5s-0.4-0.4-0.5-0.5
			s0.1-0.2,0.2-0.3s0.1-0.1,0.3-0.1s0.4-0.3,0.6-0.4s0.3-0.2,0.2-0.3s0-0.2,0.1-0.3s0.4-0.2,0.6-0.3s0.7,0,0.8,0.2s0.6,0.3,0.7,0.4
			s0,0.3,0.1,0.4s0.3,0.2,0.2,0s0-0.2,0.3-0.1s0.2,0,0.2-0.1c0.1,0.2,0.2,0.4,0.3,0.5c0.1,0.1-0.2-0.1-0.3-0.2s-0.1,0.2-0.1,0.5
			s-0.1,0-0.4,0s0,0.2,0.2,0.5c0.2,0.4,0.4,0.7,0.7,1c0.2,0.1,0.1-0.3,0.3-0.5s-0.1-0.2,0-0.4s0.2,0.2,0.3,0.2s0.2-0.1,0.4-0.3
			c0.2-0.1-0.1-0.3,0.1-0.4C32.4,27.8,32.2,27.8,32.3,27.7L32.3,27.7z"/>
	</g>
</g>
</svg>
