<?xml version="1.0" encoding="utf-8"?>
<!-- Generator: Adobe Illustrator 25.2.0, SVG Export Plug-In . SVG Version: 6.00 Build 0)  -->
<svg version="1.1" id="Capa_1" xmlns="http://www.w3.org/2000/svg" xmlns:xlink="http://www.w3.org/1999/xlink" x="0px" y="0px"
	 viewBox="0 0 40 40" style="enable-background:new 0 0 40 40;" xml:space="preserve">
<style type="text/css">
	.st0{fill:#505B6C;}
	.st1{fill:#FFFFFF;}
</style>
<path class="st0" d="M20,39.6c10.8,0,19.6-8.8,19.6-19.6S30.8,0.4,20,0.4S0.4,9.2,0.4,20S9.2,39.6,20,39.6"/>
<path class="st1" d="M26.6,19h-2c-0.3,0-0.5-0.2-0.5-0.5s0.2-0.5,0.5-0.5h0.5v-4.3L25,13.8c-0.2,0.2-0.5,0.2-0.7,0s-0.2-0.5,0-0.7
	l1-1c0.2-0.2,0.5-0.2,0.7,0c0,0.1,0.1,0.3,0.1,0.4V18h0.5c0.3,0,0.5,0.2,0.5,0.5S26.9,19,26.6,19 M25.6,21c-0.8,0-1.5,0.7-1.5,1.5
	s0.7,1.5,1.5,1.5s1.5-0.7,1.5-1.5S26.4,21,25.6,21 M24.6,28c-0.3,0-0.5-0.2-0.5-0.5c0-0.1,0-0.2,0.1-0.3l1.5-2.2h-0.1h-0.1
	c-1.4,0-2.5-1.1-2.5-2.5s1.1-2.5,2.5-2.5s2.5,1.1,2.5,2.5c0,0.5-0.2,1.1-0.5,1.5l-2.6,3.8C24.9,27.9,24.8,28,24.6,28 M15.6,28
	c-0.2,0-0.3-0.1-0.4-0.2l-3-3c-0.2-0.2-0.2-0.5,0-0.7s0.5-0.2,0.7,0l2.2,2.2V12.5c0-0.3,0.2-0.5,0.5-0.5s0.5,0.2,0.5,0.5v13.8
	l2.1-2.1c0.2-0.2,0.5-0.2,0.7,0s0.2,0.5,0,0.7l-3,2.9C15.9,27.9,15.8,28,15.6,28"/>
</svg>
