<?xml version="1.0" encoding="utf-8"?>
<!-- Generator: Adobe Illustrator 25.2.0, SVG Export Plug-In . SVG Version: 6.00 Build 0)  -->
<svg version="1.1" id="Capa_1" xmlns="http://www.w3.org/2000/svg" xmlns:xlink="http://www.w3.org/1999/xlink" x="0px" y="0px"
	 viewBox="0 0 40 40" style="enable-background:new 0 0 40 40;" xml:space="preserve">
<style type="text/css">
	.st0{clip-path:url(#SVGID_2_);fill:#2670CA;}
	.st1{clip-path:url(#SVGID_2_);fill:#FFFFFF;}
</style>
<g>
	<g>
		<defs>
			<rect id="SVGID_1_" x="0.4" y="0.4" width="39.2" height="39.2"/>
		</defs>
		<clipPath id="SVGID_2_">
			<use xlink:href="#SVGID_1_"  style="overflow:visible;"/>
		</clipPath>
		<path class="st0" d="M20,39.6c10.8,0,19.6-8.8,19.6-19.6C39.6,9.2,30.8,0.4,20,0.4S0.4,9.2,0.4,20C0.4,30.8,9.2,39.6,20,39.6"/>
		<path class="st1" d="M20,15c-1.7,0-3,1.3-3,3c0,1.7,1.3,3,3,3c1.7,0,3-1.3,3-3C23,16.3,21.7,15,20,15 M20,22c-2.2,0-4-1.8-4-4
			s1.8-4,4-4s4,1.8,4,4S22.2,22,20,22 M12.5,13c-0.8,0-1.5,0.7-1.5,1.5V15h0.5c0.8,0,1.5-0.7,1.5-1.5V13H12.5z M27,13v0.5
			c0,0.8,0.7,1.5,1.5,1.5H29v-0.5c0-0.8-0.7-1.5-1.5-1.5H27z M11,21v0.5c0,0.8,0.7,1.5,1.5,1.5H13v-0.5c0-0.8-0.6-1.5-1.5-1.5H11z
			 M11,16v4h0.5c0.7,0,1.3,0.3,1.8,0.7c0.5,0.5,0.7,1.1,0.7,1.8V23h12v-0.5c0-1.4,1.1-2.5,2.5-2.5H29v-4h-0.5
			c-1.4,0-2.5-1.1-2.5-2.5V13H14v0.5c0,1.4-1.1,2.5-2.5,2.5H11z M28.5,21c-0.8,0-1.5,0.7-1.5,1.5V23h0.5c0.8,0,1.5-0.7,1.5-1.5V21
			H28.5z M13.5,24h-0.2h-0.8c-1.4,0-2.5-1.1-2.5-2.5v-7c0-1.4,1.1-2.5,2.5-2.5h15c1.4,0,2.5,1.1,2.5,2.5v7c0,1.4-1.1,2.5-2.5,2.5
			H13.7H13.5z M29.5,26h-19c-0.3,0-0.5-0.2-0.5-0.5s0.2-0.5,0.5-0.5h19c0.3,0,0.5,0.2,0.5,0.5S29.8,26,29.5,26 M29.5,28h-19
			c-0.3,0-0.5-0.2-0.5-0.5s0.2-0.5,0.5-0.5h19c0.3,0,0.5,0.2,0.5,0.5S29.8,28,29.5,28"/>
	</g>
</g>
</svg>
