<svg xmlns="http://www.w3.org/2000/svg" viewBox="0 0 39.2 39.2"><defs><style>.cls-1{fill:#007dc3;}.cls-2{fill:#fff;}</style></defs><g id="Capa_2" data-name="Capa 2"><g id="Capa_1-2" data-name="Capa 1"><path class="cls-1" d="M19.6,39.2A19.6,19.6,0,1,0,0,19.6,19.61,19.61,0,0,0,19.6,39.2"/><path class="cls-2" d="M12,20.27a.51.51,0,0,1-.5-.5v-3a2.5,2.5,0,0,1,2.5-2.5h13.8l-2.15-2.15a.5.5,0,0,1,0-.7h0a.51.51,0,0,1,.71,0l3,3a.51.51,0,0,1,0,.71h0l-3,3a.5.5,0,0,1-.71,0,.49.49,0,0,1,0-.69l2.15-2.15H14a1.5,1.5,0,0,0-1.5,1.5v3a.5.5,0,0,1-.5.5m3,8a.51.51,0,0,1-.35-.15l-3-3a.5.5,0,0,1,0-.71h0l3-3a.5.5,0,0,1,.71.71h0l-2.15,2.15H27a1.5,1.5,0,0,0,1.5-1.5v-3a.5.5,0,0,1,.5-.5.5.5,0,0,1,.5.5v3a2.49,2.49,0,0,1-2.5,2.5H13.25l2.15,2.14a.5.5,0,0,1,0,.71.48.48,0,0,1-.36.15"/></g></g></svg>