<svg id="Capa_1" data-name="Capa 1" xmlns="http://www.w3.org/2000/svg" xmlns:xlink="http://www.w3.org/1999/xlink" viewBox="0 0 75.3 18.95"><defs><style>.cls-1{fill:none;}.cls-2{clip-path:url(#clip-path);}.cls-3{fill:#b2c3d7;}.cls-4{font-size:14.5px;fill:#545051;font-family:MyriadPro-Light, Myriad Pro;font-weight:300;}.cls-5{letter-spacing:0em;}.cls-6{letter-spacing:0.01em;}.cls-7{letter-spacing:0em;}.cls-8{letter-spacing:0.02em;}.cls-9{letter-spacing:0em;}</style><clipPath id="clip-path" transform="translate(-2.32 -2.91)"><rect class="cls-1" x="2.32" y="2.91" width="75.3" height="18.95"/></clipPath></defs><g class="cls-2"><path class="cls-3" d="M20.79,12.23l-.51,1.63c-.1.32-.2.65-.31,1l-.07.23a.56.56,0,0,1,0,.12,1,1,0,0,1-.05.16l0,.08s-.05.12,0,0l-.15.29-.09.13s-.06.08,0,0a.46.46,0,0,0-.07.07l-.11.12-.07,0c.07-.06,0,0,0,0l-.14.08-.08,0h0l-.05,0a1.78,1.78,0,0,1-.38.1c.07,0-.05,0-.05,0H7.93a1.18,1.18,0,0,1-.62-.31.86.86,0,0,1-.13-.14c-.07-.08,0,.05,0,0a.56.56,0,0,0-.05-.08L7,15.65l0,0a.56.56,0,0,0,0-.12.36.36,0,0,0,0-.1s0-.11,0,0,0-.12,0-.18v-8l-.34.34h7.94l-.33-.43a5.07,5.07,0,0,0,1.09,4.12A5,5,0,0,0,18.35,13a5.19,5.19,0,0,0,2.94-.39A.34.34,0,1,0,21,12a4.51,4.51,0,0,1-2,.36,4.27,4.27,0,0,1-.85-.13,4.06,4.06,0,0,1-.79-.28A4.36,4.36,0,0,1,15,9.46a4.28,4.28,0,0,1-.2-2.16.35.35,0,0,0-.33-.44H6.57a.35.35,0,0,0-.34.35V14.5a5.08,5.08,0,0,0,.06,1.17A2,2,0,0,0,7.5,17a2,2,0,0,0,.73.12h9.51a7.46,7.46,0,0,0,1.06,0,2,2,0,0,0,1.33-.82,3.71,3.71,0,0,0,.44-1c.2-.62.39-1.25.59-1.87.1-.31.19-.62.29-.93a.34.34,0,1,0-.66-.19" transform="translate(-2.32 -2.91)"/><path class="cls-3" d="M11.14,20.34v.1c0,.11,0-.06,0,0a1.05,1.05,0,0,1-.05.19c0-.07,0,0,0,0a.56.56,0,0,0-.05.08.35.35,0,0,0,0,.08c0-.05,0,0-.05.05l-.07.07,0,0-.17.1c-.09,0,.06,0,0,0l-.09,0-.1,0h-.22L10,21.12c-.1,0,.06,0,0,0l-.08-.05L9.8,21s0,0,0,0l0-.05-.07-.06s-.07-.09,0,0l-.11-.16s0-.11,0,0a.16.16,0,0,1,0-.09l0-.1s0,0,0,0,0,0,0-.06a1.48,1.48,0,0,1,0-.21c0,.07,0,0,0,0a.29.29,0,0,0,0-.09s0-.11,0,0a.36.36,0,0,1,0-.09.35.35,0,0,1,0-.08.1.1,0,0,1,0-.05s0,0,0,0a.86.86,0,0,1,.14-.13l0,0,.08,0,.09-.05c-.06,0,0,0,0,0l.1,0h.06s0,0,0,0a1.33,1.33,0,0,1,.2,0c.11,0-.06,0,0,0l.1,0,.09,0c-.06,0,0,0,0,0l.08.05.06,0a.86.86,0,0,1,.14.13c.07.08,0-.05,0,0l.06.08,0,.09c0,.09,0-.06,0,0l0,.09s0,.14,0,.07a.66.66,0,0,1,0,.14.35.35,0,0,0,.69,0,1.57,1.57,0,0,0-1-1.45A1.53,1.53,0,0,0,9,21.19a1.53,1.53,0,0,0,2.8-.85.35.35,0,1,0-.69,0" transform="translate(-2.32 -2.91)"/><path class="cls-3" d="M17.66,20.34s0,.07,0,.1,0-.06,0,0a1.05,1.05,0,0,1-.05.19c0-.07,0,0,0,0l-.05.08a.35.35,0,0,1-.05.08l0,.05-.07.07,0,0a1,1,0,0,1-.17.1h0l-.1,0-.09,0H16.7l-.19-.05h0l-.09-.05-.08,0s0,0,0,0l0-.05-.07-.06s-.07-.09,0,0a1.4,1.4,0,0,1-.1-.16s0-.11,0,0l0-.09a.36.36,0,0,1,0-.1s0,0,0,0v-.06a1.47,1.47,0,0,1,0-.21c0,.07,0,0,0,0l0-.09s0-.11,0,0l0-.09a.35.35,0,0,0,.05-.08l0-.05h0a.8.8,0,0,1,.13-.13c-.05,0,0,0,0,0l.08,0,.09-.05h0l.1,0h.06s0,0,0,0a1.47,1.47,0,0,1,.21,0c.11,0-.07,0,0,0l.09,0,.1,0c-.07,0,0,0,0,0l.09.05.06,0a.8.8,0,0,1,.13.13c.07.08,0-.05,0,0a.56.56,0,0,0,.05.08l.05.09c0,.09,0-.06,0,0l0,.09s0,.14,0,.07a.66.66,0,0,0,0,.14.34.34,0,0,0,.34.34.34.34,0,0,0,.34-.34,1.55,1.55,0,0,0-1-1.45,1.53,1.53,0,0,0-1.75,2.3,1.52,1.52,0,0,0,2.79-.85.34.34,0,1,0-.68,0" transform="translate(-2.32 -2.91)"/><path class="cls-3" d="M6.91,13.71V6.29A1.26,1.26,0,0,0,5.8,5.05a4.14,4.14,0,0,0-.61,0H2.66a.34.34,0,0,0-.34.34.35.35,0,0,0,.34.35h3.1c-.07,0,0,0,0,0l.09,0c-.06,0,0,0,0,0l.06,0L6.12,6s0,0,0,0a.22.22,0,0,1,.05.08c0-.06,0,0,0,0a.29.29,0,0,1,0,.09c0-.06,0,.07,0,.08v7.42a.34.34,0,1,0,.68,0" transform="translate(-2.32 -2.91)"/><path class="cls-3" d="M9.14,11.6h2.2a.35.35,0,1,0,0-.69H9.14a.35.35,0,0,0,0,.69" transform="translate(-2.32 -2.91)"/><path class="cls-3" d="M9.14,14.09h6.35a.35.35,0,1,0,0-.69H9.14a.35.35,0,0,0,0,.69" transform="translate(-2.32 -2.91)"/><path class="cls-3" d="M19.29,18.77h-11a1.3,1.3,0,0,1-.67-.16l-.16-.1c.06,0,0,0,0,0l-.07-.06a1,1,0,0,1-.23-.29A.89.89,0,0,1,7,18c0,.07,0,0,0,0l0-.09c0-.07,0-.13,0-.2,0,.08,0,0,0,0V11.24a.35.35,0,1,0-.69,0v5.51a4.34,4.34,0,0,0,.11,1.39,2,2,0,0,0,1.27,1.23,2.21,2.21,0,0,0,.67.09h11a.35.35,0,0,0,0-.69" transform="translate(-2.32 -2.91)"/><path class="cls-3" d="M23.58,8a3.77,3.77,0,0,1-.07.78,4.52,4.52,0,0,1-.22.8.36.36,0,0,1,0,.09s0,.1,0,0l-.08.18c-.06.13-.13.25-.2.37l-.21.32a1.94,1.94,0,0,1-.23.29,4.43,4.43,0,0,1-2.68,1.49H19.7l-.21,0H19l-.44,0c.06,0-.05,0-.05,0l-.11,0-.25-.05c-.14,0-.28-.08-.41-.12a3,3,0,0,1-.38-.15,4.42,4.42,0,0,1-.76-.44,2,2,0,0,1-.29-.22A3.26,3.26,0,0,1,16,11a3.77,3.77,0,0,1-.51-.64,4.41,4.41,0,0,1-.68-1.87,4.58,4.58,0,0,1,0-1,.34.34,0,0,1,0-.1s0-.12,0,0a1.42,1.42,0,0,1,0-.2c0-.14.06-.28.09-.42s.08-.25.13-.37a3.07,3.07,0,0,1,.14-.34,4.89,4.89,0,0,1,.42-.69l.06-.08,0,0,.13-.15.28-.3a4,4,0,0,1,.58-.47A4.43,4.43,0,0,1,17.42,4s.1-.05,0,0l.09,0,.19-.06.41-.13.39-.08s.11,0,0,0h.1l.24,0a4.15,4.15,0,0,1,.94,0,4.33,4.33,0,0,1,1.85.74,4.38,4.38,0,0,1,1.85,3s0,.09,0,.1,0,.11,0,.16,0,.21,0,.32a.35.35,0,0,0,.69,0,5.08,5.08,0,0,0-8.41-3.85A5.07,5.07,0,0,0,14.2,7,5.16,5.16,0,0,0,15,10.92a5.09,5.09,0,0,0,6.48,1.6A5.09,5.09,0,0,0,24.27,8a.35.35,0,1,0-.69,0" transform="translate(-2.32 -2.91)"/><path class="cls-3" d="M17,8.34h4.33a.35.35,0,0,0,.24-.59L20.36,6.5c-.31-.32-.79.17-.48.49l1.23,1.25.24-.59H17a.35.35,0,1,0,0,.69" transform="translate(-2.32 -2.91)"/><path class="cls-3" d="M21.11,7.75,19.88,9c-.31.31.17.8.48.48l1.23-1.25c.31-.32-.17-.8-.48-.49" transform="translate(-2.32 -2.91)"/><text class="cls-4" transform="translate(30.13 14.91)">E<tspan class="cls-5" x="6.76" y="0">n</tspan><tspan class="cls-6" x="14.47" y="0">t</tspan><tspan class="cls-7" x="19.07" y="0">r</tspan><tspan class="cls-8" x="23.33" y="0">e</tspan><tspan class="cls-9" x="30.64" y="0">g</tspan><tspan x="38.58" y="0">a</tspan></text></g></svg>