<?xml version="1.0" encoding="utf-8"?>
<!-- Generator: Adobe Illustrator 25.2.0, SVG Export Plug-In . SVG Version: 6.00 Build 0)  -->
<svg version="1.1" id="Layer_1" xmlns="http://www.w3.org/2000/svg" xmlns:xlink="http://www.w3.org/1999/xlink" x="0px" y="0px"
	 viewBox="0 0 1104.2 445" style="enable-background:new 0 0 1104.2 445;" xml:space="preserve">
<style type="text/css">
	.st0{filter:url(#Adobe_OpacityMaskFilter);}
	.st1{clip-path:url(#SVGID_2_);fill:url(#SVGID_4_);}
	.st2{clip-path:url(#SVGID_2_);mask:url(#SVGID_3_);}
	.st3{clip-path:url(#SVGID_6_);fill:#6AAAE4;}
	
		.st4{clip-path:url(#SVGID_2_);fill:none;stroke:#FFB71C;stroke-width:2;stroke-linecap:round;stroke-linejoin:round;stroke-miterlimit:10;}
	.st5{fill:#FFFFFF;}
	.st6{fill:none;stroke:#FFFFFF;stroke-width:0.75;}
	.st7{fill:none;stroke:#F17A30;stroke-width:2;stroke-linecap:round;}
	.st8{clip-path:url(#SVGID_8_);fill:none;stroke:#F17A30;stroke-width:2;stroke-linecap:round;}
	.st9{clip-path:url(#SVGID_10_);fill:none;stroke:#F17A30;stroke-width:2;stroke-linecap:round;}
	.st10{clip-path:url(#SVGID_12_);fill:none;stroke:#F17A30;stroke-width:2;stroke-linecap:round;}
	.st11{clip-path:url(#SVGID_14_);fill:none;stroke:#F17A30;stroke-width:2;stroke-linecap:round;}
	.st12{clip-path:url(#SVGID_16_);fill:none;stroke:#F17A30;stroke-width:2;stroke-linecap:round;}
	.st13{filter:url(#Adobe_OpacityMaskFilter_1_);}
	.st14{clip-path:url(#SVGID_18_);fill:url(#SVGID_20_);}
	.st15{clip-path:url(#SVGID_18_);mask:url(#SVGID_19_);}
	.st16{clip-path:url(#SVGID_22_);fill:none;stroke:#FFFFFF;}
</style>
<g>
	<defs>
		<rect id="SVGID_1_" x="-16.5" y="35.6" width="1127.1" height="408.2"/>
	</defs>
	<clipPath id="SVGID_2_">
		<use xlink:href="#SVGID_1_"  style="overflow:visible;"/>
	</clipPath>
	<defs>
		<filter id="Adobe_OpacityMaskFilter" filterUnits="userSpaceOnUse" x="8.9" y="118.7" width="1082" height="302.3">
			<feFlood  style="flood-color:white;flood-opacity:1" result="back"/>
			<feBlend  in="SourceGraphic" in2="back" mode="normal"/>
		</filter>
	</defs>
	<mask maskUnits="userSpaceOnUse" x="8.9" y="118.7" width="1082" height="302.3" id="SVGID_3_">
		<g class="st0">
			
				<linearGradient id="SVGID_4_" gradientUnits="userSpaceOnUse" x1="-57.842" y1="676.1792" x2="-56.842" y2="676.1792" gradientTransform="matrix(0 275.8523 275.8523 0 -185978.5156 16179.7129)">
				<stop  offset="0" style="stop-color:#FFFFFF"/>
				<stop  offset="1" style="stop-color:#000000"/>
			</linearGradient>
			<rect x="-16.5" y="35.6" class="st1" width="1127.1" height="408.2"/>
		</g>
	</mask>
	<g class="st2">
		<g>
			<defs>
				<rect id="SVGID_5_" x="8.9" y="118.7" width="1082" height="302.3"/>
			</defs>
			<clipPath id="SVGID_6_">
				<use xlink:href="#SVGID_5_"  style="overflow:visible;"/>
			</clipPath>
			<path class="st3" d="M1081.9,420H17.9V267.3v6.6l2.6,2.1l1.3,3.9v2.1l1.6,2.4l0.9,9.8l1.3,2.1l2.4,9.2v4.7l1.4,2.8l0.9-4.6
				l1.6-4.2l1.4-9.1l1.4,2.3l2.4-9.6v8.6l2.7-11.8l1.1,10.3l0,3.6l1.2,1.7l1,3.9l2.1,3.6v2.7l0.9,24.1l0.7-15.5l1-4.3l0.9-6.5v-4.9
				v-4.6l1.6-6.7l1.8,6.1l0.3-5.2v-5.9v-3.6l1.7-4.3v9.4v4.1l1.8,2l0.3-1.5c0,0-0.3-3.1,0-3.5c0.3-0.4,0.9-3.2,0.9-3.2v-4.1l1.6-2.1
				l0.2-2.6l2.4-0.5l1.9-17.2l1.1,9.4v6.2l-0.1,3.3l1.3,1.2l0.8,2.2l1.8-6.3l1.4,9.5l-0.2,24.5l1.4-1.1l1,7.2l0.7,3l0.6,3.7l1.4-8.5
				l1.1-6.3l1.3,0.7l0.7-4.5l0.6-6.9l1.8,11v10.3l1.6-7.4l2.9,10.4l1.5-9.3l2.6,14.3v6.4l2.8,0l0.8-8.1l0.7-9.6l0.9,9.6
				c0,0,1.3-7.9,1.3-7s2.9,6.7,2.9,6.7l0.5,8.2l2.6-10.6v-2.8l1.6,0.3l0.2,4.2l2.4,2.7v3l1.6,4.1l2.5,3.3v-37.5l2.2,12
				c0,0,1.1-19.4,1.3-19.4c0.2,0,1.3,11.6,1.3,11.6l0.3-6.7l2.3,7.5v-7.9l1.3,10.1l2.4-8.8v5.4l1.6,2.6l2.9-3.8l-0.6-7l1.6-7.3l1,3
				l1.4,2.7v12.3l1.8-13.7l1.1,7.3c0,0,1.3-15,1.3-14.4c0,0.6,1.3,7.2,1.3,7.5v7.6l-0.5,4l1.7,4.4l1.2-1.7c0,0,1.1-7.4,1-6.9
				c-0.1,0.6,1,4.7,1,4.7l1.6-7.2v4.2l1.7-3.2l2.6,7.1v-10.4l1.1-2.2l1.3-4.1l1.7-1.4l0.6,17.2l2.8-18.1l2.2,4.2v-7.8l1.8,6.6
				l2.5-6.6v-9.8l2.2,3.9c0,0-0.3,10.4,0,10.7c0.3,0.3,0,8.8,0,8.8l1.3,6.8v2l2.2,2.5v-7l1.9-3.6v-1.7c0,0,1.3-3.6,1.9-3.6
				c0.6,0,1.8,6.9,1.7,6.3c0-0.6,0-11.7,0-11.7l1.3,1.8c0,0,2.3-1.9,1.9-0.9c-0.4,1-0.6,6.7-0.6,6.7l1.9,1.8l1.5,2.1l0.6,3.5
				l1.1-7.8c0,0,1,9.8,1.1,9.8c0.1,0,1.2-4.5,1.2-4.5l1.2,5.8l1.8-2.8l2.6,0.6l-0.7,11.4l1.8,6.5c0,0,1.3-8.5,1.4-7.8
				c0.1,0.7,1.2,15.4,1.2,15.4l1.3-16.6l1.8,6.8v-7.1v-7.6l1.9-5.3l1.6,5.8l1.2-10.6l0.8,14.5l2.6-10.3l1.6,8.8c0,0,0.4,11.5,0,11
				c-0.3-0.5,2.8-5,2.8-5s-0.3,4.3,0,4.6c0.3,0.3,1.8,2.4,1.8,2.4v2.4c0,0,2.2-8.9,2.3-8.2c0.1,0.7,0.8,7.8,0.8,7.8l1.7-3.3l1.1,2.4
				l1.5,6.1l-0.6,4.1l1.4,6.6l1.6-3.4l0.7,2.6l1.1-3.2c0,0-0.2,3.3,0.2,2.1c0.5-1.1,1.9-13.6,1.9-13.6l0.8,40.4l1.9-11.9l1.1,7.8
				c0,0,1.1-2.2,1.2-1.8c0.1,0.4,0,6,0,6l1.7-6.9l1.3,1.4l1.8-1.9l0.8,5.7l1.2-3.8l0.4,2.6c0,0,1.4-2.4,1.7-1.4
				c0.3,0.9,0.3,2.1,0.3,2.1l2.1,2.1l1.3-12.7v-10.3l3.1,5.8l0.9,13.2v4l2.7,3c0,0,0,6.5,0,5.9c0-0.6,2.6-13.5,2.1-12.1
				c-0.5,1.3,1.8,5.6,1.8,5.6l1.7-4.4l1.2,5.4l2.3-7.7l3.5,23.4l1.8-6l2.3,7.7l0.5-4.8l2.2,10c0,0,1.2-13.3,1.5-12.7
				c0.3,0.5,1.3,2.9,1.3,2.9l2.1-10.2v-6.8l1.7-10.3c0,0,2.6,5,2.5,4.6c0-0.4,0.7-7.1,0.7-7.1l2.7-7.6v-2.8l2.2-3.3l2.5,1l-0.5-6.6
				h1.6l2.3,6.6l0,10.4l1.4-1.1l0.1,1.4l2.2-8.7v8.2c0,0,1.7-4.1,1.7-3.3c0,0.8,2.2,5,2.2,5v-7.7l1.9-1.8v-9.4v-11.8l2.4-4l1.4,2.1
				l2.2-1.4l1.4-8.1l2.9-7.9l1.5,4.1l3.2-8.9l3-1l0.9,3.1l1.3-5.2v15.6l1.4-1.8l2.1,18l0.5-14.6l2.3-2l1.4,2.6V299l1.1,2.6l1.7-1.6
				l0.9,2.4v2.6l3.1-4.8l-0.8,9.4l1.4,1.7l0.6,2.9l2.3-12.6l2.6-6.8l2.3,8.3v12.5l2.8-17l1.3,7.5v4.5l3.7,12.5l-0.4-10.9l1.6-3.4
				l0.6-6.3l1.7,14.5v2.9c0,0,1.8-7.4,1.8-7.2s0.4,6.1,0.4,6.1l1.1-4.6l2.4,3.6V313l3,3l0.7,5.2l1.5-4.6l2.6,4.1v-6.6l2.6,1.6
				l0.8,5.8c0,0,2.3-3.8,2.2-4.2c-0.1-0.4,1.6-10.3,1.6-10.3l3,16.9v-14.2l1.6-4.1l-0.4-4.2l2.8,3.4l1.4-12.3c0,0,2.7,8.9,2.7,8.9
				c0,0,1-12.2,1-12.2l1.3,4l3.8-4.1l-1.2,9.2l1.8,0.6l0.6,4.8l2.3-6l0.2,5.8c0,0,1.5,1.4,1.6,1.5s1.9-1.3,1.9-1.3l-0.5,10.7
				l1.3-1.8l2.3-5.9v3.4l1.2,2.6v8.7l2.8-10.7l1.7,3.1v4.1l2.2-1.7l1,4.4l2.6-10.8l0.3,4.4l1.8-8.3l1.3-2.3l1.8,6.9v-16.8
				c0,0,1.5-0.8,1.5-0.2s0.6,6,0.6,6l2.1-3.8l1.5,7.3l-0.6,12.2l2.5-9.9l0.1,8.9l1.4-14.3l1.5,9.5l1.6-4.2l0.7-13l2.5,4.3l1-13.3
				c0,0,2,5.4,2.3,5.2c0.3-0.2,0.6-7.5,0.6-7.5l1.4,0.4l-0.4-5.6l2.7-14.4l1.8,7.6l-0.5,7l2.7,18.2l1.2-19.1l0.4,19.1l3.1-7.3
				l0.6,4.4l0.8-13.2l1.7-4.2l1.6,4.7l2.1-9.3l1.4,4.6v-6.9l2.5,6l1.7-0.6v-8.7l1-3.9l-0.4-10.2l2.8,6.3l2.6-7.7l1.6,18.2l-0.6,14.6
				l1.2,2.1l1-7.9l2-1.4v-17.1l1.4,2.5l2.6-8.1l0,8.1h1.4l-0.4,17.8l2-3.8l0.6,7.3l1.6-14.5c0,0,0.6,9.5,0.6,9.3
				c0-0.2,0.8-8.9,0.8-8.9s1.4,20.4,1.3,20.4s1.6-9.4,1.6-9.4c-0.1,0,0.6,10.9,0.6,10.9l1.4-5c0,0,1.2,2.4,1.4,1.5
				c0.1-0.8,2.2-2.9,2.2-2.9v8.2l2.8-9.4l2.3,12.4v-12l1.7-4.1l1.2,1.3l1-10.7l1.4-4.2l3-1.3l-0.3,4.9l1.5-0.5l3-3.7l0.7,5.5v6.6
				l3-14.2v8.5l3.4-1.1v-9l1.5-2.2l-0.4-14l4.2-7.8v-5.2l1.4-3.7h1.3l1.4,8.4l1.4-1.2l0.9,4.4l1.9-8.5v-13.5l-0.7-4.9l1.6-3.2l0.6,3
				c0,0,1.8-1.4,1.7-1.4c-0.2,0,0.2,4.2,0.2,4.2l1.4-0.2l2.5,13.6l-0.7,9l2.2-5.3l2.2,8l1.2-3.8l0.1,7.5l1.6-0.2l1-15.3l1.4-0.8
				l2.3,7.5v-13.7l1.6,11.7l0.6-1.2l1.8,1.2v6.6c0-0.1,1.7-9.3,1.7-9.3V239l1.2-9.8l1.6,2.1c0,0,0-5.7,0-6.2
				c0-0.5,2.4-10.9,2.4-10.9l1.1-9.4l1.6,9.4l0.7-12.7l1.5-0.5v5.2l1.6,2.1l2.1,2.1v5.1l1.3-2.3v-13.2l2.6-5.3l0.8-17.6l0.7,20.6
				l1,1.1l1.5,5.8l1.7-15.1l-0.6-9.2l1.7-0.9l-0.2-7.6l2.8-18.7l1.4,35.9l2-8.3l0.1,7l2-3.4v10.1l2.2-5.7v15.3l1.4,7.6l-0.7,10.6
				l3.2-12.5v-6.9c0,0,0.9,3.8,1.2,2.8c0.4-0.9,0-8.1,0-8.1l2.6,4.9l0.9-23.4l1.6,10l1.2-11.5l0.9,9.6v12.8c0,0,2.1,4.7,2.1,4.7
				c0,0,0.5-5.9,0.4-5.7c-0.1,0.2,2.4,8.5,2.4,8.5l1.5-4.2l1.4,0.5l-0.5-19.9l1.7-4.2l1.7,2.9l0.7-3.3v-13.2l2,7.8l0.9-5.5l1.4-3.1
				l-0.5-4.5l1.4-3.9l2.7,25.7l0.5-9.2l0.9,21.7l2.3-16.9l1.5,13.4l2.7-15.6l-0.1-16.4l1.6,15.9l2.1-26.7l0.2,12.5l1.5-8.1l2.5,49.7
				l-0.6,4.2l2.1,4.2l2.2-22l0.1,13.7l1.7-14.8l-0.4,47.3l2.1-5.6l0.7,14.2l1.4-11.2v13.8l1.8-15l2-5.2l0.4-4l3,25.2
				c0,0,2.5-31.8,2.6-31.5c0.1,0.3,1.8,4.2,1.8,4.2v7.9l0.5,3.5l0.4,2.5l3.1-6.2l1.3,3.9l-0.7,14.9l2.6,12.8l1.8-25.4l3.4,0l0.1,3.5
				l2.6-6.9l0.9,13.7l2.1-11.6l1-7.3l2.2,25.4l1.6-18.3l1.6,6.5l2,1.6c0,0,0,5.6,0,6c0,0.4,2.8,8.3,2.8,8.3l-0.9-13.5l2.3,6.2
				l1-17.6c0,0,1.2,5.5,1.2,4.8c0.1-0.8,0-6.6,0-6.6l2.6,10.1v-12.2l4.4,21.3l0.8-41.2l1.6,0.7l1-4.9l1,1.3l0.7-3.7l2.7,2.1l1,32
				l2.4,1.6l1.3-6.9v-6.1l2.6,5.5l1.3-18.5l0.5,13.8l1.7-5.1l1.6-8.9l1.8,15.3l2-4.5l0.2-8.9l2.4-6.1l1.4,7.9l2.1-50.2l2.7,25.5
				l2.2-14.8l2.4-9.4l2.1,9.4l1.5-2.6l2.5-12.1v12.3l1.3-2v6.2c0,0,2.4-2.3,2.4-2.1c0,0.2-0.1,14.5-0.1,14.5l1.5-2.9v7.8l1.8-2.1
				v3.5l1.2,1.9l1.1-11c0,0,1.9,9.2,1.5,8.7c-0.4-0.5,0.1-21.6,0.1-21.6l2,15.2l0.1-8.8l3.3,4.2v-10.5l2.7,8.1l1.2,2.8l1.6,8.1
				l1.2-11.6l2,9v-21.8l2.6,31.4l1.1-11l1.9,18.4c0,0,1.1-12.9,1.3-12.3c0.2,0.6,1.7,13,1.7,13l1.1-19.3l1.6,12.3l3.2-16.9v23.3
				c0,0,1.8-14.2,1.8-14.5c0-0.3,2.3-14.7,2.3-14.7l1.1,5.8l1-3.8l0.7,1.8l0.9-6.4l1.5-3.5l2.3-11.2l0.9,4.9l1.4-2.6l1.5,12
				c0,0,0.4-7.7,0.5-7c0.1,0.8,0.2,10,0.8,8.5c0.6-1.5,1.9-6.5,2-6.3c0.1,0.2,1.2,3,1.2,3s0.8-3.5,0.6-3.2c-0.2,0.3,1,1.9,1,1.9
				l2.5-4.7c0,0,0.8-13.2,0.8-12.9c0,0.3,2.8,25.4,2.8,25.4l0.2-8.5l1.6,3.6l0.5-13.2l2.1,8v-16.5l1.4-13.5l0.9,8.2l1.7,1.9
				l0.5,14.3l1.8-19.3c0,0,2.2,17.4,2.3,17.8s1,18,1,18l2.9-2.5l1.3-6l-0.6-13.2l2.5-15.2l1.5,12.3l1.5-16.7l1,34.2l1.3,3.2l1.1,3.2
				l1.4-9.4l1-5.2l0.4-5.3l1.4,4.7l1-3l1.1,1.8v-21.7l2.5,4.7l1-3.4l1.5,8.5c0,0,0.5-13.9,0.8-13c0.3,0.9,2.1,26.9,2.1,26.9
				l0.2-10.5l3.3,35.1l1.7-11.7l0.9,5.1c0,0,0.6-6.8,0.8-2.8c0.2,3.9,1.9,14,1.9,14l0.4-14.8l1.2,13.9l1.5-13.8v14.8l2-8.8l4,8.7
				l1.2,1.4v-12.7l2.6-9.4c0,0,2,19.3,1.8,14.6c-0.2-4.7-0.5-21.1-0.5-21.1l0.5-6.2l2-1.9l1.5,17.9l2.4-3l1.3,14.2l1.5,0l0.4-9.1
				c0,0,2,4.8,1.6,4.5c-0.4-0.3,0.1-8,0.1-8s1.5,5.6,1.7,4.4c0.2-1.2,0-7.7,0-7.7s1.4,2.4,1.4,1.6c0-0.8-0.6-6.3-0.6-6.3l1.2-5.1
				c0,0,2.5,2.6,2.4,2.6c0,0-0.3-10.1,0-10.6c0.3-0.5,0-6.6,0-6.6l3.2-1.2l-0.8,16.8l2.2-5.9l2.2,22.5l1.4-12.7V180l3-18.6l0.6,15.3
				l2-12.6l1.4,3V155c0,0,1.4,13.1,1.3,11.5c-0.1-1.6,0-20.8,0-20.8l1.7-1.2l1.6,22.8l1.4-27.6l1.2,24.8l1.6,4.2v8.1l1.6-24.3
				l1.6-4.8c0,0,0.5-6.9,0.6-6.9c0.1,0,1.9,29.8,1.9,29.8l1.8-35.8l0.5,37.9l1.4-6.9l1.3,24.6l1-10.2l1.2,36.1l1.8-35l1.7,15.4
				l2.4-18.3v-10.9l2.1,12.5l1.6-4.5c0,0,1-10.9,1-11.1s2.9-10,2.9-10l1.4,30l1-36.7l1.6,22.2l0.9-15l0.8,19.7l1.6-17.8l0.7-3.1
				l1-27.9l1,23.1l1.7,3l1.2,7.4v-15l1.8-3.7l0.8,7.8l1.4-5.1l0.3,15.8l0.8,9.2l1.6-26.2l1,24.2l1,5.2l1.1-1.1l0.7,1.3l1.2-10.3
				l1.3,14.2l2.5-11.5l-0.1,14.3l1.1,1.8c0,0,2.8-26.4,2.8-25.4c0,1,1.2,22,1.2,22l-0.3,8.7l3-10.4l0.2,5.7l1.4-4l-0.5,6.7l4-10
				c0,0-1,9.8-0.9,9.2c0.1-0.7,1.1-4.6,1.1-4.6l1.7,0.6l0.2-5.7l1.1,4.6l1-19.5l2.2,20.6l0.9-9l0.7,7.5l1.1,3l0.6,10l1.6-23.3
				l1.4-3.5l0.8,3.2l1.5-4.6l1.4,10.2l0.5-9.7l3.7,44.9l1.7-19.7l0.7-9l2,9.4c0,0,0.1-16.2,0-16.5c-0.1-0.3,1.9-5,1.9-5l-0.1-4
				l1.6,1.5l-0.6-8c0,0,1.8-4.4,2.2-5.2c0.4-0.8,1-2.8,1-2.8l1.4,12l2.3-3.5l1.1,16.2l-0.3,7.7l1.5,5.7l0.6,17.9l1.6-5.2l1,6
				l0.7,6.9l1-2.6v9.1l2,2.7v7.8l2-7.6l1.7,1.9l2.8-7.5l0.6,6.4l0.1-26.6l3.2-4.9l2.5,12.3l-0.4,7.6l4.2-19.1l3.6,19l-0.4,11
				l-0.8,2.8l3.2-6.8l1.1-20.7l4.4,10.1l-0.2,4.3l0.2,4.7l3.7-20.1v-11.8l3,12.5l-0.1-8.6l5.3-34.8v9.4l1.1-7.2l1.8,41.6
				c0,0,2.1-6.2,2.1-5.4c-0.1,0.8,0,9.2,0,9.2l2.2-34.1l1.8-5l-0.8,24.3l2.8,3.1v3.4l1.8-34l2.3,14.1l1.3-9.8l2.3,12.7l0.4-7.3
				l1.2,2.5l2.2-2.7l0.2-14.9L1081.9,420z"/>
		</g>
	</g>
	<path class="st4" d="M18.4,267.2v6.6l2.6,2.1l1.3,3.9v2.1l1.6,2.4l0.9,9.8l1.3,2.1l2.4,9.2v4.7l1.4,2.8l0.9-4.6l1.6-4.2l1.4-9
		l1.4,2.3l2.4-9.6v8.6l2.7-11.8l1.1,10.3v3.6l1.2,1.7l1,3.9l2.1,3.6v2.7l0.9,24l0.7-15.4l1-4.3l0.9-6.5v-4.9v-4.6l1.6-6.7l1.8,6.1
		L53,293V287v-3.5l1.7-4.3v9.4v4.1l1.8,2l0.3-1.5c0,0-0.3-3.1,0-3.5c0.3-0.4,0.9-3.2,0.9-3.2v-4.1l1.6-2.1l0.2-2.6l2.4-0.5l1.9-17.1
		l1.1,9.4v6.2l-0.1,3.3l1.3,1.2l0.8,2.2l1.8-6.3l1.4,9.5L69.8,310l1.4-1.1l1,7.1l0.7,3l0.6,3.7l1.4-8.5l1.1-6.3l1.3,0.7l0.7-4.5
		l0.6-6.9l1.8,11v10.2l1.6-7.4l2.9,10.4l1.5-9.3l2.6,14.3v6.4l2.8,0l0.8-8.1l0.7-9.5l0.9,9.5c0,0,1.3-7.9,1.3-7s2.9,6.6,2.9,6.6
		l0.5,8.1l2.6-10.6v-2.8l1.6,0.3l0.2,4.2l2.4,2.7v3l1.6,4.1l2.5,3.3v-37.4l2.2,11.9c0,0,1.1-19.4,1.3-19.4c0.2,0,1.3,11.6,1.3,11.6
		l0.3-6.7l2.3,7.5v-7.9l1.3,10.1l2.4-8.8v5.4l1.6,2.6l2.9-3.8l-0.6-7l1.6-7.3l1,3l1.4,2.7v12.3l1.8-13.6l1.1,7.3
		c0,0,1.3-14.9,1.3-14.3s1.3,7.2,1.3,7.5v7.6l-0.5,4l1.7,4.4l1.2-1.7c0,0,1.1-7.4,1-6.9c-0.1,0.6,1,4.7,1,4.7l1.6-7.2v4.2l1.7-3.2
		l2.6,7.1v-10.3l1.1-2.2l1.3-4.1l1.7-1.4l0.6,17.2l2.8-18.1l2.2,4.1V283l1.8,6.6l2.5-6.6v-9.7l2.2,3.9c0,0-0.3,10.4,0,10.7
		c0.3,0.3,0,8.8,0,8.8l1.3,6.7v2l2.2,2.5v-7l1.9-3.6v-1.7c0,0,1.3-3.6,1.9-3.6s1.8,6.9,1.7,6.3c0-0.6,0-11.7,0-11.7l1.3,1.8
		c0,0,2.3-1.9,1.9-0.9c-0.4,1-0.6,6.7-0.6,6.7l1.9,1.8l1.5,2.1l0.6,3.5l1.1-7.8c0,0,1,9.8,1.1,9.8c0.1,0,1.2-4.4,1.2-4.4l1.2,5.8
		l1.8-2.8l2.6,0.6l-0.7,11.4l1.8,6.5c0,0,1.3-8.5,1.4-7.8c0.1,0.7,1.2,15.4,1.2,15.4l1.3-16.6l1.8,6.8v-7v-7.6l1.9-5.3l1.6,5.8
		l1.2-10.6l0.8,14.5l2.6-10.3l1.6,8.8c0,0,0.4,11.5,0,11c-0.4-0.5,2.8-5,2.8-5s-0.3,4.3,0,4.6c0.3,0.3,1.8,2.4,1.8,2.4v2.4
		c0,0,2.2-8.9,2.3-8.1c0.1,0.7,0.8,7.8,0.8,7.8l1.7-3.3l1.1,2.4l1.5,6l-0.6,4.1l1.4,6.6l1.6-3.4l0.7,2.6l1.1-3.2
		c0,0-0.2,3.3,0.2,2.1c0.5-1.1,1.9-13.6,1.9-13.6L221,362l1.9-11.9l1.1,7.8c0,0,1.1-2.2,1.2-1.8c0.1,0.4,0,6,0,6l1.7-6.9l1.3,1.4
		l1.8-1.9l0.8,5.7l1.2-3.7l0.4,2.6c0,0,1.4-2.3,1.7-1.4c0.3,0.9,0.3,2.1,0.3,2.1l2.1,2.1l1.3-12.6v-10.3l3.1,5.8l0.9,13.2v4l2.7,3
		c0,0,0,6.5,0,5.9c0-0.6,2.6-13.4,2.1-12.1c-0.5,1.3,1.8,5.6,1.8,5.6l1.7-4.4l1.1,5.4l2.3-7.7l3.5,23.4l1.8-6l2.3,7.7l0.5-4.8
		l2.2,10c0,0,1.2-13.3,1.5-12.7c0.3,0.5,1.3,2.9,1.3,2.9l2.1-10.2v-6.7l1.7-10.3c0,0,2.6,5,2.5,4.6c0-0.4,0.7-7.1,0.7-7.1l2.7-7.6
		v-2.8l2.2-3.3l2.5,1l-0.5-6.6h1.6l2.3,6.6l0,10.4l1.4-1.1l0.1,1.4l2.2-8.7v8.1c0,0,1.7-4.1,1.7-3.3c0,0.8,2.2,5,2.2,5v-7.7l1.9-1.8
		v-9.4v-11.8l2.4-3.9l1.4,2.1l2.2-1.4l1.4-8.1l2.9-7.9l1.5,4.1l3.2-8.9l3-1l0.9,3.1l1.3-5.2v15.5l1.4-1.8l2.1,17.9l0.5-14.5l2.2-2
		l1.4,2.5v-8.8l1.1,2.6l1.7-1.6l0.9,2.4v2.6l3.1-4.8l-0.8,9.4l1.4,1.7l0.6,2.9l2.3-12.6l2.6-6.8l2.3,8.3v12.5l2.8-16.9l1.3,7.5v4.5
		l3.7,12.4l-0.4-10.9l1.6-3.4l0.6-6.3l1.7,14.4v2.9c0,0,1.8-7.4,1.8-7.1c0,0.2,0.4,6.1,0.4,6.1l1.1-4.6l2.4,3.6v-4.8l3,3l0.7,5.2
		l1.5-4.6l2.6,4.1v-6.6l2.6,1.6l0.8,5.8c0,0,2.3-3.8,2.2-4.2c-0.1-0.4,1.6-10.3,1.6-10.3l3,16.9v-14.2l1.6-4.1l-0.4-4.2l2.8,3.4
		l1.4-12.2c0,0,2.7,8.9,2.7,8.9c0,0,1-12.2,1-12.2l1.3,4l3.8-4.1l-1.2,9.2l1.8,0.6l0.6,4.8l2.3-6l0.2,5.8c0,0,1.4,1.4,1.6,1.5
		c0.1,0.2,1.9-1.3,1.9-1.3l-0.5,10.6l1.3-1.8l2.3-5.9v3.4l1.2,2.6v8.7l2.8-10.7l1.7,3.1v4.1l2.2-1.7l1,4.4l2.6-10.8l0.3,4.4l1.8-8.3
		l1.3-2.3l1.8,6.9v-16.7c0,0,1.5-0.8,1.5-0.2c0,0.6,0.6,6,0.6,6l2.1-3.8l1.5,7.3l-0.6,12.2l2.5-9.8l0.1,8.9l1.4-14.3l1.5,9.4
		l1.6-4.1l0.7-13l2.5,4.2l1-13.3c0,0,2,5.4,2.3,5.2c0.3-0.2,0.6-7.5,0.6-7.5l1.4,0.4l-0.4-5.6l2.7-14.4l1.8,7.6l-0.5,7l2.7,18.2
		l1.2-19.1l0.4,19.1l3.1-7.3l0.6,4.4l0.8-13.1l1.7-4.2l1.6,4.6l2.1-9.3l1.4,4.5v-6.9l2.5,6l1.7-0.6v-8.7l1-3.9l-0.4-10.2l2.8,6.3
		l2.6-7.7l1.6,18.2l-0.6,14.6l1.2,2.1l1-7.9l2-1.4v-17.1l1.4,2.4l2.6-8.1l0,8.1h1.4l-0.4,17.8l2-3.8l0.6,7.3l1.6-14.5
		c0,0,0.5,9.5,0.6,9.2c0-0.2,0.8-8.8,0.8-8.8s1.4,20.4,1.3,20.4c0,0,1.6-9.4,1.6-9.4c-0.1,0,0.6,10.9,0.6,10.9l1.4-4.9
		c0,0,1.2,2.3,1.4,1.5c0.1-0.8,2.2-2.9,2.2-2.9v8.2l2.8-9.4l2.3,12.4v-12l1.7-4.1l1.2,1.3l1-10.7l1.4-4.2l3-1.3l-0.3,4.9l1.5-0.5
		l3-3.7l0.7,5.5v6.6l3-14.2v8.5l3.4-1.1v-9l1.5-2.2l-0.4-14l4.2-7.8v-5.2l1.4-3.7h1.3l1.4,8.4l1.4-1.2l0.9,4.4l1.9-8.5v-13.5
		l-0.7-4.9l1.6-3.1l0.6,3c0,0,1.8-1.4,1.7-1.4c-0.2,0,0.2,4.2,0.2,4.2l1.4-0.2l2.5,13.6l-0.7,9l2.2-5.3l2.2,8l1.2-3.8l0.1,7.5
		l1.6-0.2l1-15.3l1.4-0.8l2.3,7.4v-13.7l1.6,11.7l0.6-1.2l1.8,1.2v6.6c0-0.1,1.7-9.3,1.7-9.3v10.4l1.2-9.8l1.6,2.1c0,0,0-5.7,0-6.2
		c0-0.5,2.4-10.9,2.4-10.9l1.1-9.4l1.6,9.4l0.7-12.7l1.5-0.5v5.1l1.6,2.1l2.1,2.1v5.1l1.3-2.3v-13.2l2.6-5.3l0.8-17.6l0.7,20.6
		l1,1.1l1.5,5.8l1.7-15.1l-0.6-9.2l1.7-0.9l-0.2-7.6l2.8-18.7l1.4,35.8l2-8.3l0.1,7l2-3.4v10.1l2.2-5.6v15.3l1.4,7.6l-0.7,10.6
		l3.2-12.4v-6.9c0,0,0.9,3.8,1.2,2.8c0.4-0.9,0-8.1,0-8.1l2.6,4.9l0.9-23.4l1.6,10l1.2-11.4l0.9,9.6v12.8c0,0,2.1,4.7,2.1,4.7
		c0,0,0.5-5.9,0.4-5.7c-0.1,0.2,2.4,8.4,2.4,8.4l1.5-4.1l1.4,0.5l-0.5-19.9l1.7-4.1l1.7,2.9l0.7-3.3v-13.2l2,7.8l0.9-5.5l1.4-3.1
		l-0.5-4.5l1.4-3.9l2.7,25.7l0.5-9.2l0.9,21.6l2.3-16.8l1.5,13.4l2.7-15.5l-0.1-16.4l1.6,15.9l2-26.7l0.2,12.5l1.5-8.1l2.5,49.6
		l-0.6,4.2l2.1,4.2l2.2-21.9l0.1,13.6l1.7-14.8l-0.4,47.3l2.1-5.6l0.7,14.2l1.4-11.2v13.7l1.8-15l2-5.2l0.4-4l3,25.2
		c0,0,2.5-31.7,2.6-31.5c0.1,0.3,1.8,4.1,1.8,4.1v7.9l0.5,3.5l0.4,2.5l3.1-6.1l1.3,3.9l-0.7,14.9l2.6,12.8l1.8-25.4l3.4,0l0.1,3.5
		l2.6-6.9l0.9,13.7l2.1-11.6l1-7.3l2.2,25.3l1.6-18.2l1.6,6.5l2,1.6c0,0,0,5.6,0,6c0,0.4,2.8,8.3,2.8,8.3l-1-13.5l2.3,6.2l1-17.5
		c0,0,1.2,5.5,1.2,4.8c0.1-0.8,0-6.6,0-6.6l2.6,10v-12.2l4.4,21.3l0.8-41.1l1.6,0.7l1-4.9l1,1.3l0.7-3.7l2.7,2.1l1,32l2.4,1.6
		l1.3-6.9v-6l2.6,5.5l1.3-18.4l0.5,13.8l1.7-5.1l1.6-8.9l1.8,15.3l2-4.5l0.2-8.9l2.4-6.1l1.4,7.9l2.1-50.1l2.7,25.5l2.2-14.8
		l2.4-9.4l2.1,9.4l1.5-2.6l2.5-12.1v12.3l1.3-2v6.2c0,0,2.4-2.3,2.4-2.1c0,0.2-0.1,14.4-0.1,14.4l1.5-2.8v7.8l1.8-2.1v3.4l1.2,1.9
		l1.1-11c0,0,1.9,9.2,1.5,8.7c-0.4-0.5,0.1-21.6,0.1-21.6l2,15.2l0.1-8.8l3.3,4.2v-10.5l2.7,8.1l1.2,2.7l1.6,8l1.2-11.6l2,8.9v-21.8
		l2.6,31.3l1.1-11l1.9,18.3c0,0,1.1-12.8,1.3-12.3c0.2,0.6,1.7,12.9,1.7,12.9l1.1-19.2l1.6,12.3l3.2-16.9v23.3
		c0,0,1.8-14.2,1.8-14.5c0-0.3,2.3-14.7,2.3-14.7l1.1,5.8l1-3.8l0.7,1.8l0.9-6.4l1.5-3.5l2.3-11.2l0.9,4.9l1.4-2.6l1.5,12
		c0,0,0.4-7.7,0.5-7c0.1,0.8,0.2,10,0.8,8.5c0.6-1.4,1.9-6.5,2-6.3c0.1,0.2,1.2,3,1.2,3s0.8-3.5,0.6-3.2c-0.2,0.3,1,1.9,1,1.9
		l2.5-4.7c0,0,0.8-13.2,0.8-12.9s2.8,25.3,2.8,25.3l0.2-8.4l1.6,3.6l0.5-13.2l2.1,7.9v-16.5l1.4-13.4l0.9,8.2l1.7,1.9l0.5,14.3
		l1.8-19.3c0,0,2.2,17.4,2.3,17.8c0.1,0.4,1,17.9,1,17.9l2.9-2.5l1.3-6l-0.6-13.2l2.5-15.2l1.5,12.2l1.5-16.7l1,34.2l1.3,3.2
		l1.1,3.2l1.4-9.4l1-5.1l0.4-5.3l1.4,4.7l1-3l1.1,1.8v-21.7l2.5,4.7l0.9-3.4l1.5,8.5c0,0,0.5-13.9,0.8-13c0.3,0.9,2.1,26.8,2.1,26.8
		l0.2-10.5l3.3,35l1.7-11.6l0.9,5.1c0,0,0.6-6.8,0.8-2.8c0.2,3.9,1.9,14,1.9,14l0.4-14.8l1.2,13.9l1.5-13.8v14.8l2-8.8l4,8.7
		l1.2,1.4V182l2.6-9.4c0,0,2,19.3,1.8,14.6c-0.2-4.7-0.5-21-0.5-21l0.5-6.2l2-1.9l1.5,17.8l2.4-3l1.3,14.2l1.5,0l0.4-9
		c0,0,2,4.8,1.6,4.5c-0.4-0.3,0.1-8,0.1-8s1.5,5.6,1.7,4.4c0.2-1.2,0-7.6,0-7.6s1.4,2.4,1.4,1.6c0-0.8-0.6-6.3-0.6-6.3l1.2-5.1
		c0,0,2.5,2.6,2.4,2.6c0,0-0.3-10.1,0-10.6c0.3-0.5,0-6.6,0-6.6l3.2-1.2l-0.8,16.7l2.2-5.9l2.2,22.5l1.4-12.7v13.8l3-18.5l0.6,15.3
		l2-12.6l1.4,3v-12.3c0,0,1.4,13.1,1.3,11.5c-0.1-1.6,0-20.7,0-20.7l1.7-1.2l1.6,22.7l1.4-27.6l1.2,24.8l1.6,4.2v8l1.6-24.3l1.6-4.8
		c0,0,0.5-6.9,0.6-6.9c0.1,0,1.9,29.7,1.9,29.7l1.8-35.7l0.5,37.9l1.4-6.8l1.3,24.5l1-10.2l1.2,36.1l1.8-35l1.7,15.4l2.4-18.3v-10.9
		l2.1,12.5l1.6-4.5c0,0,1-10.9,1-11.1c0-0.2,2.8-10,2.8-10l1.4,30l1-36.7l1.6,22.2l0.9-15l0.8,19.7l1.6-17.7l0.7-3.1l1-27.9
		l0.9,23.1l1.7,3l1.2,7.4v-14.9l1.8-3.7l0.8,7.8l1.4-5.1l0.3,15.8l0.8,9.2l1.6-26.2l1,24.2l1,5.2l1.1-1.1l0.7,1.3l1.2-10.3l1.3,14.2
		l2.5-11.5l-0.1,14.3l1.1,1.8c0,0,2.8-26.3,2.8-25.3c0,1,1.2,22,1.2,22l-0.3,8.7l3-10.4l0.2,5.7l1.4-4l-0.5,6.7l4-9.9
		c0,0-1,9.8-0.9,9.2c0.1-0.7,1-4.6,1-4.6l1.7,0.6l0.2-5.6l1.1,4.6l1-19.5l2.2,20.6l0.9-8.9l0.7,7.5l1.1,3l0.6,9.9l1.6-23.2l1.4-3.5
		l0.8,3.2l1.5-4.6l1.4,10.2l0.5-9.7l3.7,44.8l1.7-19.6l0.7-9l2,9.4c0,0,0.1-16.1,0-16.4c-0.1-0.3,1.9-5,1.9-5l-0.1-4l1.6,1.5
		l-0.6-7.9c0,0,1.8-4.4,2.2-5.2s1-2.8,1-2.8l1.4,12l2.3-3.5l1.1,16.2l-0.3,7.7l1.5,5.6l0.6,17.9l1.6-5.2l1,6l0.7,6.9l1-2.6v9l2,2.7
		v7.8l2-7.5l1.7,1.9l2.8-7.4l0.6,6.4l0.1-26.5l3.2-4.9l2.5,12.3l-0.4,7.6l4.2-19.1l3.6,19l-0.4,10.9l-0.8,2.8l3.2-6.7l1.1-20.7
		l4.4,10.1l-0.2,4.3l0.2,4.7l3.7-20v-11.8l3,12.5l-0.1-8.6l5.3-34.8v9.3l1.1-7.2l1.8,41.6c0,0,2.1-6.2,2.1-5.4c-0.1,0.8,0,9.1,0,9.1
		l2.2-34.1l1.8-5l-0.8,24.2l2.8,3.1v3.4l1.8-33.9l2.3,14.1l1.3-9.8l2.3,12.6l0.4-7.3l1.2,2.5l2.2-2.7l0.2-14.9"/>
</g>
<g>
	<path class="st5" d="M963.8,64.6v-2.5c-1.7-0.1-3.4-0.5-4.4-1.1l0.8-3c1.1,0.6,2.6,1.1,4.3,1.1c1.5,0,2.5-0.6,2.5-1.6
		c0-1-0.8-1.6-2.8-2.3c-2.8-0.9-4.7-2.2-4.7-4.8c0-2.3,1.6-4.1,4.4-4.6v-2.5h2.5v2.3c1.7,0.1,2.9,0.4,3.8,0.9l-0.8,2.9
		c-0.7-0.3-1.9-0.9-3.7-0.9c-1.7,0-2.2,0.7-2.2,1.5c0,0.9,0.9,1.4,3.1,2.2c3.1,1.1,4.3,2.5,4.3,4.9c0,2.3-1.6,4.3-4.6,4.8v2.7H963.8
		z"/>
	<path class="st5" d="M984.2,48.2c-0.4,0-0.9,0-1.5,0.1c-3.5,0.3-5.1,2.1-5.5,4.1h0.1c0.8-0.9,2-1.4,3.6-1.4c2.8,0,5.2,2,5.2,5.5
		c0,3.4-2.6,6.1-6.2,6.1c-4.5,0-6.7-3.4-6.7-7.4c0-3.2,1.2-5.8,3-7.5c1.7-1.5,3.9-2.4,6.5-2.5c0.7-0.1,1.2-0.1,1.6,0V48.2z
		 M982.1,56.7c0-1.6-0.8-2.9-2.5-2.9c-1.1,0-2,0.7-2.3,1.5c-0.1,0.2-0.2,0.5-0.2,1c0.1,1.8,0.9,3.4,2.7,3.4
		C981.2,59.7,982.1,58.4,982.1,56.7z"/>
	<path class="st5" d="M1000.4,53.8c0,5.2-2.1,8.8-6.4,8.8c-4.4,0-6.3-3.9-6.3-8.7c0-4.9,2.1-8.8,6.4-8.8
		C998.6,45.1,1000.4,49.2,1000.4,53.8z M991.6,53.9c0,3.9,0.9,5.7,2.4,5.7c1.5,0,2.4-1.9,2.4-5.8c0-3.7-0.8-5.7-2.4-5.7
		C992.6,48.1,991.6,50,991.6,53.9z"/>
	<path class="st5" d="M1002.5,60.2c0-1.4,1-2.4,2.3-2.4c1.4,0,2.3,1,2.3,2.4c0,1.4-0.9,2.4-2.3,2.4
		C1003.5,62.6,1002.5,61.6,1002.5,60.2z"/>
	<path class="st5" d="M1014.1,48.9L1014.1,48.9l-3.3,1.5l-0.7-3l4.5-2.1h3.3v16.9h-3.8V48.9z"/>
	<path class="st5" d="M1036,53.8c0,5.2-2.1,8.8-6.4,8.8c-4.4,0-6.3-3.9-6.3-8.7c0-4.9,2.1-8.8,6.4-8.8
		C1034.2,45.1,1036,49.2,1036,53.8z M1027.2,53.9c0,3.9,0.9,5.7,2.4,5.7s2.4-1.9,2.4-5.8c0-3.7-0.8-5.7-2.4-5.7
		C1028.2,48.1,1027.2,50,1027.2,53.9z"/>
</g>
<g>
	<path class="st5" d="M967.5,78.5c0-1.2-0.1-2.7-0.1-4.2h0c-0.3,1.3-0.7,2.7-1.1,3.9l-1.2,3.9h-1.8l-1.1-3.9
		c-0.3-1.2-0.7-2.6-0.9-3.9h0c-0.1,1.4-0.1,2.9-0.2,4.2l-0.2,3.8h-2.1l0.6-10.1h3l1,3.4c0.3,1.2,0.6,2.4,0.9,3.6h0
		c0.3-1.2,0.6-2.5,1-3.6l1.1-3.4h3l0.6,10.1h-2.2L967.5,78.5z"/>
	<path class="st5" d="M975.7,82.3l-0.1-0.7h0c-0.5,0.6-1.2,0.9-2.1,0.9c-1.5,0-2.4-1.1-2.4-2.2c0-1.9,1.7-2.8,4.3-2.8v-0.1
		c0-0.4-0.2-0.9-1.3-0.9c-0.8,0-1.5,0.3-2,0.6l-0.4-1.5c0.5-0.3,1.5-0.6,2.8-0.6c2.4,0,3.2,1.4,3.2,3.2v2.5c0,0.7,0,1.4,0.1,1.8
		H975.7z M975.5,78.9c-1.2,0-2.1,0.3-2.1,1.2c0,0.6,0.4,0.9,0.9,0.9c0.6,0,1-0.4,1.2-0.8c0-0.1,0-0.3,0-0.4V78.9z"/>
	<path class="st5" d="M981.2,75l0.7,1.2c0.2,0.4,0.4,0.8,0.6,1.1h0c0.2-0.4,0.4-0.8,0.6-1.1l0.6-1.2h2.5l-2.4,3.5l2.4,3.8h-2.6
		L983,81c-0.2-0.4-0.4-0.7-0.6-1.1h0c-0.2,0.4-0.4,0.8-0.6,1.1l-0.7,1.3h-2.5l2.5-3.7l-2.4-3.6H981.2z"/>
	<path class="st5" d="M989.6,73c0,0.6-0.5,1.1-1.2,1.1c-0.7,0-1.2-0.5-1.2-1.1c0-0.7,0.5-1.2,1.2-1.2
		C989.1,71.8,989.6,72.3,989.6,73z M987.3,82.3V75h2.3v7.3H987.3z"/>
	<path class="st5" d="M991.4,77.3c0-0.9,0-1.7-0.1-2.3h1.9l0.1,1h0c0.3-0.5,1-1.2,2.2-1.2c0.9,0,1.7,0.5,2,1.2h0
		c0.3-0.4,0.6-0.7,0.9-0.9c0.4-0.2,0.9-0.4,1.4-0.4c1.4,0,2.5,1,2.5,3.2v4.3h-2.2v-4c0-1.1-0.3-1.7-1.1-1.7c-0.5,0-0.9,0.4-1,0.8
		c-0.1,0.2-0.1,0.4-0.1,0.6v4.3h-2.2v-4.1c0-0.9-0.3-1.6-1-1.6c-0.6,0-0.9,0.5-1.1,0.8c-0.1,0.2-0.1,0.4-0.1,0.6v4.3h-2.2V77.3z"/>
	<path class="st5" d="M1011.5,78.6c0,2.7-1.9,3.9-3.9,3.9c-2.1,0-3.8-1.4-3.8-3.8c0-2.4,1.6-3.9,3.9-3.9
		C1010,74.8,1011.5,76.4,1011.5,78.6z M1006.2,78.7c0,1.3,0.5,2.2,1.5,2.2c0.9,0,1.5-0.9,1.5-2.2c0-1.1-0.4-2.2-1.5-2.2
		C1006.6,76.4,1006.2,77.6,1006.2,78.7z"/>
	<path class="st5" d="M1016,71.7h2.3v4.2h0c0.2-0.3,0.5-0.6,0.9-0.8c0.3-0.2,0.8-0.3,1.2-0.3c1.5,0,2.6,1,2.6,3.2v4.3h-2.3v-4
		c0-1-0.3-1.6-1.2-1.6c-0.6,0-1,0.4-1.1,0.8c-0.1,0.1-0.1,0.3-0.1,0.5v4.3h-2.3V71.7z"/>
	<path class="st5" d="M1027.1,73c0,0.6-0.5,1.1-1.2,1.1c-0.7,0-1.2-0.5-1.2-1.1c0-0.7,0.5-1.2,1.2-1.2
		C1026.6,71.8,1027.1,72.3,1027.1,73z M1024.8,82.3V75h2.3v7.3H1024.8z"/>
	<path class="st5" d="M1028.9,80.3c0.4,0.3,1.3,0.6,2,0.6c0.7,0,1-0.2,1-0.6s-0.2-0.6-1.1-0.8c-1.5-0.5-2.1-1.3-2.1-2.2
		c0-1.4,1.2-2.4,3-2.4c0.9,0,1.6,0.2,2.1,0.4l-0.4,1.6c-0.3-0.2-1-0.4-1.6-0.4c-0.6,0-0.9,0.2-0.9,0.6c0,0.3,0.3,0.5,1.2,0.8
		c1.4,0.5,2,1.2,2,2.3c0,1.4-1.1,2.4-3.2,2.4c-1,0-1.8-0.2-2.4-0.5L1028.9,80.3z"/>
	<path class="st5" d="M1037.9,72.9V75h1.6v1.7h-1.6v2.7c0,0.9,0.2,1.3,0.9,1.3c0.3,0,0.5,0,0.7-0.1l0,1.7c-0.3,0.1-0.8,0.2-1.5,0.2
		c-0.7,0-1.4-0.3-1.7-0.6c-0.4-0.4-0.6-1.1-0.6-2.2v-3h-1V75h1v-1.6L1037.9,72.9z"/>
	<path class="st5" d="M1048.1,78.6c0,2.7-1.9,3.9-3.9,3.9c-2.1,0-3.8-1.4-3.8-3.8c0-2.4,1.6-3.9,3.9-3.9
		C1046.6,74.8,1048.1,76.4,1048.1,78.6z M1042.7,78.7c0,1.3,0.5,2.2,1.5,2.2c0.9,0,1.5-0.9,1.5-2.2c0-1.1-0.4-2.2-1.5-2.2
		C1043.1,76.4,1042.7,77.6,1042.7,78.7z M1046.6,71.8l-1.8,2.3h-1.6l1.3-2.3H1046.6z"/>
	<path class="st5" d="M1049.5,77.4c0-1.1,0-1.8-0.1-2.4h2l0.1,1.4h0.1c0.4-1.1,1.3-1.5,2-1.5c0.2,0,0.3,0,0.5,0V77
		c-0.2,0-0.4-0.1-0.6-0.1c-0.8,0-1.4,0.5-1.6,1.2c0,0.1,0,0.3,0,0.5v3.7h-2.3V77.4z"/>
	<path class="st5" d="M1057.5,73c0,0.6-0.5,1.1-1.2,1.1c-0.7,0-1.2-0.5-1.2-1.1c0-0.7,0.5-1.2,1.2-1.2
		C1057,71.8,1057.5,72.3,1057.5,73z M1055.2,82.3V75h2.3v7.3H1055.2z"/>
	<path class="st5" d="M1064.8,82.1c-0.4,0.2-1.2,0.3-2,0.3c-2.4,0-3.9-1.4-3.9-3.8c0-2.1,1.5-3.9,4.2-3.9c0.6,0,1.3,0.1,1.7,0.3
		l-0.4,1.7c-0.3-0.1-0.7-0.2-1.3-0.2c-1.2,0-2,0.9-2,2.1c0,1.3,0.9,2.1,2,2.1c0.5,0,1-0.1,1.3-0.2L1064.8,82.1z"/>
	<path class="st5" d="M1073.1,78.6c0,2.7-1.9,3.9-3.9,3.9c-2.1,0-3.8-1.4-3.8-3.8c0-2.4,1.6-3.9,3.9-3.9
		C1071.6,74.8,1073.1,76.4,1073.1,78.6z M1067.8,78.7c0,1.3,0.5,2.2,1.5,2.2c0.9,0,1.5-0.9,1.5-2.2c0-1.1-0.4-2.2-1.5-2.2
		C1068.2,76.4,1067.8,77.6,1067.8,78.7z"/>
</g>
<g>
	<path class="st5" d="M965.3,91.7v8.8c0,0.6,0,1.4,0.1,1.9h-1.2l-0.1-1.3h0c-0.4,0.8-1.3,1.4-2.5,1.4c-1.8,0-3.1-1.5-3.1-3.7
		c0-2.4,1.5-3.9,3.3-3.9c1.1,0,1.9,0.5,2.2,1.1h0v-4.3H965.3z M964,98c0-0.2,0-0.4-0.1-0.6c-0.2-0.8-0.9-1.5-1.9-1.5
		c-1.4,0-2.2,1.2-2.2,2.8c0,1.5,0.7,2.7,2.1,2.7c0.9,0,1.7-0.6,1.9-1.6c0-0.2,0.1-0.4,0.1-0.6V98z"/>
	<path class="st5" d="M968.2,98.9c0,1.8,1.2,2.5,2.5,2.5c0.9,0,1.5-0.2,2-0.4l0.2,0.9c-0.5,0.2-1.3,0.5-2.4,0.5
		c-2.2,0-3.6-1.5-3.6-3.7c0-2.2,1.3-3.9,3.4-3.9c2.4,0,3,2.1,3,3.4c0,0.3,0,0.5,0,0.6H968.2z M972.1,98c0-0.8-0.3-2.1-1.8-2.1
		c-1.3,0-1.9,1.2-2,2.1H972.1z"/>
	<path class="st5" d="M975,91.7h1.3v10.6H975V91.7z"/>
	<path class="st5" d="M982.2,95.1l1.4,4.1c0.2,0.7,0.4,1.3,0.6,1.9h0c0.2-0.6,0.4-1.2,0.6-1.9l1.4-4.1h1.4l-2.8,7.3h-1.3l-2.8-7.3
		H982.2z"/>
	<path class="st5" d="M992.9,102.3l-0.1-0.9h0c-0.4,0.6-1.2,1.1-2.2,1.1c-1.5,0-2.2-1-2.2-2.1c0-1.8,1.6-2.7,4.4-2.7v-0.1
		c0-0.6-0.2-1.7-1.6-1.7c-0.7,0-1.4,0.2-1.9,0.5l-0.3-0.9c0.6-0.4,1.5-0.6,2.4-0.6c2.2,0,2.8,1.5,2.8,3v2.7c0,0.6,0,1.2,0.1,1.7
		H992.9z M992.7,98.6c-1.4,0-3.1,0.2-3.1,1.6c0,0.9,0.6,1.3,1.2,1.3c0.9,0,1.5-0.6,1.8-1.2c0-0.1,0.1-0.3,0.1-0.4V98.6z"/>
	<path class="st5" d="M996.1,91.7h1.3v10.6h-1.3V91.7z"/>
	<path class="st5" d="M1006.2,98.6c0,2.7-1.9,3.9-3.6,3.9c-2,0-3.5-1.4-3.5-3.7c0-2.4,1.6-3.9,3.6-3.9
		C1004.8,94.9,1006.2,96.4,1006.2,98.6z M1000.5,98.7c0,1.6,0.9,2.8,2.2,2.8c1.3,0,2.2-1.2,2.2-2.8c0-1.2-0.6-2.8-2.2-2.8
		C1001.1,95.9,1000.5,97.3,1000.5,98.7z"/>
	<path class="st5" d="M1007.9,97.3c0-0.9,0-1.6-0.1-2.3h1.2l0,1.4h0.1c0.3-1,1.1-1.6,2-1.6c0.2,0,0.3,0,0.4,0v1.2
		c-0.1,0-0.3,0-0.5,0c-0.9,0-1.6,0.7-1.8,1.7c0,0.2-0.1,0.4-0.1,0.6v3.9h-1.3V97.3z"/>
	<path class="st5" d="M1022.2,91.7v8.8c0,0.6,0,1.4,0.1,1.9h-1.2l-0.1-1.3h0c-0.4,0.8-1.3,1.4-2.5,1.4c-1.8,0-3.1-1.5-3.1-3.7
		c0-2.4,1.5-3.9,3.3-3.9c1.1,0,1.9,0.5,2.2,1.1h0v-4.3H1022.2z M1020.9,98c0-0.2,0-0.4-0.1-0.6c-0.2-0.8-0.9-1.5-1.9-1.5
		c-1.4,0-2.2,1.2-2.2,2.8c0,1.5,0.7,2.7,2.1,2.7c0.9,0,1.7-0.6,1.9-1.6c0-0.2,0.1-0.4,0.1-0.6V98z"/>
	<path class="st5" d="M1025.2,98.9c0,1.8,1.2,2.5,2.5,2.5c0.9,0,1.5-0.2,2-0.4l0.2,0.9c-0.5,0.2-1.3,0.5-2.4,0.5
		c-2.2,0-3.6-1.5-3.6-3.7c0-2.2,1.3-3.9,3.4-3.9c2.4,0,3,2.1,3,3.4c0,0.3,0,0.5,0,0.6H1025.2z M1029,98c0-0.8-0.3-2.1-1.8-2.1
		c-1.3,0-1.9,1.2-2,2.1H1029z"/>
	<path class="st5" d="M1035.1,91.7h1.3v10.6h-1.3V91.7z"/>
	<path class="st5" d="M1042.7,102.3l-0.1-0.9h0c-0.4,0.6-1.2,1.1-2.2,1.1c-1.5,0-2.2-1-2.2-2.1c0-1.8,1.6-2.7,4.4-2.7v-0.1
		c0-0.6-0.2-1.7-1.6-1.7c-0.7,0-1.4,0.2-1.9,0.5l-0.3-0.9c0.6-0.4,1.5-0.6,2.4-0.6c2.2,0,2.8,1.5,2.8,3v2.7c0,0.6,0,1.2,0.1,1.7
		H1042.7z M1042.5,98.6c-1.4,0-3.1,0.2-3.1,1.6c0,0.9,0.6,1.3,1.2,1.3c0.9,0,1.5-0.6,1.8-1.2c0-0.1,0.1-0.3,0.1-0.4V98.6z"/>
	<path class="st5" d="M1053.1,102.3l-0.1-0.9h0c-0.4,0.6-1.2,1.1-2.2,1.1c-1.5,0-2.2-1-2.2-2.1c0-1.8,1.6-2.7,4.4-2.7v-0.1
		c0-0.6-0.2-1.7-1.6-1.7c-0.7,0-1.4,0.2-1.9,0.5l-0.3-0.9c0.6-0.4,1.5-0.6,2.4-0.6c2.2,0,2.8,1.5,2.8,3v2.7c0,0.6,0,1.2,0.1,1.7
		H1053.1z M1052.9,98.6c-1.4,0-3.1,0.2-3.1,1.6c0,0.9,0.6,1.3,1.2,1.3c0.9,0,1.5-0.6,1.8-1.2c0-0.1,0.1-0.3,0.1-0.4V98.6z"/>
	<path class="st5" d="M1061.5,102.1c-0.3,0.2-1.1,0.4-2.1,0.4c-2.2,0-3.6-1.5-3.6-3.7c0-2.2,1.5-3.9,3.9-3.9c0.8,0,1.5,0.2,1.8,0.4
		l-0.3,1c-0.3-0.2-0.8-0.3-1.5-0.3c-1.7,0-2.6,1.2-2.6,2.7c0,1.7,1.1,2.7,2.5,2.7c0.8,0,1.2-0.2,1.6-0.4L1061.5,102.1z"/>
	<path class="st5" d="M1068.1,102.1c-0.3,0.2-1.1,0.4-2.1,0.4c-2.2,0-3.6-1.5-3.6-3.7c0-2.2,1.5-3.9,3.9-3.9c0.8,0,1.5,0.2,1.8,0.4
		l-0.3,1c-0.3-0.2-0.8-0.3-1.5-0.3c-1.7,0-2.6,1.2-2.6,2.7c0,1.7,1.1,2.7,2.5,2.7c0.8,0,1.2-0.2,1.6-0.4L1068.1,102.1z"/>
	<path class="st5" d="M1071.1,93c0,0.5-0.3,0.8-0.8,0.8c-0.5,0-0.8-0.4-0.8-0.8c0-0.5,0.3-0.8,0.8-0.8
		C1070.8,92.2,1071.1,92.6,1071.1,93z M1069.7,102.3v-7.3h1.3v7.3H1069.7z"/>
	<path class="st5" d="M1079.7,98.6c0,2.7-1.9,3.9-3.6,3.9c-2,0-3.5-1.4-3.5-3.7c0-2.4,1.6-3.9,3.6-3.9
		C1078.3,94.9,1079.7,96.4,1079.7,98.6z M1074,98.7c0,1.6,0.9,2.8,2.2,2.8c1.3,0,2.2-1.2,2.2-2.8c0-1.2-0.6-2.8-2.2-2.8
		C1074.6,95.9,1074,97.3,1074,98.7z M1078.2,91.9l-1.8,2.1h-0.9l1.3-2.1H1078.2z"/>
	<path class="st5" d="M1081.4,97c0-0.8,0-1.4-0.1-2h1.2l0.1,1.2h0c0.4-0.7,1.2-1.4,2.4-1.4c1,0,2.6,0.6,2.6,3.1v4.3h-1.3v-4.2
		c0-1.2-0.4-2.1-1.7-2.1c-0.9,0-1.5,0.6-1.8,1.4c-0.1,0.2-0.1,0.4-0.1,0.6v4.4h-1.3V97z"/>
</g>
<g>
	<path class="st5" d="M958.6,122.3v-0.8l1-1c2.5-2.4,3.6-3.6,3.6-5.1c0-1-0.5-1.9-1.9-1.9c-0.9,0-1.6,0.4-2.1,0.8l-0.4-0.9
		c0.7-0.6,1.6-1,2.8-1c2.1,0,3,1.4,3,2.8c0,1.8-1.3,3.3-3.4,5.2l-0.8,0.7v0h4.4v1.1H958.6z"/>
	<path class="st5" d="M967.1,121.4c0.3,0,0.6,0,1.1,0c0.8-0.1,1.5-0.4,2-0.9c0.6-0.6,1.1-1.4,1.3-2.6h0c-0.5,0.7-1.3,1-2.3,1
		c-1.8,0-2.9-1.3-2.9-3c0-1.8,1.3-3.5,3.3-3.5c2,0,3.2,1.6,3.2,4.1c0,2.1-0.7,3.6-1.7,4.6c-0.8,0.7-1.8,1.2-2.8,1.3
		c-0.5,0.1-0.9,0.1-1.2,0.1V121.4z M967.5,115.8c0,1.2,0.7,2.1,1.9,2.1c0.9,0,1.6-0.4,1.9-1c0.1-0.1,0.1-0.3,0.1-0.5
		c0-1.7-0.6-2.9-2-2.9C968.3,113.4,967.5,114.4,967.5,115.8z"/>
	<path class="st5" d="M983.9,111.7v8.8c0,0.6,0,1.4,0.1,1.9h-1.2l-0.1-1.3h0c-0.4,0.8-1.3,1.4-2.5,1.4c-1.8,0-3.1-1.5-3.1-3.7
		c0-2.4,1.5-3.9,3.3-3.9c1.1,0,1.9,0.5,2.2,1.1h0v-4.3H983.9z M982.5,118c0-0.2,0-0.4-0.1-0.6c-0.2-0.8-0.9-1.5-1.9-1.5
		c-1.4,0-2.2,1.2-2.2,2.8c0,1.5,0.7,2.7,2.1,2.7c0.9,0,1.7-0.6,1.9-1.6c0-0.2,0.1-0.4,0.1-0.6V118z"/>
	<path class="st5" d="M986.8,118.9c0,1.8,1.2,2.5,2.5,2.5c0.9,0,1.5-0.2,2-0.4l0.2,0.9c-0.5,0.2-1.3,0.5-2.4,0.5
		c-2.2,0-3.6-1.5-3.6-3.7c0-2.2,1.3-3.9,3.4-3.9c2.4,0,3,2.1,3,3.4c0,0.3,0,0.5,0,0.6H986.8z M990.6,118c0-0.8-0.3-2.1-1.8-2.1
		c-1.3,0-1.9,1.2-2,2.1H990.6z"/>
	<path class="st5" d="M1000.8,122.3l-0.1-0.9h0c-0.4,0.6-1.2,1.1-2.2,1.1c-1.5,0-2.2-1-2.2-2.1c0-1.8,1.6-2.7,4.4-2.7v-0.1
		c0-0.6-0.2-1.7-1.6-1.7c-0.7,0-1.4,0.2-1.9,0.5l-0.3-0.9c0.6-0.4,1.5-0.6,2.4-0.6c2.2,0,2.8,1.5,2.8,3v2.7c0,0.6,0,1.2,0.1,1.7
		H1000.8z M1000.6,118.6c-1.4,0-3.1,0.2-3.1,1.6c0,0.9,0.6,1.3,1.2,1.3c0.9,0,1.5-0.6,1.8-1.2c0-0.1,0.1-0.3,0.1-0.4V118.6z"/>
	<path class="st5" d="M1003.9,122.3c0-0.5,0.1-1.2,0.1-1.9v-8.8h1.3v4.6h0c0.5-0.8,1.3-1.3,2.5-1.3c1.8,0,3.1,1.5,3.1,3.7
		c0,2.6-1.6,3.9-3.3,3.9c-1,0-1.9-0.4-2.4-1.4h0l-0.1,1.2H1003.9z M1005.3,119.4c0,0.2,0,0.3,0.1,0.5c0.3,0.9,1,1.5,2,1.5
		c1.4,0,2.2-1.1,2.2-2.8c0-1.5-0.8-2.7-2.2-2.7c-0.9,0-1.7,0.6-2,1.6c0,0.2-0.1,0.3-0.1,0.5V119.4z"/>
	<path class="st5" d="M1012.5,117.3c0-0.9,0-1.6-0.1-2.3h1.2l0,1.4h0.1c0.3-1,1.1-1.6,2-1.6c0.2,0,0.3,0,0.4,0v1.2
		c-0.1,0-0.3,0-0.5,0c-0.9,0-1.6,0.7-1.8,1.7c0,0.2-0.1,0.4-0.1,0.6v3.9h-1.3V117.3z"/>
	<path class="st5" d="M1018.9,113c0,0.5-0.3,0.8-0.8,0.8c-0.5,0-0.8-0.4-0.8-0.8c0-0.5,0.3-0.8,0.8-0.8
		C1018.6,112.2,1018.9,112.6,1018.9,113z M1017.5,122.3v-7.3h1.3v7.3H1017.5z"/>
	<path class="st5" d="M1021,111.7h1.3v10.6h-1.3V111.7z"/>
	<path class="st5" d="M1027.3,122.3v-0.8l1-1c2.5-2.4,3.6-3.6,3.6-5.1c0-1-0.5-1.9-1.9-1.9c-0.9,0-1.6,0.4-2.1,0.8l-0.4-0.9
		c0.7-0.6,1.6-1,2.8-1c2.1,0,3,1.4,3,2.8c0,1.8-1.3,3.3-3.4,5.2l-0.8,0.7v0h4.4v1.1H1027.3z"/>
	<path class="st5" d="M1041.4,117.3c0,3.3-1.2,5.1-3.4,5.1c-1.9,0-3.2-1.8-3.2-5c0-3.3,1.4-5.1,3.4-5.1
		C1040.3,112.4,1041.4,114.2,1041.4,117.3z M1036.1,117.5c0,2.5,0.8,4,2,4c1.3,0,2-1.6,2-4.1c0-2.4-0.6-4-2-4
		C1037,113.4,1036.1,114.8,1036.1,117.5z"/>
	<path class="st5" d="M1042.7,122.3v-0.8l1-1c2.5-2.4,3.6-3.6,3.6-5.1c0-1-0.5-1.9-1.9-1.9c-0.9,0-1.6,0.4-2.1,0.8l-0.4-0.9
		c0.7-0.6,1.6-1,2.8-1c2.1,0,3,1.4,3,2.8c0,1.8-1.3,3.3-3.4,5.2l-0.8,0.7v0h4.4v1.1H1042.7z"/>
	<path class="st5" d="M1056.8,117.3c0,3.3-1.2,5.1-3.4,5.1c-1.9,0-3.2-1.8-3.2-5c0-3.3,1.4-5.1,3.4-5.1
		C1055.7,112.4,1056.8,114.2,1056.8,117.3z M1051.5,117.5c0,2.5,0.8,4,2,4c1.3,0,2-1.6,2-4.1c0-2.4-0.6-4-2-4
		C1052.4,113.4,1051.5,114.8,1051.5,117.5z"/>
</g>
<g>
	<path class="st5" d="M71.6,201v-1.4c-1,0-1.9-0.3-2.5-0.6l0.4-1.7c0.6,0.3,1.5,0.6,2.4,0.6c0.8,0,1.4-0.3,1.4-0.9
		c0-0.6-0.5-0.9-1.5-1.3c-1.6-0.5-2.6-1.2-2.6-2.7c0-1.3,0.9-2.3,2.4-2.6v-1.4h1.4v1.3c1,0,1.6,0.2,2.1,0.5l-0.4,1.6
		c-0.4-0.2-1-0.5-2.1-0.5c-0.9,0-1.2,0.4-1.2,0.8c0,0.5,0.5,0.8,1.7,1.2c1.7,0.6,2.4,1.4,2.4,2.7c0,1.3-0.9,2.4-2.6,2.7v1.5H71.6z"
		/>
	<path class="st5" d="M80.9,199.7v-2.2h-4.2V196l3.6-5.7H83v5.5h1.1v1.7H83v2.2H80.9z M80.9,195.8v-2.1c0-0.6,0-1.1,0.1-1.8h-0.1
		c-0.3,0.6-0.6,1.2-0.9,1.8l-1.3,2.1v0H80.9z"/>
	<path class="st5" d="M91.8,190.3v1.4l-3.9,8h-2.3l3.9-7.6v0h-4.3v-1.8H91.8z"/>
	<path class="st5" d="M93.2,198.5c0-0.8,0.5-1.3,1.3-1.3c0.8,0,1.3,0.6,1.3,1.3c0,0.8-0.5,1.3-1.3,1.3
		C93.7,199.9,93.2,199.3,93.2,198.5z"/>
	<path class="st5" d="M96.8,199.7v-1.3l1.2-1.1c2.1-1.8,3.1-2.9,3.1-4c0-0.8-0.5-1.4-1.6-1.4c-0.8,0-1.5,0.4-2,0.8l-0.6-1.6
		c0.7-0.5,1.8-1,3.1-1c2.1,0,3.3,1.2,3.3,3c0,1.6-1.1,2.8-2.5,4.1l-0.9,0.7v0h3.6v1.8H96.8z"/>
	<path class="st5" d="M104.9,199.7v-1.3l1.2-1.1c2.1-1.8,3.1-2.9,3.1-4c0-0.8-0.5-1.4-1.6-1.4c-0.8,0-1.5,0.4-2,0.8l-0.6-1.6
		c0.7-0.5,1.8-1,3.1-1c2.1,0,3.3,1.2,3.3,3c0,1.6-1.1,2.8-2.5,4.1l-0.9,0.7v0h3.6v1.8H104.9z"/>
</g>
<g>
	<path class="st5" d="M469.2,190v-1.4c-1,0-1.9-0.3-2.5-0.6l0.4-1.7c0.6,0.3,1.5,0.6,2.4,0.6c0.8,0,1.4-0.3,1.4-0.9
		c0-0.6-0.5-0.9-1.5-1.3c-1.6-0.5-2.6-1.2-2.6-2.7c0-1.3,0.9-2.3,2.4-2.6v-1.4h1.4v1.3c1,0,1.6,0.2,2.1,0.5l-0.4,1.6
		c-0.4-0.2-1-0.5-2.1-0.5c-0.9,0-1.2,0.4-1.2,0.8c0,0.5,0.5,0.8,1.7,1.2c1.7,0.6,2.4,1.4,2.4,2.7c0,1.3-0.9,2.4-2.6,2.7v1.5H469.2z"
		/>
	<path class="st5" d="M478.5,188.7v-2.2h-4.2V185l3.6-5.7h2.7v5.5h1.1v1.7h-1.1v2.2H478.5z M478.5,184.8v-2.1c0-0.6,0-1.1,0.1-1.8
		h-0.1c-0.3,0.6-0.6,1.2-0.9,1.8l-1.3,2.1v0H478.5z"/>
	<path class="st5" d="M482.5,186.2c0-1.1,0.7-1.9,1.7-2.4v0c-0.9-0.5-1.4-1.2-1.4-2.1c0-1.6,1.4-2.7,3.3-2.7c2.2,0,3.1,1.3,3.1,2.4
		c0,0.8-0.4,1.6-1.4,2.1v0c0.9,0.3,1.7,1.1,1.7,2.3c0,1.7-1.4,2.9-3.6,2.9C483.6,188.9,482.5,187.5,482.5,186.2z M487.4,186.2
		c0-0.8-0.6-1.3-1.5-1.6c-0.7,0.2-1.1,0.7-1.1,1.4c0,0.7,0.5,1.3,1.3,1.3C486.9,187.3,487.4,186.8,487.4,186.2z M484.9,181.7
		c0,0.6,0.6,1,1.3,1.3c0.5-0.1,1-0.6,1-1.2c0-0.6-0.3-1.2-1.1-1.2C485.3,180.6,484.9,181.1,484.9,181.7z"/>
	<path class="st5" d="M490.8,187.5c0-0.8,0.5-1.3,1.3-1.3c0.8,0,1.3,0.6,1.3,1.3c0,0.8-0.5,1.3-1.3,1.3
		C491.4,188.9,490.8,188.3,490.8,187.5z"/>
	<path class="st5" d="M497.3,181.2L497.3,181.2l-1.8,0.9l-0.4-1.7l2.5-1.2h1.8v9.4h-2.1V181.2z"/>
	<path class="st5" d="M503.2,187.1c0.3,0,0.5,0,1,0c0.7,0,1.3-0.2,1.9-0.6c0.6-0.4,1-1,1.2-1.7l0,0c-0.4,0.4-1,0.7-1.9,0.7
		c-1.6,0-2.9-1.1-2.9-2.9c0-1.8,1.5-3.4,3.6-3.4c2.4,0,3.6,1.9,3.6,4.1c0,2-0.6,3.4-1.7,4.3c-0.9,0.8-2.1,1.3-3.6,1.3
		c-0.4,0-0.8,0-1,0V187.1z M504.6,182.4c0,0.8,0.4,1.5,1.3,1.5c0.6,0,1-0.3,1.2-0.6c0.1-0.1,0.1-0.3,0.1-0.6c0-1-0.4-2-1.4-2
		C505.1,180.7,504.6,181.4,504.6,182.4z"/>
</g>
<g>
	<path class="st5" d="M634.7,91v-1.4c-1,0-1.9-0.3-2.5-0.6l0.4-1.7c0.6,0.3,1.5,0.6,2.4,0.6c0.8,0,1.4-0.3,1.4-0.9
		c0-0.6-0.5-0.9-1.5-1.3c-1.6-0.5-2.6-1.2-2.6-2.7c0-1.3,0.9-2.3,2.5-2.6v-1.4h1.4v1.3c1,0,1.6,0.2,2.1,0.5l-0.4,1.6
		c-0.4-0.2-1-0.5-2.1-0.5c-0.9,0-1.2,0.4-1.2,0.8c0,0.5,0.5,0.8,1.7,1.2c1.7,0.6,2.4,1.4,2.4,2.7c0,1.3-0.9,2.4-2.6,2.7V91H634.7z"
		/>
	<path class="st5" d="M646.4,82.1h-3.7l-0.2,1.4c0.2,0,0.4,0,0.6,0c0.9,0,1.8,0.2,2.5,0.7c0.7,0.5,1.1,1.3,1.1,2.4
		c0,1.8-1.5,3.3-4,3.3c-1.1,0-2.1-0.3-2.6-0.5l0.4-1.7c0.4,0.2,1.3,0.5,2.1,0.5c0.9,0,1.9-0.4,1.9-1.4c0-1-0.8-1.6-2.7-1.6
		c-0.5,0-0.9,0-1.3,0.1l0.6-4.9h5.2V82.1z"/>
	<path class="st5" d="M654.9,80.3v1.4l-3.9,8h-2.3l3.9-7.6v0h-4.3v-1.8H654.9z"/>
	<path class="st5" d="M656.3,88.5c0-0.8,0.5-1.3,1.3-1.3s1.3,0.6,1.3,1.3c0,0.8-0.5,1.3-1.3,1.3C656.9,89.9,656.3,89.3,656.3,88.5z"
		/>
	<path class="st5" d="M659.8,87.2c0-1.1,0.7-1.9,1.7-2.4v0c-0.9-0.5-1.4-1.2-1.4-2.1c0-1.6,1.4-2.7,3.3-2.7c2.2,0,3.1,1.3,3.1,2.4
		c0,0.8-0.4,1.6-1.4,2.1v0c0.9,0.3,1.7,1.1,1.7,2.3c0,1.7-1.4,2.9-3.6,2.9C660.9,89.9,659.8,88.5,659.8,87.2z M664.7,87.2
		c0-0.8-0.6-1.3-1.5-1.6c-0.7,0.2-1.1,0.7-1.1,1.4c0,0.7,0.5,1.3,1.3,1.3C664.2,88.3,664.7,87.8,664.7,87.2z M662.2,82.7
		c0,0.6,0.6,1,1.3,1.3c0.5-0.1,1-0.6,1-1.2c0-0.6-0.3-1.2-1.1-1.2C662.6,81.6,662.2,82.1,662.2,82.7z"/>
	<path class="st5" d="M674.1,81.8c-0.2,0-0.5,0-0.9,0c-2,0.2-2.8,1.2-3.1,2.3h0c0.5-0.5,1.1-0.8,2-0.8c1.6,0,2.9,1.1,2.9,3.1
		c0,1.9-1.4,3.4-3.5,3.4c-2.5,0-3.7-1.9-3.7-4.1c0-1.8,0.7-3.2,1.7-4.2c0.9-0.9,2.2-1.3,3.6-1.4c0.4,0,0.7,0,0.9,0V81.8z
		 M672.9,86.6c0-0.9-0.5-1.6-1.4-1.6c-0.6,0-1.1,0.4-1.3,0.8c-0.1,0.1-0.1,0.3-0.1,0.6c0,1,0.5,1.9,1.5,1.9
		C672.4,88.2,672.9,87.5,672.9,86.6z"/>
</g>
<g>
	<path class="st5" d="M849.3,77.9v-1.4c-1,0-1.9-0.3-2.5-0.6l0.4-1.7c0.6,0.3,1.5,0.6,2.4,0.6c0.8,0,1.4-0.3,1.4-0.9
		c0-0.6-0.5-0.9-1.5-1.3c-1.6-0.5-2.6-1.2-2.6-2.7c0-1.3,0.9-2.3,2.5-2.6v-1.4h1.4v1.3c1,0,1.6,0.2,2.1,0.5l-0.4,1.6
		c-0.4-0.2-1-0.5-2.1-0.5c-0.9,0-1.2,0.4-1.2,0.8c0,0.5,0.5,0.8,1.7,1.2c1.7,0.6,2.4,1.4,2.4,2.7c0,1.3-0.9,2.4-2.6,2.7v1.5H849.3z"
		/>
	<path class="st5" d="M861,69.1h-3.7l-0.2,1.4c0.2,0,0.4,0,0.6,0c0.9,0,1.8,0.2,2.5,0.7c0.7,0.5,1.1,1.3,1.1,2.4
		c0,1.8-1.5,3.3-4,3.3c-1.1,0-2.1-0.3-2.6-0.5l0.4-1.7c0.4,0.2,1.3,0.5,2.1,0.5c0.9,0,1.9-0.4,1.9-1.4c0-1-0.8-1.6-2.7-1.6
		c-0.5,0-0.9,0-1.3,0.1l0.6-4.9h5.2V69.1z"/>
	<path class="st5" d="M863.5,75.1c0.3,0,0.5,0,1,0c0.7,0,1.3-0.2,1.9-0.6c0.6-0.4,1-1,1.2-1.7l0,0c-0.4,0.4-1,0.7-1.9,0.7
		c-1.6,0-2.9-1.1-2.9-2.9c0-1.8,1.5-3.4,3.6-3.4c2.4,0,3.6,1.9,3.6,4.1c0,2-0.6,3.4-1.7,4.3c-0.9,0.8-2.1,1.3-3.6,1.3
		c-0.4,0-0.8,0-1,0V75.1z M864.8,70.4c0,0.8,0.4,1.5,1.3,1.5c0.6,0,1-0.3,1.2-0.6c0.1-0.1,0.1-0.3,0.1-0.6c0-1-0.4-2-1.4-2
		C865.3,68.7,864.8,69.4,864.8,70.4z"/>
	<path class="st5" d="M870.9,75.5c0-0.8,0.5-1.3,1.3-1.3s1.3,0.6,1.3,1.3c0,0.8-0.5,1.3-1.3,1.3C871.5,76.8,870.9,76.3,870.9,75.5z"
		/>
	<path class="st5" d="M881.5,71.9c0,2.9-1.2,4.9-3.6,4.9c-2.4,0-3.5-2.2-3.5-4.9c0-2.7,1.2-4.9,3.6-4.9
		C880.5,67.1,881.5,69.3,881.5,71.9z M876.6,72c0,2.2,0.5,3.2,1.4,3.2c0.9,0,1.3-1.1,1.3-3.2c0-2.1-0.4-3.2-1.3-3.2
		C877.2,68.8,876.6,69.8,876.6,72z"/>
	<path class="st5" d="M886.5,76.7v-2.2h-4.2V73l3.6-5.7h2.7v5.5h1.1v1.7h-1.1v2.2H886.5z M886.5,72.8v-2.1c0-0.6,0-1.1,0.1-1.8h-0.1
		c-0.3,0.6-0.6,1.2-0.9,1.8l-1.3,2.1v0H886.5z"/>
</g>
<line class="st6" x1="1101.7" y1="405.6" x2="5.5" y2="405.6"/>
<line class="st7" x1="943" y1="118.8" x2="943" y2="43.8"/>
<g>
	<defs>
		<rect id="SVGID_7_" x="-16.5" y="35.6" width="1127.1" height="408.2"/>
	</defs>
	<clipPath id="SVGID_8_">
		<use xlink:href="#SVGID_7_"  style="overflow:visible;"/>
	</clipPath>
	<circle class="st8" cx="943" cy="122.8" r="4"/>
</g>
<line class="st7" x1="64" y1="253.8" x2="64" y2="189.8"/>
<g>
	<defs>
		<rect id="SVGID_9_" x="-16.5" y="35.6" width="1127.1" height="408.2"/>
	</defs>
	<clipPath id="SVGID_10_">
		<use xlink:href="#SVGID_9_"  style="overflow:visible;"/>
	</clipPath>
	<circle class="st9" cx="64" cy="257.8" r="4"/>
</g>
<line class="st7" x1="461.7" y1="242.8" x2="461.7" y2="178.8"/>
<g>
	<defs>
		<rect id="SVGID_11_" x="-16.5" y="35.6" width="1127.1" height="408.2"/>
	</defs>
	<clipPath id="SVGID_12_">
		<use xlink:href="#SVGID_11_"  style="overflow:visible;"/>
	</clipPath>
	<circle class="st10" cx="461.7" cy="246.8" r="4"/>
</g>
<line class="st7" x1="627.2" y1="143.8" x2="627.2" y2="79.8"/>
<g>
	<defs>
		<rect id="SVGID_13_" x="-16.5" y="35.6" width="1127.1" height="408.2"/>
	</defs>
	<clipPath id="SVGID_14_">
		<use xlink:href="#SVGID_13_"  style="overflow:visible;"/>
	</clipPath>
	<circle class="st11" cx="627.2" cy="147.8" r="4"/>
</g>
<line class="st7" x1="841.1" y1="133.8" x2="841.1" y2="69.8"/>
<g>
	<defs>
		<rect id="SVGID_15_" x="-16.5" y="35.6" width="1127.1" height="408.2"/>
	</defs>
	<clipPath id="SVGID_16_">
		<use xlink:href="#SVGID_15_"  style="overflow:visible;"/>
	</clipPath>
	<circle class="st12" cx="841.1" cy="137.8" r="4"/>
</g>
<g>
	<path class="st5" d="M8.2,424.3c0.6-0.1,1.4-0.2,2.3-0.2c1.4,0,2.3,0.3,3,0.8c0.8,0.6,1.3,1.5,1.3,2.8c0,1.4-0.5,2.4-1.2,3
		c-0.8,0.6-2,1-3.4,1c-0.9,0-1.5-0.1-1.9-0.1V424.3z M9.9,430.3c0.1,0,0.4,0,0.6,0c1.5,0,2.5-0.8,2.5-2.6c0-1.5-0.9-2.4-2.3-2.4
		c-0.4,0-0.6,0-0.8,0.1V430.3z"/>
	<path class="st5" d="M17.6,424.7c0,0.5-0.4,0.8-0.9,0.8c-0.5,0-0.9-0.4-0.9-0.8c0-0.5,0.3-0.8,0.9-0.8S17.6,424.2,17.6,424.7z
		 M15.9,431.6v-5.4h1.7v5.4H15.9z"/>
	<path class="st5" d="M22.9,431.4c-0.3,0.1-0.9,0.2-1.5,0.2c-1.7,0-2.8-1.1-2.8-2.8c0-1.6,1.1-2.9,3.1-2.9c0.4,0,0.9,0.1,1.3,0.2
		l-0.3,1.2c-0.2-0.1-0.5-0.2-0.9-0.2c-0.9,0-1.5,0.6-1.4,1.5c0,1,0.7,1.5,1.5,1.5c0.4,0,0.7-0.1,1-0.2L22.9,431.4z"/>
	<path class="st5" d="M28,425.9L28,425.9l-1.4,0.6l-0.3-1.3l1.9-0.9h1.4v7.2H28V425.9z"/>
	<path class="st5" d="M36.7,425.8H34l-0.2,1.1c0.2,0,0.3,0,0.5,0c0.7,0,1.4,0.2,1.9,0.5c0.5,0.4,0.9,1,0.9,1.8
		c0,1.3-1.1,2.5-3.1,2.5c-0.9,0-1.6-0.2-2-0.4l0.3-1.3c0.3,0.2,1,0.4,1.6,0.4c0.7,0,1.4-0.3,1.4-1.1c0-0.7-0.6-1.2-2-1.2
		c-0.4,0-0.7,0-1,0.1l0.5-3.8h3.9V425.8z"/>
</g>
<g>
	<path class="st5" d="M228.6,424.3c0.6-0.1,1.4-0.2,2.3-0.2c1.4,0,2.3,0.3,3,0.8c0.8,0.6,1.3,1.5,1.3,2.8c0,1.4-0.5,2.4-1.2,3
		c-0.8,0.6-2,1-3.4,1c-0.9,0-1.5-0.1-1.9-0.1V424.3z M230.3,430.3c0.1,0,0.4,0,0.6,0c1.5,0,2.5-0.8,2.5-2.6c0-1.5-0.9-2.4-2.3-2.4
		c-0.4,0-0.6,0-0.8,0.1V430.3z"/>
	<path class="st5" d="M238,424.7c0,0.5-0.4,0.8-0.9,0.8c-0.5,0-0.9-0.4-0.9-0.8c0-0.5,0.3-0.8,0.9-0.8S238,424.2,238,424.7z
		 M236.3,431.6v-5.4h1.7v5.4H236.3z"/>
	<path class="st5" d="M243.3,431.4c-0.3,0.1-0.9,0.2-1.5,0.2c-1.7,0-2.8-1.1-2.8-2.8c0-1.6,1.1-2.9,3.1-2.9c0.4,0,0.9,0.1,1.3,0.2
		l-0.3,1.2c-0.2-0.1-0.5-0.2-0.9-0.2c-0.9,0-1.5,0.6-1.4,1.5c0,1,0.7,1.5,1.5,1.5c0.4,0,0.7-0.1,1-0.2L243.3,431.4z"/>
	<path class="st5" d="M248.4,425.9L248.4,425.9l-1.4,0.6l-0.3-1.3l1.9-0.9h1.4v7.2h-1.6V425.9z"/>
	<path class="st5" d="M256.9,425.6c-0.2,0-0.4,0-0.6,0c-1.5,0.1-2.1,0.9-2.3,1.7h0c0.4-0.4,0.8-0.6,1.5-0.6c1.2,0,2.2,0.8,2.2,2.3
		c0,1.4-1.1,2.6-2.6,2.6c-1.9,0-2.8-1.4-2.8-3.1c0-1.3,0.5-2.5,1.3-3.2c0.7-0.6,1.6-1,2.8-1.1c0.3,0,0.5,0,0.7,0V425.6z M256,429.2
		c0-0.7-0.4-1.2-1.1-1.2c-0.5,0-0.8,0.3-1,0.6c0,0.1-0.1,0.2-0.1,0.4c0,0.8,0.4,1.4,1.2,1.4C255.6,430.5,256,429.9,256,429.2z"/>
</g>
<g>
	<path class="st5" d="M442.4,424.3c0.6-0.1,1.4-0.2,2.3-0.2c1.4,0,2.3,0.3,3,0.8c0.8,0.6,1.3,1.5,1.3,2.8c0,1.4-0.5,2.4-1.2,3
		c-0.8,0.6-2,1-3.4,1c-0.9,0-1.5-0.1-1.9-0.1V424.3z M444.1,430.3c0.1,0,0.4,0,0.6,0c1.5,0,2.5-0.8,2.5-2.6c0-1.5-0.9-2.4-2.3-2.4
		c-0.4,0-0.6,0-0.8,0.1V430.3z"/>
	<path class="st5" d="M451.8,424.7c0,0.5-0.4,0.8-0.9,0.8c-0.5,0-0.9-0.4-0.9-0.8c0-0.5,0.3-0.8,0.9-0.8S451.8,424.2,451.8,424.7z
		 M450.1,431.6v-5.4h1.7v5.4H450.1z"/>
	<path class="st5" d="M457.1,431.4c-0.3,0.1-0.9,0.2-1.5,0.2c-1.7,0-2.8-1.1-2.8-2.8c0-1.6,1.1-2.9,3.1-2.9c0.4,0,0.9,0.1,1.3,0.2
		l-0.3,1.2c-0.2-0.1-0.5-0.2-0.9-0.2c-0.9,0-1.5,0.6-1.4,1.5c0,1,0.7,1.5,1.5,1.5c0.4,0,0.7-0.1,1-0.2L457.1,431.4z"/>
	<path class="st5" d="M462.2,425.9L462.2,425.9l-1.4,0.6l-0.3-1.3l1.9-0.9h1.4v7.2h-1.6V425.9z"/>
	<path class="st5" d="M471.3,424.4v1.1l-2.9,6.1h-1.8l2.9-5.8v0h-3.3v-1.4H471.3z"/>
</g>
<g>
	<path class="st5" d="M668,424.3c0.6-0.1,1.4-0.2,2.3-0.2c1.4,0,2.3,0.3,3,0.8c0.8,0.6,1.3,1.5,1.3,2.8c0,1.4-0.5,2.4-1.2,3
		c-0.8,0.6-2,1-3.4,1c-0.9,0-1.5-0.1-1.9-0.1V424.3z M669.7,430.3c0.1,0,0.4,0,0.6,0c1.5,0,2.5-0.8,2.5-2.6c0-1.5-0.9-2.4-2.3-2.4
		c-0.4,0-0.6,0-0.8,0.1V430.3z"/>
	<path class="st5" d="M677.4,424.7c0,0.5-0.4,0.8-0.9,0.8c-0.5,0-0.9-0.4-0.9-0.8c0-0.5,0.3-0.8,0.9-0.8S677.4,424.2,677.4,424.7z
		 M675.6,431.6v-5.4h1.7v5.4H675.6z"/>
	<path class="st5" d="M682.7,431.4c-0.3,0.1-0.9,0.2-1.5,0.2c-1.7,0-2.8-1.1-2.8-2.8c0-1.6,1.1-2.9,3.1-2.9c0.4,0,0.9,0.1,1.3,0.2
		l-0.3,1.2c-0.2-0.1-0.5-0.2-0.9-0.2c-0.9,0-1.5,0.6-1.4,1.5c0,1,0.7,1.5,1.5,1.5c0.4,0,0.7-0.1,1-0.2L682.7,431.4z"/>
	<path class="st5" d="M687.8,425.9L687.8,425.9l-1.4,0.6l-0.3-1.3l1.9-0.9h1.4v7.2h-1.6V425.9z"/>
	<path class="st5" d="M691.6,429.7c0-0.9,0.5-1.5,1.3-1.8v0c-0.7-0.4-1-0.9-1-1.6c0-1.2,1.1-2,2.5-2c1.7,0,2.4,1,2.4,1.8
		c0,0.6-0.3,1.2-1,1.6v0c0.7,0.3,1.3,0.9,1.3,1.8c0,1.3-1.1,2.2-2.8,2.2C692.5,431.7,691.6,430.7,691.6,429.7z M695.3,429.7
		c0-0.6-0.5-1-1.1-1.2c-0.6,0.2-0.9,0.5-0.9,1.1c0,0.5,0.4,1,1,1C694.9,430.5,695.3,430.2,695.3,429.7z M693.4,426.3
		c0,0.5,0.4,0.8,1,1c0.4-0.1,0.7-0.5,0.7-0.9c0-0.4-0.3-0.9-0.9-0.9C693.7,425.4,693.4,425.8,693.4,426.3z"/>
</g>
<g>
	<path class="st5" d="M877.2,424.3c0.6-0.1,1.4-0.2,2.3-0.2c1.4,0,2.3,0.3,3,0.8c0.8,0.6,1.3,1.5,1.3,2.8c0,1.4-0.5,2.4-1.2,3
		c-0.8,0.6-2,1-3.4,1c-0.9,0-1.5-0.1-1.9-0.1V424.3z M878.9,430.3c0.1,0,0.4,0,0.6,0c1.5,0,2.5-0.8,2.5-2.6c0-1.5-0.9-2.4-2.3-2.4
		c-0.4,0-0.6,0-0.8,0.1V430.3z"/>
	<path class="st5" d="M886.6,424.7c0,0.5-0.4,0.8-0.9,0.8c-0.5,0-0.9-0.4-0.9-0.8c0-0.5,0.3-0.8,0.9-0.8S886.6,424.2,886.6,424.7z
		 M884.9,431.6v-5.4h1.7v5.4H884.9z"/>
	<path class="st5" d="M891.9,431.4c-0.3,0.1-0.9,0.2-1.5,0.2c-1.7,0-2.8-1.1-2.8-2.8c0-1.6,1.1-2.9,3.1-2.9c0.4,0,0.9,0.1,1.3,0.2
		l-0.3,1.2c-0.2-0.1-0.5-0.2-0.9-0.2c-0.9,0-1.5,0.6-1.4,1.5c0,1,0.7,1.5,1.5,1.5c0.4,0,0.7-0.1,1-0.2L891.9,431.4z"/>
	<path class="st5" d="M897,425.9L897,425.9l-1.4,0.6l-0.3-1.3l1.9-0.9h1.4v7.2H897V425.9z"/>
	<path class="st5" d="M901.5,430.4c0.2,0,0.4,0,0.7,0c0.5,0,1-0.2,1.4-0.4c0.5-0.3,0.8-0.8,0.9-1.3l0,0c-0.3,0.3-0.8,0.5-1.4,0.5
		c-1.2,0-2.2-0.8-2.2-2.2c0-1.4,1.1-2.6,2.7-2.6c1.8,0,2.7,1.4,2.7,3.1c0,1.5-0.5,2.6-1.3,3.3c-0.7,0.6-1.6,1-2.7,1
		c-0.3,0-0.6,0-0.8,0V430.4z M902.5,426.8c0,0.6,0.3,1.1,1,1.1c0.5,0,0.8-0.2,0.9-0.5c0.1-0.1,0.1-0.2,0.1-0.4c0-0.8-0.3-1.5-1-1.5
		C902.9,425.5,902.5,426,902.5,426.8z"/>
</g>
<g>
	<path class="st5" d="M1047.3,424.3c0.6-0.1,1.4-0.2,2.3-0.2c1.4,0,2.3,0.3,3,0.8c0.8,0.6,1.3,1.5,1.3,2.8c0,1.4-0.5,2.4-1.2,3
		c-0.8,0.6-2,1-3.4,1c-0.9,0-1.5-0.1-1.9-0.1V424.3z M1049,430.3c0.1,0,0.4,0,0.6,0c1.5,0,2.5-0.8,2.5-2.6c0-1.5-0.9-2.4-2.3-2.4
		c-0.4,0-0.6,0-0.8,0.1V430.3z"/>
	<path class="st5" d="M1056.7,424.7c0,0.5-0.4,0.8-0.9,0.8c-0.5,0-0.9-0.4-0.9-0.8c0-0.5,0.3-0.8,0.9-0.8S1056.7,424.2,1056.7,424.7
		z M1054.9,431.6v-5.4h1.7v5.4H1054.9z"/>
	<path class="st5" d="M1062,431.4c-0.3,0.1-0.9,0.2-1.5,0.2c-1.7,0-2.8-1.1-2.8-2.8c0-1.6,1.1-2.9,3.1-2.9c0.4,0,0.9,0.1,1.3,0.2
		l-0.3,1.2c-0.2-0.1-0.5-0.2-0.9-0.2c-0.9,0-1.5,0.6-1.4,1.5c0,1,0.7,1.5,1.5,1.5c0.4,0,0.7-0.1,1-0.2L1062,431.4z"/>
	<path class="st5" d="M1064.9,431.6v-1l0.9-0.8c1.6-1.4,2.3-2.2,2.3-3c0-0.6-0.4-1-1.2-1c-0.6,0-1.2,0.3-1.5,0.6l-0.5-1.2
		c0.5-0.4,1.4-0.7,2.3-0.7c1.6,0,2.5,0.9,2.5,2.2c0,1.2-0.9,2.2-1.9,3.1l-0.7,0.5v0h2.7v1.4H1064.9z"/>
	<path class="st5" d="M1076.3,428c0,2.2-0.9,3.7-2.7,3.7c-1.8,0-2.7-1.7-2.7-3.7c0-2.1,0.9-3.7,2.7-3.7
		C1075.6,424.3,1076.3,426,1076.3,428z M1072.6,428c0,1.6,0.4,2.4,1,2.4s1-0.8,1-2.4c0-1.6-0.3-2.4-1-2.4
		C1073,425.6,1072.6,426.4,1072.6,428z"/>
</g>
<g>
	<defs>
		<rect id="SVGID_17_" x="-16.5" y="35.6" width="1127.1" height="408.2"/>
	</defs>
	<clipPath id="SVGID_18_">
		<use xlink:href="#SVGID_17_"  style="overflow:visible;"/>
	</clipPath>
	<defs>
		<filter id="Adobe_OpacityMaskFilter_1_" filterUnits="userSpaceOnUse" x="225.4" y="167" width="683.1" height="239.8">
			<feFlood  style="flood-color:white;flood-opacity:1" result="back"/>
			<feBlend  in="SourceGraphic" in2="back" mode="normal"/>
		</filter>
	</defs>
	<mask maskUnits="userSpaceOnUse" x="225.4" y="167" width="683.1" height="239.8" id="SVGID_19_">
		<g class="st13">
			
				<linearGradient id="SVGID_20_" gradientUnits="userSpaceOnUse" x1="-54.1043" y1="677.2532" x2="-53.1043" y2="677.2532" gradientTransform="matrix(0 -80.2068 -80.2068 0 54867.3828 -3944.3923)">
				<stop  offset="0" style="stop-color:#FFFFFF"/>
				<stop  offset="1" style="stop-color:#000000"/>
			</linearGradient>
			<rect x="-16.5" y="35.6" class="st14" width="1127.1" height="408.2"/>
		</g>
	</mask>
	<g class="st15">
		<g>
			<defs>
				<rect id="SVGID_21_" x="225.4" y="167" width="683.1" height="239.8"/>
			</defs>
			<clipPath id="SVGID_22_">
				<use xlink:href="#SVGID_21_"  style="overflow:visible;"/>
			</clipPath>
			<line class="st16" x1="242.9" y1="180" x2="242.9" y2="405.8"/>
			<line class="st16" x1="457.3" y1="180" x2="457.3" y2="405.8"/>
			<line class="st16" x1="681.8" y1="180" x2="681.8" y2="405.8"/>
			<line class="st16" x1="891.1" y1="180" x2="891.1" y2="405.8"/>
		</g>
	</g>
</g>
</svg>
