<svg xmlns="http://www.w3.org/2000/svg" viewBox="0 0 39.2 39.2"><defs><style>.cls-1{fill:#007dc3;}.cls-2{fill:#fff;}</style></defs><g id="Capa_2" data-name="Capa 2"><g id="Capa_1-2" data-name="Capa 1"><path class="cls-1" d="M19.6,39.2A19.6,19.6,0,1,0,0,19.6,19.61,19.61,0,0,0,19.6,39.2"/><path class="cls-2" d="M19.87,12.08a23.92,23.92,0,0,0-5.37.57c-1.3.41-1.95.81-1.95,1.06s.65.65,1.95,1a23.92,23.92,0,0,0,5.37.57,23.92,23.92,0,0,0,5.37-.57c1.3-.4,2-.81,2-1s-.65-.65-2-1.06a23.92,23.92,0,0,0-5.37-.57m-7.32,2.77V17c0,.24.65.65,1.95,1.06a24.51,24.51,0,0,0,5.37.57A24.51,24.51,0,0,0,25.24,18c1.38-.33,2-.82,2-1.06V14.85c-1.3.81-4.07,1.3-7.32,1.3s-6-.49-7.32-1.3m0,3.25v2.11c0,.25.65.65,1.95,1.06a23.92,23.92,0,0,0,5.37.57,23.92,23.92,0,0,0,5.37-.57c1.38-.32,2-.81,2-1.06V18.1c-1.3.81-4.07,1.3-7.32,1.3s-6-.49-7.32-1.3m0,3.25v2.12c0,.24.65.65,1.95,1.05a23.92,23.92,0,0,0,5.37.57,23.92,23.92,0,0,0,5.37-.57c1.38-.32,2-.81,2-1.05V21.35c-1.3.82-4.07,1.3-7.32,1.3s-6-.48-7.32-1.3m7.32,4.56a23.22,23.22,0,0,1-5.77-.65c-1.55-.49-2.36-1.06-2.36-1.79V13.71c0-.73.81-1.3,2.36-1.79a22.76,22.76,0,0,1,5.77-.65,22.83,22.83,0,0,1,5.78.65C27.19,12.41,28,13,28,13.71v9.76c0,.73-.81,1.3-2.35,1.79a23.3,23.3,0,0,1-5.78.65"/></g></g></svg>