<svg id="Capa_1" data-name="Capa 1" xmlns="http://www.w3.org/2000/svg" xmlns:xlink="http://www.w3.org/1999/xlink" viewBox="0 0 39.2 39.2"><defs><style>.cls-1{fill:none;}.cls-2{clip-path:url(#clip-path);}.cls-3{fill:#fff;}.cls-4{fill:#a6bdd1;}</style><clipPath id="clip-path" transform="translate(0.24)"><rect class="cls-1" x="-0.24" width="39.2" height="39.2"/></clipPath></defs><g class="cls-2"><path class="cls-3" d="M19.36,39.2A19.6,19.6,0,1,0-.24,19.6a19.59,19.59,0,0,0,19.6,19.6" transform="translate(0.24)"/><path class="cls-4" d="M13.56,20.6H9.86a.5.5,0,0,1,0-1h4a.52.52,0,0,1,.4.2l2.5,4.2,4.6-10.1a.59.59,0,0,1,.7-.3.22.22,0,0,1,.2.2l2.9,5.7h3.7a.47.47,0,0,1,.5.5.56.56,0,0,1-.5.6h-4c-.2,0-.4-.1-.4-.3L22,15.2l-4.6,10c-.2.4-.5.5-.7.4a.22.22,0,0,1-.2-.2Z" transform="translate(0.24)"/></g></svg>