<?xml version="1.0" encoding="utf-8"?>
<!-- Generator: Adobe Illustrator 25.2.0, SVG Export Plug-In . SVG Version: 6.00 Build 0)  -->
<svg version="1.1" id="Capa_1" xmlns="http://www.w3.org/2000/svg" xmlns:xlink="http://www.w3.org/1999/xlink" x="0px" y="0px"
	 viewBox="0 0 40 40" style="enable-background:new 0 0 40 40;" xml:space="preserve">
<style type="text/css">
	.st0{clip-path:url(#SVGID_2_);fill:#2670CA;}
	.st1{clip-path:url(#SVGID_2_);fill:#FFFFFF;}
</style>
<g>
	<defs>
		<rect id="SVGID_1_" x="0.4" y="0.4" width="39.2" height="39.2"/>
	</defs>
	<clipPath id="SVGID_2_">
		<use xlink:href="#SVGID_1_"  style="overflow:visible;"/>
	</clipPath>
	<path class="st0" d="M20,39.6c10.8,0,19.6-8.8,19.6-19.6C39.6,9.2,30.8,0.4,20,0.4S0.4,9.2,0.4,20C0.4,30.8,9.2,39.6,20,39.6"/>
	<path class="st1" d="M24.5,11h-3c-0.3,0-0.5-0.2-0.5-0.5s0.2-0.5,0.5-0.5h3c0.3,0,0.5,0.2,0.5,0.5S24.8,11,24.5,11 M16.5,13
		c-0.3,0-0.5-0.2-0.5-0.5c0-1.4,1.1-2.5,2.5-2.5c0.3,0,0.5,0.2,0.5,0.5S18.8,11,18.5,11c-0.8,0-1.5,0.7-1.5,1.5
		C17,12.8,16.8,13,16.5,13 M29.5,13c-0.3,0-0.5-0.2-0.5-0.5c0-0.8-0.7-1.5-1.5-1.5c-0.3,0-0.5-0.2-0.5-0.5s0.2-0.5,0.5-0.5
		c1.4,0,2.5,1.1,2.5,2.5C30,12.8,29.8,13,29.5,13 M10.5,19c-0.3,0-0.5-0.2-0.5-0.5c0-1.4,1.1-2.5,2.5-2.5c0.3,0,0.5,0.2,0.5,0.5
		c0,0.3-0.2,0.5-0.5,0.5c-0.8,0-1.5,0.7-1.5,1.5C11,18.8,10.8,19,10.5,19 M29.5,19c-0.3,0-0.5-0.2-0.5-0.5v-3c0-0.3,0.2-0.5,0.5-0.5
		c0.3,0,0.5,0.2,0.5,0.5v3C30,18.8,29.8,19,29.5,19 M27.5,24c-0.3,0-0.5-0.2-0.5-0.5s0.2-0.5,0.5-0.5c0.8,0,1.5-0.7,1.5-1.5
		c0-0.3,0.2-0.5,0.5-0.5c0.3,0,0.5,0.2,0.5,0.5C30,22.9,28.9,24,27.5,24 M10.5,25c-0.3,0-0.5-0.2-0.5-0.5v-3c0-0.3,0.2-0.5,0.5-0.5
		s0.5,0.2,0.5,0.5v3C11,24.8,10.8,25,10.5,25 M17,17v4.5c0,0.8,0.7,1.5,1.5,1.5H23v-4.5c0-0.8-0.7-1.5-1.5-1.5H17z M23.5,25
		c-0.3,0-0.5-0.2-0.5-0.5V24h-4.5c-1.4,0-2.5-1.1-2.5-2.5V17h-0.5c-0.3,0-0.5-0.2-0.5-0.5c0-0.3,0.2-0.5,0.5-0.5H16v-0.5
		c0-0.3,0.2-0.5,0.5-0.5s0.5,0.2,0.5,0.5V16h4.5c1.4,0,2.5,1.1,2.5,2.5V23h0.5c0.3,0,0.5,0.2,0.5,0.5S24.8,24,24.5,24H24v0.5
		C24,24.8,23.8,25,23.5,25 M12.5,30c-1.4,0-2.5-1.1-2.5-2.5c0-0.3,0.2-0.5,0.5-0.5s0.5,0.2,0.5,0.5c0,0.8,0.7,1.5,1.5,1.5
		c0.3,0,0.5,0.2,0.5,0.5S12.8,30,12.5,30 M18.5,30h-3c-0.3,0-0.5-0.2-0.5-0.5s0.2-0.5,0.5-0.5h3c0.3,0,0.5,0.2,0.5,0.5
		S18.8,30,18.5,30 M21.5,30c-0.3,0-0.5-0.2-0.5-0.5s0.2-0.5,0.5-0.5c0.8,0,1.5-0.7,1.5-1.5c0-0.3,0.2-0.5,0.5-0.5
		c0.3,0,0.5,0.2,0.5,0.5C24,28.9,22.9,30,21.5,30"/>
</g>
</svg>
