<?xml version="1.0" encoding="utf-8"?>
<!-- Generator: Adobe Illustrator 25.2.0, SVG Export Plug-In . SVG Version: 6.00 Build 0)  -->
<svg version="1.1" id="Capa_1" xmlns="http://www.w3.org/2000/svg" xmlns:xlink="http://www.w3.org/1999/xlink" x="0px" y="0px"
	 viewBox="0 0 40 40" style="enable-background:new 0 0 40 40;" xml:space="preserve">
<style type="text/css">
	.st0{clip-path:url(#SVGID_2_);fill:#714295;}
	.st1{clip-path:url(#SVGID_2_);fill:#FFFFFF;}
</style>
<g>
	<defs>
		<rect id="SVGID_1_" x="0.4" y="0.4" width="39.2" height="39.2"/>
	</defs>
	<clipPath id="SVGID_2_">
		<use xlink:href="#SVGID_1_"  style="overflow:visible;"/>
	</clipPath>
	<path class="st0" d="M20,39.6c10.8,0,19.6-8.8,19.6-19.6C39.6,9.2,30.8,0.4,20,0.4S0.4,9.2,0.4,20C0.4,30.8,9.2,39.6,20,39.6"/>
	<path class="st1" d="M22.5,24h-7c-0.3,0-0.5-0.2-0.5-0.5s0.2-0.5,0.5-0.5h7c0.3,0,0.5,0.2,0.5,0.5S22.8,24,22.5,24 M20.5,26h-5
		c-0.3,0-0.5-0.2-0.5-0.5s0.2-0.5,0.5-0.5h5c0.3,0,0.5,0.2,0.5,0.5S20.8,26,20.5,26 M19,13c-1.1,0-2,0.9-2,2s0.9,2,2,2
		c1.1,0,2-0.9,2-2S20.1,13,19,13 M17.5,17.6l-1.3,0.8c-0.5,0.3-0.7,0.8-0.7,1.3V20h7v-0.4c0-0.5-0.3-1-0.7-1.3l-1.3-0.8
		c-0.5,0.3-1,0.4-1.5,0.4C18.5,18,17.9,17.9,17.5,17.6 M19,12c1.7,0,3,1.3,3,3c0,0.7-0.2,1.4-0.7,1.9l1,0.6c0.8,0.5,1.2,1.3,1.2,2.1
		V20H25v-8.5c0-0.8-0.7-1.5-1.5-1.5h-9c-0.8,0-1.5,0.7-1.5,1.5V20h1.5v-0.4c0-0.9,0.5-1.7,1.2-2.1l1-0.6c-1.1-1.3-0.9-3.2,0.4-4.2
		C17.6,12.2,18.3,12,19,12 M13,21v5.5c0,0.8,0.7,1.5,1.5,1.5h9c0.8,0,1.5-0.7,1.5-1.5V21H13z M15.1,29c0.2,0.6,0.8,1,1.4,1h9
		c0.8,0,1.5-0.7,1.5-1.5v-15c0-0.6-0.4-1.2-1-1.4v14.4c0,1.4-1.1,2.5-2.5,2.5H15.1z M25.5,31h-9c-1.2,0-2.2-0.9-2.5-2
		c-1.2-0.2-2-1.3-2-2.5v-15c0-1.4,1.1-2.5,2.5-2.5h9c1.2,0,2.2,0.9,2.5,2c1.2,0.2,2,1.3,2,2.5v15C28,29.9,26.9,31,25.5,31"/>
</g>
</svg>
