<svg xmlns="http://www.w3.org/2000/svg" viewBox="0 0 39.2 39.2"><defs><style>.cls-1{fill:#fff;}.cls-2{fill:#a5bcd0;}</style></defs><g id="Capa_2" data-name="Capa 2"><g id="Capa_1-2" data-name="Capa 1"><path class="cls-1" d="M19.6,39.2A19.6,19.6,0,1,0,0,19.6,19.61,19.61,0,0,0,19.6,39.2"/><path class="cls-2" d="M13.91,23.43H12.76a.58.58,0,1,1,0-1.15h1.15a.58.58,0,0,1,0,1.15m3.45,0H16.21a.58.58,0,1,1,0-1.15h1.15a.58.58,0,0,1,0,1.15m3.45,0H19.66a.58.58,0,1,1,0-1.15h1.15a.58.58,0,0,1,0,1.15m3.45,0H23.11a.58.58,0,1,1,0-1.15h1.15a.58.58,0,0,1,0,1.15m-11.5,2.3H11.61a.58.58,0,1,1,0-1.15h1.15a.58.58,0,0,1,0,1.15m6.9,0h-4.6a.58.58,0,1,1,0-1.15h4.6a.58.58,0,0,1,0,1.15m3.45,0H22a.58.58,0,1,1,0-1.15h1.15a.58.58,0,0,1,0,1.15m3.45,0H25.41a.58.58,0,1,1,0-1.15h1.15a.58.58,0,0,1,0,1.15M12.76,10.78A1.77,1.77,0,0,0,11,12.5V20h16.1V12.5a1.76,1.76,0,0,0-1.72-1.72Zm-2,10.35L8.73,26.07c-.11.35,0,.58.35.81H28.86a.54.54,0,0,0,.57-.58v-.23l-2.07-4.94ZM28.86,28H9.31A1.78,1.78,0,0,1,7.58,26.3a1.4,1.4,0,0,1,.12-.69l2.18-5.17V12.5a2.85,2.85,0,0,1,2.88-2.87H25.41a2.84,2.84,0,0,1,2.87,2.87v7.94l2.19,5.17a1.78,1.78,0,0,1-.92,2.3,1.4,1.4,0,0,1-.69.12"/></g></g></svg>