<svg xmlns="http://www.w3.org/2000/svg" viewBox="0 0 38.55 38.55"><defs><style>.cls-1{fill:#253b80;}.cls-2{fill:none;stroke:#fff;stroke-linecap:round;stroke-linejoin:round;stroke-width:0.75px;}</style></defs><g id="Capa_2" data-name="Capa 2"><g id="Capa_1-2" data-name="Capa 1"><path class="cls-1" d="M19.28,0A19.28,19.28,0,1,1,0,19.28,19.28,19.28,0,0,1,19.28,0"/><path class="cls-2" d="M14.62,12.63l-2.42-.07L9.32,11.2l-2,0c0,.27,0,.34.13.57a2.63,2.63,0,0,1,.3.38c-.11,0-.11,0-.19.06.1.2.49.77.26.93.23.13.19.44.25.66s.16.28.36.45,1,.83.89,1.29l-.13,0c0,.09,0,.2,0,.3l-.09,0s0,.16,0,.22c-.21,0-.4-.11-.58,0s0,.28.19.42c.37.34.56.64,1.11.32,0,.54.27.41.58.77s.41.89,0,1.07c0,.26.43.49.62.66s.29.34.44.48.32.14.44.28.11.37.33.44.45,0,.41-.27a2.63,2.63,0,0,0-.74-.85c-.24.26-.4-.25-.41-.36a3.26,3.26,0,0,0-.18-.63c-.11-.46,0-1.05-.36-1.43,0,0,0,.13,0,.18l-.06,0c-.25-.21-.16-.46-.21-.73a1.82,1.82,0,0,0-.13-.28c-.07-.09-.22-.14-.25-.18s0-.2-.08-.3a2.26,2.26,0,0,0-.23-.31,3,3,0,0,1-.33-.67c-.09-.24-.31-.37-.43-.6a1.5,1.5,0,0,1-.15-.67,1.65,1.65,0,0,1,0-.7,4.52,4.52,0,0,0,.21-.62,1.58,1.58,0,0,0,.65.43l.6.3c-.2.28-.22.08-.16.44a2.77,2.77,0,0,0,.2.66A8.87,8.87,0,0,1,11,15.14c.19,0,.11.08.2.16a2.11,2.11,0,0,1,.27.25c.1.11.05.2.21.3s.35,0,.41.09c.23.2-.12.38,0,.6a.59.59,0,0,0,.57.25.83.83,0,0,1,0,.31c.36-.06.31.29.6.3a1,1,0,0,1,.07.18.31.31,0,0,1-.23,0,.83.83,0,0,1,0-.15c-.29,0-.38.72-.2.85s.83,0,1,.48c0,0,.14-.08.15-.09A1.93,1.93,0,0,1,14,19c-.06,0-.16,0-.22,0,.08.27.55.26.75.44a2.8,2.8,0,0,1,.43.63c.12.19.16.43.28.63a2.55,2.55,0,0,0,.3.49c-.11.27.14.52.23.76s.12.3.07.4-.26.15-.3.32h.1v.08c-.55-.11.11.93.3,1.11,0,0,0-.06,0-.08.22.18.66,0,.78.24-.09.07-.05.11-.09.19.47.06.4.41.71.55s.74.09,1.08.29.58.37.86.57a1.87,1.87,0,0,0,.38.24c.2.08.36,0,.55.06s.56.24.8.32.25.18.41.29a.56.56,0,0,0,.38.12c.64,0,1.13.32,1.81.05,1.24-.51,1.89.8,2.74,1.37a.69.69,0,0,0,.16-.22c-.23-.31,0-.57.18-.84s.18-.54.65-.51c.15,0,.64.22.77.12.34-.26-.34-.36-.34-.56-.24,0-.44-.27-.53-.45.32,0,.23-.29.31-.47a2.24,2.24,0,0,1,.77-.1c.23,0,.55.24.78.15s.16-.2.24-.25.18,0,.33-.15.18-.49.45-.51c0,.18-.08.3-.09.47l.26.12c.13-.19.1-.45.22-.65s.28-.27.33-.45a1.28,1.28,0,0,0-.28.21,2.86,2.86,0,0,1,.52-1.22c.25-.42.32-.95-.34-.92a7.19,7.19,0,0,0-1.24.27c-.07,0-.1.09-.19.1a2.21,2.21,0,0,1-.34-.06.91.91,0,0,0-.67.12.57.57,0,0,1,.26.22c-.15.13-.43.24-.5.42s.09.32.05.42-.19.12-.2.18,0,.23,0,.29-.07.09-.24.22-.34.32-.24.54c-.18.05-.67.27-.45-.15a3.35,3.35,0,0,0-.54,0c-.26,0-.45.31-.68.38s-.57,0-.84.07-.31.1-.42,0-.12-.34-.27-.44-.5-.12-.74-.36a3.07,3.07,0,0,1-.45-.62c-.14-.22-.33-.38-.48-.6a2.2,2.2,0,0,1-.23-.74,1.2,1.2,0,0,1,0-.42c0-.1.1-.18.1-.28s-.09-.13-.1-.19a7.48,7.48,0,0,1,.18-1.32c0-.45-.18-1,.17-1.35a1.47,1.47,0,0,1,.1.22,3.67,3.67,0,0,1,.27-.87c-.25.23-1.13-.19-1.35-.43a1.62,1.62,0,0,1-.2-.62,2,2,0,0,0-.3-.69c-.31-.44-.59-.93-.87-1.38a1,1,0,0,0-.58-.47c-.37-.08-.49.15-.74.22a.81.81,0,0,1,0-.15.9.9,0,0,0-.15.18h.05c-.19.57-.6.3-1,.12a.85.85,0,0,1-.42-.28c-.11-.14,0-.33-.23-.39.31-.17,0-.4-.21-.53a2.42,2.42,0,0,1-.34-.28c-.09-.12-.05-.21-.12-.36-.33-.64-1.3-.26-1.85-.46a1.52,1.52,0,0,0,0,.21"/></g></g></svg>