<?xml version="1.0" encoding="utf-8"?>
<!-- Generator: Adobe Illustrator 25.2.0, SVG Export Plug-In . SVG Version: 6.00 Build 0)  -->
<svg version="1.1" id="Capa_1" xmlns="http://www.w3.org/2000/svg" xmlns:xlink="http://www.w3.org/1999/xlink" x="0px" y="0px"
	 viewBox="0 0 40 40" style="enable-background:new 0 0 40 40;" xml:space="preserve">
<style type="text/css">
	.st0{clip-path:url(#SVGID_2_);fill:#FFFFFF;}
	.st1{clip-path:url(#SVGID_2_);fill:#AABBCE;}
</style>
<g>
	<defs>
		<rect id="SVGID_1_" x="0.4" y="0.4" width="39.2" height="39.2"/>
	</defs>
	<clipPath id="SVGID_2_">
		<use xlink:href="#SVGID_1_"  style="overflow:visible;"/>
	</clipPath>
	<path class="st0" d="M20,39.6c10.8,0,19.6-8.8,19.6-19.6C39.6,9.2,30.8,0.4,20,0.4S0.4,9.2,0.4,20C0.4,30.8,9.2,39.6,20,39.6"/>
	<path class="st1" d="M16.5,17c-0.3,0-0.5,0.2-0.5,0.5v3c0,0.3,0.2,0.5,0.5,0.5h3c0.3,0,0.5-0.2,0.5-0.5v-3c0-0.3-0.2-0.5-0.5-0.5
		H16.5z M19.5,22h-3c-0.8,0-1.5-0.7-1.5-1.5v-3c0-0.8,0.7-1.5,1.5-1.5h3c0.8,0,1.5,0.7,1.5,1.5v3C21,21.3,20.3,22,19.5,22 M22.5,25
		h-7c-0.3,0-0.5-0.2-0.5-0.5s0.2-0.5,0.5-0.5h7c0.3,0,0.5,0.2,0.5,0.5S22.8,25,22.5,25 M23.5,27h-8c-0.3,0-0.5-0.2-0.5-0.5
		s0.2-0.5,0.5-0.5h8c0.3,0,0.5,0.2,0.5,0.5S23.8,27,23.5,27 M25,13h3v-2h-3V13z M23.5,17c-0.3,0-0.5,0.2-0.5,0.5v3
		c0,0.3,0.2,0.5,0.5,0.5H24v-4H23.5z M13,11c-1.7,0.3-3,1.8-3,3.5v8.9c0.8-0.9,1.9-1.4,3-1.4V11z M25,14v10.3l1.5,1.5l1.5-1.5V14H25
		z M13,23c-1.7,0-3,1.3-3,3s1.3,3,3,3h17V15h-1v9.5c0,0.1-0.1,0.3-0.1,0.4l-2,2C26.8,27,26.7,27,26.5,27c-0.1,0-0.3-0.1-0.4-0.1
		l-2-2C24,24.8,24,24.7,24,24.5V22h-0.5c-0.8,0-1.5-0.7-1.5-1.5v-3c0-0.8,0.7-1.5,1.5-1.5H24v-1H14v7.5c0,0.3-0.2,0.5-0.5,0.5H13z
		 M30.5,30H13c-2.2,0-4-1.8-4-4V14.5C9,12,11,10,13.5,10c0.3,0,0.5,0.2,0.5,0.5V14h10v-3.5c0-0.3,0.2-0.5,0.5-0.5h4
		c0.3,0,0.5,0.2,0.5,0.5V14h1.5c0.3,0,0.5,0.2,0.5,0.5v15C31,29.8,30.8,30,30.5,30"/>
</g>
</svg>
