<svg id="Capa_1" data-name="Capa 1" xmlns="http://www.w3.org/2000/svg" viewBox="0 0 27.91 22.56"><defs><style>.cls-1{fill:#fdb71a;}</style></defs><path class="cls-1" d="M20.69,22.56H7.23a.5.5,0,0,1,0-1H10.4V19H1.11A1.12,1.12,0,0,1,0,17.88V16.07H0V1.1A1.12,1.12,0,0,1,1.11,0H26.8a1.09,1.09,0,0,1,1.11,1.08v15h0v1.79A1.11,1.11,0,0,1,27,18.94a.51.51,0,0,1-.17,0H17.52v2.59h3.17a.5.5,0,0,1,0,1Zm-9.29-1h5.12V19H11.4Zm15.4-3.11h0ZM17.16,18h9.5c.11,0,.25,0,.25-.12V16.56H1v1.31a.11.11,0,0,0,.11.1h9.65l.14,0H17ZM1,15.56H26.91V1.1c0-.06-.05-.09-.1-.1H1.11A.11.11,0,0,0,1,1.11Z" transform="translate(0 0)"/><path class="cls-1" d="M17.63,13.13H10.31a1,1,0,0,1-1-.81L8.68,8.41H8.57a.5.5,0,0,1-.5-.5V6.34a.5.5,0,0,1,.5-.5h2.59L12.42,3a.5.5,0,1,1,.92.4L11.72,7.06a.51.51,0,0,1-.66.26.5.5,0,0,1-.3-.48H9.07v.57h9.78V6.84H17.73a.5.5,0,0,1,0-1h1.62a.5.5,0,0,1,.5.5V7.91a.5.5,0,0,1-.5.5h-.11l-.64,3.94A1,1,0,0,1,17.63,13.13Zm0-1v.5l0-.5h0l.59-3.72H9.69l.61,3.74Zm-1-4.77a.5.5,0,0,1-.46-.3l-.09-.22H12.88a.5.5,0,1,1,0-1h2.78L14.58,3.39A.5.5,0,1,1,15.5,3l1.61,3.67a.51.51,0,0,1-.26.66A.45.45,0,0,1,16.65,7.36Z" transform="translate(0 0)"/></svg>