<svg xmlns="http://www.w3.org/2000/svg" viewBox="0 0 39.2 39.2"><defs><style>.cls-1{fill:#fff;}.cls-2{fill:#3977bb;}</style></defs><g id="Capa_2" data-name="Capa 2"><g id="Capa_1-2" data-name="Capa 1"><path class="cls-1" d="M19.6,39.2A19.6,19.6,0,1,0,0,19.6,19.61,19.61,0,0,0,19.6,39.2"/><path class="cls-2" d="M13,22.85a.4.4,0,0,1,.33.11,7.17,7.17,0,1,0-2.53-2.54.67.67,0,0,1,.11.45l-.77,2.86Zm2.86,2.09a7.22,7.22,0,0,0,9.35,4c.33-.11.66-.33,1-.44.11,0,.22-.11.33-.11h.11l2.87.77-1-2.75a.66.66,0,0,1,.11-.44A7.15,7.15,0,0,0,26,16.13a3.91,3.91,0,0,0-1-.44,8.3,8.3,0,0,1-7,9.36,14.74,14.74,0,0,1-2.2-.11m14.31,5.61H30l-3.53-1a8.28,8.28,0,0,1-11.22-3.19,5.19,5.19,0,0,1-.66-1.65L13,24.06l-3.63,1H9.21a.57.57,0,0,1-.44-.22.66.66,0,0,1-.11-.44l1-3.52a8.25,8.25,0,1,1,14.41-8,4.66,4.66,0,0,1,.66,1.54,8.26,8.26,0,0,1,5.51,10.35l-.66,1.65,1,3.52c0,.22,0,.33-.11.44s-.11.22-.33.22"/></g></g></svg>