<svg xmlns="http://www.w3.org/2000/svg" viewBox="0 0 39.2 39.2"><defs><style>.cls-1{fill:#3977bb;}.cls-2{fill:#fff;}</style></defs><g id="Capa_2" data-name="Capa 2"><g id="Capa_1-2" data-name="Capa 1"><path class="cls-1" d="M19.6,39.2A19.6,19.6,0,1,0,0,19.6,19.6,19.6,0,0,0,19.6,39.2"/><path class="cls-2" d="M29.45,22.35a.62.62,0,0,1-.35.34.47.47,0,0,1-.24,0,.62.62,0,0,1-.59-.39l-3.19-7.61a.34.34,0,0,0-.28-.22h-.05a.37.37,0,0,0-.28.13l-.09.1a.41.41,0,0,0-.07.34l2.94,10.23H25.62a.37.37,0,0,0-.37.37v6.55a.63.63,0,0,1-.39.59l-.07,0,0,0H22.35l0-.11a1.28,1.28,0,0,0,0-.19V27h0l-.14-1.52.32,1.5h0c0,.16.06.31.08.45a1,1,0,0,0,1,.86h.14a1,1,0,0,0,.85-1.12c-.09-.68-.65-4.11-2.78-4.95l-.14-.06.12-.1a2.84,2.84,0,0,0,1-2.12A2.8,2.8,0,0,0,20,17.16h-.14A2.84,2.84,0,0,0,18,18a2.79,2.79,0,0,0,.14,4.11l.12.1-.15.06c-2.12.84-2.69,4.27-2.78,4.95a1,1,0,0,0,.85,1.12h.14a1,1,0,0,0,1-.86c0-.1,0-.21.06-.33h0l0-.12h0l.32-1.5L17.6,27h0v5.55a1.28,1.28,0,0,0,0,.19l0,.11H15a.7.7,0,0,1-.7-.7v-18a.37.37,0,0,0-.74,0l-.07,7.48a.58.58,0,0,1-.58.58h-.06a.59.59,0,0,1-.52-.59v-7c0-1.36.71-2.72,2.31-2.72H19a2.71,2.71,0,0,1,2.19,1.12.35.35,0,0,0,.29.15h3.93a.65.65,0,0,1,.49.23h0a1.16,1.16,0,0,1,.11.16l3.45,8.28a.64.64,0,0,1,0,.49M20,22A2.06,2.06,0,1,1,22.06,20,2.06,2.06,0,0,1,20,22M14.53,8.83a2.28,2.28,0,1,1,2.28,2.28,2.29,2.29,0,0,1-2.28-2.28m8.68-.56a2.12,2.12,0,0,1,.43,4.2h-.85a2.13,2.13,0,0,1,.42-4.21m6.91,13.31L26.66,13.3a1.22,1.22,0,0,0-.2-.32h0l0,0h0a1.35,1.35,0,0,0-1-.46h-.23l.14-.15a2.85,2.85,0,1,0-5-1.9,2.8,2.8,0,0,0,.18,1l.08.22-.21-.1A3.54,3.54,0,0,0,19,11.2h-.3l.18-.17a3,3,0,1,0-4.09,0l.17.17h-.3c-1.79,0-3.05,1.42-3.05,3.45v7a1.31,1.31,0,0,0,1.84,1.21l.14-.06v9.38A1.43,1.43,0,0,0,15,33.6h3.35a.38.38,0,0,0,.35-.26.37.37,0,0,0-.15-.41.43.43,0,0,1-.21-.36V24.46a.38.38,0,0,0-.26-.35H18a.37.37,0,0,0-.3.16,8.67,8.67,0,0,0-1.05,3.09.28.28,0,0,1-.29.22h0a.26.26,0,0,1-.22-.29,10,10,0,0,1,.57-2.19,5.36,5.36,0,0,1,.85-1.49,2.26,2.26,0,0,1,1.39-.82h2.2c.92.12,1.67.89,2.22,2.3a11.43,11.43,0,0,1,.57,2.19.27.27,0,0,1-.06.19.27.27,0,0,1-.19.11h0a.27.27,0,0,1-.26-.23,8.47,8.47,0,0,0-1.05-3.09.35.35,0,0,0-.3-.16h-.11a.38.38,0,0,0-.26.35v8.11a.43.43,0,0,1-.21.36.38.38,0,0,0-.15.41.38.38,0,0,0,.35.26H25a.38.38,0,0,0,.32-.18v0h0A1.35,1.35,0,0,0,26,32.23V26h1.76A.37.37,0,0,0,28,25.9a.39.39,0,0,0,.06-.33L27,21.91l-1.83-5.57,2.08,5.57.3.72a1.37,1.37,0,0,0,1.27.85,1.35,1.35,0,0,0,.52-.11,1.37,1.37,0,0,0,.74-1.79"/></g></g></svg>