<?xml version="1.0" encoding="utf-8"?>
<!-- Generator: Adobe Illustrator 26.0.3, SVG Export Plug-In . SVG Version: 6.00 Build 0)  -->
<svg version="1.1" id="Capa_1" xmlns="http://www.w3.org/2000/svg" xmlns:xlink="http://www.w3.org/1999/xlink" x="0px" y="0px"
	 viewBox="0 0 27.9 22.5" style="enable-background:new 0 0 27.9 22.5;" xml:space="preserve">
<style type="text/css">
	.st0{fill:#FFFFFF;}
</style>
<path class="st0" d="M20.7,22.6H7.2c-0.3,0-0.5-0.2-0.5-0.5s0.2-0.5,0.5-0.5h3.2V19H1.1C0.5,19,0,18.5,0,17.9v-1.8c0,0,0,0,0,0
	s0,0,0,0v-15C0,0.5,0.5,0,1.1,0h25.7c0.6,0,1.1,0.5,1.1,1.1v15c0,0,0,0,0,0v1.8c0,0.6-0.4,1-0.9,1.1c-0.1,0-0.1,0-0.2,0h-9.3v2.6
	h3.2c0.3,0,0.5,0.2,0.5,0.5S21,22.6,20.7,22.6z M11.4,21.6h5.1V19h-5.1V21.6z M26.8,18.5L26.8,18.5L26.8,18.5z M17.2,18h9.5
	c0.1,0,0.2,0,0.2-0.1v-1.3H1v1.3C1,17.9,1,18,1.1,18h9.7c0,0,0.1,0,0.1,0H17C17.1,18,17.1,18,17.2,18z M1,15.6h25.9V1.1
	C26.9,1,26.9,1,26.8,1H1.1C1.1,1,1,1,1,1.1V15.6z"/>
<path class="st0" d="M17.6,13.1C17.6,13.1,17.6,13.1,17.6,13.1l-7.3,0c-0.5,0-0.9-0.3-1-0.8L8.7,8.4H8.6c-0.3,0-0.5-0.2-0.5-0.5V6.3
	c0-0.3,0.2-0.5,0.5-0.5h2.6L12.4,3c0.1-0.3,0.4-0.4,0.7-0.3c0.3,0.1,0.4,0.4,0.3,0.7l-1.6,3.7c-0.1,0.3-0.4,0.4-0.7,0.3
	c-0.2-0.1-0.3-0.3-0.3-0.5H9.1v0.6h9.8V6.8h-1.1c-0.3,0-0.5-0.2-0.5-0.5s0.2-0.5,0.5-0.5h1.6c0.3,0,0.5,0.2,0.5,0.5v1.6
	c0,0.3-0.2,0.5-0.5,0.5h-0.1l-0.6,3.9C18.5,12.8,18.1,13.1,17.6,13.1z M17.6,12.1v0.5V12.1C17.6,12.1,17.6,12.1,17.6,12.1l0.6-3.7
	H9.7l0.6,3.7L17.6,12.1z M16.7,7.4c-0.2,0-0.4-0.1-0.5-0.3l-0.1-0.2h-3.2c-0.3,0-0.5-0.2-0.5-0.5s0.2-0.5,0.5-0.5h2.8l-1.1-2.4
	c-0.1-0.3,0-0.5,0.3-0.7c0.3-0.1,0.5,0,0.7,0.3l1.6,3.7c0.1,0.3,0,0.5-0.3,0.7C16.8,7.3,16.7,7.4,16.7,7.4z"/>
</svg>
