<svg xmlns="http://www.w3.org/2000/svg" viewBox="0 0 39.2 39.2"><defs><style>.cls-1{fill:#fff;}.cls-2{fill:#a6bdd1;}</style></defs><g id="Capa_2" data-name="Capa 2"><g id="Capa_1-2" data-name="Capa 1"><path class="cls-1" d="M19.6,39.2A19.6,19.6,0,1,0,0,19.6,19.6,19.6,0,0,0,19.6,39.2"/><path class="cls-2" d="M26.3,27.81h-1a.49.49,0,0,1-.5-.53.49.49,0,0,1,.5-.53h1a.49.49,0,0,1,.5.53.49.49,0,0,1-.5.53M14.8,15.15v6.33h7v-3.7a1.58,1.58,0,0,1,1.5-1.58h1.5v-1ZM14.3,13a1.58,1.58,0,0,0-1.5,1.59v9h9V22.53H14.3a.48.48,0,0,1-.5-.52V14.62a.49.49,0,0,1,.5-.53h11a.49.49,0,0,1,.5.53V16.2h1V14.62A1.58,1.58,0,0,0,25.3,13ZM10.9,24.64a1.51,1.51,0,0,0,1.4,1.06h9.5V24.64Zm12.4-7.38a.48.48,0,0,0-.5.52V28.34a.49.49,0,0,0,.5.53h5a.49.49,0,0,0,.5-.53V17.78a.48.48,0,0,0-.5-.52Zm5,12.66h-5a1.58,1.58,0,0,1-1.5-1.58V26.75H12.3a2.54,2.54,0,0,1-2.5-2.63.49.49,0,0,1,.5-.53h1.5v-9A2.55,2.55,0,0,1,14.3,12h11a2.55,2.55,0,0,1,2.5,2.64V16.2h.5a1.58,1.58,0,0,1,1.5,1.58V28.34a1.58,1.58,0,0,1-1.5,1.58"/></g></g></svg>