<?xml version="1.0" encoding="utf-8"?>
<!-- Generator: Adobe Illustrator 25.1.0, SVG Export Plug-In . SVG Version: 6.00 Build 0)  -->
<svg version="1.1" id="Capa_1" xmlns="http://www.w3.org/2000/svg" xmlns:xlink="http://www.w3.org/1999/xlink" x="0px" y="0px"
	 viewBox="0 0 40 40" style="enable-background:new 0 0 40 40;" xml:space="preserve">
<style type="text/css">
	.st0{clip-path:url(#SVGID_2_);fill:#FFFFFF;}
	.st1{fill:#F1B634;}
</style>
<g>
	<g>
		<defs>
			<rect id="SVGID_1_" x="0.4" y="0.4" width="39.2" height="39.2"/>
		</defs>
		<clipPath id="SVGID_2_">
			<use xlink:href="#SVGID_1_"  style="overflow:visible;"/>
		</clipPath>
		<path class="st0" d="M20,39.6c10.8,0,19.6-8.8,19.6-19.6S30.8,0.4,20,0.4S0.4,9.2,0.4,20S9.2,39.6,20,39.6"/>
	</g>
</g>
<g>
	<path class="st1" d="M15.4,24.5c0.6,0.4,2.2,1,3.7,1c1.9,0,2.9-0.9,2.9-2.1c0-1.6-1.5-2.2-3.1-2.2h-1.5v-2.6h1.4
		c1.2,0,2.8-0.5,2.8-1.8c0-1-0.7-1.7-2.3-1.7c-1.3,0-2.6,0.6-3.3,1l-0.7-2.6c1-0.6,2.8-1.2,4.9-1.2c3.3,0,5.2,1.8,5.2,3.9
		c0,1.7-1,2.9-2.9,3.7v0.1c1.9,0.3,3.4,1.8,3.4,3.8c0,2.7-2.4,4.8-6.4,4.8c-2,0-3.7-0.6-4.6-1.1L15.4,24.5z"/>
</g>
</svg>
