<?xml version="1.0" encoding="utf-8"?>
<!-- Generator: Adobe Illustrator 25.2.0, SVG Export Plug-In . SVG Version: 6.00 Build 0)  -->
<svg version="1.1" id="Capa_1" xmlns="http://www.w3.org/2000/svg" xmlns:xlink="http://www.w3.org/1999/xlink" x="0px" y="0px"
	 viewBox="0 0 40 40" style="enable-background:new 0 0 40 40;" xml:space="preserve">
<style type="text/css">
	.st0{clip-path:url(#SVGID_2_);fill:#2670CA;}
	.st1{clip-path:url(#SVGID_2_);fill:#FFFFFF;}
</style>
<g>
	<defs>
		<rect id="SVGID_1_" x="0.4" y="0.4" width="39.2" height="39.2"/>
	</defs>
	<clipPath id="SVGID_2_">
		<use xlink:href="#SVGID_1_"  style="overflow:visible;"/>
	</clipPath>
	<path class="st0" d="M20,39.6c10.8,0,19.6-8.8,19.6-19.6C39.6,9.2,30.8,0.4,20,0.4S0.4,9.2,0.4,20C0.4,30.8,9.2,39.6,20,39.6"/>
	<path class="st1" d="M25,27h2v-2h-2V27z M27,28h-2c-0.6,0-1-0.4-1-1v-2c0-0.6,0.4-1,1-1h2c0.6,0,1,0.4,1,1v2C28,27.6,27.6,28,27,28
		 M12.5,11c-0.8,0-1.5,0.7-1.5,1.5v15c0,0.8,0.7,1.5,1.5,1.5h3c0.6,0,1.2-0.4,1.4-1h-3.4c-0.3,0-0.5-0.2-0.5-0.5s0.2-0.5,0.5-0.5H17
		v-2h-2.5c-0.3,0-0.5-0.2-0.5-0.5s0.2-0.5,0.5-0.5H17v-2h-3.5c-0.3,0-0.5-0.2-0.5-0.5c0-0.3,0.2-0.5,0.5-0.5H17v-2h-2.5
		c-0.3,0-0.5-0.2-0.5-0.5c0-0.3,0.2-0.5,0.5-0.5H17v-2h-3.5c-0.3,0-0.5-0.2-0.5-0.5c0-0.3,0.2-0.5,0.5-0.5H17v-2h-2.5
		c-0.3,0-0.5-0.2-0.5-0.5s0.2-0.5,0.5-0.5h2.4c-0.2-0.6-0.8-1-1.4-1H12.5z M18,23v4.5c0,0.5-0.2,1.1-0.5,1.5h10
		c0.8,0,1.5-0.7,1.5-1.5v-3c0-0.8-0.7-1.5-1.5-1.5H18z M27.5,30h-15c-1.4,0-2.5-1.1-2.5-2.5v-15c0-1.4,1.1-2.5,2.5-2.5h3
		c1.4,0,2.5,1.1,2.5,2.5V22h9.5c1.4,0,2.5,1.1,2.5,2.5v3C30,28.9,28.9,30,27.5,30"/>
</g>
</svg>
