<svg xmlns="http://www.w3.org/2000/svg" viewBox="0 0 39.2 39.2"><defs><style>.cls-1{fill:#fff;}.cls-2{fill:none;stroke:#253b80;stroke-linecap:round;stroke-linejoin:round;stroke-width:0.7px;}</style></defs><g id="Capa_2" data-name="Capa 2"><g id="Capa_1-2" data-name="Capa 1"><path class="cls-1" d="M19.6,39.2A19.6,19.6,0,1,0,0,19.6,19.61,19.61,0,0,0,19.6,39.2"/><path class="cls-2" d="M15.45,12.25,13,12.18l-2.88-1.35-2,0c0,.27,0,.34.13.57s.25.24.3.39c-.11,0-.11,0-.19.06.1.19.49.76.26.92.23.13.19.45.25.66s.16.28.36.45,1,.84.89,1.29l-.13,0c0,.1,0,.2,0,.3l-.09,0c0,.05,0,.16,0,.21-.21,0-.4-.11-.58,0s.05.27.19.41c.37.34.56.64,1.11.33,0,.53.27.41.58.76s.41.9,0,1.08c0,.25.43.49.62.65s.29.35.44.49.32.13.44.27.11.37.33.45.46,0,.41-.28a2.62,2.62,0,0,0-.74-.85c-.24.26-.4-.24-.41-.36a3.48,3.48,0,0,0-.18-.63c-.11-.46,0-1-.36-1.43,0,.06,0,.13,0,.19l-.06,0c-.25-.21-.15-.47-.21-.74a1.82,1.82,0,0,0-.13-.28c-.07-.08-.22-.13-.25-.18s0-.2-.08-.29A1.89,1.89,0,0,0,10.8,15a2.37,2.37,0,0,1-.33-.68c-.1-.23-.31-.37-.44-.59A1.57,1.57,0,0,1,9.88,13a1.61,1.61,0,0,1,0-.69c0-.21.19-.41.22-.63a1.6,1.6,0,0,0,.64.44l.6.29c-.19.29-.22.08-.16.44a3.13,3.13,0,0,0,.2.66,11.15,11.15,0,0,1,.42,1.23c.19,0,.1.09.19.17a2,2,0,0,1,.27.24c.1.12.05.2.21.3s.35,0,.41.09c.23.2-.12.38,0,.6a.62.62,0,0,0,.57.26.63.63,0,0,1,0,.31c.36-.06.31.29.6.29a1.34,1.34,0,0,1,.07.18.37.37,0,0,1-.23,0,.94.94,0,0,1,0-.16c-.29,0-.38.73-.2.86s.83,0,1,.47l.15-.09a1.93,1.93,0,0,1,0,.34c-.06,0-.16,0-.22,0,.08.27.55.26.75.44a3.34,3.34,0,0,1,.43.63c.12.2.17.44.28.63a2.28,2.28,0,0,0,.3.49c-.11.27.14.52.23.76s.12.3.07.41-.26.14-.29.31h.09s0,.09,0,.08c-.55-.1.11.93.31,1.11,0,0,0-.06,0-.08.22.18.67,0,.79.24-.1.07-.05.11-.1.19.47.06.4.41.71.55s.74.09,1.08.29.58.38.86.57a2.49,2.49,0,0,0,.38.25c.2.07.36,0,.55.06s.56.23.8.31.25.18.41.29a.51.51,0,0,0,.38.12c.64,0,1.13.32,1.81.05,1.24-.51,1.89.81,2.74,1.37a.78.78,0,0,0,.16-.21c-.23-.32,0-.58.18-.85s.18-.54.65-.5c.15,0,.64.21.77.11.34-.25-.34-.36-.34-.56-.23,0-.44-.27-.53-.44.32,0,.24-.29.31-.48a2.24,2.24,0,0,1,.77-.1c.23,0,.55.24.78.15s.16-.19.24-.25.19,0,.33-.15S30.69,24,31,24c0,.18-.08.31-.09.47l.26.12c.13-.19.1-.45.22-.65s.28-.27.33-.44a.86.86,0,0,0-.27.21,2.72,2.72,0,0,1,.51-1.23c.25-.41.32-.94-.34-.92a6.12,6.12,0,0,0-1.23.28c-.08,0-.11.08-.2.09a2.21,2.21,0,0,1-.34-.06.91.91,0,0,0-.67.13.47.47,0,0,1,.26.22c-.15.12-.43.23-.5.42s.09.32.05.42-.19.11-.2.17,0,.23,0,.29-.08.09-.25.22-.34.32-.24.55c-.18.05-.67.26-.45-.16a3.35,3.35,0,0,0-.54,0c-.26.05-.45.31-.67.39s-.58,0-.85.06-.31.1-.42,0-.12-.34-.26-.44-.51-.12-.74-.35a3.08,3.08,0,0,1-.46-.63c-.14-.22-.33-.38-.48-.6a2.13,2.13,0,0,1-.23-.74,1.2,1.2,0,0,1,0-.42c0-.09.11-.17.11-.28s-.1-.13-.1-.18a6.64,6.64,0,0,1,.17-1.33c0-.44-.18-1,.17-1.34a1,1,0,0,1,.1.21,4.89,4.89,0,0,1,.27-.87c-.25.24-1.13-.19-1.35-.42a1.66,1.66,0,0,1-.2-.63,2.24,2.24,0,0,0-.29-.69c-.32-.44-.6-.93-.88-1.37a1,1,0,0,0-.58-.48c-.37-.08-.49.15-.74.22,0,0,0-.1,0-.15a.9.9,0,0,0-.15.18h.05c-.19.57-.6.3-1,.12a.9.9,0,0,1-.42-.27c-.11-.15,0-.33-.23-.4.31-.17-.05-.4-.21-.52a3.24,3.24,0,0,1-.34-.29c-.09-.12-.05-.21-.12-.36-.33-.64-1.3-.25-1.85-.46a1.33,1.33,0,0,0,0,.21"/></g></g></svg>