<?xml version="1.0" encoding="utf-8"?>
<!-- Generator: Adobe Illustrator 25.2.0, SVG Export Plug-In . SVG Version: 6.00 Build 0)  -->
<svg version="1.1" id="Capa_1" xmlns="http://www.w3.org/2000/svg" xmlns:xlink="http://www.w3.org/1999/xlink" x="0px" y="0px"
	 viewBox="0 0 40 40" style="enable-background:new 0 0 40 40;" xml:space="preserve">
<style type="text/css">
	.st0{clip-path:url(#SVGID_2_);fill:#F1B634;}
	.st1{clip-path:url(#SVGID_2_);fill:#FFFFFF;}
</style>
<g>
	<defs>
		<rect id="SVGID_1_" x="0.4" y="0.4" width="39.2" height="39.2"/>
	</defs>
	<clipPath id="SVGID_2_">
		<use xlink:href="#SVGID_1_"  style="overflow:visible;"/>
	</clipPath>
	<path class="st0" d="M20,39.6c10.8,0,19.6-8.8,19.6-19.6C39.6,9.2,30.8,0.4,20,0.4S0.4,9.2,0.4,20C0.4,30.8,9.2,39.6,20,39.6"/>
	<path class="st1" d="M14,23c0.1,0,0.2,0,0.3,0.1c3.1,1.8,7.1,0.8,8.9-2.3c1.8-3.1,0.8-7.1-2.3-8.9c-3.1-1.8-7.1-0.8-8.9,2.3
		c-1.2,2-1.2,4.6,0,6.6c0.1,0.1,0.1,0.3,0.1,0.4l-0.7,2.6L14,23L14,23z M16.6,24.9c1.3,3.3,5.1,4.9,8.5,3.6c0.3-0.1,0.6-0.3,0.9-0.4
		c0.1,0,0.2-0.1,0.3-0.1h0.1l2.6,0.7l-0.9-2.5c0-0.1,0-0.3,0.1-0.4c1.8-3.1,0.8-7.1-2.3-8.9c-0.3-0.2-0.6-0.3-0.9-0.4
		c0.6,4.1-2.3,7.9-6.4,8.5C17.9,25,17.3,25,16.6,24.9 M29.6,30h-0.1l-3.2-0.9c-3.6,2-8.2,0.7-10.2-2.9c-0.3-0.5-0.5-1-0.6-1.5
		L14,24.1L10.7,25h-0.1c-0.2,0-0.3-0.1-0.4-0.2c-0.1-0.1-0.1-0.3-0.1-0.4l0.9-3.2C9,17.6,10.3,13,13.9,11s8.2-0.7,10.2,2.9
		c0.3,0.5,0.5,0.9,0.6,1.4c4,1.2,6.2,5.4,5,9.4c-0.2,0.5-0.4,1-0.6,1.5l0.9,3.2c0,0.2,0,0.3-0.1,0.4C29.9,29.9,29.8,30,29.6,30"/>
</g>
</svg>
