<?xml version="1.0" encoding="utf-8"?>
<!-- Generator: Adobe Illustrator 25.2.0, SVG Export Plug-In . SVG Version: 6.00 Build 0)  -->
<svg version="1.1" id="Capa_1" xmlns="http://www.w3.org/2000/svg" xmlns:xlink="http://www.w3.org/1999/xlink" x="0px" y="0px"
	 viewBox="0 0 40 40" style="enable-background:new 0 0 40 40;" xml:space="preserve">
<style type="text/css">
	.st0{clip-path:url(#SVGID_2_);fill:#2670CA;}
	.st1{clip-path:url(#SVGID_2_);fill:#FFFFFF;}
</style>
<g>
	<g>
		<defs>
			<rect id="SVGID_1_" x="0.4" y="0.4" width="39.2" height="39.2"/>
		</defs>
		<clipPath id="SVGID_2_">
			<use xlink:href="#SVGID_1_"  style="overflow:visible;"/>
		</clipPath>
		<path class="st0" d="M20,39.6c10.8,0,19.6-8.8,19.6-19.6C39.6,9.2,30.8,0.4,20,0.4S0.4,9.2,0.4,20C0.4,30.8,9.2,39.6,20,39.6"/>
		<path class="st1" d="M15.5,16c-0.1,0-0.3-0.1-0.4-0.1L12,12.7v2.8c0,0.3-0.2,0.5-0.5,0.5S11,15.8,11,15.5v-4
			c0-0.3,0.2-0.5,0.5-0.5h4c0.3,0,0.5,0.2,0.5,0.5S15.8,12,15.5,12h-2.8l3.1,3.1c0.2,0.2,0.2,0.6,0.1,0.8C15.8,15.9,15.6,16,15.5,16
			 M28.5,16c-0.3,0-0.5-0.2-0.5-0.5v-2.8l-3.1,3.1c-0.2,0.2-0.5,0.2-0.7,0c-0.2-0.2-0.2-0.5,0-0.7l3.1-3.1h-2.8
			c-0.3,0-0.5-0.2-0.5-0.5s0.2-0.5,0.5-0.5h4c0.3,0,0.5,0.2,0.5,0.5v4C29,15.8,28.8,16,28.5,16 M21.5,17h-3c-0.8,0-1.5,0.7-1.5,1.5
			v3c0,0.8,0.7,1.5,1.5,1.5h3c0.8,0,1.5-0.7,1.5-1.5v-3C23,17.7,22.3,17,21.5,17 M21.5,24h-3c-1.4,0-2.5-1.1-2.5-2.5v-3
			c0-1.4,1.1-2.5,2.5-2.5h3c1.4,0,2.5,1.1,2.5,2.5v3C24,22.9,22.9,24,21.5,24 M15.5,29h-4c-0.3,0-0.5-0.2-0.5-0.5v-4
			c0-0.3,0.2-0.5,0.5-0.5s0.5,0.2,0.5,0.5v2.8l3.1-3.1c0.2-0.2,0.5-0.2,0.7,0s0.2,0.5,0,0.7L12.7,28h2.8c0.3,0,0.5,0.2,0.5,0.5
			S15.8,29,15.5,29 M28.5,29h-4c-0.3,0-0.5-0.2-0.5-0.5s0.2-0.5,0.5-0.5h2.8l-3.1-3.1c-0.2-0.2-0.2-0.5,0-0.7c0.2-0.2,0.5-0.2,0.7,0
			l3.1,3.1v-2.8c0-0.3,0.2-0.5,0.5-0.5c0.3,0,0.5,0.2,0.5,0.5v4C29,28.8,28.8,29,28.5,29"/>
	</g>
</g>
</svg>
