<?xml version="1.0" encoding="utf-8"?>
<!-- Generator: Adobe Illustrator 25.0.1, SVG Export Plug-In . SVG Version: 6.00 Build 0)  -->
<svg version="1.1" id="Capa_1" xmlns="http://www.w3.org/2000/svg" xmlns:xlink="http://www.w3.org/1999/xlink" x="0px" y="0px"
	 viewBox="0 0 150 150" style="enable-background:new 0 0 150 150;" xml:space="preserve">
<style type="text/css">
	.st0{fill:#6DA8DA;}
	.st1{fill:#FFFFFF;}
</style>
<circle class="st0" cx="75" cy="75" r="74.2"/>
<g>
	<path class="st1" d="M58.2,112c34.3,0,53.1-28.4,53.1-53.1c0-0.8,0-1.6-0.1-2.4c3.6-2.6,6.8-5.9,9.3-9.7c-3.3,1.5-6.9,2.5-10.7,2.9
		c3.9-2.3,6.8-6,8.2-10.3c-3.6,2.1-7.6,3.7-11.9,4.5c-3.4-3.6-8.3-5.9-13.6-5.9c-10.3,0-18.7,8.4-18.7,18.7c0,1.5,0.2,2.9,0.5,4.3
		c-15.4-0.8-29.2-8.3-38.4-19.6c-1.6,2.8-2.5,6-2.5,9.4c0,6.5,3.3,12.2,8.3,15.5c-3.1-0.1-5.9-0.9-8.5-2.3c0,0.1,0,0.2,0,0.2
		c0,9,6.4,16.6,15,18.3c-1.6,0.4-3.2,0.7-4.9,0.7c-1.2,0-2.4-0.1-3.5-0.3c2.4,7.4,9.3,12.8,17.4,13c-6.4,5-14.4,8-23.2,8
		c-1.5,0-3-0.1-4.5-0.3C37.9,108.9,47.7,112,58.2,112"/>
</g>
</svg>
