<?xml version="1.0" encoding="utf-8"?>
<!-- Generator: Adobe Illustrator 25.1.0, SVG Export Plug-In . SVG Version: 6.00 Build 0)  -->
<svg version="1.1" id="Capa_1" xmlns="http://www.w3.org/2000/svg" xmlns:xlink="http://www.w3.org/1999/xlink" x="0px" y="0px"
	 viewBox="0 0 161.6 45.1" style="enable-background:new 0 0 161.6 45.1;" xml:space="preserve">
<style type="text/css">
	.st0{fill:none;}
	.st1{clip-path:url(#SVGID_2_);}
	.st2{fill:none;stroke:#80CCDF;stroke-width:3;stroke-linecap:round;stroke-linejoin:round;}
	.st3{opacity:0.8;}
	.st4{clip-path:url(#SVGID_4_);}
	.st5{fill:#FFFFFF;}
	.st6{clip-path:url(#SVGID_6_);}
	.st7{clip-path:url(#SVGID_8_);}
	.st8{clip-path:url(#SVGID_10_);}
	.st9{enable-background:new    ;}
	.st10{fill:#545051;}
	.st11{clip-path:url(#SVGID_12_);}
	.st12{clip-path:url(#SVGID_14_);}
</style>
<rect x="-5.7" y="-6" class="st0" width="181.9" height="51.1"/>
<g>
	<defs>
		<rect id="SVGID_1_" x="-5.7" y="-6" width="181.9" height="51.1"/>
	</defs>
	<clipPath id="SVGID_2_">
		<use xlink:href="#SVGID_1_"  style="overflow:visible;"/>
	</clipPath>
	<g class="st1">
		<polyline class="st2" points="13.2,37.2 47.4,12.1 79.7,43.6 112.6,30.8 145.1,33.6 		"/>
		<g class="st3">
			<g>
				<defs>
					<rect id="SVGID_3_" x="90.4" y="12" width="47.5" height="18.1"/>
				</defs>
				<clipPath id="SVGID_4_">
					<use xlink:href="#SVGID_3_"  style="overflow:visible;"/>
				</clipPath>
				<g class="st4">
					<path class="st5" d="M101.2,18.9h25.8c1.1,0,2,0.9,2,2v6.3c0,1.1-0.9,2-2,2h-25.8c-1.1,0-2-0.9-2-2v-6.3
						C99.3,19.7,100.2,18.9,101.2,18.9z"/>
				</g>
			</g>
		</g>
		<g class="st3">
			<g>
				<defs>
					<rect id="SVGID_5_" x="24.5" y="-6.6" width="47.5" height="18.1"/>
				</defs>
				<clipPath id="SVGID_6_">
					<use xlink:href="#SVGID_5_"  style="overflow:visible;"/>
				</clipPath>
				<g class="st6">
					<path class="st5" d="M35.3,0.3h25.8c1.1,0,2,0.9,2,2v6.3c0,1.1-0.9,2-2,2H35.3c-1.1,0-2-0.9-2-2V2.3
						C33.3,1.2,34.2,0.3,35.3,0.3z"/>
				</g>
			</g>
		</g>
		<g class="st3">
			<g>
				<defs>
					<rect id="SVGID_7_" x="-8.9" y="17.1" width="47.5" height="18.1"/>
				</defs>
				<clipPath id="SVGID_8_">
					<use xlink:href="#SVGID_7_"  style="overflow:visible;"/>
				</clipPath>
				<g class="st7">
					<path class="st5" d="M2,24h25.8c1.1,0,2,0.9,2,2v6.3c0,1.1-0.9,2-2,2H2c-1.1,0-2-0.9-2-2v-6.3C0,24.9,0.9,24,2,24z"/>
				</g>
			</g>
		</g>
		<g class="st3">
			<g>
				<defs>
					<rect id="SVGID_9_" x="59.9" y="22.2" width="47.5" height="18.1"/>
				</defs>
				<clipPath id="SVGID_10_">
					<use xlink:href="#SVGID_9_"  style="overflow:visible;"/>
				</clipPath>
				<g class="st8">
					<path class="st5" d="M70.7,29.1h25.8c1.1,0,2,0.9,2,2v6.3c0,1.1-0.9,2-2,2H70.7c-1.1,0-2-0.9-2-2v-6.3
						C68.8,30,69.6,29.1,70.7,29.1z"/>
				</g>
			</g>
		</g>
	</g>
</g>
<g class="st9">
	<path class="st10" d="M11.8,27.2L11.8,27.2l-1.1,0.6l-0.2-0.7l1.4-0.7h0.7v6.4h-0.8V27.2z"/>
</g>
<g class="st9">
	<path class="st10" d="M14.7,32.3c0-0.4,0.2-0.6,0.6-0.6s0.6,0.3,0.6,0.6c0,0.4-0.2,0.6-0.6,0.6C14.9,32.9,14.7,32.6,14.7,32.3z"/>
</g>
<g class="st9">
	<path class="st10" d="M20.4,27c-0.2,0-0.4,0-0.7,0c-1.4,0.2-2.1,1.2-2.2,2.3h0c0.3-0.4,0.8-0.7,1.5-0.7c1.1,0,1.9,0.8,1.9,2.1
		c0,1.2-0.8,2.3-2.1,2.3c-1.4,0-2.3-1.1-2.3-2.7c0-1.3,0.5-2.3,1.1-2.9c0.5-0.5,1.2-0.8,2.1-0.9c0.3,0,0.5,0,0.6,0V27z M20.2,30.7
		c0-0.9-0.5-1.5-1.3-1.5c-0.5,0-1,0.3-1.2,0.8c-0.1,0.1-0.1,0.2-0.1,0.4c0,1.1,0.5,1.8,1.4,1.8C19.7,32.2,20.2,31.6,20.2,30.7z"/>
</g>
<g class="st9">
	<path class="st10" d="M21.9,31.2c0-0.8,0.5-1.4,1.3-1.7l0,0c-0.7-0.3-1-0.9-1-1.4c0-1,0.9-1.7,2-1.7c1.2,0,1.9,0.8,1.9,1.6
		c0,0.5-0.3,1.1-1.1,1.5v0c0.8,0.3,1.3,0.9,1.3,1.7c0,1.1-1,1.9-2.2,1.9C22.7,32.9,21.9,32.1,21.9,31.2z M25.4,31.1
		c0-0.8-0.5-1.2-1.4-1.4c-0.7,0.2-1.2,0.7-1.2,1.3c0,0.7,0.5,1.2,1.3,1.2C24.9,32.3,25.4,31.8,25.4,31.1z M23,27.9
		c0,0.6,0.5,1,1.2,1.2c0.6-0.2,1-0.6,1-1.2c0-0.5-0.3-1-1.1-1C23.4,26.9,23,27.4,23,27.9z"/>
</g>
<g class="st9">
	<path class="st10" d="M42.7,8.2V7.7l0.7-0.7c1.6-1.6,2.4-2.4,2.4-3.4c0-0.7-0.3-1.3-1.3-1.3c-0.6,0-1.1,0.3-1.4,0.5l-0.3-0.6
		c0.4-0.4,1.1-0.7,1.8-0.7c1.4,0,2,0.9,2,1.9c0,1.2-0.9,2.1-2.2,3.4l-0.5,0.5v0h2.9v0.7H42.7z"/>
</g>
<g class="st9">
	<path class="st10" d="M48,7.7c0-0.4,0.2-0.6,0.6-0.6s0.6,0.3,0.6,0.6c0,0.4-0.2,0.6-0.6,0.6C48.2,8.4,48,8.1,48,7.7z"/>
</g>
<g class="st9">
	<path class="st10" d="M52.7,8.2V6.5h-3V5.9l2.9-4.1h0.9v4h0.9v0.7h-0.9v1.7H52.7z M52.7,5.8V3.7c0-0.3,0-0.7,0-1h0
		c-0.2,0.4-0.4,0.7-0.5,0.9l-1.6,2.2v0H52.7z"/>
</g>
<g class="st9">
	<path class="st10" d="M55.2,6.6c0-0.8,0.5-1.4,1.3-1.7l0,0c-0.7-0.3-1-0.9-1-1.4c0-1,0.9-1.7,2-1.7c1.2,0,1.9,0.8,1.9,1.6
		c0,0.5-0.3,1.1-1.1,1.5v0c0.8,0.3,1.3,0.9,1.3,1.7c0,1.1-1,1.9-2.2,1.9C56,8.4,55.2,7.6,55.2,6.6z M58.7,6.6c0-0.8-0.5-1.2-1.4-1.4
		c-0.7,0.2-1.2,0.7-1.2,1.3c0,0.7,0.5,1.2,1.3,1.2C58.2,7.7,58.7,7.2,58.7,6.6z M56.3,3.4c0,0.6,0.5,1,1.2,1.2c0.6-0.2,1-0.6,1-1.2
		c0-0.5-0.3-1-1.1-1C56.7,2.4,56.3,2.8,56.3,3.4z"/>
</g>
<g class="st9">
	<path class="st10" d="M78.8,31.7L78.8,31.7l-1.1,0.6l-0.2-0.7l1.4-0.7h0.7v6.4h-0.8V31.7z"/>
</g>
<g class="st9">
	<path class="st10" d="M81.7,36.8c0-0.4,0.2-0.6,0.6-0.6c0.3,0,0.6,0.3,0.6,0.6c0,0.4-0.2,0.6-0.6,0.6
		C81.9,37.4,81.7,37.1,81.7,36.8z"/>
</g>
<g class="st9">
	<path class="st10" d="M86.4,37.3v-1.7h-3V35l2.9-4.1h0.9v4h0.9v0.7h-0.9v1.7H86.4z M86.4,34.8v-2.1c0-0.3,0-0.7,0-1h0
		c-0.2,0.4-0.4,0.7-0.5,0.9l-1.6,2.2v0H86.4z"/>
</g>
<g class="st9">
	<path class="st10" d="M88.9,35.6c0-0.8,0.5-1.4,1.3-1.7l0,0c-0.7-0.3-1-0.9-1-1.4c0-1,0.9-1.7,2-1.7c1.2,0,1.9,0.8,1.9,1.6
		c0,0.5-0.3,1.1-1.1,1.5v0c0.8,0.3,1.3,0.9,1.3,1.7c0,1.1-1,1.9-2.2,1.9C89.8,37.4,88.9,36.6,88.9,35.6z M92.4,35.6
		c0-0.8-0.5-1.2-1.4-1.4c-0.7,0.2-1.2,0.7-1.2,1.3c0,0.7,0.5,1.2,1.3,1.2C91.9,36.7,92.4,36.3,92.4,35.6z M90,32.4
		c0,0.6,0.5,1,1.2,1.2c0.6-0.2,1-0.6,1-1.2c0-0.5-0.3-1-1.1-1C90.4,31.4,90,31.8,90,32.4z"/>
</g>
<g class="st9">
	<path class="st10" d="M108.6,26.9v-0.5l0.7-0.7c1.6-1.6,2.4-2.4,2.4-3.4c0-0.7-0.3-1.3-1.3-1.3c-0.6,0-1.1,0.3-1.4,0.5l-0.3-0.6
		c0.4-0.4,1.1-0.7,1.8-0.7c1.4,0,2,0.9,2,1.9c0,1.2-0.9,2.1-2.2,3.4l-0.5,0.5v0h2.9v0.7H108.6z"/>
</g>
<g class="st9">
	<path class="st10" d="M113.9,26.4c0-0.4,0.2-0.6,0.6-0.6c0.3,0,0.6,0.3,0.6,0.6c0,0.4-0.2,0.6-0.6,0.6
		C114.1,27,113.9,26.7,113.9,26.4z"/>
</g>
<g class="st9">
	<path class="st10" d="M120.2,23.6c0,2.2-0.8,3.4-2.2,3.4c-1.3,0-2.1-1.2-2.1-3.3c0-2.1,0.9-3.3,2.2-3.3
		C119.4,20.4,120.2,21.6,120.2,23.6z M116.7,23.7c0,1.7,0.5,2.6,1.3,2.6c0.9,0,1.3-1,1.3-2.7c0-1.6-0.4-2.6-1.3-2.6
		C117.3,21,116.7,22,116.7,23.7z"/>
</g>
<g class="st9">
	<path class="st10" d="M121.1,25.3c0-0.8,0.5-1.4,1.3-1.7l0,0c-0.7-0.3-1-0.9-1-1.4c0-1,0.9-1.7,2-1.7c1.2,0,1.9,0.8,1.9,1.6
		c0,0.5-0.3,1.1-1.1,1.5v0c0.8,0.3,1.3,0.9,1.3,1.7c0,1.1-1,1.9-2.2,1.9C121.9,27,121.1,26.2,121.1,25.3z M124.5,25.2
		c0-0.8-0.5-1.2-1.4-1.4c-0.7,0.2-1.2,0.7-1.2,1.3c0,0.7,0.5,1.2,1.3,1.2C124,26.4,124.5,25.9,124.5,25.2z M122.1,22
		c0,0.6,0.5,1,1.2,1.2c0.6-0.2,1-0.6,1-1.2c0-0.5-0.3-1-1.1-1C122.5,21,122.1,21.5,122.1,22z"/>
</g>
<g>
	<defs>
		<rect id="SVGID_11_" x="-5.7" y="-6" width="181.9" height="51.1"/>
	</defs>
	<clipPath id="SVGID_12_">
		<use xlink:href="#SVGID_11_"  style="overflow:visible;"/>
	</clipPath>
	<g class="st11">
		<g class="st3">
			<g>
				<defs>
					<rect id="SVGID_13_" x="122.1" y="12.1" width="48.3" height="19.1"/>
				</defs>
				<clipPath id="SVGID_14_">
					<use xlink:href="#SVGID_13_"  style="overflow:visible;"/>
				</clipPath>
				<g class="st12">
					<path class="st5" d="M133,19h26.6c1.1,0,2,0.9,2,2v7.3c0,1.1-0.9,2-2,2H133c-1.1,0-2-0.9-2-2V21C131,19.9,131.9,19,133,19z"/>
				</g>
			</g>
		</g>
	</g>
</g>
<g class="st9">
	<path class="st10" d="M141,22.6L141,22.6l-1.5,0.7l-0.3-1.3l2-0.9h1.5v7.7H141V22.6z"/>
</g>
<g class="st9">
	<path class="st10" d="M144.9,27.7c0-0.6,0.4-1.1,1.1-1.1c0.6,0,1.1,0.4,1.1,1.1c0,0.6-0.4,1.1-1.1,1.1
		C145.4,28.8,144.9,28.3,144.9,27.7z"/>
</g>
<g class="st9">
	<path class="st10" d="M153.4,21v1.1l-3.2,6.6h-1.9l3.2-6.2v0H148V21H153.4z"/>
</g>
<g class="st9">
	<path class="st10" d="M154.9,27.3c0.2,0,0.4,0,0.8,0c0.5,0,1.1-0.2,1.5-0.5c0.5-0.3,0.8-0.8,1-1.4l0,0c-0.3,0.4-0.8,0.6-1.5,0.6
		c-1.3,0-2.4-0.9-2.4-2.4c0-1.5,1.2-2.8,2.9-2.8c2,0,2.9,1.5,2.9,3.3c0,1.6-0.5,2.8-1.3,3.5c-0.7,0.7-1.7,1-2.9,1.1
		c-0.3,0-0.6,0-0.8,0V27.3z M156,23.5c0,0.7,0.4,1.2,1.1,1.2c0.5,0,0.8-0.2,1-0.5c0.1-0.1,0.1-0.2,0.1-0.4c0-0.8-0.3-1.6-1.1-1.6
		C156.5,22.1,156,22.7,156,23.5z"/>
</g>
</svg>
