<?xml version="1.0" encoding="utf-8"?>
<!-- Generator: Adobe Illustrator 25.1.0, SVG Export Plug-In . SVG Version: 6.00 Build 0)  -->
<svg version="1.1" id="Capa_1" xmlns="http://www.w3.org/2000/svg" xmlns:xlink="http://www.w3.org/1999/xlink" x="0px" y="0px"
	 viewBox="0 0 39.2 39.2" style="enable-background:new 0 0 39.2 39.2;" xml:space="preserve">
<style type="text/css">
	.st0{fill:#FFFFFF;}
	.st1{fill:none;stroke:#7DBED2;stroke-width:0.7;stroke-linecap:round;stroke-linejoin:round;}
</style>
<path class="st0" d="M19.6,39.2C8.8,39.2,0,30.4,0,19.6S8.8,0,19.6,0s19.6,8.8,19.6,19.6S30.4,39.2,19.6,39.2L19.6,39.2"/>
<path class="st1" d="M12.6,13.3c0.1,0,0.2,0,0.2-0.1c0.2-0.1,0.3-0.3,0.4-0.6c0-0.1,0-0.3,0-0.5c0.2-0.2,0-0.2,0-0.2l-0.1-0.4
	c0-0.1,0.1-0.3,0.1-0.4c0-0.1-0.1-0.2-0.1-0.3c0.1-0.1,0.1-0.3,0.2-0.4c0.1-0.2,0.1-0.2,0.2-0.3s0-0.3,0-0.5s0-0.2-0.1-0.2
	s-0.3,0.1-0.3,0s0.2-0.2,0-0.2s-0.3,0.2-0.4,0.3c-0.1,0.2-0.2,0.4-0.3,0.6c-0.1,0.3-0.1,0.2-0.5,0s-0.3,0.4-0.3,0.4
	c0.1,0.7,0.1,1.3,0,2c-0.1,0.5-0.1,1-0.1,1.5h0.5c0.1-0.1,0.1-0.3,0.2-0.4C12.4,13.5,12.5,13.4,12.6,13.3z M21.9,15.5
	c-0.1-0.1-0.1-0.2-0.2-0.3c-0.1-0.1-0.3-0.1-0.4-0.1c-0.1,0,0,0.1-0.1,0.1S20.9,15,20.8,15s0,0.1,0.2,0.2s-0.1,0.1-0.2,0
	s-0.1-0.1-0.1-0.3s-0.1-0.1-0.2-0.2s0.4,0,0.5,0s-0.5-0.6-0.6-0.6s-0.4,0.1-0.5,0.1s-0.1-0.2-0.3-0.3s-0.4-0.1-0.5,0
	c-0.2,0.1-0.5,0.1-0.7,0.1c-0.2,0-0.3-0.1-0.5-0.1c-0.1-0.1-0.3-0.1-0.3,0s-0.1,0.1-0.3,0.1c-0.1,0-0.2,0-0.3,0.1
	c-0.1,0.1-0.2,0.1-0.2,0.1L16,14.3c-0.1,0-0.2,0.1-0.3,0.1s-0.6-0.2-0.8-0.1s-0.2-0.1-0.4-0.2s-0.7,0.3-0.8,0.3s-0.2,0-0.3-0.1
	l-0.3,0.2c-0.2,0.2-0.4,0.3-0.6,0.5c-0.2,0.2-0.6,0.3-0.7,0.4c-0.1,0.2-0.1,0.3-0.1,0.5c0.1,0.1,0.1,0.3-0.1,0.4s-0.2,0.3-0.2,0.3
	l0,0c0.1,0,0.2,0,0.3,0.1c0.2,0.1,0.2,0,0.3,0.2s0.2,0.3,0.3,0.3s0.2,0.2,0.3,0.2s0.2,0.1,0.3,0.2c0,0.1,0.1,0.1,0.2,0.1
	c0,0,0,0,0,0c0.2-0.1,0.2-0.2,0.4-0.2s0.1,0.1,0.2,0.1s0.1,0.1,0.2,0.1s0.1-0.2,0.2,0s0.1,0.2,0,0.4s-0.1,0.2,0,0.3s0.1,0.1-0.1,0.1
	c-0.1,0-0.1,0-0.1,0.1l0,0c0,0,0,0,0.1,0s0.2,0,0.3-0.1s0.2,0.1,0.2,0.1c0,0.1,0.1,0.2,0.1,0.3c0,0.1,0.3,0.2,0.4,0.4s0.4,0.2,0.5,0
	c0.1-0.1,0.2-0.3,0.1-0.5c0-0.2,0.2,0.1,0.2,0c0.1-0.1,0.1-0.3,0.1-0.4c-0.1-0.2-0.1-0.3-0.1-0.4s0.5,0,0.6,0s0.1,0.2,0.2,0
	s0.1-0.4,0.3-0.4c0.1-0.1,0.3,0,0.4,0.1c0.1,0.1,0.3,0.3,0.3,0.2s-0.1-0.2,0.1-0.3s0.3,0,0.4-0.1c0.1-0.1,0.1-0.2,0.2-0.3
	c0,0,0.1-0.2,0.2-0.1s0,0,0.2-0.3s0.2-0.1,0.2-0.2c0-0.1,0-0.2,0-0.3c0.1-0.1,0.2-0.1,0.3-0.1c0,0,0-0.1,0.2,0.1
	c0.1,0.1,0.3,0.2,0.4,0.3c0.1,0,0.2,0,0.3,0c0.2-0.1,0.4-0.2,0.6-0.2c0.1,0,0.2-0.1,0.3-0.2c0.1,0,0.4-0.1,0.4-0.1s0-0.2,0.2-0.2
	c0.2,0,0.3,0,0.5,0.1L21.9,15.5z M24,26.2c0,0.1,0,0.1,0.1,0.2c0.1,0,0.2,0.1,0.2,0c0-0.1,0-0.1-0.1-0.2C24.1,26.2,24,26.2,24,26.2z
	 M23.8,25.8c0,0,0,0.1,0,0.1c0.1,0,0.1,0.1,0.1,0.1s0.1,0.1,0.2,0s0.1,0,0.1-0.1c-0.1,0-0.1-0.1-0.2-0.1
	C23.9,25.9,23.9,25.9,23.8,25.8C23.8,25.8,23.7,25.8,23.8,25.8L23.8,25.8z M29.8,27.5c0,0.1,0,0.2,0,0.2c0,0.1,0.1,0,0.1,0
	s0.1-0.3,0-0.3S29.8,27.5,29.8,27.5 M25.7,29.3c0,0-0.2,0.1-0.1,0.1c0.1,0,0.2,0,0.3-0.1c0.1-0.1,0.1-0.2-0.1-0.1L25.7,29.3z
	 M24.7,29.1c0,0-0.2,0.1-0.2,0.2c0,0.1,0.1,0.2,0.2,0.3c0.1,0.1,0.3,0.2,0.4,0.1S25,29.5,25,29.5s-0.1,0-0.1-0.1S25,29.1,24.7,29.1
	L24.7,29.1z M21.4,20.2c0,0,0,0.1,0,0.2s0.2,0.1,0.2,0.1s0.1-0.2,0.1-0.2s-0.1-0.1-0.1-0.1C21.5,20.2,21.4,20.2,21.4,20.2L21.4,20.2
	z M17.7,22c0,0-0.1,0.1,0,0.1c0,0,0,0,0,0c0.1,0.1,0,0.2,0.2,0.2s0.2-0.2,0.1-0.3S17.7,22,17.7,22z M17.5,22.1
	c-0.1-0.2-0.1-0.3-0.2-0.5c-0.1-0.4-0.1-0.6,0-0.6c0.3,0,0.5,0.1,0.7,0.3c0.1,0.1,0.2,0.2,0.3,0.3c0.1,0.1,0.2,0.2,0.4,0.3
	c0.1,0.1,0.3,0.3,0.4,0.4c0,0.1,0.1,0.2,0.1,0.3s0,0.4-0.2,0.3c-0.2-0.1-0.3-0.1-0.5-0.1c-0.2-0.1-0.2-0.2-0.3-0.2s-0.2,0.2-0.4-0.1
	S17.5,22.1,17.5,22.1L17.5,22.1z M21.3,23.1L21.3,23.1z M21.3,23.1L21.3,23.1z M23,25.5c-0.2-0.1-0.1-0.1-0.5-0.4
	c-0.4-0.5-0.7-0.9-1-1.5l-0.2-0.5c0,0,0.1,0.5-0.4,0.3s-0.4,0-0.5-0.1l-0.3-0.3C20,23,19.9,23,19.8,22.9l-0.3,0
	c-0.1,0.1-0.2,0.2-0.4,0.2c-0.2-0.1-0.5-0.2-0.6-0.2l-0.5-0.2c0,0-0.1-0.2-0.2-0.1s0.2,0.2-0.2,0.3l0,0c0,0.1,0,0,0,0.1
	s-0.2,0-0.3,0.1s0,0,0.1,0.2c0,0.1,0.1,0.1,0.2,0c0,0,0,0,0,0c0,0.1,0.1,0.2,0.1,0.4c0,0.1,0,0.2-0.2,0.3c-0.1,0.1-0.2,0.3-0.1,0.5
	c0.1,0.3,0.4,0.5,0.6,0.6c0.4,0.2,0.4,0.3,0.5,0.4s0.1,0,0.2,0s0.2-0.1,0.3-0.2s0-0.2-0.1-0.2c-0.2-0.1-0.3-0.2-0.4-0.4
	c0-0.1,0.2-0.1,0.2-0.1l0.4,0.2c0.1,0,0.2,0.1,0.2,0.1c0,0,0.2,0.2,0.3,0.4s-0.1,0.2-0.1,0.3s0.1,0.1,0.3,0.2s0.4,0,0.5,0.1
	s0.4,0.2,0.4,0.2c0.2,0.2,0.4,0.3,0.6,0.5c0.2,0.1,0,0.3,0.1,0.4s-0.2,0.2-0.2,0.3s0.1,0.2,0.1,0.3s0.3,0.1,0.3,0.1
	c0.1,0,0.2,0.1,0.3,0.1c0,0,0-0.2-0.1-0.3s-0.1-0.1-0.2-0.2s0.1-0.2,0.1-0.2c0.1,0,0.2,0.1,0.3,0.1c0.1,0.1,0.1,0.2,0.2,0.3
	c0,0.1,0,0.2,0,0.3c0.1,0.1,0.2,0.2,0.3,0.3c0,0,0.1,0.1,0.1,0.1c0,0,0.2-0.1,0-0.3s-0.2-0.1-0.1-0.2s0.4-0.1,0.3-0.3
	s-0.2-0.2-0.2-0.3s0-0.2,0-0.2s0.3-0.1,0.2-0.2s-0.3-0.3-0.3-0.3c0-0.1-0.1-0.2-0.1-0.3c0-0.1,0.1-0.3,0.1-0.4l0.1-0.1
	c0,0,0.2-0.1,0.3,0s0.2-0.1,0.2-0.1L23,25.5z M21.2,23.1L21.2,23.1z M22.1,15.8c-0.2,0-0.3-0.1-0.5-0.1c-0.1,0-0.1,0.1-0.2,0.2
	S21,16,20.9,16c-0.1,0-0.2,0.1-0.3,0.1c-0.2,0.1-0.4,0.1-0.6,0.2c-0.1,0-0.2,0-0.3,0c-0.2,0-0.3-0.1-0.4-0.3
	c-0.1-0.2-0.1-0.1-0.2-0.1c-0.1,0-0.2,0.1-0.3,0.1c0,0.1,0,0.2,0,0.3c0,0.1,0,0-0.2,0.2s-0.1,0.3-0.2,0.3s-0.2,0.1-0.2,0.1
	c-0.1,0.1-0.1,0.2-0.2,0.3c0,0.1-0.1,0-0.4,0.1s-0.1,0.2-0.1,0.3s-0.2-0.1-0.3-0.2c-0.1-0.1-0.2-0.1-0.4-0.1c-0.2,0-0.2,0.2-0.3,0.4
	s-0.1,0-0.2,0s-0.5-0.1-0.6,0s0,0.2,0.1,0.4c0,0.1,0,0.3-0.1,0.4c-0.1,0.1-0.2-0.2-0.2,0c0,0.2,0,0.3-0.1,0.5c-0.1,0.2-0.5,0-0.5,0
	s-0.1,0.2-0.2,0.2s-0.1-0.3-0.4-0.3s-0.1,0.4,0,0.4s0.1,0.1,0.2,0.2c0.3,0.2,0.6,0.5,0.8,0.7c0.1,0.1,0.2,0.1,0.4,0.3
	c0.1,0.2,0.2,0.4,0.3,0.6c0.1,0.2,0.3,0.3,0.4,0.4c0.2,0.2,0.3,0.3,0.5,0.5c0.2,0.2,0.4,0.4,0.5,0.6l0,0c0.4,0,0.2-0.2,0.2-0.3
	s0.2,0.1,0.2,0.1l0.5,0.2c0.1,0,0.4,0.1,0.6,0.2c0.2,0,0.3-0.1,0.4-0.2l0.3,0c0.1,0,0.2,0.1,0.3,0.1l0.3,0.3c0.1,0.1,0,0,0.5,0.1
	s0.4-0.3,0.4-0.3s-0.3-0.3-0.3-0.6s0-0.3,0.1-0.5s0.2-0.2,0.2-0.3s0-0.2-0.1-0.2s-0.1,0-0.1-0.2s0.1-0.1,0.2-0.4s-0.1-0.5-0.1-0.6
	s0.1-0.3,0.2-0.3s0.1-0.2,0-0.3s0.2,0,0.2,0s0.1-0.3,0-0.4c-0.1-0.3-0.1-0.7,0-1c0-0.1,0-0.4,0-0.5c0-0.1,0.1-0.2,0.2-0.3
	c0.1-0.1,0.2-0.6,0.4-0.6s0.1-0.2,0-0.4c-0.1-0.2-0.2-0.4-0.3-0.6C21.6,16,22.1,15.8,22.1,15.8L22.1,15.8z M13.9,18.7L13.9,18.7
	C13.9,18.7,13.9,18.6,13.9,18.7c0-0.1,0.1-0.1,0.1-0.1c0.1,0,0.1-0.1,0.1-0.1s0-0.1,0-0.3s0.1-0.2,0-0.4s-0.1,0-0.2,0
	s-0.1,0-0.2-0.1s-0.1-0.1-0.2-0.1s-0.1,0.1-0.4,0.2c-0.1,0-0.2,0-0.2,0c0,0,0,0,0,0c0-0.1-0.1-0.1-0.3-0.2s-0.2-0.2-0.3-0.2
	s-0.2-0.2-0.3-0.3s-0.1-0.1-0.3-0.2c-0.2-0.1-0.3-0.1-0.5-0.1c-0.1,0-0.2,0.2-0.2,0.2v0.1c0,0.1,0,0-0.1,0.1s-0.1,0.1-0.2,0.2
	c-0.1,0.1-0.2,0.2-0.4,0.2c-0.4,0-0.3,0.4-0.3,0.4c0.1,0,0.1,0.1,0.1,0.1c0.4,0.2,0.8,0.4,1.3,0.4c0.2,0.1,0.4,0.2,0.9,0.4
	c0.4,0.2,0.8,0.3,1.2,0.3C13.7,19.1,13.9,18.8,13.9,18.7C13.9,18.7,13.9,18.7,13.9,18.7L13.9,18.7z M32.7,28.1
	c-0.1-0.2-0.2-0.4-0.3-0.6c-0.1-0.1,0.2-0.3,0.2-0.3c-0.1,0-0.2-0.1-0.2-0.2c-0.1-0.1-0.2-0.2-0.3-0.2c-0.2-0.1-0.2-0.2-0.3-0.3
	c-0.2-0.1-0.4-0.3-0.6-0.4c-0.3-0.1-0.5-0.3-0.7-0.3c-0.3,0-0.6,0-0.8-0.1c-0.2-0.1-0.4-0.1-0.6-0.1c-0.2-0.1-0.3-0.1-0.5-0.1
	c-0.3,0-0.1,0.2-0.2,0.3s-0.4,0.1-0.4,0.3s-0.2,0.2-0.6,0.3c-0.3,0.1-0.5,0.2-0.8,0.4c-0.1,0.1-0.3,0.2-0.4,0.2
	C25.8,27,25.5,27,25.3,27c-0.3,0-0.3-0.1-0.4-0.3s-0.3-0.4-0.5-0.4s0.1,0.2,0.2,0.4s-0.3,0-0.3,0s-0.4-0.1-0.4-0.1s-0.1-0.1-0.2-0.3
	s0-0.2-0.1-0.4c-0.1-0.2-0.3-0.3-0.5-0.3c-0.2-0.1-0.1-0.1-0.5-0.4c-0.4-0.5-0.7-0.9-1-1.5l-0.2-0.5c0-0.1-0.3-0.3-0.3-0.6
	s0-0.3,0.1-0.5s0.2-0.2,0.2-0.3s0-0.2-0.1-0.2s-0.1,0-0.1-0.2s0.1-0.1,0.2-0.4s-0.1-0.5-0.1-0.6s0.1-0.3,0.2-0.3s0.1-0.2,0-0.3
	s0.2,0,0.2,0s0.1-0.3,0-0.4c-0.1-0.3-0.1-0.7,0-1c0-0.1,0-0.4,0-0.5c0-0.1,0.1-0.2,0.2-0.3c0.1-0.1,0.2-0.6,0.4-0.6s0.1-0.2,0-0.4
	c-0.1-0.2-0.2-0.4-0.3-0.6c-0.1-0.1,0.3-0.3,0.3-0.3l-0.2-0.2c-0.1-0.1-0.1-0.2-0.2-0.3c-0.1-0.1-0.3-0.1-0.4-0.1
	c-0.1,0,0,0.1-0.1,0.1S20.9,15,20.7,15s0,0.1,0.2,0.2s-0.1,0.1-0.2,0s-0.1-0.1-0.1-0.3s-0.1-0.1-0.2-0.2s0.4,0,0.5,0
	s-0.5-0.6-0.6-0.6s-0.4,0.1-0.5,0.1s-0.1-0.2-0.3-0.3s-0.4-0.1-0.5,0c-0.2,0.1-0.5,0.1-0.7,0.1c-0.2,0-0.3-0.1-0.5-0.1
	c-0.1-0.1-0.3-0.1-0.3,0s-0.1,0.1-0.3,0.1c-0.1,0-0.2,0-0.3,0.1c-0.1,0.1-0.2,0.1-0.2,0.1L16,14.3c-0.1,0-0.2,0.1-0.3,0.1
	s-0.6-0.2-0.8-0.1s-0.2-0.1-0.4-0.2s-0.7,0.3-0.8,0.3s-0.2,0-0.3-0.1c-0.2-0.1-0.3-0.2-0.5-0.3c-0.1,0,0.1,0.2,0.1,0.2
	c-0.1,0.1-0.2,0.1-0.3,0.2c-0.2,0-0.2-0.2-0.3-0.2h-0.1c0.1-0.1,0.1-0.3,0.2-0.4c0.1-0.1,0.2-0.3,0.3-0.4c0.1,0,0.2,0,0.2-0.1
	c0.2-0.1,0.3-0.3,0.4-0.6c0-0.1,0-0.3,0-0.5c0.2-0.2,0-0.2,0-0.2l-0.1-0.4c0-0.1,0.1-0.3,0.1-0.4c0-0.1-0.1-0.2-0.1-0.3
	c0.1-0.1,0.1-0.3,0.2-0.4c0.1-0.2,0.1-0.2,0.2-0.3s0-0.3,0-0.5s0-0.2-0.1-0.2s-0.3,0.1-0.3,0s0.2-0.2,0-0.2s-0.3,0.2-0.4,0.3
	c-0.1,0.2-0.2,0.4-0.3,0.6c-0.1,0.3-0.1,0.2-0.5,0s-0.3,0.4-0.3,0.4l-3.2-0.1v1H7.9c0.3,0.3,0.7,0.6,1.1,0.9
	c0.4,0.2,0.2,0.2,0.2,0.4S9.5,13,9.6,13s0.1,0.2,0,0.4c0,0.1-0.1,0.2-0.1,0.3H7.3c0,0-0.9,1.3-0.9,1.3s0.2,0.3,0.2,0.3
	c-0.1,0.2-0.2,0.4-0.2,0.6c-0.1,0.4-0.1,0.4-0.1,0.4c-0.1,0.2,1.1,0.9,1.4,1.1c0.4,0.2,0.9,0.3,1.4,0.2c0.4,0,0.7,0.1,1,0.4
	c0.4,0.2,0.8,0.4,1.3,0.4c0.2,0.1,0.4,0.2,0.9,0.4c0.4,0.2,0.8,0.3,1.2,0.3c0.2,0,0.5-0.2,0.4-0.3s0-0.2,0.1-0.1s0.2,0,0.3-0.1
	s0.2,0.1,0.2,0.1c0,0.1,0.1,0.2,0.1,0.3c0,0.1,0.3,0.2,0.4,0.4s-0.1,0.2-0.2,0.2s-0.1-0.3-0.4-0.3s-0.1,0.4,0,0.4s0.1,0.1,0.2,0.2
	c0.3,0.2,0.6,0.5,0.8,0.7c0.1,0.1,0.2,0.1,0.4,0.3c0.1,0.2,0.2,0.4,0.3,0.6c0.1,0.2,0.3,0.3,0.4,0.4c0.2,0.2,0.3,0.3,0.5,0.5
	c0.2,0.2,0.4,0.4,0.5,0.6c0,0.1,0,0,0,0.1s-0.2,0-0.3,0.1s0,0,0.1,0.2c0,0.1,0.1,0.1,0.2,0c0,0,0,0,0,0c0,0.1,0.1,0.2,0.1,0.4
	c0,0.1,0,0.2-0.2,0.3c-0.1,0.1-0.2,0.3-0.1,0.5c0.1,0.3,0.4,0.5,0.6,0.6c0.4,0.2,0.4,0.3,0.5,0.4s0.1,0,0.2,0s0.2-0.1,0.3-0.2
	s0-0.1-0.1-0.1c-0.2-0.1-0.3-0.2-0.4-0.4c0-0.1,0.2-0.1,0.2-0.1l0.4,0.2c0.1,0,0.2,0.1,0.2,0.1c0,0,0.2,0.2,0.3,0.4
	s-0.1,0.2-0.1,0.3s0.1,0.1,0.3,0.2s0.4,0,0.5,0.1s0.4,0.2,0.4,0.2c0.2,0.2,0.4,0.3,0.6,0.5c0.2,0.1,0,0.3,0.1,0.4s-0.2,0.2-0.2,0.3
	s0.1,0.2,0.1,0.3s0.3,0.1,0.3,0.1c0.1,0,0.2,0.1,0.3,0.1c0,0,0-0.2-0.1-0.3s-0.1-0.1-0.2-0.2s0.1-0.2,0.1-0.2c0.1,0,0.2,0.1,0.3,0.1
	c0.1,0.1,0.1,0.2,0.2,0.3c0,0.1,0,0.2,0,0.3c0.1,0.1,0.2,0.2,0.3,0.3c0.1,0.1,0.1,0.3,0.2,0.3s0-0.1,0-0.3c0-0.1,0-0.2,0.1-0.3
	c0.1,0,0.3,0,0.4,0.1c0.1,0,0.2,0.1,0.3,0.1c0,0,0.1-0.1,0.2-0.1s-0.2,0.1,0.2,0.2H24c0.4,0.1,0.7,0.1,0.8,0.2s0.1,0.3,0.2,0.5
	s0.3,0.1,0.5,0.3s0.1-0.4,0.1-0.4c0.1,0,0.2,0,0.2-0.1c0,0.1,0,0.3,0.1,0.4c0.1,0.2,0.2,0.3,0.2,0.4c0,0.1,0,0.2,0,0.4
	c0,0.1,0.2,0.1,0.3,0.1s0.2-0.1,0.3-0.1c0.1,0,0.3,0,0.4-0.1c0.1,0-0.1-0.2,0.2-0.2s0.4,0,0.4-0.2s-0.2-0.4-0.4-0.5
	s-0.4-0.4-0.5-0.5s0.1-0.2,0.2-0.3s0.1-0.1,0.3-0.1s0.4-0.3,0.6-0.4s0.3-0.2,0.2-0.3s0-0.2,0.1-0.3s0.4-0.2,0.6-0.3s0.7,0,0.9,0.2
	s0.6,0.4,0.7,0.4s0,0.3,0.1,0.4s0.3,0.2,0.2,0s0-0.2,0.3-0.1s0.2,0,0.2-0.2c0.1,0.2,0.2,0.4,0.3,0.5c0.1,0.1-0.2-0.1-0.4-0.2
	s-0.1,0.2-0.1,0.5s-0.1,0-0.4,0s0,0.2,0.2,0.5c0.2,0.4,0.4,0.7,0.7,1c0.2,0.1,0.1-0.3,0.3-0.5s-0.1-0.2,0-0.4s0.2,0.2,0.3,0.2
	s0.2-0.1,0.4-0.3s-0.1-0.3,0.1-0.4S32.8,28.2,32.7,28.1L32.7,28.1z"/>
</svg>
