<?xml version="1.0" encoding="utf-8"?>
<!-- Generator: Adobe Illustrator 25.1.0, SVG Export Plug-In . SVG Version: 6.00 Build 0)  -->
<svg version="1.1" id="Capa_1" xmlns="http://www.w3.org/2000/svg" xmlns:xlink="http://www.w3.org/1999/xlink" x="0px" y="0px"
	 viewBox="0 0 40 40" style="enable-background:new 0 0 40 40;" xml:space="preserve">
<style type="text/css">
	.st0{clip-path:url(#SVGID_2_);fill:#FFFFFF;}
	.st1{fill:#F1B634;}
</style>
<g>
	<g>
		<defs>
			<rect id="SVGID_1_" x="0.4" y="0.4" width="39.2" height="39.2"/>
		</defs>
		<clipPath id="SVGID_2_">
			<use xlink:href="#SVGID_1_"  style="overflow:visible;"/>
		</clipPath>
		<path class="st0" d="M20,39.6c10.8,0,19.6-8.8,19.6-19.6S30.8,0.4,20,0.4S0.4,9.2,0.4,20S9.2,39.6,20,39.6"/>
	</g>
</g>
<g>
	<path class="st1" d="M14.3,26.8v-2.2l2-1.8c3.4-3.1,5.1-4.8,5.1-6.6c0-1.3-0.7-2.3-2.5-2.3c-1.3,0-2.5,0.6-3.3,1.3l-1-2.6
		c1.1-0.9,3-1.6,5.1-1.6c3.6,0,5.5,2.1,5.5,4.9c0,2.6-1.9,4.7-4.1,6.6l-1.4,1.3v0.1h5.9v3H14.3z"/>
</g>
</svg>
