<?xml version="1.0" encoding="utf-8"?>
<!-- Generator: Adobe Illustrator 25.2.0, SVG Export Plug-In . SVG Version: 6.00 Build 0)  -->
<svg version="1.1" id="Capa_1" xmlns="http://www.w3.org/2000/svg" xmlns:xlink="http://www.w3.org/1999/xlink" x="0px" y="0px"
	 viewBox="0 0 40 40" style="enable-background:new 0 0 40 40;" xml:space="preserve">
<style type="text/css">
	.st0{clip-path:url(#SVGID_2_);fill:#2670CA;}
	.st1{clip-path:url(#SVGID_2_);fill:#FFFFFF;}
</style>
<g>
	<defs>
		<rect id="SVGID_1_" x="0.4" y="0.4" width="39.2" height="39.2"/>
	</defs>
	<clipPath id="SVGID_2_">
		<use xlink:href="#SVGID_1_"  style="overflow:visible;"/>
	</clipPath>
	<path class="st0" d="M20,39.6c10.8,0,19.6-8.8,19.6-19.6C39.6,9.2,30.8,0.4,20,0.4S0.4,9.2,0.4,20C0.4,30.8,9.2,39.6,20,39.6"/>
	<path class="st1" d="M26,19c-1.4,0-2.5,1.1-2.5,2.5c0,1.4,1.1,2.5,2.5,2.5s2.5-1.1,2.5-2.5C28.5,20.1,27.4,19,26,19 M26,25
		c-1.9,0-3.5-1.6-3.5-3.5c0-1.8,1.3-3.2,3-3.5v-0.5c0-1.9-1.6-3.5-3.5-3.5h-0.8l1.1,1.1c0.2,0.2,0.2,0.5,0,0.7
		c-0.2,0.2-0.5,0.2-0.7,0l-2-2c0,0-0.1-0.2-0.1-0.3s0.1-0.3,0.1-0.4l2-2c0.2-0.2,0.5-0.2,0.7,0c0.2,0.2,0.2,0.5,0,0.7L21.2,13H22
		c2.5,0,4.5,2,4.5,4.5V18c1.9,0.3,3.2,2.1,3,4C29.2,23.7,27.7,25,26,25 M14,11c-1.4,0-2.5,1.1-2.5,2.5S12.6,16,14,16
		s2.5-1.1,2.5-2.5S15.4,11,14,11 M14,24c-1.4,0-2.5,1.1-2.5,2.5c0,1.4,1.1,2.5,2.5,2.5s2.5-1.1,2.5-2.5C16.5,25.1,15.4,24,14,24
		 M14,30c-1.9,0-3.5-1.6-3.5-3.5c0-1.8,1.3-3.2,3-3.5v-6c-1.9-0.3-3.2-2.1-3-4c0.2-1.9,2.1-3.2,4-3s3.2,2.1,3,4
		c-0.3,1.5-1.5,2.7-3,3v6c1.9,0.3,3.2,2,3,4C17.2,28.7,15.8,30,14,30"/>
</g>
</svg>
