<svg id="Capa_1" data-name="Capa 1" xmlns="http://www.w3.org/2000/svg" viewBox="0 0 26.96 28.38"><defs><style>.cls-1{fill:#fdb71a;}</style></defs><path class="cls-1" d="M22.29,28.38a.51.51,0,0,1-.36-.15l-1.64-1.69a2.69,2.69,0,0,0-2.24-.78l-6,.67a3.66,3.66,0,0,1-1.61-.18l-2.72-.91a3.65,3.65,0,0,1-1.46-.91L.62,18.78a2.15,2.15,0,0,1,0-3,2.12,2.12,0,0,1,3,0l.37.37a3.09,3.09,0,0,1,1.79-.59h0A3.08,3.08,0,0,1,8,16.44l.48.49a.49.49,0,1,1-.7.7l-.46-.46a2.16,2.16,0,0,0-1.5-.62,2.11,2.11,0,0,0-1.07.31l2.38,2.39.13-.13a1.92,1.92,0,0,1,1.39-.51H12a1.2,1.2,0,0,0,.74-.31,2.14,2.14,0,0,1,1.47-.61h4.23a2.12,2.12,0,0,1,1.48.62l6.87,6.92a.49.49,0,0,1-.7.7L19.23,19a1.12,1.12,0,0,0-.77-.32H14.23a1.11,1.11,0,0,0-.76.32,2,2,0,0,1-1.45.6H8.58a.93.93,0,0,0-.69.24.93.93,0,0,0,.59,1.62l6.47.38a.5.5,0,0,1,.47.53.51.51,0,0,1-.53.47l-6.46-.38a1.9,1.9,0,0,1-1.33-.62,1.94,1.94,0,0,1-.51-1.39,1.15,1.15,0,0,1,0-.26l-3-3-.05-.05-.63-.64a1.12,1.12,0,0,0-1.59,0,1.13,1.13,0,0,0,0,1.6L7,23.73a2.89,2.89,0,0,0,1.08.67l2.72.91a2.94,2.94,0,0,0,1.18.12l6-.67A3.72,3.72,0,0,1,21,25.84l1.65,1.69a.5.5,0,0,1,0,.71A.52.52,0,0,1,22.29,28.38ZM13.51,16.56a8.28,8.28,0,1,1,8.23-8.48.46.46,0,0,1,.05.2A8.28,8.28,0,0,1,13.51,16.56ZM13.46,1a7.28,7.28,0,1,0,7.33,7.53.54.54,0,0,1-.05-.21A7.32,7.32,0,0,0,13.46,1Zm0,12.39a.5.5,0,0,1-.5-.5v-.81h-.1a1.81,1.81,0,0,1-1.8-1.8.5.5,0,0,1,1,0,.8.8,0,0,0,.8.8h1.3a.8.8,0,0,0,.8-.8V9.63a.81.81,0,0,0-.8-.81h-1.3A1.81,1.81,0,0,1,11.06,7V6.37a1.82,1.82,0,0,1,1.8-1.81H13v-.8a.5.5,0,1,1,1,0v.8h.2A1.82,1.82,0,0,1,16,6.37a.5.5,0,1,1-1,0,.81.81,0,0,0-.8-.81h-1.3a.81.81,0,0,0-.8.81V7a.8.8,0,0,0,.8.8h1.3A1.82,1.82,0,0,1,16,9.63v.65a1.81,1.81,0,0,1-1.8,1.8H14v.81A.5.5,0,0,1,13.46,13.39Z" transform="translate(0)"/></svg>