<svg xmlns="http://www.w3.org/2000/svg" xmlns:xlink="http://www.w3.org/1999/xlink" viewBox="0 0 75.55 75.55"><defs><style>.cls-1,.cls-7{fill:none;}.cls-2{opacity:0.2;}.cls-3{clip-path:url(#clip-path);}.cls-4{fill:#fff;}.cls-5{clip-path:url(#clip-path-2);}.cls-6{clip-path:url(#clip-path-3);}.cls-7{stroke:#fdb71a;stroke-width:0.45px;}.cls-8{fill:#fdb71a;}</style><clipPath id="clip-path" transform="translate(-9 -7)"><rect class="cls-1" width="93.55" height="83.55"/></clipPath><clipPath id="clip-path-2" transform="translate(-9 -7)"><rect class="cls-1" x="3.13" y="3.13" width="87.3" height="77.3"/></clipPath><clipPath id="clip-path-3" transform="translate(-9 -7)"><rect class="cls-1" x="7.88" y="7.88" width="77.78" height="67.78"/></clipPath></defs><g id="Capa_2" data-name="Capa 2"><g id="Capa_1-2" data-name="Capa 1"><g class="cls-2"><g class="cls-3"><path class="cls-4" d="M46.78,82.55A37.78,37.78,0,1,0,9,44.77,37.77,37.77,0,0,0,46.78,82.55" transform="translate(-9 -7)"/></g></g><g class="cls-2"><g class="cls-5"><path class="cls-4" d="M46.78,79.43A34.66,34.66,0,1,0,12.12,44.77,34.66,34.66,0,0,0,46.78,79.43" transform="translate(-9 -7)"/></g></g><g class="cls-2"><g class="cls-6"><path class="cls-4" d="M46.78,74.67a29.9,29.9,0,1,0-29.9-29.89,29.9,29.9,0,0,0,29.9,29.89" transform="translate(-9 -7)"/></g></g><path class="cls-4" d="M46.78,70.6A25.83,25.83,0,1,0,21,44.77,25.82,25.82,0,0,0,46.78,70.6" transform="translate(-9 -7)"/><circle class="cls-7" cx="46.78" cy="44.78" r="14.07" transform="translate(-21.49 63.86) rotate(-67.5)"/><path class="cls-8" d="M52.64,45.24a.5.5,0,0,0,0-.93l-8-4.85c-.43-.26-.77-.06-.77.44v9.75c0,.5.34.7.77.44Z" transform="translate(-9 -7)"/></g></g></svg>