<svg id="Capa_1" data-name="Capa 1" xmlns="http://www.w3.org/2000/svg" xmlns:xlink="http://www.w3.org/1999/xlink" viewBox="0 0 39.2 39.2"><defs><style>.cls-1{fill:none;}.cls-2{clip-path:url(#clip-path);}.cls-3{fill:#fff;}.cls-4{fill:#a6bdd1;}</style><clipPath id="clip-path" transform="translate(0.33 0.33)"><rect class="cls-1" x="-0.33" y="-0.33" width="39.2" height="39.2"/></clipPath></defs><g class="cls-2"><path class="cls-3" d="M19.27,38.87A19.6,19.6,0,1,0-.33,19.27a19.6,19.6,0,0,0,19.6,19.6" transform="translate(0.33 0.33)"/><path class="cls-4" d="M19.32,16.27a3,3,0,1,0,3,3,3,3,0,0,0-3-3m0,7a4,4,0,1,1,4-4,4,4,0,0,1-4,4m-5,1.11a.38.38,0,0,1,.3.09A6.06,6.06,0,0,0,17.22,26a.32.32,0,0,1,.3.29l.6,1.71a.54.54,0,0,0,.5.29h1.6a.54.54,0,0,0,.5-.29l.6-1.71c.1-.2.2-.29.3-.29a6.71,6.71,0,0,0,2.6-1.51.39.39,0,0,1,.3-.09h.1l1.7.39a.72.72,0,0,0,.5-.2l.8-1.39a.47.47,0,0,0-.1-.6l-1.2-1.41c-.1-.09-.1-.29-.1-.4a7.57,7.57,0,0,0,0-3c0-.19,0-.29.1-.39l1.2-1.3a.67.67,0,0,0,.1-.6l-.8-1.31a.37.37,0,0,0-.5-.19l-1.7.4h-.1a.35.35,0,0,1-.3-.11,6.25,6.25,0,0,0-2.6-1.5.32.32,0,0,1-.3-.29l-.6-1.71c-.2-.39-.4-.5-.6-.5h-1.6a.57.57,0,0,0-.5.3l-.5,1.7c-.1.21-.2.3-.3.3a6.27,6.27,0,0,0-2.6,1.51c-.1.09-.19.19-.3.09h-.1l-1.79-.29a.72.72,0,0,0-.5.2l-.81,1.4a.46.46,0,0,0,.11.6l1.09,1.3a.54.54,0,0,1,.11.39,7.22,7.22,0,0,0,0,3c0,.21,0,.31-.11.4l-1.2,1.31a.68.68,0,0,0-.1.59l.8,1.31a.36.36,0,0,0,.5.19l2-.19h0m5.8,4.89h-1.6a1.49,1.49,0,0,1-1.4-1l-.5-1.39a6.69,6.69,0,0,1-2.5-1.5l-1.5.3A1.65,1.65,0,0,1,11,25l-.79-1.29a1.34,1.34,0,0,1,.2-1.7l1-1.1a7.08,7.08,0,0,1,0-2.9l-1-1.1a1.89,1.89,0,0,1-.2-1.9L11,13.67a1.47,1.47,0,0,1,1.6-.69l1.5.29a7.48,7.48,0,0,1,2.5-1.39l.5-1.61a1.5,1.5,0,0,1,1.4-1h1.6a1.5,1.5,0,0,1,1.4,1l.5,1.4a8.06,8.06,0,0,1,2.5,1.4l1.5-.3a1.65,1.65,0,0,1,1.6.71l.7,1.5a1.33,1.33,0,0,1-.2,1.69l-1,1.1a7.08,7.08,0,0,1,0,2.9l1,1.1a1.53,1.53,0,0,1,.2,1.7l-.8,1.41a1.46,1.46,0,0,1-1.6.69l-1.5-.3a7.53,7.53,0,0,1-2.5,1.41l-.4,1.59a1.49,1.49,0,0,1-1.4,1" transform="translate(0.33 0.33)"/></g></svg>