<?xml version="1.0" encoding="utf-8"?>
<!-- Generator: Adobe Illustrator 25.2.0, SVG Export Plug-In . SVG Version: 6.00 Build 0)  -->
<svg version="1.1" id="Capa_1" xmlns="http://www.w3.org/2000/svg" xmlns:xlink="http://www.w3.org/1999/xlink" x="0px" y="0px"
	 viewBox="0 0 40 40" style="enable-background:new 0 0 40 40;" xml:space="preserve">
<style type="text/css">
	.st0{clip-path:url(#SVGID_2_);fill:#FFFFFF;}
	.st1{clip-path:url(#SVGID_2_);fill:#8DBA38;}
</style>
<g>
	<g>
		<defs>
			<rect id="SVGID_1_" x="0.4" y="0.4" width="39.2" height="39.2"/>
		</defs>
		<clipPath id="SVGID_2_">
			<use xlink:href="#SVGID_1_"  style="overflow:visible;"/>
		</clipPath>
		<path class="st0" d="M20,39.6c10.8,0,19.6-8.8,19.6-19.6C39.6,9.2,30.8,0.4,20,0.4S0.4,9.2,0.4,20C0.4,30.8,9.2,39.6,20,39.6"/>
		<path class="st1" d="M22.7,11h-8.2c-1.9,0-3.5,1.6-3.5,3.5s1.6,3.5,3.5,3.5h8.2c-1.9-1.6-2.2-4.4-0.7-6.3
			C22.2,11.4,22.4,11.2,22.7,11 M25.5,11c-1.9,0-3.5,1.6-3.5,3.5s1.6,3.5,3.5,3.5c1.9,0,3.5-1.6,3.5-3.5c0-0.9-0.4-1.8-1-2.5
			C27.3,11.4,26.4,11,25.5,11 M25.5,19h-11C12,19,10,17,10,14.5s2-4.5,4.5-4.5h11h0.1c2.4,0,4.4,2,4.4,4.5S28,19,25.5,19 M14.5,22
			c-0.9,0-1.8,0.4-2.5,1c-1.4,1.4-1.4,3.6,0,4.9c1.4,1.4,3.6,1.4,4.9,0c0.6-0.7,1-1.5,1-2.5C18,23.6,16.4,22,14.5,22 M17.3,22
			c1.9,1.6,2.3,4.4,0.7,6.3c-0.2,0.3-0.4,0.5-0.7,0.7h8.2c1.9,0,3.5-1.6,3.5-3.5c0-1.9-1.6-3.5-3.5-3.5H17.3z M25.5,30h-11
			c-1.2,0-2.3-0.5-3.2-1.3c-0.8-0.8-1.3-2-1.3-3.2c0-2.4,2-4.4,4.4-4.5h0.1h11c2.5,0,4.5,2,4.5,4.5S28,30,25.5,30"/>
	</g>
</g>
</svg>
