<?xml version="1.0" encoding="utf-8"?>
<!-- Generator: Adobe Illustrator 25.1.0, SVG Export Plug-In . SVG Version: 6.00 Build 0)  -->
<svg version="1.1" id="Capa_1" xmlns="http://www.w3.org/2000/svg" xmlns:xlink="http://www.w3.org/1999/xlink" x="0px" y="0px"
	 viewBox="0 0 39.2 39.2" style="enable-background:new 0 0 39.2 39.2;" xml:space="preserve">
<style type="text/css">
	.st0{fill:#3977BB;}
	.st1{fill:#FFFFFF;}
</style>
<path class="st0" d="M19.6,39.2c10.8,0,19.6-8.8,19.6-19.6S30.4,0,19.6,0S0,8.8,0,19.6S8.8,39.2,19.6,39.2L19.6,39.2"/>
<g>
	<path class="st1" d="M14,27.7v-2.3l2-1.8c3.5-3.1,5.2-4.9,5.2-6.8c0-1.3-0.7-2.3-2.6-2.3c-1.3,0-2.6,0.7-3.4,1.3l-1-2.6
		c1.2-0.9,3.1-1.7,5.2-1.7c3.6,0,5.6,2.1,5.6,5c0,2.7-1.9,4.8-4.2,6.9l-1.5,1.2v0.1h6v3.1C25.2,27.7,14,27.7,14,27.7z"/>
</g>
</svg>
