<?xml version="1.0" encoding="utf-8"?>
<!-- Generator: Adobe Illustrator 25.2.0, SVG Export Plug-In . SVG Version: 6.00 Build 0)  -->
<svg version="1.1" id="Capa_1" xmlns="http://www.w3.org/2000/svg" xmlns:xlink="http://www.w3.org/1999/xlink" x="0px" y="0px"
	 viewBox="0 0 40 40" style="enable-background:new 0 0 40 40;" xml:space="preserve">
<style type="text/css">
	.st0{fill:#505B6C;}
	.st1{fill:#FFFFFF;}
</style>
<path class="st0" d="M20,39.6c10.8,0,19.6-8.8,19.6-19.6S30.8,0.4,20,0.4S0.4,9.2,0.4,20S9.2,39.6,20,39.6"/>
<path class="st1" d="M23.5,12c-0.8,0-1.5,0.7-1.5,1.5v13c0,0.8,0.7,1.5,1.5,1.5h3c0.8,0,1.5-0.7,1.5-1.5v-13c0-0.8-0.7-1.5-1.5-1.5
	H23.5z M26.5,29h-3c-1.4,0-2.5-1.1-2.5-2.5v-13c0-1.4,1.1-2.5,2.5-2.5h3c1.4,0,2.5,1.1,2.5,2.5v13C29,27.9,27.9,29,26.5,29 M14.5,29
	c-0.1,0-0.3-0.1-0.4-0.1l-3-3c-0.2-0.2-0.2-0.5,0-0.7s0.5-0.2,0.7,0l2.2,2.1V12.7l-2.1,2.2c-0.2,0.1-0.6,0.1-0.8,0
	c-0.1-0.2-0.1-0.6,0-0.8l3-3c0.2-0.1,0.6-0.1,0.8,0l3,3c0.2,0.2,0.2,0.5,0,0.7c-0.3,0.2-0.6,0.2-0.8,0.1L15,12.7v14.6l2.1-2.1
	c0.2-0.2,0.5-0.2,0.7,0s0.2,0.5,0,0.7l-3,3C14.8,28.9,14.6,29,14.5,29"/>
</svg>
