<svg xmlns="http://www.w3.org/2000/svg" viewBox="0 0 33.4 33.4"><defs><style>.cls-1{fill:#fdb71a;}.cls-2{fill:#fff;}</style></defs><g id="Capa_2" data-name="Capa 2"><g id="Capa_1-2" data-name="Capa 1"><path class="cls-1" d="M16.7,33.4A16.7,16.7,0,1,0,0,16.7,16.7,16.7,0,0,0,16.7,33.4"/><path class="cls-2" d="M16.87,14.48A2.56,2.56,0,1,0,19.43,17a2.56,2.56,0,0,0-2.56-2.56m0,6A3.41,3.41,0,1,1,20.28,17a3.41,3.41,0,0,1-3.41,3.41M9.63,11.93a1.28,1.28,0,0,0-1.28,1.28v.42h.43a1.28,1.28,0,0,0,1.28-1.28v-.42Zm14.06,0v.42A1.28,1.28,0,0,0,25,13.63h.43v-.42a1.28,1.28,0,0,0-1.28-1.28ZM8.35,20.45v.42a1.28,1.28,0,0,0,1.28,1.28h.46v-.42a1.27,1.27,0,0,0-1.27-1.28Zm0-6V19.6h.47A2.13,2.13,0,0,1,11,21.73v.42H22.84v-.42A2.13,2.13,0,0,1,25,19.6h.43V14.48H25a2.13,2.13,0,0,1-2.13-2.13v-.42H10.91v.42a2.13,2.13,0,0,1-2.13,2.13Zm16.62,6a1.28,1.28,0,0,0-1.28,1.28v.42h.43a1.28,1.28,0,0,0,1.28-1.28v-.42ZM10.52,23a.45.45,0,0,1-.16,0H9.63A2.13,2.13,0,0,1,7.5,20.87V13.21a2.13,2.13,0,0,1,2.13-2.13H24.12a2.13,2.13,0,0,1,2.13,2.13v7.66A2.13,2.13,0,0,1,24.12,23H10.68a.45.45,0,0,1-.16,0"/></g></g></svg>