<?xml version="1.0" encoding="utf-8"?>
<!-- Generator: Adobe Illustrator 26.0.3, SVG Export Plug-In . SVG Version: 6.00 Build 0)  -->
<svg version="1.1" id="Capa_1" xmlns="http://www.w3.org/2000/svg" xmlns:xlink="http://www.w3.org/1999/xlink" x="0px" y="0px"
	 viewBox="0 0 26.9 28.4" style="enable-background:new 0 0 26.9 28.4;" xml:space="preserve">
<style type="text/css">
	.st0{fill:#FFFFFF;}
</style>
<path class="st0" d="M22.3,28.4c-0.1,0-0.3-0.1-0.4-0.2l-1.6-1.7c-0.6-0.6-1.4-0.9-2.2-0.8l-6,0.7c-0.5,0.1-1.1,0-1.6-0.2l-2.7-0.9
	c-0.6-0.2-1.1-0.5-1.5-0.9l-5.6-5.6c-0.8-0.8-0.8-2.2,0-3c0.8-0.8,2.2-0.8,3,0L4,16.1c0.5-0.4,1.1-0.6,1.8-0.6c0,0,0,0,0,0
	c0.8,0,1.6,0.3,2.2,0.9l0.5,0.5c0.2,0.2,0.2,0.5,0,0.7s-0.5,0.2-0.7,0l-0.5-0.5c-0.4-0.4-1-0.6-1.5-0.6c-0.4,0-0.8,0.1-1.1,0.3
	l2.4,2.4c0,0,0.1-0.1,0.1-0.1c0.4-0.3,0.9-0.5,1.4-0.5H12c0.3,0,0.5-0.1,0.7-0.3c0.4-0.4,0.9-0.6,1.5-0.6h4.2c0.6,0,1.1,0.2,1.5,0.6
	l6.9,6.9c0.2,0.2,0.2,0.5,0,0.7c-0.2,0.2-0.5,0.2-0.7,0L19.2,19c-0.2-0.2-0.5-0.3-0.8-0.3h-4.2c-0.3,0-0.6,0.1-0.8,0.3
	c-0.4,0.4-0.9,0.6-1.4,0.6c0,0,0,0,0,0H8.6c-0.3,0-0.5,0.1-0.7,0.2c-0.2,0.2-0.3,0.4-0.3,0.6c0,0.2,0.1,0.5,0.2,0.7
	c0.2,0.2,0.4,0.3,0.6,0.3l6.5,0.4c0.3,0,0.5,0.3,0.5,0.5s-0.3,0.5-0.5,0.5l-6.5-0.4c-0.5,0-1-0.2-1.3-0.6c-0.3-0.4-0.5-0.9-0.5-1.4
	c0-0.1,0-0.2,0-0.3l-3-3c0,0,0,0,0-0.1l-0.6-0.6c-0.4-0.4-1.2-0.4-1.6,0c-0.4,0.4-0.4,1.2,0,1.6L7,23.7C7.3,24,7.6,24.3,8,24.4
	l2.7,0.9c0.4,0.1,0.8,0.2,1.2,0.1l6-0.7c1.1-0.1,2.3,0.3,3.1,1.1l1.6,1.7c0.2,0.2,0.2,0.5,0,0.7C22.5,28.3,22.4,28.4,22.3,28.4z
	 M13.5,16.6c-4.6,0-8.3-3.7-8.3-8.3C5.2,3.7,8.9,0,13.5,0c4.5,0,8.2,3.6,8.3,8.1c0,0.1,0.1,0.1,0.1,0.2
	C21.8,12.8,18.1,16.6,13.5,16.6z M13.5,1c-4,0-7.2,3.3-7.2,7.3c0,4,3.3,7.3,7.3,7.3c3.9,0,7.1-3.1,7.3-7c0-0.1,0-0.1,0-0.2
	C20.7,4.3,17.5,1,13.5,1z M13.5,13.4c-0.3,0-0.5-0.2-0.5-0.5v-0.8h-0.1c-1,0-1.8-0.8-1.8-1.8c0-0.3,0.2-0.5,0.5-0.5s0.5,0.2,0.5,0.5
	c0,0.4,0.4,0.8,0.8,0.8h1.3c0.4,0,0.8-0.4,0.8-0.8V9.6c0-0.4-0.4-0.8-0.8-0.8h-1.3c-1,0-1.8-0.8-1.8-1.8V6.4c0-1,0.8-1.8,1.8-1.8H13
	V3.8c0-0.3,0.2-0.5,0.5-0.5S14,3.5,14,3.8v0.8h0.2c1,0,1.8,0.8,1.8,1.8c0,0.3-0.2,0.5-0.5,0.5S15,6.6,15,6.4c0-0.4-0.4-0.8-0.8-0.8
	h-0.7c0,0,0,0,0,0h-0.6c-0.4,0-0.8,0.4-0.8,0.8V7c0,0.4,0.4,0.8,0.8,0.8h1.3c1,0,1.8,0.8,1.8,1.8v0.6c0,1-0.8,1.8-1.8,1.8H14v0.8
	C14,13.2,13.7,13.4,13.5,13.4z"/>
</svg>
