<?xml version="1.0" encoding="utf-8"?>
<!-- Generator: Adobe Illustrator 25.2.0, SVG Export Plug-In . SVG Version: 6.00 Build 0)  -->
<svg version="1.1" id="Capa_1" xmlns="http://www.w3.org/2000/svg" xmlns:xlink="http://www.w3.org/1999/xlink" x="0px" y="0px"
	 viewBox="0 0 40 40" style="enable-background:new 0 0 40 40;" xml:space="preserve">
<style type="text/css">
	.st0{clip-path:url(#SVGID_2_);fill:#FFFFFF;}
</style>
<g>
	<g>
		<defs>
			<rect id="SVGID_1_" x="2.1" y="8.5" width="35.9" height="23"/>
		</defs>
		<clipPath id="SVGID_2_">
			<use xlink:href="#SVGID_1_"  style="overflow:visible;"/>
		</clipPath>
		<path class="st0" d="M21.9,24.9l0.3,0.2l-1,0.9l-0.3-0.2L21.9,24.9z M26.5,23.4h1.3v0.3h-1.3V23.4z M26.6,21l0.3,0.2l-1,0.9
			l-0.3-0.2L26.6,21z M23.9,20.2h0.4v1.3h-0.4V20.2z M21.5,20.9l1.1,0.9l-0.3,0.2l-1.1-0.9L21.5,20.9z M21.6,23.8h-1.4v-0.3h1.4
			V23.8z M12.2,16.7c0-0.2,0.2-0.3,0.4-0.3c0.2,0,0.4,0.1,0.4,0.3c0,0.2-0.2,0.3-0.4,0.3C12.4,17.1,12.2,16.9,12.2,16.7 M13.3,16.7
			c0-0.2,0.2-0.3,0.4-0.3c0.2,0,0.4,0.1,0.4,0.3c0,0.2-0.2,0.3-0.4,0.3C13.5,17.1,13.3,16.9,13.3,16.7 M14.4,16.7
			c0-0.2,0.2-0.3,0.4-0.3c0.2,0,0.4,0.1,0.4,0.3c0,0.2-0.2,0.3-0.4,0.3C14.6,17.1,14.4,16.9,14.4,16.7 M12,15.8h1.2h13.1v1.8H11.5
			v-1.8H12z M11.5,18h14.8v1.3h0.4v-3.8H13.2H12h-0.9v11.9h9V27h-8.6V18z M27.5,29.7L26.9,30l-1.3-2.3l-1.2,0.9v-4.4l3.7,3.2l-1.8,0
			L27.5,29.7z M28.9,27.8l-5-4.4v6l1.5-1.1l1.3,2.2l1.4-0.6l-1.2-2.1L28.9,27.8z"/>
	</g>
</g>
</svg>
