<svg id="Capa_1" data-name="Capa 1" xmlns="http://www.w3.org/2000/svg" viewBox="0 0 47 38.94"><defs><style>.cls-1{fill:#fff;}</style></defs><path class="cls-1" d="M43.56,12.7a.71.71,0,0,1,.31.08l1.81,1a.08.08,0,0,0,.1,0,.1.1,0,0,0,0-.09l-.35-2a.66.66,0,0,1,.19-.59l1.47-1.43a.08.08,0,0,0,0-.09c0-.06-.06-.06-.07-.07l-2-.29a.64.64,0,0,1-.5-.37l-.91-1.83a.08.08,0,0,0-.08-.05.09.09,0,0,0-.09.05l-.9,1.83a.68.68,0,0,1-.51.37l-2,.29s-.06,0-.08.07a.07.07,0,0,0,0,.09L41.45,11a.66.66,0,0,1,.19.59l-.34,2a.08.08,0,0,0,0,.09.06.06,0,0,0,.09,0l1.81-1a.72.72,0,0,1,.32-.08m-2.17,2.39a1.44,1.44,0,0,1-.84-.28,1.4,1.4,0,0,1-.57-1.4l.28-1.67-1.21-1.19a1.41,1.41,0,0,1-.37-1.47,1.43,1.43,0,0,1,1.16-1l1.68-.25.75-1.52a1.43,1.43,0,0,1,1.29-.8,1.42,1.42,0,0,1,1.28.8l.75,1.52,1.68.25a1.43,1.43,0,0,1,.8,2.44l-1.22,1.19.29,1.67a1.43,1.43,0,0,1-2.08,1.51l-1.5-.79-1.5.79a1.48,1.48,0,0,1-.67.17" transform="translate(-1.5 -5.53)"/><path class="cls-1" d="M31.16,6.89a.07.07,0,0,0-.08.05l-.91,1.83a.64.64,0,0,1-.5.37l-2,.29s-.05,0-.07.07a.08.08,0,0,0,0,.09L29.06,11a.66.66,0,0,1,.19.59l-.35,2a.08.08,0,0,0,0,.09.08.08,0,0,0,.1,0l1.81-1a.62.62,0,0,1,.62,0l1.82,1a.06.06,0,0,0,.09,0,.08.08,0,0,0,0-.09l-.35-2a.7.7,0,0,1,.2-.59l1.46-1.43a.08.08,0,0,0,0-.09c0-.06-.06-.06-.08-.07l-2-.29a.68.68,0,0,1-.51-.37l-.9-1.83a.09.09,0,0,0-.09-.05m2.17,8.2a1.45,1.45,0,0,1-.67-.17l-1.5-.79-1.5.79a1.43,1.43,0,0,1-2.08-1.51l.29-1.67-1.22-1.19a1.43,1.43,0,0,1-.36-1.47,1.4,1.4,0,0,1,1.16-1l1.68-.25.75-1.52a1.42,1.42,0,0,1,1.28-.8,1.43,1.43,0,0,1,1.29.8l.75,1.52,1.68.25a1.43,1.43,0,0,1,.79,2.44l-1.21,1.19.28,1.67a1.4,1.4,0,0,1-.57,1.4,1.44,1.44,0,0,1-.84.28" transform="translate(-1.5 -5.53)"/><path class="cls-1" d="M18.77,12.7a.68.68,0,0,1,.31.08l1.81,1a.08.08,0,0,0,.1,0,.08.08,0,0,0,0-.09l-.35-2a.69.69,0,0,1,.19-.59l1.47-1.43a.08.08,0,0,0,0-.09c0-.06-.06-.06-.07-.07l-2-.29a.64.64,0,0,1-.5-.37l-.91-1.83a.07.07,0,0,0-.08-.05c-.06,0-.08,0-.08.05l-.91,1.83a.68.68,0,0,1-.51.37l-2,.29s-.06,0-.08.07a.1.1,0,0,0,0,.09L16.66,11a.7.7,0,0,1,.2.59l-.35,2a.08.08,0,0,0,0,.09.06.06,0,0,0,.09,0l1.82-1a.65.65,0,0,1,.31-.08m2.17,2.39a1.45,1.45,0,0,1-.67-.17l-1.5-.79-1.5.79a1.44,1.44,0,0,1-1.51-.11,1.4,1.4,0,0,1-.57-1.4l.28-1.67-1.21-1.19a1.43,1.43,0,0,1-.36-1.47,1.4,1.4,0,0,1,1.15-1l1.68-.25.75-1.52a1.44,1.44,0,0,1,2.58,0l.74,1.52,1.68.25a1.4,1.4,0,0,1,1.16,1,1.43,1.43,0,0,1-.36,1.47l-1.22,1.19.29,1.67a1.43,1.43,0,0,1-.57,1.4,1.46,1.46,0,0,1-.84.28" transform="translate(-1.5 -5.53)"/><path class="cls-1" d="M31.16,21a.09.09,0,0,0-.08.05l-.91,1.84a.66.66,0,0,1-.5.37l-2,.29a.1.1,0,0,0-.05.16l1.47,1.43a.64.64,0,0,1,.19.59l-.35,2a.09.09,0,0,0,0,.09.12.12,0,0,0,.1,0l1.81-1a.68.68,0,0,1,.62,0l1.82,1a.1.1,0,0,0,.09,0,.09.09,0,0,0,0-.09l-.35-2a.68.68,0,0,1,.2-.59l1.46-1.43s0,0,0-.1a.09.09,0,0,0-.08-.06l-2-.29a.7.7,0,0,1-.51-.37L31.25,21a.11.11,0,0,0-.09-.05m2.17,8.2a1.34,1.34,0,0,1-.67-.17l-1.5-.78-1.5.78a1.42,1.42,0,0,1-1.51-.1,1.46,1.46,0,0,1-.57-1.41l.29-1.67-1.22-1.18a1.43,1.43,0,0,1-.36-1.47,1.42,1.42,0,0,1,1.16-1L29.13,22l.75-1.52a1.4,1.4,0,0,1,1.28-.8,1.42,1.42,0,0,1,1.29.8L33.2,22l1.68.24a1.44,1.44,0,0,1,.79,2.45l-1.21,1.18.28,1.67a1.43,1.43,0,0,1-1.41,1.68" transform="translate(-1.5 -5.53)"/><path class="cls-1" d="M18.77,21c-.06,0-.08,0-.08.05l-.91,1.84a.7.7,0,0,1-.51.37l-2,.29a.09.09,0,0,0-.08.06.11.11,0,0,0,0,.1l1.46,1.43a.68.68,0,0,1,.2.59l-.35,2a.09.09,0,0,0,0,.09.1.1,0,0,0,.09,0l1.82-1a.68.68,0,0,1,.62,0l1.81,1a.12.12,0,0,0,.1,0,.08.08,0,0,0,0-.09l-.35-2a.67.67,0,0,1,.19-.59l1.47-1.43a.1.1,0,0,0-.05-.16l-2-.29a.66.66,0,0,1-.5-.37L18.85,21a.09.09,0,0,0-.08-.05m2.17,8.2a1.34,1.34,0,0,1-.67-.17l-1.5-.78-1.5.78a1.43,1.43,0,0,1-2.08-1.51l.28-1.67-1.21-1.18a1.43,1.43,0,0,1-.36-1.47,1.42,1.42,0,0,1,1.15-1L16.73,22l.75-1.52a1.44,1.44,0,0,1,2.58,0L20.8,22l1.68.24a1.42,1.42,0,0,1,1.16,1,1.43,1.43,0,0,1-.36,1.47l-1.22,1.18.29,1.67a1.43,1.43,0,0,1-1.41,1.68" transform="translate(-1.5 -5.53)"/><path class="cls-1" d="M18.77,35.74c-.06,0-.08,0-.08,0l-.91,1.84a.68.68,0,0,1-.51.37l-2,.29a.09.09,0,0,0-.08.06.11.11,0,0,0,0,.1l1.46,1.43a.68.68,0,0,1,.2.59l-.35,2a.08.08,0,0,0,0,.09.1.1,0,0,0,.09,0l1.82-1a.68.68,0,0,1,.62,0l1.81,1a.12.12,0,0,0,.1,0,.08.08,0,0,0,0-.09l-.35-2a.67.67,0,0,1,.19-.59l1.47-1.43a.1.1,0,0,0-.05-.16l-2-.29a.64.64,0,0,1-.5-.37l-.91-1.84a.09.09,0,0,0-.08,0m2.17,8.2a1.44,1.44,0,0,1-.67-.16L18.77,43l-1.5.79a1.44,1.44,0,0,1-1.51-.11,1.41,1.41,0,0,1-.57-1.41l.28-1.67-1.21-1.18A1.44,1.44,0,0,1,15.05,37l1.68-.24.75-1.52a1.44,1.44,0,0,1,2.58,0l.74,1.52,1.68.24a1.44,1.44,0,0,1,.8,2.45l-1.22,1.18.29,1.67a1.43,1.43,0,0,1-1.41,1.68" transform="translate(-1.5 -5.53)"/><path class="cls-1" d="M2.84,43.13H9.56V36.41H2.84Zm7.39,1.34H2.17a.67.67,0,0,1-.67-.67V35.74a.67.67,0,0,1,.67-.67h8.06a.67.67,0,0,1,.67.67V43.8a.67.67,0,0,1-.67.67" transform="translate(-1.5 -5.53)"/><path class="cls-1" d="M10.23,14.93H2.17a.67.67,0,0,1-.67-.67V6.2a.67.67,0,0,1,.67-.67h4.7a.67.67,0,0,1,0,1.34h-4v6.72H9.56V10.23a.67.67,0,0,1,1.34,0v4a.67.67,0,0,1-.67.67" transform="translate(-1.5 -5.53)"/><path class="cls-1" d="M6.24,12.2A.7.7,0,0,1,5.77,12L4,10.26a.67.67,0,0,1,.94-1l1.23,1.21,3-4.12a.67.67,0,0,1,.94-.15.68.68,0,0,1,.15.94L6.79,11.92a.71.71,0,0,1-.49.28H6.24" transform="translate(-1.5 -5.53)"/><path class="cls-1" d="M10.23,29.7H2.17A.67.67,0,0,1,1.5,29V21a.67.67,0,0,1,.67-.67h4.7a.67.67,0,0,1,0,1.34h-4v6.72H9.56V25a.67.67,0,1,1,1.34,0v4a.67.67,0,0,1-.67.67" transform="translate(-1.5 -5.53)"/><path class="cls-1" d="M6.24,27a.7.7,0,0,1-.47-.19L4,25a.68.68,0,0,1,.94-1l1.23,1.21,3-4.12a.67.67,0,0,1,1.09.79L6.79,26.69A.71.71,0,0,1,6.3,27H6.24" transform="translate(-1.5 -5.53)"/><path class="cls-1" d="M7.54,41.79a.67.67,0,0,1-.47-.2L4.38,38.9a.67.67,0,1,1,1-.95L8,40.64a.68.68,0,0,1,0,1,.69.69,0,0,1-.48.2" transform="translate(-1.5 -5.53)"/><path class="cls-1" d="M4.86,41.79a.68.68,0,0,1-.48-1.15L7.07,38A.67.67,0,1,1,8,38.9L5.33,41.59a.67.67,0,0,1-.47.2" transform="translate(-1.5 -5.53)"/></svg>