<svg xmlns="http://www.w3.org/2000/svg" viewBox="0 0 39.2 39.2"><defs><style>.cls-1{fill:#007dc3;}.cls-2{fill:#eef2f4;}</style></defs><g id="Capa_2" data-name="Capa 2"><g id="Capa_1-2" data-name="Capa 1"><path class="cls-1" d="M19.6,39.2A19.6,19.6,0,1,0,0,19.6,19.61,19.61,0,0,0,19.6,39.2"/><path class="cls-2" d="M25.56,16.25a.47.47,0,0,1-.5-.5v-2.5h-2.5a.5.5,0,0,1,0-1h2.5V9.75a.5.5,0,0,1,1,0v2.5h2.5a.5.5,0,1,1,0,1h-2.5v2.5a.47.47,0,0,1-.5.5m0,8.68a3.55,3.55,0,0,1-1,.2,1.54,1.54,0,0,0-1.5,1.5,3.55,3.55,0,0,1-.2,1,5.89,5.89,0,0,0,2.7-2.7m-5,4.2h-7a2.48,2.48,0,0,1-2.5-2.5v-13a2.48,2.48,0,0,1,2.5-2.5h6a.47.47,0,0,1,.5.5.37.37,0,0,1-.1.3.52.52,0,0,1-.4.2h-6a1.54,1.54,0,0,0-1.5,1.5v13a1.54,1.54,0,0,0,1.5,1.5h7a1.54,1.54,0,0,0,1.5-1.5,2.48,2.48,0,0,1,2.5-2.5,1.54,1.54,0,0,0,1.5-1.5v-3a.5.5,0,0,1,1,0v3a6.49,6.49,0,0,1-6.5,6.5"/><path class="cls-2" d="M19.56,23.63a.47.47,0,0,1-.5-.5v-.5h-1v.5a.5.5,0,0,1-1,0v-.5h-.5a1.54,1.54,0,0,1-1.5-1.5.5.5,0,1,1,1,0,.47.47,0,0,0,.5.5h4a.47.47,0,0,0,.5-.5v-1a.47.47,0,0,0-.5-.5h-4a1.54,1.54,0,0,1-1.5-1.5v-1a1.54,1.54,0,0,1,1.5-1.5h.5v-.5a.5.5,0,1,1,1,0v.5h1v-.5a.5.5,0,1,1,1,0v.5h.5a1.54,1.54,0,0,1,1.5,1.5.5.5,0,0,1-1,0,.47.47,0,0,0-.5-.5h-4a.47.47,0,0,0-.5.5v1a.47.47,0,0,0,.5.5h4a1.54,1.54,0,0,1,1.5,1.5v1a1.54,1.54,0,0,1-1.5,1.5h-.5v.5a.47.47,0,0,1-.5.5"/></g></g></svg>