<?xml version="1.0" encoding="utf-8"?>
<!-- Generator: Adobe Illustrator 25.2.0, SVG Export Plug-In . SVG Version: 6.00 Build 0)  -->
<svg version="1.1" id="Capa_1" xmlns="http://www.w3.org/2000/svg" xmlns:xlink="http://www.w3.org/1999/xlink" x="0px" y="0px"
	 viewBox="0 0 40 40" style="enable-background:new 0 0 40 40;" xml:space="preserve">
<style type="text/css">
	.st0{clip-path:url(#SVGID_2_);fill:#D67938;}
	.st1{clip-path:url(#SVGID_2_);fill:#FFFFFF;}
</style>
<g>
	<defs>
		<rect id="SVGID_1_" x="0.4" y="0.4" width="39.2" height="39.2"/>
	</defs>
	<clipPath id="SVGID_2_">
		<use xlink:href="#SVGID_1_"  style="overflow:visible;"/>
	</clipPath>
	<path class="st0" d="M20,39.6c10.8,0,19.6-8.8,19.6-19.6C39.6,9.2,30.8,0.4,20,0.4S0.4,9.2,0.4,20C0.4,30.8,9.2,39.6,20,39.6"/>
	<path class="st1" d="M19.5,11h-3c-0.3,0-0.5-0.2-0.5-0.5s0.2-0.5,0.5-0.5h3c0.3,0,0.5,0.2,0.5,0.5S19.8,11,19.5,11 M16.5,16
		c-0.7-0.1-1.4,0.4-1.5,1.1v0.4c0,1.1,1,2.2,3,3.4c2-1.2,3-2.3,3-3.4c0.1-0.7-0.4-1.4-1.1-1.5h-0.4c-0.5,0-0.9,0.3-1.1,0.7
		c-0.1,0.3-0.4,0.4-0.6,0.2c-0.1,0-0.2-0.1-0.2-0.2C17.4,16.3,17,16,16.5,16 M18,22c-0.1,0-0.2,0-0.2-0.1C15.2,20.5,14,19,14,17.5
		c-0.1-1.3,0.8-2.4,2.1-2.5h0.4c0.6,0,1.1,0.2,1.5,0.6c0.4-0.4,0.9-0.6,1.5-0.6c1.3-0.1,2.4,0.8,2.5,2.1v0.4c0,1.5-1.2,3-3.8,4.4
		C18.2,22,18.1,22,18,22 M14.5,9C13.7,9,13,9.7,13,10.5v16c0,0.8,0.7,1.5,1.5,1.5h3.2l-0.1-0.1c-0.4-0.5-0.6-1.2-0.4-1.8
		c0.2-0.6,0.8-1.1,1.5-1.1c0.5,0,1,0.2,1.5,0.5c0.5,0.4,1.1,0.5,1.8,0.5c0.6,0,1-0.4,1-1V10.5c0-0.4-0.2-0.8-0.4-1.1
		C22.3,9.2,21.9,9,21.5,9H14.5z M27.5,32c-0.3,0-0.5-0.2-0.5-0.5v-9c0-1.7-1.3-3.2-3-3.5v6c0,1.1-0.9,2-2,2c-0.8,0-1.7-0.2-2.4-0.7
		C19.3,26.1,19,26,18.7,26c-0.2,0-0.4,0.1-0.5,0.4c-0.1,0.3-0.1,0.6,0.2,0.9l3.5,3.9c0.2,0.2,0.2,0.5,0,0.7c-0.2,0.2-0.5,0.2-0.7,0
		L18.6,29h-0.1h-4c-1.4,0-2.5-1.1-2.5-2.5v-16C12,9.1,13.1,8,14.5,8h7c1.4,0,2.5,1.1,2.5,2.5V18c2.3,0.3,4,2.2,4,4.5v9
		C28,31.8,27.8,32,27.5,32"/>
</g>
</svg>
