<?xml version="1.0" encoding="utf-8"?>
<!-- Generator: Adobe Illustrator 25.2.0, SVG Export Plug-In . SVG Version: 6.00 Build 0)  -->
<svg version="1.1" id="Capa_1" xmlns="http://www.w3.org/2000/svg" xmlns:xlink="http://www.w3.org/1999/xlink" x="0px" y="0px"
	 viewBox="0 0 40 40" style="enable-background:new 0 0 40 40;" xml:space="preserve">
<style type="text/css">
	.st0{clip-path:url(#SVGID_2_);fill:#2670CA;}
	.st1{clip-path:url(#SVGID_4_);fill:#8DBA38;}
	.st2{clip-path:url(#SVGID_4_);fill:#F1B634;}
	.st3{clip-path:url(#SVGID_4_);fill:#714193;}
	.st4{clip-path:url(#SVGID_4_);fill:#D97A2D;}
	.st5{clip-path:url(#SVGID_6_);fill:#FFFFFF;}
	.st6{clip-path:url(#SVGID_6_);fill:none;stroke:#FFFFFF;stroke-width:0.25;stroke-miterlimit:10;}
</style>
<g>
	<defs>
		<rect id="SVGID_1_" x="1.6" y="1.6" width="36.9" height="36.9"/>
	</defs>
	<clipPath id="SVGID_2_">
		<use xlink:href="#SVGID_1_"  style="overflow:visible;"/>
	</clipPath>
	<path class="st0" d="M20,38.4c10.2,0,18.4-8.3,18.4-18.4C38.4,9.8,30.2,1.6,20,1.6S1.6,9.8,1.6,20C1.6,30.2,9.8,38.4,20,38.4"/>
</g>
<g>
	<defs>
		<path id="SVGID_3_" d="M20,1.6C9.8,1.6,1.6,9.8,1.6,20S9.8,38.4,20,38.4c10.2,0,18.4-8.3,18.4-18.4S30.2,1.6,20,1.6z"/>
	</defs>
	<clipPath id="SVGID_4_">
		<use xlink:href="#SVGID_3_"  style="overflow:visible;"/>
	</clipPath>
	<rect x="-1.6" y="-1.6" class="st1" width="21.6" height="21.6"/>
	<rect x="-1.6" y="20" class="st2" width="21.6" height="21.6"/>
	<rect x="20" y="-1.6" class="st3" width="21.6" height="21.6"/>
	<rect x="20" y="20" class="st4" width="21.6" height="21.6"/>
</g>
<g>
	<defs>
		<rect id="SVGID_5_" x="1.6" y="1.6" width="36.9" height="36.9"/>
	</defs>
	<clipPath id="SVGID_6_">
		<use xlink:href="#SVGID_5_"  style="overflow:visible;"/>
	</clipPath>
	<path class="st5" d="M10.4,25.7c-1.3,0-2.4-1-2.4-2.4v-0.8c0-0.8,0.5-1.7,1.3-2.1l3.2-1.6c-2.1-1.7-2.3-4.7-0.6-6.7
		s4.7-2.2,6.7-0.5c0.3,0.3,0.6,0.6,0.8,0.9c0.2,0.2,0.1,0.5-0.1,0.7c-0.1,0-0.1,0.1-0.2,0.1c-0.2,0-0.3-0.1-0.4-0.2
		c-1.1-1.7-3.5-2.2-5.3-1s-2.2,3.5-1,5.3c0.3,0.5,0.7,0.8,1.1,1.1c0.2,0.1,0.3,0.5,0.2,0.7c-0.1,0-0.1,0.1-0.2,0.1l-3.9,2
		C9.3,21.5,9,22.1,9,22.6v0.8c0,0.8,0.7,1.4,1.4,1.4c0.3,0,0.5,0.2,0.5,0.5C10.9,25.5,10.7,25.7,10.4,25.7 M19.3,15.3
		c-2.1,0-3.8,1.7-3.8,3.8s1.7,3.8,3.8,3.8s3.8-1.7,3.8-3.8S21.4,15.3,19.3,15.3 M17.4,23.4l-3.9,1.8c-0.6,0.2-0.8,0.7-0.8,1.2v0.7
		c0,0.8,0.7,1.4,1.4,1.4h10.4c0.8,0,1.4-0.7,1.4-1.4v-0.7c0-0.6-0.3-1-0.8-1.3l-3.9-1.7c-0.6,0.3-1.2,0.4-1.9,0.4S18,23.7,17.4,23.4
		 M24.5,29.4H14.2c-0.7,0-1.2-0.3-1.7-0.7c-0.4-0.5-0.7-1-0.7-1.7v-0.7c0-0.9,0.6-1.8,1.4-2.2l3.3-1.5c-2.1-1.6-2.4-4.5-0.8-6.6
		c1.6-2.1,4.5-2.4,6.6-0.8s2.4,4.5,0.8,6.6c-0.3,0.3-0.5,0.6-0.8,0.8l3.3,1.5c0.8,0.4,1.4,1.2,1.4,2.2v0.7c0,0.7-0.3,1.2-0.7,1.7
		C25.7,29.1,25.2,29.4,24.5,29.4"/>
	<path class="st5" d="M27.5,26.9c0-0.2,0.1-0.3,0.3-0.3c0.5,0,2.8-0.2,3.4-1c0.2-0.2,0.1-0.7,0.1-0.7c0-0.3-0.2-0.7-0.5-0.8
		l-2.5-1.3c-0.1,0-0.1-0.1-0.1-0.1c-0.1-0.1,0-0.4,0.1-0.5c0.3-0.2,0.6-0.5,0.8-0.8c0.8-1.1,0.5-2.7-0.7-3.5
		c-1.1-0.8-2.7-0.5-3.5,0.7c-0.1,0.1-0.1,0.1-0.3,0.1c-0.1,0-0.1-0.1-0.1-0.1c-0.1-0.1-0.2-0.3-0.1-0.5c0.1-0.3,0.3-0.5,0.5-0.7
		c1.3-1.1,3.3-0.9,4.4,0.3c1.1,1.2,0.9,3.3-0.4,4.4l2.1,1c0.6,0.3,0.8,0.8,0.8,1.3V25c-0.2,1.3-3.2,1.9-4,1.9
		C27.7,27.3,27.5,27.2,27.5,26.9"/>
	<path class="st6" d="M27.5,26.9c0-0.2,0.1-0.3,0.3-0.3c0.5,0,2.8-0.2,3.4-1c0.2-0.2,0.1-0.7,0.1-0.7c0-0.3-0.2-0.7-0.5-0.8
		l-2.5-1.3c-0.1,0-0.1-0.1-0.1-0.1c-0.1-0.1,0-0.4,0.1-0.5c0.3-0.2,0.6-0.5,0.8-0.8c0.8-1.1,0.5-2.7-0.7-3.5
		c-1.1-0.8-2.7-0.5-3.5,0.7c-0.1,0.1-0.1,0.1-0.3,0.1c-0.1,0-0.1-0.1-0.1-0.1c-0.1-0.1-0.2-0.3-0.1-0.5c0.1-0.3,0.3-0.5,0.5-0.7
		c1.3-1.1,3.3-0.9,4.4,0.3c1.1,1.2,0.9,3.3-0.4,4.4l2.1,1c0.6,0.3,0.8,0.8,0.8,1.3V25c-0.2,1.3-3.2,1.9-4,1.9
		C27.7,27.3,27.5,27.2,27.5,26.9z"/>
</g>
</svg>
