<?xml version="1.0" encoding="utf-8"?>
<!-- Generator: Adobe Illustrator 25.2.0, SVG Export Plug-In . SVG Version: 6.00 Build 0)  -->
<svg version="1.1" id="Capa_1" xmlns="http://www.w3.org/2000/svg" xmlns:xlink="http://www.w3.org/1999/xlink" x="0px" y="0px"
	 viewBox="0 0 40 40" style="enable-background:new 0 0 40 40;" xml:space="preserve">
<style type="text/css">
	.st0{clip-path:url(#SVGID_2_);fill:#8DBA38;}
	.st1{fill:#FFFFFF;}
</style>
<g>
	<defs>
		<rect id="SVGID_1_" x="0.4" y="0.4" width="39.2" height="39.2"/>
	</defs>
	<clipPath id="SVGID_2_">
		<use xlink:href="#SVGID_1_"  style="overflow:visible;"/>
	</clipPath>
	<path class="st0" d="M20,39.6c10.8,0,19.6-8.8,19.6-19.6C39.6,9.2,30.8,0.4,20,0.4S0.4,9.2,0.4,20C0.4,30.8,9.2,39.6,20,39.6"/>
</g>
<g>
	<path class="st1" d="M16.5,22.5c0.5,0.3,1.5,0.7,2.6,0.7c1.3,0,2-0.6,2-1.5c0-1.1-1.1-1.6-2.2-1.6h-1.1v-1.9h1c0.9,0,2-0.3,2-1.3
		c0-0.7-0.5-1.2-1.6-1.2c-0.9,0-1.9,0.4-2.3,0.7l-0.5-1.9c0.7-0.4,2-0.8,3.4-0.8c2.3,0,3.7,1.2,3.7,2.8c0,1.2-0.7,2.1-2,2.6v0
		c1.3,0.2,2.4,1.2,2.4,2.7c0,1.9-1.7,3.4-4.5,3.4c-1.4,0-2.6-0.4-3.3-0.8L16.5,22.5z"/>
</g>
</svg>
