<svg xmlns="http://www.w3.org/2000/svg" viewBox="0 0 39.2 39.2"><defs><style>.cls-1{fill:#edf1f3;}.cls-2{fill:#a5bcd0;}</style></defs><g id="Capa_2" data-name="Capa 2"><g id="Capa_1-2" data-name="Capa 1"><path class="cls-1" d="M19.6,39.2A19.6,19.6,0,1,0,0,19.6,19.6,19.6,0,0,0,19.6,39.2"/><path class="cls-2" d="M12.05,25.61a2.48,2.48,0,0,1-2.5-2.5v-.8a2.4,2.4,0,0,1,1.4-2.2l3.4-1.7a5,5,0,0,1-.6-7.1,5.05,5.05,0,0,1,7.1-.5,3.92,3.92,0,0,1,.8,1,.49.49,0,0,1-.1.7c-.1,0-.1.1-.2.1a.52.52,0,0,1-.4-.2,4.1,4.1,0,0,0-5.6-1.1,4,4,0,0,0-1.1,5.6,3.45,3.45,0,0,0,1.2,1.2.62.62,0,0,1,.2.7c-.1,0-.1.1-.2.1L11.35,21a1.44,1.44,0,0,0-.8,1.3v.8a1.54,1.54,0,0,0,1.5,1.5.5.5,0,0,1,0,1m9.5-11a4,4,0,1,0,4,4,4,4,0,0,0-4-4m-2,8.6-4.1,1.9a1.29,1.29,0,0,0-.9,1.3v.7a1.54,1.54,0,0,0,1.5,1.5h11a1.54,1.54,0,0,0,1.5-1.5v-.7a1.51,1.51,0,0,0-.9-1.4l-4.1-1.8a4.48,4.48,0,0,1-2,.4,4.48,4.48,0,0,1-2-.4m7.5,6.4h-11a2.87,2.87,0,0,1-1.8-.7,2.87,2.87,0,0,1-.7-1.8v-.7a2.53,2.53,0,0,1,1.5-2.3l3.5-1.6a5,5,0,1,1,7-.9,7.64,7.64,0,0,1-.9.9l3.5,1.6a2.53,2.53,0,0,1,1.5,2.3v.7a2.87,2.87,0,0,1-.7,1.8,3.41,3.41,0,0,1-1.9.7"/></g></g></svg>