<svg id="Capa_1" data-name="Capa 1" xmlns="http://www.w3.org/2000/svg" viewBox="0 0 47.49 109.2"><defs><style>.cls-1{fill:#fff;}</style></defs><g id="Grupo_3747" data-name="Grupo 3747"><g id="Grupo_3741" data-name="Grupo 3741"><path id="Trazado_3788" data-name="Trazado 3788" class="cls-1" d="M52.54,27.34a24.52,24.52,0,0,0-.47-4.75,23.77,23.77,0,0,0-46.54,0,24.24,24.24,0,0,0,0,9.5,23.72,23.72,0,0,0,42.23,9.5,23.52,23.52,0,0,0,4.31-9.5,24.37,24.37,0,0,0,.47-4.75" transform="translate(-5.06 -3.6)"/></g><g id="Grupo_3742" data-name="Grupo 3742"><path id="Trazado_3789" data-name="Trazado 3789" class="cls-1" d="M52.54,63a24.37,24.37,0,0,0-.47-4.75H5.53a24.24,24.24,0,0,0,0,9.5,23.72,23.72,0,0,0,42.23,9.49,23.54,23.54,0,0,0,4.31-9.49A24.52,24.52,0,0,0,52.54,63" transform="translate(-5.06 -3.6)"/></g><g id="Grupo_3743" data-name="Grupo 3743"><path id="Trazado_3790" data-name="Trazado 3790" class="cls-1" d="M52.07,93.8H5.53a23.72,23.72,0,0,0,42.23,9.5,23.52,23.52,0,0,0,4.31-9.5" transform="translate(-5.06 -3.6)"/></g></g></svg>