<svg id="Capa_1" data-name="Capa 1" xmlns="http://www.w3.org/2000/svg" viewBox="0 0 76.52 85.89"><defs><style>.cls-1{fill:#fbb800;}</style></defs><path class="cls-1" d="M41,30.47c2,0,3.67-1,3.89-2.4l2-22.47c0-2.22-2.6-4-5.87-4S35.13,3.38,35.13,5.6l2,22.47c.22,1.35,1.88,2.4,3.89,2.4Z" transform="translate(-2.74 -1.55)"/><path class="cls-1" d="M28.84,37.49c1-1.74.93-3.7-.13-4.57L10.24,20c-1.91-1.11-4.8.23-6.43,3.07s-1.35,6,.57,7.1l20.45,9.52c1.28.48,3-.43,4-2.17Z" transform="translate(-2.74 -1.55)"/><path class="cls-1" d="M53.15,37.48c1,1.74,2.74,2.65,4,2.17l20.45-9.52c1.93-1.11,2.21-4.27.57-7.1S73.67,18.85,71.75,20l-18.47,13c-1.06.87-1.13,2.83-.13,4.57Z" transform="translate(-2.74 -1.55)"/><path class="cls-1" d="M53.15,51.52c1-1.74,2.74-2.65,4-2.17l20.45,9.52c1.93,1.11,2.21,4.27.57,7.11S73.67,70.14,71.75,69l-18.47-13c-1.06-.88-1.13-2.84-.13-4.57Z" transform="translate(-2.74 -1.55)"/><path class="cls-1" d="M28.84,51.52c1,1.73.93,3.69-.13,4.57L10.24,69c-1.91,1.11-4.8-.23-6.43-3s-1.35-6,.57-7.11l20.45-9.52c1.28-.48,3,.43,4,2.17Z" transform="translate(-2.74 -1.55)"/><path class="cls-1" d="M41,58.53c2,0,3.67,1,3.89,2.4l2,22.47c0,2.22-2.6,4-5.87,4s-5.87-1.83-5.87-4l2-22.47c.22-1.35,1.88-2.4,3.89-2.4Z" transform="translate(-2.74 -1.55)"/><path class="cls-1" d="M50.05,82.88a1.67,1.67,0,1,1,0,3.34,1.67,1.67,0,1,1,0-3.34Zm0,.38a1.29,1.29,0,1,0,1.25,1.29A1.26,1.26,0,0,0,50,83.26Zm-.23,2.11h-.43V83.78a4.13,4.13,0,0,1,.66-.06,1,1,0,0,1,.6.13.41.41,0,0,1,.17.34.42.42,0,0,1-.35.37v0c.17.06.25.18.3.41a1.49,1.49,0,0,0,.12.38h-.48a1,1,0,0,1-.12-.36.26.26,0,0,0-.3-.24H49.8Zm0-.91H50c.19,0,.33-.07.33-.21S50.2,84,50,84h-.19Z" transform="translate(-2.74 -1.55)"/></svg>