<?xml version="1.0" encoding="utf-8"?>
<!-- Generator: Adobe Illustrator 25.2.0, SVG Export Plug-In . SVG Version: 6.00 Build 0)  -->
<svg version="1.1" id="Capa_1" xmlns="http://www.w3.org/2000/svg" xmlns:xlink="http://www.w3.org/1999/xlink" x="0px" y="0px"
	 viewBox="0 0 40 40" style="enable-background:new 0 0 40 40;" xml:space="preserve">
<style type="text/css">
	.st0{clip-path:url(#SVGID_2_);fill:#EEF1F3;}
	.st1{clip-path:url(#SVGID_2_);fill:#F1B634;}
</style>
<g>
	<defs>
		<rect id="SVGID_1_" x="0.4" y="0.4" width="39.2" height="39.2"/>
	</defs>
	<clipPath id="SVGID_2_">
		<use xlink:href="#SVGID_1_"  style="overflow:visible;"/>
	</clipPath>
	<path class="st0" d="M20,39.6c10.8,0,19.6-8.8,19.6-19.6C39.6,9.2,30.8,0.4,20,0.4S0.4,9.2,0.4,20C0.4,30.8,9.2,39.6,20,39.6"/>
	<path class="st1" d="M22.3,30.3L22.3,30.3c0.1,0,0.1,0,0.1-0.1c0,0,0-0.1-0.1-0.1c0,0,0,0,0,0V30.3z M22.3,30.6h-0.1v-0.4
		c0,0,0.1,0,0.2,0c0.1,0,0.1,0,0.2,0c0,0,0,0,0,0.1c0,0,0,0.1-0.1,0.1v0c0,0,0.1,0,0.1,0.1c0,0.1,0,0.1,0,0.1h-0.1c0,0,0-0.1,0-0.1
		c0,0,0-0.1-0.1-0.1h0V30.6z M22.3,30c-0.2,0-0.3,0.2-0.3,0.3c0,0.2,0.1,0.3,0.3,0.3c0.2,0,0.3-0.1,0.3-0.3
		C22.7,30.2,22.5,30,22.3,30L22.3,30z M22.3,29.9c0.2,0,0.4,0.2,0.4,0.4c0,0.2-0.2,0.4-0.4,0.4c-0.2,0-0.4-0.2-0.4-0.4
		C21.9,30.1,22.1,29.9,22.3,29.9L22.3,29.9z"/>
	<path class="st1" d="M20,16.4c0.5,0,0.9-0.3,1-0.6l0.5-5.8c0-0.6-0.7-1-1.5-1s-1.5,0.5-1.5,1l0.5,5.8C19.1,16.1,19.5,16.4,20,16.4
		L20,16.4z"/>
	<path class="st1" d="M16.9,18.2c0.3-0.4,0.2-1,0-1.2L12,13.7c-0.5-0.3-1.2,0.1-1.7,0.8C10,15.2,10,16,10.5,16.3l5.3,2.5
		C16.1,18.9,16.6,18.6,16.9,18.2L16.9,18.2z"/>
	<path class="st1" d="M23.1,18.2c0.3,0.4,0.7,0.7,1,0.6l5.3-2.5c0.5-0.3,0.6-1.1,0.1-1.8c-0.4-0.7-1.2-1.1-1.7-0.8L23.2,17
		C22.9,17.2,22.9,17.7,23.1,18.2L23.1,18.2z"/>
	<path class="st1" d="M23.1,21.8c0.3-0.5,0.7-0.7,1-0.6l5.3,2.5c0.5,0.3,0.6,1.1,0.1,1.8c-0.4,0.7-1.2,1.1-1.7,0.8L23.2,23
		C22.9,22.8,22.9,22.3,23.1,21.8L23.1,21.8z"/>
	<path class="st1" d="M16.9,21.8c0.3,0.4,0.2,1,0,1.2L12,26.3c-0.5,0.3-1.2-0.1-1.7-0.8C10,24.8,10,24,10.5,23.7l5.3-2.5
		C16.1,21.1,16.6,21.4,16.9,21.8L16.9,21.8z"/>
	<path class="st1" d="M20,23.6c0.5,0,0.9,0.3,1,0.6l0.5,5.8c0,0.6-0.7,1-1.5,1s-1.5-0.5-1.5-1l0.5-5.8C19.1,23.9,19.5,23.6,20,23.6
		L20,23.6z"/>
</g>
</svg>
