<svg id="Capa_1" data-name="Capa 1" xmlns="http://www.w3.org/2000/svg" xmlns:xlink="http://www.w3.org/1999/xlink" viewBox="0 0 39.2 39.2"><defs><style>.cls-1{fill:none;}.cls-2{clip-path:url(#clip-path);}.cls-3{fill:#fff;}.cls-4{fill:#a6bdd1;}</style><clipPath id="clip-path" transform="translate(0.24)"><rect class="cls-1" x="-0.24" width="39.2" height="39.2"/></clipPath></defs><g class="cls-2"><path class="cls-3" d="M19.36,39.2A19.6,19.6,0,1,0-.24,19.6a19.59,19.59,0,0,0,19.6,19.6" transform="translate(0.24)"/><path class="cls-4" d="M26.86,14.1h-15a.5.5,0,0,1,0-1h15a.5.5,0,0,1,0,1m-1,4h-11a.5.5,0,0,1,0-1h11a.5.5,0,0,1,0,1m-4,4h-9a.5.5,0,0,1,0-1h9a.5.5,0,0,1,0,1m1,4h-7a.5.5,0,0,1,0-1h7a.5.5,0,0,1,0,1" transform="translate(0.24)"/></g></svg>