<?xml version="1.0" encoding="utf-8"?>
<!-- Generator: Adobe Illustrator 25.2.0, SVG Export Plug-In . SVG Version: 6.00 Build 0)  -->
<svg version="1.1" id="Capa_1" xmlns="http://www.w3.org/2000/svg" xmlns:xlink="http://www.w3.org/1999/xlink" x="0px" y="0px"
	 viewBox="0 0 40 40" style="enable-background:new 0 0 40 40;" xml:space="preserve">
<style type="text/css">
	.st0{fill:#505B6C;}
	.st1{fill:#FFFFFF;}
</style>
<path class="st0" d="M20,39.6c10.8,0,19.6-8.8,19.6-19.6S30.8,0.4,20,0.4S0.4,9.2,0.4,20S9.2,39.6,20,39.6"/>
<path class="st1" d="M28.5,14h-8c-0.3,0-0.5-0.2-0.5-0.5s0.2-0.5,0.5-0.5h8c0.3,0,0.5,0.2,0.5,0.5S28.8,14,28.5,14 M26.5,18h-6
	c-0.3,0-0.5-0.2-0.5-0.5s0.2-0.5,0.5-0.5h6c0.3,0,0.5,0.2,0.5,0.5S26.8,18,26.5,18 M24.5,22h-4c-0.3,0-0.5-0.2-0.5-0.5
	s0.2-0.5,0.5-0.5h4c0.3,0,0.5,0.2,0.5,0.5S24.8,22,24.5,22 M22.5,26h-2c-0.3,0-0.5-0.2-0.5-0.5s0.2-0.5,0.5-0.5h2
	c0.3,0,0.5,0.2,0.5,0.5S22.8,26,22.5,26 M14.5,28c-0.2,0-0.3-0.1-0.4-0.2l-3-2.9c-0.2-0.2-0.2-0.5,0-0.7s0.5-0.2,0.7,0l2.2,2.1V12.5
	c0-0.3,0.2-0.5,0.5-0.5s0.5,0.2,0.5,0.5v13.8l2.1-2.1c0.2-0.2,0.5-0.2,0.7,0s0.2,0.5,0,0.7l-3,2.9C14.8,27.9,14.7,28,14.5,28"/>
</svg>
