<svg id="Capa_1" data-name="Capa 1" xmlns="http://www.w3.org/2000/svg" viewBox="0 0 124.29 196.51"><defs><style>.cls-1{fill:#ffbda6;}.cls-2{fill:#f0997a;}.cls-3{fill:#455963;}.cls-4{fill:#263338;}.cls-5{fill:#38474f;}.cls-6{fill:#ffd100;}.cls-7{fill:#f5f5f5;}.cls-8{fill:#e0e0e3;}.cls-9{fill:#cca600;}.cls-10{fill:#a38700;}.cls-11{fill:#b29100;}.cls-12{fill:#e5bd00;}.cls-13{fill:#997d00;}.cls-14{fill:#bf9e00;}.cls-15{fill:#a88c00;}.cls-16{fill:#ebebeb;}.cls-17{fill:#fafafa;}.cls-18{fill:#ffe880;}.cls-19{fill:#dedede;}.cls-20{fill:#ededed;}.cls-21{fill:#a18500;}.cls-22{fill:#f2db78;}.cls-23{fill:#e0e0e0;}.cls-24{fill:#f0f0f0;}.cls-25{fill:#f28f8f;}.cls-26{fill:#d9d9d9;}.cls-27{fill:#d98080;}.cls-28{fill:#3d5259;}.cls-29{fill:#fcb59e;}.cls-30{fill:#735e00;}.cls-31{fill:#fff;}.cls-32{fill:#0085c7;}.cls-33{fill:#c2b066;}.cls-34{fill:#d1bf66;}.cls-35{fill:#ab9e66;}.cls-36{fill:#66b5de;}</style></defs><path class="cls-1" d="M77.8,45c-1.87,4.48-4.47,11.86-6,16.38l-7.51-8.87H58s7.57,16.22,12.12,20c3,2.48,4.93.64,5.69-.89,0-.06,1.29-2.28,2.94-5.63,2.16-4.36,4.46-9.13,4.46-9.13l5-18.53c-3.94-.31-7.94,1-10.32,6.72" transform="translate(-2.71 -2.49)"/><path class="cls-2" d="M71.77,61.33a28.62,28.62,0,0,1,2.31,3.15s-.9-3-2-4Z" transform="translate(-2.71 -2.49)"/><path class="cls-3" d="M56,40.74h0l.6-.63a.73.73,0,0,1,.68-.14l7.27,1.24a2.56,2.56,0,0,1,1.73,1.36l6.54,14.21a.7.7,0,0,1,0,.76l-.62.68a.73.73,0,0,1-.68.14l-7.28-1.22a2.63,2.63,0,0,1-1.73-1.37L56,41.53a.62.62,0,0,1,0-.79" transform="translate(-2.71 -2.49)"/><path class="cls-4" d="M72.25,57.39,65.72,43.18A2.67,2.67,0,0,0,64,41.81l-7.26-1.2c-.68-.11-1,.3-.68.92l6.53,14.21A2.64,2.64,0,0,0,64.3,57.1l7.28,1.23c.64.09,1-.33.67-.94" transform="translate(-2.71 -2.49)"/><path class="cls-5" d="M64.79,42.18a2.63,2.63,0,0,1,.93,1l6.53,14.2a.68.68,0,0,1,0,.75l.58-.61a.65.65,0,0,0,0-.75L66.3,42.55a2.51,2.51,0,0,0-.84-.93Z" transform="translate(-2.71 -2.49)"/><path class="cls-1" d="M59.49,54.79c-3-3.45-2.92-7.77-1.54-9l.92,2a33.62,33.62,0,0,0,6.83.85c2.22-.16,4-.68,4.63-.27,1.28.91,1.65,4.78-2,6.14-3.12,1.22-8.79.3-8.79.3" transform="translate(-2.71 -2.49)"/><path class="cls-5" d="M115.8,174.52c.45,1.94.81,3.91,1.07,5.89.29,2.23.46,3.88,1.11,7.69.59,3.47,1,6.14-1.42,8.74-2.16,2.29-6,3.18-7.21.56-1.44-3-1.24-7.83-1-10.84s.15-3.9.17-6.3c0-2.12.13-3,.24-4.81,2.32-.12,4.77-.75,7.09-.93" transform="translate(-2.71 -2.49)"/><path class="cls-4" d="M90.16,185.76l-.82-.14c0-2.5.1-4.78-.52-6L90,176.6Z" transform="translate(-2.71 -2.49)"/><path class="cls-4" d="M92.1,174.38c-.18,1.71-1.15,3.47-1.22,6.83a28.21,28.21,0,0,0,.09,4.31l-.83.23L90,176.6Z" transform="translate(-2.71 -2.49)"/><path class="cls-4" d="M73.25,188.05s0,1,.47,1.33,1.37,1.32,5.74,1.05,5.93-1.36,7.43-2.73,1.9-5,2.13-6.66a12.48,12.48,0,0,1,3.08-6.67,3,3,0,0,0,.11-1.72A5.57,5.57,0,0,0,87,176.48c-1.57,4-2.8,8.71-6.36,9.82a60.12,60.12,0,0,1-7.39,1.75" transform="translate(-2.71 -2.49)"/><path class="cls-1" d="M115.8,174.52c0-2.84,0-6.61.26-11.6.29-5.83.33-10.37.31-16.54,0-4.67-.26-8.8-1.92-17.74,1.76-18,2.4-36.55.28-43.39-1.83-5.86-3.68-7.81-5.33-10.68-.85-1.48-2.41-3.69-2.41-5.68a36.62,36.62,0,0,1-13,2.53c-8.34.08-11.25-2.18-11.25-2.18S79,112.79,79.8,127c.47,8.41,1.14,20.86,1.37,27,.19,4.72.74,10.86.68,13.46a21.71,21.71,0,0,1-1.32,6.63,47.89,47.89,0,0,1-2.73,6.73,6.8,6.8,0,0,1-1,1.59,17.76,17.76,0,0,1-1.87,1.81c-1.36,1.16-2,1.74-1.9,2.81s.92,1.51,1.83,1.78a15.13,15.13,0,0,0,6.76,0c2.16-.38,4.58-1.41,5.5-3.47a8.22,8.22,0,0,0,.52-1.9,27.35,27.35,0,0,1,1.65-6.27,15.12,15.12,0,0,1,1.22-2.45A6.14,6.14,0,0,0,91.87,172c.09-.85-.57-2.05-1.43-3.35-.75-1.13-.54-1.9-.28-5.46.56-7.65,2.12-13.15,3.42-22.44a43.28,43.28,0,0,0-.27-13.44c.89-6.09,2.42-12.47,3.33-16.67,1.46,8.79,2.4,12,3.2,18.65,1.11,9.22,6.29,28.52,7.12,33.48s1.36,8.3,1.73,12.33c.33,3.49.59,10.53,1,13.73.68,5.12,6,3.56,6.82-1,.57-3-.7-9.4-.74-13.32" transform="translate(-2.71 -2.49)"/><path class="cls-5" d="M91.84,170.17c-.62-1.11-1.19-1.42-1.8-2.37a4.75,4.75,0,0,0-1.42,2.32c-.27.88-1,5.2-2.05,8.63a6.53,6.53,0,0,1-4,4.65,7.43,7.43,0,0,1-3.62.4c-2.29-.31-1.75-2-1.75-2-.54.73-2.73,2.51-4,3.82a2,2,0,0,0,.17,2.59c.63.55,2.12,1.64,7.58.85,4.85-.68,6-2.94,6.44-3.95a24.51,24.51,0,0,0,1-4.55,14.36,14.36,0,0,1,1.7-4.83,5,5,0,0,1,.32-.51,13.72,13.72,0,0,1,1.14-1.53c.34-.41.61-.6.69-1a3.69,3.69,0,0,0-.43-2.56" transform="translate(-2.71 -2.49)"/><path class="cls-6" d="M81.55,59.89c.13,2.41,1.21,9.33,1.21,9.33,9.87,6.68,24.23-.34,24.23-.34l2.69-16.38a11.11,11.11,0,0,1-1.09-13.61l-7.83-.51-8.37,0-4.27-.09c-3,2.21-8.19,7.87-9.18,10.35s-1.74,6.13,2.61,11.29" transform="translate(-2.71 -2.49)"/><path class="cls-7" d="M81.55,59.89c.13,2.41,1.21,9.33,1.21,9.33,9.87,6.68,24.23-.34,24.23-.34l2.69-16.38a11.11,11.11,0,0,1-1.09-13.61l-7.83-.51-8.37,0-4.27-.09c-3,2.21-8.19,7.87-9.18,10.35s-1.74,6.13,2.61,11.29" transform="translate(-2.71 -2.49)"/><path class="cls-8" d="M103.81,54.58a7.36,7.36,0,0,1-4.51,5.93,7.66,7.66,0,0,1-3.12.62c-2.3,0-4.36-.88-5-1.65.2.85,2.12,2.84,5.25,2.84a8.81,8.81,0,0,0,3.24-.67,6.48,6.48,0,0,0,4.09-7.07" transform="translate(-2.71 -2.49)"/><path class="cls-5" d="M80.85,17.59A14.51,14.51,0,0,1,95.36,3.08h1.7a14.51,14.51,0,0,1,14.47,14.51V24.8A10.52,10.52,0,0,1,101,35.33H80.89Z" transform="translate(-2.71 -2.49)"/><path class="cls-5" d="M107.69,5l0,.08a1.9,1.9,0,0,1-2.39,1.24l1-3.79A2.07,2.07,0,0,1,107.69,5" transform="translate(-2.71 -2.49)"/><path class="cls-5" d="M108.65,7l-.07,0a1.9,1.9,0,0,1-2.6-.68l3.27-2.17a2.06,2.06,0,0,1-.6,2.81" transform="translate(-2.71 -2.49)"/><path class="cls-1" d="M93.06,19.41a17.39,17.39,0,0,0,8.2,2.45,3.11,3.11,0,0,1,.59-1,2.9,2.9,0,0,1,4.1-.27,3.79,3.79,0,0,1,.34.45,4.16,4.16,0,0,1-1.15,5.78c-2.42,1.62-3.88,0-3.88,0V38A18.49,18.49,0,0,1,96.56,43c-2.86,1.94-7.07,1.47-7.26-.52s2.86-5.53,2.86-5.53V32.56c-2.21.36-4.48.68-5.66.16S83,30.44,82.82,23.19c-.21-8.54,1.8-12.61,3.42-13.57a13.14,13.14,0,0,0,6.82,9.79" transform="translate(-2.71 -2.49)"/><path class="cls-4" d="M92.65,20.5a.91.91,0,1,1-1,.87.91.91,0,0,1,1-.87" transform="translate(-2.71 -2.49)"/><path class="cls-2" d="M89.91,28.9h0a1.09,1.09,0,0,1-1.37-.73l2.11-.67a1.17,1.17,0,0,1-.74,1.4" transform="translate(-2.71 -2.49)"/><path class="cls-4" d="M84.55,17l0,0a1.08,1.08,0,0,1,1.48.35l-1.84,1.28A1.17,1.17,0,0,1,84.55,17" transform="translate(-2.71 -2.49)"/><path class="cls-4" d="M84.67,20.71a.91.91,0,0,1,1.81.09h0a.92.92,0,0,1-1,.9h0a.91.91,0,0,1-.83-1" transform="translate(-2.71 -2.49)"/><polygon class="cls-2" points="83.37 22.29 86.26 23.18 86.4 17.7 83.37 22.29"/><path class="cls-2" d="M92.19,34s4.72-1.38,6.17-2.61A4.84,4.84,0,0,0,100,29c-.74,1.89-5.53,3.27-7.85,3.58Z" transform="translate(-2.71 -2.49)"/><path class="cls-3" d="M81.33,157c-.06-1-.11-2.05-.15-3-.25-6.14-.93-18.57-1.36-27-.79-14.21,3-57.76,3-57.76S85.71,71.49,94,71.42a36.72,36.72,0,0,0,13-2.53c0,2,1.55,4.2,2.41,5.68,1.64,2.87,3.5,4.82,5.32,10.68,2.12,6.83,1.48,25.41-.27,43.39a95.47,95.47,0,0,1,2,18.09c0,6.14-.06,9.32-.36,15.14-3,2.21-9.15.87-9.15.87-.83-5-6-24.26-7.12-33.48-.8-6.65-1.74-9.86-3.2-18.65L93.3,127.27a43,43,0,0,1,.27,13.44c-.95,6.75-2,11.5-2.77,16.53-1.32,1.39-7.5,1.76-9.47-.28" transform="translate(-2.71 -2.49)"/><path class="cls-5" d="M82.56,67.86l-.09,4.85a17.77,17.77,0,0,0,9,2.83c5.86.39,14.08-1.91,16.38-3.63a8,8,0,0,1-.61-4.69,29.06,29.06,0,0,1-14.52,3.24c-8.22-.38-10.21-2.6-10.21-2.6" transform="translate(-2.71 -2.49)"/><path class="cls-5" d="M96.63,110.6,93.22,90.4S87.88,89,85,84.64A10.61,10.61,0,0,0,91.24,92l3.84,18.91-1.5,14.49Z" transform="translate(-2.71 -2.49)"/><path class="cls-6" d="M120.1,88.41l-.15-.68-.07,0v0l-2.2-1c-.19.81-.41,1.89-.63,3.09-4,2.9-10.82,7.75-10.82,7.75l3.82,16.63,13.65-9.93a1.3,1.3,0,0,0,.53-.8c.42-1.81-3.18-12.34-4.13-15.07" transform="translate(-2.71 -2.49)"/><path class="cls-9" d="M117.68,86.74l0,.08.07,0Zm2.27,1h0Zm1.4,4.37v0h0v0a1.23,1.23,0,0,1-.06.22,23.54,23.54,0,0,1-1.08,3.16,18.36,18.36,0,0,1-3.33,5.11c-.66.48-5.41,1-7.45,1a4.86,4.86,0,0,1-.6,0c-1-.1-1.27-.32-1.36-.45,1.29,3.9,3.13,9.79,3.13,11.73a1.92,1.92,0,0,1,0,.38,1.8,1.8,0,0,1-.42.83l13.57-9.88a1.3,1.3,0,0,0,.53-.8,1.9,1.9,0,0,0,0-.37c0-1.82-1.64-7.14-2.91-11m-13.94,9v0h0v0h0" transform="translate(-2.71 -2.49)"/><polygon class="cls-6" points="117.24 85.26 103.51 95.11 101.31 94.11 115.04 84.27 117.24 85.26"/><path class="cls-10" d="M121.35,92.13h0v0m-.07.25c-.52,1.62-3.85,7.42-5,7.84a34.81,34.81,0,0,1-7.55,1.13,2.25,2.25,0,0,1-1.34-.24h0s0,.08,0,.11.39.35,1.36.45a4.86,4.86,0,0,0,.6,0c2,0,6.79-.57,7.45-1a18.21,18.21,0,0,0,3.33-5.11,23.54,23.54,0,0,0,1.08-3.16" transform="translate(-2.71 -2.49)"/><path class="cls-6" d="M104,96.6c-.87,3.62-.6,13.47-.12,14.78a4.58,4.58,0,0,0,2.73,2.44c1.11.51,3.41,1.58,3.92-.49s-4.33-15.75-4.33-15.75Z" transform="translate(-2.71 -2.49)"/><path class="cls-11" d="M104,96.6a39.57,39.57,0,0,0-.57,7.71,37.43,37.43,0,0,0,.45,7.07,4.58,4.58,0,0,0,2.73,2.44,6.47,6.47,0,0,0,2.43.73,1.41,1.41,0,0,0,1.49-1.22,1.92,1.92,0,0,0,0-.38c0-1.94-1.84-7.83-3.13-11.73,0,0,0-.07,0-.11v0a12.84,12.84,0,0,1-1.19-3.51Z" transform="translate(-2.71 -2.49)"/><path class="cls-6" d="M106.22,97.58a12.39,12.39,0,0,0,1.2,3.51c.61.79,7.72-.41,8.9-.87s5-7.14,5-8.13-1.4-4.36-1.4-4.36Z" transform="translate(-2.71 -2.49)"/><path class="cls-12" d="M120,87.73h0l-13.71,9.84a12.64,12.64,0,0,0,1.2,3.52c.14.18.65.25,1.35.25a34.81,34.81,0,0,0,7.55-1.13c1.19-.46,5-7.14,5-8.13V92a20.26,20.26,0,0,0-1.4-4.3" transform="translate(-2.71 -2.49)"/><path class="cls-3" d="M115.93,99c.06.31.3.38.54.17a1.13,1.13,0,0,0,.3-.94c-.06-.31-.3-.38-.54-.17a1,1,0,0,0-.3.94" transform="translate(-2.71 -2.49)"/><path class="cls-6" d="M106.22,97.58c-4-7.44-14.88-26.21-17.8-37.72s.34-18.18,2.31-21.63h-2.1c-2.41,3-4.69,10.48-2.64,20.07,2.9,13.58,18,38.28,18,38.28Z" transform="translate(-2.71 -2.49)"/><path class="cls-11" d="M90.73,38.23h-2.1s0,0,0,0C86.87,40.42,85.2,45,85.19,51A35.23,35.23,0,0,0,86,58.3c2.9,13.58,18,38.28,18,38.28l2.2,1-1-1.83c-4.6-8.35-14.08-25.24-16.79-35.89a35,35,0,0,1-1.17-8.7,24.76,24.76,0,0,1,3.48-12.93" transform="translate(-2.71 -2.49)"/><path class="cls-1" d="M126.12,64.44c-7.32-16.44-9.76-22.87-14.4-24.8a12.78,12.78,0,0,0-3.81-.81c-1.14,2.1-3.91,9.28,1.6,14.91,0,0,6.59,10.19,8.6,14.83-.5,4.5-.68,9.66-2.3,15.7-.18.68-1.36,1.59-2,1.94-1.67.92-1.95,2-3.18,3.15-1,.92-1.81,1.14-1.67,1.45a1.82,1.82,0,0,0,2.14.75,16,16,0,0,0,2.59-1.36c.16.18-1.4,2.68-3,4.5-2.41,2.68-3,4.61,1.82,4.78,3,.11,6.27-2.35,8.31-8.36.41-1.19.83-2.91,1.25-4.58.32-.72,4.06-13.79,4.73-17.2a6.65,6.65,0,0,0-.69-4.9" transform="translate(-2.71 -2.49)"/><polygon class="cls-6" points="6.2 131.29 37.33 149.26 56.92 137.94 25.8 119.97 6.2 131.29"/><path class="cls-13" d="M30.94,131.85v4.85a2.46,2.46,0,0,1-.83,1.72v2.17a4.08,4.08,0,0,0,1.84,3.2l.93.53a1.85,1.85,0,0,0,.76.25,1.84,1.84,0,0,0,.17-.77v-8.17A4.08,4.08,0,0,0,32,132.44l-.92-.53-.1-.06m23.21,5.42c-.09.11-.19.21-.28.31v1.84a1.69,1.69,0,0,0,.16.73,1.63,1.63,0,0,0,.77-.25l.92-.53a4.43,4.43,0,0,0,.83-.72Zm-5.8,2.51v3.38c0,.1,0,.21,0,.31a4.09,4.09,0,0,0,1.17-2.63V140a3.4,3.4,0,0,1-1.15-.22" transform="translate(-2.71 -2.49)"/><polygon class="cls-6" points="25.8 92.02 25.8 119.97 6.2 131.29 1.59 106 25.8 92.02"/><path class="cls-13" d="M28.51,95.66,22,99.46l-.55-.86-.42.24-2.74,10a4.07,4.07,0,0,1,.66.33,3.49,3.49,0,0,1,1.71,2.8V115l.35-.23a5.19,5.19,0,0,1,.79-.38,1.35,1.35,0,0,0,.83-1v-9.37c-.06-1.15.66-2.31,2.18-3.19a10,10,0,0,1,3.71-1.17ZM19,100l-2.41,1.39.05,0,.14.08a1.3,1.3,0,0,1,.78,1.09v1.73l0,.11v.6Zm-6.73,3.89-7.91,4.57,4.82,2.78a3.49,3.49,0,0,1,1.59-2.1,5.23,5.23,0,0,1,.79-.38,1.36,1.36,0,0,0,.86-1.24v-1.73a1.16,1.16,0,0,1-.15-.51v-.62a.59.59,0,0,1,0-.19v-.58Z" transform="translate(-2.71 -2.49)"/><polygon class="cls-6" points="61.53 112.65 56.92 137.94 25.8 119.97 25.8 92.02 61.53 112.65"/><path class="cls-11" d="M29.5,95.08l-1,.58v4.06a13.82,13.82,0,0,1,1.58-.1,10.72,10.72,0,0,1,5.28,1.27c1.55.9,2.28,2.09,2.18,3.27v7.63A11.05,11.05,0,0,0,39,106.38v-5.84Zm13.88,8v3.28a11.09,11.09,0,0,0,2.77,7.34,7.78,7.78,0,0,1,1.39,2.19,70.48,70.48,0,0,1,3.05-8.65Zm20.48,11.82-.14.53.52-.3h0ZM34,123.19a12.85,12.85,0,0,1-3,.71l3,1.71Zm23.58,9a26.38,26.38,0,0,1-3.41,5.09l2.4,1.38a4.07,4.07,0,0,0,1-2.48Z" transform="translate(-2.71 -2.49)"/><path class="cls-3" d="M65.84,115.14H64.26L28.52,94.51l-24.21,14,.36.2-1.95-.2a.89.89,0,0,1,.51-.72L27.28,93.89a2.73,2.73,0,0,1,2.46,0l35.59,20.54c.12.08.51.38.51.71" transform="translate(-2.71 -2.49)"/><path class="cls-6" d="M46.27,84.11l-.85-1.55a2,2,0,0,1,1.89,0A1.58,1.58,0,0,1,48,84.2c-.92,3.85-4.15,17.61-4.25,17.74l-1.41-.82Z" transform="translate(-2.71 -2.49)"/><path class="cls-14" d="M46.36,82.33a2,2,0,0,0-.94.23l.63,1.15.64-.37,0,0a2,2,0,0,1,.95-.24h.17a1.58,1.58,0,0,0-.52-.57,2,2,0,0,0-1-.23m1.48,2.07-1.9,1.1-3.24,14,.68,0v2.25l.36.2c.1-.13,3.11-13,4.15-17.33l0-.2Z" transform="translate(-2.71 -2.49)"/><path class="cls-6" d="M48.54,83.32a2.45,2.45,0,0,1,1.06,1.61l3.14,22.24-1.58-.89-3.3-21.87-1.19-1a2.06,2.06,0,0,1,1.87-.06" transform="translate(-2.71 -2.49)"/><polygon class="cls-6" points="17.85 94.45 18.35 96.25 43.56 81.62 42.71 80.08 17.85 94.45"/><polygon class="cls-14" points="42.71 80.08 17.85 94.45 18.35 96.25 18.69 96.05 18.35 95.52 43.34 81.22 42.71 80.08"/><polygon class="cls-6" points="43.98 80.85 45.15 81.9 19.28 96.97 18.35 95.52 43.98 80.85"/><path class="cls-15" d="M34,122.64l-.85.26h0a11.35,11.35,0,0,1-2.2.35v.62l.06,0a12.85,12.85,0,0,0,3-.71Z" transform="translate(-2.71 -2.49)"/><path class="cls-16" d="M37.55,118.85V103.91H22.62v14.91c-.06,1.15.66,2.31,2.18,3.19a11.69,11.69,0,0,0,10.56,0,3.59,3.59,0,0,0,2.19-3.16" transform="translate(-2.71 -2.49)"/><path class="cls-17" d="M24.8,107a11.71,11.71,0,0,0,10.57,0c2.92-1.67,2.91-4.41,0-6.09a11.65,11.65,0,0,0-10.57,0c-2.91,1.68-2.91,4.41,0,6.09" transform="translate(-2.71 -2.49)"/><path class="cls-16" d="M25.13,106.74a11.21,11.21,0,0,0,9.91,0c2.74-1.55,2.74-4.06,0-5.6a11.14,11.14,0,0,0-9.91,0c-2.73,1.54-2.74,4,0,5.6" transform="translate(-2.71 -2.49)"/><path class="cls-7" d="M35,101.86a11.14,11.14,0,0,0-9.91,0,3.68,3.68,0,0,0-2,2.44,3.58,3.58,0,0,0,2,2.44,11.21,11.21,0,0,0,9.91,0,3.7,3.7,0,0,0,2-2.44,3.62,3.62,0,0,0-2-2.44" transform="translate(-2.71 -2.49)"/><path class="cls-6" d="M22.62,116.33a3.7,3.7,0,0,0,2.18,3.06,11.65,11.65,0,0,0,10.57,0,3.69,3.69,0,0,0,2.18-3v-10a3.69,3.69,0,0,1-2.18,3,11.65,11.65,0,0,1-10.57,0,3.71,3.71,0,0,1-2.18-3.07Z" transform="translate(-2.71 -2.49)"/><polygon class="cls-18" points="19.91 103.88 19.91 103.91 19.91 103.86 19.91 103.88"/><path class="cls-18" d="M37.55,106.36v.18a3.84,3.84,0,0,1-2.18,2.87,10.82,10.82,0,0,1-5.28,1.26,11.3,11.3,0,0,1-4.55-.89v1.16h2.05v2.24a1.33,1.33,0,0,0,.86,1.24,4.68,4.68,0,0,1,.78.38,3.49,3.49,0,0,1,1.71,2.8v3a11.55,11.55,0,0,0,3-.6,9.38,9.38,0,0,1,2.2-6.31,11.1,11.1,0,0,0,1.37-1.93Z" transform="translate(-2.71 -2.49)"/><path class="cls-18" d="M22.62,106.4v.14a.71.71,0,0,1,0-.14" transform="translate(-2.71 -2.49)"/><path class="cls-19" d="M22.63,104.15v2.39a3.8,3.8,0,0,0,2.17,2.87,6.38,6.38,0,0,0,.74.37v-2.42c-.26-.12-.5-.24-.74-.38a3.82,3.82,0,0,1-2.17-2.83" transform="translate(-2.71 -2.49)"/><path class="cls-20" d="M22.63,103.91v.24A3.82,3.82,0,0,0,24.8,107c.24.14.48.26.74.38v0a4.84,4.84,0,0,1-.72-.36,3.7,3.7,0,0,1-2.19-3" transform="translate(-2.71 -2.49)"/><path class="cls-21" d="M33.14,122.89h0a11.25,11.25,0,0,1-2.19.35h0a11.35,11.35,0,0,0,2.2-.35" transform="translate(-2.71 -2.49)"/><path class="cls-19" d="M33.13,122.9a11.16,11.16,0,0,1-1.42.09l-.77,0v.27a12.05,12.05,0,0,0,2.19-.34" transform="translate(-2.71 -2.49)"/><path class="cls-22" d="M22.63,106.54v6.88a1.94,1.94,0,0,0,0-.24v-2.24h2.89v-1.16a6.38,6.38,0,0,1-.74-.37,3.8,3.8,0,0,1-2.17-2.87" transform="translate(-2.71 -2.49)"/><path class="cls-23" d="M31.79,106.59l-.79-.45c-.64-.38-.82-.88-.38-1.12a2.22,2.22,0,0,1,1.94.22l.79.45c.64.38.81.87.39,1.12a2.24,2.24,0,0,1-2-.22" transform="translate(-2.71 -2.49)"/><path class="cls-7" d="M31.39,105.11c.33,0,.6.16.6.35s-.27.35-.6.35-.6-.16-.6-.35.27-.35.6-.35" transform="translate(-2.71 -2.49)"/><path class="cls-7" d="M32.53,106.55a.91.91,0,0,0,.85,0c.24-.13.24-.35,0-.48a.91.91,0,0,0-.85,0,.25.25,0,0,0,0,.48" transform="translate(-2.71 -2.49)"/><path class="cls-24" d="M10.72,109.17a5.23,5.23,0,0,1,.79-.38,1.36,1.36,0,0,0,.86-1.24v-2.23H17.3v2.23a1.34,1.34,0,0,0,.86,1.24,5.62,5.62,0,0,1,.78.38,3.49,3.49,0,0,1,1.71,2.8v19.1a2.92,2.92,0,0,1-1.71,2.37,9.09,9.09,0,0,1-8.22,0A2.9,2.9,0,0,1,9,131.07V112a3.49,3.49,0,0,1,1.71-2.8" transform="translate(-2.71 -2.49)"/><path class="cls-25" d="M10.72,115.05a9.15,9.15,0,0,0,8.22,0,2.85,2.85,0,0,0,1.7-2.37v14.73a2.9,2.9,0,0,1-1.7,2.37,9.15,9.15,0,0,1-8.22,0A2.85,2.85,0,0,1,9,127.41V112.7a2.86,2.86,0,0,0,1.71,2.35" transform="translate(-2.71 -2.49)"/><path class="cls-26" d="M17.28,106a1.72,1.72,0,0,1-.52.41,3.85,3.85,0,0,1-.91.34v1a2,2,0,0,0,.52,1.47Zm1,2.85-.4,1.43a2.27,2.27,0,0,1,.89,2v2.81l.17-.08a2.85,2.85,0,0,0,1.7-2.37V115h0V112a3.49,3.49,0,0,0-1.71-2.8,4.07,4.07,0,0,0-.66-.33" transform="translate(-2.71 -2.49)"/><path class="cls-27" d="M20.64,112.68a2.85,2.85,0,0,1-1.7,2.37l-.17.08v1.7l.58.34A3.58,3.58,0,0,1,20.64,115Z" transform="translate(-2.71 -2.49)"/><path class="cls-5" d="M12.22,104.65v.66A1.31,1.31,0,0,0,13,106.4a4.11,4.11,0,0,0,3.77,0,1.61,1.61,0,0,0,.59-.51.91.91,0,0,0,.19-.59v-.85a1.41,1.41,0,0,0-.76-.91h0a4.15,4.15,0,0,0-3.73,0,1.44,1.44,0,0,0-.76.91.45.45,0,0,0,0,.2" transform="translate(-2.71 -2.49)"/><path class="cls-4" d="M16.76,105.73a1.14,1.14,0,0,0,0-2.17,4.11,4.11,0,0,0-3.77,0,1.15,1.15,0,0,0,0,2.17,4.11,4.11,0,0,0,3.77,0" transform="translate(-2.71 -2.49)"/><path class="cls-5" d="M12.22,102.61v1.85a1.41,1.41,0,0,0,.76.91,3.71,3.71,0,0,0,1.66.45,4,4,0,0,0,2.1-.45,1.74,1.74,0,0,0,.6-.51,1.05,1.05,0,0,0,.17-.39v-1.86a1.3,1.3,0,0,0-.78-1.09l-.14-.08a4.24,4.24,0,0,0-3.63.08,1.32,1.32,0,0,0-.74,1.09" transform="translate(-2.71 -2.49)"/><path class="cls-3" d="M12.22,102.6c0,.85,1.18,1.53,2.66,1.53s2.66-.68,2.66-1.53-1.19-1.53-2.66-1.53-2.66.69-2.66,1.53" transform="translate(-2.71 -2.49)"/><path class="cls-24" d="M21,114.8a4.78,4.78,0,0,1,.79-.38,1.34,1.34,0,0,0,.86-1.24v-2.24h4.94v2.24a1.33,1.33,0,0,0,.86,1.24,4.68,4.68,0,0,1,.78.38,3.49,3.49,0,0,1,1.71,2.8v19.1a2.94,2.94,0,0,1-1.71,2.37,9.11,9.11,0,0,1-8.23,0,2.91,2.91,0,0,1-1.7-2.37V117.6a3.51,3.51,0,0,1,1.7-2.8" transform="translate(-2.71 -2.49)"/><path class="cls-3" d="M21,120.68a9.15,9.15,0,0,0,8.22,0,2.86,2.86,0,0,0,1.71-2.37V133a3,3,0,0,1-1.71,2.37,9.15,9.15,0,0,1-8.22,0A2.87,2.87,0,0,1,19.3,133V118.33a2.87,2.87,0,0,0,1.7,2.35" transform="translate(-2.71 -2.49)"/><path class="cls-26" d="M27.59,110.94H26.13v2.45c0,.88.22,1.58,1.92,2.44a2.21,2.21,0,0,1,1,2.12v2.81l.16-.08a2.86,2.86,0,0,0,1.71-2.37v5.54h0V117.6a3.49,3.49,0,0,0-1.71-2.8,4.68,4.68,0,0,0-.78-.38,1.33,1.33,0,0,1-.86-1.24Z" transform="translate(-2.71 -2.49)"/><path class="cls-28" d="M30.93,118.31a2.86,2.86,0,0,1-1.71,2.37l-.16.08v2l1.87,1.07Z" transform="translate(-2.71 -2.49)"/><path class="cls-26" d="M30.93,131.85V133a2.42,2.42,0,0,1-.82,1.7v3.68a2.46,2.46,0,0,0,.83-1.72v-4.85h0" transform="translate(-2.71 -2.49)"/><path class="cls-28" d="M30.27,131.65a1.78,1.78,0,0,0-.16.75v2.34a2.42,2.42,0,0,0,.82-1.7v-1.19a1.69,1.69,0,0,0-.66-.2" transform="translate(-2.71 -2.49)"/><path class="cls-5" d="M22.5,110.28v.66a1.3,1.3,0,0,0,.78,1.09,4.11,4.11,0,0,0,3.77,0,1.8,1.8,0,0,0,.59-.51.91.91,0,0,0,.19-.59v-.85a1.4,1.4,0,0,0-.75-.91h0a4.15,4.15,0,0,0-3.73,0,1.44,1.44,0,0,0-.76.91,1.17,1.17,0,0,0-.05.2" transform="translate(-2.71 -2.49)"/><path class="cls-4" d="M27.05,111.36a1.14,1.14,0,0,0,0-2.17,4.11,4.11,0,0,0-3.77,0,1.14,1.14,0,0,0,0,2.17,4.17,4.17,0,0,0,3.77,0" transform="translate(-2.71 -2.49)"/><path class="cls-5" d="M22.5,108.24v1.85a1.44,1.44,0,0,0,.76.91,3.75,3.75,0,0,0,1.67.45A4,4,0,0,0,27,111a1.8,1.8,0,0,0,.59-.51.85.85,0,0,0,.17-.39v-1.86a1.3,1.3,0,0,0-.78-1.09l-.14-.08a4.24,4.24,0,0,0-3.63.08,1.34,1.34,0,0,0-.74,1.09" transform="translate(-2.71 -2.49)"/><path class="cls-3" d="M22.5,108.23c0,.85,1.19,1.53,2.67,1.53s2.66-.68,2.66-1.53-1.19-1.53-2.66-1.53-2.67.68-2.67,1.53" transform="translate(-2.71 -2.49)"/><path class="cls-2" d="M44.79,128.46c1.42-8.76,4.11-19.89,9.49-28.17s10.45-9.33,11.81-3-3.55,24.19-6.92,31.59c-8.82,19.49-16,9.32-14.38-.45" transform="translate(-2.71 -2.49)"/><path class="cls-29" d="M62.87,98h-.3a11.25,11.25,0,0,0-1.83.19c-.33.08-.68.14-1,.24a7.31,7.31,0,0,0-1,.34c-.33.13-.67.27-1,.43a8.13,8.13,0,0,0-.91.51c-.28.16-.55.34-.82.53s-.47.38-.68.55a9.08,9.08,0,0,0-.92.94l-.3.39s.18,0,.47-.16.71-.27,1.19-.48c.24-.08.5-.19.77-.31l.85-.34.91-.37.94-.36,1.86-.7c.31-.09.59-.22.87-.31s.55-.19.79-.29c.49-.17.89-.33,1.19-.45l.46-.2a7.56,7.56,0,0,0-1.5-.15" transform="translate(-2.71 -2.49)"/><path class="cls-29" d="M55.09,129.86h-.26l-.65,0a3.89,3.89,0,0,0-.3,1.16l.31-.1.79-.3c.49-.17.89-.33,1.18-.45l.46-.2a7.78,7.78,0,0,0-1.53-.15m-5.75,2.07a1.5,1.5,0,0,0-.77.25l-.21.11v.91l.4-.16.74-.31h0v-.05a1.86,1.86,0,0,0-.16-.74" transform="translate(-2.71 -2.49)"/><path class="cls-29" d="M62.59,103.43c-.27,0-.55,0-.82,0a16.82,16.82,0,0,0-4.8,1,15.17,15.17,0,0,0-4.32,2.37,6.44,6.44,0,0,0-.69.6,4,4,0,0,0-.5.51c-.26.31-.39.49-.39.49s.23-.06.59-.19l1.5-.54,4.43-1.6c1.6-.6,3.22-1.21,4.41-1.72.61-.25,1.08-.48,1.47-.63s.59-.26.59-.26a5.65,5.65,0,0,0-.64-.07c-.28,0-.55,0-.83,0" transform="translate(-2.71 -2.49)"/><path class="cls-29" d="M60.19,109.79h-.34a15.44,15.44,0,0,0-4.84,1,14.17,14.17,0,0,0-4.3,2.46,8.43,8.43,0,0,0-.69.65,6.3,6.3,0,0,0-.48.55c-.24.32-.37.52-.37.52s.21,0,.59-.17l1.54-.48,2.08-.68c.39-.15.79-.26,1.18-.41l1.19-.43c1.59-.59,3.18-1.23,4.37-1.78l1.45-.69c.36-.18.56-.3.56-.3s-.22-.06-.61-.13a10,10,0,0,0-1.33-.09" transform="translate(-2.71 -2.49)"/><path class="cls-29" d="M58.48,116.41h-.3a16,16,0,0,0-4.83,1A14.48,14.48,0,0,0,49,119.85c-.23.21-.46.42-.67.65h0v.57a1.93,1.93,0,0,0,0-.24v.48l1.27-.39,2.09-.69c.37-.14.77-.26,1.15-.41l1.19-.43c1.59-.59,3.18-1.23,4.37-1.78l1.45-.7c.36-.17.56-.29.56-.29a5.6,5.6,0,0,0-.59-.12,8.93,8.93,0,0,0-1.37-.1" transform="translate(-2.71 -2.49)"/><path class="cls-6" d="M43.38,106.32V99.49l-2.21.09L39,99.49v6.83a11,11,0,0,1-2.78,7.4,9.48,9.48,0,0,0-2.2,6.42v23c0,1.54,1.52,3.12,4.52,3.85a11.21,11.21,0,0,0,5.34,0c3-.73,4.5-2.31,4.51-3.85v-23a9.38,9.38,0,0,0-2.2-6.42,11.08,11.08,0,0,1-2.77-7.4" transform="translate(-2.71 -2.49)"/><path class="cls-30" d="M43.38,99.49l-2.21.09L39,99.49v6.89a11.07,11.07,0,0,1-2.78,7.34A9.37,9.37,0,0,0,34,120v5.59L38.07,128v-3.4a11.44,11.44,0,0,0,3.11.41,10.37,10.37,0,0,0,5.08-1.21,3.72,3.72,0,0,0,2.09-2.7v-.94a11.2,11.2,0,0,0-.81-4.23,7.78,7.78,0,0,0-1.39-2.19,11.09,11.09,0,0,1-2.77-7.34V99.49Z" transform="translate(-2.71 -2.49)"/><path class="cls-30" d="M48.35,133.61a3.79,3.79,0,0,1-2.09,2.72,4,4,0,0,1-.46.24v7.51a1.69,1.69,0,0,0,.16.73,1.75,1.75,0,0,0,.77-.25l.92-.53a3.69,3.69,0,0,0,.68-.56c0-.1,0-.21,0-.31Z" transform="translate(-2.71 -2.49)"/><path class="cls-5" d="M43.38,98.74v-.06a1.07,1.07,0,0,0-.64-1,3.45,3.45,0,0,0-3.13,0,1.25,1.25,0,0,0-.59.59l0,.06v.05l0,.14v3.35a1.08,1.08,0,0,0,.65.91,3.45,3.45,0,0,0,3.13,0,1.15,1.15,0,0,0,.62-.77V102Z" transform="translate(-2.71 -2.49)"/><path class="cls-3" d="M41.17,97.36c1.22,0,2.21.57,2.21,1.27s-1,1.28-2.21,1.28S39,99.34,39,98.63s1-1.27,2.21-1.27" transform="translate(-2.71 -2.49)"/><path class="cls-31" d="M48.36,120.84v12.52a3.65,3.65,0,0,1-2.1,3,11.47,11.47,0,0,1-8.19.81V124.58a11.31,11.31,0,0,0,8.19-.8,3.58,3.58,0,0,0,2.1-2.94" transform="translate(-2.71 -2.49)"/><path class="cls-6" d="M57.56,136.2a4.08,4.08,0,0,1-1.84,3.2l-.92.53a1.63,1.63,0,0,1-.77.25,1.8,1.8,0,0,1-.16-.79v-8.14a4.08,4.08,0,0,1,1.84-3.2l.92-.53a1.67,1.67,0,0,1,.77-.25,1.63,1.63,0,0,1,.16.78Zm-8.06,4.66a4.09,4.09,0,0,1-1.85,3.2l-.92.53a1.75,1.75,0,0,1-.77.25,1.8,1.8,0,0,1-.16-.79v-8.14a4.08,4.08,0,0,1,1.84-3.2l.93-.53a1.5,1.5,0,0,1,.77-.25,1.89,1.89,0,0,1,.16.79Zm-15.69,2.92a1.81,1.81,0,0,1-.17.79,1.85,1.85,0,0,1-.76-.25l-.93-.53a4.08,4.08,0,0,1-1.84-3.2v-8.14a1.71,1.71,0,0,1,.16-.8,1.76,1.76,0,0,1,.77.26l.92.53a4.08,4.08,0,0,1,1.85,3.19Zm-9.23-5.34a.54.54,0,0,1-.87.63l-.06-.1-.92-.52a4.1,4.1,0,0,1-1.85-3.2v-8.13a2,2,0,0,1,.16-.79,1.71,1.71,0,0,1,.77.25l.94.54a4.09,4.09,0,0,1,1.83,3.19Zm-9.22-5.34a1.68,1.68,0,0,1-.17.79,1.71,1.71,0,0,1-.76-.25l-.93-.53a4.1,4.1,0,0,1-1.84-3.19V121.8a1.63,1.63,0,0,1,.17-.79,1.79,1.79,0,0,1,.77.25l.92.54A4.06,4.06,0,0,1,15.36,125Zm24.68-4L4.3,108.49,6.37,131a6.12,6.12,0,0,0,2.69,4.25l28.51,16.46a5.5,5.5,0,0,0,4.51.2l.1,0,.06,0,.25-.13,17-9.78a6.1,6.1,0,0,0,2.7-4.25l2.07-22.47Z" transform="translate(-2.71 -2.49)"/><path class="cls-32" d="M57.56,136.2a4.08,4.08,0,0,1-1.84,3.2l-.92.53a1.63,1.63,0,0,1-.77.25,1.8,1.8,0,0,1-.16-.79v-8.14a4.08,4.08,0,0,1,1.84-3.2l.92-.53a1.67,1.67,0,0,1,.77-.25,1.63,1.63,0,0,1,.16.78Zm-8.06,4.66a4.09,4.09,0,0,1-1.85,3.2l-.92.53a1.75,1.75,0,0,1-.77.25,1.8,1.8,0,0,1-.16-.79v-8.14a4.08,4.08,0,0,1,1.84-3.2l.93-.53a1.5,1.5,0,0,1,.77-.25,1.89,1.89,0,0,1,.16.79Zm-15.69,2.92a1.81,1.81,0,0,1-.17.79,1.85,1.85,0,0,1-.76-.25l-.93-.53a4.08,4.08,0,0,1-1.84-3.2v-8.14a1.71,1.71,0,0,1,.16-.8,1.76,1.76,0,0,1,.77.26l.92.53a4.08,4.08,0,0,1,1.85,3.19Zm-9.23-5.34a.54.54,0,0,1-.87.63l-.06-.1-.92-.52a4.1,4.1,0,0,1-1.85-3.2v-8.13a2,2,0,0,1,.16-.79,1.71,1.71,0,0,1,.77.25l.94.54a4.09,4.09,0,0,1,1.83,3.19Zm-9.22-5.34a1.68,1.68,0,0,1-.17.79,1.71,1.71,0,0,1-.76-.25l-.93-.53a4.1,4.1,0,0,1-1.84-3.19V121.8a1.63,1.63,0,0,1,.17-.79,1.79,1.79,0,0,1,.77.25l.92.54A4.06,4.06,0,0,1,15.36,125Zm24.68-4L4.3,108.49,6.37,131a6.12,6.12,0,0,0,2.69,4.25l28.51,16.46a5.5,5.5,0,0,0,4.51.2l.1,0,.06,0,.25-.13,17-9.78a6.1,6.1,0,0,0,2.7-4.25l2.07-22.47Z" transform="translate(-2.71 -2.49)"/><path class="cls-33" d="M56.55,138.65a4.43,4.43,0,0,1-.83.72l-.92.53a1.63,1.63,0,0,1-.77.25,1.69,1.69,0,0,1-.16-.73v0a1.7,1.7,0,0,0,.16.74,1.63,1.63,0,0,0,.77-.25l.92-.53a4,4,0,0,0,.84-.74Z" transform="translate(-2.71 -2.49)"/><path class="cls-34" d="M57.56,136.17a4.07,4.07,0,0,1-1,2.48h0a4,4,0,0,0,1-2.46Z" transform="translate(-2.71 -2.49)"/><path class="cls-33" d="M49.5,140.84a4.09,4.09,0,0,1-1.17,2.63v0a4.08,4.08,0,0,0,1.18-2.65Z" transform="translate(-2.71 -2.49)"/><path class="cls-35" d="M48.33,143.47a3.69,3.69,0,0,1-.68.56l-.92.53a1.75,1.75,0,0,1-.77.25,1.86,1.86,0,0,1-.17-.73v0a1.86,1.86,0,0,0,.17.74,1.75,1.75,0,0,0,.77-.25l.92-.53a4,4,0,0,0,.67-.55v0" transform="translate(-2.71 -2.49)"/><path class="cls-36" d="M64.12,116.55,41.28,129.74a2.81,2.81,0,0,1-1.23.29h0v20.21c0,1.11.55,1.75,1.36,1.75a1.94,1.94,0,0,0,.68-.13l.1,0,.06,0,.25-.13,17-9.79a6.06,6.06,0,0,0,2.7-4.24Zm-10.25,14.7h0a4.08,4.08,0,0,1,1.84-3.2l.92-.53a1.67,1.67,0,0,1,.77-.25,1.69,1.69,0,0,1,.16.73v8.2a4.14,4.14,0,0,1-1.84,3.2l-.92.53a1.63,1.63,0,0,1-.77.25,1.73,1.73,0,0,1-.16-.74v-8.19Zm-8.07,4.66h0a4.08,4.08,0,0,1,1.84-3.2l.93-.53a1.5,1.5,0,0,1,.77-.25,1.86,1.86,0,0,1,.16.74v8.16h0v0a4.08,4.08,0,0,1-1.18,2.65,4,4,0,0,1-.67.55l-.92.53a1.75,1.75,0,0,1-.77.25,1.7,1.7,0,0,1-.16-.74v-8.19Z" transform="translate(-2.71 -2.49)"/><polygon class="cls-36" points="44.31 122.6 37.33 126.62 37.34 126.63 44.31 122.6"/><path class="cls-3" d="M50.42,133.24v8.12a4.06,4.06,0,0,1-1.84,3.19l-.93.53c-.74.43-1.39.29-1.68-.27a1.71,1.71,0,0,0,.77-.25l.92-.53a4.09,4.09,0,0,0,1.85-3.2v-8.11a1.78,1.78,0,0,0-.16-.79c.62,0,1.07.45,1.07,1.31" transform="translate(-2.71 -2.49)"/><path class="cls-3" d="M58.48,128.58v8.12a4.08,4.08,0,0,1-1.85,3.19l-.92.53c-.74.43-1.38.3-1.68-.27a1.63,1.63,0,0,0,.77-.25l.92-.53a4.08,4.08,0,0,0,1.84-3.2v-8.12a1.63,1.63,0,0,0-.16-.78c.64,0,1.08.46,1.08,1.31" transform="translate(-2.71 -2.49)"/><path class="cls-5" d="M65.84,115.14v2.66a.87.87,0,0,1-.51.71L41.26,132.38a2.37,2.37,0,0,1-1.22.3V130a2.47,2.47,0,0,0,1.22-.29l24.06-13.89a.81.81,0,0,0,.5-.75Z" transform="translate(-2.71 -2.49)"/><path class="cls-4" d="M40,130v2.67a2.41,2.41,0,0,1-1.23-.3L3.22,111.84a.86.86,0,0,1-.51-.71v-2.72a.84.84,0,0,0,.5.77L38.8,129.72A2.54,2.54,0,0,0,40,130" transform="translate(-2.71 -2.49)"/><path class="cls-3" d="M65.84,115.14a.88.88,0,0,1-.51.71l-24,13.89a2.73,2.73,0,0,1-2.46,0L3.23,109.2a.86.86,0,0,1-.51-.71H4.31l24.21,14,11.53,6.66,24.21-14Z" transform="translate(-2.71 -2.49)"/><path class="cls-5" d="M29.2,133v8.12A4.07,4.07,0,0,0,31,144.29l.92.53c.75.43,1.39.29,1.68-.28a1.59,1.59,0,0,1-.76-.25l-.93-.53a4.06,4.06,0,0,1-1.84-3.19v-8.12a1.67,1.67,0,0,1,.16-.79c-.61,0-1.07.46-1.07,1.32" transform="translate(-2.71 -2.49)"/><path class="cls-5" d="M20,127.64v8.13A4.06,4.06,0,0,0,21.81,139l.93.53c.75.43,1.39.29,1.68-.27a1.94,1.94,0,0,1-.77-.25l-.92-.54a4.07,4.07,0,0,1-1.85-3.19v-8.12a1.81,1.81,0,0,1,.17-.79c-.64,0-1.07.46-1.07,1.31" transform="translate(-2.71 -2.49)"/><path class="cls-5" d="M10.75,122.3v8.11a4.09,4.09,0,0,0,1.85,3.2l.92.54c.74.42,1.38.28,1.67-.28a1.85,1.85,0,0,1-.76-.25l-.93-.54a4,4,0,0,1-1.84-3.19V121.8a1.63,1.63,0,0,1,.17-.79c-.64,0-1.08.46-1.08,1.29" transform="translate(-2.71 -2.49)"/><path class="cls-6" d="M14.55,115.74V116a1.7,1.7,0,0,0,1,1.78c.4.23.62-.06.62-.53v-.57Z" transform="translate(-2.71 -2.49)"/><path class="cls-14" d="M14.55,115.75V116a1.93,1.93,0,0,0,0,.24,1.66,1.66,0,0,0,1,1.54.46.46,0,0,0,.26.08c.24,0,.36-.25.36-.61v-.57h0Z" transform="translate(-2.71 -2.49)"/><path class="cls-6" d="M19.36,98.57A2.87,2.87,0,0,1,20.55,97l.5,1.78-4.92,17.92-1.59-.91Z" transform="translate(-2.71 -2.49)"/><path class="cls-14" d="M20.54,97a2.9,2.9,0,0,0-1.18,1.61L17.54,105l-.26.95-2.41,8.59-.32,1.15v0l1.59.91,4.92-17.92-.31-1.08Z" transform="translate(-2.71 -2.49)"/><path class="cls-6" d="M21.11,98,22,99.45,25.34,122l-1.83-1.06L20.28,99.64A1.76,1.76,0,0,1,21.11,98" transform="translate(-2.71 -2.49)"/><path class="cls-6" d="M23.5,120.91v.2a1.92,1.92,0,0,0,.92,2,.6.6,0,0,0,.82-.17.61.61,0,0,0,.1-.37V122Z" transform="translate(-2.71 -2.49)"/></svg>