<svg xmlns="http://www.w3.org/2000/svg" viewBox="0 0 39.2 39.2"><defs><style>.cls-1{fill:#eef2f4;}.cls-2{fill:#a6bdd1;}</style></defs><g id="Capa_2" data-name="Capa 2"><g id="Capa_1-2" data-name="Capa 1"><path class="cls-1" d="M19.6,39.2A19.6,19.6,0,1,0,0,19.6,19.6,19.6,0,0,0,19.6,39.2"/><path class="cls-2" d="M17.61,24.6h2v-1h-2Zm2.5,1h-3a.47.47,0,0,1-.5-.5v-2a.47.47,0,0,1,.5-.5h3a.47.47,0,0,1,.5.5v2a.47.47,0,0,1-.5.5m-9.3-13,1.6,4h8.9l-1.6-4Zm13.6,0-1.6,4h3.9l1.6-4Zm-11.8,14h9v-9h-9Zm10,0h4v-9h-4Zm4.5,1h-15a.47.47,0,0,1-.5-.5V17.2l-2-4.9a.61.61,0,0,1,.3-.7h10.2a.55.55,0,0,1,.5.3l1.5,3.8,1.5-3.8a.55.55,0,0,1,.5-.3h5a.47.47,0,0,1,.5.5v.2l-2,4.9v9.9a.47.47,0,0,1-.5.5"/></g></g></svg>