<?xml version="1.0" encoding="utf-8"?>
<!-- Generator: Adobe Illustrator 25.2.0, SVG Export Plug-In . SVG Version: 6.00 Build 0)  -->
<svg version="1.1" id="Capa_1" xmlns="http://www.w3.org/2000/svg" xmlns:xlink="http://www.w3.org/1999/xlink" x="0px" y="0px"
	 viewBox="0 0 40 40" style="enable-background:new 0 0 40 40;" xml:space="preserve">
<style type="text/css">
	.st0{clip-path:url(#SVGID_2_);fill:#325594;}
	.st1{clip-path:url(#SVGID_2_);fill:#AABBCE;}
</style>
<g>
	<defs>
		<rect id="SVGID_1_" x="0.4" y="0.4" width="39.2" height="39.2"/>
	</defs>
	<clipPath id="SVGID_2_">
		<use xlink:href="#SVGID_1_"  style="overflow:visible;"/>
	</clipPath>
	<path class="st0" d="M20,39.6c10.8,0,19.6-8.8,19.6-19.6C39.6,9.2,30.8,0.4,20,0.4S0.4,9.2,0.4,20C0.4,30.8,9.2,39.6,20,39.6"/>
	<path class="st1" d="M12.6,26c-1.4,0-2.5-1.1-2.5-2.5v-0.8c0-0.9,0.5-1.8,1.4-2.2l3.4-1.7c-2.2-1.8-2.4-5-0.6-7.1s5-2.3,7.1-0.5
		c0.3,0.3,0.6,0.6,0.8,1c0.2,0.2,0.1,0.5-0.1,0.7C22,12.9,22,13,21.9,13c-0.2,0-0.3-0.1-0.4-0.2c-1.2-1.8-3.7-2.3-5.6-1.1
		c-1.9,1.2-2.3,3.7-1.1,5.6c0.3,0.5,0.7,0.9,1.2,1.2c0.2,0.1,0.3,0.5,0.2,0.7c-0.1,0-0.1,0.1-0.2,0.1l-4.1,2.1
		c-0.5,0.2-0.8,0.8-0.8,1.3v0.8c0,0.8,0.7,1.5,1.5,1.5c0.3,0,0.5,0.2,0.5,0.5S12.9,26,12.6,26 M22.1,15c-2.2,0-4,1.8-4,4s1.8,4,4,4
		s4-1.8,4-4S24.3,15,22.1,15 M20.1,23.6L16,25.5c-0.6,0.2-0.9,0.7-0.9,1.3v0.7c0,0.8,0.7,1.5,1.5,1.5h11c0.8,0,1.5-0.7,1.5-1.5v-0.7
		c0-0.6-0.3-1.1-0.9-1.4l-4.1-1.8c-0.6,0.3-1.3,0.4-2,0.4C21.4,24,20.7,23.9,20.1,23.6 M27.6,30h-11c-0.7,0-1.3-0.3-1.8-0.7
		c-0.4-0.5-0.7-1.1-0.7-1.8v-0.7c0-1,0.6-1.9,1.5-2.3l3.5-1.6c-2.2-1.7-2.6-4.8-0.9-7c1.7-2.2,4.8-2.6,7-0.9s2.6,4.8,0.9,7
		c-0.3,0.3-0.5,0.6-0.9,0.9l3.5,1.6c0.9,0.4,1.5,1.3,1.5,2.3v0.7c0,0.7-0.3,1.3-0.7,1.8C28.9,29.7,28.3,30,27.6,30"/>
</g>
</svg>
