<svg id="Capa_1" data-name="Capa 1" xmlns="http://www.w3.org/2000/svg" viewBox="0 0 45.22 45.22"><defs><style>.cls-1{fill:#fff;}</style></defs><path class="cls-1" d="M25,17.46A7.54,7.54,0,1,0,32.54,25,7.55,7.55,0,0,0,25,17.46m0,16.45A8.91,8.91,0,1,1,33.91,25,8.92,8.92,0,0,1,25,33.91" transform="translate(-2.39 -2.39)"/><path class="cls-1" d="M25,17.46a.67.67,0,0,1-.68-.68V9.71A.68.68,0,0,1,25,9a.69.69,0,0,1,.69.69v7.07a.68.68,0,0,1-.69.68" transform="translate(-2.39 -2.39)"/><path class="cls-1" d="M25,3.76a1.55,1.55,0,1,0,1.55,1.55A1.55,1.55,0,0,0,25,3.76m0,4.46a2.92,2.92,0,1,1,2.92-2.91A2.92,2.92,0,0,1,25,8.22" transform="translate(-2.39 -2.39)"/><path class="cls-1" d="M25,41a.69.69,0,0,1-.69-.69V33.22a.68.68,0,0,1,.69-.68.67.67,0,0,1,.68.68v7.07A.68.68,0,0,1,25,41" transform="translate(-2.39 -2.39)"/><path class="cls-1" d="M25,43.15a1.55,1.55,0,1,0,1.55,1.54A1.55,1.55,0,0,0,25,43.15m0,4.46a2.92,2.92,0,1,1,2.92-2.92A2.92,2.92,0,0,1,25,47.61" transform="translate(-2.39 -2.39)"/><path class="cls-1" d="M16.78,25.68H9.71A.68.68,0,0,1,9,25a.69.69,0,0,1,.69-.69h7.07a.68.68,0,0,1,.68.69.67.67,0,0,1-.68.68" transform="translate(-2.39 -2.39)"/><path class="cls-1" d="M5.31,23.45A1.55,1.55,0,1,0,6.85,25a1.55,1.55,0,0,0-1.54-1.55m0,4.47A2.92,2.92,0,1,1,8.22,25a2.92,2.92,0,0,1-2.91,2.92" transform="translate(-2.39 -2.39)"/><path class="cls-1" d="M40.29,25.68H33.22a.68.68,0,0,1,0-1.36h7.07a.68.68,0,1,1,0,1.36" transform="translate(-2.39 -2.39)"/><path class="cls-1" d="M44.69,23.45A1.55,1.55,0,1,0,46.24,25a1.55,1.55,0,0,0-1.55-1.55m0,4.47A2.92,2.92,0,1,1,47.61,25a2.92,2.92,0,0,1-2.92,2.92" transform="translate(-2.39 -2.39)"/><path class="cls-1" d="M19.19,19.87a.7.7,0,0,1-.49-.2l-5-5a.69.69,0,1,1,1-1l5,5a.68.68,0,0,1,0,1,.69.69,0,0,1-.48.2" transform="translate(-2.39 -2.39)"/><path class="cls-1" d="M11.07,9.53a1.55,1.55,0,1,0,1.1.45,1.55,1.55,0,0,0-1.1-.45m0,4.46A2.92,2.92,0,0,1,9,9a2.94,2.94,0,0,1,4.13,0h0a2.92,2.92,0,0,1-2.07,5" transform="translate(-2.39 -2.39)"/><path class="cls-1" d="M35.81,36.5a.69.69,0,0,1-.48-.2l-5-5a.69.69,0,0,1,1-1l5,5a.68.68,0,0,1,0,1,.71.71,0,0,1-.49.2" transform="translate(-2.39 -2.39)"/><path class="cls-1" d="M37.83,40a1.55,1.55,0,1,0,0-2.19,1.56,1.56,0,0,0,0,2.19m1.1,1.82A2.91,2.91,0,0,1,36.86,41h0A2.92,2.92,0,1,1,41,41a2.91,2.91,0,0,1-2.06.85" transform="translate(-2.39 -2.39)"/><path class="cls-1" d="M14.19,36.5a.71.71,0,0,1-.49-.2.68.68,0,0,1,0-1l5-5a.69.69,0,1,1,1,1l-5,5a.69.69,0,0,1-.48.2" transform="translate(-2.39 -2.39)"/><path class="cls-1" d="M10,37.83a1.55,1.55,0,1,0,2.19,0A1.56,1.56,0,0,0,10,37.83Zm1.09,4a2.92,2.92,0,0,1-2.06-5H9a2.92,2.92,0,1,1,2.06,5" transform="translate(-2.39 -2.39)"/><path class="cls-1" d="M30.81,19.87a.69.69,0,0,1-.48-.2.68.68,0,0,1,0-1l5-5a.7.7,0,0,1,1,0,.68.68,0,0,1,0,1l-5,5a.71.71,0,0,1-.49.2" transform="translate(-2.39 -2.39)"/><path class="cls-1" d="M38.93,9.53A1.55,1.55,0,1,0,40,10a1.55,1.55,0,0,0-1.09-.45m1.57,3.12h0ZM38.93,14A2.92,2.92,0,1,1,41,13.14a2.91,2.91,0,0,1-2.06.85" transform="translate(-2.39 -2.39)"/><path class="cls-1" d="M25,21.85A3.15,3.15,0,1,0,28.15,25,3.15,3.15,0,0,0,25,21.85m0,7.67A4.52,4.52,0,1,1,29.52,25,4.53,4.53,0,0,1,25,29.52" transform="translate(-2.39 -2.39)"/></svg>