<?xml version="1.0" encoding="utf-8"?>
<!-- Generator: Adobe Illustrator 25.2.0, SVG Export Plug-In . SVG Version: 6.00 Build 0)  -->
<svg version="1.1" id="Capa_1" xmlns="http://www.w3.org/2000/svg" xmlns:xlink="http://www.w3.org/1999/xlink" x="0px" y="0px"
	 viewBox="0 0 40 40" style="enable-background:new 0 0 40 40;" xml:space="preserve">
<style type="text/css">
	.st0{clip-path:url(#SVGID_2_);fill:#8DBA38;}
	.st1{clip-path:url(#SVGID_2_);fill:#FFFFFF;}
</style>
<g>
	<defs>
		<rect id="SVGID_1_" x="0.4" y="0.4" width="39.2" height="39.2"/>
	</defs>
	<clipPath id="SVGID_2_">
		<use xlink:href="#SVGID_1_"  style="overflow:visible;"/>
	</clipPath>
	<path class="st0" d="M20,39.6c10.8,0,19.6-8.8,19.6-19.6C39.6,9.2,30.8,0.4,20,0.4S0.4,9.2,0.4,20C0.4,30.8,9.2,39.6,20,39.6"/>
	<path class="st1" d="M20,13.5c-0.3,0-0.5-0.2-0.5-0.5v-3c0-0.3,0.2-0.5,0.5-0.5c0.3,0,0.5,0.2,0.5,0.5v3
		C20.5,13.3,20.3,13.5,20,13.5 M25,15.5c-0.1,0-0.3-0.1-0.4-0.1c-0.2-0.2-0.2-0.5,0-0.7l2-2c0.2-0.2,0.5-0.2,0.7,0
		c0.2,0.2,0.2,0.5,0,0.7l-2.1,2C25.2,15.5,25.1,15.5,25,15.5 M15.1,15.6c-0.2-0.1-0.3-0.1-0.4-0.2l-2.1-2c-0.2-0.2-0.2-0.5,0-0.7
		c0.2-0.2,0.5-0.2,0.7,0l2,2.1c0.2,0.2,0.2,0.5,0,0.7h-0.1C15.1,15.5,15.1,15.6,15.1,15.6 M13,20.5h-3c-0.3,0-0.5-0.2-0.5-0.5
		c0-0.3,0.2-0.5,0.5-0.5h3c0.3,0,0.5,0.2,0.5,0.5C13.5,20.3,13.3,20.5,13,20.5 M30,20.5h-3c-0.3,0-0.5-0.2-0.5-0.5
		c0-0.3,0.2-0.5,0.5-0.5h3c0.3,0,0.5,0.2,0.5,0.5C30.5,20.3,30.3,20.5,30,20.5 M20,15.5c-2.5,0-4.5,2-4.5,4.5s2,4.5,4.5,4.5
		s4.5-2,4.5-4.5S22.5,15.5,20,15.5 M20,25.5c-3,0-5.5-2.5-5.5-5.5s2.5-5.5,5.5-5.5s5.5,2.5,5.5,5.5S23,25.5,20,25.5 M13,27.5
		c-0.3,0-0.5-0.2-0.5-0.5c0-0.1,0.1-0.3,0.1-0.4l2.1-2c0.2-0.2,0.5-0.1,0.7,0.1c0.1,0.2,0.1,0.4,0,0.6l-2,2.1
		C13.3,27.4,13.1,27.5,13,27.5 M27,27.5c-0.1,0-0.3-0.1-0.4-0.1l-2-2.1c-0.2-0.2-0.2-0.5,0-0.7c0.1-0.1,0.1-0.1,0.2-0.1h0.1
		c0.1,0,0.3,0.1,0.4,0.2l2.1,2c0.2,0.2,0.2,0.5,0,0.7C27.3,27.4,27.1,27.5,27,27.5 M20,30.5c-0.3,0-0.5-0.2-0.5-0.5v-3
		c0-0.3,0.2-0.5,0.5-0.5c0.3,0,0.5,0.2,0.5,0.5v3C20.5,30.3,20.3,30.5,20,30.5"/>
</g>
</svg>
