<svg id="Capa_1" data-name="Capa 1" xmlns="http://www.w3.org/2000/svg" viewBox="0 0 39.2 39.2"><defs><style>.cls-1{fill:#fff;}.cls-2{fill:none;stroke:#002f87;stroke-linecap:round;stroke-linejoin:round;stroke-width:0.75px;}</style></defs><path class="cls-1" d="M19.36,0A19.6,19.6,0,1,1-.24,19.6,19.6,19.6,0,0,1,19.36,0" transform="translate(0.24 0)"/><path class="cls-2" d="M14.63,12.84l-2.46-.07L9.23,11.39l-2.06,0c0,.27,0,.35.13.58s.25.24.3.39c-.1,0-.11.05-.19.06.11.2.5.78.27.94.23.13.19.46.26.68s.16.28.36.46,1,.84.9,1.31H9.07c0,.1,0,.21,0,.31l-.09,0c0,.05,0,.16,0,.21-.21,0-.4-.11-.59,0s0,.28.19.42c.38.35.57.65,1.13.33,0,.55.27.42.59.78s.42.91,0,1.1c0,.26.43.5.62.66s.29.35.45.49.33.14.45.28.11.38.34.46.46,0,.41-.28a2.58,2.58,0,0,0-.75-.86c-.25.26-.41-.26-.42-.37a3.46,3.46,0,0,0-.18-.65c-.12-.46,0-1.06-.37-1.45,0,.06,0,.13,0,.19s-.06.05-.06,0c-.25-.21-.16-.47-.22-.75a.9.9,0,0,0-.13-.28c-.06-.09-.22-.14-.25-.19s0-.2-.08-.3a1.92,1.92,0,0,0-.23-.31,3,3,0,0,1-.34-.69c-.09-.24-.31-.37-.44-.6A1.65,1.65,0,0,1,9,13.62a1.7,1.7,0,0,1,0-.71c0-.21.19-.41.22-.63a1.71,1.71,0,0,0,.65.44l.62.3c-.2.29-.23.08-.17.45a2.88,2.88,0,0,0,.21.67,13.1,13.1,0,0,1,.42,1.25c.19,0,.11.09.2.17a3.08,3.08,0,0,1,.27.24c.11.12,0,.21.21.31s.36,0,.42.1c.23.19-.12.38,0,.61a.65.65,0,0,0,.59.26.78.78,0,0,1,0,.31c.37-.06.32.29.61.3a.45.45,0,0,1,.07.18.37.37,0,0,1-.23,0,.94.94,0,0,1,0-.16c-.3,0-.39.74-.21.87s.85,0,1,.48L14,19a2,2,0,0,1,0,.35c-.07,0-.16,0-.23,0,.08.27.56.26.76.44a2.86,2.86,0,0,1,.44.65c.12.2.17.44.29.64a2.55,2.55,0,0,0,.3.49c-.11.28.14.53.24.78,0,.1.12.31.07.41s-.27.15-.3.32h.09s0,.09,0,.09c-.55-.11.11.94.31,1.12,0,0,0-.06,0-.08.23.19.68,0,.8.24-.1.08-.05.12-.1.2.48.06.41.41.73.56s.75.09,1.1.29.58.39.87.58a1.77,1.77,0,0,0,.39.26c.19.07.36,0,.55.06a8.18,8.18,0,0,1,.82.32c.21.07.25.18.42.29a.51.51,0,0,0,.38.12c.65,0,1.15.33,1.84.05,1.27-.51,1.92.82,2.79,1.4a.69.69,0,0,0,.16-.22c-.23-.32,0-.58.19-.86s.18-.55.66-.51c.15,0,.65.21.78.11.35-.26-.35-.36-.34-.57-.24,0-.46-.27-.55-.45.33,0,.24-.29.32-.48a2.65,2.65,0,0,1,.79-.11c.22,0,.56.25.79.16s.16-.2.24-.25.19,0,.34-.16.18-.5.46-.52c0,.19-.09.31-.1.48a2.06,2.06,0,0,1,.26.12c.14-.19.11-.45.23-.66s.29-.27.33-.45a1,1,0,0,0-.27.21,3,3,0,0,1,.52-1.25c.26-.42.33-1-.35-.93a6.48,6.48,0,0,0-1.25.28c-.08,0-.11.08-.2.1a2.21,2.21,0,0,1-.34-.06.88.88,0,0,0-.68.12.53.53,0,0,1,.26.23c-.15.13-.44.23-.51.42s.09.33.05.43-.19.12-.21.18.05.23,0,.3-.07.08-.25.21-.34.33-.24.56c-.19.05-.68.27-.46-.15a3.5,3.5,0,0,0-.54-.05c-.27.05-.47.32-.69.39s-.59,0-.87.07-.31.1-.43,0-.12-.35-.26-.44-.52-.13-.75-.37a2.87,2.87,0,0,1-.47-.63c-.14-.23-.33-.39-.49-.62a2.13,2.13,0,0,1-.23-.74,1.28,1.28,0,0,1,0-.43c0-.1.11-.18.11-.29s-.1-.13-.11-.19a7.81,7.81,0,0,1,.18-1.35c0-.45-.18-1,.17-1.36a.76.76,0,0,1,.11.22,4.37,4.37,0,0,1,.27-.89c-.25.24-1.15-.2-1.37-.43s-.15-.46-.21-.64a2.2,2.2,0,0,0-.29-.7c-.33-.45-.61-.95-.89-1.4a1,1,0,0,0-.59-.48c-.38-.09-.51.15-.76.22a.86.86,0,0,0,0-.16,1,1,0,0,0-.15.19H19c-.19.58-.61.3-1,.12a.92.92,0,0,1-.43-.28c-.1-.15,0-.33-.23-.4.31-.17-.05-.41-.21-.53a3.6,3.6,0,0,1-.35-.29c-.09-.13-.05-.22-.12-.37-.34-.65-1.32-.26-1.88-.47a1.66,1.66,0,0,0,0,.22" transform="translate(0.24 0)"/></svg>