<?xml version="1.0" encoding="utf-8"?>
<!-- Generator: Adobe Illustrator 25.0.1, SVG Export Plug-In . SVG Version: 6.00 Build 0)  -->
<svg version="1.1" id="Capa_1" xmlns="http://www.w3.org/2000/svg" xmlns:xlink="http://www.w3.org/1999/xlink" x="0px" y="0px"
	 viewBox="0 0 150 150" style="enable-background:new 0 0 150 150;" xml:space="preserve">
<style type="text/css">
	.st0{fill:#6DA8DA;}
	.st1{fill:#FFFFFF;}
</style>
<circle class="st0" cx="75" cy="75" r="74.2"/>
<g>
	<g>
		<g>
			<path class="st1" d="M116.6,49.8c-2.5-4.4-5.1-5.2-10.6-5.5c-5.4-0.4-19.1-0.5-31-0.5S49.4,44,44,44.3s-8.1,1.1-10.6,5.5
				S29.6,61.7,29.6,75l0,0l0,0l0,0c0,13.2,1.3,20.8,3.8,25.2c2.5,4.4,5.2,5.2,10.6,5.6c5.4,0.3,19.2,0.5,31,0.5
				c11.9,0,25.6-0.2,31-0.5c5.5-0.4,8.1-1.2,10.6-5.6c2.6-4.3,3.9-11.9,3.9-25.2l0,0l0,0C120.5,61.7,119.2,54.1,116.6,49.8z
				 M63.6,92.1V57.9L92.1,75L63.6,92.1z"/>
		</g>
	</g>
</g>
</svg>
