<svg xmlns="http://www.w3.org/2000/svg" viewBox="0 0 39.2 39.2"><defs><style>.cls-1{fill:#3977bb;}.cls-2{fill:#fff;}</style></defs><g id="Capa_2" data-name="Capa 2"><g id="Capa_1-2" data-name="Capa 1"><path class="cls-1" d="M19.6,39.2A19.6,19.6,0,1,0,0,19.6,19.61,19.61,0,0,0,19.6,39.2"/><path class="cls-2" d="M12.1,12.59a.47.47,0,0,0-.5.5v10.5h5.5a.47.47,0,0,1,.5.5.47.47,0,0,0,.5.5h3a.47.47,0,0,0,.5-.5.47.47,0,0,1,.5-.5h5.5V13.09a.47.47,0,0,0-.5-.5Zm-2.5,12v1.5a.47.47,0,0,0,.5.5h19a.47.47,0,0,0,.5-.5v-1.5H22.5a1.5,1.5,0,0,1-1.4,1h-3a1.5,1.5,0,0,1-1.4-1Zm19.5,3h-19a1.54,1.54,0,0,1-1.5-1.5v-2a.47.47,0,0,1,.5-.5h1.5V13.09a1.54,1.54,0,0,1,1.5-1.5h15a1.54,1.54,0,0,1,1.5,1.5v10.5h1.5a.47.47,0,0,1,.5.5v2a1.54,1.54,0,0,1-1.5,1.5"/></g></g></svg>