<?xml version="1.0" encoding="utf-8"?>
<!-- Generator: Adobe Illustrator 25.0.1, SVG Export Plug-In . SVG Version: 6.00 Build 0)  -->
<svg version="1.1" id="Capa_1" xmlns="http://www.w3.org/2000/svg" xmlns:xlink="http://www.w3.org/1999/xlink" x="0px" y="0px"
	 viewBox="0 0 150 150" style="enable-background:new 0 0 150 150;" xml:space="preserve">
<style type="text/css">
	.st0{fill:#6DA8DA;}
	.st1{fill:#FFFFFF;}
</style>
<circle class="st0" cx="75" cy="75" r="74.2"/>
<g>
	<path class="st1" d="M120.5,120.5L120.5,120.5L120.5,120.5l0-33.4c0-16.3-3.5-28.9-22.6-28.9c-9.2,0-15.3,5-17.8,9.8h-0.3v-8.3
		H61.7v60.7h18.8V90.4c0-7.9,1.5-15.6,11.3-15.6c9.7,0,9.8,9,9.8,16.1v29.6L120.5,120.5z"/>
	<path class="st1" d="M31,59.8h18.9v60.7H31V59.8z"/>
	<path class="st1" d="M40.4,29.5c-6,0-10.9,4.9-10.9,10.9s4.9,11,10.9,11s10.9-5,10.9-11C51.4,34.4,46.5,29.5,40.4,29.5z"/>
</g>
</svg>
