<?xml version="1.0" encoding="utf-8"?>
<!-- Generator: Adobe Illustrator 25.2.0, SVG Export Plug-In . SVG Version: 6.00 Build 0)  -->
<svg version="1.1" id="Capa_1" xmlns="http://www.w3.org/2000/svg" xmlns:xlink="http://www.w3.org/1999/xlink" x="0px" y="0px"
	 viewBox="0 0 40 40" style="enable-background:new 0 0 40 40;" xml:space="preserve">
<style type="text/css">
	.st0{clip-path:url(#SVGID_2_);fill:#2670CA;}
	.st1{clip-path:url(#SVGID_2_);fill:none;stroke:#FFFFFF;stroke-linecap:round;stroke-linejoin:round;stroke-miterlimit:10;}
</style>
<g>
	<defs>
		<rect id="SVGID_1_" x="0.4" y="0.4" width="39.2" height="39.2"/>
	</defs>
	<clipPath id="SVGID_2_">
		<use xlink:href="#SVGID_1_"  style="overflow:visible;"/>
	</clipPath>
	<path class="st0" d="M20,39.6c10.8,0,19.6-8.8,19.6-19.6C39.6,9.2,30.8,0.4,20,0.4S0.4,9.2,0.4,20C0.4,30.8,9.2,39.6,20,39.6"/>
	<path class="st1" d="M20.1,30.5c5.8,0,10.5-4.8,10.4-10.6c0-5.8-4.8-10.5-10.6-10.4c-5.8,0-10.5,4.8-10.4,10.6c0,2.6,1,4.9,2.5,6.7
		 M14.5,25.2c0,0,5.3,2,8.2-1.3c2.3-2.7,3.5-7,3.1-9.7c-2.3,1.6-6.6,0.4-10.1,2.7c-3.9,2.5-2.3,6-2.3,6 M20,30.5
		c-10.9,0-4.4-11.1,1.9-12.8"/>
</g>
</svg>
