<svg xmlns="http://www.w3.org/2000/svg" viewBox="0 0 39.2 39.2"><defs><style>.cls-1{fill:#007dc3;}.cls-2{fill:#fff;}</style></defs><g id="Capa_2" data-name="Capa 2"><g id="Capa_1-2" data-name="Capa 1"><path class="cls-1" d="M19.6,39.2A19.6,19.6,0,1,0,0,19.6,19.61,19.61,0,0,0,19.6,39.2"/><path class="cls-2" d="M19.57,15.19a3,3,0,1,0,3,3,3,3,0,0,0-3-3m0,7a4,4,0,1,1,4-4,4,4,0,0,1-4,4m-7.5-9a1.5,1.5,0,0,0-1.5,1.5v.5h.5a1.5,1.5,0,0,0,1.5-1.5v-.5Zm14.5,0v.5a1.5,1.5,0,0,0,1.5,1.5h.5v-.5a1.5,1.5,0,0,0-1.5-1.5Zm-16,8v.5a1.5,1.5,0,0,0,1.5,1.5h.55v-.5a1.5,1.5,0,0,0-1.5-1.5Zm0-5v4h.55a2.47,2.47,0,0,1,1.76.73,2.56,2.56,0,0,1,.74,1.77v.5h12v-.5a2.5,2.5,0,0,1,2.5-2.5h.5v-4h-.5a2.5,2.5,0,0,1-2.5-2.5v-.5h-12v.5a2.49,2.49,0,0,1-2.5,2.5Zm17.5,5a1.5,1.5,0,0,0-1.5,1.5v.5h.5a1.5,1.5,0,0,0,1.5-1.5v-.5Zm-14.95,3a.58.58,0,0,1-.19,0h-.86a2.5,2.5,0,0,1-2.5-2.5v-7a2.5,2.5,0,0,1,2.5-2.5h15a2.49,2.49,0,0,1,2.5,2.5v7a2.49,2.49,0,0,1-2.5,2.5H13.3a.58.58,0,0,1-.18,0m16,2h-19a.5.5,0,0,1,0-1h19a.5.5,0,0,1,0,1m0,2h-19a.5.5,0,0,1,0-1h19a.5.5,0,0,1,0,1"/></g></g></svg>