<svg id="Capa_1" data-name="Capa 1" xmlns="http://www.w3.org/2000/svg" viewBox="0 0 39.2 39.2"><defs><style>.cls-1{fill:#fff;}.cls-2{fill:#a6bdd1;}</style></defs><path class="cls-1" d="M19.6,39.2A19.6,19.6,0,1,0,0,19.6,19.61,19.61,0,0,0,19.6,39.2" transform="translate(0 0)"/><g id="_01_Icons_Line_sale-badge" data-name=" 01 Icons Line sale-badge"><path id="sale-badge" class="cls-2" d="M17.21,28.32c-.17,0-.34-.08-.34-.25L15.74,25.9l-2.51-.17a.66.66,0,0,1-.35-.18c-.08-.08-.08-.17-.08-.34L13,22.78l-1.9-1.38a.46.46,0,0,1-.18-.35A.51.51,0,0,1,11,20.7l1.47-1.9-.86-2.34a.36.36,0,0,1,.26-.52h0l2.33-.86.52-2.43c0-.17.26-.35.44-.35h.08l2.34.52L19.29,11a.43.43,0,0,1,.61,0h0l1.73,1.74L24,12.22a.56.56,0,0,1,.35.08c.08.09.17.18.17.26L25,15l2.34.86a.39.39,0,0,1,.26.52h0l-.87,2.34,1.47,2a.43.43,0,0,1-.08.61h0l-2,1.47.18,2.43a.41.41,0,0,1-.44.43h0l-2.42.17L22.32,28a.48.48,0,0,1-.6.17h0L19.55,27l-2.16,1.21C17.39,28.32,17.3,28.32,17.21,28.32Zm2.34-2.16c.09,0,.18,0,.18.09l2,1.12,1-2c.08-.17.17-.26.34-.26L25.36,25l-.18-2.25a.43.43,0,0,1,.18-.34l1.81-1.3-1.38-1.82a.63.63,0,0,1-.09-.43l.78-2.08L24.4,16c-.17-.09-.26-.18-.26-.35l-.43-2.25L21.54,14h-.08a.71.71,0,0,1-.35-.17L19.55,12,18,13.69a.42.42,0,0,1-.34.17h-.09l-2.16-.6L15,15.51c0,.17-.17.26-.26.34l-2.16.78.78,2.08c.08.18,0,.26-.09.44L11.85,21l1.9,1.3a.64.64,0,0,1,.17.35l-.17,2.25L16,25c.18,0,.26.08.35.26l1,2,2-1.13C19.38,26.16,19.47,26.16,19.55,26.16Zm2.6-3h-.87a.82.82,0,0,1-.86-.87V21.4a.82.82,0,0,1,.86-.87h.87a.82.82,0,0,1,.87.87v.86A.82.82,0,0,1,22.15,23.13Zm-.87-1.73v.86h.87V21.4Zm-3.89,1.73A.41.41,0,0,1,17,22.7a.3.3,0,0,1,.09-.26l4.33-6.07a.47.47,0,0,1,.35-.17h0a.46.46,0,0,1,.43.43c0,.09,0,.18-.09.18l-4.33,6.06C17.65,23,17.56,23.13,17.39,23.13Zm.43-4.33H17a.82.82,0,0,1-.86-.87v-.86A.82.82,0,0,1,17,16.2h.87a.82.82,0,0,1,.87.87v.86A.82.82,0,0,1,17.82,18.8ZM17,17.07v.86h.87v-.86Z" transform="translate(0 0)"/></g></svg>