<?xml version="1.0" encoding="utf-8"?>
<!-- Generator: Adobe Illustrator 25.2.0, SVG Export Plug-In . SVG Version: 6.00 Build 0)  -->
<svg version="1.1" id="Capa_1" xmlns="http://www.w3.org/2000/svg" xmlns:xlink="http://www.w3.org/1999/xlink" x="0px" y="0px"
	 viewBox="0 0 40 40" style="enable-background:new 0 0 40 40;" xml:space="preserve">
<style type="text/css">
	.st0{clip-path:url(#SVGID_2_);fill:#3C7CBF;}
	.st1{clip-path:url(#SVGID_2_);fill:#FFFFFF;}
</style>
<g>
	<defs>
		<rect id="SVGID_1_" x="0.4" y="0.4" width="39.2" height="39.2"/>
	</defs>
	<clipPath id="SVGID_2_">
		<use xlink:href="#SVGID_1_"  style="overflow:visible;"/>
	</clipPath>
	<path class="st0" d="M20,39.6c10.8,0,19.6-8.8,19.6-19.6C39.6,9.2,30.8,0.4,20,0.4S0.4,9.2,0.4,20C0.4,30.8,9.2,39.6,20,39.6"/>
	<path class="st1" d="M11.4,10.7c-0.4,0-0.7,0.3-0.7,0.7v17.2c0,0.4,0.3,0.7,0.7,0.7h17.3c0.4,0,0.7-0.3,0.7-0.7V11.4
		c0-0.4-0.3-0.7-0.7-0.7H11.4z M28.6,29.9H11.4c-0.7,0-1.3-0.6-1.3-1.3V11.4c0-0.7,0.6-1.3,1.3-1.3h17.3c0.7,0,1.3,0.6,1.3,1.3v17.2
		C30,29.3,29.4,29.9,28.6,29.9"/>
	<path class="st1" d="M29.7,14.5H10.3c-0.2,0-0.3-0.1-0.3-0.3c0-0.2,0.1-0.3,0.3-0.3h19.3c0.2,0,0.3,0.1,0.3,0.3
		C30,14.4,29.8,14.5,29.7,14.5"/>
	<path class="st1" d="M12.3,12.3C12.3,12.3,12.3,12.4,12.3,12.3c-0.1,0.1,0,0.1,0,0.1C12.4,12.4,12.4,12.4,12.3,12.3
		C12.4,12.4,12.4,12.3,12.3,12.3 M12.3,13.1c-0.4,0-0.7-0.3-0.7-0.7c0-0.4,0.3-0.7,0.7-0.7c0.4,0,0.7,0.3,0.7,0.7
		C13,12.8,12.7,13.1,12.3,13.1"/>
	<path class="st1" d="M14.3,12.3C14.2,12.3,14.2,12.4,14.3,12.3c-0.1,0.1,0,0.1,0,0.1C14.3,12.4,14.3,12.4,14.3,12.3
		C14.3,12.4,14.3,12.3,14.3,12.3 M14.3,13.1c-0.4,0-0.7-0.3-0.7-0.7c0-0.4,0.3-0.7,0.7-0.7c0.4,0,0.7,0.3,0.7,0.7
		C14.9,12.8,14.6,13.1,14.3,13.1"/>
	<path class="st1" d="M16.2,12.3C16.2,12.3,16.2,12.4,16.2,12.3c-0.1,0.1,0,0.1,0,0.1S16.3,12.4,16.2,12.3
		C16.3,12.4,16.3,12.3,16.2,12.3 M16.2,13.1c-0.4,0-0.7-0.3-0.7-0.7c0-0.4,0.3-0.7,0.7-0.7c0.4,0,0.7,0.3,0.7,0.7
		C16.9,12.8,16.6,13.1,16.2,13.1"/>
	<path class="st1" d="M12.7,20.6h6v-4.2h-6V20.6z M19,21.2h-6.6c-0.2,0-0.3-0.1-0.3-0.3v-4.8c0-0.2,0.1-0.3,0.3-0.3H19
		c0.2,0,0.3,0.1,0.3,0.3v4.8C19.3,21.1,19.2,21.2,19,21.2"/>
	<path class="st1" d="M12.7,27.2h6v-4.2h-6V27.2z M19,27.9h-6.6c-0.2,0-0.3-0.1-0.3-0.3v-4.8c0-0.2,0.1-0.3,0.3-0.3H19
		c0.2,0,0.3,0.1,0.3,0.3v4.8C19.3,27.7,19.2,27.9,19,27.9"/>
	<path class="st1" d="M21.3,20.6h6v-4.2h-6V20.6z M27.7,21.2H21c-0.2,0-0.3-0.1-0.3-0.3v-4.8c0-0.2,0.1-0.3,0.3-0.3h6.6
		c0.2,0,0.3,0.1,0.3,0.3v4.8C28,21.1,27.8,21.2,27.7,21.2"/>
	<path class="st1" d="M21.3,27.2h6v-4.2h-6V27.2z M27.7,27.9H21c-0.2,0-0.3-0.1-0.3-0.3v-4.8c0-0.2,0.1-0.3,0.3-0.3h6.6
		c0.2,0,0.3,0.1,0.3,0.3v4.8C28,27.7,27.8,27.9,27.7,27.9"/>
</g>
</svg>
