<svg id="Capa_1" data-name="Capa 1" xmlns="http://www.w3.org/2000/svg" viewBox="0 0 39.2 39.2"><defs><style>.cls-1{fill:#fff;}.cls-2{fill:#a6bdd1;}</style></defs><path class="cls-1" d="M19.6,39.2A19.6,19.6,0,1,0,0,19.6,19.61,19.61,0,0,0,19.6,39.2" transform="translate(0 0)"/><g id="_01_Icons_Line_store" data-name=" 01 Icons Line store"><path id="store" class="cls-2" d="M25.38,27.6H13.82a2.2,2.2,0,0,1-2.22-2.22V18.62a.79.79,0,0,0,.44.09h.45v6.67a1.36,1.36,0,0,0,1.33,1.33h.45V21.82a1.36,1.36,0,0,1,1.33-1.33h2.67a1.36,1.36,0,0,1,1.33,1.33v4.89h5.78a1.36,1.36,0,0,0,1.33-1.33V18.71H24.93a1.17,1.17,0,0,1-.89-.35,1.6,1.6,0,0,1-.88.35H20.49a1.16,1.16,0,0,1-.89-.35,1.63,1.63,0,0,1-.89.35H16a1.14,1.14,0,0,1-.88-.35,1.17,1.17,0,0,1-.89.35H12.49v-.44H11.6v.35a1.34,1.34,0,0,1-.89-1.24v-.71a1.14,1.14,0,0,1,.09-.54l1.69-4.26a.49.49,0,0,1,.44-.27H26.27a.49.49,0,0,1,.44.27l1.69,4.26a1.14,1.14,0,0,1,.09.54v.71a1.34,1.34,0,0,1-.89,1.24v-.35h-.89v.44h.45a.79.79,0,0,0,.44-.09v6.76A2.2,2.2,0,0,1,25.38,27.6ZM15.6,21.38a.41.41,0,0,0-.44.44v4.89h3.55V21.82a.42.42,0,0,0-.44-.44ZM24,16a.43.43,0,0,1,.45.45v.89a.42.42,0,0,0,.44.44h2.23a.42.42,0,0,0,.44-.44v-.89l-1.6-4H13.2l-1.6,4v.89a.42.42,0,0,0,.44.44h2.23a.42.42,0,0,0,.44-.44v-.89a.45.45,0,1,1,.89,0v.89a.42.42,0,0,0,.44.44h2.67a.42.42,0,0,0,.45-.44v-.89a.44.44,0,1,1,.88,0v.89a.42.42,0,0,0,.45.44h2.67a.42.42,0,0,0,.44-.44v-.89A.42.42,0,0,1,24,16Zm-.44,8.89h-.89a1.36,1.36,0,0,1-1.33-1.33V21.82a1.36,1.36,0,0,1,1.33-1.33h.89a1.36,1.36,0,0,1,1.33,1.33V23.6A1.36,1.36,0,0,1,23.6,24.93Zm-.89-3.55a.41.41,0,0,0-.44.44V23.6a.41.41,0,0,0,.44.44h.89A.41.41,0,0,0,24,23.6V21.82a.41.41,0,0,0-.44-.44Z" transform="translate(0 0)"/></g></svg>