<svg id="Layer_1" data-name="Layer 1" xmlns="http://www.w3.org/2000/svg" xmlns:xlink="http://www.w3.org/1999/xlink" viewBox="0 0 69 68"><defs><style>.cls-1,.cls-3{fill:none;}.cls-2{fill:#70b538;}.cls-3{stroke:#fff;}.cls-4{clip-path:url(#clip-path);}.cls-5{fill:#ffb71b;}</style><clipPath id="clip-path" transform="translate(0 0.04)"><rect class="cls-1" x="13.8" y="10.8" width="41.4" height="46.5"/></clipPath></defs><g id="Ellipse_48" data-name="Ellipse 48"><ellipse class="cls-2" cx="34.5" cy="34" rx="34.5" ry="34"/><ellipse class="cls-3" cx="34.5" cy="34" rx="34" ry="33.5"/></g><g class="cls-4"><path class="cls-5" d="M34.5,26.5a2,2,0,0,0,2.1-1.3L37.7,13c0-1.2-1.4-2.2-3.2-2.2s-3.2,1-3.2,2.2l1.1,12.2a2,2,0,0,0,2.1,1.3Z" transform="translate(0 0.04)"/></g><g class="cls-4"><path class="cls-5" d="M27.9,30.3a2.06,2.06,0,0,0-.1-2.5l-10-7c-1-.6-2.6.1-3.5,1.7s-.7,3.2.3,3.8l11.1,5.2a2.15,2.15,0,0,0,2.2-1.2Z" transform="translate(0 0.04)"/></g><g class="cls-4"><path class="cls-5" d="M41.1,30.3a2.15,2.15,0,0,0,2.2,1.2l11.1-5.2c1-.6,1.2-2.3.3-3.8s-2.4-2.3-3.5-1.7l-10,7a1.92,1.92,0,0,0-.1,2.5Z" transform="translate(0 0.04)"/></g><g class="cls-4"><path class="cls-5" d="M41.1,37.9a2.15,2.15,0,0,1,2.2-1.2l11.1,5.2c1,.6,1.2,2.3.3,3.8s-2.4,2.3-3.5,1.7l-10-7a1.93,1.93,0,0,1-.1-2.5Z" transform="translate(0 0.04)"/></g><g class="cls-4"><path class="cls-5" d="M27.9,37.9a2.06,2.06,0,0,1-.1,2.5l-10,7c-1,.6-2.6-.1-3.5-1.7s-.7-3.2.3-3.8l11.1-5.2a1.9,1.9,0,0,1,2.2,1.2Z" transform="translate(0 0.04)"/></g><g class="cls-4"><path class="cls-5" d="M34.5,41.7A2,2,0,0,1,36.6,43l1.1,12.2c0,1.2-1.4,2.2-3.2,2.2s-3.2-1-3.2-2.2L32.4,43c.1-.8,1-1.3,2.1-1.3Z" transform="translate(0 0.04)"/></g><g class="cls-4"><path class="cls-5" d="M39.4,54.8a.9.9,0,1,1-.9.9.9.9,0,0,1,.9-.9Zm0,.2a.7.7,0,1,0,.7.7.75.75,0,0,0-.7-.7Zm-.1,1.2H39v-.9h.4c.2,0,.3,0,.3.1s.1.1.1.2a.22.22,0,0,1-.2.2h0c.1,0,.1.1.2.2s0,.2.1.2h-.3a.31.31,0,0,0-.1-.2c0-.1-.1-.1-.2-.1h-.1l.1.3Zm0-.5h0c.2,0,.3,0,.3-.1s-.1-.1-.2-.1h-.1Z" transform="translate(0 0.04)"/></g></svg>