<svg id="Capa_1" data-name="Capa 1" xmlns="http://www.w3.org/2000/svg" viewBox="0 0 39.2 39.2"><defs><style>.cls-1{fill:#fff;}.cls-2{fill:#a6bdd1;}</style></defs><path class="cls-1" d="M19.6,39.2A19.6,19.6,0,1,0,0,19.6,19.61,19.61,0,0,0,19.6,39.2" transform="translate(0 0)"/><path class="cls-2" d="M26.15,15.82h-.57l-3-3a.58.58,0,0,0-.82.82l2.06,2.06h-8l2.06-2.06a.58.58,0,0,0-.82-.82l-3,3h-.83a1.69,1.69,0,0,0-1.73,1.73,1.77,1.77,0,0,0,1.24,1.65l.82,5.18a2.52,2.52,0,0,0,2.55,2.15H23a2.64,2.64,0,0,0,2.55-2.15l.82-5.18a1.73,1.73,0,0,0,1.15-2.14C27.64,16.32,26.89,15.82,26.15,15.82Zm-1.48,8.4a1.33,1.33,0,0,1-1.32,1.15H16.52a1.32,1.32,0,0,1-1.31-1.15l-.83-4.94h11.2Zm1.48-6.17H13.48a.58.58,0,0,1,0-1.16H26.15a.58.58,0,0,1,0,1.16Z" transform="translate(0 0)"/></svg>