<svg xmlns="http://www.w3.org/2000/svg" viewBox="0 0 39.2 39.2"><defs><style>.cls-1{fill:#fff;}.cls-2{fill:#a6bdd1;}</style></defs><g id="Capa_2" data-name="Capa 2"><g id="Capa_1-2" data-name="Capa 1"><path class="cls-1" d="M19.6,39.2A19.6,19.6,0,1,0,0,19.6,19.61,19.61,0,0,0,19.6,39.2"/><path class="cls-2" d="M20,10.6a2,2,0,0,0-2,2v1h4v-1a2,2,0,0,0-2-2m-4.5,4A1.54,1.54,0,0,0,14,16.1v11a1.54,1.54,0,0,0,1.5,1.5h9A1.54,1.54,0,0,0,26,27.1v-11a1.54,1.54,0,0,0-1.5-1.5H23v2.5a.5.5,0,0,1-1,0V14.6H18v2.5a.5.5,0,0,1-1,0V14.6Zm9,15h-9A2.48,2.48,0,0,1,13,27.1v-11a2.48,2.48,0,0,1,2.5-2.5H17v-1a3,3,0,0,1,6,0v1h1.5A2.48,2.48,0,0,1,27,16.1v11a2.48,2.48,0,0,1-2.5,2.5"/></g></g></svg>