<svg xmlns="http://www.w3.org/2000/svg" viewBox="0 0 39.2 39.2"><defs><style>.cls-1{fill:#fff;}.cls-2{fill:#a5bcd0;}</style></defs><g id="Capa_2" data-name="Capa 2"><g id="Capa_1-2" data-name="Capa 1"><path class="cls-1" d="M19.6,39.2A19.6,19.6,0,1,0,0,19.6,19.6,19.6,0,0,0,19.6,39.2"/><path class="cls-2" d="M19.57,24.38a.47.47,0,0,1-.5-.5v-8.8L16,18.18a.49.49,0,0,1-.7-.7l4-4a.48.48,0,0,1,.7,0l4,4a.49.49,0,0,1-.7.7l-3.2-3.1v8.8a.47.47,0,0,1-.5.5m0-14a8.5,8.5,0,1,0,8.5,8.5,8.49,8.49,0,0,0-8.5-8.5m0,18a9.5,9.5,0,1,1,9.5-9.5,9.56,9.56,0,0,1-9.5,9.5"/></g></g></svg>