<svg xmlns="http://www.w3.org/2000/svg" viewBox="0 0 39.2 39.2"><defs><style>.cls-1{fill:#fff;}.cls-2{fill:#a5bcd0;}</style></defs><g id="Capa_2" data-name="Capa 2"><g id="Capa_1-2" data-name="Capa 1"><path class="cls-1" d="M19.6,39.2A19.6,19.6,0,1,0,0,19.6,19.61,19.61,0,0,0,19.6,39.2"/><path class="cls-2" d="M14.7,13.12h2.63a.32.32,0,0,0,.33-.31V10.28h3.21v2.53a.32.32,0,0,0,.33.31h2.63v3.1H21.2a.32.32,0,0,0-.33.31v2.54H17.66V16.53a.32.32,0,0,0-.33-.31H14.7Zm-.32,3.72H17v2.54a.32.32,0,0,0,.32.31H21.2a.31.31,0,0,0,.32-.31V16.84h2.64a.31.31,0,0,0,.32-.31V12.81a.31.31,0,0,0-.32-.31H21.52V10a.31.31,0,0,0-.32-.31H17.33A.32.32,0,0,0,17,10V12.5H14.38a.32.32,0,0,0-.33.31v3.72a.32.32,0,0,0,.33.31"/><path class="cls-2" d="M28.62,9.5V22.15H27.08a.32.32,0,1,0,0,.63h1.54V29.1a2.08,2.08,0,0,1-2.11,2H12a2.08,2.08,0,0,1-2.11-2V22.78h1.54a.32.32,0,1,0,0-.63H9.91V9.5a2.08,2.08,0,0,1,2.11-2H26.51a2.08,2.08,0,0,1,2.11,2M12,6.85A2.7,2.7,0,0,0,9.27,9.5V29.1A2.7,2.7,0,0,0,12,31.75H26.51a2.71,2.71,0,0,0,2.76-2.65V9.5a2.71,2.71,0,0,0-2.76-2.65Z"/><path class="cls-2" d="M25.11,25.61H19.35a.31.31,0,1,0,0,.62h5.76a.31.31,0,1,0,0-.62"/><path class="cls-2" d="M25.11,27.94H19.35a.31.31,0,1,0,0,.62h5.76a.31.31,0,1,0,0-.62"/><path class="cls-2" d="M16.8,28.48H13.75V25.55H16.8Zm.32-3.55h-3.7a.32.32,0,0,0-.32.31V28.8a.32.32,0,0,0,.32.31h3.7a.31.31,0,0,0,.32-.31V25.24a.31.31,0,0,0-.32-.31"/><path class="cls-2" d="M14.93,22.78a.32.32,0,1,0,0-.63H13.18a.32.32,0,1,0,0,.63Z"/><path class="cls-2" d="M18.4,22.15H16.65a.32.32,0,1,0,0,.63H18.4a.32.32,0,1,0,0-.63"/><path class="cls-2" d="M20.13,22.15a.32.32,0,1,0,0,.63h1.75a.32.32,0,1,0,0-.63Z"/><path class="cls-2" d="M25.36,22.15H23.61a.32.32,0,1,0,0,.63h1.75a.32.32,0,1,0,0-.63"/></g></g></svg>