<svg id="Capa_1" data-name="Capa 1" xmlns="http://www.w3.org/2000/svg" xmlns:xlink="http://www.w3.org/1999/xlink" viewBox="0 0 39.2 39.2"><defs><style>.cls-1{fill:none;}.cls-2{fill:#095497;}.cls-3{clip-path:url(#clip-path);}.cls-4{fill:#fff;}</style><clipPath id="clip-path" transform="translate(0 0)"><rect class="cls-1" x="10.1" y="10.1" width="19" height="19"/></clipPath></defs><g id="Capa_2" data-name="Capa 2"><g id="Capa_1-2" data-name="Capa 1-2"><path class="cls-2" d="M19.6,39.2A19.6,19.6,0,1,0,0,19.6,19.61,19.61,0,0,0,19.6,39.2" transform="translate(0 0)"/></g></g><g class="cls-3"><path class="cls-4" d="M15.6,11.1h-1a.5.5,0,0,1,0-1h1a.5.5,0,1,1,0,1m3,0h-1a.5.5,0,0,1,0-1h1a.5.5,0,0,1,0,1m3,0h-1a.5.5,0,0,1,0-1h1a.5.5,0,0,1,0,1m3,0h-1a.5.5,0,0,1,0-1h1a.5.5,0,0,1,0,1m-14,2a.47.47,0,0,1-.5-.5,2.48,2.48,0,0,1,2.5-2.5.5.5,0,0,1,0,1,1.54,1.54,0,0,0-1.5,1.5.47.47,0,0,1-.5.5m18,.1a.47.47,0,0,1-.5-.5v-.1a1.54,1.54,0,0,0-1.5-1.5.5.5,0,0,1,0-1,2.48,2.48,0,0,1,2.5,2.5v.1a.54.54,0,0,1-.5.5m-18,2.9a.47.47,0,0,1-.5-.5v-1a.5.5,0,0,1,1,0v1a.47.47,0,0,1-.5.5m18,0a.47.47,0,0,1-.5-.5v-1a.5.5,0,0,1,1,0v1a.47.47,0,0,1-.5.5m-18,3a.47.47,0,0,1-.5-.5v-1a.5.5,0,0,1,1,0v1a.47.47,0,0,1-.5.5m18,0a.47.47,0,0,1-.5-.5v-1a.5.5,0,0,1,1,0v1a.47.47,0,0,1-.5.5m-18,3a.47.47,0,0,1-.5-.5v-1a.5.5,0,0,1,1,0v1a.47.47,0,0,1-.5.5m18,0a.47.47,0,0,1-.5-.5v-1a.5.5,0,0,1,1,0v1a.47.47,0,0,1-.5.5m-18,3a.47.47,0,0,1-.5-.5v-1a.5.5,0,0,1,1,0v1a.47.47,0,0,1-.5.5m9,0a.47.47,0,0,1-.5-.5V20.1H14.6a.5.5,0,0,1,0-1h4.5V14.6a.5.5,0,0,1,1,0v4.5h4.5a.5.5,0,0,1,0,1H20.1v4.5a.47.47,0,0,1-.5.5m9,0a.47.47,0,0,1-.5-.5v-1a.5.5,0,0,1,1,0v1a.47.47,0,0,1-.5.5m-16,4a2.48,2.48,0,0,1-2.5-2.5.5.5,0,0,1,1,0,1.54,1.54,0,0,0,1.5,1.5.5.5,0,1,1,0,1m3,0h-1a.5.5,0,0,1,0-1h1a.5.5,0,1,1,0,1m3,0h-1a.5.5,0,0,1,0-1h1a.5.5,0,0,1,0,1m3,0h-1a.5.5,0,0,1,0-1h1a.5.5,0,0,1,0,1m3,0h-1a.5.5,0,0,1,0-1h1a.5.5,0,0,1,0,1m2,0a.5.5,0,0,1,0-1,1.54,1.54,0,0,0,1.5-1.5.5.5,0,0,1,1,0,2.48,2.48,0,0,1-2.5,2.5" transform="translate(0 0)"/></g></svg>