<?xml version="1.0" encoding="utf-8"?>
<!-- Generator: Adobe Illustrator 25.2.0, SVG Export Plug-In . SVG Version: 6.00 Build 0)  -->
<svg version="1.1" id="Capa_1" xmlns="http://www.w3.org/2000/svg" xmlns:xlink="http://www.w3.org/1999/xlink" x="0px" y="0px"
	 viewBox="0 0 40 40" style="enable-background:new 0 0 40 40;" xml:space="preserve">
<style type="text/css">
	.st0{clip-path:url(#SVGID_2_);fill:#80A9E1;}
	.st1{clip-path:url(#SVGID_2_);fill:#FFFFFF;}
</style>
<g>
	<defs>
		<rect id="SVGID_1_" x="0.4" y="0.4" width="39.2" height="39.2"/>
	</defs>
	<clipPath id="SVGID_2_">
		<use xlink:href="#SVGID_1_"  style="overflow:visible;"/>
	</clipPath>
	<path class="st0" d="M20,39.6c10.8,0,19.6-8.8,19.6-19.6C39.6,9.2,30.8,0.4,20,0.4S0.4,9.2,0.4,20C0.4,30.8,9.2,39.6,20,39.6"/>
	<path class="st1" d="M27.1,23.2c-1.2,0-2.1,0.9-2.1,2.1c0,1.2,0.9,2.1,2.1,2.1c1.2,0,2.1-0.9,2.1-2.1
		C29.2,24.2,28.3,23.2,27.1,23.2 M27.1,28.2c-1.6,0-2.8-1.3-2.8-2.8c0-1.6,1.3-2.8,2.8-2.8s2.8,1.3,2.8,2.8
		C29.9,26.9,28.7,28.2,27.1,28.2"/>
	<path class="st1" d="M12.6,23.2c-1.2,0-2.1,0.9-2.1,2.1c0,1.2,0.9,2.1,2.1,2.1c1.2,0,2.1-0.9,2.1-2.1
		C14.8,24.2,13.8,23.2,12.6,23.2 M12.6,28.2c-1.6,0-2.8-1.3-2.8-2.8c0-1.6,1.3-2.8,2.8-2.8s2.8,1.3,2.8,2.8
		C15.5,26.9,14.2,28.2,12.6,28.2"/>
	<path class="st1" d="M22.4,25.3h-7.4c-0.2,0-0.4-0.2-0.4-0.4c0-0.2,0.2-0.4,0.4-0.4h7.4c0.2,0,0.4,0.2,0.4,0.4
		C22.8,25.1,22.6,25.3,22.4,25.3"/>
	<path class="st1" d="M31.5,25.3h-1.9c-0.2,0-0.4-0.2-0.4-0.4c0-0.2,0.2-0.4,0.4-0.4h1.9c0.1,0,0.4-0.4,0.8-1.7
		c0.2-0.8,0.4-1.7,0.4-2.2l-5.4-1.3c-0.1,0-0.2-0.1-0.2-0.1l-2.9-4h-4.9c-0.2,0-0.3-0.1-0.3-0.3c-0.1-0.3-0.1-0.6-0.2-0.8
		c-0.2-1-0.2-1.5-1.8-1.5H9.3c-0.7,0-1.3,0.6-1.3,1.3c0,0,0,0,0,0l-0.8,9.4c0,0.7,0.6,1.3,1.3,1.3h1.7c0.2,0,0.4,0.2,0.4,0.4
		c0,0.2-0.2,0.4-0.4,0.4H8.5c-1.1,0-2-0.9-2-2c0,0,0,0,0,0l0.8-9.4c0-1.1,0.9-2,2-2h7.9c2.1,0,2.3,1.1,2.5,2.1
		c0,0.2,0.1,0.3,0.1,0.5h4.8c0.1,0,0.2,0.1,0.3,0.1l3,4l5.5,1.4c0.2,0,0.3,0.2,0.3,0.3C33.5,20.9,32.9,25.3,31.5,25.3"/>
	<path class="st1" d="M19.8,19.4h4.7c-0.4-0.8-1-2.1-1.3-2.6H20L19.8,19.4z M25,20.2h-5.7c-0.1,0-0.2,0-0.3-0.1
		C19.1,20,19,19.9,19,19.8l0.3-3.3c0-0.2,0.2-0.3,0.4-0.3h3.7c0.1,0,0.3,0.1,0.3,0.2c0.5,1.1,1.5,3.2,1.6,3.3c0.1,0.1,0,0.2,0,0.3
		C25.3,20.1,25.2,20.2,25,20.2"/>
	<path class="st1" d="M19.4,15.2h-2.2c-0.2,0-0.4-0.2-0.4-0.4c0-0.2,0.2-0.4,0.4-0.4h2.2c0.2,0,0.4,0.2,0.4,0.4
		C19.7,15,19.6,15.2,19.4,15.2"/>
</g>
</svg>
