<svg id="Capa_1" data-name="Capa 1" xmlns="http://www.w3.org/2000/svg" viewBox="0 0 26.6 26.6"><defs><style>.cls-1{fill:#fdb71a;}</style></defs><path class="cls-1" d="M23.6,26.6H15.1a.5.5,0,0,1,0-1h8.5a1.9,1.9,0,0,0,1.9-1.9V13.8H21.6a1.87,1.87,0,0,1-.8,2,2,2,0,0,1-1.5.4,1.83,1.83,0,0,1-1.3-.8,1.92,1.92,0,0,1-.4-1.2v-.4H13.7v4.7c0,.2-.1.4-.3.4a.45.45,0,0,1-.5,0c-.1-.1-.2-.1-.4-.2a1.13,1.13,0,0,0-.8.1,1.47,1.47,0,0,0-.5.6,1,1,0,0,0,.8,1.2.78.78,0,0,0,.8-.2,1.09,1.09,0,0,1,.5-.1.54.54,0,0,1,.3.4v5.2a.47.47,0,0,1-.5.5H2.9A2.9,2.9,0,0,1,0,23.5V2.9A2.9,2.9,0,0,1,2.9,0h8.5a.56.56,0,0,1,.6.5.54.54,0,0,1-.5.5H2.9A2,2,0,0,0,1,2.9v9.8H4.9c0-.2-.1-.5,0-.7a1.83,1.83,0,0,1,.8-1.3,2,2,0,0,1,3.2,2h3.9V8.1c0-.2.1-.4.3-.4s.4-.1.5,0a1.42,1.42,0,0,0,.6.2,1.42,1.42,0,0,0,.6-.2A1.08,1.08,0,0,0,15,6.3a1,1,0,0,0-.7-.4,1.2,1.2,0,0,0-.8.2.45.45,0,0,1-.5,0,.54.54,0,0,1-.3-.4V.5a.63.63,0,0,1,.6-.5H23.7a2.9,2.9,0,0,1,2.9,2.9V23.6A3.08,3.08,0,0,1,23.6,26.6ZM1,13.8v9.9a1.9,1.9,0,0,0,1.9,1.9h9.8V21.7a1.39,1.39,0,0,1-.9,0,2.05,2.05,0,0,1,.9-4V13.8H8.1c-.2,0-.4-.1-.4-.3s-.1-.4,0-.5a.91.91,0,0,0,0-1.2,1.08,1.08,0,0,0-1.4-.2,1,1,0,0,0-.4.7,1.2,1.2,0,0,0,.2.8.45.45,0,0,1,0,.5.54.54,0,0,1-.4.3H1Zm12.8-1h4.7c.2,0,.4.1.4.3s.1.4,0,.5a1.42,1.42,0,0,0-.2.6,1.42,1.42,0,0,0,.2.6,1,1,0,1,0,1.6-1.2.45.45,0,0,1,0-.5.54.54,0,0,1,.4-.3h4.7V2.9A1.9,1.9,0,0,0,23.7,1H13.8V4.9c.2,0,.5-.1.7,0a1.83,1.83,0,0,1,1.3.8,1.94,1.94,0,0,1-.4,2.8,1.92,1.92,0,0,1-1.2.4h-.4Z"/></svg>