<?xml version="1.0" encoding="utf-8"?>
<!-- Generator: Adobe Illustrator 25.1.0, SVG Export Plug-In . SVG Version: 6.00 Build 0)  -->
<svg version="1.1" id="Capa_1" xmlns="http://www.w3.org/2000/svg" xmlns:xlink="http://www.w3.org/1999/xlink" x="0px" y="0px"
	 viewBox="0 0 40 40" style="enable-background:new 0 0 40 40;" xml:space="preserve">
<style type="text/css">
	.st0{clip-path:url(#SVGID_2_);fill:#FFFFFF;}
	.st1{fill:#F1B634;}
</style>
<g>
	<g>
		<defs>
			<rect id="SVGID_1_" x="0.4" y="0.4" width="39.2" height="39.2"/>
		</defs>
		<clipPath id="SVGID_2_">
			<use xlink:href="#SVGID_1_"  style="overflow:visible;"/>
		</clipPath>
		<path class="st0" d="M20,39.6c10.8,0,19.6-8.8,19.6-19.6S30.8,0.4,20,0.4S0.4,9.2,0.4,20S9.2,39.6,20,39.6"/>
	</g>
</g>
<g>
	<path class="st1" d="M25.1,14.5h-6l-0.3,2.4c0.3,0,0.6-0.1,1-0.1c1.5,0,3,0.3,4.1,1.1c1.2,0.8,1.9,2.1,1.9,3.9
		c0,2.9-2.5,5.5-6.6,5.5c-1.9,0-3.5-0.4-4.4-0.9l0.6-2.7c0.6,0.3,2.1,0.8,3.5,0.8c1.5,0,3.1-0.7,3.1-2.4c0-1.6-1.3-2.6-4.4-2.6
		c-0.9,0-1.4,0.1-2.1,0.2l1-8.2h8.5L25.1,14.5L25.1,14.5z"/>
</g>
</svg>
