<?xml version="1.0" encoding="utf-8"?>
<!-- Generator: Adobe Illustrator 25.2.0, SVG Export Plug-In . SVG Version: 6.00 Build 0)  -->
<svg version="1.1" id="Layer_1" xmlns="http://www.w3.org/2000/svg" xmlns:xlink="http://www.w3.org/1999/xlink" x="0px" y="0px"
	 viewBox="0 0 674.2 397.7" style="enable-background:new 0 0 674.2 397.7;" xml:space="preserve">
<style type="text/css">
	.st0{fill:#EDF1F3;}
	.st1{fill:#6AAAE4;}
	.st2{fill:#A5BCD0;}
	.st3{fill:#C7DCF4;}
	.st4{fill:#DAE3EC;}
	.st5{fill:#E2EDF9;}
	.st6{fill:none;stroke:#F0F1F1;stroke-width:0.274;stroke-miterlimit:10;}
	.st7{fill:none;stroke:#FFFFFF;stroke-width:0.5479;stroke-miterlimit:10;}
	.st8{clip-path:url(#SVGID_2_);fill:none;stroke:#EDF1F3;stroke-width:4.3836;stroke-miterlimit:10;}
	.st9{fill:none;stroke:#EDF1F3;stroke-width:4.3836;stroke-miterlimit:10;}
	.st10{clip-path:url(#SVGID_4_);fill:none;stroke:#EDF1F3;stroke-width:4.3836;stroke-miterlimit:10;}
	.st11{clip-path:url(#SVGID_6_);fill:none;stroke:#EDF1F3;stroke-width:4.3836;stroke-miterlimit:10;}
	.st12{fill:none;stroke:#EDF1F3;stroke-width:0.5479;stroke-miterlimit:10;}
	.st13{clip-path:url(#SVGID_8_);fill:none;stroke:#FFFFFF;stroke-width:4.3836;stroke-miterlimit:10;}
	.st14{fill:none;stroke:#FFFFFF;stroke-width:4.3836;stroke-miterlimit:10;}
	.st15{clip-path:url(#SVGID_10_);fill:none;stroke:#FFFFFF;stroke-width:4.3836;stroke-miterlimit:10;}
	.st16{fill:#FFFFFF;}
	.st17{fill:#4D4D4F;}
</style>
<path class="st0" d="M23.9,37.1h231.3v27.4H23.9V37.1z M23.9,9.7h231.3v27.4H23.9V9.7z"/>
<rect x="255.2" y="9.7" class="st1" width="157.8" height="27.4"/>
<path class="st2" d="M570.8,9.7h78.9v27.4h-78.9V9.7z M413,9.7h157.8v27.4H413V9.7z"/>
<path class="st3" d="M334.1,344H413v46.6h-78.9V344z M255.2,344h78.9v46.6h-78.9V344z M334.1,297.5H413V344h-78.9V297.5z
	 M255.2,297.5h78.9V344h-78.9V297.5z M334.1,250.9H413v46.6h-78.9V250.9z M255.2,250.9h78.9v46.6h-78.9V250.9z M334.1,204.3H413
	v46.6h-78.9V204.3z M255.2,204.3h78.9v46.6h-78.9V204.3z M334.1,157.7H413v46.6h-78.9V157.7z M255.2,157.7h78.9v46.6h-78.9V157.7z
	 M334.1,111.1H413v46.6h-78.9V111.1z M255.2,111.1h78.9v46.6h-78.9V111.1z M334.1,64.5H413v46.6h-78.9V64.5z M255.2,64.5h78.9v46.6
	h-78.9V64.5z M334.1,37.1H413v27.4h-78.9V37.1z M255.2,37.1h78.9v27.4h-78.9V37.1z"/>
<path class="st4" d="M570.8,344h78.9v46.6h-78.9V344z M491.9,344h78.9v46.6h-78.9V344z M413,344h78.9v46.6H413V344z M570.8,297.5
	h78.9V344h-78.9V297.5z M491.9,297.5h78.9V344h-78.9V297.5z M413,297.5h78.9V344H413V297.5z M570.8,250.9h78.9v46.6h-78.9V250.9z
	 M491.9,250.9h78.9v46.6h-78.9V250.9z M413,250.9h78.9v46.6H413V250.9z M570.8,204.3h78.9v46.6h-78.9V204.3z M491.9,204.3h78.9v46.6
	h-78.9V204.3z M413,204.3h78.9v46.6H413V204.3z M570.8,157.7h78.9v46.6h-78.9V157.7z M491.9,157.7h78.9v46.6h-78.9V157.7z
	 M413,157.7h78.9v46.6H413V157.7z M570.8,111.1h78.9v46.6h-78.9V111.1z M491.9,111.1h78.9v46.6h-78.9V111.1z M413,111.1h78.9v46.6
	H413V111.1z M570.8,64.5h78.9v46.6h-78.9V64.5z M491.9,64.5h78.9v46.6h-78.9V64.5z M413,64.5h78.9v46.6H413V64.5z M570.8,37.1h78.9
	v27.4h-78.9V37.1z M491.9,37.1h78.9v27.4h-78.9V37.1z M413,37.1h78.9v27.4H413V37.1z"/>
<path class="st5" d="M23.9,344h231.3v46.6H23.9V344z M23.9,297.5h231.3V344H23.9V297.5z M23.9,250.9h231.3v46.6H23.9V250.9z
	 M23.9,204.3h231.3v46.6H23.9V204.3z M23.9,157.7h231.3v46.6H23.9V157.7z M23.9,111.1h231.3v46.6H23.9V111.1z M23.9,64.5h231.3v46.6
	H23.9V64.5z"/>
<line class="st6" x1="23.9" y1="390.6" x2="255.2" y2="390.6"/>
<line class="st6" x1="255.2" y1="390.6" x2="334.1" y2="390.6"/>
<line class="st6" x1="334.1" y1="390.6" x2="413" y2="390.6"/>
<line class="st6" x1="413" y1="390.6" x2="491.9" y2="390.6"/>
<line class="st6" x1="491.9" y1="390.6" x2="570.8" y2="390.6"/>
<line class="st6" x1="570.8" y1="390.6" x2="649.7" y2="390.6"/>
<line class="st7" x1="23.9" y1="64.5" x2="253" y2="64.5"/>
<line class="st7" x1="257.4" y1="64.5" x2="333.8" y2="64.5"/>
<line class="st7" x1="334.3" y1="64.5" x2="410.8" y2="64.5"/>
<line class="st7" x1="415.2" y1="64.5" x2="491.6" y2="64.5"/>
<line class="st7" x1="492.1" y1="64.5" x2="568.6" y2="64.5"/>
<line class="st7" x1="573" y1="64.5" x2="649.7" y2="64.5"/>
<line class="st7" x1="23.9" y1="111.1" x2="253" y2="111.1"/>
<line class="st7" x1="257.4" y1="111.1" x2="333.8" y2="111.1"/>
<line class="st7" x1="334.3" y1="111.1" x2="410.8" y2="111.1"/>
<line class="st7" x1="415.2" y1="111.1" x2="491.6" y2="111.1"/>
<line class="st7" x1="492.1" y1="111.1" x2="568.6" y2="111.1"/>
<line class="st7" x1="573" y1="111.1" x2="649.7" y2="111.1"/>
<line class="st7" x1="23.9" y1="157.7" x2="253" y2="157.7"/>
<line class="st7" x1="257.4" y1="157.7" x2="333.8" y2="157.7"/>
<line class="st7" x1="334.3" y1="157.7" x2="410.8" y2="157.7"/>
<line class="st7" x1="415.2" y1="157.7" x2="491.6" y2="157.7"/>
<line class="st7" x1="492.1" y1="157.7" x2="568.6" y2="157.7"/>
<line class="st7" x1="573" y1="157.7" x2="649.7" y2="157.7"/>
<line class="st7" x1="23.9" y1="204.3" x2="253" y2="204.3"/>
<line class="st7" x1="257.4" y1="204.3" x2="333.8" y2="204.3"/>
<line class="st7" x1="334.3" y1="204.3" x2="410.8" y2="204.3"/>
<line class="st7" x1="415.2" y1="204.3" x2="491.6" y2="204.3"/>
<line class="st7" x1="492.1" y1="204.3" x2="568.6" y2="204.3"/>
<line class="st7" x1="573" y1="204.3" x2="649.7" y2="204.3"/>
<line class="st7" x1="23.9" y1="250.9" x2="253" y2="250.9"/>
<line class="st7" x1="257.4" y1="250.9" x2="333.8" y2="250.9"/>
<line class="st7" x1="334.3" y1="250.9" x2="410.8" y2="250.9"/>
<line class="st7" x1="415.2" y1="250.9" x2="491.6" y2="250.9"/>
<line class="st7" x1="492.1" y1="250.9" x2="568.6" y2="250.9"/>
<line class="st7" x1="573" y1="250.9" x2="649.7" y2="250.9"/>
<line class="st7" x1="23.9" y1="297.5" x2="253" y2="297.5"/>
<line class="st7" x1="257.4" y1="297.5" x2="333.8" y2="297.5"/>
<line class="st7" x1="334.3" y1="297.5" x2="410.8" y2="297.5"/>
<line class="st7" x1="415.2" y1="297.5" x2="491.6" y2="297.5"/>
<line class="st7" x1="492.1" y1="297.5" x2="568.6" y2="297.5"/>
<line class="st7" x1="573" y1="297.5" x2="649.7" y2="297.5"/>
<line class="st7" x1="23.9" y1="344" x2="253" y2="344"/>
<line class="st7" x1="257.4" y1="344" x2="333.8" y2="344"/>
<line class="st7" x1="334.3" y1="344" x2="410.8" y2="344"/>
<line class="st7" x1="415.2" y1="344" x2="491.6" y2="344"/>
<line class="st7" x1="492.1" y1="344" x2="568.6" y2="344"/>
<line class="st7" x1="573" y1="344" x2="649.7" y2="344"/>
<g>
	<defs>
		<rect id="SVGID_1_" x="14" y="2" width="654.5" height="393.9"/>
	</defs>
	<clipPath id="SVGID_2_">
		<use xlink:href="#SVGID_1_"  style="overflow:visible;"/>
	</clipPath>
	<line class="st8" x1="413" y1="37.1" x2="413" y2="9.7"/>
</g>
<line class="st9" x1="413" y1="64.5" x2="413" y2="37.1"/>
<line class="st9" x1="413" y1="111.1" x2="413" y2="64.5"/>
<line class="st9" x1="413" y1="157.7" x2="413" y2="111.1"/>
<line class="st9" x1="413" y1="204.3" x2="413" y2="157.7"/>
<line class="st9" x1="413" y1="250.9" x2="413" y2="204.3"/>
<line class="st9" x1="413" y1="297.5" x2="413" y2="250.9"/>
<line class="st9" x1="413" y1="344" x2="413" y2="297.5"/>
<g>
	<defs>
		<rect id="SVGID_3_" x="14" y="2" width="654.5" height="393.9"/>
	</defs>
	<clipPath id="SVGID_4_">
		<use xlink:href="#SVGID_3_"  style="overflow:visible;"/>
	</clipPath>
	<line class="st10" x1="413" y1="390.5" x2="413" y2="344"/>
	<line class="st10" x1="570.8" y1="37.1" x2="570.8" y2="9.7"/>
</g>
<line class="st9" x1="570.8" y1="64.5" x2="570.8" y2="37.1"/>
<line class="st9" x1="570.8" y1="111.1" x2="570.8" y2="64.5"/>
<line class="st9" x1="570.8" y1="157.7" x2="570.8" y2="111.1"/>
<line class="st9" x1="570.8" y1="204.3" x2="570.8" y2="157.7"/>
<line class="st9" x1="570.8" y1="250.9" x2="570.8" y2="204.3"/>
<line class="st9" x1="570.8" y1="297.5" x2="570.8" y2="250.9"/>
<line class="st9" x1="570.8" y1="344" x2="570.8" y2="297.5"/>
<g>
	<defs>
		<rect id="SVGID_5_" x="14" y="2" width="654.5" height="393.9"/>
	</defs>
	<clipPath id="SVGID_6_">
		<use xlink:href="#SVGID_5_"  style="overflow:visible;"/>
	</clipPath>
	<line class="st11" x1="570.8" y1="390.5" x2="570.8" y2="344"/>
</g>
<line class="st12" x1="334.1" y1="64.5" x2="334.1" y2="37.1"/>
<line class="st12" x1="334.1" y1="111.1" x2="334.1" y2="64.5"/>
<line class="st12" x1="334.1" y1="157.7" x2="334.1" y2="111.1"/>
<line class="st12" x1="334.1" y1="204.3" x2="334.1" y2="157.7"/>
<line class="st12" x1="334.1" y1="250.9" x2="334.1" y2="204.3"/>
<line class="st12" x1="334.1" y1="297.5" x2="334.1" y2="250.9"/>
<line class="st12" x1="334.1" y1="344" x2="334.1" y2="297.5"/>
<line class="st12" x1="334.1" y1="390.5" x2="334.1" y2="344"/>
<line class="st12" x1="491.9" y1="64.5" x2="491.9" y2="37.1"/>
<line class="st12" x1="491.9" y1="111.1" x2="491.9" y2="64.5"/>
<line class="st12" x1="491.9" y1="157.7" x2="491.9" y2="111.1"/>
<line class="st12" x1="491.9" y1="204.3" x2="491.9" y2="157.7"/>
<line class="st12" x1="491.9" y1="250.9" x2="491.9" y2="204.3"/>
<line class="st12" x1="491.9" y1="297.5" x2="491.9" y2="250.9"/>
<line class="st12" x1="491.9" y1="344" x2="491.9" y2="297.5"/>
<line class="st12" x1="491.9" y1="390.5" x2="491.9" y2="344"/>
<g>
	<defs>
		<rect id="SVGID_7_" x="14" y="2" width="654.5" height="393.9"/>
	</defs>
	<clipPath id="SVGID_8_">
		<use xlink:href="#SVGID_7_"  style="overflow:visible;"/>
	</clipPath>
	<line class="st13" x1="255.2" y1="37.1" x2="255.2" y2="9.7"/>
</g>
<line class="st14" x1="255.2" y1="64.5" x2="255.2" y2="37.1"/>
<line class="st14" x1="255.2" y1="111.1" x2="255.2" y2="64.5"/>
<line class="st14" x1="255.2" y1="157.7" x2="255.2" y2="111.1"/>
<line class="st14" x1="255.2" y1="204.3" x2="255.2" y2="157.7"/>
<line class="st14" x1="255.2" y1="250.9" x2="255.2" y2="204.3"/>
<line class="st14" x1="255.2" y1="297.5" x2="255.2" y2="250.9"/>
<line class="st14" x1="255.2" y1="344" x2="255.2" y2="297.5"/>
<g>
	<defs>
		<rect id="SVGID_9_" x="14" y="2" width="654.5" height="393.9"/>
	</defs>
	<clipPath id="SVGID_10_">
		<use xlink:href="#SVGID_9_"  style="overflow:visible;"/>
	</clipPath>
	<line class="st15" x1="255.2" y1="390.5" x2="255.2" y2="344"/>
</g>
<g>
	<path class="st16" d="M316.9,29.3v-1.5l1.3-1.2c2.3-2,3.4-3.2,3.4-4.4c0-0.8-0.5-1.5-1.7-1.5c-0.9,0-1.7,0.4-2.2,0.9l-0.7-1.7
		c0.8-0.6,2-1.1,3.4-1.1c2.3,0,3.6,1.4,3.6,3.2c0,1.7-1.3,3.1-2.7,4.4l-1,0.8v0h3.9v2H316.9z"/>
	<path class="st16" d="M333.5,24.1c0,3.2-1.3,5.4-3.9,5.4c-2.7,0-3.8-2.4-3.9-5.3c0-3,1.3-5.4,3.9-5.4
		C332.5,18.8,333.5,21.3,333.5,24.1z M328.2,24.2c0,2.4,0.6,3.5,1.5,3.5c0.9,0,1.4-1.2,1.4-3.5c0-2.3-0.5-3.5-1.5-3.5
		C328.8,20.7,328.2,21.8,328.2,24.2z"/>
	<path class="st16" d="M334.7,29.3v-1.5l1.3-1.2c2.3-2,3.4-3.2,3.4-4.4c0-0.8-0.5-1.5-1.7-1.5c-0.9,0-1.7,0.4-2.2,0.9l-0.7-1.7
		c0.8-0.6,2-1.1,3.4-1.1c2.3,0,3.6,1.4,3.6,3.2c0,1.7-1.3,3.1-2.7,4.4l-1,0.8v0h3.9v2H334.7z"/>
	<path class="st16" d="M351.3,24.1c0,3.2-1.3,5.4-3.9,5.4c-2.7,0-3.8-2.4-3.9-5.3c0-3,1.3-5.4,3.9-5.4
		C350.2,18.8,351.3,21.3,351.3,24.1z M346,24.2c0,2.4,0.6,3.5,1.5,3.5c0.9,0,1.4-1.2,1.4-3.5c0-2.3-0.5-3.5-1.5-3.5
		C346.6,20.7,346,21.8,346,24.2z"/>
</g>
<g>
	<path class="st16" d="M475.3,29.3v-1.5l1.3-1.2c2.3-2,3.4-3.2,3.4-4.4c0-0.8-0.5-1.5-1.7-1.5c-0.9,0-1.7,0.4-2.2,0.9l-0.7-1.7
		c0.8-0.6,2-1.1,3.4-1.1c2.3,0,3.6,1.4,3.6,3.2c0,1.7-1.3,3.1-2.7,4.4l-1,0.8v0h3.9v2H475.3z"/>
	<path class="st16" d="M491.9,24.1c0,3.2-1.3,5.4-3.9,5.4c-2.7,0-3.8-2.4-3.9-5.3c0-3,1.3-5.4,3.9-5.4
		C490.8,18.8,491.9,21.3,491.9,24.1z M486.5,24.2c0,2.4,0.6,3.5,1.5,3.5s1.4-1.2,1.4-3.5c0-2.3-0.5-3.5-1.5-3.5
		C487.1,20.7,486.5,21.8,486.5,24.2z"/>
	<path class="st16" d="M495.8,21.1L495.8,21.1l-2,0.9l-0.4-1.8l2.7-1.3h2v10.3h-2.3V21.1z"/>
	<path class="st16" d="M501.8,27.6c0.3,0,0.6,0,1,0c0.7,0,1.5-0.3,2-0.6c0.7-0.5,1.1-1.1,1.3-1.9l0,0c-0.5,0.5-1.1,0.7-2.1,0.7
		c-1.7,0-3.2-1.2-3.2-3.2c0-2,1.6-3.7,3.9-3.7c2.7,0,3.9,2,3.9,4.4c0,2.1-0.7,3.7-1.8,4.7c-1,0.9-2.3,1.4-3.9,1.4
		c-0.4,0-0.8,0-1.1,0V27.6z M503.2,22.4c0,0.9,0.5,1.7,1.5,1.7c0.7,0,1.1-0.3,1.3-0.7c0.1-0.1,0.1-0.3,0.1-0.6
		c0-1.1-0.4-2.2-1.5-2.2C503.8,20.6,503.2,21.3,503.2,22.4z"/>
</g>
<g>
	<path class="st16" d="M602.7,29.3l-3.4-10.7h2.7l1.3,4.5c0.4,1.3,0.7,2.5,1,3.8h0c0.3-1.3,0.6-2.6,1-3.8l1.4-4.6h2.6l-3.6,10.7
		H602.7z"/>
	<path class="st16" d="M613.2,29.3l-0.1-0.8h0c-0.5,0.6-1.3,1-2.2,1c-1.6,0-2.5-1.1-2.5-2.4c0-2,1.8-3,4.6-3V24c0-0.4-0.2-1-1.4-1
		c-0.8,0-1.6,0.3-2.1,0.6l-0.4-1.6c0.5-0.3,1.6-0.7,3-0.7c2.6,0,3.4,1.5,3.4,3.4v2.7c0,0.7,0,1.5,0.1,1.9H613.2z M612.9,25.7
		c-1.3,0-2.3,0.3-2.3,1.2c0,0.6,0.4,0.9,1,0.9c0.6,0,1.1-0.4,1.3-0.9c0-0.1,0-0.3,0-0.4V25.7z"/>
	<path class="st16" d="M616.1,24.1c0-1.1,0-1.9-0.1-2.6h2.1l0.1,1.4h0.1c0.4-1.1,1.4-1.6,2.1-1.6c0.2,0,0.3,0,0.5,0v2.3
		c-0.2,0-0.4-0.1-0.7-0.1c-0.9,0-1.5,0.5-1.7,1.2c0,0.2,0,0.3,0,0.5v3.9h-2.4V24.1z"/>
	<path class="st16" d="M620.2,28c0-0.9,0.6-1.5,1.4-1.5s1.4,0.6,1.4,1.5c0,0.8-0.6,1.5-1.4,1.5C620.8,29.5,620.2,28.9,620.2,28z"/>
</g>
<g>
	<path class="st17" d="M290.2,58.1v-1.5c-1.1,0-2.1-0.3-2.7-0.7l0.5-1.9c0.7,0.4,1.6,0.7,2.6,0.7c0.9,0,1.5-0.3,1.5-1
		c0-0.6-0.5-1-1.7-1.4c-1.7-0.6-2.9-1.4-2.9-2.9c0-1.4,1-2.5,2.7-2.8v-1.5h1.6v1.4c1.1,0,1.8,0.3,2.3,0.5l-0.5,1.8
		c-0.4-0.2-1.1-0.5-2.3-0.5c-1,0-1.4,0.4-1.4,0.9c0,0.5,0.6,0.9,1.9,1.4c1.9,0.7,2.7,1.5,2.7,3c0,1.4-1,2.6-2.8,2.9v1.6H290.2z"/>
</g>
<g>
	<path class="st17" d="M368.1,49.3c0,2.2-1.4,3.3-2.9,3.3c-1.6,0-2.8-1.2-2.8-3.1c0-1.8,1.1-3.2,2.9-3.2
		C367.1,46.2,368.1,47.5,368.1,49.3z M364.2,49.4c0,1.1,0.4,1.9,1.1,1.9c0.7,0,1-0.7,1-1.9c0-1-0.3-1.9-1-1.9
		C364.6,47.5,364.2,48.4,364.2,49.4z M365.4,56.9l5.9-10.7h1.3l-5.9,10.7H365.4z M375.5,53.6c0,2.2-1.4,3.3-2.9,3.3
		c-1.6,0-2.8-1.2-2.8-3.1c0-1.8,1.1-3.2,2.9-3.2C374.5,50.5,375.5,51.8,375.5,53.6z M371.7,53.7c0,1.1,0.3,1.9,1,1.9
		c0.7,0,1-0.7,1-1.9c0-1-0.3-1.9-1-1.9C372,51.8,371.7,52.7,371.7,53.7z"/>
</g>
<g>
	<path class="st17" d="M448,58.1v-1.5c-1.1,0-2.1-0.3-2.7-0.7l0.5-1.9c0.7,0.4,1.6,0.7,2.6,0.7c0.9,0,1.5-0.3,1.5-1
		c0-0.6-0.5-1-1.7-1.4c-1.7-0.6-2.9-1.4-2.9-2.9c0-1.4,1-2.5,2.7-2.8v-1.5h1.6v1.4c1.1,0,1.8,0.3,2.3,0.5l-0.5,1.8
		c-0.4-0.2-1.1-0.5-2.3-0.5c-1,0-1.4,0.4-1.4,0.9c0,0.5,0.6,0.9,1.9,1.4c1.9,0.7,2.7,1.5,2.7,3c0,1.4-1,2.6-2.8,2.9v1.6H448z"/>
</g>
<g>
	<path class="st17" d="M525.9,49.3c0,2.2-1.4,3.3-2.9,3.3c-1.6,0-2.8-1.2-2.8-3.1c0-1.8,1.1-3.2,2.9-3.2
		C524.9,46.2,525.9,47.5,525.9,49.3z M522,49.4c0,1.1,0.4,1.9,1.1,1.9c0.7,0,1-0.7,1-1.9c0-1-0.3-1.9-1-1.9
		C522.4,47.5,522,48.4,522,49.4z M523.2,56.9l5.9-10.7h1.3l-5.9,10.7H523.2z M533.4,53.6c0,2.2-1.4,3.3-2.9,3.3
		c-1.6,0-2.8-1.2-2.8-3.1c0-1.8,1.1-3.2,2.9-3.2C532.4,50.5,533.4,51.8,533.4,53.6z M529.5,53.7c0,1.1,0.3,1.9,1,1.9
		c0.7,0,1-0.7,1-1.9c0-1-0.3-1.9-1-1.9C529.8,51.8,529.5,52.7,529.5,53.7z"/>
</g>
<g>
	<path class="st17" d="M605.8,49.3c0,2.2-1.4,3.3-2.9,3.3c-1.6,0-2.8-1.2-2.8-3.1c0-1.8,1.1-3.2,2.9-3.2
		C604.8,46.2,605.8,47.5,605.8,49.3z M601.9,49.4c0,1.1,0.4,1.9,1.1,1.9c0.7,0,1-0.7,1-1.9c0-1-0.3-1.9-1-1.9
		C602.2,47.5,601.9,48.4,601.9,49.4z M603,56.9l5.9-10.7h1.3l-5.9,10.7H603z M613.2,53.6c0,2.2-1.4,3.3-2.9,3.3
		c-1.6,0-2.8-1.2-2.8-3.1c0-1.8,1.1-3.2,2.9-3.2C612.2,50.5,613.2,51.8,613.2,53.6z M609.4,53.7c0,1.1,0.3,1.9,1,1.9
		c0.7,0,1-0.7,1-1.9c0-1-0.3-1.9-1-1.9C609.7,51.8,609.4,52.7,609.4,53.7z"/>
</g>
<g>
	<path class="st17" d="M42.7,83.6h-3.5V83H47v0.6h-3.5v10.1h-0.8V83.6z"/>
	<path class="st17" d="M53.7,89.8c0,2.8-2,4.1-3.7,4.1c-2,0-3.5-1.5-3.5-3.9c0-2.6,1.7-4.1,3.6-4.1C52.3,85.9,53.7,87.5,53.7,89.8z
		 M47.3,89.9c0,1.9,1.2,3.3,2.8,3.3c1.6,0,2.8-1.4,2.8-3.4c0-1.4-0.8-3.3-2.8-3.3C48.2,86.6,47.3,88.3,47.3,89.9z"/>
	<path class="st17" d="M56.7,84.4v1.7h2.2v0.6h-2.2v5c0,1,0.3,1.6,1.1,1.6c0.4,0,0.7,0,0.9-0.1l0.1,0.6c-0.3,0.1-0.6,0.2-1.1,0.2
		c-0.6,0-1-0.2-1.3-0.5c-0.3-0.4-0.5-1-0.5-1.8v-4.8h-1.3v-0.6H56v-1.4L56.7,84.4z"/>
	<path class="st17" d="M65.5,91.9c0,0.6,0,1.2,0.1,1.8h-0.7l-0.1-1.1h0c-0.4,0.6-1.2,1.3-2.4,1.3c-1.5,0-2.2-1.1-2.2-2.1
		c0-1.8,1.5-2.8,4.7-2.8v-0.2c0-0.7-0.1-2.3-2-2.2c-0.7,0-1.4,0.2-1.9,0.6l-0.2-0.6c0.7-0.5,1.6-0.7,2.2-0.7c2.2,0,2.6,1.7,2.6,3
		V91.9z M64.8,89.6c-1.7,0-3.9,0.2-3.9,2c0,1.1,0.7,1.6,1.5,1.6c1.3,0,2-0.8,2.3-1.5c0.1-0.2,0.1-0.3,0.1-0.5V89.6z"/>
	<path class="st17" d="M68.1,82.4h0.8v11.3h-0.8V82.4z"/>
	<path class="st17" d="M76.5,83.9c0,0.3-0.2,0.7-0.6,0.7c-0.3,0-0.6-0.3-0.6-0.7c0-0.3,0.3-0.7,0.6-0.7
		C76.3,83.2,76.5,83.6,76.5,83.9z M75.6,93.7v-7.6h0.8v7.6H75.6z"/>
	<path class="st17" d="M78.9,87.9c0-0.7,0-1.2-0.1-1.8h0.7l0,1.4h0c0.4-0.9,1.4-1.6,2.6-1.6c0.7,0,2.7,0.4,2.7,3.2v4.6h-0.8v-4.5
		c0-1.4-0.5-2.6-2.1-2.6c-1.1,0-2,0.8-2.3,1.7c0,0.2-0.1,0.4-0.1,0.7v4.7h-0.8V87.9z"/>
	<path class="st17" d="M93.7,92.6c0,2-0.4,2.9-1,3.5c-0.7,0.7-1.7,0.9-2.6,0.9c-0.9,0-1.8-0.2-2.4-0.7l0.3-0.6
		c0.5,0.3,1.3,0.6,2.3,0.6c1.6,0,2.8-0.8,2.8-3.1v-1.1h0c-0.4,0.8-1.3,1.5-2.7,1.5C88.3,93.7,87,92,87,90c0-2.7,1.7-4.1,3.4-4.1
		c1.5,0,2.3,0.8,2.6,1.5h0l0-1.3h0.7c0,0.6-0.1,1.2-0.1,2V92.6z M92.9,89c0-0.3,0-0.5-0.1-0.7c-0.3-0.9-1.1-1.7-2.4-1.7
		c-1.6,0-2.7,1.3-2.7,3.3c0,1.7,0.9,3.2,2.7,3.2c1,0,2-0.6,2.4-1.7c0.1-0.3,0.1-0.5,0.1-0.8V89z"/>
	<path class="st17" d="M96.3,88.4c0-0.8,0-1.5-0.1-2.3H97l0,1.5h0c0.3-1,1.1-1.7,2.2-1.7c0.1,0,0.2,0,0.3,0v0.7c-0.1,0-0.2,0-0.4,0
		c-1,0-1.8,0.9-2,2.1c0,0.2-0.1,0.5-0.1,0.7v4.2h-0.8V88.4z"/>
	<path class="st17" d="M101.1,89.8c0,2.4,1.3,3.4,2.9,3.4c1.1,0,1.7-0.2,2.1-0.4l0.2,0.6c-0.3,0.2-1.1,0.5-2.4,0.5
		c-2.2,0-3.6-1.6-3.6-3.8c0-2.5,1.5-4.1,3.4-4.1c2.5,0,3,2.4,3,3.4c0,0.2,0,0.3,0,0.5H101.1z M106,89.2c0-1.1-0.4-2.7-2.3-2.7
		c-1.7,0-2.4,1.5-2.6,2.7H106z"/>
	<path class="st17" d="M108.5,92.7c0.4,0.3,1,0.5,1.7,0.5c1.2,0,1.8-0.7,1.8-1.4c0-0.8-0.5-1.3-1.6-1.7c-1.3-0.5-1.9-1.2-1.9-2.1
		c0-1.1,0.9-2.1,2.4-2.1c0.7,0,1.3,0.2,1.7,0.5l-0.3,0.6c-0.3-0.2-0.8-0.5-1.5-0.5c-1,0-1.5,0.6-1.5,1.3c0,0.8,0.5,1.1,1.6,1.6
		c1.2,0.5,2,1.1,2,2.3c0,1.3-1,2.2-2.6,2.2c-0.7,0-1.4-0.2-1.9-0.5L108.5,92.7z"/>
	<path class="st17" d="M121.5,89.8c0,2.8-2,4.1-3.7,4.1c-2,0-3.5-1.5-3.5-3.9c0-2.6,1.7-4.1,3.6-4.1C120,85.9,121.5,87.5,121.5,89.8
		z M115.1,89.9c0,1.9,1.2,3.3,2.8,3.3c1.6,0,2.8-1.4,2.8-3.4c0-1.4-0.8-3.3-2.8-3.3C115.9,86.6,115.1,88.3,115.1,89.9z"/>
	<path class="st17" d="M123.2,92.7c0.4,0.3,1,0.5,1.7,0.5c1.2,0,1.8-0.7,1.8-1.4c0-0.8-0.5-1.3-1.6-1.7c-1.3-0.5-1.9-1.2-1.9-2.1
		c0-1.1,0.9-2.1,2.4-2.1c0.7,0,1.3,0.2,1.7,0.5l-0.3,0.6c-0.3-0.2-0.8-0.5-1.5-0.5c-1,0-1.5,0.6-1.5,1.3c0,0.8,0.5,1.1,1.6,1.6
		c1.2,0.5,2,1.1,2,2.3c0,1.3-1,2.2-2.6,2.2c-0.7,0-1.4-0.2-1.9-0.5L123.2,92.7z"/>
</g>
<g>
	<path class="st17" d="M276.1,83.4v1.5l-4.3,8.8h-2.6l4.3-8.3v0h-4.7v-2H276.1z"/>
	<path class="st17" d="M285.1,88.5c0,3.2-1.3,5.4-3.9,5.4c-2.7,0-3.8-2.4-3.9-5.3c0-3,1.3-5.4,3.9-5.4
		C284,83.2,285.1,85.7,285.1,88.5z M279.7,88.6c0,2.4,0.6,3.5,1.5,3.5c0.9,0,1.4-1.2,1.4-3.5c0-2.3-0.5-3.5-1.5-3.5
		C280.3,85,279.7,86.2,279.7,88.6z"/>
	<path class="st17" d="M289.1,85.5L289.1,85.5l-2,0.9l-0.4-1.8l2.7-1.3h2v10.3h-2.3V85.5z"/>
	<path class="st17" d="M293.8,95.6c0.5-1.4,0.9-3.1,1.1-4.5l2.5-0.2c-0.5,1.6-1.2,3.3-2,4.5L293.8,95.6z"/>
	<path class="st17" d="M306,83.4v1.5l-4.3,8.8h-2.6l4.3-8.3v0h-4.7v-2H306z"/>
	<path class="st17" d="M307.9,91.4c0.4,0.2,1.4,0.6,2.4,0.6c1.3,0,1.9-0.6,1.9-1.4c0-1-1-1.5-2.1-1.5h-1v-1.7h0.9
		c0.8,0,1.8-0.3,1.8-1.2c0-0.6-0.5-1.1-1.5-1.1c-0.8,0-1.7,0.4-2.2,0.6l-0.5-1.7c0.6-0.4,1.9-0.8,3.2-0.8c2.2,0,3.4,1.2,3.4,2.6
		c0,1.1-0.6,2-1.9,2.4v0c1.2,0.2,2.2,1.2,2.2,2.5c0,1.8-1.6,3.2-4.2,3.2c-1.3,0-2.5-0.3-3.1-0.7L307.9,91.4z"/>
	<path class="st17" d="M320.9,93.7v-2.5h-4.6v-1.6l3.9-6.3h3v6.1h1.2v1.8h-1.2v2.5H320.9z M320.9,89.4v-2.3c0-0.6,0-1.3,0.1-1.9
		h-0.1c-0.3,0.7-0.6,1.3-1,1.9l-1.4,2.3v0H320.9z"/>
</g>
<g>
	<path class="st17" d="M367.6,85.5L367.6,85.5l-2,0.9l-0.4-1.8l2.7-1.3h2v10.3h-2.3V85.5z"/>
	<path class="st17" d="M380.5,88.5c0,3.2-1.3,5.4-3.9,5.4c-2.7,0-3.8-2.4-3.9-5.3c0-3,1.3-5.4,3.9-5.4
		C379.4,83.2,380.5,85.7,380.5,88.5z M375.1,88.6c0,2.4,0.6,3.5,1.5,3.5s1.4-1.2,1.4-3.5c0-2.3-0.5-3.5-1.5-3.5
		C375.7,85,375.1,86.2,375.1,88.6z"/>
	<path class="st17" d="M389.8,88.5c0,3.2-1.3,5.4-3.9,5.4c-2.7,0-3.8-2.4-3.9-5.3c0-3,1.3-5.4,3.9-5.4
		C388.7,83.2,389.8,85.7,389.8,88.5z M384.4,88.6c0,2.4,0.6,3.5,1.5,3.5s1.4-1.2,1.4-3.5c0-2.3-0.5-3.5-1.5-3.5
		C385,85,384.4,86.2,384.4,88.6z"/>
	<path class="st17" d="M391.2,92.4c0-0.9,0.6-1.5,1.4-1.5s1.4,0.6,1.4,1.5c0,0.8-0.6,1.5-1.4,1.5C391.8,93.9,391.2,93.3,391.2,92.4z
		"/>
	<path class="st17" d="M403.1,88.5c0,3.2-1.3,5.4-3.9,5.4c-2.7,0-3.8-2.4-3.9-5.3c0-3,1.3-5.4,3.9-5.4
		C402,83.2,403.1,85.7,403.1,88.5z M397.7,88.6c0,2.4,0.6,3.5,1.5,3.5s1.4-1.2,1.4-3.5c0-2.3-0.5-3.5-1.5-3.5
		C398.3,85,397.7,86.2,397.7,88.6z"/>
</g>
<g>
	<path class="st17" d="M436.6,83.9c-0.3,0-0.7,0-1.1,0.1c-2.2,0.5-3.5,2.4-3.7,4.4h0c0.5-0.8,1.4-1.4,2.7-1.4c1.9,0,3.1,1.4,3.1,3.3
		c0,1.8-1.1,3.6-3.2,3.6c-1.9,0-3.4-1.5-3.4-4.3c0-2.1,0.7-3.7,1.7-4.7c0.7-0.8,1.8-1.3,2.9-1.5c0.4-0.1,0.8-0.1,1-0.1V83.9z
		 M436.8,90.4c0-1.8-1.1-2.7-2.5-2.7c-1,0-1.9,0.6-2.4,1.5c-0.1,0.2-0.2,0.4-0.2,0.6c0,2.1,0.9,3.5,2.7,3.5
		C435.8,93.3,436.8,92.1,436.8,90.4z"/>
	<path class="st17" d="M443.8,93.7v-3h-4.9v-0.5l5-6.8h0.6V90h1.6v0.6h-1.6v3H443.8z M443.8,90v-4.2c0-0.5,0-1,0-1.4l0,0
		c-0.3,0.6-0.6,0.9-0.8,1.3l-3.2,4.3v0H443.8z"/>
	<path class="st17" d="M453.2,83.9c-0.3,0-0.7,0-1.1,0.1c-2.2,0.5-3.5,2.4-3.7,4.4h0c0.5-0.8,1.4-1.4,2.7-1.4c1.9,0,3.1,1.4,3.1,3.3
		c0,1.8-1.1,3.6-3.2,3.6c-1.9,0-3.4-1.5-3.4-4.3c0-2.1,0.7-3.7,1.7-4.7c0.7-0.8,1.8-1.3,2.9-1.5c0.4-0.1,0.8-0.1,1-0.1V83.9z
		 M453.4,90.4c0-1.8-1.1-2.7-2.5-2.7c-1,0-1.9,0.6-2.4,1.5c-0.1,0.2-0.2,0.4-0.2,0.6c0,2.1,0.9,3.5,2.7,3.5
		C452.4,93.3,453.4,92.1,453.4,90.4z"/>
	<path class="st17" d="M455.3,95.7c0.3-0.7,0.7-2.4,0.8-3.4l1-0.2c-0.3,1.2-1,3-1.2,3.4L455.3,95.7z"/>
	<path class="st17" d="M461,88.2c-1.3-0.5-1.7-1.4-1.7-2.3c0-1.6,1.3-2.7,2.9-2.7c1.7,0,2.7,1.2,2.7,2.5c0,0.9-0.4,1.8-1.8,2.5v0.1
		c1.5,0.6,2.2,1.5,2.2,2.7c0,1.7-1.5,2.9-3.2,2.9c-1.8,0-3.2-1.2-3.2-2.7C458.9,89.8,459.7,88.8,461,88.2L461,88.2z M464.5,91.1
		c0-1.5-1-2.1-2.7-2.6c-1.5,0.4-2.2,1.4-2.2,2.5c-0.1,1.2,0.9,2.3,2.4,2.3C463.6,93.3,464.5,92.3,464.5,91.1z M460,85.8
		c0,1.2,0.9,1.9,2.3,2.2c1.1-0.4,1.9-1.1,1.9-2.2c0-0.9-0.6-1.9-2-1.9C460.8,83.8,460,84.7,460,85.8z"/>
	<path class="st17" d="M471.6,93.7v-3h-4.9v-0.5l5-6.8h0.6V90h1.6v0.6h-1.6v3H471.6z M471.6,90v-4.2c0-0.5,0-1,0-1.4l0,0
		c-0.3,0.6-0.6,0.9-0.8,1.3l-3.2,4.3v0H471.6z"/>
	<path class="st17" d="M481,83.9c-0.3,0-0.7,0-1.1,0.1c-2.2,0.5-3.5,2.4-3.7,4.4h0c0.5-0.8,1.4-1.4,2.7-1.4c1.9,0,3.1,1.4,3.1,3.3
		c0,1.8-1.1,3.6-3.2,3.6c-1.9,0-3.4-1.5-3.4-4.3c0-2.1,0.7-3.7,1.7-4.7c0.7-0.8,1.8-1.3,2.9-1.5c0.4-0.1,0.8-0.1,1-0.1V83.9z
		 M481.2,90.4c0-1.8-1.1-2.7-2.5-2.7c-1,0-1.9,0.6-2.4,1.5c-0.1,0.2-0.2,0.4-0.2,0.6c0,2.1,0.9,3.5,2.7,3.5
		C480.2,93.3,481.2,92.1,481.2,90.4z"/>
</g>
<g>
	<path class="st17" d="M531.5,84.2L531.5,84.2l-1.7,1l-0.2-0.6l2-1.2h0.7v10.3h-0.7V84.2z"/>
	<path class="st17" d="M541.9,88.4c0,3.7-1.3,5.5-3.4,5.5c-1.6,0-3.1-1.6-3.1-5.3c0-3.7,1.6-5.4,3.4-5.4
		C540.6,83.2,541.9,84.9,541.9,88.4z M536.2,88.6c0,2.9,1,4.6,2.5,4.6c1.7,0,2.5-2,2.5-4.8c0-2.7-0.7-4.6-2.5-4.6
		C537.2,83.9,536.2,85.6,536.2,88.6z"/>
	<path class="st17" d="M550.1,88.4c0,3.7-1.3,5.5-3.4,5.5c-1.6,0-3.1-1.6-3.1-5.3c0-3.7,1.6-5.4,3.4-5.4
		C548.8,83.2,550.1,84.9,550.1,88.4z M544.4,88.6c0,2.9,1,4.6,2.5,4.6c1.7,0,2.5-2,2.5-4.8c0-2.7-0.7-4.6-2.5-4.6
		C545.4,83.9,544.4,85.6,544.4,88.6z"/>
	<path class="st17" d="M551.6,93.2c0-0.4,0.3-0.7,0.7-0.7c0.4,0,0.6,0.3,0.6,0.7c0,0.4-0.3,0.7-0.7,0.7
		C551.9,93.9,551.6,93.6,551.6,93.2z"/>
	<path class="st17" d="M560.8,88.4c0,3.7-1.3,5.5-3.4,5.5c-1.6,0-3.1-1.6-3.1-5.3c0-3.7,1.6-5.4,3.4-5.4
		C559.5,83.2,560.8,84.9,560.8,88.4z M555.1,88.6c0,2.9,1,4.6,2.5,4.6c1.7,0,2.5-2,2.5-4.8c0-2.7-0.7-4.6-2.5-4.6
		C556.2,83.9,555.1,85.6,555.1,88.6z"/>
</g>
<g>
	<path class="st17" d="M618.1,91c0-1.2,0.7-2.1,1.8-2.6v0c-1-0.5-1.5-1.4-1.5-2.3c0-1.7,1.6-2.9,3.6-2.9c2.4,0,3.4,1.4,3.4,2.7
		c0,0.9-0.5,1.8-1.5,2.3v0c1,0.4,1.9,1.2,1.9,2.6c0,1.9-1.6,3.1-4,3.1C619.4,93.9,618.1,92.4,618.1,91z M623.5,90.9
		c0-0.9-0.7-1.4-1.6-1.7c-0.8,0.2-1.3,0.8-1.3,1.5c0,0.7,0.6,1.4,1.5,1.4C622.9,92.2,623.5,91.7,623.5,90.9z M620.8,86
		c0,0.7,0.6,1.1,1.5,1.4c0.6-0.2,1-0.7,1-1.3c0-0.6-0.4-1.3-1.3-1.3C621.2,84.9,620.8,85.4,620.8,86z"/>
	<path class="st17" d="M627.6,92.4c0-0.9,0.6-1.5,1.4-1.5s1.4,0.6,1.4,1.5c0,0.8-0.6,1.5-1.4,1.5C628.2,93.9,627.6,93.3,627.6,92.4z
		"/>
	<path class="st17" d="M639.1,85.4h-4l-0.2,1.6c0.2,0,0.4,0,0.7,0c1,0,2,0.2,2.7,0.7c0.8,0.5,1.3,1.4,1.3,2.6c0,1.9-1.7,3.6-4.4,3.6
		c-1.3,0-2.3-0.3-2.9-0.6l0.4-1.8c0.5,0.2,1.4,0.5,2.3,0.5c1,0,2.1-0.5,2.1-1.6c0-1.1-0.8-1.7-2.9-1.7c-0.6,0-1,0-1.4,0.1l0.7-5.4
		h5.7V85.4z"/>
</g>
<g>
	<path class="st17" d="M41.5,129.6v6.5c0,2.7,1.3,3.8,2.8,3.8c1.8,0,3-1.1,3-3.8v-6.5h0.8v6.4c0,3.3-1.8,4.5-3.8,4.5
		c-1.9,0-3.6-1.1-3.6-4.4v-6.5H41.5z"/>
	<path class="st17" d="M51.8,131v1.7H54v0.6h-2.2v5c0,1,0.3,1.6,1.1,1.6c0.4,0,0.7,0,0.9-0.1l0.1,0.6c-0.3,0.1-0.6,0.2-1.1,0.2
		c-0.6,0-1-0.2-1.3-0.5c-0.3-0.4-0.5-1-0.5-1.8v-4.8h-1.3v-0.6H51v-1.4L51.8,131z"/>
	<path class="st17" d="M56.8,130.5c0,0.3-0.2,0.7-0.6,0.7c-0.3,0-0.6-0.3-0.6-0.7c0-0.3,0.3-0.7,0.6-0.7
		C56.5,129.8,56.8,130.1,56.8,130.5z M55.8,140.3v-7.6h0.8v7.6H55.8z"/>
	<path class="st17" d="M59.1,129h0.8v11.3h-0.8V129z"/>
	<path class="st17" d="M63.5,130.5c0,0.3-0.2,0.7-0.6,0.7c-0.3,0-0.6-0.3-0.6-0.7c0-0.3,0.3-0.7,0.6-0.7
		C63.3,129.8,63.5,130.1,63.5,130.5z M62.5,140.3v-7.6h0.8v7.6H62.5z"/>
	<path class="st17" d="M72.1,129v9.5c0,0.6,0,1.2,0.1,1.8h-0.7l-0.1-1.4h0c-0.4,0.8-1.3,1.6-2.7,1.6c-1.9,0-3.3-1.6-3.3-3.8
		c0-2.5,1.6-4.1,3.4-4.1c1.3,0,2.2,0.7,2.5,1.4h0V129H72.1z M71.3,135.7c0-0.2,0-0.5-0.1-0.7c-0.3-1-1.2-1.9-2.4-1.9
		c-1.7,0-2.7,1.4-2.7,3.4c0,1.7,0.9,3.3,2.7,3.3c1.1,0,2.1-0.7,2.4-2c0.1-0.2,0.1-0.4,0.1-0.6V135.7z"/>
	<path class="st17" d="M79.4,138.5c0,0.6,0,1.2,0.1,1.8h-0.7l-0.1-1.1h0c-0.4,0.6-1.2,1.3-2.4,1.3c-1.5,0-2.2-1.1-2.2-2.1
		c0-1.8,1.5-2.8,4.7-2.8v-0.2c0-0.7-0.1-2.3-2-2.2c-0.7,0-1.4,0.2-1.9,0.6l-0.2-0.6c0.7-0.5,1.6-0.7,2.2-0.7c2.2,0,2.6,1.7,2.6,3
		V138.5z M78.7,136.2c-1.7,0-3.9,0.2-3.9,2c0,1.1,0.7,1.6,1.5,1.6c1.3,0,2-0.8,2.3-1.5c0.1-0.2,0.1-0.3,0.1-0.5V136.2z"/>
	<path class="st17" d="M88.2,129v9.5c0,0.6,0,1.2,0.1,1.8h-0.7l-0.1-1.4h0c-0.4,0.8-1.3,1.6-2.7,1.6c-1.9,0-3.3-1.6-3.3-3.8
		c0-2.5,1.6-4.1,3.4-4.1c1.3,0,2.2,0.7,2.5,1.4h0V129H88.2z M87.4,135.7c0-0.2,0-0.5-0.1-0.7c-0.3-1-1.2-1.9-2.4-1.9
		c-1.7,0-2.7,1.4-2.7,3.4c0,1.7,0.9,3.3,2.7,3.3c1.1,0,2.1-0.7,2.4-2c0.1-0.2,0.1-0.4,0.1-0.6V135.7z"/>
	<path class="st17" d="M94.8,129h0.8v5.1h0c0.5-1,1.4-1.6,2.8-1.6c1.9,0,3.3,1.6,3.3,3.9c0,2.7-1.7,4.1-3.4,4.1
		c-1.2,0-2.1-0.5-2.7-1.6h0l-0.1,1.4h-0.7c0-0.5,0.1-1.2,0.1-1.8V129z M95.6,137.4c0,0.2,0,0.4,0.1,0.6c0.3,1.2,1.3,1.9,2.5,1.9
		c1.7,0,2.7-1.4,2.7-3.4c0-1.7-1-3.3-2.7-3.3c-1.1,0-2.2,0.8-2.5,2c0,0.2-0.1,0.4-0.1,0.7V137.4z"/>
	<path class="st17" d="M103.8,135c0-0.8,0-1.5-0.1-2.3h0.7l0,1.5h0c0.3-1,1.1-1.7,2.2-1.7c0.1,0,0.2,0,0.3,0v0.7c-0.1,0-0.2,0-0.4,0
		c-1,0-1.8,0.9-2,2.1c0,0.2-0.1,0.5-0.1,0.7v4.2h-0.8V135z"/>
	<path class="st17" d="M114.5,138.4c0,0.7,0,1.3,0.1,1.9h-0.7l0-1.4h0c-0.4,0.7-1.3,1.5-2.6,1.5c-1,0-2.6-0.5-2.6-3.4v-4.4h0.8v4.3
		c0,1.7,0.5,2.8,2,2.8c1.1,0,1.9-0.8,2.3-1.5c0.1-0.2,0.1-0.5,0.1-0.8v-4.7h0.8V138.4z"/>
	<path class="st17" d="M118.3,131v1.7h2.2v0.6h-2.2v5c0,1,0.3,1.6,1.1,1.6c0.4,0,0.7,0,0.9-0.1l0.1,0.6c-0.3,0.1-0.6,0.2-1.1,0.2
		c-0.6,0-1-0.2-1.3-0.5c-0.3-0.4-0.5-1-0.5-1.8v-4.8h-1.3v-0.6h1.3v-1.4L118.3,131z"/>
	<path class="st17" d="M127.1,138.5c0,0.6,0,1.2,0.1,1.8h-0.7l-0.1-1.1h0c-0.4,0.6-1.2,1.3-2.4,1.3c-1.5,0-2.2-1.1-2.2-2.1
		c0-1.8,1.5-2.8,4.7-2.8v-0.2c0-0.7-0.1-2.3-2-2.2c-0.7,0-1.4,0.2-1.9,0.6l-0.2-0.6c0.7-0.5,1.6-0.7,2.2-0.7c2.2,0,2.6,1.7,2.6,3
		V138.5z M126.4,136.2c-1.7,0-3.9,0.2-3.9,2c0,1.1,0.7,1.6,1.5,1.6c1.3,0,2-0.8,2.3-1.5c0.1-0.2,0.1-0.3,0.1-0.5V136.2z"/>
</g>
<g>
	<path class="st17" d="M269.9,132.1L269.9,132.1l-2,0.9l-0.4-1.8l2.7-1.3h2v10.3h-2.3V132.1z"/>
	<path class="st17" d="M281.8,131.7c-0.3,0-0.6,0-0.9,0c-2.1,0.2-3.1,1.3-3.4,2.5h0c0.5-0.5,1.2-0.8,2.2-0.8c1.7,0,3.2,1.2,3.2,3.4
		c0,2-1.6,3.7-3.8,3.7c-2.7,0-4.1-2-4.1-4.5c0-1.9,0.7-3.6,1.8-4.6c1-0.9,2.4-1.4,4-1.5c0.4,0,0.7,0,1,0V131.7z M280.5,136.9
		c0-1-0.5-1.8-1.5-1.8c-0.7,0-1.2,0.4-1.4,0.9c-0.1,0.1-0.1,0.3-0.1,0.6c0,1.1,0.6,2.1,1.7,2.1C280,138.7,280.5,137.9,280.5,136.9z"
		/>
	<path class="st17" d="M284.2,140.3v-1.5l1.3-1.2c2.3-2,3.4-3.2,3.4-4.4c0-0.8-0.5-1.5-1.7-1.5c-0.9,0-1.7,0.4-2.2,0.9l-0.7-1.7
		c0.8-0.6,2-1.1,3.4-1.1c2.3,0,3.6,1.4,3.6,3.2c0,1.7-1.3,3.1-2.7,4.4l-1,0.8v0h3.9v2H284.2z"/>
	<path class="st17" d="M292.9,142.2c0.5-1.4,0.9-3.1,1.1-4.5l2.5-0.2c-0.5,1.6-1.2,3.3-2,4.5L292.9,142.2z"/>
	<path class="st17" d="M305.6,135.1c0,3.2-1.3,5.4-3.9,5.4c-2.7,0-3.8-2.4-3.9-5.3c0-3,1.3-5.4,3.9-5.4
		C304.5,129.8,305.6,132.3,305.6,135.1z M300.3,135.2c0,2.4,0.6,3.5,1.5,3.5c0.9,0,1.4-1.2,1.4-3.5c0-2.3-0.5-3.5-1.5-3.5
		C300.8,131.6,300.2,132.8,300.3,135.2z"/>
	<path class="st17" d="M311.5,140.3v-2.5H307v-1.6l3.9-6.3h3v6.1h1.2v1.8h-1.2v2.5H311.5z M311.5,136v-2.3c0-0.6,0-1.3,0.1-1.9h-0.1
		c-0.3,0.7-0.6,1.3-1,1.9l-1.4,2.3v0H311.5z"/>
	<path class="st17" d="M324.2,135.1c0,3.2-1.3,5.4-3.9,5.4c-2.7,0-3.8-2.4-3.9-5.3c0-3,1.3-5.4,3.9-5.4
		C323.1,129.8,324.2,132.3,324.2,135.1z M318.8,135.2c0,2.4,0.6,3.5,1.5,3.5c0.9,0,1.4-1.2,1.4-3.5c0-2.3-0.5-3.5-1.5-3.5
		C319.4,131.6,318.8,132.8,318.8,135.2z"/>
</g>
<g>
	<path class="st17" d="M374.3,140.3v-1.5l1.3-1.2c2.3-2,3.4-3.2,3.4-4.4c0-0.8-0.5-1.5-1.7-1.5c-0.9,0-1.7,0.4-2.2,0.9l-0.7-1.7
		c0.8-0.6,2-1.1,3.4-1.1c2.3,0,3.6,1.4,3.6,3.2c0,1.7-1.3,3.1-2.7,4.4l-1,0.8v0h3.9v2H374.3z"/>
	<path class="st17" d="M383.7,137.9c0.4,0.2,1.4,0.6,2.4,0.6c1.3,0,1.9-0.6,1.9-1.4c0-1-1-1.5-2.1-1.5h-1V134h0.9
		c0.8,0,1.8-0.3,1.8-1.2c0-0.6-0.5-1.1-1.5-1.1c-0.8,0-1.7,0.4-2.2,0.6l-0.5-1.7c0.6-0.4,1.9-0.8,3.2-0.8c2.2,0,3.4,1.2,3.4,2.6
		c0,1.1-0.6,2-1.9,2.4v0c1.2,0.2,2.2,1.2,2.2,2.5c0,1.8-1.6,3.2-4.2,3.2c-1.3,0-2.5-0.3-3.1-0.7L383.7,137.9z"/>
	<path class="st17" d="M392.3,139c0-0.9,0.6-1.5,1.4-1.5s1.4,0.6,1.4,1.5c0,0.8-0.6,1.5-1.4,1.5C392.9,140.5,392.3,139.9,392.3,139z
		"/>
	<path class="st17" d="M398.6,132.1L398.6,132.1l-2,0.9l-0.4-1.8l2.7-1.3h2v10.3h-2.3V132.1z"/>
</g>
<g>
	<path class="st17" d="M437.6,130.8L437.6,130.8l-1.7,1l-0.2-0.6l2-1.2h0.7v10.3h-0.7V130.8z"/>
	<path class="st17" d="M445.9,140.3v-3H441v-0.5l5-6.8h0.6v6.7h1.6v0.6h-1.6v3H445.9z M445.9,136.6v-4.2c0-0.5,0-1,0-1.4l0,0
		c-0.3,0.6-0.6,0.9-0.8,1.3l-3.2,4.3v0H445.9z"/>
	<path class="st17" d="M451.8,134.8c-1.3-0.5-1.7-1.4-1.7-2.3c0-1.6,1.3-2.7,2.9-2.7c1.7,0,2.7,1.2,2.7,2.5c0,0.9-0.4,1.8-1.8,2.5
		v0.1c1.5,0.6,2.2,1.5,2.2,2.7c0,1.7-1.5,2.9-3.2,2.9c-1.8,0-3.2-1.2-3.2-2.7C449.7,136.4,450.5,135.4,451.8,134.8L451.8,134.8z
		 M455.3,137.7c0-1.5-1-2.1-2.7-2.6c-1.5,0.4-2.2,1.4-2.2,2.5c-0.1,1.2,0.9,2.3,2.4,2.3C454.4,139.8,455.3,138.9,455.3,137.7z
		 M450.8,132.3c0,1.2,0.9,1.9,2.3,2.2c1.1-0.4,1.9-1.1,1.9-2.2c0-0.9-0.6-1.9-2-1.9C451.6,130.4,450.8,131.3,450.8,132.3z"/>
	<path class="st17" d="M457.4,142.3c0.3-0.7,0.7-2.4,0.8-3.4l1-0.2c-0.3,1.2-1,3-1.2,3.4L457.4,142.3z"/>
	<path class="st17" d="M467.2,135c0,3.7-1.3,5.5-3.4,5.5c-1.6,0-3.1-1.6-3.1-5.3c0-3.7,1.6-5.4,3.4-5.4
		C465.8,129.8,467.2,131.4,467.2,135z M461.4,135.2c0,2.9,1,4.6,2.5,4.6c1.7,0,2.5-2,2.5-4.8c0-2.7-0.7-4.6-2.5-4.6
		C462.5,130.4,461.4,132.2,461.4,135.2z"/>
	<path class="st17" d="M474.2,130.7h-3.9l-0.5,3.3c0.2,0,0.5-0.1,1-0.1c0.7,0,1.3,0.1,1.9,0.4c0.8,0.4,1.6,1.3,1.6,2.7
		c0,2.1-1.6,3.5-3.5,3.5c-1.1,0-1.9-0.3-2.4-0.7l0.3-0.6c0.4,0.3,1.2,0.6,2.1,0.6c1.5,0,2.7-1.1,2.7-2.7c0-1.5-0.9-2.6-3-2.6
		c-0.6,0-1.1,0-1.5,0.1l0.7-4.7h4.5V130.7z"/>
	<path class="st17" d="M478.5,130.8L478.5,130.8l-1.7,1l-0.2-0.6l2-1.2h0.7v10.3h-0.7V130.8z"/>
</g>
<g>
	<path class="st17" d="M536.3,140.3v-0.5l1-1c2.9-2.8,4.1-4.3,4.1-6c0-1.2-0.5-2.3-2.2-2.3c-1,0-1.7,0.5-2.2,0.9l-0.3-0.5
		c0.7-0.6,1.6-1,2.6-1c2.1,0,2.9,1.6,2.9,2.8c0,2-1.5,3.7-4.1,6.2l-0.7,0.7v0h5.1v0.7H536.3z"/>
	<path class="st17" d="M544.1,140.3v-0.5l1-1c2.9-2.8,4.1-4.3,4.1-6c0-1.2-0.5-2.3-2.2-2.3c-1,0-1.7,0.5-2.2,0.9l-0.3-0.5
		c0.7-0.6,1.6-1,2.6-1c2.1,0,2.9,1.6,2.9,2.8c0,2-1.5,3.7-4.1,6.2l-0.7,0.7v0h5.1v0.7H544.1z"/>
	<path class="st17" d="M552,139.8c0-0.4,0.3-0.7,0.7-0.7c0.4,0,0.6,0.3,0.6,0.7c0,0.4-0.3,0.7-0.7,0.7
		C552.3,140.5,552,140.1,552,139.8z"/>
	<path class="st17" d="M555.3,139.8c0.3,0,0.7,0,1.2-0.1c0.8-0.1,1.6-0.5,2.3-1.2c0.7-0.7,1.2-1.8,1.4-3.3l0,0
		c-0.7,0.8-1.6,1.3-2.7,1.3c-1.9,0-3-1.5-3-3.1c0-1.9,1.3-3.6,3.3-3.6c1.8,0,3.1,1.5,3.1,4.3c0,2.3-0.8,3.9-1.8,4.9
		c-0.7,0.7-1.6,1.2-2.4,1.3c-0.6,0.1-1,0.2-1.4,0.1V139.8z M555.2,133.4c0,1.5,1,2.5,2.3,2.5c1.1,0,2-0.6,2.5-1.3
		c0.1-0.1,0.1-0.3,0.1-0.5c0-2.2-0.8-3.7-2.5-3.7C556.2,130.4,555.2,131.7,555.2,133.4z"/>
</g>
<g>
	<path class="st17" d="M619.8,138.6c0.3,0,0.6,0,1,0c0.7,0,1.5-0.3,2-0.6c0.7-0.5,1.1-1.1,1.3-1.9l0,0c-0.5,0.5-1.1,0.7-2.1,0.7
		c-1.7,0-3.2-1.2-3.2-3.2c0-2,1.6-3.7,3.9-3.7c2.7,0,3.9,2,3.9,4.4c0,2.1-0.7,3.7-1.8,4.7c-1,0.9-2.3,1.4-3.9,1.4
		c-0.4,0-0.8,0-1.1,0V138.6z M621.3,133.4c0,0.9,0.5,1.7,1.5,1.7c0.7,0,1.1-0.3,1.3-0.7c0.1-0.1,0.1-0.3,0.1-0.6
		c0-1.1-0.4-2.2-1.5-2.2C621.9,131.6,621.3,132.3,621.3,133.4z"/>
	<path class="st17" d="M627.8,139c0-0.9,0.6-1.5,1.4-1.5s1.4,0.6,1.4,1.5c0,0.8-0.6,1.5-1.4,1.5C628.4,140.5,627.8,139.9,627.8,139z
		"/>
	<path class="st17" d="M636.5,140.3v-2.5h-4.6v-1.6l3.9-6.3h3v6.1h1.2v1.8h-1.2v2.5H636.5z M636.5,136v-2.3c0-0.6,0-1.3,0.1-1.9
		h-0.1c-0.3,0.7-0.6,1.3-1,1.9l-1.4,2.3v0H636.5z"/>
</g>
<g>
	<path class="st17" d="M48.4,186.4c-0.5,0.2-1.7,0.6-3.1,0.6c-1.4,0-2.7-0.4-3.8-1.4c-0.9-0.9-1.5-2.3-1.5-4c0-3,2-5.5,5.6-5.5
		c1.1,0,2.1,0.3,2.5,0.5l-0.3,0.6c-0.6-0.3-1.3-0.5-2.3-0.5c-2.9,0-4.7,1.9-4.7,4.8c0,3,1.8,4.8,4.6,4.8c1.1,0,1.8-0.2,2.2-0.4v-3.8
		h-2.5v-0.6h3.2V186.4z"/>
	<path class="st17" d="M55.5,185.1c0,0.6,0,1.2,0.1,1.8h-0.7l-0.1-1.1h0c-0.4,0.6-1.2,1.3-2.4,1.3c-1.5,0-2.2-1.1-2.2-2.1
		c0-1.8,1.5-2.8,4.7-2.8V182c0-0.7-0.1-2.3-2-2.2c-0.7,0-1.4,0.2-1.9,0.6l-0.2-0.6c0.7-0.5,1.6-0.7,2.2-0.7c2.2,0,2.6,1.7,2.6,3
		V185.1z M54.8,182.8c-1.7,0-3.9,0.2-3.9,2c0,1.1,0.7,1.6,1.5,1.6c1.3,0,2-0.8,2.3-1.5c0.1-0.2,0.1-0.3,0.1-0.5V182.8z"/>
	<path class="st17" d="M57.7,185.9c0.4,0.3,1,0.5,1.7,0.5c1.2,0,1.8-0.7,1.8-1.4c0-0.8-0.5-1.3-1.6-1.7c-1.3-0.5-1.9-1.2-1.9-2.1
		c0-1.1,0.9-2.1,2.4-2.1c0.7,0,1.3,0.2,1.7,0.5l-0.3,0.6c-0.3-0.2-0.8-0.5-1.5-0.5c-1,0-1.5,0.6-1.5,1.3c0,0.8,0.5,1.1,1.6,1.6
		c1.2,0.5,2,1.1,2,2.3c0,1.3-1,2.2-2.6,2.2c-0.7,0-1.4-0.2-1.9-0.5L57.7,185.9z"/>
	<path class="st17" d="M65.3,177.6v1.7h2.2v0.6h-2.2v5c0,1,0.3,1.6,1.1,1.6c0.4,0,0.7,0,0.9-0.1l0.1,0.6c-0.3,0.1-0.6,0.2-1.1,0.2
		c-0.6,0-1-0.2-1.3-0.5c-0.3-0.4-0.5-1-0.5-1.8v-4.8h-1.3v-0.6h1.3v-1.4L65.3,177.6z"/>
	<path class="st17" d="M75.6,183c0,2.8-2,4.1-3.7,4.1c-2,0-3.5-1.5-3.5-3.9c0-2.6,1.7-4.1,3.6-4.1C74.2,179.1,75.6,180.7,75.6,183z
		 M69.2,183.1c0,1.9,1.2,3.3,2.8,3.3c1.6,0,2.8-1.4,2.8-3.4c0-1.4-0.8-3.3-2.8-3.3C70.1,179.7,69.2,181.5,69.2,183.1z"/>
	<path class="st17" d="M77.3,185.9c0.4,0.3,1,0.5,1.7,0.5c1.2,0,1.8-0.7,1.8-1.4c0-0.8-0.5-1.3-1.6-1.7c-1.3-0.5-1.9-1.2-1.9-2.1
		c0-1.1,0.9-2.1,2.4-2.1c0.7,0,1.3,0.2,1.7,0.5l-0.3,0.6c-0.3-0.2-0.8-0.5-1.5-0.5c-1,0-1.5,0.6-1.5,1.3c0,0.8,0.5,1.1,1.6,1.6
		c1.2,0.5,2,1.1,2,2.3c0,1.3-1,2.2-2.6,2.2c-0.7,0-1.4-0.2-1.9-0.5L77.3,185.9z"/>
	<path class="st17" d="M93.7,185.8c0,2-0.4,2.9-1,3.5c-0.7,0.7-1.7,0.9-2.6,0.9c-0.9,0-1.8-0.2-2.4-0.7l0.3-0.6
		c0.5,0.3,1.3,0.6,2.3,0.6c1.6,0,2.8-0.8,2.8-3.1v-1.1h0c-0.4,0.8-1.3,1.5-2.7,1.5c-1.9,0-3.3-1.7-3.3-3.7c0-2.7,1.7-4.1,3.4-4.1
		c1.5,0,2.3,0.8,2.6,1.5h0l0-1.3h0.7c0,0.6-0.1,1.2-0.1,2V185.8z M92.9,182.2c0-0.3,0-0.5-0.1-0.7c-0.3-0.9-1.1-1.7-2.4-1.7
		c-1.6,0-2.7,1.3-2.7,3.3c0,1.7,0.9,3.2,2.7,3.2c1,0,2-0.6,2.4-1.7c0.1-0.3,0.1-0.5,0.1-0.8V182.2z"/>
	<path class="st17" d="M96.6,183c0,2.4,1.3,3.4,2.9,3.4c1.1,0,1.7-0.2,2.1-0.4l0.2,0.6c-0.3,0.2-1.1,0.5-2.4,0.5
		c-2.2,0-3.6-1.6-3.6-3.8c0-2.5,1.5-4.1,3.4-4.1c2.5,0,3,2.4,3,3.4c0,0.2,0,0.3,0,0.5H96.6z M101.4,182.4c0-1.1-0.4-2.7-2.3-2.7
		c-1.7,0-2.4,1.5-2.6,2.7H101.4z"/>
	<path class="st17" d="M104.2,181.1c0-0.7,0-1.2-0.1-1.8h0.7l0,1.4h0c0.4-0.9,1.4-1.6,2.6-1.6c0.7,0,2.7,0.4,2.7,3.2v4.6h-0.8v-4.5
		c0-1.4-0.5-2.6-2.1-2.6c-1.1,0-2,0.8-2.3,1.7c0,0.2-0.1,0.4-0.1,0.7v4.7h-0.8V181.1z"/>
	<path class="st17" d="M113.1,183c0,2.4,1.3,3.4,2.9,3.4c1.1,0,1.7-0.2,2.1-0.4l0.2,0.6c-0.3,0.2-1.1,0.5-2.4,0.5
		c-2.2,0-3.6-1.6-3.6-3.8c0-2.5,1.5-4.1,3.4-4.1c2.5,0,3,2.4,3,3.4c0,0.2,0,0.3,0,0.5H113.1z M117.9,182.4c0-1.1-0.4-2.7-2.3-2.7
		c-1.7,0-2.4,1.5-2.6,2.7H117.9z"/>
	<path class="st17" d="M120.7,181.6c0-0.8,0-1.5-0.1-2.3h0.7l0,1.5h0c0.3-1,1.1-1.7,2.2-1.7c0.1,0,0.2,0,0.3,0v0.7
		c-0.1,0-0.2,0-0.4,0c-1,0-1.8,0.9-2,2.1c0,0.2-0.1,0.5-0.1,0.7v4.2h-0.8V181.6z"/>
	<path class="st17" d="M130.4,185.1c0,0.6,0,1.2,0.1,1.8h-0.7l-0.1-1.1h0c-0.4,0.6-1.2,1.3-2.4,1.3c-1.5,0-2.2-1.1-2.2-2.1
		c0-1.8,1.5-2.8,4.7-2.8V182c0-0.7-0.1-2.3-2-2.2c-0.7,0-1.4,0.2-1.9,0.6l-0.2-0.6c0.7-0.5,1.6-0.7,2.2-0.7c2.2,0,2.6,1.7,2.6,3
		V185.1z M129.6,182.8c-1.7,0-3.9,0.2-3.9,2c0,1.1,0.7,1.6,1.5,1.6c1.3,0,2-0.8,2.3-1.5c0.1-0.2,0.1-0.3,0.1-0.5V182.8z"/>
	<path class="st17" d="M132.9,175.6h0.8v11.3h-0.8V175.6z"/>
	<path class="st17" d="M136.6,183c0,2.4,1.3,3.4,2.9,3.4c1.1,0,1.7-0.2,2.1-0.4l0.2,0.6c-0.3,0.2-1.1,0.5-2.4,0.5
		c-2.2,0-3.6-1.6-3.6-3.8c0-2.5,1.5-4.1,3.4-4.1c2.5,0,3,2.4,3,3.4c0,0.2,0,0.3,0,0.5H136.6z M141.5,182.4c0-1.1-0.4-2.7-2.3-2.7
		c-1.7,0-2.4,1.5-2.6,2.7H141.5z"/>
	<path class="st17" d="M144,185.9c0.4,0.3,1,0.5,1.7,0.5c1.2,0,1.8-0.7,1.8-1.4c0-0.8-0.5-1.3-1.6-1.7c-1.3-0.5-1.9-1.2-1.9-2.1
		c0-1.1,0.9-2.1,2.4-2.1c0.7,0,1.3,0.2,1.7,0.5l-0.3,0.6c-0.3-0.2-0.8-0.5-1.5-0.5c-1,0-1.5,0.6-1.5,1.3c0,0.8,0.5,1.1,1.6,1.6
		c1.2,0.5,2,1.1,2,2.3c0,1.3-1,2.2-2.6,2.2c-0.7,0-1.4-0.2-1.9-0.5L144,185.9z"/>
</g>
<g>
	<path class="st17" d="M270.6,178.7L270.6,178.7l-2,0.9l-0.4-1.8l2.7-1.3h2v10.3h-2.3V178.7z"/>
	<path class="st17" d="M283.6,181.7c0,3.2-1.3,5.4-3.9,5.4c-2.7,0-3.8-2.4-3.9-5.3c0-3,1.3-5.4,3.9-5.4
		C282.5,176.4,283.6,178.9,283.6,181.7z M278.2,181.8c0,2.4,0.6,3.5,1.5,3.5c0.9,0,1.4-1.2,1.4-3.5c0-2.3-0.5-3.5-1.5-3.5
		C278.8,178.2,278.2,179.4,278.2,181.8z"/>
	<path class="st17" d="M291.9,178.6h-4l-0.2,1.6c0.2,0,0.4,0,0.7,0c1,0,2,0.2,2.7,0.7c0.8,0.5,1.3,1.4,1.3,2.6
		c0,1.9-1.7,3.6-4.4,3.6c-1.3,0-2.3-0.3-2.9-0.6l0.4-1.8c0.5,0.2,1.4,0.5,2.3,0.5c1,0,2.1-0.5,2.1-1.6c0-1.1-0.8-1.7-2.9-1.7
		c-0.6,0-1,0-1.4,0.1l0.7-5.4h5.7V178.6z"/>
	<path class="st17" d="M293.4,188.8c0.5-1.4,0.9-3.1,1.1-4.5l2.5-0.2c-0.5,1.6-1.2,3.3-2,4.5L293.4,188.8z"/>
	<path class="st17" d="M306.1,181.7c0,3.2-1.3,5.4-3.9,5.4c-2.7,0-3.8-2.4-3.9-5.3c0-3,1.3-5.4,3.9-5.4
		C305,176.4,306.1,178.9,306.1,181.7z M300.7,181.8c0,2.4,0.6,3.5,1.5,3.5c0.9,0,1.4-1.2,1.4-3.5c0-2.3-0.5-3.5-1.5-3.5
		C301.3,178.2,300.7,179.4,300.7,181.8z"/>
	<path class="st17" d="M312,186.9v-2.5h-4.6v-1.6l3.9-6.3h3v6.1h1.2v1.8h-1.2v2.5H312z M312,182.6v-2.3c0-0.6,0-1.3,0.1-1.9H312
		c-0.3,0.7-0.6,1.3-1,1.9l-1.4,2.3v0H312z"/>
	<path class="st17" d="M316.6,186.9v-1.5l1.3-1.2c2.3-2,3.4-3.2,3.4-4.4c0-0.8-0.5-1.5-1.7-1.5c-0.9,0-1.7,0.4-2.2,0.9l-0.7-1.7
		c0.8-0.6,2-1.1,3.4-1.1c2.3,0,3.6,1.4,3.6,3.2c0,1.7-1.3,3.1-2.7,4.4l-1,0.8v0h3.9v2H316.6z"/>
</g>
<g>
	<path class="st17" d="M377.1,178.7L377.1,178.7l-2,0.9l-0.4-1.8l2.7-1.3h2v10.3h-2.3V178.7z"/>
	<path class="st17" d="M389.1,178.6h-4l-0.2,1.6c0.2,0,0.4,0,0.7,0c1,0,2,0.2,2.7,0.7c0.8,0.5,1.3,1.4,1.3,2.6
		c0,1.9-1.7,3.6-4.4,3.6c-1.3,0-2.3-0.3-2.9-0.6l0.4-1.8c0.5,0.2,1.4,0.5,2.3,0.5c1,0,2.1-0.5,2.1-1.6c0-1.1-0.8-1.7-2.9-1.7
		c-0.6,0-1,0-1.4,0.1l0.7-5.4h5.7V178.6z"/>
	<path class="st17" d="M391.2,185.6c0-0.9,0.6-1.5,1.4-1.5s1.4,0.6,1.4,1.5c0,0.8-0.6,1.5-1.4,1.5
		C391.8,187.1,391.2,186.5,391.2,185.6z"/>
	<path class="st17" d="M403.1,181.7c0,3.2-1.3,5.4-3.9,5.4c-2.7,0-3.8-2.4-3.9-5.3c0-3,1.3-5.4,3.9-5.4
		C402,176.4,403.1,178.9,403.1,181.7z M397.7,181.8c0,2.4,0.6,3.5,1.5,3.5s1.4-1.2,1.4-3.5c0-2.3-0.5-3.5-1.5-3.5
		C398.3,178.2,397.7,179.4,397.7,181.8z"/>
</g>
<g>
	<path class="st17" d="M442.7,186.4c0.3,0,0.7,0,1.2-0.1c0.8-0.1,1.6-0.5,2.3-1.2c0.7-0.7,1.2-1.8,1.4-3.3l0,0
		c-0.7,0.8-1.6,1.3-2.7,1.3c-1.9,0-3-1.5-3-3.1c0-1.9,1.3-3.6,3.3-3.6c1.8,0,3.1,1.5,3.1,4.3c0,2.3-0.8,3.9-1.8,4.9
		c-0.7,0.7-1.6,1.2-2.4,1.3c-0.6,0.1-1,0.2-1.4,0.1V186.4z M442.6,180c0,1.5,1,2.5,2.3,2.5c1.1,0,2-0.6,2.5-1.3
		c0.1-0.1,0.1-0.3,0.1-0.5c0-2.2-0.8-3.7-2.5-3.7C443.6,177,442.6,178.3,442.6,180z"/>
	<path class="st17" d="M454.3,186.9v-3h-4.9v-0.5l5-6.8h0.6v6.7h1.6v0.6h-1.6v3H454.3z M454.3,183.2v-4.2c0-0.5,0-1,0-1.4l0,0
		c-0.3,0.6-0.6,0.9-0.8,1.3l-3.2,4.3v0H454.3z"/>
	<path class="st17" d="M457.4,188.9c0.3-0.7,0.7-2.4,0.8-3.4l1-0.2c-0.3,1.2-1,3-1.2,3.4L457.4,188.9z"/>
	<path class="st17" d="M465,186.9v-3h-4.9v-0.5l5-6.8h0.6v6.7h1.6v0.6h-1.6v3H465z M465,183.2v-4.2c0-0.5,0-1,0-1.4l0,0
		c-0.3,0.6-0.6,0.9-0.8,1.3l-3.2,4.3v0H465z"/>
	<path class="st17" d="M468.1,186.9v-0.5l1-1c2.9-2.8,4.1-4.3,4.1-6c0-1.2-0.5-2.3-2.2-2.3c-1,0-1.7,0.5-2.2,0.9l-0.3-0.5
		c0.7-0.6,1.6-1,2.6-1c2.1,0,2.9,1.6,2.9,2.8c0,2-1.5,3.7-4.1,6.2l-0.7,0.7v0h5.1v0.7H468.1z"/>
	<path class="st17" d="M481.9,176.6v0.6l-4.7,9.8h-0.7l4.6-9.6v0h-5.2v-0.7H481.9z"/>
</g>
<g>
	<path class="st17" d="M539.8,177.4L539.8,177.4l-1.7,1l-0.2-0.6l2-1.2h0.7v10.3h-0.7V177.4z"/>
	<path class="st17" d="M548.1,186.9v-3h-4.9v-0.5l5-6.8h0.6v6.7h1.6v0.6h-1.6v3H548.1z M548.1,183.2v-4.2c0-0.5,0-1,0-1.4l0,0
		c-0.3,0.6-0.6,0.9-0.8,1.3l-3.2,4.3v0H548.1z"/>
	<path class="st17" d="M551.6,186.4c0-0.4,0.3-0.7,0.7-0.7c0.4,0,0.6,0.3,0.6,0.7c0,0.4-0.3,0.7-0.7,0.7
		C551.8,187.1,551.6,186.7,551.6,186.4z"/>
	<path class="st17" d="M559.9,177.1c-0.3,0-0.7,0-1.1,0.1c-2.2,0.5-3.5,2.4-3.7,4.4h0c0.5-0.8,1.4-1.4,2.7-1.4
		c1.9,0,3.1,1.4,3.1,3.3c0,1.8-1.1,3.6-3.2,3.6c-1.9,0-3.4-1.5-3.4-4.3c0-2.1,0.7-3.7,1.7-4.7c0.7-0.8,1.8-1.3,2.9-1.5
		c0.4-0.1,0.8-0.1,1-0.1V177.1z M560.1,183.5c0-1.8-1.1-2.7-2.5-2.7c-1,0-1.9,0.6-2.4,1.5c-0.1,0.2-0.2,0.4-0.2,0.6
		c0,2.1,0.9,3.5,2.7,3.5C559.1,186.4,560.1,185.3,560.1,183.5z"/>
</g>
<g>
	<path class="st17" d="M614.6,178.7L614.6,178.7l-2,0.9l-0.4-1.8l2.7-1.3h2v10.3h-2.3V178.7z"/>
	<path class="st17" d="M622.2,178.7L622.2,178.7l-2,0.9l-0.4-1.8l2.7-1.3h2v10.3h-2.3V178.7z"/>
	<path class="st17" d="M627.6,185.6c0-0.9,0.6-1.5,1.4-1.5s1.4,0.6,1.4,1.5c0,0.8-0.6,1.5-1.4,1.5
		C628.2,187.1,627.6,186.5,627.6,185.6z"/>
	<path class="st17" d="M632.2,186.9v-1.5l1.3-1.2c2.3-2,3.4-3.2,3.4-4.4c0-0.8-0.5-1.5-1.7-1.5c-0.9,0-1.7,0.4-2.2,0.9l-0.7-1.7
		c0.8-0.6,2-1.1,3.4-1.1c2.3,0,3.6,1.4,3.6,3.2c0,1.7-1.3,3.1-2.7,4.4l-1,0.8v0h3.9v2H632.2z"/>
</g>
<g>
	<path class="st17" d="M49.5,228c0,3.8-2.3,5.6-4.8,5.6c-2.6,0-4.7-2.1-4.7-5.4c0-3.5,2.1-5.6,4.8-5.6
		C47.5,222.6,49.5,224.7,49.5,228z M40.8,228.2c0,2.4,1.4,4.8,3.9,4.8s4-2.3,4-5c0-2.3-1.2-4.8-3.9-4.8
		C42.1,223.2,40.8,225.7,40.8,228.2z"/>
	<path class="st17" d="M52.8,224.2v1.7H55v0.6h-2.2v5c0,1,0.3,1.6,1.1,1.6c0.4,0,0.7,0,0.9-0.1l0.1,0.6c-0.3,0.1-0.6,0.2-1.1,0.2
		c-0.6,0-1-0.2-1.3-0.5c-0.3-0.4-0.5-1-0.5-1.8v-4.8h-1.3v-0.6h1.3v-1.4L52.8,224.2z"/>
	<path class="st17" d="M56.8,228.2c0-0.8,0-1.5-0.1-2.3h0.7l0,1.5h0c0.3-1,1.1-1.7,2.2-1.7c0.1,0,0.2,0,0.3,0v0.7
		c-0.1,0-0.2,0-0.4,0c-1,0-1.8,0.9-2,2.1c0,0.2-0.1,0.5-0.1,0.7v4.2h-0.8V228.2z"/>
	<path class="st17" d="M68,229.6c0,2.8-2,4.1-3.7,4.1c-2,0-3.5-1.5-3.5-3.9c0-2.6,1.7-4,3.6-4C66.6,225.7,68,227.3,68,229.6z
		 M61.6,229.7c0,1.9,1.2,3.3,2.8,3.3c1.6,0,2.8-1.4,2.8-3.4c0-1.4-0.8-3.3-2.8-3.3C62.5,226.3,61.6,228.1,61.6,229.7z"/>
	<path class="st17" d="M69.7,232.5c0.4,0.3,1,0.5,1.7,0.5c1.2,0,1.8-0.7,1.8-1.4c0-0.8-0.5-1.3-1.6-1.7c-1.3-0.5-1.9-1.2-1.9-2.1
		c0-1.1,0.9-2.1,2.4-2.1c0.7,0,1.3,0.2,1.7,0.5l-0.3,0.6c-0.3-0.2-0.8-0.5-1.5-0.5c-1,0-1.5,0.6-1.5,1.3c0,0.8,0.5,1.1,1.6,1.6
		c1.2,0.5,2,1.1,2,2.3c0,1.3-1,2.2-2.6,2.2c-0.7,0-1.4-0.2-1.9-0.5L69.7,232.5z"/>
	<path class="st17" d="M81,223.7c0,0.3-0.2,0.7-0.6,0.7c-0.3,0-0.6-0.3-0.6-0.7s0.3-0.7,0.6-0.7C80.8,223,81,223.3,81,223.7z
		 M80.1,233.5v-7.6h0.8v7.6H80.1z"/>
	<path class="st17" d="M83.4,227.7c0-0.7,0-1.2-0.1-1.8h0.7l0,1.4h0c0.4-0.9,1.4-1.6,2.6-1.6c0.7,0,2.7,0.4,2.7,3.2v4.6h-0.8V229
		c0-1.4-0.5-2.6-2.1-2.6c-1.1,0-2,0.8-2.3,1.7c0,0.2-0.1,0.4-0.1,0.7v4.7h-0.8V227.7z"/>
	<path class="st17" d="M98.2,232.4c0,2-0.4,2.9-1,3.5c-0.7,0.7-1.7,0.9-2.6,0.9c-0.9,0-1.8-0.2-2.4-0.7l0.3-0.6
		c0.5,0.3,1.3,0.6,2.3,0.6c1.6,0,2.8-0.8,2.8-3.1V232h0c-0.4,0.8-1.3,1.5-2.7,1.5c-1.9,0-3.3-1.7-3.3-3.7c0-2.7,1.7-4,3.4-4
		c1.5,0,2.3,0.8,2.6,1.5h0l0-1.3h0.7c0,0.6-0.1,1.2-0.1,2V232.4z M97.4,228.8c0-0.3,0-0.5-0.1-0.7c-0.3-0.9-1.1-1.7-2.4-1.7
		c-1.6,0-2.7,1.3-2.7,3.3c0,1.7,0.9,3.2,2.7,3.2c1,0,2-0.6,2.4-1.7c0.1-0.3,0.1-0.5,0.1-0.8V228.8z"/>
	<path class="st17" d="M100.8,228.2c0-0.8,0-1.5-0.1-2.3h0.7l0,1.5h0c0.3-1,1.1-1.7,2.2-1.7c0.1,0,0.2,0,0.3,0v0.7
		c-0.1,0-0.2,0-0.4,0c-1,0-1.8,0.9-2,2.1c0,0.2-0.1,0.5-0.1,0.7v4.2h-0.8V228.2z"/>
	<path class="st17" d="M105.6,229.6c0,2.4,1.3,3.4,2.9,3.4c1.1,0,1.7-0.2,2.1-0.4l0.2,0.6c-0.3,0.2-1.1,0.5-2.4,0.5
		c-2.2,0-3.6-1.6-3.6-3.8c0-2.5,1.5-4.1,3.4-4.1c2.5,0,3,2.4,3,3.4c0,0.2,0,0.3,0,0.5H105.6z M110.5,229c0-1.1-0.4-2.7-2.3-2.7
		c-1.7,0-2.4,1.5-2.6,2.7H110.5z"/>
	<path class="st17" d="M113,232.5c0.4,0.3,1,0.5,1.7,0.5c1.2,0,1.8-0.7,1.8-1.4c0-0.8-0.5-1.3-1.6-1.7c-1.3-0.5-1.9-1.2-1.9-2.1
		c0-1.1,0.9-2.1,2.4-2.1c0.7,0,1.3,0.2,1.7,0.5l-0.3,0.6c-0.3-0.2-0.8-0.5-1.5-0.5c-1,0-1.5,0.6-1.5,1.3c0,0.8,0.5,1.1,1.6,1.6
		c1.2,0.5,2,1.1,2,2.3c0,1.3-1,2.2-2.6,2.2c-0.7,0-1.4-0.2-1.9-0.5L113,232.5z"/>
	<path class="st17" d="M126,229.6c0,2.8-2,4.1-3.7,4.1c-2,0-3.5-1.5-3.5-3.9c0-2.6,1.7-4,3.6-4C124.5,225.7,126,227.3,126,229.6z
		 M119.6,229.7c0,1.9,1.2,3.3,2.8,3.3c1.6,0,2.8-1.4,2.8-3.4c0-1.4-0.8-3.3-2.8-3.3C120.5,226.3,119.6,228.1,119.6,229.7z"/>
	<path class="st17" d="M127.7,232.5c0.4,0.3,1,0.5,1.7,0.5c1.2,0,1.8-0.7,1.8-1.4c0-0.8-0.5-1.3-1.6-1.7c-1.3-0.5-1.9-1.2-1.9-2.1
		c0-1.1,0.9-2.1,2.4-2.1c0.7,0,1.3,0.2,1.7,0.5l-0.3,0.6c-0.3-0.2-0.8-0.5-1.5-0.5c-1,0-1.5,0.6-1.5,1.3c0,0.8,0.5,1.1,1.6,1.6
		c1.2,0.5,2,1.1,2,2.3c0,1.3-1,2.2-2.6,2.2c-0.7,0-1.4-0.2-1.9-0.5L127.7,232.5z"/>
	<path class="st17" d="M133.2,235.5c0.3-0.7,0.7-2.4,0.8-3.4l1-0.2c-0.3,1.2-1,3-1.2,3.4L133.2,235.5z"/>
	<path class="st17" d="M140.9,227.7c0-0.7,0-1.2-0.1-1.8h0.7l0,1.4h0c0.4-0.9,1.4-1.6,2.6-1.6c0.7,0,2.7,0.4,2.7,3.2v4.6h-0.8V229
		c0-1.4-0.5-2.6-2.1-2.6c-1.1,0-2,0.8-2.3,1.7c0,0.2-0.1,0.4-0.1,0.7v4.7h-0.8V227.7z"/>
	<path class="st17" d="M149.7,229.6c0,2.4,1.3,3.4,2.9,3.4c1.1,0,1.7-0.2,2.1-0.4l0.2,0.6c-0.3,0.2-1.1,0.5-2.4,0.5
		c-2.2,0-3.6-1.6-3.6-3.8c0-2.5,1.5-4.1,3.4-4.1c2.5,0,3,2.4,3,3.4c0,0.2,0,0.3,0,0.5H149.7z M154.6,229c0-1.1-0.4-2.7-2.3-2.7
		c-1.7,0-2.4,1.5-2.6,2.7H154.6z"/>
	<path class="st17" d="M158.5,224.2v1.7h2.2v0.6h-2.2v5c0,1,0.3,1.6,1.1,1.6c0.4,0,0.7,0,0.9-0.1l0.1,0.6c-0.3,0.1-0.6,0.2-1.1,0.2
		c-0.6,0-1-0.2-1.3-0.5c-0.3-0.4-0.5-1-0.5-1.8v-4.8h-1.3v-0.6h1.3v-1.4L158.5,224.2z"/>
	<path class="st17" d="M168.7,229.6c0,2.8-2,4.1-3.7,4.1c-2,0-3.5-1.5-3.5-3.9c0-2.6,1.7-4,3.6-4
		C167.3,225.7,168.7,227.3,168.7,229.6z M162.3,229.7c0,1.9,1.2,3.3,2.8,3.3c1.6,0,2.8-1.4,2.8-3.4c0-1.4-0.8-3.3-2.8-3.3
		C163.2,226.3,162.3,228.1,162.3,229.7z"/>
</g>
<g>
	<path class="st17" d="M302.5,233.5V231h-4.6v-1.6l3.9-6.3h3v6.1h1.2v1.8h-1.2v2.5H302.5z M302.5,229.2v-2.3c0-0.6,0-1.3,0.1-1.9
		h-0.1c-0.3,0.7-0.6,1.3-1,1.9l-1.4,2.3v0H302.5z"/>
	<path class="st17" d="M311.8,233.5V231h-4.6v-1.6l3.9-6.3h3v6.1h1.2v1.8h-1.2v2.5H311.8z M311.8,229.2v-2.3c0-0.6,0-1.3,0.1-1.9
		h-0.1c-0.3,0.7-0.6,1.3-1,1.9l-1.4,2.3v0H311.8z"/>
	<path class="st17" d="M317.4,231.7c0.3,0,0.6,0,1,0c0.7,0,1.5-0.3,2-0.6c0.7-0.5,1.1-1.1,1.3-1.9l0,0c-0.5,0.5-1.1,0.7-2.1,0.7
		c-1.7,0-3.2-1.2-3.2-3.2c0-2,1.6-3.7,3.9-3.7c2.7,0,3.9,2,3.9,4.4c0,2.1-0.7,3.7-1.8,4.7c-1,0.9-2.3,1.4-3.9,1.4
		c-0.4,0-0.8,0-1.1,0V231.7z M318.8,226.6c0,0.9,0.5,1.7,1.5,1.7c0.7,0,1.1-0.3,1.3-0.7c0.1-0.1,0.1-0.3,0.1-0.6
		c0-1.1-0.4-2.2-1.5-2.2C319.4,224.8,318.8,225.5,318.8,226.6z"/>
</g>
<g>
	<path class="st17" d="M390.9,228.3c0,3.2-1.3,5.4-3.9,5.4c-2.7,0-3.8-2.4-3.9-5.3c0-3,1.3-5.4,3.9-5.4
		C389.8,223,390.9,225.5,390.9,228.3z M385.5,228.3c0,2.4,0.6,3.5,1.5,3.5s1.4-1.2,1.4-3.5c0-2.3-0.5-3.5-1.5-3.5
		C386.1,224.8,385.5,225.9,385.5,228.3z"/>
	<path class="st17" d="M392.3,232.2c0-0.9,0.6-1.5,1.4-1.5s1.4,0.6,1.4,1.5c0,0.8-0.6,1.5-1.4,1.5
		C392.9,233.7,392.3,233,392.3,232.2z"/>
	<path class="st17" d="M398.6,225.3L398.6,225.3l-2,0.9l-0.4-1.8l2.7-1.3h2v10.3h-2.3V225.3z"/>
</g>
<g>
	<path class="st17" d="M461,232.4c0.4,0.3,1.2,0.7,2.2,0.7c2.1,0,2.6-1.5,2.6-2.4c0-1.7-1.5-2.4-3-2.4h-0.7v-0.6h0.7
		c1.1,0,2.6-0.7,2.6-2.1c0-1-0.5-1.8-2-1.8c-0.8,0-1.5,0.4-2,0.7l-0.3-0.6c0.5-0.4,1.4-0.8,2.4-0.8c2,0,2.7,1.2,2.7,2.4
		c0,1-0.7,2-1.9,2.4v0c1.3,0.3,2.3,1.2,2.3,2.7c0,1.5-1.1,3.1-3.5,3.1c-1,0-2-0.4-2.4-0.7L461,232.4z"/>
	<path class="st17" d="M474.3,223.2v0.6l-4.7,9.8h-0.7l4.6-9.6v0h-5.2v-0.7H474.3z"/>
	<path class="st17" d="M476.4,233c0.3,0,0.7,0,1.2-0.1c0.8-0.1,1.6-0.5,2.3-1.2c0.7-0.7,1.2-1.8,1.4-3.3l0,0
		c-0.7,0.8-1.6,1.3-2.7,1.3c-1.9,0-3-1.5-3-3.1c0-1.9,1.3-3.6,3.3-3.6c1.8,0,3.1,1.5,3.1,4.3c0,2.3-0.8,3.9-1.8,4.9
		c-0.7,0.7-1.6,1.2-2.4,1.3c-0.6,0.1-1,0.2-1.4,0.1V233z M476.3,226.6c0,1.5,1,2.5,2.3,2.5c1.1,0,2-0.6,2.5-1.3
		c0.1-0.1,0.1-0.3,0.1-0.5c0-2.2-0.8-3.7-2.5-3.7C477.3,223.6,476.3,224.9,476.3,226.6z"/>
</g>
<g>
	<path class="st17" d="M551.2,228.2c0,3.7-1.3,5.5-3.4,5.5c-1.6,0-3.1-1.6-3.1-5.3c0-3.7,1.6-5.4,3.4-5.4
		C549.8,223,551.2,224.6,551.2,228.2z M545.4,228.4c0,2.9,1,4.6,2.5,4.6c1.7,0,2.5-2,2.5-4.8c0-2.7-0.7-4.6-2.5-4.6
		C546.5,223.6,545.4,225.3,545.4,228.4z"/>
	<path class="st17" d="M552.7,232.9c0-0.4,0.3-0.7,0.7-0.7c0.4,0,0.6,0.3,0.6,0.7c0,0.4-0.3,0.7-0.7,0.7
		C553,233.7,552.7,233.3,552.7,232.9z"/>
	<path class="st17" d="M557.5,223.9L557.5,223.9l-1.7,1l-0.2-0.6l2-1.2h0.7v10.3h-0.7V223.9z"/>
</g>
<g>
	<path class="st17" d="M613.6,225.3L613.6,225.3l-2,0.9l-0.4-1.8l2.7-1.3h2v10.3h-2.3V225.3z"/>
	<path class="st17" d="M618.6,230.8c0-1.2,0.7-2.1,1.8-2.6v0c-1-0.5-1.5-1.4-1.5-2.3c0-1.7,1.6-2.9,3.6-2.9c2.4,0,3.4,1.4,3.4,2.7
		c0,0.9-0.5,1.8-1.5,2.3v0c1,0.4,1.9,1.2,1.9,2.6c0,1.9-1.6,3.1-4,3.1C619.8,233.7,618.6,232.2,618.6,230.8z M624,230.7
		c0-0.9-0.7-1.4-1.6-1.7c-0.8,0.2-1.3,0.8-1.3,1.5c0,0.7,0.6,1.4,1.5,1.4C623.4,232,624,231.4,624,230.7z M621.2,225.8
		c0,0.7,0.6,1.1,1.5,1.4c0.6-0.2,1-0.7,1-1.3c0-0.6-0.4-1.3-1.3-1.3C621.7,224.6,621.2,225.2,621.2,225.8z"/>
	<path class="st17" d="M628.1,232.2c0-0.9,0.6-1.5,1.4-1.5s1.4,0.6,1.4,1.5c0,0.8-0.6,1.5-1.4,1.5
		C628.7,233.7,628.1,233,628.1,232.2z"/>
	<path class="st17" d="M639.6,223.2v1.5l-4.3,8.8h-2.6l4.3-8.3v0h-4.7v-2H639.6z"/>
</g>
<g>
	<path class="st17" d="M41.5,269.4v6.5c0,2.7,1.3,3.8,2.8,3.8c1.8,0,3-1.1,3-3.8v-6.5h0.8v6.4c0,3.3-1.8,4.5-3.8,4.5
		c-1.9,0-3.6-1.1-3.6-4.4v-6.5H41.5z"/>
	<path class="st17" d="M51.8,270.8v1.7H54v0.6h-2.2v5c0,1,0.3,1.6,1.1,1.6c0.4,0,0.7,0,0.9-0.1l0.1,0.6c-0.3,0.1-0.6,0.2-1.1,0.2
		c-0.6,0-1-0.2-1.3-0.5c-0.3-0.4-0.5-1-0.5-1.8v-4.8h-1.3v-0.6H51v-1.4L51.8,270.8z"/>
	<path class="st17" d="M56.8,270.3c0,0.3-0.2,0.7-0.6,0.7c-0.3,0-0.6-0.3-0.6-0.7s0.3-0.7,0.6-0.7C56.5,269.6,56.8,269.9,56.8,270.3
		z M55.8,280.1v-7.6h0.8v7.6H55.8z"/>
	<path class="st17" d="M59.1,268.8h0.8v11.3h-0.8V268.8z"/>
	<path class="st17" d="M63.5,270.3c0,0.3-0.2,0.7-0.6,0.7c-0.3,0-0.6-0.3-0.6-0.7s0.3-0.7,0.6-0.7C63.3,269.6,63.5,269.9,63.5,270.3
		z M62.5,280.1v-7.6h0.8v7.6H62.5z"/>
	<path class="st17" d="M72.1,268.8v9.5c0,0.6,0,1.2,0.1,1.8h-0.7l-0.1-1.4h0c-0.4,0.8-1.3,1.6-2.7,1.6c-1.9,0-3.3-1.6-3.3-3.8
		c0-2.5,1.6-4.1,3.4-4.1c1.3,0,2.2,0.7,2.5,1.3h0v-4.8H72.1z M71.3,275.5c0-0.2,0-0.5-0.1-0.7c-0.3-1-1.2-1.9-2.4-1.9
		c-1.7,0-2.7,1.4-2.7,3.4c0,1.7,0.9,3.3,2.7,3.3c1.1,0,2.1-0.7,2.4-2c0.1-0.2,0.1-0.4,0.1-0.6V275.5z"/>
	<path class="st17" d="M79.4,278.3c0,0.6,0,1.2,0.1,1.8h-0.7l-0.1-1.1h0c-0.4,0.6-1.2,1.3-2.4,1.3c-1.5,0-2.2-1.1-2.2-2.1
		c0-1.8,1.5-2.8,4.7-2.8v-0.2c0-0.7-0.1-2.3-2-2.2c-0.7,0-1.4,0.2-1.9,0.6l-0.2-0.6c0.7-0.5,1.6-0.7,2.2-0.7c2.2,0,2.6,1.7,2.6,3
		V278.3z M78.7,276c-1.7,0-3.9,0.2-3.9,2c0,1.1,0.7,1.6,1.5,1.6c1.3,0,2-0.8,2.3-1.5c0.1-0.2,0.1-0.3,0.1-0.5V276z"/>
	<path class="st17" d="M88.2,268.8v9.5c0,0.6,0,1.2,0.1,1.8h-0.7l-0.1-1.4h0c-0.4,0.8-1.3,1.6-2.7,1.6c-1.9,0-3.3-1.6-3.3-3.8
		c0-2.5,1.6-4.1,3.4-4.1c1.3,0,2.2,0.7,2.5,1.3h0v-4.8H88.2z M87.4,275.5c0-0.2,0-0.5-0.1-0.7c-0.3-1-1.2-1.9-2.4-1.9
		c-1.7,0-2.7,1.4-2.7,3.4c0,1.7,0.9,3.3,2.7,3.3c1.1,0,2.1-0.7,2.4-2c0.1-0.2,0.1-0.4,0.1-0.6V275.5z"/>
	<path class="st17" d="M100.9,268.8v9.5c0,0.6,0,1.2,0.1,1.8h-0.7l-0.1-1.4h0c-0.4,0.8-1.3,1.6-2.7,1.6c-1.9,0-3.3-1.6-3.3-3.8
		c0-2.5,1.6-4.1,3.4-4.1c1.3,0,2.2,0.7,2.5,1.3h0v-4.8H100.9z M100.1,275.5c0-0.2,0-0.5-0.1-0.7c-0.3-1-1.2-1.9-2.4-1.9
		c-1.7,0-2.7,1.4-2.7,3.4c0,1.7,0.9,3.3,2.7,3.3c1.1,0,2.1-0.7,2.4-2c0.1-0.2,0.1-0.4,0.1-0.6V275.5z"/>
	<path class="st17" d="M103.7,276.2c0,2.4,1.3,3.4,2.9,3.4c1.1,0,1.7-0.2,2.1-0.4l0.2,0.6c-0.3,0.2-1.1,0.5-2.4,0.5
		c-2.2,0-3.6-1.6-3.6-3.8c0-2.5,1.5-4.1,3.4-4.1c2.5,0,3,2.4,3,3.4c0,0.2,0,0.3,0,0.5H103.7z M108.6,275.6c0-1.1-0.4-2.7-2.3-2.7
		c-1.7,0-2.4,1.5-2.6,2.7H108.6z"/>
	<path class="st17" d="M122,276.2c0,2.8-2,4.1-3.7,4.1c-2,0-3.5-1.5-3.5-3.9c0-2.6,1.7-4,3.6-4C120.5,272.3,122,273.9,122,276.2z
		 M115.6,276.3c0,1.9,1.2,3.3,2.8,3.3c1.6,0,2.8-1.4,2.8-3.4c0-1.4-0.8-3.3-2.8-3.3C116.5,272.9,115.6,274.6,115.6,276.3z"/>
	<path class="st17" d="M124.1,274.9c0-1,0-1.7-0.1-2.4h0.7l0,1.4h0c0.6-1,1.5-1.6,2.8-1.6c2,0,3.3,1.6,3.3,3.9
		c0,2.7-1.6,4.1-3.5,4.1c-1.1,0-2.1-0.5-2.6-1.4h0v4.4h-0.8V274.9z M124.8,277.1c0,0.2,0,0.4,0.1,0.6c0.3,1.2,1.3,1.9,2.5,1.9
		c1.7,0,2.7-1.4,2.7-3.4c0-1.7-1-3.3-2.7-3.3c-1.1,0-2.2,0.8-2.5,2c0,0.2-0.1,0.4-0.1,0.7V277.1z"/>
	<path class="st17" d="M133.3,276.2c0,2.4,1.3,3.4,2.9,3.4c1.1,0,1.7-0.2,2.1-0.4l0.2,0.6c-0.3,0.2-1.1,0.5-2.4,0.5
		c-2.2,0-3.6-1.6-3.6-3.8c0-2.5,1.5-4.1,3.4-4.1c2.5,0,3,2.4,3,3.4c0,0.2,0,0.3,0,0.5H133.3z M138.2,275.6c0-1.1-0.4-2.7-2.3-2.7
		c-1.7,0-2.4,1.5-2.6,2.7H138.2z"/>
	<path class="st17" d="M141,274.7c0-0.8,0-1.5-0.1-2.3h0.7l0,1.5h0c0.3-1,1.1-1.7,2.2-1.7c0.1,0,0.2,0,0.3,0v0.7c-0.1,0-0.2,0-0.4,0
		c-1,0-1.8,0.9-2,2.1c0,0.2-0.1,0.5-0.1,0.7v4.2H141V274.7z"/>
	<path class="st17" d="M150.6,278.3c0,0.6,0,1.2,0.1,1.8h-0.7l-0.1-1.1h0c-0.4,0.6-1.2,1.3-2.4,1.3c-1.5,0-2.2-1.1-2.2-2.1
		c0-1.8,1.5-2.8,4.7-2.8v-0.2c0-0.7-0.1-2.3-2-2.2c-0.7,0-1.4,0.2-1.9,0.6l-0.2-0.6c0.7-0.5,1.6-0.7,2.2-0.7c2.2,0,2.6,1.7,2.6,3
		V278.3z M149.9,276c-1.7,0-3.9,0.2-3.9,2c0,1.1,0.7,1.6,1.5,1.6c1.3,0,2-0.8,2.3-1.5c0.1-0.2,0.1-0.3,0.1-0.5V276z"/>
	<path class="st17" d="M158.5,279.7c-0.3,0.2-1.1,0.5-2.2,0.5c-2.2,0-3.7-1.6-3.7-3.9c0-2.4,1.7-4.1,3.9-4.1c0.9,0,1.7,0.3,2,0.5
		l-0.3,0.6c-0.4-0.2-1-0.4-1.8-0.4c-2,0-3.1,1.6-3.1,3.4c0,2,1.3,3.3,3,3.3c0.9,0,1.5-0.3,1.9-0.4L158.5,279.7z"/>
	<path class="st17" d="M161.4,270.3c0,0.3-0.2,0.7-0.6,0.7c-0.3,0-0.6-0.3-0.6-0.7s0.3-0.7,0.6-0.7
		C161.2,269.6,161.4,269.9,161.4,270.3z M160.4,280.1v-7.6h0.8v7.6H160.4z"/>
	<path class="st17" d="M170.4,276.2c0,2.8-2,4.1-3.7,4.1c-2,0-3.5-1.5-3.5-3.9c0-2.6,1.7-4,3.6-4
		C168.9,272.3,170.4,273.9,170.4,276.2z M164,276.3c0,1.9,1.2,3.3,2.8,3.3c1.6,0,2.8-1.4,2.8-3.4c0-1.4-0.8-3.3-2.8-3.3
		C164.9,272.9,164,274.6,164,276.3z M168.6,269.2l-1.9,2.2h-0.6l1.4-2.2H168.6z"/>
	<path class="st17" d="M172.5,274.3c0-0.7,0-1.2-0.1-1.8h0.7l0,1.4h0c0.4-0.9,1.4-1.6,2.6-1.6c0.7,0,2.7,0.4,2.7,3.2v4.6h-0.8v-4.5
		c0-1.4-0.5-2.6-2.1-2.6c-1.1,0-2,0.8-2.3,1.7c0,0.2-0.1,0.4-0.1,0.7v4.7h-0.8V274.3z"/>
</g>
<g>
	<path class="st17" d="M284.4,271.7h-4l-0.2,1.6c0.2,0,0.4,0,0.7,0c1,0,2,0.2,2.7,0.7c0.8,0.5,1.3,1.4,1.3,2.6
		c0,1.9-1.7,3.6-4.4,3.6c-1.3,0-2.3-0.3-2.9-0.6l0.4-1.8c0.5,0.2,1.4,0.5,2.3,0.5c1,0,2.1-0.5,2.1-1.6c0-1.1-0.8-1.7-2.9-1.7
		c-0.6,0-1,0-1.4,0.1l0.7-5.4h5.7V271.7z"/>
	<path class="st17" d="M293.7,269.8v1.5l-4.3,8.8h-2.6l4.3-8.3v0h-4.7v-2H293.7z"/>
	<path class="st17" d="M293.3,282c0.5-1.4,0.9-3.1,1.1-4.5l2.5-0.2c-0.5,1.6-1.2,3.3-2,4.5L293.3,282z"/>
	<path class="st17" d="M302.8,280.1v-2.5h-4.6V276l3.9-6.3h3v6.1h1.2v1.8h-1.2v2.5H302.8z M302.8,275.8v-2.3c0-0.6,0-1.3,0.1-1.9
		h-0.1c-0.3,0.7-0.6,1.3-1,1.9l-1.4,2.3v0H302.8z"/>
	<path class="st17" d="M312.2,280.1v-2.5h-4.6V276l3.9-6.3h3v6.1h1.2v1.8h-1.2v2.5H312.2z M312.2,275.8v-2.3c0-0.6,0-1.3,0.1-1.9
		h-0.1c-0.3,0.7-0.6,1.3-1,1.9l-1.4,2.3v0H312.2z"/>
	<path class="st17" d="M324,269.8v1.5l-4.3,8.8h-2.6l4.3-8.3v0h-4.7v-2H324z"/>
</g>
<g>
	<path class="st17" d="M381.4,277.4c0-1.2,0.7-2.1,1.8-2.6v0c-1-0.5-1.5-1.4-1.5-2.3c0-1.7,1.6-2.9,3.6-2.9c2.4,0,3.4,1.4,3.4,2.7
		c0,0.9-0.5,1.8-1.5,2.3v0c1,0.4,1.9,1.2,1.9,2.6c0,1.9-1.6,3.1-4,3.1C382.6,280.3,381.4,278.8,381.4,277.4z M386.7,277.3
		c0-0.9-0.7-1.4-1.6-1.7c-0.8,0.2-1.3,0.8-1.3,1.5c0,0.7,0.6,1.4,1.5,1.4C386.2,278.6,386.7,278,386.7,277.3z M384,272.4
		c0,0.7,0.6,1.1,1.5,1.4c0.6-0.2,1-0.7,1-1.3c0-0.6-0.4-1.3-1.3-1.3C384.4,271.2,384,271.8,384,272.4z"/>
	<path class="st17" d="M390.9,278.8c0-0.9,0.6-1.5,1.4-1.5s1.4,0.6,1.4,1.5c0,0.8-0.6,1.5-1.4,1.5
		C391.4,280.3,390.9,279.6,390.9,278.8z"/>
	<path class="st17" d="M395.5,280.1v-1.5l1.3-1.2c2.3-2,3.4-3.2,3.4-4.4c0-0.8-0.5-1.5-1.7-1.5c-0.9,0-1.7,0.4-2.2,0.9l-0.7-1.7
		c0.8-0.6,2-1.1,3.4-1.1c2.3,0,3.6,1.4,3.6,3.2c0,1.7-1.3,3.1-2.7,4.4l-1,0.8v0h3.9v2H395.5z"/>
</g>
<g>
	<path class="st17" d="M446.7,270.4h-3.9l-0.5,3.3c0.2,0,0.5-0.1,1-0.1c0.7,0,1.3,0.1,1.9,0.4c0.8,0.4,1.6,1.3,1.6,2.7
		c0,2.1-1.6,3.5-3.5,3.5c-1.1,0-1.9-0.3-2.4-0.7l0.3-0.6c0.4,0.3,1.2,0.6,2.1,0.6c1.5,0,2.7-1.1,2.7-2.7c0-1.5-0.9-2.6-3-2.6
		c-0.6,0-1.1,0-1.5,0.1l0.7-4.7h4.5V270.4z"/>
	<path class="st17" d="M453.3,280.1v-3h-4.9v-0.5l5-6.8h0.6v6.7h1.6v0.6H454v3H453.3z M453.3,276.4v-4.2c0-0.5,0-1,0-1.4l0,0
		c-0.3,0.6-0.6,0.9-0.8,1.3l-3.2,4.3v0H453.3z"/>
	<path class="st17" d="M456.4,282.1c0.3-0.7,0.7-2.4,0.8-3.4l1-0.2c-0.3,1.2-1,3-1.2,3.4L456.4,282.1z"/>
	<path class="st17" d="M466.2,274.8c0,3.7-1.3,5.5-3.4,5.5c-1.6,0-3.1-1.6-3.1-5.3c0-3.7,1.6-5.4,3.4-5.4
		C464.8,269.6,466.2,271.2,466.2,274.8z M460.4,275c0,2.9,1,4.6,2.5,4.6c1.7,0,2.5-2,2.5-4.8c0-2.7-0.7-4.6-2.5-4.6
		C461.5,270.2,460.4,271.9,460.4,275z"/>
	<path class="st17" d="M474.4,274.8c0,3.7-1.3,5.5-3.4,5.5c-1.6,0-3.1-1.6-3.1-5.3c0-3.7,1.6-5.4,3.4-5.4
		C473.1,269.6,474.4,271.2,474.4,274.8z M468.7,275c0,2.9,1,4.6,2.5,4.6c1.7,0,2.5-2,2.5-4.8c0-2.7-0.7-4.6-2.5-4.6
		C469.7,270.2,468.7,271.9,468.7,275z"/>
	<path class="st17" d="M475.8,279c0.4,0.3,1.2,0.7,2.2,0.7c2.1,0,2.6-1.5,2.6-2.4c0-1.7-1.5-2.4-3-2.4H477v-0.6h0.7
		c1.1,0,2.6-0.7,2.6-2.1c0-1-0.5-1.8-2-1.8c-0.8,0-1.5,0.4-2,0.7l-0.3-0.6c0.5-0.4,1.4-0.8,2.4-0.8c2,0,2.7,1.2,2.7,2.4
		c0,1-0.7,2-1.9,2.4v0c1.3,0.3,2.3,1.2,2.3,2.7c0,1.5-1.1,3.1-3.5,3.1c-1,0-2-0.4-2.4-0.7L475.8,279z"/>
</g>
<g>
	<path class="st17" d="M545.5,274.6c-1.3-0.5-1.7-1.4-1.7-2.3c0-1.6,1.3-2.7,2.9-2.7c1.7,0,2.7,1.2,2.7,2.5c0,0.9-0.4,1.8-1.8,2.5
		v0.1c1.5,0.6,2.2,1.5,2.2,2.7c0,1.7-1.5,2.9-3.2,2.9c-1.8,0-3.2-1.2-3.2-2.7C543.3,276.2,544.1,275.2,545.5,274.6L545.5,274.6z
		 M549,277.4c0-1.5-1-2.1-2.7-2.6c-1.5,0.4-2.2,1.4-2.2,2.5c-0.1,1.2,0.9,2.3,2.4,2.3C548,279.6,549,278.7,549,277.4z M544.5,272.1
		c0,1.2,0.9,1.9,2.3,2.2c1.1-0.4,1.9-1.1,1.9-2.2c0-0.9-0.6-1.9-2-1.9C545.2,270.2,544.5,271.1,544.5,272.1z"/>
	<path class="st17" d="M551.5,279.5c0-0.4,0.3-0.7,0.7-0.7c0.4,0,0.6,0.3,0.6,0.7c0,0.4-0.3,0.7-0.7,0.7
		C551.8,280.3,551.5,279.9,551.5,279.5z"/>
	<path class="st17" d="M554.7,279c0.4,0.3,1.2,0.7,2.2,0.7c2.1,0,2.6-1.5,2.6-2.4c0-1.7-1.5-2.4-3-2.4h-0.7v-0.6h0.7
		c1.1,0,2.6-0.7,2.6-2.1c0-1-0.5-1.8-2-1.8c-0.8,0-1.5,0.4-2,0.7l-0.3-0.6c0.5-0.4,1.4-0.8,2.4-0.8c2,0,2.7,1.2,2.7,2.4
		c0,1-0.7,2-1.9,2.4v0c1.3,0.3,2.3,1.2,2.3,2.7c0,1.5-1.1,3.1-3.5,3.1c-1,0-2-0.4-2.4-0.7L554.7,279z"/>
</g>
<g>
	<path class="st17" d="M625.1,271.5c-0.3,0-0.6,0-0.9,0c-2.1,0.2-3.1,1.3-3.4,2.5h0c0.5-0.5,1.2-0.8,2.2-0.8c1.7,0,3.2,1.2,3.2,3.4
		c0,2-1.6,3.7-3.8,3.7c-2.7,0-4.1-2-4.1-4.5c0-1.9,0.7-3.6,1.8-4.6c1-0.9,2.4-1.4,4-1.5c0.4,0,0.7,0,1,0V271.5z M623.8,276.7
		c0-1-0.5-1.8-1.5-1.8c-0.7,0-1.2,0.4-1.4,0.9c-0.1,0.1-0.1,0.3-0.1,0.6c0,1.1,0.6,2.1,1.7,2.1C623.3,278.5,623.8,277.7,623.8,276.7
		z"/>
	<path class="st17" d="M627.8,278.8c0-0.9,0.6-1.5,1.4-1.5s1.4,0.6,1.4,1.5c0,0.8-0.6,1.5-1.4,1.5
		C628.4,280.3,627.8,279.6,627.8,278.8z"/>
	<path class="st17" d="M636.5,280.1v-2.5h-4.6V276l3.9-6.3h3v6.1h1.2v1.8h-1.2v2.5H636.5z M636.5,275.8v-2.3c0-0.6,0-1.3,0.1-1.9
		h-0.1c-0.3,0.7-0.6,1.3-1,1.9l-1.4,2.3v0H636.5z"/>
</g>
<g>
	<path class="st17" d="M45.7,321.3h-4.3v4.7h4.8v0.6h-5.5V316H46v0.6h-4.5v4.1h4.3V321.3z"/>
	<path class="st17" d="M48.1,316.1c0.6-0.1,1.4-0.2,2.2-0.2c1.3,0,2.2,0.3,2.8,0.9c0.4,0.4,0.7,1,0.7,1.7c0,1.1-0.8,2-1.8,2.4v0
		c0.9,0.2,2.3,1,2.3,2.7c0,0.9-0.3,1.5-0.8,2c-0.7,0.7-1.9,1-3.4,1c-0.8,0-1.4-0.1-1.9-0.1V316.1z M48.8,320.7h1.6
		c1.6,0,2.5-0.9,2.5-2.1c0-1.5-1.1-2-2.7-2c-0.7,0-1.1,0-1.4,0.1V320.7z M48.8,326c0.3,0.1,0.7,0.1,1.3,0.1c1.6,0,3.2-0.6,3.2-2.4
		c0-1.7-1.4-2.4-3.1-2.4h-1.4V326z"/>
	<path class="st17" d="M57,316v10.7h-0.8V316H57z"/>
	<path class="st17" d="M61.9,316.6h-3.5V316h7.8v0.6h-3.5v10.1h-0.8V316.6z"/>
	<path class="st17" d="M67.6,316.1c0.8-0.1,1.7-0.2,2.7-0.2c2,0,3.4,0.5,4.3,1.5c0.9,0.9,1.3,2.1,1.3,3.7c0,1.6-0.4,3-1.4,4.1
		c-0.9,1-2.6,1.6-4.6,1.6c-0.8,0-1.6,0-2.4-0.1V316.1z M68.4,326c0.4,0.1,1,0.1,1.7,0.1c3.4,0,5.1-1.9,5.1-5c0-2.7-1.5-4.6-4.9-4.6
		c-0.8,0-1.5,0.1-1.9,0.2V326z"/>
	<path class="st17" d="M78.8,322.9l-1.3,3.7h-0.8l3.9-10.7h0.7l3.8,10.7h-0.8l-1.4-3.7H78.8z M82.8,322.3l-1.3-3.6
		c-0.3-0.7-0.4-1.3-0.6-1.9h0c-0.1,0.6-0.3,1.2-0.6,1.9l-1.3,3.6H82.8z"/>
</g>
<g>
	<path class="st17" d="M283.9,316.3v1.5l-4.3,8.8H277l4.3-8.3v0h-4.7v-2H283.9z"/>
	<path class="st17" d="M291.9,318.3h-4l-0.2,1.6c0.2,0,0.4,0,0.7,0c1,0,2,0.2,2.7,0.7c0.8,0.5,1.3,1.4,1.3,2.6
		c0,1.9-1.7,3.6-4.4,3.6c-1.3,0-2.3-0.3-2.9-0.6l0.4-1.8c0.5,0.2,1.4,0.5,2.3,0.5c1,0,2.1-0.5,2.1-1.6c0-1.1-0.8-1.7-2.9-1.7
		c-0.6,0-1,0-1.4,0.1l0.7-5.4h5.7V318.3z"/>
	<path class="st17" d="M293.4,328.6c0.5-1.4,0.9-3.1,1.1-4.5l2.5-0.2c-0.5,1.6-1.2,3.3-2,4.5L293.4,328.6z"/>
	<path class="st17" d="M299.1,324.3c0.4,0.2,1.4,0.6,2.4,0.6c1.3,0,1.9-0.6,1.9-1.4c0-1-1-1.5-2.1-1.5h-1v-1.7h0.9
		c0.8,0,1.8-0.3,1.8-1.2c0-0.6-0.5-1.1-1.5-1.1c-0.8,0-1.7,0.4-2.2,0.6l-0.5-1.7c0.6-0.4,1.9-0.8,3.2-0.8c2.2,0,3.4,1.2,3.4,2.6
		c0,1.1-0.6,2-1.9,2.4v0c1.2,0.2,2.2,1.2,2.2,2.5c0,1.8-1.6,3.2-4.2,3.2c-1.3,0-2.5-0.3-3.1-0.7L299.1,324.3z"/>
	<path class="st17" d="M307.5,324c0-1.2,0.7-2.1,1.8-2.6v0c-1-0.5-1.5-1.4-1.5-2.3c0-1.7,1.6-2.9,3.6-2.9c2.4,0,3.4,1.4,3.4,2.7
		c0,0.9-0.5,1.8-1.5,2.3v0c1,0.4,1.9,1.2,1.9,2.6c0,1.9-1.6,3.1-4,3.1C308.7,326.8,307.5,325.4,307.5,324z M312.9,323.9
		c0-0.9-0.7-1.4-1.6-1.7c-0.8,0.2-1.3,0.8-1.3,1.5c0,0.7,0.6,1.4,1.5,1.4C312.3,325.2,312.9,324.6,312.9,323.9z M310.1,319
		c0,0.7,0.6,1.1,1.5,1.4c0.6-0.2,1-0.7,1-1.3c0-0.6-0.4-1.3-1.3-1.3C310.6,317.8,310.1,318.3,310.1,319z"/>
	<path class="st17" d="M324,316.3v1.5l-4.3,8.8h-2.6l4.3-8.3v0h-4.7v-2H324z"/>
</g>
<g>
	<path class="st17" d="M377,318.5L377,318.5l-2,0.9l-0.4-1.8l2.7-1.3h2v10.3H377V318.5z"/>
	<path class="st17" d="M389.9,321.5c0,3.2-1.3,5.4-3.9,5.4c-2.7,0-3.8-2.4-3.9-5.3c0-3,1.3-5.4,3.9-5.4
		C388.8,316.2,389.9,318.6,389.9,321.5z M384.6,321.5c0,2.4,0.6,3.5,1.5,3.5s1.4-1.2,1.4-3.5c0-2.3-0.5-3.5-1.5-3.5
		C385.2,318,384.6,319.1,384.6,321.5z"/>
	<path class="st17" d="M391.4,325.4c0-0.9,0.6-1.5,1.4-1.5s1.4,0.6,1.4,1.5c0,0.8-0.6,1.5-1.4,1.5
		C392,326.8,391.4,326.2,391.4,325.4z"/>
	<path class="st17" d="M402.9,316.3v1.5l-4.3,8.8h-2.6l4.3-8.3v0h-4.7v-2H402.9z"/>
</g>
<g>
	<path class="st17" d="M448.5,316.3v0.6l-4.7,9.8H443l4.6-9.6v0h-5.2v-0.7H448.5z"/>
	<path class="st17" d="M452.5,317.1L452.5,317.1l-1.7,1l-0.2-0.6l2-1.2h0.7v10.3h-0.7V317.1z"/>
	<path class="st17" d="M456.2,328.7c0.3-0.7,0.7-2.4,0.8-3.4l1-0.2c-0.3,1.2-1,3-1.2,3.4L456.2,328.7z"/>
	<path class="st17" d="M465.9,321.4c0,3.7-1.3,5.5-3.4,5.5c-1.6,0-3.1-1.6-3.1-5.3c0-3.7,1.6-5.4,3.4-5.4
		C464.6,316.2,465.9,317.8,465.9,321.4z M460.2,321.6c0,2.9,1,4.6,2.5,4.6c1.7,0,2.5-2,2.5-4.8c0-2.7-0.7-4.6-2.5-4.6
		C461.2,316.8,460.2,318.5,460.2,321.6z"/>
	<path class="st17" d="M474.2,321.4c0,3.7-1.3,5.5-3.4,5.5c-1.6,0-3.1-1.6-3.1-5.3c0-3.7,1.6-5.4,3.4-5.4
		C472.8,316.2,474.2,317.8,474.2,321.4z M468.4,321.6c0,2.9,1,4.6,2.5,4.6c1.7,0,2.5-2,2.5-4.8c0-2.7-0.7-4.6-2.5-4.6
		C469.5,316.8,468.4,318.5,468.4,321.6z"/>
	<path class="st17" d="M481.2,317h-3.9l-0.5,3.3c0.2,0,0.5-0.1,1-0.1c0.7,0,1.3,0.1,1.9,0.4c0.8,0.4,1.6,1.3,1.6,2.7
		c0,2.1-1.6,3.5-3.5,3.5c-1.1,0-1.9-0.3-2.4-0.7l0.3-0.6c0.4,0.3,1.2,0.6,2.1,0.6c1.5,0,2.7-1.1,2.7-2.7c0-1.5-0.9-2.6-3-2.6
		c-0.6,0-1.1,0-1.5,0.1l0.7-4.7h4.5V317z"/>
</g>
<g>
	<path class="st17" d="M541.5,317.1L541.5,317.1l-1.7,1l-0.2-0.6l2-1.2h0.7v10.3h-0.7V317.1z"/>
	<path class="st17" d="M547.5,317.1L547.5,317.1l-1.7,1l-0.2-0.6l2-1.2h0.7v10.3h-0.7V317.1z"/>
	<path class="st17" d="M551.7,326.1c0-0.4,0.3-0.7,0.7-0.7c0.4,0,0.6,0.3,0.6,0.7c0,0.4-0.3,0.7-0.7,0.7
		C551.9,326.8,551.6,326.5,551.7,326.1z"/>
	<path class="st17" d="M560.9,321.4c0,3.7-1.3,5.5-3.4,5.5c-1.6,0-3.1-1.6-3.1-5.3c0-3.7,1.6-5.4,3.4-5.4
		C559.5,316.2,560.9,317.8,560.9,321.4z M555.1,321.6c0,2.9,1,4.6,2.5,4.6c1.7,0,2.5-2,2.5-4.8c0-2.7-0.7-4.6-2.5-4.6
		C556.2,316.8,555.1,318.5,555.1,321.6z"/>
</g>
<g>
	<path class="st17" d="M624.9,318.1c-0.3,0-0.6,0-0.9,0c-2.1,0.2-3.1,1.3-3.4,2.5h0c0.5-0.5,1.2-0.8,2.2-0.8c1.7,0,3.2,1.2,3.2,3.4
		c0,2-1.6,3.7-3.8,3.7c-2.7,0-4.1-2-4.1-4.5c0-1.9,0.7-3.6,1.8-4.6c1-0.9,2.4-1.4,4-1.5c0.4,0,0.7,0,1,0V318.1z M623.6,323.2
		c0-1-0.5-1.8-1.5-1.8c-0.7,0-1.2,0.4-1.4,0.9c-0.1,0.1-0.1,0.3-0.1,0.6c0,1.1,0.6,2.1,1.7,2.1C623.1,325.1,623.6,324.3,623.6,323.2
		z"/>
	<path class="st17" d="M627.6,325.4c0-0.9,0.6-1.5,1.4-1.5s1.4,0.6,1.4,1.5c0,0.8-0.6,1.5-1.4,1.5
		C628.2,326.8,627.6,326.2,627.6,325.4z"/>
	<path class="st17" d="M632.2,326.7v-1.5l1.3-1.2c2.3-2,3.4-3.2,3.4-4.4c0-0.8-0.5-1.5-1.7-1.5c-0.9,0-1.7,0.4-2.2,0.9l-0.7-1.7
		c0.8-0.6,2-1.1,3.4-1.1c2.3,0,3.6,1.4,3.6,3.2c0,1.7-1.3,3.1-2.7,4.4l-1,0.8v0h3.9v2H632.2z"/>
</g>
<g>
	<path class="st17" d="M41.5,362.6v6.5c0,2.7,1.3,3.8,2.8,3.8c1.8,0,3-1.1,3-3.8v-6.5h0.8v6.4c0,3.3-1.8,4.5-3.8,4.5
		c-1.9,0-3.6-1.1-3.6-4.4v-6.5H41.5z"/>
	<path class="st17" d="M51.8,364v1.7H54v0.6h-2.2v5c0,1,0.3,1.6,1.1,1.6c0.4,0,0.7,0,0.9-0.1l0.1,0.6c-0.3,0.1-0.6,0.2-1.1,0.2
		c-0.6,0-1-0.2-1.3-0.5c-0.3-0.4-0.5-1-0.5-1.8v-4.8h-1.3v-0.6H51v-1.4L51.8,364z"/>
	<path class="st17" d="M56.8,363.5c0,0.3-0.2,0.7-0.6,0.7c-0.3,0-0.6-0.3-0.6-0.7s0.3-0.7,0.6-0.7C56.5,362.8,56.8,363.1,56.8,363.5
		z M55.8,373.3v-7.6h0.8v7.6H55.8z"/>
	<path class="st17" d="M59.2,362h0.8v11.3h-0.8V362z"/>
	<path class="st17" d="M63.5,363.5c0,0.3-0.2,0.7-0.6,0.7c-0.3,0-0.6-0.3-0.6-0.7s0.3-0.7,0.6-0.7C63.3,362.8,63.5,363.1,63.5,363.5
		z M62.5,373.3v-7.6h0.8v7.6H62.5z"/>
	<path class="st17" d="M72.1,362v9.5c0,0.6,0,1.2,0.1,1.8h-0.7l-0.1-1.4h0c-0.4,0.8-1.3,1.6-2.7,1.6c-1.9,0-3.3-1.6-3.3-3.8
		c0-2.5,1.6-4.1,3.4-4.1c1.3,0,2.2,0.7,2.5,1.3h0V362H72.1z M71.3,368.7c0-0.2,0-0.5-0.1-0.7c-0.3-1-1.2-1.9-2.4-1.9
		c-1.7,0-2.7,1.4-2.7,3.4c0,1.7,0.9,3.3,2.7,3.3c1.1,0,2.1-0.7,2.4-2c0.1-0.2,0.1-0.4,0.1-0.6V368.7z"/>
	<path class="st17" d="M79.4,371.5c0,0.6,0,1.2,0.1,1.8h-0.7l-0.1-1.1h0c-0.4,0.6-1.2,1.3-2.4,1.3c-1.5,0-2.2-1.1-2.2-2.1
		c0-1.8,1.5-2.8,4.7-2.8v-0.2c0-0.7-0.1-2.3-2-2.2c-0.7,0-1.4,0.2-1.9,0.6l-0.2-0.6c0.7-0.5,1.6-0.7,2.2-0.7c2.2,0,2.6,1.7,2.6,3
		V371.5z M78.7,369.2c-1.7,0-3.9,0.2-3.9,2c0,1.1,0.7,1.6,1.5,1.6c1.3,0,2-0.8,2.3-1.5c0.1-0.2,0.1-0.3,0.1-0.5V369.2z"/>
	<path class="st17" d="M88.2,362v9.5c0,0.6,0,1.2,0.1,1.8h-0.7l-0.1-1.4h0c-0.4,0.8-1.3,1.6-2.7,1.6c-1.9,0-3.3-1.6-3.3-3.8
		c0-2.5,1.6-4.1,3.4-4.1c1.3,0,2.2,0.7,2.5,1.3h0V362H88.2z M87.4,368.7c0-0.2,0-0.5-0.1-0.7c-0.3-1-1.2-1.9-2.4-1.9
		c-1.7,0-2.7,1.4-2.7,3.4c0,1.7,0.9,3.3,2.7,3.3c1.1,0,2.1-0.7,2.4-2c0.1-0.2,0.1-0.4,0.1-0.6V368.7z"/>
	<path class="st17" d="M94.8,367.5c0-0.7,0-1.2-0.1-1.8h0.7l0,1.4h0c0.4-0.9,1.4-1.6,2.6-1.6c0.7,0,2.7,0.4,2.7,3.2v4.6h-0.8v-4.5
		c0-1.4-0.5-2.6-2.1-2.6c-1.1,0-2,0.8-2.3,1.7c0,0.2-0.1,0.4-0.1,0.7v4.7h-0.8V367.5z"/>
	<path class="st17" d="M103.7,369.4c0,2.4,1.3,3.4,2.9,3.4c1.1,0,1.7-0.2,2.1-0.4l0.2,0.6c-0.3,0.2-1.1,0.5-2.4,0.5
		c-2.2,0-3.6-1.6-3.6-3.8c0-2.5,1.5-4.1,3.4-4.1c2.5,0,3,2.4,3,3.4c0,0.2,0,0.3,0,0.5H103.7z M108.5,368.8c0-1.1-0.4-2.7-2.3-2.7
		c-1.7,0-2.4,1.5-2.6,2.7H108.5z"/>
	<path class="st17" d="M112.4,364v1.7h2.2v0.6h-2.2v5c0,1,0.3,1.6,1.1,1.6c0.4,0,0.7,0,0.9-0.1l0.1,0.6c-0.3,0.1-0.6,0.2-1.1,0.2
		c-0.6,0-1-0.2-1.3-0.5c-0.3-0.4-0.5-1-0.5-1.8v-4.8h-1.3v-0.6h1.3v-1.4L112.4,364z"/>
	<path class="st17" d="M121.2,371.5c0,0.6,0,1.2,0.1,1.8h-0.7l-0.1-1.1h0c-0.4,0.6-1.2,1.3-2.4,1.3c-1.5,0-2.2-1.1-2.2-2.1
		c0-1.8,1.5-2.8,4.7-2.8v-0.2c0-0.7-0.1-2.3-2-2.2c-0.7,0-1.4,0.2-1.9,0.6l-0.2-0.6c0.7-0.5,1.6-0.7,2.2-0.7c2.2,0,2.6,1.7,2.6,3
		V371.5z M120.5,369.2c-1.7,0-3.9,0.2-3.9,2c0,1.1,0.7,1.6,1.5,1.6c1.3,0,2-0.8,2.3-1.5c0.1-0.2,0.1-0.3,0.1-0.5V369.2z"/>
</g>
<g>
	<path class="st17" d="M276.7,370.9c0.4,0.2,1.4,0.6,2.4,0.6c1.3,0,1.9-0.6,1.9-1.4c0-1-1-1.5-2.1-1.5h-1v-1.7h0.9
		c0.8,0,1.8-0.3,1.8-1.2c0-0.6-0.5-1.1-1.5-1.1c-0.8,0-1.7,0.4-2.2,0.6l-0.5-1.7c0.6-0.4,1.9-0.8,3.2-0.8c2.2,0,3.4,1.2,3.4,2.6
		c0,1.1-0.6,2-1.9,2.4v0c1.2,0.2,2.2,1.2,2.2,2.5c0,1.8-1.6,3.2-4.2,3.2c-1.3,0-2.5-0.3-3.1-0.7L276.7,370.9z"/>
	<path class="st17" d="M285.5,370.9c0.4,0.2,1.4,0.6,2.4,0.6c1.3,0,1.9-0.6,1.9-1.4c0-1-1-1.5-2.1-1.5h-1v-1.7h0.9
		c0.8,0,1.8-0.3,1.8-1.2c0-0.6-0.5-1.1-1.5-1.1c-0.8,0-1.7,0.4-2.2,0.6l-0.5-1.7c0.6-0.4,1.9-0.8,3.2-0.8c2.2,0,3.4,1.2,3.4,2.6
		c0,1.1-0.6,2-1.9,2.4v0c1.2,0.2,2.2,1.2,2.2,2.5c0,1.8-1.6,3.2-4.2,3.2c-1.3,0-2.5-0.3-3.1-0.7L285.5,370.9z"/>
	<path class="st17" d="M293.5,375.2c0.5-1.4,0.9-3.1,1.1-4.5l2.5-0.2c-0.5,1.6-1.2,3.3-2,4.5L293.5,375.2z"/>
	<path class="st17" d="M303,373.3v-2.5h-4.6v-1.6l3.9-6.3h3v6.1h1.2v1.8h-1.2v2.5H303z M303,369v-2.3c0-0.6,0-1.3,0.1-1.9H303
		c-0.3,0.7-0.6,1.3-1,1.9l-1.4,2.3v0H303z"/>
	<path class="st17" d="M308.2,370.9c0.4,0.2,1.4,0.6,2.4,0.6c1.3,0,1.9-0.6,1.9-1.4c0-1-1-1.5-2.1-1.5h-1v-1.7h0.9
		c0.8,0,1.8-0.3,1.8-1.2c0-0.6-0.5-1.1-1.5-1.1c-0.8,0-1.7,0.4-2.2,0.6l-0.5-1.7c0.6-0.4,1.9-0.8,3.2-0.8c2.2,0,3.4,1.2,3.4,2.6
		c0,1.1-0.6,2-1.9,2.4v0c1.2,0.2,2.2,1.2,2.2,2.5c0,1.8-1.6,3.2-4.2,3.2c-1.3,0-2.5-0.3-3.1-0.7L308.2,370.9z"/>
	<path class="st17" d="M323.5,364.9h-4l-0.2,1.6c0.2,0,0.4,0,0.7,0c1,0,2,0.2,2.7,0.7c0.8,0.5,1.3,1.4,1.3,2.6
		c0,1.9-1.7,3.6-4.4,3.6c-1.3,0-2.3-0.3-2.9-0.6l0.4-1.8c0.5,0.2,1.4,0.5,2.3,0.5c1,0,2.1-0.5,2.1-1.6c0-1.1-0.8-1.7-2.9-1.7
		c-0.6,0-1,0-1.4,0.1l0.7-5.4h5.7V364.9z"/>
</g>
<g>
	<path class="st17" d="M385.9,373.3v-2.5h-4.6v-1.6l3.9-6.3h3v6.1h1.2v1.8h-1.2v2.5H385.9z M385.9,369v-2.3c0-0.6,0-1.3,0.1-1.9
		h-0.1c-0.3,0.7-0.6,1.3-1,1.9l-1.4,2.3v0H385.9z"/>
	<path class="st17" d="M390.9,372c0-0.9,0.6-1.5,1.4-1.5s1.4,0.6,1.4,1.5c0,0.8-0.6,1.5-1.4,1.5C391.5,373.4,390.9,372.8,390.9,372z
		"/>
	<path class="st17" d="M395.3,370.6c0-1.2,0.7-2.1,1.8-2.6v0c-1-0.5-1.5-1.4-1.5-2.3c0-1.7,1.6-2.9,3.6-2.9c2.4,0,3.4,1.4,3.4,2.7
		c0,0.9-0.5,1.8-1.5,2.3v0c1,0.4,1.9,1.2,1.9,2.6c0,1.9-1.6,3.1-4,3.1C396.5,373.4,395.3,372,395.3,370.6z M400.7,370.5
		c0-0.9-0.7-1.4-1.6-1.7c-0.8,0.2-1.3,0.8-1.3,1.5c0,0.7,0.6,1.4,1.5,1.4C400.1,371.8,400.7,371.2,400.7,370.5z M398,365.6
		c0,0.7,0.6,1.1,1.5,1.4c0.6-0.2,1-0.7,1-1.3c0-0.6-0.4-1.3-1.3-1.3C398.4,364.4,398,364.9,398,365.6z"/>
</g>
<g>
	<path class="st17" d="M443.3,372.1c0.4,0.3,1.2,0.7,2.2,0.7c2.1,0,2.6-1.5,2.6-2.4c0-1.7-1.5-2.4-3-2.4h-0.7v-0.6h0.7
		c1.1,0,2.6-0.7,2.6-2.1c0-1-0.5-1.8-2-1.8c-0.8,0-1.5,0.4-2,0.7l-0.3-0.6c0.5-0.4,1.4-0.8,2.4-0.8c2,0,2.7,1.2,2.7,2.4
		c0,1-0.7,2-1.9,2.4v0c1.3,0.3,2.3,1.2,2.3,2.7c0,1.5-1.1,3.1-3.5,3.1c-1,0-2-0.4-2.4-0.7L443.3,372.1z"/>
	<path class="st17" d="M456.6,362.9v0.6l-4.7,9.8h-0.7l4.6-9.6v0h-5.2v-0.7H456.6z"/>
	<path class="st17" d="M456.1,375.3c0.3-0.7,0.7-2.4,0.8-3.4l1-0.2c-0.3,1.2-1,3-1.2,3.4L456.1,375.3z"/>
	<path class="st17" d="M461.8,367.8c-1.3-0.5-1.7-1.4-1.7-2.3c0-1.6,1.3-2.7,2.9-2.7c1.7,0,2.7,1.2,2.7,2.5c0,0.9-0.4,1.8-1.8,2.5
		v0.1c1.5,0.6,2.2,1.5,2.2,2.7c0,1.7-1.5,2.9-3.2,2.9c-1.8,0-3.2-1.2-3.2-2.7C459.7,369.4,460.5,368.4,461.8,367.8L461.8,367.8z
		 M465.4,370.6c0-1.5-1-2.1-2.7-2.6c-1.5,0.4-2.2,1.4-2.2,2.5c-0.1,1.2,0.9,2.3,2.4,2.3C464.4,372.8,465.4,371.9,465.4,370.6z
		 M460.8,365.3c0,1.2,0.9,1.9,2.3,2.2c1.1-0.4,1.9-1.1,1.9-2.2c0-0.9-0.6-1.9-2-1.9C461.6,363.4,460.8,364.3,460.8,365.3z"/>
	<path class="st17" d="M468.4,372.7c0.3,0,0.7,0,1.2-0.1c0.8-0.1,1.6-0.5,2.3-1.2c0.7-0.7,1.2-1.8,1.4-3.3l0,0
		c-0.7,0.8-1.6,1.3-2.7,1.3c-1.9,0-3-1.5-3-3.1c0-1.9,1.3-3.6,3.3-3.6c1.8,0,3.1,1.5,3.1,4.3c0,2.3-0.8,3.9-1.8,4.9
		c-0.7,0.7-1.6,1.2-2.4,1.3c-0.6,0.1-1,0.2-1.4,0.1V372.7z M468.3,366.4c0,1.5,1,2.5,2.3,2.5c1.1,0,2-0.6,2.5-1.3
		c0.1-0.1,0.1-0.3,0.1-0.5c0-2.2-0.8-3.7-2.5-3.7C469.3,363.4,468.3,364.7,468.3,366.4z"/>
	<path class="st17" d="M477.6,367.8c-1.3-0.5-1.7-1.4-1.7-2.3c0-1.6,1.3-2.7,2.9-2.7c1.7,0,2.7,1.2,2.7,2.5c0,0.9-0.4,1.8-1.8,2.5
		v0.1c1.5,0.6,2.2,1.5,2.2,2.7c0,1.7-1.5,2.9-3.2,2.9c-1.8,0-3.2-1.2-3.2-2.7C475.5,369.4,476.3,368.4,477.6,367.8L477.6,367.8z
		 M481.1,370.6c0-1.5-1-2.1-2.7-2.6c-1.5,0.4-2.2,1.4-2.2,2.5c-0.1,1.2,0.9,2.3,2.4,2.3C480.2,372.8,481.1,371.9,481.1,370.6z
		 M476.6,365.3c0,1.2,0.9,1.9,2.3,2.2c1.1-0.4,1.9-1.1,1.9-2.2c0-0.9-0.6-1.9-2-1.9C477.4,363.4,476.6,364.3,476.6,365.3z"/>
</g>
<g>
	<path class="st17" d="M550,363.6h-3.9l-0.5,3.3c0.2,0,0.5-0.1,1-0.1c0.7,0,1.3,0.1,1.9,0.4c0.8,0.4,1.6,1.3,1.6,2.7
		c0,2.1-1.6,3.5-3.5,3.5c-1.1,0-1.9-0.3-2.4-0.7l0.3-0.6c0.4,0.3,1.2,0.6,2.1,0.6c1.5,0,2.7-1.1,2.7-2.7c0-1.5-0.9-2.6-3-2.6
		c-0.6,0-1.1,0-1.5,0.1l0.7-4.7h4.5V363.6z"/>
	<path class="st17" d="M552,372.7c0-0.4,0.3-0.7,0.7-0.7c0.4,0,0.6,0.3,0.6,0.7c0,0.4-0.3,0.7-0.7,0.7
		C552.3,373.4,552,373.1,552,372.7z"/>
	<path class="st17" d="M555.3,372.7c0.3,0,0.7,0,1.2-0.1c0.8-0.1,1.6-0.5,2.3-1.2c0.7-0.7,1.2-1.8,1.4-3.3l0,0
		c-0.7,0.8-1.6,1.3-2.7,1.3c-1.9,0-3-1.5-3-3.1c0-1.9,1.3-3.6,3.3-3.6c1.8,0,3.1,1.5,3.1,4.3c0,2.3-0.8,3.9-1.8,4.9
		c-0.7,0.7-1.6,1.2-2.4,1.3c-0.6,0.1-1,0.2-1.4,0.1V372.7z M555.2,366.4c0,1.5,1,2.5,2.3,2.5c1.1,0,2-0.6,2.5-1.3
		c0.1-0.1,0.1-0.3,0.1-0.5c0-2.2-0.8-3.7-2.5-3.7C556.2,363.4,555.2,364.7,555.2,366.4z"/>
</g>
<g>
	<path class="st17" d="M611.3,368.3v1.6h-4.2v-1.6H611.3z"/>
	<path class="st17" d="M614.7,365.1L614.7,365.1l-2,0.9l-0.4-1.8l2.7-1.3h2v10.3h-2.3V365.1z"/>
	<path class="st17" d="M622.3,365.1L622.3,365.1l-2,0.9l-0.4-1.8l2.7-1.3h2v10.3h-2.3V365.1z"/>
	<path class="st17" d="M627.7,372c0-0.9,0.6-1.5,1.4-1.5s1.4,0.6,1.4,1.5c0,0.8-0.6,1.5-1.4,1.5C628.3,373.4,627.7,372.8,627.7,372z
		"/>
	<path class="st17" d="M632.1,370.6c0-1.2,0.7-2.1,1.8-2.6v0c-1-0.5-1.5-1.4-1.5-2.3c0-1.7,1.6-2.9,3.6-2.9c2.4,0,3.4,1.4,3.4,2.7
		c0,0.9-0.5,1.8-1.5,2.3v0c1,0.4,1.9,1.2,1.9,2.6c0,1.9-1.6,3.1-4,3.1C633.3,373.4,632.1,372,632.1,370.6z M637.4,370.5
		c0-0.9-0.7-1.4-1.6-1.7c-0.8,0.2-1.3,0.8-1.3,1.5c0,0.7,0.6,1.4,1.5,1.4C636.9,371.8,637.4,371.2,637.4,370.5z M634.7,365.6
		c0,0.7,0.6,1.1,1.5,1.4c0.6-0.2,1-0.7,1-1.3c0-0.6-0.4-1.3-1.3-1.3C635.1,364.4,634.7,364.9,634.7,365.6z"/>
</g>
</svg>
