<svg xmlns="http://www.w3.org/2000/svg" xmlns:xlink="http://www.w3.org/1999/xlink" viewBox="0 0 166 51.43"><defs><style>.cls-1,.cls-2{fill:none;}.cls-2{stroke:#6fccdd;stroke-linecap:round;stroke-linejoin:round;stroke-width:4px;}.cls-3{opacity:0.8;}.cls-4{clip-path:url(#clip-path);}.cls-5{fill:#fff;}.cls-6{fill:#4d4d4f;}.cls-7{clip-path:url(#clip-path-2);}.cls-8{clip-path:url(#clip-path-3);}.cls-9{clip-path:url(#clip-path-4);}.cls-10{clip-path:url(#clip-path-5);}</style><clipPath id="clip-path" transform="translate(-9 -7)"><rect class="cls-1" x="133.34" width="50.66" height="17.08"/></clipPath><clipPath id="clip-path-2" transform="translate(-9 -7)"><rect class="cls-1" x="102" y="12.87" width="50" height="17.08"/></clipPath><clipPath id="clip-path-3" transform="translate(-9 -7)"><rect class="cls-1" x="68" y="14.72" width="49" height="17.08"/></clipPath><clipPath id="clip-path-4" transform="translate(-9 -7)"><rect class="cls-1" x="32.47" y="25.92" width="48.53" height="17.08"/></clipPath><clipPath id="clip-path-5" transform="translate(-9 -7)"><rect class="cls-1" y="35.74" width="50" height="17.08"/></clipPath></defs><g id="Capa_2" data-name="Capa 2"><g id="Capa_1-2" data-name="Capa 1"><polyline class="cls-2" points="17.73 49.43 47.12 43.19 82.29 29.43 115.16 28.8 149.09 14.16"/><g class="cls-3"><g class="cls-4"><rect class="cls-5" x="133.34" width="32.66" height="9.08" rx="2"/></g></g><path class="cls-6" d="M148.13,13.8a3.44,3.44,0,0,0,1.51.4c.79,0,1.19-.38,1.19-.86,0-.65-.64-.94-1.3-.94h-.62V11.31h.59c.51,0,1.15-.2,1.15-.75,0-.39-.31-.68-1-.68a2.88,2.88,0,0,0-1.35.39L148,9.18a4,4,0,0,1,2-.49c1.38,0,2.15.72,2.15,1.61A1.55,1.55,0,0,1,151,11.81v0a1.62,1.62,0,0,1,1.41,1.59c0,1.14-1,2-2.66,2a4,4,0,0,1-1.93-.45Z" transform="translate(-9 -7)"/><path class="cls-6" d="M154.54,15.4a.93.93,0,1,1,.91-.92.87.87,0,0,1-.91.92Z" transform="translate(-9 -7)"/><path class="cls-6" d="M159,8.69c1.52,0,2.15.87,2.15,1.66a1.58,1.58,0,0,1-.95,1.43v0a1.71,1.71,0,0,1,1.2,1.61c0,1.18-1,2-2.5,2s-2.4-.93-2.4-1.81A1.72,1.72,0,0,1,157.66,12v0a1.59,1.59,0,0,1-.93-1.43c0-1.1,1-1.82,2.27-1.82Zm0,5.66a.82.82,0,0,0,.89-.81c0-.57-.43-.91-1-1.07a1,1,0,0,0-.79,1,.89.89,0,0,0,.91.91Zm0-4.64a.72.72,0,0,0-.78.75c0,.44.39.72.91.88a.89.89,0,0,0,.66-.82.75.75,0,0,0-.78-.81Z" transform="translate(-9 -7)"/><path class="cls-6" d="M164,8.69a1.73,1.73,0,0,1,1.74,1.93,1.86,1.86,0,0,1-1.8,2.07,1.79,1.79,0,0,1-1.77-2,1.85,1.85,0,0,1,1.82-2Zm-.05.82c-.45,0-.65.52-.65,1.18s.23,1.17.67,1.17.64-.44.64-1.18-.18-1.17-.65-1.17ZM164,15.4l3.74-6.7h.81l-3.73,6.7Zm4.67-4a1.73,1.73,0,0,1,1.74,1.93,1.86,1.86,0,0,1-1.8,2.07,1.78,1.78,0,0,1-1.76-2,1.85,1.85,0,0,1,1.81-2Zm0,.83c-.45,0-.65.52-.65,1.17s.23,1.17.66,1.17.64-.44.64-1.17-.18-1.17-.64-1.17Z" transform="translate(-9 -7)"/><g class="cls-3"><g class="cls-7"><rect class="cls-5" x="102" y="12.87" width="32" height="9.08" rx="2"/></g></g><path class="cls-6" d="M118.89,22.58h0l-1.13.61-.17-.67,1.42-.76h.74v6.5h-.84Z" transform="translate(-9 -7)"/><path class="cls-6" d="M122.5,28.37a.59.59,0,0,1-.58-.63.6.6,0,0,1,.6-.63.58.58,0,0,1,.59.63.59.59,0,0,1-.6.63Z" transform="translate(-9 -7)"/><path class="cls-6" d="M128.21,22.5h-2.48l-.24,1.67a3.37,3.37,0,0,1,.53,0,2.71,2.71,0,0,1,1.39.35,1.84,1.84,0,0,1,.93,1.67,2.25,2.25,0,0,1-2.41,2.22,3.21,3.21,0,0,1-1.62-.4l.22-.67a2.92,2.92,0,0,0,1.4.36,1.42,1.42,0,0,0,1.52-1.42c0-.83-.57-1.43-1.85-1.43a5.43,5.43,0,0,0-.91.07l.42-3.12h3.1Z" transform="translate(-9 -7)"/><path class="cls-6" d="M130.9,21.65c.89,0,1.48.7,1.48,1.94s-.71,2-1.54,2-1.51-.65-1.52-1.95.7-2,1.57-2Zm-.05.53c-.54,0-.84.65-.84,1.47s.3,1.45.85,1.45.83-.61.83-1.47-.23-1.45-.83-1.45Zm-.08,6.2,3.82-6.74h.56l-3.83,6.74Zm4.36-4c.9,0,1.49.69,1.49,1.93s-.71,2.06-1.55,2.06-1.51-.66-1.52-2,.7-2,1.57-2Zm0,.53c-.54,0-.84.64-.84,1.46s.3,1.47.85,1.47.84-.62.84-1.49-.23-1.44-.84-1.44Z" transform="translate(-9 -7)"/><g class="cls-3"><g class="cls-8"><rect class="cls-5" x="68" y="14.72" width="31" height="9.08" rx="2"/></g></g><path class="cls-6" d="M84.62,24.33h0l-1.13.61-.17-.67,1.42-.76h.75V30h-.85Z" transform="translate(-9 -7)"/><path class="cls-6" d="M88.23,30.12a.59.59,0,0,1-.58-.63.6.6,0,0,1,.6-.63.58.58,0,0,1,.59.63.59.59,0,0,1-.6.63Z" transform="translate(-9 -7)"/><path class="cls-6" d="M92.56,30V28.23h-3v-.57l2.9-4.15h1v4h.9v.68h-.9V30Zm0-2.46V25.38q0-.51,0-1h0c-.2.38-.36.66-.54,1l-1.59,2.21v0Z" transform="translate(-9 -7)"/><path class="cls-6" d="M96.43,23.4c.9,0,1.49.7,1.49,1.94s-.71,2-1.55,2-1.51-.65-1.52-1.95.7-2,1.57-2Zm-.05.53c-.54,0-.84.65-.84,1.47s.3,1.45.85,1.45.84-.61.84-1.47-.23-1.45-.84-1.45Zm-.08,6.2,3.82-6.74h.56l-3.82,6.74Zm4.36-4c.9,0,1.49.69,1.49,1.93s-.71,2.06-1.55,2.06-1.5-.66-1.52-2,.7-2,1.57-2Zm0,.53c-.54,0-.84.64-.84,1.46s.3,1.47.85,1.47.84-.62.84-1.49-.23-1.44-.84-1.44Z" transform="translate(-9 -7)"/><g class="cls-3"><g class="cls-9"><rect class="cls-5" x="32.48" y="25.92" width="30.52" height="9.08" rx="2"/></g></g><path class="cls-6" d="M48.21,35.53h0l-1.13.61-.17-.67,1.42-.76h.75v6.5h-.85Z" transform="translate(-9 -7)"/><path class="cls-6" d="M51.82,41.32a.59.59,0,0,1-.58-.63.6.6,0,0,1,.6-.63.58.58,0,0,1,.59.63.59.59,0,0,1-.6.63Z" transform="translate(-9 -7)"/><path class="cls-6" d="M55.52,41.32c-1.27,0-2.14-1.19-2.16-3.34s1-3.38,2.27-3.38,2.15,1.22,2.15,3.29-.83,3.43-2.25,3.43Zm0-.68c.89,0,1.32-1,1.32-2.71s-.4-2.65-1.32-2.65-1.32,1-1.32,2.65.5,2.71,1.31,2.71Z" transform="translate(-9 -7)"/><path class="cls-6" d="M60.29,34.6c.9,0,1.49.7,1.49,1.94s-.71,2-1.55,2-1.51-.65-1.52-1.95.7-2,1.57-2Zm0,.53c-.54,0-.84.65-.84,1.47s.3,1.45.85,1.45.84-.61.84-1.47-.23-1.45-.84-1.45Zm-.08,6.2L64,34.59h.56l-3.83,6.74Zm4.37-4c.9,0,1.49.69,1.49,1.93s-.71,2.06-1.55,2.06-1.51-.66-1.52-2,.7-2,1.57-2Zm0,.53c-.54,0-.84.64-.84,1.46s.3,1.47.85,1.47.84-.62.84-1.49-.23-1.44-.84-1.44Z" transform="translate(-9 -7)"/><g class="cls-3"><g class="cls-10"><rect class="cls-5" y="35.74" width="32" height="9.08" rx="2"/></g></g><path class="cls-6" d="M17.4,50.93c-1.27,0-2.14-1.19-2.16-3.34s1-3.38,2.27-3.38,2.14,1.22,2.14,3.29-.83,3.43-2.25,3.43Zm0-.68c.89,0,1.32-1,1.32-2.71s-.4-2.65-1.32-2.65-1.31,1-1.31,2.65.5,2.71,1.31,2.71Z" transform="translate(-9 -7)"/><path class="cls-6" d="M21.25,50.93a.59.59,0,0,1-.58-.63.6.6,0,0,1,.6-.63.59.59,0,0,1,.59.63.6.6,0,0,1-.6.63Z" transform="translate(-9 -7)"/><path class="cls-6" d="M23.19,50.2a3.81,3.81,0,0,0,.71,0,2.37,2.37,0,0,0,1.35-.62,2.88,2.88,0,0,0,.86-1.73h0a1.91,1.91,0,0,1-1.54.7,1.88,1.88,0,0,1-1.91-2,2.23,2.23,0,0,1,2.23-2.3C26.18,44.21,27,45.28,27,47a4.11,4.11,0,0,1-1.12,3,3.31,3.31,0,0,1-1.89.87,4.93,4.93,0,0,1-.8.05Zm1.58-5.32c-.74,0-1.26.66-1.26,1.58a1.24,1.24,0,0,0,1.24,1.38A1.48,1.48,0,0,0,26,47.16a.69.69,0,0,0,.07-.32c0-1.12-.41-2-1.33-2Z" transform="translate(-9 -7)"/><path class="cls-6" d="M29.52,44.21c.9,0,1.49.7,1.49,1.94s-.71,2-1.54,2S28,47.54,28,46.24s.7-2,1.57-2Zm0,.53c-.54,0-.84.65-.84,1.47s.3,1.45.84,1.45.84-.61.84-1.47-.23-1.45-.84-1.45Zm-.08,6.2,3.82-6.74h.56L30,50.94Zm4.36-4c.9,0,1.49.69,1.49,1.93s-.71,2.06-1.55,2.06-1.51-.66-1.52-2,.7-2,1.57-2Zm0,.53c-.54,0-.84.64-.84,1.46s.3,1.47.85,1.47.84-.62.84-1.49-.23-1.44-.84-1.44Z" transform="translate(-9 -7)"/></g></g></svg>