<svg xmlns="http://www.w3.org/2000/svg" viewBox="0 0 39.2 39.2"><defs><style>.cls-1{fill:#007dc3;}.cls-2{fill:#fff;}</style></defs><g id="Capa_2" data-name="Capa 2"><g id="Capa_1-2" data-name="Capa 1"><path class="cls-1" d="M19.6,39.2A19.6,19.6,0,1,0,0,19.6,19.61,19.61,0,0,0,19.6,39.2"/><path class="cls-2" d="M19.54,16.19a3,3,0,1,0,3,3,3,3,0,0,0-3-3m0,7a4,4,0,1,1,4-4,4,4,0,0,1-4,4m-8.5-10a1.5,1.5,0,0,0-1.5,1.5v.5H10a1.5,1.5,0,0,0,1.5-1.5v-.5Zm16.5,0v.5a1.5,1.5,0,0,0,1.5,1.5h.5v-.5a1.5,1.5,0,0,0-1.5-1.5Zm-18,10v.5a1.5,1.5,0,0,0,1.5,1.5h.54v-.5a1.5,1.5,0,0,0-1.5-1.5Zm0-7v6h.54a2.49,2.49,0,0,1,2.5,2.5v.5h14v-.5a2.5,2.5,0,0,1,2.5-2.5h.5v-6H29a2.5,2.5,0,0,1-2.5-2.5v-.5h-14v.5a2.5,2.5,0,0,1-2.5,2.5Zm19.5,7a1.5,1.5,0,0,0-1.5,1.5v.5H28a1.5,1.5,0,0,0,1.5-1.5v-.5Zm-16.95,3a.58.58,0,0,1-.19,0H11a2.5,2.5,0,0,1-2.5-2.5v-9a2.5,2.5,0,0,1,2.5-2.5H28a2.5,2.5,0,0,1,2.5,2.5v9a2.5,2.5,0,0,1-2.5,2.5H12.27a.58.58,0,0,1-.18,0"/></g></g></svg>