<svg xmlns="http://www.w3.org/2000/svg" viewBox="0 0 39.2 39.2"><defs><style>.cls-1{fill:#007dc3;}.cls-2{fill:#fff;}</style></defs><g id="Capa_2" data-name="Capa 2"><g id="Capa_1-2" data-name="Capa 1"><path class="cls-1" d="M19.6,39.2A19.6,19.6,0,1,0,0,19.6,19.61,19.61,0,0,0,19.6,39.2"/><path class="cls-2" d="M15,21.63a.51.51,0,0,1-.51-.5.56.56,0,0,1,.15-.37l4.07-4.06a.51.51,0,0,1,.72,0h0l2.69,2.69L27,14.52H24.18a.51.51,0,1,1,0-1h4.06a.51.51,0,0,1,.51.51v4.06a.51.51,0,0,1-.51.51.5.5,0,0,1-.5-.51V15.23L22.5,20.47a.51.51,0,0,1-.72,0h0l-2.69-2.69-3.71,3.7a.48.48,0,0,1-.36.15M28.24,25.7H13a2.54,2.54,0,0,1-2.54-2.54V14a.51.51,0,0,1,1,0v9.15A1.52,1.52,0,0,0,13,24.68H28.24a.51.51,0,0,1,0,1"/></g></g></svg>