<?xml version="1.0" encoding="utf-8"?>
<!-- Generator: Adobe Illustrator 25.2.0, SVG Export Plug-In . SVG Version: 6.00 Build 0)  -->
<svg version="1.1" id="Capa_1" xmlns="http://www.w3.org/2000/svg" xmlns:xlink="http://www.w3.org/1999/xlink" x="0px" y="0px"
	 viewBox="0 0 40 40" style="enable-background:new 0 0 40 40;" xml:space="preserve">
<style type="text/css">
	.st0{clip-path:url(#SVGID_2_);fill:#2670CA;}
	.st1{clip-path:url(#SVGID_2_);fill:#FFFFFF;}
</style>
<g>
	<defs>
		<rect id="SVGID_1_" x="0.4" y="0.4" width="39.2" height="39.2"/>
	</defs>
	<clipPath id="SVGID_2_">
		<use xlink:href="#SVGID_1_"  style="overflow:visible;"/>
	</clipPath>
	<path class="st0" d="M20,39.6c10.8,0,19.6-8.8,19.6-19.6C39.6,9.2,30.8,0.4,20,0.4S0.4,9.2,0.4,20C0.4,30.8,9.2,39.6,20,39.6"/>
	<path class="st1" d="M21.5,13c-0.3,0-0.5-0.2-0.5-0.5c0-0.8-0.6-1.5-1.5-1.5c-0.8,0-1.5,0.7-1.5,1.5c0,0.3-0.2,0.5-0.5,0.5
		c-0.3,0-0.5-0.2-0.5-0.5c0-1.4,1.1-2.5,2.5-2.5s2.5,1.1,2.5,2.5C22,12.8,21.8,13,21.5,13 M25,20c-0.6,0-1-0.4-1-1s0.4-1,1-1
		c0.6,0,1,0.4,1,1S25.6,20,25,20 M17.5,27h6c0.3,0,0.5,0.2,0.5,0.5V29h2v-3.5c0-0.2,0.1-0.3,0.2-0.4c1.2-0.9,1.8-1.8,1.8-2.6
		c0-0.3,0.2-0.5,0.5-0.5H30v-3h-1.5c-0.2,0-0.4-0.1-0.5-0.3c-0.2-0.6-0.5-1.1-0.9-1.5C27,17.1,27,16.9,27,16.8v-3.7
		c-1,0.2-1.8,1-2,2c0,0.1-0.1,0.3-0.2,0.3c-0.1,0.1-0.3,0.1-0.4,0.1c-1.3-0.4-2.6-0.5-3.9-0.5c-2.2-0.1-4.4,0.5-6.3,1.7
		c-1.3,0.8-2.1,2.2-2.2,3.8c0,2.8,0.9,4.6,2.7,5.6c0.2,0,0.3,0.2,0.3,0.4V29h2v-1.5C17,27.2,17.2,27,17.5,27 M26.5,30h-3
		c-0.3,0-0.5-0.2-0.5-0.5V28h-5v1.5c0,0.3-0.2,0.5-0.5,0.5h-3c-0.3,0-0.5-0.2-0.5-0.5v-2.7c-1.7-1-2.8-2.8-2.9-4.8
		C9.9,21.8,9,20.7,9,19.5v-1C9,18.2,9.2,18,9.5,18s0.5,0.2,0.5,0.5v1c0,0.6,0.4,1.2,1,1.4v-0.4c0-1.8,1-3.6,2.5-4.6
		c2.1-1.4,4.5-2,7-1.9c1.2,0,2.5,0.1,3.7,0.4C24.7,13,26,12,27.5,12c0.3,0,0.5,0.2,0.5,0.5v4.1c0.3,0.4,0.6,0.9,0.8,1.4h1.7
		c0.3,0,0.5,0.2,0.5,0.5v4c0,0.3-0.2,0.5-0.5,0.5H29c-0.3,1.1-1,2.1-2,2.7v3.8C27,29.8,26.8,30,26.5,30"/>
</g>
</svg>
