<?xml version="1.0" encoding="utf-8"?>
<!-- Generator: Adobe Illustrator 25.2.0, SVG Export Plug-In . SVG Version: 6.00 Build 0)  -->
<svg version="1.1" id="Capa_1" xmlns="http://www.w3.org/2000/svg" xmlns:xlink="http://www.w3.org/1999/xlink" x="0px" y="0px"
	 viewBox="0 0 40 40" style="enable-background:new 0 0 40 40;" xml:space="preserve">
<style type="text/css">
	.st0{clip-path:url(#SVGID_2_);fill:#EEF1F3;}
	.st1{clip-path:url(#SVGID_2_);fill:#AABBCE;}
</style>
<g>
	<defs>
		<rect id="SVGID_1_" x="0.4" y="0.4" width="39.2" height="39.2"/>
	</defs>
	<clipPath id="SVGID_2_">
		<use xlink:href="#SVGID_1_"  style="overflow:visible;"/>
	</clipPath>
	<path class="st0" d="M20,39.6c10.8,0,19.6-8.8,19.6-19.6C39.6,9.2,30.8,0.4,20,0.4S0.4,9.2,0.4,20C0.4,30.8,9.2,39.6,20,39.6"/>
	<path class="st1" d="M23.5,22c-0.3,0-0.5,0.2-0.5,0.5v2c0,0.3,0.2,0.5,0.5,0.5h1c0.3,0,0.5-0.2,0.5-0.5v-2c0-0.3-0.2-0.5-0.5-0.5
		H23.5z M24.5,26h-1c-0.8,0-1.5-0.7-1.5-1.5v-2c0-0.8,0.7-1.5,1.5-1.5h1c0.8,0,1.5,0.7,1.5,1.5v2C26,25.3,25.3,26,24.5,26 M25,16
		c0.3,0,0.5,0.2,0.5,0.5v1c0,0.3,0.2,0.5,0.5,0.5h2.5c0.3,0,0.5-0.2,0.5-0.5v-0.8v-0.2L27.2,12H12.8L11,16.5v0.2v0.8
		c0,0.3,0.2,0.5,0.5,0.5H14c0.3,0,0.5-0.2,0.5-0.5v-1c0-0.3,0.2-0.5,0.5-0.5s0.5,0.2,0.5,0.5v1c0,0.3,0.2,0.5,0.5,0.5h3
		c0.3,0,0.5-0.2,0.5-0.5v-1c0-0.3,0.2-0.5,0.5-0.5c0.3,0,0.5,0.2,0.5,0.5v1c0,0.3,0.2,0.5,0.5,0.5h3c0.3,0,0.5-0.2,0.5-0.5v-1
		C24.5,16.2,24.7,16,25,16 M15.5,22c-0.3,0-0.5,0.2-0.5,0.5V28h4v-5.5c0-0.3-0.2-0.5-0.5-0.5H15.5z M26.5,29h-13
		c-1.4,0-2.5-1.1-2.5-2.5v-7.6c0.2,0.1,0.3,0.1,0.5,0.1H12v7.5c0,0.8,0.7,1.5,1.5,1.5H14v-5.5c0-0.8,0.7-1.5,1.5-1.5h3
		c0.8,0,1.5,0.7,1.5,1.5V28h6.5c0.8,0,1.5-0.7,1.5-1.5V19h-2c-0.4,0-0.7-0.1-1-0.4c-0.3,0.2-0.6,0.4-1,0.4h-3c-0.4,0-0.7-0.1-1-0.4
		c-0.3,0.2-0.6,0.4-1,0.4h-3c-0.4,0-0.7-0.1-1-0.4c-0.3,0.3-0.6,0.4-1,0.4h-2v-0.5h-1v0.4c-0.6-0.2-1-0.8-1-1.4v-0.8
		c0-0.2,0-0.4,0.1-0.6l1.9-4.8c0.1-0.2,0.3-0.3,0.5-0.3h15c0.2,0,0.4,0.1,0.5,0.3l1.9,4.8c0.1,0.2,0.1,0.4,0.1,0.6v0.8
		c0,0.6-0.4,1.2-1,1.4v-0.4h-1V19h0.5c0.2,0,0.3,0,0.5-0.1v7.6C29,27.9,27.9,29,26.5,29"/>
</g>
</svg>
