<svg xmlns="http://www.w3.org/2000/svg" viewBox="0 0 39.2 39.2"><defs><style>.cls-1{fill:#007dc3;}.cls-2{fill:#fff;}</style></defs><g id="Capa_2" data-name="Capa 2"><g id="Capa_1-2" data-name="Capa 1"><path class="cls-1" d="M19.6,39.2A19.6,19.6,0,1,0,0,19.6,19.61,19.61,0,0,0,19.6,39.2"/><path class="cls-2" d="M19,22.27a.51.51,0,0,1-.5-.5v-.5h-1v.5a.5.5,0,0,1-.5.5.51.51,0,0,1-.5-.5v-.5H16a1.5,1.5,0,0,1-1.5-1.5.5.5,0,0,1,.5-.5.5.5,0,0,1,.5.5.51.51,0,0,0,.5.5h4a.5.5,0,0,0,.5-.5v-1a.5.5,0,0,0-.5-.5H16a1.5,1.5,0,0,1-1.5-1.5v-1a1.5,1.5,0,0,1,1.5-1.5h.5v-.5a.5.5,0,0,1,.5-.5.5.5,0,0,1,.5.5v.5h1v-.5a.5.5,0,0,1,.5-.5.5.5,0,0,1,.5.5v.5H20a1.5,1.5,0,0,1,1.5,1.5.5.5,0,0,1-.5.5.51.51,0,0,1-.5-.5.5.5,0,0,0-.5-.5H16a.5.5,0,0,0-.5.5v1a.51.51,0,0,0,.5.5h4a1.5,1.5,0,0,1,1.5,1.5v1a1.5,1.5,0,0,1-1.5,1.5h-.5v.5a.5.5,0,0,1-.5.5m-6-11a1.5,1.5,0,0,0-1.5,1.5v13.5a1,1,0,1,0,2,0v-1.5a.5.5,0,0,1,.5-.5h10.5V12.77a1.5,1.5,0,0,0-1.5-1.5Zm1.5,14v1a2.07,2.07,0,0,1-.26,1H26a1.5,1.5,0,0,0,1.5-1.5v-.5Zm11.5,3H12.54a2,2,0,0,1-2-2V12.77a2.5,2.5,0,0,1,2.5-2.5H23a2.5,2.5,0,0,1,2.5,2.5v11.5H28a.5.5,0,0,1,.5.5v1a2.5,2.5,0,0,1-2.5,2.5"/></g></g></svg>