<?xml version="1.0" encoding="utf-8"?>
<!-- Generator: Adobe Illustrator 25.2.0, SVG Export Plug-In . SVG Version: 6.00 Build 0)  -->
<svg version="1.1" id="Capa_1" xmlns="http://www.w3.org/2000/svg" xmlns:xlink="http://www.w3.org/1999/xlink" x="0px" y="0px"
	 viewBox="0 0 40 40" style="enable-background:new 0 0 40 40;" xml:space="preserve">
<style type="text/css">
	.st0{fill:#505B6C;}
	.st1{fill:#FFFFFF;}
</style>
<path class="st0" d="M20,39.6c10.8,0,19.6-8.8,19.6-19.6S30.8,0.4,20,0.4S0.4,9.2,0.4,20S9.2,39.6,20,39.6"/>
<path class="st1" d="M29.5,14h-8c-0.3,0-0.5-0.2-0.5-0.5s0.2-0.5,0.5-0.5h8c0.3,0,0.5,0.2,0.5,0.5S29.8,14,29.5,14 M27.5,16h-6
	c-0.3,0-0.5-0.2-0.5-0.5s0.2-0.5,0.5-0.5h6c0.3,0,0.5,0.2,0.5,0.5S27.8,16,27.5,16 M14,16.5c-0.1,0-0.3-0.1-0.4-0.1l-1-1
	c-0.2-0.2-0.2-0.5,0-0.7s0.5-0.2,0.7,0l0.7,0.5l1.7-2.1c0.1-0.1,0.4-0.2,0.6,0c0.2,0.2,0.3,0.5,0.1,0.7l-2,2.5
	C14.3,16.4,14.2,16.5,14,16.5 M14.5,11c-1.9,0-3.5,1.6-3.5,3.5s1.6,3.5,3.5,3.5s3.5-1.6,3.5-3.5c0-0.6-0.2-1.2-0.5-1.8
	C16.9,11.7,15.8,11,14.5,11 M14.5,19C12,19,10,17,10,14.5s2-4.5,4.5-4.5s4.5,2,4.5,4.5S17,19,14.5,19 M29.5,25h-8
	c-0.3,0-0.5-0.2-0.5-0.5s0.2-0.5,0.5-0.5h8c0.3,0,0.5,0.2,0.5,0.5S29.8,25,29.5,25 M27.5,27h-6c-0.3,0-0.5-0.2-0.5-0.5
	s0.2-0.5,0.5-0.5h6c0.3,0,0.5,0.2,0.5,0.5S27.8,27,27.5,27 M14.5,22c-0.8,0-1.5,0.2-2.1,0.7l2.1,2.1l2.1-2.1
	C16,22.2,15.3,22,14.5,22 M11.7,23.4C11.2,24,11,24.7,11,25.5s0.2,1.5,0.7,2.1l2.1-2.1L11.7,23.4z M17.3,23.4L17.3,23.4l-2.1,2.1
	l2.1,2.1C18.2,26.4,18.2,24.7,17.3,23.4 M14.5,26.2L14.5,26.2l-2.1,2.1c1.2,0.9,2.9,0.9,4.2,0L14.5,26.2z M14.5,30
	C12,30,10,28,10,25.5s2-4.5,4.5-4.5s4.5,2,4.5,4.5S17,30,14.5,30"/>
</svg>
