<svg id="Capa_1" data-name="Capa 1" xmlns="http://www.w3.org/2000/svg" xmlns:xlink="http://www.w3.org/1999/xlink" viewBox="0 0 39.2 39.2"><defs><style>.cls-1{fill:none;}.cls-2{clip-path:url(#clip-path);}.cls-3{fill:#0071ce;}.cls-4{fill:#fff;}</style><clipPath id="clip-path" transform="translate(0.24)"><rect class="cls-1" x="-0.24" width="39.2" height="39.2"/></clipPath></defs><g class="cls-2"><path class="cls-3" d="M19.36,39.2A19.6,19.6,0,1,0-.24,19.6a19.59,19.59,0,0,0,19.6,19.6" transform="translate(0.24)"/><path class="cls-4" d="M16.36,18.6a1,1,0,1,1,1-1,.94.94,0,0,1-1,1m6,0a1,1,0,1,1,1-1,.94.94,0,0,1-1,1m-2.5,6h-1a3.54,3.54,0,0,1-3.5-3.5.5.5,0,0,1,1,0,2.48,2.48,0,0,0,2.5,2.5h1a2.48,2.48,0,0,0,2.5-2.5.5.5,0,0,1,1,0,3.54,3.54,0,0,1-3.5,3.5m-.5-14a9,9,0,1,0,7.8,4.5,9,9,0,0,0-7.8-4.5m0,19a10,10,0,1,1,10-10,10,10,0,0,1-10,10" transform="translate(0.24)"/></g></svg>