<svg id="Capa_1" data-name="Capa 1" xmlns="http://www.w3.org/2000/svg" xmlns:xlink="http://www.w3.org/1999/xlink" viewBox="0 0 58.62 19.57"><defs><style>.cls-1{fill:none;}.cls-2{clip-path:url(#clip-path);}.cls-3{fill:#b2c3d7;}.cls-4{font-size:14.5px;fill:#545051;font-family:MyriadPro-Light, Myriad Pro;font-weight:300;letter-spacing:0em;}.cls-5{letter-spacing:0.01em;}.cls-6{letter-spacing:0em;}</style><clipPath id="clip-path" transform="translate(-10.65 -2.6)"><rect class="cls-1" x="10.65" y="2.6" width="58.64" height="19.57"/></clipPath></defs><g class="cls-2"><path class="cls-3" d="M19,12.75a.36.36,0,0,1-.36.36H17.17a.36.36,0,0,1-.36-.36V12a.36.36,0,0,1,.36-.36h1.45A.36.36,0,0,1,19,12Zm-.36-1.81H17.17A1.08,1.08,0,0,0,16.08,12v.73a1.09,1.09,0,0,0,1.09,1.09h1.45a1.09,1.09,0,0,0,1.09-1.09V12a1.08,1.08,0,0,0-1.09-1.08" transform="translate(-10.65 -2.6)"/><path class="cls-3" d="M31.66,20.72a.73.73,0,0,1-.72.73H15.72a.73.73,0,0,1-.73-.73V10.58a.73.73,0,0,1,.73-.73H30.94a.73.73,0,0,1,.72.73ZM30.94,9.13H15.72a1.45,1.45,0,0,0-1.45,1.45V20.72a1.45,1.45,0,0,0,1.45,1.45H30.94a1.45,1.45,0,0,0,1.45-1.45V10.58a1.45,1.45,0,0,0-1.45-1.45" transform="translate(-10.65 -2.6)"/><path class="cls-3" d="M29.49,19.27h-8.7a.36.36,0,0,0-.36.36.37.37,0,0,0,.36.37h8.7a.37.37,0,0,0,.36-.37.36.36,0,0,0-.36-.36" transform="translate(-10.65 -2.6)"/><path class="cls-3" d="M29.49,17.46H24.42a.36.36,0,1,0,0,.72h5.07a.36.36,0,1,0,0-.72" transform="translate(-10.65 -2.6)"/><path class="cls-3" d="M12.1,3.33H27.31a.73.73,0,0,1,.73.72V5.14H11.37V4.05a.73.73,0,0,1,.73-.72m1.08,11.59H12.1a.73.73,0,0,1-.73-.72V7.68H28v.18a.36.36,0,0,0,.72,0V4.05A1.45,1.45,0,0,0,27.31,2.6H12.1a1.45,1.45,0,0,0-1.45,1.45V14.2a1.45,1.45,0,0,0,1.45,1.45h1.08a.36.36,0,0,0,.36-.36.37.37,0,0,0-.36-.37" transform="translate(-10.65 -2.6)"/><text class="cls-4" transform="translate(28.87 15.22)">P<tspan class="cls-5" x="7.25" y="0">ag</tspan><tspan class="cls-6" x="22.04" y="0">o</tspan></text></g></svg>