<?xml version="1.0" encoding="utf-8"?>
<!-- Generator: Adobe Illustrator 25.1.0, SVG Export Plug-In . SVG Version: 6.00 Build 0)  -->
<svg version="1.1" id="Capa_1" xmlns="http://www.w3.org/2000/svg" xmlns:xlink="http://www.w3.org/1999/xlink" x="0px" y="0px"
	 viewBox="0 0 39.2 39.2" style="enable-background:new 0 0 39.2 39.2;" xml:space="preserve">
<style type="text/css">
	.st0{fill:#3977BB;}
	.st1{fill:#FFFFFF;}
</style>
<path class="st0" d="M19.6,39.2c10.8,0,19.6-8.8,19.6-19.6S30.4,0,19.6,0S0,8.8,0,19.6S8.8,39.2,19.6,39.2L19.6,39.2"/>
<g>
	<path class="st1" d="M20.4,27.8v-3.9h-7.2v-2.5l6.2-9.9h4.7V21H26v2.9h-1.9v3.9H20.4z M20.4,21v-3.6c0-1,0.1-2,0.1-3h-0.1
		c-0.5,1.1-1,2-1.5,3l-2.1,3.6V21C16.8,21,20.4,21,20.4,21z"/>
</g>
</svg>
