<svg id="Capa_1" data-name="Capa 1" xmlns="http://www.w3.org/2000/svg" viewBox="0 0 44.96 46.19"><defs><style>.cls-1{fill:#fff;}</style></defs><path class="cls-1" d="M34.71,43.59h-28A.69.69,0,0,1,6,42.9V10a.7.7,0,0,1,.7-.7h2.8a.7.7,0,0,1,0,1.4H7.42V42.19H34v-7a.7.7,0,0,1,1.4,0v7.7a.69.69,0,0,1-.7.69" transform="translate(-2.52 -0.91)"/><path class="cls-1" d="M34.71,26.1a.7.7,0,0,1-.7-.7V10.7h-2.1a.7.7,0,0,1,0-1.4h2.8a.7.7,0,0,1,.7.7V25.4a.7.7,0,0,1-.7.7" transform="translate(-2.52 -0.91)"/><path class="cls-1" d="M38.21,47.09h-35a.7.7,0,0,1-.7-.7V6.51a.7.7,0,0,1,.7-.7H13A.7.7,0,1,1,13,7.2H3.92V45.69H37.51v-14a.7.7,0,1,1,1.4,0V46.39a.7.7,0,0,1-.7.7" transform="translate(-2.52 -0.91)"/><path class="cls-1" d="M38.21,22.6a.7.7,0,0,1-.7-.7V7.2h-9.1a.69.69,0,0,1-.7-.69.7.7,0,0,1,.7-.71h9.8a.7.7,0,0,1,.7.71V21.9a.7.7,0,0,1-.7.7" transform="translate(-2.52 -0.91)"/><path class="cls-1" d="M29.81,19.8H17.21a.7.7,0,0,1,0-1.4h12.6a.7.7,0,0,1,0,1.4" transform="translate(-2.52 -0.91)"/><path class="cls-1" d="M28.41,27.5H17.21a.7.7,0,1,1,0-1.4h11.2a.7.7,0,0,1,0,1.4" transform="translate(-2.52 -0.91)"/><path class="cls-1" d="M26.31,35.2h-9.1a.7.7,0,0,1,0-1.4h9.1a.7.7,0,1,1,0,1.4" transform="translate(-2.52 -0.91)"/><path class="cls-1" d="M13.72,9.3h14V4.41h-4.3a.69.69,0,0,1-.67-.53,2.09,2.09,0,0,0-4,0,.71.71,0,0,1-.68.53H13.72Zm14.69,1.4H13a.7.7,0,0,1-.7-.7V3.71A.7.7,0,0,1,13,3h4.5a3.48,3.48,0,0,1,6.39,0h4.5a.7.7,0,0,1,.7.7V10a.7.7,0,0,1-.7.7" transform="translate(-2.52 -0.91)"/><path class="cls-1" d="M32,29.66l2,2,11.85-11.9-2-2Zm2,3.66a.7.7,0,0,1-.49-.2l-3-3a.71.71,0,0,1,0-1L43.31,16.28a.71.71,0,0,1,.49-.21h0a.67.67,0,0,1,.49.21l3,3a.71.71,0,0,1,0,1L34.44,33.12a.7.7,0,0,1-.5.2Z" transform="translate(-2.52 -0.91)"/><path class="cls-1" d="M31.35,31l-.41,1.63,1.63-.41ZM30,34.32a.7.7,0,0,1-.49-.2.75.75,0,0,1-.19-.67l1-4a.71.71,0,0,1,.49-.5.69.69,0,0,1,.68.18l3,3a.69.69,0,0,1,.18.68.67.67,0,0,1-.5.49l-3.95,1a.55.55,0,0,1-.18,0" transform="translate(-2.52 -0.91)"/><path class="cls-1" d="M13.72,36.6a.7.7,0,0,1-.5-.21l-2.8-2.8a.7.7,0,1,1,1-1l2.8,2.8a.71.71,0,0,1,0,1,.68.68,0,0,1-.49.21" transform="translate(-2.52 -0.91)"/><path class="cls-1" d="M10.92,36.6a.71.71,0,0,1-.5-1.2l2.8-2.8a.7.7,0,1,1,1,1l-2.8,2.8a.68.68,0,0,1-.49.21" transform="translate(-2.52 -0.91)"/><path class="cls-1" d="M11.92,21.14a.71.71,0,0,1-.5-.21L10.24,19.7a.7.7,0,0,1,1-1l.6.63,1.42-1.93a.7.7,0,0,1,1.13.83l-1.91,2.59a.71.71,0,0,1-.52.29h-.05" transform="translate(-2.52 -0.91)"/><path class="cls-1" d="M11.92,28.9a.68.68,0,0,1-.5-.22l-1.18-1.22a.7.7,0,0,1,1-1l.6.63,1.42-1.93A.7.7,0,0,1,14.4,26l-1.91,2.59a.75.75,0,0,1-.52.29h-.05" transform="translate(-2.52 -0.91)"/></svg>