<svg xmlns="http://www.w3.org/2000/svg" viewBox="0 0 39.2 39.2"><defs><style>.cls-1{fill:#fff;}.cls-2{fill:#a6bdd1;}</style></defs><g id="Capa_2" data-name="Capa 2"><g id="Capa_1-2" data-name="Capa 1"><path class="cls-1" d="M19.6,39.2A19.6,19.6,0,1,0,0,19.6,19.61,19.61,0,0,0,19.6,39.2"/><path class="cls-2" d="M25.23,21.6a1,1,0,1,0,1,1,.94.94,0,0,0-1-1m-2,0a1,1,0,1,0,0,2h.2a2.12,2.12,0,0,1,0-1.9c0-.1-.1-.1-.2-.1m0,3a2,2,0,1,1,0-4,1.93,1.93,0,0,1,1,.3,1.94,1.94,0,0,1,2.7.7,2.05,2.05,0,0,1-.7,2.7,1.82,1.82,0,0,1-2,0,1.69,1.69,0,0,1-1,.3m-11.5-11a1.54,1.54,0,0,0-1.5,1.5v.5h18v-.5a1.54,1.54,0,0,0-1.5-1.5Zm-1.5,4h18v-1h-18Zm0,1v5.5a1.54,1.54,0,0,0,1.5,1.5h15a1.54,1.54,0,0,0,1.5-1.5V18.6Zm16.5,8h-15a2.48,2.48,0,0,1-2.5-2.5v-9a2.48,2.48,0,0,1,2.5-2.5h15a2.48,2.48,0,0,1,2.5,2.5v9a2.48,2.48,0,0,1-2.5,2.5"/></g></g></svg>