<?xml version="1.0" encoding="utf-8"?>
<!-- Generator: Adobe Illustrator 25.2.0, SVG Export Plug-In . SVG Version: 6.00 Build 0)  -->
<svg version="1.1" id="Capa_1" xmlns="http://www.w3.org/2000/svg" xmlns:xlink="http://www.w3.org/1999/xlink" x="0px" y="0px"
	 viewBox="0 0 40 40" style="enable-background:new 0 0 40 40;" xml:space="preserve">
<style type="text/css">
	.st0{clip-path:url(#SVGID_2_);fill:#EEF1F3;}
	.st1{clip-path:url(#SVGID_2_);fill:#AABBCE;}
</style>
<g>
	<defs>
		<rect id="SVGID_1_" x="0.4" y="0.4" width="39.2" height="39.2"/>
	</defs>
	<clipPath id="SVGID_2_">
		<use xlink:href="#SVGID_1_"  style="overflow:visible;"/>
	</clipPath>
	<path class="st0" d="M20,39.6c10.8,0,19.6-8.8,19.6-19.6C39.6,9.2,30.8,0.4,20,0.4S0.4,9.2,0.4,20C0.4,30.8,9.2,39.6,20,39.6"/>
	<path class="st1" d="M20.3,20.3c-0.2,0-0.4,0-0.7,0c-2-0.3-3.5-1.8-3.9-3.7c0-0.2,0.1-0.4,0.3-0.5c0.2,0,0.4,0.1,0.5,0.3
		c0.3,1.6,1.6,2.8,3.2,3c1,0.1,2-0.1,2.8-0.7c0.8-0.6,1.3-1.5,1.5-2.5c0.3-2.1-1.2-4-3.2-4.3c-1.6-0.2-3.2,0.6-3.9,2
		c-0.1,0.2-0.4,0.3-0.6,0.2s-0.3-0.4-0.2-0.6c0.9-1.7,2.8-2.7,4.8-2.4c2.5,0.4,4.3,2.7,3.9,5.3c-0.2,1.2-0.8,2.3-1.8,3.1
		C22.2,20,21.3,20.3,20.3,20.3"/>
	<path class="st1" d="M20.3,8.9c-3.8,0-7,3.1-7,7c0,3.4,5.5,12.5,7,14.8c0.9-1.4,3.1-5,4.8-8.5c1.1-2.2,1.8-4,2-5.2
		c0.1-0.4,0.1-0.8,0.1-1.1c0-0.5-0.1-1.1-0.2-1.6C26.3,11.1,23.5,8.9,20.3,8.9 M20.3,31.9c-0.1,0-0.3-0.1-0.4-0.2
		c-0.3-0.5-7.4-11.7-7.4-15.8c0-4.3,3.5-7.8,7.8-7.8c3.7,0,6.8,2.5,7.6,6c0.1,0.6,0.2,1.2,0.2,1.8c0,0.4-0.1,0.8-0.2,1.3
		c-0.3,1.3-1,3.2-2.1,5.4c-2.2,4.4-5.1,9.1-5.2,9.1C20.6,31.8,20.4,31.9,20.3,31.9"/>
</g>
</svg>
