<?xml version="1.0" encoding="utf-8"?>
<!-- Generator: Adobe Illustrator 25.2.0, SVG Export Plug-In . SVG Version: 6.00 Build 0)  -->
<svg version="1.1" id="Capa_1" xmlns="http://www.w3.org/2000/svg" xmlns:xlink="http://www.w3.org/1999/xlink" x="0px" y="0px"
	 viewBox="0 0 40 40" style="enable-background:new 0 0 40 40;" xml:space="preserve">
<style type="text/css">
	.st0{clip-path:url(#SVGID_2_);fill:#F1B634;}
	.st1{clip-path:url(#SVGID_2_);fill:#FFFFFF;}
</style>
<g>
	<defs>
		<rect id="SVGID_1_" x="0.4" y="0.4" width="39.2" height="39.2"/>
	</defs>
	<clipPath id="SVGID_2_">
		<use xlink:href="#SVGID_1_"  style="overflow:visible;"/>
	</clipPath>
	<path class="st0" d="M20,39.6c10.8,0,19.6-8.8,19.6-19.6C39.6,9.2,30.8,0.4,20,0.4S0.4,9.2,0.4,20C0.4,30.8,9.2,39.6,20,39.6"/>
	<path class="st1" d="M12.2,20.2c-0.1,0-0.1,0-0.2-0.1l-3.2-2.1c-0.1-0.1-0.2-0.2-0.1-0.3c0,0,0.2-1.2,0.7-2.2
		c0.2-0.4,0.5-0.8,0.7-1.1c0.1-0.1,0.3-0.1,0.5,0c0.1,0.1,0.1,0.3,0,0.5c-0.2,0.3-0.5,0.6-0.7,1c-0.4,0.7-0.6,1.5-0.6,1.9l2.8,1.8
		l3-1.8c-0.1-0.6-0.6-2.3-1.6-3.1c-0.1-0.1-0.2-0.3,0-0.5c0.1-0.1,0.3-0.2,0.5,0c1.4,1.2,1.9,3.6,1.9,3.7c0,0.1,0,0.3-0.1,0.3
		l-3.3,2.1C12.4,20.2,12.3,20.2,12.2,20.2"/>
	<path class="st1" d="M12.2,14.5c-1,0-1.9-1.1-2.2-2.2c-0.1-0.2,0-0.3,0.2-0.4c0.2,0,0.3,0,0.4,0.2c0.2,0.8,0.9,1.7,1.6,1.7
		c0.8,0,1.6-1.3,1.7-2.4c0-0.2,0.2-0.3,0.3-0.3c0.2,0,0.3,0.2,0.3,0.3C14.5,12.7,13.5,14.5,12.2,14.5"/>
	<path class="st1" d="M12.3,9.2c-1.2,0-2.2,1-2.2,2.2c0,0.2,0,0.4,0.1,0.6c0.8-0.1,2-0.6,2.6-1.1c0.2-0.1,0.2-0.2,0.3-0.3
		c0.1-0.1,0.2-0.2,0.4-0.2c0.1,0,0.3,0.2,0.3,0.3c0,0.2,0,0.3,0,0.5c0,0.1,0,0.2,0,0.2c0.3-0.1,0.7-0.2,0.8-0.3
		C14.3,10,13.4,9.2,12.3,9.2 M10,12.6c-0.1,0-0.3-0.1-0.3-0.2c-0.1-0.2-0.2-0.6-0.2-1c0-1.5,1.3-2.8,2.8-2.8c1.5,0,2.7,1.1,2.8,2.6
		c0,0.1,0,0.1,0,0.2c-0.3,0.6-1.5,0.8-1.8,0.8c-0.1,0-0.2,0-0.3-0.1c-0.1-0.1-0.1-0.2-0.1-0.3c0,0,0-0.1,0-0.2
		C12.2,12.1,10.8,12.5,10,12.6C10,12.6,10,12.6,10,12.6"/>
	<path class="st1" d="M27.6,20.2c-0.1,0-0.1,0-0.2-0.1l-3.2-2.1c-0.1-0.1-0.2-0.2-0.1-0.3c0,0,0.2-1.2,0.7-2.2
		c0.2-0.4,0.5-0.8,0.7-1.1c0.1-0.1,0.3-0.1,0.5,0c0.1,0.1,0.1,0.3,0,0.5c-0.2,0.3-0.5,0.6-0.7,1c-0.4,0.7-0.6,1.5-0.6,1.9l2.8,1.8
		l3-1.8c-0.1-0.6-0.6-2.3-1.6-3.1c-0.1-0.1-0.2-0.3,0-0.5c0.1-0.1,0.3-0.2,0.4,0c1.4,1.2,1.9,3.6,1.9,3.7c0,0.1,0,0.3-0.1,0.3
		l-3.3,2.1C27.8,20.2,27.7,20.2,27.6,20.2"/>
	<path class="st1" d="M27.6,14.5c-1,0-1.9-1.1-2.2-2.2c0-0.2,0-0.3,0.2-0.4c0.2,0,0.3,0,0.4,0.2c0.2,0.8,0.9,1.7,1.6,1.7
		c0.8,0,1.6-1.3,1.7-2.4c0-0.2,0.2-0.3,0.3-0.3c0.2,0,0.3,0.2,0.3,0.3C29.9,12.7,28.9,14.5,27.6,14.5"/>
	<path class="st1" d="M27.7,9.2c-1.2,0-2.2,1-2.2,2.2c0,0.2,0,0.4,0.1,0.6c0.8-0.1,2-0.6,2.6-1.1c0.2-0.1,0.2-0.2,0.3-0.3
		c0.1-0.1,0.2-0.2,0.4-0.2c0.1,0,0.3,0.2,0.3,0.3c0,0.2,0,0.3,0,0.5c0,0.1,0,0.2,0,0.2c0.3-0.1,0.7-0.2,0.8-0.3
		C29.7,10,28.8,9.2,27.7,9.2 M25.4,12.6c-0.1,0-0.3-0.1-0.3-0.2c-0.1-0.2-0.2-0.6-0.2-1c0-1.5,1.3-2.8,2.8-2.8
		c1.5,0,2.7,1.1,2.8,2.6c0,0.1,0,0.1,0,0.2c-0.3,0.6-1.5,0.8-1.8,0.8c-0.1,0-0.2,0-0.3-0.1c-0.1-0.1-0.1-0.2-0.1-0.3
		c0,0,0-0.1,0-0.2C27.5,12.1,26.2,12.5,25.4,12.6C25.4,12.6,25.4,12.6,25.4,12.6"/>
	<path class="st1" d="M19.8,31.5c-0.1,0-0.1,0-0.2-0.1l-3.2-2.1c-0.1-0.1-0.2-0.2-0.1-0.3c0,0,0.2-1.2,0.7-2.2
		c0.2-0.4,0.5-0.8,0.7-1.1c0.1-0.1,0.3-0.1,0.5,0c0.1,0.1,0.1,0.3,0,0.5c-0.2,0.3-0.5,0.6-0.7,1c-0.4,0.7-0.6,1.5-0.6,1.9l2.8,1.8
		l3-1.8c-0.1-0.6-0.6-2.3-1.6-3.1c-0.1-0.1-0.2-0.3,0-0.5c0.1-0.1,0.3-0.2,0.4,0c1.4,1.2,1.9,3.6,1.9,3.7c0,0.1,0,0.3-0.1,0.3
		L20,31.4C19.9,31.5,19.8,31.5,19.8,31.5"/>
	<path class="st1" d="M19.8,25.8c-1,0-1.9-1.1-2.2-2.2c0-0.2,0-0.3,0.2-0.4c0.2,0,0.3,0,0.4,0.2c0.2,0.8,0.9,1.7,1.6,1.7
		c0.8,0,1.6-1.3,1.7-2.4c0-0.2,0.2-0.3,0.3-0.3c0.2,0,0.3,0.2,0.3,0.3C22,24,21.1,25.8,19.8,25.8"/>
	<path class="st1" d="M19.9,20.4c-1.2,0-2.2,1-2.2,2.2c0,0.2,0,0.4,0.1,0.6c0.8-0.1,2-0.6,2.6-1.1c0.2-0.1,0.2-0.2,0.3-0.3
		c0.1-0.1,0.2-0.2,0.4-0.2c0.1,0,0.3,0.2,0.3,0.3c0,0.2,0,0.3,0,0.5c0,0.1,0,0.2,0,0.2c0.3-0.1,0.7-0.2,0.8-0.3
		C21.9,21.2,20.9,20.4,19.9,20.4 M17.5,23.8c-0.1,0-0.3-0.1-0.3-0.2c-0.1-0.2-0.2-0.6-0.2-1c0-1.5,1.3-2.8,2.8-2.8
		c1.5,0,2.7,1.1,2.8,2.6c0,0.1,0,0.1,0,0.2c-0.3,0.6-1.5,0.8-1.8,0.8c-0.1,0-0.2,0-0.3-0.1s-0.1-0.2-0.1-0.3c0,0,0-0.1,0-0.2
		C19.7,23.4,18.3,23.8,17.5,23.8C17.5,23.8,17.5,23.8,17.5,23.8"/>
	<path class="st1" d="M15.8,12.4c-0.1,0-0.2-0.1-0.3-0.2c-0.1-0.2,0-0.3,0.1-0.4c1.3-0.7,2.7-1.1,4.2-1.1c1.4,0,2.8,0.4,4,1.1
		c0.2,0.1,0.2,0.3,0.1,0.4c-0.1,0.2-0.3,0.2-0.4,0.1c-1.1-0.6-2.4-1-3.7-1c-1.4,0-2.7,0.4-3.8,1C16,12.4,15.9,12.4,15.8,12.4"/>
	<path class="st1" d="M23.6,26.1c-0.1,0-0.2-0.1-0.3-0.2c-0.1-0.2,0-0.4,0.1-0.4c1.8-1,3.1-2.6,3.7-4.6c0-0.2,0.2-0.3,0.4-0.2
		c0.2,0,0.3,0.2,0.2,0.4c-0.6,2.1-2.1,3.9-4,4.9C23.7,26.1,23.6,26.1,23.6,26.1"/>
	<path class="st1" d="M16,26c-0.1,0-0.1,0-0.2,0c-1.8-1-3.2-2.7-3.8-4.7c-0.1-0.2,0-0.3,0.2-0.4c0.2-0.1,0.3,0,0.4,0.2
		c0.6,1.8,1.8,3.4,3.5,4.3c0.2,0.1,0.2,0.3,0.1,0.4C16.2,25.9,16.1,26,16,26"/>
</g>
</svg>
