<svg xmlns="http://www.w3.org/2000/svg" viewBox="0 0 39.2 39.2"><defs><style>.cls-1{fill:#fff;}.cls-2{fill:#a5bcd0;}</style></defs><g id="Capa_2" data-name="Capa 2"><g id="Capa_1-2" data-name="Capa 1"><path class="cls-1" d="M19.6,39.2A19.6,19.6,0,1,0,0,19.6,19.61,19.61,0,0,0,19.6,39.2"/><path class="cls-2" d="M24.39,22.5a10,10,0,0,1,2,.82.78.78,0,0,0,.82-.23,12.23,12.23,0,0,0,1.29-5.4c0-5.74-4.11-10.44-9-10.44s-9,4.7-9,10.44a11.85,11.85,0,0,0,1.29,5.4.67.67,0,0,0,.82.23,9.88,9.88,0,0,1,2-.82l-.35-1.17a5.16,5.16,0,0,0-1.29.47l-.47.11-.23-.47a11.5,11.5,0,0,1-.82-4c0-5.05,3.51-9.27,7.85-9.27s7.86,4.11,7.86,9.27a9.44,9.44,0,0,1-.82,4l-.24.47-.47-.23c-.46-.12-.82-.35-1.28-.47Z"/><path class="cls-2" d="M19.94,24h.46c.12,0,.24,0,.24-.11a.87.87,0,0,1,.35-.12.8.8,0,0,0,.35-.24c.24-.11.24-.23.35-.23s.24-.23.36-.35l.11-.12.24-.23a10.8,10.8,0,0,0,2.23-4.93c0-.23.11-.35.11-.58H17.82c-.23,0-.46-.24-.58-.47v0a.55.55,0,0,1-.59.47H13.84a.92.92,0,0,0,.11.58c.83,3.87,2.58,6.22,4.93,6.45h.47a1.54,1.54,0,0,1,.59-.12m-.47,1.06h-.59C16.07,24.73,14,22.15,13,17.81a4.7,4.7,0,0,1-.12-1.29.42.42,0,0,1,.47-.47H16.3l.47-3.4a.53.53,0,0,1,.59-.47c.35,0,.46.23.58.47l.47,3.4h.7l.12-1.64a.54.54,0,0,1,.59-.47.76.76,0,0,1,.58.47l.12,1.64h4.93c.11,0,.23.12.35.12a.41.41,0,0,1,.12.35c0,.47-.12.94-.12,1.29a10.54,10.54,0,0,1-2.46,5.39c-.12.12-.12.24-.24.24l-.12.11c-.23.24-.35.24-.46.36L22.4,24c-.12.12-.24.24-.35.24l-.12.12c-.12.11-.24.11-.35.23l-.12.12c-.12,0-.23.11-.35.11H21a.38.38,0,0,0-.23.12h-.24a.42.42,0,0,0-.35.12h-.7"/><path class="cls-2" d="M11,30.94H9.73a7.5,7.5,0,0,1,7.74-7.27V25c-3.16,0-6.45,2.47-6.45,6"/><path class="cls-2" d="M29.2,30.94H27.91c0-3.75-3.28-5.86-6.33-5.86V23.79a7.29,7.29,0,0,1,7.62,7.15"/><path class="cls-2" d="M17.24,17.69a.56.56,0,0,0-.59.59.55.55,0,0,0,.59.58.55.55,0,0,0,.58-.58.62.62,0,0,0-.58-.59"/><path class="cls-2" d="M21.69,17.69a.55.55,0,0,0-.58.59.59.59,0,0,0,1.17,0c.12-.24-.23-.59-.59-.59"/></g></g></svg>