<svg xmlns="http://www.w3.org/2000/svg" viewBox="0 0 39.2 39.2"><defs><style>.cls-1{fill:#3977bb;}.cls-2{fill:#fff;}</style></defs><g id="Capa_2" data-name="Capa 2"><g id="Capa_1-2" data-name="Capa 1"><path class="cls-1" d="M19.6,39.2A19.6,19.6,0,1,0,0,19.6,19.61,19.61,0,0,0,19.6,39.2"/><path class="cls-2" d="M23.15,20.6H23l-3.5-1.5-.3-.3-1.5-4.5a.42.42,0,0,1,.3-.6h.3c.2,0,.3.2.4.3l1.4,4.3,3.3,1.4a.52.52,0,0,1,.3.7.76.76,0,0,1-.5.2m-3.5,7a8.94,8.94,0,0,1-7.6-4.2.53.53,0,0,1,.2-.7c0-.1.1-.1.2-.1a.52.52,0,0,1,.4.2,8.15,8.15,0,0,0,6.8,3.8,8.37,8.37,0,0,0,4.8-1.6,8,8,0,1,0-12.8-6.4v.3l1.1-1.1a.49.49,0,1,1,.7.7l-2,2a.48.48,0,0,1-.7,0l-2-2a.48.48,0,0,1,0-.7.76.76,0,0,1,.4-.2c.1,0,.3.1.4.1l1.1,1.2v-.3a9,9,0,1,1,9,9"/></g></g></svg>