<?xml version="1.0" encoding="utf-8"?>
<!-- Generator: Adobe Illustrator 25.2.0, SVG Export Plug-In . SVG Version: 6.00 Build 0)  -->
<svg version="1.1" id="Capa_1" xmlns="http://www.w3.org/2000/svg" xmlns:xlink="http://www.w3.org/1999/xlink" x="0px" y="0px"
	 viewBox="0 0 40 40" style="enable-background:new 0 0 40 40;" xml:space="preserve">
<style type="text/css">
	.st0{clip-path:url(#SVGID_2_);fill:#2670CA;}
	.st1{clip-path:url(#SVGID_2_);fill:#FFFFFF;}
</style>
<g>
	<defs>
		<rect id="SVGID_1_" x="0.4" y="0.4" width="39.2" height="39.2"/>
	</defs>
	<clipPath id="SVGID_2_">
		<use xlink:href="#SVGID_1_"  style="overflow:visible;"/>
	</clipPath>
	<path class="st0" d="M20,39.6c10.8,0,19.6-8.8,19.6-19.6C39.6,9.2,30.8,0.4,20,0.4S0.4,9.2,0.4,20C0.4,30.8,9.2,39.6,20,39.6"/>
	<path class="st1" d="M17.5,12h-2c-0.3,0-0.5-0.2-0.5-0.5s0.2-0.5,0.5-0.5h2c0.3,0,0.5,0.2,0.5,0.5S17.8,12,17.5,12 M11.5,14
		c-0.3,0-0.5-0.2-0.5-0.5c0-1.4,1.1-2.5,2.5-2.5c0.3,0,0.5,0.2,0.5,0.5S13.8,12,13.5,12c-0.8,0-1.5,0.7-1.5,1.5
		C12,13.8,11.8,14,11.5,14 M20.5,15c-0.3,0-0.5-0.2-0.5-0.5v-4c0-0.3,0.2-0.5,0.5-0.5c0.3,0,0.5,0.2,0.5,0.5v4
		C21,14.8,20.8,15,20.5,15 M11.5,19c-0.3,0-0.5-0.2-0.5-0.5v-2c0-0.3,0.2-0.5,0.5-0.5s0.5,0.2,0.5,0.5v2C12,18.8,11.8,19,11.5,19
		 M18.5,21h-3c-0.3,0-0.5-0.2-0.5-0.5v-3c0-0.3,0.2-0.5,0.5-0.5s0.5,0.2,0.5,0.5v1.3c1-1.2,2.5-1.8,4-1.8c2.2,0,4.1,1.3,4.9,3.3
		c0.1,0.2,0,0.5-0.2,0.7c-0.2,0.1-0.5,0-0.7-0.2c-0.6-1.7-2.2-2.8-4-2.8c-1.5,0-2.9,0.7-3.6,2H16v-1.2c-0.4,0.4-0.7,0.9-0.9,1.5
		c-0.1,0.2,0,0.5,0.2,0.7c0.2,0.1,0.5,0,0.7-0.2c0.1-0.2,0.3-0.5,0.4-0.7h2.1c0.3,0,0.5,0.2,0.5,0.5S18.8,21,18.5,21 M11.5,24
		c-0.3,0-0.5-0.2-0.5-0.5v-2c0-0.3,0.2-0.5,0.5-0.5s0.5,0.2,0.5,0.5v2C12,23.8,11.8,24,11.5,24 M13.5,29c-1.4,0-2.5-1.1-2.5-2.5
		c0-0.3,0.2-0.5,0.5-0.5s0.5,0.2,0.5,0.5c0,0.8,0.7,1.5,1.5,1.5c0.3,0,0.5,0.2,0.5,0.5S13.8,29,13.5,29 M17.5,29h-2
		c-0.3,0-0.5-0.2-0.5-0.5s0.2-0.5,0.5-0.5h2c0.3,0,0.5,0.2,0.5,0.5S17.8,29,17.5,29 M26.5,29h-3c-0.3,0-0.5-0.2-0.5-0.5
		s0.2-0.5,0.5-0.5h3c0.8,0,1.5-0.7,1.5-1.5v-13c0-0.8-0.7-1.5-1.5-1.5h-3c-0.3,0-0.5-0.2-0.5-0.5s0.2-0.5,0.5-0.5h3
		c1.4,0,2.5,1.1,2.5,2.5v13C29,27.9,27.9,29,26.5,29 M20.5,30c-0.3,0-0.5-0.2-0.5-0.5v-7c0-0.3,0.2-0.5,0.5-0.5
		c0.3,0,0.5,0.2,0.5,0.5v7C21,29.8,20.8,30,20.5,30"/>
</g>
</svg>
