<?xml version="1.0" encoding="utf-8"?>
<!-- Generator: Adobe Illustrator 26.0.3, SVG Export Plug-In . SVG Version: 6.00 Build 0)  -->
<svg version="1.1" id="Capa_1" xmlns="http://www.w3.org/2000/svg" xmlns:xlink="http://www.w3.org/1999/xlink" x="0px" y="0px"
	 viewBox="0 0 26.6 26.6" style="enable-background:new 0 0 26.6 26.6;" xml:space="preserve">
<style type="text/css">
	.st0{fill:#FFFFFF;}
</style>
<path class="st0" d="M23.6,26.6h-8.5c-0.3,0-0.5-0.2-0.5-0.5s0.2-0.5,0.5-0.5h8.5c1.1,0,1.9-0.9,1.9-1.9v-9.9h-3.9
	c0.2,0.7-0.1,1.5-0.8,2c-0.4,0.3-1,0.5-1.5,0.4s-1-0.3-1.3-0.8c-0.3-0.4-0.4-0.8-0.4-1.2c0-0.1,0-0.3,0-0.4h-3.9v4.7
	c0,0.2-0.1,0.4-0.3,0.4c-0.2,0.1-0.4,0.1-0.5,0c-0.1-0.1-0.2-0.1-0.4-0.2c-0.3-0.1-0.5,0-0.8,0.1c-0.2,0.1-0.4,0.4-0.5,0.6
	c-0.1,0.5,0.2,1.1,0.8,1.2c0.3,0.1,0.6,0,0.8-0.2c0.2-0.1,0.4-0.1,0.5-0.1c0.2,0.1,0.3,0.3,0.3,0.4v5.2c0,0.3-0.2,0.5-0.5,0.5H2.9
	c-1.6,0-2.9-1.3-2.9-2.9V2.9C0,1.3,1.3,0,2.9,0h8.5C11.7,0,12,0.2,12,0.5S11.7,1,11.5,1H2.9C1.9,1,1,1.9,1,2.9v9.8h3.9
	c0-0.2-0.1-0.5,0-0.7c0.1-0.5,0.3-1,0.8-1.3c0.9-0.7,2.2-0.5,2.8,0.4c0.4,0.5,0.5,1.1,0.4,1.6h3.9V8.1c0-0.2,0.1-0.4,0.3-0.4
	s0.4-0.1,0.5,0c0.2,0.1,0.4,0.2,0.6,0.2c0.2,0,0.4-0.1,0.6-0.2c0.4-0.3,0.5-1,0.2-1.4c-0.2-0.2-0.4-0.4-0.7-0.4
	c-0.3,0-0.5,0-0.8,0.2c-0.2,0.1-0.4,0.1-0.5,0c-0.2-0.1-0.3-0.3-0.3-0.4V0.5C12.8,0.2,13,0,13.3,0h10.4c1.6,0,2.9,1.3,2.9,2.9v20.7
	C26.6,25.2,25.2,26.6,23.6,26.6z M1,13.8v9.9c0,1.1,0.9,1.9,1.9,1.9h9.8v-3.9c-0.3,0.1-0.6,0.1-0.9,0c-1.1-0.3-1.8-1.3-1.5-2.4
	c0.1-0.5,0.4-1,0.9-1.3c0.4-0.3,1-0.4,1.5-0.3v-3.9H8.1c-0.2,0-0.4-0.1-0.4-0.3s-0.1-0.4,0-0.5c0.3-0.4,0.3-0.9,0-1.2
	c-0.3-0.4-1-0.5-1.4-0.2c-0.2,0.2-0.4,0.4-0.4,0.7c0,0.3,0,0.5,0.2,0.8c0.1,0.2,0.1,0.4,0,0.5c-0.1,0.2-0.3,0.3-0.4,0.3H1z
	 M13.8,12.8h4.7c0.2,0,0.4,0.1,0.4,0.3s0.1,0.4,0,0.5c-0.1,0.2-0.2,0.4-0.2,0.6c0,0.2,0.1,0.4,0.2,0.6c0.3,0.4,1,0.5,1.4,0.2
	c0.4-0.3,0.5-1,0.2-1.4c-0.1-0.2-0.1-0.4,0-0.5c0.1-0.2,0.3-0.3,0.4-0.3h4.7V2.9c0-1.1-0.9-1.9-1.9-1.9h-9.9v3.9
	c0.2,0,0.5-0.1,0.7,0c0.5,0.1,1,0.3,1.3,0.8c0.7,0.9,0.5,2.2-0.4,2.8c-0.4,0.3-0.8,0.4-1.2,0.4c-0.1,0-0.3,0-0.4,0V12.8z"/>
</svg>
