<?xml version="1.0" encoding="utf-8"?>
<!-- Generator: Adobe Illustrator 25.2.0, SVG Export Plug-In . SVG Version: 6.00 Build 0)  -->
<svg version="1.1" id="Capa_1" xmlns="http://www.w3.org/2000/svg" xmlns:xlink="http://www.w3.org/1999/xlink" x="0px" y="0px"
	 viewBox="0 0 40 40" style="enable-background:new 0 0 40 40;" xml:space="preserve">
<style type="text/css">
	.st0{clip-path:url(#SVGID_2_);fill:#2670CA;}
	.st1{clip-path:url(#SVGID_2_);fill:#FFFFFF;}
</style>
<g>
	<g>
		<defs>
			<rect id="SVGID_1_" x="0.4" y="0.4" width="39.2" height="39.2"/>
		</defs>
		<clipPath id="SVGID_2_">
			<use xlink:href="#SVGID_1_"  style="overflow:visible;"/>
		</clipPath>
		<path class="st0" d="M20,39.6c10.8,0,19.6-8.8,19.6-19.6C39.6,9.2,30.8,0.4,20,0.4S0.4,9.2,0.4,20C0.4,30.8,9.2,39.6,20,39.6"/>
		<path class="st1" d="M19.5,23c-0.3,0-0.5-0.2-0.5-0.5V22h-1v0.5c0,0.3-0.2,0.5-0.5,0.5c-0.3,0-0.5-0.2-0.5-0.5V22h-0.5
			c-0.8,0-1.5-0.7-1.5-1.5c0-0.3,0.2-0.5,0.5-0.5s0.5,0.2,0.5,0.5c0,0.3,0.2,0.5,0.5,0.5h4c0.3,0,0.5-0.2,0.5-0.5v-1
			c0-0.3-0.2-0.5-0.5-0.5h-4c-0.8,0-1.5-0.7-1.5-1.5v-1c0-0.8,0.7-1.5,1.5-1.5H17v-0.5c0-0.3,0.2-0.5,0.5-0.5c0.3,0,0.5,0.2,0.5,0.5
			V15h1v-0.5c0-0.3,0.2-0.5,0.5-0.5c0.3,0,0.5,0.2,0.5,0.5V15h0.5c0.8,0,1.5,0.7,1.5,1.5c0,0.3-0.2,0.5-0.5,0.5
			c-0.3,0-0.5-0.2-0.5-0.5c0-0.3-0.2-0.5-0.5-0.5h-4c-0.3,0-0.5,0.2-0.5,0.5v1c0,0.3,0.2,0.5,0.5,0.5h4c0.8,0,1.5,0.7,1.5,1.5v1
			c0,0.8-0.7,1.5-1.5,1.5H20v0.5C20,22.8,19.8,23,19.5,23 M13.5,12c-0.8,0-1.5,0.7-1.5,1.5V27c0,0.6,0.4,1,1,1s1-0.4,1-1v-1.5
			c0-0.3,0.2-0.5,0.5-0.5H25V13.5c0-0.8-0.7-1.5-1.5-1.5H13.5z M15,26v1c0,0.4-0.1,0.7-0.3,1h11.8c0.8,0,1.5-0.7,1.5-1.5V26H15z
			 M26.5,29H13c-1.1,0-2-0.9-2-2V13.5c0-1.4,1.1-2.5,2.5-2.5h10c1.4,0,2.5,1.1,2.5,2.5V25h2.5c0.3,0,0.5,0.2,0.5,0.5v1
			C29,27.9,27.9,29,26.5,29"/>
	</g>
</g>
</svg>
