<?xml version="1.0" encoding="utf-8"?>
<!-- Generator: Adobe Illustrator 25.2.0, SVG Export Plug-In . SVG Version: 6.00 Build 0)  -->
<svg version="1.1" id="Capa_1" xmlns="http://www.w3.org/2000/svg" xmlns:xlink="http://www.w3.org/1999/xlink" x="0px" y="0px"
	 viewBox="0 0 40 40" style="enable-background:new 0 0 40 40;" xml:space="preserve">
<style type="text/css">
	.st0{clip-path:url(#SVGID_2_);fill:#D97B2D;}
	.st1{clip-path:url(#SVGID_2_);fill:#FFFFFF;}
</style>
<g>
	<defs>
		<rect id="SVGID_1_" x="0.4" y="0.4" width="39.2" height="39.2"/>
	</defs>
	<clipPath id="SVGID_2_">
		<use xlink:href="#SVGID_1_"  style="overflow:visible;"/>
	</clipPath>
	<path class="st0" d="M20,39.6c10.8,0,19.6-8.8,19.6-19.6C39.6,9.2,30.8,0.4,20,0.4S0.4,9.2,0.4,20C0.4,30.8,9.2,39.6,20,39.6"/>
	<path class="st1" d="M23.3,21c-0.3,0-0.5-0.2-0.5-0.5c0-0.1,0.1-0.3,0.2-0.4l2.3-2.1c0.9-0.9,1-2.3,0.1-3.2l-0.1-0.1
		c-1-0.9-2.5-0.9-3.5,0l-2.1,2.1c-0.9,0.9-0.9,2.4,0,3.3c0.2,0.2,0.2,0.5-0.1,0.7c-0.2,0.2-0.5,0.2-0.7,0c-1.3-1.3-1.3-3.4,0-4.7
		l2.2-2.1c0.7-0.7,1.6-1,2.5-1h0.1c0.9,0,1.8,0.4,2.5,1.1c1.2,1.3,1.2,3.4-0.2,4.6l-2.3,2.1C23.6,21,23.5,21,23.3,21 M16.3,27
		c-1.8,0-3.3-1.5-3.3-3.3c0-0.9,0.3-1.7,1-2.3l2.2-2.2c0.2-0.2,0.5-0.2,0.7,0c0.2,0.2,0.2,0.5,0,0.7l-2.2,2.2
		c-0.9,0.9-0.9,2.4,0,3.3c0.9,0.9,2.4,0.9,3.3,0l2.2-2.2c0.9-0.9,0.9-2.4,0-3.3c-0.2-0.2-0.2-0.5,0-0.7c0.2-0.2,0.5-0.2,0.7,0
		c1.3,1.3,1.3,3.4,0,4.7L18.7,26C18.1,26.7,17.2,27,16.3,27"/>
</g>
</svg>
