<?xml version="1.0" encoding="utf-8"?>
<!-- Generator: Adobe Illustrator 25.2.0, SVG Export Plug-In . SVG Version: 6.00 Build 0)  -->
<svg version="1.1" id="Capa_1" xmlns="http://www.w3.org/2000/svg" xmlns:xlink="http://www.w3.org/1999/xlink" x="0px" y="0px"
	 viewBox="0 0 40 40" style="enable-background:new 0 0 40 40;" xml:space="preserve">
<style type="text/css">
	.st0{clip-path:url(#SVGID_2_);fill:#FFFFFF;}
	.st1{clip-path:url(#SVGID_2_);fill:#80A9E1;}
</style>
<g>
	<defs>
		<rect id="SVGID_1_" x="1.6" y="1.6" width="36.8" height="36.8"/>
	</defs>
	<clipPath id="SVGID_2_">
		<use xlink:href="#SVGID_1_"  style="overflow:visible;"/>
	</clipPath>
	<path class="st0" d="M20,38.4c10.2,0,18.4-8.2,18.4-18.4C38.4,9.8,30.2,1.6,20,1.6S1.6,9.8,1.6,20C1.6,30.2,9.8,38.4,20,38.4"/>
	<path class="st1" d="M27.6,13h0.9V12h-0.9V13z M20,17.7c-1,0-1.9,0.8-1.9,1.9s0.8,1.9,1.9,1.9c1,0,1.9-0.8,1.9-1.9
		S21.1,17.7,20,17.7 M20,16.7c1.6,0,2.8,1.2,2.8,2.8c0,0.6-0.2,1.1-0.5,1.6l1.2,0.8c0.3,0.2,0.5,0.4,0.7,0.7
		c1.1-2.3,0.1-5.2-2.3-6.3s-5.1-0.1-6.2,2.3c-0.6,1.3-0.6,2.7,0,4c0.2-0.3,0.4-0.5,0.7-0.7l1.2-0.8c-0.8-1.3-0.6-3,0.8-3.9
		C18.9,16.9,19.5,16.7,20,16.7 M18.4,21.8l-1.4,0.8c-0.3,0.2-0.5,0.4-0.6,0.8c0.8,1.1,2.3,1.8,3.7,1.8c1.4,0,2.8-0.7,3.7-1.8
		c-0.1-0.3-0.3-0.6-0.6-0.8l-1.4-0.8C20.7,22.5,19.4,22.5,18.4,21.8 M11.6,27L11.6,27V28h0.9V27H11.6z M24.3,28.9h-0.9
		c-1.6,0-3-1.2-3.3-2.8c-3.1,0-5.6-2.5-5.6-5.6c0-2.7,2-5.1,4.7-5.5c-0.2-1.7-1.6-2.9-3.3-2.9h-0.2c-1.8,0.1-3.1,1.5-3.1,3.3v10.8
		c0.6,0,0.9,0.4,0.9,0.9V28c0,0.6-0.4,0.9-0.9,0.9h-0.9c-0.6,0-0.9-0.4-0.9-0.9V27c0-0.6,0.4-0.9,0.9-0.9V15.3
		c0-2.3,1.8-4.1,3.9-4.2h0.2c2.2,0,3.9,1.6,4.2,3.8c3.1,0,5.6,2.5,5.6,5.6c0,2.7-2,5.1-4.7,5.5c0.2,1.1,1.1,2,2.3,2h0.9
		c1.8,0,3.3-1.5,3.3-3.3V13.9c-0.6,0-0.9-0.4-0.9-0.9V12c0-0.6,0.4-0.9,0.9-0.9h0.9c0.6,0,0.9,0.4,0.9,0.9V13c0,0.6-0.4,0.9-0.9,0.9
		v10.8C28.5,27,26.6,28.9,24.3,28.9"/>
</g>
</svg>
