<svg xmlns="http://www.w3.org/2000/svg" viewBox="0 0 39.2 39.2"><defs><style>.cls-1{fill:#fff;}.cls-2{fill:#a6bdd1;}</style></defs><g id="Capa_2" data-name="Capa 2"><g id="Capa_1-2" data-name="Capa 1"><path class="cls-1" d="M19.6,39.2A19.6,19.6,0,1,0,0,19.6,19.61,19.61,0,0,0,19.6,39.2"/><path class="cls-2" d="M27.77,17.73H12.4a.66.66,0,0,1-.65-.66.65.65,0,0,1,.65-.65H27.77a.66.66,0,0,1,.66.65.67.67,0,0,1-.66.66m-1.86,7.42a1.67,1.67,0,0,1-1.65,1.39H15.92a1.67,1.67,0,0,1-1.65-1.39l-1-6H26.89ZM27.77,15h-.71l-3.55-3.55a.72.72,0,0,0-1,0,.71.71,0,0,0,0,1L25,15H15.38l2.54-2.54a.71.71,0,0,0,0-1,.7.7,0,0,0-1,0L13.36,15h-1a2.09,2.09,0,0,0-.58,4.09l1,6.3A3.09,3.09,0,0,0,15.91,28h8.34a3.1,3.1,0,0,0,3.07-2.59l1-6.31A2.08,2.08,0,0,0,27.77,15"/></g></g></svg>