<svg xmlns="http://www.w3.org/2000/svg" xmlns:xlink="http://www.w3.org/1999/xlink" viewBox="0 0 162.79 47.08"><defs><style>.cls-1,.cls-2{fill:none;}.cls-2{stroke:#6fccdd;stroke-linecap:round;stroke-linejoin:round;stroke-width:3px;}.cls-3{opacity:0.8;}.cls-4{clip-path:url(#clip-path);}.cls-5{fill:#fff;}.cls-6{clip-path:url(#clip-path-2);}.cls-7{clip-path:url(#clip-path-3);}.cls-8{clip-path:url(#clip-path-4);}.cls-9{clip-path:url(#clip-path-5);}.cls-10{fill:#4d4d4f;}</style><clipPath id="clip-path" transform="translate(-9 -7)"><rect class="cls-1" width="48.91" height="17.58"/></clipPath><clipPath id="clip-path-2" transform="translate(-9 -7)"><rect class="cls-1" x="34.07" y="18.29" width="46.61" height="17.79"/></clipPath><clipPath id="clip-path-3" transform="translate(-9 -7)"><rect class="cls-1" x="67" y="20" width="48.22" height="18"/></clipPath><clipPath id="clip-path-4" transform="translate(-9 -7)"><rect class="cls-1" x="103.38" y="30" width="44" height="17.08"/></clipPath><clipPath id="clip-path-5" transform="translate(-9 -7)"><rect class="cls-1" x="132.2" y="10.21" width="48.59" height="18.38"/></clipPath></defs><g id="Capa_2" data-name="Capa 2"><g id="Capa_1-2" data-name="Capa 1"><polyline class="cls-2" points="12.66 12.58 47.38 31.58 80.11 31.58 113.51 45.58 146.65 22.58"/><g class="cls-3"><g class="cls-4"><rect class="cls-5" width="30.91" height="9.58" rx="2"/></g></g><g class="cls-3"><g class="cls-6"><rect class="cls-5" x="34.07" y="18.29" width="28.61" height="9.79" rx="2"/></g></g><g class="cls-3"><g class="cls-7"><rect class="cls-5" x="67" y="20" width="30.22" height="10" rx="2"/></g></g><g class="cls-3"><g class="cls-8"><rect class="cls-5" x="103.38" y="30" width="26" height="9.08" rx="2"/></g></g><g class="cls-3"><g class="cls-9"><rect class="cls-5" x="132.2" y="10.21" width="30.59" height="10.38" rx="2"/></g></g><path class="cls-10" d="M15.37,9.47h0l-1.13.61-.17-.67,1.42-.76h.75v6.5h-.85Z" transform="translate(-9 -7)"/><path class="cls-10" d="M19.6,9.47h0l-1.13.61-.17-.67,1.42-.76h.75v6.5H19.6Z" transform="translate(-9 -7)"/><path class="cls-10" d="M23.1,15.25a.58.58,0,0,1-.58-.62.6.6,0,0,1,.6-.63.63.63,0,0,1,0,1.25Z" transform="translate(-9 -7)"/><path class="cls-10" d="M25,14.53a3.81,3.81,0,0,0,.71,0A2.37,2.37,0,0,0,27,13.87a2.88,2.88,0,0,0,.86-1.73h0a1.91,1.91,0,0,1-1.54.7,1.89,1.89,0,0,1-1.92-2,2.23,2.23,0,0,1,2.23-2.3c1.33,0,2.15,1.07,2.15,2.74a4.11,4.11,0,0,1-1.12,3.05,3.24,3.24,0,0,1-1.89.86,7,7,0,0,1-.81.06Zm1.59-5.32c-.74,0-1.27.66-1.27,1.58a1.25,1.25,0,0,0,1.25,1.38,1.48,1.48,0,0,0,1.29-.68.69.69,0,0,0,.07-.32c0-1.12-.41-2-1.33-2Z" transform="translate(-9 -7)"/><path class="cls-10" d="M31.2,8.54c.9,0,1.49.7,1.49,1.94s-.71,2-1.55,2-1.51-.65-1.52-1.95.7-2,1.57-2Zm-.05.53c-.54,0-.84.65-.84,1.47s.3,1.45.85,1.45.84-.61.84-1.47-.23-1.45-.84-1.45Zm-.08,6.2L34.9,8.53h.56l-3.83,6.74Zm4.37-4c.9,0,1.49.69,1.49,1.93s-.71,2.05-1.55,2.05-1.51-.65-1.52-2,.7-2,1.57-2Zm0,.53c-.54,0-.84.64-.84,1.46s.3,1.47.85,1.47.84-.62.84-1.49-.23-1.44-.84-1.44Z" transform="translate(-9 -7)"/><path class="cls-10" d="M53,27.09v.58l-2.83,5.91h-.9l2.81-5.74v0H48.87v-.73Z" transform="translate(-9 -7)"/><path class="cls-10" d="M53.66,33.69a.58.58,0,0,1-.58-.62.6.6,0,0,1,.6-.63.63.63,0,0,1,0,1.25Z" transform="translate(-9 -7)"/><path class="cls-10" d="M59.31,27.09v.58l-2.83,5.91h-.9l2.81-5.74v0H55.21v-.73Z" transform="translate(-9 -7)"/><path class="cls-10" d="M61.69,27c.9,0,1.49.7,1.49,1.94s-.71,2-1.55,2-1.51-.65-1.52-1.95.7-2,1.57-2Zm0,.53c-.54,0-.84.65-.84,1.47s.3,1.45.85,1.45.84-.61.84-1.47-.23-1.45-.84-1.45Zm-.08,6.2L65.39,27H66l-3.83,6.74Zm4.37-4c.9,0,1.49.69,1.49,1.93s-.71,2-1.55,2S64.36,33,64.35,31.7s.7-2,1.57-2Zm-.05.53c-.54,0-.84.64-.84,1.46s.3,1.46.85,1.46.84-.61.84-1.48-.23-1.44-.84-1.44Z" transform="translate(-9 -7)"/><path class="cls-10" d="M88.29,28.59v.58l-2.83,5.91h-.9l2.81-5.74v0H84.19v-.73Z" transform="translate(-9 -7)"/><path class="cls-10" d="M89,35.19a.58.58,0,0,1-.58-.62.6.6,0,0,1,.6-.63.63.63,0,0,1,0,1.25Z" transform="translate(-9 -7)"/><path class="cls-10" d="M94.26,29.21a3.26,3.26,0,0,0-.66.05,2.6,2.6,0,0,0-2.26,2.3h0A2,2,0,0,1,94.9,32.9a2.17,2.17,0,0,1-2.17,2.29c-1.38,0-2.29-1.07-2.29-2.76a4,4,0,0,1,1.1-2.93,3.54,3.54,0,0,1,2.08-1,4.23,4.23,0,0,1,.64-.05Zm-1.51,5.31c.75,0,1.26-.63,1.26-1.56a1.32,1.32,0,0,0-1.34-1.49,1.44,1.44,0,0,0-1.27.8.82.82,0,0,0-.09.38c0,1.07.51,1.87,1.43,1.87Z" transform="translate(-9 -7)"/><path class="cls-10" d="M97.11,28.48c.9,0,1.49.7,1.49,1.94s-.71,2-1.55,2-1.51-.65-1.52-1.95.7-2,1.57-2Zm0,.53c-.54,0-.84.65-.84,1.47s.3,1.45.85,1.45.84-.61.84-1.47S97.68,29,97.07,29ZM97,35.21l3.83-6.74h.56l-3.83,6.74Zm4.37-4c.9,0,1.49.69,1.49,1.93s-.71,2-1.55,2-1.51-.65-1.52-1.95.7-2,1.57-2Zm0,.53c-.54,0-.84.64-.84,1.46s.3,1.46.85,1.46.84-.61.84-1.48-.23-1.44-.84-1.44Z" transform="translate(-9 -7)"/><path class="cls-10" d="M118.6,45.08V43.31h-3v-.57l2.9-4.15h1v4h.91v.68h-.91v1.77Zm0-2.45V40.46q0-.51,0-1h0c-.2.38-.36.66-.54,1l-1.59,2.21v0Z" transform="translate(-9 -7)"/><path class="cls-10" d="M121.74,45.19a.58.58,0,0,1-.58-.62.6.6,0,0,1,.6-.63.63.63,0,0,1,0,1.25Z" transform="translate(-9 -7)"/><path class="cls-10" d="M123.59,44.47a3.81,3.81,0,0,0,.71,0,2.37,2.37,0,0,0,1.36-.62,2.88,2.88,0,0,0,.86-1.73h0a1.91,1.91,0,0,1-1.54.7,1.89,1.89,0,0,1-1.92-2,2.23,2.23,0,0,1,2.23-2.3c1.33,0,2.15,1.07,2.15,2.74a4.11,4.11,0,0,1-1.12,3.05,3.24,3.24,0,0,1-1.89.86,7,7,0,0,1-.81.06Zm1.59-5.32c-.74,0-1.27.66-1.27,1.58a1.25,1.25,0,0,0,1.25,1.38,1.48,1.48,0,0,0,1.29-.68.69.69,0,0,0,.07-.32c0-1.12-.41-2-1.33-2Z" transform="translate(-9 -7)"/><path class="cls-10" d="M129.84,38.48c.9,0,1.49.7,1.49,1.94s-.71,2-1.55,2-1.51-.65-1.52-2,.7-2,1.57-2Zm-.05.53c-.54,0-.84.65-.84,1.47s.3,1.45.85,1.45.84-.61.84-1.47S130.41,39,129.8,39Zm-.08,6.2,3.83-6.74h.56l-3.83,6.74Zm4.37-4c.9,0,1.49.69,1.49,1.93s-.71,2-1.55,2-1.51-.65-1.52-1.95.7-2,1.57-2Zm-.05.53c-.54,0-.84.64-.84,1.46s.3,1.46.85,1.46.84-.61.84-1.48-.23-1.44-.84-1.44Z" transform="translate(-9 -7)"/><path class="cls-10" d="M145.53,18.28c1.83,0,2.58,1.06,2.58,2A1.9,1.9,0,0,1,147,22v0A2.06,2.06,0,0,1,148.41,24c0,1.41-1.19,2.37-3,2.37-2,0-2.89-1.12-2.89-2.17a2.08,2.08,0,0,1,1.39-2v0a1.92,1.92,0,0,1-1.12-1.71c0-1.32,1.18-2.2,2.73-2.2Zm-.05,6.8a1,1,0,0,0,1.07-1c0-.68-.51-1.09-1.22-1.28a1.18,1.18,0,0,0-1,1.16,1.07,1.07,0,0,0,1.09,1.09Zm0-5.56a.87.87,0,0,0-.94.9c0,.52.47.86,1.09,1a1.07,1.07,0,0,0,.8-1,.9.9,0,0,0-.94-1Z" transform="translate(-9 -7)"/><path class="cls-10" d="M150.62,26.34a1.11,1.11,0,1,1,1.09-1.1,1,1,0,0,1-1.09,1.1Z" transform="translate(-9 -7)"/><path class="cls-10" d="M158.12,19.91h-3l-.17,1.2.5,0a3.49,3.49,0,0,1,2,.56,2.22,2.22,0,0,1,1,2c0,1.45-1.25,2.73-3.35,2.73a5.13,5.13,0,0,1-2.17-.44l.34-1.37a4.34,4.34,0,0,0,1.75.38c.76,0,1.56-.36,1.56-1.18s-.64-1.3-2.2-1.3a6.22,6.22,0,0,0-1,.07l.5-4.09h4.3Z" transform="translate(-9 -7)"/><path class="cls-10" d="M161.46,18.28a2.07,2.07,0,0,1,2.08,2.33,2.23,2.23,0,0,1-2.16,2.48,2.15,2.15,0,0,1-2.12-2.36,2.23,2.23,0,0,1,2.19-2.45Zm-.06,1c-.54,0-.78.62-.78,1.41s.27,1.4.8,1.4.77-.52.77-1.41-.22-1.4-.78-1.4Zm.07,7.06,4.48-8h1l-4.48,8.05Zm5.6-4.82a2.07,2.07,0,0,1,2.09,2.31A2.24,2.24,0,0,1,167,26.32,2.14,2.14,0,0,1,164.89,24a2.22,2.22,0,0,1,2.17-2.45Zm0,1c-.54,0-.78.63-.78,1.41s.28,1.4.79,1.4.77-.53.77-1.4-.21-1.41-.77-1.41Z" transform="translate(-9 -7)"/></g></g></svg>