<?xml version="1.0" encoding="utf-8"?>
<!-- Generator: Adobe Illustrator 25.0.1, SVG Export Plug-In . SVG Version: 6.00 Build 0)  -->
<svg version="1.1" id="Capa_1" xmlns="http://www.w3.org/2000/svg" xmlns:xlink="http://www.w3.org/1999/xlink" x="0px" y="0px"
	 viewBox="0 0 150 150" style="enable-background:new 0 0 150 150;" xml:space="preserve">
<style type="text/css">
	.st0{fill:#6DA8DA;}
	.st1{fill:#FFFFFF;}
</style>
<circle class="st0" cx="75" cy="75" r="74.2"/>
<g>
	<path class="st1" d="M42.8,120.5h64.3c7.3,0,13.3-6,13.3-13.3V42.8c0-7.3-6-13.3-13.3-13.3H42.8c-7.3,0-13.3,6-13.3,13.3v64.3
		C29.5,114.5,35.5,120.5,42.8,120.5z M34.8,42.8c0-4.4,3.6-8,8-8h64.3c4.4,0,8,3.6,8,8v64.3c0,4.4-3.6,8-8,8H42.8c-4.4,0-8-3.6-8-8
		V42.8z"/>
	<path class="st1" d="M75,99c13.2,0,24-10.8,24-24S88.2,51,75,51S51,61.8,51,75S61.8,99,75,99z M75,56.3c10.3,0,18.7,8.4,18.7,18.7
		S85.3,93.7,75,93.7S56.3,85.3,56.3,75S64.7,56.3,75,56.3z"/>
	<path class="st1" d="M101.7,56.3c4.4,0,8-3.6,8-8s-3.6-8-8-8s-8,3.6-8,8S97.2,56.3,101.7,56.3z M101.7,45.7c1.5,0,2.7,1.2,2.7,2.7
		s-1.2,2.7-2.7,2.7S99,49.8,99,48.3S100.2,45.7,101.7,45.7z"/>
</g>
</svg>
