<svg id="Capa_1" data-name="Capa 1" xmlns="http://www.w3.org/2000/svg" xmlns:xlink="http://www.w3.org/1999/xlink" viewBox="0 0 39.2 39.2"><defs><style>.cls-1{fill:none;}.cls-2{clip-path:url(#clip-path);}.cls-3{fill:#0071ce;}.cls-4{fill:#fff;}</style><clipPath id="clip-path" transform="translate(0.24 0)"><rect class="cls-1" x="-0.24" width="39.2" height="39.2"/></clipPath></defs><g class="cls-2"><path class="cls-3" d="M19.36,39.2A19.6,19.6,0,1,0-.24,19.6a19.59,19.59,0,0,0,19.6,19.6" transform="translate(0.24 0)"/><path class="cls-4" d="M27.86,17.3a.47.47,0,0,1-.5-.5.37.37,0,0,1,.1-.3,3.39,3.39,0,0,0-.3-4.9,3.47,3.47,0,0,0-4.9.3,3.61,3.61,0,0,0-.8,1.5c0,.1-.2.2-.5.2a.47.47,0,0,1-.5-.5V13a4.52,4.52,0,0,1,8.9,1.1,4.62,4.62,0,0,1-1.1,3,.76.76,0,0,1-.4.2m-5,8.3a.5.5,0,0,1,0-1,3.5,3.5,0,0,0,0-7h-.5v.5a.5.5,0,0,1-1,0,3.54,3.54,0,0,0-3.5-3.5h-.5a4,4,0,0,0-4,4v.5a.47.47,0,0,1-.5.5,2.5,2.5,0,0,0,0,5,.5.5,0,0,1,0,1,3.54,3.54,0,0,1-3.5-3.5,3.63,3.63,0,0,1,3-3.5,5.08,5.08,0,0,1,1.5-3.6,5,5,0,0,1,3.5-1.4h.5a4.42,4.42,0,0,1,4.2,3h.8a4.5,4.5,0,0,1,0,9m-5,3a.47.47,0,0,1-.5-.5v-4a.5.5,0,0,1,1,0v4a.47.47,0,0,1-.5.5m-2,1a.47.47,0,0,1-.5-.5v-4a.5.5,0,0,1,1,0v4a.47.47,0,0,1-.5.5m4,0a.47.47,0,0,1-.5-.5v-4a.5.5,0,0,1,1,0v4a.47.47,0,0,1-.5.5" transform="translate(0.24 0)"/></g></svg>