<svg xmlns="http://www.w3.org/2000/svg" viewBox="0 0 39.2 39.2"><defs><style>.cls-1{fill:#0078bf;}.cls-2{fill:#fff;}</style></defs><g id="Capa_2" data-name="Capa 2"><g id="Capa_1-2" data-name="Capa 1"><path class="cls-1" d="M19.6,39.2A19.6,19.6,0,1,0,0,19.6,19.61,19.61,0,0,0,19.6,39.2"/><path class="cls-2" d="M14.3,10.77a1.63,1.63,0,0,0-1.58,1.59V22.91A1.63,1.63,0,0,0,14.3,24.5h1.06a1.63,1.63,0,0,0,1.58-1.59V12.36a1.63,1.63,0,0,0-1.58-1.59Zm1.06,14.78H14.3a2.61,2.61,0,0,1-2.64-2.64V12.36A2.61,2.61,0,0,1,14.3,9.72h1.06A2.61,2.61,0,0,1,18,12.36V22.91a2.61,2.61,0,0,1-2.63,2.64m7.38-11.61a1.62,1.62,0,0,0-1.58,1.58v7.39a1.63,1.63,0,0,0,1.58,1.59H23.8a1.63,1.63,0,0,0,1.58-1.59V15.52a1.62,1.62,0,0,0-1.58-1.58ZM23.8,25.55H22.74a2.61,2.61,0,0,1-2.63-2.64V15.52a2.61,2.61,0,0,1,2.63-2.63H23.8a2.61,2.61,0,0,1,2.64,2.63v7.39a2.61,2.61,0,0,1-2.64,2.64M28,28.72H10.08a.53.53,0,0,1,0-1.06H28a.53.53,0,1,1,0,1.06"/></g></g></svg>