<?xml version="1.0" encoding="utf-8"?>
<!-- Generator: Adobe Illustrator 25.2.0, SVG Export Plug-In . SVG Version: 6.00 Build 0)  -->
<svg version="1.1" id="Capa_1" xmlns="http://www.w3.org/2000/svg" xmlns:xlink="http://www.w3.org/1999/xlink" x="0px" y="0px"
	 viewBox="0 0 40 40" style="enable-background:new 0 0 40 40;" xml:space="preserve">
<style type="text/css">
	.st0{fill:#505B6C;}
	.st1{fill:#FFFFFF;}
</style>
<path class="st0" d="M20,39.6c10.8,0,19.6-8.8,19.6-19.6S30.8,0.4,20,0.4S0.4,9.2,0.4,20S9.2,39.6,20,39.6"/>
<path class="st1" d="M26.5,12.2L26.5,12.2L19,19.7V21h1.3l7.5-7.5L26.5,12.2z M20.5,22h-2c-0.3,0-0.5-0.2-0.5-0.5v-2
	c0-0.1,0.1-0.3,0.1-0.4l8-8c0.2-0.2,0.5-0.2,0.7,0l2,2c0.2,0.2,0.2,0.5,0,0.7l-8,8C20.8,21.9,20.6,22,20.5,22 M26.5,29h-13
	c-1.4,0-2.5-1.1-2.5-2.5v-13c0-1.4,1.1-2.5,2.5-2.5h7c0.3,0,0.5,0.2,0.5,0.5S20.8,12,20.5,12h-7c-0.8,0-1.5,0.7-1.5,1.5v13
	c0,0.8,0.7,1.5,1.5,1.5h13c0.8,0,1.5-0.7,1.5-1.5v-7c0-0.3,0.2-0.5,0.5-0.5s0.5,0.2,0.5,0.5v7C29,27.9,27.9,29,26.5,29"/>
</svg>
