<svg xmlns="http://www.w3.org/2000/svg" viewBox="0 0 39.2 39.2"><defs><style>.cls-1{fill:#fff;}.cls-2{fill:#a5bcd0;}</style></defs><g id="Capa_2" data-name="Capa 2"><g id="Capa_1-2" data-name="Capa 1"><path class="cls-1" d="M19.6,39.2A19.6,19.6,0,1,0,0,19.6,19.61,19.61,0,0,0,19.6,39.2"/><path class="cls-2" d="M21,29.13H10.25a1.77,1.77,0,0,1-1.83-1.68V15.15L11.17,11V9a.87.87,0,0,1,.91-.84h8.25a.88.88,0,0,1,.92.84v2L24,15.15v3.92h-.92V15.38l-2.75-4.2V9H12.08v2.21l-2.75,4.2V27.45a.88.88,0,0,0,.92.84H21Z"/><path class="cls-2" d="M21,29.13H18.5a1.77,1.77,0,0,1-1.83-1.68V15.15L19.42,11V9a.92.92,0,0,1,1.83,0v2L24,15.15v3.92h-.92V15.38l-2.75-4.2-2.75,4.2V27.45a.88.88,0,0,0,.92.84H21Z"/><rect class="cls-2" x="8.88" y="14.85" width="8.25" height="0.84"/><rect class="cls-2" x="11.63" y="10.65" width="8.25" height="0.84"/><path class="cls-2" d="M9.33,25.35h7.34V18.21H9.33Zm8.25.84H8.42V17.37h9.16Z"/><polygon class="cls-2" points="19.16 26.19 16.67 26.19 16.67 17.37 24 17.37 24 19.07 23.08 19.07 23.08 18.21 17.58 18.21 17.58 25.35 19.16 25.35 19.16 26.19"/><path class="cls-2" d="M25.6,28.05a2.09,2.09,0,0,1,.67.11,2.66,2.66,0,0,0,2.41-.42,4.38,4.38,0,0,0,1.74-3.45,4.12,4.12,0,0,0-.57-2.1,3,3,0,0,0-2.61-1.46,5.12,5.12,0,0,0-.87.08,3.89,3.89,0,0,1-1.52,0h0a4.14,4.14,0,0,0-.85-.08,3,3,0,0,0-2.62,1.46,4.21,4.21,0,0,0-.56,2.1,4.35,4.35,0,0,0,1.74,3.45,2.66,2.66,0,0,0,1.62.55,2.62,2.62,0,0,0,.79-.13,2.08,2.08,0,0,1,.66-.11m1.46,1.08A3.49,3.49,0,0,1,26,29a1.09,1.09,0,0,0-.69,0,3.24,3.24,0,0,1-1.11.19,3.6,3.6,0,0,1-2.21-.75,5.15,5.15,0,0,1-2.06-4.09,5,5,0,0,1,.66-2.49A3.93,3.93,0,0,1,24,19.89,5.44,5.44,0,0,1,25,20h0a3.24,3.24,0,0,0,1.12,0,5.44,5.44,0,0,1,1.06-.1,3.93,3.93,0,0,1,3.43,1.91,5,5,0,0,1,.66,2.49,5.15,5.15,0,0,1-2.06,4.09,3.62,3.62,0,0,1-2.21.75"/><path class="cls-2" d="M22.63,24.29h-.92a3.35,3.35,0,0,1,.46-1.71,2,2,0,0,1,1.8-1v.84A1.13,1.13,0,0,0,23,23a2.56,2.56,0,0,0-.35,1.32"/><path class="cls-2" d="M26.18,18.35a3.75,3.75,0,0,0,2.08-.46,3.32,3.32,0,0,0,1.39-1.49,3.66,3.66,0,0,0-2.08.46,3.23,3.23,0,0,0-1.39,1.49m.28.85a4.6,4.6,0,0,1-1-.11L25,19l.11-.42a4,4,0,0,1,2-2.44,4.67,4.67,0,0,1,3.26-.49l.46.1-.12.41a4,4,0,0,1-2,2.44,4.68,4.68,0,0,1-2.28.6"/></g></g></svg>