<svg id="Capa_1" data-name="Capa 1" xmlns="http://www.w3.org/2000/svg" xmlns:xlink="http://www.w3.org/1999/xlink" viewBox="0 0 75.79 19.22"><defs><style>.cls-1{fill:none;}.cls-2{clip-path:url(#clip-path);}.cls-3{fill:#b2c3d7;}.cls-4{font-size:14.5px;fill:#545051;font-family:MyriadPro-Light, Myriad Pro;font-weight:300;}.cls-5{letter-spacing:-0.01em;}.cls-6{letter-spacing:0.01em;}.cls-7{letter-spacing:0em;}.cls-8{letter-spacing:0.02em;}</style><clipPath id="clip-path" transform="translate(-2.09 -2.93)"><rect class="cls-1" x="2.09" y="2.93" width="75.82" height="19.22"/></clipPath></defs><g class="cls-2"><path class="cls-3" d="M20.73,13.23h-13L6.63,6.36H21.87Zm2.19-7.75A1.36,1.36,0,0,0,21.87,5H6.42L6.29,4.1A1.37,1.37,0,0,0,4.92,2.93H2.78a.69.69,0,0,0-.69.69.68.68,0,0,0,.69.68H4.93L6.81,16.86A1.38,1.38,0,0,0,8.19,18H21.31a.69.69,0,1,0,0-1.37H8.17L7.86,14.6H20.73a1.38,1.38,0,0,0,1.37-1.15l1.14-6.86a1.35,1.35,0,0,0-.32-1.11" transform="translate(-2.09 -2.93)"/><path class="cls-3" d="M9.64,19.4a1.38,1.38,0,1,1-1.37,1.38A1.37,1.37,0,0,1,9.64,19.4" transform="translate(-2.09 -2.93)"/><path class="cls-3" d="M18.57,19.4a1.38,1.38,0,1,1-1.38,1.38,1.38,1.38,0,0,1,1.38-1.38" transform="translate(-2.09 -2.93)"/><text class="cls-4" transform="translate(28.58 15.05)"><tspan class="cls-5">C</tspan><tspan class="cls-6" x="8.16" y="0">o</tspan><tspan class="cls-7" x="16.04" y="0">m</tspan><tspan class="cls-6" x="27.97" y="0">p</tspan><tspan class="cls-8" x="36.13" y="0">r</tspan><tspan x="40.63" y="0">a</tspan></text></g></svg>