<?xml version="1.0" encoding="utf-8"?>
<!-- Generator: Adobe Illustrator 25.1.0, SVG Export Plug-In . SVG Version: 6.00 Build 0)  -->
<svg version="1.1" id="Capa_1" xmlns="http://www.w3.org/2000/svg" xmlns:xlink="http://www.w3.org/1999/xlink" x="0px" y="0px"
	 viewBox="0 0 39.2 39.2" style="enable-background:new 0 0 39.2 39.2;" xml:space="preserve">
<style type="text/css">
	.st0{fill:#3977BB;}
	.st1{fill:#FFFFFF;}
</style>
<path class="st0" d="M19.6,39.2c10.8,0,19.6-8.8,19.6-19.6S30.4,0,19.6,0S0,8.8,0,19.6S8.8,39.2,19.6,39.2L19.6,39.2"/>
<g>
	<path class="st1" d="M14.8,23.9c0.7,0.4,2.2,1,3.7,1c2,0,2.9-0.9,2.9-2.1c0-1.6-1.6-2.3-3.2-2.3h-1.5v-2.7h1.5
		c1.2,0,2.8-0.5,2.8-1.8c0-1-0.7-1.7-2.3-1.7c-1.3,0-2.7,0.6-3.3,1l-0.7-2.7c1-0.6,2.8-1.2,4.9-1.2c3.4,0,5.3,1.8,5.3,4
		c0,1.7-1,3.1-2.9,3.7V19c1.9,0.4,3.4,1.8,3.4,3.9c0,2.8-2.5,4.8-6.5,4.8c-2.1,0-3.8-0.6-4.7-1.1L14.8,23.9z"/>
</g>
</svg>
