<?xml version="1.0" encoding="utf-8"?>
<!-- Generator: Adobe Illustrator 25.2.0, SVG Export Plug-In . SVG Version: 6.00 Build 0)  -->
<svg version="1.1" id="Capa_1" xmlns="http://www.w3.org/2000/svg" xmlns:xlink="http://www.w3.org/1999/xlink" x="0px" y="0px"
	 viewBox="0 0 40 40" style="enable-background:new 0 0 40 40;" xml:space="preserve">
<style type="text/css">
	.st0{clip-path:url(#SVGID_2_);fill:#303D7D;}
	.st1{clip-path:url(#SVGID_2_);fill:#FFFFFF;}
</style>
<g>
	<defs>
		<rect id="SVGID_1_" x="0.4" y="0.4" width="39.2" height="39.2"/>
	</defs>
	<clipPath id="SVGID_2_">
		<use xlink:href="#SVGID_1_"  style="overflow:visible;"/>
	</clipPath>
	<path class="st0" d="M20,39.6c10.8,0,19.6-8.8,19.6-19.6C39.6,9.2,30.8,0.4,20,0.4S0.4,9.2,0.4,20C0.4,30.8,9.2,39.6,20,39.6"/>
	<path class="st1" d="M21.5,23c-0.3,0-0.5-0.2-0.5-0.5V22h-2v0.5c0,0.3-0.2,0.5-0.5,0.5c-0.3,0-0.5-0.2-0.5-0.5V22h-0.5
		c-0.8,0-1.5-0.7-1.5-1.5c0-0.3,0.2-0.5,0.5-0.5s0.5,0.2,0.5,0.5c0,0.3,0.2,0.5,0.5,0.5h5c0.3,0,0.5-0.2,0.5-0.5v-1
		c0-0.3-0.2-0.5-0.5-0.5h-5c-0.8,0-1.5-0.7-1.5-1.5v-1c0-0.8,0.7-1.5,1.5-1.5H18v-0.5c0-0.3,0.2-0.5,0.5-0.5c0.3,0,0.5,0.2,0.5,0.5
		V15h2v-0.5c0-0.3,0.2-0.5,0.5-0.5c0.3,0,0.5,0.2,0.5,0.5V15h0.5c0.8,0,1.5,0.7,1.5,1.5c0,0.3-0.2,0.5-0.5,0.5
		c-0.3,0-0.5-0.2-0.5-0.5c0-0.3-0.2-0.5-0.5-0.5h-5c-0.3,0-0.5,0.2-0.5,0.5v1c0,0.3,0.2,0.5,0.5,0.5h5c0.8,0,1.5,0.7,1.5,1.5v1
		c0,0.8-0.7,1.5-1.5,1.5H22v0.5C22,22.8,21.8,23,21.5,23 M12,11c-0.6,0-1,0.4-1,1v1h2v-1C13,11.4,12.6,11,12,11 M13.7,11
		c0.2,0.3,0.3,0.6,0.3,1v15.5c0,0.7,0.5,1.3,1.2,1.5c0.5-0.1,0.8-0.5,0.8-1v-1.5c0-0.3,0.2-0.5,0.5-0.5H26V12.5
		c0-0.8-0.6-1.5-1.5-1.5H13.7z M17,27v1c0,0.4-0.1,0.7-0.3,1h10.8c0.8,0,1.5-0.7,1.5-1.5V27H17z M15,30c-0.1,0-0.3-0.1-0.4-0.2
		c-1-0.4-1.6-1.3-1.6-2.3V14h-2.5c-0.3,0-0.5-0.2-0.5-0.5V12c0-1.1,0.9-2,2-2h12.5c1.4,0,2.5,1.1,2.5,2.5V26h2.5
		c0.3,0,0.5,0.2,0.5,0.5v1c0,1.4-1.1,2.5-2.5,2.5h-12h-0.3H15z"/>
</g>
</svg>
