<svg xmlns="http://www.w3.org/2000/svg" viewBox="0 0 39.2 39.2"><defs><style>.cls-1{fill:#fff;}.cls-2{fill:#a5bcd0;}</style></defs><g id="Capa_2" data-name="Capa 2"><g id="Capa_1-2" data-name="Capa 1"><path class="cls-1" d="M19.6,39.2A19.6,19.6,0,1,0,0,19.6,19.6,19.6,0,0,0,19.6,39.2"/><path class="cls-2" d="M19.1,10.57h-3a.47.47,0,0,1-.5-.5.48.48,0,0,1,.5-.5h3a.48.48,0,0,1,.5.5.47.47,0,0,1-.5.5m-3,5a1.36,1.36,0,0,0-1.5,1.11v.39c0,1.11,1,2.21,3,3.41,2-1.2,3-2.3,3-3.41a1.35,1.35,0,0,0-1.1-1.5h-.4a1.22,1.22,0,0,0-1.1.71c-.1.29-.4.4-.6.2a.22.22,0,0,1-.2-.2,1.22,1.22,0,0,0-1.1-.71m1.5,6c-.1,0-.2,0-.2-.09-2.6-1.41-3.8-2.91-3.8-4.41a2.28,2.28,0,0,1,2.1-2.5h.4a2,2,0,0,1,1.5.61,2,2,0,0,1,1.5-.61,2.28,2.28,0,0,1,2.5,2.11v.39c0,1.5-1.2,3-3.8,4.41,0,.09-.1.09-.2.09m-3.5-13a1.54,1.54,0,0,0-1.5,1.5v16a1.54,1.54,0,0,0,1.5,1.5h3.2l-.1-.09a2,2,0,0,1-.4-1.8,1.62,1.62,0,0,1,1.5-1.11,3.08,3.08,0,0,1,1.5.5,2.67,2.67,0,0,0,1.8.5.94.94,0,0,0,1-1V10.07A2.09,2.09,0,0,0,22.2,9a2.11,2.11,0,0,0-1.1-.41Zm13,23a.47.47,0,0,1-.5-.5v-9a3.63,3.63,0,0,0-3-3.5v6a2,2,0,0,1-2,2,4.2,4.2,0,0,1-2.4-.7,1.69,1.69,0,0,0-.9-.3.52.52,0,0,0-.5.41.78.78,0,0,0,.2.89l3.5,3.91a.49.49,0,0,1-.7.7l-2.6-2.91H14.1a2.47,2.47,0,0,1-2.5-2.5v-16a2.48,2.48,0,0,1,2.5-2.5h7a2.48,2.48,0,0,1,2.5,2.5v7.5a4.54,4.54,0,0,1,4,4.5v9a.47.47,0,0,1-.5.5"/></g></g></svg>