<svg xmlns="http://www.w3.org/2000/svg" viewBox="0 0 39.2 39.2"><defs><style>.cls-1{fill:#007dc3;}.cls-2{fill:#fff;}</style></defs><g id="Capa_2" data-name="Capa 2"><g id="Capa_1-2" data-name="Capa 1"><path class="cls-1" d="M19.6,39.2A19.6,19.6,0,1,0,0,19.6,19.6,19.6,0,0,0,19.6,39.2"/><path class="cls-2" d="M15.6,20.6h8v-2h-8Zm8.5,1h-9a.47.47,0,0,1-.5-.5v-3a.47.47,0,0,1,.5-.5h9a.47.47,0,0,1,.5.5v3a.47.47,0,0,1-.5.5m-7,2h-1a.5.5,0,0,1,0-1h1a.5.5,0,0,1,0,1m3,0h-1a.5.5,0,0,1,0-1h1a.5.5,0,0,1,0,1m3,0h-1a.5.5,0,0,1,0-1h1a.5.5,0,0,1,0,1m-6,2h-1a.5.5,0,0,1,0-1h1a.5.5,0,0,1,0,1m3,0h-1a.5.5,0,0,1,0-1h1a.5.5,0,0,1,0,1m3,0h-1a.5.5,0,0,1,0-1h1a.5.5,0,0,1,0,1m-6,2h-1a.5.5,0,0,1,0-1h1a.5.5,0,0,1,0,1m3,0h-1a.5.5,0,0,1,0-1h1a.5.5,0,0,1,0,1m3,0h-1a.5.5,0,0,1,0-1h1a.5.5,0,0,1,0,1m-5-17a1.54,1.54,0,0,0-1.5,1.5v3.5h2v-5Zm1.5,5h1v-5h-1Zm2-4.9v4.9h1V12.1a1.5,1.5,0,0,0-1-1.4m-6.5,3.9a1.54,1.54,0,0,0-1.5,1.5v11a1.54,1.54,0,0,0,1.5,1.5h9a1.54,1.54,0,0,0,1.5-1.5v-11a1.54,1.54,0,0,0-1.5-1.5h-.5v1h.5a.5.5,0,0,1,0,1h-9a.5.5,0,0,1,0-1h.5v-1Zm9,15h-9a2.87,2.87,0,0,1-1.8-.7,2.87,2.87,0,0,1-.7-1.8v-11a2.48,2.48,0,0,1,2.5-2.5h.5V12.1a2.48,2.48,0,0,1,2.5-2.5h3a2.48,2.48,0,0,1,2.5,2.5v1.5h.5a2.48,2.48,0,0,1,2.5,2.5v11a2.48,2.48,0,0,1-2.5,2.5"/></g></g></svg>