<svg xmlns="http://www.w3.org/2000/svg" viewBox="0 0 39.2 39.2"><defs><style>.cls-1{fill:#6ea9db;}.cls-2{fill:#fff;}</style></defs><g id="Capa_2" data-name="Capa 2"><g id="Capa_1-2" data-name="Capa 1"><path class="cls-1" d="M19.6,39.2A19.6,19.6,0,1,0,0,19.6,19.61,19.61,0,0,0,19.6,39.2"/><path class="cls-2" d="M22.3,10.6H14.1a3.5,3.5,0,1,0,0,7h8.2a4.56,4.56,0,0,1-.7-6.3,2.34,2.34,0,0,1,.7-.7m2.8,0a3.5,3.5,0,1,0,3.5,3.5,4,4,0,0,0-1-2.5,4,4,0,0,0-2.5-1m0,8h-11a4.5,4.5,0,1,1,0-9H25.2a4.5,4.5,0,0,1-.1,9m-11,3a4,4,0,0,0-2.5,1,3.46,3.46,0,0,0,4.9,4.9,3.74,3.74,0,0,0,1-2.5,3.37,3.37,0,0,0-3.4-3.4m2.8,0a4.47,4.47,0,0,1,.7,6.3,2.34,2.34,0,0,1-.7.7h8.2a3.5,3.5,0,0,0,0-7Zm8.2,8h-11a4.82,4.82,0,0,1-3.2-1.3A4.53,4.53,0,0,1,14,20.6H25.1a4.5,4.5,0,0,1,0,9"/></g></g></svg>