<svg xmlns="http://www.w3.org/2000/svg" viewBox="0 0 39.2 39.2"><defs><style>.cls-1{fill:#fff;}.cls-2{fill:#a6bdd1;}</style></defs><g id="Capa_2" data-name="Capa 2"><g id="Capa_1-2" data-name="Capa 1"><path class="cls-1" d="M19.6,39.2A19.6,19.6,0,1,0,0,19.6,19.59,19.59,0,0,0,19.6,39.2"/><path class="cls-2" d="M21.1,25.79a.47.47,0,0,1-.5-.5v-1.5h-2v1.5a.5.5,0,0,1-1,0v-1.5h-.5a1.54,1.54,0,0,1-1.5-1.5.5.5,0,0,1,1,0,.47.47,0,0,0,.5.5h5a.47.47,0,0,0,.5-.5v-1.1c0-.2-.2-.5-.4-.5l-5.3-.8a1.51,1.51,0,0,1-1.3-1.5v-1.1a1.54,1.54,0,0,1,1.5-1.5h.5v-1.5a.5.5,0,0,1,1,0v1.5h2v-1.5a.5.5,0,0,1,1,0v1.5h.5a1.54,1.54,0,0,1,1.5,1.5.5.5,0,0,1-1,0,.47.47,0,0,0-.5-.5h-5a.47.47,0,0,0-.5.5v1.1c0,.2.2.5.4.5l5.3.8a1.51,1.51,0,0,1,1.3,1.5v1.1a1.54,1.54,0,0,1-1.5,1.5h-.5v1.5a.47.47,0,0,1-.5.5m-1.5-15a9,9,0,1,0,7.8,4.5,9,9,0,0,0-7.8-4.5m0,19a10,10,0,1,1,10-10,10,10,0,0,1-10,10"/></g></g></svg>