<svg xmlns="http://www.w3.org/2000/svg" viewBox="0 0 39.2 39.2"><defs><style>.cls-1{fill:#fff;}.cls-2{fill:#95b3da;}</style></defs><g id="Capa_2" data-name="Capa 2"><g id="Capa_1-2" data-name="Capa 1"><path class="cls-1" d="M19.6,39.2A19.6,19.6,0,1,0,0,19.6,19.61,19.61,0,0,0,19.6,39.2"/><path class="cls-2" d="M27.47,27a.13.13,0,0,1-.12.13H24.66V12.74A.68.68,0,0,0,24,12H13.74V8.7a.12.12,0,0,1,.12-.12H27.35a.12.12,0,0,1,.12.12Zm-3.36,4a.12.12,0,0,1-.12.13H10.51a.13.13,0,0,1-.13-.13V12.74a.13.13,0,0,1,.13-.13H24a.12.12,0,0,1,.12.13ZM27.35,8H13.86a.69.69,0,0,0-.67.7V12H10.51a.69.69,0,0,0-.68.7V31.05a.69.69,0,0,0,.68.7H24a.68.68,0,0,0,.67-.7V27.72h2.69A.68.68,0,0,0,28,27V8.7a.69.69,0,0,0-.67-.7"/><path class="cls-2" d="M15.17,15.67h1.4a.28.28,0,0,0,.27-.28V13.93h.81v1.46a.29.29,0,0,0,.28.28h1.4v.85h-1.4a.28.28,0,0,0-.28.28v1.46h-.81V16.8a.27.27,0,0,0-.27-.28h-1.4Zm-.28,1.42h1.4v1.46a.29.29,0,0,0,.28.28h1.36a.28.28,0,0,0,.27-.28V17.09h1.4a.28.28,0,0,0,.28-.29V15.39a.28.28,0,0,0-.28-.29H18.2V13.64a.27.27,0,0,0-.27-.28H16.57a.28.28,0,0,0-.28.28V15.1h-1.4a.28.28,0,0,0-.27.29V16.8a.28.28,0,0,0,.27.29"/><path class="cls-2" d="M22.19,21H12.31a.29.29,0,0,0,0,.57h9.88a.29.29,0,0,0,0-.57"/><path class="cls-2" d="M22.19,23.31H12.31a.27.27,0,0,0-.28.28.28.28,0,0,0,.28.29h9.88a.28.28,0,0,0,.27-.29.27.27,0,0,0-.27-.28"/><path class="cls-2" d="M22.19,25.66H12.31A.28.28,0,0,0,12,26a.27.27,0,0,0,.28.28h9.88a.27.27,0,0,0,.27-.28.28.28,0,0,0-.27-.29"/><path class="cls-2" d="M22.19,28H12.31a.29.29,0,0,0,0,.57h9.88a.29.29,0,0,0,0-.57"/></g></g></svg>