<svg id="Capa_1" data-name="Capa 1" xmlns="http://www.w3.org/2000/svg" xmlns:xlink="http://www.w3.org/1999/xlink" viewBox="0 0 39.44 39.2"><defs><style>.cls-1,.cls-4{fill:none;}.cls-2{clip-path:url(#clip-path);}.cls-3{fill:#fff;}.cls-4{stroke:#a6bdd1;stroke-miterlimit:10;stroke-width:0.9px;}.cls-5{clip-path:url(#clip-path-2);}.cls-6{fill:#0071ce;}</style><clipPath id="clip-path" transform="translate(0.47)"><rect class="cls-1" x="-0.24" width="39.2" height="39.2"/></clipPath><clipPath id="clip-path-2" transform="translate(0.47)"><rect class="cls-1" x="-0.47" width="39.2" height="39.2"/></clipPath></defs><g class="cls-2"><path class="cls-3" d="M19.36,39.2A19.6,19.6,0,1,0-.24,19.6a19.59,19.59,0,0,0,19.6,19.6" transform="translate(0.47)"/><path class="cls-4" d="M23.36,22.82a4,4,0,0,0-8,0m12,0v-2H25.68A6.21,6.21,0,0,0,24.89,19l1.19-1.18L24,15.67l-1.19,1.17a9.74,9.74,0,0,0-1.91-.78V14.39h-3v1.67a6.62,6.62,0,0,0-1.9.78l-1.19-1.17-2.12,2.1L13.84,19a6.6,6.6,0,0,0-.8,1.89H11.36v2m18,1.49h-20V12.41a1,1,0,0,1,1-1h18a1,1,0,0,1,1,1ZM17.86,25.8h3m8,2h-19a2,2,0,0,1-2-2V24.31h23V25.8A2,2,0,0,1,28.86,27.78Z" transform="translate(0.47)"/></g><g class="cls-5"><path class="cls-6" d="M19.13,39.2A19.6,19.6,0,1,0-.47,19.6a19.6,19.6,0,0,0,19.6,19.6" transform="translate(0.47)"/><path class="cls-3" d="M24.78,25.6c-.9,1.8-1.9,3-2.4,3h0a1.92,1.92,0,0,1-1.2-.4,3.61,3.61,0,0,0-2-.6,3.74,3.74,0,0,0-1.8.5,3,3,0,0,1-1.5.5c-.5,0-1.5-1.2-2.4-3a12.26,12.26,0,0,1-1.6-5c0-2.9,1.4-5,3.5-5a9.25,9.25,0,0,1,2.9.4,4.4,4.4,0,0,0,1,.2,2,2,0,0,0,1.1-.2,6.9,6.9,0,0,1,2.5-.4h0c2.1,0,3.5,2.1,3.5,5a12.26,12.26,0,0,1-1.6,5m1.4-9.3a4,4,0,0,0-3.3-1.7,6.45,6.45,0,0,0-3,.6c-.2,0-.4.1-.6.1a1.27,1.27,0,0,1-.6-.1,9.19,9.19,0,0,0-3.3-.6,4,4,0,0,0-3.3,1.7,8.21,8.21,0,0,0-1.2,4.3,14.12,14.12,0,0,0,1.8,5.7c1.1,2,2.3,3.3,3.2,3.3a2.64,2.64,0,0,0,1.9-.7,2.8,2.8,0,0,1,2.8.1,3.23,3.23,0,0,0,1.8.6c.9,0,2.1-1.3,3.2-3.3a14.12,14.12,0,0,0,1.8-5.7,8.21,8.21,0,0,0-1.2-4.3m-3.3-1.7Zm-.5,15Zm-.6-18.9A2.37,2.37,0,0,1,20,12.5a2.37,2.37,0,0,1,1.8-1.8m-2.4,2.9a3.54,3.54,0,0,0,3.5-3.5.47.47,0,0,0-.5-.5,3.54,3.54,0,0,0-3.5,3.5.47.47,0,0,0,.5.5" transform="translate(0.47)"/></g></svg>