<svg id="Capa_1" data-name="Capa 1" xmlns="http://www.w3.org/2000/svg" xmlns:xlink="http://www.w3.org/1999/xlink" viewBox="0 0 69 69"><defs><style>.cls-1,.cls-3{fill:none;}.cls-2{fill:#23356f;}.cls-3{stroke:#fff;}.cls-4{fill:#2374ba;}.cls-5{fill:#80bc41;}.cls-6{fill:#134c96;}.cls-7{clip-path:url(#clip-path);}.cls-8{fill:#fff;}</style><clipPath id="clip-path" transform="translate(0)"><rect class="cls-1" x="9.49" y="13.76" width="52.09" height="42.35"/></clipPath></defs><g id="Group_577" data-name="Group 577"><g id="Group_548" data-name="Group 548"><g id="Ellipse_50" data-name="Ellipse 50"><circle class="cls-2" cx="34.5" cy="34.5" r="34.5"/><circle class="cls-3" cx="34.5" cy="34.5" r="34"/></g><g id="Group_532" data-name="Group 532"><path id="Path_618" data-name="Path 618" class="cls-4" d="M30.68,13.76,9.49,35,30.68,56.11l4.9-4.78L19.09,35,35.58,18.54Z" transform="translate(0)"/><path id="Path_619" data-name="Path 619" class="cls-5" d="M40.38,13.76l-4.8,4.78L52,35,35.58,51.33l4.8,4.78L61.57,35Z" transform="translate(0)"/><path id="Path_620" data-name="Path 620" class="cls-6" d="M35.58,18.54,19.08,35l16.5,16.34L52,35Z" transform="translate(0)"/><g id="Group_536" data-name="Group 536"><g class="cls-7"><g id="Group_535" data-name="Group 535"><path id="Path_621" data-name="Path 621" class="cls-8" d="M51.27,48.84a4,4,0,0,0-.5-.1.36.36,0,0,0-.4.33v.07c0,.4,1.1.2,1.1,1.1a.81.81,0,0,1-.83.8h-.07c-.3,0-.4-.1-.7-.1l.1-.5a.85.85,0,0,0,.5.2c.2,0,.5-.1.5-.4,0-.5-1.1-.3-1.1-1.1,0-.6.4-.8.9-.8.2,0,.4.1.6.1Z" transform="translate(0)"/><path id="Path_622" data-name="Path 622" class="cls-8" d="M52,48.44h.8l.6,1.89.6-1.89h.8v2.49h-.5V48.84l-.7,2.09h-.4l-.7-2.09v2.09H52Z" transform="translate(0)"/></g></g></g></g></g></g></svg>