<?xml version="1.0" encoding="utf-8"?>
<!-- Generator: Adobe Illustrator 25.2.0, SVG Export Plug-In . SVG Version: 6.00 Build 0)  -->
<svg version="1.1" id="Capa_1" xmlns="http://www.w3.org/2000/svg" xmlns:xlink="http://www.w3.org/1999/xlink" x="0px" y="0px"
	 viewBox="0 0 40 40" style="enable-background:new 0 0 40 40;" xml:space="preserve">
<style type="text/css">
	.st0{clip-path:url(#SVGID_2_);fill:#EEF1F3;}
	.st1{clip-path:url(#SVGID_2_);fill:#AABBCE;}
</style>
<g>
	<defs>
		<rect id="SVGID_1_" x="0.4" y="0.4" width="39.2" height="39.2"/>
	</defs>
	<clipPath id="SVGID_2_">
		<use xlink:href="#SVGID_1_"  style="overflow:visible;"/>
	</clipPath>
	<path class="st0" d="M20,39.6c10.8,0,19.6-8.8,19.6-19.6C39.6,9.2,30.8,0.4,20,0.4S0.4,9.2,0.4,20C0.4,30.8,9.2,39.6,20,39.6"/>
	<path class="st1" d="M19.9,8.3c0.2,0,0.3,0.1,0.4,0.2l3.6,4.3c0.2,0.2,0.1,0.5-0.1,0.7c-0.2,0.2-0.5,0.1-0.7-0.1l-3.2-3.8l-3.2,3.8
		c-0.2,0.2-0.5,0.3-0.7,0.1s-0.3-0.5-0.1-0.7l3.6-4.3C19.6,8.4,19.7,8.3,19.9,8.3"/>
	<path class="st1" d="M19.9,8.3c0.3,0,0.5,0.2,0.5,0.5v22.3c0,0.3-0.2,0.5-0.5,0.5c-0.3,0-0.5-0.2-0.5-0.5V8.8
		C19.4,8.5,19.6,8.3,19.9,8.3"/>
	<path class="st1" d="M11,11.7c0.1,0,0.3,0.1,0.4,0.2c0.2,0.2,0.1,0.5-0.1,0.7l-3.8,3.2l3.8,3.2c0.2,0.2,0.3,0.5,0.1,0.7
		c-0.2,0.2-0.5,0.3-0.7,0.1l-4.3-3.6c-0.1-0.1-0.2-0.2-0.2-0.4c0-0.2,0.1-0.3,0.2-0.4l4.3-3.6C10.8,11.7,10.9,11.7,11,11.7"/>
	<path class="st1" d="M6.7,15.3h7.1c2.6,0,3.9,1.6,3.9,4.8v7.8c0,0.3-0.2,0.5-0.5,0.5c-0.3,0-0.5-0.2-0.5-0.5V20
		c0-2.6-0.9-3.7-2.8-3.7H6.7c-0.3,0-0.5-0.2-0.5-0.5C6.2,15.5,6.4,15.3,6.7,15.3"/>
	<path class="st1" d="M29,11.7c0.1,0,0.2,0,0.3,0.1l4.3,3.6c0.1,0.1,0.2,0.2,0.2,0.4c0,0.2-0.1,0.3-0.2,0.4l-4.3,3.6
		c-0.2,0.2-0.5,0.1-0.7-0.1c-0.2-0.2-0.1-0.5,0.1-0.7l3.8-3.2l-3.8-3.2c-0.2-0.2-0.3-0.5-0.1-0.7C28.7,11.8,28.8,11.7,29,11.7"/>
	<path class="st1" d="M26.2,15.3h7.1c0.3,0,0.5,0.2,0.5,0.5c0,0.3-0.2,0.5-0.5,0.5h-7.1c-2,0-2.8,1.1-2.8,3.7v7.8
		c0,0.3-0.2,0.5-0.5,0.5s-0.5-0.2-0.5-0.5V20C22.3,16.9,23.6,15.3,26.2,15.3"/>
</g>
</svg>
