<?xml version="1.0" encoding="utf-8"?>
<!-- Generator: Adobe Illustrator 25.2.0, SVG Export Plug-In . SVG Version: 6.00 Build 0)  -->
<svg version="1.1" id="Capa_1" xmlns="http://www.w3.org/2000/svg" xmlns:xlink="http://www.w3.org/1999/xlink" x="0px" y="0px"
	 viewBox="0 0 40 40" style="enable-background:new 0 0 40 40;" xml:space="preserve">
<style type="text/css">
	.st0{clip-path:url(#SVGID_2_);fill:#8DBB4F;}
	.st1{clip-path:url(#SVGID_2_);fill:#FFFFFF;}
</style>
<g>
	<defs>
		<rect id="SVGID_1_" x="0.4" y="0.4" width="39.2" height="39.2"/>
	</defs>
	<clipPath id="SVGID_2_">
		<use xlink:href="#SVGID_1_"  style="overflow:visible;"/>
	</clipPath>
	<path class="st0" d="M20,39.6c10.8,0,19.6-8.8,19.6-19.6C39.6,9.2,30.8,0.4,20,0.4S0.4,9.2,0.4,20C0.4,30.8,9.2,39.6,20,39.6"/>
	<path class="st1" d="M17,17v0.5c0,0.1-0.1,0.3-0.1,0.4l-0.6,0.6l0.6,0.6l1.9,1l0.1,0.1l1,1c0.1,0.1,0.1,0.2,0.1,0.4v0.8l0.9,0.9
		c0.1,0.1,0.1,0.2,0.1,0.4v2.8l0.5,0.5l0.6-0.6l0.9-1.8v-1.9c0-0.1,0.1-0.3,0.1-0.4l1.6-1.6l-0.6-0.6C24,20,24,19.9,24,19.7v-1
		c0-0.3,0.2-0.5,0.5-0.5H26v-0.7c0-0.3,0.2-0.5,0.5-0.5h2c-1.3-3.6-4.7-6-8.5-6h-0.2l0.1,0.3c0.1,0,0.1,0.1,0.1,0.2v1
		c0,0.1-0.1,0.3-0.1,0.4L19.7,13c0.1,0,0.1,0.1,0.2,0.1l0.8,0.9H21v-0.5c0-0.3,0.2-0.5,0.5-0.5h2c0.3,0,0.5,0.2,0.5,0.5v0.8l0.9,0.9
		c0,0,0.1,0.2,0.1,0.3v1c0,0.1-0.1,0.3-0.1,0.4l-1,1C23.8,18,23.7,18,23.5,18h-1c-0.1,0-0.2,0-0.2-0.1l-2-1l-0.1-0.1l-0.6-0.6
		L19,16.8c-0.2,0.1-0.4,0.2-0.5,0.2H17z M18.7,11.1c-4.9,0.7-8.3,5.2-7.6,10.2c0.7,5,5.3,8.3,10.2,7.6c4.9-0.7,8.3-5.3,7.6-10.2
		c0-0.2-0.1-0.5-0.1-0.7H27v0.5c0,0.3-0.2,0.5-0.5,0.5H25v0.3l0.9,0.9c0.2,0.2,0.2,0.5,0,0.7L24,22.7v1.8c0,0.1,0,0.2-0.1,0.2l-1,2
		l-0.1,0.1l-1,1c-0.2,0.2-0.5,0.2-0.7,0l-1-1C20,26.7,20,26.6,20,26.4v-2.8l-0.9-0.9C19,22.6,19,22.5,19,22.3v-0.8l-0.8-0.8l-1.9-1
		l-0.1-0.1l-1-1c-0.1,0.2-0.2,0-0.2-0.1s0.1-0.3,0.1-0.4l0.9-0.8v-0.8c0-0.3,0.2-0.5,0.5-0.5h1.8l0.9-0.9c0,0,0.2-0.1,0.3-0.1
		c0.1,0,0.3,0.1,0.4,0.1l0.9,0.9l1.8,1h0.7l0.7-0.7v-0.6l-0.9-0.9c0,0-0.1-0.2-0.1-0.3V14h-1v0.5c0,0.3-0.2,0.5-0.5,0.5h-1
		c-0.1,0-0.3-0.1-0.4-0.1L19.3,14h-0.8c-0.3,0-0.5-0.2-0.5-0.5c0-0.1,0.1-0.3,0.1-0.4l0.9-0.8v-0.7L18.7,11.1z M20,30
		c-5.5,0-10-4.5-10-10s4.5-10,10-10s10,4.5,10,10S25.5,30,20,30"/>
</g>
</svg>
