<svg xmlns="http://www.w3.org/2000/svg" viewBox="0 0 39.2 39.2"><defs><style>.cls-1{fill:#eef2f4;}.cls-2{fill:#a6bdd1;}</style></defs><g id="Capa_2" data-name="Capa 2"><g id="Capa_1-2" data-name="Capa 1"><path class="cls-1" d="M19.6,39.2A19.6,19.6,0,1,0,0,19.6,19.61,19.61,0,0,0,19.6,39.2"/><path class="cls-2" d="M23.14,15.42c-3.06,0-5-1-5-1.68v-.58a10.1,10.1,0,0,0,5,1.14,10.08,10.08,0,0,0,5-1.14v.58c0,.69-1.95,1.68-5,1.68m0-5.58c3.07,0,5,1,5,1.67s-1.95,1.68-5,1.68-5-1-5-1.68,2-1.67,5-1.67m0-1.12c-3,0-6.13,1-6.13,2.79v2.23c0,1.82,3.16,2.79,6.13,2.79a10.08,10.08,0,0,0,5-1.14V16c0,.68-1.95,1.67-5,1.67v1.11a10.19,10.19,0,0,0,5-1.13v.58c0,.68-1.95,1.67-5,1.67V21a10.18,10.18,0,0,0,5-1.14v.58c0,.68-1.95,1.67-5,1.67v1.12a10.08,10.08,0,0,0,5-1.14v.58c0,.68-1.95,1.67-5,1.67v1.12a10.08,10.08,0,0,0,5-1.14v.58c0,.68-1.95,1.67-5,1.67v1.12c3,0,6.14-1,6.14-2.79V11.51c0-1.81-3.16-2.79-6.14-2.79M16.45,20.44c-3.06,0-5-1-5-1.68s2-1.67,5-1.67,5,1,5,1.67-2,1.68-5,1.68m0,2.23c-3.06,0-5-1-5-1.67v-.59a10.08,10.08,0,0,0,5,1.14,10.08,10.08,0,0,0,5-1.14V21c0,.68-2,1.67-5,1.67m0,2.23c-3.06,0-5-1-5-1.67v-.59a10.08,10.08,0,0,0,5,1.14,10.08,10.08,0,0,0,5-1.14v.59c0,.68-2,1.67-5,1.67m0,2.23c-3.06,0-5-1-5-1.67v-.58a10.19,10.19,0,0,0,5,1.13,10.19,10.19,0,0,0,5-1.13v.58c0,.68-2,1.67-5,1.67m0,2.23c-3.06,0-5-1-5-1.67v-.58a10.08,10.08,0,0,0,5,1.14,10.08,10.08,0,0,0,5-1.14v.58c0,.68-2,1.67-5,1.67m0-13.38c-3,0-6.14,1-6.14,2.78v8.93c0,1.81,3.17,2.79,6.14,2.79s6.13-1,6.13-2.79V18.76C22.58,17,19.42,16,16.45,16"/></g></g></svg>