<?xml version="1.0" encoding="utf-8"?>
<!-- Generator: Adobe Illustrator 25.1.0, SVG Export Plug-In . SVG Version: 6.00 Build 0)  -->
<svg version="1.1" id="Capa_1" xmlns="http://www.w3.org/2000/svg" xmlns:xlink="http://www.w3.org/1999/xlink" x="0px" y="0px"
	 viewBox="0 0 39.2 39.2" style="enable-background:new 0 0 39.2 39.2;" xml:space="preserve">
<style type="text/css">
	.st0{fill:#FFFFFF;}
	.st1{clip-path:url(#SVGID_2_);fill:#A6BDD1;}
</style>
<path class="st0" d="M19.6,39.2c10.8,0,19.6-8.8,19.6-19.6S30.4,0,19.6,0S0,8.8,0,19.6C0,30.4,8.8,39.2,19.6,39.2"/>
<g>
	<defs>
		<rect id="SVGID_1_" x="11.3" y="10.3" width="16.5" height="18.6"/>
	</defs>
	<clipPath id="SVGID_2_">
		<use xlink:href="#SVGID_1_"  style="overflow:visible;"/>
	</clipPath>
	<path class="st1" d="M19.6,11c1,0,1.9,0.8,1.9,1.9c0,1-0.8,1.9-1.9,1.9c-1,0-1.9-0.8-1.9-1.9C17.8,11.8,18.6,11,19.6,11 M19.6,15.4
		c1.4,0,2.6-1.1,2.6-2.6s-1.1-2.6-2.6-2.6c-1.4,0-2.6,1.1-2.6,2.6S18.2,15.4,19.6,15.4"/>
	<path class="st1" d="M22.5,21.8C22.5,21.7,22.5,21.7,22.5,21.8l0-3.3c0-0.2-0.2-0.4-0.4-0.4s-0.4,0.2-0.4,0.4v4c0,0,0,0,0,0v5
		c0,0.3-0.2,0.7-0.6,0.7c-0.4,0-0.7-0.3-0.7-0.7v-3.9c0-0.5-0.4-0.9-0.9-0.9c-0.5,0-0.9,0.4-0.9,0.9v3.9c0,0.4-0.3,0.7-0.7,0.7
		c-0.4,0-0.6-0.4-0.6-0.7v-5c0,0,0,0,0,0v-4c0-0.2-0.2-0.4-0.4-0.4c-0.2,0-0.4,0.2-0.4,0.4v3.2c0,0,0,0.1,0,0.1
		c0,0.3-0.3,0.6-0.6,0.6c-0.4,0-0.5-0.3-0.5-0.6v-3.4c0-1,0.9-1.9,1.9-1.9h4.3c1,0,1.9,0.9,1.9,1.9v3.4c0,0.3-0.2,0.6-0.5,0.6
		C22.8,22.4,22.5,22.1,22.5,21.8 M24.4,21.8v-3.4c0-1.4-1.2-2.6-2.6-2.6h-4.3c-1.4,0-2.6,1.2-2.6,2.6v3.4c0,0.8,0.5,1.3,1.2,1.3
		c0.2,0,0.4-0.1,0.6-0.2v4.6c0,0.8,0.6,1.4,1.3,1.4c0.8,0,1.4-0.6,1.4-1.4v-3.9c0-0.1,0.1-0.2,0.2-0.2c0.1,0,0.2,0.1,0.2,0.2l0,3.9
		c0,0.8,0.6,1.4,1.4,1.4c0.7,0,1.3-0.6,1.3-1.4V23c0.2,0.1,0.4,0.2,0.6,0.2C23.9,23.1,24.4,22.5,24.4,21.8"/>
	<path class="st1" d="M13.7,17.5c0.1,0.1,0.1,0.1,0.2,0.1c0.1,0,0.2,0,0.3-0.1c0.1-0.1,0.1-0.4,0-0.5c-0.3-0.3-0.5-0.7-0.5-1.2
		c0-0.8,0.7-1.5,1.5-1.5c0.5,0,1,0.3,1.3,0.7c0.1,0.2,0.3,0.2,0.5,0.1c0.2-0.1,0.2-0.3,0.1-0.5c-0.4-0.7-1.1-1.1-1.9-1.1
		c-1.2,0-2.2,1-2.2,2.2C12.9,16.5,13.2,17.1,13.7,17.5"/>
	<path class="st1" d="M15.4,23.8c-0.5,0-0.8,0.4-0.8,0.8v3.1c0,0.3-0.2,0.5-0.5,0.5c-0.3,0-0.5-0.3-0.5-0.5v-4c0,0,0,0,0,0v-3.1
		c0-0.2-0.2-0.4-0.4-0.4s-0.4,0.2-0.4,0.4V23c0,0,0,0.1,0,0.1c0,0.3-0.2,0.5-0.5,0.5c-0.3,0-0.4-0.2-0.4-0.5v-2.6
		c0-0.9,0.7-1.5,1.5-1.5c0.2,0,0.4-0.2,0.4-0.4c0-0.2-0.2-0.4-0.4-0.4h-0.1c0,0-0.1,0-0.1,0c-1.1,0.1-2.1,1.1-2.1,2.2v2.6
		c0,0.7,0.5,1.2,1.1,1.2c0.2,0,0.3,0,0.5-0.1v3.5c0,0.7,0.5,1.2,1.2,1.2c0.7,0,1.2-0.6,1.2-1.2v-3.1c0-0.1,0.1-0.1,0.1-0.1
		c0.2,0,0.4-0.2,0.4-0.4C15.8,23.9,15.6,23.8,15.4,23.8"/>
	<path class="st1" d="M22.3,15.1c0.2,0.1,0.4,0.1,0.5-0.1c0.3-0.5,0.8-0.7,1.3-0.7c0.8,0,1.5,0.7,1.5,1.5c0,0.5-0.2,0.9-0.5,1.2
		c-0.1,0.1-0.2,0.3,0,0.5c0.1,0.1,0.2,0.1,0.3,0.1c0.1,0,0.2,0,0.2-0.1c0.5-0.4,0.8-1,0.8-1.7c0-1.2-1-2.2-2.2-2.2
		c-0.8,0-1.5,0.4-1.9,1.1C22.1,14.8,22.2,15,22.3,15.1"/>
	<path class="st1" d="M25.8,18.2C25.8,18.2,25.8,18.2,25.8,18.2l-0.2,0c-0.2,0-0.4,0.2-0.4,0.4c0,0.2,0.2,0.4,0.4,0.4
		c0.9,0,1.5,0.7,1.5,1.5v2.6c0,0.2-0.1,0.5-0.4,0.5c-0.3,0-0.5-0.2-0.5-0.5c0,0,0-0.1,0-0.1v-2.4c0-0.2-0.2-0.4-0.4-0.4
		c-0.2,0-0.4,0.2-0.4,0.4v3.1c0,0,0,0,0,0v4c0,0.3-0.1,0.5-0.5,0.5c-0.3,0-0.5-0.2-0.5-0.5v-3.1c0-0.5-0.4-0.8-0.8-0.8
		c-0.2,0-0.4,0.2-0.4,0.4s0.2,0.4,0.4,0.4c0.1,0,0.1,0.1,0.1,0.1v3.1c0,0.7,0.6,1.2,1.2,1.2c0.7,0,1.2-0.5,1.2-1.2v-3.5
		c0.1,0.1,0.3,0.1,0.5,0.1c0.6,0,1.1-0.5,1.1-1.2v-2.6C27.9,19.3,27,18.3,25.8,18.2"/>
</g>
</svg>
