<svg id="Capa_1" data-name="Capa 1" xmlns="http://www.w3.org/2000/svg" xmlns:xlink="http://www.w3.org/1999/xlink" viewBox="0 0 39.2 39.2"><defs><style>.cls-1{fill:none;}.cls-2{clip-path:url(#clip-path);}.cls-3{fill:#fff;}.cls-4{fill:#a6bdd1;}</style><clipPath id="clip-path" transform="translate(0.24)"><rect class="cls-1" x="-0.24" width="39.2" height="39.2"/></clipPath></defs><g class="cls-2"><path class="cls-3" d="M19.36,39.2A19.6,19.6,0,1,0-.24,19.6a19.59,19.59,0,0,0,19.6,19.6" transform="translate(0.24)"/><path class="cls-4" d="M19.36,22.1h-1v-1h1Zm-2,1h-1v-1h1Zm4,0h-1v-1h1Zm-2,1h-1v-1h1Zm4.5,0a.5.5,0,0,1,0-1,3.5,3.5,0,0,0,0-7h-.5v.5a.5.5,0,0,1-1,0,3.54,3.54,0,0,0-3.5-3.5h-.5a4,4,0,0,0-4,4v.5a.47.47,0,0,1-.5.5,2.5,2.5,0,0,0,0,5,.5.5,0,0,1,0,1,3.54,3.54,0,0,1-3.5-3.5,3.63,3.63,0,0,1,3-3.5,5.08,5.08,0,0,1,1.5-3.6,5,5,0,0,1,3.5-1.4h.5a4.42,4.42,0,0,1,4.2,3h.8a4.5,4.5,0,0,1,0,9m-6.5,1h-1v-1h1Zm4,0h-1v-1h1Zm-2,1h-1v-1h1Zm-2,1h-1v-1h1Zm4,0h-1v-1h1Z" transform="translate(0.24)"/></g></svg>