<svg xmlns="http://www.w3.org/2000/svg" viewBox="0 0 39.2 39.2"><defs><style>.cls-1{fill:#fff;}.cls-2{fill:#a6bdd1;}</style></defs><g id="Capa_2" data-name="Capa 2"><g id="Capa_1-2" data-name="Capa 1"><path class="cls-1" d="M19.6,39.2A19.6,19.6,0,1,0,0,19.6,19.6,19.6,0,0,0,19.6,39.2"/><path class="cls-2" d="M13.2,18.6a.47.47,0,0,0-.5.5v7a.47.47,0,0,0,.5.5h2a.47.47,0,0,0,.5-.5v-7a.47.47,0,0,0-.5-.5Zm6.3-6a.74.74,0,0,0-.8.8v.2a6.7,6.7,0,0,1-.7,3.1l-1.3,2.5v5.9a1.54,1.54,0,0,0,1.5,1.5h6.2a1.52,1.52,0,0,0,1.5-1.4l.6-6a1.4,1.4,0,0,0-1.3-1.6h-4a.46.46,0,0,1-.5-.4l-.4-3.8a.79.79,0,0,0-.8-.8m4.9,15H18.2a2.19,2.19,0,0,1-1.7-.7,1.71,1.71,0,0,1-1.3.7h-2a1.54,1.54,0,0,1-1.5-1.5v-7a1.54,1.54,0,0,1,1.5-1.5h2a1.28,1.28,0,0,1,1,.4l.9-1.8a5.83,5.83,0,0,0,.6-2.6v-.2a1.85,1.85,0,0,1,3.7-.1l.3,3.3H25a2.48,2.48,0,0,1,2.5,2.5v.2l-.6,6a2.51,2.51,0,0,1-2.5,2.3"/></g></g></svg>