<svg xmlns="http://www.w3.org/2000/svg" viewBox="0 0 39.2 39.2"><defs><style>.cls-1{fill:#095497;}.cls-2{fill:#fff;}</style></defs><g id="Capa_2" data-name="Capa 2"><g id="Capa_1-2" data-name="Capa 1"><path class="cls-1" d="M19.6,39.2A19.6,19.6,0,1,0,0,19.6,19.6,19.6,0,0,0,19.6,39.2"/><path class="cls-2" d="M16.6,24.81a3,3,0,1,1,0-4.24,3,3,0,0,1,0,4.24M14.85,19V13.37L17,15.53a.38.38,0,0,0,.53,0,.36.36,0,0,0,0-.52l-2.79-2.79a.39.39,0,0,0-.53,0L11.42,15a.37.37,0,1,0,.53.53l2.15-2.16V19a3.74,3.74,0,1,0,.75,0"/><path class="cls-2" d="M21.52,13.72a3,3,0,1,1,0,4.24,3,3,0,0,1,0-4.24m4.77,4.77a3.74,3.74,0,1,0-5.29,0,3.69,3.69,0,0,0,2.27,1.07v3.33H20.85a.38.38,0,0,0-.37.37.37.37,0,0,0,.37.38h2.42v2.42a.38.38,0,0,0,.75,0h0V23.64h2.41a.38.38,0,1,0,0-.75H24V19.56a3.69,3.69,0,0,0,2.27-1.07"/></g></g></svg>