<svg xmlns="http://www.w3.org/2000/svg" viewBox="0 0 38.55 38.55"><defs><style>.cls-1{fill:#eef2f4;}.cls-2{fill:#a6bdd1;}</style></defs><g id="Capa_2" data-name="Capa 2"><g id="Capa_1-2" data-name="Capa 1"><path class="cls-1" d="M19.28,38.55A19.28,19.28,0,1,0,0,19.28,19.27,19.27,0,0,0,19.28,38.55"/><path class="cls-2" d="M15.78,19.28a.47.47,0,0,0-.5.5v.5h2v-1Zm2.5,0v1h5v-.5a.47.47,0,0,0-.5-.5Zm-3,3h2v-1h-2Zm3,0h5v-1h-5Zm-3,1v.5a.47.47,0,0,0,.5.5h1.5v-1Zm3,0v1h4.5a.47.47,0,0,0,.5-.5v-.5Zm4.5,2h-7a1.54,1.54,0,0,1-1.5-1.5v-4a1.54,1.54,0,0,1,1.5-1.5h7a1.54,1.54,0,0,1,1.5,1.5v4a1.54,1.54,0,0,1-1.5,1.5m.5-14.3v2.3h2.3Zm-9.5-.7a1.54,1.54,0,0,0-1.5,1.5v15a1.54,1.54,0,0,0,1.5,1.5h11a1.54,1.54,0,0,0,1.5-1.5V14.28h-3.5a.47.47,0,0,1-.5-.5v-3.5Zm11,19h-11a2.48,2.48,0,0,1-2.5-2.5v-15a2.48,2.48,0,0,1,2.5-2.5h9c.1,0,.3.1.4.1l4,4a.6.6,0,0,1,.1.4v13a2.48,2.48,0,0,1-2.5,2.5"/></g></g></svg>