<svg xmlns="http://www.w3.org/2000/svg" viewBox="0 0 39.2 39.2"><defs><style>.cls-1{fill:#fff;}.cls-2{fill:#a6bdd1;}</style></defs><g id="Capa_2" data-name="Capa 2"><g id="Capa_1-2" data-name="Capa 1"><path class="cls-1" d="M19.6,39.2A19.6,19.6,0,1,0,0,19.6,19.6,19.6,0,0,0,19.6,39.2"/><path class="cls-2" d="M21.1,22.6a.47.47,0,0,1-.5-.5v-.5h-2v.5a.5.5,0,0,1-1,0v-.5h-.5a1.54,1.54,0,0,1-1.5-1.5.5.5,0,0,1,1,0,.47.47,0,0,0,.5.5h5a.47.47,0,0,0,.5-.5v-1a.47.47,0,0,0-.5-.5h-5a1.54,1.54,0,0,1-1.5-1.5v-1a1.54,1.54,0,0,1,1.5-1.5h.5v-.5a.5.5,0,0,1,1,0v.5h2v-.5a.5.5,0,0,1,1,0v.5h.5a1.54,1.54,0,0,1,1.5,1.5.5.5,0,0,1-1,0,.47.47,0,0,0-.5-.5h-5a.47.47,0,0,0-.5.5v1a.47.47,0,0,0,.5.5h5a1.54,1.54,0,0,1,1.5,1.5v1a1.54,1.54,0,0,1-1.5,1.5h-.5v.5a.47.47,0,0,1-.5.5m-9.5-12a.94.94,0,0,0-1,1v1h2v-1a.94.94,0,0,0-1-1m1.7,0a1.69,1.69,0,0,1,.3,1V27.1a1.59,1.59,0,0,0,1.2,1.5,1,1,0,0,0,.8-1V26.1a.47.47,0,0,1,.5-.5h9.5V12.1a1.47,1.47,0,0,0-1.5-1.5Zm3.3,16v1a1.69,1.69,0,0,1-.3,1H27.1a1.54,1.54,0,0,0,1.5-1.5v-.5Zm-2,3a.76.76,0,0,1-.4-.2,2.47,2.47,0,0,1-1.6-2.3V13.6H10.1a.47.47,0,0,1-.5-.5V11.6a2,2,0,0,1,2-2H24.1a2.48,2.48,0,0,1,2.5,2.5V25.6h2.5a.47.47,0,0,1,.5.5v1a2.48,2.48,0,0,1-2.5,2.5H14.6Z"/></g></g></svg>