<?xml version="1.0" encoding="utf-8"?>
<!-- Generator: Adobe Illustrator 25.2.0, SVG Export Plug-In . SVG Version: 6.00 Build 0)  -->
<svg version="1.1" id="Capa_1" xmlns="http://www.w3.org/2000/svg" xmlns:xlink="http://www.w3.org/1999/xlink" x="0px" y="0px"
	 viewBox="0 0 40 40" style="enable-background:new 0 0 40 40;" xml:space="preserve">
<style type="text/css">
	.st0{clip-path:url(#SVGID_2_);fill:#2670CA;}
	.st1{clip-path:url(#SVGID_2_);fill:#FFFFFF;}
</style>
<g>
	<defs>
		<rect id="SVGID_1_" x="0.4" y="0.4" width="39.2" height="39.2"/>
	</defs>
	<clipPath id="SVGID_2_">
		<use xlink:href="#SVGID_1_"  style="overflow:visible;"/>
	</clipPath>
	<path class="st0" d="M20,39.6c10.8,0,19.6-8.8,19.6-19.6C39.6,9.2,30.8,0.4,20,0.4S0.4,9.2,0.4,20C0.4,30.8,9.2,39.6,20,39.6"/>
	<path class="st1" d="M24.5,16h-3c-0.3,0-0.5-0.2-0.5-0.5c0-0.3,0.2-0.5,0.5-0.5h3c0.3,0,0.5,0.2,0.5,0.5C25,15.8,24.8,16,24.5,16
		 M24.5,19h-3c-0.3,0-0.5-0.2-0.5-0.5c0-0.3,0.2-0.5,0.5-0.5h3c0.3,0,0.5,0.2,0.5,0.5C25,18.8,24.8,19,24.5,19 M17.5,20
		c-0.3,0-0.5-0.2-0.5-0.5V16h-1.5c-0.3,0-0.5-0.2-0.5-0.5c0-0.3,0.2-0.5,0.5-0.5h4c0.3,0,0.5,0.2,0.5,0.5c0,0.3-0.2,0.5-0.5,0.5H18
		v3.5C18,19.8,17.8,20,17.5,20 M24.5,22h-9c-0.3,0-0.5-0.2-0.5-0.5c0-0.3,0.2-0.5,0.5-0.5h9c0.3,0,0.5,0.2,0.5,0.5
		C25,21.8,24.8,22,24.5,22 M24.5,25h-9c-0.3,0-0.5-0.2-0.5-0.5s0.2-0.5,0.5-0.5h9c0.3,0,0.5,0.2,0.5,0.5S24.8,25,24.5,25 M12,13h1
		v-1h-1V13z M27,13h1v-1h-1V13z M14,13c0,0.6-0.4,1-1,1v12c0.6,0,1,0.4,1,1h12c0-0.6,0.4-1,1-1V14c-0.6,0-1-0.4-1-1H14z M12,28h1v-1
		h-1V28z M27,28h1v-1h-1V28z M28,29h-1c-0.6,0-1-0.4-1-1H14c0,0.6-0.4,1-1,1h-1c-0.6,0-1-0.4-1-1v-1c0-0.6,0.4-1,1-1V14
		c-0.6,0-1-0.4-1-1v-1c0-0.6,0.4-1,1-1h1c0.6,0,1,0.4,1,1h12c0-0.6,0.4-1,1-1h1c0.6,0,1,0.4,1,1v1c0,0.6-0.4,1-1,1v12
		c0.6,0,1,0.4,1,1v1C29,28.6,28.6,29,28,29"/>
</g>
</svg>
