<?xml version="1.0" encoding="utf-8"?>
<!-- Generator: Adobe Illustrator 25.2.0, SVG Export Plug-In . SVG Version: 6.00 Build 0)  -->
<svg version="1.1" id="Capa_1" xmlns="http://www.w3.org/2000/svg" xmlns:xlink="http://www.w3.org/1999/xlink" x="0px" y="0px"
	 viewBox="0 0 40 40" style="enable-background:new 0 0 40 40;" xml:space="preserve">
<style type="text/css">
	.st0{clip-path:url(#SVGID_2_);fill:#2670CA;}
	.st1{clip-path:url(#SVGID_2_);fill:#FFFFFF;}
</style>
<g>
	<defs>
		<rect id="SVGID_1_" x="0.4" y="0.4" width="39.2" height="39.2"/>
	</defs>
	<clipPath id="SVGID_2_">
		<use xlink:href="#SVGID_1_"  style="overflow:visible;"/>
	</clipPath>
	<path class="st0" d="M20,39.6c10.8,0,19.6-8.8,19.6-19.6C39.6,9.2,30.8,0.4,20,0.4S0.4,9.2,0.4,20C0.4,30.8,9.2,39.6,20,39.6"/>
	<path class="st1" d="M20,30.1c-0.1,0-0.1,0-0.2,0c-0.1-0.1-2.6-1.3-5.1-3.4c-3.3-2.9-5.1-6-5.1-9.1c0-2.7,1.2-5.6,4.7-5.6
		c0.7,0,1.3,0.1,2,0.3c0.2,0.1,0.3,0.3,0.2,0.4c-0.1,0.2-0.3,0.3-0.4,0.2c-0.5-0.2-1.1-0.2-1.8-0.2c-3.7,0-4,3.7-4,4.9
		c0,6.4,8.4,11.1,9.6,11.8c1.3-0.7,9.6-5.4,9.6-11.8c0-1.1-0.3-4.9-4-4.9c-4,0-5.3,3.2-5.3,3.3c-0.1,0.1-0.2,0.2-0.3,0.2
		c-0.1,0-0.3-0.1-0.3-0.2c0,0-0.4-1-1.5-1.9c-0.2-0.1-0.2-0.4,0-0.5c0.1-0.2,0.4-0.2,0.5,0c0.7,0.6,1.1,1.2,1.4,1.6
		c0.7-1.1,2.4-3.1,5.7-3.1c3.5,0,4.7,2.9,4.7,5.6c0,3.1-1.8,6.2-5.1,9.1c-2.5,2.1-5,3.4-5.1,3.4C20.1,30.1,20.1,30.1,20,30.1"/>
</g>
</svg>
