<svg xmlns="http://www.w3.org/2000/svg" viewBox="0 0 40.84 40.84"><defs><style>.cls-1{fill:#3977bb;}.cls-2{fill:#fff;}</style></defs><g id="Capa_2" data-name="Capa 2"><g id="Capa_1-2" data-name="Capa 1"><path class="cls-1" d="M20.42,40.84A20.42,20.42,0,1,0,0,20.42,20.42,20.42,0,0,0,20.42,40.84"/><path class="cls-2" d="M25.69,15.73H22.18a.59.59,0,1,1,0-1.17h3.51a.59.59,0,1,1,0,1.17m0,3.52H22.18a.56.56,0,0,1-.59-.59.55.55,0,0,1,.59-.58h3.51a.55.55,0,0,1,.59.58.56.56,0,0,1-.59.59m-8.2,1.17a.56.56,0,0,1-.59-.59v-4.1H15.15a.59.59,0,1,1,0-1.17h4.68a.59.59,0,1,1,0,1.17H18.08v4.1a.56.56,0,0,1-.59.59m8.2,2.34H15.15a.55.55,0,0,1-.59-.58.56.56,0,0,1,.59-.59H25.69a.56.56,0,0,1,.59.59.55.55,0,0,1-.59.58m0,3.52H15.15a.56.56,0,0,1-.59-.59.55.55,0,0,1,.59-.58H25.69a.55.55,0,0,1,.59.58.56.56,0,0,1-.59.59M11,12.21h1.17V11H11Zm17.58,0H29.8V11H28.62Zm-15.23,0a1.11,1.11,0,0,1-1.17,1.18V27.45a1.11,1.11,0,0,1,1.17,1.17H27.45a1.11,1.11,0,0,1,1.17-1.17V13.39a1.11,1.11,0,0,1-1.17-1.18ZM11,29.8h1.17V28.62H11Zm17.58,0H29.8V28.62H28.62ZM29.8,31H28.62a1.11,1.11,0,0,1-1.17-1.17H13.39A1.11,1.11,0,0,1,12.22,31H11A1.11,1.11,0,0,1,9.87,29.8V28.62A1.11,1.11,0,0,1,11,27.45V13.39a1.11,1.11,0,0,1-1.17-1.18V11A1.11,1.11,0,0,1,11,9.87h1.18A1.11,1.11,0,0,1,13.39,11H27.45a1.11,1.11,0,0,1,1.17-1.17H29.8A1.11,1.11,0,0,1,31,11v1.17a1.11,1.11,0,0,1-1.17,1.18V27.45A1.11,1.11,0,0,1,31,28.62V29.8A1.11,1.11,0,0,1,29.8,31"/></g></g></svg>