<?xml version="1.0" encoding="utf-8"?>
<!-- Generator: Adobe Illustrator 25.1.0, SVG Export Plug-In . SVG Version: 6.00 Build 0)  -->
<svg version="1.1" id="Capa_1" xmlns="http://www.w3.org/2000/svg" xmlns:xlink="http://www.w3.org/1999/xlink" x="0px" y="0px"
	 viewBox="0 0 39.2 39.2" style="enable-background:new 0 0 39.2 39.2;" xml:space="preserve">
<style type="text/css">
	.st0{clip-path:url(#SVGID_2_);fill:#FFFFFF;}
	.st1{clip-path:url(#SVGID_2_);fill:#A6BDD1;}
</style>
<g>
	<defs>
		<rect id="SVGID_1_" width="39.2" height="39.2"/>
	</defs>
	<clipPath id="SVGID_2_">
		<use xlink:href="#SVGID_1_"  style="overflow:visible;"/>
	</clipPath>
	<path class="st0" d="M19.6,39.2c10.8,0,19.6-8.8,19.6-19.6C39.2,8.8,30.4,0,19.6,0S0,8.8,0,19.6C0,30.4,8.8,39.2,19.6,39.2"/>
	<path class="st1" d="M27.7,20.7c-0.6-0.8-1.5-1.2-2.5-1.2h-0.5v-5.6c0-0.8,0.7-1.5,1.5-1.5c0.8,0,1.5,0.7,1.5,1.5V20.7z M26.8,23.7
		H11.7c-0.5,0-1-0.4-1-1c0-1.4,1.1-2.5,2.5-2.5h12c1.4,0,2.5,1.1,2.5,2.5C27.7,23.2,27.3,23.7,26.8,23.7L26.8,23.7z M22.4,25.3
		c0.8,0.6,1.3,1.4,1.3,2.2v1.7c-0.4-0.2-0.9-0.2-1.3-0.1v-1.7c0-0.7-0.4-1.4-1-1.8c-0.7-0.5-1.5-0.7-2.3-0.7c-1.8,0-3.3,1.1-3.3,2.5
		v1.7c-0.4-0.1-0.9-0.1-1.3,0.1v-1.7c0-1.8,2.1-3.2,4.6-3.2h0.1C20.3,24.3,21.5,24.7,22.4,25.3L22.4,25.3z M24.1,30.8v1
		c0,0.6-0.5,1.1-1.1,1.1c-0.6,0-1.1-0.5-1.1-1.1v-1c0-0.6,0.5-1.1,1.1-1.1C23.6,29.8,24.1,30.2,24.1,30.8L24.1,30.8z M16.3,31.9
		c0,0.6-0.5,1.1-1.1,1.1c-0.6,0-1.1-0.5-1.1-1.1v-1c0-0.6,0.5-1.1,1.1-1.1c0.6,0,1.1,0.5,1.1,1.1V31.9z M10.7,13.9
		c0-0.8,0.8-1.5,1.6-1.4c0.8,0,1.4,0.7,1.4,1.4v5.6h-0.5c-1,0-1.9,0.4-2.5,1.2L10.7,13.9z M12.4,6.7c0-0.8,0.7-1.5,1.5-1.5h10.5
		c0.8,0,1.5,0.7,1.5,1.5v5c-1.1,0.2-1.9,1.1-1.9,2.2v5.6h-9.5v-5.6c0-1.2-0.9-2.1-2.1-2.2V6.7z M28.4,13.9c0-1.1-0.8-2-1.9-2.2v-5
		c0-1.2-1-2.2-2.2-2.2c0,0,0,0,0,0H13.8c-1.2,0-2.2,1-2.2,2.2v5c-1,0.3-1.7,1.1-1.7,2.2v8.7v0v0.1c0,0.9,0.7,1.7,1.7,1.7h4.4
		c-1.4,0.7-2.3,1.9-2.3,3.2v2.2c-0.2,0.3-0.4,0.7-0.4,1.1v1c0,1,0.8,1.8,1.8,1.8c1,0,1.8-0.8,1.8-1.8v-1c0-0.5-0.2-0.9-0.5-1.2v-2.1
		c0-1,1.2-1.8,2.6-1.8c0.7,0,1.3,0.2,1.9,0.6c0.4,0.3,0.7,0.7,0.7,1.2v2.1c-0.3,0.3-0.5,0.8-0.5,1.2v1c0,1,0.8,1.8,1.8,1.8
		c1,0,1.8-0.8,1.8-1.8v-1c0-0.4-0.1-0.8-0.4-1.1v-2.2c0-1.1-0.6-2.1-1.6-2.8c-0.2-0.1-0.4-0.3-0.7-0.4h4.6c0.9,0,1.7-0.7,1.7-1.7
		v-0.1v0V13.9z"/>
</g>
</svg>
