<svg xmlns="http://www.w3.org/2000/svg" viewBox="0 0 39.2 39.2"><defs><style>.cls-1{fill:#fff;}.cls-2{fill:#76bc21;}</style></defs><g id="Layer_2" data-name="Layer 2"><g id="Layer_1-2" data-name="Layer 1"><path class="cls-1" d="M19.6,39.2A19.6,19.6,0,1,0,0,19.6,19.6,19.6,0,0,0,19.6,39.2"/><path class="cls-2" d="M22.6,16.6h2v-2h-2Zm2,1h-2a.94.94,0,0,1-1-1v-2a.94.94,0,0,1,1-1h2a.94.94,0,0,1,1,1v2a.94.94,0,0,1-1,1m-.5,2c.1,0,.3.1.4.1l3.4,3.4a8.88,8.88,0,0,0-4.7-11.8,9.15,9.15,0,0,0-11.9,4.8,9.71,9.71,0,0,0-.7,4.8l4.1-4.1a.76.76,0,0,1,.4-.2c.1,0,.3.1.4.1l5.6,5.6,2.6-2.6c.1,0,.3-.1.4-.1m-9-1.8h0L11,21.9a9,9,0,0,0,11.1,6.3A8.74,8.74,0,0,0,27.5,24l-3.3-3.3-2.6,2.6a.48.48,0,0,1-.7,0Zm4.5,11.8a10,10,0,1,1,10-10,10,10,0,0,1-10,10"/></g></g></svg>