<svg xmlns="http://www.w3.org/2000/svg" viewBox="0 0 39.2 39.2"><defs><style>.cls-1{fill:#fff;}.cls-2{fill:#a6bdd1;}</style></defs><g id="Layer_2" data-name="Layer 2"><g id="Layer_1-2" data-name="Layer 1"><path class="cls-1" d="M19.6,39.2A19.6,19.6,0,1,0,0,19.6,19.6,19.6,0,0,0,19.6,39.2"/><path class="cls-2" d="M15.1,21.6a.47.47,0,0,1-.5-.5c0-.1.1-.3.1-.4l4-4a.48.48,0,0,1,.7,0L22,19.3l4.9-4.7H24.1a.5.5,0,0,1,0-1h4a.47.47,0,0,1,.5.5v4a.5.5,0,0,1-1,0V15.3l-5.1,5.1a.48.48,0,0,1-.7,0l-2.6-2.6-3.6,3.6a1.69,1.69,0,0,1-.5.2m13,4h-15a2.48,2.48,0,0,1-2.5-2.5v-9a.5.5,0,0,1,1,0v9a1.54,1.54,0,0,0,1.5,1.5h15a.5.5,0,0,1,0,1"/></g></g></svg>