<svg xmlns="http://www.w3.org/2000/svg" viewBox="0 0 39.2 39.2"><defs><style>.cls-1{fill:#233770;}.cls-2{fill:#2575ba;}.cls-3{fill:#81bc41;}.cls-4{fill:#144d96;}.cls-5{fill:none;stroke:#fff;stroke-width:0.57px;}.cls-6{fill:#fff;}</style></defs><g id="Layer_2" data-name="Layer 2"><g id="Layer_1-2" data-name="Layer 1"><circle class="cls-1" cx="19.6" cy="19.6" r="19.6"/><path id="Path_618" data-name="Path 618" class="cls-2" d="M17.43,7.82l-12,12.06,12,12,2.78-2.72-9.37-9.28,9.37-9.34Z"/><path id="Path_619" data-name="Path 619" class="cls-3" d="M22.94,7.82l-2.73,2.72,9.32,9.34-9.32,9.28,2.73,2.72,12-12Z"/><path id="Path_620" data-name="Path 620" class="cls-4" d="M20.21,10.53l-9.37,9.35,9.37,9.28,9.32-9.28Z"/><circle class="cls-5" cx="19.6" cy="19.6" r="19.32"/><g id="Group_532" data-name="Group 532"><g id="Group_536" data-name="Group 536"><g id="Group_535" data-name="Group 535"><path id="Path_621" data-name="Path 621" class="cls-6" d="M29.13,27.75a1.4,1.4,0,0,0-.28-.06.21.21,0,0,0-.23.18v.05c0,.22.62.11.62.62a.46.46,0,0,1-.47.46h0c-.17,0-.23-.06-.4-.06l.06-.28a.44.44,0,0,0,.29.11c.11,0,.28-.06.28-.23s-.63-.17-.63-.62.23-.46.52-.46c.11,0,.22.06.34.06Z"/><path id="Path_622" data-name="Path 622" class="cls-6" d="M29.53,27.52H30l.34,1.07.34-1.07h.46v1.41h-.28V27.75l-.4,1.18h-.23l-.4-1.18v1.18h-.28Z"/></g></g></g></g></g></svg>