<svg xmlns="http://www.w3.org/2000/svg" viewBox="0 0 39.2 39.2"><defs><style>.cls-1{fill:#fff;}.cls-2{fill:#4b5b6d;}</style></defs><g id="Layer_2" data-name="Layer 2"><g id="Layer_1-2" data-name="Layer 1"><path class="cls-1" d="M19.6,39.2A19.6,19.6,0,1,0,0,19.6,19.6,19.6,0,0,0,19.6,39.2"/><path class="cls-2" d="M11.6,25.6h0a.47.47,0,0,1-.5-.5v-2a9,9,0,0,1,9-8.5h.3a8.94,8.94,0,0,1,6.7,3V14.1a.5.5,0,0,1,1,0v5c0-.1,0-.2-.1-.2a12.49,12.49,0,0,0-.9-1.2v1h-.5a2.18,2.18,0,0,1,.5.8.52.52,0,0,0,.4.2h-5a.5.5,0,0,1,0-1h4a8,8,0,0,0-6.3-3h-.1a8,8,0,0,0-8,7.6v1.9a.46.46,0,0,1-.5.4"/></g></g></svg>