<svg xmlns="http://www.w3.org/2000/svg" viewBox="0 0 39.2 38.63"><defs><style>.cls-1{fill:#2d71b7;}.cls-2{fill:none;stroke:#fff;stroke-width:0.57px;}.cls-3{fill:#fdb61c;}</style></defs><g id="Layer_2" data-name="Layer 2"><g id="Layer_1-2" data-name="Layer 1"><ellipse class="cls-1" cx="19.6" cy="19.32" rx="19.6" ry="19.32"/><ellipse class="cls-2" cx="19.6" cy="19.32" rx="19.32" ry="19.03"/><path class="cls-3" d="M19.6,15.08a1.14,1.14,0,0,0,1.2-.74l.62-6.93c0-.68-.8-1.25-1.82-1.25s-1.82.57-1.82,1.25l.63,6.93a1.13,1.13,0,0,0,1.19.74Z"/><path class="cls-3" d="M15.85,17.24a1.16,1.16,0,0,0,0-1.42l-5.69-4c-.56-.34-1.47.06-2,1A1.59,1.59,0,0,0,8.3,15l6.3,3a1.22,1.22,0,0,0,1.25-.68Z"/><path class="cls-3" d="M23.35,17.24a1.23,1.23,0,0,0,1.25.68l6.31-3a1.59,1.59,0,0,0,.17-2.16c-.51-.86-1.37-1.31-2-1l-5.68,4a1.09,1.09,0,0,0-.06,1.42Z"/><path class="cls-3" d="M23.35,21.56a1.23,1.23,0,0,1,1.25-.69l6.31,3A1.59,1.59,0,0,1,31.08,26c-.51.85-1.37,1.3-2,1l-5.68-4a1.1,1.1,0,0,1-.06-1.42Z"/><path class="cls-3" d="M15.85,21.56a1.17,1.17,0,0,1,0,1.42l-5.69,4c-.56.34-1.47-.05-2-1a1.59,1.59,0,0,1,.17-2.16l6.3-3a1.08,1.08,0,0,1,1.25.69Z"/><path class="cls-3" d="M19.6,23.71a1.15,1.15,0,0,1,1.2.74l.62,6.93c0,.69-.8,1.25-1.82,1.25s-1.82-.56-1.82-1.25l.63-6.93c.06-.45.57-.74,1.19-.74Z"/><path class="cls-3" d="M22.39,31.16a.51.51,0,0,1,.51.51.52.52,0,1,1-.51-.51Zm0,.11a.4.4,0,1,0,.39.4.43.43,0,0,0-.39-.4Zm-.06.68h-.17v-.51h.23c.11,0,.17,0,.17.06s.05.05.05.11a.11.11,0,0,1-.11.11h0c.06,0,.06.06.11.12s0,.11.06.11H22.5a.17.17,0,0,0-.06-.11c0-.06-.05-.06-.11-.06h-.06V32Zm0-.28h0c.11,0,.17,0,.17-.06s-.06-.06-.11-.06h-.06Z"/></g></g></svg>