<svg xmlns="http://www.w3.org/2000/svg" viewBox="0 0 39.2 39.2"><defs><style>.cls-1{fill:#76bc21;}.cls-2{fill:#fff;}</style></defs><g id="Layer_2" data-name="Layer 2"><g id="Layer_1-2" data-name="Layer 1"><path class="cls-1" d="M19.6,39.2A19.6,19.6,0,1,0,0,19.6,19.6,19.6,0,0,0,19.6,39.2"/><path class="cls-2" d="M28.15,27.6h-4a.47.47,0,0,1-.5-.5v-4a.5.5,0,0,1,1,0v2.7a8,8,0,0,0,1.2-11.2,8.09,8.09,0,0,0-5.8-3,.46.46,0,0,1-.4-.5.47.47,0,0,1,.5-.5,9,9,0,0,1,8.4,9.5,9.14,9.14,0,0,1-3.3,6.4h2.8a.47.47,0,0,1,.5.5c.1.4-.1.6-.4.6m-9,1h0a9,9,0,0,1-8.5-9.5A9.57,9.57,0,0,1,14,12.6h-2.8a.5.5,0,0,1,0-1h4a.47.47,0,0,1,.5.5v4a.5.5,0,0,1-1,0V13.4a7.94,7.94,0,0,0-1.2,11.2,7.75,7.75,0,0,0,5.8,3,.47.47,0,0,1,.5.5.56.56,0,0,1-.6.5"/></g></g></svg>