<svg xmlns="http://www.w3.org/2000/svg" viewBox="0 0 39.2 39.2"><defs><style>.cls-1{fill:#76bc21;}.cls-2{fill:#fff;}</style></defs><g id="Layer_2" data-name="Layer 2"><g id="Layer_1-2" data-name="Layer 1"><path class="cls-1" d="M19.6,39.2A19.6,19.6,0,1,0,0,19.6,19.6,19.6,0,0,0,19.6,39.2"/><rect class="cls-2" x="11.77" y="6.64" width="1.08" height="5.4"/><rect class="cls-2" x="17.17" y="6.64" width="1.08" height="5.4"/><path class="cls-2" d="M10.69,14.66a3.83,3.83,0,0,0,1.25.63l.37.12v3.11a1.63,1.63,0,0,0,1.63,1.62H16.1a1.62,1.62,0,0,0,1.61-1.62V15.41l.37-.12a4.18,4.18,0,0,0,1.25-.62V12.58H10.69Zm5.41,6.56H13.94a2.71,2.71,0,0,1-2.71-2.7V16.18c-.81-.31-1.62-.78-1.62-1.44V11.5h10.8v3.24c0,.66-.81,1.13-1.62,1.44v2.34a2.7,2.7,0,0,1-2.69,2.7"/><rect class="cls-2" x="13.39" y="15.28" width="3.24" height="1.08"/><rect class="cls-2" x="13.39" y="17.44" width="3.24" height="1.08"/><rect class="cls-2" x="14.47" y="20.68" width="1.08" height="11.88"/><path class="cls-2" d="M23.66,22.84a.59.59,0,0,1,.39.16.55.55,0,0,1,.15.46l-.71,4.6,4.44-6.67-2.58.37a.56.56,0,0,1-.46-.16.52.52,0,0,1-.15-.46l.7-4.6L21,23.22l2.59-.37h.07m-1.08,8.1a.43.43,0,0,1-.19,0,.53.53,0,0,1-.34-.58L23,24,20,24.46a.54.54,0,0,1-.53-.25.53.53,0,0,1,0-.59L25.9,13.9a.55.55,0,0,1,.65-.2.53.53,0,0,1,.33.58l-1,6.3L29,20.15a.53.53,0,0,1,.54.24.55.55,0,0,1,0,.59L23,30.7a.54.54,0,0,1-.45.24"/></g></g></svg>