<svg xmlns="http://www.w3.org/2000/svg" viewBox="0 0 39.2 39.2"><defs><style>.cls-1{fill:#76bc21;}.cls-2{fill:#fff;}</style></defs><g id="Layer_2" data-name="Layer 2"><g id="Layer_1-2" data-name="Layer 1"><path class="cls-1" d="M19.6,39.2A19.6,19.6,0,1,0,0,19.6,19.59,19.59,0,0,0,19.6,39.2"/><path class="cls-2" d="M17.1,14.6h-4a.5.5,0,0,1,0-1h4a.5.5,0,0,1,0,1m-1,2h-3a.5.5,0,0,1,0-1h3a.5.5,0,0,1,0,1m1,2h-4a.5.5,0,0,1,0-1h4a.5.5,0,0,1,0,1m-1,2h-3a.5.5,0,0,1,0-1h3a.5.5,0,0,1,0,1m-3-9a1.54,1.54,0,0,0-1.5,1.5v13a1.54,1.54,0,0,0,1.5,1.5h5.5v-16Zm6.5,0v16h6.5a1.54,1.54,0,0,0,1.5-1.5v-13a1.54,1.54,0,0,0-1.5-1.5Zm6.5,17h-13a2.48,2.48,0,0,1-2.5-2.5v-13a2.48,2.48,0,0,1,2.5-2.5h13a2.48,2.48,0,0,1,2.5,2.5v13a2.48,2.48,0,0,1-2.5,2.5"/></g></g></svg>