<svg xmlns="http://www.w3.org/2000/svg" viewBox="0 0 39.2 39.2"><defs><style>.cls-1{fill:#0071ce;}.cls-2{fill:none;stroke:#fff;stroke-width:0.7px;}</style></defs><g id="Layer_2" data-name="Layer 2"><g id="Layer_1-2" data-name="Layer 1"><path class="cls-1" d="M19.6,39.2A19.6,19.6,0,1,0,0,19.6,19.61,19.61,0,0,0,19.6,39.2"/><path class="cls-2" d="M19.6,20.92l4.52-4.51M19.66,13.6l-1.51-1.51m1.51,5.13-2.61-2.6m2.61,6.3-4.52-4.51m4.52-2.81,1.51-1.51m-1.51,5.13,2.61-2.6M19.6,32.4V11m10.11,6.53A3.23,3.23,0,0,0,28,14.68,3.18,3.18,0,0,0,28.45,13a3.23,3.23,0,0,0-3.23-3.22,3.37,3.37,0,0,0-1.35.29,4.4,4.4,0,0,0-8.33.11A3.15,3.15,0,0,0,14,9.79,3.23,3.23,0,0,0,10.75,13a3.18,3.18,0,0,0,.47,1.67,3.22,3.22,0,0,0,1.08,6.05,4.71,4.71,0,0,0,7.3,2.69,4.71,4.71,0,0,0,7.3-2.69A3.23,3.23,0,0,0,29.71,17.54Z"/></g></g></svg>