<svg xmlns="http://www.w3.org/2000/svg" viewBox="0 0 39.2 39.2"><defs><style>.cls-1{fill:#0071ce;}.cls-2{fill:#fff;}</style></defs><g id="Layer_2" data-name="Layer 2"><g id="Layer_1-2" data-name="Layer 1"><path class="cls-1" d="M19.6,39.2A19.6,19.6,0,1,0,0,19.6,19.6,19.6,0,0,0,19.6,39.2"/><path class="cls-2" d="M15.6,19.1h0a.54.54,0,0,1,.5-.5.37.37,0,0,1,.3.1l2.2,1.5V18.1a.47.47,0,0,1,.5-.5.37.37,0,0,1,.3.1l3,2a.52.52,0,0,1,.2.4.47.47,0,0,1-.5.5.37.37,0,0,1-.3-.1L19.6,19v2.1a.47.47,0,0,1-.5.5.37.37,0,0,1-.3-.1l-3-2a.52.52,0,0,1-.2-.4m12-1a.47.47,0,0,0-.5-.5h-.5v4h.5a.47.47,0,0,0,.5-.5Zm-2-1a1.54,1.54,0,0,0-1.5-1.5h-11a1.54,1.54,0,0,0-1.5,1.5v5a1.54,1.54,0,0,0,1.5,1.5h11a1.54,1.54,0,0,0,1.5-1.5Zm-15,5v-5a2.48,2.48,0,0,1,2.5-2.5h11a2.38,2.38,0,0,1,2.4,2h.6a1.54,1.54,0,0,1,1.5,1.5v3a1.54,1.54,0,0,1-1.5,1.5h-.6a2.45,2.45,0,0,1-2.4,2h-11a2.48,2.48,0,0,1-2.5-2.5"/></g></g></svg>