<svg xmlns="http://www.w3.org/2000/svg" viewBox="0 0 39.2 39.2"><defs><style>.cls-1{fill:#fff;}.cls-2{fill:#ffb71b;}</style></defs><g id="Layer_2" data-name="Layer 2"><g id="Layer_1-2" data-name="Layer 1"><path class="cls-1" d="M19.6,39.2A19.6,19.6,0,1,0,0,19.6,19.61,19.61,0,0,0,19.6,39.2"/><path class="cls-2" d="M20.6,17.1H13.1a.5.5,0,0,1,0-1h7.5a1,1,0,0,0,0-2H19.1a.5.5,0,0,1,0-1h1.5a2,2,0,1,1,0,4m6,3H11.1a.5.5,0,0,1,0-1H26.6a1,1,0,0,0,0-2H25.1a.5.5,0,0,1,0-1h1.5a2,2,0,0,1,0,4m-4,6H21.1a.5.5,0,0,1,0-1h1.5a1,1,0,0,0,0-2H15.1a.5.5,0,0,1,0-1h7.5a2,2,0,0,1,0,4"/></g></g></svg>