<svg xmlns="http://www.w3.org/2000/svg" viewBox="0 0 39.2 39.2"><defs><style>.cls-1{fill:#76bc21;}.cls-2{fill:#fff;}</style></defs><g id="Layer_2" data-name="Layer 2"><g id="Layer_1-2" data-name="Layer 1"><path class="cls-1" d="M19.6,39.2A19.6,19.6,0,1,0,0,19.6,19.6,19.6,0,0,0,19.6,39.2"/><path class="cls-2" d="M29.1,14.6h-8a.5.5,0,0,1,0-1h8a.5.5,0,0,1,0,1m-3,4h-5a.5.5,0,0,1,0-1h5a.5.5,0,0,1,0,1m3,4h-8a.5.5,0,0,1,0-1h8a.5.5,0,0,1,0,1m-16,0a.47.47,0,0,1-.5-.5c0-.1.1-.3.1-.4l1.2-1.1H10.1a.5.5,0,0,1,0-1h3.8l-1.1-1.1a.49.49,0,1,1,.7-.7l2,2a.48.48,0,0,1,0,.7l-2,2c-.1,0-.3.1-.4.1m13,4h-5a.5.5,0,0,1,0-1h5a.5.5,0,0,1,0,1m-8,2a.47.47,0,0,1-.5-.5v-17a.5.5,0,0,1,1,0v17a.47.47,0,0,1-.5.5"/></g></g></svg>