<svg xmlns="http://www.w3.org/2000/svg" viewBox="0 0 39.2 39.2"><defs><style>.cls-1{fill:#0071ce;}.cls-2{fill:#fff;}</style></defs><g id="Layer_2" data-name="Layer 2"><g id="Layer_1-2" data-name="Layer 1"><path class="cls-1" d="M19.6,39.2A19.6,19.6,0,1,0,0,19.6,19.6,19.6,0,0,0,19.6,39.2"/><path class="cls-2" d="M21.1,12.6a.47.47,0,0,1-.5-.5,1.47,1.47,0,0,0-1.5-1.5,1.54,1.54,0,0,0-1.5,1.5.5.5,0,1,1-1,0,2.5,2.5,0,0,1,5,0,.47.47,0,0,1-.5.5m3.5,7a1,1,0,1,1,1-1,.94.94,0,0,1-1,1m-7.5,7h6a.47.47,0,0,1,.5.5v1.5h2V25.1a.52.52,0,0,1,.2-.4c1.2-.9,1.8-1.8,1.8-2.6a.47.47,0,0,1,.5-.5h1.5v-3H28.1a.55.55,0,0,1-.5-.3,3.77,3.77,0,0,0-.9-1.5.6.6,0,0,1-.1-.4V12.7a2.57,2.57,0,0,0-2,2c0,.1-.1.3-.2.3a.6.6,0,0,1-.4.1,13.06,13.06,0,0,0-3.9-.5,10.9,10.9,0,0,0-6.3,1.7,4.73,4.73,0,0,0-2.2,3.8c0,2.8.9,4.6,2.7,5.6.2,0,.3.2.3.4v2.5h2V27.1a.47.47,0,0,1,.5-.5m9,3h-3a.47.47,0,0,1-.5-.5V27.6h-5v1.5a.47.47,0,0,1-.5.5h-3a.47.47,0,0,1-.5-.5V26.4a5.91,5.91,0,0,1-2.9-4.8,2.57,2.57,0,0,1-2.1-2.5v-1a.5.5,0,0,1,1,0v1a1.5,1.5,0,0,0,1,1.4v-.4a5.69,5.69,0,0,1,2.5-4.6,11.59,11.59,0,0,1,7-1.9,15.53,15.53,0,0,1,3.7.4,3.55,3.55,0,0,1,3.3-2.4.47.47,0,0,1,.5.5v4.1a6.38,6.38,0,0,1,.8,1.4h1.7a.47.47,0,0,1,.5.5v4a.47.47,0,0,1-.5.5H28.6a4.54,4.54,0,0,1-2,2.7v3.8a.47.47,0,0,1-.5.5"/></g></g></svg>