<svg xmlns="http://www.w3.org/2000/svg" viewBox="0 0 39.2 39.2"><defs><style>.cls-1{fill:#0071ce;}.cls-2{fill:none;stroke:#fff;stroke-width:0.7px;}</style></defs><g id="Layer_2" data-name="Layer 2"><g id="Layer_1-2" data-name="Layer 1"><path class="cls-1" d="M19.6,39.2A19.6,19.6,0,1,0,0,19.6,19.6,19.6,0,0,0,19.6,39.2"/><path class="cls-2" d="M12,17.18a7.82,7.82,0,0,0,5.94,1.91,7.77,7.77,0,0,0-2.09-5.87,7.82,7.82,0,0,0-5.94-1.91A7.77,7.77,0,0,0,12,17.18Zm14.35-.77C22.91,19.74,18,19.09,18,19.09s-.51-4.9,2.93-8.23,8.34-2.69,8.34-2.69S29.79,13.07,26.35,16.41ZM18,31.43V9.56"/></g></g></svg>