<svg xmlns="http://www.w3.org/2000/svg" viewBox="0 0 39.2 39.2"><defs><style>.cls-1{fill:#0071ce;}.cls-2{fill:#fff;}</style></defs><g id="Layer_2" data-name="Layer 2"><g id="Layer_1-2" data-name="Layer 1"><path class="cls-1" d="M19.6,39.2A19.6,19.6,0,1,0,0,19.6,19.6,19.6,0,0,0,19.6,39.2"/><path class="cls-2" d="M19.6,16.1a3.5,3.5,0,1,0,3.5,3.5,3.54,3.54,0,0,0-3.5-3.5m0,8a4.5,4.5,0,1,1,4.5-4.5,4.48,4.48,0,0,1-4.5,4.5m0-13a8.5,8.5,0,1,0,8.5,8.5,8.49,8.49,0,0,0-8.5-8.5m0,20a.47.47,0,0,1-.5-.5V29.1a9.52,9.52,0,0,1-9-9H8.6a.5.5,0,0,1,0-1h1.5a9.52,9.52,0,0,1,9-9V8.6a.5.5,0,0,1,1,0v1.5a9.52,9.52,0,0,1,9,9h1.5a.5.5,0,0,1,0,1H29.1a9.52,9.52,0,0,1-9,9v1.5a.47.47,0,0,1-.5.5"/></g></g></svg>