<svg xmlns="http://www.w3.org/2000/svg" viewBox="0 0 39.2 39.2"><defs><style>.cls-1{fill:#0071ce;}.cls-2{fill:#fff;}</style></defs><g id="Layer_2" data-name="Layer 2"><g id="Layer_1-2" data-name="Layer 1"><path class="cls-1" d="M19.6,39.2A19.6,19.6,0,1,0,0,19.6,19.6,19.6,0,0,0,19.6,39.2"/><path class="cls-2" d="M19.6,14.6a3,3,0,1,0,3,3,2.95,2.95,0,0,0-3-3m0,7a4,4,0,1,1,4-4,4,4,0,0,1-4,4m-7.5-9a1.54,1.54,0,0,0-1.5,1.5v.5h.5a1.54,1.54,0,0,0,1.5-1.5v-.5Zm14.5,0v.5a1.54,1.54,0,0,0,1.5,1.5h.5v-.5a1.54,1.54,0,0,0-1.5-1.5Zm-16,8v.5a1.54,1.54,0,0,0,1.5,1.5h.5v-.5a1.47,1.47,0,0,0-1.5-1.5Zm0-5v4h.5a2.87,2.87,0,0,1,1.8.7,2.41,2.41,0,0,1,.7,1.8v.5h12v-.5a2.48,2.48,0,0,1,2.5-2.5h.5v-4h-.5a2.48,2.48,0,0,1-2.5-2.5v-.5h-12v.5a2.48,2.48,0,0,1-2.5,2.5Zm17.5,5a1.54,1.54,0,0,0-1.5,1.5v.5h.5a1.54,1.54,0,0,0,1.5-1.5v-.5Zm-15,3h-1a2.48,2.48,0,0,1-2.5-2.5v-7a2.48,2.48,0,0,1,2.5-2.5h15a2.48,2.48,0,0,1,2.5,2.5v7a2.48,2.48,0,0,1-2.5,2.5h-14Zm16,2h-19a.5.5,0,0,1,0-1h19a.5.5,0,0,1,0,1m0,2h-19a.5.5,0,0,1,0-1h19a.5.5,0,0,1,0,1"/></g></g></svg>