<svg xmlns="http://www.w3.org/2000/svg" viewBox="0 0 39.2 39.2"><defs><style>.cls-1{fill:#fff;}.cls-2{fill:#76bc21;}</style></defs><g id="Layer_2" data-name="Layer 2"><g id="Layer_1-2" data-name="Layer 1"><path class="cls-1" d="M19.6,39.2A19.6,19.6,0,1,0,0,19.6,19.6,19.6,0,0,0,19.6,39.2"/><path class="cls-2" d="M19.6,17.1H13.1a.5.5,0,0,1,0-1h6.5a1,1,0,0,0,0-2H18.1a.5.5,0,0,1,0-1h1.5a2,2,0,0,1,0,4m5.5,3h-14a.5.5,0,0,1,0-1h14a2.5,2.5,0,0,0,0-5h-1a.5.5,0,0,1,0-1h1a3.5,3.5,0,0,1,0,7m-2.5,6H21.1a.5.5,0,0,1,0-1h1.5a1,1,0,0,0,0-2H15.1a.5.5,0,0,1,0-1h7.5a2,2,0,0,1,0,4"/></g></g></svg>