<svg xmlns="http://www.w3.org/2000/svg" viewBox="0 0 39.2 39.2"><defs><style>.cls-1{fill:#0071ce;}.cls-2{fill:none;stroke:#fff;stroke-width:0.7px;}</style></defs><g id="Layer_2" data-name="Layer 2"><g id="Layer_1-2" data-name="Layer 1"><path class="cls-1" d="M19.6,39.2A19.6,19.6,0,1,0,0,19.6,19.61,19.61,0,0,0,19.6,39.2"/><polyline class="cls-2" points="12.85 19.9 7.1 29.86 18.11 29.86"/><polygon class="cls-2" points="11.15 20.17 11.25 20.49 12.85 20 13.23 21.64 13.56 21.57 13.1 19.56 11.15 20.17"/><polyline class="cls-2" points="24.46 16.67 19.6 8.21 14.56 16.98"/><polygon class="cls-2" points="25.09 15.01 24.75 14.93 24.38 16.58 22.78 16.09 22.68 16.41 24.63 17.02 25.09 15.01"/><polyline class="cls-2" points="21.44 29.86 32.1 29.86 26.17 19.6"/><polygon class="cls-2" points="22.56 31.2 22.79 30.95 21.53 29.81 22.79 28.66 22.56 28.41 21.02 29.81 22.56 31.2"/></g></g></svg>