<svg xmlns="http://www.w3.org/2000/svg" viewBox="0 0 39.2 39.2"><defs><style>.cls-1{fill:#0071ce;}.cls-2{fill:#fff;}</style></defs><g id="Layer_2" data-name="Layer 2"><g id="Layer_1-2" data-name="Layer 1"><path class="cls-1" d="M19.6,39.2A19.6,19.6,0,1,0,0,19.6,19.6,19.6,0,0,0,19.6,39.2"/><path class="cls-2" d="M21.6,13.6h1.5a2.48,2.48,0,0,1,2.5,2.5.5.5,0,0,1-1,0,1.54,1.54,0,0,0-1.5-1.5h-7a1.54,1.54,0,0,0-1.5,1.5v1.2A1.52,1.52,0,0,0,16,18.8l7.4.7a2.4,2.4,0,0,1,2.2,2.4v1.2a2.48,2.48,0,0,1-2.5,2.5H21.6v1.5a.5.5,0,0,1-1,0V25.6h-2v1.5a.5.5,0,0,1-1,0V25.6H16.1a2.48,2.48,0,0,1-2.5-2.5.5.5,0,0,1,1,0,1.54,1.54,0,0,0,1.5,1.5h7a1.54,1.54,0,0,0,1.5-1.5V21.9a1.52,1.52,0,0,0-1.4-1.5l-7.4-.7a2.4,2.4,0,0,1-2.2-2.4V16.1a2.48,2.48,0,0,1,2.5-2.5h1.5V12.1a.5.5,0,0,1,1,0v1.5h2V12.1a.5.5,0,0,1,1,0Z"/></g></g></svg>