<svg xmlns="http://www.w3.org/2000/svg" viewBox="0 0 39.2 39.2"><defs><style>.cls-1{fill:#76bc21;}.cls-2{fill:#fff;}</style></defs><g id="Layer_2" data-name="Layer 2"><g id="Layer_1-2" data-name="Layer 1"><path class="cls-1" d="M19.6,39.2A19.6,19.6,0,1,0,0,19.6,19.6,19.6,0,0,0,19.6,39.2"/><path class="cls-2" d="M29.1,17.21a.47.47,0,0,1-.5-.5.37.37,0,0,1,.1-.3,3.39,3.39,0,0,0-.3-4.9,3.47,3.47,0,0,0-4.9.3,3.61,3.61,0,0,0-.8,1.5c0,.2-.2.3-.4.4a.49.49,0,0,1-.6-.3v-.3a4.5,4.5,0,0,1,4.4-3.4A4.2,4.2,0,0,1,30.6,14a4.62,4.62,0,0,1-1.1,3,.76.76,0,0,1-.4.2m-10.5,6.3H9.1a.5.5,0,1,1,0-1h9.5a1,1,0,0,0,0-2h-.5a.5.5,0,0,1,0-1h.5a2,2,0,0,1,0,4m5.5,2h-6a.5.5,0,0,1,0-1h6a3.5,3.5,0,0,0,0-7h-.5V18a.5.5,0,0,1-1,0,3.54,3.54,0,0,0-3.5-3.5h-.5a4,4,0,0,0-4,4V19a.47.47,0,0,1-.5.5,2.59,2.59,0,0,0-2.4,1.7.47.47,0,1,1-.9-.3,3.46,3.46,0,0,1,2.8-2.4,5,5,0,0,1,5-5h.5a4.42,4.42,0,0,1,4.2,3h.8a4.5,4.5,0,0,1,0,9m-8.5,4H14.1a.5.5,0,1,1,0-1h1.5a1,1,0,1,0,0-2H11.1a.5.5,0,1,1,0-1h4.5a2,2,0,1,1,0,4"/></g></g></svg>