<svg xmlns="http://www.w3.org/2000/svg" viewBox="0 0 39.2 39.2"><defs><style>.cls-1{fill:#0071ce;}.cls-2{fill:#fff;}</style></defs><g id="Layer_2" data-name="Layer 2"><g id="Layer_1-2" data-name="Layer 1"><path class="cls-1" d="M19.6,39.2A19.6,19.6,0,1,0,0,19.6,19.6,19.6,0,0,0,19.6,39.2"/><path class="cls-2" d="M15.14,12.57c-.2,0-.4-.1-.4-.3l-1-2c-.2-.2-.1-.5.2-.6a.66.66,0,0,1,.7.2l1,2a.66.66,0,0,1-.2.7Zm-2,2c-.1,0-.2,0-.2-.1l-2-1c-.3-.1-.4-.4-.2-.6s.4-.4.6-.2l2,1a.45.45,0,0,1,.3.6.55.55,0,0,1-.5.3m15,12c-.1,0-.2,0-.2-.1l-2-1a.57.57,0,0,1-.2-.7.54.54,0,0,1,.4-.3c.1,0,.2,0,.2.1l2,1a.57.57,0,0,1,.2.7c0,.2-.2.3-.4.3m-1.6-14.9a.91.91,0,0,0-.7.3l-.2.2a9.27,9.27,0,0,1,1.4,1.4l.2-.2a1,1,0,0,0,0-1.4.78.78,0,0,0-.7-.3m-12.7,12.4a.94.94,0,0,0,.1,1.3,1.07,1.07,0,0,0,.6.2,1.42,1.42,0,0,0,.6-.2Zm8.3-12.2a4.75,4.75,0,0,0-3.6,1.5l-3,3-.2.1L12.64,18a1.94,1.94,0,0,0-.8,2.6,1.38,1.38,0,0,0,.3.4l6,6a2,2,0,0,0,2.7,0,2.19,2.19,0,0,0,.3-.5l1.4-2.7.1-.1,3-3a5.19,5.19,0,0,0,0-7.3,4.74,4.74,0,0,0-3.5-1.5m-2.6,16.7a3.23,3.23,0,0,1-2.1-.8l-1.7-1.7a1.87,1.87,0,0,1-2.6,0,2,2,0,0,1-.1-2.7l-1.6-1.7a3,3,0,0,1,0-4.1,1.79,1.79,0,0,1,.7-.5l2.7-1.4,2.9-2.9a6.09,6.09,0,0,1,7.1-1.2l.3-.3A2,2,0,0,1,28,14l-.4.4a6.09,6.09,0,0,1-1.2,7.1l-3,3L22,27.07a2.71,2.71,0,0,1-2.5,1.5m5.6,1c-.2,0-.4-.1-.4-.3l-1-2a.51.51,0,0,1,.9-.5l1,2a.66.66,0,0,1-.2.7.37.37,0,0,1-.3.1"/></g></g></svg>