<svg xmlns="http://www.w3.org/2000/svg" viewBox="0 0 39.2 39.2"><defs><style>.cls-1{fill:#76bc21;}.cls-2{fill:#fff;}</style></defs><g id="Layer_2" data-name="Layer 2"><g id="Layer_1-2" data-name="Layer 1"><path class="cls-1" d="M19.6,39.2A19.6,19.6,0,1,0,0,19.6,19.61,19.61,0,0,0,19.6,39.2"/><path class="cls-2" d="M19.1,22.6a.47.47,0,0,1-.5-.5v-.5h-1v.5a.5.5,0,0,1-1,0v-.5h-.5a1.54,1.54,0,0,1-1.5-1.5.5.5,0,0,1,1,0,.47.47,0,0,0,.5.5h4a.47.47,0,0,0,.5-.5v-1a.47.47,0,0,0-.5-.5h-4a1.54,1.54,0,0,1-1.5-1.5v-1a1.54,1.54,0,0,1,1.5-1.5h.5v-.5a.5.5,0,0,1,1,0v.5h1v-.5a.5.5,0,0,1,1,0v.5h.5a1.54,1.54,0,0,1,1.5,1.5.5.5,0,0,1-1,0,.47.47,0,0,0-.5-.5h-4a.47.47,0,0,0-.5.5v1a.47.47,0,0,0,.5.5h4a1.54,1.54,0,0,1,1.5,1.5v1a1.54,1.54,0,0,1-1.5,1.5h-.5v.5a.47.47,0,0,1-.5.5m-6-11a1.54,1.54,0,0,0-1.5,1.5V26.6a1,1,0,0,0,2,0V25.1a.47.47,0,0,1,.5-.5H24.6V13.1a1.54,1.54,0,0,0-1.5-1.5Zm1.5,14v1a1.69,1.69,0,0,1-.3,1H26.1a1.54,1.54,0,0,0,1.5-1.5v-.5Zm11.5,3H12.6a2,2,0,0,1-2-2V13.1a2.48,2.48,0,0,1,2.5-2.5h10a2.48,2.48,0,0,1,2.5,2.5V24.6h2.5a.47.47,0,0,1,.5.5v1a2.48,2.48,0,0,1-2.5,2.5"/></g></g></svg>