<svg xmlns="http://www.w3.org/2000/svg" viewBox="0 0 39.2 39.2"><defs><style>.cls-1{fill:#76bc21;}.cls-2{fill:#fff;}</style></defs><g id="Layer_2" data-name="Layer 2"><g id="Layer_1-2" data-name="Layer 1"><path class="cls-1" d="M19.6,39.2A19.6,19.6,0,1,0,0,19.6,19.61,19.61,0,0,0,19.6,39.2"/><path class="cls-2" d="M23.6,12.63a2,2,0,1,0,2,2,2,2,0,0,0-2-2m-7,1a3,3,0,1,0,3,3,2.95,2.95,0,0,0-3-3M21.8,17,20,18.83l-.3.3a.9.9,0,0,0-.1.5l1.8,1h6.2v-.7a1.53,1.53,0,0,0-.4-1l-1.8-1.8a3.74,3.74,0,0,1-1.8.5,3,3,0,0,1-1.8-.6m-7.1,3.1h0L11.4,22a1.34,1.34,0,0,0-.8,1.3v1.8a1.54,1.54,0,0,0,1.5,1.5h9a1.54,1.54,0,0,0,1.5-1.5v-1.8a1.56,1.56,0,0,0-.8-1.3l-.6-.4c-.1,0-.2-.1-.3-.2l-2.3-1.3a4.92,4.92,0,0,1-2,.5,4.14,4.14,0,0,1-1.9-.5m6.4,7.5h-9a2.48,2.48,0,0,1-2.5-2.5v-1.8a2.72,2.72,0,0,1,.6-1.7h-.1a.5.5,0,1,1,0-1h1.7l2-1.1a4,4,0,1,1,6.8-2.7l.5-.5a3,3,0,0,1,.8-4.2,3,3,0,0,1,4.2.8,3,3,0,0,1,0,3.4l1.8,1.9a2.34,2.34,0,0,1,.7,1.7v.7h.5a.5.5,0,0,1,0,1H23a2.72,2.72,0,0,1,.6,1.7v1.8a2.48,2.48,0,0,1-2.5,2.5"/></g></g></svg>