<svg xmlns="http://www.w3.org/2000/svg" viewBox="0 0 39.2 39.2"><defs><style>.cls-1{fill:#fff;}.cls-2{fill:#76bc21;}</style></defs><g id="Layer_2" data-name="Layer 2"><g id="Layer_1-2" data-name="Layer 1"><path class="cls-1" d="M19.6,39.2A19.6,19.6,0,1,0,0,19.6,19.6,19.6,0,0,0,19.6,39.2"/><path class="cls-2" d="M19.1,12.6a1.54,1.54,0,0,0-1.5,1.5v11a1.54,1.54,0,0,0,1.5,1.5h1a1.54,1.54,0,0,0,1.5-1.5v-11a1.54,1.54,0,0,0-1.5-1.5Zm1,15h-1a2.48,2.48,0,0,1-2.5-2.5v-11a2.48,2.48,0,0,1,2.5-2.5h1a2.48,2.48,0,0,1,2.5,2.5v11a2.48,2.48,0,0,1-2.5,2.5m-9,1a.47.47,0,0,1-.5-.5v-17a.5.5,0,0,1,1,0v17a.47.47,0,0,1-.5.5m17,0a.47.47,0,0,1-.5-.5v-17a.5.5,0,0,1,1,0v17a.47.47,0,0,1-.5.5"/></g></g></svg>