<svg xmlns="http://www.w3.org/2000/svg" xmlns:xlink="http://www.w3.org/1999/xlink" viewBox="0 0 39.2 39.2"><defs><style>.cls-1{fill:none;}.cls-2{clip-path:url(#clip-path);}.cls-3{fill:#76bc21;}.cls-4{fill:#fff;}</style><clipPath id="clip-path"><rect class="cls-1" width="39.2" height="39.2"/></clipPath></defs><g id="Layer_2" data-name="Layer 2"><g id="Layer_1-2" data-name="Layer 1"><g class="cls-2"><path class="cls-3" d="M19.6,39.2A19.6,19.6,0,1,0,0,19.6,19.6,19.6,0,0,0,19.6,39.2"/><path class="cls-4" d="M24.1,19.6h-4a.47.47,0,0,1-.5-.5v-4a.5.5,0,0,1,1,0v2.8l4.1-4.1a.49.49,0,0,1,.7.7l-4.1,4.1h2.8a.5.5,0,0,1,0,1m-13,3a.47.47,0,0,1-.5-.5,1.54,1.54,0,0,1,1.5-1.5.5.5,0,1,1,0,1,.47.47,0,0,0-.5.5.47.47,0,0,1-.5.5m7,0a.47.47,0,0,1-.5-.5.47.47,0,0,0-.5-.5.5.5,0,0,1,0-1,1.54,1.54,0,0,1,1.5,1.5.47.47,0,0,1-.5.5m-7,3a.47.47,0,0,1-.5-.5v-1a.5.5,0,0,1,1,0v1a.47.47,0,0,1-.5.5m7,0a.47.47,0,0,1-.5-.5v-1a.47.47,0,0,1,.5-.5h8a1.54,1.54,0,0,0,1.5-1.5v-9a1.54,1.54,0,0,0-1.5-1.5h-9a1.54,1.54,0,0,0-1.5,1.5v8a.47.47,0,0,1-.5.5h-1a.5.5,0,0,1,0-1h.5V13.1a2.48,2.48,0,0,1,2.5-2.5h9a2.48,2.48,0,0,1,2.5,2.5v9a2.48,2.48,0,0,1-2.5,2.5H18.6v.5a.47.47,0,0,1-.5.5m-6,3a1.54,1.54,0,0,1-1.5-1.5.5.5,0,0,1,1,0,.47.47,0,0,0,.5.5.5.5,0,1,1,0,1m3,0h-1a.5.5,0,0,1,0-1h1a.5.5,0,1,1,0,1m2,0a.5.5,0,0,1,0-1,.47.47,0,0,0,.5-.5.5.5,0,0,1,1,0,1.54,1.54,0,0,1-1.5,1.5"/></g></g></g></svg>