<svg xmlns="http://www.w3.org/2000/svg" viewBox="0 0 39.2 39.2"><defs><style>.cls-1{fill:#0071ce;}.cls-2{fill:#fff;}</style></defs><g id="Layer_2" data-name="Layer 2"><g id="Layer_1-2" data-name="Layer 1"><path class="cls-1" d="M19.6,39.2A19.6,19.6,0,1,0,0,19.6,19.6,19.6,0,0,0,19.6,39.2"/><path class="cls-2" d="M22.6,10.6a6,6,0,0,0-5.9,5,6.62,6.62,0,0,1,4.5,1.7L26.5,12a6.21,6.21,0,0,0-3.9-1.4m-6,6h0A6.21,6.21,0,0,0,18,20.5L20.5,18a6.21,6.21,0,0,0-3.9-1.4m-1,.1h0a5.87,5.87,0,0,0-4.9,6.9A6.36,6.36,0,0,0,12,26.5l5.3-5.3a7,7,0,0,1-1.7-4.5m11.6-4h0L12.7,27.2a6.12,6.12,0,0,0,8.5-.7,5.77,5.77,0,0,0,1.4-3.3.44.44,0,0,1,.4-.6h.2a5.87,5.87,0,0,0,4-2.1,6,6,0,0,0,0-7.8M16.6,29.6a7,7,0,0,1-.9-13.9,6.92,6.92,0,0,1,6.9-6.1h.3a7.09,7.09,0,0,1,6.7,7.3,7,7,0,0,1-6,6.6,7.1,7.1,0,0,1-7,6.1"/></g></g></svg>