<svg xmlns="http://www.w3.org/2000/svg" viewBox="0 0 38.55 38.55"><defs><style>.cls-1{fill:#eef2f4;}.cls-2{fill:#a6bdd1;}</style></defs><g id="Layer_2" data-name="Layer 2"><g id="Layer_1-2" data-name="Layer 1"><path class="cls-1" d="M19.28,38.55A19.28,19.28,0,1,0,0,19.27,19.28,19.28,0,0,0,19.28,38.55"/><path class="cls-2" d="M16.78,18.28a.5.5,0,0,0,0,1h5a.5.5,0,0,0,0-1Zm5,2h-5a1.5,1.5,0,0,1,0-3h5a1.5,1.5,0,0,1,0,3m-11-9a.47.47,0,0,0-.5.5v2a.47.47,0,0,0,.5.5h17a.47.47,0,0,0,.5-.5v-2a.47.47,0,0,0-.5-.5Zm.5,4v10.5a1.54,1.54,0,0,0,1.5,1.5h13a1.54,1.54,0,0,0,1.5-1.5V15.28Zm14.5,13h-13a2.48,2.48,0,0,1-2.5-2.5V15.18a1.5,1.5,0,0,1-1-1.4v-2a1.54,1.54,0,0,1,1.5-1.5h17a1.54,1.54,0,0,1,1.5,1.5v2a1.5,1.5,0,0,1-1,1.4v10.6a2.48,2.48,0,0,1-2.5,2.5"/></g></g></svg>