<svg xmlns="http://www.w3.org/2000/svg" viewBox="0 0 39.2 39.2"><defs><style>.cls-1{fill:#76bc21;}.cls-2{fill:#fff;}</style></defs><g id="Layer_2" data-name="Layer 2"><g id="Layer_1-2" data-name="Layer 1"><path class="cls-1" d="M19.6,39.2A19.6,19.6,0,1,0,0,19.6,19.6,19.6,0,0,0,19.6,39.2"/><path class="cls-2" d="M15.1,13.6h-1a.47.47,0,0,1-.5-.5v-1a.47.47,0,0,1,.5-.5h1a.47.47,0,0,1,.5.5v1a.47.47,0,0,1-.5.5m3,0h-1a.47.47,0,0,1-.5-.5v-1a.47.47,0,0,1,.5-.5h1a.47.47,0,0,1,.5.5v1a.47.47,0,0,1-.5.5m3,0h-1a.47.47,0,0,1-.5-.5v-1a.47.47,0,0,1,.5-.5h1a.47.47,0,0,1,.5.5v1a.47.47,0,0,1-.5.5m-10,6a.47.47,0,0,0-.5.5v1a.47.47,0,0,0,.5.5h6a.47.47,0,0,0,.5-.5v-1a.47.47,0,0,0-.5-.5Zm11,0a.47.47,0,0,0-.5.5v1a.47.47,0,0,0,.5.5h6a.47.47,0,0,0,.5-.5v-1a.47.47,0,0,0-.5-.5Zm-11,7a.47.47,0,0,0-.5.5v1a.47.47,0,0,0,.5.5h2a.47.47,0,0,0,.5-.5v-1a.47.47,0,0,0-.5-.5Zm7,0a.47.47,0,0,0-.5.5v1a.47.47,0,0,0,.5.5h2a.47.47,0,0,0,.5-.5v-1a.47.47,0,0,0-.5-.5Zm7,0a.47.47,0,0,0-.5.5v1a.47.47,0,0,0,.5.5h2a.47.47,0,0,0,.5-.5v-1a.47.47,0,0,0-.5-.5Zm2,3h-2a1.54,1.54,0,0,1-1.5-1.5v-1a1.54,1.54,0,0,1,1.5-1.5h.5v-.5a.47.47,0,0,0-.5-.5H19.6v1h.5a1.54,1.54,0,0,1,1.5,1.5v1a1.54,1.54,0,0,1-1.5,1.5h-2a1.54,1.54,0,0,1-1.5-1.5v-1a1.54,1.54,0,0,1,1.5-1.5h.5v-1H13.1a.47.47,0,0,0-.5.5v.5h.5a1.54,1.54,0,0,1,1.5,1.5v1a1.54,1.54,0,0,1-1.5,1.5h-2a1.54,1.54,0,0,1-1.5-1.5v-1a1.54,1.54,0,0,1,1.5-1.5h.5v-.5a1.54,1.54,0,0,1,1.5-1.5H24.6v-1H22.1a1.54,1.54,0,0,1-1.5-1.5v-1a1.54,1.54,0,0,1,1.5-1.5h2.5v-.5a.47.47,0,0,0-.5-.5h-9a.47.47,0,0,0-.5.5v.5h2.5a1.54,1.54,0,0,1,1.5,1.5v1a2.1,2.1,0,0,1-.4,1.1,2.1,2.1,0,0,1-1.1.4h-6a1.54,1.54,0,0,1-1.5-1.5v-1a1.54,1.54,0,0,1,1.5-1.5h2.5v-.5a1.54,1.54,0,0,1,1.5-1.5h2.5v-1H13.1a1.54,1.54,0,0,1-1.5-1.5v-3a1.54,1.54,0,0,1,1.5-1.5h9a1.54,1.54,0,0,1,1.5,1.5v3a1.54,1.54,0,0,1-1.5,1.5H18.6v-.5a.47.47,0,0,0-.5-.5h4a.47.47,0,0,0,.5-.5v-3a.47.47,0,0,0-.5-.5h-9a.47.47,0,0,0-.5.5v3a.47.47,0,0,0,.5.5h5a.47.47,0,0,0-.5.5v.5h1v1h5.5a1.54,1.54,0,0,1,1.5,1.5v.5h2.5a1.54,1.54,0,0,1,1.5,1.5v1a1.54,1.54,0,0,1-1.5,1.5H25.6v1.1a1.5,1.5,0,0,1,1,1.4v.5h.5a1.54,1.54,0,0,1,1.5,1.5v1a1.54,1.54,0,0,1-1.5,1.5"/></g></g></svg>