<svg xmlns="http://www.w3.org/2000/svg" viewBox="0 0 39.2 39.2"><defs><style>.cls-1{fill:#fff;}.cls-2{fill:#0071ce;}</style></defs><g id="Layer_2" data-name="Layer 2"><g id="Layer_1-2" data-name="Layer 1"><path class="cls-1" d="M19.6,39.2A19.6,19.6,0,1,0,0,19.6,19.6,19.6,0,0,0,19.6,39.2"/><path class="cls-2" d="M14.63,11.6h0a2,2,0,0,0-2,2v3.8l3.9-4a1.88,1.88,0,0,0-1.9-1.8m2,3.2-4.5,4.5a1.9,1.9,0,0,0-.5,1.3h12.7a1.72,1.72,0,0,0-.3-2.3l-4.1-4.1a2,2,0,0,0-2.3-.3v4.2a.5.5,0,0,1-1,0Zm-4.7,6.8.3.3,4.1,4.1A2,2,0,0,0,19,26l4.4-4.4Zm5.7,6a3.23,3.23,0,0,1-2.1-.8l-4.1-4.1a2.92,2.92,0,0,1-.7-1.2,1.09,1.09,0,0,1-.1-.5,3,3,0,0,1,.8-2.4l.2-.2V13.6a3,3,0,0,1,3-3,3.09,3.09,0,0,1,2.9,2.2,3.13,3.13,0,0,1,3.2.6l4.1,4.1a2.89,2.89,0,0,1,.3,3.7.22.22,0,0,1-.2.2l-.1.1-5.1,5.1a2.64,2.64,0,0,1-2.1,1m8.5-3.8L25,24.9a1.57,1.57,0,0,0,0,2.2,1.55,1.55,0,0,0,2.1.1l.1-.1a1.57,1.57,0,0,0,0-2.2Zm0,4.8a2.5,2.5,0,0,1-1.8-.8,2.54,2.54,0,0,1,0-3.6l1.4-1.5a.48.48,0,0,1,.7,0l1.4,1.5a2.53,2.53,0,0,1,0,3.6,2.14,2.14,0,0,1-1.7.8"/></g></g></svg>