<svg xmlns="http://www.w3.org/2000/svg" viewBox="0 0 39.2 39.2"><defs><style>.cls-1{fill:#4b5c6d;}.cls-2{fill:none;stroke:#fff;stroke-width:0.57px;}.cls-3{fill:#fff;}.cls-4{fill:#f48220;}</style></defs><g id="Layer_2" data-name="Layer 2"><g id="Layer_1-2" data-name="Layer 1"><g id="Ellipse_49" data-name="Ellipse 49"><circle class="cls-1" cx="19.6" cy="19.6" r="19.6"/><circle class="cls-2" cx="19.6" cy="19.6" r="19.32"/></g><path id="Path_612" data-name="Path 612" class="cls-3" d="M19.64,16.51c1.37,0,1.82.4,1.82,1.14S20.55,19,19.25,19s-1.65-.62-1.65-1.08.51-1.42,2-1.42"/><path id="Path_613" data-name="Path 613" class="cls-4" d="M16.75,18.73a8.56,8.56,0,0,0-3.47,2.44c-1,1.54-1.47,4.15-4.09,4.15s-4.14-3-4.14-5.51S7.32,16,10.67,16s5.57,1.08,6.08,2.73"/><path id="Path_614" data-name="Path 614" class="cls-4" d="M16.8,16.63c-2.1-1.93-4.43-1.14-5.45-1.14S8.91,15,8.91,14.07c0-2,3.46-4.32,8.58-4.32,2.78,0,4.26.63,4.26,2.33s-2.5,4.21-4.95,4.55"/><path id="Path_615" data-name="Path 615" class="cls-4" d="M21.86,16.63c0-4.26,1.7-6.42,5.11-6.42s6,2.67,6,4.6c0,1-.29,1.36-1.42,1.36s-3.35-.85-4.89-.85a9,9,0,0,0-4.77,1.31"/><path id="Path_616" data-name="Path 616" class="cls-4" d="M21.75,19c1.19-1.64,2.61-2.44,6.3-2.44S34.7,18,34.7,20.83s-4.43,5.23-6.08,5.23-2.38-1.88-3.07-3.18-2.16-3.47-3.8-3.87"/><path id="Path_617" data-name="Path 617" class="cls-4" d="M19.36,19.69c3.24,0,6.48,3.47,6.48,6.37,0,2.21-4.15,2.72-6,2.72S12,27.88,12,25.6c0-3.12,5.28-5.91,7.38-5.91"/></g></g></svg>