<svg xmlns="http://www.w3.org/2000/svg" viewBox="0 0 39.2 39.2"><defs><style>.cls-1{fill:#0071ce;}.cls-2{fill:#fff;}</style></defs><g id="Layer_2" data-name="Layer 2"><g id="Layer_1-2" data-name="Layer 1"><path class="cls-1" d="M19.6,39.2A19.6,19.6,0,1,0,0,19.6,19.61,19.61,0,0,0,19.6,39.2"/><path class="cls-2" d="M19.6,13.1a.47.47,0,0,1-.5-.5v-3a.5.5,0,0,1,1,0v3a.47.47,0,0,1-.5.5m5,2c-.1,0-.3-.1-.4-.1a.48.48,0,0,1,0-.7l2-2a.49.49,0,0,1,.7.7l-2.1,2c0,.1-.1.1-.2.1m-9.9.1c-.2-.1-.3-.1-.4-.2l-2.1-2a.49.49,0,0,1,.7-.7l2,2.1a.48.48,0,0,1,0,.7h-.1a.1.1,0,0,0-.1.1m-2.1,4.9h-3a.5.5,0,0,1,0-1h3a.5.5,0,1,1,0,1m17,0h-3a.5.5,0,0,1,0-1h3a.5.5,0,0,1,0,1m-10-5a4.5,4.5,0,1,0,4.5,4.5,4.48,4.48,0,0,0-4.5-4.5m0,10a5.5,5.5,0,1,1,5.5-5.5,5.55,5.55,0,0,1-5.5,5.5m-7,2a.47.47,0,0,1-.5-.5c0-.1.1-.3.1-.4l2.1-2a.49.49,0,0,1,.7.1.64.64,0,0,1,0,.6L13,27c-.1,0-.3.1-.4.1m14,0c-.1,0-.3-.1-.4-.1l-2-2.1a.48.48,0,0,1,0-.7c.1-.1.1-.1.2-.1h.1a.76.76,0,0,1,.4.2l2.1,2a.48.48,0,0,1,0,.7c-.1,0-.3.1-.4.1m-7,3a.47.47,0,0,1-.5-.5v-3a.5.5,0,0,1,1,0v3a.47.47,0,0,1-.5.5"/></g></g></svg>