<svg xmlns="http://www.w3.org/2000/svg" viewBox="0 0 39.2 39.2"><defs><style>.cls-1{fill:#76bc21;}.cls-2{fill:#fff;}</style></defs><g id="Layer_2" data-name="Layer 2"><g id="Layer_1-2" data-name="Layer 1"><path class="cls-1" d="M19.6,39.2A19.6,19.6,0,1,0,0,19.6,19.6,19.6,0,0,0,19.6,39.2"/><path class="cls-2" d="M19.6,10.6a2,2,0,0,0-2,2v1h4v-1a2,2,0,0,0-2-2m-4.5,4a1.54,1.54,0,0,0-1.5,1.5v11a1.54,1.54,0,0,0,1.5,1.5h9a1.54,1.54,0,0,0,1.5-1.5v-11a1.54,1.54,0,0,0-1.5-1.5H22.6v2.5a.5.5,0,0,1-1,0V14.6h-4v2.5a.5.5,0,0,1-1,0V14.6Zm9,15h-9a2.48,2.48,0,0,1-2.5-2.5v-11a2.48,2.48,0,0,1,2.5-2.5h1.5v-1a3,3,0,0,1,6,0v1h1.5a2.48,2.48,0,0,1,2.5,2.5v11a2.48,2.48,0,0,1-2.5,2.5"/></g></g></svg>