<svg xmlns="http://www.w3.org/2000/svg" viewBox="0 0 39.2 39.2"><defs><style>.cls-1{fill:#fff;}.cls-2{fill:#a6bdd1;}</style></defs><g id="Layer_2" data-name="Layer 2"><g id="Layer_1-2" data-name="Layer 1"><path class="cls-1" d="M19.6,39.2A19.6,19.6,0,1,0,0,19.6,19.6,19.6,0,0,0,19.6,39.2"/><path class="cls-2" d="M25.83,15H13.34l1.21,11.25a3.37,3.37,0,0,0,.87,2,2.29,2.29,0,0,0,1.7.72h5a2.45,2.45,0,0,0,1.7-.72,3.46,3.46,0,0,0,.87-2Zm-4.35-3.84a1.35,1.35,0,0,0-.25-.54.68.68,0,0,0-.53-.34H18.42a.67.67,0,0,0-.52.34l0,0a1.63,1.63,0,0,0-.22.52ZM27,14.88l-1.2,11.45A4.61,4.61,0,0,1,24.58,29a3.42,3.42,0,0,1-2.5,1.08h-5A3.39,3.39,0,0,1,14.62,29a4.54,4.54,0,0,1-1.2-2.69L12.19,14.88h-.72a.58.58,0,0,1-.58-.6v-.74a2.36,2.36,0,0,1,.65-1.65l0,0a2.26,2.26,0,0,1,1.65-.7h3.3A3.24,3.24,0,0,1,17,10l0,0a1.79,1.79,0,0,1,1.45-.8h2.28a1.85,1.85,0,0,1,1.45.8,2.87,2.87,0,0,1,.5,1.24H26a2.26,2.26,0,0,1,1.65.7,2.38,2.38,0,0,1,.68,1.7v.74a.58.58,0,0,1-.58.6Zm-5.55,7a.59.59,0,0,1,.2-.8.53.53,0,0,1,.77.23l1.15,2.09a.58.58,0,0,1-.22.8.53.53,0,0,1-.28.07H20.68a.57.57,0,0,1-.58-.59.58.58,0,0,1,.58-.59h1.37ZM19,19.68a.55.55,0,0,1-.78.2.6.6,0,0,1-.23-.8l1.11-2a.53.53,0,0,1,.77-.21.51.51,0,0,1,.23.23l1.12,2A.58.58,0,0,1,21,20a.54.54,0,0,1-.78-.23l-.65-1.14Zm-.56,3.4a.6.6,0,0,1,0,1.19H16.05a.6.6,0,0,1-.58-.59.57.57,0,0,1,.1-.34l1.13-2a.55.55,0,0,1,.77-.23.6.6,0,0,1,.23.8l-.65,1.16h1.37ZM12,13.69H27.16v-.15a1.14,1.14,0,0,0-.35-.85,1.11,1.11,0,0,0-.83-.37H13.2a1.06,1.06,0,0,0-.83.37l0,0a1.28,1.28,0,0,0-.32.85Z"/></g></g></svg>