<svg xmlns="http://www.w3.org/2000/svg" viewBox="0 0 39.2 39.2"><defs><style>.cls-1{fill:#0071ce;}.cls-2{fill:none;stroke:#fff;stroke-width:0.7px;}</style></defs><g id="Layer_2" data-name="Layer 2"><g id="Layer_1-2" data-name="Layer 1"><path class="cls-1" d="M19.6,39.2A19.6,19.6,0,1,0,0,19.6,19.61,19.61,0,0,0,19.6,39.2"/><path class="cls-2" d="M22.53,10.74l2.69,1.35-8.6,4.53-2.81-1.4Zm-8.72,12.4,2.81,1.28V22.59l-2.81-1.41Zm0-3.74,2.81,1.28V16.62l-2.81-1.4Zm-3,6.08,8.83,4.35V18.15l-8.83-4.48Zm17.66,0L19.6,29.83V18.15l8.83-4.48Zm0,0L19.6,29.83l-8.83-4.35V13.67L19.6,9.2l8.83,4.47Z"/></g></g></svg>