<svg xmlns="http://www.w3.org/2000/svg" viewBox="0 0 38.55 38.55"><defs><style>.cls-1{fill:#eef2f4;}.cls-2{fill:#a6bdd1;}</style></defs><g id="Layer_2" data-name="Layer 2"><g id="Layer_1-2" data-name="Layer 1"><path class="cls-1" d="M19.28,38.55A19.28,19.28,0,1,0,0,19.27,19.28,19.28,0,0,0,19.28,38.55"/><path class="cls-2" d="M26.38,13.05l-1,3.76a1.1,1.1,0,0,1-1.06.81,1.36,1.36,0,0,1-.29,0l-3.75-1a1.1,1.1,0,1,1,.53-2.13h0l1.23.33-2.33-4a.55.55,0,0,0-.75-.2.64.64,0,0,0-.2.2l-2.28,3.94a1.1,1.1,0,1,1-1.9-1.1l2.27-3.94a2.77,2.77,0,0,1,3.76-1,2.87,2.87,0,0,1,1,1l2.29,4,.31-1.15a1.1,1.1,0,0,1,2.12.57"/><path class="cls-2" d="M29.59,26.15a2.73,2.73,0,0,1-2.38,1.37h-4.5l.87.87a1.1,1.1,0,0,1,0,1.56A1.09,1.09,0,0,1,22,30h0L19.28,27.2a1.1,1.1,0,0,1,0-1.56L22,22.89a1.1,1.1,0,0,1,1.56,1.56l-.87.87h4.5a.55.55,0,0,0,.55-.55.5.5,0,0,0-.07-.27l-2.28-3.94a1.1,1.1,0,0,1,1.89-1.14l0,0,2.27,3.94a2.71,2.71,0,0,1,0,2.75"/><path class="cls-2" d="M17.07,26.42a1.1,1.1,0,0,1-1.1,1.1H11.34A2.74,2.74,0,0,1,9,23.4l2.3-4-1,.28a1.1,1.1,0,0,1-.57-2.12l3.76-1a1.09,1.09,0,0,1,1.34.78h0l1,3.75a1.1,1.1,0,1,1-2.12.57l-.36-1.33L10.86,24.5a.56.56,0,0,0,.2.75.68.68,0,0,0,.28.07H16a1.1,1.1,0,0,1,1.1,1.1"/></g></g></svg>