<svg xmlns="http://www.w3.org/2000/svg" viewBox="0 0 39.2 39.2"><defs><style>.cls-1{fill:#76bc21;}.cls-2{fill:#fff;}</style></defs><g id="Layer_2" data-name="Layer 2"><g id="Layer_1-2" data-name="Layer 1"><path class="cls-1" d="M19.6,39.2A19.6,19.6,0,1,0,0,19.6,19.6,19.6,0,0,0,19.6,39.2"/><path class="cls-2" d="M17.11,17.6h-6a.5.5,0,0,1,0-1h4.8l-5.2-5.1c-.1-.2-.2-.6,0-.8.1,0,.2-.1.3-.1h.1c.1,0,.3.1.4.1l5.1,5.2V11.1a.5.5,0,0,1,1,0v6a.47.47,0,0,1-.5.5m11,0h-6a.47.47,0,0,1-.5-.5v-6a.5.5,0,0,1,1,0v4.8l5.1-5.1a.49.49,0,1,1,.7.7l-5.1,5.1h4.8a.5.5,0,0,1,0,1m-17,11a.47.47,0,0,1-.5-.5c0-.1.1-.3.1-.4l5.2-5.1h-4.8a.5.5,0,0,1,0-1h6a.47.47,0,0,1,.5.5v6a.5.5,0,0,1-1,0V23.3l-5.1,5.1a.76.76,0,0,1-.4.2m11,0a.47.47,0,0,1-.5-.5v-6a.47.47,0,0,1,.5-.5h6a.5.5,0,0,1,0,1h-4.8l5.1,5.1a.49.49,0,0,1-.7.7l-5.1-5.1v4.8a.47.47,0,0,1-.5.5"/></g></g></svg>