<svg xmlns="http://www.w3.org/2000/svg" viewBox="0 0 39.2 39.2"><defs><style>.cls-1{fill:#fff;}.cls-2{fill:#0071ce;}</style></defs><g id="Layer_2" data-name="Layer 2"><g id="Layer_1-2" data-name="Layer 1"><path class="cls-1" d="M19.6,39.2A19.6,19.6,0,1,0,0,19.6,19.6,19.6,0,0,0,19.6,39.2"/><path class="cls-2" d="M24.1,11.6h-2a.5.5,0,0,1,0-1h2a.5.5,0,0,1,0,1m4,2a.47.47,0,0,1-.5-.5,1.54,1.54,0,0,0-1.5-1.5.5.5,0,0,1,0-1,2.48,2.48,0,0,1,2.5,2.5.47.47,0,0,1-.5.5m-9,1a.47.47,0,0,1-.5-.5v-4a.5.5,0,0,1,1,0v4a.47.47,0,0,1-.5.5m9,4a.47.47,0,0,1-.5-.5v-2a.5.5,0,1,1,1,0v2a.47.47,0,0,1-.5.5m-4,2h-3a.5.5,0,0,1,0-1h2.1a4.23,4.23,0,0,0-3.6-2,4.5,4.5,0,0,0-4.1,2.7.51.51,0,0,1-.9-.5,5.54,5.54,0,0,1,5-3.2,5.18,5.18,0,0,1,4,1.8v1.2h-.4a2.51,2.51,0,0,1,.4.7.51.51,0,0,0,.9-.5l-.9-1.5V17.1a.5.5,0,0,1,1,0v3a.47.47,0,0,1-.5.5m4,3a.47.47,0,0,1-.5-.5v-2a.5.5,0,0,1,1,0v2a.47.47,0,0,1-.5.5m-12,5h-3a2.48,2.48,0,0,1-2.5-2.5v-13a2.48,2.48,0,0,1,2.5-2.5h3a.5.5,0,0,1,0,1h-3a1.54,1.54,0,0,0-1.5,1.5v13a1.54,1.54,0,0,0,1.5,1.5h3a.5.5,0,0,1,0,1m8,0h-2a.5.5,0,0,1,0-1h2a.5.5,0,0,1,0,1m2,0a.5.5,0,0,1,0-1,1.54,1.54,0,0,0,1.5-1.5.5.5,0,0,1,1,0,2.48,2.48,0,0,1-2.5,2.5m-7,1a.47.47,0,0,1-.5-.5v-7a.5.5,0,0,1,1,0v7a.47.47,0,0,1-.5.5"/></g></g></svg>