<svg xmlns="http://www.w3.org/2000/svg" viewBox="0 0 39.2 39.2"><defs><style>.cls-1{fill:#0071ce;}.cls-2{fill:#fff;}</style></defs><g id="Layer_2" data-name="Layer 2"><g id="Layer_1-2" data-name="Layer 1"><path class="cls-1" d="M19.6,39.2A19.6,19.6,0,1,0,0,19.6,19.6,19.6,0,0,0,19.6,39.2"/><path class="cls-2" d="M18.62,20.26a.7.7,0,0,1,.47.19.69.69,0,0,1,.18.57l-.86,5.6,5.41-8.13-3.15.45a.66.66,0,0,1-.56-.19.69.69,0,0,1-.18-.57l.86-5.6-5.41,8.13,3.15-.45h.09M17.3,30.13a.59.59,0,0,1-.23-.05.67.67,0,0,1-.42-.71l1.18-7.68-3.72.54a.68.68,0,0,1-.65-.31.63.63,0,0,1,0-.71L21.35,9.37a.65.65,0,0,1,.78-.25.67.67,0,0,1,.42.71l-1.19,7.68L25.09,17a.68.68,0,0,1,.65.31.63.63,0,0,1,0,.71L17.85,29.83a.65.65,0,0,1-.55.3"/></g></g></svg>