<svg xmlns="http://www.w3.org/2000/svg" viewBox="0 0 39.2 39.2"><defs><style>.cls-1{fill:#3fae49;}.cls-2{fill:none;stroke:#fff;stroke-width:0.57px;}.cls-3{fill:#fcda00;}.cls-4{fill:#e92429;}.cls-5{fill:#f5f6f6;}</style></defs><g id="Layer_2" data-name="Layer 2"><g id="Layer_1-2" data-name="Layer 1"><circle class="cls-1" cx="19.6" cy="19.6" r="19.6"/><circle class="cls-2" cx="19.6" cy="19.6" r="19.32"/><path id="Path_600" data-name="Path 600" class="cls-3" d="M19.85,19.28l9.45,11s1.3,1.08,1.3-.86V26c0-1.32.12-2.63,0-3.94a9.35,9.35,0,0,0-1.75-4,12.75,12.75,0,0,0-3.23-3.54s-1.13-.68-2.71,1.2-3.06,3.6-3.06,3.6"/><path id="Path_601" data-name="Path 601" class="cls-4" d="M9.89,29.91c.28-.35.57-.69.85-1,.74-.86,1.47-1.72,2.21-2.57l2.88-3.43c1-1.2,2.1-2.4,3.12-3.6s2.2-2.57,3.34-3.82c.73-.86,1.75-2.29,3.05-1.6.63.28,1.81,1.65,2,1.71,0-.11-1.3-1.54-1.59-1.88C25.23,13.12,22.57,10,21.72,9a5.71,5.71,0,0,0-.51-.58,2.09,2.09,0,0,0-3.28,0c-1.81,1.77-6.12,7.14-6.12,7.14s-3.16,4.23-3.33,5.6a20.9,20.9,0,0,0-.12,3.71c0,1.31.06,2.63.06,3.94.06.91.62,2.11,1.47,1.09"/><path id="Path_602" data-name="Path 602" class="cls-3" d="M19.85,19.28l9.45,11s1.3,1.08,1.3-.86V26c0-1.32.12-2.63,0-3.94a9.35,9.35,0,0,0-1.75-4,12.75,12.75,0,0,0-3.23-3.54s-1.13-.68-2.71,1.2-3.06,3.6-3.06,3.6"/><path id="Path_603" data-name="Path 603" class="cls-4" d="M9.89,29.91c.28-.35.57-.69.85-1,.74-.86,1.47-1.72,2.21-2.57l2.88-3.43c1-1.2,2.1-2.4,3.12-3.6s2.2-2.57,3.34-3.82c.73-.86,1.75-2.29,3.05-1.6.63.28,1.81,1.65,2,1.71,0-.11-1.3-1.54-1.59-1.88C25.23,13.12,22.57,10,21.72,9a5.71,5.71,0,0,0-.51-.58,2.09,2.09,0,0,0-3.28,0c-1.81,1.77-6.12,7.14-6.12,7.14s-3.16,4.23-3.33,5.6a20.9,20.9,0,0,0-.12,3.71c0,1.31.06,2.63.06,3.94.06.91.62,2.11,1.47,1.09"/><path id="Path_604" data-name="Path 604" class="cls-5" d="M27.15,11h.12a.16.16,0,0,0,.17-.13v0c0-.06-.06-.12-.17-.12h-.12Zm0,.45h-.22v-.85c.11,0,.22-.06.34-.06a2,2,0,0,1,.34.06c.05,0,.05.11.05.22a.14.14,0,0,1-.13.17h0V11c.12,0,.12.06.17.17a.46.46,0,0,0,.06.23h-.23a.59.59,0,0,1,0-.23c0-.05-.06-.11-.17-.11h-.12ZM26.59,11a.68.68,0,1,0,1.35.11.2.2,0,0,0,0-.11.68.68,0,1,0-1.35-.12.24.24,0,0,0,0,.12m1.64,0a1,1,0,0,1-1,.91.9.9,0,0,1-.91-.89v0a.86.86,0,0,1,.85-.86h.06a.91.91,0,0,1,1,.84v0"/></g></g></svg>