<svg xmlns="http://www.w3.org/2000/svg" viewBox="0 0 39.2 39.2"><defs><style>.cls-1{fill:#fff;}.cls-2{fill:#f47b20;}</style></defs><g id="Layer_2" data-name="Layer 2"><g id="Layer_1-2" data-name="Layer 1"><path class="cls-1" d="M19.6,39.2A19.6,19.6,0,1,0,0,19.6,19.61,19.61,0,0,0,19.6,39.2"/><path class="cls-2" d="M19.6,14.6a4,4,0,1,0,4,4,4,4,0,0,0-4-4m0-1a5,5,0,0,1,3.1,8.9l3.5,1.6a4.7,4.7,0,0,1,.9.6,9.05,9.05,0,0,0-2.2-12.5,9.26,9.26,0,0,0-12.7,2.3,8.86,8.86,0,0,0,0,10.3,1.56,1.56,0,0,1,.8-.6l3.5-1.6a5,5,0,0,1-.9-7,5.07,5.07,0,0,1,4-2m-2,9.6-4.1,1.9a1,1,0,0,0-.6.5,9.1,9.1,0,0,0,6.7,3,8.94,8.94,0,0,0,6.7-3,2.65,2.65,0,0,0-.6-.5l-4.1-1.9a4.48,4.48,0,0,1-2,.4,4.48,4.48,0,0,1-2-.4m2,6.4a10,10,0,1,1,10-10,10,10,0,0,1-10,10"/></g></g></svg>