<svg xmlns="http://www.w3.org/2000/svg" viewBox="0 0 39.2 39.2"><defs><style>.cls-1{fill:#fff;}.cls-2{fill:#ffb71b;}</style></defs><g id="Layer_2" data-name="Layer 2"><g id="Layer_1-2" data-name="Layer 1"><path class="cls-1" d="M19.6,39.2A19.6,19.6,0,1,0,0,19.6,19.6,19.6,0,0,0,19.6,39.2"/><path class="cls-2" d="M19.05,29.14a13.15,13.15,0,0,0-.5-9.14c-.91-2.61-1.71-5-.1-9.84-3.42,1.21-4.72,6.23-4.72,9.44s1.5,8.93,5.32,9.54m1.5-19.08c-1.7,4.62-.9,6.93-.1,9.24a14.75,14.75,0,0,1,.71,9.53c3.11-1.5,4.31-6.12,4.31-9.23s-1.4-8.53-4.92-9.54m-1-2.1c5.52,0,7.93,7,7.93,11.64s-2.41,11.64-7.93,11.64-7.83-7.12-7.83-11.64S14,8,19.55,8"/></g></g></svg>