<?xml version="1.0" encoding="utf-8"?>
<!-- Generator: Adobe Illustrator 25.2.0, SVG Export Plug-In . SVG Version: 6.00 Build 0)  -->
<svg version="1.1" id="Capa_1" xmlns="http://www.w3.org/2000/svg" xmlns:xlink="http://www.w3.org/1999/xlink" x="0px" y="0px"
	 viewBox="0 0 20 20" style="enable-background:new 0 0 20 20;" xml:space="preserve">
<style type="text/css">
	.st0{fill:#FFFFFF;}
</style>
<g>
	<path class="st0" d="M19.8,14.5v4.3c0,0.1,0,0.2,0,0.2c-0.1,0.4-0.5,0.7-0.9,0.7H1.1c-0.5,0-0.9-0.4-0.9-0.8c0-0.1,0-0.1,0-0.2
		v-4.3c0-0.5,0.4-0.9,0.9-0.9c0.3,0,0.5,0.1,0.7,0.3c0.2,0.2,0.3,0.4,0.3,0.7v3.5H18v-3.5c0-0.5,0.4-0.9,0.9-0.9
		c0.3,0,0.5,0.1,0.7,0.3C19.7,14,19.8,14.2,19.8,14.5"/>
	<path class="st0" d="M15.3,10.1l-4.5,4.5c0,0,0,0,0,0c-0.2,0.2-0.4,0.3-0.6,0.3c0,0,0,0-0.1,0c0,0-0.1,0-0.1,0l-0.1,0
		c0,0,0,0-0.1,0c-0.2,0-0.4-0.1-0.6-0.3c0,0,0,0,0,0l-4.5-4.5C4.5,9.9,4.4,9.6,4.4,9.3c0-0.3,0.1-0.6,0.3-0.8c0.4-0.4,1.1-0.4,1.5,0
		l2.7,2.7v-10c0-0.6,0.5-1.1,1.1-1.1c0.3,0,0.6,0.1,0.8,0.3C11,0.7,11.1,1,11.1,1.3v10l2.7-2.7c0.4-0.4,1.1-0.4,1.5,0
		C15.8,9,15.8,9.7,15.3,10.1"/>
</g>
</svg>
