<svg id="Capa_1" data-name="Capa 1" xmlns="http://www.w3.org/2000/svg" viewBox="0 0 204.18 44.82"><defs><style>.cls-1{fill:#fff;}</style></defs><path class="cls-1" d="M203.28,22a.67.67,0,0,1,.67.69h0a.67.67,0,1,1-1.34,0h0a.67.67,0,0,1,.66-.7Zm0-.17a.88.88,0,1,0,.9.87.88.88,0,0,0-.9-.87Zm-.13.58h.11c.13,0,.19.05.19.13s-.09.13-.21.13h-.09Zm0,.4h.1c.11,0,.17,0,.18.14a.68.68,0,0,0,.07.2h.22a.52.52,0,0,1-.07-.21.2.2,0,0,0-.16-.21h0a.2.2,0,0,0,.19-.2.25.25,0,0,0-.09-.19.53.53,0,0,0-.3-.07H203v.87h.2Z" transform="translate(0 0)"/><path class="cls-1" d="M148.35,19a2.13,2.13,0,0,1-.09.71,2.47,2.47,0,0,1-2.38,1.66A1.6,1.6,0,0,1,144.13,20a1.31,1.31,0,0,1,0-.28c0-1.79,2-2.29,4.22-2.27Zm3.52-3.12c0-3-1.26-5.56-5.53-5.56a10,10,0,0,0-4.85,1.19l.7,2.37a7,7,0,0,1,3.55-1c2.17,0,2.52,1.23,2.52,2v.18c-4.72,0-7.7,1.63-7.7,5a3.93,3.93,0,0,0,3.91,4h.22a4.74,4.74,0,0,0,3.8-1.69h.08s.53,2.25,3.51,1.39a18.35,18.35,0,0,1-.21-3.14Z" transform="translate(0 0)"/><path class="cls-1" d="M79.64,6.34,83.22,21c.57,2.4,1.61,3.28,4.59,2.68l1.92-7.83a53.32,53.32,0,0,0,1.13-5.31h.06a53.12,53.12,0,0,0,.93,5.31s.79,3.56,1.19,5.43,1.52,3,4.45,2.4l4.58-17.36h-3.7l-1.57,7.5c-.42,2.19-.8,3.9-1.1,5.9h0c-.26-2-.61-3.62-1-5.75L93,6.34H89.13L87.38,13.8c-.49,2.26-1,4.09-1.25,6h0c-.3-1.81-.7-4.12-1.14-6.31,0,0-1-5.33-1.4-7.17Z" transform="translate(0 0)"/><path class="cls-1" d="M108.86,19a2.13,2.13,0,0,1-.09.71,2.47,2.47,0,0,1-2.38,1.66,1.61,1.61,0,0,1-1.75-1.46,1.13,1.13,0,0,1,0-.26c0-1.79,2-2.29,4.22-2.27Zm3.52-3.12c0-3-1.26-5.56-5.53-5.56A10.1,10.1,0,0,0,102,11.51l.7,2.37a7.11,7.11,0,0,1,3.56-1c2.16,0,2.52,1.23,2.52,2v.18c-4.72,0-7.71,1.63-7.71,5a3.93,3.93,0,0,0,3.89,4h.27a4.71,4.71,0,0,0,3.8-1.69h.08s.54,2.25,3.51,1.39a20.62,20.62,0,0,1-.21-3.14Z" transform="translate(0 0)"/><polygon class="cls-1" points="117.83 20.02 117.83 6.34 114.3 6.34 114.3 23.7 117.83 23.7 117.83 20.02"/><path class="cls-1" d="M162.68,6.34V19.15a5.38,5.38,0,0,0,1,3.76A3.91,3.91,0,0,0,166.59,24a8.23,8.23,0,0,0,2.56-.38V20.88a5.52,5.52,0,0,1-1.34.16c-1.2,0-1.6-.77-1.6-2.35v-4.9h3.07V10.44h-3.07V6.34Z" transform="translate(0 0)"/><path class="cls-1" d="M153.58,10.66v13h3.64V17a5.61,5.61,0,0,1,.07-1,2.75,2.75,0,0,1,2.88-2.29,5.55,5.55,0,0,1,1,.09V10.44a3.71,3.71,0,0,0-4.35,2.68h-.1V10.66Z" transform="translate(0 0)"/><path class="cls-1" d="M119.87,10.66v13h3.55V16a3.27,3.27,0,0,1,.16-1.07,2.41,2.41,0,0,1,2.16-1.67c1.43,0,2.1,1.21,2.1,3v7.43h3.54V16a3.16,3.16,0,0,1,.15-1.06,2.23,2.23,0,0,1,2.12-1.59c1.45,0,2.15,1.19,2.15,3.25V23.7h3.54V16c0-4-2.06-5.66-4.38-5.66a4.66,4.66,0,0,0-2.57.71,5.46,5.46,0,0,0-1.65,1.63h-.05a3.74,3.74,0,0,0-3.6-2.34,4.09,4.09,0,0,0-3.8,2.07h0V10.66Z" transform="translate(0 0)"/><path class="cls-1" d="M188.28,10.07a1.29,1.29,0,0,0,1.36-.83l.69-7.83c0-.78-.91-1.41-2.05-1.41s-2,.63-2,1.41L187,9.24a1.27,1.27,0,0,0,1.35.83Z" transform="translate(0 0)"/><path class="cls-1" d="M184.05,12.52a1.29,1.29,0,0,0-.05-1.59l-6.44-4.52c-.66-.38-1.67.08-2.24,1.07s-.47,2.09.2,2.47l7.13,3.32a1.27,1.27,0,0,0,1.4-.76Z" transform="translate(0 0)"/><path class="cls-1" d="M192.49,12.52a1.3,1.3,0,0,0,1.4.75L201,10c.67-.38.76-1.48.2-2.47S199.67,6,199,6.41l-6.44,4.52a1.28,1.28,0,0,0,0,1.59Z" transform="translate(0 0)"/><path class="cls-1" d="M188.28,19.86a1.29,1.29,0,0,1,1.36.83l.69,7.83c0,.78-.91,1.41-2.05,1.41s-2-.63-2-1.41l.69-7.83a1.27,1.27,0,0,1,1.35-.83Z" transform="translate(0 0)"/><path class="cls-1" d="M192.49,17.41a1.28,1.28,0,0,1,1.4-.76L201.05,20c.67.39.76,1.49.2,2.48S199.67,24,199,23.56L192.56,19a1.28,1.28,0,0,1,0-1.59Z" transform="translate(0 0)"/><path class="cls-1" d="M184.05,17.41A1.29,1.29,0,0,1,184,19l-6.44,4.51c-.66.39-1.67-.08-2.24-1.06a1.82,1.82,0,0,1,.2-2.48l7.13-3.32a1.28,1.28,0,0,1,1.4.76Z" transform="translate(0 0)"/><path class="cls-1" d="M10,36c-.08-1.6-.18-3.54-.18-5h0c-.41,1.33-.87,2.78-1.44,4.36L6.35,41H5.16L3.29,35.5C2.74,33.87,2.29,32.4,2,31H2c0,1.43-.12,3.34-.22,5.07L1.42,41H0L.8,29.55H2.69l2,5.55c.43,1.42.8,2.68,1.11,3.92h0c.3-1.16.71-2.42,1.22-3.86l2-5.55h1.89L11.71,41H10.24Z" transform="translate(0 0)"/><path class="cls-1" d="M19.6,29.24l-2.11,2.43h-1L18,29.24Zm-.34,6.87a2.12,2.12,0,0,0-1.81-2.39l-.27,0a2.44,2.44,0,0,0-2.29,2.41Zm-4.39,1.07A2.63,2.63,0,0,0,17.27,40h.43A5.56,5.56,0,0,0,20,39.6l.27,1.07a6.71,6.71,0,0,1-2.76.55,3.83,3.83,0,0,1-4-3.66,3.25,3.25,0,0,1,0-.54c0-2.49,1.46-4.43,3.86-4.43,2.71,0,3.41,2.35,3.41,3.87a4,4,0,0,1,0,.69Z" transform="translate(0 0)"/><path class="cls-1" d="M23.2,32.79l1.18,1.77c.32.46.58.87.85,1.33h0c.28-.48.55-.9.84-1.34l1.14-1.76h1.63l-2.81,4L28.94,41H27.26L26,39.17c-.32-.48-.6-.94-.89-1.43h0c-.27.49-.54.93-.87,1.43L23.05,41H21.4l2.93-4.2-2.79-4Z" transform="translate(0 0)"/><path class="cls-1" d="M30.38,32.79h1.5V41h-1.5Zm1.67-2.31a.91.91,0,0,1-.87.93h-.13a.88.88,0,0,1-.9-.86v-.06a.9.9,0,0,1,.87-.93h.06a.89.89,0,0,1,.92.86v.07" transform="translate(0 0)"/><path class="cls-1" d="M40.23,40.74a5.63,5.63,0,0,1-2.36.48,3.92,3.92,0,0,1-4.11-3.73c0-.15,0-.31,0-.47a4.2,4.2,0,0,1,4-4.4h.43a4.54,4.54,0,0,1,2.08.45l-.34,1.14a3.64,3.64,0,0,0-1.74-.39,2.86,2.86,0,0,0-2.92,2.8c0,.1,0,.21,0,.31A2.83,2.83,0,0,0,37.84,40h.3A4.35,4.35,0,0,0,40,39.63Z" transform="translate(0 0)"/><path class="cls-1" d="M42.82,36.93c0,1.8,1,3.16,2.48,3.16s2.5-1.34,2.5-3.19c0-1.4-.69-3.15-2.46-3.15s-2.52,1.63-2.52,3.18m6.51-.09a4,4,0,0,1-4.09,4.38,3.93,3.93,0,0,1-4-3.85c0-.13,0-.26,0-.39a4,4,0,0,1,3.62-4.34,3.54,3.54,0,0,1,.46,0,3.89,3.89,0,0,1,4,3.76,3.49,3.49,0,0,1,0,.46" transform="translate(0 0)"/><path class="cls-1" d="M55.37,32.79l1.79,4.87c.2.55.41,1.19.54,1.68h0c.15-.49.32-1.12.52-1.71l1.64-4.84h1.63l-2.25,5.88c-1.07,2.82-1.8,4.25-2.82,5.15a4.1,4.1,0,0,1-1.84,1l-.37-1.24a4,4,0,0,0,1.28-.78,4.7,4.7,0,0,0,1.26-1.67,1.12,1.12,0,0,0,.12-.35,1.42,1.42,0,0,0-.12-.4l-3-7.59Z" transform="translate(0 0)"/><path class="cls-1" d="M75.1,40.3a7.17,7.17,0,0,1-3,.55c-3.24,0-5.65-2-5.65-5.82a5.68,5.68,0,0,1,5.36-6c.21,0,.43,0,.64,0a6.08,6.08,0,0,1,2.72.51l-.37,1.21a5.22,5.22,0,0,0-2.3-.48C69.81,30.27,68,32,68,35c0,2.82,1.62,4.61,4.39,4.61a6,6,0,0,0,2.44-.48Z" transform="translate(0 0)"/><path class="cls-1" d="M82,35.75a2.12,2.12,0,0,0-1.8-2.4l-.27,0a2.45,2.45,0,0,0-2.3,2.42Zm-4.39,1.07a2.63,2.63,0,0,0,2.38,2.86h.45a5.22,5.22,0,0,0,2.27-.43l.28,1.07a6.69,6.69,0,0,1-2.76.53,3.84,3.84,0,0,1-4-3.66,4.34,4.34,0,0,1,0-.51c0-2.48,1.46-4.42,3.86-4.42,2.71,0,3.41,2.35,3.41,3.86a4.09,4.09,0,0,1,0,.7Z" transform="translate(0 0)"/><path class="cls-1" d="M85.25,34.66a21.78,21.78,0,0,0-.07-2.23h1.31l.08,1.36h0a3,3,0,0,1,2.72-1.53c1.14,0,2.91.68,2.91,3.5v4.9H90.7V35.92c0-1.33-.49-2.44-1.9-2.44a2.22,2.22,0,0,0-2.12,2.23v5H85.25Z" transform="translate(0 0)"/><path class="cls-1" d="M96.42,30.45v2h2.15v1.14H96.42V38c0,1,.29,1.6,1.13,1.6a3.19,3.19,0,0,0,.87-.1l.06,1.14a4,4,0,0,1-1.32.2,2.15,2.15,0,0,1-1.62-.63A3.22,3.22,0,0,1,95,38V33.57H93.69V32.43H95V30.9Z" transform="translate(0 0)"/><path class="cls-1" d="M100.25,35c0-1,0-1.81-.07-2.57h1.31l.07,1.63h0a2.52,2.52,0,0,1,2.3-1.8h.41v1.41a2.17,2.17,0,0,0-.51,0,2.09,2.09,0,0,0-2,1.91,4,4,0,0,0,0,.69v4.39h-1.5Z" transform="translate(0 0)"/><path class="cls-1" d="M106.58,36.56c0,1.8,1,3.17,2.48,3.17s2.51-1.35,2.51-3.2c0-1.4-.7-3.15-2.47-3.15s-2.52,1.63-2.52,3.18m6.52-.08a4,4,0,0,1-4.1,4.37A3.92,3.92,0,0,1,105,37a2.84,2.84,0,0,1,0-.41,4,4,0,0,1,3.63-4.34h.45a3.9,3.9,0,0,1,4,3.79,3.09,3.09,0,0,1,0,.43" transform="translate(0 0)"/><path class="cls-1" d="M119.32,36.46c-1.63,0-3.49.26-3.49,1.85A1.31,1.31,0,0,0,117,39.74h.22a2.07,2.07,0,0,0,2-1.37,1.55,1.55,0,0,0,.07-.48Zm1.45,2.23a13.34,13.34,0,0,0,.12,2h-1.35l-.12-1h0a3.07,3.07,0,0,1-2.52,1.23,2.33,2.33,0,0,1-2.5-2.16,1.48,1.48,0,0,1,0-.21c0-2,1.77-3.08,5-3.06v-.17a1.69,1.69,0,0,0-1.47-1.89,1.78,1.78,0,0,0-.4,0,4,4,0,0,0-2.17.62l-.34-1a5.43,5.43,0,0,1,2.73-.71c2.52,0,3.13,1.72,3.13,3.35Z" transform="translate(0 0)"/><path class="cls-1" d="M123.18,34.66a21.78,21.78,0,0,0-.07-2.23h1.31l.07,1.34h0a2.86,2.86,0,0,1,2.61-1.51,2.43,2.43,0,0,1,2.39,1.65h0a3.22,3.22,0,0,1,.94-1.07,2.72,2.72,0,0,1,1.8-.58c1.11,0,2.73.71,2.73,3.57v4.83h-1.47V36c0-1.6-.59-2.54-1.78-2.54a2,2,0,0,0-1.79,1.35,2.4,2.4,0,0,0-.12.75v5.08h-1.46V35.73c0-1.31-.58-2.25-1.72-2.25a2.08,2.08,0,0,0-1.86,1.5,2.24,2.24,0,0,0-.12.73v5h-1.46Z" transform="translate(0 0)"/><path class="cls-1" d="M142.93,28.87l-2.08,2.43h-1l1.5-2.43Zm-.34,6.88a2.12,2.12,0,0,0-1.8-2.4l-.3,0a2.46,2.46,0,0,0-2.3,2.42Zm-4.39,1.07a2.64,2.64,0,0,0,2.4,2.86H141a5.26,5.26,0,0,0,2.28-.43l.27,1.07a6.69,6.69,0,0,1-2.76.53,3.85,3.85,0,0,1-4.06-3.61,3.49,3.49,0,0,1,0-.56c0-2.48,1.47-4.42,3.87-4.42,2.7,0,3.4,2.35,3.4,3.86a4.12,4.12,0,0,1,0,.7Z" transform="translate(0 0)"/><path class="cls-1" d="M145.89,35c0-1,0-1.81-.07-2.57h1.31l.07,1.63h0a2.52,2.52,0,0,1,2.3-1.8h.41v1.41a2.17,2.17,0,0,0-.51,0,2.09,2.09,0,0,0-2,1.91,4,4,0,0,0,0,.69v4.39h-1.5Z" transform="translate(0 0)"/><path class="cls-1" d="M151.49,32.43H153v8.23h-1.5Zm1.67-2.32a.9.9,0,0,1-.88.92h-.07a.89.89,0,0,1-.91-.87v-.05a.91.91,0,0,1,.89-.93h.05a.9.9,0,0,1,.92.88v.05" transform="translate(0 0)"/><path class="cls-1" d="M161.37,40.37a5.63,5.63,0,0,1-2.36.48,3.92,3.92,0,0,1-4.11-3.7c0-.17,0-.33,0-.5a4.19,4.19,0,0,1,4-4.39h.44a4.8,4.8,0,0,1,2.08.44l-.34,1.14a3.64,3.64,0,0,0-1.74-.39,2.86,2.86,0,0,0-2.92,2.8c0,.1,0,.21,0,.31A2.83,2.83,0,0,0,159,39.63h.31a4.35,4.35,0,0,0,1.84-.39Z" transform="translate(0 0)"/><path class="cls-1" d="M167.49,36.46c-1.63,0-3.49.26-3.49,1.85a1.31,1.31,0,0,0,1.18,1.43h.22a2.07,2.07,0,0,0,2-1.37,1.59,1.59,0,0,0,.07-.48Zm1.45,2.23a14.81,14.81,0,0,0,.11,2h-1.34l-.12-1h0a3.07,3.07,0,0,1-2.52,1.23,2.35,2.35,0,0,1-2.57-2.11c0-.11,0-.22,0-.33,0-2,1.77-3.08,5-3.06v-.17A1.69,1.69,0,0,0,166,33.36a1.48,1.48,0,0,0-.42,0,3.91,3.91,0,0,0-2.16.62l-.34-1a5.43,5.43,0,0,1,2.73-.71c2.51,0,3.13,1.72,3.13,3.35Z" transform="translate(0 0)"/></svg>