<svg id="Capa_1" data-name="Capa 1" xmlns="http://www.w3.org/2000/svg" xmlns:xlink="http://www.w3.org/1999/xlink" viewBox="0 0 204.17 44.78"><defs><style>.cls-1{fill:none;}.cls-2{clip-path:url(#clip-path);}.cls-3{fill:#ffb71b;}.cls-4{fill:#007dc3;}</style><clipPath id="clip-path" transform="translate(-1.51 -1.98)"><rect class="cls-1" x="1.51" y="1.97" width="204.17" height="44.78"/></clipPath></defs><g class="cls-2"><path class="cls-3" d="M204.79,24a.68.68,0,0,1,.67.7.67.67,0,1,1-1.34,0,.68.68,0,0,1,.67-.7Zm0-.17a.88.88,0,1,0,.9.87.88.88,0,0,0-.9-.87Zm-.13.58h.11c.13,0,.19.05.19.13s-.09.13-.21.13h-.09Zm0,.4h.1c.11,0,.17,0,.18.14a.62.62,0,0,0,.07.2h.22a.57.57,0,0,1-.07-.21c0-.12-.07-.19-.16-.21v0c.11,0,.19-.1.19-.2a.25.25,0,0,0-.09-.19.5.5,0,0,0-.3-.07,2.36,2.36,0,0,0-.34,0v.87h.2Z" transform="translate(-1.51 -1.98)"/><path class="cls-4" d="M149.86,21a2.39,2.39,0,0,1-.09.71,2.47,2.47,0,0,1-2.38,1.66,1.6,1.6,0,0,1-1.75-1.72c0-1.79,2-2.29,4.22-2.27Zm3.52-3.12c0-3-1.26-5.56-5.53-5.56A10.09,10.09,0,0,0,143,13.51l.7,2.37a7.09,7.09,0,0,1,3.55-1c2.17,0,2.52,1.23,2.52,2v.18c-4.72,0-7.7,1.63-7.7,5A3.93,3.93,0,0,0,146.2,26a4.75,4.75,0,0,0,3.8-1.69h.08s.53,2.25,3.51,1.39a18.62,18.62,0,0,1-.21-3.14Z" transform="translate(-1.51 -1.98)"/><path class="cls-4" d="M81.15,8.32S84.24,21,84.73,23c.57,2.4,1.61,3.28,4.59,2.68l1.92-7.83a53.92,53.92,0,0,0,1.13-5.31h.06a51.66,51.66,0,0,0,.93,5.31s.79,3.56,1.19,5.43,1.52,3,4.45,2.4l4.58-17.36h-3.7l-1.57,7.5c-.42,2.19-.8,3.9-1.1,5.9h0c-.26-2-.61-3.62-1-5.75L94.5,8.32H90.64l-1.75,7.46c-.49,2.26-1,4.09-1.25,6h0c-.3-1.81-.7-4.12-1.14-6.31,0,0-1-5.33-1.4-7.17Z" transform="translate(-1.51 -1.98)"/><path class="cls-4" d="M110.37,21a2.39,2.39,0,0,1-.09.71,2.47,2.47,0,0,1-2.38,1.66,1.61,1.61,0,0,1-1.75-1.72c0-1.79,2-2.29,4.22-2.27Zm3.52-3.12c0-3-1.26-5.56-5.53-5.56a10.09,10.09,0,0,0-4.88,1.17l.7,2.37a7.13,7.13,0,0,1,3.56-1c2.16,0,2.52,1.23,2.52,2v.18c-4.72,0-7.71,1.63-7.71,5A3.93,3.93,0,0,0,106.71,26a4.72,4.72,0,0,0,3.8-1.69h.08s.54,2.25,3.51,1.39a19.73,19.73,0,0,1-.21-3.14Z" transform="translate(-1.51 -1.98)"/></g><polygon class="cls-4" points="117.83 20.02 117.83 6.34 114.3 6.34 114.3 23.7 117.83 23.7 117.83 20.02"/><g class="cls-2"><path class="cls-4" d="M164.19,8.32V21.13a5.4,5.4,0,0,0,1,3.76A3.92,3.92,0,0,0,168.1,26a8.48,8.48,0,0,0,2.56-.38l0-2.76a5.33,5.33,0,0,1-1.34.16c-1.2,0-1.6-.77-1.6-2.35v-4.9h3.07V12.42h-3.07V8.32Z" transform="translate(-1.51 -1.98)"/><path class="cls-4" d="M155.09,12.64v13h3.64V19a5.61,5.61,0,0,1,.07-1,2.75,2.75,0,0,1,2.88-2.29,6.42,6.42,0,0,1,1,.09V12.42a3.71,3.71,0,0,0-4.35,2.68h-.1V12.64Z" transform="translate(-1.51 -1.98)"/><path class="cls-4" d="M121.38,12.64v13h3.55V18a3.23,3.23,0,0,1,.16-1.07,2.41,2.41,0,0,1,2.16-1.67c1.43,0,2.1,1.21,2.1,3v7.43h3.54V17.94a3.36,3.36,0,0,1,.15-1.06,2.24,2.24,0,0,1,2.12-1.59c1.45,0,2.15,1.19,2.15,3.25v7.14h3.54V18c0-4.05-2.06-5.66-4.38-5.66a4.7,4.7,0,0,0-2.57.71,5.44,5.44,0,0,0-1.65,1.63h-.05a3.73,3.73,0,0,0-3.6-2.34,4.1,4.1,0,0,0-3.8,2.07h0V12.64Z" transform="translate(-1.51 -1.98)"/><path class="cls-3" d="M189.79,12.05a1.29,1.29,0,0,0,1.36-.83l.69-7.83c0-.78-.91-1.41-2.05-1.41s-2,.63-2,1.41l.69,7.83a1.27,1.27,0,0,0,1.35.83Z" transform="translate(-1.51 -1.98)"/><path class="cls-3" d="M185.56,14.5a1.28,1.28,0,0,0-.05-1.59l-6.44-4.52c-.66-.38-1.67.08-2.24,1.07s-.47,2.09.2,2.47l7.13,3.32a1.27,1.27,0,0,0,1.4-.76Z" transform="translate(-1.51 -1.98)"/><path class="cls-3" d="M194,14.5a1.28,1.28,0,0,0,1.4.75l7.13-3.32c.67-.38.76-1.48.2-2.47S201.18,8,200.51,8.39l-6.44,4.52a1.29,1.29,0,0,0,0,1.59Z" transform="translate(-1.51 -1.98)"/><path class="cls-3" d="M189.79,21.84a1.29,1.29,0,0,1,1.36.83l.69,7.83c0,.78-.91,1.41-2.05,1.41s-2-.63-2-1.41l.69-7.83a1.27,1.27,0,0,1,1.35-.83Z" transform="translate(-1.51 -1.98)"/><path class="cls-3" d="M194,19.39a1.29,1.29,0,0,1,1.4-.76L202.56,22c.67.39.76,1.49.2,2.48s-1.58,1.45-2.25,1.06L194.07,21a1.29,1.29,0,0,1,0-1.59Z" transform="translate(-1.51 -1.98)"/><path class="cls-3" d="M185.56,19.39a1.28,1.28,0,0,1-.05,1.59l-6.44,4.51c-.66.39-1.67-.08-2.24-1.06s-.47-2.09.2-2.48l7.13-3.32a1.29,1.29,0,0,1,1.4.76Z" transform="translate(-1.51 -1.98)"/><path class="cls-4" d="M11.48,38c-.08-1.6-.18-3.54-.18-4.95h0c-.41,1.33-.87,2.78-1.44,4.36l-2,5.56H6.67L4.8,37.48c-.55-1.63-1-3.1-1.31-4.46h0c0,1.43-.12,3.34-.22,5.07L2.93,43H1.51l.8-11.47H4.2l2,5.55C6.63,38.5,7,39.76,7.31,41h0c.3-1.16.71-2.42,1.22-3.86l2-5.55h1.89L13.22,43H11.75Z" transform="translate(-1.51 -1.98)"/><path class="cls-4" d="M21.11,31.22,19,33.65H18l1.5-2.43Zm-.34,6.87a2.12,2.12,0,0,0-2.08-2.41,2.44,2.44,0,0,0-2.29,2.41Zm-4.39,1.07A2.63,2.63,0,0,0,19.21,42a5.53,5.53,0,0,0,2.28-.42l.27,1.07A6.7,6.7,0,0,1,19,43.2,3.84,3.84,0,0,1,15,39c0-2.49,1.46-4.43,3.86-4.43,2.71,0,3.41,2.35,3.41,3.87a4,4,0,0,1,0,.69Z" transform="translate(-1.51 -1.98)"/><path class="cls-4" d="M24.71,34.77l1.18,1.77c.32.46.58.87.85,1.33h0c.28-.48.55-.9.84-1.34l1.14-1.76h1.63l-2.81,4L30.45,43H28.77l-1.23-1.85c-.32-.48-.6-.94-.89-1.43h0c-.27.49-.54.93-.87,1.43L24.56,43H22.91l2.93-4.2-2.79-4Z" transform="translate(-1.51 -1.98)"/><path class="cls-4" d="M31.89,34.77h1.5V43h-1.5Zm1.67-2.31a.9.9,0,0,1-1,.92.88.88,0,0,1-.9-.92.9.9,0,0,1,.93-.93.89.89,0,0,1,.92.93" transform="translate(-1.51 -1.98)"/><path class="cls-4" d="M41.74,42.72a5.72,5.72,0,0,1-2.36.48A3.92,3.92,0,0,1,35.28,39,4.2,4.2,0,0,1,39.7,34.6a4.59,4.59,0,0,1,2.08.45l-.34,1.14a3.65,3.65,0,0,0-1.74-.39,2.86,2.86,0,0,0-2.91,3.11A2.83,2.83,0,0,0,39.65,42a4.28,4.28,0,0,0,1.84-.39Z" transform="translate(-1.51 -1.98)"/><path class="cls-4" d="M44.33,38.91c0,1.8,1,3.16,2.48,3.16s2.5-1.34,2.5-3.19c0-1.4-.69-3.15-2.46-3.15s-2.52,1.63-2.52,3.18m6.51-.09a4,4,0,0,1-4.09,4.38,3.93,3.93,0,0,1-4-4.24,4,4,0,0,1,4.08-4.36,3.89,3.89,0,0,1,4,4.22" transform="translate(-1.51 -1.98)"/><path class="cls-4" d="M56.88,34.77l1.79,4.87c.2.55.41,1.19.54,1.68h0c.15-.49.32-1.12.52-1.71l1.64-4.84H63l-2.25,5.88c-1.07,2.82-1.8,4.25-2.82,5.15a4.12,4.12,0,0,1-1.84,1l-.37-1.24A4.07,4.07,0,0,0,57,44.78a4.69,4.69,0,0,0,1.26-1.67,1,1,0,0,0,.12-.35,1.17,1.17,0,0,0-.12-.4l-3-7.59Z" transform="translate(-1.51 -1.98)"/><path class="cls-4" d="M76.61,42.28a7.18,7.18,0,0,1-3,.55c-3.24,0-5.65-2-5.65-5.82a5.69,5.69,0,0,1,6-6,6.12,6.12,0,0,1,2.72.51l-.37,1.21a5.18,5.18,0,0,0-2.3-.48c-2.69,0-4.48,1.72-4.48,4.73,0,2.82,1.62,4.61,4.39,4.61a6,6,0,0,0,2.44-.48Z" transform="translate(-1.51 -1.98)"/><path class="cls-4" d="M83.46,37.73a2.12,2.12,0,0,0-2.07-2.42,2.45,2.45,0,0,0-2.3,2.42ZM79.07,38.8a2.63,2.63,0,0,0,2.83,2.86,5.26,5.26,0,0,0,2.27-.43l.28,1.07a6.7,6.7,0,0,1-2.76.53,3.84,3.84,0,0,1-4-4.17c0-2.48,1.46-4.42,3.86-4.42,2.71,0,3.41,2.35,3.41,3.86a4,4,0,0,1,0,.7Z" transform="translate(-1.51 -1.98)"/><path class="cls-4" d="M86.76,36.64c0-.87,0-1.55-.07-2.23H88l.08,1.36h0a3,3,0,0,1,2.72-1.53c1.14,0,2.91.68,2.91,3.5v4.9h-1.5V37.9c0-1.33-.49-2.44-1.9-2.44a2.22,2.22,0,0,0-2.12,2.23v5H86.76Z" transform="translate(-1.51 -1.98)"/><path class="cls-4" d="M97.93,32.43v2h2.15v1.14H97.93V40c0,1,.29,1.6,1.13,1.6a3.14,3.14,0,0,0,.87-.1l.06,1.14a4.11,4.11,0,0,1-1.32.2,2.15,2.15,0,0,1-1.62-.63A3.21,3.21,0,0,1,96.47,40V35.55H95.2V34.41h1.27V32.88Z" transform="translate(-1.51 -1.98)"/><path class="cls-4" d="M101.76,37c0-1,0-1.81-.07-2.57H103l.07,1.63h.05a2.51,2.51,0,0,1,2.3-1.8c.15,0,.27,0,.41,0v1.41a2.69,2.69,0,0,0-.51,0,2.08,2.08,0,0,0-2,1.91,3.8,3.8,0,0,0,0,.69v4.39h-1.5Z" transform="translate(-1.51 -1.98)"/><path class="cls-4" d="M108.09,38.54c0,1.8,1,3.17,2.48,3.17s2.51-1.35,2.51-3.2c0-1.4-.7-3.15-2.47-3.15s-2.52,1.63-2.52,3.18m6.52-.08a4,4,0,0,1-4.1,4.37,3.92,3.92,0,0,1-4-4.24,4,4,0,0,1,4.08-4.35,3.9,3.9,0,0,1,4,4.22" transform="translate(-1.51 -1.98)"/><path class="cls-4" d="M120.83,38.44c-1.63,0-3.49.26-3.49,1.85a1.31,1.31,0,0,0,1.4,1.43,2.08,2.08,0,0,0,2-1.37,1.43,1.43,0,0,0,.07-.48Zm1.45,2.23a13.1,13.1,0,0,0,.12,2h-1.35l-.12-1h-.05a3.06,3.06,0,0,1-2.52,1.23,2.34,2.34,0,0,1-2.51-2.37c0-2,1.77-3.08,5-3.06v-.17a1.69,1.69,0,0,0-1.87-1.89,3.92,3.92,0,0,0-2.17.62l-.34-1a5.44,5.44,0,0,1,2.73-.71c2.52,0,3.13,1.72,3.13,3.35Z" transform="translate(-1.51 -1.98)"/><path class="cls-4" d="M124.69,36.64c0-.87,0-1.55-.07-2.23h1.31l.07,1.34h0a2.86,2.86,0,0,1,2.61-1.51A2.43,2.43,0,0,1,131,35.89h0a3.22,3.22,0,0,1,.94-1.07,2.72,2.72,0,0,1,1.8-.58c1.11,0,2.73.71,2.73,3.57v4.83H135V38c0-1.6-.59-2.54-1.78-2.54a2,2,0,0,0-1.79,1.35,2.46,2.46,0,0,0-.12.75v5.08h-1.46V37.71c0-1.31-.58-2.25-1.72-2.25a2.07,2.07,0,0,0-1.86,1.5,2.11,2.11,0,0,0-.12.73v5h-1.46Z" transform="translate(-1.51 -1.98)"/><path class="cls-4" d="M144.44,30.85l-2.08,2.43h-1.05l1.5-2.43Zm-.34,6.88A2.12,2.12,0,0,0,142,35.31a2.46,2.46,0,0,0-2.3,2.42Zm-4.39,1.07a2.64,2.64,0,0,0,2.83,2.86,5.34,5.34,0,0,0,2.28-.43l.27,1.07a6.7,6.7,0,0,1-2.76.53,3.84,3.84,0,0,1-4.05-4.17c0-2.48,1.47-4.42,3.87-4.42,2.7,0,3.4,2.35,3.4,3.86a4,4,0,0,1-.05.7Z" transform="translate(-1.51 -1.98)"/><path class="cls-4" d="M147.4,37c0-1,0-1.81-.07-2.57h1.31l.07,1.63h0a2.51,2.51,0,0,1,2.3-1.8c.15,0,.27,0,.41,0v1.41a2.64,2.64,0,0,0-.51,0,2.08,2.08,0,0,0-2,1.91,5,5,0,0,0,0,.69v4.39h-1.5Z" transform="translate(-1.51 -1.98)"/><path class="cls-4" d="M153,34.41h1.5v8.23H153Zm1.67-2.32a.9.9,0,0,1-.95.92.89.89,0,0,1-.91-.92.91.91,0,0,1,.94-.93.9.9,0,0,1,.92.93" transform="translate(-1.51 -1.98)"/><path class="cls-4" d="M162.88,42.35a5.72,5.72,0,0,1-2.36.48,3.91,3.91,0,0,1-4.1-4.2,4.19,4.19,0,0,1,4.42-4.39,4.78,4.78,0,0,1,2.08.44l-.34,1.14a3.65,3.65,0,0,0-1.74-.39,2.86,2.86,0,0,0-2.91,3.11,2.82,2.82,0,0,0,2.86,3.08,4.28,4.28,0,0,0,1.84-.39Z" transform="translate(-1.51 -1.98)"/><path class="cls-4" d="M169,38.44c-1.63,0-3.49.26-3.49,1.85a1.31,1.31,0,0,0,1.4,1.43,2.08,2.08,0,0,0,2-1.37,1.74,1.74,0,0,0,.07-.48Zm1.45,2.23a14.68,14.68,0,0,0,.11,2h-1.34l-.12-1h0a3.06,3.06,0,0,1-2.52,1.23A2.35,2.35,0,0,1,164,40.46c0-2,1.77-3.08,5-3.06v-.17a1.69,1.69,0,0,0-1.88-1.89,3.91,3.91,0,0,0-2.16.62l-.34-1a5.41,5.41,0,0,1,2.73-.71c2.51,0,3.13,1.72,3.13,3.35Z" transform="translate(-1.51 -1.98)"/></g></svg>