<?xml version="1.0" encoding="utf-8"?>
<!-- Generator: Adobe Illustrator 26.0.2, SVG Export Plug-In . SVG Version: 6.00 Build 0)  -->
<svg version="1.1" id="Capa_1" xmlns="http://www.w3.org/2000/svg" xmlns:xlink="http://www.w3.org/1999/xlink" x="0px" y="0px"
	 viewBox="0 0 204.2 44.8" style="enable-background:new 0 0 204.2 44.8;" xml:space="preserve">
<style type="text/css">
	.st0{fill:#FFFFFF;}
	.st1{fill:#FFB71B;}
</style>
<path class="st0" d="M203.3,22c0.4,0,0.7,0.3,0.7,0.7c0,0,0,0,0,0l0,0c0,0.4-0.3,0.7-0.7,0.7c-0.4,0-0.7-0.3-0.7-0.7c0,0,0,0,0,0
	l0,0C202.6,22.3,202.9,22,203.3,22C203.3,22,203.3,22,203.3,22L203.3,22z M203.3,21.8c-0.5,0-0.9,0.4-0.9,0.9c0,0.5,0.4,0.9,0.9,0.9
	c0.5,0,0.9-0.4,0.9-0.9C204.2,22.2,203.8,21.8,203.3,21.8C203.3,21.8,203.3,21.8,203.3,21.8z M203.1,22.4h0.1c0.1,0,0.2,0,0.2,0.1
	s-0.1,0.1-0.2,0.1h-0.1V22.4z M203.1,22.8h0.1c0.1,0,0.2,0,0.2,0.1c0,0.1,0,0.1,0.1,0.2h0.2c0-0.1-0.1-0.1-0.1-0.2
	c0-0.1-0.1-0.2-0.2-0.2l0,0c0.1,0,0.2-0.1,0.2-0.2c0-0.1,0-0.1-0.1-0.2c-0.1-0.1-0.2-0.1-0.3-0.1H203v0.9h0.2L203.1,22.8z"/>
<path class="st0" d="M148.4,19c0,0.2,0,0.5-0.1,0.7c-0.4,1-1.3,1.7-2.4,1.7c-0.9,0.1-1.6-0.5-1.8-1.4c0-0.1,0-0.2,0-0.3
	c0-1.8,2-2.3,4.2-2.3V19z M151.9,15.9c0-3-1.3-5.6-5.5-5.6c-1.7,0-3.4,0.4-4.9,1.2l0.7,2.4c1.1-0.6,2.3-1,3.6-1c2.2,0,2.5,1.2,2.5,2
	v0.2c-4.7,0-7.7,1.6-7.7,5c0,2.2,1.7,4,3.9,4c0,0,0,0,0.1,0h0.2c1.5,0.1,2.9-0.6,3.8-1.7h0.1c0,0,0.5,2.2,3.5,1.4
	c-0.2-1-0.2-2.1-0.2-3.1V15.9z"/>
<path class="st0" d="M79.6,6.3L83.2,21c0.6,2.4,1.6,3.3,4.6,2.7l1.9-7.8c0.5-1.7,0.8-3.5,1.1-5.3h0.1c0.2,1.8,0.5,3.6,0.9,5.3
	c0,0,0.8,3.6,1.2,5.4s1.5,3,4.4,2.4l4.6-17.4h-3.7l-1.6,7.5c-0.4,2.2-0.8,3.9-1.1,5.9l0,0c-0.3-2-0.6-3.6-1-5.8L93,6.3h-3.9
	l-1.8,7.5c-0.5,2.3-1,4.1-1.2,6l0,0c-0.3-1.8-0.7-4.1-1.1-6.3c0,0-1-5.3-1.4-7.2L79.6,6.3z"/>
<path class="st0" d="M108.9,19c0,0.2,0,0.5-0.1,0.7c-0.4,1-1.3,1.7-2.4,1.7c-0.9,0.1-1.7-0.6-1.7-1.5c0,0,0,0,0,0c0-0.1,0-0.2,0-0.3
	c0-1.8,2-2.3,4.2-2.3L108.9,19z M112.4,15.9c0-3-1.3-5.6-5.5-5.6c-1.7,0-3.4,0.4-4.8,1.2l0.7,2.4c1.1-0.6,2.3-1,3.6-1
	c2.2,0,2.5,1.2,2.5,2v0.2c-4.7,0-7.7,1.6-7.7,5c0,2.2,1.7,4,3.9,4c0,0,0,0,0,0h0.3c1.5,0.1,2.9-0.6,3.8-1.7h0.1c0,0,0.5,2.2,3.5,1.4
	c-0.1-1-0.2-2.1-0.2-3.1L112.4,15.9z"/>
<polygon class="st0" points="117.8,20 117.8,6.3 114.3,6.3 114.3,23.7 117.8,23.7 "/>
<path class="st0" d="M162.7,6.3v12.8c-0.1,1.3,0.2,2.7,1,3.8c0.8,0.7,1.8,1.1,2.9,1.1c0.9,0,1.7-0.1,2.6-0.4v-2.7
	c-0.4,0.1-0.9,0.2-1.3,0.2c-1.2,0-1.6-0.8-1.6-2.4v-4.9h3.1v-3.3h-3.1V6.3H162.7z"/>
<path class="st0" d="M153.6,10.7v13h3.6V17c0-0.3,0-0.7,0.1-1c0.2-1.4,1.5-2.4,2.9-2.3c0.3,0,0.7,0,1,0.1v-3.4
	c-1.9-0.4-3.8,0.8-4.4,2.7h-0.1v-2.5H153.6z"/>
<path class="st0" d="M119.9,10.7v13h3.6V16c0-0.4,0-0.7,0.2-1.1c0.3-1,1.2-1.6,2.2-1.7c1.4,0,2.1,1.2,2.1,3v7.4h3.5V16
	c0-0.4,0-0.7,0.1-1.1c0.3-0.9,1.1-1.6,2.1-1.6c1.4,0,2.1,1.2,2.1,3.2v7.1h3.5V16c0-4-2.1-5.7-4.4-5.7c-0.9,0-1.8,0.2-2.6,0.7
	c-0.7,0.4-1.2,1-1.6,1.6h-0.1c-0.6-1.5-2-2.4-3.6-2.3c-1.6-0.1-3,0.7-3.8,2.1l0,0v-1.8H119.9z"/>
<path class="st0" d="M188.3,10.1c0.6,0.1,1.2-0.3,1.4-0.8l0.7-7.8c0-0.8-0.9-1.4-2.1-1.4s-2,0.6-2,1.4l0.7,7.8
	C187.2,9.8,187.8,10.1,188.3,10.1L188.3,10.1z"/>
<path class="st0" d="M184.1,12.5c0.4-0.5,0.3-1.1-0.1-1.6l-6.4-4.5c-0.7-0.4-1.7,0.1-2.2,1.1s-0.5,2.1,0.2,2.5l7.1,3.3
	C183.2,13.4,183.8,13.1,184.1,12.5L184.1,12.5z"/>
<path class="st0" d="M192.5,12.5c0.2,0.5,0.8,0.8,1.4,0.8L201,10c0.7-0.4,0.8-1.5,0.2-2.5S199.7,6,199,6.4l-6.4,4.5
	C192.2,11.4,192.2,12.1,192.5,12.5L192.5,12.5z"/>
<path class="st0" d="M188.3,19.9c0.6-0.1,1.2,0.3,1.4,0.8l0.7,7.8c0,0.8-0.9,1.4-2.1,1.4s-2-0.6-2-1.4l0.7-7.8
	C187.2,20.1,187.7,19.8,188.3,19.9L188.3,19.9z"/>
<path class="st0" d="M192.5,17.4c0.2-0.5,0.8-0.9,1.4-0.8l7.2,3.4c0.7,0.4,0.8,1.5,0.2,2.5s-1.6,1.5-2.2,1.1l-6.4-4.6
	C192.2,18.5,192.2,17.9,192.5,17.4L192.5,17.4z"/>
<path class="st0" d="M184.1,17.4c0.4,0.5,0.3,1.1-0.1,1.6l-6.4,4.5c-0.7,0.4-1.7-0.1-2.2-1.1c-0.6-0.8-0.5-1.8,0.2-2.5l7.1-3.3
	C183.2,16.5,183.8,16.9,184.1,17.4L184.1,17.4z"/>
<path class="st0" d="M10,36c-0.1-1.6-0.2-3.5-0.2-5l0,0c-0.4,1.3-0.9,2.8-1.4,4.4l-2,5.6H5.2l-1.9-5.5c-0.5-1.6-1-3.1-1.3-4.5l0,0
	c0,1.4-0.1,3.3-0.2,5.1L1.4,41H0l0.8-11.5h1.9l2,5.5c0.4,1.4,0.8,2.7,1.1,3.9l0,0c0.3-1.2,0.7-2.4,1.2-3.9l2-5.5h1.9L11.7,41h-1.5
	L10,36z"/>
<path class="st0" d="M19.6,29.2l-2.1,2.4h-1l1.5-2.4H19.6z M19.3,36.1c0.2-1.2-0.7-2.2-1.8-2.4h-0.3c-1.3,0.1-2.3,1.1-2.3,2.4
	L19.3,36.1z M14.9,37.2c-0.1,1.4,1,2.7,2.4,2.8h0.4c0.8,0,1.6-0.1,2.3-0.4l0.3,1.1c-0.9,0.4-1.8,0.6-2.8,0.5c-2.1,0.1-3.9-1.5-4-3.7
	c0,0,0,0,0,0c0-0.2,0-0.4,0-0.5c0-2.5,1.5-4.4,3.9-4.4c2.7,0,3.4,2.3,3.4,3.9c0,0.2,0,0.5,0,0.7L14.9,37.2z"/>
<path class="st0" d="M23.2,32.8l1.2,1.8c0.3,0.5,0.6,0.9,0.9,1.3l0,0c0.3-0.5,0.5-0.9,0.8-1.3l1.1-1.8h1.6l-2.8,4l2.9,4.2h-1.7
	L26,39.2c-0.3-0.5-0.6-0.9-0.9-1.4l0,0c-0.3,0.5-0.5,0.9-0.9,1.4L23,41h-1.6l2.9-4.2l-2.8-4L23.2,32.8z"/>
<path class="st0" d="M30.4,32.8h1.5V41h-1.5V32.8z M32,30.5c0,0.5-0.4,0.9-0.9,0.9H31c-0.5,0-0.9-0.4-0.9-0.9c0,0,0,0,0,0v-0.1
	c0-0.5,0.4-0.9,0.9-0.9c0,0,0,0,0,0h0.1C31.6,29.5,32,29.9,32,30.5C32,30.4,32,30.4,32,30.5L32,30.5"/>
<path class="st0" d="M40.2,40.7c-0.7,0.3-1.5,0.5-2.4,0.5c-2.2,0.1-4-1.6-4.1-3.7c0,0,0,0,0,0c0-0.2,0-0.3,0-0.5
	c-0.1-2.3,1.7-4.3,4-4.4c0,0,0,0,0,0h0.4c0.7,0,1.4,0.1,2.1,0.5l-0.3,1.1c-0.5-0.3-1.1-0.4-1.7-0.4c-1.6,0-2.9,1.2-2.9,2.8
	c0,0,0,0,0,0c0,0.1,0,0.2,0,0.3c-0.1,1.6,1,2.9,2.6,3.1c0,0,0,0,0,0h0.3c0.6,0,1.3-0.1,1.9-0.4L40.2,40.7z"/>
<path class="st0" d="M42.8,36.9c0,1.8,1,3.2,2.5,3.2s2.5-1.3,2.5-3.2c0-1.4-0.7-3.2-2.5-3.2S42.8,35.4,42.8,36.9 M49.3,36.8
	c0.2,2.2-1.4,4.2-3.6,4.4c-0.2,0-0.3,0-0.5,0c-2.2,0-4-1.7-4-3.8c0-0.1,0-0.3,0-0.4c-0.2-2.2,1.4-4.1,3.6-4.3c0.2,0,0.3,0,0.5,0
	c2.1-0.1,3.9,1.6,4,3.8C49.3,36.6,49.3,36.7,49.3,36.8"/>
<path class="st0" d="M55.4,32.8l1.8,4.9c0.2,0.5,0.4,1.2,0.5,1.7l0,0c0.2-0.5,0.3-1.1,0.5-1.7l1.6-4.8h1.6l-2.2,5.9
	c-1.1,2.8-1.8,4.2-2.8,5.2c-0.5,0.5-1.2,0.8-1.8,1l-0.4-1.2c0.5-0.2,0.9-0.4,1.3-0.8c0.5-0.5,1-1,1.3-1.7c0.1-0.1,0.1-0.2,0.1-0.3
	c0-0.1-0.1-0.3-0.1-0.4l-3-7.6L55.4,32.8z"/>
<path class="st0" d="M75.1,40.3c-0.9,0.4-2,0.6-3,0.5c-3.2,0-5.7-2-5.7-5.8c-0.2-3.1,2.2-5.8,5.3-6c0,0,0,0,0,0c0.2,0,0.4,0,0.6,0
	c0.9,0,1.9,0.1,2.7,0.5l-0.4,1.2c-0.7-0.3-1.5-0.5-2.3-0.5C69.8,30.3,68,32,68,35c0,2.8,1.6,4.6,4.4,4.6c0.8,0,1.7-0.2,2.4-0.5
	L75.1,40.3z"/>
<path class="st0" d="M82,35.8c0.2-1.2-0.6-2.2-1.8-2.4c0,0,0,0,0,0h-0.3c-1.3,0.1-2.3,1.1-2.3,2.4L82,35.8z M77.6,36.8
	c-0.1,1.4,0.9,2.7,2.4,2.9c0,0,0,0,0,0h0.4c0.8,0,1.6-0.1,2.3-0.4l0.3,1.1c-0.9,0.4-1.8,0.6-2.8,0.5c-2.1,0.1-3.9-1.5-4-3.7
	c0-0.2,0-0.3,0-0.5c0-2.5,1.5-4.4,3.9-4.4c2.7,0,3.4,2.3,3.4,3.9c0,0.2,0,0.5,0,0.7L77.6,36.8z"/>
<path class="st0" d="M85.2,34.7c0-0.7,0-1.5-0.1-2.2h1.3l0.1,1.4l0,0c0.5-1,1.6-1.6,2.7-1.5c1.1,0,2.9,0.7,2.9,3.5v4.9h-1.5v-4.7
	c0-1.3-0.5-2.4-1.9-2.4c-1.2,0.1-2.1,1-2.1,2.2v5h-1.4V34.7z"/>
<path class="st0" d="M96.4,30.5v2h2.2v1.1h-2.2V38c0,1,0.3,1.6,1.1,1.6c0.3,0,0.6,0,0.9-0.1l0.1,1.1c-0.4,0.1-0.9,0.2-1.3,0.2
	c-0.6,0-1.2-0.2-1.6-0.6c-0.4-0.6-0.6-1.4-0.5-2.2v-4.4h-1.3v-1.1H95v-1.5L96.4,30.5z"/>
<path class="st0" d="M100.2,35c0-1,0-1.8-0.1-2.6h1.3l0.1,1.6l0,0c0.3-1,1.2-1.8,2.3-1.8h0.4v1.4c-0.2,0-0.3,0-0.5,0
	c-1.1,0-1.9,0.9-2,1.9c0,0.2,0,0.5,0,0.7v4.4h-1.5L100.2,35z"/>
<path class="st0" d="M106.6,36.6c0,1.8,1,3.2,2.5,3.2s2.5-1.3,2.5-3.2c0-1.4-0.7-3.2-2.5-3.2S106.6,35,106.6,36.6 M113.1,36.5
	c0.2,2.2-1.4,4.1-3.6,4.4c-0.2,0-0.3,0-0.5,0c-2.2,0-4-1.7-4-3.8c0,0,0,0,0,0c0-0.1,0-0.3,0-0.4c-0.2-2.2,1.4-4.1,3.6-4.3
	c0,0,0,0,0,0h0.4c2.2-0.1,3.9,1.6,4,3.8C113.1,36.2,113.1,36.3,113.1,36.5"/>
<path class="st0" d="M119.3,36.5c-1.6,0-3.5,0.3-3.5,1.8c-0.1,0.7,0.5,1.4,1.2,1.4h0.2c0.9,0,1.7-0.5,2-1.4c0-0.2,0.1-0.3,0.1-0.5
	L119.3,36.5z M120.8,38.7c0,0.7,0,1.3,0.1,2h-1.3l-0.1-1l0,0c-0.6,0.8-1.5,1.2-2.5,1.2c-1.3,0.1-2.4-0.9-2.5-2.1c0,0,0,0,0,0
	c0-0.1,0-0.1,0-0.2c0-2,1.8-3.1,5-3.1v-0.2c0.1-0.9-0.5-1.8-1.5-1.9c0,0,0,0,0,0c-0.1,0-0.3,0-0.4,0c-0.8,0-1.5,0.2-2.2,0.6l-0.3-1
	c0.8-0.5,1.8-0.7,2.7-0.7c2.5,0,3.1,1.7,3.1,3.3L120.8,38.7z"/>
<path class="st0" d="M123.2,34.7c0-0.7,0-1.5-0.1-2.2h1.3l0.1,1.3l0,0c0.5-1,1.5-1.5,2.6-1.5c1.1,0,2,0.6,2.4,1.7l0,0
	c0.2-0.4,0.6-0.8,0.9-1.1c0.5-0.4,1.1-0.6,1.8-0.6c1.1,0,2.7,0.7,2.7,3.6v4.8h-1.5V36c0-1.6-0.6-2.5-1.8-2.5c-0.8,0-1.5,0.6-1.8,1.3
	c-0.1,0.2-0.1,0.5-0.1,0.8v5.1h-1.5v-4.9c0-1.3-0.6-2.2-1.7-2.2c-0.9,0.1-1.6,0.7-1.9,1.5c-0.1,0.2-0.1,0.5-0.1,0.7v5h-1.5
	L123.2,34.7z"/>
<path class="st0" d="M142.9,28.9l-2.1,2.4h-1l1.5-2.4H142.9z M142.6,35.8c0.2-1.2-0.6-2.2-1.8-2.4c0,0,0,0,0,0h-0.3
	c-1.3,0.1-2.3,1.1-2.3,2.4L142.6,35.8z M138.2,36.8c-0.1,1.5,0.9,2.7,2.4,2.9c0,0,0,0,0,0h0.4c0.8,0,1.6-0.1,2.3-0.4l0.3,1.1
	c-0.9,0.4-1.8,0.6-2.8,0.5c-2.1,0.1-3.9-1.5-4.1-3.6c0-0.2,0-0.4,0-0.6c0-2.5,1.5-4.4,3.9-4.4c2.7,0,3.4,2.3,3.4,3.9
	c0,0.2,0,0.5,0,0.7L138.2,36.8z"/>
<path class="st0" d="M145.9,35c0-1,0-1.8-0.1-2.6h1.3l0.1,1.6l0,0c0.3-1,1.2-1.8,2.3-1.8h0.4v1.4c-0.2,0-0.3,0-0.5,0
	c-1.1,0-1.9,0.9-2,1.9c0,0.2,0,0.5,0,0.7v4.4h-1.5L145.9,35z"/>
<path class="st0" d="M151.5,32.4h1.5v8.2h-1.5L151.5,32.4z M153.2,30.1c0,0.5-0.4,0.9-0.9,0.9c0,0,0,0,0,0h-0.1
	c-0.5,0-0.9-0.4-0.9-0.9c0,0,0,0,0,0v0c0-0.5,0.4-0.9,0.9-0.9c0,0,0,0,0,0h0.1C152.7,29.2,153.1,29.6,153.2,30.1
	C153.2,30.1,153.2,30.1,153.2,30.1L153.2,30.1"/>
<path class="st0" d="M161.4,40.4c-0.7,0.3-1.5,0.5-2.4,0.5c-2.2,0.1-4-1.5-4.1-3.7c0-0.2,0-0.3,0-0.5c-0.1-2.3,1.7-4.3,4-4.4
	c0,0,0,0,0,0h0.4c0.7,0,1.4,0.1,2.1,0.4l-0.3,1.1c-0.5-0.3-1.1-0.4-1.7-0.4c-1.6,0-2.9,1.2-2.9,2.8c0,0,0,0,0,0c0,0.1,0,0.2,0,0.3
	c-0.1,1.6,1,2.9,2.6,3.1c0,0,0,0,0,0h0.3c0.6,0,1.3-0.1,1.8-0.4L161.4,40.4z"/>
<path class="st0" d="M167.5,36.5c-1.6,0-3.5,0.3-3.5,1.8c-0.1,0.7,0.5,1.4,1.2,1.4c0,0,0,0,0,0h0.2c0.9,0,1.7-0.5,2-1.4
	c0-0.2,0.1-0.3,0.1-0.5L167.5,36.5z M168.9,38.7c0,0.7,0,1.3,0.1,2h-1.3l-0.1-1l0,0c-0.6,0.8-1.5,1.2-2.5,1.2
	c-1.3,0.1-2.4-0.8-2.6-2.1c0,0,0,0,0,0c0-0.1,0-0.2,0-0.3c0-2,1.8-3.1,5-3.1v-0.2c0.1-0.9-0.5-1.8-1.5-1.9c0,0,0,0,0,0
	c-0.1,0-0.3,0-0.4,0c-0.8,0-1.5,0.2-2.2,0.6l-0.3-1c0.8-0.5,1.8-0.7,2.7-0.7c2.5,0,3.1,1.7,3.1,3.3V38.7z"/>
<path class="st1" d="M203.3,22c0.4,0,0.7,0.3,0.7,0.7c0,0,0,0,0,0c0,0.4-0.3,0.7-0.7,0.7c-0.4,0-0.7-0.3-0.7-0.7c0,0,0,0,0,0
	C202.6,22.3,202.9,22,203.3,22C203.3,22,203.3,22,203.3,22z M203.3,21.9c-0.5,0-0.9,0.4-0.9,0.9c0,0.5,0.4,0.9,0.9,0.9
	c0.5,0,0.9-0.4,0.9-0.9C204.2,22.2,203.8,21.8,203.3,21.9C203.3,21.8,203.3,21.8,203.3,21.9z M203.1,22.4h0.1c0.1,0,0.2,0,0.2,0.1
	s-0.1,0.1-0.2,0.1h-0.1V22.4z M203.1,22.8h0.1c0.1,0,0.2,0,0.2,0.1c0,0.1,0,0.1,0.1,0.2h0.2c0-0.1-0.1-0.1-0.1-0.2
	c0-0.1-0.1-0.2-0.2-0.2l0,0c0.1,0,0.2-0.1,0.2-0.2c0-0.1,0-0.1-0.1-0.2c-0.1-0.1-0.2-0.1-0.3-0.1c-0.1,0-0.2,0-0.3,0v0.9h0.2V22.8z"
	/>
<path class="st1" d="M188.3,10.1c0.6,0.1,1.2-0.3,1.4-0.8l0.7-7.8c0-0.8-0.9-1.4-2.1-1.4s-2,0.6-2,1.4l0.7,7.8
	C187.2,9.8,187.7,10.1,188.3,10.1L188.3,10.1z"/>
<path class="st1" d="M184.1,12.5c0.4-0.5,0.3-1.1-0.1-1.6l-6.4-4.5c-0.7-0.4-1.7,0.1-2.2,1.1s-0.5,2.1,0.2,2.5l7.1,3.3
	C183.2,13.4,183.8,13.1,184.1,12.5L184.1,12.5z"/>
<path class="st1" d="M192.5,12.5c0.2,0.5,0.8,0.9,1.4,0.8L201,10c0.7-0.4,0.8-1.5,0.2-2.5S199.7,6,199,6.4l-6.4,4.5
	C192.2,11.4,192.2,12.1,192.5,12.5L192.5,12.5z"/>
<path class="st1" d="M188.3,19.9c0.6-0.1,1.2,0.3,1.4,0.8l0.7,7.8c0,0.8-0.9,1.4-2.1,1.4s-2-0.6-2-1.4l0.7-7.8
	C187.2,20.1,187.7,19.8,188.3,19.9L188.3,19.9z"/>
<path class="st1" d="M192.5,17.4c0.2-0.5,0.8-0.9,1.4-0.8l7.2,3.4c0.7,0.4,0.8,1.5,0.2,2.5s-1.6,1.5-2.2,1.1l-6.4-4.5
	C192.2,18.6,192.2,17.9,192.5,17.4L192.5,17.4z"/>
<path class="st1" d="M184.1,17.4c0.4,0.5,0.3,1.1-0.1,1.6l-6.4,4.5c-0.7,0.4-1.7-0.1-2.2-1.1s-0.5-2.1,0.2-2.5l7.1-3.3
	C183.2,16.6,183.8,16.9,184.1,17.4L184.1,17.4z"/>
</svg>
