<?xml version="1.0" encoding="utf-8"?>
<!-- Generator: Adobe Illustrator 25.2.1, SVG Export Plug-In . SVG Version: 6.00 Build 0)  -->
<svg version="1.1" id="Layer_2_1_" xmlns="http://www.w3.org/2000/svg" xmlns:xlink="http://www.w3.org/1999/xlink" x="0px" y="0px"
	 viewBox="0 0 808.5 541" style="enable-background:new 0 0 808.5 541;" xml:space="preserve">
<style type="text/css">
	.st0{fill:#EEF2F4;}
	.st1{fill:#A6A8AB;}
	.st2{opacity:0.85;}
	.st3{fill:#055598;}
	.st4{fill:none;stroke:#FFFFFF;stroke-miterlimit:10;}
	.st5{fill:#47C3D3;}
	.st6{fill:none;stroke:#FFFFFF;stroke-width:0.5;stroke-miterlimit:10;}
	.st7{fill:#002F87;}
	.st8{fill:none;stroke:#58595B;stroke-miterlimit:10;}
	.st9{fill:#58595B;}
	.st10{fill:none;stroke:#6D6E70;stroke-miterlimit:10;}
	.st11{fill:#6D6E70;}
	.st12{fill:none;stroke:#58595B;stroke-width:0.5;stroke-linecap:round;stroke-miterlimit:10;}
	.st13{fill:#6FCBDC;}
	.st14{fill:none;stroke:#58595B;stroke-width:0.4197;stroke-linecap:round;stroke-miterlimit:10;}
</style>
<path class="st0" d="M9.5,0.1c-2.9,0-5.3,2-5.3,4.4v532.1c0,2.4,2.4,4.4,5.3,4.4h788.6c2.9,0,5.3-2,5.3-4.4V4.4
	c0-2.4-2.4-4.4-5.3-4.4L9.5,0.1L9.5,0.1z"/>
<g>
	<g>
		
			<image style="overflow:visible;opacity:0.12;" width="381" height="329" xlink:href="B6D3E6A5BFA75769.png"  transform="matrix(1 0 0 1 29.0683 29)">
		</image>
		<g>
			<g>
				<path class="st1" d="M344.2,287.9c0,0.3,0,0.6,0,0.9c0.5-0.2,1-0.3,1.7,0c0.2,0.1,0.4,0.2,0.6,0.3c0.7,0.1,1.6,0.3,2.4,0.5
					c0.6,0.2,1.5,0.4,1.7,0.4c1.6-0.1,1.9-0.6,2.1-1.5c0.1-0.4,0.1-1.1,0-1.7c-0.1-1.4-0.1-2.9,0.8-4.2c0.9-1.3,2.1-1.3,2.8-1.3
					c0.2,0,0.3,0,0.5,0c0.4-0.1,0.4-0.1,0.6-0.4c0.2-0.3,0.5-0.8,1.1-1.3c2.1-1.7,4.4-0.6,6,0.2c0.7,0.3,1.4,0.7,1.8,0.7
					c1.8,0.1,4.2-1.7,5.7-2.7c0.4-0.3,0.4-0.5,0.5-1.2c0.1-0.4,0.1-0.9,0.3-1.3c0.7-2.2,2.2-2.2,2.9-2.3c0.3,0,0.4,0,0.6-0.1
					c0,0,0.2-0.3,0.3-0.5c0.4-0.7,1-1.8,2.3-2c2.1-0.3,2.9,1.5,3.3,2.3c0,0.1,0.1,0.2,0.1,0.3c0.1-0.1,0.1-0.1,0.2-0.2
					c0.3-0.2,0.5-0.4,0.8-0.5c0.9-0.5,1.4-0.6,2.4-0.7c0.3,0,0.7-0.1,1-0.1c1.9-0.1,2-0.3,2.2-0.9c0.6-2.3,2.2-3.4,4.6-3.1
					c0.5,0,0.8,0.2,1.1,0.3c0.1,0,0.3,0.1,0.4,0.1c0.3,0,0.7,0,1.2,0c0.2,0,0.5,0,0.7,0c0.2-3-0.5-5.7-4.4-4.4
					c0.1,0.5-0.1,1.1,0,1.5c-2.2,0.5-2-0.7-3.4-1.3c-1.7-0.8-3.5-0.4-5.3-0.8c-0.2-2.1,4.5,0.1,5.1-2.6c0.9-4.1-5-1.6-7.3-1.8
					c-3.9-0.3-7.8-0.3-11.8-0.5c-3.6-0.2-4.3-3.1-7.9-2.9c0.3,2-0.4,1.5-1.3,2.1c-1.4,0.8-3.5,1.4-5.2,1.6
					c-3.6,0.2-7.1-0.4-10.7-0.3c-1.4,1.5-3.1,2.5-4.7,3.3c-1.4,0.8-2.8,1.5-3.9,2.6c-1.5,1.5-2.7,2.4-4.5,3.4
					c-0.2,0.1-0.4,0.2-0.7,0.4c-0.7,0.4-2.5,1.3-2.6,1.9c-0.1,0.4,0,0.8,0,1.4c0.1,1.1,0.2,2.4-0.5,3.6c-0.2,0.3-0.4,0.5-0.6,0.7
					c0.1,0,0.1,0,0.2,0c0.8,0.1,1.7,0.4,2.5,0.7c0.4-0.3,0.9-0.5,1.6-0.5c1.2,0.1,1.9,0.4,2.7,0.9l0.4,0.2c0.1,0.1,0.3,0.1,0.4,0.1
					c0.5,0.1,1.1,0.3,1.6,0.7c1,0.8,1.2,1.8,1.3,2.5c0,0.1,0,0.2,0.1,0.2c0,0,0.1,0,0.1,0c0,0,0.1,0,0.1,0c0.1-0.6,0.4-1.5,1.2-2.3
					c0.7-0.6,1.6-0.8,2.6-0.7c1.4,0.2,2.8,1,3.6,2.1c1.5,2.2,0.2,4.1-0.5,5.3C344.6,285.8,344.3,286.8,344.2,287.9z"/>
				<path class="st1" d="M330.1,240.3c0,1.8-0.3,3.6-0.5,5.3l-0.1,0.9c-0.4,2.7-0.4,5.4-0.4,7.8c0,0.1,0,0.3,0,0.4
					c0.7,0.1,1.6,0.1,2.4,0.1c0.3,0,0.6,0,0.9,0c0.7-0.8,2.3-1.5,3.2-1.9c1.4-0.7,3.3-1.1,4.3-2.5c0.6-1,0.3-1.6,0.5-2.7
					c0.4-1.7,1.5-3.5,0.8-5.3c-0.5-1.3-1.9-1.6-2-3c-0.1-0.8,0.8-1.5,0.9-2.3c0.3-1.6-0.1-3.4,0.2-5c0.3-1.2,0.9-2.7,0.6-3.7
					c-0.7,0.4-1.4,0.6-2.1,0.8c-0.2,0.1-0.5,0.1-0.7,0.2c-0.3,0.1-0.5,0.1-0.8,0.1c0,0.1,0,0.2-0.1,0.3c-0.3,0.8-0.7,1.4-1.3,1.9
					c-0.2,0.1-0.3,0.3-0.4,0.4c-0.1,0-0.1,0.1-0.1,0.1c0,0,0,0,0,0.1c-0.5,1.8-2.6,2.7-4.3,2.6c-0.4,0-0.8,0.1-1.1,0.2
					c0.4,1.2,0.3,2.7,0.2,4C330.1,239.6,330.1,240,330.1,240.3z"/>
				<path class="st1" d="M294,260.8c0.1-0.3,0.3-0.7,0.4-1.2c0.3-1.1,0.7-2.9,2.6-3.5c0.6-0.2,1.2-0.2,1.7-0.2c0.1,0,0.2,0,0.3,0
					c0-0.1,0.1-0.1,0.1-0.2c0.2-0.4,0.5-1.1,1.2-1.5c1.2-0.8,3-0.7,5.2-0.6c1.8,0.1,2.3,0,3.5-0.3l0.4-0.1c1.3-0.3,2.3,0.5,2.8,0.9
					c0.2,0.1,0.4,0.3,0.5,0.4c0.1,0,0.2-0.1,0.4-0.3c0.4-0.5,0.5-1.4,0.3-2.2c-0.2,0-0.3,0-0.5,0l-0.5-0.1c-1.3-0.2-2.8-0.4-3-2.6
					c0-0.3-0.1-0.6-0.1-0.8c0,0,0,0,0,0c-0.4,0-1-0.1-1.6-0.4c-1.2-0.7-1.9-2.1-2.1-3.4c-1.6-0.7-4-2-3.7-4.1
					c0.1-0.7,0.7-1.3,1.5-1.3c1,0,1.9,0,2.9,0c0,0,0.1,0,0.1,0c0-0.4-0.1-0.8-0.1-1.3c-0.1-0.9-0.2-1.8-0.2-2.8
					c0-0.7,0.4-1.2,1.1-1.5c2.4-0.8,5.4-0.6,8.1-0.4c2.4,0.2,4.2,0.2,6.2,0.2c1.9,0,3.8,0.1,5.6,0c0.1-0.1,0.2-0.3,0.3-0.4
					c1.3-1.4,3.7-1.2,3.9-1.2c0.5,0,1.1-0.2,1.2-0.4c0.3-1,0.7-1.4,1.2-1.8c0.1-0.1,0.2-0.1,0.3-0.2c0.1-0.1,0.3-0.3,0.3-0.5l0-0.1
					c0-0.4,0-0.9,0.3-1.4c0.5-0.9,1.6-1,2.3-1.1c0.1,0,0.3,0,0.4,0c0.2-0.1,0.5-0.1,0.8-0.2c0.7-0.2,1.4-0.4,1.8-0.7
					c0.4-0.4,1-0.6,1.6-0.4c0.4-0.5,0.8-0.9,1.5-1.2c-0.5,0.8-0.7,1.3-0.7,1.8c0.2,0.2,0.3,0.5,0.3,0.8c0.6,0.8,1.8,1.2,2.5,2.1
					c0.7,0.9,1,4.3,3,2.3c1.1-1.1,0.3-4.8,0.7-6.4c0.6-2.1,2.8-3.8,1.9-6.2c-0.6,0.2-1.2,0-1.8,0.1c-1-2.6,2.7-1.9,3.1-3.9
					c0.6-3.1-2.7-2.1-4.1-2.5c-0.3-1.8,0.9-1.7,2.1-2.3c1.7-0.9,1.4-0.8,2-2.2c0.4-0.9,0.3-1.2,0.8-2c0.5-0.8,1.3-1.5,2-2.2
					c2.1-2.1,5.5-4.2,6.8-7.1c0.7-1.5,0.7-6-2.1-4.9c-0.2-1.8,0.3-4.4-1.7-5c-1.5-0.4-3.2,1.1-4.8,1.2c-1.8,0-4.1-1.3-6.1-0.5
					c-0.5,0.2-1.2,1.2-1.8,1.6c-1.2,0.6-2.3,1.5-3.5,0.9c-2.2-1.1-3.1,0.6-4.9,1.3c-1.6,0.6-4-0.4-5.7-0.4c-3,0.1-6.5,0.3-9.2,1.6
					c-0.7,0.3-1.9,0.9-1.6,1.8c0.2,0.8,1.4,0.8,2.1,1c0,1.4-2.3,2.3-3.1,3.2c-1.5,1.5-1.5,3.2-1.2,5.2c0.3,2.2,0.8,4-1.4,5.2
					c-1.8,1-2.3,0.8-2.3,2.8c0,2.2,0.6,5.9-1.9,6.7c-1.3,0.4-2.7,0.4-4,0.7c-1.2,0.2-3.5,1.3-3.8,2.7c-0.2,1,1.1,1.7,1.1,2.7
					c0.1,1-0.5,2.5-1,3.2c-1,1.3-1.8,0.7-3.2,0.6c-1-0.1-1.6,0.4-1.7-0.8c-0.1-0.9,0.6-1,0.8-1.7c0.1-0.4,0-1.5-0.3-1.8
					c-0.7-0.8-0.7-0.1-1.6,0.1c-1.4,0.3-3.4-0.9-4.8-0.2c-0.8,0.4-0.8,1.7-1.6,2c-1.2,0.5-3-0.5-4.2,0.3c-0.9,0.6-0.8,1.5-1.8,1.7
					c-1.1,0.2-2.3-0.2-3.4,0c-1.3,0.2-1.4,0.9-2,1.9c-0.3,0.5-0.1,0.7-0.8,1.1c-0.6,0.3-2.8,0.1-3.3-0.2c-0.7-0.4-0.9-0.9-1.8-1.1
					c-0.6-0.1-1.7-0.1-2.3,0.1c-0.9,0.4-1,1.4-1.7,1.8c-0.7,0.4-2.6-0.3-3.2-0.7c-1.6-1.1-2.3-3.4-2.6-5.2c-0.3-1.8-1.5-2.1-3.2-2.8
					c-1.6-0.7-2.8-0.3-4.4-0.4c-1.7-0.1-3.2-1-4.3-2.2c-1.7-1.8-1.8-4.1-2.6-6.3c-0.8-2-2-3.4-3.4-5c-1.4-1.7-1-2.6-1.4-4.5
					c-0.3-1.5-1.7-2.1-2.8-2.9c-2.1-1.4-3.5-4.6-3.9-7.1c-0.2-1.5,0.6-3.1,0.2-4.6c-0.5-2-2.1-2.7-1.7-4.9c0.2-1.6-0.3-1.9-0.4-3.4
					c-0.2-3.7-0.6-7.8-0.3-11.3c0.3-3.9-1-8.1-0.3-11.9c0.4-2.4,2.3-4.2,2.7-6.6c0.3-1.6,0.4-3.3,0.8-4.8c0.3-1.6,0-3.7,0.5-5.3
					c0.7-2.6,1.3-1.5,3.4-2.7c0.9-0.5,1.7-1,2.1-1.8c-0.5-0.2-1-0.5-1.5-0.9c-0.4-0.3-0.7-0.6-0.9-0.9c0,0-0.1-0.1-0.1-0.1
					c0,0-0.1,0-0.1,0c-0.4-0.1-1-0.2-1.6-0.6c-0.6-0.4-1.2-0.9-1.6-1.3c-0.4-0.3-0.9-0.8-1.1-0.8c-0.2,0-0.4-0.1-0.7-0.1
					c-1.4-0.2-3.7-0.6-4.8-2.6c-1-0.7-2.2-1.3-3.4-1.8c-2.1-0.9-4.4-2-6.1-4.1c-2.3-2.7-1.7-5.9-1.3-8.4c0.3-1.6,0.5-3.1,0.1-4.1
					c-0.1-0.2-0.5-0.5-0.9-0.8c-0.7-0.5-1.5-1-2.2-2c-0.5-0.8-0.7-1.6-0.8-2.2c0-0.2-0.1-0.3-0.1-0.5c-0.2-0.7-0.7-1.5-1.3-2.3
					c-0.5-0.7-1.1-1.5-1.5-2.5c-1-2.2-1.5-4.6-2-7c-0.1-0.5-0.2-1-0.3-1.5c-0.3-2-0.8-4.8-1.9-5.8c-0.1,0-0.2-0.1-0.4-0.2
					c-0.5-0.2-1.4-0.6-2.1-1.6c-0.7-1-1-2.1-1.3-2.9c-0.3-1-0.5-1.5-0.8-1.7c-0.3-0.2-1-0.3-1.5-0.4c-3.6-0.6-6.9-0.2-10,1.3
					c-1.8,0.9-1.9,1.4-2.5,4.2c-0.3,1.3-1.1,3.2-4.1,2.9c-0.6,1.1-1.5,1.6-2.7,1.7c-1.3,0.1-2.7-0.5-3-0.6c-1.5-0.6-2.8-1.5-4.1-2.3
					c-1.1-0.7-2.2-1.4-3.4-1.9l-0.4-0.2c-2.3-1-5.8-2.6-6.8-5.9l-0.2-0.6c-0.1-0.4-0.3-1-0.4-1.1c-0.1-0.1-0.1-0.1-0.2-0.1
					c-0.3-0.2-0.8-0.5-1.2-1c-1.2-1.5-0.8-3.3-0.6-4.3c0.1-0.3,0.2-0.7,0.2-0.8c0-0.3-0.4-1-0.7-1.5c-0.7-1.1-1.6-2.7-1.2-4.6
					c-2.3-0.8-4.1-2.8-4.7-5.2c0-0.2-0.1-0.4-0.1-0.6c0-0.2-0.1-0.3-0.1-0.5c0,0-0.3-0.1-0.5-0.2c-0.6-0.3-1.4-0.8-2-1.7
					c-0.6-0.9-0.8-1.8-0.9-2.5c0-0.2,0-0.3-0.1-0.5c-0.2-1-2.3-2.9-3.7-3.5c-0.3-0.1-0.4-0.1-0.4-0.1c-0.2,0-0.3,0-0.5,0l-0.2,0
					c-0.5,0-1.2,0-3.3-0.2c-2.6-0.2-9.8-0.9-12.5-0.5c-0.1,1.1-0.5,2.4-1.3,3.3c-0.7,0.8-1.6,1.2-2.5,1.2c-0.7,0-1.5,0.1-2.3,0.2
					c-0.9,0.1-1.9,0.3-3,0.3c-5.3,0-10.7-0.2-15.9-0.4c-1.7-0.1-3.5-0.1-5.2-0.2c-6.2-0.2-11.1-1.5-15.9-4.1c-1-0.5-1.8-1.2-2.6-1.8
					c-0.8-0.7-1.6-1.3-2.5-1.6c-0.5-0.2-1.1-0.3-1.8-0.4c-1.5-0.2-3.3-0.6-4.8-2c-0.4-0.4-0.7-0.8-1-1.1c-0.3-0.4-0.4-0.5-0.6-0.6
					c-0.6-0.3-1.4-0.4-2.2-0.6c-1.5-0.3-3.2-0.6-4.7-1.8c-0.4-0.3-0.7-0.6-1-0.9c-0.2-0.3-0.4-0.4-0.5-0.5c-0.2-0.1-0.6-0.3-1.1-0.4
					c-0.9-0.3-2.1-0.7-3-1.6c-0.5-0.5-0.8-1-1-1.3c-1.3-0.3-2.7-0.3-4.1-0.2c-1,0-2,0.1-3,0c-1.5-0.1-2.9-0.3-4.2-0.6
					c-1.3-0.2-2.6-0.4-3.8-0.5c-1.8-0.1-3.6-0.1-5.5,0c-2.1,0-4.3,0.1-6.5-0.1c-0.4,0-0.8,0-1.3,0c0.2,1.2,0.2,2.3,0.1,3.7
					c-0.1,0.9,0,1.6,0.3,2.3c0.3,0.6,1.2,0.7,1.3,1.4c0.6,0.4,3.3,2.5,2.4,3.4c-0.5,0.5-1.2-0.2-1.4,0.7c-0.1,0.7,0.3,1.7,0.4,2.4
					c0.2,1.2,0.9,2.3,2,2.9c0.8,0.5,2.1,1.1,1.8,2.2c-0.2,0.7-1,0.5-1.1,1.1c-0.2,0.9,1.2,1.3,1.7,1.8c2.3,2,1.1,3.8,0.9,6.1
					c-0.1,0.9,0.3,1.7,0.8,2.4c0.5,0.8,0.6,1.6,0.8,2.4c0.1,0.5,0.1,1.1,0.1,1.7c0,1.4-0.2,2.9,0.8,4c0.4,0.4,0.7,0.7,0.9,1.2
					c0.3,0.5,0.5,1.1,0.9,1.5c1.4,1.3,4.4,0.8,6.1,1.9c-0.1,2.3,0.8,2.6,1.8,4.6c0.7,1.3,0.5,2.2,1.5,3.4c1.3,1.5,1.3,3.2,2.8,4.5
					c0.5,0.4,1.6,0.7,1.8,1.3c0.4,0.9-1,1.9-0.6,2.8c-1.6,0.1-0.2,2.1-0.2,2.9c0,0.9-0.2,1.1-1,1c-0.8,0-1.6,0-2.3,0.4
					c-0.4,0.2-0.8,0.5-0.6,1c0.4,0.8,1.7,0.7,2.3,0.9c0.7,0.2,0.8,0.8,0.2,1.5c-0.8,1-1.7-0.1-2.3-0.6c-0.5-0.3-0.9-0.6-1.5-0.4
					c-0.4,0.1-0.8,0.4-1.3,0.3c-0.4-0.1-0.6-0.4-0.9-0.5c-0.6-0.3-1.5-0.2-2.1-0.2c-0.8,0-3.9,0.2-2.3,1.3c0.4,0.3,0.8,0.5,1.2,0.8
					c0.4,0.4,0.5,1,0.8,1.4c0.4,0.6,0.6,0.3,1.1,0.5c0.4,0.2,0.4,0.7,0.7,1.1c0,0.5,0.2,1,0.4,1.4c0.3,0.6,0.3,1.1,0.3,1.8
					c0,0.6,0,0.9,0.4,1.3c0.8,0.7,1.7,0.7,2.7,0.7c0.9,0,0.6,0.2,1.1,0.8c0.5,0.4,1.3,0.7,1.9,0.8c0.5,0.1,1.1-0.1,1.5,0.4
					c0.3,0.4,0.3,1,0.4,1.4c0.4,1.2,1.8,1.8,3,1.6c0.6-0.1,1.2-0.2,1.5-0.8c0.3-0.5,0-1.1,0.3-1.6c0.6-0.8,2-0.4,2.2,0.5
					c0.3,1.4-0.7,2.6-0.6,4c0.1,1,1.4,1.1,1.8,2c0.8,1.9,2.5,2.4,4.4,2.8c0.7,0.2,1.3,0.4,1.7,1.1c0.2,0.4,0.3,0.9,0.6,1.4
					c0.3,0.5,0.8,0.9,1.2,1.3c1.3,1.6,2,3.5,1.4,5.5c-0.5,1.5-0.7,3.1-1.1,4.7c-0.3,1-0.7,1.9-1.3,2.8c-0.5,0.7-1.2,2.6-0.8,3.4
					c0.5,1,2.3,1.5,3.4,1.5c0.9,0,2.4,0,3,0.6c0.7,0.6,0.6,1.7,0.9,2.5c0.7,1.8,2.8,1.9,3.8,3.4c0.7,0.9,0.8,2.2,1.6,3.1
					c0.7,0.8,1.4,1.1,2.2,1.7c0.6,0.4,0.5,0.4,0.8,1c0.4,0.9,1,1,1.8,1.5c1.3,0.7,1.9,1.9,2,3.3c0.1,0.8,0.1,1,0.6,1.6
					c0.6,0.7,0.9,1.1,1,2c0.1,1.4,0.1,2.5,1.5,3.2c0.9,0.5,1.3,0.1,1.8-0.5c1.1-1.3,2.7-0.8,4.1-1.5c1.8-0.8,1.3-3.8,1.3-5.4
					c0-1.4-0.5-1.3-1.6-1.9c-1-0.5-1-1.2-1.3-2.2c-0.4-1.2-1.6-1.5-2.5-2.4c-0.7-0.7-0.4-1.2-0.6-2.1c-0.2-0.7-0.9-1.3-1.6-1.3
					c-1,0.1-0.3,0.7-0.6,1.5c-0.7-0.1-1.3-0.6-2-0.9c-0.9-0.4-1.8-0.7-2.4-1.5c-0.5-0.8-0.5-1.8-1-2.7c-0.4-0.8-1.1-1.3-1.1-2.4
					c0.1-1,1-1.7,1.1-2.7c0.3-1.6-1.7-1.8-1.4-3.3c0.1-0.7,0.5-1.3,0.2-2.1c-0.2-0.5-0.8-0.8-0.9-1.3c-0.2-0.6,0.5-1.2,0.1-1.8
					c-0.4-0.7-1.5-0.7-1.7-1.5c-0.3-0.9,0.1-2.3,0.1-3.3c0-1.3-0.2-2.1-0.8-3.3c-1-2,0.6-3.8,0.3-5.8c-0.1-0.9-0.5-1.1-1.1-1.6
					c-0.5-0.4-0.5-0.5-0.5-1.2c0-0.6,0.1-1.2-0.3-1.7c-0.4-0.5-1.5-0.7-1.9-0.1c-0.3,0.5,0.2,1.4,0,1.9c-0.2,0.6-1,1-1.6,0.5
					c-0.6-0.5-0.1-1.7-0.6-2.4c-0.5-0.6-1-0.7-1.1-1.5c-0.1-0.5,0.1-1,0.2-1.5c0.1-1.3-0.6-1.8-1-2.9c-0.4-1.2,0.8-2.6,0-3.7
					c-0.4-0.6-1.2-0.6-1.7-1c-0.5-0.4-0.5-0.7-0.7-1.2c0.3-2.2-1.6-0.7-2.4-1.8c-1.5-2.1,0.8-4.7-0.2-6.9c-0.4-0.9-1.6-1.2-2-2
					c-0.5-1-0.3-2-0.2-3.1c-1-0.5-2.1-0.4-3.2-0.7c0.2-1.7-2.1-2.4-2.6-3.8c-0.6-1.6,0.7-2.8,0.6-4.2c-0.3-3.4-4.5-1.8-6.1-4.2
					c-0.3-0.4-0.5-1.9-0.7-2.5c-0.3-0.8-0.9-1.2-1.1-2.1c-0.3-1.3,0-1.9-0.7-3.1c-0.8-1.4-1.5-1.6-1.6-3.3c-0.1-1.5,0.6-2.8,0.7-4.3
					c0-1.6-0.7-2.8-0.9-4.3c-0.3-1.8,0.3-3.2,1-4.8c0.7-1.8,0.5-3.6,1.1-5.3c1.2-3.5,3.3-0.5,4.8,1.3c2.2,2.6,3.9-0.5,6.4,1.2
					c1.1,0.7,1.3,1.9,2.7,2.5c0.9,0.4,3.8,0.5,4.3,1.3c1.2,1.8-1.8,3.3-2.3,4.4c-0.5,1.2-0.1,2.3,0.2,3.2c0.5,1.5,0.9,1.9,0.9,3.7
					c0.1,1.4-0.6,3.5,1.4,3c0.7,2.7,1.1,5.5,2.3,8.2c0.8,1.9,2,3.3,2.8,5.1c0.5,1.2,0.5,2.1,1.2,3.3c1,1.7,0.5,3.4,1.3,4.9
					c0.6,1.1,2.2,1.4,2.9,2.3c0.7,0.8,0.6,1.5,0.9,2.3c1,2.7,1.8,3.5,4.6,4.4c1.9,0.6,4.7,1.2,5.5,3.4c0.6,1.8-0.2,4.5,0,6.4
					c0.3,3.4,2.8,3,3.9,5.6c0.6,1.6-0.2,2,1.7,2.7c1,0.4,2.4,0.1,3.5,0.3c4.1,1,1.2,2.3,2.4,4.5c-0.1,1.2,2.4,1.1,3.1,1.5
					c1.1,0.6,0.4,1.9-0.6,2.2c-1,0.3-2-0.3-2.9,0.4c-0.6,0.5-1.3,1.5-1.7,2.2c-0.5,0.9-1.2,3-0.5,4c0.6,0.8,2.4,0.8,3.3,1.1
					c1,0.4,1.9,1.5,2.9,2.3c0.8,0.6,1.8,1,2.5,1.6c0.4,0.4,0.4,0.8,0.9,1.1c1.2,0.8,2.7,0.7,4.1,0.8c1.2,0,1.9,0.9,1.9,2.2
					c1.5,1.4,0,3.5-1.3,4.3c-0.8,0.4-1.7,1.4-0.6,2.1c1.2,0.8,3-0.3,4.2,0.4c0.5,0.3,0.8,1.3,1.1,1.7c0.5,0.8,1.1,1,1.7,1.7
					c0.4,0.4,0.7,1,1.2,1.4c0.6,0.6,1.3,1.6,2,2c0.3,0.7,0.4,1.3,0.9,1.8c0.5,0.6,1.1,1.1,1.6,1.7c1,1.1,1.8,2.5,2.3,3.9
					c0.8,2,2.1,3.7,3,5.7c0.7,1.8,0.4,2.9,2,4.3c1.2,1.1,3.4,1.9,4,3.6c0.5,1.7-0.8,3.1-0.9,4.6c0,1.8,1.3,3.2,2.1,4.7
					c1.1,2.3,4.2,6.7,2.1,9.1c-1,1.1-4.4,1.2-4.6,3.2c-0.2,1.5,3,2.2,4.5,2.1c0.7,2.4-3,2-4.5,2.5c-1.5,0.5-1.3-0.2-1.6,1.6
					c-0.2,0.9,0,2,0.3,2.8c0.6,2.2,2,3.7,3.6,5.1c2,1.8,1.8,3.4,3.5,5.1c1.2,1.2,2.8,2.6,4.6,2.8c0.6,0.1,2.1-0.3,2.6,0.2
					c0.5,0.5,0,1.2,0.8,1.6c1.8,1,4.1,0.2,5,2.4c0.3,0.8,0.5,1.1,1.2,1.6c0.8,0.6,2,1.1,2.2,2.2c0.1,0.5-1.1,3.6,0.3,3.3
					c0.4,0.2,0.8,0.2,1.3,0.2c1.4,0.2,2.3,1,3.5,1.7c0.9,0.5,1.6,0.8,2.6,0.8c2,0.1,3.8,0.9,5.8,1c0.7,0,1.5-0.1,2.2,0
					c0.9,0.1,0.8,0.6,1.4,1.2c1.2,1.2,3.1,1.7,4.5,2.6c1,0.6,1.8,1.6,2.8,2.3c2.5,2,4.9,4.8,8.2,5.5c1.6,0.3,3.3,0,4.9,0.3
					c1.1,0.1,2.2,0.3,3.3,0.7c1,0.4,1.3,1.2,1.6,2.2c1,2.5,4.7,1.4,6.8,1.9c0.8,0.2,1.8,0.6,2.2,1.4c0.4,0.8,0.8,2,1.6,2.4
					c1,0.5,2.5,0,3.5,0.2c1.2,0.3,1.9,1.2,2.8,1.9c2.2,1.6,5.7,1.3,8.4,1.8c2.2,0.4,3.7,1.4,5.6,2.4c1.3,0.7,2.5,0.5,3.9,1.1
					c1.6,0.8,2.6,1.2,4.5,0.7c1.7-0.4,2.9-1.6,4.4-2.2c0.7-0.3,1.6-0.2,2.3-0.5c0.6-0.3,0.8-0.9,1.4-1.3c1.5-1.1,8.5-0.7,8.8-1.7
					c-0.8-0.6-4.5-0.9-4.1-1.8c0.2-0.5,2.1-0.3,2.5-0.3c1.4,0.1,0.9,0.6,1.8,1.1c1.1,0.7,2.6,0.1,3.8,0.8c1.1,0.7,2.7,3.7,4.1,2.9
					c-0.3-1-1.3-2-2.1-2.6c-0.8-0.6-2.3-0.8-2.5-1.9c1.1-0.7,3.8,0.7,4.7,1.4c1.7,1.2,2.9,2.9,4,4.6c1,1.7,0.6,3.3,2.7,4.3
					c1.5,0.7,5.6,0.3,5.1,2.8c1.7,2.2,4,3.9,6.1,5.7c0.1-0.1,0.2-0.2,0.3-0.4c0.5-0.8,0.5-2.5,0.5-4c0-1.1,0-2.2,0.2-3.2
					c0.3-1.4,1.1-2.3,1.7-3C293.5,261.5,293.8,261.1,294,260.8z"/>
				<path class="st1" d="M317.6,278.3c1.2-1.2,2.5-1.5,3.6-1.8c0.6-0.1,1.1-0.3,1.6-0.5c0.3-0.1,0.4-0.3,0.7-0.8l0.3-0.4
					c0.2-0.3,0.5-0.6,0.8-0.9c0.2-0.2,0.4-0.4,0.5-0.6c0.2-0.3,0.2-1.1,0.1-1.8c0-0.6-0.1-1.3,0-2c0.3-2.1,2.6-3.3,4.2-4.2
					c0.2-0.1,0.4-0.2,0.6-0.3c1.6-0.9,2.5-1.5,3.8-2.8c1.4-1.4,3-2.3,4.6-3.2c0.5-0.3,1-0.6,1.5-0.8c-1.3-0.1-2.8-0.1-4.2-0.1
					c-1.1,0-2.2,0.1-3.3,0c-0.4,0-0.7,0-1.1,0c-1.5,0-3.2,0-4.7-0.7c-0.4-0.2-0.7-0.5-0.8-0.9c-0.2-0.6-0.2-1.2-0.1-1.7
					c0-0.1,0-0.2,0-0.3c0-2.5,0-5.4,0.5-8.3l0.1-0.9c0.2-1.7,0.5-3.2,0.5-4.8c0-0.4,0-0.9,0.1-1.4c0-0.5,0.1-1.5,0.1-2.3
					c-1.9,0.1-3.8,0-5.7,0c-2,0-4,0-6.3-0.2c-1.9-0.1-4.1-0.3-5.8,0c0,0.4,0.1,0.8,0.1,1.3c0.1,1,0.2,2.1,0.1,3.2
					c0,0.8-0.7,1.4-1.4,1.5c0.4,0.3,0.6,0.8,0.6,1.2c0,0.9,0.4,1.6,0.6,1.8c0,0,0.1,0,0.2,0c0.5,0,1.5,0.1,2.3,1
					c0.2,0.2,0.6,0.7,0.8,2.4c0.1,0,0.2,0,0.4,0.1l0.6,0.1c0.2,0,0.4,0,0.6,0c0.7,0,1.8-0.1,2.4,0.9c0.4,0.7,0.3,1.4,0.1,1.9
					c0.3,1.6,0,3.2-0.9,4.4c-0.8,1-1.8,1.5-3.1,1.6c-1,0-1.8-0.6-2.3-1c-0.1-0.1-0.3-0.2-0.4-0.3l-0.2,0c-1,0.2-1.8,0.4-3.1,0.4
					c-0.4,0-0.8,0-1.3-0.1c-0.8-0.1-2.8-0.2-3.3,0.1c0,0,0,0.1-0.1,0.2c-0.2,0.4-0.5,1-1.1,1.4c-0.8,0.5-1.7,0.5-2.2,0.5
					c-0.2,0-0.4,0-0.5,0c-0.2,0.1-0.3,0.4-0.6,1.3c-0.1,0.6-0.3,1.2-0.6,1.8c-0.4,0.7-0.9,1.3-1.3,1.8c-0.5,0.6-0.9,1-1,1.5
					c-0.1,0.7-0.1,1.6-0.1,2.6c0,1.9,0,4.1-1,5.7c-0.2,0.3-0.4,0.6-0.6,0.8c0.4,0.4,0.9,0.9,1.1,1.4c0.4,0.9,0.3,1.9,0.9,2.7
					c0.8,1.1,2.9,2.4,4.2,2.5c0.6,0.1,1.4-0.1,2,0c0.6,0.1,1.1,0.7,1.6,1c2,1.3,3.8,0.5,6.1,0.5c1.4,0,2.7,0.6,4,0.9
					c0.2-0.6,0.4-1.2,0.8-1.9c0.7-1.1,1.8-1.8,2.7-2.4C316.7,279,317.3,278.7,317.6,278.3z"/>
				<path class="st1" d="M363.4,313.7c0.7-1.4,1.8-2,2.5-2.2c1.8-0.5,3.8,0.4,5.1,1.2c1.5,1,3.4,0.9,5.4,0.9c0.8,0,1.6,0,2.5-0.1
					c1-0.1,2.2-0.2,3.3,0.1c1.7,0.5,2.3,1.5,2.7,2.3c0.1,0.2,0.2,0.4,0.3,0.5c0.5,0.7,1,1,2,1.1c0.4,0,0.9,0,1.4-0.2
					c0-0.1,0-0.2,0.1-0.3c0.1-0.9,0-1.6-0.7-2.2c-0.7-0.7-1.5-1.5-1.3-2.6c0.1-0.7,0.5-1.7,1.1-2.1c1.2-0.8,2.1-1,2.3-2.6
					c0.1-0.8-0.5-2.1-1.3-1.2c-0.6,0.7-0.8,2.1-2,1.9c-0.3-0.8,0.4-1.2,0.6-2c0.1-0.4,0-1,0.1-1.4c0-0.7,0.2-0.9,0.5-1.5
					c0.7-1,0.6-1.8,0.6-2.9c0-0.6,0.9-3.5,1.6-2.8c0.6,0.6-1.3,5.2,0.9,4.4c0.7-0.2,1.3-0.9,1.7-1.4c0.5-0.7,0.4-1.3,0.2-2
					c-0.3-1.6-0.3-3.2-0.3-4.9c0-1.2,0.7-3.3-0.1-4.4c0.2-0.8-1.3-1.1-1.5-1.9c-0.2-0.7,0.3-0.8,0.7-1.2c0.6-0.6,0.4-1.5,0.4-2.2
					c1.8-1.1,7.7-3.7,5.6-6.3c-1-1.3-1.9-0.4-2.2-2.3c0-0.2,0.4-1.6,0.4-2.2c0.1-0.6,0.2-1.4,0.3-2.3c-0.1,0-0.1,0-0.2,0
					c-0.6,0-1.2,0.1-1.8,0c-0.4-0.1-0.8-0.2-1.1-0.3c-0.1,0-0.2-0.1-0.3-0.1c-0.8-0.1-0.9,0-1.2,0.8c-0.7,2.9-3.3,3.1-5,3.2
					c-0.3,0-0.6,0-0.9,0.1c-0.8,0.1-0.8,0.1-1.3,0.3c-0.1,0.1-0.3,0.2-0.4,0.3c-0.6,0.5-1.8,1.4-3.3,0.7c-1-0.4-1.4-1.4-1.8-2.1
					c0,0,0-0.1,0-0.1c-0.3,0.6-0.7,1.3-1.5,1.7c-0.8,0.4-1.5,0.5-1.9,0.5c0,0,0,0,0,0c0,0,0,0.1,0,0.1c-0.1,0.3-0.1,0.6-0.2,0.9
					c-0.1,0.9-0.3,2.1-1.8,3.2c-1.9,1.4-4.8,3.6-7.8,3.4c-1.1-0.1-2-0.5-3-1c-1.6-0.7-2.2-0.9-2.7-0.5c-0.2,0.2-0.3,0.3-0.4,0.5
					c-0.5,0.7-1,1.4-2.5,1.8c-0.4,0.1-0.7,0.1-1.1,0.1c-0.1,0-0.3,0-0.4,0c-0.2,0.4-0.1,1.4-0.1,2.2c0,0.8,0.1,1.7-0.1,2.6
					c-0.8,3.6-3.9,3.9-5,4c-0.1,0-0.2,0-0.2,0c-0.6,0-1.4-0.2-2.5-0.5c-0.1,0-0.3-0.1-0.5-0.1c-0.1,0.1-0.1,0.2-0.2,0.3
					c-0.3-0.1-1-0.4-1.7-0.6c-0.3,0.2-0.6,0.2-1,0.2c0.1,0.7,0.1,1.3,0,1.9c0.9,0.5,2,0.8,2.3,0.9c3.3,0.9,1.9,4,4.1,5.9
					c0.8,0.7,2,0.7,2.7,1.2c0.8,0.7,0.6,1.6,0.8,2.5c0.6,2.2,2.8,2.8,4,4.7c0.6,1,0.9,2.2,1.7,3.3c0.8,1,1.9,1,2.8,1.4
					C363.3,314,363.4,313.9,363.4,313.7z"/>
				<path class="st1" d="M341.6,280.6c-0.1,0.1-0.1,0.2-0.2,0.6c-0.2,0.7-0.6,2.7-3.5,2.4c-2.4-0.2-2.7-2-2.9-2.7
					c-0.1-0.4-0.1-0.5-0.2-0.6c-0.1,0-0.2-0.1-0.4-0.1c-0.4-0.1-0.8-0.2-1.1-0.4l-0.5-0.2c-0.6-0.3-0.8-0.4-1.2-0.5
					c-0.4,0.3-1.2,0.8-2.3,0.4c-0.6-0.2-1.7-0.7-2.3-0.7c-0.2,0-0.5,0-0.7,0c-0.4,0-1,0-1.7-0.2c-0.2,0.1-0.3,0.2-0.5,0.3
					c-0.8,0.4-1.6,0.6-2.2,0.7c-0.9,0.2-1.6,0.4-2.2,1c-0.6,0.6-1.3,1.1-2,1.5c-0.7,0.4-1.4,0.9-1.7,1.3c-0.1,0.1-0.1,0.2-0.2,0.3
					c0.6,0,1.2,0.1,1.8,0.4c1,0.5,1.3,1.5,2.4,1.9c1.7,0.7,5.9,0.7,6.2,3.1c1.1,0.5,2.3,1,3.5,0.9c1.1-0.1,1.8-0.9,2.9-0.8
					c1.9,0.2,2.1,2.8,3.9,3.2c1.1,0.2,3.4-0.6,4.6-1.2c-0.2-1-0.3-2.1-0.3-3.3c0.1-1.7,0.6-3.3,1.6-4.7c0.9-1.3,0.8-1.4,0.6-1.7
					C342.9,280.9,341.9,280.4,341.6,280.6z"/>
				<path class="st1" d="M400.2,332.3c0.2,0,0.4,0,0.6,0c0.5,0,0.8-0.1,1.2-0.2c0,0-0.1-0.1-0.1-0.1c-0.7-0.5-2-0.3-2.9-0.4
					c-0.4,0-2.7-0.4-2.2-0.8c0.1,0.1,0.2,0.1,0.3,0.1c0.2-0.9-1.2-1-1.5-1.7c-0.2-0.3-0.1-0.8-0.3-1.1c-0.2-0.6-0.6-0.8-1.1-1.1
					c-0.4-0.2-1.4-0.6-1.6-1c-0.2-0.4,0.2-1.3,0-1.8c-0.2-1-0.7-1.1-0.7-2.2c0-0.6,0.1-1.3,0-1.9c0-0.3-0.1-0.5-0.2-0.7
					c-1.5,0.9-3.4,1.3-4.7,1.2c-2-0.2-3.4-1-4.4-2.5c-0.2-0.3-0.3-0.5-0.4-0.7c-0.3-0.6-0.4-0.7-0.8-0.8c-0.6-0.2-1.4-0.1-2.3,0
					c-1,0.1-1.8,0.1-2.7,0.1c-2.3,0-4.9,0.1-7.2-1.4c-1.2-0.8-2.1-1-2.5-0.8c-0.1,0-0.3,0.1-0.6,0.6c-0.1,0.2-0.1,0.4-0.2,0.7
					c-0.1,0.6-0.2,1.6-1.1,2.5c-0.2,0.2-0.5,0.4-0.8,0.7c1.1,0.6,2.1,0.7,1.8,2.2c-0.3,1.6-1.5,1-2.4,1.8c-0.9,0.8-2.1,3.9-1.5,5.1
					c0.7,1.5,2.6,1.1,3.9,1c1.5-0.2,1.6-0.3,2.7,0.8c1.6,1.6,3,2.4,5.4,1.6c0.3-2.2-1.1-2-2.4-3.1c-1.5-1.2-1.3-3.2,0.9-2.7
					c1.2,0.3,2.9,1.4,3.9,2.2c1,0.8,1.1,1.4,1.2,2.6c0.1,0.8-0.1,1.7,0.8,2.4c1.4,1.1,2.7,2.5,4.2,3.4c1.4,0.8,4.5,1.4,4.9,3.3
					c0.3,1.4-1.2,2.4-1.2,3.7c-0.1,1.4,0.8,2.1,1.4,3.2c1,1.5,2.2,2.3,4.1,2c0.9-0.1,1.2-0.7,1.1-1.7c-0.1-1-0.7-1.2-1.6-1.6
					c-0.6-0.2-2.8-1.7-1-2.2c0.7-0.2,1.4,0.8,2,1c0.6,0.3,2.3,0.9,2.4,1.7c0.1,1.2-0.6,2.2,0.2,3.3c0.3,0.4,0.7,0.6,1.1,0.7
					c-0.1-0.4-0.2-0.9-0.3-1.4c-0.1-0.3-0.1-0.5-0.2-0.8c-0.5-2,0.4-3.2,1-4c0.3-0.4,0.5-0.7,0.6-1c0.1-0.4,0.2-1.3,0.1-1.6
					c0,0.1-0.1-0.1-0.3-0.2c-0.4-0.3-0.9-0.7-1.2-1.5c-0.4-1-0.5-2.3,1.3-3.2c0.1,0,0.1-0.1,0.2-0.1c0,0,0-0.1,0-0.1
					c0-0.3-0.1-0.7,0-1.2C397.4,332.2,399.4,332.3,400.2,332.3z"/>
			</g>
		</g>
	</g>
	<g class="st2">
		<circle class="st3" cx="178.4" cy="164.9" r="84.4"/>
		<circle class="st4" cx="178.4" cy="164.9" r="76"/>
	</g>
	<g>
		<circle class="st5" cx="358.5" cy="271.3" r="23.7"/>
		<circle class="st6" cx="358.5" cy="271.3" r="21.3"/>
	</g>
	<g>
		<path class="st7" d="M161.7,13.2c-0.5,0-1,0-1.7,0.1c-3.8,0.3-5.5,2.2-5.9,4.4h0.1c0.9-0.9,2.2-1.5,3.9-1.5c3.1,0,5.6,2.2,5.6,5.9
			c0,3.6-2.8,6.6-6.7,6.6c-4.8,0-7.2-3.6-7.2-8c0-3.4,1.3-6.3,3.2-8.1c1.8-1.7,4.2-2.5,7-2.7c0.8-0.1,1.3-0.1,1.7,0V13.2z
			 M159.4,22.3c0-1.7-0.9-3.1-2.7-3.1c-1.1,0-2.1,0.7-2.5,1.6c-0.1,0.2-0.2,0.6-0.2,1.1c0.1,1.9,1,3.7,2.9,3.7
			C158.4,25.5,159.4,24.2,159.4,22.3z"/>
		<path class="st7" d="M165.8,26.1c0-1.5,1-2.6,2.5-2.6s2.5,1.1,2.5,2.6c0,1.5-1,2.6-2.5,2.6C166.9,28.7,165.8,27.6,165.8,26.1z"/>
		<path class="st7" d="M185.9,10.2v2.7l-7.5,15.5h-4.5l7.5-14.6v-0.1h-8.3v-3.5H185.9z"/>
		<path class="st7" d="M198,15.3c0,3.8-2.4,5.8-5,5.8c-2.8,0-5-2.1-5-5.5c0-3.2,2-5.7,5.1-5.7C196.2,9.8,198,12.1,198,15.3z
			 M191.2,15.4c0,1.9,0.6,3.3,1.9,3.3c1.2,0,1.8-1.2,1.8-3.3c0-1.8-0.5-3.3-1.8-3.3C191.8,12.2,191.2,13.6,191.2,15.4z M193.2,28.7
			l10.4-18.8h2.3l-10.5,18.8H193.2z M211.1,22.8c0,3.8-2.4,5.8-5,5.8c-2.7,0-4.9-2.1-5-5.5c0-3.2,2-5.7,5.1-5.7
			C209.4,17.4,211.1,19.7,211.1,22.8z M204.3,23c0,1.9,0.6,3.3,1.8,3.3c1.2,0,1.8-1.2,1.8-3.3c0-1.8-0.5-3.3-1.8-3.3
			C204.9,19.7,204.3,21.2,204.3,23z"/>
		<path class="st7" d="M168.4,41c-0.1-1.3-0.2-2.9-0.1-4.1h0c-0.3,1.1-0.7,2.3-1.2,3.6l-1.7,4.6h-0.9l-1.5-4.5
			c-0.4-1.3-0.8-2.5-1.1-3.7h0c0,1.2-0.1,2.8-0.2,4.2l-0.3,4h-1.2l0.7-9.4h1.6l1.6,4.6c0.4,1.2,0.7,2.2,1,3.2h0c0.2-1,0.6-2,1-3.2
			l1.7-4.6h1.6l0.6,9.4h-1.2L168.4,41z"/>
		<path class="st7" d="M172.5,42c0,1.7,1.1,2.4,2.3,2.4c0.9,0,1.4-0.2,1.9-0.4l0.2,0.9c-0.4,0.2-1.2,0.4-2.3,0.4
			c-2.1,0-3.3-1.4-3.3-3.4c0-2,1.2-3.7,3.2-3.7c2.2,0,2.8,1.9,2.8,3.2c0,0.3,0,0.4,0,0.6H172.5z M176.1,41.1c0-0.8-0.3-2-1.7-2
			c-1.2,0-1.8,1.1-1.9,2H176.1z M176.4,35.5l-1.7,2h-0.9l1.2-2H176.4z"/>
		<path class="st7" d="M179.3,38.4l1,1.5c0.3,0.4,0.5,0.7,0.7,1.1h0c0.2-0.4,0.4-0.8,0.7-1.1l1-1.4h1.3l-2.3,3.3l2.4,3.5h-1.4
			l-1-1.5c-0.3-0.4-0.5-0.8-0.7-1.2h0c-0.2,0.4-0.5,0.8-0.7,1.2l-1,1.5h-1.4l2.4-3.5l-2.3-3.3H179.3z"/>
		<path class="st7" d="M186.6,36.5c0,0.4-0.3,0.8-0.8,0.8c-0.4,0-0.7-0.3-0.7-0.8c0-0.4,0.3-0.8,0.8-0.8
			C186.3,35.7,186.6,36,186.6,36.5z M185.2,45.2v-6.8h1.2v6.8H185.2z"/>
		<path class="st7" d="M193.4,44.9c-0.3,0.2-1,0.4-1.9,0.4c-2,0-3.4-1.4-3.4-3.5c0-2.1,1.4-3.6,3.6-3.6c0.7,0,1.4,0.2,1.7,0.4
			l-0.3,1c-0.3-0.2-0.8-0.3-1.4-0.3c-1.6,0-2.4,1.1-2.4,2.6c0,1.6,1,2.5,2.4,2.5c0.7,0,1.2-0.2,1.5-0.3L193.4,44.9z"/>
		<path class="st7" d="M200.8,41.7c0,2.5-1.7,3.6-3.4,3.6c-1.8,0-3.2-1.3-3.2-3.5c0-2.3,1.5-3.6,3.4-3.6
			C199.5,38.2,200.8,39.6,200.8,41.7z M195.5,41.8c0,1.5,0.9,2.6,2.1,2.6c1.2,0,2.1-1.1,2.1-2.6c0-1.1-0.6-2.6-2-2.6
			C196.1,39.1,195.5,40.5,195.5,41.8z"/>
	</g>
	<g>
		<path class="st5" d="M330.7,135.9v2.8h-7.3v-2.8H330.7z"/>
		<path class="st5" d="M332.7,144.7v-2.6l2.4-2.1c4-3.6,5.9-5.6,6-7.7c0-1.5-0.9-2.7-3-2.7c-1.6,0-2.9,0.8-3.9,1.5l-1.2-3.1
			c1.4-1,3.5-1.9,6-1.9c4.1,0,6.4,2.4,6.4,5.7c0,3.1-2.2,5.5-4.8,7.8l-1.7,1.4v0.1h6.9v3.5H332.7z"/>
		<path class="st5" d="M348.5,142.4c0-1.5,1-2.6,2.5-2.6s2.5,1.1,2.5,2.6c0,1.5-1,2.6-2.5,2.6C349.5,145,348.5,143.9,348.5,142.4z"
			/>
		<path class="st5" d="M363,144.7v-4.3H355v-2.8l6.9-11.1h5.2v10.7h2.2v3.2h-2.2v4.3H363z M363,137.1v-4c0-1.1,0.1-2.2,0.1-3.4h-0.1
			c-0.6,1.2-1.1,2.2-1.7,3.4l-2.4,4v0.1H363z"/>
		<path class="st5" d="M380.6,131.5c0,3.8-2.4,5.8-5,5.8c-2.8,0-5-2.1-5-5.5c0-3.2,2-5.7,5.1-5.7
			C378.9,126.1,380.6,128.4,380.6,131.5z M373.8,131.7c0,1.9,0.6,3.3,1.9,3.3c1.2,0,1.8-1.2,1.8-3.3c0-1.8-0.5-3.3-1.8-3.3
			C374.4,128.5,373.8,129.9,373.8,131.7z M375.8,145l10.4-18.8h2.3L378.1,145H375.8z M393.7,139.1c0,3.8-2.4,5.8-5,5.8
			c-2.7,0-4.9-2.1-5-5.5c0-3.2,2-5.7,5.1-5.7C392,133.7,393.7,136,393.7,139.1z M386.9,139.3c0,1.9,0.6,3.3,1.8,3.3
			c1.2,0,1.8-1.2,1.8-3.3c0-1.8-0.5-3.3-1.8-3.3C387.5,136,386.9,137.5,386.9,139.3z"/>
		<path class="st5" d="M323.3,161.1c-0.4,0.2-1.3,0.4-2.5,0.4c-2.7,0-4.7-1.7-4.7-4.8c0-3,2-5,4.9-5c1.2,0,1.9,0.3,2.2,0.4l-0.3,1
			c-0.5-0.2-1.1-0.4-1.9-0.4c-2.2,0-3.7,1.4-3.7,3.9c0,2.3,1.3,3.8,3.6,3.8c0.7,0,1.5-0.2,2-0.4L323.3,161.1z"/>
		<path class="st5" d="M325.3,158.3c0,1.7,1.1,2.4,2.3,2.4c0.9,0,1.4-0.2,1.9-0.4l0.2,0.9c-0.4,0.2-1.2,0.4-2.3,0.4
			c-2.1,0-3.3-1.4-3.3-3.4c0-2,1.2-3.7,3.2-3.7c2.2,0,2.8,1.9,2.8,3.2c0,0.3,0,0.4,0,0.6H325.3z M328.9,157.4c0-0.8-0.3-2-1.7-2
			c-1.2,0-1.8,1.1-1.9,2H328.9z"/>
		<path class="st5" d="M331.6,156.5c0-0.7,0-1.3-0.1-1.8h1.1l0.1,1.1h0c0.3-0.6,1.1-1.3,2.2-1.3c0.9,0,2.4,0.6,2.4,2.9v4h-1.2v-3.9
			c0-1.1-0.4-2-1.6-2c-0.8,0-1.4,0.6-1.7,1.3c-0.1,0.2-0.1,0.4-0.1,0.6v4.1h-1.2V156.5z"/>
		<path class="st5" d="M340.8,152.7v1.9h1.8v0.9h-1.8v3.7c0,0.8,0.2,1.3,0.9,1.3c0.3,0,0.6,0,0.7-0.1l0.1,0.9
			c-0.2,0.1-0.6,0.2-1.1,0.2c-0.6,0-1-0.2-1.3-0.5c-0.4-0.4-0.5-1-0.5-1.8v-3.7h-1.1v-0.9h1.1V153L340.8,152.7z"/>
		<path class="st5" d="M344,156.8c0-0.8,0-1.5-0.1-2.1h1.1l0,1.3h0.1c0.3-0.9,1.1-1.5,1.9-1.5c0.1,0,0.2,0,0.4,0v1.2
			c-0.1,0-0.3,0-0.4,0c-0.9,0-1.5,0.7-1.7,1.6c0,0.2-0.1,0.4-0.1,0.6v3.6H344V156.8z"/>
		<path class="st5" d="M354.5,158c0,2.5-1.7,3.6-3.4,3.6c-1.8,0-3.2-1.3-3.2-3.5c0-2.3,1.5-3.6,3.4-3.6
			C353.2,154.5,354.5,155.9,354.5,158z M349.1,158.1c0,1.5,0.9,2.6,2.1,2.6c1.2,0,2.1-1.1,2.1-2.6c0-1.1-0.6-2.6-2-2.6
			C349.8,155.4,349.1,156.8,349.1,158.1z"/>
		<path class="st5" d="M359.8,161.5l-0.1-0.9h0c-0.4,0.5-1.1,1-2.1,1c-1.4,0-2.1-1-2.1-1.9c0-1.6,1.5-2.5,4.1-2.5V157
			c0-0.6-0.2-1.6-1.5-1.6c-0.6,0-1.3,0.2-1.8,0.5l-0.3-0.8c0.6-0.4,1.4-0.6,2.2-0.6c2.1,0,2.6,1.4,2.6,2.8v2.5c0,0.6,0,1.2,0.1,1.6
			H359.8z M359.6,158c-1.3,0-2.9,0.2-2.9,1.5c0,0.8,0.5,1.2,1.2,1.2c0.9,0,1.4-0.6,1.6-1.1c0-0.1,0.1-0.3,0.1-0.4V158z"/>
		<path class="st5" d="M362.8,156.5c0-0.7,0-1.3-0.1-1.8h1.1l0.1,1.1h0c0.4-0.6,1-1.2,2.1-1.2c0.9,0,1.6,0.6,1.9,1.4h0
			c0.2-0.4,0.5-0.7,0.8-0.9c0.4-0.3,0.9-0.5,1.5-0.5c0.9,0,2.2,0.6,2.2,2.9v4h-1.2v-3.8c0-1.3-0.5-2.1-1.5-2.1
			c-0.7,0-1.2,0.5-1.5,1.1c-0.1,0.2-0.1,0.4-0.1,0.6v4.2h-1.2v-4.1c0-1.1-0.5-1.9-1.4-1.9c-0.8,0-1.3,0.6-1.5,1.2
			c-0.1,0.2-0.1,0.4-0.1,0.6v4.1h-1.2V156.5z"/>
		<path class="st5" d="M375.2,158.3c0,1.7,1.1,2.4,2.3,2.4c0.9,0,1.4-0.2,1.9-0.4l0.2,0.9c-0.4,0.2-1.2,0.4-2.3,0.4
			c-2.1,0-3.3-1.4-3.3-3.4c0-2,1.2-3.7,3.2-3.7c2.2,0,2.8,1.9,2.8,3.2c0,0.3,0,0.4,0,0.6H375.2z M378.8,157.4c0-0.8-0.3-2-1.7-2
			c-1.2,0-1.8,1.1-1.9,2H378.8z M379.1,151.7l-1.7,2h-0.9l1.2-2H379.1z"/>
		<path class="st5" d="M381.5,156.8c0-0.8,0-1.5-0.1-2.1h1.1l0,1.3h0.1c0.3-0.9,1.1-1.5,1.9-1.5c0.1,0,0.2,0,0.4,0v1.2
			c-0.1,0-0.3,0-0.4,0c-0.9,0-1.5,0.7-1.7,1.6c0,0.2-0.1,0.4-0.1,0.6v3.6h-1.2V156.8z"/>
		<path class="st5" d="M387.5,152.8c0,0.4-0.3,0.8-0.8,0.8c-0.4,0-0.7-0.3-0.7-0.8c0-0.4,0.3-0.8,0.8-0.8
			C387.2,152,387.5,152.3,387.5,152.8z M386.1,161.5v-6.8h1.2v6.8H386.1z"/>
		<path class="st5" d="M394.3,161.2c-0.3,0.2-1,0.4-1.9,0.4c-2,0-3.4-1.4-3.4-3.5c0-2.1,1.4-3.6,3.6-3.6c0.7,0,1.4,0.2,1.7,0.4
			l-0.3,1c-0.3-0.2-0.8-0.3-1.4-0.3c-1.6,0-2.4,1.1-2.4,2.6c0,1.6,1,2.5,2.4,2.5c0.7,0,1.2-0.2,1.5-0.3L394.3,161.2z"/>
		<path class="st5" d="M399.4,161.5l-0.1-0.9h0c-0.4,0.5-1.1,1-2.1,1c-1.4,0-2.1-1-2.1-1.9c0-1.6,1.5-2.5,4.1-2.5V157
			c0-0.6-0.2-1.6-1.5-1.6c-0.6,0-1.3,0.2-1.8,0.5l-0.3-0.8c0.6-0.4,1.4-0.6,2.2-0.6c2.1,0,2.6,1.4,2.6,2.8v2.5c0,0.6,0,1.2,0.1,1.6
			H399.4z M399.3,158c-1.3,0-2.9,0.2-2.9,1.5c0,0.8,0.5,1.2,1.2,1.2c0.9,0,1.4-0.6,1.6-1.1c0-0.1,0.1-0.3,0.1-0.4V158z"/>
	</g>
	<g>
		<g>
			<line class="st8" x1="180.3" y1="50.2" x2="180.3" y2="72.4"/>
			<g>
				<circle class="st9" cx="180.3" cy="72.3" r="1.9"/>
			</g>
		</g>
	</g>
	<g>
		<g>
			<line class="st10" x1="358.5" y1="172.3" x2="358.5" y2="241.2"/>
			<g>
				<circle class="st11" cx="358.5" cy="241.1" r="1.9"/>
			</g>
		</g>
	</g>
	<g>
		<g>
			<g>
				<path class="st9" d="M562.1,202.4h5.4v1.6h-3.4v2h3.1v1.6h-3.1v3.5h-2V202.4z"/>
				<path class="st9" d="M575.2,208c0,2.3-1.7,3.4-3.4,3.4c-1.9,0-3.3-1.2-3.3-3.3c0-2.1,1.4-3.4,3.4-3.4
					C573.9,204.7,575.2,206,575.2,208z M570.6,208c0,1.1,0.5,1.9,1.3,1.9c0.8,0,1.3-0.8,1.3-1.9c0-0.9-0.4-1.9-1.3-1.9
					C571,206.1,570.6,207.1,570.6,208z"/>
				<path class="st9" d="M576.4,206.9c0-0.9,0-1.5-0.1-2.1h1.7l0.1,1.2h0.1c0.3-0.9,1.1-1.3,1.7-1.3c0.2,0,0.3,0,0.4,0v1.9
					c-0.1,0-0.3-0.1-0.5-0.1c-0.7,0-1.2,0.4-1.4,1c0,0.1,0,0.3,0,0.4v3.2h-2V206.9z"/>
				<path class="st9" d="M581.4,206.9c0-0.8,0-1.5-0.1-2h1.7l0.1,0.9h0c0.3-0.4,0.8-1,1.9-1c0.8,0,1.5,0.4,1.7,1.1h0
					c0.2-0.3,0.5-0.6,0.8-0.8c0.4-0.2,0.7-0.3,1.2-0.3c1.2,0,2.1,0.9,2.1,2.8v3.7h-1.9v-3.5c0-0.9-0.3-1.5-0.9-1.5
					c-0.5,0-0.8,0.3-0.9,0.7c-0.1,0.1-0.1,0.4-0.1,0.5v3.7h-1.9v-3.6c0-0.8-0.3-1.4-0.9-1.4c-0.5,0-0.8,0.4-0.9,0.7
					c-0.1,0.2-0.1,0.3-0.1,0.5v3.7h-1.9V206.9z"/>
				<path class="st9" d="M596.2,211.2l-0.1-0.6h0c-0.4,0.5-1.1,0.8-1.8,0.8c-1.3,0-2.1-0.9-2.1-2c0-1.7,1.5-2.4,3.7-2.4v-0.1
					c0-0.3-0.2-0.8-1.2-0.8c-0.7,0-1.3,0.2-1.8,0.5l-0.4-1.3c0.4-0.2,1.3-0.6,2.5-0.6c2.1,0,2.8,1.2,2.8,2.7v2.2
					c0,0.6,0,1.2,0.1,1.5H596.2z M595.9,208.2c-1,0-1.8,0.2-1.8,1c0,0.5,0.3,0.8,0.8,0.8c0.5,0,0.9-0.3,1-0.7c0-0.1,0-0.2,0-0.3
					V208.2z"/>
				<path class="st9" d="M601.6,203v1.8h1.4v1.5h-1.4v2.3c0,0.8,0.2,1.1,0.8,1.1c0.2,0,0.4,0,0.6-0.1l0,1.5
					c-0.3,0.1-0.7,0.2-1.3,0.2c-0.6,0-1.2-0.2-1.5-0.5c-0.4-0.4-0.5-1-0.5-1.9v-2.6h-0.8v-1.5h0.8v-1.4L601.6,203z"/>
				<path class="st9" d="M610.5,208c0,2.3-1.7,3.4-3.4,3.4c-1.9,0-3.3-1.2-3.3-3.3c0-2.1,1.4-3.4,3.4-3.4
					C609.2,204.7,610.5,206,610.5,208z M605.9,208c0,1.1,0.5,1.9,1.3,1.9c0.8,0,1.3-0.8,1.3-1.9c0-0.9-0.4-1.9-1.3-1.9
					C606.2,206.1,605.9,207.1,605.9,208z"/>
				<path class="st9" d="M615.7,203l-1.4,1.7l0,0l2.1-0.4v1.3l-2.1-0.4l0,0l1.4,1.6l-1.2,0.7l-0.7-2l0,0l-0.8,2l-1.1-0.7l1.4-1.6v0
					l-2,0.4v-1.3l2,0.4l0,0l-1.4-1.6l1.2-0.7l0.7,2h0l0.7-2L615.7,203z"/>
			</g>
		</g>
		<path class="st7" d="M561.3,230.8h192c3.1,0,5.7,2.5,5.7,5.7v0c0,3.1-2.5,5.7-5.7,5.7h-192V230.8z"/>
		<path class="st7" d="M561.3,255.3h147.2c3.1,0,5.7,2.5,5.7,5.7l0,0c0,3.1-2.5,5.7-5.7,5.7H561.3V255.3z"/>
		<path class="st7" d="M561.3,279.8h145.1c3.1,0,5.7,2.5,5.7,5.7l0,0c0,3.1-2.5,5.7-5.7,5.7H561.3V279.8z"/>
		<path class="st7" d="M561.3,304.3h86c3.1,0,5.7,2.5,5.7,5.7l0,0c0,3.1-2.5,5.7-5.7,5.7h-86V304.3z"/>
		<line class="st12" x1="561.3" y1="322.2" x2="561.3" y2="224.2"/>
		<g>
			<g>
				<path class="st9" d="M473.9,303c0.5-0.1,1.1-0.2,1.8-0.2c1.1,0,1.8,0.2,2.3,0.7c0.4,0.4,0.5,0.8,0.5,1.4c0,0.9-0.6,1.7-1.5,2v0
					c0.7,0.2,1.9,0.8,1.9,2.2c0,0.7-0.3,1.3-0.7,1.7c-0.6,0.6-1.5,0.8-2.8,0.8c-0.7,0-1.2-0.1-1.5-0.1V303z M474.5,306.8h1.3
					c1.3,0,2.1-0.8,2.1-1.7c0-1.2-0.9-1.7-2.2-1.7c-0.6,0-0.9,0-1.1,0.1V306.8z M474.5,311.2c0.3,0.1,0.6,0.1,1.1,0.1
					c1.3,0,2.6-0.5,2.6-2c0-1.4-1.2-2-2.6-2h-1.1V311.2z"/>
				<path class="st9" d="M485.7,308.5c0,2.3-1.6,3.3-3,3.3c-1.6,0-2.9-1.3-2.9-3.2c0-2.1,1.4-3.3,3-3.3
					C484.6,305.3,485.7,306.6,485.7,308.5z M480.5,308.6c0,1.6,1,2.7,2.3,2.7c1.3,0,2.3-1.2,2.3-2.8c0-1.1-0.6-2.7-2.3-2.7
					C481.2,305.8,480.5,307.2,480.5,308.6z"/>
				<path class="st9" d="M492.3,302.5v7.8c0,0.5,0,1,0.1,1.5h-0.6l-0.1-1.2h0c-0.3,0.7-1.1,1.3-2.2,1.3c-1.5,0-2.7-1.3-2.7-3.1
					c0-2.1,1.3-3.4,2.8-3.4c1.1,0,1.8,0.6,2,1.1h0v-4H492.3z M491.7,307.9c0-0.2,0-0.4-0.1-0.6c-0.2-0.8-0.9-1.5-2-1.5
					c-1.4,0-2.2,1.2-2.2,2.8c0,1.4,0.7,2.7,2.2,2.7c0.9,0,1.7-0.6,2-1.6c0.1-0.2,0.1-0.3,0.1-0.5V307.9z"/>
				<path class="st9" d="M494.5,308.5c0,2,1.1,2.8,2.4,2.8c0.9,0,1.4-0.2,1.7-0.4l0.2,0.5c-0.2,0.1-0.9,0.4-2,0.4
					c-1.8,0-2.9-1.3-2.9-3.1c0-2.1,1.2-3.4,2.8-3.4c2,0,2.4,1.9,2.4,2.8c0,0.2,0,0.3,0,0.4H494.5z M498.5,308c0-0.9-0.4-2.2-1.9-2.2
					c-1.4,0-2,1.2-2.1,2.2H498.5z"/>
				<path class="st9" d="M505.7,310.8c0,1.6-0.3,2.4-0.9,2.9c-0.6,0.5-1.4,0.7-2.1,0.7c-0.7,0-1.5-0.2-2-0.5l0.2-0.5
					c0.4,0.3,1.1,0.5,1.9,0.5c1.3,0,2.3-0.7,2.3-2.5v-0.9h0c-0.3,0.6-1.1,1.2-2.2,1.2c-1.6,0-2.7-1.4-2.7-3.1c0-2.2,1.4-3.3,2.8-3.3
					c1.2,0,1.8,0.7,2.1,1.2h0l0-1.1h0.6c0,0.5-0.1,1-0.1,1.6V310.8z M505.1,307.8c0-0.2,0-0.4-0.1-0.6c-0.3-0.8-0.9-1.4-1.9-1.4
					c-1.3,0-2.2,1.1-2.2,2.7c0,1.4,0.7,2.6,2.2,2.6c0.8,0,1.6-0.5,1.9-1.4c0.1-0.2,0.1-0.4,0.1-0.7V307.8z"/>
				<path class="st9" d="M511.7,310.2c0,0.5,0,1,0.1,1.5h-0.6l-0.1-0.9h0c-0.3,0.5-1,1-2,1c-1.3,0-1.8-0.9-1.8-1.7
					c0-1.4,1.3-2.3,3.8-2.3v-0.2c0-0.6-0.1-1.8-1.6-1.8c-0.5,0-1.1,0.1-1.6,0.5l-0.2-0.5c0.6-0.4,1.3-0.5,1.8-0.5
					c1.8,0,2.2,1.4,2.2,2.5V310.2z M511,308.3c-1.4,0-3.2,0.2-3.2,1.7c0,0.9,0.6,1.3,1.2,1.3c1,0,1.6-0.6,1.8-1.2
					c0.1-0.1,0.1-0.3,0.1-0.4V308.3z"/>
				<path class="st9" d="M517.6,308.6l-1.1,3.1h-0.6l3.2-8.8h0.6l3.1,8.8h-0.6l-1.1-3.1H517.6z M520.9,308.1l-1.1-2.9
					c-0.2-0.6-0.3-1.1-0.5-1.5h0c-0.1,0.5-0.3,1-0.5,1.5l-1.1,3H520.9z"/>
				<path class="st9" d="M528.9,310.2c0,0.5,0,1,0.1,1.5h-0.6l0-1.1h0c-0.3,0.6-1,1.3-2.1,1.3c-0.8,0-2.1-0.4-2.1-2.8v-3.6h0.6v3.5
					c0,1.4,0.4,2.3,1.7,2.3c0.9,0,1.6-0.6,1.8-1.3c0.1-0.2,0.1-0.4,0.1-0.7v-3.9h0.6V310.2z"/>
				<path class="st9" d="M531,307.3c0-0.6,0-1.3-0.1-1.9h0.6l0,1.3h0c0.3-0.8,0.9-1.4,1.8-1.4c0.1,0,0.2,0,0.3,0v0.6
					c-0.1,0-0.2,0-0.3,0c-0.9,0-1.5,0.7-1.6,1.7c0,0.2-0.1,0.4-0.1,0.6v3.4H531V307.3z"/>
				<path class="st9" d="M534.9,307.3c0-0.6,0-1.3-0.1-1.9h0.6l0,1.3h0c0.3-0.8,0.9-1.4,1.8-1.4c0.1,0,0.2,0,0.3,0v0.6
					c-0.1,0-0.2,0-0.3,0c-0.9,0-1.5,0.7-1.6,1.7c0,0.2-0.1,0.4-0.1,0.6v3.4h-0.6V307.3z"/>
				<path class="st9" d="M538.8,308.5c0,2,1.1,2.8,2.4,2.8c0.9,0,1.4-0.2,1.7-0.4l0.2,0.5c-0.2,0.1-0.9,0.4-2,0.4
					c-1.8,0-2.9-1.3-2.9-3.1c0-2.1,1.2-3.4,2.8-3.4c2,0,2.4,1.9,2.4,2.8c0,0.2,0,0.3,0,0.4H538.8z M542.8,308c0-0.9-0.4-2.2-1.9-2.2
					c-1.4,0-2,1.2-2.1,2.2H542.8z"/>
				<path class="st9" d="M545,307.3c0-0.6,0-1.3-0.1-1.9h0.6l0,1.3h0c0.3-0.8,0.9-1.4,1.8-1.4c0.1,0,0.2,0,0.3,0v0.6
					c-0.1,0-0.2,0-0.3,0c-0.9,0-1.5,0.7-1.6,1.7c0,0.2-0.1,0.4-0.1,0.6v3.4H545V307.3z"/>
				<path class="st9" d="M552.7,310.2c0,0.5,0,1,0.1,1.5h-0.6l-0.1-0.9h0c-0.3,0.5-1,1-2,1c-1.3,0-1.8-0.9-1.8-1.7
					c0-1.4,1.3-2.3,3.8-2.3v-0.2c0-0.6-0.1-1.8-1.6-1.8c-0.5,0-1.1,0.1-1.6,0.5l-0.2-0.5c0.6-0.4,1.3-0.5,1.8-0.5
					c1.8,0,2.2,1.4,2.2,2.5V310.2z M552.1,308.3c-1.4,0-3.2,0.2-3.2,1.7c0,0.9,0.6,1.3,1.2,1.3c1,0,1.6-0.6,1.8-1.2
					c0.1-0.1,0.1-0.3,0.1-0.4V308.3z"/>
			</g>
		</g>
		<g>
			<g>
				<path class="st9" d="M501.8,286.2c0.5,0.3,1.2,0.6,1.9,0.6c1.3,0,2.1-0.7,2.1-1.8c0-1-0.5-1.6-1.8-2.1c-1.4-0.5-2.2-1.2-2.2-2.4
					c0-1.3,1.1-2.2,2.5-2.2c0.8,0,1.4,0.2,1.7,0.4l-0.2,0.5c-0.2-0.2-0.8-0.4-1.5-0.4c-1.4,0-1.9,0.9-1.9,1.6c0,1,0.6,1.5,1.8,2
					c1.4,0.6,2.2,1.2,2.2,2.5c0,1.3-0.9,2.4-2.8,2.4c-0.8,0-1.6-0.2-2.1-0.6L501.8,286.2z"/>
				<path class="st9" d="M512.9,285.7c0,0.5,0,1,0.1,1.5h-0.6l0-1.1h0c-0.3,0.6-1,1.3-2.1,1.3c-0.8,0-2.1-0.4-2.1-2.8v-3.6h0.6v3.5
					c0,1.4,0.4,2.3,1.7,2.3c0.9,0,1.6-0.6,1.8-1.3c0.1-0.2,0.1-0.4,0.1-0.7v-3.9h0.6V285.7z"/>
				<path class="st9" d="M515,282.9c0-0.8,0-1.4-0.1-2h0.6l0,1.2h0c0.5-0.8,1.2-1.3,2.3-1.3c1.6,0,2.7,1.3,2.7,3.2
					c0,2.2-1.3,3.4-2.8,3.4c-0.9,0-1.7-0.4-2.1-1.2h0v3.6H515V282.9z M515.6,284.7c0,0.2,0,0.3,0.1,0.5c0.3,1,1.1,1.6,2.1,1.6
					c1.4,0,2.2-1.2,2.2-2.8c0-1.4-0.8-2.7-2.2-2.7c-0.9,0-1.8,0.6-2.1,1.7c0,0.2-0.1,0.4-0.1,0.5V284.7z"/>
				<path class="st9" d="M522.2,284c0,2,1.1,2.8,2.4,2.8c0.9,0,1.4-0.2,1.7-0.4l0.2,0.5c-0.2,0.1-0.9,0.4-2,0.4
					c-1.8,0-2.9-1.3-2.9-3.1c0-2.1,1.2-3.4,2.8-3.4c2,0,2.4,1.9,2.4,2.8c0,0.2,0,0.3,0,0.4H522.2z M526.2,283.5
					c0-0.9-0.4-2.2-1.9-2.2c-1.4,0-2,1.2-2.1,2.2H526.2z"/>
				<path class="st9" d="M528.5,282.8c0-0.6,0-1.3-0.1-1.9h0.6l0,1.3h0c0.3-0.8,0.9-1.4,1.8-1.4c0.1,0,0.2,0,0.3,0v0.6
					c-0.1,0-0.2,0-0.3,0c-0.9,0-1.5,0.7-1.6,1.7c0,0.2-0.1,0.4-0.1,0.6v3.4h-0.6V282.8z"/>
				<path class="st9" d="M536.2,285.7c0,0.5,0,1,0.1,1.5h-0.6l-0.1-0.9h0c-0.3,0.5-1,1-2,1c-1.3,0-1.8-0.9-1.8-1.7
					c0-1.4,1.3-2.3,3.8-2.3v-0.2c0-0.6-0.1-1.8-1.6-1.8c-0.5,0-1.1,0.1-1.6,0.5l-0.2-0.5c0.6-0.4,1.3-0.5,1.8-0.5
					c1.8,0,2.2,1.4,2.2,2.5V285.7z M535.6,283.8c-1.4,0-3.2,0.2-3.2,1.7c0,0.9,0.6,1.3,1.2,1.3c1,0,1.6-0.6,1.8-1.2
					c0.1-0.1,0.1-0.3,0.1-0.4V283.8z"/>
				<path class="st9" d="M538.2,282.4c0-0.6,0-1-0.1-1.5h0.6l0,1.1h0c0.4-0.7,1-1.2,2-1.2c0.9,0,1.5,0.6,1.8,1.4h0
					c0.2-0.4,0.4-0.6,0.6-0.8c0.4-0.3,0.8-0.5,1.5-0.5c0.6,0,2,0.3,2,2.7v3.7h-0.6v-3.6c0-1.4-0.5-2.2-1.6-2.2
					c-0.8,0-1.4,0.6-1.6,1.2c-0.1,0.2-0.1,0.4-0.1,0.6v4h-0.6v-3.9c0-1.1-0.5-2-1.5-2c-0.8,0-1.5,0.7-1.7,1.4
					c-0.1,0.2-0.1,0.4-0.1,0.6v3.8h-0.6V282.4z"/>
				<path class="st9" d="M552.7,285.7c0,0.5,0,1,0.1,1.5h-0.6l-0.1-0.9h0c-0.3,0.5-1,1-2,1c-1.3,0-1.8-0.9-1.8-1.7
					c0-1.4,1.3-2.3,3.8-2.3v-0.2c0-0.6-0.1-1.8-1.6-1.8c-0.5,0-1.1,0.1-1.6,0.5l-0.2-0.5c0.6-0.4,1.3-0.5,1.8-0.5
					c1.8,0,2.2,1.4,2.2,2.5V285.7z M552.1,283.8c-1.4,0-3.2,0.2-3.2,1.7c0,0.9,0.6,1.3,1.2,1.3c1,0,1.6-0.6,1.8-1.2
					c0.1-0.1,0.1-0.3,0.1-0.4V283.8z"/>
			</g>
		</g>
		<g>
			<g>
				<path class="st9" d="M511.9,262.7l-2.3-8.8h0.6l1.3,4.9c0.3,1.1,0.6,2.2,0.7,3h0c0.1-0.8,0.5-1.9,0.8-3l1.4-4.9h0.6l1.3,4.9
					c0.3,1.1,0.6,2.2,0.7,3h0c0.2-0.9,0.5-1.9,0.8-3l1.4-4.9h0.6l-2.6,8.8h-0.6l-1.3-5c-0.4-1.3-0.6-2.1-0.7-3h0
					c-0.1,0.8-0.4,1.7-0.8,3l-1.5,5H511.9z"/>
				<path class="st9" d="M525,261.2c0,0.5,0,1,0.1,1.5h-0.6l-0.1-0.9h0c-0.3,0.5-1,1-2,1c-1.3,0-1.8-0.9-1.8-1.7
					c0-1.4,1.3-2.3,3.8-2.3v-0.2c0-0.6-0.1-1.8-1.6-1.8c-0.5,0-1.1,0.1-1.6,0.5l-0.2-0.5c0.6-0.4,1.3-0.5,1.8-0.5
					c1.8,0,2.2,1.4,2.2,2.5V261.2z M524.4,259.3c-1.4,0-3.2,0.2-3.2,1.7c0,0.9,0.6,1.3,1.2,1.3c1,0,1.6-0.6,1.8-1.2
					c0.1-0.1,0.1-0.3,0.1-0.4V259.3z"/>
				<path class="st9" d="M527,253.5h0.6v9.2H527V253.5z"/>
				<path class="st9" d="M529.8,257.9c0-0.6,0-1-0.1-1.5h0.6l0,1.1h0c0.4-0.7,1-1.2,2-1.2c0.9,0,1.5,0.6,1.8,1.4h0
					c0.2-0.4,0.4-0.6,0.6-0.8c0.4-0.3,0.8-0.5,1.5-0.5c0.6,0,2,0.3,2,2.7v3.7h-0.6v-3.6c0-1.4-0.5-2.2-1.6-2.2
					c-0.8,0-1.4,0.6-1.6,1.2c-0.1,0.2-0.1,0.4-0.1,0.6v4h-0.6v-3.9c0-1.1-0.5-2-1.5-2c-0.8,0-1.5,0.7-1.7,1.4
					c-0.1,0.2-0.1,0.4-0.1,0.6v3.8h-0.6V257.9z"/>
				<path class="st9" d="M544.3,261.2c0,0.5,0,1,0.1,1.5h-0.6l-0.1-0.9h0c-0.3,0.5-1,1-2,1c-1.3,0-1.8-0.9-1.8-1.7
					c0-1.4,1.3-2.3,3.8-2.3v-0.2c0-0.6-0.1-1.8-1.6-1.8c-0.5,0-1.1,0.1-1.6,0.5l-0.2-0.5c0.6-0.4,1.3-0.5,1.8-0.5
					c1.8,0,2.2,1.4,2.2,2.5V261.2z M543.7,259.3c-1.4,0-3.2,0.2-3.2,1.7c0,0.9,0.6,1.3,1.2,1.3c1,0,1.6-0.6,1.8-1.2
					c0.1-0.1,0.1-0.3,0.1-0.4V259.3z"/>
				<path class="st9" d="M546.3,258.3c0-0.6,0-1.3-0.1-1.9h0.6l0,1.3h0c0.3-0.8,0.9-1.4,1.8-1.4c0.1,0,0.2,0,0.3,0v0.6
					c-0.1,0-0.2,0-0.3,0c-0.9,0-1.5,0.7-1.6,1.7c0,0.2-0.1,0.4-0.1,0.6v3.4h-0.6V258.3z"/>
				<path class="st9" d="M551,255.1v1.4h1.8v0.5H551v4.1c0,0.8,0.2,1.3,0.9,1.3c0.3,0,0.6,0,0.7-0.1l0.1,0.5
					c-0.2,0.1-0.5,0.2-0.9,0.2c-0.5,0-0.8-0.1-1.1-0.4c-0.3-0.3-0.4-0.9-0.4-1.5v-3.9h-1.1v-0.5h1.1v-1.1L551,255.1z"/>
			</g>
		</g>
		<g>
			<g>
				<path class="st9" d="M497.3,237.2c0.5,0.3,1.2,0.6,1.9,0.6c1.3,0,2.1-0.7,2.1-1.8c0-1-0.5-1.6-1.8-2.1c-1.4-0.5-2.2-1.2-2.2-2.4
					c0-1.3,1.1-2.2,2.5-2.2c0.8,0,1.4,0.2,1.7,0.4l-0.2,0.5c-0.2-0.2-0.8-0.4-1.5-0.4c-1.4,0-1.9,0.9-1.9,1.6c0,1,0.6,1.5,1.8,2
					c1.4,0.6,2.2,1.2,2.2,2.5c0,1.3-0.9,2.4-2.8,2.4c-0.8,0-1.6-0.2-2.1-0.6L497.3,237.2z"/>
				<path class="st9" d="M507.5,236.7c0,0.5,0,1,0.1,1.5H507l-0.1-0.9h0c-0.3,0.5-1,1-2,1c-1.3,0-1.8-0.9-1.8-1.7
					c0-1.4,1.3-2.3,3.8-2.3v-0.2c0-0.6-0.1-1.8-1.6-1.8c-0.5,0-1.1,0.1-1.6,0.5l-0.2-0.5c0.6-0.4,1.3-0.5,1.8-0.5
					c1.8,0,2.2,1.4,2.2,2.5V236.7z M506.9,234.8c-1.4,0-3.2,0.2-3.2,1.7c0,0.9,0.6,1.3,1.2,1.3c1,0,1.6-0.6,1.8-1.2
					c0.1-0.1,0.1-0.3,0.1-0.4V234.8z"/>
				<path class="st9" d="M509.5,233.4c0-0.6,0-1-0.1-1.5h0.6l0,1.1h0c0.4-0.7,1-1.2,2-1.2c0.9,0,1.5,0.6,1.8,1.4h0
					c0.2-0.4,0.4-0.6,0.6-0.8c0.4-0.3,0.8-0.5,1.5-0.5c0.6,0,2,0.3,2,2.7v3.7h-0.6v-3.6c0-1.4-0.5-2.2-1.6-2.2
					c-0.8,0-1.4,0.6-1.6,1.2c-0.1,0.2-0.1,0.4-0.1,0.6v4h-0.6v-3.9c0-1.1-0.5-2-1.5-2c-0.8,0-1.5,0.7-1.7,1.4
					c-0.1,0.2-0.1,0.4-0.1,0.6v3.8h-0.6V233.4z"/>
				<path class="st9" d="M520.6,229.2l-0.2,2.9h-0.4l-0.2-2.9H520.6z"/>
				<path class="st9" d="M522.2,237.4c0.3,0.2,0.8,0.4,1.4,0.4c1,0,1.5-0.5,1.5-1.2c0-0.7-0.4-1.1-1.3-1.4c-1-0.4-1.6-0.9-1.6-1.7
					c0-0.9,0.7-1.7,1.9-1.7c0.6,0,1.1,0.2,1.4,0.4l-0.2,0.5c-0.2-0.2-0.6-0.4-1.2-0.4c-0.8,0-1.2,0.5-1.2,1.1c0,0.7,0.4,0.9,1.3,1.3
					c1,0.4,1.6,0.9,1.6,1.8c0,1.1-0.8,1.8-2.1,1.8c-0.6,0-1.2-0.2-1.6-0.4L522.2,237.4z"/>
				<path class="st9" d="M536.1,237.9c-0.4,0.2-1.3,0.4-2.4,0.4c-2.1,0-4.1-1.4-4.1-4.5c0-2.6,1.7-4.6,4.4-4.6c1.1,0,1.8,0.2,2,0.4
					l-0.2,0.5c-0.4-0.2-1.1-0.4-1.8-0.4c-2.4,0-3.8,1.5-3.8,4.1c0,2.4,1.4,3.9,3.7,3.9c0.7,0,1.5-0.2,2-0.4L536.1,237.9z"/>
				<path class="st9" d="M537.6,229h0.6v9.2h-0.6V229z"/>
				<path class="st9" d="M545.1,236.7c0,0.5,0,1,0.1,1.5h-0.6l0-1.1h0c-0.3,0.6-1,1.3-2.1,1.3c-0.8,0-2.1-0.4-2.1-2.8v-3.6h0.6v3.5
					c0,1.4,0.4,2.3,1.7,2.3c0.9,0,1.6-0.6,1.8-1.3c0.1-0.2,0.1-0.4,0.1-0.7v-3.9h0.6V236.7z"/>
				<path class="st9" d="M547.2,229h0.6v4.2h0c0.4-0.8,1.2-1.3,2.3-1.3c1.6,0,2.7,1.3,2.7,3.2c0,2.2-1.4,3.3-2.8,3.3
					c-1,0-1.7-0.4-2.2-1.3h0l-0.1,1.1h-0.6c0-0.4,0.1-1,0.1-1.5V229z M547.8,235.8c0,0.1,0,0.3,0.1,0.5c0.3,0.9,1.1,1.6,2.1,1.6
					c1.4,0,2.2-1.2,2.2-2.8c0-1.4-0.8-2.7-2.2-2.7c-0.9,0-1.8,0.6-2.1,1.7c0,0.2-0.1,0.3-0.1,0.5V235.8z"/>
			</g>
		</g>
	</g>
	<g>
		<g>
			<g>
				<path class="st9" d="M561.2,42.4l4.2-6v-0.1h-3.8v-1.6h6.4v1.1l-4.1,5.9v0.1h4.1v1.6h-6.8V42.4z"/>
				<path class="st9" d="M575.5,40.2c0,2.3-1.7,3.4-3.4,3.4c-1.9,0-3.3-1.2-3.3-3.3c0-2.1,1.4-3.4,3.4-3.4
					C574.2,36.9,575.5,38.3,575.5,40.2z M570.9,40.2c0,1.1,0.5,1.9,1.3,1.9c0.8,0,1.3-0.8,1.3-1.9c0-0.9-0.4-1.9-1.3-1.9
					C571.2,38.3,570.9,39.3,570.9,40.2z"/>
				<path class="st9" d="M576.7,39.1c0-0.8,0-1.5-0.1-2h1.7l0.1,0.9h0c0.3-0.4,0.9-1,2-1c1.3,0,2.3,0.9,2.3,2.7v3.8h-2v-3.5
					c0-0.8-0.3-1.4-1-1.4c-0.5,0-0.9,0.4-1,0.7c-0.1,0.1-0.1,0.3-0.1,0.5v3.7h-2V39.1z"/>
				<path class="st9" d="M587.9,43.4l-0.1-0.6h0c-0.4,0.5-1.1,0.8-1.8,0.8c-1.3,0-2.1-0.9-2.1-2c0-1.7,1.5-2.4,3.7-2.4v-0.1
					c0-0.3-0.2-0.8-1.2-0.8c-0.7,0-1.3,0.2-1.8,0.5l-0.4-1.3c0.4-0.2,1.3-0.6,2.5-0.6c2.1,0,2.8,1.2,2.8,2.7v2.2
					c0,0.6,0,1.2,0.1,1.5H587.9z M587.7,40.4c-1,0-1.8,0.2-1.8,1c0,0.5,0.3,0.8,0.8,0.8c0.5,0,0.9-0.3,1-0.7c0-0.1,0-0.2,0-0.3V40.4
					z"/>
				<path class="st9" d="M599.9,37.1c0,0.4-0.1,0.9-0.1,1.9v3.5c0,1.2-0.2,2.2-1,2.9c-0.7,0.6-1.7,0.8-2.6,0.8
					c-0.8,0-1.7-0.2-2.3-0.5l0.4-1.5c0.4,0.2,1.1,0.5,1.8,0.5c0.9,0,1.7-0.5,1.7-1.7v-0.4h0c-0.4,0.5-1,0.8-1.7,0.8
					c-1.6,0-2.7-1.3-2.7-3.1c0-2,1.3-3.3,2.9-3.3c0.9,0,1.4,0.4,1.7,0.9h0l0.1-0.8H599.9z M597.8,39.6c0-0.1,0-0.3,0-0.4
					c-0.1-0.5-0.5-0.9-1.1-0.9c-0.7,0-1.3,0.7-1.3,1.8c0,0.9,0.5,1.7,1.3,1.7c0.5,0,0.9-0.3,1-0.8c0.1-0.1,0.1-0.4,0.1-0.5V39.6z"/>
				<path class="st9" d="M602.9,40.9c0.1,0.8,0.9,1.2,1.8,1.2c0.7,0,1.2-0.1,1.8-0.3l0.3,1.3c-0.7,0.3-1.4,0.4-2.3,0.4
					c-2.2,0-3.4-1.2-3.4-3.2c0-1.6,1-3.4,3.2-3.4c2.1,0,2.8,1.6,2.8,3.2c0,0.3,0,0.6-0.1,0.8H602.9z M605.2,39.5
					c0-0.5-0.2-1.3-1.1-1.3c-0.8,0-1.2,0.8-1.2,1.3H605.2z"/>
				<path class="st9" d="M614.5,40.2c0,2.3-1.7,3.4-3.4,3.4c-1.9,0-3.3-1.2-3.3-3.3c0-2.1,1.4-3.4,3.4-3.4
					C613.2,36.9,614.5,38.3,614.5,40.2z M609.9,40.2c0,1.1,0.5,1.9,1.3,1.9c0.8,0,1.3-0.8,1.3-1.9c0-0.9-0.4-1.9-1.3-1.9
					C610.3,38.3,609.9,39.3,609.9,40.2z"/>
				<path class="st9" d="M621.8,37.1c0,0.4-0.1,0.9-0.1,1.9v3.5c0,1.2-0.2,2.2-1,2.9c-0.7,0.6-1.7,0.8-2.6,0.8
					c-0.8,0-1.7-0.2-2.3-0.5l0.4-1.5c0.4,0.2,1.1,0.5,1.8,0.5c0.9,0,1.7-0.5,1.7-1.7v-0.4h0c-0.4,0.5-1,0.8-1.7,0.8
					c-1.6,0-2.7-1.3-2.7-3.1c0-2,1.3-3.3,2.9-3.3c0.9,0,1.4,0.4,1.7,0.9h0l0.1-0.8H621.8z M619.8,39.6c0-0.1,0-0.3,0-0.4
					c-0.1-0.5-0.5-0.9-1.1-0.9c-0.7,0-1.3,0.7-1.3,1.8c0,0.9,0.5,1.7,1.3,1.7c0.5,0,0.9-0.3,1-0.8c0.1-0.1,0.1-0.4,0.1-0.5V39.6z"/>
				<path class="st9" d="M623.4,39.2c0-0.9,0-1.5-0.1-2.1h1.7l0.1,1.2h0.1c0.3-0.9,1.1-1.3,1.7-1.3c0.2,0,0.3,0,0.4,0v1.9
					c-0.1,0-0.3-0.1-0.5-0.1c-0.7,0-1.2,0.4-1.4,1c0,0.1,0,0.3,0,0.4v3.2h-2V39.2z"/>
				<path class="st9" d="M631.9,43.4l-0.1-0.6h0c-0.4,0.5-1.1,0.8-1.8,0.8c-1.3,0-2.1-0.9-2.1-2c0-1.7,1.5-2.4,3.7-2.4v-0.1
					c0-0.3-0.2-0.8-1.2-0.8c-0.6,0-1.3,0.2-1.8,0.5l-0.4-1.3c0.4-0.2,1.3-0.6,2.5-0.6c2.1,0,2.8,1.2,2.8,2.7v2.2
					c0,0.6,0,1.2,0.1,1.5H631.9z M631.7,40.4c-1,0-1.8,0.2-1.8,1c0,0.5,0.3,0.8,0.8,0.8c0.5,0,0.9-0.3,1-0.7c0-0.1,0-0.2,0-0.3V40.4
					z M633,34.3l-1.6,2H630l1.1-2H633z"/>
				<path class="st9" d="M635.4,43.4v-4.9h-0.8v-1.5h0.8v-0.3c0-1.8,1.4-2.7,3.3-2.7c0.7,0,1.5,0.2,1.9,0.4l-0.4,1.5
					c-0.3-0.2-0.8-0.3-1.4-0.3c-1,0-1.4,0.5-1.4,1.2v0.2h3.9v6.4h-2v-4.9h-1.9v4.9H635.4z"/>
				<path class="st9" d="M647.6,43.3c-0.4,0.2-1,0.3-1.8,0.3c-2.1,0-3.4-1.2-3.4-3.2c0-1.9,1.3-3.4,3.6-3.4c0.5,0,1.1,0.1,1.5,0.2
					l-0.3,1.5c-0.2-0.1-0.6-0.2-1.1-0.2c-1,0-1.7,0.7-1.7,1.8c0,1.2,0.8,1.8,1.7,1.8c0.5,0,0.8-0.1,1.1-0.2L647.6,43.3z"/>
				<path class="st9" d="M652.3,43.4l-0.1-0.6h0c-0.4,0.5-1.1,0.8-1.8,0.8c-1.3,0-2.1-0.9-2.1-2c0-1.7,1.5-2.4,3.7-2.4v-0.1
					c0-0.3-0.2-0.8-1.2-0.8c-0.7,0-1.3,0.2-1.8,0.5l-0.4-1.3c0.4-0.2,1.3-0.6,2.5-0.6c2.1,0,2.8,1.2,2.8,2.7v2.2
					c0,0.6,0,1.2,0.1,1.5H652.3z M652.1,40.4c-1,0-1.8,0.2-1.8,1c0,0.5,0.3,0.8,0.8,0.8c0.5,0,0.9-0.3,1-0.7c0-0.1,0-0.2,0-0.3V40.4
					z"/>
			</g>
		</g>
		<g>
			<g>
				<path class="st9" d="M524.9,143.6c-0.4,0.2-1.3,0.4-2.4,0.4c-2.1,0-4.1-1.4-4.1-4.5c0-2.6,1.7-4.6,4.4-4.6c1.1,0,1.8,0.2,2,0.4
					l-0.2,0.5c-0.4-0.2-1.1-0.4-1.8-0.4c-2.4,0-3.8,1.5-3.8,4.1c0,2.4,1.4,3.9,3.7,3.9c0.7,0,1.5-0.2,2-0.4L524.9,143.6z"/>
				<path class="st9" d="M526.5,140.7c0,2,1.1,2.8,2.4,2.8c0.9,0,1.4-0.2,1.7-0.4l0.2,0.5c-0.2,0.1-0.9,0.4-2,0.4
					c-1.8,0-2.9-1.3-2.9-3.1c0-2.1,1.2-3.4,2.8-3.4c2,0,2.4,1.9,2.4,2.8c0,0.2,0,0.3,0,0.4H526.5z M530.4,140.2
					c0-0.9-0.4-2.2-1.9-2.2c-1.4,0-2,1.2-2.1,2.2H530.4z"/>
				<path class="st9" d="M532.7,139.1c0-0.6,0-1-0.1-1.5h0.6l0,1.1h0c0.3-0.7,1.1-1.3,2.1-1.3c0.6,0,2.2,0.3,2.2,2.6v3.7H537v-3.7
					c0-1.1-0.4-2.2-1.7-2.2c-0.9,0-1.6,0.6-1.9,1.4c0,0.2-0.1,0.4-0.1,0.6v3.9h-0.6V139.1z"/>
				<path class="st9" d="M540.5,136.3v1.4h1.8v0.5h-1.8v4.1c0,0.8,0.2,1.3,0.9,1.3c0.3,0,0.6,0,0.7-0.1l0.1,0.5
					c-0.2,0.1-0.5,0.2-0.9,0.2c-0.5,0-0.8-0.1-1.1-0.4c-0.3-0.3-0.4-0.9-0.4-1.5v-3.9h-1.1v-0.5h1.1v-1.1L540.5,136.3z"/>
				<path class="st9" d="M543.6,139.5c0-0.6,0-1.3-0.1-1.9h0.6l0,1.3h0c0.3-0.8,0.9-1.4,1.8-1.4c0.1,0,0.2,0,0.3,0v0.6
					c-0.1,0-0.2,0-0.3,0c-0.9,0-1.5,0.7-1.6,1.7c0,0.2-0.1,0.4-0.1,0.6v3.4h-0.6V139.5z"/>
				<path class="st9" d="M552.8,140.7c0,2.3-1.6,3.3-3,3.3c-1.6,0-2.9-1.3-2.9-3.2c0-2.1,1.4-3.3,3-3.3
					C551.7,137.5,552.8,138.8,552.8,140.7z M547.6,140.8c0,1.6,1,2.7,2.3,2.7c1.3,0,2.3-1.2,2.3-2.8c0-1.1-0.6-2.7-2.3-2.7
					C548.3,138,547.6,139.4,547.6,140.8z"/>
			</g>
		</g>
		<g>
			<g>
				<path class="st9" d="M537,118.4c0.5,0.3,1.2,0.6,1.9,0.6c1.3,0,2.1-0.7,2.1-1.8c0-1-0.5-1.6-1.8-2.1c-1.4-0.5-2.2-1.2-2.2-2.4
					c0-1.3,1.1-2.2,2.5-2.2c0.8,0,1.4,0.2,1.7,0.4l-0.2,0.5c-0.2-0.2-0.8-0.4-1.5-0.4c-1.4,0-1.9,0.9-1.9,1.6c0,1,0.6,1.5,1.8,2
					c1.4,0.6,2.2,1.2,2.2,2.5c0,1.3-0.9,2.4-2.8,2.4c-0.8,0-1.6-0.2-2.1-0.6L537,118.4z"/>
				<path class="st9" d="M548.1,117.9c0,0.5,0,1,0.1,1.5h-0.6l0-1.1h0c-0.3,0.6-1,1.3-2.1,1.3c-0.8,0-2.1-0.4-2.1-2.8v-3.6h0.6v3.5
					c0,1.4,0.4,2.3,1.7,2.3c0.9,0,1.6-0.6,1.8-1.3c0.1-0.2,0.1-0.4,0.1-0.7v-3.9h0.6V117.9z"/>
				<path class="st9" d="M550.2,115c0-0.6,0-1.3-0.1-1.9h0.6l0,1.3h0c0.3-0.8,0.9-1.4,1.8-1.4c0.1,0,0.2,0,0.3,0v0.6
					c-0.1,0-0.2,0-0.3,0c-0.9,0-1.5,0.7-1.6,1.7c0,0.2-0.1,0.4-0.1,0.6v3.4h-0.6V115z"/>
			</g>
		</g>
		<g>
			<g>
				<path class="st9" d="M488.3,90.7c-0.1-1.3-0.2-2.9-0.2-3.9h0c-0.3,0.9-0.7,2-1.2,3.3l-1.8,4.8h-0.4l-1.7-4.7
					c-0.5-1.4-0.9-2.4-1.1-3.4h0c0,1-0.1,2.5-0.2,4l-0.3,4h-0.6l0.6-8.8h0.7l1.9,5c0.4,1.1,0.7,2,1,2.8h0c0.2-0.8,0.5-1.7,1-2.8
					l2-5.1h0.7l0.6,8.8h-0.6L488.3,90.7z"/>
				<path class="st9" d="M491.1,91.7c0,2,1.1,2.8,2.4,2.8c0.9,0,1.4-0.2,1.7-0.4l0.2,0.5c-0.2,0.1-0.9,0.4-2,0.4
					c-1.8,0-2.9-1.3-2.9-3.1c0-2.1,1.2-3.4,2.8-3.4c2,0,2.4,1.9,2.4,2.8c0,0.2,0,0.3,0,0.4H491.1z M495.1,91.2
					c0-0.9-0.4-2.2-1.9-2.2c-1.4,0-2,1.2-2.1,2.2H495.1z"/>
				<path class="st9" d="M498.1,87.3v1.4h1.8v0.5h-1.8v4.1c0,0.8,0.2,1.3,0.9,1.3c0.3,0,0.6,0,0.7-0.1l0.1,0.5
					c-0.2,0.1-0.5,0.2-0.9,0.2c-0.5,0-0.8-0.1-1.1-0.4c-0.3-0.3-0.4-0.9-0.4-1.5v-3.9h-1.1v-0.5h1.1v-1.1L498.1,87.3z"/>
				<path class="st9" d="M501.3,90.5c0-0.6,0-1.3-0.1-1.9h0.6l0,1.3h0c0.3-0.8,0.9-1.4,1.8-1.4c0.1,0,0.2,0,0.3,0v0.6
					c-0.1,0-0.2,0-0.3,0c-0.9,0-1.5,0.7-1.6,1.7c0,0.2-0.1,0.4-0.1,0.6v3.4h-0.6V90.5z"/>
				<path class="st9" d="M510.5,91.7c0,2.3-1.6,3.3-3,3.3c-1.6,0-2.9-1.3-2.9-3.2c0-2.1,1.4-3.3,3-3.3
					C509.3,88.5,510.5,89.8,510.5,91.7z M505.2,91.8c0,1.6,1,2.7,2.3,2.7c1.3,0,2.3-1.2,2.3-2.8c0-1.1-0.6-2.7-2.3-2.7
					C506,89,505.2,90.4,505.2,91.8z"/>
				<path class="st9" d="M512,90.6c0-0.8,0-1.4-0.1-2h0.6l0,1.2h0c0.5-0.8,1.2-1.3,2.3-1.3c1.6,0,2.7,1.3,2.7,3.2
					c0,2.2-1.3,3.4-2.8,3.4c-0.9,0-1.7-0.4-2.1-1.2h0v3.6H512V90.6z M512.7,92.4c0,0.2,0,0.3,0.1,0.5c0.3,1,1.1,1.6,2.1,1.6
					c1.4,0,2.2-1.2,2.2-2.8c0-1.4-0.8-2.7-2.2-2.7c-0.9,0-1.8,0.6-2.1,1.7c0,0.2-0.1,0.4-0.1,0.5V92.4z"/>
				<path class="st9" d="M524.6,91.7c0,2.3-1.6,3.3-3,3.3c-1.6,0-2.9-1.3-2.9-3.2c0-2.1,1.4-3.3,3-3.3
					C523.4,88.5,524.6,89.8,524.6,91.7z M519.3,91.8c0,1.6,1,2.7,2.3,2.7c1.3,0,2.3-1.2,2.3-2.8c0-1.1-0.6-2.7-2.3-2.7
					C520.1,89,519.3,90.4,519.3,91.8z"/>
				<path class="st9" d="M526.1,85.7h0.6v9.2h-0.6V85.7z"/>
				<path class="st9" d="M529.7,86.9c0,0.3-0.2,0.5-0.5,0.5c-0.3,0-0.5-0.2-0.5-0.5c0-0.3,0.2-0.5,0.5-0.5S529.7,86.6,529.7,86.9z
					 M528.9,94.9v-6.2h0.6v6.2H528.9z"/>
				<path class="st9" d="M532.5,87.3v1.4h1.8v0.5h-1.8v4.1c0,0.8,0.2,1.3,0.9,1.3c0.3,0,0.6,0,0.7-0.1l0.1,0.5
					c-0.2,0.1-0.5,0.2-0.9,0.2c-0.5,0-0.8-0.1-1.1-0.4c-0.3-0.3-0.4-0.9-0.4-1.5v-3.9h-1.1v-0.5h1.1v-1.1L532.5,87.3z"/>
				<path class="st9" d="M539.5,93.4c0,0.5,0,1,0.1,1.5H539L539,94h0c-0.3,0.5-1,1-2,1c-1.3,0-1.8-0.9-1.8-1.7
					c0-1.4,1.3-2.3,3.8-2.3v-0.2c0-0.6-0.1-1.8-1.6-1.8c-0.5,0-1.1,0.1-1.6,0.5l-0.2-0.5c0.6-0.4,1.3-0.5,1.8-0.5
					c1.8,0,2.2,1.4,2.2,2.5V93.4z M538.9,91.5c-1.4,0-3.2,0.2-3.2,1.7c0,0.9,0.6,1.3,1.2,1.3c1,0,1.6-0.6,1.8-1.2
					c0.1-0.1,0.1-0.3,0.1-0.4V91.5z"/>
				<path class="st9" d="M541.5,90.1c0-0.6,0-1-0.1-1.5h0.6l0,1.1h0c0.3-0.7,1.1-1.3,2.1-1.3c0.6,0,2.2,0.3,2.2,2.6v3.7h-0.6v-3.7
					c0-1.1-0.4-2.2-1.7-2.2c-0.9,0-1.6,0.6-1.9,1.4c0,0.2-0.1,0.4-0.1,0.6v3.9h-0.6V90.1z"/>
				<path class="st9" d="M552.4,93.4c0,0.5,0,1,0.1,1.5h-0.6l-0.1-0.9h0c-0.3,0.5-1,1-2,1c-1.3,0-1.8-0.9-1.8-1.7
					c0-1.4,1.3-2.3,3.8-2.3v-0.2c0-0.6-0.1-1.8-1.6-1.8c-0.5,0-1.1,0.1-1.6,0.5l-0.2-0.5c0.6-0.4,1.3-0.5,1.8-0.5
					c1.8,0,2.2,1.4,2.2,2.5V93.4z M551.8,91.5c-1.4,0-3.2,0.2-3.2,1.7c0,0.9,0.6,1.3,1.2,1.3c1,0,1.6-0.6,1.8-1.2
					c0.1-0.1,0.1-0.3,0.1-0.4V91.5z"/>
			</g>
		</g>
		<g>
			<g>
				<path class="st9" d="M525.1,70.4v-8.8h0.6l3.4,5.2c0.7,1.1,1.2,1.9,1.7,2.8l0,0c-0.1-1.2-0.1-2.2-0.1-3.6v-4.4h0.6v8.8h-0.6
					l-3.3-5.1c-0.6-1-1.2-1.9-1.7-2.8l0,0c0.1,1.1,0.1,2,0.1,3.5v4.4H525.1z"/>
				<path class="st9" d="M538.7,67.2c0,2.3-1.6,3.3-3,3.3c-1.6,0-2.9-1.3-2.9-3.2c0-2.1,1.4-3.3,3-3.3
					C537.5,64,538.7,65.3,538.7,67.2z M533.4,67.3c0,1.6,1,2.7,2.3,2.7c1.3,0,2.3-1.2,2.3-2.8c0-1.1-0.6-2.7-2.3-2.7
					C534.2,64.5,533.4,65.9,533.4,67.3z"/>
				<path class="st9" d="M540.2,66c0-0.6,0-1.3-0.1-1.9h0.6l0,1.3h0c0.3-0.8,0.9-1.4,1.8-1.4c0.1,0,0.2,0,0.3,0v0.6
					c-0.1,0-0.2,0-0.3,0c-0.9,0-1.5,0.7-1.6,1.7c0,0.2-0.1,0.4-0.1,0.6v3.4h-0.6V66z"/>
				<path class="st9" d="M544.9,62.8v1.4h1.8v0.5h-1.8v4.1c0,0.8,0.2,1.3,0.9,1.3c0.3,0,0.6,0,0.7-0.1l0.1,0.5
					c-0.2,0.1-0.5,0.2-0.9,0.2c-0.5,0-0.8-0.1-1.1-0.4c-0.3-0.3-0.4-0.9-0.4-1.5v-3.9h-1.1v-0.5h1.1V63L544.9,62.8z"/>
				<path class="st9" d="M548.2,67.2c0,2,1.1,2.8,2.4,2.8c0.9,0,1.4-0.2,1.7-0.4l0.2,0.5c-0.2,0.1-0.9,0.4-2,0.4
					c-1.8,0-2.9-1.3-2.9-3.1c0-2.1,1.2-3.4,2.8-3.4c2,0,2.4,1.9,2.4,2.8c0,0.2,0,0.3,0,0.4H548.2z M552.2,66.7
					c0-0.9-0.4-2.2-1.9-2.2c-1.4,0-2,1.2-2.1,2.2H552.2z"/>
			</g>
		</g>
		<path class="st7" d="M561.3,63h170.9c3.1,0,5.7,2.5,5.7,5.7v0c0,3.1-2.5,5.7-5.7,5.7H561.3V63z"/>
		<path class="st7" d="M561.3,87.5h111.5c3.1,0,5.7,2.5,5.7,5.7v0c0,3.1-2.5,5.7-5.7,5.7H561.3V87.5z"/>
		<path class="st7" d="M561.3,112h97.9c3.1,0,5.7,2.5,5.7,5.7v0c0,3.1-2.5,5.7-5.7,5.7h-97.9V112z"/>
		<path class="st7" d="M561.3,136.5h72.4c3.1,0,5.7,2.5,5.7,5.7v0c0,3.1-2.5,5.7-5.7,5.7h-72.4V136.5z"/>
		<line class="st12" x1="561.3" y1="154.4" x2="561.3" y2="56.4"/>
	</g>
	<g>
		<g>
			<path class="st9" d="M562.7,370.4c0.7-0.1,1.7-0.2,2.7-0.2c1.7,0,2.7,0.3,3.6,0.9c0.9,0.7,1.5,1.8,1.5,3.3c0,1.7-0.6,2.8-1.5,3.5
				c-0.9,0.8-2.3,1.1-4,1.1c-1,0-1.8-0.1-2.2-0.1V370.4z M564.7,377.5c0.2,0,0.4,0,0.7,0c1.8,0,3-1,3-3.1c0-1.8-1.1-2.8-2.8-2.8
				c-0.4,0-0.7,0-0.9,0.1V377.5z"/>
			<path class="st9" d="M573.7,370.9c0,0.5-0.4,1-1.1,1c-0.6,0-1-0.4-1-1c0-0.6,0.4-1,1-1S573.7,370.3,573.7,370.9z M571.6,379v-6.4
				h2v6.4H571.6z"/>
			<path class="st9" d="M576.7,372.6l0.9,3c0.2,0.5,0.3,1,0.4,1.5h0c0.1-0.5,0.2-1,0.4-1.5l0.8-3h2.1l-2.4,6.4h-2l-2.3-6.4H576.7z"
				/>
			<path class="st9" d="M584.1,370.9c0,0.5-0.4,1-1.1,1c-0.6,0-1-0.4-1-1c0-0.6,0.4-1,1-1S584.1,370.3,584.1,370.9z M582.1,379v-6.4
				h2v6.4H582.1z"/>
			<path class="st9" d="M585.7,377.3c0.4,0.2,1.1,0.5,1.7,0.5c0.6,0,0.8-0.2,0.8-0.5c0-0.3-0.2-0.5-0.9-0.7
				c-1.3-0.4-1.8-1.2-1.8-1.9c0-1.2,1-2.1,2.6-2.1c0.7,0,1.4,0.2,1.8,0.4l-0.4,1.4c-0.3-0.2-0.8-0.4-1.4-0.4c-0.5,0-0.8,0.2-0.8,0.5
				c0,0.3,0.2,0.5,1,0.7c1.2,0.4,1.7,1,1.7,2c0,1.2-0.9,2.1-2.8,2.1c-0.8,0-1.6-0.2-2.1-0.4L585.7,377.3z"/>
			<path class="st9" d="M593.3,370.9c0,0.5-0.4,1-1.1,1c-0.6,0-1-0.4-1-1c0-0.6,0.4-1,1-1C592.9,369.9,593.3,370.3,593.3,370.9z
				 M591.3,379v-6.4h2v6.4H591.3z"/>
			<path class="st9" d="M601.1,375.7c0,2.3-1.7,3.4-3.4,3.4c-1.9,0-3.3-1.2-3.3-3.3s1.4-3.4,3.4-3.4
				C599.8,372.5,601.1,373.8,601.1,375.7z M596.5,375.8c0,1.1,0.5,1.9,1.3,1.9c0.8,0,1.3-0.8,1.3-1.9c0-0.9-0.4-1.9-1.3-1.9
				C596.9,373.9,596.5,374.9,596.5,375.8z M599.9,369.9l-1.6,2h-1.4l1.1-2H599.9z"/>
			<path class="st9" d="M602.4,374.7c0-0.8,0-1.5-0.1-2h1.7l0.1,0.9h0c0.3-0.4,0.9-1,2-1c1.3,0,2.3,0.9,2.3,2.7v3.8h-2v-3.5
				c0-0.8-0.3-1.4-1-1.4c-0.5,0-0.9,0.4-1,0.7c-0.1,0.1-0.1,0.3-0.1,0.5v3.7h-2V374.7z"/>
		</g>
	</g>
	<line class="st12" x1="561.3" y1="490" x2="561.3" y2="392"/>
	<g>
		<path class="st9" d="M574.9,466.8c0.5-0.1,1.3-0.2,1.9-0.2c1.1,0,1.9,0.2,2.4,0.7c0.4,0.4,0.6,0.9,0.6,1.5c0,1.2-0.7,1.9-1.7,2.3
			v0c0.7,0.2,1.1,0.9,1.4,1.9c0.3,1.4,0.5,2,0.7,2.4h-0.6c-0.1-0.3-0.3-1-0.6-2.1c-0.3-1.3-0.8-1.8-2-1.9h-1.4v4h-0.6V466.8z
			 M575.6,470.9h1.4c1.4,0,2.2-0.8,2.2-1.9c0-1.3-1-1.9-2.4-1.9c-0.6,0-1,0.1-1.3,0.1V470.9z"/>
		<path class="st9" d="M586.8,472.2c0,2.3-1.6,3.3-3,3.3c-1.6,0-2.9-1.3-2.9-3.2c0-2.1,1.4-3.3,3-3.3
			C585.7,469,586.8,470.3,586.8,472.2z M581.6,472.3c0,1.6,1,2.7,2.3,2.7c1.3,0,2.3-1.2,2.3-2.8c0-1.1-0.6-2.7-2.3-2.7
			C582.3,469.5,581.6,470.9,581.6,472.3z"/>
		<path class="st9" d="M588.4,471.1c0-0.8,0-1.4-0.1-2h0.6l0,1.2h0c0.5-0.8,1.2-1.3,2.3-1.3c1.6,0,2.7,1.3,2.7,3.2
			c0,2.2-1.3,3.4-2.8,3.4c-0.9,0-1.7-0.4-2.1-1.2h0v3.6h-0.6V471.1z M589,472.9c0,0.2,0,0.3,0.1,0.5c0.3,1,1.1,1.6,2.1,1.6
			c1.4,0,2.2-1.2,2.2-2.8c0-1.4-0.8-2.7-2.2-2.7c-0.9,0-1.8,0.6-2.1,1.7c0,0.2-0.1,0.4-0.1,0.5V472.9z"/>
		<path class="st9" d="M599.5,473.9c0,0.5,0,1,0.1,1.5H599l-0.1-0.9h0c-0.3,0.5-1,1-2,1c-1.3,0-1.8-0.9-1.8-1.7
			c0-1.4,1.3-2.3,3.8-2.3v-0.2c0-0.6-0.1-1.8-1.6-1.8c-0.5,0-1.1,0.1-1.6,0.5l-0.2-0.5c0.6-0.4,1.3-0.5,1.8-0.5
			c1.8,0,2.2,1.4,2.2,2.5V473.9z M598.9,472c-1.4,0-3.2,0.2-3.2,1.7c0,0.9,0.6,1.3,1.2,1.3c1,0,1.6-0.6,1.8-1.2
			c0.1-0.1,0.1-0.3,0.1-0.4V472z"/>
		<path class="st9" d="M604.1,469.1l1.6,4.1c0.2,0.4,0.3,0.9,0.5,1.3h0c0.1-0.4,0.3-0.9,0.5-1.4l1.5-4h0.7l-1.9,4.7
			c-0.8,1.9-1.3,3.1-2.1,3.8c-0.5,0.4-0.9,0.6-1.1,0.7l-0.2-0.5c0.3-0.1,0.7-0.3,1.1-0.7c0.3-0.3,0.7-0.8,1-1.6
			c0.1-0.1,0.1-0.2,0.1-0.3c0-0.1,0-0.1-0.1-0.3l-2.3-5.8H604.1z"/>
		<path class="st9" d="M618.8,475.1c-0.4,0.2-1.3,0.4-2.4,0.4c-2.1,0-4.1-1.4-4.1-4.5c0-2.6,1.7-4.6,4.4-4.6c1.1,0,1.8,0.2,2,0.4
			l-0.2,0.5c-0.4-0.2-1.1-0.4-1.8-0.4c-2.4,0-3.8,1.5-3.8,4.1c0,2.4,1.4,3.9,3.7,3.9c0.7,0,1.5-0.2,2-0.4L618.8,475.1z"/>
		<path class="st9" d="M624.2,473.9c0,0.5,0,1,0.1,1.5h-0.6l-0.1-0.9h0c-0.3,0.5-1,1-2,1c-1.3,0-1.8-0.9-1.8-1.7
			c0-1.4,1.3-2.3,3.8-2.3v-0.2c0-0.6-0.1-1.8-1.6-1.8c-0.5,0-1.1,0.1-1.6,0.5l-0.2-0.5c0.6-0.4,1.3-0.5,1.8-0.5
			c1.8,0,2.2,1.4,2.2,2.5V473.9z M623.6,472c-1.4,0-3.2,0.2-3.2,1.7c0,0.9,0.6,1.3,1.2,1.3c1,0,1.6-0.6,1.8-1.2
			c0.1-0.1,0.1-0.3,0.1-0.4V472z"/>
		<path class="st9" d="M626.2,466.2h0.6v9.2h-0.6V466.2z"/>
		<path class="st9" d="M628.1,475l3.4-4.4c0.2-0.3,0.5-0.6,0.7-0.9v0h-3.8v-0.5h4.6l0,0.4l-3.4,4.4c-0.2,0.3-0.4,0.6-0.7,0.9v0h4.1
			v0.5h-4.8V475z"/>
		<path class="st9" d="M638.1,473.9c0,0.5,0,1,0.1,1.5h-0.6l-0.1-0.9h0c-0.3,0.5-1,1-2,1c-1.3,0-1.8-0.9-1.8-1.7
			c0-1.4,1.3-2.3,3.8-2.3v-0.2c0-0.6-0.1-1.8-1.6-1.8c-0.5,0-1.1,0.1-1.6,0.5l-0.2-0.5c0.6-0.4,1.3-0.5,1.8-0.5
			c1.8,0,2.2,1.4,2.2,2.5V473.9z M637.5,472c-1.4,0-3.2,0.2-3.2,1.7c0,0.9,0.6,1.3,1.2,1.3c1,0,1.6-0.6,1.8-1.2
			c0.1-0.1,0.1-0.3,0.1-0.4V472z"/>
		<path class="st9" d="M645.1,466.2v7.8c0,0.5,0,1,0.1,1.5h-0.6l-0.1-1.2h0c-0.3,0.7-1.1,1.3-2.2,1.3c-1.5,0-2.7-1.3-2.7-3.1
			c0-2.1,1.3-3.4,2.8-3.4c1.1,0,1.8,0.6,2,1.1h0v-4H645.1z M644.5,471.6c0-0.2,0-0.4-0.1-0.6c-0.2-0.8-0.9-1.5-2-1.5
			c-1.4,0-2.2,1.2-2.2,2.8c0,1.4,0.7,2.7,2.2,2.7c0.9,0,1.7-0.6,2-1.6c0.1-0.2,0.1-0.3,0.1-0.5V471.6z"/>
		<path class="st9" d="M652.5,472.2c0,2.3-1.6,3.3-3,3.3c-1.6,0-2.9-1.3-2.9-3.2c0-2.1,1.4-3.3,3-3.3
			C651.3,469,652.5,470.3,652.5,472.2z M647.3,472.3c0,1.6,1,2.7,2.3,2.7c1.3,0,2.3-1.2,2.3-2.8c0-1.1-0.6-2.7-2.3-2.7
			C648,469.5,647.3,470.9,647.3,472.3z"/>
	</g>
	<g>
		<path class="st9" d="M448.9,438.6c-0.1-1.3-0.2-2.9-0.2-3.9h0c-0.3,0.9-0.7,2-1.2,3.3l-1.8,4.8h-0.4l-1.7-4.7
			c-0.5-1.4-0.9-2.4-1.1-3.4h0c0,1-0.1,2.5-0.2,4l-0.3,4h-0.6l0.6-8.8h0.7l1.9,5c0.4,1.1,0.7,2,1,2.8h0c0.2-0.8,0.5-1.7,1-2.8l2-5.1
			h0.7l0.6,8.8h-0.6L448.9,438.6z"/>
		<path class="st9" d="M451.7,439.5c0,2,1.1,2.8,2.4,2.8c0.9,0,1.4-0.2,1.7-0.4l0.2,0.5c-0.2,0.1-0.9,0.4-2,0.4
			c-1.8,0-2.9-1.3-2.9-3.1c0-2.1,1.2-3.4,2.8-3.4c2,0,2.4,1.9,2.4,2.8c0,0.2,0,0.3,0,0.4H451.7z M455.7,439c0-0.9-0.4-2.2-1.9-2.2
			c-1.4,0-2,1.2-2.1,2.2H455.7z"/>
		<path class="st9" d="M457.9,438.4c0-0.6,0-1.3-0.1-1.9h0.6l0,1.3h0c0.3-0.8,0.9-1.4,1.8-1.4c0.1,0,0.2,0,0.3,0v0.6
			c-0.1,0-0.2,0-0.3,0c-0.9,0-1.5,0.7-1.6,1.7c0,0.2-0.1,0.4-0.1,0.6v3.4h-0.6V438.4z"/>
		<path class="st9" d="M466.1,442.4c-0.3,0.1-0.9,0.4-1.8,0.4c-1.8,0-3-1.3-3-3.2c0-2,1.4-3.3,3.2-3.3c0.8,0,1.4,0.2,1.6,0.4
			l-0.2,0.5c-0.3-0.2-0.8-0.4-1.5-0.4c-1.7,0-2.5,1.3-2.5,2.7c0,1.6,1,2.7,2.5,2.7c0.7,0,1.2-0.2,1.6-0.4L466.1,442.4z"/>
		<path class="st9" d="M471.4,441.2c0,0.5,0,1,0.1,1.5H471l-0.1-0.9h0c-0.3,0.5-1,1-2,1c-1.3,0-1.8-0.9-1.8-1.7
			c0-1.4,1.3-2.3,3.8-2.3v-0.2c0-0.6-0.1-1.8-1.6-1.8c-0.5,0-1.1,0.1-1.6,0.5l-0.2-0.5c0.6-0.4,1.3-0.5,1.8-0.5
			c1.8,0,2.2,1.4,2.2,2.5V441.2z M470.8,439.4c-1.4,0-3.2,0.2-3.2,1.7c0,0.9,0.6,1.3,1.2,1.3c1,0,1.6-0.6,1.8-1.2
			c0.1-0.1,0.1-0.3,0.1-0.4V439.4z"/>
		<path class="st9" d="M473.5,438c0-0.6,0-1-0.1-1.5h0.6l0,1.1h0c0.3-0.7,1.1-1.3,2.1-1.3c0.6,0,2.2,0.3,2.2,2.6v3.7h-0.6V439
			c0-1.1-0.4-2.2-1.7-2.2c-0.9,0-1.6,0.6-1.9,1.4c0,0.2-0.1,0.4-0.1,0.6v3.9h-0.6V438z"/>
		<path class="st9" d="M484.7,442.4c-0.3,0.1-0.9,0.4-1.8,0.4c-1.8,0-3-1.3-3-3.2c0-2,1.4-3.3,3.2-3.3c0.8,0,1.4,0.2,1.6,0.4
			l-0.2,0.5c-0.3-0.2-0.8-0.4-1.5-0.4c-1.7,0-2.5,1.3-2.5,2.7c0,1.6,1,2.7,2.5,2.7c0.7,0,1.2-0.2,1.6-0.4L484.7,442.4z"/>
		<path class="st9" d="M488.1,433.8l-1.6,1.8H486l1.2-1.8H488.1z M486.2,442.7v-6.2h0.6v6.2H486.2z"/>
		<path class="st9" d="M492.8,441.2c0,0.5,0,1,0.1,1.5h-0.6l-0.1-0.9h0c-0.3,0.5-1,1-2,1c-1.3,0-1.8-0.9-1.8-1.7
			c0-1.4,1.3-2.3,3.8-2.3v-0.2c0-0.6-0.1-1.8-1.6-1.8c-0.5,0-1.1,0.1-1.6,0.5l-0.2-0.5c0.6-0.4,1.3-0.5,1.8-0.5
			c1.8,0,2.2,1.4,2.2,2.5V441.2z M492.2,439.4c-1.4,0-3.2,0.2-3.2,1.7c0,0.9,0.6,1.3,1.2,1.3c1,0,1.6-0.6,1.8-1.2
			c0.1-0.1,0.1-0.3,0.1-0.4V439.4z"/>
		<path class="st9" d="M494.6,441.9c0.3,0.2,0.8,0.4,1.4,0.4c1,0,1.5-0.5,1.5-1.2c0-0.7-0.4-1.1-1.3-1.4c-1-0.4-1.6-0.9-1.6-1.7
			c0-0.9,0.7-1.7,1.9-1.7c0.6,0,1.1,0.2,1.4,0.4l-0.2,0.5c-0.2-0.2-0.6-0.4-1.2-0.4c-0.8,0-1.2,0.5-1.2,1.1c0,0.7,0.4,0.9,1.3,1.3
			c1,0.4,1.6,0.9,1.6,1.8c0,1.1-0.8,1.8-2.1,1.8c-0.6,0-1.2-0.2-1.6-0.4L494.6,441.9z"/>
		<path class="st9" d="M508.8,442.3c-0.4,0.2-1.4,0.5-2.6,0.5c-1.2,0-2.2-0.3-3.1-1.1c-0.7-0.7-1.2-1.9-1.2-3.3
			c0-2.4,1.6-4.5,4.6-4.5c0.9,0,1.7,0.2,2,0.4l-0.2,0.5c-0.5-0.2-1-0.4-1.9-0.4c-2.4,0-3.9,1.6-3.9,3.9c0,2.5,1.4,3.9,3.8,3.9
			c0.9,0,1.5-0.1,1.8-0.3v-3.1h-2v-0.5h2.7V442.3z"/>
		<path class="st9" d="M510.7,439.5c0,2,1.1,2.8,2.4,2.8c0.9,0,1.4-0.2,1.7-0.4l0.2,0.5c-0.2,0.1-0.9,0.4-2,0.4
			c-1.8,0-2.9-1.3-2.9-3.1c0-2.1,1.2-3.4,2.8-3.4c2,0,2.4,1.9,2.4,2.8c0,0.2,0,0.3,0,0.4H510.7z M514.7,439c0-0.9-0.4-2.2-1.9-2.2
			c-1.4,0-2,1.2-2.1,2.2H514.7z"/>
		<path class="st9" d="M517,438c0-0.6,0-1-0.1-1.5h0.6l0,1.1h0c0.3-0.7,1.1-1.3,2.1-1.3c0.6,0,2.2,0.3,2.2,2.6v3.7h-0.6V439
			c0-1.1-0.4-2.2-1.7-2.2c-0.9,0-1.6,0.6-1.9,1.4c0,0.2-0.1,0.4-0.1,0.6v3.9H517V438z"/>
		<path class="st9" d="M524,439.5c0,2,1.1,2.8,2.4,2.8c0.9,0,1.4-0.2,1.7-0.4l0.2,0.5c-0.2,0.1-0.9,0.4-2,0.4
			c-1.8,0-2.9-1.3-2.9-3.1c0-2.1,1.2-3.4,2.8-3.4c2,0,2.4,1.9,2.4,2.8c0,0.2,0,0.3,0,0.4H524z M528,439c0-0.9-0.4-2.2-1.9-2.2
			c-1.4,0-2,1.2-2.1,2.2H528z"/>
		<path class="st9" d="M530.2,438.4c0-0.6,0-1.3-0.1-1.9h0.6l0,1.3h0c0.3-0.8,0.9-1.4,1.8-1.4c0.1,0,0.2,0,0.3,0v0.6
			c-0.1,0-0.2,0-0.3,0c-0.9,0-1.5,0.7-1.6,1.7c0,0.2-0.1,0.4-0.1,0.6v3.4h-0.6V438.4z"/>
		<path class="st9" d="M538,441.2c0,0.5,0,1,0.1,1.5h-0.6l-0.1-0.9h0c-0.3,0.5-1,1-2,1c-1.3,0-1.8-0.9-1.8-1.7
			c0-1.4,1.3-2.3,3.8-2.3v-0.2c0-0.6-0.1-1.8-1.6-1.8c-0.5,0-1.1,0.1-1.6,0.5l-0.2-0.5c0.6-0.4,1.3-0.5,1.8-0.5
			c1.8,0,2.2,1.4,2.2,2.5V441.2z M537.3,439.4c-1.4,0-3.2,0.2-3.2,1.7c0,0.9,0.6,1.3,1.2,1.3c1,0,1.6-0.6,1.8-1.2
			c0.1-0.1,0.1-0.3,0.1-0.4V439.4z"/>
		<path class="st9" d="M540,433.5h0.6v9.2H540V433.5z"/>
		<path class="st9" d="M542.8,439.5c0,2,1.1,2.8,2.4,2.8c0.9,0,1.4-0.2,1.7-0.4l0.2,0.5c-0.2,0.1-0.9,0.4-2,0.4
			c-1.8,0-2.9-1.3-2.9-3.1c0-2.1,1.2-3.4,2.8-3.4c2,0,2.4,1.9,2.4,2.8c0,0.2,0,0.3,0,0.4H542.8z M546.8,439c0-0.9-0.4-2.2-1.9-2.2
			c-1.4,0-2,1.2-2.1,2.2H546.8z"/>
		<path class="st9" d="M548.8,441.9c0.3,0.2,0.8,0.4,1.4,0.4c1,0,1.5-0.5,1.5-1.2c0-0.7-0.4-1.1-1.3-1.4c-1-0.4-1.6-0.9-1.6-1.7
			c0-0.9,0.7-1.7,1.9-1.7c0.6,0,1.1,0.2,1.4,0.4l-0.2,0.5c-0.2-0.2-0.6-0.4-1.2-0.4c-0.8,0-1.2,0.5-1.2,1.1c0,0.7,0.4,0.9,1.3,1.3
			c1,0.4,1.6,0.9,1.6,1.8c0,1.1-0.8,1.8-2.1,1.8c-0.6,0-1.2-0.2-1.6-0.4L548.8,441.9z"/>
	</g>
	<g>
		<path class="st9" d="M476.9,409.1c0.5,0.3,1.2,0.6,1.9,0.6c1.3,0,2.1-0.7,2.1-1.8c0-1-0.5-1.6-1.8-2.1c-1.4-0.5-2.2-1.2-2.2-2.4
			c0-1.3,1.1-2.2,2.5-2.2c0.8,0,1.4,0.2,1.7,0.4l-0.2,0.5c-0.2-0.2-0.8-0.4-1.5-0.4c-1.4,0-1.9,0.9-1.9,1.6c0,1,0.6,1.5,1.8,2
			c1.4,0.6,2.2,1.2,2.2,2.5c0,1.3-0.9,2.4-2.8,2.4c-0.8,0-1.6-0.2-2.1-0.6L476.9,409.1z"/>
		<path class="st9" d="M488,408.5c0,0.5,0,1,0.1,1.5h-0.6l0-1.1h0c-0.3,0.6-1,1.3-2.1,1.3c-0.8,0-2.1-0.4-2.1-2.8v-3.6h0.6v3.5
			c0,1.4,0.4,2.3,1.7,2.3c0.9,0,1.6-0.6,1.8-1.3c0.1-0.2,0.1-0.4,0.1-0.7v-3.9h0.6V408.5z"/>
		<path class="st9" d="M490.1,405.8c0-0.8,0-1.4-0.1-2h0.6l0,1.2h0c0.5-0.8,1.2-1.3,2.3-1.3c1.6,0,2.7,1.3,2.7,3.2
			c0,2.2-1.3,3.4-2.8,3.4c-0.9,0-1.7-0.4-2.1-1.2h0v3.6h-0.6V405.8z M490.7,407.6c0,0.2,0,0.3,0.1,0.5c0.3,1,1.1,1.6,2.1,1.6
			c1.4,0,2.2-1.2,2.2-2.8c0-1.4-0.8-2.7-2.2-2.7c-0.9,0-1.8,0.6-2.1,1.7c0,0.2-0.1,0.4-0.1,0.5V407.6z"/>
		<path class="st9" d="M497.4,406.9c0,2,1.1,2.8,2.4,2.8c0.9,0,1.4-0.2,1.7-0.4l0.2,0.5c-0.2,0.1-0.9,0.4-2,0.4
			c-1.8,0-2.9-1.3-2.9-3.1c0-2.1,1.2-3.4,2.8-3.4c2,0,2.4,1.9,2.4,2.8c0,0.2,0,0.3,0,0.4H497.4z M501.3,406.4c0-0.9-0.4-2.2-1.9-2.2
			c-1.4,0-2,1.2-2.1,2.2H501.3z"/>
		<path class="st9" d="M503.6,405.7c0-0.6,0-1.3-0.1-1.9h0.6l0,1.3h0c0.3-0.8,0.9-1.4,1.8-1.4c0.1,0,0.2,0,0.3,0v0.6
			c-0.1,0-0.2,0-0.3,0c-0.9,0-1.5,0.7-1.6,1.7c0,0.2-0.1,0.4-0.1,0.6v3.4h-0.6V405.7z"/>
		<path class="st9" d="M507.4,405.3c0-0.6,0-1-0.1-1.5h0.6l0,1.1h0c0.4-0.7,1-1.2,2-1.2c0.9,0,1.5,0.6,1.8,1.4h0
			c0.2-0.4,0.4-0.7,0.6-0.8c0.4-0.3,0.8-0.5,1.5-0.5c0.6,0,2,0.3,2,2.7v3.7h-0.6v-3.6c0-1.4-0.5-2.2-1.6-2.2c-0.8,0-1.4,0.6-1.6,1.2
			c-0.1,0.2-0.1,0.4-0.1,0.6v4h-0.6v-3.9c0-1.1-0.5-2-1.5-2c-0.8,0-1.5,0.7-1.7,1.4c-0.1,0.2-0.1,0.4-0.1,0.6v3.8h-0.6V405.3z"/>
		<path class="st9" d="M518.1,406.9c0,2,1.1,2.8,2.4,2.8c0.9,0,1.4-0.2,1.7-0.4l0.2,0.5c-0.2,0.1-0.9,0.4-2,0.4
			c-1.8,0-2.9-1.3-2.9-3.1c0-2.1,1.2-3.4,2.8-3.4c2,0,2.4,1.9,2.4,2.8c0,0.2,0,0.3,0,0.4H518.1z M522.1,406.4c0-0.9-0.4-2.2-1.9-2.2
			c-1.4,0-2,1.2-2.1,2.2H522.1z"/>
		<path class="st9" d="M524.3,405.7c0-0.6,0-1.3-0.1-1.9h0.6l0,1.3h0c0.3-0.8,0.9-1.4,1.8-1.4c0.1,0,0.2,0,0.3,0v0.6
			c-0.1,0-0.2,0-0.3,0c-0.9,0-1.5,0.7-1.6,1.7c0,0.2-0.1,0.4-0.1,0.6v3.4h-0.6V405.7z"/>
		<path class="st9" d="M532.5,409.8c-0.3,0.1-0.9,0.4-1.8,0.4c-1.8,0-3-1.3-3-3.2c0-2,1.4-3.3,3.2-3.3c0.8,0,1.4,0.2,1.6,0.4
			l-0.2,0.5c-0.3-0.2-0.8-0.4-1.5-0.4c-1.7,0-2.5,1.3-2.5,2.7c0,1.6,1,2.7,2.5,2.7c0.7,0,1.2-0.2,1.6-0.4L532.5,409.8z"/>
		<path class="st9" d="M537.9,408.6c0,0.5,0,1,0.1,1.5h-0.6l-0.1-0.9h0c-0.3,0.5-1,1-2,1c-1.3,0-1.8-0.9-1.8-1.7
			c0-1.4,1.3-2.3,3.8-2.3V406c0-0.6-0.1-1.8-1.6-1.8c-0.5,0-1.1,0.1-1.6,0.5l-0.2-0.5c0.6-0.4,1.3-0.5,1.8-0.5
			c1.8,0,2.2,1.4,2.2,2.5V408.6z M537.3,406.7c-1.4,0-3.2,0.2-3.2,1.7c0,0.9,0.6,1.3,1.2,1.3c1,0,1.6-0.6,1.8-1.2
			c0.1-0.1,0.1-0.3,0.1-0.4V406.7z"/>
		<path class="st9" d="M544.9,400.8v7.8c0,0.5,0,1,0.1,1.5h-0.6l-0.1-1.2h0c-0.3,0.7-1.1,1.3-2.2,1.3c-1.5,0-2.7-1.3-2.7-3.1
			c0-2.1,1.3-3.4,2.8-3.4c1.1,0,1.8,0.6,2,1.1h0v-4H544.9z M544.2,406.3c0-0.2,0-0.4-0.1-0.6c-0.2-0.8-0.9-1.5-2-1.5
			c-1.4,0-2.2,1.2-2.2,2.8c0,1.4,0.7,2.7,2.2,2.7c0.9,0,1.7-0.6,2-1.6c0.1-0.2,0.1-0.3,0.1-0.5V406.3z"/>
		<path class="st9" d="M552.3,406.9c0,2.3-1.6,3.3-3,3.3c-1.6,0-2.9-1.3-2.9-3.2c0-2.1,1.4-3.3,3-3.3
			C551.1,403.7,552.3,405,552.3,406.9z M547.1,406.9c0,1.6,1,2.7,2.3,2.7c1.3,0,2.3-1.2,2.3-2.8c0-1.1-0.6-2.7-2.3-2.7
			C547.8,404.2,547.1,405.6,547.1,406.9z"/>
	</g>
	<g>
		<g>
			<g>
				<path class="st9" d="M269.1,370.3c0.6-0.1,1.5-0.2,2.7-0.2c1.2,0,2.1,0.2,2.7,0.7c0.6,0.4,0.9,1.2,0.9,2c0,0.9-0.3,1.6-0.8,2.1
					c-0.7,0.6-1.7,0.9-2.8,0.9c-0.3,0-0.5,0-0.7,0v3.1h-2V370.3z M271.1,374.2c0.2,0,0.4,0.1,0.7,0.1c1.1,0,1.7-0.5,1.7-1.4
					c0-0.8-0.6-1.3-1.5-1.3c-0.4,0-0.7,0-0.8,0.1V374.2z"/>
				<path class="st9" d="M280.2,378.9l-0.1-0.6h0c-0.4,0.5-1.1,0.8-1.8,0.8c-1.3,0-2.1-0.9-2.1-2c0-1.7,1.5-2.4,3.7-2.4v-0.1
					c0-0.3-0.2-0.8-1.2-0.8c-0.6,0-1.3,0.2-1.8,0.5l-0.4-1.3c0.4-0.2,1.3-0.6,2.5-0.6c2.1,0,2.8,1.2,2.8,2.7v2.2
					c0,0.6,0,1.2,0.1,1.5H280.2z M280,375.9c-1,0-1.8,0.2-1.8,1c0,0.5,0.3,0.8,0.8,0.8c0.5,0,0.9-0.3,1-0.7c0-0.1,0-0.2,0-0.3V375.9
					z"/>
				<path class="st9" d="M283.5,378.9v-6.4h2v6.4H283.5z M286.6,369.8l-1.6,2h-1.4l1.1-2H286.6z"/>
				<path class="st9" d="M287,377.2c0.4,0.2,1.1,0.5,1.7,0.5c0.6,0,0.8-0.2,0.8-0.5s-0.2-0.5-0.9-0.7c-1.3-0.4-1.8-1.2-1.8-1.9
					c0-1.2,1-2.1,2.6-2.1c0.7,0,1.4,0.2,1.8,0.4l-0.4,1.4c-0.3-0.2-0.8-0.4-1.4-0.4c-0.5,0-0.8,0.2-0.8,0.5c0,0.3,0.2,0.5,1,0.7
					c1.2,0.4,1.7,1,1.7,2c0,1.2-0.9,2.1-2.8,2.1c-0.8,0-1.6-0.2-2.1-0.4L287,377.2z"/>
			</g>
		</g>
		<g>
			<path class="st13" d="M268.3,396.1h45.6c3.1,0,5.7,2.5,5.7,5.7l0,0c0,3.1-2.5,5.7-5.7,5.7h-45.6V396.1z"/>
			<path class="st13" d="M268.3,415.7H304c3.1,0,5.7,2.5,5.7,5.7l0,0c0,3.1-2.5,5.7-5.7,5.7h-35.7V415.7z"/>
			<path class="st13" d="M268.3,435.3L268.3,435.3c1.3,0,2.4,1.1,2.4,2.4v6.5c0,1.3-1.1,2.4-2.4,2.4l0,0V435.3z"/>
			<path class="st13" d="M268.3,454.9h-9.2c-3.1,0-5.7,2.5-5.7,5.7v0c0,3.1,2.5,5.7,5.7,5.7h9.2V454.9z"/>
			<path class="st13" d="M268.3,474.5H74.6c-3.1,0-5.7,2.5-5.7,5.7v0c0,3.1,2.5,5.7,5.7,5.7h193.7V474.5z"/>
			<g>
				<g>
					<path class="st9" d="M280.9,473.2v3.9h4.8v-3.9h0.6v8.8h-0.6v-4.4h-4.8v4.4h-0.6v-8.8H280.9z"/>
					<path class="st9" d="M293.8,478.7c0,2.3-1.6,3.3-3,3.3c-1.6,0-2.9-1.3-2.9-3.2c0-2.1,1.4-3.3,3-3.3
						C292.6,475.5,293.8,476.8,293.8,478.7z M288.6,478.8c0,1.6,1,2.7,2.3,2.7c1.3,0,2.3-1.2,2.3-2.8c0-1.1-0.6-2.7-2.3-2.7
						C289.3,476.1,288.6,477.5,288.6,478.8z"/>
					<path class="st9" d="M295.4,477.2c0-0.6,0-1-0.1-1.5h0.6l0,1.1h0c0.3-0.7,1.1-1.3,2.1-1.3c0.6,0,2.2,0.3,2.2,2.6v3.7h-0.6v-3.7
						c0-1.1-0.4-2.2-1.7-2.2c-0.9,0-1.6,0.6-1.9,1.4c0,0.2-0.1,0.4-0.1,0.6v3.9h-0.6V477.2z"/>
					<path class="st9" d="M307.3,472.7v7.8c0,0.5,0,1,0.1,1.5h-0.6l-0.1-1.2h0c-0.3,0.7-1.1,1.3-2.2,1.3c-1.5,0-2.7-1.3-2.7-3.1
						c0-2.1,1.3-3.4,2.8-3.4c1.1,0,1.8,0.6,2,1.1h0v-4H307.3z M306.7,478.2c0-0.2,0-0.4-0.1-0.6c-0.2-0.8-0.9-1.5-2-1.5
						c-1.4,0-2.2,1.2-2.2,2.8c0,1.4,0.7,2.7,2.2,2.7c0.9,0,1.7-0.6,2-1.6c0.1-0.2,0.1-0.3,0.1-0.5V478.2z"/>
					<path class="st9" d="M314.2,480.4c0,0.5,0,1,0.1,1.5h-0.6l0-1.1h0c-0.3,0.6-1,1.3-2.1,1.3c-0.8,0-2.1-0.4-2.1-2.8v-3.6h0.6v3.5
						c0,1.4,0.4,2.3,1.7,2.3c0.9,0,1.6-0.6,1.8-1.3c0.1-0.2,0.1-0.4,0.1-0.7v-3.9h0.6V480.4z"/>
					<path class="st9" d="M316.3,477.6c0-0.6,0-1.3-0.1-1.9h0.6l0,1.3h0c0.3-0.8,0.9-1.4,1.8-1.4c0.1,0,0.2,0,0.3,0v0.6
						c-0.1,0-0.2,0-0.3,0c-0.9,0-1.5,0.7-1.6,1.7c0,0.2-0.1,0.4-0.1,0.6v3.4h-0.6V477.6z"/>
					<path class="st9" d="M324,480.4c0,0.5,0,1,0.1,1.5h-0.6l-0.1-0.9h0c-0.3,0.5-1,1-2,1c-1.3,0-1.8-0.9-1.8-1.7
						c0-1.4,1.3-2.3,3.8-2.3v-0.2c0-0.6-0.1-1.8-1.6-1.8c-0.5,0-1.1,0.1-1.6,0.5l-0.2-0.5c0.6-0.4,1.3-0.5,1.8-0.5
						c1.8,0,2.2,1.4,2.2,2.5V480.4z M323.4,478.6c-1.4,0-3.2,0.2-3.2,1.7c0,0.9,0.6,1.3,1.2,1.3c1,0,1.6-0.6,1.8-1.2
						c0.1-0.1,0.1-0.3,0.1-0.4V478.6z"/>
					<path class="st9" d="M325.8,481.1c0.3,0.2,0.8,0.4,1.4,0.4c1,0,1.5-0.5,1.5-1.2c0-0.7-0.4-1.1-1.3-1.4c-1-0.4-1.6-0.9-1.6-1.7
						c0-0.9,0.7-1.7,1.9-1.7c0.6,0,1.1,0.2,1.4,0.4l-0.2,0.5c-0.2-0.2-0.6-0.4-1.2-0.4c-0.8,0-1.2,0.5-1.2,1.1
						c0,0.6,0.4,0.9,1.3,1.3c1,0.4,1.6,0.9,1.6,1.8c0,1.1-0.8,1.8-2.1,1.8c-0.6,0-1.2-0.2-1.6-0.4L325.8,481.1z"/>
				</g>
			</g>
			<g>
				<g>
					<path class="st9" d="M286.8,462c-0.4,0.2-1.3,0.4-2.4,0.4c-2.1,0-4.1-1.4-4.1-4.5c0-2.6,1.7-4.6,4.4-4.6c1.1,0,1.8,0.2,2,0.4
						l-0.2,0.5c-0.4-0.2-1.1-0.4-1.8-0.4c-2.4,0-3.8,1.5-3.8,4.1c0,2.4,1.4,3.9,3.7,3.9c0.7,0,1.5-0.2,2-0.4L286.8,462z"/>
					<path class="st9" d="M293.6,459.1c0,2.3-1.6,3.3-3,3.3c-1.6,0-2.9-1.3-2.9-3.2c0-2.1,1.4-3.3,3-3.3
						C292.4,455.9,293.6,457.2,293.6,459.1z M288.4,459.2c0,1.6,1,2.7,2.3,2.7c1.3,0,2.3-1.2,2.3-2.8c0-1.1-0.6-2.7-2.3-2.7
						C289.1,456.5,288.4,457.9,288.4,459.2z"/>
					<path class="st9" d="M294.9,461.5c0.3,0.2,0.8,0.4,1.4,0.4c1,0,1.5-0.5,1.5-1.2c0-0.7-0.4-1.1-1.3-1.4c-1-0.4-1.6-0.9-1.6-1.7
						c0-0.9,0.7-1.7,1.9-1.7c0.6,0,1.1,0.2,1.4,0.4l-0.2,0.5c-0.2-0.2-0.6-0.4-1.2-0.4c-0.8,0-1.2,0.5-1.2,1.1
						c0,0.6,0.4,0.9,1.3,1.3c1,0.4,1.6,0.9,1.6,1.8c0,1.1-0.8,1.8-2.1,1.8c-0.6,0-1.2-0.2-1.6-0.4L294.9,461.5z"/>
					<path class="st9" d="M300.9,454.7v1.4h1.8v0.5h-1.8v4.1c0,0.8,0.2,1.3,0.9,1.3c0.3,0,0.6,0,0.7-0.1l0.1,0.5
						c-0.2,0.1-0.5,0.2-0.9,0.2c-0.5,0-0.8-0.1-1.1-0.4c-0.3-0.3-0.4-0.9-0.4-1.5v-3.9h-1.1v-0.5h1.1v-1.1L300.9,454.7z"/>
					<path class="st9" d="M307.9,460.8c0,0.5,0,1,0.1,1.5h-0.6l-0.1-0.9h0c-0.3,0.5-1,1-2,1c-1.3,0-1.8-0.9-1.8-1.7
						c0-1.4,1.3-2.3,3.8-2.3v-0.2c0-0.6-0.1-1.8-1.6-1.8c-0.5,0-1.1,0.1-1.6,0.5l-0.2-0.5c0.6-0.4,1.3-0.5,1.8-0.5
						c1.8,0,2.2,1.4,2.2,2.5V460.8z M307.3,459c-1.4,0-3.2,0.2-3.2,1.7c0,0.9,0.6,1.3,1.2,1.3c1,0,1.6-0.6,1.8-1.2
						c0.1-0.1,0.1-0.3,0.1-0.4V459z"/>
					<path class="st9" d="M312.8,453.7c0.5-0.1,1.3-0.2,1.9-0.2c1.1,0,1.9,0.2,2.4,0.7c0.4,0.4,0.6,0.9,0.6,1.5
						c0,1.2-0.7,1.9-1.7,2.3v0c0.7,0.2,1.1,0.9,1.4,1.9c0.3,1.4,0.5,2,0.7,2.4h-0.6c-0.1-0.3-0.3-1-0.6-2.1c-0.3-1.3-0.8-1.8-2-1.9
						h-1.4v4h-0.6V453.7z M313.4,457.8h1.4c1.4,0,2.2-0.8,2.2-1.9c0-1.3-1-1.9-2.4-1.9c-0.6,0-1,0.1-1.3,0.1V457.8z"/>
					<path class="st9" d="M320.2,454.3c0,0.3-0.2,0.5-0.5,0.5c-0.3,0-0.5-0.2-0.5-0.5s0.2-0.5,0.5-0.5
						C320,453.8,320.2,454,320.2,454.3z M319.4,462.3v-6.2h0.6v6.2H319.4z"/>
					<path class="st9" d="M326.4,462c-0.3,0.1-0.9,0.4-1.8,0.4c-1.8,0-3-1.3-3-3.2c0-2,1.4-3.3,3.2-3.3c0.8,0,1.4,0.2,1.6,0.4
						l-0.2,0.5c-0.3-0.2-0.8-0.4-1.5-0.4c-1.7,0-2.5,1.3-2.5,2.7c0,1.6,1,2.7,2.5,2.7c0.7,0,1.2-0.2,1.6-0.4L326.4,462z"/>
					<path class="st9" d="M331.8,460.8c0,0.5,0,1,0.1,1.5h-0.6l-0.1-0.9h0c-0.3,0.5-1,1-2,1c-1.3,0-1.8-0.9-1.8-1.7
						c0-1.4,1.3-2.3,3.8-2.3v-0.2c0-0.6-0.1-1.8-1.6-1.8c-0.5,0-1.1,0.1-1.6,0.5l-0.2-0.5c0.6-0.4,1.3-0.5,1.8-0.5
						c1.8,0,2.2,1.4,2.2,2.5V460.8z M331.1,459c-1.4,0-3.2,0.2-3.2,1.7c0,0.9,0.6,1.3,1.2,1.3c1,0,1.6-0.6,1.8-1.2
						c0.1-0.1,0.1-0.3,0.1-0.4V459z"/>
				</g>
			</g>
			<g>
				<g>
					<path class="st9" d="M205.6,442.3c-0.4,0.2-1.4,0.5-2.6,0.5c-1.2,0-2.2-0.3-3.1-1.1c-0.7-0.7-1.2-1.9-1.2-3.3
						c0-2.4,1.6-4.5,4.6-4.5c0.9,0,1.7,0.2,2,0.4l-0.2,0.5c-0.5-0.2-1-0.4-1.9-0.4c-2.4,0-3.9,1.6-3.9,3.9c0,2.5,1.4,3.9,3.8,3.9
						c0.9,0,1.5-0.1,1.8-0.3v-3.1h-2v-0.5h2.7V442.3z"/>
					<path class="st9" d="M212.2,441.2c0,0.5,0,1,0.1,1.5h-0.6l0-1.1h0c-0.3,0.6-1,1.3-2.1,1.3c-0.8,0-2.1-0.4-2.1-2.8v-3.6h0.6v3.5
						c0,1.4,0.4,2.3,1.7,2.3c0.9,0,1.6-0.6,1.8-1.3c0.1-0.2,0.1-0.4,0.1-0.7v-3.9h0.6V441.2z"/>
					<path class="st9" d="M218.2,441.2c0,0.5,0,1,0.1,1.5h-0.6l-0.1-0.9h0c-0.3,0.5-1,1-2,1c-1.3,0-1.8-0.9-1.8-1.7
						c0-1.4,1.3-2.3,3.8-2.3v-0.2c0-0.6-0.1-1.8-1.6-1.8c-0.5,0-1.1,0.1-1.6,0.5l-0.2-0.5c0.6-0.4,1.3-0.5,1.8-0.5
						c1.8,0,2.2,1.4,2.2,2.5V441.2z M217.5,439.4c-1.4,0-3.2,0.2-3.2,1.7c0,0.9,0.6,1.3,1.2,1.3c1,0,1.6-0.6,1.8-1.2
						c0.1-0.1,0.1-0.3,0.1-0.4V439.4z"/>
					<path class="st9" d="M221,435.1v1.4h1.8v0.5H221v4.1c0,0.8,0.2,1.3,0.9,1.3c0.3,0,0.6,0,0.7-0.1l0.1,0.5
						c-0.2,0.1-0.5,0.2-0.9,0.2c-0.5,0-0.8-0.1-1.1-0.4c-0.3-0.3-0.4-0.9-0.4-1.5V437h-1.1v-0.5h1.1v-1.1L221,435.1z"/>
					<path class="st9" d="M224.3,439.5c0,2,1.1,2.8,2.4,2.8c0.9,0,1.4-0.2,1.7-0.4l0.2,0.5c-0.2,0.1-0.9,0.4-2,0.4
						c-1.8,0-2.9-1.3-2.9-3.1c0-2.1,1.2-3.4,2.8-3.4c2,0,2.4,1.9,2.4,2.8c0,0.2,0,0.3,0,0.4H224.3z M228.3,439
						c0-0.9-0.4-2.2-1.9-2.2c-1.4,0-2,1.2-2.1,2.2H228.3z"/>
					<path class="st9" d="M230.5,438c0-0.6,0-1-0.1-1.5h0.6l0,1.1h0c0.4-0.7,1-1.2,2-1.2c0.9,0,1.5,0.6,1.8,1.4h0
						c0.2-0.4,0.4-0.6,0.6-0.8c0.4-0.3,0.8-0.5,1.5-0.5c0.6,0,2,0.3,2,2.7v3.7h-0.6v-3.6c0-1.4-0.5-2.2-1.6-2.2
						c-0.8,0-1.4,0.6-1.6,1.2c-0.1,0.2-0.1,0.4-0.1,0.6v4h-0.6v-3.9c0-1.1-0.5-2-1.5-2c-0.8,0-1.5,0.7-1.7,1.4
						c-0.1,0.2-0.1,0.4-0.1,0.6v3.8h-0.6V438z"/>
					<path class="st9" d="M245,441.2c0,0.5,0,1,0.1,1.5h-0.6l-0.1-0.9h0c-0.3,0.5-1,1-2,1c-1.3,0-1.8-0.9-1.8-1.7
						c0-1.4,1.3-2.3,3.8-2.3v-0.2c0-0.6-0.1-1.8-1.6-1.8c-0.5,0-1.1,0.1-1.6,0.5l-0.2-0.5c0.6-0.4,1.3-0.5,1.8-0.5
						c1.8,0,2.2,1.4,2.2,2.5V441.2z M244.4,439.4c-1.4,0-3.2,0.2-3.2,1.7c0,0.9,0.6,1.3,1.2,1.3c1,0,1.6-0.6,1.8-1.2
						c0.1-0.1,0.1-0.3,0.1-0.4V439.4z"/>
					<path class="st9" d="M247.1,433.5h0.6v9.2h-0.6V433.5z"/>
					<path class="st9" d="M253.7,441.2c0,0.5,0,1,0.1,1.5h-0.6l-0.1-0.9h0c-0.3,0.5-1,1-2,1c-1.3,0-1.8-0.9-1.8-1.7
						c0-1.4,1.3-2.3,3.8-2.3v-0.2c0-0.6-0.1-1.8-1.6-1.8c-0.5,0-1.1,0.1-1.6,0.5l-0.2-0.5c0.6-0.4,1.3-0.5,1.8-0.5
						c1.8,0,2.2,1.4,2.2,2.5V441.2z M253.1,439.4c-1.4,0-3.2,0.2-3.2,1.7c0,0.9,0.6,1.3,1.2,1.3c1,0,1.6-0.6,1.8-1.2
						c0.1-0.1,0.1-0.3,0.1-0.4V439.4z"/>
				</g>
			</g>
			<g>
				<g>
					<path class="st9" d="M203.2,418.8h-3.5v3.8h3.9v0.5h-4.5v-8.8h4.3v0.5h-3.7v3.4h3.5V418.8z"/>
					<path class="st9" d="M205.1,413.9h0.6v9.2h-0.6V413.9z"/>
					<path class="st9" d="M210.5,422.2c0.5,0.3,1.2,0.6,1.9,0.6c1.3,0,2.1-0.7,2.1-1.8c0-1-0.5-1.6-1.8-2.1
						c-1.4-0.5-2.2-1.2-2.2-2.4c0-1.3,1.1-2.2,2.5-2.2c0.8,0,1.4,0.2,1.7,0.4l-0.2,0.5c-0.2-0.2-0.8-0.4-1.5-0.4
						c-1.4,0-1.9,0.9-1.9,1.6c0,1,0.6,1.5,1.8,2c1.4,0.6,2.2,1.2,2.2,2.5c0,1.3-0.9,2.4-2.8,2.4c-0.8,0-1.6-0.2-2.1-0.6L210.5,422.2
						z"/>
					<path class="st9" d="M220.7,421.6c0,0.5,0,1,0.1,1.5h-0.6l-0.1-0.9h0c-0.3,0.5-1,1-2,1c-1.3,0-1.8-0.9-1.8-1.7
						c0-1.4,1.3-2.3,3.8-2.3v-0.2c0-0.6-0.1-1.8-1.6-1.8c-0.5,0-1.1,0.1-1.6,0.5l-0.2-0.5c0.6-0.4,1.3-0.5,1.8-0.5
						c1.8,0,2.2,1.4,2.2,2.5V421.6z M220,419.8c-1.4,0-3.2,0.2-3.2,1.7c0,0.9,0.6,1.3,1.2,1.3c1,0,1.6-0.6,1.8-1.2
						c0.1-0.1,0.1-0.3,0.1-0.4V419.8z"/>
					<path class="st9" d="M222.7,413.9h0.6v9.2h-0.6V413.9z"/>
					<path class="st9" d="M225.2,416.9l1.5,3.9c0.2,0.6,0.4,1.1,0.6,1.7h0c0.2-0.5,0.4-1.1,0.6-1.7l1.5-3.9h0.6l-2.5,6.2H227
						l-2.4-6.2H225.2z"/>
					<path class="st9" d="M235.2,421.6c0,0.5,0,1,0.1,1.5h-0.6l-0.1-0.9h0c-0.3,0.5-1,1-2,1c-1.3,0-1.8-0.9-1.8-1.7
						c0-1.4,1.3-2.3,3.8-2.3v-0.2c0-0.6-0.1-1.8-1.6-1.8c-0.5,0-1.1,0.1-1.6,0.5l-0.2-0.5c0.6-0.4,1.3-0.5,1.8-0.5
						c1.8,0,2.2,1.4,2.2,2.5V421.6z M234.6,419.8c-1.4,0-3.2,0.2-3.2,1.7c0,0.9,0.6,1.3,1.2,1.3c1,0,1.6-0.6,1.8-1.2
						c0.1-0.1,0.1-0.3,0.1-0.4V419.8z"/>
					<path class="st9" d="M242.2,413.9v7.8c0,0.5,0,1,0.1,1.5h-0.6l-0.1-1.2h0c-0.3,0.7-1.1,1.3-2.2,1.3c-1.5,0-2.7-1.3-2.7-3.1
						c0-2.1,1.3-3.4,2.8-3.4c1.1,0,1.8,0.6,2,1.1h0v-4H242.2z M241.6,419.4c0-0.2,0-0.4-0.1-0.6c-0.2-0.8-0.9-1.5-2-1.5
						c-1.4,0-2.2,1.2-2.2,2.8c0,1.4,0.7,2.7,2.2,2.7c0.9,0,1.7-0.6,2-1.6c0.1-0.2,0.1-0.3,0.1-0.5V419.4z"/>
					<path class="st9" d="M249.6,419.9c0,2.3-1.6,3.3-3,3.3c-1.6,0-2.9-1.3-2.9-3.2c0-2.1,1.4-3.3,3-3.3
						C248.4,416.7,249.6,418,249.6,419.9z M244.4,420c0,1.6,1,2.7,2.3,2.7c1.3,0,2.3-1.2,2.3-2.8c0-1.1-0.6-2.7-2.3-2.7
						C245.1,417.3,244.4,418.7,244.4,420z"/>
					<path class="st9" d="M251.2,418.8c0-0.6,0-1.3-0.1-1.9h0.6l0,1.3h0c0.3-0.8,0.9-1.4,1.8-1.4c0.1,0,0.2,0,0.3,0v0.6
						c-0.1,0-0.2,0-0.3,0c-0.9,0-1.5,0.7-1.6,1.7c0,0.2-0.1,0.4-0.1,0.6v3.4h-0.6V418.8z"/>
				</g>
			</g>
			<g>
				<g>
					<path class="st9" d="M203.4,403.5v-8.8h0.6l3.4,5.2c0.7,1.1,1.2,1.9,1.7,2.8l0,0c-0.1-1.2-0.1-2.2-0.1-3.6v-4.4h0.6v8.8H209
						l-3.3-5.1c-0.6-1-1.2-1.9-1.7-2.8l0,0c0.1,1.1,0.1,2,0.1,3.5v4.4H203.4z"/>
					<path class="st9" d="M212.5,395.5c0,0.3-0.2,0.5-0.5,0.5c-0.3,0-0.5-0.2-0.5-0.5s0.2-0.5,0.5-0.5
						C212.3,395,212.5,395.2,212.5,395.5z M211.7,403.5v-6.2h0.6v6.2H211.7z"/>
					<path class="st9" d="M218.7,403.2c-0.3,0.1-0.9,0.4-1.8,0.4c-1.8,0-3-1.3-3-3.2c0-2,1.4-3.3,3.2-3.3c0.8,0,1.4,0.2,1.6,0.4
						l-0.2,0.5c-0.3-0.2-0.8-0.4-1.5-0.4c-1.7,0-2.5,1.3-2.5,2.7c0,1.6,1,2.7,2.5,2.7c0.7,0,1.2-0.2,1.6-0.4L218.7,403.2z"/>
					<path class="st9" d="M224.1,402c0,0.5,0,1,0.1,1.5h-0.6l-0.1-0.9h0c-0.3,0.5-1,1-2,1c-1.3,0-1.8-0.9-1.8-1.7
						c0-1.4,1.3-2.3,3.8-2.3v-0.2c0-0.6-0.1-1.8-1.6-1.8c-0.5,0-1.1,0.1-1.6,0.5l-0.2-0.5c0.6-0.4,1.3-0.5,1.8-0.5
						c1.8,0,2.2,1.4,2.2,2.5V402z M223.5,400.2c-1.4,0-3.2,0.2-3.2,1.7c0,0.9,0.6,1.3,1.2,1.3c1,0,1.6-0.6,1.8-1.2
						c0.1-0.1,0.1-0.3,0.1-0.4V400.2z"/>
					<path class="st9" d="M226.1,399.2c0-0.6,0-1.3-0.1-1.9h0.6l0,1.3h0c0.3-0.8,0.9-1.4,1.8-1.4c0.1,0,0.2,0,0.3,0v0.6
						c-0.1,0-0.2,0-0.3,0c-0.9,0-1.5,0.7-1.6,1.7c0,0.2-0.1,0.4-0.1,0.6v3.4h-0.6V399.2z"/>
					<path class="st9" d="M233.8,402c0,0.5,0,1,0.1,1.5h-0.6l-0.1-0.9h0c-0.3,0.5-1,1-2,1c-1.3,0-1.8-0.9-1.8-1.7
						c0-1.4,1.3-2.3,3.8-2.3v-0.2c0-0.6-0.1-1.8-1.6-1.8c-0.5,0-1.1,0.1-1.6,0.5l-0.2-0.5c0.6-0.4,1.3-0.5,1.8-0.5
						c1.8,0,2.2,1.4,2.2,2.5V402z M233.2,400.2c-1.4,0-3.2,0.2-3.2,1.7c0,0.9,0.6,1.3,1.2,1.3c1,0,1.6-0.6,1.8-1.2
						c0.1-0.1,0.1-0.3,0.1-0.4V400.2z"/>
					<path class="st9" d="M240.8,402.6c0,1.6-0.3,2.4-0.9,2.9c-0.6,0.5-1.4,0.7-2.1,0.7c-0.7,0-1.5-0.2-2-0.5l0.2-0.5
						c0.4,0.3,1.1,0.5,1.9,0.5c1.3,0,2.3-0.7,2.3-2.5v-0.9h0c-0.3,0.6-1.1,1.2-2.2,1.2c-1.6,0-2.7-1.4-2.7-3.1
						c0-2.2,1.4-3.3,2.8-3.3c1.2,0,1.8,0.7,2.1,1.2h0l0-1.1h0.6c0,0.5-0.1,1-0.1,1.6V402.6z M240.2,399.7c0-0.2,0-0.4-0.1-0.6
						c-0.3-0.8-0.9-1.4-1.9-1.4c-1.3,0-2.2,1.1-2.2,2.7c0,1.4,0.7,2.6,2.2,2.6c0.8,0,1.6-0.5,1.9-1.4c0.1-0.2,0.1-0.4,0.1-0.7V399.7
						z"/>
					<path class="st9" d="M247.7,402c0,0.5,0,1,0.1,1.5h-0.6l0-1.1h0c-0.3,0.6-1,1.3-2.1,1.3c-0.8,0-2.1-0.4-2.1-2.8v-3.6h0.6v3.5
						c0,1.4,0.4,2.3,1.7,2.3c0.9,0,1.6-0.6,1.8-1.3c0.1-0.2,0.1-0.4,0.1-0.7v-3.9h0.6V402z"/>
					<path class="st9" d="M253.7,402c0,0.5,0,1,0.1,1.5h-0.6l-0.1-0.9h0c-0.3,0.5-1,1-2,1c-1.3,0-1.8-0.9-1.8-1.7
						c0-1.4,1.3-2.3,3.8-2.3v-0.2c0-0.6-0.1-1.8-1.6-1.8c-0.5,0-1.1,0.1-1.6,0.5l-0.2-0.5c0.6-0.4,1.3-0.5,1.8-0.5
						c1.8,0,2.2,1.4,2.2,2.5V402z M253.1,400.2c-1.4,0-3.2,0.2-3.2,1.7c0,0.9,0.6,1.3,1.2,1.3c1,0,1.6-0.6,1.8-1.2
						c0.1-0.1,0.1-0.3,0.1-0.4V400.2z"/>
				</g>
			</g>
			<line class="st14" x1="268.3" y1="490" x2="268.3" y2="392"/>
		</g>
	</g>
	<g>
		<path class="st9" d="M564.8,521.3l-0.9,1.2v0l1.5-0.1v0.5l-1.4-0.1v0l0.9,1.2l-0.5,0.3l-0.6-1.3h0l-0.7,1.3l-0.4-0.3l0.9-1.2v0
			l-1.4,0.1v-0.5l1.4,0.1v0l-0.9-1.2l0.4-0.3l0.6,1.3h0l0.6-1.3L564.8,521.3z"/>
		<path class="st9" d="M567,521.2v6.7h-0.5v-6.7H567z"/>
		<path class="st9" d="M568.6,524.3c0-0.4,0-0.8,0-1.1h0.4l0,0.9h0c0.3-0.5,0.9-1,1.6-1c0.5,0,1.7,0.2,1.7,2v2.9h-0.5v-2.8
			c0-0.9-0.3-1.7-1.3-1.7c-0.7,0-1.2,0.5-1.4,1.1c0,0.1-0.1,0.3-0.1,0.4v3h-0.5V524.3z"/>
		<path class="st9" d="M577.3,527.7c-0.2,0.1-0.7,0.3-1.4,0.3c-1.4,0-2.3-1-2.3-2.4c0-1.5,1-2.6,2.5-2.6c0.6,0,1.1,0.2,1.3,0.3
			l-0.2,0.4c-0.2-0.1-0.6-0.3-1.1-0.3c-1.3,0-1.9,1-1.9,2.1c0,1.3,0.8,2.1,1.9,2.1c0.6,0,0.9-0.2,1.2-0.3L577.3,527.7z"/>
		<path class="st9" d="M578.5,520.8h0.5v7.1h-0.5V520.8z"/>
		<path class="st9" d="M584.3,526.8c0,0.4,0,0.8,0,1.2h-0.5l0-0.9h0c-0.2,0.5-0.8,1-1.6,1c-0.6,0-1.6-0.3-1.6-2.1v-2.8h0.5v2.7
			c0,1,0.3,1.8,1.3,1.8c0.7,0,1.2-0.5,1.4-1c0-0.1,0.1-0.3,0.1-0.5v-3h0.5V526.8z"/>
		<path class="st9" d="M585.7,523.1l1.3,3.1c0.1,0.3,0.3,0.7,0.3,1h0c0.1-0.3,0.2-0.7,0.4-1.1l1.2-3.1h0.5l-1.4,3.6
			c-0.6,1.5-1,2.4-1.6,2.9c-0.4,0.3-0.7,0.5-0.8,0.5l-0.1-0.4c0.2-0.1,0.6-0.3,0.8-0.5c0.2-0.2,0.6-0.6,0.8-1.2
			c0-0.1,0.1-0.2,0.1-0.2c0,0,0-0.1-0.1-0.2l-1.8-4.4H585.7z"/>
		<path class="st9" d="M590.4,525.5c0,1.5,0.8,2.1,1.8,2.1c0.7,0,1.1-0.1,1.3-0.3l0.1,0.4c-0.2,0.1-0.7,0.3-1.5,0.3
			c-1.4,0-2.2-1-2.2-2.4c0-1.6,0.9-2.6,2.2-2.6c1.6,0,1.9,1.5,1.9,2.2c0,0.1,0,0.2,0,0.3H590.4z M593.4,525.1c0-0.7-0.3-1.7-1.4-1.7
			c-1.1,0-1.5,0.9-1.6,1.7H593.4z"/>
		<path class="st9" d="M597.2,523.1l1.1,3c0.2,0.5,0.3,0.9,0.5,1.3h0c0.1-0.4,0.3-0.8,0.5-1.3l1.1-3h0.5l-1.9,4.8h-0.4l-1.9-4.8
			H597.2z"/>
		<path class="st9" d="M601.9,525.5c0,1.5,0.8,2.1,1.8,2.1c0.7,0,1.1-0.1,1.3-0.3l0.1,0.4c-0.2,0.1-0.7,0.3-1.5,0.3
			c-1.4,0-2.2-1-2.2-2.4c0-1.6,0.9-2.6,2.2-2.6c1.6,0,1.9,1.5,1.9,2.2c0,0.1,0,0.2,0,0.3H601.9z M605,525.1c0-0.7-0.3-1.7-1.4-1.7
			c-1.1,0-1.5,0.9-1.6,1.7H605z"/>
		<path class="st9" d="M606.7,524.3c0-0.4,0-0.8,0-1.1h0.5l0,0.9h0c0.3-0.5,0.9-1,1.6-1c0.5,0,1.7,0.2,1.7,2v2.9H610v-2.8
			c0-0.9-0.3-1.7-1.3-1.7c-0.7,0-1.2,0.5-1.4,1.1c0,0.1-0.1,0.3-0.1,0.4v3h-0.5V524.3z"/>
		<path class="st9" d="M612.7,522.1v1.1h1.4v0.4h-1.4v3.1c0,0.6,0.2,1,0.7,1c0.2,0,0.4,0,0.5-0.1l0.1,0.4c-0.2,0.1-0.4,0.1-0.7,0.1
			c-0.3,0-0.6-0.1-0.8-0.3c-0.2-0.2-0.3-0.7-0.3-1.1v-3h-0.8v-0.4h0.8v-0.9L612.7,522.1z"/>
		<path class="st9" d="M618.1,526.8c0,0.4,0,0.8,0.1,1.1h-0.4l-0.1-0.7h0c-0.2,0.4-0.8,0.8-1.5,0.8c-1,0-1.4-0.7-1.4-1.3
			c0-1.1,1-1.8,2.9-1.8v-0.1c0-0.5-0.1-1.4-1.2-1.4c-0.4,0-0.9,0.1-1.2,0.4l-0.2-0.3c0.4-0.3,1-0.4,1.4-0.4c1.4,0,1.7,1,1.7,1.9
			V526.8z M617.7,525.4c-1,0-2.4,0.1-2.4,1.3c0,0.7,0.5,1,1,1c0.8,0,1.3-0.5,1.4-1c0-0.1,0-0.2,0-0.3V525.4z"/>
		<path class="st9" d="M619.5,527.3c0.3,0.2,0.7,0.3,1.1,0.3c0.8,0,1.1-0.4,1.1-0.9c0-0.5-0.3-0.8-1-1.1c-0.8-0.3-1.2-0.7-1.2-1.3
			c0-0.7,0.5-1.3,1.5-1.3c0.4,0,0.8,0.1,1.1,0.3l-0.2,0.4c-0.2-0.1-0.5-0.3-1-0.3c-0.6,0-0.9,0.4-0.9,0.8c0,0.5,0.3,0.7,1,1
			c0.8,0.3,1.2,0.7,1.2,1.4c0,0.8-0.6,1.4-1.6,1.4c-0.5,0-0.9-0.1-1.2-0.3L619.5,527.3z"/>
		<path class="st9" d="M629.4,520.8v6c0,0.4,0,0.8,0,1.1H629l0-0.9h0c-0.2,0.5-0.8,1-1.7,1c-1.2,0-2.1-1-2.1-2.4
			c0-1.6,1-2.6,2.2-2.6c0.8,0,1.4,0.4,1.6,0.8h0v-3H629.4z M629,525c0-0.1,0-0.3-0.1-0.4c-0.2-0.6-0.7-1.2-1.5-1.2
			c-1,0-1.7,0.9-1.7,2.1c0,1.1,0.5,2.1,1.7,2.1c0.7,0,1.3-0.5,1.5-1.2c0-0.1,0.1-0.2,0.1-0.4V525z"/>
		<path class="st9" d="M631.1,525.5c0,1.5,0.8,2.1,1.8,2.1c0.7,0,1.1-0.1,1.3-0.3l0.1,0.4c-0.2,0.1-0.7,0.3-1.5,0.3
			c-1.4,0-2.2-1-2.2-2.4c0-1.6,0.9-2.6,2.2-2.6c1.6,0,1.9,1.5,1.9,2.2c0,0.1,0,0.2,0,0.3H631.1z M634.2,525.1c0-0.7-0.3-1.7-1.4-1.7
			c-1.1,0-1.5,0.9-1.6,1.7H634.2z"/>
		<path class="st9" d="M640.8,527.7c-0.2,0.2-0.7,0.4-1.5,0.4c-1.2,0-1.7-0.9-1.7-1.9c0-1.4,1.1-3.1,2.5-3.1c0.9,0,1.2,0.5,1.2,1.1
			c0,1.3-1.6,1.5-3.2,1.5c-0.1,0.2-0.1,0.8,0.1,1.2c0.2,0.5,0.6,0.8,1.2,0.8c0.6,0,1-0.2,1.3-0.3L640.8,527.7z M640.1,523.4
			c-0.9,0-1.6,0.9-1.9,1.8c1.4,0,2.7-0.2,2.7-1.1C640.9,523.7,640.6,523.4,640.1,523.4z"/>
		<path class="st9" d="M646.3,527.7c-0.4,0.2-1,0.3-1.7,0.3c-1.6,0-2.6-1.1-2.6-2.7c0-1.1,0.4-2.3,1.3-3.2c0.7-0.6,1.6-1,2.6-1
			c0.8,0,1.3,0.2,1.4,0.3l-0.2,0.4c-0.3-0.2-0.8-0.3-1.4-0.3c-0.8,0-1.6,0.3-2.2,0.9c-0.7,0.7-1.1,1.7-1.1,2.8
			c0,1.3,0.5,2.4,2.2,2.4c0.5,0,1.1-0.1,1.5-0.3L646.3,527.7z"/>
		<path class="st9" d="M651.6,525c0,1.3-1,3-2.5,3c-1.2,0-1.8-1-1.8-2c0-1.5,1.1-3.1,2.5-3.1C651.1,523,651.6,524.1,651.6,525z
			 M647.7,526.1c0,0.9,0.5,1.6,1.4,1.6c1.1,0,2-1.3,2-2.6c0-0.6-0.3-1.6-1.3-1.6C648.6,523.4,647.7,524.7,647.7,526.1z"/>
		<path class="st9" d="M652.3,527.9l0.7-3.5c0.1-0.5,0.2-0.9,0.2-1.3h0.4l-0.1,1h0c0.4-0.7,1.1-1.1,1.7-1.1c0.7,0,1.1,0.5,1.1,1.2
			c0.4-0.7,1-1.1,1.8-1.2c0.4,0,1.2,0.3,1.2,1.2c0,0.2,0,0.5-0.1,0.8l-0.5,2.9h-0.5l0.5-2.9c0-0.2,0.1-0.4,0.1-0.6
			c0-0.6-0.2-1-0.9-1c-0.7,0-1.5,0.7-1.7,1.9l-0.5,2.6h-0.4l0.6-2.9c0-0.2,0.1-0.4,0.1-0.6c0-0.4-0.1-1-0.9-1
			c-0.7,0-1.6,0.9-1.8,1.9l-0.5,2.6H652.3z"/>
		<path class="st9" d="M660.2,527.9l0.7-3.5c0.1-0.5,0.2-0.9,0.2-1.3h0.4l-0.1,1h0c0.5-0.7,1.1-1.1,1.7-1.1c0.7,0,1.1,0.5,1.1,1.2
			c0.4-0.7,1-1.1,1.8-1.2c0.4,0,1.2,0.3,1.2,1.2c0,0.2,0,0.5-0.1,0.8l-0.5,2.9h-0.4l0.5-2.9c0-0.2,0.1-0.4,0.1-0.6
			c0-0.6-0.2-1-0.9-1c-0.7,0-1.5,0.7-1.8,1.9l-0.5,2.6h-0.5l0.6-2.9c0-0.2,0.1-0.4,0.1-0.6c0-0.4-0.1-1-0.9-1
			c-0.7,0-1.6,0.9-1.8,1.9l-0.5,2.6H660.2z"/>
		<path class="st9" d="M671.3,527.7c-0.2,0.2-0.7,0.4-1.5,0.4c-1.2,0-1.7-0.9-1.7-1.9c0-1.4,1.1-3.1,2.5-3.1c0.9,0,1.2,0.5,1.2,1.1
			c0,1.3-1.6,1.5-3.2,1.5c-0.1,0.2-0.1,0.8,0.1,1.2c0.2,0.5,0.6,0.8,1.2,0.8c0.6,0,1-0.2,1.3-0.3L671.3,527.7z M670.6,523.4
			c-0.9,0-1.6,0.9-1.9,1.8c1.4,0,2.7-0.2,2.7-1.1C671.4,523.7,671.1,523.4,670.6,523.4z"/>
		<path class="st9" d="M672.4,527.9l0.6-3.2c0.1-0.6,0.2-1.1,0.2-1.6h0.4c0,0.3-0.1,0.7-0.2,1.1h0c0.3-0.7,0.8-1.2,1.4-1.2
			c0.1,0,0.2,0,0.2,0l-0.1,0.5c0,0-0.1,0-0.2,0c-0.6,0-1.4,0.9-1.6,2.1l-0.4,2.3H672.4z"/>
		<path class="st9" d="M678.4,527.7c-0.2,0.1-0.7,0.3-1.4,0.3c-1.3,0-1.7-0.9-1.7-1.8c0-1.6,1.2-3.2,2.8-3.2c0.5,0,0.9,0.2,1,0.2
			l-0.2,0.4c-0.2-0.1-0.5-0.2-0.9-0.2c-1.4,0-2.3,1.5-2.3,2.7c0,0.8,0.4,1.5,1.3,1.5c0.5,0,1-0.2,1.2-0.3L678.4,527.7z"/>
		<path class="st9" d="M682.5,527.7c-0.2,0.2-0.7,0.4-1.5,0.4c-1.2,0-1.7-0.9-1.7-1.9c0-1.4,1.1-3.1,2.5-3.1c0.9,0,1.2,0.5,1.2,1.1
			c0,1.3-1.6,1.5-3.2,1.5c-0.1,0.2-0.1,0.8,0.1,1.2c0.2,0.5,0.6,0.8,1.2,0.8c0.6,0,1-0.2,1.3-0.3L682.5,527.7z M681.8,523.4
			c-0.9,0-1.6,0.9-1.9,1.8c1.4,0,2.7-0.2,2.7-1.1C682.7,523.7,682.3,523.4,681.8,523.4z"/>
	</g>
	<path class="st7" d="M561.3,402.7h99.8c3.1,0,5.7,2.5,5.7,5.7v0c0,3.1-2.5,5.7-5.7,5.7h-99.8V402.7z"/>
	<path class="st7" d="M561.1,433.7h58.1c3.3,0,6,2.5,6,5.7l0,0c0,3.1-2.7,5.7-6,5.7h-58.1V433.7z"/>
	<path class="st7" d="M561.3,468H441.5c-3.8,0-6.9,2.5-6.9,5.7l0,0c0,3.1,3.1,5.7,6.9,5.7h119.9V468z"/>
</g>
</svg>
