<?xml version="1.0" encoding="utf-8"?>
<!-- Generator: Adobe Illustrator 25.0.1, SVG Export Plug-In . SVG Version: 6.00 Build 0)  -->
<svg version="1.1" id="Capa_1" xmlns="http://www.w3.org/2000/svg" xmlns:xlink="http://www.w3.org/1999/xlink" x="0px" y="0px"
	 viewBox="0 0 512 512" style="enable-background:new 0 0 512 512;" xml:space="preserve">
<style type="text/css">
	.st0{fill:#FFFFFF;}
</style>
<g>
	<path class="st0" d="M256,0C114.6,0,0,114.6,0,256s114.6,256,256,256c7.7,0,15.4-0.3,23-1c7.1-0.6,14.2-1.6,21.1-2.8l2.7-0.5
		c130-24.3,220.1-143.5,208-275.2C498.7,100.8,388.2,0,256,0z M235.4,494h-0.6c-6.6-0.6-13.2-1.5-19.8-2.6c-0.4-0.1-0.8-0.1-1.1-0.2
		c-6.4-1.1-12.7-2.6-19-4.2l-1.5-0.4c-6.1-1.7-12.1-3.6-18.1-5.7c-0.6-0.2-1.2-0.4-1.9-0.6c-5.8-2.1-11.6-4.5-17.2-7.1
		c-0.7-0.3-1.4-0.6-2.1-0.9c-5.5-2.6-10.9-5.4-16.3-8.5c-0.8-0.4-1.5-0.9-2.3-1.3c-5.2-3.1-10.3-6.3-15.4-9.8
		c-0.8-0.5-1.5-1-2.3-1.6c-4.9-3.5-9.7-7.2-14.4-11.1l-1.3-1.1v-71.9c0.1-51.8,42.1-93.8,93.9-93.9h119.5
		c51.8,0.1,93.8,42,93.9,93.9v72l-1.1,0.9c-4.8,4-9.7,7.8-14.7,11.3c-0.7,0.5-1.3,0.9-2,1.4c-5.1,3.5-10.3,6.8-15.6,10
		c-0.7,0.4-1.4,0.8-2,1.1c-5.4,3.1-10.9,6-16.5,8.6c-0.6,0.3-1.3,0.6-1.9,0.9c-5.7,2.6-11.5,5-17.3,7.2c-0.6,0.2-1.2,0.4-1.7,0.6
		c-6,2.1-12,4.1-18.2,5.7l-1.5,0.4c-6.3,1.7-12.6,3.1-19,4.2c-0.4,0.1-0.7,0.1-1.1,0.2c-6.5,1.1-13.1,2-19.8,2.6h-0.6
		c-6.8,0.6-13.7,0.9-20.6,0.9S242.2,494.6,235.4,494z M426.7,423.1v-56.1C426.6,305.7,377,256.1,315.7,256H196.3
		C135,256.1,85.4,305.7,85.3,366.9v56.1C-6.6,329.3-5.6,178.9,87.6,86.3c93.2-92.5,243.6-92.5,336.8,0
		C517.6,178.9,518.6,329.3,426.7,423.1L426.7,423.1z"/>
	<path class="st0" d="M256,68.3c-47.1,0-85.3,38.2-85.3,85.3s38.2,85.3,85.3,85.3s85.3-38.2,85.3-85.3
		C341.3,106.5,303.1,68.3,256,68.3z M256,221.9c-37.7,0-68.3-30.6-68.3-68.3s30.6-68.3,68.3-68.3s68.3,30.6,68.3,68.3
		C324.2,191.3,293.7,221.8,256,221.9z"/>
</g>
</svg>
