<svg id="Capa_1" data-name="Capa 1" xmlns="http://www.w3.org/2000/svg" xmlns:xlink="http://www.w3.org/1999/xlink" viewBox="0 0 43 43"><defs><style>.cls-1{fill:none;}.cls-2{clip-path:url(#clip-path);}.cls-3{fill:#9169c9;}.cls-4{fill:#fff;}.cls-5{fill:#4a5b6d;}</style><clipPath id="clip-path" transform="translate(-2.5 -2.5)"><rect class="cls-1" x="2.5" y="2.5" width="43" height="43"/></clipPath></defs><g class="cls-2"><path class="cls-3" d="M24,45.5A21.5,21.5,0,1,0,2.5,24,21.5,21.5,0,0,0,24,45.5" transform="translate(-2.5 -2.5)"/><path class="cls-4" d="M24,32a8,8,0,1,0-8-8,8,8,0,0,0,8,8" transform="translate(-2.5 -2.5)"/></g><path class="cls-5" d="M21,22.67h0l-1.17.56-.24-1.08,1.63-.75h1.19v6.15H21Z" transform="translate(-2.5 -2.5)"/><path class="cls-5" d="M28.94,24.44c0,1.91-.77,3.21-2.34,3.21s-2.29-1.43-2.3-3.17.76-3.19,2.35-3.19S28.94,22.76,28.94,24.44Zm-3.19,0c0,1.41.33,2.08.89,2.08s.86-.7.86-2.1-.29-2.08-.87-2.08S25.74,23.05,25.75,24.48Z" transform="translate(-2.5 -2.5)"/></svg>