<svg id="Capa_1" data-name="Capa 1" xmlns="http://www.w3.org/2000/svg" xmlns:xlink="http://www.w3.org/1999/xlink" viewBox="0 0 14.5 24.16"><defs><style>.cls-1{fill:none;}.cls-2{clip-path:url(#clip-path);}.cls-3{fill:#00539b;}.cls-4{fill:#fff;}.cls-5{fill:#4a5b6d;}</style><clipPath id="clip-path" transform="translate(-16.75 -12.34)"><rect class="cls-1" x="12.89" y="11.5" width="22.22" height="25"/></clipPath></defs><g class="cls-2"><path class="cls-3" d="M24,36.5a7.25,7.25,0,1,0-7.25-7.25A7.26,7.26,0,0,0,24,36.5" transform="translate(-16.75 -12.34)"/><path class="cls-4" d="M24,33a3.75,3.75,0,1,0-3.75-3.75A3.75,3.75,0,0,0,24,33" transform="translate(-16.75 -12.34)"/><path class="cls-5" d="M21,13.72h0l-1.17.56-.24-1.08,1.63-.75h1.19v6.14H21Z" transform="translate(-16.75 -12.34)"/><path class="cls-5" d="M24.4,18.59v-.87l.79-.71c1.35-1.21,2-1.9,2-2.62,0-.5-.31-.89-1-.89a2.18,2.18,0,0,0-1.31.51l-.41-1a3.37,3.37,0,0,1,2-.64,1.91,1.91,0,0,1,2.15,1.93A3.8,3.8,0,0,1,27,16.92l-.57.47v0h2.32v1.18Z" transform="translate(-16.75 -12.34)"/></g></svg>