<svg id="Capa_1" data-name="Capa 1" xmlns="http://www.w3.org/2000/svg" xmlns:xlink="http://www.w3.org/1999/xlink" viewBox="0 0 14.5 24.16"><defs><style>.cls-1{fill:none;}.cls-2{clip-path:url(#clip-path);}.cls-3{fill:#9169c9;}.cls-4{fill:#fff;}.cls-5{fill:#4a5b6d;}</style><clipPath id="clip-path" transform="translate(-16.75 -12.34)"><rect class="cls-1" x="12.89" y="11.5" width="22.22" height="25"/></clipPath></defs><g class="cls-2"><path class="cls-3" d="M24,36.5a7.25,7.25,0,1,0-7.25-7.25A7.26,7.26,0,0,0,24,36.5" transform="translate(-16.75 -12.34)"/><path class="cls-4" d="M24,33a3.75,3.75,0,1,0-3.75-3.75A3.75,3.75,0,0,0,24,33" transform="translate(-16.75 -12.34)"/><path class="cls-5" d="M21,13.72h0l-1.17.56-.24-1.08,1.63-.75h1.19v6.14H21Z" transform="translate(-16.75 -12.34)"/><path class="cls-5" d="M24.65,17.19a3.45,3.45,0,0,0,1.43.37c.75,0,1.13-.36,1.13-.82s-.61-.88-1.24-.88h-.59v-1h.56c.48,0,1.1-.19,1.1-.71,0-.37-.31-.64-.91-.64a2.74,2.74,0,0,0-1.29.37l-.29-1a3.94,3.94,0,0,1,1.9-.46c1.32,0,2,.69,2,1.53a1.47,1.47,0,0,1-1.12,1.43v0a1.52,1.52,0,0,1,1.33,1.5c0,1.08-.95,1.88-2.51,1.88a3.6,3.6,0,0,1-1.83-.44Z" transform="translate(-16.75 -12.34)"/></g></svg>