<svg id="Capa_1" data-name="Capa 1" xmlns="http://www.w3.org/2000/svg" xmlns:xlink="http://www.w3.org/1999/xlink" viewBox="0 0 14.5 24.15"><defs><style>.cls-1{fill:none;}.cls-2{clip-path:url(#clip-path);}.cls-3{fill:#7ac143;}.cls-4{fill:#fff;}.cls-5{fill:#4a5b6d;}</style><clipPath id="clip-path" transform="translate(-16.75 -12.35)"><rect class="cls-1" x="12.89" y="11.5" width="22.22" height="25"/></clipPath></defs><g class="cls-2"><path class="cls-3" d="M24,36.5a7.25,7.25,0,1,0-7.25-7.25A7.26,7.26,0,0,0,24,36.5" transform="translate(-16.75 -12.35)"/><path class="cls-4" d="M24,33a3.75,3.75,0,1,0-3.75-3.75A3.75,3.75,0,0,0,24,33" transform="translate(-16.75 -12.35)"/><path class="cls-5" d="M21,13.72h0l-1.17.56-.24-1.08,1.63-.75h1.19v6.14H21Z" transform="translate(-16.75 -12.35)"/><path class="cls-5" d="M28.32,13.47a3.61,3.61,0,0,0-.55,0,2,2,0,0,0-2,1.47h0a1.73,1.73,0,0,1,1.3-.49,1.88,1.88,0,0,1,1.91,2,2.2,2.2,0,0,1-2.28,2.22A2.41,2.41,0,0,1,24.28,16a3.68,3.68,0,0,1,1.09-2.73,3.71,3.71,0,0,1,2.38-.91,3.79,3.79,0,0,1,.57,0Zm-.78,3.08A.93.93,0,0,0,25.77,16a.81.81,0,0,0-.06.36c0,.65.34,1.24,1,1.24C27.22,17.64,27.54,17.18,27.54,16.55Z" transform="translate(-16.75 -12.35)"/></g></svg>