<svg id="Capa_1" data-name="Capa 1" xmlns="http://www.w3.org/2000/svg" xmlns:xlink="http://www.w3.org/1999/xlink" viewBox="0 0 14.5 24.05"><defs><style>.cls-1{fill:none;}.cls-2{clip-path:url(#clip-path);}.cls-3{fill:#00539b;}.cls-4{fill:#fff;}.cls-5{fill:#4a5b6d;}</style><clipPath id="clip-path" transform="translate(-16.75 -12.45)"><rect class="cls-1" x="12.89" y="11.5" width="22.22" height="25"/></clipPath></defs><g class="cls-2"><path class="cls-3" d="M24,36.5a7.25,7.25,0,1,0-7.25-7.25A7.26,7.26,0,0,0,24,36.5" transform="translate(-16.75 -12.45)"/><path class="cls-4" d="M24,33a3.75,3.75,0,1,0-3.75-3.75A3.75,3.75,0,0,0,24,33" transform="translate(-16.75 -12.45)"/><path class="cls-5" d="M21,13.72h0l-1.17.56-.24-1.08,1.63-.75h1.19v6.14H21Z" transform="translate(-16.75 -12.45)"/><path class="cls-5" d="M28.81,12.45v.9l-2.54,5.24H24.75l2.53-4.94v0H24.46V12.45Z" transform="translate(-16.75 -12.45)"/></g></svg>