<svg id="Capa_1" data-name="Capa 1" xmlns="http://www.w3.org/2000/svg" xmlns:xlink="http://www.w3.org/1999/xlink" viewBox="0 0 14.5 24.16"><defs><style>.cls-1{fill:none;}.cls-2{clip-path:url(#clip-path);}.cls-3{fill:#6caddf;}.cls-4{fill:#fff;}.cls-5{fill:#4a5b6d;}</style><clipPath id="clip-path" transform="translate(-16.75 -12.34)"><rect class="cls-1" x="12.89" y="11.5" width="22.22" height="25"/></clipPath></defs><g class="cls-2"><path class="cls-3" d="M24,36.5a7.25,7.25,0,1,0-7.25-7.25A7.26,7.26,0,0,0,24,36.5" transform="translate(-16.75 -12.34)"/><path class="cls-4" d="M24,33a3.75,3.75,0,1,0-3.75-3.75A3.75,3.75,0,0,0,24,33" transform="translate(-16.75 -12.34)"/><path class="cls-5" d="M21,13.72h0l-1.17.56-.24-1.08,1.63-.75h1.19v6.14H21Z" transform="translate(-16.75 -12.34)"/><path class="cls-5" d="M24.3,17a1.65,1.65,0,0,1,1.1-1.55v0a1.5,1.5,0,0,1-.89-1.35c0-1,.94-1.73,2.17-1.73,1.44,0,2,.83,2,1.58a1.48,1.48,0,0,1-.89,1.35v0A1.63,1.63,0,0,1,29,16.83C29,18,28,18.7,26.58,18.7S24.3,17.82,24.3,17Zm3.18,0c0-.54-.4-.86-1-1a.92.92,0,0,0-.75.91.85.85,0,0,0,.87.87A.78.78,0,0,0,27.48,16.94ZM25.86,14c0,.41.38.68.87.83a.86.86,0,0,0,.63-.79.7.7,0,0,0-.75-.75A.69.69,0,0,0,25.86,14Z" transform="translate(-16.75 -12.34)"/></g></svg>