<svg id="Capa_1" data-name="Capa 1" xmlns="http://www.w3.org/2000/svg" xmlns:xlink="http://www.w3.org/1999/xlink" viewBox="0 0 14.5 24.16"><defs><style>.cls-1{fill:none;}.cls-2{clip-path:url(#clip-path);}.cls-3{fill:#fdb71a;}.cls-4{fill:#fff;}.cls-5{fill:#4a5b6d;}</style><clipPath id="clip-path" transform="translate(-16.75 -12.34)"><rect class="cls-1" x="12.89" y="11.5" width="22.22" height="25"/></clipPath></defs><g class="cls-2"><path class="cls-3" d="M24,36.5a7.25,7.25,0,1,0-7.25-7.25A7.26,7.26,0,0,0,24,36.5" transform="translate(-16.75 -12.34)"/><path class="cls-4" d="M24,33a3.75,3.75,0,1,0-3.75-3.75A3.75,3.75,0,0,0,24,33" transform="translate(-16.75 -12.34)"/><path class="cls-5" d="M21,13.72h0l-1.17.56-.24-1.08,1.63-.75h1.19v6.14H21Z" transform="translate(-16.75 -12.34)"/><path class="cls-5" d="M24.85,17.55a3.26,3.26,0,0,0,.63,0,2.46,2.46,0,0,0,1.21-.37A2,2,0,0,0,27.46,16h0a1.63,1.63,0,0,1-1.23.45,1.86,1.86,0,0,1-1.92-1.93,2.24,2.24,0,0,1,2.32-2.21c1.58,0,2.33,1.21,2.33,2.65a3.68,3.68,0,0,1-1.08,2.83,3.65,3.65,0,0,1-2.35.86,4.66,4.66,0,0,1-.65,0Zm.87-3.08a.88.88,0,0,0,.87,1,.94.94,0,0,0,.8-.4.78.78,0,0,0,.07-.36c0-.65-.24-1.3-.9-1.3C26.07,13.39,25.71,13.83,25.72,14.47Z" transform="translate(-16.75 -12.34)"/></g></svg>