<svg id="Capa_1" data-name="Capa 1" xmlns="http://www.w3.org/2000/svg" xmlns:xlink="http://www.w3.org/1999/xlink" viewBox="0 0 14.5 24.16"><defs><style>.cls-1{fill:none;}.cls-2{clip-path:url(#clip-path);}.cls-3{fill:#6caddf;}.cls-4{fill:#fff;}.cls-5{fill:#4a5b6d;}</style><clipPath id="clip-path" transform="translate(-16.75 -12.34)"><rect class="cls-1" x="12.89" y="11.5" width="22.22" height="25"/></clipPath></defs><g class="cls-2"><path class="cls-3" d="M24,36.5a7.25,7.25,0,1,0-7.25-7.25A7.26,7.26,0,0,0,24,36.5" transform="translate(-16.75 -12.34)"/><path class="cls-4" d="M24,33a3.75,3.75,0,1,0-3.75-3.75A3.75,3.75,0,0,0,24,33" transform="translate(-16.75 -12.34)"/><path class="cls-5" d="M19.15,18.59v-.87l.79-.71c1.35-1.21,2-1.9,2-2.62,0-.5-.31-.89-1-.89a2.21,2.21,0,0,0-1.32.51l-.41-1a3.37,3.37,0,0,1,2-.64,1.92,1.92,0,0,1,2.16,1.93,3.82,3.82,0,0,1-1.64,2.65l-.57.47v0h2.32v1.18Z" transform="translate(-16.75 -12.34)"/><path class="cls-5" d="M28.94,15.49c0,1.9-.77,3.21-2.34,3.21s-2.29-1.43-2.3-3.17.76-3.19,2.35-3.19S28.94,13.81,28.94,15.49Zm-3.19,0c0,1.41.33,2.08.89,2.08s.86-.7.86-2.1-.29-2.08-.87-2.08S25.74,14.1,25.75,15.53Z" transform="translate(-16.75 -12.34)"/></g></svg>