<svg id="Capa_1" data-name="Capa 1" xmlns="http://www.w3.org/2000/svg" xmlns:xlink="http://www.w3.org/1999/xlink" viewBox="0 0 9.66 17.66"><defs><style>.cls-1{fill:none;}.cls-2{clip-path:url(#clip-path);}.cls-3{fill:#7ac143;}.cls-4{fill:#4a5b6d;}</style><clipPath id="clip-path" transform="translate(-19.15 -15.59)"><rect class="cls-1" x="12.89" y="14.75" width="22.22" height="18.5"/></clipPath></defs><g class="cls-2"><path class="cls-3" d="M24,33.25a3.75,3.75,0,1,0-3.75-3.75A3.75,3.75,0,0,0,24,33.25" transform="translate(-19.15 -15.59)"/><path class="cls-4" d="M19.15,21.84V21l.79-.71c1.35-1.21,2-1.9,2-2.62,0-.5-.31-.89-1-.89a2.21,2.21,0,0,0-1.32.51l-.41-1a3.37,3.37,0,0,1,2-.64,1.92,1.92,0,0,1,2.16,1.93,3.82,3.82,0,0,1-1.64,2.65l-.57.47v0h2.32v1.18Z" transform="translate(-19.15 -15.59)"/><path class="cls-4" d="M28.81,15.7v.9l-2.54,5.24H24.75l2.53-4.94v0H24.46V15.7Z" transform="translate(-19.15 -15.59)"/></g></svg>