<svg id="Capa_1" data-name="Capa 1" xmlns="http://www.w3.org/2000/svg" xmlns:xlink="http://www.w3.org/1999/xlink" viewBox="0 0 9.8 17.66"><defs><style>.cls-1{fill:none;}.cls-2{clip-path:url(#clip-path);}.cls-3{fill:#fdb71a;}.cls-4{fill:#4a5b6d;}</style><clipPath id="clip-path" transform="translate(-19.15 -15.59)"><rect class="cls-1" x="12.89" y="14.75" width="22.22" height="18.5"/></clipPath></defs><g class="cls-2"><path class="cls-3" d="M24,33.25a3.75,3.75,0,1,0-3.75-3.75A3.75,3.75,0,0,0,24,33.25" transform="translate(-19.15 -15.59)"/><path class="cls-4" d="M19.15,21.84V21l.79-.71c1.35-1.21,2-1.9,2-2.62,0-.5-.31-.89-1-.89a2.21,2.21,0,0,0-1.32.51l-.41-1a3.37,3.37,0,0,1,2-.64,1.92,1.92,0,0,1,2.16,1.93,3.82,3.82,0,0,1-1.64,2.65l-.57.47v0h2.32v1.18Z" transform="translate(-19.15 -15.59)"/><path class="cls-4" d="M24.3,20.24a1.65,1.65,0,0,1,1.1-1.55v0a1.5,1.5,0,0,1-.89-1.35c0-1,.94-1.73,2.17-1.73,1.44,0,2,.83,2,1.58a1.48,1.48,0,0,1-.89,1.35v0A1.63,1.63,0,0,1,29,20.08C29,21.2,28,22,26.58,22S24.3,21.07,24.3,20.24Zm3.18,0c0-.54-.4-.86-1-1a.92.92,0,0,0-.75.91.85.85,0,0,0,.87.87A.78.78,0,0,0,27.48,20.19Zm-1.62-2.91c0,.41.38.68.87.83a.86.86,0,0,0,.63-.79.7.7,0,0,0-.75-.75A.69.69,0,0,0,25.86,17.28Z" transform="translate(-19.15 -15.59)"/></g></svg>