<svg id="Capa_1" data-name="Capa 1" xmlns="http://www.w3.org/2000/svg" xmlns:xlink="http://www.w3.org/1999/xlink" viewBox="0 0 9.78 17.66"><defs><style>.cls-1{fill:none;}.cls-2{clip-path:url(#clip-path);}.cls-3{fill:#6caddf;}.cls-4{fill:#4a5b6d;}</style><clipPath id="clip-path" transform="translate(-19.15 -15.59)"><rect class="cls-1" x="12.89" y="14.75" width="22.22" height="18.5"/></clipPath></defs><g class="cls-2"><path class="cls-3" d="M24,33.25a3.75,3.75,0,1,0-3.75-3.75A3.75,3.75,0,0,0,24,33.25" transform="translate(-19.15 -15.59)"/><path class="cls-4" d="M19.15,21.84V21l.79-.71c1.35-1.21,2-1.9,2-2.62,0-.5-.31-.89-1-.89a2.21,2.21,0,0,0-1.32.51l-.41-1a3.37,3.37,0,0,1,2-.64,1.92,1.92,0,0,1,2.16,1.93,3.82,3.82,0,0,1-1.64,2.65l-.57.47v0h2.32v1.18Z" transform="translate(-19.15 -15.59)"/><path class="cls-4" d="M24.85,20.8a3.26,3.26,0,0,0,.63,0,2.46,2.46,0,0,0,1.21-.37,2,2,0,0,0,.77-1.14h0a1.63,1.63,0,0,1-1.23.45,1.86,1.86,0,0,1-1.92-1.93,2.24,2.24,0,0,1,2.32-2.21c1.58,0,2.33,1.21,2.33,2.65a3.34,3.34,0,0,1-3.43,3.69,4.66,4.66,0,0,1-.65,0Zm.87-3.08a.88.88,0,0,0,.87,1,.94.94,0,0,0,.8-.4.78.78,0,0,0,.07-.36c0-.65-.24-1.3-.9-1.3C26.07,16.64,25.71,17.08,25.72,17.72Z" transform="translate(-19.15 -15.59)"/></g></svg>