<svg id="Capa_1" data-name="Capa 1" xmlns="http://www.w3.org/2000/svg" xmlns:xlink="http://www.w3.org/1999/xlink" viewBox="0 0 43 43"><defs><style>.cls-1{fill:none;}.cls-2{clip-path:url(#clip-path);}.cls-3{fill:#00539b;}.cls-4{fill:#fff;}.cls-5{fill:#4a5b6d;}</style><clipPath id="clip-path" transform="translate(-2.5 -2.5)"><rect class="cls-1" x="2.5" y="2.5" width="43" height="43"/></clipPath></defs><g class="cls-2"><path class="cls-3" d="M24,45.5A21.5,21.5,0,1,0,2.5,24,21.5,21.5,0,0,0,24,45.5" transform="translate(-2.5 -2.5)"/><path class="cls-4" d="M24,32a8,8,0,1,0-8-8,8,8,0,0,0,8,8" transform="translate(-2.5 -2.5)"/></g><path class="cls-5" d="M21.77,27.55v-.87l.8-.72c1.34-1.2,2-1.89,2-2.61,0-.51-.3-.9-1-.9a2.24,2.24,0,0,0-1.32.51l-.4-1a3.39,3.39,0,0,1,2-.64A1.92,1.92,0,0,1,26,23.22a3.82,3.82,0,0,1-1.64,2.65l-.56.48h2.31v1.19Z" transform="translate(-2.5 -2.5)"/></svg>