<svg id="Capa_1" data-name="Capa 1" xmlns="http://www.w3.org/2000/svg" xmlns:xlink="http://www.w3.org/1999/xlink" viewBox="0 0 9.83 17.66"><defs><style>.cls-1{fill:none;}.cls-2{clip-path:url(#clip-path);}.cls-3{fill:#9169c9;}.cls-4{fill:#4a5b6d;}</style><clipPath id="clip-path" transform="translate(-19.11 -15.59)"><rect class="cls-1" x="12.89" y="14.75" width="22.22" height="18.5"/></clipPath></defs><g class="cls-2"><path class="cls-3" d="M24,33.25a3.75,3.75,0,1,0-3.75-3.75A3.75,3.75,0,0,0,24,33.25" transform="translate(-19.11 -15.59)"/><path class="cls-4" d="M19.4,20.44a3.5,3.5,0,0,0,1.43.37c.75,0,1.13-.36,1.13-.82s-.61-.88-1.24-.88h-.59v-1h.56c.48,0,1.1-.19,1.1-.71s-.31-.64-.91-.64a2.74,2.74,0,0,0-1.29.37l-.29-1.05a3.94,3.94,0,0,1,1.9-.46c1.32,0,2,.69,2,1.53a1.46,1.46,0,0,1-1.12,1.43v0a1.52,1.52,0,0,1,1.33,1.5c0,1.08-.95,1.88-2.51,1.88a3.6,3.6,0,0,1-1.83-.44Z" transform="translate(-19.11 -15.59)"/><path class="cls-4" d="M28.94,18.74c0,1.9-.77,3.21-2.34,3.21s-2.29-1.43-2.3-3.17.76-3.19,2.35-3.19S28.94,17.06,28.94,18.74Zm-3.19,0c0,1.41.33,2.08.89,2.08s.86-.7.86-2.1-.29-2.08-.87-2.08S25.74,17.35,25.75,18.78Z" transform="translate(-19.11 -15.59)"/></g></svg>