<svg id="Capa_1" data-name="Capa 1" xmlns="http://www.w3.org/2000/svg" xmlns:xlink="http://www.w3.org/1999/xlink" viewBox="0 0 43 43"><defs><style>.cls-1{fill:none;}.cls-2{clip-path:url(#clip-path);}.cls-3{fill:#7ac143;}.cls-4{fill:#fff;}.cls-5{fill:#4a5b6d;}</style><clipPath id="clip-path" transform="translate(-2.5 -2.5)"><rect class="cls-1" x="2.5" y="2.5" width="43" height="43"/></clipPath></defs><g class="cls-2"><path class="cls-3" d="M24,45.5A21.5,21.5,0,1,0,2.5,24,21.5,21.5,0,0,0,24,45.5" transform="translate(-2.5 -2.5)"/><path class="cls-4" d="M24,32a8,8,0,1,0-8-8,8,8,0,0,0,8,8" transform="translate(-2.5 -2.5)"/></g><path class="cls-5" d="M22,26.14a3.39,3.39,0,0,0,1.43.38c.74,0,1.12-.36,1.12-.83s-.6-.88-1.24-.88h-.58v-1h.55c.49,0,1.1-.19,1.1-.71s-.3-.64-.91-.64a2.78,2.78,0,0,0-1.28.37l-.3-1a3.83,3.83,0,0,1,1.91-.47c1.31,0,2,.69,2,1.54a1.46,1.46,0,0,1-1.13,1.42v0a1.54,1.54,0,0,1,1.34,1.5c0,1.09-1,1.88-2.52,1.88a3.75,3.75,0,0,1-1.83-.43Z" transform="translate(-2.5 -2.5)"/></svg>