<svg id="Capa_1" data-name="Capa 1" xmlns="http://www.w3.org/2000/svg" xmlns:xlink="http://www.w3.org/1999/xlink" viewBox="0 0 43 43"><defs><style>.cls-1{fill:none;}.cls-2{clip-path:url(#clip-path);}.cls-3{fill:#fdb71a;}.cls-4{fill:#fff;}.cls-5{fill:#4a5b6d;}</style><clipPath id="clip-path" transform="translate(-2.5 -2.5)"><rect class="cls-1" x="2.5" y="2.5" width="43" height="43"/></clipPath></defs><g class="cls-2"><path class="cls-3" d="M24,45.5A21.5,21.5,0,1,0,2.5,24,21.5,21.5,0,0,0,24,45.5" transform="translate(-2.5 -2.5)"/><path class="cls-4" d="M24,32a8,8,0,1,0-8-8,8,8,0,0,0,8,8" transform="translate(-2.5 -2.5)"/></g><path class="cls-5" d="M24.32,27.55V26.08H21.59v-.94l2.33-3.74h1.76V25h.74v1.08h-.74v1.47Zm0-2.55V23.64c0-.37,0-.75,0-1.14h0c-.2.39-.36.75-.57,1.14L22.94,25v0Z" transform="translate(-2.5 -2.5)"/></svg>