<svg id="Capa_1" data-name="Capa 1" xmlns="http://www.w3.org/2000/svg" xmlns:xlink="http://www.w3.org/1999/xlink" viewBox="0 0 43 43"><defs><style>.cls-1{fill:none;}.cls-2{clip-path:url(#clip-path);}.cls-3{fill:#00539b;}.cls-4{fill:#fff;}.cls-5{fill:#4a5b6d;}</style><clipPath id="clip-path" transform="translate(-2.5 -2.5)"><rect class="cls-1" x="2.5" y="2.5" width="43" height="43"/></clipPath></defs><g class="cls-2"><path class="cls-3" d="M24,45.5A21.5,21.5,0,1,0,2.5,24,21.5,21.5,0,0,0,24,45.5" transform="translate(-2.5 -2.5)"/><path class="cls-4" d="M24,32a8,8,0,1,0-8-8,8,8,0,0,0,8,8" transform="translate(-2.5 -2.5)"/></g><path class="cls-5" d="M25.88,22.58H23.49l-.13,1a2.55,2.55,0,0,1,.4,0,2.84,2.84,0,0,1,1.62.44,1.76,1.76,0,0,1,.74,1.54c0,1.15-1,2.16-2.64,2.16a3.92,3.92,0,0,1-1.71-.35L22,26.22a3.53,3.53,0,0,0,1.39.31c.59,0,1.23-.29,1.23-.94s-.5-1-1.73-1a6.78,6.78,0,0,0-.84.05l.41-3.22h3.39Z" transform="translate(-2.5 -2.5)"/></svg>