<svg id="Capa_1" data-name="Capa 1" xmlns="http://www.w3.org/2000/svg" xmlns:xlink="http://www.w3.org/1999/xlink" viewBox="0 0 43 43"><defs><style>.cls-1{fill:none;}.cls-2{clip-path:url(#clip-path);}.cls-3{fill:#7ac143;}.cls-4{fill:#fff;}.cls-5{fill:#4a5b6d;}</style><clipPath id="clip-path" transform="translate(-2.5 -2.5)"><rect class="cls-1" x="2.5" y="2.5" width="43" height="43"/></clipPath></defs><g class="cls-2"><path class="cls-3" d="M24,45.5A21.5,21.5,0,1,0,2.5,24,21.5,21.5,0,0,0,24,45.5" transform="translate(-2.5 -2.5)"/><path class="cls-4" d="M24,32a8,8,0,1,0-8-8,8,8,0,0,0,8,8" transform="translate(-2.5 -2.5)"/></g><path class="cls-5" d="M25.7,22.42a3.78,3.78,0,0,0-.56,0,2,2,0,0,0-2,1.47h0a1.76,1.76,0,0,1,1.31-.49,1.87,1.87,0,0,1,1.9,2,2.2,2.2,0,0,1-2.27,2.22A2.41,2.41,0,0,1,21.66,25a3.42,3.42,0,0,1,3.46-3.64,3.93,3.93,0,0,1,.58,0Zm-.79,3.08A.94.94,0,0,0,24,24.44a1,1,0,0,0-.86.55,1,1,0,0,0-.05.36c0,.65.34,1.24,1,1.24S24.91,26.13,24.91,25.5Z" transform="translate(-2.5 -2.5)"/></svg>