<svg id="Capa_1" data-name="Capa 1" xmlns="http://www.w3.org/2000/svg" xmlns:xlink="http://www.w3.org/1999/xlink" viewBox="0 0 43 43"><defs><style>.cls-1{fill:none;}.cls-2{clip-path:url(#clip-path);}.cls-3{fill:#6caddf;}.cls-4{fill:#fff;}.cls-5{fill:#4a5b6d;}</style><clipPath id="clip-path" transform="translate(-2.5 -2.5)"><rect class="cls-1" x="2.5" y="2.5" width="43" height="43"/></clipPath></defs><g class="cls-2"><path class="cls-3" d="M24,45.5A21.5,21.5,0,1,0,2.5,24,21.5,21.5,0,0,0,24,45.5" transform="translate(-2.5 -2.5)"/><path class="cls-4" d="M24,32a8,8,0,1,0-8-8,8,8,0,0,0,8,8" transform="translate(-2.5 -2.5)"/></g><path class="cls-5" d="M21.68,25.94a1.62,1.62,0,0,1,1.1-1.54v0A1.49,1.49,0,0,1,21.89,23c0-1,.93-1.73,2.16-1.73,1.44,0,2,.84,2,1.58a1.53,1.53,0,0,1-.89,1.36v0a1.64,1.64,0,0,1,1.12,1.54c0,1.11-.93,1.86-2.36,1.86S21.68,26.77,21.68,25.94Zm3.18-.05c0-.54-.4-.86-1-1a.93.93,0,0,0-.75.92.84.84,0,0,0,.87.86A.77.77,0,0,0,24.86,25.89ZM23.24,23c0,.41.38.68.87.83a.84.84,0,0,0,.62-.79.7.7,0,0,0-.74-.75A.68.68,0,0,0,23.24,23Z" transform="translate(-2.5 -2.5)"/></svg>