<svg id="Capa_1" data-name="Capa 1" xmlns="http://www.w3.org/2000/svg" xmlns:xlink="http://www.w3.org/1999/xlink" viewBox="0 0 43 43"><defs><style>.cls-1{fill:none;}.cls-2{clip-path:url(#clip-path);}.cls-3{fill:#007dc3;}.cls-4{fill:#fff;}.cls-5{fill:#4a5b6d;}</style><clipPath id="clip-path" transform="translate(-2.5 -2.5)"><rect class="cls-1" x="2.5" y="2.5" width="43" height="43"/></clipPath></defs><g class="cls-2"><path class="cls-3" d="M24,45.5A21.5,21.5,0,1,0,2.5,24,21.5,21.5,0,0,0,24,45.5" transform="translate(-2.5 -2.5)"/><path class="cls-4" d="M24,32a8,8,0,1,0-8-8,8,8,0,0,0,8,8" transform="translate(-2.5 -2.5)"/></g><path class="cls-5" d="M22.23,26.51a3.16,3.16,0,0,0,.62,0,2.54,2.54,0,0,0,1.21-.38A1.94,1.94,0,0,0,24.84,25h0a1.61,1.61,0,0,1-1.23.45,1.85,1.85,0,0,1-1.92-1.92A2.24,2.24,0,0,1,24,21.29c1.58,0,2.32,1.21,2.32,2.65a3.32,3.32,0,0,1-3.42,3.69,4.65,4.65,0,0,1-.65,0Zm.87-3.09a.88.88,0,0,0,.87,1,.9.9,0,0,0,.79-.41.66.66,0,0,0,.08-.36c0-.65-.25-1.3-.9-1.3C23.45,22.34,23.09,22.78,23.1,23.42Z" transform="translate(-2.5 -2.5)"/></svg>