<svg id="Capa_1" data-name="Capa 1" xmlns="http://www.w3.org/2000/svg" viewBox="0 0 799.83 729.64"><defs><style>.cls-1,.cls-2,.cls-3,.cls-4,.cls-7{fill:none;stroke:#fff;}.cls-1,.cls-3,.cls-4{stroke-linecap:round;stroke-linejoin:round;}.cls-1{stroke-dasharray:0 3.01;}.cls-3{stroke-dasharray:0 3;}.cls-5{fill:#fff;}.cls-6{fill:#e5f2f9;}.cls-7{stroke-width:0.5px;}.cls-8{fill:#d9ebf6;}.cls-9{fill:#f2f8fc;}</style></defs><line class="cls-1" x1="8.16" y1="199.96" x2="8.16" y2="729.14"/><polyline class="cls-2" points="4.43 200.96 8.16 196.95 11.88 200.96"/><line class="cls-3" x1="676.33" y1="722.13" x2="0.5" y2="722.13"/><line class="cls-4" x1="679.33" y1="722.13" x2="679.33" y2="722.13"/><polyline class="cls-2" points="675.33 718.4 679.34 722.13 675.33 725.85"/><path class="cls-5" d="M690.17,729.92v2.17h2.09V733h-2.09v2.2h-1V733H687.1v-.94h2.09v-2.17Z" transform="translate(-2.5 -9.36)"/><path class="cls-5" d="M695.43,728.59a13.39,13.39,0,0,1,2-.14,3.44,3.44,0,0,1,2.18.53,1.71,1.71,0,0,1,.62,1.41,1.77,1.77,0,0,1-1.19,1.65v0a1.66,1.66,0,0,1,.9,1.25c.21.76.42,1.64.55,1.9H699a8.43,8.43,0,0,1-.47-1.57c-.18-.83-.47-1.07-1.09-1.08h-.46v2.65h-1.51Zm1.51,2.9h.6c.76,0,1.21-.38,1.21-1s-.42-.93-1.12-.94a3.8,3.8,0,0,0-.69,0Z" transform="translate(-2.5 -9.36)"/><path class="cls-5" d="M705.57,732.38h-2.48V734h2.77v1.25h-4.3V728.5h4.16v1.25h-2.63v1.4h2.48Z" transform="translate(-2.5 -9.36)"/><path class="cls-5" d="M707.1,728.5h1.53V734h2.68v1.28H707.1Z" transform="translate(-2.5 -9.36)"/><path class="cls-5" d="M716.42,732.38h-2.48V734h2.77v1.25h-4.3V728.5h4.16v1.25h-2.63v1.4h2.48Z" transform="translate(-2.5 -9.36)"/><path class="cls-5" d="M719.61,735.23l-2.16-6.73h1.67l.82,2.85c.23.8.44,1.57.6,2.4h0c.17-.81.38-1.6.61-2.37l.86-2.88h1.62l-2.27,6.73Z" transform="translate(-2.5 -9.36)"/><path class="cls-5" d="M725.62,733.5l-.48,1.73h-1.58l2.06-6.73h2l2.09,6.73h-1.64l-.52-1.73Zm1.71-1.13-.42-1.43c-.12-.4-.24-.9-.34-1.3h0c-.1.4-.2.91-.31,1.3l-.4,1.43Z" transform="translate(-2.5 -9.36)"/><path class="cls-5" d="M730.81,735.23V728.5h1.78L734,731a19.4,19.4,0,0,1,1.1,2.3h0a24.83,24.83,0,0,1-.13-2.8v-2h1.4v6.73h-1.6l-1.44-2.6a23.73,23.73,0,0,1-1.17-2.37h0c0,.89.06,1.84.06,2.93v2Z" transform="translate(-2.5 -9.36)"/><path class="cls-5" d="M742.86,735a4.34,4.34,0,0,1-1.73.29A3.21,3.21,0,0,1,737.6,732a3.43,3.43,0,0,1,3.68-3.57,4,4,0,0,1,1.66.3l-.31,1.21a3.29,3.29,0,0,0-1.28-.25,2.21,2.21,0,0,0,0,4.42,3.81,3.81,0,0,0,1.27-.22Z" transform="translate(-2.5 -9.36)"/><path class="cls-5" d="M745.59,728.5v6.73h-1.53V728.5Z" transform="translate(-2.5 -9.36)"/><path class="cls-5" d="M748.68,733.5l-.48,1.73h-1.58l2.06-6.73h2l2.09,6.73h-1.64l-.52-1.73Zm1.71-1.13-.42-1.43c-.12-.4-.24-.9-.34-1.3h0c-.1.4-.2.91-.31,1.3l-.4,1.43Z" transform="translate(-2.5 -9.36)"/><path class="cls-5" d="M756.62,735.23,755,728.5h1.63l.51,2.78c.15.8.29,1.66.4,2.34h0c.11-.73.27-1.54.44-2.36l.57-2.76h1.62l.54,2.84c.15.78.26,1.5.36,2.25h0c.1-.75.25-1.54.39-2.33l.55-2.76h1.55l-1.74,6.73h-1.65l-.57-2.9c-.13-.67-.24-1.3-.32-2.07h0c-.12.76-.23,1.4-.39,2.07l-.64,2.9Z" transform="translate(-2.5 -9.36)"/><path class="cls-5" d="M765.65,733.5l-.48,1.73h-1.58l2.06-6.73h2l2.09,6.73H768.1l-.52-1.73Zm1.71-1.13-.42-1.43c-.12-.4-.24-.9-.34-1.3h0c-.1.4-.2.91-.31,1.3l-.4,1.43Z" transform="translate(-2.5 -9.36)"/><path class="cls-5" d="M770.84,728.5h1.53V734h2.68v1.28h-4.21Z" transform="translate(-2.5 -9.36)"/><path class="cls-5" d="M781.85,732.66c0-.81-.06-1.79-.06-2.77h0c-.21.86-.49,1.82-.75,2.61l-.82,2.62H779l-.72-2.61c-.22-.78-.45-1.74-.61-2.62h0c0,.91-.07,1.94-.12,2.78l-.12,2.56H776l.43-6.73h2l.66,2.25c.21.78.42,1.62.57,2.4h0c.19-.77.42-1.66.64-2.41l.72-2.24h2l.37,6.73H782Z" transform="translate(-2.5 -9.36)"/><path class="cls-5" d="M786.34,733.5l-.48,1.73h-1.58l2.06-6.73h2l2.09,6.73h-1.64l-.52-1.73Zm1.71-1.13-.42-1.43c-.12-.4-.24-.9-.34-1.3h0c-.1.4-.2.91-.31,1.3l-.4,1.43Z" transform="translate(-2.5 -9.36)"/><path class="cls-5" d="M791.53,728.59a13.39,13.39,0,0,1,2-.14,3.44,3.44,0,0,1,2.18.53,1.71,1.71,0,0,1,.62,1.41,1.77,1.77,0,0,1-1.19,1.65v0a1.66,1.66,0,0,1,.9,1.25c.21.76.42,1.64.55,1.9h-1.56a8.43,8.43,0,0,1-.47-1.57c-.18-.83-.47-1.07-1.09-1.08H793v2.65h-1.51Zm1.51,2.9h.6c.76,0,1.21-.38,1.21-1s-.42-.93-1.12-.94a3.8,3.8,0,0,0-.69,0Z" transform="translate(-2.5 -9.36)"/><path class="cls-5" d="M799,729.78h-1.81V728.5h5.18v1.28h-1.84v5.45H799Z" transform="translate(-2.5 -9.36)"/><path class="cls-5" d="M9.09,196.26h2.18v-2.09h.94v2.09h2.2v1h-2.2v2.09h-.94v-2.09H9.09Z" transform="translate(-2.5 -9.36)"/><path class="cls-5" d="M7.76,191a13.39,13.39,0,0,1-.14-2,3.44,3.44,0,0,1,.53-2.18,1.71,1.71,0,0,1,1.41-.62,1.79,1.79,0,0,1,1.66,1.19h0a1.7,1.7,0,0,1,1.26-.9c.76-.21,1.64-.42,1.9-.55v1.56a8.43,8.43,0,0,1-1.57.47c-.84.18-1.07.47-1.08,1.09v.46h2.65V191Zm2.9-1.51v-.6c0-.76-.38-1.21-1-1.21s-.93.42-.94,1.12a3.8,3.8,0,0,0,.05.69Z" transform="translate(-2.5 -9.36)"/><path class="cls-5" d="M11.56,180.85v2.48h1.6v-2.77h1.25v4.3H7.67V180.7H8.92v2.63h1.4v-2.48Z" transform="translate(-2.5 -9.36)"/><path class="cls-5" d="M7.67,179.32v-1.53h5.46v-2.68h1.28v4.21Z" transform="translate(-2.5 -9.36)"/><path class="cls-5" d="M11.56,170v2.48h1.6v-2.77h1.25V174H7.67v-4.16H8.92v2.63h1.4V170Z" transform="translate(-2.5 -9.36)"/><path class="cls-5" d="M14.41,166.82,7.67,169v-1.67l2.85-.82c.8-.23,1.57-.44,2.41-.6v0c-.81-.17-1.61-.38-2.38-.61l-2.88-.86v-1.62L14.41,165Z" transform="translate(-2.5 -9.36)"/><path class="cls-5" d="M12.68,160.82l1.73.48v1.58l-6.74-2.06v-2l6.74-2.09v1.64l-1.73.52Zm-1.14-1.71-1.43.42c-.4.12-.9.24-1.3.34v0c.4.1.91.2,1.3.31l1.43.4Z" transform="translate(-2.5 -9.36)"/><path class="cls-5" d="M14.41,155.63H7.67v-1.78l2.47-1.4a19.54,19.54,0,0,1,2.31-1.1v0a25,25,0,0,1-2.81.13h-2v-1.4h6.74v1.6l-2.6,1.44a25,25,0,0,1-2.38,1.17v0c.89,0,1.84-.06,2.94-.06h2Z" transform="translate(-2.5 -9.36)"/><path class="cls-5" d="M14.22,143.58a4.34,4.34,0,0,1,.29,1.73,3.21,3.21,0,0,1-3.37,3.53,3.44,3.44,0,0,1-3.58-3.68,4,4,0,0,1,.3-1.66l1.21.31a3.29,3.29,0,0,0-.25,1.28,2,2,0,0,0,2.23,2.15,2,2,0,0,0,2.2-2.16,3.81,3.81,0,0,0-.22-1.27Z" transform="translate(-2.5 -9.36)"/><path class="cls-5" d="M7.67,140.85h6.74v1.53H7.67Z" transform="translate(-2.5 -9.36)"/><path class="cls-5" d="M12.68,137.76l1.73.48v1.58l-6.74-2.06v-2l6.74-2.08v1.63l-1.73.52Zm-1.14-1.71-1.43.42c-.4.12-.9.24-1.3.34v0c.4.1.91.2,1.3.31l1.43.4Z" transform="translate(-2.5 -9.36)"/><path class="cls-5" d="M14.1,124.94a7.41,7.41,0,0,1,.38,2.24,3.76,3.76,0,0,1-.91,2.74,3.26,3.26,0,0,1-2.45,1c-2.24,0-3.52-1.64-3.52-3.85a4.64,4.64,0,0,1,.33-1.87l1.22.32A3.73,3.73,0,0,0,8.86,127,2,2,0,0,0,11,129.27a2.21,2.21,0,0,0,2.11-2.87H11.74v1H10.55v-2.5Z" transform="translate(-2.5 -9.36)"/><path class="cls-5" d="M7.76,123.54a13.39,13.39,0,0,1-.14-2,3.44,3.44,0,0,1,.53-2.18,1.71,1.71,0,0,1,1.41-.62,1.79,1.79,0,0,1,1.66,1.19h0a1.7,1.7,0,0,1,1.26-.9c.76-.21,1.64-.42,1.9-.55V120a8.43,8.43,0,0,1-1.57.47c-.84.18-1.07.47-1.08,1.09V122h2.65v1.51Zm2.9-1.51v-.6c0-.76-.38-1.21-1-1.21s-.93.42-.94,1.12a3.8,3.8,0,0,0,.05.69Z" transform="translate(-2.5 -9.36)"/><path class="cls-5" d="M7.67,116h3.88c1.16,0,1.75-.44,1.75-1.22s-.56-1.24-1.75-1.24H7.67V112h3.78c2.08,0,3.07,1,3.07,2.8s-.94,2.7-3.09,2.7H7.67Z" transform="translate(-2.5 -9.36)"/><path class="cls-5" d="M7.76,110.45a12.48,12.48,0,0,1-.14-2.06,3.23,3.23,0,0,1,.54-2.06,2,2,0,0,1,1.56-.72,2.15,2.15,0,0,1,1.6.62,3.12,3.12,0,0,1,.71,2.19,3.84,3.84,0,0,1,0,.52h2.41v1.51Zm3.06-1.51a2.33,2.33,0,0,0,0-.51c0-.81-.41-1.31-1.1-1.31s-1,.43-1,1.19a2.6,2.6,0,0,0,.06.63Z" transform="translate(-2.5 -9.36)"/><path class="cls-5" d="M11,98.28a3.21,3.21,0,0,1,3.55,3.3,3.14,3.14,0,0,1-3.43,3.17,3.26,3.26,0,0,1-3.53-3.28A3.14,3.14,0,0,1,11,98.28Zm.09,4.86c1.32,0,2.25-.62,2.25-1.64s-1-1.62-2.29-1.62-2.25.58-2.25,1.63S9.75,103.14,11.06,103.14Z" transform="translate(-2.5 -9.36)"/><path class="cls-5" d="M12.84,97a3.89,3.89,0,0,0,.42-1.69c0-.7-.29-1.07-.73-1.07s-.66.32-.95,1.13c-.39,1.12-1,1.85-2,1.85-1.15,0-2-1-2-2.55A4.13,4.13,0,0,1,7.9,93l1.23.34a3.2,3.2,0,0,0-.32,1.41c0,.66.3,1,.65,1s.62-.38.95-1.25c.44-1.19,1.06-1.75,2-1.75,1.13,0,2.09.87,2.09,2.72a4.41,4.41,0,0,1-.41,1.91Z" transform="translate(-2.5 -9.36)"/><path class="cls-5" d="M7.76,89.46a13.61,13.61,0,0,1-.14-2.06,4.29,4.29,0,0,1,.72-2.75,3,3,0,0,1,2.54-1.14,3.45,3.45,0,0,1,2.73,1.11,4.84,4.84,0,0,1,.87,3.11,13.2,13.2,0,0,1-.1,1.73Zm5.5-1.53a2.8,2.8,0,0,0,0-.53,2.09,2.09,0,0,0-2.36-2.28,1.93,1.93,0,0,0-2.14,2.12,3.17,3.17,0,0,0,.06.69Z" transform="translate(-2.5 -9.36)"/><path class="cls-5" d="M11.56,78.3v2.48h1.6V78h1.25v4.3H7.67V78.15H8.92v2.63h1.4V78.3Z" transform="translate(-2.5 -9.36)"/><path class="cls-5" d="M7.67,73.23h6.74v1.53H7.67Z" transform="translate(-2.5 -9.36)"/><path class="cls-5" d="M14.41,71.71H7.67V69.93l2.47-1.4a19.48,19.48,0,0,1,2.31-1.09v0a25,25,0,0,1-2.81.13h-2v-1.4h6.74v1.6l-2.6,1.43a25,25,0,0,1-2.38,1.17v0c.89,0,1.84-.06,2.94-.06h2Z" transform="translate(-2.5 -9.36)"/><path class="cls-5" d="M9,63.31v1.81H7.67V60H9v1.83h5.46v1.53Z" transform="translate(-2.5 -9.36)"/><path class="cls-5" d="M11.56,54.93V57.4h1.6V54.64h1.25v4.29H7.67V54.78H8.92V57.4h1.4V54.93Z" transform="translate(-2.5 -9.36)"/><path class="cls-5" d="M7.76,53.39a13.39,13.39,0,0,1-.14-2,3.41,3.41,0,0,1,.53-2.17,1.71,1.71,0,0,1,1.41-.62,1.79,1.79,0,0,1,1.66,1.18h0a1.71,1.71,0,0,1,1.26-.89c.76-.21,1.64-.42,1.9-.55v1.56a8.74,8.74,0,0,1-1.57.46c-.84.18-1.07.47-1.08,1.09v.46h2.65v1.51Zm2.9-1.51v-.6c0-.76-.38-1.21-1-1.21s-.93.42-.94,1.12a3.8,3.8,0,0,0,.05.69Z" transform="translate(-2.5 -9.36)"/><path class="cls-5" d="M6.08,43.44l1.23,1.22v1.21L6.08,45Zm5.48-.18v2.47h1.6V43h1.25v4.29H7.67V43.11H8.92v2.62h1.4V43.26Z" transform="translate(-2.5 -9.36)"/><path class="cls-5" d="M12.84,41.67A3.89,3.89,0,0,0,13.26,40c0-.7-.29-1.07-.73-1.07s-.66.32-.95,1.13c-.39,1.12-1,1.85-2,1.85-1.15,0-2-1-2-2.55a4.08,4.08,0,0,1,.34-1.71L9.13,38a3.11,3.11,0,0,0-.32,1.4c0,.66.3,1,.65,1s.62-.38.95-1.25c.44-1.18,1.06-1.74,2-1.74,1.13,0,2.09.87,2.09,2.71A4.41,4.41,0,0,1,14.1,42Z" transform="translate(-2.5 -9.36)"/><rect class="cls-6" x="24.71" y="33.72" width="32.12" height="33.79"/><rect class="cls-7" x="24.71" y="33.72" width="32.12" height="33.79"/><rect class="cls-6" x="56.83" y="33.72" width="32.12" height="33.79"/><rect class="cls-7" x="56.83" y="33.72" width="32.12" height="33.79"/><rect class="cls-6" x="88.94" y="33.72" width="32.12" height="33.79"/><rect class="cls-7" x="88.94" y="33.72" width="32.12" height="33.79"/><rect class="cls-6" x="121.06" y="33.72" width="32.12" height="33.79"/><rect class="cls-7" x="121.06" y="33.72" width="32.12" height="33.79"/><rect class="cls-8" x="153.18" y="33.72" width="32.12" height="33.79"/><rect class="cls-7" x="153.18" y="33.72" width="32.12" height="33.79"/><rect class="cls-8" x="185.29" y="33.72" width="32.12" height="33.79"/><rect class="cls-7" x="185.29" y="33.72" width="32.12" height="33.79"/><rect class="cls-8" x="217.41" y="33.72" width="32.12" height="33.79"/><rect class="cls-7" x="217.41" y="33.72" width="32.12" height="33.79"/><rect class="cls-8" x="249.53" y="33.72" width="32.12" height="33.79"/><rect class="cls-7" x="249.53" y="33.72" width="32.12" height="33.79"/><rect class="cls-8" x="281.64" y="33.72" width="32.12" height="33.79"/><rect class="cls-7" x="281.64" y="33.72" width="32.12" height="33.79"/><rect class="cls-8" x="313.76" y="33.72" width="32.12" height="33.79"/><rect class="cls-7" x="313.76" y="33.72" width="32.12" height="33.79"/><rect class="cls-8" x="345.87" y="33.72" width="32.12" height="33.79"/><rect class="cls-7" x="345.87" y="33.72" width="32.12" height="33.79"/><rect class="cls-8" x="377.99" y="33.72" width="32.12" height="33.79"/><rect class="cls-7" x="377.99" y="33.72" width="32.12" height="33.79"/><rect class="cls-8" x="410.11" y="33.72" width="32.12" height="33.79"/><rect class="cls-7" x="410.11" y="33.72" width="32.12" height="33.79"/><rect class="cls-8" x="442.22" y="33.72" width="32.12" height="33.79"/><rect class="cls-7" x="442.22" y="33.72" width="32.12" height="33.79"/><rect class="cls-8" x="474.34" y="33.72" width="32.12" height="33.79"/><rect class="cls-7" x="474.34" y="33.72" width="32.12" height="33.79"/><rect class="cls-8" x="506.45" y="33.72" width="32.12" height="33.79"/><rect class="cls-7" x="506.45" y="33.72" width="32.12" height="33.79"/><rect class="cls-8" x="538.57" y="33.72" width="32.12" height="33.79"/><rect class="cls-7" x="538.57" y="33.72" width="32.12" height="33.79"/><rect class="cls-8" x="570.69" y="33.72" width="32.12" height="33.79"/><rect class="cls-7" x="570.69" y="33.72" width="32.12" height="33.79"/><rect class="cls-8" x="602.8" y="33.72" width="32.12" height="33.79"/><rect class="cls-7" x="602.8" y="33.72" width="32.12" height="33.79"/><rect class="cls-8" x="634.92" y="33.72" width="32.12" height="33.79"/><rect class="cls-7" x="634.92" y="33.72" width="32.12" height="33.79"/><rect class="cls-8" x="667.04" y="33.72" width="32.12" height="33.79"/><rect class="cls-7" x="667.04" y="33.72" width="32.12" height="33.79"/><rect class="cls-8" x="699.15" y="33.72" width="32.12" height="33.79"/><rect class="cls-7" x="699.15" y="33.72" width="32.12" height="33.79"/><rect class="cls-8" x="731.27" y="33.72" width="32.12" height="33.79"/><rect class="cls-7" x="731.27" y="33.72" width="32.12" height="33.79"/><rect class="cls-8" x="763.38" y="33.72" width="32.12" height="33.79"/><rect class="cls-7" x="763.38" y="33.72" width="32.12" height="33.79"/><rect class="cls-6" x="24.71" y="67.51" width="32.12" height="33.79"/><rect class="cls-7" x="24.71" y="67.51" width="32.12" height="33.79"/><rect class="cls-6" x="56.83" y="67.51" width="32.12" height="33.79"/><rect class="cls-7" x="56.83" y="67.51" width="32.12" height="33.79"/><rect class="cls-6" x="88.94" y="67.51" width="32.12" height="33.79"/><rect class="cls-7" x="88.94" y="67.51" width="32.12" height="33.79"/><rect class="cls-6" x="121.06" y="67.51" width="32.12" height="33.79"/><rect class="cls-7" x="121.06" y="67.51" width="32.12" height="33.79"/><rect class="cls-6" x="153.18" y="67.51" width="32.12" height="33.79"/><rect class="cls-7" x="153.18" y="67.51" width="32.12" height="33.79"/><rect class="cls-8" x="185.29" y="67.51" width="32.12" height="33.79"/><rect class="cls-7" x="185.29" y="67.51" width="32.12" height="33.79"/><rect class="cls-8" x="217.41" y="67.51" width="32.12" height="33.79"/><rect class="cls-7" x="217.41" y="67.51" width="32.12" height="33.79"/><rect class="cls-8" x="249.53" y="67.51" width="32.12" height="33.79"/><rect class="cls-7" x="249.53" y="67.51" width="32.12" height="33.79"/><rect class="cls-8" x="281.64" y="67.51" width="32.12" height="33.79"/><rect class="cls-7" x="281.64" y="67.51" width="32.12" height="33.79"/><rect class="cls-8" x="313.76" y="67.51" width="32.12" height="33.79"/><rect class="cls-7" x="313.76" y="67.51" width="32.12" height="33.79"/><rect class="cls-8" x="345.87" y="67.51" width="32.12" height="33.79"/><rect class="cls-7" x="345.87" y="67.51" width="32.12" height="33.79"/><rect class="cls-8" x="377.99" y="67.51" width="32.12" height="33.79"/><rect class="cls-7" x="377.99" y="67.51" width="32.12" height="33.79"/><rect class="cls-8" x="410.11" y="67.51" width="32.12" height="33.79"/><rect class="cls-7" x="410.11" y="67.51" width="32.12" height="33.79"/><rect class="cls-8" x="442.22" y="67.51" width="32.12" height="33.79"/><rect class="cls-7" x="442.22" y="67.51" width="32.12" height="33.79"/><rect class="cls-8" x="474.34" y="67.51" width="32.12" height="33.79"/><rect class="cls-7" x="474.34" y="67.51" width="32.12" height="33.79"/><rect class="cls-8" x="506.45" y="67.51" width="32.12" height="33.79"/><rect class="cls-7" x="506.45" y="67.51" width="32.12" height="33.79"/><rect class="cls-8" x="538.57" y="67.51" width="32.12" height="33.79"/><rect class="cls-7" x="538.57" y="67.51" width="32.12" height="33.79"/><rect class="cls-8" x="570.69" y="67.51" width="32.12" height="33.79"/><rect class="cls-7" x="570.69" y="67.51" width="32.12" height="33.79"/><rect class="cls-8" x="602.8" y="67.51" width="32.12" height="33.79"/><rect class="cls-7" x="602.8" y="67.51" width="32.12" height="33.79"/><rect class="cls-8" x="634.92" y="67.51" width="32.12" height="33.79"/><rect class="cls-7" x="634.92" y="67.51" width="32.12" height="33.79"/><rect class="cls-8" x="667.04" y="67.51" width="32.12" height="33.79"/><rect class="cls-7" x="667.04" y="67.51" width="32.12" height="33.79"/><rect class="cls-8" x="699.15" y="67.51" width="32.12" height="33.79"/><rect class="cls-7" x="699.15" y="67.51" width="32.12" height="33.79"/><rect class="cls-8" x="731.27" y="67.51" width="32.12" height="33.79"/><rect class="cls-7" x="731.27" y="67.51" width="32.12" height="33.79"/><rect class="cls-8" x="763.38" y="67.51" width="32.12" height="33.79"/><rect class="cls-7" x="763.38" y="67.51" width="32.12" height="33.79"/><rect class="cls-6" x="24.71" y="101.3" width="32.12" height="33.79"/><rect class="cls-7" x="24.71" y="101.3" width="32.12" height="33.79"/><rect class="cls-6" x="56.83" y="101.3" width="32.12" height="33.79"/><rect class="cls-7" x="56.83" y="101.3" width="32.12" height="33.79"/><rect class="cls-6" x="88.94" y="101.3" width="32.12" height="33.79"/><rect class="cls-7" x="88.94" y="101.3" width="32.12" height="33.79"/><rect class="cls-6" x="121.06" y="101.3" width="32.12" height="33.79"/><rect class="cls-7" x="121.06" y="101.3" width="32.12" height="33.79"/><rect class="cls-6" x="153.18" y="101.3" width="32.12" height="33.79"/><rect class="cls-7" x="153.18" y="101.3" width="32.12" height="33.79"/><rect class="cls-6" x="185.29" y="101.3" width="32.12" height="33.79"/><rect class="cls-7" x="185.29" y="101.3" width="32.12" height="33.79"/><rect class="cls-8" x="217.41" y="101.3" width="32.12" height="33.79"/><rect class="cls-7" x="217.41" y="101.3" width="32.12" height="33.79"/><rect class="cls-8" x="249.53" y="101.3" width="32.12" height="33.79"/><rect class="cls-7" x="249.53" y="101.3" width="32.12" height="33.79"/><rect class="cls-8" x="281.64" y="101.3" width="32.12" height="33.79"/><rect class="cls-7" x="281.64" y="101.3" width="32.12" height="33.79"/><rect class="cls-8" x="313.76" y="101.3" width="32.12" height="33.79"/><rect class="cls-7" x="313.76" y="101.3" width="32.12" height="33.79"/><rect class="cls-8" x="345.87" y="101.3" width="32.12" height="33.79"/><rect class="cls-7" x="345.87" y="101.3" width="32.12" height="33.79"/><rect class="cls-8" x="377.99" y="101.3" width="32.12" height="33.79"/><rect class="cls-7" x="377.99" y="101.3" width="32.12" height="33.79"/><rect class="cls-8" x="410.11" y="101.3" width="32.12" height="33.79"/><rect class="cls-7" x="410.11" y="101.3" width="32.12" height="33.79"/><rect class="cls-8" x="442.22" y="101.3" width="32.12" height="33.79"/><rect class="cls-7" x="442.22" y="101.3" width="32.12" height="33.79"/><rect class="cls-8" x="474.34" y="101.3" width="32.12" height="33.79"/><rect class="cls-7" x="474.34" y="101.3" width="32.12" height="33.79"/><rect class="cls-8" x="506.45" y="101.3" width="32.12" height="33.79"/><rect class="cls-7" x="506.45" y="101.3" width="32.12" height="33.79"/><rect class="cls-8" x="538.57" y="101.3" width="32.12" height="33.79"/><rect class="cls-7" x="538.57" y="101.3" width="32.12" height="33.79"/><rect class="cls-8" x="570.69" y="101.3" width="32.12" height="33.79"/><rect class="cls-7" x="570.69" y="101.3" width="32.12" height="33.79"/><rect class="cls-8" x="602.8" y="101.3" width="32.12" height="33.79"/><rect class="cls-7" x="602.8" y="101.3" width="32.12" height="33.79"/><rect class="cls-8" x="634.92" y="101.3" width="32.12" height="33.79"/><rect class="cls-7" x="634.92" y="101.3" width="32.12" height="33.79"/><rect class="cls-8" x="667.04" y="101.3" width="32.12" height="33.79"/><rect class="cls-7" x="667.04" y="101.3" width="32.12" height="33.79"/><rect class="cls-8" x="699.15" y="101.3" width="32.12" height="33.79"/><rect class="cls-7" x="699.15" y="101.3" width="32.12" height="33.79"/><rect class="cls-8" x="731.27" y="101.3" width="32.12" height="33.79"/><rect class="cls-7" x="731.27" y="101.3" width="32.12" height="33.79"/><rect class="cls-8" x="763.38" y="101.3" width="32.12" height="33.79"/><rect class="cls-7" x="763.38" y="101.3" width="32.12" height="33.79"/><rect class="cls-6" x="24.71" y="135.09" width="32.12" height="33.79"/><rect class="cls-7" x="24.71" y="135.09" width="32.12" height="33.79"/><rect class="cls-6" x="56.83" y="135.09" width="32.12" height="33.79"/><rect class="cls-7" x="56.83" y="135.09" width="32.12" height="33.79"/><rect class="cls-6" x="88.94" y="135.09" width="32.12" height="33.79"/><rect class="cls-7" x="88.94" y="135.09" width="32.12" height="33.79"/><rect class="cls-6" x="121.06" y="135.09" width="32.12" height="33.79"/><rect class="cls-7" x="121.06" y="135.09" width="32.12" height="33.79"/><rect class="cls-6" x="153.18" y="135.09" width="32.12" height="33.79"/><rect class="cls-7" x="153.18" y="135.09" width="32.12" height="33.79"/><rect class="cls-6" x="185.29" y="135.09" width="32.12" height="33.79"/><rect class="cls-7" x="185.29" y="135.09" width="32.12" height="33.79"/><rect class="cls-6" x="217.41" y="135.09" width="32.12" height="33.79"/><rect class="cls-7" x="217.41" y="135.09" width="32.12" height="33.79"/><rect class="cls-8" x="249.53" y="135.09" width="32.12" height="33.79"/><rect class="cls-7" x="249.53" y="135.09" width="32.12" height="33.79"/><rect class="cls-8" x="281.64" y="135.09" width="32.12" height="33.79"/><rect class="cls-7" x="281.64" y="135.09" width="32.12" height="33.79"/><rect class="cls-8" x="313.76" y="135.09" width="32.12" height="33.79"/><rect class="cls-7" x="313.76" y="135.09" width="32.12" height="33.79"/><rect class="cls-8" x="345.87" y="135.09" width="32.12" height="33.79"/><rect class="cls-7" x="345.87" y="135.09" width="32.12" height="33.79"/><rect class="cls-8" x="377.99" y="135.09" width="32.12" height="33.79"/><rect class="cls-7" x="377.99" y="135.09" width="32.12" height="33.79"/><rect class="cls-8" x="410.11" y="135.09" width="32.12" height="33.79"/><rect class="cls-7" x="410.11" y="135.09" width="32.12" height="33.79"/><rect class="cls-8" x="442.22" y="135.09" width="32.12" height="33.79"/><rect class="cls-7" x="442.22" y="135.09" width="32.12" height="33.79"/><rect class="cls-8" x="474.34" y="135.09" width="32.12" height="33.79"/><rect class="cls-7" x="474.34" y="135.09" width="32.12" height="33.79"/><rect class="cls-8" x="506.45" y="135.09" width="32.12" height="33.79"/><rect class="cls-7" x="506.45" y="135.09" width="32.12" height="33.79"/><rect class="cls-8" x="538.57" y="135.09" width="32.12" height="33.79"/><rect class="cls-7" x="538.57" y="135.09" width="32.12" height="33.79"/><rect class="cls-8" x="570.69" y="135.09" width="32.12" height="33.79"/><rect class="cls-7" x="570.69" y="135.09" width="32.12" height="33.79"/><rect class="cls-8" x="602.8" y="135.09" width="32.12" height="33.79"/><rect class="cls-7" x="602.8" y="135.09" width="32.12" height="33.79"/><rect class="cls-8" x="634.92" y="135.09" width="32.12" height="33.79"/><rect class="cls-7" x="634.92" y="135.09" width="32.12" height="33.79"/><rect class="cls-8" x="667.04" y="135.09" width="32.12" height="33.79"/><rect class="cls-7" x="667.04" y="135.09" width="32.12" height="33.79"/><rect class="cls-8" x="699.15" y="135.09" width="32.12" height="33.79"/><rect class="cls-7" x="699.15" y="135.09" width="32.12" height="33.79"/><rect class="cls-8" x="731.27" y="135.09" width="32.12" height="33.79"/><rect class="cls-7" x="731.27" y="135.09" width="32.12" height="33.79"/><rect class="cls-8" x="763.38" y="135.09" width="32.12" height="33.79"/><rect class="cls-7" x="763.38" y="135.09" width="32.12" height="33.79"/><rect class="cls-6" x="24.71" y="168.88" width="32.12" height="33.79"/><rect class="cls-7" x="24.71" y="168.88" width="32.12" height="33.79"/><rect class="cls-6" x="56.83" y="168.88" width="32.12" height="33.79"/><rect class="cls-7" x="56.83" y="168.88" width="32.12" height="33.79"/><rect class="cls-6" x="88.94" y="168.88" width="32.12" height="33.79"/><rect class="cls-7" x="88.94" y="168.88" width="32.12" height="33.79"/><rect class="cls-6" x="121.06" y="168.88" width="32.12" height="33.79"/><rect class="cls-7" x="121.06" y="168.88" width="32.12" height="33.79"/><rect class="cls-6" x="153.18" y="168.88" width="32.12" height="33.79"/><rect class="cls-7" x="153.18" y="168.88" width="32.12" height="33.79"/><rect class="cls-6" x="185.29" y="168.88" width="32.12" height="33.79"/><rect class="cls-7" x="185.29" y="168.88" width="32.12" height="33.79"/><rect class="cls-6" x="217.41" y="168.88" width="32.12" height="33.79"/><rect class="cls-7" x="217.41" y="168.88" width="32.12" height="33.79"/><rect class="cls-6" x="249.53" y="168.88" width="32.12" height="33.79"/><rect class="cls-7" x="249.53" y="168.88" width="32.12" height="33.79"/><rect class="cls-8" x="281.64" y="168.88" width="32.12" height="33.79"/><rect class="cls-7" x="281.64" y="168.88" width="32.12" height="33.79"/><rect class="cls-8" x="313.76" y="168.88" width="32.12" height="33.79"/><rect class="cls-7" x="313.76" y="168.88" width="32.12" height="33.79"/><rect class="cls-8" x="345.87" y="168.88" width="32.12" height="33.79"/><rect class="cls-7" x="345.87" y="168.88" width="32.12" height="33.79"/><rect class="cls-8" x="377.99" y="168.88" width="32.12" height="33.79"/><rect class="cls-7" x="377.99" y="168.88" width="32.12" height="33.79"/><rect class="cls-8" x="410.11" y="168.88" width="32.12" height="33.79"/><rect class="cls-7" x="410.11" y="168.88" width="32.12" height="33.79"/><rect class="cls-8" x="442.22" y="168.88" width="32.12" height="33.79"/><rect class="cls-7" x="442.22" y="168.88" width="32.12" height="33.79"/><rect class="cls-8" x="474.34" y="168.88" width="32.12" height="33.79"/><rect class="cls-7" x="474.34" y="168.88" width="32.12" height="33.79"/><rect class="cls-8" x="506.45" y="168.88" width="32.12" height="33.79"/><rect class="cls-7" x="506.45" y="168.88" width="32.12" height="33.79"/><rect class="cls-8" x="538.57" y="168.88" width="32.12" height="33.79"/><rect class="cls-7" x="538.57" y="168.88" width="32.12" height="33.79"/><rect class="cls-8" x="570.69" y="168.88" width="32.12" height="33.79"/><rect class="cls-7" x="570.69" y="168.88" width="32.12" height="33.79"/><rect class="cls-8" x="602.8" y="168.88" width="32.12" height="33.79"/><rect class="cls-7" x="602.8" y="168.88" width="32.12" height="33.79"/><rect class="cls-8" x="634.92" y="168.88" width="32.12" height="33.79"/><rect class="cls-7" x="634.92" y="168.88" width="32.12" height="33.79"/><rect class="cls-8" x="667.04" y="168.88" width="32.12" height="33.79"/><rect class="cls-7" x="667.04" y="168.88" width="32.12" height="33.79"/><rect class="cls-8" x="699.15" y="168.88" width="32.12" height="33.79"/><rect class="cls-7" x="699.15" y="168.88" width="32.12" height="33.79"/><rect class="cls-8" x="731.27" y="168.88" width="32.12" height="33.79"/><rect class="cls-7" x="731.27" y="168.88" width="32.12" height="33.79"/><rect class="cls-8" x="763.38" y="168.88" width="32.12" height="33.79"/><rect class="cls-7" x="763.38" y="168.88" width="32.12" height="33.79"/><rect class="cls-6" x="24.71" y="202.67" width="32.12" height="33.79"/><rect class="cls-7" x="24.71" y="202.67" width="32.12" height="33.79"/><rect class="cls-6" x="56.83" y="202.67" width="32.12" height="33.79"/><rect class="cls-7" x="56.83" y="202.67" width="32.12" height="33.79"/><rect class="cls-6" x="88.94" y="202.67" width="32.12" height="33.79"/><rect class="cls-7" x="88.94" y="202.67" width="32.12" height="33.79"/><rect class="cls-6" x="121.06" y="202.67" width="32.12" height="33.79"/><rect class="cls-7" x="121.06" y="202.67" width="32.12" height="33.79"/><rect class="cls-6" x="153.18" y="202.67" width="32.12" height="33.79"/><rect class="cls-7" x="153.18" y="202.67" width="32.12" height="33.79"/><rect class="cls-6" x="185.29" y="202.67" width="32.12" height="33.79"/><rect class="cls-7" x="185.29" y="202.67" width="32.12" height="33.79"/><rect class="cls-6" x="217.41" y="202.67" width="32.12" height="33.79"/><rect class="cls-7" x="217.41" y="202.67" width="32.12" height="33.79"/><rect class="cls-6" x="249.53" y="202.67" width="32.12" height="33.79"/><rect class="cls-7" x="249.53" y="202.67" width="32.12" height="33.79"/><rect class="cls-6" x="281.64" y="202.67" width="32.12" height="33.79"/><rect class="cls-7" x="281.64" y="202.67" width="32.12" height="33.79"/><rect class="cls-8" x="313.76" y="202.67" width="32.12" height="33.79"/><rect class="cls-7" x="313.76" y="202.67" width="32.12" height="33.79"/><rect class="cls-8" x="345.87" y="202.67" width="32.12" height="33.79"/><rect class="cls-7" x="345.87" y="202.67" width="32.12" height="33.79"/><rect class="cls-8" x="377.99" y="202.67" width="32.12" height="33.79"/><rect class="cls-7" x="377.99" y="202.67" width="32.12" height="33.79"/><rect class="cls-8" x="410.11" y="202.67" width="32.12" height="33.79"/><rect class="cls-7" x="410.11" y="202.67" width="32.12" height="33.79"/><rect class="cls-8" x="442.22" y="202.67" width="32.12" height="33.79"/><rect class="cls-7" x="442.22" y="202.67" width="32.12" height="33.79"/><rect class="cls-8" x="474.34" y="202.67" width="32.12" height="33.79"/><rect class="cls-7" x="474.34" y="202.67" width="32.12" height="33.79"/><rect class="cls-8" x="506.45" y="202.67" width="32.12" height="33.79"/><rect class="cls-7" x="506.45" y="202.67" width="32.12" height="33.79"/><rect class="cls-8" x="538.57" y="202.67" width="32.12" height="33.79"/><rect class="cls-7" x="538.57" y="202.67" width="32.12" height="33.79"/><rect class="cls-8" x="570.69" y="202.67" width="32.12" height="33.79"/><rect class="cls-7" x="570.69" y="202.67" width="32.12" height="33.79"/><rect class="cls-8" x="602.8" y="202.67" width="32.12" height="33.79"/><rect class="cls-7" x="602.8" y="202.67" width="32.12" height="33.79"/><rect class="cls-8" x="634.92" y="202.67" width="32.12" height="33.79"/><rect class="cls-7" x="634.92" y="202.67" width="32.12" height="33.79"/><rect class="cls-8" x="667.04" y="202.67" width="32.12" height="33.79"/><rect class="cls-7" x="667.04" y="202.67" width="32.12" height="33.79"/><rect class="cls-8" x="699.15" y="202.67" width="32.12" height="33.79"/><rect class="cls-7" x="699.15" y="202.67" width="32.12" height="33.79"/><rect class="cls-8" x="731.27" y="202.67" width="32.12" height="33.79"/><rect class="cls-7" x="731.27" y="202.67" width="32.12" height="33.79"/><rect class="cls-8" x="763.38" y="202.67" width="32.12" height="33.79"/><rect class="cls-7" x="763.38" y="202.67" width="32.12" height="33.79"/><rect class="cls-9" x="24.71" y="236.46" width="32.12" height="33.79"/><rect class="cls-7" x="24.71" y="236.46" width="32.12" height="33.79"/><rect class="cls-6" x="56.83" y="236.46" width="32.12" height="33.79"/><rect class="cls-7" x="56.83" y="236.46" width="32.12" height="33.79"/><rect class="cls-6" x="88.94" y="236.46" width="32.12" height="33.79"/><rect class="cls-7" x="88.94" y="236.46" width="32.12" height="33.79"/><rect class="cls-6" x="121.06" y="236.46" width="32.12" height="33.79"/><rect class="cls-7" x="121.06" y="236.46" width="32.12" height="33.79"/><rect class="cls-6" x="153.18" y="236.46" width="32.12" height="33.79"/><rect class="cls-7" x="153.18" y="236.46" width="32.12" height="33.79"/><rect class="cls-6" x="185.29" y="236.46" width="32.12" height="33.79"/><rect class="cls-7" x="185.29" y="236.46" width="32.12" height="33.79"/><rect class="cls-6" x="217.41" y="236.46" width="32.12" height="33.79"/><rect class="cls-7" x="217.41" y="236.46" width="32.12" height="33.79"/><rect class="cls-6" x="249.53" y="236.46" width="32.12" height="33.79"/><rect class="cls-7" x="249.53" y="236.46" width="32.12" height="33.79"/><rect class="cls-6" x="281.64" y="236.46" width="32.12" height="33.79"/><rect class="cls-7" x="281.64" y="236.46" width="32.12" height="33.79"/><rect class="cls-6" x="313.76" y="236.46" width="32.12" height="33.79"/><rect class="cls-7" x="313.76" y="236.46" width="32.12" height="33.79"/><rect class="cls-8" x="345.87" y="236.46" width="32.12" height="33.79"/><rect class="cls-7" x="345.87" y="236.46" width="32.12" height="33.79"/><rect class="cls-8" x="377.99" y="236.46" width="32.12" height="33.79"/><rect class="cls-7" x="377.99" y="236.46" width="32.12" height="33.79"/><rect class="cls-8" x="410.11" y="236.46" width="32.12" height="33.79"/><rect class="cls-7" x="410.11" y="236.46" width="32.12" height="33.79"/><rect class="cls-8" x="442.22" y="236.46" width="32.12" height="33.79"/><rect class="cls-7" x="442.22" y="236.46" width="32.12" height="33.79"/><rect class="cls-8" x="474.34" y="236.46" width="32.12" height="33.79"/><rect class="cls-7" x="474.34" y="236.46" width="32.12" height="33.79"/><rect class="cls-8" x="506.45" y="236.46" width="32.12" height="33.79"/><rect class="cls-7" x="506.45" y="236.46" width="32.12" height="33.79"/><rect class="cls-8" x="538.57" y="236.46" width="32.12" height="33.79"/><rect class="cls-7" x="538.57" y="236.46" width="32.12" height="33.79"/><rect class="cls-8" x="570.69" y="236.46" width="32.12" height="33.79"/><rect class="cls-7" x="570.69" y="236.46" width="32.12" height="33.79"/><rect class="cls-8" x="602.8" y="236.46" width="32.12" height="33.79"/><rect class="cls-7" x="602.8" y="236.46" width="32.12" height="33.79"/><rect class="cls-8" x="634.92" y="236.46" width="32.12" height="33.79"/><rect class="cls-7" x="634.92" y="236.46" width="32.12" height="33.79"/><rect class="cls-8" x="667.04" y="236.46" width="32.12" height="33.79"/><rect class="cls-7" x="667.04" y="236.46" width="32.12" height="33.79"/><rect class="cls-8" x="699.15" y="236.46" width="32.12" height="33.79"/><rect class="cls-7" x="699.15" y="236.46" width="32.12" height="33.79"/><rect class="cls-8" x="731.27" y="236.46" width="32.12" height="33.79"/><rect class="cls-7" x="731.27" y="236.46" width="32.12" height="33.79"/><rect class="cls-8" x="763.38" y="236.46" width="32.12" height="33.79"/><rect class="cls-7" x="763.38" y="236.46" width="32.12" height="33.79"/><rect class="cls-9" x="24.71" y="270.25" width="32.12" height="33.79"/><rect class="cls-7" x="24.71" y="270.25" width="32.12" height="33.79"/><rect class="cls-9" x="56.83" y="270.25" width="32.12" height="33.79"/><rect class="cls-7" x="56.83" y="270.25" width="32.12" height="33.79"/><rect class="cls-6" x="88.94" y="270.25" width="32.12" height="33.79"/><rect class="cls-7" x="88.94" y="270.25" width="32.12" height="33.79"/><rect class="cls-6" x="121.06" y="270.25" width="32.12" height="33.79"/><rect class="cls-7" x="121.06" y="270.25" width="32.12" height="33.79"/><rect class="cls-6" x="153.18" y="270.25" width="32.12" height="33.79"/><rect class="cls-7" x="153.18" y="270.25" width="32.12" height="33.79"/><rect class="cls-6" x="185.29" y="270.25" width="32.12" height="33.79"/><rect class="cls-7" x="185.29" y="270.25" width="32.12" height="33.79"/><rect class="cls-6" x="217.41" y="270.25" width="32.12" height="33.79"/><rect class="cls-7" x="217.41" y="270.25" width="32.12" height="33.79"/><rect class="cls-6" x="249.53" y="270.25" width="32.12" height="33.79"/><rect class="cls-7" x="249.53" y="270.25" width="32.12" height="33.79"/><rect class="cls-6" x="281.64" y="270.25" width="32.12" height="33.79"/><rect class="cls-7" x="281.64" y="270.25" width="32.12" height="33.79"/><rect class="cls-6" x="313.76" y="270.25" width="32.12" height="33.79"/><rect class="cls-7" x="313.76" y="270.25" width="32.12" height="33.79"/><rect class="cls-6" x="345.87" y="270.25" width="32.12" height="33.79"/><rect class="cls-7" x="345.87" y="270.25" width="32.12" height="33.79"/><rect class="cls-8" x="377.99" y="270.25" width="32.12" height="33.79"/><rect class="cls-7" x="377.99" y="270.25" width="32.12" height="33.79"/><rect class="cls-8" x="410.11" y="270.25" width="32.12" height="33.79"/><rect class="cls-7" x="410.11" y="270.25" width="32.12" height="33.79"/><rect class="cls-8" x="442.22" y="270.25" width="32.12" height="33.79"/><rect class="cls-7" x="442.22" y="270.25" width="32.12" height="33.79"/><rect class="cls-8" x="474.34" y="270.25" width="32.12" height="33.79"/><rect class="cls-7" x="474.34" y="270.25" width="32.12" height="33.79"/><rect class="cls-8" x="506.45" y="270.25" width="32.12" height="33.79"/><rect class="cls-7" x="506.45" y="270.25" width="32.12" height="33.79"/><rect class="cls-8" x="538.57" y="270.25" width="32.12" height="33.79"/><rect class="cls-7" x="538.57" y="270.25" width="32.12" height="33.79"/><rect class="cls-8" x="570.69" y="270.25" width="32.12" height="33.79"/><rect class="cls-7" x="570.69" y="270.25" width="32.12" height="33.79"/><rect class="cls-8" x="602.8" y="270.25" width="32.12" height="33.79"/><rect class="cls-7" x="602.8" y="270.25" width="32.12" height="33.79"/><rect class="cls-8" x="634.92" y="270.25" width="32.12" height="33.79"/><rect class="cls-7" x="634.92" y="270.25" width="32.12" height="33.79"/><rect class="cls-8" x="667.04" y="270.25" width="32.12" height="33.79"/><rect class="cls-7" x="667.04" y="270.25" width="32.12" height="33.79"/><rect class="cls-8" x="699.15" y="270.25" width="32.12" height="33.79"/><rect class="cls-7" x="699.15" y="270.25" width="32.12" height="33.79"/><rect class="cls-8" x="731.27" y="270.25" width="32.12" height="33.79"/><rect class="cls-7" x="731.27" y="270.25" width="32.12" height="33.79"/><rect class="cls-8" x="763.38" y="270.25" width="32.12" height="33.79"/><rect class="cls-7" x="763.38" y="270.25" width="32.12" height="33.79"/><rect class="cls-9" x="24.71" y="304.04" width="32.12" height="33.79"/><rect class="cls-7" x="24.71" y="304.04" width="32.12" height="33.79"/><rect class="cls-9" x="56.83" y="304.04" width="32.12" height="33.79"/><rect class="cls-7" x="56.83" y="304.04" width="32.12" height="33.79"/><rect class="cls-9" x="88.94" y="304.04" width="32.12" height="33.79"/><rect class="cls-7" x="88.94" y="304.04" width="32.12" height="33.79"/><rect class="cls-6" x="121.06" y="304.04" width="32.12" height="33.79"/><rect class="cls-7" x="121.06" y="304.04" width="32.12" height="33.79"/><rect class="cls-6" x="153.18" y="304.04" width="32.12" height="33.79"/><rect class="cls-7" x="153.18" y="304.04" width="32.12" height="33.79"/><rect class="cls-6" x="185.29" y="304.04" width="32.12" height="33.79"/><rect class="cls-7" x="185.29" y="304.04" width="32.12" height="33.79"/><rect class="cls-6" x="217.41" y="304.04" width="32.12" height="33.79"/><rect class="cls-7" x="217.41" y="304.04" width="32.12" height="33.79"/><rect class="cls-6" x="249.53" y="304.04" width="32.12" height="33.79"/><rect class="cls-7" x="249.53" y="304.04" width="32.12" height="33.79"/><rect class="cls-6" x="281.64" y="304.04" width="32.12" height="33.79"/><rect class="cls-7" x="281.64" y="304.04" width="32.12" height="33.79"/><rect class="cls-6" x="313.76" y="304.04" width="32.12" height="33.79"/><rect class="cls-7" x="313.76" y="304.04" width="32.12" height="33.79"/><rect class="cls-6" x="345.87" y="304.04" width="32.12" height="33.79"/><rect class="cls-7" x="345.87" y="304.04" width="32.12" height="33.79"/><rect class="cls-6" x="377.99" y="304.04" width="32.12" height="33.79"/><rect class="cls-7" x="377.99" y="304.04" width="32.12" height="33.79"/><rect class="cls-8" x="410.11" y="304.04" width="32.12" height="33.79"/><rect class="cls-7" x="410.11" y="304.04" width="32.12" height="33.79"/><rect class="cls-8" x="442.22" y="304.04" width="32.12" height="33.79"/><rect class="cls-7" x="442.22" y="304.04" width="32.12" height="33.79"/><rect class="cls-8" x="474.34" y="304.04" width="32.12" height="33.79"/><rect class="cls-7" x="474.34" y="304.04" width="32.12" height="33.79"/><rect class="cls-8" x="506.45" y="304.04" width="32.12" height="33.79"/><rect class="cls-7" x="506.45" y="304.04" width="32.12" height="33.79"/><rect class="cls-8" x="538.57" y="304.04" width="32.12" height="33.79"/><rect class="cls-7" x="538.57" y="304.04" width="32.12" height="33.79"/><rect class="cls-8" x="570.69" y="304.04" width="32.12" height="33.79"/><rect class="cls-7" x="570.69" y="304.04" width="32.12" height="33.79"/><rect class="cls-8" x="602.8" y="304.04" width="32.12" height="33.79"/><rect class="cls-7" x="602.8" y="304.04" width="32.12" height="33.79"/><rect class="cls-8" x="634.92" y="304.04" width="32.12" height="33.79"/><rect class="cls-7" x="634.92" y="304.04" width="32.12" height="33.79"/><rect class="cls-8" x="667.04" y="304.04" width="32.12" height="33.79"/><rect class="cls-7" x="667.04" y="304.04" width="32.12" height="33.79"/><rect class="cls-8" x="699.15" y="304.04" width="32.12" height="33.79"/><rect class="cls-7" x="699.15" y="304.04" width="32.12" height="33.79"/><rect class="cls-8" x="731.27" y="304.04" width="32.12" height="33.79"/><rect class="cls-7" x="731.27" y="304.04" width="32.12" height="33.79"/><rect class="cls-8" x="763.38" y="304.04" width="32.12" height="33.79"/><rect class="cls-7" x="763.38" y="304.04" width="32.12" height="33.79"/><rect class="cls-9" x="24.71" y="337.83" width="32.12" height="33.79"/><rect class="cls-7" x="24.71" y="337.83" width="32.12" height="33.79"/><rect class="cls-9" x="56.83" y="337.83" width="32.12" height="33.79"/><rect class="cls-7" x="56.83" y="337.83" width="32.12" height="33.79"/><rect class="cls-9" x="88.94" y="337.83" width="32.12" height="33.79"/><rect class="cls-7" x="88.94" y="337.83" width="32.12" height="33.79"/><rect class="cls-9" x="121.06" y="337.83" width="32.12" height="33.79"/><rect class="cls-7" x="121.06" y="337.83" width="32.12" height="33.79"/><rect class="cls-6" x="153.18" y="337.83" width="32.12" height="33.79"/><rect class="cls-7" x="153.18" y="337.83" width="32.12" height="33.79"/><rect class="cls-6" x="185.29" y="337.83" width="32.12" height="33.79"/><rect class="cls-7" x="185.29" y="337.83" width="32.12" height="33.79"/><rect class="cls-6" x="217.41" y="337.83" width="32.12" height="33.79"/><rect class="cls-7" x="217.41" y="337.83" width="32.12" height="33.79"/><rect class="cls-6" x="249.53" y="337.83" width="32.12" height="33.79"/><rect class="cls-7" x="249.53" y="337.83" width="32.12" height="33.79"/><rect class="cls-6" x="281.64" y="337.83" width="32.12" height="33.79"/><rect class="cls-7" x="281.64" y="337.83" width="32.12" height="33.79"/><rect class="cls-6" x="313.76" y="337.83" width="32.12" height="33.79"/><rect class="cls-7" x="313.76" y="337.83" width="32.12" height="33.79"/><rect class="cls-6" x="345.87" y="337.83" width="32.12" height="33.79"/><rect class="cls-7" x="345.87" y="337.83" width="32.12" height="33.79"/><rect class="cls-6" x="377.99" y="337.83" width="32.12" height="33.79"/><rect class="cls-7" x="377.99" y="337.83" width="32.12" height="33.79"/><rect class="cls-6" x="410.11" y="337.83" width="32.12" height="33.79"/><rect class="cls-7" x="410.11" y="337.83" width="32.12" height="33.79"/><rect class="cls-8" x="442.22" y="337.83" width="32.12" height="33.79"/><rect class="cls-7" x="442.22" y="337.83" width="32.12" height="33.79"/><rect class="cls-8" x="474.34" y="337.83" width="32.12" height="33.79"/><rect class="cls-7" x="474.34" y="337.83" width="32.12" height="33.79"/><rect class="cls-8" x="506.45" y="337.83" width="32.12" height="33.79"/><rect class="cls-7" x="506.45" y="337.83" width="32.12" height="33.79"/><rect class="cls-8" x="538.57" y="337.83" width="32.12" height="33.79"/><rect class="cls-7" x="538.57" y="337.83" width="32.12" height="33.79"/><rect class="cls-8" x="570.69" y="337.83" width="32.12" height="33.79"/><rect class="cls-7" x="570.69" y="337.83" width="32.12" height="33.79"/><rect class="cls-8" x="602.8" y="337.83" width="32.12" height="33.79"/><rect class="cls-7" x="602.8" y="337.83" width="32.12" height="33.79"/><rect class="cls-8" x="634.92" y="337.83" width="32.12" height="33.79"/><rect class="cls-7" x="634.92" y="337.83" width="32.12" height="33.79"/><rect class="cls-8" x="667.04" y="337.83" width="32.12" height="33.79"/><rect class="cls-7" x="667.04" y="337.83" width="32.12" height="33.79"/><rect class="cls-8" x="699.15" y="337.83" width="32.12" height="33.79"/><rect class="cls-7" x="699.15" y="337.83" width="32.12" height="33.79"/><rect class="cls-8" x="731.27" y="337.83" width="32.12" height="33.79"/><rect class="cls-7" x="731.27" y="337.83" width="32.12" height="33.79"/><rect class="cls-8" x="763.38" y="337.83" width="32.12" height="33.79"/><rect class="cls-7" x="763.38" y="337.83" width="32.12" height="33.79"/><rect class="cls-9" x="24.71" y="371.62" width="32.12" height="33.79"/><rect class="cls-7" x="24.71" y="371.62" width="32.12" height="33.79"/><rect class="cls-9" x="56.83" y="371.62" width="32.12" height="33.79"/><rect class="cls-7" x="56.83" y="371.62" width="32.12" height="33.79"/><rect class="cls-9" x="88.94" y="371.62" width="32.12" height="33.79"/><rect class="cls-7" x="88.94" y="371.62" width="32.12" height="33.79"/><rect class="cls-9" x="121.06" y="371.62" width="32.12" height="33.79"/><rect class="cls-7" x="121.06" y="371.62" width="32.12" height="33.79"/><rect class="cls-9" x="153.18" y="371.62" width="32.12" height="33.79"/><rect class="cls-7" x="153.18" y="371.62" width="32.12" height="33.79"/><rect class="cls-6" x="185.29" y="371.62" width="32.12" height="33.79"/><rect class="cls-7" x="185.29" y="371.62" width="32.12" height="33.79"/><rect class="cls-6" x="217.41" y="371.62" width="32.12" height="33.79"/><rect class="cls-7" x="217.41" y="371.62" width="32.12" height="33.79"/><rect class="cls-6" x="249.53" y="371.62" width="32.12" height="33.79"/><rect class="cls-7" x="249.53" y="371.62" width="32.12" height="33.79"/><rect class="cls-6" x="281.64" y="371.62" width="32.12" height="33.79"/><rect class="cls-7" x="281.64" y="371.62" width="32.12" height="33.79"/><rect class="cls-6" x="313.76" y="371.62" width="32.12" height="33.79"/><rect class="cls-7" x="313.76" y="371.62" width="32.12" height="33.79"/><rect class="cls-6" x="345.87" y="371.62" width="32.12" height="33.79"/><rect class="cls-7" x="345.87" y="371.62" width="32.12" height="33.79"/><rect class="cls-6" x="377.99" y="371.62" width="32.12" height="33.79"/><rect class="cls-7" x="377.99" y="371.62" width="32.12" height="33.79"/><rect class="cls-6" x="410.11" y="371.62" width="32.12" height="33.79"/><rect class="cls-7" x="410.11" y="371.62" width="32.12" height="33.79"/><rect class="cls-6" x="442.22" y="371.62" width="32.12" height="33.79"/><rect class="cls-7" x="442.22" y="371.62" width="32.12" height="33.79"/><rect class="cls-6" x="474.34" y="371.62" width="32.12" height="33.79"/><rect class="cls-7" x="474.34" y="371.62" width="32.12" height="33.79"/><rect class="cls-8" x="506.45" y="371.62" width="32.12" height="33.79"/><rect class="cls-7" x="506.45" y="371.62" width="32.12" height="33.79"/><rect class="cls-8" x="538.57" y="371.62" width="32.12" height="33.79"/><rect class="cls-7" x="538.57" y="371.62" width="32.12" height="33.79"/><rect class="cls-8" x="570.69" y="371.62" width="32.12" height="33.79"/><rect class="cls-7" x="570.69" y="371.62" width="32.12" height="33.79"/><rect class="cls-8" x="602.8" y="371.62" width="32.12" height="33.79"/><rect class="cls-7" x="602.8" y="371.62" width="32.12" height="33.79"/><rect class="cls-8" x="634.92" y="371.62" width="32.12" height="33.79"/><rect class="cls-7" x="634.92" y="371.62" width="32.12" height="33.79"/><rect class="cls-8" x="667.04" y="371.62" width="32.12" height="33.79"/><rect class="cls-7" x="667.04" y="371.62" width="32.12" height="33.79"/><rect class="cls-8" x="699.15" y="371.62" width="32.12" height="33.79"/><rect class="cls-7" x="699.15" y="371.62" width="32.12" height="33.79"/><rect class="cls-8" x="731.27" y="371.62" width="32.12" height="33.79"/><rect class="cls-7" x="731.27" y="371.62" width="32.12" height="33.79"/><rect class="cls-8" x="763.38" y="371.62" width="32.12" height="33.79"/><rect class="cls-7" x="763.38" y="371.62" width="32.12" height="33.79"/><rect class="cls-9" x="24.71" y="405.41" width="32.12" height="33.79"/><rect class="cls-7" x="24.71" y="405.41" width="32.12" height="33.79"/><rect class="cls-9" x="56.83" y="405.41" width="32.12" height="33.79"/><rect class="cls-7" x="56.83" y="405.41" width="32.12" height="33.79"/><rect class="cls-9" x="88.94" y="405.41" width="32.12" height="33.79"/><rect class="cls-7" x="88.94" y="405.41" width="32.12" height="33.79"/><rect class="cls-9" x="121.06" y="405.41" width="32.12" height="33.79"/><rect class="cls-7" x="121.06" y="405.41" width="32.12" height="33.79"/><rect class="cls-9" x="153.18" y="405.41" width="32.12" height="33.79"/><rect class="cls-7" x="153.18" y="405.41" width="32.12" height="33.79"/><rect class="cls-9" x="185.29" y="405.41" width="32.12" height="33.79"/><rect class="cls-7" x="185.29" y="405.41" width="32.12" height="33.79"/><rect class="cls-6" x="217.41" y="405.41" width="32.12" height="33.79"/><rect class="cls-7" x="217.41" y="405.41" width="32.12" height="33.79"/><rect class="cls-6" x="249.53" y="405.41" width="32.12" height="33.79"/><rect class="cls-7" x="249.53" y="405.41" width="32.12" height="33.79"/><rect class="cls-6" x="281.64" y="405.41" width="32.12" height="33.79"/><rect class="cls-7" x="281.64" y="405.41" width="32.12" height="33.79"/><rect class="cls-6" x="313.76" y="405.41" width="32.12" height="33.79"/><rect class="cls-7" x="313.76" y="405.41" width="32.12" height="33.79"/><rect class="cls-6" x="345.87" y="405.41" width="32.12" height="33.79"/><rect class="cls-7" x="345.87" y="405.41" width="32.12" height="33.79"/><rect class="cls-6" x="377.99" y="405.41" width="32.12" height="33.79"/><rect class="cls-7" x="377.99" y="405.41" width="32.12" height="33.79"/><rect class="cls-6" x="410.11" y="405.41" width="32.12" height="33.79"/><rect class="cls-7" x="410.11" y="405.41" width="32.12" height="33.79"/><rect class="cls-6" x="442.22" y="405.41" width="32.12" height="33.79"/><rect class="cls-7" x="442.22" y="405.41" width="32.12" height="33.79"/><rect class="cls-6" x="474.34" y="405.41" width="32.12" height="33.79"/><rect class="cls-7" x="474.34" y="405.41" width="32.12" height="33.79"/><rect class="cls-6" x="506.45" y="405.41" width="32.12" height="33.79"/><rect class="cls-7" x="506.45" y="405.41" width="32.12" height="33.79"/><rect class="cls-8" x="538.57" y="405.41" width="32.12" height="33.79"/><rect class="cls-7" x="538.57" y="405.41" width="32.12" height="33.79"/><rect class="cls-8" x="570.69" y="405.41" width="32.12" height="33.79"/><rect class="cls-7" x="570.69" y="405.41" width="32.12" height="33.79"/><rect class="cls-8" x="602.8" y="405.41" width="32.12" height="33.79"/><rect class="cls-7" x="602.8" y="405.41" width="32.12" height="33.79"/><rect class="cls-8" x="634.92" y="405.41" width="32.12" height="33.79"/><rect class="cls-7" x="634.92" y="405.41" width="32.12" height="33.79"/><rect class="cls-8" x="667.04" y="405.41" width="32.12" height="33.79"/><rect class="cls-7" x="667.04" y="405.41" width="32.12" height="33.79"/><rect class="cls-8" x="699.15" y="405.41" width="32.12" height="33.79"/><rect class="cls-7" x="699.15" y="405.41" width="32.12" height="33.79"/><rect class="cls-8" x="731.27" y="405.41" width="32.12" height="33.79"/><rect class="cls-7" x="731.27" y="405.41" width="32.12" height="33.79"/><rect class="cls-8" x="763.38" y="405.41" width="32.12" height="33.79"/><rect class="cls-7" x="763.38" y="405.41" width="32.12" height="33.79"/><rect class="cls-9" x="24.71" y="439.2" width="32.12" height="33.79"/><rect class="cls-7" x="24.71" y="439.2" width="32.12" height="33.79"/><rect class="cls-9" x="56.83" y="439.2" width="32.12" height="33.79"/><rect class="cls-7" x="56.83" y="439.2" width="32.12" height="33.79"/><rect class="cls-9" x="88.94" y="439.2" width="32.12" height="33.79"/><rect class="cls-7" x="88.94" y="439.2" width="32.12" height="33.79"/><rect class="cls-9" x="121.06" y="439.2" width="32.12" height="33.79"/><rect class="cls-7" x="121.06" y="439.2" width="32.12" height="33.79"/><rect class="cls-9" x="153.18" y="439.2" width="32.12" height="33.79"/><rect class="cls-7" x="153.18" y="439.2" width="32.12" height="33.79"/><rect class="cls-9" x="185.29" y="439.2" width="32.12" height="33.79"/><rect class="cls-7" x="185.29" y="439.2" width="32.12" height="33.79"/><rect class="cls-9" x="217.41" y="439.2" width="32.12" height="33.79"/><rect class="cls-7" x="217.41" y="439.2" width="32.12" height="33.79"/><rect class="cls-9" x="249.53" y="439.2" width="32.12" height="33.79"/><rect class="cls-7" x="249.53" y="439.2" width="32.12" height="33.79"/><rect class="cls-6" x="281.64" y="439.2" width="32.12" height="33.79"/><rect class="cls-7" x="281.64" y="439.2" width="32.12" height="33.79"/><rect class="cls-6" x="313.76" y="439.2" width="32.12" height="33.79"/><rect class="cls-7" x="313.76" y="439.2" width="32.12" height="33.79"/><rect class="cls-6" x="345.87" y="439.2" width="32.12" height="33.79"/><rect class="cls-7" x="345.87" y="439.2" width="32.12" height="33.79"/><rect class="cls-6" x="377.99" y="439.2" width="32.12" height="33.79"/><rect class="cls-7" x="377.99" y="439.2" width="32.12" height="33.79"/><rect class="cls-6" x="410.11" y="439.2" width="32.12" height="33.79"/><rect class="cls-7" x="410.11" y="439.2" width="32.12" height="33.79"/><rect class="cls-6" x="442.22" y="439.2" width="32.12" height="33.79"/><rect class="cls-7" x="442.22" y="439.2" width="32.12" height="33.79"/><rect class="cls-6" x="474.34" y="439.2" width="32.12" height="33.79"/><rect class="cls-7" x="474.34" y="439.2" width="32.12" height="33.79"/><rect class="cls-6" x="506.45" y="439.2" width="32.12" height="33.79"/><rect class="cls-7" x="506.45" y="439.2" width="32.12" height="33.79"/><rect class="cls-6" x="538.57" y="439.2" width="32.12" height="33.79"/><rect class="cls-7" x="538.57" y="439.2" width="32.12" height="33.79"/><rect class="cls-8" x="570.69" y="439.2" width="32.12" height="33.79"/><rect class="cls-7" x="570.69" y="439.2" width="32.12" height="33.79"/><rect class="cls-8" x="602.8" y="439.2" width="32.12" height="33.79"/><rect class="cls-7" x="602.8" y="439.2" width="32.12" height="33.79"/><rect class="cls-8" x="634.92" y="439.2" width="32.12" height="33.79"/><rect class="cls-7" x="634.92" y="439.2" width="32.12" height="33.79"/><rect class="cls-8" x="667.04" y="439.2" width="32.12" height="33.79"/><rect class="cls-7" x="667.04" y="439.2" width="32.12" height="33.79"/><rect class="cls-8" x="699.15" y="439.2" width="32.12" height="33.79"/><rect class="cls-7" x="699.15" y="439.2" width="32.12" height="33.79"/><rect class="cls-8" x="731.27" y="439.2" width="32.12" height="33.79"/><rect class="cls-7" x="731.27" y="439.2" width="32.12" height="33.79"/><rect class="cls-8" x="763.38" y="439.2" width="32.12" height="33.79"/><rect class="cls-7" x="763.38" y="439.2" width="32.12" height="33.79"/><rect class="cls-9" x="24.71" y="472.99" width="32.12" height="33.79"/><rect class="cls-7" x="24.71" y="472.99" width="32.12" height="33.79"/><rect class="cls-9" x="56.83" y="472.99" width="32.12" height="33.79"/><rect class="cls-7" x="56.83" y="472.99" width="32.12" height="33.79"/><rect class="cls-9" x="88.94" y="472.99" width="32.12" height="33.79"/><rect class="cls-7" x="88.94" y="472.99" width="32.12" height="33.79"/><rect class="cls-9" x="121.06" y="472.99" width="32.12" height="33.79"/><rect class="cls-7" x="121.06" y="472.99" width="32.12" height="33.79"/><rect class="cls-9" x="153.18" y="472.99" width="32.12" height="33.79"/><rect class="cls-7" x="153.18" y="472.99" width="32.12" height="33.79"/><rect class="cls-9" x="185.29" y="472.99" width="32.12" height="33.79"/><rect class="cls-7" x="185.29" y="472.99" width="32.12" height="33.79"/><rect class="cls-9" x="217.41" y="472.99" width="32.12" height="33.79"/><rect class="cls-7" x="217.41" y="472.99" width="32.12" height="33.79"/><rect class="cls-9" x="249.53" y="472.99" width="32.12" height="33.79"/><rect class="cls-7" x="249.53" y="472.99" width="32.12" height="33.79"/><rect class="cls-9" x="281.64" y="472.99" width="32.12" height="33.79"/><rect class="cls-7" x="281.64" y="472.99" width="32.12" height="33.79"/><rect class="cls-6" x="313.76" y="472.99" width="32.12" height="33.79"/><rect class="cls-7" x="313.76" y="472.99" width="32.12" height="33.79"/><rect class="cls-6" x="345.87" y="472.99" width="32.12" height="33.79"/><rect class="cls-7" x="345.87" y="472.99" width="32.12" height="33.79"/><rect class="cls-6" x="377.99" y="472.99" width="32.12" height="33.79"/><rect class="cls-7" x="377.99" y="472.99" width="32.12" height="33.79"/><rect class="cls-6" x="410.11" y="472.99" width="32.12" height="33.79"/><rect class="cls-7" x="410.11" y="472.99" width="32.12" height="33.79"/><rect class="cls-6" x="442.22" y="472.99" width="32.12" height="33.79"/><rect class="cls-7" x="442.22" y="472.99" width="32.12" height="33.79"/><rect class="cls-6" x="474.34" y="472.99" width="32.12" height="33.79"/><rect class="cls-7" x="474.34" y="472.99" width="32.12" height="33.79"/><rect class="cls-6" x="506.45" y="472.99" width="32.12" height="33.79"/><rect class="cls-7" x="506.45" y="472.99" width="32.12" height="33.79"/><rect class="cls-6" x="538.57" y="472.99" width="32.12" height="33.79"/><rect class="cls-7" x="538.57" y="472.99" width="32.12" height="33.79"/><rect class="cls-6" x="570.69" y="472.99" width="32.12" height="33.79"/><rect class="cls-7" x="570.69" y="472.99" width="32.12" height="33.79"/><rect class="cls-8" x="602.8" y="472.99" width="32.12" height="33.79"/><rect class="cls-7" x="602.8" y="472.99" width="32.12" height="33.79"/><rect class="cls-8" x="634.92" y="472.99" width="32.12" height="33.79"/><rect class="cls-7" x="634.92" y="472.99" width="32.12" height="33.79"/><rect class="cls-8" x="667.04" y="472.99" width="32.12" height="33.79"/><rect class="cls-7" x="667.04" y="472.99" width="32.12" height="33.79"/><rect class="cls-8" x="699.15" y="472.99" width="32.12" height="33.79"/><rect class="cls-7" x="699.15" y="472.99" width="32.12" height="33.79"/><rect class="cls-8" x="731.27" y="472.99" width="32.12" height="33.79"/><rect class="cls-7" x="731.27" y="472.99" width="32.12" height="33.79"/><rect class="cls-8" x="763.38" y="472.99" width="32.12" height="33.79"/><rect class="cls-7" x="763.38" y="472.99" width="32.12" height="33.79"/><rect class="cls-9" x="24.71" y="506.78" width="32.12" height="33.79"/><rect class="cls-7" x="24.71" y="506.78" width="32.12" height="33.79"/><rect class="cls-9" x="56.83" y="506.78" width="32.12" height="33.79"/><rect class="cls-7" x="56.83" y="506.78" width="32.12" height="33.79"/><rect class="cls-9" x="88.94" y="506.78" width="32.12" height="33.79"/><rect class="cls-7" x="88.94" y="506.78" width="32.12" height="33.79"/><rect class="cls-9" x="121.06" y="506.78" width="32.12" height="33.79"/><rect class="cls-7" x="121.06" y="506.78" width="32.12" height="33.79"/><rect class="cls-9" x="153.18" y="506.78" width="32.12" height="33.79"/><rect class="cls-7" x="153.18" y="506.78" width="32.12" height="33.79"/><rect class="cls-9" x="185.29" y="506.78" width="32.12" height="33.79"/><rect class="cls-7" x="185.29" y="506.78" width="32.12" height="33.79"/><rect class="cls-9" x="217.41" y="506.78" width="32.12" height="33.79"/><rect class="cls-7" x="217.41" y="506.78" width="32.12" height="33.79"/><rect class="cls-9" x="249.53" y="506.78" width="32.12" height="33.79"/><rect class="cls-7" x="249.53" y="506.78" width="32.12" height="33.79"/><rect class="cls-9" x="281.64" y="506.78" width="32.12" height="33.79"/><rect class="cls-7" x="281.64" y="506.78" width="32.12" height="33.79"/><rect class="cls-9" x="313.76" y="506.78" width="32.12" height="33.79"/><rect class="cls-7" x="313.76" y="506.78" width="32.12" height="33.79"/><rect class="cls-6" x="345.87" y="506.78" width="32.12" height="33.79"/><rect class="cls-7" x="345.87" y="506.78" width="32.12" height="33.79"/><rect class="cls-6" x="377.99" y="506.78" width="32.12" height="33.79"/><rect class="cls-7" x="377.99" y="506.78" width="32.12" height="33.79"/><rect class="cls-6" x="410.11" y="506.78" width="32.12" height="33.79"/><rect class="cls-7" x="410.11" y="506.78" width="32.12" height="33.79"/><rect class="cls-6" x="442.22" y="506.78" width="32.12" height="33.79"/><rect class="cls-7" x="442.22" y="506.78" width="32.12" height="33.79"/><rect class="cls-6" x="474.34" y="506.78" width="32.12" height="33.79"/><rect class="cls-7" x="474.34" y="506.78" width="32.12" height="33.79"/><rect class="cls-6" x="506.45" y="506.78" width="32.12" height="33.79"/><rect class="cls-7" x="506.45" y="506.78" width="32.12" height="33.79"/><rect class="cls-6" x="538.57" y="506.78" width="32.12" height="33.79"/><rect class="cls-7" x="538.57" y="506.78" width="32.12" height="33.79"/><rect class="cls-6" x="570.69" y="506.78" width="32.12" height="33.79"/><rect class="cls-7" x="570.69" y="506.78" width="32.12" height="33.79"/><rect class="cls-6" x="602.8" y="506.78" width="32.12" height="33.79"/><rect class="cls-7" x="602.8" y="506.78" width="32.12" height="33.79"/><rect class="cls-8" x="634.92" y="506.78" width="32.12" height="33.79"/><rect class="cls-7" x="634.92" y="506.78" width="32.12" height="33.79"/><rect class="cls-8" x="667.04" y="506.78" width="32.12" height="33.79"/><rect class="cls-7" x="667.04" y="506.78" width="32.12" height="33.79"/><rect class="cls-8" x="699.15" y="506.78" width="32.12" height="33.79"/><rect class="cls-7" x="699.15" y="506.78" width="32.12" height="33.79"/><rect class="cls-8" x="731.27" y="506.78" width="32.12" height="33.79"/><rect class="cls-7" x="731.27" y="506.78" width="32.12" height="33.79"/><rect class="cls-8" x="763.38" y="506.78" width="32.12" height="33.79"/><rect class="cls-7" x="763.38" y="506.78" width="32.12" height="33.79"/><rect class="cls-9" x="24.71" y="540.57" width="32.12" height="33.79"/><rect class="cls-7" x="24.71" y="540.57" width="32.12" height="33.79"/><rect class="cls-9" x="56.83" y="540.57" width="32.12" height="33.79"/><rect class="cls-7" x="56.83" y="540.57" width="32.12" height="33.79"/><rect class="cls-9" x="88.94" y="540.57" width="32.12" height="33.79"/><rect class="cls-7" x="88.94" y="540.57" width="32.12" height="33.79"/><rect class="cls-9" x="121.06" y="540.57" width="32.12" height="33.79"/><rect class="cls-7" x="121.06" y="540.57" width="32.12" height="33.79"/><rect class="cls-9" x="153.18" y="540.57" width="32.12" height="33.79"/><rect class="cls-7" x="153.18" y="540.57" width="32.12" height="33.79"/><rect class="cls-9" x="185.29" y="540.57" width="32.12" height="33.79"/><rect class="cls-7" x="185.29" y="540.57" width="32.12" height="33.79"/><rect class="cls-9" x="217.41" y="540.57" width="32.12" height="33.79"/><rect class="cls-7" x="217.41" y="540.57" width="32.12" height="33.79"/><rect class="cls-9" x="249.53" y="540.57" width="32.12" height="33.79"/><rect class="cls-7" x="249.53" y="540.57" width="32.12" height="33.79"/><rect class="cls-9" x="281.64" y="540.57" width="32.12" height="33.79"/><rect class="cls-7" x="281.64" y="540.57" width="32.12" height="33.79"/><rect class="cls-9" x="313.76" y="540.57" width="32.12" height="33.79"/><rect class="cls-7" x="313.76" y="540.57" width="32.12" height="33.79"/><rect class="cls-9" x="345.87" y="540.57" width="32.12" height="33.79"/><rect class="cls-7" x="345.87" y="540.57" width="32.12" height="33.79"/><rect class="cls-6" x="377.99" y="540.57" width="32.12" height="33.79"/><rect class="cls-7" x="377.99" y="540.57" width="32.12" height="33.79"/><rect class="cls-6" x="410.11" y="540.57" width="32.12" height="33.79"/><rect class="cls-7" x="410.11" y="540.57" width="32.12" height="33.79"/><rect class="cls-6" x="442.22" y="540.57" width="32.12" height="33.79"/><rect class="cls-7" x="442.22" y="540.57" width="32.12" height="33.79"/><rect class="cls-6" x="474.34" y="540.57" width="32.12" height="33.79"/><rect class="cls-7" x="474.34" y="540.57" width="32.12" height="33.79"/><rect class="cls-6" x="506.45" y="540.57" width="32.12" height="33.79"/><rect class="cls-7" x="506.45" y="540.57" width="32.12" height="33.79"/><rect class="cls-6" x="538.57" y="540.57" width="32.12" height="33.79"/><rect class="cls-7" x="538.57" y="540.57" width="32.12" height="33.79"/><rect class="cls-6" x="570.69" y="540.57" width="32.12" height="33.79"/><rect class="cls-7" x="570.69" y="540.57" width="32.12" height="33.79"/><rect class="cls-6" x="602.8" y="540.57" width="32.12" height="33.79"/><rect class="cls-7" x="602.8" y="540.57" width="32.12" height="33.79"/><rect class="cls-6" x="634.92" y="540.57" width="32.12" height="33.79"/><rect class="cls-7" x="634.92" y="540.57" width="32.12" height="33.79"/><rect class="cls-8" x="667.04" y="540.57" width="32.12" height="33.79"/><rect class="cls-7" x="667.04" y="540.57" width="32.12" height="33.79"/><rect class="cls-8" x="699.15" y="540.57" width="32.12" height="33.79"/><rect class="cls-7" x="699.15" y="540.57" width="32.12" height="33.79"/><rect class="cls-8" x="731.27" y="540.57" width="32.12" height="33.79"/><rect class="cls-7" x="731.27" y="540.57" width="32.12" height="33.79"/><rect class="cls-8" x="763.38" y="540.57" width="32.12" height="33.79"/><rect class="cls-7" x="763.38" y="540.57" width="32.12" height="33.79"/><rect class="cls-9" x="24.71" y="574.36" width="32.12" height="33.79"/><rect class="cls-7" x="24.71" y="574.36" width="32.12" height="33.79"/><rect class="cls-9" x="56.83" y="574.36" width="32.12" height="33.79"/><rect class="cls-7" x="56.83" y="574.36" width="32.12" height="33.79"/><rect class="cls-9" x="88.94" y="574.36" width="32.12" height="33.79"/><rect class="cls-7" x="88.94" y="574.36" width="32.12" height="33.79"/><rect class="cls-9" x="121.06" y="574.36" width="32.12" height="33.79"/><rect class="cls-7" x="121.06" y="574.36" width="32.12" height="33.79"/><rect class="cls-9" x="153.18" y="574.36" width="32.12" height="33.79"/><rect class="cls-7" x="153.18" y="574.36" width="32.12" height="33.79"/><rect class="cls-9" x="185.29" y="574.36" width="32.12" height="33.79"/><rect class="cls-7" x="185.29" y="574.36" width="32.12" height="33.79"/><rect class="cls-9" x="217.41" y="574.36" width="32.12" height="33.79"/><rect class="cls-7" x="217.41" y="574.36" width="32.12" height="33.79"/><rect class="cls-9" x="249.53" y="574.36" width="32.12" height="33.79"/><rect class="cls-7" x="249.53" y="574.36" width="32.12" height="33.79"/><rect class="cls-9" x="281.64" y="574.36" width="32.12" height="33.79"/><rect class="cls-7" x="281.64" y="574.36" width="32.12" height="33.79"/><rect class="cls-9" x="313.76" y="574.36" width="32.12" height="33.79"/><rect class="cls-7" x="313.76" y="574.36" width="32.12" height="33.79"/><rect class="cls-9" x="345.87" y="574.36" width="32.12" height="33.79"/><rect class="cls-7" x="345.87" y="574.36" width="32.12" height="33.79"/><rect class="cls-9" x="377.99" y="574.36" width="32.12" height="33.79"/><rect class="cls-7" x="377.99" y="574.36" width="32.12" height="33.79"/><rect class="cls-6" x="410.11" y="574.36" width="32.12" height="33.79"/><rect class="cls-7" x="410.11" y="574.36" width="32.12" height="33.79"/><rect class="cls-6" x="442.22" y="574.36" width="32.12" height="33.79"/><rect class="cls-7" x="442.22" y="574.36" width="32.12" height="33.79"/><rect class="cls-6" x="474.34" y="574.36" width="32.12" height="33.79"/><rect class="cls-7" x="474.34" y="574.36" width="32.12" height="33.79"/><rect class="cls-6" x="506.45" y="574.36" width="32.12" height="33.79"/><rect class="cls-7" x="506.45" y="574.36" width="32.12" height="33.79"/><rect class="cls-6" x="538.57" y="574.36" width="32.12" height="33.79"/><rect class="cls-7" x="538.57" y="574.36" width="32.12" height="33.79"/><rect class="cls-6" x="570.69" y="574.36" width="32.12" height="33.79"/><rect class="cls-7" x="570.69" y="574.36" width="32.12" height="33.79"/><rect class="cls-6" x="602.8" y="574.36" width="32.12" height="33.79"/><rect class="cls-7" x="602.8" y="574.36" width="32.12" height="33.79"/><rect class="cls-6" x="634.92" y="574.36" width="32.12" height="33.79"/><rect class="cls-7" x="634.92" y="574.36" width="32.12" height="33.79"/><rect class="cls-6" x="667.04" y="574.36" width="32.12" height="33.79"/><rect class="cls-7" x="667.04" y="574.36" width="32.12" height="33.79"/><rect class="cls-8" x="699.15" y="574.36" width="32.12" height="33.79"/><rect class="cls-7" x="699.15" y="574.36" width="32.12" height="33.79"/><rect class="cls-8" x="731.27" y="574.36" width="32.12" height="33.79"/><rect class="cls-7" x="731.27" y="574.36" width="32.12" height="33.79"/><rect class="cls-8" x="763.38" y="574.36" width="32.12" height="33.79"/><rect class="cls-7" x="763.38" y="574.36" width="32.12" height="33.79"/><rect class="cls-9" x="25.11" y="608.36" width="32.12" height="33.79"/><rect class="cls-7" x="25.11" y="608.36" width="32.12" height="33.79"/><rect class="cls-9" x="57.22" y="608.36" width="32.12" height="33.79"/><rect class="cls-7" x="57.22" y="608.36" width="32.12" height="33.79"/><rect class="cls-9" x="89.34" y="608.36" width="32.12" height="33.79"/><rect class="cls-7" x="89.34" y="608.36" width="32.12" height="33.79"/><rect class="cls-9" x="121.45" y="608.36" width="32.12" height="33.79"/><rect class="cls-7" x="121.45" y="608.36" width="32.12" height="33.79"/><rect class="cls-9" x="153.57" y="608.36" width="32.12" height="33.79"/><rect class="cls-7" x="153.57" y="608.36" width="32.12" height="33.79"/><rect class="cls-9" x="185.69" y="608.36" width="32.12" height="33.79"/><rect class="cls-7" x="185.69" y="608.36" width="32.12" height="33.79"/><rect class="cls-9" x="217.8" y="608.36" width="32.12" height="33.79"/><rect class="cls-7" x="217.8" y="608.36" width="32.12" height="33.79"/><rect class="cls-9" x="249.92" y="608.36" width="32.12" height="33.79"/><rect class="cls-7" x="249.92" y="608.36" width="32.12" height="33.79"/><rect class="cls-9" x="282.03" y="608.36" width="32.12" height="33.79"/><rect class="cls-7" x="282.03" y="608.36" width="32.12" height="33.79"/><rect class="cls-9" x="314.15" y="608.36" width="32.12" height="33.79"/><rect class="cls-7" x="314.15" y="608.36" width="32.12" height="33.79"/><rect class="cls-9" x="346.27" y="608.36" width="32.12" height="33.79"/><rect class="cls-7" x="346.27" y="608.36" width="32.12" height="33.79"/><rect class="cls-9" x="378.38" y="608.36" width="32.12" height="33.79"/><rect class="cls-7" x="378.38" y="608.36" width="32.12" height="33.79"/><rect class="cls-9" x="410.5" y="608.36" width="32.12" height="33.79"/><rect class="cls-7" x="410.5" y="608.36" width="32.12" height="33.79"/><rect class="cls-6" x="442.62" y="608.36" width="32.12" height="33.79"/><rect class="cls-7" x="442.62" y="608.36" width="32.12" height="33.79"/><rect class="cls-6" x="474.73" y="608.36" width="32.12" height="33.79"/><rect class="cls-7" x="474.73" y="608.36" width="32.12" height="33.79"/><rect class="cls-6" x="506.85" y="608.36" width="32.12" height="33.79"/><rect class="cls-7" x="506.85" y="608.36" width="32.12" height="33.79"/><rect class="cls-6" x="538.97" y="608.36" width="32.12" height="33.79"/><rect class="cls-7" x="538.97" y="608.36" width="32.12" height="33.79"/><rect class="cls-6" x="571.08" y="608.36" width="32.12" height="33.79"/><rect class="cls-7" x="571.08" y="608.36" width="32.12" height="33.79"/><rect class="cls-6" x="603.2" y="608.36" width="32.12" height="33.79"/><rect class="cls-7" x="603.2" y="608.36" width="32.12" height="33.79"/><rect class="cls-6" x="635.31" y="608.36" width="32.12" height="33.79"/><rect class="cls-7" x="635.31" y="608.36" width="32.12" height="33.79"/><rect class="cls-6" x="667.43" y="608.36" width="32.12" height="33.79"/><rect class="cls-7" x="667.43" y="608.36" width="32.12" height="33.79"/><rect class="cls-6" x="699.55" y="608.36" width="32.12" height="33.79"/><rect class="cls-7" x="699.55" y="608.36" width="32.12" height="33.79"/><rect class="cls-8" x="731.66" y="608.36" width="32.12" height="33.79"/><rect class="cls-7" x="731.66" y="608.36" width="32.12" height="33.79"/><rect class="cls-8" x="763.78" y="608.36" width="32.12" height="33.79"/><rect class="cls-7" x="763.78" y="608.36" width="32.12" height="33.79"/><rect class="cls-9" x="25.11" y="642.14" width="32.12" height="33.79"/><rect class="cls-7" x="25.11" y="642.14" width="32.12" height="33.79"/><rect class="cls-9" x="57.22" y="642.14" width="32.12" height="33.79"/><rect class="cls-7" x="57.22" y="642.14" width="32.12" height="33.79"/><rect class="cls-9" x="89.34" y="642.14" width="32.12" height="33.79"/><rect class="cls-7" x="89.34" y="642.14" width="32.12" height="33.79"/><rect class="cls-9" x="121.45" y="642.14" width="32.12" height="33.79"/><rect class="cls-7" x="121.45" y="642.14" width="32.12" height="33.79"/><rect class="cls-9" x="153.57" y="642.14" width="32.12" height="33.79"/><rect class="cls-7" x="153.57" y="642.14" width="32.12" height="33.79"/><rect class="cls-9" x="185.69" y="642.14" width="32.12" height="33.79"/><rect class="cls-7" x="185.69" y="642.14" width="32.12" height="33.79"/><rect class="cls-9" x="217.8" y="642.14" width="32.12" height="33.79"/><rect class="cls-7" x="217.8" y="642.14" width="32.12" height="33.79"/><rect class="cls-9" x="249.92" y="642.14" width="32.12" height="33.79"/><rect class="cls-7" x="249.92" y="642.14" width="32.12" height="33.79"/><rect class="cls-9" x="282.03" y="642.14" width="32.12" height="33.79"/><rect class="cls-7" x="282.03" y="642.14" width="32.12" height="33.79"/><rect class="cls-9" x="314.15" y="642.14" width="32.12" height="33.79"/><rect class="cls-7" x="314.15" y="642.14" width="32.12" height="33.79"/><rect class="cls-9" x="346.27" y="642.14" width="32.12" height="33.79"/><rect class="cls-7" x="346.27" y="642.14" width="32.12" height="33.79"/><rect class="cls-9" x="378.38" y="642.14" width="32.12" height="33.79"/><rect class="cls-7" x="378.38" y="642.14" width="32.12" height="33.79"/><rect class="cls-9" x="410.5" y="642.14" width="32.12" height="33.79"/><rect class="cls-7" x="410.5" y="642.14" width="32.12" height="33.79"/><rect class="cls-9" x="442.62" y="642.14" width="32.12" height="33.79"/><rect class="cls-7" x="442.62" y="642.14" width="32.12" height="33.79"/><rect class="cls-6" x="474.73" y="642.14" width="32.12" height="33.79"/><rect class="cls-7" x="474.73" y="642.14" width="32.12" height="33.79"/><rect class="cls-6" x="506.85" y="642.14" width="32.12" height="33.79"/><rect class="cls-7" x="506.85" y="642.14" width="32.12" height="33.79"/><rect class="cls-6" x="538.97" y="642.14" width="32.12" height="33.79"/><rect class="cls-7" x="538.97" y="642.14" width="32.12" height="33.79"/><rect class="cls-6" x="571.08" y="642.14" width="32.12" height="33.79"/><rect class="cls-7" x="571.08" y="642.14" width="32.12" height="33.79"/><rect class="cls-6" x="603.2" y="642.14" width="32.12" height="33.79"/><rect class="cls-7" x="603.2" y="642.14" width="32.12" height="33.79"/><rect class="cls-6" x="635.31" y="642.14" width="32.12" height="33.79"/><rect class="cls-7" x="635.31" y="642.14" width="32.12" height="33.79"/><rect class="cls-6" x="667.43" y="642.14" width="32.12" height="33.79"/><rect class="cls-7" x="667.43" y="642.14" width="32.12" height="33.79"/><rect class="cls-6" x="699.55" y="642.14" width="32.12" height="33.79"/><rect class="cls-7" x="699.55" y="642.14" width="32.12" height="33.79"/><rect class="cls-6" x="731.66" y="642.14" width="32.12" height="33.79"/><rect class="cls-7" x="731.66" y="642.14" width="32.12" height="33.79"/><rect class="cls-8" x="763.78" y="642.14" width="32.12" height="33.79"/><rect class="cls-7" x="763.78" y="642.14" width="32.12" height="33.79"/><rect class="cls-9" x="25.11" y="675.93" width="32.12" height="33.79"/><rect class="cls-7" x="25.11" y="675.93" width="32.12" height="33.79"/><rect class="cls-9" x="57.22" y="675.93" width="32.12" height="33.79"/><rect class="cls-7" x="57.22" y="675.93" width="32.12" height="33.79"/><rect class="cls-9" x="89.34" y="675.93" width="32.12" height="33.79"/><rect class="cls-7" x="89.34" y="675.93" width="32.12" height="33.79"/><rect class="cls-9" x="121.45" y="675.93" width="32.12" height="33.79"/><rect class="cls-7" x="121.45" y="675.93" width="32.12" height="33.79"/><rect class="cls-9" x="153.57" y="675.93" width="32.12" height="33.79"/><rect class="cls-7" x="153.57" y="675.93" width="32.12" height="33.79"/><rect class="cls-9" x="185.69" y="675.93" width="32.12" height="33.79"/><rect class="cls-7" x="185.69" y="675.93" width="32.12" height="33.79"/><rect class="cls-9" x="217.8" y="675.93" width="32.12" height="33.79"/><rect class="cls-7" x="217.8" y="675.93" width="32.12" height="33.79"/><rect class="cls-9" x="249.92" y="675.93" width="32.12" height="33.79"/><rect class="cls-7" x="249.92" y="675.93" width="32.12" height="33.79"/><rect class="cls-9" x="282.03" y="675.93" width="32.12" height="33.79"/><rect class="cls-7" x="282.03" y="675.93" width="32.12" height="33.79"/><rect class="cls-9" x="314.15" y="675.93" width="32.12" height="33.79"/><rect class="cls-7" x="314.15" y="675.93" width="32.12" height="33.79"/><rect class="cls-9" x="346.27" y="675.93" width="32.12" height="33.79"/><rect class="cls-7" x="346.27" y="675.93" width="32.12" height="33.79"/><rect class="cls-9" x="378.38" y="675.93" width="32.12" height="33.79"/><rect class="cls-7" x="378.38" y="675.93" width="32.12" height="33.79"/><rect class="cls-9" x="410.5" y="675.93" width="32.12" height="33.79"/><rect class="cls-7" x="410.5" y="675.93" width="32.12" height="33.79"/><rect class="cls-9" x="442.62" y="675.93" width="32.12" height="33.79"/><rect class="cls-7" x="442.62" y="675.93" width="32.12" height="33.79"/><rect class="cls-9" x="474.73" y="675.93" width="32.12" height="33.79"/><rect class="cls-7" x="474.73" y="675.93" width="32.12" height="33.79"/><rect class="cls-6" x="506.85" y="675.93" width="32.12" height="33.79"/><rect class="cls-7" x="506.85" y="675.93" width="32.12" height="33.79"/><rect class="cls-6" x="538.97" y="675.93" width="32.12" height="33.79"/><rect class="cls-7" x="538.97" y="675.93" width="32.12" height="33.79"/><rect class="cls-6" x="571.08" y="675.93" width="32.12" height="33.79"/><rect class="cls-7" x="571.08" y="675.93" width="32.12" height="33.79"/><rect class="cls-6" x="603.2" y="675.93" width="32.12" height="33.79"/><rect class="cls-7" x="603.2" y="675.93" width="32.12" height="33.79"/><rect class="cls-6" x="635.31" y="675.93" width="32.12" height="33.79"/><rect class="cls-7" x="635.31" y="675.93" width="32.12" height="33.79"/><rect class="cls-6" x="667.43" y="675.93" width="32.12" height="33.79"/><rect class="cls-7" x="667.43" y="675.93" width="32.12" height="33.79"/><rect class="cls-6" x="699.55" y="675.93" width="32.12" height="33.79"/><rect class="cls-7" x="699.55" y="675.93" width="32.12" height="33.79"/><rect class="cls-6" x="731.66" y="675.93" width="32.12" height="33.79"/><rect class="cls-7" x="731.66" y="675.93" width="32.12" height="33.79"/><rect class="cls-8" x="763.78" y="675.93" width="32.12" height="33.79"/><rect class="cls-6" x="763.78" y="675.93" width="32.12" height="33.79"/><rect class="cls-6" x="25.11" y="0.25" width="32.12" height="33.79"/><rect class="cls-7" x="25.11" y="0.25" width="32.12" height="33.79"/><rect class="cls-6" x="57.22" y="0.25" width="32.12" height="33.79"/><rect class="cls-7" x="57.22" y="0.25" width="32.12" height="33.79"/><rect class="cls-6" x="89.34" y="0.25" width="32.12" height="33.79"/><rect class="cls-7" x="89.34" y="0.25" width="32.12" height="33.79"/><rect class="cls-6" x="121.45" y="0.25" width="32.12" height="33.79"/><rect class="cls-7" x="121.45" y="0.25" width="32.12" height="33.79"/><rect class="cls-8" x="153.57" y="0.25" width="32.12" height="33.79"/><rect class="cls-7" x="153.57" y="0.25" width="32.12" height="33.79"/><rect class="cls-8" x="185.69" y="0.25" width="32.12" height="33.79"/><rect class="cls-7" x="185.69" y="0.25" width="32.12" height="33.79"/><rect class="cls-8" x="217.8" y="0.25" width="32.12" height="33.79"/><rect class="cls-7" x="217.8" y="0.25" width="32.12" height="33.79"/><rect class="cls-8" x="249.92" y="0.25" width="32.12" height="33.79"/><rect class="cls-7" x="249.92" y="0.25" width="32.12" height="33.79"/><rect class="cls-8" x="282.03" y="0.25" width="32.12" height="33.79"/><rect class="cls-7" x="282.03" y="0.25" width="32.12" height="33.79"/><rect class="cls-8" x="314.15" y="0.25" width="32.12" height="33.79"/><rect class="cls-7" x="314.15" y="0.25" width="32.12" height="33.79"/><rect class="cls-8" x="346.27" y="0.25" width="32.12" height="33.79"/><rect class="cls-7" x="346.27" y="0.25" width="32.12" height="33.79"/><rect class="cls-8" x="378.38" y="0.25" width="32.12" height="33.79"/><rect class="cls-7" x="378.38" y="0.25" width="32.12" height="33.79"/><rect class="cls-8" x="410.5" y="0.25" width="32.12" height="33.79"/><rect class="cls-7" x="410.5" y="0.25" width="32.12" height="33.79"/><rect class="cls-8" x="442.62" y="0.25" width="32.12" height="33.79"/><rect class="cls-7" x="442.62" y="0.25" width="32.12" height="33.79"/><rect class="cls-8" x="474.73" y="0.25" width="32.12" height="33.79"/><rect class="cls-7" x="474.73" y="0.25" width="32.12" height="33.79"/><rect class="cls-8" x="506.85" y="0.25" width="32.12" height="33.79"/><rect class="cls-7" x="506.85" y="0.25" width="32.12" height="33.79"/><rect class="cls-8" x="538.97" y="0.25" width="32.12" height="33.79"/><rect class="cls-7" x="538.97" y="0.25" width="32.12" height="33.79"/><rect class="cls-8" x="571.08" y="0.25" width="32.12" height="33.79"/><rect class="cls-7" x="571.08" y="0.25" width="32.12" height="33.79"/><rect class="cls-8" x="603.2" y="0.25" width="32.12" height="33.79"/><rect class="cls-7" x="603.2" y="0.25" width="32.12" height="33.79"/><rect class="cls-8" x="635.31" y="0.25" width="32.12" height="33.79"/><rect class="cls-7" x="635.31" y="0.25" width="32.12" height="33.79"/><rect class="cls-8" x="667.43" y="0.25" width="32.12" height="33.79"/><rect class="cls-7" x="667.43" y="0.25" width="32.12" height="33.79"/><rect class="cls-8" x="699.55" y="0.25" width="32.12" height="33.79"/><rect class="cls-7" x="699.55" y="0.25" width="32.12" height="33.79"/><rect class="cls-8" x="731.66" y="0.25" width="32.12" height="33.79"/><rect class="cls-7" x="731.66" y="0.25" width="32.12" height="33.79"/><rect class="cls-8" x="763.78" y="0.25" width="32.12" height="33.79"/><rect class="cls-7" x="763.78" y="0.25" width="32.12" height="33.79"/></svg>