<svg id="Capa_1" data-name="Capa 1" xmlns="http://www.w3.org/2000/svg" xmlns:xlink="http://www.w3.org/1999/xlink" viewBox="0 0 59.09 62.94"><defs><style>.cls-1,.cls-10,.cls-5{fill:none;}.cls-2{opacity:0.5;}.cls-3{clip-path:url(#clip-path);}.cls-4{fill:#f2f8fc;}.cls-5{stroke:#fff;stroke-width:0.5px;}.cls-6{fill:#dbdee2;}.cls-7{fill:#e5f2f9;}.cls-8{fill:#d9ebf6;}.cls-9{fill:#4a5b6d;}.cls-10{stroke:#4a5b6d;}</style><clipPath id="clip-path" transform="translate(-2.45 1.47)"><rect class="cls-1" x="-25.23" y="-20.47" width="116.67" height="85.94"/></clipPath></defs><g class="cls-2"><g class="cls-3"><rect class="cls-4" x="5.57" y="31.8" width="21.21" height="21.2"/><rect class="cls-5" x="5.57" y="31.8" width="21.21" height="21.2"/><rect class="cls-6" x="27.27" y="31.8" width="21.2" height="21.2"/><rect class="cls-7" x="5.57" y="10.1" width="21.21" height="21.2"/><rect class="cls-5" x="5.57" y="10.1" width="21.21" height="21.2"/><rect class="cls-8" x="27.27" y="10.1" width="21.2" height="21.2"/><rect class="cls-5" x="27.27" y="10.1" width="21.2" height="21.2"/><rect class="cls-9" x="0.22" y="57.17" width="1.95" height="0.72"/><path class="cls-9" d="M57,1.15V3.86h2.6V4.8H57V7.53H56V4.8h-2.6V3.86H56V1.15Z" transform="translate(-2.45 1.47)"/><polyline class="cls-10" points="5.22 8.65 5.22 53.35 49.92 53.35"/><line class="cls-10" x1="2.97" y1="8.65" x2="7.47" y2="8.65"/><line class="cls-10" x1="49.92" y1="51.1" x2="49.92" y2="55.6"/><line class="cls-10" x1="5.47" y1="53.11" x2="47.41" y2="11.16"/><polyline class="cls-10" points="41.94 11.36 47.41 11.16 47.21 16.63"/></g></g><rect class="cls-1" width="59.09" height="62.94"/><rect class="cls-1" width="59.09" height="62.94"/></svg>