<svg xmlns="http://www.w3.org/2000/svg" xmlns:xlink="http://www.w3.org/1999/xlink" width="39.2" height="39.2" viewBox="0 0 39.2 39.2">
  <defs>
    <clipPath id="clip-path">
      <path id="Trazado_820" data-name="Trazado 820" d="M0,0H39.2V-39.2H0Z" fill="none"/>
    </clipPath>
  </defs>
  <g id="ico-ingresos-totales" transform="translate(0 39.2)">
    <g id="Grupo_750" data-name="Grupo 750" clip-path="url(#clip-path)">
      <g id="Grupo_748" data-name="Grupo 748" transform="translate(19.6)">
        <path id="Trazado_818" data-name="Trazado 818" d="M0,0A19.6,19.6,0,0,0,19.6-19.6,19.6,19.6,0,0,0,0-39.2,19.6,19.6,0,0,0-19.6-19.6,19.6,19.6,0,0,0,0,0" fill="#edf1f4"/>
      </g>
      <g id="Grupo_749" data-name="Grupo 749" transform="translate(26.1 -10.6)">
        <path id="Trazado_819" data-name="Trazado 819" d="M0,0H-13.5a2,2,0,0,1-2-2V-15.5A2.5,2.5,0,0,1-13-18H-3A2.5,2.5,0,0,1-.5-15.5V-4H2a.5.5,0,0,1,.5.5v1A2.5,2.5,0,0,1,0,0M-11.5-3v1a1.984,1.984,0,0,1-.267,1H0A1.5,1.5,0,0,0,1.5-2.5V-3ZM-13-17a1.5,1.5,0,0,0-1.5,1.5V-2a1,1,0,0,0,1,1,1,1,0,0,0,1-1V-3.5A.5.5,0,0,1-12-4H-1.5V-15.5A1.5,1.5,0,0,0-3-17ZM-7-6a.5.5,0,0,1-.5-.5V-7h-1v.5A.5.5,0,0,1-9-6a.5.5,0,0,1-.5-.5V-7H-10a1.5,1.5,0,0,1-1.5-1.5A.5.5,0,0,1-11-9a.5.5,0,0,1,.5.5A.5.5,0,0,0-10-8h4a.5.5,0,0,0,.5-.5v-1A.5.5,0,0,0-6-10h-4a1.5,1.5,0,0,1-1.5-1.5v-1A1.5,1.5,0,0,1-10-14h.5v-.5A.5.5,0,0,1-9-15a.5.5,0,0,1,.5.5v.5h1v-.5A.5.5,0,0,1-7-15a.5.5,0,0,1,.5.5v.5H-6a1.5,1.5,0,0,1,1.5,1.5A.5.5,0,0,1-5-12a.5.5,0,0,1-.5-.5A.5.5,0,0,0-6-13h-4a.5.5,0,0,0-.5.5v1a.5.5,0,0,0,.5.5h4A1.5,1.5,0,0,1-4.5-9.5v1A1.5,1.5,0,0,1-6-7h-.5v.5A.5.5,0,0,1-7-6" fill="#a5bcd1"/>
      </g>
    </g>
  </g>
</svg>
