<svg xmlns="http://www.w3.org/2000/svg" xmlns:xlink="http://www.w3.org/1999/xlink" width="39.2" height="39.2" viewBox="0 0 39.2 39.2">
  <defs>
    <clipPath id="clip-path">
      <path id="Trazado_829" data-name="Trazado 829" d="M0,0H39.2V-39.2H0Z" fill="none"/>
    </clipPath>
  </defs>
  <g id="ico-flujo-operativo" transform="translate(0 39.2)">
    <g id="Grupo_773" data-name="Grupo 773" clip-path="url(#clip-path)">
      <g id="Grupo_771" data-name="Grupo 771" transform="translate(19.6)">
        <path id="Trazado_827" data-name="Trazado 827" d="M0,0A19.6,19.6,0,0,0,19.6-19.6,19.6,19.6,0,0,0,0-39.2,19.6,19.6,0,0,0-19.6-19.6,19.6,19.6,0,0,0,0,0" fill="#edf1f4"/>
      </g>
      <g id="Grupo_772" data-name="Grupo 772" transform="translate(29.1 -11.6)">
        <path id="Trazado_828" data-name="Trazado 828" d="M0,0H-19a.5.5,0,0,1-.5-.5A.5.5,0,0,1-19-1H0a.5.5,0,0,1,.5.5A.5.5,0,0,1,0,0M0-2H-19a.5.5,0,0,1-.5-.5A.5.5,0,0,1-19-3H0a.5.5,0,0,1,.5.5A.5.5,0,0,1,0-2M-15.959-3.965A.5.5,0,0,1-16.142-4H-17a2.5,2.5,0,0,1-2.5-2.5v-7A2.5,2.5,0,0,1-17-16H-2A2.5,2.5,0,0,1,.5-13.5v7A2.5,2.5,0,0,1-2-4H-15.775a.505.505,0,0,1-.184.035M-1-7A1.5,1.5,0,0,0-2.5-5.5V-5H-2A1.5,1.5,0,0,0-.5-6.5V-7Zm-17.5-5v4h.541a2.486,2.486,0,0,1,1.768.732A2.519,2.519,0,0,1-15.459-5.5V-5H-3.5v-.5A2.5,2.5,0,0,1-1-8h.5v-4H-1a2.5,2.5,0,0,1-2.5-2.5V-15h-12v.5A2.5,2.5,0,0,1-18-12Zm0,5v.5A1.5,1.5,0,0,0-17-5h.541v-.5a1.5,1.5,0,0,0-1.5-1.5Zm16-8v.5A1.5,1.5,0,0,0-1-13h.5v-.5A1.5,1.5,0,0,0-2-15ZM-17-15a1.5,1.5,0,0,0-1.5,1.5v.5h.5a1.5,1.5,0,0,0,1.5-1.5V-15Zm7.5,9a4,4,0,0,1-4-4,4,4,0,0,1,4-4,4,4,0,0,1,4,4,4,4,0,0,1-4,4m0-7a3,3,0,0,0-3,3,3,3,0,0,0,3,3,3,3,0,0,0,3-3,3,3,0,0,0-3-3" fill="#a5bcd1"/>
      </g>
    </g>
  </g>
</svg>
