<svg xmlns="http://www.w3.org/2000/svg" xmlns:xlink="http://www.w3.org/1999/xlink" width="39.2" height="39.2" viewBox="0 0 39.2 39.2">
  <defs>
    <clipPath id="clip-path">
      <path id="Trazado_832" data-name="Trazado 832" d="M0,0H39.2V-39.2H0Z" fill="none"/>
    </clipPath>
  </defs>
  <g id="ico-transacciones" transform="translate(0 39.2)">
    <g id="Grupo_776" data-name="Grupo 776" clip-path="url(#clip-path)">
      <g id="Grupo_774" data-name="Grupo 774" transform="translate(19.6)">
        <path id="Trazado_830" data-name="Trazado 830" d="M0,0A19.6,19.6,0,0,0,19.6-19.6,19.6,19.6,0,0,0,0-39.2,19.6,19.6,0,0,0-19.6-19.6,19.6,19.6,0,0,0,0,0" fill="#edf1f4"/>
      </g>
      <g id="Grupo_775" data-name="Grupo 775" transform="translate(14.1 -11.1)">
        <path id="Trazado_831" data-name="Trazado 831" d="M0,0A.5.5,0,0,1-.354-.147l-3-3a.5.5,0,0,1,0-.707h0l3-3a.5.5,0,0,1,.707,0,.5.5,0,0,1,0,.707h0L-1.792-4H12a1.5,1.5,0,0,0,1.5-1.5v-3A.5.5,0,0,1,14-9a.5.5,0,0,1,.5.5v3A2.5,2.5,0,0,1,12-3H-1.792L.355-.854a.5.5,0,0,1,0,.707A.5.5,0,0,1,0,0M-3-8a.5.5,0,0,1-.5-.5v-3A2.5,2.5,0,0,1-1-14H12.794l-2.147-2.145a.5.5,0,0,1,0-.707h0a.5.5,0,0,1,.707,0l3,3a.5.5,0,0,1,0,.707h0l-3,3a.5.5,0,0,1-.707-.012.5.5,0,0,1,0-.7L12.794-13H-1a1.5,1.5,0,0,0-1.5,1.5v3A.5.5,0,0,1-3-8" fill="#a5bcd1"/>
      </g>
    </g>
  </g>
</svg>
