<svg xmlns="http://www.w3.org/2000/svg" xmlns:xlink="http://www.w3.org/1999/xlink" width="39.2" height="39.2" viewBox="0 0 39.2 39.2">
  <defs>
    <clipPath id="clip-path">
      <path id="Trazado_826" data-name="Trazado 826" d="M0,0H39.2V-39.2H0Z" fill="none"/>
    </clipPath>
  </defs>
  <g id="ico-utilidad-operacion" transform="translate(0 39.2)">
    <g id="Grupo_770" data-name="Grupo 770" clip-path="url(#clip-path)">
      <g id="Grupo_768" data-name="Grupo 768" transform="translate(19.6)">
        <path id="Trazado_824" data-name="Trazado 824" d="M0,0A19.6,19.6,0,0,0,19.6-19.6,19.6,19.6,0,0,0,0-39.2,19.6,19.6,0,0,0-19.6-19.6,19.6,19.6,0,0,0,0,0" fill="#edf1f4"/>
      </g>
      <g id="Grupo_769" data-name="Grupo 769" transform="translate(12.142 -12.583)">
        <path id="Trazado_825" data-name="Trazado 825" d="M0,0A.505.505,0,0,1-.184-.035h-.858a2.5,2.5,0,0,1-2.5-2.5v-9a2.5,2.5,0,0,1,2.5-2.5h17a2.5,2.5,0,0,1,2.5,2.5v9a2.5,2.5,0,0,1-2.5,2.5H.183A.5.5,0,0,1,0,0M16.958-3.035a1.5,1.5,0,0,0-1.5,1.5v.5h.5a1.5,1.5,0,0,0,1.5-1.5v-.5Zm-19.5-7v6H-2a2.5,2.5,0,0,1,2.5,2.5v.5H14.458v-.5a2.5,2.5,0,0,1,2.5-2.5h.5v-6h-.5a2.5,2.5,0,0,1-2.5-2.5v-.5h-14v.5a2.5,2.5,0,0,1-2.5,2.5Zm0,7v.5a1.5,1.5,0,0,0,1.5,1.5H-.5v-.5A1.5,1.5,0,0,0-2-3.035Zm18-10v.5a1.5,1.5,0,0,0,1.5,1.5h.5v-.5a1.5,1.5,0,0,0-1.5-1.5Zm-16.5,0a1.5,1.5,0,0,0-1.5,1.5v.5h.5a1.5,1.5,0,0,0,1.5-1.5v-.5Zm8.5,10a4,4,0,0,1-4-4,4,4,0,0,1,4-4,4,4,0,0,1,4,4,4,4,0,0,1-4,4m0-7a3,3,0,0,0-3,3,3,3,0,0,0,3,3,3,3,0,0,0,3-3,3,3,0,0,0-3-3" fill="#a5bcd1"/>
      </g>
    </g>
  </g>
</svg>
