<svg xmlns="http://www.w3.org/2000/svg" xmlns:xlink="http://www.w3.org/1999/xlink" width="39.2" height="39.2" viewBox="0 0 39.2 39.2">
  <defs>
    <clipPath id="clip-path">
      <path id="Trazado_823" data-name="Trazado 823" d="M0,0H39.2V-39.2H0Z" fill="none"/>
    </clipPath>
  </defs>
  <g id="ico-unidades-totales" transform="translate(0 39.2)">
    <g id="Grupo_767" data-name="Grupo 767" clip-path="url(#clip-path)">
      <g id="Grupo_765" data-name="Grupo 765" transform="translate(19.6)">
        <path id="Trazado_821" data-name="Trazado 821" d="M0,0A19.6,19.6,0,0,0,19.6-19.6,19.6,19.6,0,0,0,0-39.2,19.6,19.6,0,0,0-19.6-19.6,19.6,19.6,0,0,0,0,0" fill="#edf1f4"/>
      </g>
      <g id="Grupo_766" data-name="Grupo 766" transform="translate(26.1 -10.6)">
        <path id="Trazado_822" data-name="Trazado 822" d="M0,0H-13a2.5,2.5,0,0,1-2.5-2.5v-7.585A1.522,1.522,0,0,0-15-10h.5v7.5A1.5,1.5,0,0,0-13-1h.5V-6.5A1.5,1.5,0,0,1-11-8h3A1.5,1.5,0,0,1-6.5-6.5V-1H0A1.5,1.5,0,0,0,1.5-2.5V-10h-2a1.489,1.489,0,0,1-1-.383A1.5,1.5,0,0,1-2.5-10h-3a1.5,1.5,0,0,1-1-.383A1.489,1.489,0,0,1-7.5-10h-3a1.489,1.489,0,0,1-1-.383,1.5,1.5,0,0,1-1,.383h-2v-.5h-1v.414a1.5,1.5,0,0,1-1-1.414v-.807a1.5,1.5,0,0,1,.107-.558l1.929-4.82A.5.5,0,0,1-14-18H1a.5.5,0,0,1,.464.314l1.929,4.821a1.5,1.5,0,0,1,.107.558v.807a1.5,1.5,0,0,1-1,1.415V-10.5h-1v.5H2a1.522,1.522,0,0,0,.5-.085V-2.5A2.5,2.5,0,0,1,0,0M-11-7a.5.5,0,0,0-.5.5V-1h4V-6.5A.5.5,0,0,0-8-7Zm9.5-6a.5.5,0,0,1,.5.5v1a.5.5,0,0,0,.5.5H2a.5.5,0,0,0,.5-.5v-.807a.493.493,0,0,0-.036-.186L.661-17H-13.66l-1.8,4.507a.5.5,0,0,0-.04.186v.807a.5.5,0,0,0,.5.5h2.5a.5.5,0,0,0,.5-.5v-1a.5.5,0,0,1,.5-.5.5.5,0,0,1,.5.5v1a.5.5,0,0,0,.5.5h3a.5.5,0,0,0,.5-.5v-1a.5.5,0,0,1,.5-.5.5.5,0,0,1,.5.5v1a.5.5,0,0,0,.5.5h3a.5.5,0,0,0,.5-.5v-1a.5.5,0,0,1,.5-.5M-2-3H-3A1.5,1.5,0,0,1-4.5-4.5v-2A1.5,1.5,0,0,1-3-8h1A1.5,1.5,0,0,1-.5-6.5v2A1.5,1.5,0,0,1-2-3M-3-7a.5.5,0,0,0-.5.5v2A.5.5,0,0,0-3-4h1a.5.5,0,0,0,.5-.5v-2A.5.5,0,0,0-2-7Z" fill="#a5bcd1"/>
      </g>
    </g>
  </g>
</svg>
