<?xml version="1.0" encoding="utf-8"?>
<!-- Generator: Adobe Illustrator 25.1.0, SVG Export Plug-In . SVG Version: 6.00 Build 0)  -->
<svg version="1.1" id="Capa_1" xmlns="http://www.w3.org/2000/svg" xmlns:xlink="http://www.w3.org/1999/xlink" x="0px" y="0px"
	 viewBox="0 0 274 193.8" style="enable-background:new 0 0 274 193.8;" xml:space="preserve">
<style type="text/css">
	.st0{fill:none;stroke:#52BFD3;stroke-miterlimit:10;}
	.st1{fill:#7CBED1;}
	.st2{enable-background:new    ;}
	.st3{fill:#0071CE;}
	.st4{fill:#545051;}
	.st5{font-family:'MyriadPro-Regular';}
	.st6{font-size:11px;}
	.st7{fill:none;stroke:#FFB71B;stroke-width:4;stroke-linecap:round;stroke-miterlimit:10;}
</style>
<line class="st0" x1="0" y1="176.1" x2="274" y2="176.1"/>
<path class="st1" d="M38.8,6.3v169.7h-9.7V6.3C29.3,3.8,31.5,1.8,34,2C36.5,1.8,38.7,3.8,38.8,6.3"/>
<path class="st1" d="M90.3,54.8v121.2h-9.7V54.8c0.3-2.7,2.7-4.6,5.4-4.3C88.3,50.8,90,52.5,90.3,54.8"/>
<path class="st1" d="M141.8,89.9v86.3h-9.7V89.9c0.3-2.7,2.7-4.6,5.4-4.3C139.7,85.9,141.5,87.7,141.8,89.9"/>
<path class="st1" d="M193.2,120.1v56.1h-9.7v-56.1c0.3-2.7,2.7-4.6,5.4-4.3C191.2,116.1,193,117.9,193.2,120.1"/>
<path class="st1" d="M244.7,161.8v14.4H235v-14.4c0.3-2.7,2.7-4.6,5.4-4.3C242.6,157.8,244.4,159.6,244.7,161.8"/>
<g class="st2">
	<path class="st3" d="M220,12.6V15h-6.3v-2.4H220z"/>
	<path class="st3" d="M232.1,7.5h-6l-0.3,2.4c0.3,0,0.6,0,1,0c1.5,0,3,0.3,4.1,1.1c1.2,0.8,1.9,2.1,1.9,3.9c0,2.9-2.5,5.5-6.7,5.5
		c-1.9,0-3.5-0.4-4.3-0.9l0.6-2.7c0.7,0.3,2.1,0.8,3.5,0.8c1.5,0,3.1-0.7,3.1-2.4c0-1.6-1.3-2.6-4.4-2.6c-0.9,0-1.5,0-2.1,0.1l1-8.2
		h8.6V7.5z"/>
	<path class="st3" d="M235,20.1v-2.2l2-1.8c3.4-3,5.1-4.8,5.1-6.6c0-1.3-0.8-2.3-2.6-2.3c-1.3,0-2.5,0.7-3.3,1.3l-1-2.6
		c1.2-0.9,3-1.6,5.1-1.6c3.5,0,5.5,2.1,5.5,4.9c0,2.6-1.9,4.7-4.2,6.7l-1.4,1.2v0h5.9v3H235z"/>
	<path class="st3" d="M256.5,8.9c0,3.3-2.1,5-4.3,5c-2.4,0-4.2-1.8-4.2-4.7c0-2.8,1.7-4.9,4.4-4.9C255,4.2,256.5,6.2,256.5,8.9z
		 M250.7,9c0,1.6,0.6,2.8,1.6,2.8c1,0,1.5-1.1,1.5-2.8c0-1.6-0.4-2.8-1.6-2.8C251.2,6.2,250.7,7.5,250.7,9z M252.4,20.4l9-16.1h2
		l-9,16.1H252.4z M267.8,15.3c0,3.3-2.1,5-4.3,5c-2.4,0-4.2-1.8-4.2-4.7c0-2.8,1.7-4.9,4.4-4.9C266.3,10.7,267.8,12.7,267.8,15.3z
		 M261.9,15.5c0,1.6,0.5,2.8,1.6,2.8c1,0,1.5-1.1,1.5-2.8c0-1.6-0.4-2.8-1.5-2.8C262.4,12.7,261.9,13.9,261.9,15.5z"/>
</g>
<text transform="matrix(1 0 0 1 28.27 191.09)" class="st4 st5 st6">1</text>
<text transform="matrix(1 0 0 1 33.32 191.09)" class="st4 st5 st6">6</text>
<text transform="matrix(1 0 0 1 79.73 191.09)" class="st4 st5 st6">1</text>
<text transform="matrix(1 0 0 1 84.46 191.09)" class="st4 st5 st6">7</text>
<text transform="matrix(1 0 0 1 130.64 191.09)" class="st4 st5 st6">1</text>
<text transform="matrix(1 0 0 1 135.67 191.09)" class="st4 st5 st6">8</text>
<text transform="matrix(1 0 0 1 182.24 191.09)" class="st4 st5 st6">1</text>
<text transform="matrix(1 0 0 1 187.17 191.09)" class="st4 st5 st6">9</text>
<text transform="matrix(1 0 0 1 233.59 191.09)" class="st4 st5 st6">2</text>
<text transform="matrix(1 0 0 1 239.07 191.09)" class="st4 st5 st6">0</text>
<line class="st7" x1="49.3" y1="2.1" x2="251.9" y2="143.4"/>
<polyline class="st7" points="249.8,133.8 251.9,143.4 242.1,144.8 "/>
</svg>
