<?xml version="1.0" encoding="utf-8"?>
<!-- Generator: Adobe Illustrator 25.1.0, SVG Export Plug-In . SVG Version: 6.00 Build 0)  -->
<svg version="1.1" id="Capa_1" xmlns="http://www.w3.org/2000/svg" xmlns:xlink="http://www.w3.org/1999/xlink" x="0px" y="0px"
	 viewBox="0 0 274 193.8" style="enable-background:new 0 0 274 193.8;" xml:space="preserve">
<style type="text/css">
	.st0{fill:none;stroke:#263B80;stroke-miterlimit:10;}
	.st1{fill:#263B80;}
	.st2{fill:#545051;}
	.st3{font-family:'MyriadPro-Regular';}
	.st4{font-size:11px;}
	.st5{fill:none;stroke:#FFB71B;stroke-width:4;stroke-linecap:round;stroke-miterlimit:10;}
	.st6{enable-background:new    ;}
	.st7{fill:#0071CE;}
</style>
<line class="st0" x1="0" y1="177" x2="274" y2="177"/>
<path class="st1" d="M38.8,7.1v169.7h-9.7V7.1c0.2-2.5,2.3-4.5,4.9-4.3c0,0,0,0,0,0C36.5,2.6,38.7,4.6,38.8,7.1"/>
<path class="st1" d="M90.3,55.5v121.2h-9.7V55.5c0.3-2.7,2.7-4.6,5.4-4.3C88.2,51.5,90,53.3,90.3,55.5"/>
<path class="st1" d="M141.8,104v73h-9.7v-73c0.3-2.7,2.7-4.6,5.4-4.3C139.7,100,141.5,101.8,141.8,104"/>
<path class="st1" d="M193.2,120v57h-9.7v-57c0.3-2.7,2.7-4.6,5.4-4.3C191.2,116,193,117.7,193.2,120"/>
<path class="st1" d="M244.7,156.4V177H235v-20.6c0.3-2.7,2.7-4.6,5.4-4.3C242.7,152.4,244.4,154.2,244.7,156.4"/>
<text transform="matrix(1 0 0 1 28.46 191)" class="st2 st3 st4">1</text>
<text transform="matrix(1 0 0 1 33.51 191)" class="st2 st3 st4">6</text>
<text transform="matrix(1 0 0 1 79.92 191)" class="st2 st3 st4">1</text>
<text transform="matrix(1 0 0 1 84.65 191)" class="st2 st3 st4">7</text>
<text transform="matrix(1 0 0 1 130.83 191)" class="st2 st3 st4">1</text>
<text transform="matrix(1 0 0 1 135.86 191)" class="st2 st3 st4">8</text>
<text transform="matrix(1 0 0 1 182.43 191)" class="st2 st3 st4">1</text>
<text transform="matrix(1 0 0 1 187.36 191)" class="st2 st3 st4">9</text>
<text transform="matrix(1 0 0 1 233.78 191)" class="st2 st3 st4">2</text>
<text transform="matrix(1 0 0 1 239.26 191)" class="st2 st3 st4">0</text>
<line class="st5" x1="49.7" y1="2" x2="252.3" y2="143.3"/>
<polyline class="st5" points="250.2,133.7 252.3,143.3 242.6,144.7 "/>
<g class="st6">
	<path class="st7" d="M179.1,12.7v2.4h-6.3v-2.4H179.1z"/>
	<path class="st7" d="M190.8,7.3c-0.4,0-0.8,0-1.4,0c-3.2,0.3-4.7,1.9-5.1,3.7h0.1c0.8-0.8,1.8-1.2,3.3-1.2c2.6,0,4.8,1.8,4.8,5.1
		c0,3.1-2.4,5.6-5.8,5.6c-4.2,0-6.2-3.1-6.2-6.8c0-2.9,1.1-5.4,2.8-6.9c1.6-1.4,3.6-2.2,6-2.3c0.7,0,1.1,0,1.5,0V7.3z M188.8,15.1
		c0-1.4-0.8-2.7-2.3-2.7c-1,0-1.8,0.6-2.2,1.4c-0.1,0.2-0.1,0.5-0.1,0.9c0.1,1.7,0.9,3.1,2.5,3.1C188,17.8,188.8,16.7,188.8,15.1z"
		/>
	<path class="st7" d="M205.3,4.7V7l-6.4,13.3H195l6.4-12.6v0h-7.2v-3H205.3z"/>
	<path class="st7" d="M207.7,18.3c0-1.3,0.9-2.2,2.2-2.2c1.3,0,2.1,0.9,2.1,2.2c0,1.3-0.9,2.2-2.2,2.2
		C208.5,20.5,207.7,19.6,207.7,18.3z"/>
	<path class="st7" d="M224.1,7.7h-6l-0.3,2.4c0.3,0,0.6,0,1,0c1.5,0,3,0.3,4.1,1.1c1.2,0.8,1.9,2.1,1.9,3.9c0,2.9-2.5,5.5-6.7,5.5
		c-1.9,0-3.5-0.4-4.3-0.9l0.6-2.7c0.7,0.3,2.1,0.8,3.5,0.8c1.5,0,3.1-0.7,3.1-2.4c0-1.6-1.3-2.6-4.4-2.6c-0.9,0-1.5,0-2.1,0.1l1-8.2
		h8.6V7.7z"/>
	<path class="st7" d="M235.2,9c0,3.3-2.1,5-4.3,5c-2.4,0-4.2-1.8-4.2-4.7c0-2.8,1.7-4.9,4.4-4.9C233.7,4.4,235.2,6.4,235.2,9z
		 M229.4,9.2c0,1.6,0.6,2.8,1.6,2.8c1,0,1.5-1.1,1.5-2.8c0-1.6-0.4-2.8-1.6-2.8C229.9,6.4,229.4,7.6,229.4,9.2z M231.1,20.5l9-16.1
		h2l-9,16.1H231.1z M246.5,15.5c0,3.3-2.1,5-4.3,5c-2.4,0-4.2-1.8-4.2-4.7c0-2.8,1.7-4.9,4.4-4.9C245,10.9,246.5,12.8,246.5,15.5z
		 M240.6,15.7c0,1.6,0.5,2.8,1.6,2.8c1,0,1.5-1.1,1.5-2.8c0-1.6-0.4-2.8-1.5-2.8C241.1,12.9,240.6,14.1,240.6,15.7z"/>
	<path class="st7" d="M256.1,5l-2.6,3l0,0.1l3.8-0.8v2.4l-3.8-0.7l0,0.1l2.6,3l-2.1,1.2l-1.4-3.7l0,0l-1.4,3.7l-2.1-1.2l2.6-3v0
		l-3.8,0.7V7.4l3.7,0.7l0,0l-2.5-3l2.1-1.2l1.3,3.7h0l1.4-3.7L256.1,5z"/>
	<path class="st7" d="M267,5l-2.6,3l0,0.1l3.8-0.8v2.4l-3.8-0.7l0,0.1l2.6,3l-2.1,1.2l-1.4-3.7l0,0l-1.4,3.7l-2.1-1.2l2.6-3v0
		l-3.8,0.7V7.4l3.7,0.7l0,0L260,5l2.1-1.2l1.3,3.7h0l1.4-3.7L267,5z"/>
</g>
</svg>
