<?xml version="1.0" encoding="utf-8"?>
<!-- Generator: Adobe Illustrator 25.1.0, SVG Export Plug-In . SVG Version: 6.00 Build 0)  -->
<svg version="1.1" id="Capa_1" xmlns="http://www.w3.org/2000/svg" xmlns:xlink="http://www.w3.org/1999/xlink" x="0px" y="0px"
	 viewBox="0 0 274 193.8" style="enable-background:new 0 0 274 193.8;" xml:space="preserve">
<style type="text/css">
	.st0{fill:none;stroke:#52BFD3;stroke-miterlimit:10;}
	.st1{fill:#7CBED1;}
	.st2{enable-background:new    ;}
	.st3{fill:#0071CE;}
	.st4{fill:#545051;}
	.st5{font-family:'MyriadPro-Regular';}
	.st6{font-size:11px;}
	.st7{fill:none;stroke:#FFB71B;stroke-width:4;stroke-linecap:round;stroke-miterlimit:10;}
</style>
<line class="st0" x1="0" y1="177.1" x2="274" y2="177.1"/>
<path class="st1" d="M38.8,7.2v169.7h-9.7V7.2c0.2-2.5,2.3-4.5,4.9-4.3c0,0,0,0,0,0C36.5,2.7,38.7,4.6,38.8,7.2"/>
<path class="st1" d="M90.3,55.6v121.2h-9.7V55.6c0.3-2.7,2.7-4.6,5.4-4.3C88.2,51.6,90,53.4,90.3,55.6"/>
<path class="st1" d="M141.8,104.1v73h-9.7v-73c0.3-2.7,2.7-4.6,5.4-4.3C139.7,100.1,141.5,101.9,141.8,104.1"/>
<path class="st1" d="M193.2,120.1v57h-9.7v-57c0.3-2.7,2.7-4.6,5.4-4.3C191.2,116.1,193,117.8,193.2,120.1"/>
<path class="st1" d="M244.7,156.5v20.6H235v-20.6c0.3-2.7,2.7-4.6,5.4-4.3C242.7,152.5,244.4,154.3,244.7,156.5"/>
<g class="st2">
	<path class="st3" d="M219.6,12.6V15h-6.3v-2.4H219.6z"/>
	<path class="st3" d="M231.7,7.5h-6l-0.3,2.4c0.3,0,0.6,0,1,0c1.5,0,3,0.3,4.1,1.1c1.2,0.8,1.9,2.1,1.9,3.9c0,2.9-2.5,5.5-6.7,5.5
		c-1.9,0-3.5-0.4-4.3-0.9l0.6-2.7c0.7,0.3,2.1,0.8,3.5,0.8c1.5,0,3.1-0.7,3.1-2.4c0-1.6-1.3-2.6-4.4-2.6c-0.9,0-1.5,0-2.1,0.1l1-8.2
		h8.6V7.5z"/>
	<path class="st3" d="M234.4,16c0-1.9,1.1-3.2,2.8-3.9V12c-1.5-0.8-2.3-2-2.3-3.4c0-2.6,2.4-4.4,5.5-4.4c3.6,0,5.2,2.1,5.2,4
		c0,1.3-0.7,2.7-2.3,3.4v0.1c1.5,0.6,2.9,1.9,2.9,3.9c0,2.8-2.4,4.7-6,4.7C236.2,20.4,234.4,18.1,234.4,16z M242.4,15.9
		c0-1.4-1-2.2-2.4-2.6c-1.2,0.3-1.9,1.2-1.9,2.3c0,1.1,0.8,2.2,2.2,2.2C241.6,17.8,242.4,17,242.4,15.9z M238.3,8.5
		c0,1.1,1,1.7,2.2,2.1c0.8-0.2,1.6-1,1.6-2c0-1-0.6-1.9-1.9-1.9C239,6.7,238.3,7.5,238.3,8.5z"/>
	<path class="st3" d="M256.1,8.9c0,3.3-2.1,5-4.3,5c-2.4,0-4.2-1.8-4.2-4.7c0-2.8,1.7-4.9,4.4-4.9C254.6,4.2,256.1,6.2,256.1,8.9z
		 M250.3,9c0,1.6,0.6,2.8,1.6,2.8c1,0,1.5-1.1,1.5-2.8c0-1.6-0.4-2.8-1.6-2.8C250.8,6.2,250.3,7.5,250.3,9z M252,20.4l9-16.1h2
		l-9,16.1H252z M267.4,15.3c0,3.3-2.1,5-4.3,5c-2.4,0-4.2-1.8-4.2-4.7c0-2.8,1.7-4.9,4.4-4.9C265.9,10.7,267.4,12.7,267.4,15.3z
		 M261.5,15.5c0,1.6,0.5,2.8,1.6,2.8c1,0,1.5-1.1,1.5-2.8c0-1.6-0.4-2.8-1.5-2.8C262,12.7,261.5,13.9,261.5,15.5z"/>
</g>
<text transform="matrix(1 0 0 1 28.46 191.09)" class="st4 st5 st6">1</text>
<text transform="matrix(1 0 0 1 33.51 191.09)" class="st4 st5 st6">6</text>
<text transform="matrix(1 0 0 1 79.92 191.09)" class="st4 st5 st6">1</text>
<text transform="matrix(1 0 0 1 84.65 191.09)" class="st4 st5 st6">7</text>
<text transform="matrix(1 0 0 1 130.83 191.09)" class="st4 st5 st6">1</text>
<text transform="matrix(1 0 0 1 135.86 191.09)" class="st4 st5 st6">8</text>
<text transform="matrix(1 0 0 1 182.43 191.09)" class="st4 st5 st6">1</text>
<text transform="matrix(1 0 0 1 187.36 191.09)" class="st4 st5 st6">9</text>
<text transform="matrix(1 0 0 1 233.78 191.09)" class="st4 st5 st6">2</text>
<text transform="matrix(1 0 0 1 239.26 191.09)" class="st4 st5 st6">0</text>
<line class="st7" x1="49.7" y1="2.1" x2="252.3" y2="143.4"/>
<polyline class="st7" points="250.2,133.8 252.3,143.4 242.6,144.8 "/>
</svg>
