<svg id="Capa_1" data-name="Capa 1" xmlns="http://www.w3.org/2000/svg" xmlns:xlink="http://www.w3.org/1999/xlink" viewBox="0 0 39.2 39.2"><defs><style>.cls-1{fill:none;}.cls-2{clip-path:url(#clip-path);}.cls-3{fill:#6aaae4;}.cls-4{fill:#fff;}</style><clipPath id="clip-path"><rect class="cls-1" width="39.2" height="39.2"/></clipPath></defs><g class="cls-2"><path class="cls-3" d="M19.6,0A19.6,19.6,0,1,1,0,19.6,19.6,19.6,0,0,1,19.6,0"/><path class="cls-4" d="M11.07,29.28V15.76a2,2,0,0,1,1.67-2l1.79-.3c0,.11,0,.22,0,.34v.77a5.93,5.93,0,0,0,.66,2.71l.8,1.55a.44.44,0,0,0,.34.25h.08A.47.47,0,0,0,16.7,19l2.69-2.26,3,2.26a.48.48,0,0,0,.3.11h.09a.51.51,0,0,0,.34-.25l.79-1.55a6,6,0,0,0,.66-2.72v-.77c0-.11,0-.22,0-.32l1.48.26a2,2,0,0,1,1.66,2V29.28a1.11,1.11,0,0,1-1.1,1.1H12.16a1.1,1.1,0,0,1-1.09-1.1m6-14.2-.39-.3a.21.21,0,0,1-.08-.17,4.56,4.56,0,0,1,.33-1.71.46.46,0,0,1,.27-.26,6.74,6.74,0,0,1,4.46-.06l.19.06a.47.47,0,0,1,.29.28h0a4.65,4.65,0,0,1,.32,1.69.21.21,0,0,1-.08.17l-.39.3a4,4,0,0,1-4.93,0m-1-3.56a10.25,10.25,0,0,1,6.72-.08l.28.09a.53.53,0,0,1,.32.3l.26.67h0a3.53,3.53,0,0,1,.26,1.32v.77A5.41,5.41,0,0,1,23.3,17l-.68,1.31-2.38-1.79a4.52,4.52,0,0,0,2.16-.93l.39-.3a.85.85,0,0,0,.32-.67,5,5,0,0,0-.37-1.92l-.29.12.29-.13a1.12,1.12,0,0,0-.67-.64l-.2-.06A7.39,7.39,0,0,0,17,12a1.12,1.12,0,0,0-.65.63A5.15,5.15,0,0,0,16,14.61a.86.86,0,0,0,.32.67l.39.3a4.57,4.57,0,0,0,1.94.89l-2.17,1.82L15.79,17a5.28,5.28,0,0,1-.58-2.4v-.77a3.48,3.48,0,0,1,.25-1.32l.27-.68a.54.54,0,0,1,.31-.3M28.38,29.28V15.74a2.71,2.71,0,0,0-2.23-2.67l-1.67-.29L24,11.58a1.21,1.21,0,0,0-.74-.71L23,10.78a10.91,10.91,0,0,0-7.18.09,1.24,1.24,0,0,0-.71.69l-.27.68h0l-.21.52-2,.33a2.7,2.7,0,0,0-2.25,2.67V29.28a1.79,1.79,0,0,0,1.79,1.79H26.59a1.79,1.79,0,0,0,1.79-1.79"/></g></svg>