<svg id="Capa_1" data-name="Capa 1" xmlns="http://www.w3.org/2000/svg" viewBox="0 0 39.2 39.2"><defs><style>.cls-1{fill:#0071ce;}.cls-2{fill:#fff;}</style></defs><path class="cls-1" d="M20,39.6A19.6,19.6,0,1,0,.4,20,19.59,19.59,0,0,0,20,39.6" transform="translate(-0.4 -0.4)"/><path class="cls-2" d="M7.82,16.69a.59.59,0,0,1-.63-.62V13.55a3.11,3.11,0,0,1,3.14-3.14h2.52a.63.63,0,0,1,0,1.26H10.33a1.93,1.93,0,0,0-1.88,1.88v2.52a.6.6,0,0,1-.63.62m23.88,0a.59.59,0,0,1-.62-.62V13.55a1.93,1.93,0,0,0-1.89-1.88H26.68a.63.63,0,1,1,0-1.26h2.51a3.11,3.11,0,0,1,3.14,3.14v2.52a.59.59,0,0,1-.63.62M11.59,26.75a.59.59,0,0,1-.63-.63V14.81a.63.63,0,0,1,1.26,0V26.12a.59.59,0,0,1-.63.63m3.77,0a.59.59,0,0,1-.63-.63V14.81a.63.63,0,0,1,1.26,0V26.12a.59.59,0,0,1-.63.63m2.51,0a.59.59,0,0,1-.62-.63V14.81a.63.63,0,1,1,1.25,0V26.12a.59.59,0,0,1-.63.63m2.52,0a.59.59,0,0,1-.63-.63V14.81a.63.63,0,1,1,1.26,0V26.12a.59.59,0,0,1-.63.63m5,0a.59.59,0,0,1-.63-.63V14.81a.63.63,0,1,1,1.26,0V26.12a.59.59,0,0,1-.63.63m2.51,0a.6.6,0,0,1-.63-.63V14.81a.63.63,0,1,1,1.26,0V26.12a.59.59,0,0,1-.63.63M12.85,30.52H10.33a3.11,3.11,0,0,1-3.14-3.14V24.87a.63.63,0,0,1,1.26,0v2.51a1.93,1.93,0,0,0,1.88,1.89h2.52a.63.63,0,0,1,0,1.25m16.34,0H26.68a.63.63,0,1,1,0-1.25h2.51a1.94,1.94,0,0,0,1.89-1.89V24.87a.63.63,0,1,1,1.25,0v2.51a3.11,3.11,0,0,1-3.14,3.14" transform="translate(-0.4 -0.4)"/></svg>