<svg id="Capa_1" data-name="Capa 1" xmlns="http://www.w3.org/2000/svg" xmlns:xlink="http://www.w3.org/1999/xlink" viewBox="0 0 39.2 39.2"><defs><style>.cls-1,.cls-4,.cls-5{fill:none;}.cls-2{clip-path:url(#clip-path);}.cls-3{fill:#fff;}.cls-4,.cls-5{stroke:#0071ce;stroke-miterlimit:10;stroke-width:0.7px;}.cls-4{stroke-linecap:round;}</style><clipPath id="clip-path"><rect class="cls-1" width="39.2" height="39.2"/></clipPath></defs><g class="cls-2"><path class="cls-3" d="M19.6,39.2A19.6,19.6,0,1,0,0,19.6,19.6,19.6,0,0,0,19.6,39.2"/></g><path class="cls-4" d="M8.39,14.3H30.81M8.39,12.52H30.81"/><g class="cls-2"><path class="cls-5" d="M22.93,25.85a1.27,1.27,0,1,0-1.27,1.35A1.31,1.31,0,0,0,22.93,25.85ZM18.71,22.7V21.34a3.06,3.06,0,0,1,2.95-3.15,3.07,3.07,0,0,1,3,3.15V22.7m-1.69,0V21.34a1.27,1.27,0,1,0-2.53,0V22.7"/><path class="cls-4" d="M14.73,25.43H9.85A1.46,1.46,0,0,1,8.39,24V10.36A1.46,1.46,0,0,1,9.85,8.91h19.5a1.46,1.46,0,0,1,1.46,1.45V24a1.46,1.46,0,0,1-1.46,1.46h-1m-3.5-2.91h.22a1.31,1.31,0,0,1,1.33,1.29v5.62a.88.88,0,0,1-.88.86h-8a.87.87,0,0,1-.88-.86V23.81A1.31,1.31,0,0,1,18,22.52h6.86Z"/></g></svg>