<svg id="Capa_1" data-name="Capa 1" xmlns="http://www.w3.org/2000/svg" viewBox="0 0 39.2 39.2"><defs><style>.cls-1{fill:#fff;}.cls-2{fill:#6aaae4;}</style></defs><path class="cls-1" d="M19.6,39.2A19.6,19.6,0,1,0,0,19.6,19.6,19.6,0,0,0,19.6,39.2" transform="translate(0 0)"/><path class="cls-2" d="M9,32.65H31.93V17.43H9Zm23.32.82H8.61a.41.41,0,0,1-.41-.41V17a.41.41,0,0,1,.41-.41H32.34a.41.41,0,0,1,.41.41v16a.41.41,0,0,1-.41.41" transform="translate(0 0)"/><path class="cls-2" d="M32.34,17.43H8.61A.41.41,0,0,1,8.2,17V10.16a.41.41,0,0,1,.41-.41H26.14a.41.41,0,0,1,.41.41.41.41,0,0,1-.41.41H9v6.05H31.93V10.57H28.06a.41.41,0,0,1-.41-.41.41.41,0,0,1,.41-.41h4.28a.41.41,0,0,1,.41.41V17a.41.41,0,0,1-.41.41" transform="translate(0 0)"/><path class="cls-2" d="M26.14,12.49a1.31,1.31,0,1,0,1.31,1.31,1.31,1.31,0,0,0-1.31-1.31m0,3.44a2.13,2.13,0,1,1,2.13-2.13,2.13,2.13,0,0,1-2.13,2.13" transform="translate(0 0)"/><path class="cls-2" d="M14.81,12.49a1.31,1.31,0,1,0,1.31,1.31,1.31,1.31,0,0,0-1.31-1.31m0,3.44a2.13,2.13,0,1,1,2.13-2.13,2.13,2.13,0,0,1-2.13,2.13" transform="translate(0 0)"/><path class="cls-2" d="M26.14,14a.41.41,0,0,1-.41-.41V8.41a.41.41,0,1,1,.82,0v5.18a.41.41,0,0,1-.41.41" transform="translate(0 0)"/><path class="cls-2" d="M14.81,14a.41.41,0,0,1-.41-.41V8.41A.41.41,0,0,1,14.81,8a.41.41,0,0,1,.41.41v5.18a.41.41,0,0,1-.41.41" transform="translate(0 0)"/><path class="cls-2" d="M13.33,31.37a.41.41,0,0,1-.41-.41V19.12a.41.41,0,0,1,.82,0V31a.41.41,0,0,1-.41.41" transform="translate(0 0)"/><path class="cls-2" d="M18.24,31.37a.41.41,0,0,1-.41-.41V19.12a.41.41,0,0,1,.82,0V31a.41.41,0,0,1-.41.41" transform="translate(0 0)"/><path class="cls-2" d="M23.15,27.11a.41.41,0,0,1-.41-.41V19.12a.4.4,0,0,1,.41-.4.41.41,0,0,1,.41.4V26.7a.41.41,0,0,1-.41.41" transform="translate(0 0)"/><path class="cls-2" d="M28.06,23.32a.41.41,0,0,1-.41-.41V19.12a.41.41,0,0,1,.41-.41.42.42,0,0,1,.41.41v3.79a.41.41,0,0,1-.41.41" transform="translate(0 0)"/><path class="cls-2" d="M30.28,21.85H10.67a.41.41,0,0,1,0-.82H30.28a.41.41,0,0,1,0,.82" transform="translate(0 0)"/><path class="cls-2" d="M26.14,25.47H10.67a.41.41,0,0,1,0-.82H26.14a.41.41,0,0,1,0,.82" transform="translate(0 0)"/><path class="cls-2" d="M21,29.09H10.67a.41.41,0,1,1,0-.82H21a.41.41,0,0,1,0,.82" transform="translate(0 0)"/></svg>