<svg id="Capa_1" data-name="Capa 1" xmlns="http://www.w3.org/2000/svg" viewBox="0 0 39.2 39.2"><defs><style>.cls-1{fill:#ee7402;}.cls-2{fill:#fff;}</style></defs><path class="cls-1" d="M19.6,39.2A19.6,19.6,0,1,0,0,19.6,19.6,19.6,0,0,0,19.6,39.2" transform="translate(0 0)"/><path class="cls-2" d="M13.88,15.39a3.28,3.28,0,1,0,3.28,3.28,3.28,3.28,0,0,0-3.28-3.28m0,7.21a3.93,3.93,0,1,1,3.92-3.93,3.93,3.93,0,0,1-3.92,3.93" transform="translate(0 0)"/><path class="cls-2" d="M24.33,30.61a4.91,4.91,0,0,1-4-7.7.32.32,0,1,1,.53.37A4.22,4.22,0,1,0,22.2,22a.32.32,0,0,1-.44-.11.32.32,0,0,1,.12-.44,4.91,4.91,0,1,1,2.45,9.17" transform="translate(0 0)"/><path class="cls-2" d="M23.28,14.71a3.06,3.06,0,0,1-2.53-1.35.32.32,0,0,1,.08-.45.33.33,0,0,1,.45.09A2.42,2.42,0,1,0,21,10.89a.32.32,0,0,1-.41.2.31.31,0,0,1-.2-.4,3.06,3.06,0,1,1,2.9,4" transform="translate(0 0)"/><path class="cls-2" d="M16.41,16.43a.36.36,0,0,1-.28-.15.33.33,0,0,1,.1-.45l4.61-2.92a.32.32,0,0,1,.34.54l-4.6,2.93a.41.41,0,0,1-.17.05" transform="translate(0 0)"/><path class="cls-2" d="M20.54,23.42a.42.42,0,0,1-.15,0l-3.56-2a.33.33,0,0,1,.32-.57l3.55,2a.32.32,0,0,1,.12.44.3.3,0,0,1-.28.17" transform="translate(0 0)"/></svg>