<svg id="Capa_1" data-name="Capa 1" xmlns="http://www.w3.org/2000/svg" viewBox="0 0 39.2 39.2"><defs><style>.cls-1{fill:#0071ce;}.cls-2{fill:#fff;}</style></defs><path class="cls-1" d="M20,39.6A19.6,19.6,0,1,0,.4,20,19.6,19.6,0,0,0,20,39.6" transform="translate(-0.4 -0.4)"/><path class="cls-2" d="M31.77,28.65H7.88a.63.63,0,0,0,0,1.26H31.77a.63.63,0,1,0,0-1.26" transform="translate(-0.4 -0.4)"/><path class="cls-2" d="M7.26,26.77a.59.59,0,0,0,.63.63H31.77a.63.63,0,0,0,0-1.26H7.89a.76.76,0,0,0-.16,0l-.31.16a.64.64,0,0,0-.16.44" transform="translate(-0.4 -0.4)"/><path class="cls-2" d="M31.14,21.74a1.93,1.93,0,0,1-1.88,1.89h-.63V23a1.93,1.93,0,0,1,1.88-1.89h.63Zm-1.63-7.09a3.05,3.05,0,0,0,1,.18h.63v5h-.63A3.12,3.12,0,0,0,27.37,23v.63H12.54L10.2,24.86l.2,0H29.26a3.11,3.11,0,0,0,3.14-3.14V13.13Z" transform="translate(-0.4 -0.4)"/><path class="cls-2" d="M11,11.68a1.94,1.94,0,0,1-1.89,1.89H8.51v-.63a1.94,1.94,0,0,1,1.89-1.89H11ZM30.29,10a3.23,3.23,0,0,0-1-.18H10.4a3.11,3.11,0,0,0-3.14,3.14v8.8c0,.13,0,.26,0,.39l1.22-.64v-.38h.7l1.54-.82a3.35,3.35,0,0,0-1.61-.45H8.51v-5h.63a3.12,3.12,0,0,0,3.14-3.15v-.63H27.37v.47Z" transform="translate(-0.4 -0.4)"/><path class="cls-2" d="M19.83,21.11a3.85,3.85,0,0,1-1.74-.42l-1.25.66a5,5,0,0,0,3,1,5,5,0,0,0,5-5,1.52,1.52,0,0,0,0-.21l-1.28.67a3.67,3.67,0,0,1-3.72,3.31" transform="translate(-0.4 -0.4)"/><path class="cls-2" d="M16.06,17.34a3.7,3.7,0,0,1,3.77-3.77,3.78,3.78,0,0,1,2.26.74l1.17-.62a5,5,0,0,0-3.43-1.38,5,5,0,0,0-5,5,4.91,4.91,0,0,0,.08.78l1.19-.63s0-.1,0-.15" transform="translate(-0.4 -0.4)"/><path class="cls-2" d="M7.42,26.33l.31-.16a.52.52,0,0,0-.31.16" transform="translate(-0.4 -0.4)"/><path class="cls-2" d="M5.81,25.91a.59.59,0,0,1-.42-.78c0-.12.22-.32.26-.44L32.19,10.23a.62.62,0,1,1,.6,1.09L6.25,25.78c0,.12-.32.17-.44.13" transform="translate(-0.4 -0.4)"/></svg>