<svg id="Capa_1" data-name="Capa 1" xmlns="http://www.w3.org/2000/svg" viewBox="0 0 39.2 39.2"><defs><style>.cls-1{fill:#0071ce;}.cls-2{fill:#fff;}</style></defs><path class="cls-1" d="M20,39.6A19.6,19.6,0,1,0,.4,20,19.6,19.6,0,0,0,20,39.6" transform="translate(-0.4 -0.4)"/><path class="cls-2" d="M12.27,18.6a.59.59,0,0,0-.63.63V28a.59.59,0,0,0,.63.62h2.51a.59.59,0,0,0,.63-.62v-8.8a.59.59,0,0,0-.63-.63Zm7.92-7.55a.93.93,0,0,0-1,1v.25a8.43,8.43,0,0,1-.88,3.9l-1.63,3.14v7.42a1.93,1.93,0,0,0,1.89,1.88h7.79a1.91,1.91,0,0,0,1.89-1.76L29,19.35a1.76,1.76,0,0,0-1.63-2h-5a.57.57,0,0,1-.63-.5l-.5-4.78a1,1,0,0,0-1-1m6.16,18.86H18.56A2.75,2.75,0,0,1,16.42,29a2.17,2.17,0,0,1-1.64.88H12.27A1.93,1.93,0,0,1,10.38,28v-8.8a1.94,1.94,0,0,1,1.89-1.89h2.51a1.64,1.64,0,0,1,1.26.5l1.13-2.26a7.27,7.27,0,0,0,.76-3.27v-.25a2.33,2.33,0,0,1,4.65-.13L23,16.08h4.15a3.12,3.12,0,0,1,3.14,3.15v.25L29.49,27a3.15,3.15,0,0,1-3.14,2.89" transform="translate(-0.4 -0.4)"/></svg>