<svg id="Capa_1" data-name="Capa 1" xmlns="http://www.w3.org/2000/svg" viewBox="0 0 39.2 39.2"><defs><style>.cls-1{fill:#0071ce;}.cls-2,.cls-3{fill:none;stroke:#fff;stroke-width:0.82px;}.cls-2{stroke-miterlimit:10;}.cls-3{stroke-linecap:round;stroke-linejoin:round;}</style></defs><path class="cls-1" d="M20,39.6A19.6,19.6,0,1,0,.4,20,19.59,19.59,0,0,0,20,39.6" transform="translate(-0.4 -0.4)"/><path class="cls-2" d="M21.31,27.66c-1,1.53-3.52.26-3.52.26L9.28,22.15l-.59,1.7-4.4-.07L5.81,12.26l4.4.63,5.29-.24" transform="translate(-0.4 -0.4)"/><path class="cls-3" d="M21.32,27.66c-1,1.53-3.51.26-3.51.26L9.29,22.16l-.59,1.7-4.4-.07L5.83,12.27l4.39.64,5.29-.25" transform="translate(-0.4 -0.4)"/><path class="cls-2" d="M21.31,27.66c-1,1.53-3.52.26-3.52.26L9.28,22.15l-.59,1.7-4.4-.07L5.81,12.26l4.4.63,5.29-.24" transform="translate(-0.4 -0.4)"/><path class="cls-3" d="M21.32,27.66c-1,1.53-3.51.26-3.51.26L9.29,22.16l-.59,1.7-4.4-.07L5.83,12.27l4.39.64,5.29-.25" transform="translate(-0.4 -0.4)"/><path class="cls-2" d="M9.23,22.14S11.1,15,10.33,13" transform="translate(-0.4 -0.4)"/><path class="cls-3" d="M9.23,22.24s1.87-7.34,1.1-9.34" transform="translate(-0.4 -0.4)"/><path class="cls-2" d="M18.07,24.89l2,1.65s2.77,2.37,4.19.32" transform="translate(-0.4 -0.4)"/><path class="cls-3" d="M18,24.88l2,1.65s2.79,2.39,4.24.33" transform="translate(-0.4 -0.4)"/><path class="cls-2" d="M20,23l2,1.63s3,3.09,4.94.3" transform="translate(-0.4 -0.4)"/><path class="cls-3" d="M19.94,23l2,1.64s3,3.11,5,.3" transform="translate(-0.4 -0.4)"/><path class="cls-2" d="M22.38,21.35a10.7,10.7,0,0,0,4.8,3.07,1.3,1.3,0,0,0,1.49-1.56,4.38,4.38,0,0,0-1.86-2.17c-2.12-1.5-7.36-4.78-7.36-4.78l-1.8.35c-4,5.71-5.75-.63-2.25-3.59s13.49,1.05,13.49,1.05" transform="translate(-0.4 -0.4)"/><path class="cls-3" d="M22.38,21.35a10.65,10.65,0,0,0,4.8,3.07,1.3,1.3,0,0,0,1.49-1.56,4.35,4.35,0,0,0-1.87-2.17c-2.11-1.5-7.35-4.78-7.35-4.78l-1.8.35c-4,5.71-5.75-.63-2.25-3.59s13.49,1.05,13.49,1.05" transform="translate(-0.4 -0.4)"/><path class="cls-2" d="M30.16,21.55a18.49,18.49,0,0,1-2,2.51" transform="translate(-0.4 -0.4)"/><path class="cls-3" d="M30.18,21.5a19.46,19.46,0,0,1-2.06,2.58" transform="translate(-0.4 -0.4)"/><path class="cls-2" d="M30.6,22.73s-1.62-7.32-1-9.31l4.5-.64,1.56,11.59-4.51.07Z" transform="translate(-0.4 -0.4)"/><path class="cls-3" d="M30.6,22.73s-1.62-7.3-1-9.3l4.49-.63L35.7,24.37l-4.5.07Z" transform="translate(-0.4 -0.4)"/></svg>