<svg id="Capa_1" data-name="Capa 1" xmlns="http://www.w3.org/2000/svg" viewBox="0 0 39.2 39.2"><defs><style>.cls-1{fill:#0071ce;}.cls-2{fill:none;stroke:#fff;stroke-linecap:round;stroke-miterlimit:10;stroke-width:0.8px;}</style></defs><path class="cls-1" d="M20,39.6A19.6,19.6,0,1,0,.4,20,19.6,19.6,0,0,0,20,39.6" transform="translate(-0.4 -0.4)"/><path class="cls-2" d="M21.41,16.93a8.09,8.09,0,0,1,2.17-.34,3.52,3.52,0,0,1,3.63,2.6,7.12,7.12,0,0,1,.36,3.09m-9.13-8.92a5.79,5.79,0,0,1,.84-4.72l1.14.5a5,5,0,0,0-.87,2.73m.81.38a6,6,0,0,1,7.56-3.88,5,5,0,0,1-2,3.75,7.17,7.17,0,0,1-4.13,1.24M20.5,31.45l.45.17A5.28,5.28,0,0,0,26.7,30a13.62,13.62,0,0,0,3.07-7.56,9.35,9.35,0,0,0-.48-4.1c-1.74-4.81-6.24-4.11-8.34-3.49a3.75,3.75,0,0,1-2.2,0c-2.1-.62-6.6-1.32-8.34,3.49a9.44,9.44,0,0,0-.48,4.12A13.72,13.72,0,0,0,13,30a5.27,5.27,0,0,0,5.74,1.59l.41-.16A1.73,1.73,0,0,1,20.5,31.45Z" transform="translate(-0.4 -0.4)"/></svg>