<svg id="Capa_1" data-name="Capa 1" xmlns="http://www.w3.org/2000/svg" viewBox="0 0 39.2 39.2"><defs><style>.cls-1{fill:#ffb71b;}.cls-2{fill:#fff;}</style></defs><path class="cls-1" d="M19.6,39.2A19.6,19.6,0,1,0,0,19.6,19.61,19.61,0,0,0,19.6,39.2" transform="translate(0 0)"/><path class="cls-2" d="M28.39,29.29H27a.68.68,0,0,1,0-1.35h1.35a.68.68,0,1,1,0,1.35M12.84,13.06v8.12h9.47V16.44a2.08,2.08,0,0,1,2-2h2V13.06Zm-.68-2.71a2.09,2.09,0,0,0-2,2v11.5H22.31V22.53H12.16a.64.64,0,0,1-.68-.68V12.38a.64.64,0,0,1,.68-.67H27a.64.64,0,0,1,.68.67v2h1.35v-2a2.09,2.09,0,0,0-2-2ZM7.56,25.23a2,2,0,0,0,1.89,1.36H22.31V25.23Zm16.78-9.47a.64.64,0,0,0-.68.68V30a.64.64,0,0,0,.68.68H31.1a.64.64,0,0,0,.68-.68V16.44a.64.64,0,0,0-.68-.68ZM31.1,32H24.34a2.08,2.08,0,0,1-2-2v-2H9.45a3.35,3.35,0,0,1-3.38-3.38.64.64,0,0,1,.68-.68h2V12.38A3.35,3.35,0,0,1,12.16,9H27a3.34,3.34,0,0,1,3.38,3.38v2h.68a2.09,2.09,0,0,1,2,2V30a2.09,2.09,0,0,1-2,2" transform="translate(0 0)"/></svg>