<svg id="Capa_1" data-name="Capa 1" xmlns="http://www.w3.org/2000/svg" viewBox="0 0 39.2 39.2"><defs><style>.cls-1{fill:#0071ce;}.cls-2{fill:none;stroke:#fff;stroke-linecap:round;stroke-linejoin:round;stroke-width:0.9px;}</style></defs><path class="cls-1" d="M20,39.6A19.6,19.6,0,1,0,.4,20,19.6,19.6,0,0,0,20,39.6" transform="translate(-0.4 -0.4)"/><path class="cls-2" d="M19.33,14.42a4,4,0,0,1-2.61-1.32c-1.31-1.31-1.31-3.51-2.18-4.82,2.18-.44,5.66-.44,7,1.31m0,4.39s-1.74-3.07.87-4.83,6.09-.87,7-2.19c0,2.19-1.74,7.9-6.09,7.46M26.3,9.59c-5.23,3.07-5.23,5.27-5.23,7.9m-7.4,4,1.1-1.66a2.16,2.16,0,0,1,1.81-1H18l.66-.68a2.19,2.19,0,0,1,1.54-.64h2.55a2.17,2.17,0,0,1,1.54.64l1.54,1.55M7.14,26.26l1.74-1.75L15,30.65l-1.74,1.76m9.14-9.22h1.77l2.1-.76,1.29-1.17a2.16,2.16,0,0,1,2.91.07.84.84,0,0,1,0,1.21l-2.77,2.73-4.61,2.86a3.46,3.46,0,0,1-2.46.55L16.28,28l-1.84,1.75m1.85-5.26,5-.38a.88.88,0,0,0,.81-.88,1.81,1.81,0,0,0-1.81-1.81H14.46a3.49,3.49,0,0,0-2.46,1L9.76,24.73" transform="translate(-0.4 -0.4)"/></svg>