<svg id="Capa_1" data-name="Capa 1" xmlns="http://www.w3.org/2000/svg" xmlns:xlink="http://www.w3.org/1999/xlink" viewBox="0 0 39.2 39.2"><defs><style>.cls-1,.cls-4{fill:none;}.cls-2{clip-path:url(#clip-path);}.cls-3{fill:#fff;}.cls-4{stroke:#a6bdd1;stroke-miterlimit:10;stroke-width:0.8px;}</style><clipPath id="clip-path"><rect class="cls-1" width="39.2" height="39.2"/></clipPath></defs><g class="cls-2"><path class="cls-3" d="M19.6,39.2A19.6,19.6,0,1,0,0,19.6,19.6,19.6,0,0,0,19.6,39.2"/><path class="cls-4" d="M19.08,25.16v5.56m-6.82-5.56v5.56m10-18.55H9.08V10.32H22.27Zm5.91,8.35v10.2m-2.27-6.49v6.49m-2.28,0V21a8.92,8.92,0,0,1-1.82.93A3.8,3.8,0,0,1,20,21c-.33-.26-.72-.6-1.08-.95a.67.67,0,0,1,.69-1.11l1.76.67c.68-.72,1.39-1.85,3.18-1.85h3.19c1.63,0,2.27.7,2.27,2.78v3.25c0,1-.39,1.85-1.36,1.85m-2.73-9.27a1.89,1.89,0,0,1-1.82-2V13.7a1.83,1.83,0,1,1,3.64,0v.66A1.89,1.89,0,0,1,25.91,16.35Zm-4.55,1.39V12.17H10v13H21.36V23.3"/></g></svg>