<svg id="Capa_1" data-name="Capa 1" xmlns="http://www.w3.org/2000/svg" viewBox="0 0 39.2 39.2"><defs><style>.cls-1{fill:#0071ce;}.cls-2{fill:#fff;}</style></defs><path class="cls-1" d="M19.6,39.2A19.6,19.6,0,1,0,0,19.6,19.6,19.6,0,0,0,19.6,39.2" transform="translate(0 0)"/><path class="cls-2" d="M11,14.33a2,2,0,0,0-2,2C9,17.45,10,19,11,19s1.95-1.51,1.95-2.68a2,2,0,0,0-1.95-2m0,5.43c-1.59,0-2.75-2.08-2.75-3.48a2.75,2.75,0,1,1,5.5,0c0,1.4-1.16,3.48-2.75,3.48" transform="translate(0 0)"/><path class="cls-2" d="M9.38,26.89h-1a.4.4,0,0,1-.4-.37l-.35-4.68a.42.42,0,0,1,.16-.35A5.53,5.53,0,0,1,11,20.71a6.21,6.21,0,0,1,2.92.62l3.74-2.68a.4.4,0,0,1,.56.09.41.41,0,0,1-.09.56l-4,2.84a.41.41,0,0,1-.48,0A4.84,4.84,0,0,0,11,21.5,5.34,5.34,0,0,0,8.47,22l.3,4.06h.61a.4.4,0,0,1,0,.8" transform="translate(0 0)"/><path class="cls-2" d="M12,32.34H10a.4.4,0,0,1-.4-.36L9,26.54a.4.4,0,0,1,.35-.44.39.39,0,0,1,.44.35l.56,5.09h1.31l.55-5.09a.39.39,0,0,1,.44-.35.4.4,0,0,1,.36.44L12.39,32a.4.4,0,0,1-.39.36" transform="translate(0 0)"/><path class="cls-2" d="M24.31,11.19a4.36,4.36,0,1,0,4.36,4.36,4.36,4.36,0,0,0-4.36-4.36m0,9.52a5.16,5.16,0,1,1,5.16-5.16,5.16,5.16,0,0,1-5.16,5.16" transform="translate(0 0)"/><path class="cls-2" d="M24.31,24.24a8.62,8.62,0,0,1-6.2-2.6.4.4,0,0,1,0-.56.39.39,0,0,1,.56,0,7.89,7.89,0,1,0-2.26-5.53,7.77,7.77,0,0,0,.21,1.8.4.4,0,0,1-.3.48.39.39,0,0,1-.48-.3,8.69,8.69,0,1,1,8.46,6.71" transform="translate(0 0)"/><path class="cls-2" d="M24.31,14.33a1.22,1.22,0,1,0,1.22,1.22,1.22,1.22,0,0,0-1.22-1.22m0,3.24a2,2,0,1,1,2-2,2,2,0,0,1-2,2" transform="translate(0 0)"/></svg>