<svg id="Capa_1" data-name="Capa 1" xmlns="http://www.w3.org/2000/svg" viewBox="0 0 39.2 39.2"><defs><style>.cls-1{fill:#0071ce;}.cls-2{fill:#fff;}</style></defs><path class="cls-1" d="M20,39.6A19.6,19.6,0,1,0,.4,20,19.6,19.6,0,0,0,20,39.6" transform="translate(-0.4 -0.4)"/><path class="cls-2" d="M13.27,21.75v8.6a1.26,1.26,0,0,0,1.24,1.25h7.12a3.24,3.24,0,0,0,1.64-.2c.6-.36.57-1,.57-1.62V21.62c0-.42,0-.84,0-1.26a5.28,5.28,0,0,0-10.56.17Zm7.51-10.22H18.86a.75.75,0,0,1-.62,0H16.32v3.33a6.24,6.24,0,0,1,3.8-.23,4.62,4.62,0,0,1,.66.21ZM13,17.92a5.9,5.9,0,0,1,2.51-2.69.34.34,0,0,1,0-.18V11.12a.41.41,0,0,1,.41-.41h1.94V8.58H15.53a.7.7,0,0,1,0-1.4l8.54.07a3.56,3.56,0,0,1,3.49,3.51.71.71,0,0,1-1.41,0,2.12,2.12,0,0,0-2.08-2.1H22.62l-3.36,0v2.11h1.93a.41.41,0,0,1,.42.41V15a.46.46,0,0,1-.05.21,6.23,6.23,0,0,1,3.1,5.34v9.8a2.1,2.1,0,0,1-1,1.76,3.27,3.27,0,0,1-1.88.31H14.47a2.11,2.11,0,0,1-2-2.16V20.72a6.58,6.58,0,0,1,.59-2.8" transform="translate(-0.4 -0.4)"/><path class="cls-2" d="M19.51,25.89v1.19h1V25.89a.42.42,0,0,1,.41-.41h1.19v-1H20.9a.42.42,0,0,1-.41-.41V22.9h-1v1.19a.42.42,0,0,1-.41.41H17.91v1H19.1a.42.42,0,0,1,.41.41m-2-2.21h1.19V22.49a.41.41,0,0,1,.41-.41h1.8a.41.41,0,0,1,.41.41v1.19H22.5a.41.41,0,0,1,.41.41v1.8a.41.41,0,0,1-.41.42H21.31v1.18a.41.41,0,0,1-.41.41H19.1a.41.41,0,0,1-.41-.41V26.31H17.5a.41.41,0,0,1-.41-.42v-1.8a.41.41,0,0,1,.41-.41" transform="translate(-0.4 -0.4)"/><path class="cls-2" d="M24.31,20.46a.37.37,0,0,1-.32.16H16a.41.41,0,0,1,0-.82h8a.42.42,0,0,1,.32.66" transform="translate(-0.4 -0.4)"/><path class="cls-2" d="M24,30.2a.38.38,0,0,1,.19.05A.42.42,0,0,1,24,31H16a.42.42,0,0,1-.25-.75A.37.37,0,0,1,16,30.2Z" transform="translate(-0.4 -0.4)"/></svg>