<svg id="Capa_1" data-name="Capa 1" xmlns="http://www.w3.org/2000/svg" viewBox="0 0 39.2 39.2"><defs><style>.cls-1{fill:#0071ce;}.cls-2{fill:#fff;}</style></defs><path class="cls-1" d="M20,39.6A19.6,19.6,0,1,0,.4,20,19.6,19.6,0,0,0,20,39.6" transform="translate(-0.4 -0.4)"/><path class="cls-2" d="M25.08,16.7h-8.8a.63.63,0,1,1,0-1.26h8.8a.63.63,0,1,1,0,1.26m0,3.77h-8.8a.63.63,0,0,1,0-1.26h8.8a.63.63,0,0,1,0,1.26m-2.51,3.77H16.28a.63.63,0,0,1,0-1.26h6.29a.63.63,0,0,1,0,1.26m6.28,2.26a4.27,4.27,0,0,1-1.25.25,1.94,1.94,0,0,0-1.89,1.89,4.34,4.34,0,0,1-.25,1.26,7.4,7.4,0,0,0,3.39-3.4M13.77,10.41a1.94,1.94,0,0,0-1.89,1.89V28.64a1.93,1.93,0,0,0,1.89,1.88h8.8a1.93,1.93,0,0,0,1.88-1.88A3.12,3.12,0,0,1,27.6,25.5a1.93,1.93,0,0,0,1.88-1.89V12.3a1.93,1.93,0,0,0-1.88-1.89Zm8.8,21.37h-8.8a3.11,3.11,0,0,1-3.14-3.14V12.3a3.12,3.12,0,0,1,3.14-3.15H27.6a3.12,3.12,0,0,1,3.14,3.15V23.61a8.15,8.15,0,0,1-8.17,8.17" transform="translate(-0.4 -0.4)"/></svg>