<svg id="Capa_1" data-name="Capa 1" xmlns="http://www.w3.org/2000/svg" xmlns:xlink="http://www.w3.org/1999/xlink" viewBox="0 0 39.2 39.2"><defs><style>.cls-1{fill:none;}.cls-2{clip-path:url(#clip-path);}.cls-3{fill:#0071ce;}.cls-4{fill:#fff;}</style><clipPath id="clip-path" transform="translate(-0.4 -0.4)"><rect class="cls-1" x="0.4" y="0.4" width="39.2" height="39.2"/></clipPath></defs><g class="cls-2"><path class="cls-3" d="M20,39.6A19.6,19.6,0,1,0,.4,20,19.6,19.6,0,0,0,20,39.6" transform="translate(-0.4 -0.4)"/><path class="cls-4" d="M18.86,16.15c.12,0,.38.12.5.12l5,5c.13.13.13.25.13.5v2.27l.63.62,5.4-5.4-.63-.63H27.66c-.13,0-.38-.13-.5-.13l-5-5c0-.13-.13-.38-.13-.51V10.74l-.63-.63L16,15.52l.63.63Zm-2.52,6.53h0l-5.4,5.41,1.63,1.63L18,24.32Zm-3.77,8.55c-.12,0-.37-.12-.5-.12L9.56,28.59a.59.59,0,0,1,0-.88l6.28-6.28a1,1,0,0,1,.5-.26c.13,0,.38.13.51.13l.75.75,2.89-2.89L18.61,17.4H16.34c-.12,0-.37-.12-.5-.12L14.58,16c0-.13-.12-.38-.12-.5s.12-.38.12-.51l6.29-6.28a.61.61,0,0,1,.88,0L23,10a1,1,0,0,1,.25.5v2.26l4.65,4.65h2.26c.13,0,.38.13.51.13l1.25,1.26a.59.59,0,0,1,0,.88L25.65,26c-.13.13-.25.13-.5.13s-.38-.13-.51-.13l-1.25-1.26c-.13-.12-.13-.25-.13-.5V21.93L21.37,20l-2.89,2.89.76.76c.12.12.12.25.12.5s-.12.38-.12.5L13,31c0,.13-.25.25-.38.25" transform="translate(-0.4 -0.4)"/></g></svg>