<svg id="Capa_1" data-name="Capa 1" xmlns="http://www.w3.org/2000/svg" viewBox="0 0 39.2 39.2"><defs><style>.cls-1{fill:#0071ce;}.cls-2,.cls-3{fill:none;stroke:#fff;stroke-miterlimit:10;stroke-width:0.7px;}.cls-2{stroke-linecap:round;}</style></defs><path class="cls-1" d="M20,39.6A19.6,19.6,0,1,0,.4,20,19.6,19.6,0,0,0,20,39.6" transform="translate(-0.4 -0.4)"/><path class="cls-2" d="M8.71,15.92H31.58M8.71,14.09H31.58" transform="translate(-0.4 -0.4)"/><path class="cls-3" d="M23.55,27.69a1.3,1.3,0,1,0-1.3,1.38A1.34,1.34,0,0,0,23.55,27.69Zm-4.32-3.21V23.1a3,3,0,1,1,6,0v1.38m-1.72,0V23.1a1.3,1.3,0,1,0-2.59,0v1.38" transform="translate(-0.4 -0.4)"/><path class="cls-2" d="M15.18,27.27h-5a1.49,1.49,0,0,1-1.49-1.49V11.9a1.49,1.49,0,0,1,1.49-1.49H30.09a1.49,1.49,0,0,1,1.49,1.49V25.78a1.49,1.49,0,0,1-1.49,1.49h-1m-3.57-3h.22a1.35,1.35,0,0,1,1.36,1.33v5.73a.9.9,0,0,1-.9.88H18.07a.89.89,0,0,1-.9-.88V25.62a1.34,1.34,0,0,1,1.35-1.33h7Z" transform="translate(-0.4 -0.4)"/></svg>