<svg id="Capa_1" data-name="Capa 1" xmlns="http://www.w3.org/2000/svg" viewBox="0 0 39.2 39.2"><defs><style>.cls-1{fill:#0071ce;}.cls-2{fill:#fff;}</style></defs><path class="cls-1" d="M20,39.6A19.6,19.6,0,1,0,.4,20,19.6,19.6,0,0,0,20,39.6" transform="translate(-0.4 -0.4)"/><path class="cls-2" d="M17,11.67h1.26V10.41H17Zm11.32,0h1.26V10.41H28.31ZM9.45,19.21h1.26V18H9.45Zm8.8-6.29v7.55h.63a.59.59,0,0,1,.63.63v.62h7.54V21.1a.59.59,0,0,1,.63-.63h.63V12.92h-.63a.59.59,0,0,1-.63-.62v-.63H19.51v.63a.59.59,0,0,1-.63.62ZM17,23h1.26V21.72H17Zm11.32,0h1.26V21.72H28.31Zm-17.6-2.51V28h.63a.6.6,0,0,1,.63.63v.63h7.54v-.63a.59.59,0,0,1,.63-.63h.63V23H19.51v.63a.59.59,0,0,1-.63.63H16.37a.59.59,0,0,1-.63-.63V21.1a.59.59,0,0,1,.63-.63H17V19.21H12v.63a.6.6,0,0,1-.63.63ZM9.45,30.52h1.26V29.27H9.45Zm11.32,0H22V29.27H20.77Zm1.88,1.26H20.14a.59.59,0,0,1-.63-.63v-.63H12v.63a.6.6,0,0,1-.63.63H8.82a.6.6,0,0,1-.63-.63V28.64A.6.6,0,0,1,8.82,28h.63V20.47H8.82a.6.6,0,0,1-.63-.63V17.32a.6.6,0,0,1,.63-.62h2.52a.6.6,0,0,1,.63.62V18h5v-5h-.62a.59.59,0,0,1-.63-.62V9.78a.59.59,0,0,1,.63-.63h2.51a.59.59,0,0,1,.63.63v.63h7.54V9.78a.59.59,0,0,1,.63-.63h2.51a.59.59,0,0,1,.63.63V12.3a.59.59,0,0,1-.63.62h-.62v7.55h.62a.59.59,0,0,1,.63.63v2.51a.59.59,0,0,1-.63.63H27.68a.59.59,0,0,1-.63-.63V23H22v5h.63a.59.59,0,0,1,.63.63v2.51a.59.59,0,0,1-.63.63" transform="translate(-0.4 -0.4)"/></svg>