<svg id="Capa_1" data-name="Capa 1" xmlns="http://www.w3.org/2000/svg" viewBox="0 0 39.2 39.2"><defs><style>.cls-1{fill:#0071ce;}.cls-2{fill:none;stroke:#fff;stroke-linecap:round;stroke-linejoin:round;stroke-width:0.9px;}</style></defs><path class="cls-1" d="M20,39.6A19.6,19.6,0,1,0,.4,20,19.6,19.6,0,0,0,20,39.6" transform="translate(-0.4 -0.4)"/><path class="cls-2" d="M7.75,22.19H25.87m2.55-5.64v2.53h2.63v-1l-1-1.52ZM25.87,15h5.18l2.56,4.12v5.14H25.87ZM7.75,11.42H25.87v12.8H7.75Z" transform="translate(-0.4 -0.4)"/><path class="cls-2" d="M12.86,22.41a1.94,1.94,0,1,1-1.93,1.93A1.93,1.93,0,0,1,12.86,22.41Z" transform="translate(-0.4 -0.4)"/><path class="cls-2" d="M28,22.41A1.94,1.94,0,1,1,26,24.34,1.93,1.93,0,0,1,28,22.41Z" transform="translate(-0.4 -0.4)"/></svg>