<svg id="Capa_1" data-name="Capa 1" xmlns="http://www.w3.org/2000/svg" viewBox="0 0 39.2 39.2"><defs><style>.cls-1{fill:#76bc21;}.cls-2{fill:#fff;}</style></defs><path class="cls-1" d="M19.6,39.2A19.6,19.6,0,1,0,0,19.6,19.6,19.6,0,0,0,19.6,39.2"/><path class="cls-2" d="M29.55,11.4a2,2,0,0,0-2,2c0,1.17.95,2.69,2,2.69s2-1.52,2-2.69a2,2,0,0,0-2-2m0,5.46c-1.6,0-2.76-2.09-2.76-3.5a2.76,2.76,0,0,1,5.52,0c0,1.41-1.16,3.5-2.76,3.5"/><path class="cls-2" d="M32.14,24h-1a.4.4,0,1,1,0-.8h.6l.31-4.08a5.41,5.41,0,0,0-2.53-.53,4.79,4.79,0,0,0-2.7.63.41.41,0,0,1-.48,0l-4-2.86a.4.4,0,0,1,.47-.65l3.76,2.7a6.23,6.23,0,0,1,2.93-.63,5.52,5.52,0,0,1,3.19.79.4.4,0,0,1,.16.35l-.36,4.7a.4.4,0,0,1-.4.37"/><path class="cls-2" d="M30.57,29.58h-2a.4.4,0,0,1-.4-.36l-.59-5.47a.4.4,0,0,1,.8-.09l.55,5.12h1.32l.56-5.12a.4.4,0,1,1,.79.09L31,29.22a.39.39,0,0,1-.4.36"/><path class="cls-2" d="M18.43,29.58a.41.41,0,0,1-.35-.2l-2.75-4.77-2.75,4.77a.4.4,0,1,1-.7-.4L15,23.61a.41.41,0,0,1,.35-.2.39.39,0,0,1,.35.2L18.78,29a.4.4,0,0,1-.15.55.46.46,0,0,1-.2,0"/><path class="cls-2" d="M24,24H6.7a.4.4,0,0,1-.4-.4V9a.4.4,0,0,1,.4-.4H24a.4.4,0,0,1,.4.4v5.3a.4.4,0,1,1-.8,0V9.4H7.1V23.22H23.56V19.81a.4.4,0,0,1,.8,0v3.81a.4.4,0,0,1-.4.4"/><path class="cls-2" d="M15.33,30.6a.4.4,0,0,1-.4-.4V23.81a.4.4,0,1,1,.8,0V30.2a.4.4,0,0,1-.4.4"/><path class="cls-2" d="M23.53,11.4H6.7a.4.4,0,1,1,0-.8H23.53a.4.4,0,1,1,0,.8"/><path class="cls-2" d="M8.77,19.05a.4.4,0,0,1-.2-.75l2.15-1.24a.39.39,0,0,1,.35,0l2.16.85,2.08-3.83a.4.4,0,0,1,.34-.21A.41.41,0,0,1,16,14L18,17l3.42-4.25a.41.41,0,1,1,.63.51L18.22,18a.41.41,0,0,1-.33.15.42.42,0,0,1-.32-.19L15.69,15l-1.92,3.56a.4.4,0,0,1-.5.18L11,17.86,9,19a.39.39,0,0,1-.2.05"/></svg>