<svg id="Capa_1" data-name="Capa 1" xmlns="http://www.w3.org/2000/svg" xmlns:xlink="http://www.w3.org/1999/xlink" viewBox="0 0 39.2 39.2"><defs><style>.cls-1{fill:none;}.cls-2{clip-path:url(#clip-path);}.cls-3{fill:#6aaae4;}.cls-4{fill:#fff;}</style><clipPath id="clip-path"><rect class="cls-1" width="39.2" height="39.2"/></clipPath></defs><g class="cls-2"><path class="cls-3" d="M19.6,0A19.6,19.6,0,1,1,0,19.6,19.6,19.6,0,0,1,19.6,0"/><path class="cls-4" d="M30.87,24c-1.06,1-3.61.9-3.65.9h-19c-1-1.72-.12-2.71.19-3l20.42,1.26h0a.39.39,0,0,0,.39-.39.4.4,0,0,0-.1-.26,1.37,1.37,0,0,1-.16-1,.78.78,0,0,1,.28-.36c.49.17,2,.82,2,1.87a1.33,1.33,0,0,1-.43,1M9.61,17.37a2.28,2.28,0,0,0,.45,0,3.71,3.71,0,0,0,2.54-1.13,2.91,2.91,0,0,0,2.24,1.54c1.42,0,2.42-1.66,2.86-2.57a12,12,0,0,0,1.22,1l-1,1.71a.37.37,0,0,0,.15.52.34.34,0,0,0,.19.05.42.42,0,0,0,.35-.19l.94-1.65c.3.19.6.38.92.55l-.94,1.63a.39.39,0,0,0,.15.53.46.46,0,0,0,.2,0,.39.39,0,0,0,.34-.2l.94-1.64c.34.18.68.34,1,.5l-.82,1.43a.38.38,0,0,0,.15.53.32.32,0,0,0,.19.05.39.39,0,0,0,.34-.19l.86-1.5L24,18.9l-.79,1.36a.38.38,0,0,0,.15.53.34.34,0,0,0,.19.05.38.38,0,0,0,.34-.2l.84-1.45.9.34c1.05.41,2.06.8,2.89,1.19a1.4,1.4,0,0,0-.26.45,1.8,1.8,0,0,0,0,1.15L8.77,21.11Zm1.23-2.81c.16,0,.59.11,1.31,1.07a3,3,0,0,1-2.37,1l.09-.37c.08-.53.44-1.68,1-1.68m18.57,5.73a30.84,30.84,0,0,0-3.48-1.48c-2.85-1.09-6.08-2.33-8.06-4.51a.39.39,0,0,0-.37-.12.37.37,0,0,0-.29.24C16.93,15.15,16,17,14.84,17c-.54,0-1.11-.45-1.69-1.34-.84-1.29-1.6-1.92-2.31-1.92-1.34,0-1.71,2.1-1.75,2.31L7.93,21.26c-.43.38-1.74,1.82-.26,4.18a.37.37,0,0,0,.33.19H27.45c.74,0,2.87-.09,4-1.12A2.07,2.07,0,0,0,32.08,23c0-1.75-2.36-2.56-2.67-2.66"/></g></svg>