<svg id="Capa_1" data-name="Capa 1" xmlns="http://www.w3.org/2000/svg" viewBox="0 0 39.2 39.2"><defs><style>.cls-1{fill:#0071ce;}.cls-2{fill:#fff;}</style></defs><path class="cls-1" d="M20,39.6A19.6,19.6,0,1,0,.4,20,19.6,19.6,0,0,0,20,39.6" transform="translate(-0.4 -0.4)"/><path class="cls-2" d="M10.67,28A3.12,3.12,0,0,1,7.52,24.9v-1a3,3,0,0,1,1.76-2.76L13.56,19a6.25,6.25,0,0,1-.76-8.93,6.36,6.36,0,0,1,8.93-.63,5.18,5.18,0,0,1,1,1.26c.25.25.12.63-.13.88-.13,0-.13.13-.25.13a.66.66,0,0,1-.5-.25,5.15,5.15,0,0,0-7-1.39,5,5,0,0,0-1.39,7,4.37,4.37,0,0,0,1.51,1.51.77.77,0,0,1,.25.88c-.12,0-.12.13-.25.13L9.79,22.26a1.8,1.8,0,0,0-1,1.63v1a1.93,1.93,0,0,0,1.89,1.88.63.63,0,1,1,0,1.26M22.61,14.21a5,5,0,1,0,5,5,5,5,0,0,0-5-5M20.1,25l-5.16,2.39a1.63,1.63,0,0,0-1.13,1.64v.88a1.93,1.93,0,0,0,1.89,1.88H29.52a1.93,1.93,0,0,0,1.89-1.88v-.88a1.89,1.89,0,0,0-1.13-1.76L25.12,25a5.56,5.56,0,0,1-2.51.51A5.56,5.56,0,0,1,20.1,25m9.42,8.05H15.7a3.65,3.65,0,0,1-2.27-.88,3.63,3.63,0,0,1-.88-2.26v-.88a3.2,3.2,0,0,1,1.89-2.9l4.4-2A6.27,6.27,0,1,1,27.64,23a9.27,9.27,0,0,1-1.13,1.13l4.4,2a3.19,3.19,0,0,1,1.88,2.9v.88a3.57,3.57,0,0,1-.88,2.26,4.3,4.3,0,0,1-2.39.88" transform="translate(-0.4 -0.4)"/></svg>