<svg id="Capa_1" data-name="Capa 1" xmlns="http://www.w3.org/2000/svg" viewBox="0 0 39.2 39.2"><defs><style>.cls-1{fill:#fff;}.cls-2{fill:#6aaae4;}</style></defs><path class="cls-1" d="M19.6,39.2A19.6,19.6,0,1,0,0,19.6,19.6,19.6,0,0,0,19.6,39.2"/><path class="cls-2" d="M16.46,10.66H12.77l2.49,7a.39.39,0,0,1-.24.51.35.35,0,0,1-.14,0,.42.42,0,0,1-.38-.27l-2.2-6.15-2,6.14a.4.4,0,0,1-.51.25.39.39,0,0,1-.25-.5l2.31-7h-.39a.42.42,0,0,1,0-.84h5Z"/><path class="cls-2" d="M29.23,18.12a.3.3,0,0,1-.13,0,.4.4,0,0,1-.38-.26l-2.2-6.15-2.05,6.14a.4.4,0,1,1-.76-.26L26,10.66H23.51V9.82h4.27a.42.42,0,0,1,0,.84H27l2.49,7a.4.4,0,0,1-.25.51"/><path class="cls-2" d="M13,23H12c-1.49,0-2.71-1.61-2.71-3.59v0a.4.4,0,0,1,.41-.4h5.63a.4.4,0,0,1,.4.4v0c0,2-1.21,3.59-2.71,3.59m-2.9-3.22c.12,1.36.92,2.42,1.88,2.42h1c1,0,1.77-1.06,1.89-2.42Z"/><path class="cls-2" d="M27.22,23h-1c-1.5,0-2.71-1.61-2.71-3.59v0a.4.4,0,0,1,.4-.4h5.63a.4.4,0,0,1,.41.4v0c0,2-1.22,3.59-2.71,3.59m-2.91-3.22c.12,1.36.92,2.42,1.89,2.42h1c1,0,1.76-1.06,1.88-2.42Z"/><path class="cls-2" d="M22.66,17l0,1.34V28.81a.4.4,0,0,1-.8,0V19.15H17.79a.07.07,0,0,0-.07.07v2.11h3.51v.83H17.72v6.65a.41.41,0,0,1-.81,0V19.22a.88.88,0,0,1,.88-.87h4.09l0-1.35a.9.9,0,0,1,.09-.4,13.85,13.85,0,0,0,.75-2.72c0-.07,0-1.65,0-2a.41.41,0,0,1,.81,0c0,.35,0,1.94,0,2A14.24,14.24,0,0,1,22.67,17s0,0,0,0"/><path class="cls-2" d="M22.77,8.8a1.16,1.16,0,0,0-.9-.11l0-.07a1.06,1.06,0,0,0-.7-.49,1.44,1.44,0,0,0-.8,0,1.18,1.18,0,0,0-.65-.32,1.21,1.21,0,0,0-1.16.35.39.39,0,0,0-.08.14h0a1.42,1.42,0,0,0-.42,0c-.66,0-1.08.58-1.08,1.38V11a3,3,0,0,0,.07.71H16.1a1.2,1.2,0,0,0-1.2,1.15c-.05.29.17.53.44.82a6.13,6.13,0,0,1,.69.88s1.43,2.36,1.94,2.54l0,.49a.41.41,0,0,0,.4.39h0a.41.41,0,0,0,.39-.43l0-.52a.76.76,0,0,0-.53-.69,13.9,13.9,0,0,1-1.52-2.19,5.73,5.73,0,0,0-.79-1c-.08-.09-.17-.19-.22-.26a.39.39,0,0,1,.39-.37h2.43a.41.41,0,0,1,.32.65.42.42,0,0,1-.32.16.41.41,0,0,0-.24.08.25.25,0,0,0-.12,0h-.81a.37.37,0,1,0,0,.74h.81a.43.43,0,0,0,.19,0,.33.33,0,0,0,.17,0,1,1,0,0,0,.39-.07,1.92,1.92,0,0,1,1.11.84.4.4,0,0,0,.37.25.44.44,0,0,0,.15,0,.4.4,0,0,0,.22-.53,2.48,2.48,0,0,0-1.15-1.14,1.24,1.24,0,0,0,.11-.52,1.17,1.17,0,0,0-.12-.52,2.39,2.39,0,0,0,.54-.14h0a1.24,1.24,0,0,0,.76.25,1.21,1.21,0,0,0,.53-.12.82.82,0,0,0,.48-.73l.25,0a.9.9,0,0,0,1-.82V9.54a.85.85,0,0,0-.39-.74m-4.39,2.69c0,.07-.55.06-.56,0s-.07-1.86-.07-1.86c0-.21.05-.56.35-.57a.27.27,0,0,1,.22.08s.07,2.27.06,2.3m1.37,0a.56.56,0,0,1-.48,0,.28.28,0,0,1-.1-.18,3.92,3.92,0,0,0,0-.63l0-1.33A.94.94,0,0,0,19,8.81a.31.31,0,0,0,.11-.09.34.34,0,0,1,.25-.08.62.62,0,0,1,.33.07s0,2.79,0,2.79m1.35.11a.5.5,0,0,1-.45,0s-.06-.05-.08-.17h0l0-2.43h0A.65.65,0,0,1,21,8.91a.27.27,0,0,1,.18.11s0,2.57,0,2.59m1.25-.83a.28.28,0,0,1-.19.05.3.3,0,0,1-.18-.05.34.34,0,0,0-.05-.17v-1L22,9.51c.06-.08.24-.06.31,0l0,0v1.28Z"/><rect class="cls-2" x="13.24" y="30.53" width="12.62" height="0.83"/></svg>