<svg id="Capa_1" data-name="Capa 1" xmlns="http://www.w3.org/2000/svg" xmlns:xlink="http://www.w3.org/1999/xlink" viewBox="0 0 39.2 39.2"><defs><style>.cls-1,.cls-4{fill:none;}.cls-2{clip-path:url(#clip-path);}.cls-3{fill:#6aaae4;}.cls-4{stroke:#fff;stroke-linecap:round;stroke-linejoin:round;stroke-width:0.4px;}</style><clipPath id="clip-path"><rect class="cls-1" width="39.2" height="39.2"/></clipPath></defs><g class="cls-2"><path class="cls-3" d="M19.6,0A19.6,19.6,0,1,1,0,19.6,19.6,19.6,0,0,1,19.6,0"/></g><polygon class="cls-4" points="28.41 26.92 19.15 31.62 9.9 26.92 9.9 14.17 19.15 9.34 28.41 14.17 28.41 26.92"/><polygon class="cls-4" points="28.41 26.91 19.1 31.62 19.1 18.98 28.41 14.14 28.41 26.91"/><polygon class="cls-4" points="9.9 26.91 19.21 31.62 19.21 18.98 9.9 14.14 9.9 26.91"/><polygon class="cls-4" points="13.06 20.39 16.11 21.8 16.11 17.34 13.06 15.8 13.06 20.39"/><polygon class="cls-4" points="13.06 24.38 16.11 25.81 16.11 23.77 13.06 22.2 13.06 24.38"/><polygon class="cls-4" points="22.24 11 25.2 12.41 16.02 17.44 13.06 15.9 22.24 11"/></svg>