<svg id="Capa_1" data-name="Capa 1" xmlns="http://www.w3.org/2000/svg" viewBox="0 0 39.2 39.2"><defs><style>.cls-1{fill:#0071ce;}.cls-2,.cls-3{fill:none;stroke:#fff;stroke-width:0.5px;}.cls-2{stroke-linejoin:bevel;}.cls-3{stroke-miterlimit:10;}</style></defs><path class="cls-1" d="M20,39.6A19.6,19.6,0,1,0,.4,20,19.6,19.6,0,0,0,20,39.6" transform="translate(-0.4 -0.4)"/><path class="cls-2" d="M20.19,33.56l9.88-4.92V17.58l-9.88,4.91Zm0,0-9.88-4.92V17.58l9.88,4.91Zm-9.88-16,9.88-4.84-4.94-2.49L5.37,15.16Zm9.88,4.91,9.88-4.91-9.88-4.84-9.88,4.84Z" transform="translate(-0.4 -0.4)"/><polygon class="cls-1" points="25.2 24.29 34.24 19.74 29.75 17.43 20.65 21.99 25.2 24.29"/><polygon class="cls-3" points="25.2 24.29 34.24 19.74 29.75 17.43 20.65 21.99 25.2 24.29"/><polygon class="cls-1" points="14.65 24.29 5.55 19.74 10.1 17.43 19.2 21.99 14.65 24.29"/><polygon class="cls-3" points="14.65 24.29 5.55 19.74 10.1 17.43 19.2 21.99 14.65 24.29"/><polygon class="cls-2" points="29.95 16.77 20.05 12.21 25 9.86 34.83 14.49 29.95 16.77"/><polygon class="cls-1" points="19.93 11.88 27.11 8.64 19.93 5.39 12.74 8.64 19.93 11.88"/><polygon class="cls-2" points="19.93 11.88 27.11 8.64 19.93 5.39 12.74 8.64 19.93 11.88"/><polygon class="cls-1" points="19.6 19.91 12.95 16.54 12.95 8.92 19.6 12.29 19.6 19.91"/><polygon class="cls-2" points="19.6 19.91 12.95 16.54 12.95 8.92 19.6 12.29 19.6 19.91"/><polygon class="cls-1" points="20.25 19.91 26.9 16.54 26.9 8.92 20.25 12.29 20.25 19.91"/><polygon class="cls-2" points="20.25 19.91 26.9 16.54 26.9 8.92 20.25 12.29 20.25 19.91"/></svg>