<svg id="Capa_1" data-name="Capa 1" xmlns="http://www.w3.org/2000/svg" viewBox="0 0 39.2 39.2"><defs><style>.cls-1{fill:#0071ce;}.cls-2{fill:none;stroke:#fff;stroke-linecap:round;stroke-linejoin:round;stroke-width:0.7px;}</style></defs><path class="cls-1" d="M20,39.6A19.6,19.6,0,1,0,.4,20,19.6,19.6,0,0,0,20,39.6" transform="translate(-0.4 -0.4)"/><path class="cls-2" d="M13.81,25.38c-.82-2-2.67-3.44-3.17-5.49-.14-.58-.42-2,.39-2.25s1.62.95,2,1.42a20.37,20.37,0,0,0,2.13,2.68c.85.77,1.94,1.25,2.75,2.07,2.32,2.33.69,5.23.67,8m-5.36.08c-.3-3.17-2.81-4.78-4.14-7.47C7.92,22,8,19.14,8,16.61a23.91,23.91,0,0,1,.27-3.79c.09-.51.2-1.7.8-2,1.85-.81,1.38,5,1.4,5.55m13.05-4.75A1.38,1.38,0,0,1,24.89,13M20.1,21c-.27-.16-6.7-3.94-6.7-8A3.59,3.59,0,0,1,17.06,9.5a3.71,3.71,0,0,1,3.21,1.83A3.7,3.7,0,0,1,23.48,9.5,3.59,3.59,0,0,1,27.14,13c0,4-6.43,7.79-6.7,8l-.17.1Zm6.63,4.42c.82-2,2.67-3.44,3.17-5.49.14-.58.42-2-.39-2.25s-1.63.95-2,1.42a21.23,21.23,0,0,1-2.13,2.68c-.85.77-1.94,1.25-2.76,2.07-2.31,2.33-.68,5.23-.67,8m5.37.08c.3-3.17,2.81-4.78,4.14-7.47,1.16-2.34,1.13-5.24,1.11-7.77a23.9,23.9,0,0,0-.26-3.79c-.09-.51-.2-1.7-.8-2-1.85-.81-1.38,5-1.4,5.55" transform="translate(-0.4 -0.4)"/></svg>