<?xml version="1.0" encoding="utf-8"?>
<!-- Generator: Adobe Illustrator 25.1.0, SVG Export Plug-In . SVG Version: 6.00 Build 0)  -->
<svg version="1.1" id="Layer_1" xmlns="http://www.w3.org/2000/svg" xmlns:xlink="http://www.w3.org/1999/xlink" x="0px" y="0px"
	 viewBox="0 0 827.8 827.8" style="enable-background:new 0 0 827.8 827.8;" xml:space="preserve">
<style type="text/css">
	.st0{clip-path:url(#SVGID_2_);}
	.st1{clip-path:url(#SVGID_4_);}
	.st2{opacity:0.25;}
	.st3{clip-path:url(#SVGID_6_);}
	.st4{fill:#E7ECED;}
	.st5{fill:#FFFFFF;}
	.st6{fill:#6AAAE4;}
	.st7{font-family:'MyriadPro-Bold';}
	.st8{font-size:8.5px;}
	.st9{font-size:8.4936px;}
	.st10{font-size:8.5191px;}
	.st11{font-size:8.5424px;}
	.st12{font-size:8.5272px;}
	.st13{font-size:8.5068px;}
	.st14{font-size:8.5017px;}
	.st15{font-size:8.4987px;}
	.st16{font-size:8.4693px;}
	.st17{font-size:8.5242px;}
	.st18{font-size:8.5208px;}
	.st19{font-size:8.511px;}
	.st20{fill:#2670CA;}
	.st21{font-size:10px;}
	.st22{font-size:9.9745px;}
	.st23{font-size:9.9985px;}
	.st24{font-size:10.0449px;}
	.st25{font-size:9.9905px;}
	.st26{font-size:10.0265px;}
	.st27{font-size:9.986px;}
	.st28{font-size:10.0225px;}
	.st29{font-size:9.9925px;}
	.st30{font-size:10.0404px;}
	.st31{font-size:10.0125px;}
	.st32{font-size:9.9725px;}
	.st33{font-size:10.0285px;}
	.st34{font-size:10.0499px;}
	.st35{font-size:10.021px;}
	.st36{font-size:9.981px;}
	.st37{font-size:9.9539px;}
	.st38{font-size:10.0305px;}
	.st39{font-size:8.5153px;}
	.st40{font-size:16.5px;}
	.st41{font-size:16.4934px;}
	.st42{font-size:16.5724px;}
	.st43{font-size:16.5527px;}
	.st44{font-size:16.5074px;}
	.st45{font-size:16.4546px;}
	.st46{font-size:9.969px;}
	.st47{font-size:9.9489px;}
	.st48{font-size:10.0568px;}
	.st49{font-size:9.9865px;}
	.st50{font-size:10.017px;}
	.st51{font-size:9.9765px;}
	.st52{font-size:9.9624px;}
	.st53{font-size:9.9464px;}
	.st54{font-size:10.008px;}
	.st55{font-size:10.0005px;}
	.st56{font-size:9.996px;}
	.st57{font-size:10.0419px;}
	.st58{font-size:13.32px;}
	.st59{font-size:13.3785px;}
	.st60{font-size:13.2887px;}
	.st61{font-size:13.2947px;}
	.st62{font-size:13.3579px;}
	.st63{font-size:13.3426px;}
	.st64{font-size:13.2967px;}
	.st65{font-size:13.318px;}
	.st66{font-size:13.3479px;}
	.st67{font-size:13.3499px;}
	.st68{font-size:13.3798px;}
	.st69{font-size:13.3738px;}
	.st70{font-size:13.2786px;}
	.st71{font-size:13.332px;}
	.st72{font-size:13.5px;}
	.st73{font-size:13.5566px;}
	.st74{font-size:13.4601px;}
	.st75{font-size:13.4133px;}
	.st76{font-size:13.4743px;}
	.st77{font-size:13.5546px;}
	.st78{font-size:13.498px;}
	.st79{font-size:13.4493px;}
	.st80{font-size:13.4628px;}
	.st81{font-size:13.5431px;}
	.st82{font-size:13.4818px;}
	.st83{font-size:13.5357px;}
	.st84{font-size:13.4682px;}
	.st85{font-size:13.4872px;}
	.st86{font-size:13.4946px;}
	.st87{font-size:13.5169px;}
	.st88{font-size:13.4764px;}
	.st89{font-size:13.5767px;}
	.st90{font-size:13.5673px;}
	.st91{font-size:13.5606px;}
	.st92{font-size:13.4655px;}
	.st93{font-size:13.525px;}
	.st94{font-size:13.5573px;}
	.st95{font-size:13.4513px;}
	.st96{font-size:13.433px;}
	.st97{font-size:13.4581px;}
	.st98{fill:#723988;}
	.st99{fill:#003383;}
	.st100{fill:#F1B634;}
	.st101{fill:#A37E4E;}
	.st102{fill:#D3741C;}
	.st103{fill:#8DBA38;}
	.st104{font-size:14px;}
	.st105{font-size:14.0259px;}
	.st106{font-size:13.9108px;}
	.st107{font-size:13.9979px;}
	.st108{font-size:13.9474px;}
	.st109{font-size:14.0238px;}
	.st110{font-size:13.9249px;}
	.st111{font-size:14.0447px;}
	.st112{font-size:14.0629px;}
	.st113{font-size:13.9755px;}
	.st114{font-size:14.0615px;}
	.st115{font-size:13.979px;}
	.st116{font-size:13.9355px;}
	.st117{font-size:13.9614px;}
	.st118{font-size:14.0587px;}
	.st119{font-size:13.9671px;}
	.st120{font-size:14.0844px;}
	.st121{font-size:14.0294px;}
	.st122{font-size:13.9811px;}
	.st123{font-size:14.0315px;}
	.st124{font-size:13.9495px;}
	.st125{font-size:14.0182px;}
	.st126{font-size:14.0175px;}
	.st127{font-size:14.0112px;}
	.st128{font-size:14.0566px;}
	.st129{font-size:14.0371px;}
</style>
<g>
	<defs>
		<rect id="SVGID_1_" width="827.8" height="827.8"/>
	</defs>
	<clipPath id="SVGID_2_">
		<use xlink:href="#SVGID_1_"  style="overflow:visible;"/>
	</clipPath>
	<g class="st0">
		<g>
			<defs>
				<rect id="SVGID_3_" width="827.8" height="827.8"/>
			</defs>
			<clipPath id="SVGID_4_">
				<use xlink:href="#SVGID_3_"  style="overflow:visible;"/>
			</clipPath>
			<g class="st1">
				<g class="st2">
					<g>
						<defs>
							<rect id="SVGID_5_" x="-11.7" y="-9.1" width="851.2" height="838.2"/>
						</defs>
						<clipPath id="SVGID_6_">
							<use xlink:href="#SVGID_5_"  style="overflow:visible;"/>
						</clipPath>
						<g class="st3">
							<path class="st4" d="M413.9,827.8c228.6,0,413.9-185.3,413.9-413.9S642.5,0,413.9,0S0,185.3,0,413.9S185.3,827.8,413.9,827.8
								"/>
						</g>
					</g>
				</g>
			</g>
		</g>
	</g>
</g>
<path class="st5" d="M676.5,151.2c-145-145-380.2-145-525.3,0s-145,380.2,0,525.3s380.2,145,525.3,0S821.6,296.3,676.5,151.2z
	 M578.9,699.8c-50,29-106.7,44.3-164.5,44.4c-29,0-58-3.8-86-11.4c-84.7-22.5-156.8-77.8-200.4-153.8
	c-30.2-52.3-44.3-104.7-44.3-165.1c0-182.3,147.8-330.1,330.1-330.1c0,0,0,0,0,0c60.3,0,112.8,14,165.1,44.2
	c157.9,91.2,212,293.1,120.9,451c0,0,0,0,0,0C669.6,631.2,631.2,669.6,578.9,699.8L578.9,699.8z"/>
<path class="st6" d="M610.4,217.4c-108.5-108.5-284.5-108.5-393,0s-108.5,284.5,0,393s284.5,108.5,393,0
	c52.1-52.1,81.4-122.8,81.4-196.5C692,340.1,662.7,269.4,610.4,217.4z M552.5,552.6c-76.6,76.6-200.8,76.6-277.4,0
	c-76.6-76.6-76.6-200.8,0-277.4s200.8-76.6,277.4,0C589.3,312,610,361.9,610,413.9C610.1,465.9,589.4,515.9,552.5,552.6z"/>
<path class="st5" d="M413.9,246.3c-92.4,0-167.6,75.2-167.6,167.6s75.2,167.6,167.6,167.6s167.6-75.2,167.6-167.6
	S506.3,246.3,413.9,246.3z M413.9,543.9c-71.7,0-130-58.3-130-130c0.1-71.8,58.2-129.9,130-130c71.7,0,130,58.3,130,130
	C543.8,485.6,485.6,543.8,413.9,543.9z"/>
<g>
	<defs>
		<path id="SVGID_7_" d="M413.9,313.2c-55.6,0-100.7,45.1-100.7,100.7s45.1,100.7,100.7,100.7s100.7-45.1,100.7-100.7c0,0,0,0,0,0
			C514.5,358.3,469.4,313.3,413.9,313.2z"/>
	</defs>
	<clipPath id="SVGID_8_">
		<use xlink:href="#SVGID_7_"  style="overflow:visible;"/>
	</clipPath>
</g>
<text transform="matrix(0.9517 0.307 -0.307 0.9517 329.3799 668.2899)" class="st5 st7 st8">A</text>
<text transform="matrix(0.96 0.28 -0.28 0.96 336.28 670.4899)" class="st5 st7 st8">T</text>
<text transform="matrix(0.9643 0.2647 -0.2647 0.9643 340.7999 671.82)" class="st5 st7 st8">R</text>
<text transform="matrix(0.9707 0.2402 -0.2402 0.9707 345.8698 673.2104)" class="st5 st7 st9">A</text>
<text transform="matrix(0.9743 0.2255 -0.2255 0.9743 350.9799 674.5)" class="st5 st7 st8">V</text>
<text transform="matrix(0.9778 0.2095 -0.2095 0.9778 356.3398 675.7397)" class="st5 st7 st10">É</text>
<text transform="matrix(0.9819 0.1896 -0.1896 0.9819 360.86 676.69)" class="st5 st7 st8">S</text>
<text transform="matrix(0.9865 0.1638 -0.1638 0.9865 367.01 677.8701)" class="st5 st7 st8">D</text>
<text transform="matrix(0.9896 0.144 -0.144 0.9896 372.94 678.84)" class="st5 st7 st8">E</text>
<text transform="matrix(0.993 0.1184 -0.1184 0.993 379.11 679.73)" class="st5 st7 st8">N</text>
<text transform="matrix(0.995 9.950372e-02 -9.950372e-02 0.995 385.0305 680.4299)" class="st5 st7 st11">U</text>
<text transform="matrix(0.9968 7.974522e-02 -7.974522e-02 0.9968 390.8898 680.9899)" class="st5 st7 st12">E</text>
<text transform="matrix(0.9982 5.948060e-02 -5.948060e-02 0.9982 395.5001 681.35)" class="st5 st7 st8">S</text>
<text transform="matrix(0.9992 3.996804e-02 -3.996804e-02 0.9992 400.1194 681.6192)" class="st5 st7 st13">T</text>
<text transform="matrix(0.9998 1.999600e-02 -1.999600e-02 0.9998 404.8106 681.82)" class="st5 st7 st14">R</text>
<text transform="matrix(0.9999 1.623085e-02 -1.623085e-02 0.9999 410.1 681.91)" class="st5 st7 st8">A</text>
<text transform="matrix(0.9998 -1.999600e-02 1.999600e-02 0.9998 417.5005 681.9505)" class="st5 st7 st14">F</text>
<text transform="matrix(0.9992 -3.996804e-02 3.996804e-02 0.9992 421.9295 681.8588)" class="st5 st7 st13">O</text>
<text transform="matrix(0.9981 -6.191955e-02 6.191955e-02 0.9981 428.13 681.6)" class="st5 st7 st8">R</text>
<text transform="matrix(0.9964 -8.506913e-02 8.506913e-02 0.9964 433.27 681.29)" class="st5 st7 st8">M</text>
<text transform="matrix(0.994 -0.1092 0.1092 0.994 440.51 680.66)" class="st5 st7 st8">A</text>
<text transform="matrix(0.9901 -0.14 0.14 0.9901 447.7296 679.8497)" class="st5 st7 st15">D</text>
<text transform="matrix(0.9877 -0.1566 0.1566 0.9877 453.69 679.0201)" class="st5 st7 st8">E</text>
<text transform="matrix(0.9835 -0.1807 0.1807 0.9835 459.8299 678.0206)" class="st5 st7 st16">T</text>
<text transform="matrix(0.9798 -0.2 0.2 0.9798 464.4502 677.1795)" class="st5 st7 st14">R</text>
<text transform="matrix(0.9758 -0.2185 0.2185 0.9758 469.62 676.14)" class="st5 st7 st8">A</text>
<text transform="matrix(0.9707 -0.2402 0.2402 0.9707 475.0699 674.9102)" class="st5 st7 st9">B</text>
<text transform="matrix(0.9662 -0.2578 0.2578 0.9662 480.01 673.7)" class="st5 st7 st8">A</text>
<text transform="matrix(0.96 -0.28 0.28 0.96 485.68 672.1801)" class="st5 st7 st8">J</text>
<text transform="matrix(0.9573 -0.2892 0.2892 0.9573 488.9395 671.2488)" class="st5 st7 st17">A</text>
<text transform="matrix(0.9505 -0.3107 0.3107 0.9505 494.28 669.6201)" class="st5 st7 st8">R</text>
<text transform="matrix(0.9853 -0.1707 0.1707 0.9853 366.49 155.56)" class="st5 st7 st8">¿</text>
<text transform="matrix(0.9879 -0.1549 0.1549 0.9879 370.02 154.94)" class="st5 st7 st8">C</text>
<text transform="matrix(0.9909 -0.1345 0.1345 0.9909 374.91 154.17)" class="st5 st7 st8">Ó</text>
<text transform="matrix(0.994 -0.1094 0.1094 0.994 380.99 153.34)" class="st5 st7 st8">M</text>
<text transform="matrix(0.9964 -8.454742e-02 8.454742e-02 0.9964 388.16 152.55)" class="st5 st7 st8">O</text>
<text transform="matrix(0.9983 -5.878369e-02 5.878369e-02 0.9983 395.89 151.93)" class="st5 st7 st8">L</text>
<text transform="matrix(0.9992 -3.996804e-02 3.996804e-02 0.9992 400.1199 151.6692)" class="st5 st7 st13">O</text>
<text transform="matrix(0.9999 -1.623085e-02 1.623085e-02 0.9999 407.88 151.4)" class="st5 st7 st8">L</text>
<text transform="matrix(0.9998 1.999600e-02 -1.999600e-02 0.9998 412.1007 151.2904)" class="st5 st7 st14">O</text>
<text transform="matrix(0.9996 2.704930e-02 -2.704930e-02 0.9996 418.29 151.36)" class="st5 st7 st8">G</text>
<text transform="matrix(0.9989 4.762946e-02 -4.762946e-02 0.9989 424.1899 151.5201)" class="st5 st7 st8">R</text>
<text transform="matrix(0.9976 6.982913e-02 -6.982913e-02 0.9976 429.42 151.7701)" class="st5 st7 st18">A</text>
<text transform="matrix(0.9957 9.219680e-02 -9.219680e-02 0.9957 435.02 152.15)" class="st5 st7 st8">M</text>
<text transform="matrix(0.9931 0.1172 -0.1172 0.9931 442.22 152.8201)" class="st5 st7 st8">O</text>
<text transform="matrix(0.9906 0.1371 -0.1371 0.9906 448.25 153.5399)" class="st5 st7 st8">S</text>
<text transform="matrix(0.9887 0.1498 -0.1498 0.9887 452.6895 154.16)" class="st5 st7 st19">?</text>
<text transform="matrix(0.3491 0.9371 -0.9371 0.3491 265.1801 465.88)" class="st20 st7 st21">A</text>
<text transform="matrix(0.3901 0.9208 -0.9208 0.3901 267.58 472.31)" class="st20 st7 st21">H</text>
<text transform="matrix(0.4311 0.9023 -0.9023 0.4311 270.4393 479.0504)" class="st20 st7 st22">O</text>
<text transform="matrix(0.4729 0.8811 -0.8811 0.4729 273.7697 485.9201)" class="st20 st7 st21">R</text>
<text transform="matrix(0.5101 0.8601 -0.8601 0.5101 276.7809 491.5097)" class="st20 st7 st23">R</text>
<text transform="matrix(0.5451 0.8384 -0.8384 0.5451 280.08 497.0899)" class="st20 st7 st21">A</text>
<text transform="matrix(0.5796 0.8149 -0.8149 0.5796 283.8097 502.8201)" class="st20 st7 st21">R</text>
<text transform="matrix(0.61 0.7924 -0.7924 0.61 287.4902 507.9701)" class="st20 st7 st21">L</text>
<text transform="matrix(0.6372 0.7707 -0.7707 0.6372 290.7504 512.2)" class="st20 st7 st21">E</text>
<text transform="matrix(0.6785 0.7346 -0.7346 0.6785 295.7503 518.1699)" class="st20 st7 st21">D</text>
<text transform="matrix(0.7028 0.7114 -0.7114 0.7028 300.73 523.5)" class="st20 st7 st21">I</text>
<text transform="matrix(0.7267 0.6869 -0.6869 0.7267 302.9499 525.7899)" class="st20 st7 st24">N</text>
<text transform="matrix(0.7507 0.6606 -0.6606 0.7507 308.2608 530.7897)" class="st20 st7 st25">E</text>
<text transform="matrix(0.7779 0.6283 -0.6283 0.7779 312.6203 534.5894)" class="st20 st7 st26">R</text>
<text transform="matrix(0.8052 0.593 -0.593 0.8052 317.5002 538.5301)" class="st20 st7 st21">O</text>
<text transform="matrix(0.8412 0.5408 -0.5408 0.8412 325.2905 544.16)" class="st20 st7 st27">A</text>
<text transform="matrix(0.8689 0.495 -0.495 0.8689 332.8898 549.01)" class="st20 st7 st21">N</text>
<text transform="matrix(0.8907 0.4546 -0.4546 0.8907 339.2501 552.6299)" class="st20 st7 st21">U</text>
<text transform="matrix(0.908 0.4191 -0.4191 0.908 345.6697 555.8801)" class="st20 st7 st28">E</text>
<text transform="matrix(0.9207 0.3903 -0.3903 0.9207 350.8201 558.2408)" class="st20 st7 st29">S</text>
<text transform="matrix(0.9362 0.3514 -0.3514 0.9362 356.0799 560.4301)" class="st20 st7 st21">T</text>
<text transform="matrix(0.9488 0.3158 -0.3158 0.9488 361.4599 562.4501)" class="st20 st7 st21">R</text>
<text transform="matrix(0.9617 0.274 -0.274 0.9617 367.4299 564.4399)" class="st20 st7 st21">O</text>
<text transform="matrix(0.9723 0.2338 -0.2338 0.9723 374.5799 566.46)" class="st20 st7 st21">S</text>
<text transform="matrix(0.983 0.1836 -0.1836 0.983 382.1899 568.23)" class="st20 st7 st21">C</text>
<text transform="matrix(0.9891 0.1469 -0.1469 0.9891 388.34 569.36)" class="st20 st7 st21">L</text>
<text transform="matrix(0.9927 0.1207 -0.1207 0.9927 393.5599 570.1199)" class="st20 st7 st21">I</text>
<text transform="matrix(0.996 8.963770e-02 -8.963770e-02 0.996 396.6698 570.5092)" class="st20 st7 st30">E</text>
<text transform="matrix(0.9988 4.993762e-02 -4.993762e-02 0.9988 402.4296 571.0602)" class="st20 st7 st31">N</text>
<text transform="matrix(1 9.424639e-03 -9.424639e-03 1 409.66 571.41)" class="st20 st7 st21">T</text>
<text transform="matrix(0.9996 -2.704930e-02 2.704930e-02 0.9996 415.41 571.45)" class="st20 st7 st21">E</text>
<text transform="matrix(0.998 -6.348726e-02 6.348726e-02 0.998 421.09 571.29)" class="st20 st7 st21">S</text>
<text transform="matrix(0.9927 -0.1203 0.1203 0.9927 428.8901 570.7397)" class="st20 st7 st32">Y</text>
<text transform="matrix(0.9856 -0.1692 0.1692 0.9856 437.2797 569.71)" class="st20 st7 st24">A</text>
<text transform="matrix(0.9783 -0.2074 0.2074 0.9783 443.42 568.6501)" class="st20 st7 st21">Y</text>
<text transform="matrix(0.9685 -0.2492 0.2492 0.9685 449.69 567.3199)" class="st20 st7 st21">U</text>
<text transform="matrix(0.9573 -0.2892 0.2892 0.9573 456.6893 565.5093)" class="st20 st7 st33">D</text>
<text transform="matrix(0.9427 -0.3336 0.3336 0.9427 463.41 563.4401)" class="st20 st7 st21">A</text>
<text transform="matrix(0.9283 -0.3719 0.3719 0.9283 469.83 561.16)" class="st20 st7 st21">R</text>
<text transform="matrix(0.9138 -0.4063 0.4063 0.9138 475.7 558.7899)" class="st20 st7 st21">L</text>
<text transform="matrix(0.8993 -0.4374 0.4374 0.8993 480.57 556.6199)" class="st20 st7 st21">E</text>
<text transform="matrix(0.8827 -0.4699 0.4699 0.8827 485.6799 554.1301)" class="st20 st7 st21">S</text>
<text transform="matrix(0.8557 -0.5174 0.5174 0.8557 492.5403 550.42)" class="st20 st7 st34">A</text>
<text transform="matrix(0.8255 -0.5644 0.5644 0.8255 500.2299 545.7002)" class="st20 st7 st21">V</text>
<text transform="matrix(0.8083 -0.5888 0.5888 0.8083 505.7107 541.9205)" class="st20 st7 st35">I</text>
<text transform="matrix(0.7915 -0.6112 0.6112 0.7915 508.2291 540.0994)" class="st20 st7 st36">V</text>
<text transform="matrix(0.7691 -0.6392 0.6392 0.7691 513.46 535.9799)" class="st20 st7 st21">I</text>
<text transform="matrix(0.7494 -0.6621 0.6621 0.7494 515.9099 533.97)" class="st20 st7 st21">R</text>
<text transform="matrix(0.711 -0.7031 0.7031 0.711 522.1501 528.3798)" class="st20 st7 st21">U</text>
<text transform="matrix(0.6778 -0.7353 0.7353 0.6778 527.29 523.2902)" class="st20 st7 st21">N</text>
<text transform="matrix(0.644 -0.765 0.765 0.644 532.19 517.9597)" class="st20 st7 st21">A</text>
<text transform="matrix(0.6 -0.8 0.8 0.6 537.9199 511.0396)" class="st20 st7 st21">V</text>
<text transform="matrix(0.5747 -0.8184 0.8184 0.5747 541.9 505.6804)" class="st20 st7 st21">I</text>
<text transform="matrix(0.5473 -0.837 0.837 0.5473 543.75 503.1001)" class="st20 st7 st21">D</text>
<text transform="matrix(0.5101 -0.8601 0.8601 0.5101 547.62 497.1602)" class="st20 st7 st23">A</text>
<text transform="matrix(0.4551 -0.8905 0.8905 0.4551 552.2 489.3497)" class="st20 st7 st21">M</text>
<text transform="matrix(0.4134 -0.9105 0.9105 0.4134 556.22 481.3904)" class="st20 st7 st21">E</text>
<text transform="matrix(0.3818 -0.9243 0.9243 0.3818 558.6001 476.0899)" class="st20 st7 st37">J</text>
<text transform="matrix(0.3489 -0.9371 0.9371 0.3489 560.3294 471.971)" class="st20 st7 st38">O</text>
<text transform="matrix(0.3064 -0.9519 0.9519 0.3064 562.96 464.8399)" class="st20 st7 st21">R</text>
<text transform="matrix(0.9915 0.1298 -0.1298 0.9915 393.33 554.7899)" class="st20 st7 st8">¿</text>
<text transform="matrix(0.995 9.949342e-02 -9.949342e-02 0.995 397.0799 555.29)" class="st20 st7 st8">P</text>
<text transform="matrix(0.9982 5.989229e-02 -5.989229e-02 0.9982 402.0602 555.8003)" class="st20 st7 st39">O</text>
<text transform="matrix(0.9998 2.129141e-02 -2.129141e-02 0.9998 408.26 556.17)" class="st20 st7 st8">R</text>
<text transform="matrix(0.9996 -2.966624e-02 2.966624e-02 0.9996 415.15 556.28)" class="st20 st7 st8">Q</text>
<text transform="matrix(0.9976 -6.982913e-02 6.982913e-02 0.9976 421.3299 556.09)" class="st20 st7 st18">U</text>
<text transform="matrix(0.9941 -0.1082 0.1082 0.9941 427.21 555.66)" class="st20 st7 st8">É</text>
<text transform="matrix(0.9901 -0.14 0.14 0.9901 431.7201 555.1599)" class="st20 st7 st15">?</text>
<text transform="matrix(0.8942 -0.4478 0.4478 0.8942 256.9601 109.9601)" class="st20 st7 st40">S</text>
<text transform="matrix(0.9051 -0.4251 0.4251 0.9051 264.68 106.09)" class="st20 st7 st40">E</text>
<text transform="matrix(0.9163 -0.4005 0.4005 0.9163 272.55 102.3799)" class="st20 st7 st40">R</text>
<text transform="matrix(0.93 -0.3675 0.3675 0.93 284.3601 97.3001)" class="st20 st7 st40">L</text>
<text transform="matrix(0.9404 -0.3401 0.3401 0.9404 292.1905 94.1801)" class="st20 st7 st41">A</text>
<text transform="matrix(0.9528 -0.3037 0.3037 0.9528 305.26 89.52)" class="st20 st7 st40">C</text>
<text transform="matrix(0.9615 -0.2748 0.2748 0.9615 314.52 86.56)" class="st20 st7 st40">A</text>
<text transform="matrix(0.9697 -0.2443 0.2443 0.9697 324.53 83.68)" class="st20 st7 st40">D</text>
<text transform="matrix(0.9757 -0.219 0.219 0.9757 335.4496 80.9499)" class="st20 st7 st42">E</text>
<text transform="matrix(0.9824 -0.187 0.187 0.9824 343.91 79.06)" class="st20 st7 st40">N</text>
<text transform="matrix(0.9878 -0.1559 0.1559 0.9878 354.76 76.99)" class="st20 st7 st40">A</text>
<text transform="matrix(0.9934 -0.1144 0.1144 0.9934 368.45 74.88)" class="st20 st7 st40">O</text>
<text transform="matrix(0.9968 -7.974522e-02 7.974522e-02 0.9968 379.8604 73.5397)" class="st20 st7 st43">M</text>
<text transform="matrix(0.9991 -4.205003e-02 4.205003e-02 0.9991 393.57 72.49)" class="st20 st7 st40">N</text>
<text transform="matrix(0.9998 -1.937194e-02 1.937194e-02 0.9998 404.8 72.05)" class="st20 st7 st40">I</text>
<text transform="matrix(0.9999 1.623085e-02 -1.623085e-02 0.9999 409.22 71.86)" class="st20 st7 st40">C</text>
<text transform="matrix(0.9996 2.998651e-02 -2.998651e-02 0.9996 419.0501 71.9396)" class="st20 st7 st44">A</text>
<text transform="matrix(0.9981 6.122275e-02 -6.122275e-02 0.9981 429.4499 72.24)" class="st20 st7 st40">N</text>
<text transform="matrix(0.9957 9.237059e-02 -9.237059e-02 0.9957 440.46 72.9201)" class="st20 st7 st40">A</text>
<text transform="matrix(0.9927 0.1203 -0.1203 0.9927 450.8497 73.8902)" class="st20 st7 st45">L</text>
<text transform="matrix(0.9871 0.1602 -0.1602 0.9871 462.2199 75.26)" class="st20 st7 st40">M</text>
<text transform="matrix(0.9807 0.1954 -0.1954 0.9807 475.7699 77.4799)" class="st20 st7 st40">Á</text>
<text transform="matrix(0.9748 0.2231 -0.2231 0.9748 486.1601 79.5699)" class="st20 st7 st40">S</text>
<text transform="matrix(0.966 0.2587 -0.2587 0.966 497.8201 82.2799)" class="st20 st7 st40">C</text>
<text transform="matrix(0.9578 0.2875 -0.2875 0.9578 506.7101 84.64)" class="st20 st7 st40">O</text>
<text transform="matrix(0.9476 0.3195 -0.3195 0.9476 517.83 87.98)" class="st20 st7 st40">N</text>
<text transform="matrix(0.9379 0.3469 -0.3469 0.9379 528.43 91.5701)" class="st20 st7 st40">F</text>
<text transform="matrix(0.9326 0.361 -0.361 0.9326 536.2395 94.47)" class="st20 st7 st45">I</text>
<text transform="matrix(0.9231 0.3846 -0.3846 0.9231 540.3201 96.0299)" class="st20 st7 st40">A</text>
<text transform="matrix(0.9113 0.4117 -0.4117 0.9113 549.9599 100.05)" class="st20 st7 st40">B</text>
<text transform="matrix(0.9002 0.4355 -0.4355 0.9002 558.8401 104.0701)" class="st20 st7 st40">L</text>
<text transform="matrix(0.8894 0.4571 -0.4571 0.8894 566.08 107.56)" class="st20 st7 st40">E</text>
<path class="st5" d="M434.7,615.9c-41.7,4.4-83.8-4.3-120.3-24.9c-10.6-6-24-3.2-31.2,6.7l-0.1,0.2c-7.8,10.7-5.5,25.6,5.2,33.5
	c0.8,0.6,1.6,1.1,2.4,1.5c76,42.6,168.5,42.9,244.8,0.8c11.5-6.4,15.7-21,9.2-32.6c-0.5-0.8-1-1.6-1.5-2.4l0,0
	c-7.2-9.9-20.6-12.8-31.2-6.8C488.2,605.2,463.2,613,434.7,615.9z"/>
<path class="st5" d="M612.7,455.4c-8.5,41.1-29.5,78.5-60.2,107c-9,8.3-10.3,21.9-3.1,31.8l0.1,0.2c7.8,10.7,22.8,13,33.5,5.2
	c0.8-0.6,1.5-1.1,2.2-1.8c63.6-59.5,92-147.6,75-233c-2.6-13-15.2-21.3-28.2-18.7c-0.9,0.2-1.8,0.4-2.8,0.7l0,0
	c-11.6,3.8-18.4,15.7-15.9,27.7C618.8,401.1,618.5,427.4,612.7,455.4z"/>
<path class="st5" d="M515.4,238c36.4,20.9,65.3,52.6,82.8,90.7c5,11.1,17.6,16.6,29.2,12.9l0.2-0.1c12.6-4.1,19.4-17.6,15.4-30.2
	c-0.3-0.9-0.6-1.8-1-2.6c-36.6-79-111.4-133.5-197.9-144.1c-13.1-1.5-25,7.8-26.6,21c-0.1,0.9-0.2,1.9-0.2,2.8l0,0
	c0,12.2,9.2,22.4,21.3,23.8C465.8,215.3,490.6,223.7,515.4,238z"/>
<path class="st5" d="M270.3,270.3c32-32.2,73.9-52.6,119-58c12-1.5,21.1-11.7,21.1-23.8l0,0c0-13.3-10.8-24-24-24
	c-0.9,0-1.9,0.1-2.8,0.2c-86.4,10.6-161.2,65-197.8,144c-5.5,12-0.3,26.3,11.8,31.8c0.9,0.4,1.7,0.7,2.6,1l0,0
	c11.6,3.7,24.1-1.7,29.2-12.8C239.4,307,253.3,287.2,270.3,270.3z"/>
<path class="st5" d="M238,515.4c-18.6-32.1-27.2-64.4-27.2-101.5c0-12.8,1.2-25.6,3.6-38.2c2.3-11.9-4.6-23.6-16.1-27.3h-0.1
	c-12.6-4.1-26.1,2.8-30.2,15.5c-0.3,0.9-0.5,1.9-0.7,2.8c-3,15.6-4.4,31.4-4.4,47.3c-0.2,66.6,26.3,130.5,73.5,177.5
	c2.3,2.3,4.6,4.5,6.9,6.6c9.7,9,24.9,8.4,33.8-1.3c0.6-0.7,1.2-1.4,1.8-2.2l0,0c7.1-9.8,5.8-23.3-3-31.6
	C260.9,549.1,248.2,533.1,238,515.4z"/>
<text transform="matrix(9.410834e-02 -0.9956 0.9956 9.410834e-02 274.9 403.6397)" class="st20 st7 st21">C</text>
<text transform="matrix(0.1373 -0.9905 0.9905 0.1373 275.4001 398.16)" class="st20 st7 st21">O</text>
<text transform="matrix(0.1853 -0.9827 0.9827 0.1853 276.3499 391.26)" class="st20 st7 st21">N</text>
<text transform="matrix(0.2307 -0.973 0.973 0.2307 277.5989 384.72)" class="st20 st7 st46">T</text>
<text transform="matrix(0.2707 -0.9627 0.9627 0.2707 278.7805 379.5902)" class="st20 st7 st32">R</text>
<text transform="matrix(0.2954 -0.9554 0.9554 0.2954 280.3599 373.9597)" class="st20 st7 st21">I</text>
<text transform="matrix(0.3251 -0.9457 0.9457 0.3251 281.14 371.3596)" class="st20 st7 st21">B</text>
<text transform="matrix(0.3668 -0.9303 0.9303 0.3668 283 365.8997)" class="st20 st7 st21">U</text>
<text transform="matrix(0.3984 -0.9172 0.9172 0.3984 285.4899 359.6696)" class="st20 st7 st21">I</text>
<text transform="matrix(0.4266 -0.9045 0.9045 0.4266 286.5499 357.17)" class="st20 st7 st21">R</text>
<text transform="matrix(0.4775 -0.8787 0.8787 0.4775 289.83 350.3096)" class="st20 st7 st21">A</text>
<text transform="matrix(0.5341 -0.8454 0.8454 0.5341 293.7401 343.1496)" class="st20 st7 st21">M</text>
<text transform="matrix(0.5741 -0.8188 0.8188 0.5741 298.1801 336.1699)" class="st20 st7 st21">E</text>
<text transform="matrix(0.6 -0.8 0.8 0.6 301.27 331.7896)" class="st20 st7 st21">J</text>
<text transform="matrix(0.6332 -0.774 0.774 0.6332 303.5999 328.6396)" class="st20 st7 st47">O</text>
<text transform="matrix(0.6662 -0.7458 0.7458 0.6662 308.0306 323.2301)" class="st20 st7 st48">R</text>
<text transform="matrix(0.6994 -0.7147 0.7147 0.6994 311.9601 318.83)" class="st20 st7 st21">A</text>
<text transform="matrix(0.7291 -0.6844 0.6844 0.7291 316.3399 314.35)" class="st20 st7 st21">R</text>
<text transform="matrix(0.7633 -0.646 0.646 0.7633 321.9501 309.1602)" class="st20 st7 st21">L</text>
<text transform="matrix(0.7893 -0.614 0.614 0.7893 325.79 305.89)" class="st20 st7 st21">A</text>
<text transform="matrix(0.8211 -0.5708 0.5708 0.8211 332.3195 300.89)" class="st20 st7 st49">C</text>
<text transform="matrix(0.8486 -0.5291 0.5291 0.8486 337.1106 297.5605)" class="st20 st7 st50">A</text>
<text transform="matrix(0.8673 -0.4977 0.4977 0.8673 342.43 294.2302)" class="st20 st7 st21">L</text>
<text transform="matrix(0.8821 -0.4711 0.4711 0.8821 346.7094 291.7894)" class="st20 st7 st51">I</text>
<text transform="matrix(0.8963 -0.4434 0.4434 0.8963 349.09 290.4701)" class="st20 st7 st21">D</text>
<text transform="matrix(0.9154 -0.4026 0.4026 0.9154 354.88 287.6)" class="st20 st7 st21">A</text>
<text transform="matrix(0.9331 -0.3595 0.3595 0.9331 360.5999 285.0701)" class="st20 st7 st21">D</text>
<text transform="matrix(0.9536 -0.3011 0.3011 0.9536 368.6296 282.0301)" class="st20 st7 st52">D</text>
<text transform="matrix(0.9657 -0.2597 0.2597 0.9657 375.09 280)" class="st20 st7 st21">E</text>
<text transform="matrix(0.9784 -0.2065 0.2065 0.9784 381.88 278.21)" class="st20 st7 st21">V</text>
<text transform="matrix(0.9853 -0.1709 0.1709 0.9853 387.96 276.9609)" class="st20 st7 st53">I</text>
<text transform="matrix(0.99 -0.1409 0.1409 0.99 390.62 276.44)" class="st20 st7 st21">D</text>
<text transform="matrix(0.9954 -9.601948e-02 9.601948e-02 0.9954 397.04 275.52)" class="st20 st7 st21">A</text>
<text transform="matrix(0.9992 -3.996804e-02 3.996804e-02 0.9992 405.2095 274.7789)" class="st20 st7 st54">D</text>
<text transform="matrix(0.9999 9.999500e-03 -9.999500e-03 0.9999 411.9694 274.5494)" class="st20 st7 st55">E</text>
<text transform="matrix(0.9991 4.135251e-02 -4.135251e-02 0.9991 419.0901 274.68)" class="st20 st7 st21">L</text>
<text transform="matrix(0.9954 9.601948e-02 -9.601948e-02 0.9954 424.07 274.8999)" class="st20 st7 st21">A</text>
<text transform="matrix(0.9901 0.14 -0.14 0.9901 430.4401 275.5293)" class="st20 st7 st23">S</text>
<text transform="matrix(0.9824 0.1867 -0.1867 0.9824 437.46 276.5401)" class="st20 st7 st21">F</text>
<text transform="matrix(0.9746 0.2239 -0.2239 0.9746 442.04 277.3901)" class="st20 st7 st21">A</text>
<text transform="matrix(0.9616 0.2745 -0.2745 0.9616 448.1599 278.7601)" class="st20 st7 st21">M</text>
<text transform="matrix(0.9499 0.3127 -0.3127 0.9499 456.16 281.0999)" class="st20 st7 st21">I</text>
<text transform="matrix(0.9404 0.3401 -0.3401 0.9404 458.7906 281.9506)" class="st20 st7 st56">L</text>
<text transform="matrix(0.9311 0.3649 -0.3649 0.9311 463.4001 283.6201)" class="st20 st7 st21">I</text>
<text transform="matrix(0.9187 0.3949 -0.3949 0.9187 465.8602 284.55)" class="st20 st7 st21">A</text>
<text transform="matrix(0.9014 0.433 -0.433 0.9014 471.7099 287.08)" class="st20 st7 st21">S</text>
<text transform="matrix(0.8782 0.4784 -0.4784 0.8782 478.0901 290.19)" class="st20 st7 st21">E</text>
<text transform="matrix(0.8557 0.5174 -0.5174 0.8557 482.6699 292.6601)" class="st20 st7 st34">N</text>
<text transform="matrix(0.8211 0.5708 -0.5708 0.8211 489.9503 297.0698)" class="st20 st7 st49">M</text>
<text transform="matrix(0.7915 0.6112 -0.6112 0.7915 496.7098 301.829)" class="st20 st7 st36">É</text>
<text transform="matrix(0.769 0.6392 -0.6392 0.769 500.8691 305.0203)" class="st20 st7 st31">X</text>
<text transform="matrix(0.7465 0.6654 -0.6654 0.7465 505.4195 308.8599)" class="st20 st7 st21">I</text>
<text transform="matrix(0.7267 0.6869 -0.6869 0.7267 507.4599 310.6497)" class="st20 st7 st24">C</text>
<text transform="matrix(0.6971 0.717 -0.717 0.6971 511.4895 314.4307)" class="st20 st7 st57">O</text>
<text transform="matrix(0.6517 0.7585 -0.7585 0.6517 517.5801 320.8201)" class="st20 st7 st21">Y</text>
<text transform="matrix(0.6093 0.7929 -0.7929 0.6093 522.5599 326.69)" class="st20 st7 st21">C</text>
<text transform="matrix(0.5781 0.8159 -0.8159 0.5781 526.0404 331.2201)" class="st20 st7 st21">E</text>
<text transform="matrix(0.5427 0.8399 -0.8399 0.5427 529.07 335.4701)" class="st20 st7 st21">N</text>
<text transform="matrix(0.5101 0.8601 -0.8601 0.5101 532.6705 341.0601)" class="st20 st7 st23">T</text>
<text transform="matrix(0.4722 0.8815 -0.8815 0.4722 535.3396 345.59)" class="st20 st7 st21">R</text>
<text transform="matrix(0.4319 0.9019 -0.9019 0.4319 538.0403 350.5699)" class="st20 st7 st21">O</text>
<text transform="matrix(0.3899 0.9208 -0.9208 0.3899 540.94 356.6201)" class="st20 st7 st21">A</text>
<text transform="matrix(0.3414 0.9399 -0.9399 0.3414 543.4198 362.41)" class="st20 st7 st21">M</text>
<text transform="matrix(0.2955 0.9553 -0.9553 0.2955 546.2102 370.17)" class="st20 st7 st21">É</text>
<text transform="matrix(0.2571 0.9664 -0.9664 0.2571 547.7603 375.16)" class="st20 st7 st21">R</text>
<text transform="matrix(0.2268 0.9739 -0.9739 0.2268 549.2401 380.82)" class="st20 st7 st21">I</text>
<text transform="matrix(0.1966 0.9805 -0.9805 0.1966 549.8797 383.47)" class="st20 st7 st21">C</text>
<text transform="matrix(0.1528 0.9883 -0.9883 0.1528 551.0399 389.2)" class="st20 st7 st21">A</text>
<text transform="matrix(0.9976 -6.982913e-02 6.982913e-02 0.9976 400.5799 259.85)" class="st20 st7 st18">¿</text>
<text transform="matrix(0.9991 -4.257317e-02 4.257317e-02 0.9991 404.14 259.57)" class="st20 st7 st8">Q</text>
<text transform="matrix(0.9999 -1.623085e-02 1.623085e-02 0.9999 410.27 259.34)" class="st20 st7 st8">U</text>
<text transform="matrix(0.9996 2.827057e-02 -2.827057e-02 0.9996 416.07 259.29)" class="st20 st7 st8">É</text>
<text transform="matrix(0.9985 5.442736e-02 -5.442736e-02 0.9985 420.5399 259.42)" class="st20 st7 st8">?</text>
<text transform="matrix(0.7919 -0.6107 0.6107 0.7919 303.0001 275.8698)" class="st5 st7 st58">E</text>
<text transform="matrix(0.8164 -0.5775 0.5775 0.8164 308.6099 271.5308)" class="st5 st7 st59">X</text>
<text transform="matrix(0.8424 -0.5389 0.5389 0.8424 315.2999 266.8199)" class="st5 st7 st58">P</text>
<text transform="matrix(0.8643 -0.503 0.503 0.8643 321.8399 262.6498)" class="st5 st7 st58">E</text>
<text transform="matrix(0.8821 -0.4711 0.4711 0.8821 327.9698 259.0699)" class="st5 st7 st60">R</text>
<text transform="matrix(0.8999 -0.4362 0.4362 0.8999 335.02 255.3899)" class="st5 st7 st58">I</text>
<text transform="matrix(0.9117 -0.4108 0.4108 0.9117 338.5092 253.6694)" class="st5 st7 st61">E</text>
<text transform="matrix(0.931 -0.365 0.365 0.931 344.9699 250.7601)" class="st5 st7 st58">N</text>
<text transform="matrix(0.9476 -0.3195 0.3195 0.9476 353.51 247.43)" class="st5 st7 st58">C</text>
<text transform="matrix(0.9573 -0.2892 0.2892 0.9573 361.0798 244.9193)" class="st5 st7 st62">I</text>
<text transform="matrix(0.9684 -0.2496 0.2496 0.9684 364.7503 243.7703)" class="st5 st7 st63">A</text>
<text transform="matrix(0.9817 -0.1903 0.1903 0.9817 375.9599 240.9295)" class="st5 st7 st64">D</text>
<text transform="matrix(0.9901 -0.14 0.14 0.9901 385.0695 239.2191)" class="st5 st7 st65">E</text>
<text transform="matrix(0.9965 -8.333000e-02 8.333000e-02 0.9965 394.96 237.88)" class="st5 st7 st58">C</text>
<text transform="matrix(0.9993 -3.699253e-02 3.699253e-02 0.9993 402.43 237.23)" class="st5 st7 st58">O</text>
<text transform="matrix(0.9998 2.024444e-02 -2.024444e-02 0.9998 411.89 236.85)" class="st5 st7 st58">M</text>
<text transform="matrix(0.9973 7.289006e-02 -7.289006e-02 0.9973 423.1199 237.12)" class="st5 st7 st58">P</text>
<text transform="matrix(0.9932 0.1165 -0.1165 0.9932 430.8199 237.68)" class="st5 st7 st58">R</text>
<text transform="matrix(0.9865 0.1637 -0.1637 0.9865 438.7701 238.61)" class="st5 st7 st58">A</text>
<text transform="matrix(0.9746 0.2238 -0.2238 0.9746 450.17 240.6099)" class="st5 st7 st58">S</text>
<text transform="matrix(0.967 0.2546 -0.2546 0.967 457.2701 242.2701)" class="st5 st7 st58">I</text>
<text transform="matrix(0.9573 0.2892 -0.2892 0.9573 460.9799 243.189)" class="st5 st7 st62">N</text>
<text transform="matrix(0.937 0.3494 -0.3494 0.937 472.4702 246.8101)" class="st5 st7 st58">F</text>
<text transform="matrix(0.9213 0.3888 -0.3888 0.9213 479.05 249.2501)" class="st5 st7 st58">R</text>
<text transform="matrix(0.9078 0.4195 -0.4195 0.9078 486.3602 252.3701)" class="st5 st7 st58">I</text>
<text transform="matrix(0.8931 0.4498 -0.4498 0.8931 489.8899 253.9701)" class="st5 st7 st58">C</text>
<text transform="matrix(0.8732 0.4874 -0.4874 0.8732 496.6201 257.3501)" class="st5 st7 st58">C</text>
<text transform="matrix(0.8564 0.5164 -0.5164 0.8564 503.5701 261.2699)" class="st5 st7 st58">I</text>
<text transform="matrix(0.8362 0.5484 -0.5484 0.8362 506.8801 263.2)" class="st5 st7 st58">Ó</text>
<text transform="matrix(0.8083 0.5888 -0.5888 0.8083 514.8303 268.4207)" class="st5 st7 st66">N</text>
<text transform="matrix(0.8684 -0.4959 0.4959 0.8684 355.17 320.2301)" class="st5 st7 st58">N</text>
<text transform="matrix(0.908 -0.4191 0.4191 0.908 362.9497 315.78)" class="st5 st7 st67">U</text>
<text transform="matrix(0.9338 -0.3577 0.3577 0.9338 371.0399 312.02)" class="st5 st7 st58">E</text>
<text transform="matrix(0.9549 -0.297 0.297 0.9549 377.5799 309.5102)" class="st5 st7 st58">S</text>
<text transform="matrix(0.9721 -0.2345 0.2345 0.9721 384.33 307.41)" class="st5 st7 st58">T</text>
<text transform="matrix(0.9856 -0.1692 0.1692 0.9856 391.2698 305.7199)" class="st5 st7 st68">R</text>
<text transform="matrix(0.996 -8.963770e-02 8.963770e-02 0.996 398.7996 304.3892)" class="st5 st7 st69">O</text>
<text transform="matrix(0.9998 -1.902294e-02 1.902294e-02 0.9998 408.14 303.57)" class="st5 st7 st58">S</text>
<text transform="matrix(0.9974 7.184561e-02 -7.184561e-02 0.9974 417.99 303.48)" class="st5 st7 st58">C</text>
<text transform="matrix(0.9906 0.1368 -0.1368 0.9906 425.77 304.06)" class="st5 st7 st58">L</text>
<text transform="matrix(0.9829 0.184 -0.184 0.9829 432.47 305.02)" class="st5 st7 st58">I</text>
<text transform="matrix(0.973 0.2307 -0.2307 0.973 436.17 305.6693)" class="st5 st7 st70">E</text>
<text transform="matrix(0.9532 0.3024 -0.3024 0.9532 442.95 307.24)" class="st5 st7 st58">N</text>
<text transform="matrix(0.9292 0.3697 -0.3697 0.9292 451.5194 309.9895)" class="st5 st7 st71">T</text>
<text transform="matrix(0.9025 0.4307 -0.4307 0.9025 458.2002 312.6599)" class="st5 st7 st58">E</text>
<text transform="matrix(0.8733 0.4873 -0.4873 0.8733 464.5102 315.66)" class="st5 st7 st58">S</text>
<text transform="matrix(-0.7346 -0.6785 0.6785 -0.7346 266.6199 578.8791)" class="st6 st7 st72">T</text>
<text transform="matrix(-0.717 -0.6971 0.6971 -0.717 261.4 574.0298)" class="st6 st7 st73">I</text>
<text transform="matrix(-0.7021 -0.7121 0.7121 -0.7021 258.7501 571.4894)" class="st6 st7 st74">E</text>
<text transform="matrix(-0.6749 -0.7379 0.7379 -0.6749 253.79 566.48)" class="st6 st7 st72">N</text>
<text transform="matrix(-0.6441 -0.7649 0.7649 -0.6441 247.6796 559.8107)" class="st6 st7 st75">D</text>
<text transform="matrix(-0.6112 -0.7915 0.7915 -0.6112 242.0404 553.132)" class="st6 st7 st76">A</text>
<text transform="matrix(-0.5868 -0.8097 0.8097 -0.5868 236.7699 546.3602)" class="st6 st7 st72">S</text>
<text transform="matrix(-0.5478 -0.8366 0.8366 -0.5478 231.1094 538.4717)" class="st6 st7 st77">Y</text>
<text transform="matrix(-0.5101 -0.8601 0.8601 -0.5101 225.3701 529.6317)" class="st6 st7 st78">P</text>
<text transform="matrix(-0.4822 -0.8761 0.8761 -0.4822 221.58 523.2308)" class="st6 st7 st72">L</text>
<text transform="matrix(-0.451 -0.8925 0.8925 -0.451 218.2799 517.2593)" class="st6 st7 st72">A</text>
<text transform="matrix(-0.4225 -0.9064 0.9064 -0.4225 214.79 510.3693)" class="st6 st7 st72">T</text>
<text transform="matrix(-0.3931 -0.9195 0.9195 -0.3931 212.0899 504.6492)" class="st6 st7 st72">A</text>
<text transform="matrix(-0.3611 -0.9325 0.9325 -0.3611 208.7701 496.8693)" class="st6 st7 st72">F</text>
<text transform="matrix(-0.3312 -0.9435 0.9435 -0.3312 206.3396 490.6807)" class="st6 st7 st79">O</text>
<text transform="matrix(-0.29 -0.957 0.957 -0.29 203.27 481.7695)" class="st6 st7 st72">R</text>
<text transform="matrix(-0.2485 -0.9686 0.9686 -0.2485 200.98 474.3695)" class="st6 st7 st72">M</text>
<text transform="matrix(-0.205 -0.9788 0.9788 -0.205 198.2399 463.6192)" class="st6 st7 st72">A</text>
<text transform="matrix(-0.17 -0.9854 0.9854 -0.17 196.49 455.1997)" class="st6 st7 st72">S</text>
<text transform="matrix(-0.1203 -0.9927 0.9927 -0.1203 194.8802 445.6497)" class="st6 st7 st80">D</text>
<text transform="matrix(-9.289197e-02 -0.9957 0.9957 -9.289197e-02 193.79 436.5095)" class="st6 st7 st72">I</text>
<text transform="matrix(-6.453226e-02 -0.9979 0.9979 -6.453226e-02 193.42 432.9004)" class="st6 st7 st72">G</text>
<text transform="matrix(-3.577167e-02 -0.9994 0.9994 -3.577167e-02 192.87 423.8399)" class="st6 st7 st72">I</text>
<text transform="matrix(-1.204252e-02 -0.9999 0.9999 -1.204252e-02 192.72 420.2801)" class="st6 st7 st72">T</text>
<text transform="matrix(1.954649e-02 -0.9998 0.9998 1.954649e-02 192.6099 413.94)" class="st6 st7 st72">A</text>
<text transform="matrix(5.303314e-02 -0.9986 0.9986 5.303314e-02 192.79 405.47)" class="st6 st7 st72">L</text>
<text transform="matrix(7.974522e-02 -0.9968 0.9968 7.974522e-02 193.1203 398.9396)" class="st6 st7 st81">E</text>
<text transform="matrix(0.1144 -0.9934 0.9934 0.1144 193.7 392.0297)" class="st6 st7 st72">S</text>
<text transform="matrix(0.5708 -0.8211 0.8211 0.5708 229.4598 291.7496)" class="st6 st7 st82">C</text>
<text transform="matrix(0.5987 -0.8009 0.8009 0.5987 233.94 285.2501)" class="st6 st7 st72">A</text>
<text transform="matrix(0.6283 -0.7779 0.7779 0.6283 238.9596 278.5098)" class="st6 st7 st83">D</text>
<text transform="matrix(0.6571 -0.7538 0.7538 0.6571 244.73 271.4001)" class="st6 st7 st72">E</text>
<text transform="matrix(0.6816 -0.7317 0.7317 0.6816 249.3496 266.0806)" class="st6 st7 st84">N</text>
<text transform="matrix(0.7119 -0.7023 0.7023 0.7119 255.4599 259.5499)" class="st6 st7 st72">A</text>
<text transform="matrix(0.7507 -0.6606 0.6606 0.7507 263.5004 251.7101)" class="st6 st7 st85">D</text>
<text transform="matrix(0.7706 -0.6373 0.6373 0.7706 270.3401 245.6402)" class="st6 st7 st72">E</text>
<text transform="matrix(0.7976 -0.6032 0.6032 0.7976 277.7901 239.5501)" class="st6 st7 st72">S</text>
<text transform="matrix(0.8211 -0.5708 0.5708 0.8211 283.2594 235.38)" class="st6 st7 st82">U</text>
<text transform="matrix(0.8431 -0.5377 0.5377 0.8431 290.4499 230.2899)" class="st6 st7 st72">M</text>
<text transform="matrix(0.8607 -0.509 0.509 0.8607 299.9501 224.2998)" class="st6 st7 st72">I</text>
<text transform="matrix(0.875 -0.484 0.484 0.875 303.06 222.41)" class="st6 st7 st72">N</text>
<text transform="matrix(0.8886 -0.4586 0.4586 0.8886 311.0701 218.02)" class="st6 st7 st72">I</text>
<text transform="matrix(0.8996 -0.4368 0.4368 0.8996 314.2901 216.33)" class="st6 st7 st72">S</text>
<text transform="matrix(0.913 -0.4079 0.4079 0.913 320.5901 213.2699)" class="st6 st7 st72">T</text>
<text transform="matrix(0.9262 -0.377 0.377 0.9262 327.03 210.38)" class="st6 st7 st72">R</text>
<text transform="matrix(0.9404 -0.3401 0.3401 0.9404 334.1103 207.4704)" class="st6 st7 st86">O</text>
<text transform="matrix(0.9298 0.3681 -0.3681 0.9298 490.7398 206.37)" class="st6 st7 st72">N</text>
<text transform="matrix(0.914 0.4058 -0.4058 0.914 499.1301 209.6899)" class="st6 st7 st72">U</text>
<text transform="matrix(0.8987 0.4385 -0.4385 0.8987 507.3099 213.3299)" class="st6 st7 st72">E</text>
<text transform="matrix(0.8844 0.4667 -0.4667 0.8844 513.5598 216.3801)" class="st6 st7 st72">S</text>
<text transform="matrix(0.8691 0.4947 -0.4947 0.8691 519.7501 219.6301)" class="st6 st7 st72">T</text>
<text transform="matrix(0.8521 0.5234 -0.5234 0.8521 525.9097 223.1301)" class="st6 st7 st72">R</text>
<text transform="matrix(0.829 0.5593 -0.5593 0.829 532.4196 227.1004)" class="st6 st7 st87">O</text>
<text transform="matrix(0.8 0.6 -0.6 0.8 542.4199 233.8801)" class="st6 st7 st72">T</text>
<text transform="matrix(0.784 0.6207 -0.6207 0.784 547.4897 237.6099)" class="st6 st7 st72">A</text>
<text transform="matrix(0.7627 0.6468 -0.6468 0.7627 554.1501 242.9)" class="st6 st7 st72">L</text>
<text transform="matrix(0.7413 0.6712 -0.6712 0.7413 559.1301 247.1098)" class="st6 st7 st88">E</text>
<text transform="matrix(0.7181 0.6959 -0.6959 0.7181 564.3796 251.8101)" class="st6 st7 st72">N</text>
<text transform="matrix(0.6919 0.722 -0.722 0.6919 570.8094 258.0602)" class="st6 st7 st80">T</text>
<text transform="matrix(0.6662 0.7458 -0.7458 0.6662 575.6398 263.0408)" class="st6 st7 st89">O</text>
<text transform="matrix(-2.984068e-02 0.9996 -0.9996 -2.984068e-02 635.1502 415.89)" class="st6 st7 st72">D</text>
<text transform="matrix(-6.766698e-02 0.9977 -0.9977 -6.766698e-02 634.8994 424.6)" class="st6 st7 st72">A</text>
<text transform="matrix(-9.950372e-02 0.995 -0.995 -9.950372e-02 634.3796 432.3203)" class="st6 st7 st90">T</text>
<text transform="matrix(-0.1355 0.9908 -0.9908 -0.1355 633.7198 439.23)" class="st6 st7 st72">O</text>
<text transform="matrix(-0.1692 0.9856 -0.9856 -0.1692 632.4498 448.3898)" class="st6 st7 st91">S</text>
<text transform="matrix(-0.217 0.9762 -0.9762 -0.217 630.739 457.9399)" class="st6 st7 st72">Y</text>
<text transform="matrix(-0.262 0.9651 -0.9651 -0.262 628.3904 468.24)" class="st6 st7 st72">T</text>
<text transform="matrix(-0.2927 0.9562 -0.9562 -0.2927 626.54 475.07)" class="st6 st7 st72">E</text>
<text transform="matrix(-0.3242 0.946 -0.946 -0.3242 624.5298 481.6599)" class="st6 st7 st72">C</text>
<text transform="matrix(-0.3598 0.933 -0.933 -0.3598 622.0607 488.9199)" class="st6 st7 st72">N</text>
<text transform="matrix(-0.3987 0.9171 -0.9171 -0.3987 618.8098 497.38)" class="st6 st7 st72">O</text>
<text transform="matrix(-0.4311 0.9023 -0.9023 -0.4311 615.0292 506.02)" class="st6 st7 st92">L</text>
<text transform="matrix(-0.4592 0.8884 -0.8884 -0.4592 612.2993 511.79)" class="st6 st7 st93">O</text>
<text transform="matrix(-0.4998 0.8661 -0.8661 -0.4998 607.94 520.12)" class="st6 st7 st72">G</text>
<text transform="matrix(-0.5246 0.8514 -0.8514 -0.5246 603.3901 527.9399)" class="st6 st7 st72">Í</text>
<text transform="matrix(-0.5476 0.8368 -0.8368 -0.5476 601.5697 530.97)" class="st6 st7 st72">A</text>
<text transform="matrix(0.9417 0.3364 -0.3364 0.9417 332.09 629.72)" class="st6 st7 st72">G</text>
<text transform="matrix(0.955 0.2965 -0.2965 0.955 340.95 632.8899)" class="st6 st7 st72">O</text>
<text transform="matrix(0.9659 0.2589 -0.2589 0.9659 350.3994 635.7996)" class="st6 st7 st94">B</text>
<text transform="matrix(0.9726 0.2326 -0.2326 0.9726 358.3399 637.89)" class="st6 st7 st72">I</text>
<text transform="matrix(0.978 0.2086 -0.2086 0.978 362.15 638.8201)" class="st6 st7 st72">E</text>
<text transform="matrix(0.9835 0.1807 -0.1807 0.9835 369.3593 640.3701)" class="st6 st7 st95">R</text>
<text transform="matrix(0.9901 0.14 -0.14 0.9901 377.3903 641.8097)" class="st6 st7 st78">N</text>
<text transform="matrix(0.9954 9.601948e-02 -9.601948e-02 0.9954 386.7401 643.11)" class="st6 st7 st72">O</text>
<text transform="matrix(0.999 4.553734e-02 -4.553734e-02 0.999 399.25 644.22)" class="st6 st7 st72">C</text>
<text transform="matrix(1 8.552009e-03 -8.552009e-03 1 407.04 644.59)" class="st6 st7 st72">O</text>
<text transform="matrix(0.9995 -3.001516e-02 3.001516e-02 0.9995 416.92 644.66)" class="st6 st7 st72">R</text>
<text transform="matrix(0.9979 -6.488065e-02 6.488065e-02 0.9979 425.08 644.41)" class="st6 st7 st72">P</text>
<text transform="matrix(0.9949 -0.1005 0.1005 0.9949 432.9496 643.9096)" class="st6 st7 st96">O</text>
<text transform="matrix(0.9899 -0.1414 0.1414 0.9899 442.71 642.88)" class="st6 st7 st72">R</text>
<text transform="matrix(0.9838 -0.1791 0.1791 0.9838 450.96 641.71)" class="st6 st7 st72">A</text>
<text transform="matrix(0.9776 -0.2105 0.2105 0.9776 458.87 640.27)" class="st6 st7 st72">T</text>
<text transform="matrix(0.973 -0.2307 0.2307 0.973 466.0695 638.6989)" class="st6 st7 st97">I</text>
<text transform="matrix(0.9654 -0.2608 0.2608 0.9654 469.86 637.82)" class="st6 st7 st72">V</text>
<text transform="matrix(0.9545 -0.2982 0.2982 0.9545 477.94 635.6499)" class="st6 st7 st72">O</text>
<path class="st20" d="M637.8,228.2c-5.5,0-10.7-2.3-14.4-6.3c-49.3-54.1-117.6-87-190.6-91.7c-10.8-0.5-19.1-9.7-18.5-20.4
	s9.7-19.1,20.4-18.5c0.2,0,0.5,0,0.7,0c83,5.4,160.8,42.8,216.8,104.3c7.3,8,6.7,20.3-1.2,27.6C647.4,226.4,642.7,228.2,637.8,228.2
	z"/>
<path class="st98" d="M713.8,479.6c-1,0-2-0.1-3-0.2c-10.6-1.6-17.9-11.6-16.3-22.2c2.2-14.4,3.3-29,3.3-43.6
	c0.1-57.6-17.4-113.9-50.2-161.3c-6.1-8.9-3.9-21,4.9-27.1c8.9-6.1,21-3.9,27.1,4.9l0,0c37.3,53.9,57.3,117.9,57.2,183.5
	c0,16.6-1.3,33.1-3.8,49.5C731.6,472.5,723.5,479.6,713.8,479.6z"/>
<path class="st99" d="M563.9,697c-10.8,0-19.5-8.7-19.5-19.5c0-7,3.8-13.5,9.9-17c63.2-36,110.2-94.8,131.5-164.4
	c3.1-10.3,14-16.1,24.3-13s16.1,14,13,24.3l0,0c-24.1,79.1-77.6,146-149.5,186.9C570.6,696.1,567.3,697,563.9,697z"/>
<path class="st100" d="M413.9,736.5c-40.8,0.1-81.2-7.6-119.1-22.7c-10-3.9-15.1-15.2-11.2-25.2s15.2-15.1,25.2-11.2
	c0.1,0,0.2,0.1,0.4,0.1c67.3,26.6,142.3,26.5,209.6-0.1c9.9-4.2,21.4,0.4,25.6,10.4c4.2,9.9-0.4,21.4-10.4,25.6
	c-0.3,0.1-0.5,0.2-0.8,0.3C495.2,728.9,454.7,736.6,413.9,736.5z"/>
<path class="st101" d="M263.6,696.8c-3.4,0-6.7-0.9-9.6-2.6c-71.7-40.9-125.1-107.8-149.2-186.8c-3.1-10.3,2.7-21.2,13-24.3
	s21.2,2.7,24.3,13c21.2,69.5,68.1,128.2,131.2,164.2c9.4,5.3,12.6,17.2,7.3,26.6C277.1,693,270.6,696.8,263.6,696.8z"/>
<path class="st102" d="M114.1,480.5c-9.6,0-17.8-7-19.2-16.5c-2.6-16.7-3.9-33.6-3.9-50.5c-0.1-65.4,19.7-129.2,56.8-183
	c6.1-8.9,18.2-11.1,27.1-5c8.9,6.1,11.1,18.2,5,27.1c-32.6,47.3-50,103.4-49.9,160.9c0,14.9,1.2,29.7,3.5,44.5
	c1.7,10.6-5.6,20.6-16.2,22.3C116.1,480.5,115.1,480.5,114.1,480.5z"/>
<path class="st103" d="M189.6,228.6c-10.8,0-19.5-8.8-19.5-19.5c0-4.8,1.8-9.5,5.1-13.1c55.9-61.6,133.6-99.2,216.7-104.7
	c10.7-0.8,20.1,7.2,20.9,17.9c0.8,10.7-7.2,20.1-17.9,20.9c-0.1,0-0.3,0-0.4,0c-73,4.8-141.3,37.8-190.5,92
	C200.3,226.3,195.1,228.6,189.6,228.6z"/>
<text transform="matrix(0.9362 0.3514 -0.3514 0.9362 514.2898 131.11)" class="st5 st7 st104">C</text>
<text transform="matrix(0.9268 0.3756 -0.3756 0.9268 522.02 134.0199)" class="st5 st7 st104">L</text>
<text transform="matrix(0.9196 0.3928 -0.3928 0.9196 528.5898 136.6999)" class="st5 st7 st104">I</text>
<text transform="matrix(0.9118 0.4106 -0.4106 0.9118 532.2298 138.23)" class="st5 st7 st104">E</text>
<text transform="matrix(0.8996 0.4366 -0.4366 0.8996 538.9899 141.2599)" class="st5 st7 st104">N</text>
<text transform="matrix(0.8884 0.4592 -0.4592 0.8884 547.6206 145.4611)" class="st5 st7 st105">T</text>
<text transform="matrix(0.8756 0.4831 -0.4831 0.8756 554.3597 148.9806)" class="st5 st7 st106">E</text>
<text transform="matrix(0.8601 0.5101 -0.5101 0.8601 560.8603 152.5798)" class="st5 st7 st107">S</text>
<text transform="matrix(0.3308 0.9437 -0.9437 0.3308 692.3801 307.78)" class="st5 st7 st104">A</text>
<text transform="matrix(0.3011 0.9536 -0.9536 0.3011 695.39 316.3903)" class="st5 st7 st108">S</text>
<text transform="matrix(0.2758 0.9612 -0.9612 0.2758 697.6801 323.51)" class="st5 st7 st104">O</text>
<text transform="matrix(0.2496 0.9684 -0.9684 0.2496 700.4188 333.0896)" class="st5 st7 st109">C</text>
<text transform="matrix(0.2256 0.9742 -0.9742 0.2256 702.4399 341.14)" class="st5 st7 st104">I</text>
<text transform="matrix(0.204 0.979 -0.979 0.204 703.3503 344.95)" class="st5 st7 st104">A</text>
<text transform="matrix(0.1709 0.9853 -0.9853 0.1709 705.2091 353.8605)" class="st5 st7 st110">D</text>
<text transform="matrix(0.14 0.9901 -0.9901 0.14 706.8898 363.39)" class="st5 st7 st104">O</text>
<text transform="matrix(0.1108 0.9938 -0.9938 0.1108 708.2699 373.27)" class="st5 st7 st104">S</text>
<text transform="matrix(7.974522e-02 -0.9968 0.9968 7.974522e-02 118.1897 390.779)" class="st5 st7 st111">P</text>
<text transform="matrix(0.1054 -0.9944 0.9944 0.1054 118.8201 382.7402)" class="st5 st7 st104">R</text>
<text transform="matrix(0.1357 -0.9907 0.9907 0.1357 119.66 374.6196)" class="st5 st7 st104">O</text>
<text transform="matrix(0.1692 -0.9856 0.9856 0.1692 121.0097 364.8304)" class="st5 st7 st112">V</text>
<text transform="matrix(0.1903 -0.9817 0.9817 0.1903 122.4902 356.0996)" class="st5 st7 st113">E</text>
<text transform="matrix(0.219 -0.9757 0.9757 0.219 123.93 348.8402)" class="st5 st7 st114">E</text>
<text transform="matrix(0.2467 -0.9691 0.9691 0.2467 125.53 341.62)" class="st5 st7 st104">D</text>
<text transform="matrix(0.2788 -0.9603 0.9603 0.2788 127.9099 332.2501)" class="st5 st7 st104">O</text>
<text transform="matrix(0.3084 -0.9513 0.9513 0.3084 130.6999 322.6903)" class="st5 st7 st104">R</text>
<text transform="matrix(0.3336 -0.9427 0.9427 0.3336 133.25 314.8399)" class="st5 st7 st104">E</text>
<text transform="matrix(0.3574 -0.934 0.934 0.3574 135.7199 307.8404)" class="st5 st7 st104">S</text>
<text transform="matrix(0.8601 -0.5101 0.5101 0.8601 259.8499 156.9401)" class="st5 st7 st107">P</text>
<text transform="matrix(0.8713 -0.4907 0.4907 0.8713 266.8101 152.8404)" class="st5 st7 st115">L</text>
<text transform="matrix(0.8866 -0.4625 0.4625 0.8866 273.0799 149.3299)" class="st5 st7 st104">A</text>
<text transform="matrix(0.9008 -0.4341 0.4341 0.9008 281.1601 145.1099)" class="st5 st7 st104">N</text>
<text transform="matrix(0.913 -0.408 0.408 0.913 289.7899 140.9601)" class="st5 st7 st104">E</text>
<text transform="matrix(0.9243 -0.3818 0.3818 0.9243 296.6205 137.9104)" class="st5 st7 st116">T</text>
<text transform="matrix(0.9326 -0.361 0.361 0.9326 302.7201 135.3398)" class="st5 st7 st117">A</text>
<text transform="matrix(0.717 -0.6971 0.6971 0.717 628.8204 636.7997)" class="st5 st7 st118">A</text>
<text transform="matrix(0.6967 -0.7174 0.7174 0.6967 635.1099 630.6602)" class="st5 st7 st104">C</text>
<text transform="matrix(0.6816 -0.7317 0.7317 0.6816 640.5591 625.0504)" class="st5 st7 st119">C</text>
<text transform="matrix(0.6641 -0.7477 0.7477 0.6641 646.1899 618.9297)" class="st5 st7 st104">I</text>
<text transform="matrix(0.6473 -0.7622 0.7622 0.6473 648.8301 616.0098)" class="st5 st7 st104">O</text>
<text transform="matrix(0.6233 -0.782 0.782 0.6233 655.2699 608.42)" class="st5 st7 st104">N</text>
<text transform="matrix(0.6063 -0.7952 0.7952 0.6063 661.2401 600.8801)" class="st5 st7 st120">I</text>
<text transform="matrix(0.5888 -0.8083 0.8083 0.5888 663.6415 597.7705)" class="st5 st7 st121">S</text>
<text transform="matrix(0.5708 -0.8211 0.8211 0.5708 668.0891 591.6993)" class="st5 st7 st122">T</text>
<text transform="matrix(0.5525 -0.8335 0.8335 0.5525 671.8801 586.3001)" class="st5 st7 st104">A</text>
<text transform="matrix(0.5291 -0.8486 0.8486 0.5291 676.9307 578.6699)" class="st5 st7 st109">S</text>
<text transform="matrix(0.9778 0.2095 -0.2095 0.9778 345.2095 714.7896)" class="st5 st7 st123">S</text>
<text transform="matrix(0.9835 0.1807 -0.1807 0.9835 352.5693 716.3701)" class="st5 st7 st124">O</text>
<text transform="matrix(0.9887 0.1498 -0.1498 0.9887 362.37 718.1503)" class="st5 st7 st125">C</text>
<text transform="matrix(0.9913 0.1317 -0.1317 0.9913 370.56 719.38)" class="st5 st7 st104">I</text>
<text transform="matrix(0.994 0.1097 -0.1097 0.994 374.45 719.93)" class="st5 st7 st104">O</text>
<text transform="matrix(0.9966 8.193851e-02 -8.193851e-02 0.9966 384.37 721.01)" class="st5 st7 st104">S</text>
<text transform="matrix(0.9988 4.993762e-02 -4.993762e-02 0.9988 394.6599 721.8203)" class="st5 st7 st126">C</text>
<text transform="matrix(0.9998 2.059343e-02 -2.059343e-02 0.9998 402.48 722.21)" class="st5 st7 st104">O</text>
<text transform="matrix(0.9999 -1.378766e-02 1.378766e-02 0.9999 412.53 722.43)" class="st5 st7 st104">M</text>
<text transform="matrix(0.9992 -3.996804e-02 3.996804e-02 0.9992 424.2997 722.2387)" class="st5 st7 st127">E</text>
<text transform="matrix(0.9976 -6.888591e-02 6.888591e-02 0.9976 431.72 721.92)" class="st5 st7 st104">R</text>
<text transform="matrix(0.996 -8.963770e-02 8.963770e-02 0.996 439.8794 721.3493)" class="st5 st7 st128">C</text>
<text transform="matrix(0.9935 -0.1142 0.1142 0.9935 448.13 720.55)" class="st5 st7 st104">I</text>
<text transform="matrix(0.9908 -0.135 0.135 0.9908 452.04 720.13)" class="st5 st7 st104">A</text>
<text transform="matrix(0.987 -0.1607 0.1607 0.987 461.1 718.8799)" class="st5 st7 st104">L</text>
<text transform="matrix(0.983 -0.1838 0.1838 0.983 468.1 717.7401)" class="st5 st7 st104">E</text>
<text transform="matrix(0.9783 -0.2074 0.2074 0.9783 475.4 716.3801)" class="st5 st7 st104">S</text>
<text transform="matrix(0.5253 0.8509 -0.8509 0.5253 146.0603 570.42)" class="st5 st7 st104">C</text>
<text transform="matrix(0.5489 0.8359 -0.8359 0.5489 150.18 577.1299)" class="st5 st7 st104">O</text>
<text transform="matrix(0.5774 0.8164 -0.8164 0.5774 155.63 585.4599)" class="st5 st7 st104">M</text>
<text transform="matrix(0.6049 0.7963 -0.7963 0.6049 162.4404 595.05)" class="st5 st7 st104">U</text>
<text transform="matrix(0.6283 0.7779 -0.7779 0.6283 168.1701 602.5997)" class="st5 st7 st129">N</text>
<text transform="matrix(0.6455 0.7638 -0.7638 0.6455 174.2302 610.0499)" class="st5 st7 st104">I</text>
<text transform="matrix(0.6618 0.7496 -0.7496 0.6618 176.7604 613.1)" class="st5 st7 st104">D</text>
<text transform="matrix(0.6816 0.7317 -0.7317 0.6816 183.0102 620.17)" class="st5 st7 st119">A</text>
<text transform="matrix(0.705 0.7092 -0.7092 0.705 189.2298 626.8199)" class="st5 st7 st104">D</text>
</svg>
