<?xml version="1.0" encoding="utf-8"?>
<!-- Generator: Adobe Illustrator 25.1.0, SVG Export Plug-In . SVG Version: 6.00 Build 0)  -->
<svg version="1.1" id="Layer_1" xmlns="http://www.w3.org/2000/svg" xmlns:xlink="http://www.w3.org/1999/xlink" x="0px" y="0px"
	 viewBox="0 0 827.8 827.8" style="enable-background:new 0 0 827.8 827.8;" xml:space="preserve">
<style type="text/css">
	.st0{opacity:0.25;}
	.st1{fill:#E7ECED;}
	.st2{fill:#6AAAE4;}
	.st3{fill:#FFFFFF;}
	.st4{fill:#0071CE;}
	.st5{fill:#7F3F97;}
	.st6{fill:#002F87;}
	.st7{fill:#FFB71B;}
	.st8{fill:#A87C4F;}
	.st9{fill:#F27B21;}
	.st10{fill:#76BC21;}
</style>
<g class="st0">
	<path class="st1" d="M413.9,790.8c209,0,378.3-168.7,378.3-376.9S622.9,37,413.9,37S35.6,205.7,35.6,413.9S204.9,790.8,413.9,790.8
		"/>
</g>
<g>
	<path class="st2" d="M632.5,195.3c-58.4-58.4-136.1-90.6-218.6-90.6s-160.2,32.1-218.6,90.6s-90.6,136.1-90.6,218.6
		s32.1,160.2,90.6,218.6s136.1,90.6,218.6,90.6s160.2-32.2,218.6-90.6s90.6-136.1,90.6-218.6S690.9,253.7,632.5,195.3z M568.2,568.2
		c-41.2,41.2-96,63.9-154.3,63.9s-113-22.7-154.3-63.9c-41.2-41.2-63.9-96-63.9-154.3s22.7-113,63.9-154.3
		c41.2-41.2,96-63.9,154.3-63.9s113,22.7,154.3,63.9c41.2,41.2,63.9,96,63.9,154.3S609.4,526.9,568.2,568.2z"/>
	<path class="st3" d="M413.9,227.5c-102.8,0-186.4,83.7-186.4,186.4s83.7,186.4,186.4,186.4s186.4-83.7,186.4-186.4
		S516.7,227.5,413.9,227.5z M413.9,558.5c-79.8,0-144.6-64.9-144.6-144.6s64.9-144.6,144.6-144.6s144.6,64.9,144.6,144.6
		S493.7,558.5,413.9,558.5z"/>
	<g>
		<g>
			<path class="st3" d="M322.5,696l-0.9,1.4l-1.4-0.4l3.8-5.5l1.8,0.6l-0.1,6.7l-1.4-0.4v-1.7L322.5,696z M324.2,695.5V694
				c0-0.4,0-0.9,0.1-1.2l0,0c-0.2,0.3-0.4,0.8-0.7,1.1l-0.8,1.2L324.2,695.5z"/>
			<path class="st3" d="M330.8,694.9l-1.7-0.4l0.3-1.1l4.7,1.3l-0.3,1.1l-1.7-0.4l-1.4,4.9l-1.3-0.4L330.8,694.9z"/>
			<path class="st3" d="M334.9,694.9c0.4,0,1.1,0.2,1.9,0.3c0.9,0.2,1.6,0.6,1.9,1c0.3,0.4,0.3,0.9,0.2,1.4
				c-0.2,0.8-0.9,1.2-1.4,1.2l0,0c0.3,0.3,0.6,0.8,0.6,1.3c0,0.8,0,1.6,0,1.9l-1.4-0.3c0-0.2-0.1-0.8,0-1.6c0-0.8-0.1-1.1-0.8-1.2
				l-0.4-0.1l-0.7,2.4l-1.3-0.3L334.9,694.9z M335.6,698l0.6,0.1c0.7,0.2,1.2,0,1.3-0.6c0.1-0.6-0.1-1-0.8-1.1
				c-0.3-0.1-0.6-0.1-0.7-0.1L335.6,698z"/>
			<path class="st3" d="M340.7,701.4l-0.9,1.4l-1.4-0.3l3.4-5.7l1.8,0.4l0.3,6.7l-1.6-0.3l-0.1-1.7L340.7,701.4z M342.5,700.7v-1.4
				c0-0.4,0-0.9,0-1.2l0,0c-0.2,0.3-0.4,0.8-0.6,1.1l-0.7,1.2L342.5,700.7z"/>
			<path class="st3" d="M346,704.4l-0.6-6.7l1.6,0.3l0.1,2.8c0,0.8,0.1,1.6,0,2.3l0,0c0.3-0.7,0.7-1.4,1.1-2.1l1.4-2.4l1.4,0.3
				l-3.6,5.7L346,704.4z"/>
			<path class="st3" d="M354.7,703.5l-2.3-0.4l-0.3,1.4l2.6,0.6l-0.2,1.1l-4-0.9l1.3-6.2l3.9,0.8l-0.2,1.1l-2.4-0.6l-0.2,1.3
				l2.3,0.4L354.7,703.5z M355.7,698.4l-1.3,0.9l-1.1-0.2l1-1L355.7,698.4z"/>
			<path class="st3" d="M355.8,704.9c0.3,0.2,0.9,0.6,1.4,0.7c0.7,0.1,1-0.1,1.1-0.4c0.1-0.4-0.2-0.7-0.9-1.1
				c-1-0.6-1.6-1.2-1.3-2.2c0.2-1.1,1.2-1.7,2.8-1.4c0.7,0.1,1.2,0.3,1.6,0.7l-0.6,1.1c-0.2-0.2-0.7-0.4-1.2-0.6
				c-0.7-0.1-1,0.1-1,0.4c-0.1,0.4,0.2,0.7,1,1.1c1,0.7,1.4,1.3,1.2,2.2c-0.2,1-1.2,1.8-2.9,1.4c-0.7-0.1-1.3-0.4-1.7-0.8
				L355.8,704.9z"/>
			<path class="st3" d="M363.4,701.5c0.6,0,1.2,0.1,1.9,0.2c1.2,0.2,1.9,0.6,2.4,1.1c0.6,0.6,0.9,1.4,0.7,2.6
				c-0.2,1.2-0.8,2-1.4,2.3c-0.8,0.4-1.8,0.6-3,0.3c-0.8-0.1-1.2-0.2-1.6-0.3L363.4,701.5z M364,706.8c0.1,0,0.3,0.1,0.4,0.1
				c1.3,0.2,2.2-0.3,2.4-1.9c0.2-1.3-0.4-2.1-1.7-2.3c-0.3,0-0.6-0.1-0.7,0L364,706.8z"/>
			<path class="st3" d="M373.1,706.6l-2.3-0.3l-0.2,1.4l2.6,0.3l-0.2,1.2l-4-0.6l0.9-6.3l3.9,0.6l-0.2,1.2l-2.4-0.3l-0.2,1.3
				l2.3,0.3L373.1,706.6z"/>
			<path class="st3" d="M375.9,709.7l0.8-6.3l1.7,0.2l1,2.4c0.3,0.7,0.6,1.6,0.8,2.3l0,0c0-0.9,0.1-1.7,0.2-2.7l0.2-1.9l1.3,0.1
				l-0.8,6.3l-1.6-0.2l-1.1-2.6c-0.3-0.7-0.6-1.6-0.8-2.3l0,0c-0.1,0.9-0.1,1.8-0.2,2.8l-0.2,1.9L375.9,709.7z"/>
			<path class="st3" d="M384.4,704.3l-0.3,3.7c-0.1,1.1,0.2,1.7,1,1.8s1.2-0.4,1.3-1.6l0.3-3.7l1.4,0.1l-0.3,3.6
				c-0.2,2-1.2,2.8-2.9,2.7c-1.6-0.1-2.4-1.1-2.2-3.1l0.3-3.6L384.4,704.3z"/>
			<path class="st3" d="M392.9,708.7l-2.3-0.2l-0.1,1.6l2.6,0.2l-0.1,1.2l-4-0.3l0.4-6.3l3.9,0.3l-0.1,1.2l-2.4-0.2l-0.1,1.3
				l2.3,0.2L392.9,708.7z"/>
			<path class="st3" d="M394.2,710c0.3,0.2,1,0.4,1.6,0.4c0.7,0,1-0.2,1-0.7c0-0.4-0.2-0.7-1-1c-1-0.4-1.7-1.1-1.7-2
				c0.1-1.1,1-1.9,2.6-1.8c0.7,0,1.2,0.2,1.6,0.4l-0.4,1.1c-0.2-0.1-0.7-0.3-1.3-0.3s-0.9,0.2-1,0.6c0,0.4,0.3,0.6,1.1,1
				c1.1,0.4,1.6,1.1,1.6,2c-0.1,1.1-0.9,1.9-2.7,1.8c-0.8,0-1.4-0.2-1.8-0.4L394.2,710z"/>
			<path class="st3" d="M400.7,706.7l-1.7-0.1v-1.2l4.9,0.2v1.2l-1.8-0.1l-0.2,5.1l-1.4-0.1L400.7,706.7z"/>
			<path class="st3" d="M404.6,705.7c0.4-0.1,1.1-0.1,1.9-0.1c1,0,1.6,0.2,2,0.6c0.3,0.3,0.6,0.8,0.6,1.3c0,0.8-0.6,1.3-1.1,1.6l0,0
				c0.4,0.2,0.7,0.7,0.8,1.2c0.2,0.8,0.3,1.6,0.4,1.8h-1.4c-0.1-0.2-0.2-0.7-0.4-1.4c-0.1-0.8-0.4-1-1-1h-0.4l-0.1,2.6h-1.4
				L404.6,705.7z M405.9,708.5h0.6c0.7,0,1.1-0.3,1.1-0.9s-0.3-0.9-1-0.9c-0.3,0-0.6,0-0.7,0V708.5z"/>
			<path class="st3" d="M411.8,710.5l-0.4,1.7h-1.4l2-6.3h1.9l1.9,6.5h-1.6l-0.4-1.7L411.8,710.5z M413.5,709.4l-0.3-1.3
				c-0.1-0.3-0.2-0.9-0.3-1.2l0,0c-0.1,0.3-0.2,0.9-0.3,1.2l-0.4,1.3H413.5z"/>
			<path class="st3" d="M418.5,705.7l3.9-0.1v1.2h-2.4v1.4h2.3v1.2h-2.3v2.6h-1.4V705.7z"/>
			<path class="st3" d="M429.1,708.5c0.1,2.1-1.1,3.4-3,3.4c-1.9,0.1-3-1.3-3.1-3.1c-0.1-1.9,1.1-3.3,3-3.4
				C428,705.4,429.1,706.7,429.1,708.5z M424.6,708.8c0,1.2,0.7,2.1,1.7,2.1s1.4-1,1.4-2.2c0-1.1-0.7-2.1-1.7-2.1
				C425,706.6,424.6,707.5,424.6,708.8z"/>
			<path class="st3" d="M429.9,705.4c0.4-0.1,1.1-0.2,1.9-0.2c0.9-0.1,1.7,0,2.1,0.3c0.4,0.3,0.7,0.7,0.7,1.3c0,0.8-0.4,1.4-1,1.7
				l0,0c0.4,0.1,0.8,0.6,0.9,1.1c0.2,0.7,0.4,1.6,0.7,1.8l-1.4,0.1c-0.1-0.2-0.3-0.7-0.6-1.4c-0.2-0.8-0.6-1-1.1-1h-0.4l0.1,2.4
				l-1.4,0.1L429.9,705.4z M431.6,708h0.6c0.7,0,1.1-0.4,1.1-1s-0.4-0.9-1.1-0.8c-0.3,0-0.6,0.1-0.7,0.1L431.6,708z"/>
			<path class="st3" d="M441.3,708.5c-0.1-0.8-0.2-1.7-0.2-2.6l0,0c-0.1,0.8-0.3,1.8-0.4,2.6L440,711l-1.1,0.1l-0.9-2.4
				c-0.2-0.8-0.6-1.6-0.8-2.4l0,0c0,0.9,0.1,1.9,0.1,2.7l0.1,2.4l-1.3,0.1l-0.1-6.3l1.9-0.1l0.8,2.1c0.2,0.7,0.6,1.4,0.8,2.2l0,0
				c0.1-0.8,0.2-1.6,0.4-2.3l0.4-2.1l1.9-0.1l0.9,6.3l-1.4,0.1L441.3,708.5z"/>
			<path class="st3" d="M445.5,708.8l-0.2,1.7l-1.4,0.1l1.2-6.6l1.9-0.2l2.7,6.1l-1.6,0.2l-0.7-1.6L445.5,708.8z M446.9,707.6
				l-0.6-1.3c-0.1-0.3-0.3-0.8-0.4-1.2l0,0c0,0.3-0.1,0.9-0.1,1.2l-0.2,1.3H446.9z"/>
			<path class="st3" d="M451.3,703.5c0.6-0.1,1.2-0.3,1.9-0.4c1.2-0.1,2-0.1,2.7,0.3c0.7,0.4,1.2,1.1,1.4,2.2
				c0.1,1.2-0.1,2.1-0.7,2.7c-0.6,0.7-1.6,1-2.8,1.2c-0.8,0.1-1.2,0.1-1.7,0.1L451.3,703.5z M453.5,708.4c0.1,0,0.3,0,0.4,0
				c1.3-0.2,2-1,1.8-2.6c-0.2-1.3-1-1.9-2.2-1.8c-0.3,0-0.6,0.1-0.7,0.1L453.5,708.4z"/>
			<path class="st3" d="M462.1,705.5l-2.3,0.3l0.2,1.4l2.6-0.4l0.2,1.1l-4,0.7l-1-6.3l3.9-0.7l0.2,1.1l-2.4,0.3l0.2,1.3l2.3-0.3
				L462.1,705.5z"/>
			<path class="st3" d="M465.9,702.4l-1.7,0.3l-0.2-1.2l4.8-0.9l0.2,1.2l-1.7,0.3l0.9,5.1l-1.4,0.2L465.9,702.4z"/>
			<path class="st3" d="M469.5,700.5c0.4-0.1,1.1-0.3,1.9-0.6c0.9-0.2,1.6-0.2,2.1,0.1c0.4,0.2,0.7,0.7,0.9,1.2
				c0.1,0.8-0.3,1.4-0.8,1.8l0,0c0.4,0.1,0.8,0.4,1.1,1c0.3,0.7,0.7,1.4,0.9,1.7l-1.4,0.3c-0.1-0.1-0.3-0.7-0.8-1.3
				c-0.3-0.8-0.7-0.9-1.2-0.8l-0.4,0.1l0.4,2.4l-1.4,0.3L469.5,700.5z M471.4,702.9l0.6-0.1c0.7-0.1,1-0.6,0.9-1.1
				c-0.1-0.6-0.6-0.8-1.2-0.7c-0.3,0.1-0.6,0.1-0.7,0.2L471.4,702.9z"/>
			<path class="st3" d="M477.6,703.6l-0.1,1.7l-1.4,0.3l0.6-6.7l1.9-0.4l3.3,5.8l-1.6,0.3l-0.9-1.4L477.6,703.6z M479,702.1
				l-0.7-1.2c-0.2-0.3-0.4-0.8-0.6-1.1l0,0c0,0.4,0,0.9,0,1.2l-0.1,1.4L479,702.1z"/>
			<path class="st3" d="M481.1,698c0.3-0.1,1.1-0.4,1.8-0.6c0.9-0.2,1.4-0.2,1.9-0.1c0.4,0.1,0.9,0.4,1,1c0.1,0.6-0.1,1.1-0.7,1.6
				l0,0c0.8,0,1.4,0.4,1.6,1.2c0.1,0.6,0,1.1-0.3,1.4c-0.3,0.4-1.1,0.9-2.3,1.1c-0.7,0.2-1.2,0.2-1.6,0.3L481.1,698z M483,700
				l0.4-0.1c0.8-0.2,1-0.6,0.9-1c-0.1-0.4-0.6-0.7-1.1-0.4c-0.3,0.1-0.4,0.1-0.6,0.2L483,700z M483.7,702.8c0.1,0,0.3-0.1,0.6-0.1
				c0.7-0.1,1.1-0.6,1-1.2c-0.1-0.7-0.8-0.8-1.4-0.6l-0.4,0.1L483.7,702.8z"/>
			<path class="st3" d="M489.1,700.8v1.7l-1.4,0.3l0.2-6.7l1.8-0.4l3.6,5.7l-1.4,0.4l-0.9-1.4L489.1,700.8z M490.3,699.4l-0.8-1.2
				c-0.2-0.3-0.4-0.8-0.7-1.1l0,0c0,0.4,0,0.9,0,1.2v1.4L490.3,699.4z"/>
			<path class="st3" d="M493.8,694.6l1.3-0.4l1.1,3.9c0.4,1.8-0.1,2.6-1.6,3c-0.3,0.1-0.8,0.1-1,0.1l-0.1-1.1c0.2,0,0.4,0,0.8-0.1
				c0.6-0.1,0.9-0.6,0.6-1.4L493.8,694.6z"/>
			<path class="st3" d="M498.9,698v1.7l-1.4,0.4v-6.7l1.8-0.6l3.8,5.6l-1.4,0.4l-1-1.4L498.9,698z M500.2,696.6l-0.8-1.2
				c-0.2-0.3-0.4-0.8-0.7-1.1l0,0c0,0.3,0.1,0.9,0.1,1.2v1.4L500.2,696.6z"/>
			<path class="st3" d="M502,692.2c0.4-0.2,1-0.4,1.8-0.7c0.9-0.3,1.6-0.3,2.1-0.1c0.4,0.2,0.8,0.6,1,1.1c0.2,0.8-0.1,1.4-0.6,1.9
				l0,0c0.4,0,0.9,0.3,1.2,0.9c0.4,0.7,0.9,1.3,1,1.6l-1.4,0.4c-0.1-0.1-0.4-0.6-0.9-1.2c-0.4-0.7-0.8-0.8-1.3-0.7l-0.4,0.1l0.8,2.3
				l-1.3,0.4L502,692.2z M504.2,694.4l0.6-0.2c0.7-0.2,1-0.7,0.8-1.2c-0.2-0.6-0.7-0.7-1.3-0.6c-0.3,0.1-0.6,0.2-0.6,0.2
				L504.2,694.4z"/>
		</g>
	</g>
	<g>
		<g>
			<path class="st3" d="M363.4,121.9v0.2c0.1,0.4,0,1-0.3,1.6c-0.2,0.4-0.4,0.8-0.3,1c0.1,0.3,0.3,0.6,0.8,0.4
				c0.3,0,0.7-0.2,0.9-0.4l0.4,1c-0.3,0.2-0.8,0.6-1.4,0.7c-1.2,0.2-1.9-0.3-2-1.1c-0.1-0.7,0.2-1.2,0.6-1.7
				c0.2-0.4,0.3-0.8,0.3-1.2v-0.1L363.4,121.9z M363.4,120.4c0.1,0.4-0.2,0.9-0.7,1c-0.4,0.1-0.9-0.2-1-0.7c-0.1-0.4,0.2-0.9,0.7-1
				C362.8,119.7,363.3,120,363.4,120.4z"/>
			<path class="st3" d="M370.3,124.9c-0.2,0.2-0.8,0.4-1.6,0.6c-2.2,0.3-3.6-0.9-3.8-2.7c-0.3-2.1,1-3.6,2.9-3.9
				c0.8-0.1,1.3,0,1.6,0l-0.1,1.2c-0.3-0.1-0.8-0.1-1.2,0c-1.1,0.2-1.9,1-1.7,2.4c0.2,1.2,1.1,1.9,2.3,1.8c0.4-0.1,0.9-0.2,1.1-0.4
				L370.3,124.9z"/>
			<path class="st3" d="M376.5,120.9c0.3,2.1-0.8,3.4-2.7,3.8c-1.9,0.2-3.1-1-3.4-2.8c-0.2-1.9,0.8-3.4,2.7-3.7
				C375,117.9,376.3,119.1,376.5,120.9z M372,121.5c0.2,1.2,0.9,2,1.8,1.9c1-0.1,1.4-1.1,1.2-2.3c-0.1-1.1-0.8-2-1.8-1.9
				C372.2,119.3,371.7,120.3,372,121.5z M374.5,116.4l-1,1.3l-1.1,0.1l0.7-1.2L374.5,116.4z"/>
			<path class="st3" d="M383,121c-0.1-0.8-0.2-1.7-0.3-2.6l0,0c-0.1,0.8-0.2,1.8-0.4,2.6l-0.4,2.6l-1.1,0.1l-1-2.3
				c-0.3-0.7-0.6-1.6-0.9-2.4l0,0c0.1,0.9,0.1,1.9,0.2,2.7l0.1,2.4l-1.3,0.1l-0.3-6.3l1.9-0.2l0.9,2c0.3,0.7,0.6,1.4,0.8,2.2l0,0
				c0.1-0.8,0.2-1.7,0.3-2.3l0.4-2.2l1.9-0.2l1,6.3l-1.4,0.1L383,121z"/>
			<path class="st3" d="M391.4,119.4c0.2,2.1-1,3.4-2.8,3.6c-1.9,0.1-3.1-1.2-3.2-3c-0.1-1.9,0.9-3.4,2.8-3.6
				C390.1,116.3,391.3,117.7,391.4,119.4z M386.9,119.9c0.1,1.2,0.8,2.1,1.8,2c1-0.1,1.4-1,1.3-2.3c-0.1-1.1-0.8-2.1-1.7-2
				C387.2,117.7,386.8,118.7,386.9,119.9z"/>
			<path class="st3" d="M394.1,116.1l1.4-0.1l0.3,5.1l2.6-0.1l0.1,1.2l-4,0.2L394.1,116.1z"/>
			<path class="st3" d="M404.9,118.7c0.1,2.1-1.1,3.4-3,3.4c-1.9,0.1-3-1.3-3.1-3.1c-0.1-1.9,1.1-3.3,3-3.4
				C403.7,115.5,404.9,117,404.9,118.7z M400.3,119c0,1.2,0.7,2.1,1.7,2.1c1,0,1.4-1,1.4-2.2c0-1.1-0.7-2.1-1.7-2.1
				C400.8,116.8,400.2,117.8,400.3,119z"/>
			<path class="st3" d="M407.8,115.5h1.4l0.1,5.1h2.6v1.2l-4,0.1L407.8,115.5z"/>
			<path class="st3" d="M418.5,118.7c0,2.1-1.3,3.3-3.2,3.3c-1.9,0-3-1.4-2.9-3.3c0-1.9,1.2-3.3,3.1-3.3
				C417.5,115.4,418.5,116.9,418.5,118.7z M413.8,118.7c0,1.2,0.6,2.1,1.6,2.1c1,0,1.6-0.9,1.6-2.1c0-1.1-0.6-2.1-1.6-2.1
				C414.5,116.5,413.8,117.4,413.8,118.7z"/>
			<path class="st3" d="M424.8,121.8c-0.4,0.1-1.3,0.3-2.1,0.3c-1.1,0-2-0.3-2.6-0.9c-0.6-0.6-0.9-1.4-0.9-2.3
				c0.1-2.1,1.7-3.3,3.8-3.2c0.8,0,1.4,0.2,1.8,0.3l-0.3,1.1c-0.3-0.1-0.8-0.3-1.4-0.3c-1.2,0-2.1,0.7-2.1,2c0,1.3,0.8,2.1,2,2.1
				c0.3,0,0.6,0,0.7-0.1v-1.3h-1v-1.1l2.3,0.1L424.8,121.8z"/>
			<path class="st3" d="M426.2,115.8c0.4,0,1.1-0.1,1.9,0c0.9,0,1.6,0.2,2,0.6c0.3,0.3,0.6,0.8,0.6,1.3c0,0.8-0.7,1.3-1.2,1.6l0,0
				c0.4,0.2,0.7,0.7,0.8,1.2c0.1,0.8,0.3,1.6,0.4,1.8l-1.4-0.1c-0.1-0.2-0.2-0.7-0.3-1.6c-0.1-0.8-0.4-1-1-1.1h-0.4l-0.1,2.4
				l-1.4-0.1L426.2,115.8z M427.6,118.5h0.6c0.7,0,1.1-0.3,1.2-0.9c0-0.6-0.3-0.9-1-0.9c-0.3,0-0.6,0-0.7,0L427.6,118.5z"/>
			<path class="st3" d="M433.4,120.9l-0.6,1.6l-1.4-0.1l2.3-6.2l1.9,0.1l1.6,6.5l-1.6-0.1l-0.3-1.7L433.4,120.9z M435,119.9
				l-0.3-1.3c-0.1-0.3-0.2-0.9-0.2-1.2l0,0c-0.1,0.3-0.2,0.9-0.3,1.2l-0.4,1.3H435z"/>
			<path class="st3" d="M443.6,120.9c0-0.8,0.1-1.7,0.2-2.7l0,0c-0.2,0.8-0.7,1.7-0.9,2.4l-1,2.4l-1.1-0.1l-0.4-2.6
				c-0.1-0.8-0.2-1.7-0.3-2.6l0,0c-0.1,0.9-0.2,1.8-0.3,2.7l-0.3,2.4l-1.3-0.1l1-6.3l1.9,0.2l0.4,2.2c0.1,0.8,0.2,1.6,0.3,2.3l0,0
				c0.2-0.7,0.6-1.6,0.8-2.2l0.9-2l1.9,0.2l-0.2,6.3l-1.4-0.1L443.6,120.9z"/>
			<path class="st3" d="M452.2,121c-0.2,2.1-1.7,3.2-3.4,3c-1.9-0.2-2.8-1.8-2.6-3.6c0.2-1.9,1.6-3.2,3.4-3
				C451.5,117.7,452.4,119.2,452.2,121z M447.6,120.5c-0.1,1.2,0.3,2.2,1.3,2.3c1,0.1,1.7-0.8,1.8-2c0.1-1.1-0.3-2.2-1.3-2.3
				C448.5,118.4,447.8,119.3,447.6,120.5z"/>
			<path class="st3" d="M452.9,122.9c0.3,0.2,0.9,0.6,1.6,0.6c0.7,0.1,1-0.1,1.1-0.6c0-0.4-0.2-0.7-0.9-1c-1-0.6-1.6-1.2-1.4-2.1
				c0.1-1.1,1.1-1.8,2.7-1.6c0.7,0.1,1.2,0.3,1.6,0.6l-0.4,1.1c-0.2-0.1-0.7-0.4-1.3-0.4c-0.7-0.1-1,0.1-1,0.4c-0.1,0.4,0.2,0.7,1,1
				c1.1,0.6,1.6,1.2,1.3,2.1c-0.1,1.1-1.1,1.9-2.8,1.6c-0.7-0.1-1.4-0.3-1.8-0.7L452.9,122.9z"/>
			<path class="st3" d="M458.3,124.3c0.1-0.4,0.4-0.8,1-0.7c0.6,0.1,0.8,0.4,0.7,1c-0.1,0.4-0.4,0.8-1,0.7
				C458.4,125.3,458.2,124.9,458.3,124.3z M458.7,123.1v-0.2c0-0.4,0.3-0.9,0.8-1.3c0.3-0.3,0.7-0.6,0.7-0.9s-0.1-0.6-0.6-0.7
				c-0.3,0-0.7,0-1,0.1l-0.1-1.1c0.3-0.1,1-0.2,1.7-0.1c1.2,0.2,1.7,1,1.6,1.8c-0.1,0.7-0.7,1.1-1,1.4c-0.4,0.3-0.6,0.7-0.7,1.1v0.2
				L458.7,123.1z"/>
		</g>
	</g>
	<g>
		<g>
			<path class="st4" d="M251.1,473.4l-2,0.2l-0.7-1.7l7.8-0.4l0.8,2.1l-6.2,4.8l-0.7-1.7l1.6-1.2L251.1,473.4z M253,474.8l1.3-1
				c0.3-0.3,0.9-0.6,1.2-0.9l0,0c-0.4,0-1,0.1-1.4,0.2l-1.7,0.1L253,474.8z"/>
			<path class="st4" d="M259,478.2l-2.7,1.1l1.1,2.6l2.7-1.1l0.7,1.6l-6.9,2.9l-0.7-1.6l2.9-1.2l-1.1-2.6l-2.9,1.2l-0.7-1.6l6.9-2.9
				L259,478.2z"/>
			<path class="st4" d="M261,491.5c-2.2,1.1-4.2,0.3-5.1-1.6c-1-2,0-3.9,1.9-4.8c2-1,4.1-0.4,5.1,1.6
				C263.9,488.8,262.9,490.7,261,491.5z M258.6,486.8c-1.3,0.7-2,1.7-1.4,2.8c0.4,1,1.8,1.1,3.1,0.6c1.2-0.6,2-1.7,1.4-2.7
				C261.3,486.2,259.9,486.1,258.6,486.8z"/>
			<path class="st4" d="M264.9,491.2c0.3,0.4,0.8,1.1,1.2,1.9c0.6,1,0.8,1.8,0.7,2.4c-0.1,0.6-0.4,1-1,1.3c-0.9,0.4-1.8,0.1-2.2-0.3
				l0,0c0.1,0.6-0.2,1-0.8,1.6c-0.7,0.6-1.3,1.2-1.6,1.6l-0.8-1.6c0.1-0.2,0.6-0.7,1.3-1.3c0.8-0.7,0.8-1,0.4-1.7l-0.2-0.4l-2.6,1.4
				l-0.8-1.4L264.9,491.2z M262.8,494.2l0.3,0.6c0.4,0.8,1,1,1.6,0.7c0.6-0.3,0.7-0.9,0.3-1.6c-0.2-0.3-0.3-0.6-0.4-0.7L262.8,494.2
				z"/>
			<path class="st4" d="M268.2,497.1c0.3,0.4,0.8,1.1,1.3,1.9c0.6,1,0.8,1.7,0.7,2.3c-0.1,0.6-0.4,1-1,1.3c-0.8,0.4-1.8,0.2-2.2-0.2
				l0,0c0.1,0.6-0.2,1.1-0.7,1.6c-0.6,0.7-1.3,1.3-1.6,1.6l-0.9-1.4c0.1-0.2,0.6-0.7,1.2-1.3s0.8-1,0.4-1.7l-0.2-0.4l-2.6,1.4
				l-0.9-1.4L268.2,497.1z M266.2,500.2l0.3,0.6c0.4,0.8,1,0.9,1.6,0.6c0.6-0.3,0.7-0.9,0.2-1.6c-0.2-0.3-0.3-0.6-0.4-0.7
				L266.2,500.2z"/>
			<path class="st4" d="M268.1,507.5l-1.9,0.6l-1-1.4l7.6-2.1l1.2,1.9l-5,6l-1-1.6l1.3-1.6L268.1,507.5z M270.1,508.5l1.1-1.2
				c0.3-0.3,0.7-0.8,1-1.1l0,0c-0.4,0.1-1,0.3-1.4,0.4l-1.6,0.4L270.1,508.5z"/>
			<path class="st4" d="M275.6,509.1c0.3,0.4,0.9,1,1.4,1.8c0.7,0.9,1,1.7,0.9,2.3c0,0.6-0.3,1.1-0.9,1.4c-0.8,0.6-1.7,0.3-2.2,0
				l0,0c0.1,0.6-0.1,1.1-0.6,1.7c-0.6,0.7-1.2,1.4-1.3,1.7l-1-1.4c0.1-0.2,0.4-0.7,1.1-1.4c0.7-0.7,0.7-1.1,0.2-1.7L273,513
				l-2.4,1.7l-1-1.3L275.6,509.1z M274,512.4l0.3,0.6c0.4,0.7,1.1,0.9,1.7,0.4c0.6-0.4,0.6-1,0.1-1.7c-0.2-0.3-0.4-0.6-0.4-0.6
				L274,512.4z"/>
			<path class="st4" d="M279.6,514.6l1,1.3l-4.8,3.7l1.8,2.3l-1.1,0.9l-2.9-3.7L279.6,514.6z"/>
			<path class="st4" d="M282.6,525.3l-1.8-2.1l-1.3,1.1l2,2.3l-1.1,0.9l-3-3.7l5.8-4.8l2.9,3.6l-1.1,0.9l-1.9-2.2l-1.2,1l1.8,2.1
				L282.6,525.3z"/>
			<path class="st4" d="M288.4,525.5c0.4,0.4,1.1,1,1.7,1.6c1,1,1.4,1.9,1.4,2.8c0.1,1-0.2,2-1.2,2.9c-1,1-2.1,1.2-3.1,1.1
				c-1-0.1-2.1-0.8-3.1-1.9c-0.6-0.7-1-1.1-1.2-1.4L288.4,525.5z M285.1,530.8c0.1,0.1,0.2,0.3,0.3,0.4c1,1.1,2.3,1.3,3.7,0.1
				c1.1-1,1.1-2.2,0.1-3.3c-0.2-0.2-0.4-0.4-0.6-0.6L285.1,530.8z"/>
			<path class="st4" d="M295.1,532.3l-5.3,5.2l-1.2-1.2l5.3-5.2L295.1,532.3z"/>
			<path class="st4" d="M291.1,538.9l5.1-5.5l1.4,1.3l-0.8,3.1c-0.2,0.9-0.6,1.9-0.9,2.7l0,0c0.6-0.8,1.2-1.6,2-2.3l1.6-1.6l1.1,1.1
				l-5.1,5.5l-1.3-1.2l0.8-3.2c0.2-0.9,0.6-1.9,0.9-2.8l0,0c-0.7,0.8-1.3,1.6-2.2,2.4l-1.6,1.7L291.1,538.9z"/>
			<path class="st4" d="M302.4,544.9l-2.1-1.8l-1.2,1.3l2.3,2l-0.9,1l-3.6-3.1l4.9-5.7l3.4,3l-0.9,1l-2.2-1.9l-1,1.2l2.1,1.8
				L302.4,544.9z"/>
			<path class="st4" d="M306.4,542.8c0.4,0.2,1.1,0.8,1.9,1.3c0.9,0.7,1.3,1.3,1.6,2c0.1,0.6,0,1.1-0.4,1.7
				c-0.6,0.8-1.6,0.8-2.2,0.6l0,0c0.2,0.4,0.2,1.1-0.1,1.7c-0.3,0.8-0.8,1.7-0.9,2l-1.3-1.1c0-0.2,0.3-0.8,0.7-1.7
				c0.4-0.9,0.3-1.2-0.2-1.7l-0.4-0.3l-1.9,2.3l-1.3-1L306.4,542.8z M305.8,546.4l0.6,0.4c0.7,0.6,1.3,0.6,1.8,0
				c0.4-0.6,0.3-1.1-0.3-1.6c-0.3-0.2-0.6-0.3-0.7-0.4L305.8,546.4z"/>
			<path class="st4" d="M315.1,554c-1.4,2-3.6,2.3-5.3,1c-1.8-1.3-1.9-3.4-0.6-5.1c1.3-1.8,3.4-2.3,5.2-1
				C316.3,550.2,316.3,552.3,315.1,554z M310.7,550.8c-0.9,1.2-0.9,2.4,0,3.1c0.9,0.7,2.1,0.2,3-1c0.8-1.1,1-2.4,0-3.1
				C312.7,549.2,311.6,549.7,310.7,550.8z"/>
			<path class="st4" d="M318.5,558.5l-1.4,1.3l-1.4-1l6-5l1.9,1.2l-2.1,7.6l-1.6-1l0.6-1.9L318.5,558.5z M320.8,558.5l0.4-1.6
				c0.1-0.4,0.3-1,0.4-1.4l0,0c-0.3,0.3-0.8,0.8-1.1,1l-1.2,1.1L320.8,558.5z"/>
			<path class="st4" d="M324.5,564.6l3.7-6.6l1.7,1v3.1c0,0.9-0.1,1.9-0.2,2.9l0,0c0.4-0.9,0.9-1.8,1.4-2.8l1.1-1.9l1.3,0.8
				l-3.7,6.6l-1.6-0.9v-3.3c0-0.9,0.1-2,0.2-2.9l0,0c-0.4,0.9-1,1.8-1.6,2.9l-1.1,2L324.5,564.6z"/>
			<path class="st4" d="M336.5,562.6l-2,3.9c-0.6,1.1-0.4,2,0.3,2.3c0.8,0.4,1.6,0.1,2.1-1.1l2-3.9l1.6,0.8l-1.9,3.8
				c-1,2.1-2.6,2.6-4.3,1.7c-1.7-0.9-2.2-2.3-1.1-4.4l1.9-3.7L336.5,562.6z"/>
			<path class="st4" d="M344,571.2l-2.6-1.1l-0.8,1.7l2.8,1.3l-0.6,1.2l-4.3-2l3.1-6.8l4.2,1.9l-0.6,1.2l-2.7-1.2l-0.7,1.4l2.6,1.1
				L344,571.2z"/>
			<path class="st4" d="M345.2,573.2c0.3,0.4,0.9,0.9,1.6,1.1c0.7,0.3,1.2,0.1,1.4-0.3c0.2-0.4,0-0.8-0.8-1.4c-1-0.9-1.4-1.8-1-2.8
				c0.4-1.2,1.9-1.7,3.4-1c0.8,0.3,1.3,0.8,1.7,1.1l-0.9,1.1c-0.2-0.2-0.7-0.7-1.3-0.9c-0.7-0.3-1.1-0.1-1.3,0.2
				c-0.2,0.4,0.1,0.8,0.9,1.6c1,1,1.3,1.9,0.9,2.8c-0.4,1.1-1.8,1.8-3.7,1c-0.8-0.3-1.4-0.9-1.8-1.2L345.2,573.2z"/>
			<path class="st4" d="M353.7,572l-1.9-0.7l0.4-1.3l5.5,2l-0.4,1.3l-1.9-0.7l-2.1,5.7l-1.6-0.6L353.7,572z"/>
			<path class="st4" d="M358.6,572.4c0.6,0.1,1.3,0.3,2.2,0.6c1,0.3,1.8,0.8,2.1,1.3c0.3,0.4,0.3,1,0.1,1.7
				c-0.3,0.9-1.1,1.3-1.9,1.3l0,0c0.4,0.3,0.6,0.9,0.6,1.7c0,0.9-0.1,1.9-0.1,2.2l-1.7-0.6c0-0.2,0-0.9,0-1.8c0.1-1-0.1-1.3-0.8-1.6
				l-0.4-0.1l-0.9,2.8l-1.6-0.6L358.6,572.4z M359.2,576l0.7,0.2c0.8,0.2,1.4,0,1.7-0.6c0.2-0.7-0.1-1.1-0.9-1.3
				c-0.4-0.1-0.7-0.2-0.8-0.2L359.2,576z"/>
			<path class="st4" d="M370.6,579.8c-0.7,2.3-2.6,3.3-4.7,2.8s-2.9-2.6-2.3-4.7c0.7-2.1,2.4-3.3,4.6-2.8
				C370.4,575.8,371.2,577.8,370.6,579.8z M365.3,578.4c-0.4,1.4,0,2.6,1.1,2.9c1.1,0.3,2-0.6,2.4-2c0.3-1.3,0.1-2.6-1-2.9
				C366.7,576.1,365.7,577,365.3,578.4z"/>
			<path class="st4" d="M371.4,582.1c0.3,0.3,1,0.8,1.7,0.9c0.8,0.2,1.2,0,1.3-0.6c0.1-0.4-0.2-0.8-1-1.3c-1.1-0.7-1.8-1.6-1.4-2.7
				c0.3-1.2,1.6-1.9,3.3-1.6c0.8,0.2,1.3,0.6,1.8,0.8l-0.7,1.2c-0.2-0.2-0.8-0.6-1.4-0.7c-0.7-0.2-1.1,0.1-1.2,0.4
				c-0.1,0.4,0.2,0.8,1.1,1.3c1.2,0.8,1.7,1.6,1.3,2.7c-0.3,1.2-1.4,2-3.4,1.6c-0.8-0.2-1.6-0.7-2-0.9L371.4,582.1z"/>
			<path class="st4" d="M384.9,586.6c-0.3,0.1-1,0.1-2,0c-2.6-0.4-3.6-2.3-3.2-4.4c0.4-2.6,2.6-3.6,4.8-3.1c0.9,0.1,1.4,0.4,1.8,0.7
				l-0.6,1.2c-0.3-0.2-0.8-0.4-1.3-0.6c-1.3-0.2-2.4,0.3-2.8,2c-0.2,1.4,0.4,2.6,1.9,2.9c0.6,0.1,1.1,0.1,1.4,0V586.6z"/>
			<path class="st4" d="M387.3,579.5l1.7,0.2l-0.9,6l2.9,0.4l-0.2,1.4l-4.7-0.7L387.3,579.5z"/>
			<path class="st4" d="M394.7,580.5l-0.9,7.5l-1.7-0.2l0.9-7.5L394.7,580.5z"/>
			<path class="st4" d="M400.2,585.4l-2.8-0.2l-0.1,1.8l3.1,0.3l-0.1,1.3l-4.8-0.4l0.7-7.5l4.6,0.4l-0.1,1.3l-2.9-0.2l-0.1,1.6
				l2.8,0.2L400.2,585.4z"/>
			<path class="st4" d="M401.9,588.8l0.3-7.5l2,0.1l1.4,2.8c0.4,0.8,0.8,1.8,1.1,2.7l0,0c-0.1-1,0-2,0-3.1l0.1-2.2l1.6,0.1l-0.3,7.5
				l-1.8-0.1l-1.4-3c-0.4-0.8-0.9-1.8-1.1-2.7l0,0c0,1,0,2-0.1,3.2l-0.1,2.2H401.9z"/>
			<path class="st4" d="M411.5,583.1h-2v-1.4h5.8v1.4h-2l-0.1,6.1h-1.7L411.5,583.1z"/>
			<path class="st4" d="M420.8,585.9L418,586v1.8l3.1-0.1v1.3l-4.8,0.1l-0.2-7.5l4.7-0.1v1.3l-2.9,0.1v1.6l2.8-0.1L420.8,585.9z"/>
			<path class="st4" d="M422.6,587.2c0.4,0.2,1.2,0.4,1.9,0.3c0.8,0,1.1-0.4,1.1-0.9c0-0.4-0.4-0.7-1.3-1c-1.2-0.3-2.1-1-2.2-2.1
				c-0.1-1.2,0.9-2.3,2.7-2.4c0.9,0,1.4,0.1,1.9,0.2l-0.3,1.3c-0.3-0.1-0.9-0.3-1.6-0.2c-0.8,0-1.1,0.4-1,0.8c0,0.4,0.4,0.7,1.4,1
				c1.3,0.4,2,1,2.1,2.1c0.1,1.2-0.8,2.3-2.9,2.6c-0.9,0-1.7-0.1-2.1-0.3L422.6,587.2z"/>
			<path class="st4" d="M433,588.1l-0.3-3l-2.9-4.1l1.9-0.2l1,1.7c0.3,0.6,0.4,0.9,0.8,1.3l0,0c0.1-0.4,0.2-0.9,0.4-1.4l0.6-1.9
				l1.9-0.2l-2,4.7l0.3,3.1L433,588.1z"/>
			<path class="st4" d="M442,584.9l-0.2,2l-1.8,0.3l1-7.8l2.2-0.3l3.6,7l-1.8,0.3l-0.9-1.8L442,584.9z M443.7,583.3l-0.8-1.4
				c-0.2-0.4-0.4-0.9-0.7-1.3l0,0c0,0.4,0,1-0.1,1.4l-0.1,1.7L443.7,583.3z"/>
			<path class="st4" d="M449.2,585.6l-0.7-3l-3.2-3.9l1.9-0.4l1.1,1.6c0.3,0.4,0.6,0.9,0.9,1.3l0,0c0.1-0.4,0.1-1,0.2-1.6l0.3-1.9
				l1.9-0.4l-1.6,4.8l0.7,3L449.2,585.6z"/>
			<path class="st4" d="M454.2,576.8l1.1,4.2c0.3,1.2,1,1.8,1.8,1.6c0.9-0.2,1.2-1,0.9-2.2l-1.1-4.2l1.7-0.4l1,4.1
				c0.6,2.2-0.3,3.6-2.2,4.1c-1.8,0.4-3.1-0.2-3.8-2.6l-1-4L454.2,576.8z"/>
			<path class="st4" d="M460.1,575.3c0.6-0.2,1.3-0.6,2.1-0.8c1.3-0.4,2.3-0.4,3.1-0.1c0.9,0.3,1.7,1.1,2,2.3
				c0.4,1.3,0.2,2.4-0.3,3.2c-0.6,0.9-1.7,1.6-3,1.9c-0.9,0.2-1.4,0.3-1.9,0.4L460.1,575.3z M463.5,580.7c0.1,0,0.3-0.1,0.6-0.1
				c1.4-0.4,2.2-1.6,1.7-3.2c-0.4-1.4-1.6-2-3-1.6c-0.3,0.1-0.6,0.2-0.7,0.3L463.5,580.7z"/>
			<path class="st4" d="M470.7,577.7l0.1,2l-1.7,0.6l-0.3-7.8l2.1-0.8l4.7,6.3l-1.7,0.6l-1.2-1.7L470.7,577.7z M472.1,575.8l-1-1.3
				c-0.2-0.3-0.6-0.9-0.9-1.2l0,0c0,0.4,0.1,1,0.1,1.4l0.1,1.7L472.1,575.8z"/>
			<path class="st4" d="M474.1,570.6c0.4-0.3,1.2-0.7,2-1c1-0.4,1.8-0.6,2.4-0.3c0.6,0.1,1,0.6,1.2,1.2c0.3,0.9,0,1.8-0.6,2.2l0,0
				c0.6,0,1,0.3,1.4,0.9c0.6,0.7,1.1,1.6,1.3,1.8l-1.6,0.7c-0.2-0.1-0.6-0.7-1.1-1.4c-0.6-0.8-0.9-0.9-1.6-0.7l-0.4,0.2l1.1,2.8
				l-1.6,0.7L474.1,570.6z M476.9,573l0.7-0.2c0.8-0.3,1.1-0.9,0.9-1.6s-0.8-0.8-1.6-0.6c-0.3,0.1-0.6,0.2-0.7,0.3L476.9,573z"/>
			<path class="st4" d="M480.3,568l1.6-0.7l2.4,5.6l2.7-1.2l0.6,1.3l-4.2,1.9L480.3,568z"/>
			<path class="st4" d="M491.4,567.5l-2.4,1.2l0.8,1.6l2.8-1.3l0.6,1.2l-4.3,2.1l-3.3-6.8l4.1-2l0.6,1.2l-2.7,1.3l0.7,1.4l2.4-1.2
				L491.4,567.5z"/>
			<path class="st4" d="M493.7,568c0.6,0,1.2-0.1,1.9-0.4c0.7-0.3,0.9-0.9,0.7-1.2c-0.2-0.4-0.7-0.4-1.6-0.3c-1.3,0.2-2.3,0-2.9-1
				c-0.6-1.1-0.1-2.4,1.4-3.3c0.8-0.4,1.3-0.6,1.9-0.6l0.3,1.3c-0.3,0-0.9,0.1-1.6,0.4s-0.8,0.8-0.7,1.1c0.2,0.4,0.7,0.4,1.8,0.3
				c1.4-0.2,2.2,0.1,2.8,1.1c0.6,1.1,0.2,2.6-1.6,3.4c-0.8,0.4-1.6,0.6-2.1,0.6L493.7,568z"/>
			<path class="st4" d="M502.6,562.9l0.6,1.9l-1.6,0.9l-1.9-7.6l1.9-1.1l5.9,5.2l-1.6,0.9l-1.4-1.3L502.6,562.9z M503.6,560.7
				l-1.2-1.1c-0.3-0.3-0.8-0.7-1.1-1l0,0c0.1,0.4,0.3,1,0.4,1.4l0.4,1.6L503.6,560.7z"/>
			<path class="st4" d="M512,559.1l-6.2-4.8l1.6-1l2.6,2.1c0.7,0.6,1.4,1.1,2.1,1.9l0,0c-0.3-0.9-0.7-1.7-0.9-2.6l-1-3.2l1.4-1
				l2.1,7.6L512,559.1z"/>
			<path class="st4" d="M513.6,548.8l4.4,6l-1.3,1l-4.4-6L513.6,548.8z"/>
			<path class="st4" d="M520.8,552.7l-6.5-4.4l1.4-1.1l2.7,1.9c0.8,0.6,1.4,1.1,2.2,1.7l0,0c-0.4-0.8-0.8-1.7-1.1-2.6l-1.2-3.1
				l1.4-1.1l2.7,7.5L520.8,552.7z"/>
			<path class="st4" d="M521.8,542.4l4.8,5.8l-1.3,1.1l-4.8-5.8L521.8,542.4z"/>
			<path class="st4" d="M523,541.5c0.3-0.4,0.9-1,1.6-1.6c0.8-0.8,1.6-1.1,2.2-1.1c0.6,0,1.1,0.2,1.6,0.7c0.7,0.7,0.6,1.7,0.2,2.2
				l0,0c0.6-0.2,1.1,0,1.7,0.3c0.8,0.4,1.6,1.1,1.9,1.2l-1.3,1.1c-0.2-0.1-0.8-0.4-1.6-1c-0.8-0.6-1.2-0.6-1.7-0.1l-0.3,0.3l2,2.2
				l-1.2,1.1L523,541.5z M526.5,542.7l0.4-0.4c0.7-0.6,0.8-1.2,0.3-1.7c-0.4-0.6-1-0.4-1.7,0c-0.3,0.2-0.4,0.4-0.6,0.6L526.5,542.7z
				"/>
			<path class="st4" d="M530.8,534.3l3,3.1c0.9,0.9,1.7,1,2.3,0.4c0.7-0.7,0.6-1.4-0.3-2.3l-3-3.1l1.2-1.2l3,3
				c1.7,1.7,1.6,3.2,0.2,4.7c-1.3,1.3-2.9,1.3-4.6-0.3l-2.9-3L530.8,534.3z"/>
			<path class="st4" d="M540.6,535l-5.6-5.1l1.3-1.4l3.1,0.7c0.9,0.2,1.9,0.6,2.7,0.9l0,0c-0.8-0.6-1.6-1.2-2.4-2l-1.6-1.4l1-1.1
				l5.6,5.1l-1.2,1.3l-3.2-0.8c-0.9-0.2-1.9-0.6-2.8-0.9l0,0c0.8,0.7,1.6,1.3,2.4,2.2l1.7,1.6L540.6,535z"/>
			<path class="st4" d="M545.6,526.6l1.1,1.7l-1.1,1.3l-4.2-6.6l1.4-1.7l7.2,3l-1.2,1.4l-1.9-0.8L545.6,526.6z M545.8,524.3
				l-1.6-0.7c-0.4-0.2-0.9-0.4-1.3-0.7l0,0c0.2,0.3,0.7,0.8,0.9,1.2l0.9,1.3L545.8,524.3z"/>
			<path class="st4" d="M553.4,519.9l-7.5-2.6l1.1-1.4l3.1,1.2c0.9,0.3,1.7,0.7,2.6,1.1l0,0c-0.6-0.7-1.2-1.4-1.7-2.1l-2-2.7
				l1.1-1.4l4.4,6.6L553.4,519.9z"/>
			<path class="st4" d="M551.6,509.7l6.1,4.3l-1,1.4l-6.1-4.3L551.6,509.7z"/>
			<path class="st4" d="M552.6,508.5c0.2-0.6,0.7-1.3,1.1-2c0.8-1.2,1.4-1.8,2.3-2.1c0.9-0.3,2-0.2,3,0.4c1.2,0.8,1.8,1.8,1.9,2.7
				c0.1,1-0.3,2.2-1.1,3.4c-0.4,0.8-0.9,1.2-1.1,1.6L552.6,508.5z M558.6,510.5c0.1-0.1,0.2-0.3,0.3-0.4c0.9-1.2,0.7-2.6-0.8-3.6
				c-1.3-0.9-2.4-0.6-3.2,0.7c-0.2,0.3-0.3,0.6-0.3,0.7L558.6,510.5z"/>
			<path class="st4" d="M562.3,503.5l1.3,1.4l-0.9,1.6l-5.2-5.8l1.1-1.9l7.7,1.8l-0.9,1.6l-2-0.4L562.3,503.5z M562.2,501.1
				l-1.6-0.4c-0.4-0.1-1-0.3-1.4-0.4l0,0c0.3,0.3,0.8,0.7,1.1,1l1.1,1.2L562.2,501.1z"/>
			<path class="st4" d="M568.4,490.2c-0.8-0.3-1.8-0.9-2.8-1.3l0,0c0.8,0.7,1.6,1.4,2.2,2.1l2.2,2.1l-0.6,1.2l-3-0.6
				c-0.9-0.2-2-0.4-2.9-0.8l0,0c0.9,0.4,1.9,1,2.7,1.6l2.4,1.4l-0.7,1.4l-6.5-3.8l1-2l2.6,0.4c0.9,0.2,1.8,0.4,2.7,0.7l0,0
				c-0.7-0.6-1.4-1.2-2.1-1.9l-1.9-1.9l1-2l6.9,3l-0.8,1.4L568.4,490.2z"/>
			<path class="st4" d="M571.5,483l-1.1,2.6l1.7,0.8l1.2-2.8l1.2,0.6l-2,4.3l-6.8-3.1l1.9-4.2l1.2,0.6l-1.2,2.7l1.4,0.7l1.1-2.6
				L571.5,483z"/>
			<path class="st4" d="M568.9,478.2l0.7-1.6l4.3,1.8c2,0.8,2.2,2,1.7,3.6c-0.1,0.3-0.4,0.8-0.7,1.1l-1.2-0.7
				c0.1-0.2,0.3-0.4,0.4-0.8c0.2-0.7,0.1-1.2-0.9-1.7L568.9,478.2z"/>
			<path class="st4" d="M575.9,470.1c2.3,0.9,3.2,2.8,2.4,4.8c-0.8,2.1-2.8,2.7-4.8,2c-2.1-0.8-3.2-2.7-2.4-4.8
				C571.9,470,574,469.3,575.9,470.1z M574.1,475.2c1.3,0.6,2.6,0.2,3-0.9s-0.4-2.1-1.8-2.6c-1.2-0.4-2.6-0.2-3,0.8
				C572,473.6,572.8,474.6,574.1,475.2z"/>
			<path class="st4" d="M572.9,467.6c0.1-0.6,0.2-1.3,0.6-2.2c0.3-1.1,0.8-1.8,1.3-2.1c0.4-0.3,1-0.3,1.7-0.2
				c0.9,0.3,1.3,1.1,1.3,1.8l0,0c0.3-0.4,0.9-0.6,1.7-0.6c0.9,0,1.9,0.1,2.2,0.1l-0.6,1.7c-0.2,0-0.9,0-1.8,0
				c-1-0.1-1.3,0.1-1.6,0.8l-0.1,0.4l2.8,0.9l-0.6,1.6L572.9,467.6z M576.5,467l0.2-0.7c0.2-0.8,0-1.4-0.7-1.6
				c-0.7-0.2-1.1,0.1-1.3,0.9c-0.1,0.4-0.1,0.7-0.2,0.8L576.5,467z"/>
		</g>
	</g>
	<g>
		<g>
			<path class="st4" d="M394.5,566.9v0.2c0,0.4-0.2,0.9-0.8,1.3c-0.3,0.3-0.7,0.6-0.7,0.9c0,0.3,0.1,0.6,0.7,0.7c0.3,0,0.7,0,1-0.1
				l0.2,1.1c-0.3,0.1-1,0.2-1.7,0.2c-1.2-0.1-1.7-0.9-1.6-1.7c0.1-0.7,0.6-1.1,1-1.4c0.3-0.3,0.6-0.7,0.7-1.1v-0.1L394.5,566.9z
				 M394.9,565.5c-0.1,0.4-0.4,0.8-0.9,0.8c-0.4-0.1-0.8-0.4-0.8-1c0.1-0.4,0.4-0.8,1-0.8C394.7,564.6,395,565,394.9,565.5z"/>
			<path class="st4" d="M396.4,565c0.4,0,1.1,0,2,0.1s1.4,0.3,1.9,0.7c0.3,0.3,0.6,0.9,0.6,1.6c0,0.7-0.3,1.1-0.8,1.4
				c-0.6,0.4-1.2,0.6-2.1,0.4c-0.2,0-0.3,0-0.4-0.1l-0.2,2.2l-1.4-0.1L396.4,565z M397.5,568.1c0.1,0,0.2,0.1,0.4,0.1
				c0.8,0.1,1.2-0.2,1.3-0.9c0.1-0.6-0.3-1-1-1c-0.3,0-0.4,0-0.6,0L397.5,568.1z"/>
			<path class="st4" d="M407.3,569c-0.1,2.1-1.4,3.2-3.3,3.1c-1.9-0.1-2.9-1.6-2.8-3.4c0.1-1.9,1.4-3.2,3.3-3.1
				C406.6,565.6,407.4,567.2,407.3,569z M402.8,568.8c-0.1,1.2,0.4,2.1,1.4,2.2c1,0.1,1.6-0.8,1.7-2.1c0.1-1.1-0.4-2.1-1.4-2.2
				C403.4,566.6,402.9,567.5,402.8,568.8z"/>
			<path class="st4" d="M408.4,565.9c0.4-0.1,1.1-0.1,1.9-0.1c0.9,0,1.6,0.2,2,0.6c0.3,0.3,0.6,0.8,0.6,1.3c0,0.8-0.6,1.3-1.1,1.6
				l0,0c0.4,0.2,0.7,0.7,0.8,1.2c0.2,0.7,0.3,1.6,0.4,1.8h-1.4c-0.1-0.2-0.2-0.7-0.4-1.4c-0.1-0.8-0.4-1-1-1h-0.4v2.6h-1.4
				L408.4,565.9z M409.8,568.6h0.6c0.7,0,1.1-0.3,1.1-0.9s-0.3-0.9-1-0.9c-0.3,0-0.6,0-0.7,0V568.6z"/>
			<path class="st4" d="M421.4,573.2c-0.9-0.2-1.7-0.4-2.6-0.8c-0.1,0-0.3-0.1-0.4-0.1c-1.4,0-2.8-1.1-2.9-3.1
				c-0.1-1.9,1.1-3.3,3-3.4c2-0.1,3.1,1.3,3.1,3.1c0,1.4-0.6,2.4-1.4,2.9l0,0c0.4,0.1,1,0.2,1.6,0.3L421.4,573.2z M420.1,569
				c0-1.1-0.7-2.1-1.6-2.1c-1,0-1.6,1-1.4,2.2c0,1.2,0.7,2.1,1.6,2.1C419.7,571.1,420.1,570.2,420.1,569z"/>
			<path class="st4" d="M423.8,565.6l0.2,3.7c0.1,1.1,0.6,1.7,1.2,1.6c0.8,0,1.1-0.7,1-1.8l-0.2-3.7l1.4-0.1l0.2,3.6
				c0.1,2-0.8,3-2.4,3.1c-1.6,0.1-2.6-0.7-2.8-2.8l-0.2-3.6L423.8,565.6z"/>
			<path class="st4" d="M432.8,568.4l-2.3,0.2l0.1,1.6l2.6-0.3l0.1,1.2l-4,0.4l-0.7-6.3l3.9-0.4l0.1,1.2l-2.4,0.2l0.1,1.3l2.3-0.2
				L432.8,568.4z M432.1,563.3l-1,1.3l-1.1,0.1l0.7-1.2L432.1,563.3z"/>
			<path class="st4" d="M434.7,568.9v-0.2c-0.1-0.4,0-1,0.3-1.6c0.2-0.4,0.4-0.8,0.4-1c0-0.3-0.3-0.6-0.8-0.4
				c-0.3,0-0.7,0.2-0.9,0.4l-0.4-1c0.3-0.2,0.9-0.6,1.6-0.6c1.2-0.2,1.9,0.4,2,1.2c0.1,0.7-0.2,1.2-0.6,1.7
				c-0.3,0.4-0.3,0.8-0.3,1.2v0.2L434.7,568.9z M434.7,570.2c-0.1-0.4,0.2-0.9,0.7-1c0.6-0.1,0.9,0.2,1,0.8c0.1,0.4-0.2,0.9-0.8,1
				C435.1,571,434.7,570.6,434.7,570.2z"/>
		</g>
	</g>
	<g>
		<path class="st3" d="M437,638.6c-47.1,4.9-93.4-4.9-133.8-27.7c-11.8-6.7-26.7-3.6-34.7,7.5l-0.1,0.2c-9.3,12.9-5.5,31,8.5,38.9
			c28.4,16,59.7,26.9,92.8,32.3c62.5,10,125-1.1,179.6-31.4c13.9-7.8,17.9-25.9,8.6-38.8l0,0c-7.9-11-22.9-14.2-34.7-7.6
			C496.6,626.8,468.7,635.4,437,638.6z"/>
		<path class="st3" d="M635.1,460.1c-9.7,46.3-33,87.4-67.1,119c-9.9,9.2-11.5,24.4-3.4,35.4l0.1,0.2c9.5,12.9,27.9,14.7,39.6,3.8
			c23.8-22.2,43.8-48.7,59-78.7c28.5-56.5,36.9-119.5,24.6-180.6c-3.1-15.6-19.2-24.9-34.4-20l0,0c-12.9,4.2-20.5,17.5-17.7,30.8
			C641.8,399.7,641.5,428.9,635.1,460.1z"/>
		<path class="st3" d="M526.8,218.2c40.9,23.7,72.8,58.7,92.1,100.9c5.7,12.3,19.6,18.6,32.5,14.4l0.2-0.1c15.1-4.9,22.7-22,16-36.5
			c-13.7-29.6-32.6-56.8-56.3-80.5c-44.7-44.7-102-72.4-163.9-79.8c-15.8-1.9-29.7,10.5-29.7,26.5l0,0c0,13.6,10.2,24.9,23.7,26.5
			C471.6,193,499.2,202.3,526.8,218.2z"/>
		<path class="st3" d="M254.2,254.2c36.2-36.2,82.4-58.5,132.4-64.5c13.3-1.6,23.5-13,23.5-26.5l0,0c0-16-13.9-28.4-29.8-26.5
			c-61.9,7.3-119,35-163.8,79.8c-23.7,23.7-42.6,51-56.3,80.4c-6.7,14.5,0.8,31.6,16,36.6l0,0c12.9,4.2,26.8-1.9,32.5-14.2
			C219.7,295.3,235,273.3,254.2,254.2z"/>
		<path class="st3" d="M218.2,526.8c-20.7-35.7-30.3-71.6-30.3-112.9c0-14.5,1.3-28.7,4-42.5c2.6-13.2-5.1-26.3-17.9-30.4h-0.1
			c-15.2-5-31.5,4.6-34.4,20.4c-3.2,17.1-4.9,34.8-4.9,52.6c0,74.6,29,144.7,81.8,197.5c2.6,2.6,5.1,5,7.7,7.3
			c11.7,10.9,30.3,9,39.6-3.9l0,0c7.9-10.9,6.6-25.9-3.3-35.2C244,564.5,229.8,546.7,218.2,526.8z"/>
	</g>
	<g>
		<g>
			<path class="st4" d="M259.7,396.3c0.1,0.3,0.2,1,0.1,1.9c-0.2,2.6-2,3.8-4.1,3.6c-2.6-0.2-3.8-2.2-3.6-4.4
				c0.1-0.9,0.3-1.6,0.6-1.8l1.3,0.4c-0.2,0.3-0.3,0.8-0.4,1.4c-0.1,1.3,0.6,2.4,2.2,2.7c1.4,0.1,2.6-0.7,2.7-2.1
				c0-0.6,0-1.1-0.1-1.4L259.7,396.3z"/>
			<path class="st4" d="M257.2,388.3c2.4,0.3,3.7,2,3.4,4.2c-0.3,2.2-2.1,3.2-4.2,3c-2.2-0.3-3.7-2-3.3-4.1
				C253.2,389.1,255,388.1,257.2,388.3z M256.5,393.8c1.4,0.2,2.6-0.3,2.8-1.4c0.1-1.1-0.8-1.9-2.2-2.1c-1.3-0.2-2.6,0.3-2.8,1.4
				C254,392.8,255,393.5,256.5,393.8z"/>
			<path class="st4" d="M261,388l-7.3-1.3l0.3-1.9l3-1c0.9-0.3,1.9-0.6,2.8-0.8l0,0c-1-0.1-2-0.2-3.1-0.4l-2.1-0.4l0.3-1.6l7.3,1.3
				l-0.3,1.8l-3.1,1c-0.9,0.3-1.9,0.6-2.9,0.8l0,0c1,0.1,2,0.3,3.2,0.6l2.2,0.4L261,388z"/>
			<path class="st4" d="M256.8,378l-0.4,2l-1.3-0.3l1.3-5.6l1.3,0.3l-0.4,2l5.9,1.3l-0.3,1.7L256.8,378z"/>
			<path class="st4" d="M256.7,373.1c0.1-0.6,0.2-1.3,0.4-2.2c0.3-1.1,0.7-1.8,1.2-2.2c0.4-0.3,1-0.4,1.7-0.2
				c0.9,0.2,1.3,1.1,1.4,1.8l0,0c0.3-0.4,0.9-0.6,1.7-0.6c0.9,0,1.9,0,2.2,0l-0.4,1.7c-0.2,0.1-0.9,0.1-1.8,0
				c-1-0.1-1.3,0.2-1.4,0.9l-0.1,0.4l2.9,0.8l-0.7,1.7L256.7,373.1z M260.3,372.3l0.2-0.7c0.2-0.8,0-1.4-0.7-1.6
				c-0.7-0.2-1.1,0.2-1.3,0.9c-0.1,0.4-0.1,0.7-0.1,0.8L260.3,372.3z"/>
			<path class="st4" d="M258.9,365l7.1,2.2l-0.6,1.7l-7.1-2.2L258.9,365z"/>
			<path class="st4" d="M259.5,363.5c0.1-0.4,0.3-1.3,0.6-2.1c0.3-1,0.7-1.6,1.1-2s1-0.6,1.7-0.3s1.1,0.8,1.1,1.7l0,0
				c0.4-0.8,1.3-1.1,2.2-0.8c0.7,0.2,1,0.7,1.2,1.2c0.2,0.7,0.2,1.6-0.3,3c-0.2,0.8-0.6,1.3-0.7,1.7L259.5,363.5z M262.7,362.8
				l0.2-0.6c0.3-0.9,0.1-1.4-0.4-1.6c-0.6-0.2-1,0.1-1.2,0.9c-0.1,0.3-0.1,0.6-0.2,0.7L262.7,362.8z M265.8,364
				c0.1-0.1,0.1-0.3,0.2-0.7c0.2-0.8,0.2-1.4-0.6-1.7c-0.7-0.2-1.2,0.3-1.4,1.1l-0.2,0.6L265.8,364z"/>
			<path class="st4" d="M262.2,355.5l4,1.6c1.2,0.4,2,0.2,2.3-0.6c0.3-0.8-0.1-1.6-1.3-2l-4-1.6l0.7-1.6l3.9,1.6
				c2.1,0.9,2.8,2.3,2,4.1c-0.7,1.8-2.1,2.4-4.3,1.6l-3.9-1.6L262.2,355.5z"/>
			<path class="st4" d="M265.2,348.4l6.9,3l-0.7,1.6l-6.9-3L265.2,348.4z"/>
			<path class="st4" d="M265.8,347c0.1-0.6,0.4-1.3,0.8-2.1c0.4-1,1-1.7,1.6-1.9c0.6-0.2,1.1-0.2,1.7,0c0.9,0.4,1.2,1.3,1.1,2l0,0
				c0.4-0.3,1-0.4,1.7-0.3c0.9,0.1,1.9,0.3,2.2,0.3l-0.8,1.6c-0.2,0-0.9-0.1-1.8-0.2c-0.9-0.2-1.3,0-1.6,0.6l-0.2,0.4l2.7,1.2
				l-0.7,1.6L265.8,347z M269.5,346.8l0.3-0.6c0.3-0.8,0.2-1.4-0.4-1.7c-0.7-0.3-1.1,0-1.4,0.7c-0.2,0.3-0.2,0.6-0.2,0.7
				L269.5,346.8z"/>
			<path class="st4" d="M275.4,340l1.4,1.3l-0.9,1.6l-5.5-5.6l1.1-2l7.7,1.6l-0.9,1.6l-2-0.4L275.4,340z M275.2,337.8l-1.7-0.3
				c-0.4-0.1-1-0.2-1.4-0.3l0,0c0.3,0.3,0.8,0.7,1.1,1l1.2,1.1L275.2,337.8z"/>
			<path class="st4" d="M281.6,327.7c-0.8-0.4-1.7-1-2.7-1.6l0,0c0.7,0.7,1.4,1.6,2,2.2l2,2.3l-0.7,1.1l-2.9-0.9
				c-0.9-0.2-1.9-0.7-2.8-1l0,0c0.8,0.6,1.8,1.2,2.6,1.8l2.3,1.7l-0.9,1.3l-6.1-4.4l1.2-1.9l2.6,0.7c0.9,0.2,1.8,0.6,2.6,0.9l0,0
				c-0.7-0.7-1.3-1.3-1.9-2l-1.7-2l1.2-1.9l6.6,3.7l-0.9,1.4L281.6,327.7z"/>
			<path class="st4" d="M285.6,321.3l-1.6,2.2l1.4,1l1.8-2.6l1.1,0.8l-2.8,3.9l-6.1-4.3l2.7-3.8l1.1,0.8l-1.7,2.4l1.2,0.9l1.6-2.2
				L285.6,321.3z"/>
			<path class="st4" d="M284,316.3l1-1.3l3.8,2.9c1.7,1.3,1.7,2.6,0.7,3.9c-0.2,0.3-0.6,0.7-0.9,0.9l-1-1c0.2-0.1,0.4-0.3,0.7-0.7
				c0.4-0.6,0.4-1.1-0.4-1.8L284,316.3z"/>
			<path class="st4" d="M293.1,310.8c1.9,1.6,2.1,3.7,0.8,5.3c-1.4,1.8-3.6,1.7-5.2,0.3c-1.8-1.4-2.1-3.6-0.8-5.3
				C289.3,309.3,291.4,309.4,293.1,310.8z M289.7,315c1.1,0.9,2.3,1,3.1,0.2c0.8-0.9,0.3-2.1-0.9-3c-1-0.9-2.3-1.1-3.1-0.2
				C288.2,312.9,288.6,314.1,289.7,315z"/>
			<path class="st4" d="M291.1,307.5c0.3-0.4,0.8-1.1,1.3-1.8c0.8-0.8,1.3-1.3,2-1.4c0.6-0.1,1.1,0.1,1.7,0.6
				c0.7,0.7,0.8,1.6,0.4,2.2l0,0c0.6-0.2,1.1-0.1,1.7,0.2c0.8,0.3,1.7,0.9,2,1l-1.1,1.3c-0.2,0-0.8-0.3-1.7-0.8
				c-0.8-0.4-1.2-0.4-1.7,0.1l-0.3,0.3l2.2,2l-1.1,1.2L291.1,307.5z M294.6,308.4l0.4-0.4c0.6-0.7,0.6-1.3,0.1-1.7
				c-0.6-0.4-1.1-0.3-1.6,0.2c-0.2,0.3-0.4,0.6-0.4,0.6L294.6,308.4z"/>
			<path class="st4" d="M300.9,305l1,1.8l-1.2,1.2l-3.8-6.9l1.6-1.6l7,3.6l-1.2,1.3l-1.8-0.9L300.9,305z M301.3,302.8l-1.4-0.8
				c-0.4-0.2-0.9-0.6-1.3-0.8l0,0c0.2,0.4,0.6,0.9,0.8,1.2l0.8,1.4L301.3,302.8z"/>
			<path class="st4" d="M300.9,297.3c0.3-0.4,0.9-1,1.6-1.7c0.8-0.8,1.4-1.2,2.2-1.2c0.6,0,1.1,0.2,1.6,0.7c0.7,0.7,0.6,1.7,0.3,2.2
				l0,0c0.6-0.2,1.1,0,1.7,0.3c0.8,0.4,1.6,1,1.9,1.1l-1.2,1.2c-0.2-0.1-0.8-0.4-1.6-0.9c-0.8-0.6-1.2-0.6-1.7,0l-0.3,0.3l2,2.1
				l-1.2,1.1L300.9,297.3z M304.3,298.5l0.4-0.4c0.7-0.6,0.7-1.2,0.2-1.7c-0.4-0.6-1-0.4-1.7,0.1c-0.3,0.3-0.4,0.4-0.6,0.6
				L304.3,298.5z"/>
			<path class="st4" d="M307.3,291.2l1.3-1.1l3.9,4.7l2.2-1.9l0.9,1.1l-3.6,3L307.3,291.2z"/>
			<path class="st4" d="M316.7,290.8l0.8,1.9l-1.3,1.1l-2.8-7.3l1.8-1.3l6.5,4.4l-1.4,1.1l-1.7-1.1L316.7,290.8z M317.5,288.5
				l-1.3-1c-0.3-0.2-0.8-0.7-1.2-0.9l0,0c0.2,0.4,0.4,0.9,0.7,1.3l0.7,1.6L317.5,288.5z"/>
			<path class="st4" d="M328.1,284.5c-0.2,0.3-0.7,0.9-1.4,1.3c-2.1,1.4-4.1,0.9-5.3-0.9c-1.4-2.1-0.8-4.3,1.1-5.6
				c0.7-0.4,1.3-0.8,1.7-0.8l0.4,1.3c-0.3,0.1-0.9,0.2-1.3,0.6c-1.1,0.8-1.6,2-0.6,3.4c0.9,1.2,2.1,1.6,3.3,0.7c0.4-0.3,0.8-0.7,1-1
				L328.1,284.5z"/>
			<path class="st4" d="M329.6,281.5l0.6,1.9l-1.4,0.9l-2-7.6l1.9-1.2l6,5.1l-1.6,1l-1.6-1.3L329.6,281.5z M330.5,279.5l-1.2-1.1
				c-0.3-0.3-0.8-0.7-1.1-1l0,0c0.1,0.4,0.3,1,0.4,1.4l0.4,1.6L330.5,279.5z"/>
			<path class="st4" d="M331.4,274l1.4-0.9l3,5.2l2.6-1.4l0.7,1.2l-4.1,2.3L331.4,274z"/>
			<path class="st4" d="M337.8,270.3l3.6,6.6l-1.4,0.8l-3.6-6.6L337.8,270.3z"/>
			<path class="st4" d="M339.3,269.6c0.6-0.3,1.2-0.8,2-1.1c1.2-0.7,2.2-0.8,3.1-0.7c1,0.2,1.8,0.8,2.3,2c0.7,1.3,0.6,2.4,0.2,3.2
				c-0.4,0.9-1.3,1.8-2.7,2.4c-0.8,0.4-1.3,0.7-1.8,0.8L339.3,269.6z M343.5,274.4c0.1,0,0.3-0.1,0.6-0.2c1.3-0.7,1.9-1.9,1.1-3.4
				c-0.7-1.4-1.9-1.8-3.2-1.1c-0.3,0.2-0.6,0.3-0.7,0.4L343.5,274.4z"/>
			<path class="st4" d="M349.7,270.6l0.3,2l-1.6,0.7l-0.9-7.8l2-0.9l5.1,5.9l-1.7,0.8l-1.3-1.6L349.7,270.6z M350.9,268.7l-1.1-1.2
				c-0.3-0.3-0.7-0.8-0.9-1.2l0,0c0.1,0.4,0.2,1,0.2,1.4l0.2,1.7L350.9,268.7z"/>
			<path class="st4" d="M352.6,263.4c0.6-0.3,1.3-0.7,2.1-1c1.3-0.6,2.3-0.6,3.1-0.3c0.9,0.2,1.7,1,2.2,2.2c0.6,1.3,0.3,2.4-0.1,3.2
				c-0.6,0.9-1.6,1.7-2.9,2.1c-0.8,0.3-1.4,0.4-1.9,0.6L352.6,263.4z M356.4,268.5c0.1,0,0.3-0.1,0.6-0.2c1.4-0.6,2.1-1.7,1.4-3.3
				c-0.6-1.4-1.7-1.9-3-1.3c-0.3,0.1-0.6,0.2-0.7,0.3L356.4,268.5z"/>
			<path class="st4" d="M362.1,259.9c0.6-0.3,1.3-0.6,2.1-0.9c1.3-0.4,2.3-0.4,3.2-0.1c0.9,0.3,1.7,1,2.1,2.3
				c0.4,1.3,0.2,2.4-0.2,3.2c-0.6,0.9-1.6,1.6-3,2c-0.9,0.2-1.4,0.4-1.9,0.4L362.1,259.9z M365.5,265.3c0.1,0,0.3-0.1,0.6-0.1
				c1.4-0.4,2.1-1.6,1.7-3.2c-0.4-1.4-1.6-2-3-1.6c-0.3,0.1-0.6,0.2-0.7,0.3L365.5,265.3z"/>
			<path class="st4" d="M375,260.6l-2.7,0.7l0.4,1.7l3-0.8l0.3,1.3l-4.7,1.2l-1.9-7.2l4.4-1.2l0.3,1.3l-2.8,0.8l0.4,1.6l2.7-0.7
				L375,260.6z"/>
			<path class="st4" d="M380.7,262.5l-3.9-6.8l1.8-0.3l1.6,2.9c0.4,0.8,0.9,1.6,1.2,2.4l0,0c0-0.9,0-1.9,0.1-2.8l0.2-3.3l1.8-0.3
				l-0.9,7.9L380.7,262.5z"/>
			<path class="st4" d="M386.1,253.7l1.3,7.3l-1.7,0.3l-1.3-7.3L386.1,253.7z"/>
			<path class="st4" d="M387.8,253.6c0.6-0.2,1.4-0.3,2.2-0.4c1.4-0.2,2.3-0.1,3.1,0.3c0.9,0.4,1.4,1.3,1.7,2.7
				c0.2,1.4-0.2,2.4-0.8,3.2c-0.7,0.8-1.8,1.2-3.3,1.4c-0.9,0.1-1.4,0.1-1.9,0.1L387.8,253.6z M390.2,259.4c0.1,0,0.3,0,0.6,0
				c1.6-0.2,2.4-1.2,2.1-3c-0.2-1.6-1.2-2.2-2.7-2c-0.3,0-0.6,0.1-0.8,0.2L390.2,259.4z"/>
			<path class="st4" d="M397.4,257.8l-0.3,2l-1.8,0.2l1.6-7.7l2.2-0.2l3,7.2l-1.8,0.2l-0.8-1.9L397.4,257.8z M399.2,256.4l-0.7-1.6
				c-0.2-0.4-0.3-1-0.6-1.4l0,0c-0.1,0.4-0.1,1-0.2,1.4l-0.3,1.7L399.2,256.4z"/>
			<path class="st4" d="M404.7,251.7c0.7-0.1,1.4-0.2,2.3-0.2c1.4,0,2.3,0.2,3.1,0.7c0.8,0.6,1.3,1.4,1.3,2.8c0,1.4-0.4,2.4-1.1,3.1
				c-0.8,0.7-2,1-3.4,1.1c-0.9,0-1.6,0-1.9,0L404.7,251.7z M406.7,257.8c0.1,0,0.3,0,0.6,0c1.6,0,2.6-0.9,2.4-2.7
				c0-1.6-1-2.3-2.4-2.3c-0.3,0-0.7,0.1-0.8,0.1L406.7,257.8z"/>
			<path class="st4" d="M417,255.7h-2.8v1.8h3.1v1.4h-4.8v-7.5h4.7v1.4h-2.9v1.6h2.8L417,255.7z"/>
			<path class="st4" d="M420.7,251.6l1.7,0.1l-0.2,6.1l3,0.1l-0.1,1.4l-4.7-0.2L420.7,251.6z"/>
			<path class="st4" d="M427.9,257.6l-0.7,1.9l-1.8-0.2l3-7.2l2.2,0.2l1.6,7.7l-1.8-0.2l-0.4-2L427.9,257.6z M429.9,256.5l-0.3-1.6
				c-0.1-0.4-0.2-1-0.2-1.4l0,0c-0.1,0.4-0.3,1-0.4,1.4l-0.6,1.6H429.9z"/>
			<path class="st4" d="M433.4,258.4c0.4,0.3,1.1,0.7,1.8,0.7c0.8,0.1,1.2-0.1,1.3-0.7c0.1-0.4-0.2-0.8-1.1-1.2
				c-1.2-0.6-1.9-1.4-1.8-2.4c0.2-1.2,1.3-2.1,3.1-1.9c0.9,0.1,1.4,0.3,1.9,0.7l-0.6,1.3c-0.2-0.2-0.8-0.4-1.6-0.6
				c-0.8-0.1-1.1,0.2-1.2,0.6c-0.1,0.4,0.3,0.8,1.2,1.2c1.2,0.7,1.8,1.4,1.7,2.4c-0.2,1.2-1.2,2.2-3.3,1.9c-0.9-0.1-1.7-0.4-2-0.8
				L433.4,258.4z"/>
			<path class="st4" d="M442.3,253.9l4.4,0.9l-0.2,1.3l-2.8-0.6l-0.3,1.7l2.7,0.6l-0.2,1.3l-2.7-0.6l-0.6,3l-1.7-0.3L442.3,253.9z"
				/>
			<path class="st4" d="M448.1,260.7l-1,1.8l-1.7-0.4l3.9-6.8l2.1,0.4l0.6,7.8l-1.8-0.4l-0.1-2L448.1,260.7z M450.2,259.9l-0.1-1.7
				c0-0.4,0-1,0-1.4l0,0c-0.2,0.4-0.4,0.9-0.7,1.3l-0.8,1.4L450.2,259.9z"/>
			<path class="st4" d="M459.6,262.7c0.2-0.9,0.4-1.9,0.8-3l0,0c-0.4,0.9-1.1,1.8-1.6,2.6l-1.7,2.6l-1.2-0.3v-3c0-0.9,0-2,0.1-3l0,0
				c-0.3,1-0.7,2.1-1,2.9l-0.9,2.7l-1.6-0.4l2.6-7.1l2.2,0.7v2.6c0,0.9,0,1.9-0.1,2.8l0,0c0.4-0.8,1-1.7,1.4-2.4l1.4-2.2l2.1,0.6
				l-1.7,7.3l-1.6-0.4L459.6,262.7z"/>
			<path class="st4" d="M465.6,259.8l-2.3,7.1l-1.7-0.6l2.3-7.1L465.6,259.8z"/>
			<path class="st4" d="M467.1,260.4l1.6,0.6l-2.1,5.7l2.8,1l-0.4,1.3l-4.4-1.6L467.1,260.4z"/>
			<path class="st4" d="M474,262.9l-2.8,7l-1.6-0.7l2.8-7L474,262.9z"/>
			<path class="st4" d="M474.8,269.3l-1.2,1.6l-1.7-0.7l5.1-6l2,0.9l-0.8,7.8l-1.7-0.7l0.2-2L474.8,269.3z M477,268.8l0.2-1.7
				c0-0.4,0.1-1,0.2-1.4l0,0c-0.2,0.3-0.6,0.9-0.9,1.2l-1,1.3L477,268.8z"/>
			<path class="st4" d="M479.6,271.6c0.3,0.4,0.9,0.9,1.4,1.2c0.7,0.3,1.2,0.2,1.4-0.2c0.2-0.4,0-0.8-0.7-1.4
				c-0.9-0.9-1.3-1.9-0.9-2.9c0.6-1.1,1.9-1.6,3.6-0.8c0.8,0.3,1.2,0.8,1.6,1.2l-0.9,1.1c-0.2-0.2-0.6-0.7-1.2-1
				c-0.7-0.3-1.1-0.2-1.3,0.2c-0.2,0.4,0.1,0.8,0.8,1.6c1,1,1.2,1.9,0.8,2.9c-0.6,1.1-1.9,1.7-3.8,0.8c-0.8-0.3-1.4-0.9-1.7-1.3
				L479.6,271.6z"/>
			<path class="st4" d="M491.4,276l-2.4-1.3l-0.9,1.6l2.7,1.4l-0.7,1.2l-4.2-2.3l3.6-6.6l4.1,2.2l-0.7,1.2l-2.6-1.4l-0.8,1.3
				l2.4,1.3L491.4,276z"/>
			<path class="st4" d="M491.1,279.4l3.9-6.5l1.7,1l-0.1,3.1c0,0.9-0.1,1.9-0.2,2.8l0,0c0.4-0.9,0.9-1.8,1.4-2.8l1.1-1.9l1.3,0.8
				l-3.9,6.5l-1.6-0.9l0.1-3.3c0-0.9,0.1-2,0.2-2.9l0,0c-0.4,0.9-1,1.8-1.7,2.8l-1.1,1.9L491.1,279.4z"/>
			<path class="st4" d="M506,285.6c0.4-0.8,1.1-1.7,1.7-2.6l0,0c-0.8,0.7-1.6,1.3-2.3,1.9l-2.4,1.9l-1.1-0.8l1-2.9
				c0.3-0.9,0.7-1.9,1.1-2.8l0,0c-0.7,0.8-1.3,1.8-1.9,2.4l-1.8,2.2l-1.3-0.9l4.7-5.9l1.9,1.3l-0.8,2.4c-0.3,0.9-0.7,1.8-1,2.6l0,0
				c0.7-0.6,1.4-1.2,2.1-1.8l2.1-1.6l1.8,1.2l-3.9,6.3l-1.3-1L506,285.6z"/>
			<path class="st4" d="M512.1,289.9l-2.2-1.7l-1.1,1.4l2.4,1.9l-0.9,1.1l-3.8-2.9l4.6-5.9l3.7,2.8l-0.9,1.1l-2.3-1.8l-1,1.2
				l2.2,1.7L512.1,289.9z M515.7,285l-1.9,0.2l-1.1-0.8l1.6-0.6L515.7,285z"/>
			<path class="st4" d="M514.2,295.8l0.3-1.4c0.1-0.6,0.2-1,0.3-1.4l0,0c-0.4,0.2-0.8,0.4-1.3,0.7l-1.3,0.7l-1.4-1.2l4.1-1.6
				l0.8-4.2l1.4,1.2l-0.3,1.4c-0.1,0.4-0.2,0.9-0.3,1.3l0,0c0.4-0.2,0.8-0.4,1.2-0.7l1.3-0.7l1.4,1.2l-4,1.4l-0.8,4.3L514.2,295.8z"
				/>
			<path class="st4" d="M522.6,293.1l-5,5.6l-1.2-1.1l5-5.6L522.6,293.1z"/>
			<path class="st4" d="M522.7,303.2c-0.3-0.1-1-0.4-1.7-1.1c-1.9-1.8-1.8-3.9-0.2-5.5c1.8-1.9,4.1-1.7,5.7-0.1
				c0.7,0.6,1,1.2,1.1,1.6l-1.2,0.8c-0.1-0.3-0.4-0.8-0.9-1.2c-1-0.9-2.3-1-3.4,0.1c-1,1.1-1,2.3,0.1,3.4c0.3,0.3,0.9,0.7,1.2,0.8
				L522.7,303.2z"/>
			<path class="st4" d="M530.5,306.1c-1.8,1.7-3.9,1.7-5.5,0.1c-1.6-1.6-1.2-3.7,0.3-5.2c1.7-1.6,3.8-1.7,5.3-0.1
				C532.4,302.5,532,304.7,530.5,306.1z M526.7,302.2c-1,1-1.3,2.2-0.6,3c0.8,0.8,2,0.6,3.1-0.4c1-0.9,1.3-2.2,0.6-3
				C528.9,301,527.7,301.2,526.7,302.2z"/>
			<path class="st4" d="M530.8,312.2l2.3-2l1.8-4.7l1.2,1.4l-0.9,1.8c-0.2,0.6-0.4,0.9-0.7,1.3l0,0c0.4-0.2,0.9-0.3,1.4-0.6l1.9-0.6
				l1.2,1.4l-4.9,1l-2.3,2L530.8,312.2z"/>
			<path class="st4" d="M538.7,321.7c-0.3-0.1-0.9-0.6-1.4-1.3c-1.6-2-1.1-4.1,0.6-5.5c2-1.6,4.2-1,5.7,0.8c0.6,0.7,0.8,1.3,0.9,1.7
				l-1.2,0.6c-0.1-0.3-0.3-0.8-0.7-1.3c-0.8-1.1-2.1-1.4-3.4-0.3c-1.2,0.9-1.4,2.2-0.4,3.4c0.3,0.4,0.8,0.8,1,1L538.7,321.7z"/>
			<path class="st4" d="M544.3,324.3l-1.6-2.2l-1.4,1l1.8,2.6l-1.1,0.8l-2.8-3.9l6.1-4.3l2.7,3.8l-1.1,0.8l-1.7-2.3l-1.2,0.9
				l1.6,2.2L544.3,324.3z"/>
			<path class="st4" d="M542.4,327.2l6.3-4.1l1.1,1.7l-1.4,2.8c-0.4,0.8-1,1.7-1.4,2.4l0,0c0.8-0.7,1.6-1.2,2.6-1.8l1.9-1.2l0.9,1.3
				l-6.3,4.1l-1-1.4l1.6-2.9c0.4-0.8,1-1.8,1.6-2.6l0,0c-0.8,0.6-1.7,1.1-2.7,1.8l-1.9,1.2L542.4,327.2z"/>
			<path class="st4" d="M552.4,331.7l-1-1.8l1.2-0.7l2.9,5l-1.2,0.7l-1-1.8l-5.2,3.1l-0.9-1.4L552.4,331.7z"/>
			<path class="st4" d="M555.8,335.1c0.3,0.4,0.8,1.1,1.2,1.9c0.6,1,0.8,1.8,0.7,2.4c-0.1,0.6-0.4,1-1.1,1.3
				c-0.9,0.4-1.8,0.1-2.2-0.3l0,0c0.1,0.6-0.2,1-0.8,1.6c-0.7,0.6-1.3,1.2-1.6,1.6l-0.8-1.6c0.1-0.2,0.6-0.7,1.3-1.3
				c0.8-0.7,0.8-1,0.4-1.7l-0.2-0.4l-2.6,1.4l-0.8-1.4L555.8,335.1z M553.8,338.1l0.3,0.6c0.4,0.8,1,1,1.6,0.7
				c0.6-0.3,0.7-0.9,0.3-1.6c-0.2-0.3-0.3-0.6-0.4-0.7L553.8,338.1z"/>
			<path class="st4" d="M558.7,348.7c-2.2,1.1-4.2,0.3-5.1-1.7c-1-2,0-3.9,1.9-4.8c2-1,4.1-0.4,5.1,1.6
				C561.6,345.9,560.6,347.8,558.7,348.7z M556.3,343.8c-1.3,0.7-2,1.7-1.4,2.8c0.4,1,1.8,1.1,3.1,0.6c1.2-0.6,2-1.7,1.4-2.7
				C558.9,343.4,557.6,343.1,556.3,343.8z"/>
			<path class="st4" d="M558,351.7l-2,0.2l-0.7-1.7l7.8-0.8l0.9,2l-6,5.1l-0.7-1.7l1.6-1.3L558,351.7z M559.9,352.9l1.3-1
				c0.3-0.3,0.8-0.7,1.2-0.9l0,0c-0.4,0.1-1,0.2-1.4,0.2l-1.7,0.2L559.9,352.9z"/>
			<path class="st4" d="M563.1,362.3c0.9-0.3,1.9-0.8,2.9-1.1l0,0c-1,0.1-2.1,0.2-3,0.2l-3.1,0.1l-0.4-1.2l2.4-1.8
				c0.8-0.6,1.7-1.1,2.6-1.7l0,0c-1,0.3-2.1,0.7-3,0.9l-2.7,0.9l-0.6-1.4l7.2-2.1l0.8,2.1l-2.1,1.6c-0.8,0.6-1.6,1-2.3,1.6l0,0
				c0.9-0.1,1.9-0.2,2.8-0.2l2.7-0.1l0.8,2.1l-6.9,3l-0.6-1.6L563.1,362.3z"/>
			<path class="st4" d="M565.6,369.3l-0.8-2.7l-1.7,0.6l0.9,2.9l-1.3,0.4l-1.4-4.6l7.1-2.2l1.3,4.4l-1.3,0.4l-0.9-2.8l-1.4,0.4
				l0.8,2.7L565.6,369.3z M571.4,367.3l-1.7-0.9l-0.4-1.3l1.6,0.4L571.4,367.3z"/>
			<path class="st4" d="M570.2,369.6c0.2,0.6,0.4,1.2,0.8,2.1c0.3,1.1,0.3,1.9,0,2.4c-0.2,0.6-0.7,0.9-1.3,1.1
				c-0.9,0.2-1.8-0.2-2.1-0.8l0,0c-0.1,0.6-0.4,1-1.1,1.3c-0.8,0.4-1.7,0.9-1.9,1.1l-0.4-1.7c0.2-0.2,0.7-0.6,1.6-1
				c0.9-0.4,1-0.8,0.9-1.4l-0.1-0.4l-2.9,0.8l-0.4-1.7L570.2,369.6z M567.5,372.1l0.2,0.7c0.2,0.8,0.8,1.2,1.3,1
				c0.7-0.2,0.9-0.7,0.7-1.4c-0.1-0.4-0.2-0.7-0.2-0.8L567.5,372.1z"/>
			<path class="st4" d="M572.3,377.7l-7.3,1.7l-0.3-1.7l7.3-1.7L572.3,377.7z"/>
			<path class="st4" d="M566.6,386.1c-0.2-0.2-0.6-0.9-0.7-1.8c-0.6-2.6,0.8-4.1,2.9-4.6c2.6-0.6,4.2,1,4.7,3.2
				c0.2,0.9,0.1,1.6,0,1.9l-1.3-0.1c0.1-0.3,0.1-0.9,0-1.4c-0.2-1.3-1.2-2.2-2.9-1.9c-1.4,0.3-2.2,1.3-1.9,2.9
				c0.1,0.6,0.3,1,0.6,1.3L566.6,386.1z"/>
			<path class="st4" d="M568.8,388.6l-2-0.2l-0.2-1.8l7.8,1.1l0.3,2.2l-7,3.4l-0.3-1.8l1.8-0.9L568.8,388.6z M570.3,390.3l1.4-0.7
				c0.4-0.2,1-0.4,1.3-0.6l0,0c-0.4,0-1-0.1-1.4-0.1l-1.7-0.2L570.3,390.3z"/>
		</g>
	</g>
	<g>
		<g>
			<path class="st4" d="M401.8,238.1v0.2c0.1,0.4-0.1,1-0.4,1.4c-0.3,0.4-0.6,0.7-0.4,1c0,0.3,0.2,0.6,0.8,0.6
				c0.3,0,0.7-0.1,0.9-0.3l0.3,1c-0.3,0.2-0.9,0.4-1.6,0.6c-1.2,0.1-1.9-0.6-1.9-1.3s0.3-1.2,0.7-1.7c0.3-0.4,0.4-0.8,0.4-1.2v-0.1
				L401.8,238.1z M401.9,236.7c0,0.4-0.2,0.9-0.8,0.9c-0.4,0-0.9-0.3-0.9-0.8s0.3-0.9,0.8-0.9C401.4,235.9,401.9,236.2,401.9,236.7z
				"/>
			<path class="st4" d="M409.2,243c-0.9-0.2-1.7-0.4-2.6-0.8c-0.1,0-0.3-0.1-0.4-0.1c-1.4,0-2.8-1-2.9-3.1c-0.1-1.9,1.1-3.4,3-3.4
				c2-0.1,3.1,1.3,3.1,3.1c0.1,1.4-0.6,2.4-1.3,2.9l0,0c0.4,0.1,1,0.2,1.6,0.3L409.2,243z M407.9,238.8c0-1.1-0.7-2.1-1.7-2.1
				c-1,0-1.6,1-1.4,2.2c0,1.2,0.7,2.1,1.7,2.1C407.3,241,407.9,240,407.9,238.8z"/>
			<path class="st4" d="M411.9,235.6l0.1,3.7c0,1.1,0.4,1.7,1.2,1.7c0.8,0,1.1-0.6,1.1-1.7l-0.1-3.7h1.4l0.1,3.6c0,2-1,2.9-2.6,2.9
				s-2.6-0.9-2.6-2.9l-0.1-3.6L411.9,235.6z"/>
			<path class="st4" d="M420.8,239.4l-2.3-0.1v1.6l2.7,0.1v1.2L417,242l0.2-6.3l3.9,0.1v1.2l-2.4-0.1v1.3l2.3,0.1L420.8,239.4z
				 M420.8,234.1l-1.2,1.1h-1.1l0.8-1.1H420.8z"/>
			<path class="st4" d="M422.7,240.1v-0.2c0-0.4,0.2-1,0.7-1.4c0.3-0.3,0.6-0.7,0.6-1c0-0.3-0.2-0.6-0.7-0.6c-0.3,0-0.7,0.1-1,0.2
				l-0.2-1c0.3-0.2,0.9-0.3,1.6-0.3c1.2,0.1,1.8,0.8,1.8,1.6c0,0.7-0.6,1.1-0.9,1.6c-0.3,0.3-0.6,0.8-0.6,1.1v0.2L422.7,240.1z
				 M422.4,241.4c0-0.4,0.4-0.9,0.9-0.8c0.6,0,0.8,0.4,0.8,0.9s-0.3,0.9-0.9,0.8C422.7,242.2,422.4,241.9,422.4,241.4z"/>
		</g>
	</g>
	<g>
		<path class="st3" d="M293.4,252.8l-2.9,2.2l1.4,1.9l3.2-2.6l1.1,1.4l-5,3.9l-6.1-7.9l4.9-3.8l1.1,1.4l-3.1,2.3l1.2,1.7l2.9-2.2
			L293.4,252.8z"/>
		<path class="st3" d="M301.9,251.9l-1.8-1c-0.7-0.3-1.2-0.7-1.8-1l0,0c0.1,0.6,0.2,1.1,0.4,1.9l0.3,2l-2.1,1.4l-0.6-5.8l-5.1-2.4
			l2.1-1.4l1.8,1c0.6,0.3,1,0.6,1.6,0.9l0,0c-0.2-0.7-0.2-1.1-0.4-1.8l-0.2-1.9l2.1-1.4l0.6,5.6l5.3,2.4L301.9,251.9z"/>
		<path class="st3" d="M299.8,241.5c0.6-0.4,1.3-1.1,2.4-1.8c1.2-0.8,2.1-1.1,3-1c0.8,0.1,1.7,0.6,2.1,1.3c0.6,0.8,0.7,1.7,0.6,2.4
			c-0.2,1-1,1.9-2.1,2.7c-0.2,0.1-0.4,0.3-0.7,0.3l1.9,3l-1.9,1.2L299.8,241.5z M304.1,244.1c0.2-0.1,0.4-0.2,0.7-0.3
			c1-0.7,1.3-1.6,0.8-2.4c-0.4-0.8-1.3-0.9-2.2-0.3c-0.3,0.2-0.7,0.4-0.8,0.6L304.1,244.1z"/>
		<path class="st3" d="M315.3,238.6l-3.2,1.9l1.2,2l3.6-2.1l0.9,1.6l-5.6,3.2l-5-8.7l5.3-3.1l0.9,1.6l-3.3,2l1,1.8l3.2-1.9
			L315.3,238.6z"/>
		<path class="st3" d="M314.6,232.5c0.6-0.4,1.6-1,2.6-1.6c1.3-0.7,2.3-1,3.2-0.8c0.8,0.1,1.3,0.6,1.8,1.4c0.6,1.1,0.2,2.3-0.4,3
			l0,0c0.8-0.1,1.4,0.3,2,1c0.8,0.9,1.7,1.9,2,2.1l-2,1.1c-0.2-0.2-0.9-0.8-1.7-1.8c-0.8-1-1.3-1.1-2.2-0.7l-0.6,0.3l1.8,3.4l-2,1
			L314.6,232.5z M318.6,235.2l0.8-0.4c1-0.6,1.3-1.3,0.9-2.1c-0.4-0.8-1.2-0.9-2.1-0.4c-0.4,0.2-0.8,0.4-0.9,0.6L318.6,235.2z"/>
		<path class="st3" d="M324.7,227.2l4.3,9l-2,1l-4.3-9L324.7,227.2z"/>
		<path class="st3" d="M334.7,229l-3.3,1.4l1,2.1l3.8-1.7l0.8,1.7l-5.8,2.6L327,226l5.7-2.6l0.8,1.7l-3.6,1.6l0.9,1.9l3.3-1.4
			L334.7,229z"/>
		<path class="st3" d="M338.1,232.1l-3.7-9.3l2.4-1l3.2,2.7c0.9,0.8,1.9,1.7,2.8,2.6l0,0c-0.7-1.2-1.1-2.4-1.7-3.8l-1.1-2.7l1.9-0.8
			l3.7,9.3l-2.2,0.9l-3.4-2.8c-0.9-0.8-2-1.8-2.9-2.7l0,0c0.6,1.2,1.1,2.6,1.7,4l1.1,2.8L338.1,232.1z"/>
		<path class="st3" d="M354.5,225.8c-0.3,0.3-1.1,0.9-2.3,1.2c-3.2,1.1-5.7-0.3-6.6-3c-1.1-3.2,0.6-5.8,3.4-6.8
			c1.1-0.3,2-0.4,2.4-0.3l0.1,1.9c-0.4,0-1.1,0-1.9,0.2c-1.7,0.6-2.7,2-2,4.1c0.7,1.9,2.1,2.7,4.1,2.1c0.7-0.2,1.3-0.6,1.7-0.9
			L354.5,225.8z"/>
		<path class="st3" d="M355.4,215.4l2.9,9.6l-2.2,0.7l-2.9-9.6L355.4,215.4z"/>
		<path class="st3" d="M361.8,221.3v2.7l-2.2,0.6l0.4-10.5l2.9-0.8l5.6,8.9l-2.3,0.7l-1.4-2.3L361.8,221.3z M363.8,219.1l-1.1-1.9
			c-0.3-0.6-0.7-1.2-1-1.8l0,0c0,0.6,0,1.3,0,2v2.2L363.8,219.1z"/>
		<path class="st3" d="M370.8,211.7c0.8-0.3,1.9-0.6,3-0.8c1.9-0.3,3.1-0.2,4.2,0.3s2,1.7,2.3,3.3c0.3,1.9-0.1,3.3-0.9,4.3
			c-0.9,1-2.3,1.8-4.3,2.1c-1.1,0.2-2,0.3-2.6,0.3L370.8,211.7z M374.6,219.2c0.2,0,0.6,0,0.8-0.1c2-0.3,3.1-1.7,2.7-4.1
			c-0.3-2-1.8-2.9-3.7-2.6c-0.4,0.1-0.8,0.2-1,0.3L374.6,219.2z"/>
		<path class="st3" d="M388.1,214.4l-3.7,0.6l0.3,2.3l4.1-0.6l0.2,1.8l-6.3,0.9l-1.4-9.9l6.1-0.9l0.2,1.8l-3.9,0.6l0.3,2l3.7-0.6
			L388.1,214.4z"/>
		<path class="st3" d="M401.1,217.1c-0.4,0.2-1.3,0.6-2.6,0.7c-3.4,0.3-5.3-1.7-5.7-4.6c-0.3-3.4,2-5.5,5-5.8
			c1.1-0.1,2.1,0.1,2.4,0.2l-0.3,1.8c-0.4-0.1-1.1-0.2-1.9-0.2c-1.8,0.1-3.1,1.3-2.9,3.6c0.2,2,1.4,3.1,3.4,3
			c0.7-0.1,1.4-0.2,1.9-0.4L401.1,217.1z"/>
		<path class="st3" d="M411.1,211.9c0.1,3.2-1.8,5.3-4.7,5.5c-3,0.1-4.8-2.1-4.9-4.9c-0.1-3,1.7-5.3,4.7-5.5
			C409.2,207,411,209.2,411.1,211.9z M403.9,212.3c0.1,2,1,3.3,2.6,3.2c1.6-0.1,2.3-1.6,2.2-3.4c-0.1-1.8-1-3.3-2.6-3.2
			C404.7,208.9,403.8,210.3,403.9,212.3z"/>
		<path class="st3" d="M421.2,213.3c0-1.2,0-2.7,0-4.1l0,0c-0.3,1.2-0.8,2.7-1.2,3.9l-1.3,3.9h-1.8l-1-3.9c-0.3-1.2-0.7-2.6-0.8-3.9
			l0,0c-0.1,1.3-0.1,2.9-0.2,4.1l-0.2,3.8h-2.1l0.9-10l3,0.1l0.9,3.3c0.3,1.1,0.6,2.4,0.8,3.6l0,0c0.3-1.1,0.7-2.4,1-3.6l1.1-3.3
			l3,0.1l0.3,10h-2.2L421.2,213.3z"/>
		<path class="st3" d="M425.9,207.5c0.7-0.1,1.7-0.1,3.1,0c1.3,0.1,2.3,0.4,3,1c0.6,0.6,1,1.4,0.9,2.3c-0.1,1-0.4,1.8-1.1,2.3
			c-0.8,0.7-2,0.9-3.3,0.8c-0.3,0-0.6-0.1-0.8-0.1l-0.2,3.6l-2.2-0.1L425.9,207.5z M427.8,212.2c0.2,0.1,0.4,0.1,0.8,0.1
			c1.2,0.1,2-0.4,2-1.4c0.1-0.9-0.6-1.6-1.7-1.6c-0.4,0-0.8,0-0.9,0L427.8,212.2z"/>
		<path class="st3" d="M434.8,208.2c0.8,0,1.8,0,3,0.1c1.4,0.2,2.4,0.6,3.1,1.1c0.6,0.6,0.8,1.2,0.7,2.2c-0.1,1.2-1.1,2-2,2.2l0,0
			c0.7,0.3,1,1.1,1.1,2c0.2,1.1,0.3,2.4,0.4,2.9l-2.3-0.2c-0.1-0.3-0.2-1.1-0.4-2.4c-0.1-1.2-0.6-1.7-1.4-1.8l-0.7-0.1l-0.4,3.9
			l-2.2-0.2L434.8,208.2z M436.6,212.8l0.9,0.1c1.1,0.1,1.9-0.3,2-1.2s-0.4-1.4-1.4-1.6c-0.6-0.1-0.9-0.1-1,0L436.6,212.8z"/>
		<path class="st3" d="M445.3,216.9l-1.1,2.4l-2.3-0.3l4.7-9.3l2.9,0.4l1.4,10.3l-2.4-0.4l-0.3-2.7L445.3,216.9z M448.1,215.7
			l-0.2-2.2c-0.1-0.7-0.1-1.3-0.2-2l0,0c-0.2,0.6-0.6,1.3-0.8,1.8l-0.9,2L448.1,215.7z"/>
		<path class="st3" d="M455.8,219.1c0.6,0.4,1.3,1,2.3,1.1c1,0.2,1.7-0.1,1.8-0.7c0.1-0.6-0.2-1.1-1.3-1.8c-1.4-0.9-2.3-2.1-2-3.4
			c0.3-1.7,2.1-2.7,4.3-2.1c1.1,0.2,1.9,0.7,2.3,1.1l-0.9,1.7c-0.3-0.2-1-0.7-1.9-0.9c-1-0.2-1.6,0.1-1.7,0.7
			c-0.1,0.7,0.3,1,1.4,1.8c1.6,1,2.2,2.1,1.9,3.4c-0.3,1.7-2,2.8-4.7,2.1c-1.1-0.2-2.1-0.8-2.7-1.2L455.8,219.1z"/>
		<path class="st3" d="M467.9,214.1l-2.6,9.7l-2.2-0.6l2.6-9.7L467.9,214.1z"/>
		<path class="st3" d="M467.2,224.3l2.9-9.6l2.6,0.8l0.9,4.1c0.2,1.2,0.4,2.6,0.6,3.8l0,0c0.2-1.3,0.6-2.6,1-4l0.9-2.8l2,0.6
			l-2.9,9.6l-2.2-0.7l-0.9-4.3c-0.2-1.2-0.6-2.7-0.7-3.9l0,0c-0.3,1.2-0.7,2.7-1.2,4.2l-0.9,2.9L467.2,224.3z"/>
		<path class="st3" d="M483.4,219l5.7,2.1l-0.7,1.8l-3.6-1.3l-0.8,2.1l3.3,1.2l-0.7,1.7l-3.3-1.2l-1.4,3.8l-2.1-0.8L483.4,219z"/>
		<path class="st3" d="M491.1,222.1c0.7,0.2,1.8,0.6,2.9,1c1.3,0.6,2.2,1.2,2.7,2c0.3,0.7,0.4,1.4,0,2.3c-0.4,1.2-1.7,1.7-2.6,1.6
			l0,0c0.6,0.6,0.7,1.3,0.6,2.2c-0.1,1.1-0.3,2.4-0.3,2.9l-2.1-0.9c0-0.3,0.1-1.1,0.2-2.4c0.2-1.2,0-1.8-0.9-2.1l-0.7-0.2l-1.6,3.7
			l-2.1-0.9L491.1,222.1z M491.5,226.9l0.8,0.3c1,0.4,1.9,0.2,2.2-0.7c0.3-0.9,0-1.6-1-1.9c-0.6-0.2-0.8-0.3-1-0.3L491.5,226.9z"/>
		<path class="st3" d="M501.7,226.6l-4.2,9.1l-2.1-1l4.2-9.1L501.7,226.6z"/>
		<path class="st3" d="M506,239.5c-0.4,0-1.4-0.2-2.4-0.8c-3.1-1.6-3.7-4.2-2.4-6.8c1.6-3,4.6-3.7,7.2-2.3c1,0.6,1.8,1.1,2,1.6
			l-1.2,1.4c-0.3-0.3-0.8-0.8-1.6-1.2c-1.6-0.8-3.3-0.4-4.3,1.6c-0.9,1.8-0.4,3.4,1.4,4.3c0.6,0.3,1.3,0.6,1.8,0.6L506,239.5z"/>
		<path class="st3" d="M513.4,243.6c-0.4,0-1.3-0.3-2.4-0.9c-3-1.7-3.6-4.4-2.1-6.9c1.7-3,4.7-3.4,7.3-2c1,0.6,1.7,1.2,1.9,1.6
			l-1.2,1.3c-0.3-0.4-0.8-0.9-1.4-1.2c-1.6-0.9-3.3-0.6-4.3,1.3c-1,1.8-0.6,3.4,1.2,4.4c0.6,0.3,1.3,0.6,1.8,0.7L513.4,243.6z"/>
		<path class="st3" d="M521.6,237.2l-5.1,8.6l-1.9-1.2l5.1-8.6L521.6,237.2z"/>
		<path class="st3" d="M528.6,247.6c-1.8,2.8-4.6,3.3-7,1.7c-2.4-1.7-2.7-4.4-1.1-6.8c1.7-2.6,4.4-3.3,6.9-1.7
			C530,242.5,530.2,245.3,528.6,247.6z M522.5,243.7c-1.1,1.7-1.1,3.3,0.2,4.1c1.2,0.9,2.8,0.1,3.9-1.6c1-1.4,1.1-3.2-0.2-4.1
			C525.1,241.4,523.6,242.1,522.5,243.7z M530.7,240.2l-2.6,0.6l-1.6-1l2-0.9L530.7,240.2z"/>
		<path class="st3" d="M527,252.7l5.9-8l2.1,1.6l-0.4,4.2c-0.1,1.2-0.4,2.6-0.7,3.7l0,0c0.7-1.1,1.4-2.2,2.3-3.4l1.8-2.3l1.7,1.2
			l-5.9,8l-1.9-1.4l0.6-4.3c0.1-1.2,0.3-2.7,0.7-3.9l0,0c-0.8,1.1-1.6,2.2-2.6,3.6l-1.8,2.4L527,252.7z"/>
	</g>
	<g>
		<g>
			<path class="st3" d="M349.5,309.2l-5-8.7l2.3-1.3l3.7,2.1c1,0.7,2.1,1.4,3.1,2.1l0,0c-0.8-1.1-1.4-2.2-2.2-3.6l-1.4-2.6l1.8-1
				l5,8.7l-2.1,1.2l-3.8-2.3c-1-0.7-2.2-1.4-3.2-2.2l0,0c0.7,1.1,1.4,2.3,2.2,3.8l1.4,2.6L349.5,309.2z"/>
			<path class="st3" d="M355.9,294.3l2.4,5.2c0.8,1.6,1.7,2.1,2.8,1.6c1.1-0.6,1.3-1.6,0.6-3.1l-2.4-5.2l2-1l2.3,5.1
				c1.3,2.8,0.6,4.8-1.9,5.9c-2.3,1.1-4.2,0.4-5.6-2.4l-2.3-5L355.9,294.3z"/>
			<path class="st3" d="M371.2,294.2l-3.4,1.3l0.9,2.2l3.8-1.4l0.7,1.8l-5.9,2.2l-3.6-9.3l5.8-2.2l0.7,1.8l-3.7,1.4l0.8,1.9l3.4-1.3
				L371.2,294.2z"/>
			<path class="st3" d="M373.9,295.3c0.7,0.1,1.7,0.1,2.6-0.1c1-0.3,1.3-0.9,1.2-1.6c-0.2-0.6-0.8-0.8-2-0.9c-1.8-0.1-3.1-0.7-3.4-2
				c-0.6-1.7,0.4-3.3,2.7-4c1.1-0.3,1.9-0.3,2.6-0.2l0.1,1.9c-0.4-0.1-1.2-0.1-2.1,0.2c-0.9,0.3-1.2,0.9-1.1,1.3
				c0.2,0.6,0.8,0.7,2.2,0.8c1.9,0.1,2.9,0.8,3.3,2.1c0.4,1.6-0.3,3.3-2.9,4.1c-1.1,0.3-2.2,0.4-2.9,0.2L373.9,295.3z"/>
			<path class="st3" d="M382,286.9l-2.6,0.7l-0.4-1.9l7.5-1.8l0.4,1.9l-2.7,0.7l1.9,7.9l-2.2,0.6L382,286.9z"/>
			<path class="st3" d="M388.1,283.7c0.7-0.2,1.8-0.6,2.9-0.7c1.4-0.2,2.6-0.2,3.3,0.2c0.7,0.3,1.1,1,1.2,1.9
				c0.2,1.2-0.6,2.2-1.3,2.7l0,0c0.8,0.1,1.2,0.8,1.7,1.7c0.4,1.1,1,2.3,1.2,2.7l-2.2,0.3c-0.2-0.2-0.6-1-1.1-2.2
				c-0.4-1.2-1-1.4-1.9-1.3l-0.7,0.1l0.7,3.9l-2.2,0.3L388.1,283.7z M391,287.5l0.9-0.1c1.1-0.2,1.7-0.9,1.6-1.7
				c-0.1-0.9-0.9-1.2-1.9-1.1c-0.6,0.1-0.9,0.2-1,0.2L391,287.5z"/>
			<path class="st3" d="M406.8,286.1c0.3,3.2-1.4,5.5-4.4,5.7c-3,0.2-4.9-1.8-5.1-4.7c-0.2-3,1.4-5.3,4.3-5.7
				C404.6,281.2,406.4,283.3,406.8,286.1z M399.5,286.9c0.2,2,1.2,3.2,2.7,3.1c1.6-0.1,2.2-1.7,2.1-3.6c-0.1-1.8-1.1-3.2-2.7-3.1
				C400.1,283.4,399.3,285,399.5,286.9z"/>
			<path class="st3" d="M408.6,288.9c0.7,0.3,1.6,0.6,2.6,0.6c1,0,1.6-0.4,1.6-1.1s-0.4-1-1.7-1.3c-1.7-0.6-2.8-1.4-2.8-2.9
				c0-1.7,1.3-3,3.7-3.1c1.1,0,2,0.2,2.6,0.4l-0.4,1.8c-0.4-0.2-1.1-0.4-2.1-0.4s-1.4,0.4-1.4,1c0,0.7,0.6,0.9,1.9,1.3
				c1.8,0.7,2.7,1.6,2.7,2.9c0,1.7-1.2,3.1-4,3.2c-1.1,0-2.2-0.2-2.9-0.6L408.6,288.9z"/>
			<path class="st3" d="M426.8,291.4c-0.4,0.2-1.3,0.3-2.6,0.2c-3.4-0.2-5.1-2.6-4.9-5.3c0.2-3.4,2.8-5.1,5.8-4.9
				c1.2,0.1,2,0.3,2.4,0.7l-0.6,1.8c-0.4-0.2-1.1-0.4-1.9-0.6c-1.8-0.1-3.2,0.9-3.4,3.1c-0.1,2,1,3.3,3,3.4c0.7,0,1.4,0,1.9-0.2
				L426.8,291.4z"/>
			<path class="st3" d="M429.5,282l2.2,0.3l-1.1,8l3.9,0.6l-0.2,1.9l-6.2-0.9L429.5,282z"/>
			<path class="st3" d="M439.6,283.5l-1.9,9.8l-2.2-0.4l1.9-9.8L439.6,283.5z"/>
			<path class="st3" d="M446.4,291l-3.6-0.9l-0.6,2.3l4,1l-0.4,1.8l-6.2-1.4l2.3-9.7l6,1.4l-0.4,1.8l-3.8-0.9l-0.4,2l3.6,0.9
				L446.4,291z"/>
			<path class="st3" d="M447.2,295.5l3-9.6l2.6,0.8l0.9,4.1c0.2,1.2,0.4,2.6,0.6,3.8l0,0c0.2-1.3,0.7-2.6,1.1-4l0.9-2.8l2,0.7
				l-3,9.6l-2.2-0.7l-0.9-4.3c-0.2-1.2-0.4-2.7-0.6-3.9l0,0c-0.3,1.2-0.8,2.7-1.2,4.2l-0.9,2.9L447.2,295.5z"/>
			<path class="st3" d="M461.5,291.9l-2.4-1l0.7-1.8l7.1,2.9l-0.7,1.8l-2.6-1l-3,7.6l-2.1-0.9L461.5,291.9z"/>
			<path class="st3" d="M471.3,300.4l-3.3-1.6l-1,2.1l3.7,1.8l-0.8,1.7l-5.8-2.8l4.3-9l5.6,2.7l-0.8,1.7l-3.6-1.7l-0.9,1.9l3.3,1.6
				L471.3,300.4z"/>
			<path class="st3" d="M472.3,303.1c0.3,0.6,1,1.3,1.9,1.8c0.9,0.6,1.6,0.4,1.9-0.2c0.3-0.6,0.1-1.1-0.8-2c-1.1-1.3-1.7-2.7-1-3.9
				c0.8-1.4,2.7-1.9,4.8-0.8c1,0.6,1.6,1.1,2,1.7l-1.3,1.3c-0.2-0.3-0.8-1-1.6-1.4c-0.9-0.4-1.4-0.3-1.8,0.1c-0.3,0.6,0,1.1,0.9,2.1
				c1.2,1.4,1.4,2.7,0.8,3.9c-0.8,1.4-2.7,2.1-5,0.8c-1-0.6-1.8-1.3-2.2-1.9L472.3,303.1z"/>
		</g>
	</g>
	<g>
		<path class="st2" d="M242.4,601.5l2,1.9l-1.3,1.4l-5.7-5.2l1.3-1.4l2,1.9l5.6-6l1.7,1.6L242.4,601.5z"/>
		<path class="st2" d="M234.9,597l7-7.2l1.7,1.6l-7,7.2L234.9,597z"/>
		<path class="st2" d="M233.3,587.2l2.6,2.7l1.7-1.7l-2.9-3l1.3-1.3l4.6,4.6l-7.2,7.1l-4.3-4.4l1.3-1.3l2.8,2.8l1.4-1.4l-2.6-2.7
			L233.3,587.2z"/>
		<path class="st2" d="M235.1,582.9l-7.5,6.8l-1.8-2l1.3-4c0.3-1.1,0.9-2.4,1.4-3.6l0,0c-0.9,1-1.9,2-3,3l-2.2,2l-1.4-1.6l7.5-6.8
			l1.7,1.8l-1.4,4.2c-0.4,1.2-0.9,2.6-1.4,3.7l0,0c1-1,2-1.9,3.2-3l2.2-2L235.1,582.9z"/>
		<path class="st2" d="M220.8,581.9c-0.7-0.6-1.4-1.3-2.1-2.2c-1.2-1.4-1.8-2.7-1.9-3.9c-0.1-1.3,0.4-2.7,1.8-3.8
			c1.4-1.2,3-1.6,4.2-1.3c1.3,0.2,2.8,1.2,4,2.8c0.8,0.9,1.2,1.6,1.6,2.1L220.8,581.9z M225.6,574.9c-0.1-0.2-0.3-0.4-0.4-0.7
			c-1.3-1.6-3.1-1.9-4.9-0.3c-1.7,1.3-1.7,3-0.4,4.6c0.3,0.4,0.6,0.7,0.8,0.8L225.6,574.9z"/>
		<path class="st2" d="M218.7,567.8l2.4-1l1.4,1.9l-9.9,3.8l-1.9-2.3l6-8.7l1.6,1.9l-1.6,2.2L218.7,567.8z M215.7,566.8l-1.3,1.8
			c-0.3,0.6-0.9,1.1-1.2,1.6l0,0c0.6-0.2,1.2-0.6,1.8-0.8l2.1-0.9L215.7,566.8z"/>
		<path class="st2" d="M214.3,561.7c-0.1-0.7-0.4-1.7-1-2.4c-0.7-0.9-1.3-1-1.8-0.7c-0.6,0.3-0.6,1-0.1,2.2c0.6,1.7,0.4,3.1-0.8,4
			c-1.4,1-3.3,0.7-4.7-1.3c-0.7-0.9-1-1.8-1.1-2.3l1.8-0.7c0.1,0.4,0.2,1.2,0.9,2c0.6,0.8,1.2,0.9,1.7,0.7c0.6-0.3,0.4-1,0-2.3
			c-0.6-1.8-0.2-3.1,0.9-3.9c1.3-1,3.3-0.8,4.9,1.4c0.7,0.9,1.1,2,1.2,2.7L214.3,561.7z"/>
		<path class="st2" d="M208.8,549.7l-3.4,2.2l-3.2,6l-1.4-2.2l1.4-2.2c0.4-0.7,0.8-1.1,1.2-1.7l0,0c-0.7,0.1-1.2,0.3-2,0.4l-2.6,0.4
			l-1.4-2.1l6.8-0.4l3.6-2.3L208.8,549.7z"/>
		<path class="st2" d="M195.1,546.9c-0.4-0.6-1-1.3-1.8-2.6c-0.7-1.2-1-2.2-0.9-3.1c0.1-0.8,0.6-1.7,1.4-2.1
			c0.9-0.4,1.8-0.7,2.6-0.4c1,0.3,1.9,1.1,2.6,2.3c0.1,0.2,0.2,0.4,0.3,0.7l3.1-1.9l1.1,2L195.1,546.9z M197.9,542.6
			c-0.1-0.2-0.2-0.4-0.3-0.7c-0.7-1-1.6-1.3-2.4-0.9c-0.8,0.4-1,1.3-0.3,2.3c0.2,0.4,0.4,0.7,0.6,0.8L197.9,542.6z"/>
		<path class="st2" d="M190.6,539.6l-1.1-2l7.2-4l-1.9-3.6l1.7-0.9l3,5.6L190.6,539.6z"/>
		<path class="st2" d="M192.5,527l2.7-0.6l1.1,2.1l-10.5,1.8l-1.3-2.7l7.7-7.3l1.1,2.2l-2,1.9L192.5,527z M189.7,525.6l-1.7,1.6
			c-0.4,0.4-1,0.9-1.6,1.3l0,0c0.6-0.1,1.3-0.3,2-0.4l2.2-0.4L189.7,525.6z"/>
		<path class="st2" d="M183.7,522l1.1,2.4l-1.8,0.8l-3.3-7l1.8-0.8l1.2,2.6l7.5-3.4l1,2.1L183.7,522z"/>
		<path class="st2" d="M185.7,512.8l2.7-0.3l0.9,2.2l-10.6,1.1l-1.2-2.8l8.1-6.9l1,2.2l-2.1,1.8L185.7,512.8z M183.2,511.1l-1.8,1.4
			c-0.4,0.4-1.1,0.9-1.6,1.2l0,0c0.6-0.1,1.3-0.2,2-0.3l2.2-0.3L183.2,511.1z"/>
		<path class="st2" d="M175.9,508.9l-2.2-5.8l1.8-0.7l1.4,3.7l2.1-0.9l-1.3-3.3l1.8-0.7l1.3,3.3l3.8-1.4l0.8,2.1L175.9,508.9z"/>
		<path class="st2" d="M174.8,491.3c3.1-1.1,5.7,0.1,6.7,3s-0.6,5.2-3.3,6.2c-2.9,1-5.7-0.1-6.7-2.9
			C170.5,494.7,172.2,492.2,174.8,491.3z M177.3,498.2c1.9-0.7,2.9-2,2.3-3.4s-2.2-1.8-4-1.2c-1.7,0.6-2.9,1.9-2.3,3.4
			C173.7,498.4,175.5,498.9,177.3,498.2z"/>
		<path class="st2" d="M169.7,491.3c-0.3-0.7-0.8-1.7-1.1-2.9c-0.4-1.4-0.6-2.6-0.2-3.3c0.3-0.7,0.9-1.2,1.8-1.6
			c1.2-0.3,2.3,0.2,2.9,1l0,0c0.1-0.8,0.6-1.3,1.4-1.9c1-0.7,2.2-1.3,2.4-1.7l0.7,2.2c-0.2,0.2-1,0.7-2,1.3c-1.1,0.7-1.3,1.1-1.1,2
			l0.2,0.7l3.8-1.1l0.7,2.2L169.7,491.3z M173.3,487.9l-0.2-0.9c-0.3-1.1-1.1-1.6-1.9-1.3c-0.9,0.2-1.1,1-0.9,2
			c0.1,0.6,0.3,0.8,0.3,1L173.3,487.9z"/>
		<path class="st2" d="M170.9,472.9c-1.1,0.3-2.6,0.8-4,1.1l0,0c1.3,0,2.8,0,4.1,0.1l4.1,0.2l0.4,1.8l-3.6,2
			c-1.1,0.7-2.3,1.3-3.6,1.9l0,0c1.3-0.3,2.9-0.7,4.1-0.9l3.8-0.8l0.6,2l-10,1.9l-0.8-3l3-1.8c1-0.6,2.2-1.2,3.3-1.8l0,0
			c-1.2,0-2.6,0-3.8,0l-3.6-0.2l-0.8-2.9l9.7-3l0.6,2.1L170.9,472.9z"/>
		<path class="st2" d="M170.8,466.5l2.7,0.2l0.4,2.3l-10.6-1l-0.7-2.9l9.2-5.1l0.6,2.4l-2.3,1.3L170.8,466.5z M168.6,464.3l-2,1
			c-0.6,0.3-1.2,0.7-1.8,0.9l0,0c0.7,0,1.4,0,2,0.1l2.2,0.1L168.6,464.3z"/>
		<path class="st2" d="M169.6,459.2c0.2-0.7,0.3-1.7,0.2-2.6c-0.2-1-0.7-1.6-1.3-1.4c-0.7,0.1-0.9,0.7-1.1,1.9c-0.3,1.8-1,3-2.4,3.2
			c-1.7,0.3-3.2-0.9-3.7-3.2c-0.2-1.1-0.1-2,0.1-2.7l1.9,0.2c-0.1,0.4-0.3,1.2-0.1,2.1c0.2,0.9,0.7,1.3,1.2,1.3
			c0.7-0.1,0.8-0.7,1.1-2.1c0.3-1.9,1.1-2.9,2.6-3.1c1.7-0.3,3.3,0.8,3.8,3.4c0.2,1.1,0.1,2.3-0.1,2.9L169.6,459.2z"/>
		<path class="st2" d="M160.3,449.5c-0.2-0.8-0.4-1.9-0.6-3c-0.2-1.9,0-3.2,0.6-4.2c0.7-1.1,1.8-1.9,3.6-2.1
			c1.9-0.2,3.3,0.3,4.2,1.2c1,1,1.7,2.6,1.9,4.4c0.1,1.2,0.2,2,0.2,2.6L160.3,449.5z M168.2,446.2c0-0.2,0-0.6,0-0.8
			c-0.2-2.1-1.6-3.2-3.9-3c-2.1,0.2-3,1.6-2.8,3.6c0.1,0.6,0.1,0.8,0.2,1L168.2,446.2z"/>
		<path class="st2" d="M158.7,436.7l10.1-0.9l0.2,2.3l-10.1,0.9L158.7,436.7z"/>
		<path class="st2" d="M167.6,425.7c0.3,0.7,0.7,2,0.8,3.3c0.1,1.9-0.2,3.2-1.1,4.2c-0.8,1-2.1,1.6-3.6,1.7
			c-3.3,0.2-5.5-2.1-5.7-5.5c-0.1-1.3,0.1-2.3,0.3-2.8l1.9,0.3c-0.2,0.6-0.3,1.2-0.3,2.3c0.1,1.9,1.3,3.2,3.4,3.1
			c2.1-0.1,3.2-1.6,3.1-3.3c0-0.6-0.1-0.9-0.2-1.1l-2.1,0.1l0.1,1.6l-1.8,0.1l-0.2-3.8L167.6,425.7z"/>
		<path class="st2" d="M157.8,422l10.1-0.3l0.1,2.3l-10.1,0.3L157.8,422z"/>
		<path class="st2" d="M159.6,418.1v2.7h-1.9l-0.1-7.8h1.9v2.8l8.2-0.1v2.3L159.6,418.1z"/>
		<path class="st2" d="M165.3,410.6l2.6,0.8v2.3l-10-3.3l0.1-3l10.2-2.9v2.4l-2.6,0.8L165.3,410.6z M163.6,408l-2.1,0.6
			c-0.6,0.2-1.3,0.3-2,0.4l0,0c0.6,0.1,1.3,0.3,1.9,0.6l2.1,0.7L163.6,408z"/>
		<path class="st2" d="M157.9,403l0.1-2.3l8.2,0.4l0.2-4l1.9,0.1l-0.3,6.3L157.9,403z"/>
		<path class="st2" d="M164.6,390l-0.3,3.7l2.4,0.2l0.3-4.1l1.9,0.1l-0.6,6.5l-10.1-0.9l0.6-6.2l1.9,0.1l-0.3,3.9l2.1,0.2l0.3-3.7
			L164.6,390z"/>
		<path class="st2" d="M166.7,388.2c0.3-0.6,0.8-1.4,0.9-2.4s-0.2-1.7-0.9-1.7c-0.7-0.1-1,0.3-1.6,1.6c-0.8,1.6-1.8,2.6-3.3,2.4
			c-1.7-0.2-2.9-1.8-2.6-4.1c0.1-1.1,0.4-1.9,0.8-2.6l1.8,0.7c-0.2,0.3-0.6,1.1-0.7,2c-0.1,1,0.3,1.6,0.8,1.6c0.7,0.1,1-0.4,1.7-1.7
			c0.9-1.7,1.9-2.4,3.3-2.2c1.7,0.2,3,1.7,2.7,4.4c-0.1,1.1-0.6,2.2-0.9,2.8L166.7,388.2z"/>
		<path class="st2" d="M213.3,270.9c-0.1,0.4-0.4,1.3-1.1,2.3c-2,2.9-4.8,3.1-7.2,1.4c-2.9-2-3-5.1-1.3-7.6c0.7-1,1.3-1.6,1.8-1.8
			l1.2,1.4c-0.4,0.2-0.9,0.7-1.4,1.3c-1,1.4-0.9,3.2,0.9,4.6c1.7,1.1,3.4,0.9,4.6-0.8c0.4-0.6,0.7-1.3,0.8-1.8L213.3,270.9z"/>
		<path class="st2" d="M213.7,266.6l1.7,2.1l-1.4,1.9l-6.2-8.6l1.8-2.4l10,3.6l-1.4,2l-2.6-0.9L213.7,266.6z M213.8,263.5l-2.1-0.8
			c-0.6-0.2-1.3-0.6-1.9-0.8l0,0c0.4,0.4,0.9,1.1,1.3,1.6l1.3,1.8L213.8,263.5z"/>
		<path class="st2" d="M212.2,256.3c0.4-0.8,1-1.7,1.8-2.6c1.2-1.4,2.2-2.2,3.4-2.6c1.2-0.3,2.7,0,4,1.1c1.6,1.2,2.1,2.6,2.1,3.9
			c0,1.3-0.7,2.9-1.9,4.4c-0.8,0.9-1.3,1.6-1.8,1.9L212.2,256.3z M220,259.6c0.1-0.1,0.3-0.3,0.6-0.6c1.3-1.6,1.3-3.3-0.6-4.9
			c-1.7-1.3-3.2-1.1-4.4,0.4c-0.3,0.4-0.4,0.7-0.6,0.9L220,259.6z"/>
		<path class="st2" d="M227.1,247.3l-2.4,2.8l1.8,1.6l2.8-3.1l1.4,1.2l-4.2,4.9l-7.7-6.7l4.1-4.7l1.4,1.2l-2.6,3l1.6,1.3l2.4-2.8
			L227.1,247.3z"/>
		<path class="st2" d="M231.6,248.7l-7.3-6.9l1.8-2l4.1,1c1.2,0.3,2.6,0.7,3.7,1.1l0,0c-1.1-0.8-2.1-1.7-3.2-2.8l-2.1-2l1.4-1.6
			l7.3,6.9l-1.7,1.8l-4.3-1.1c-1.2-0.3-2.6-0.7-3.8-1.1l0,0c1,0.9,2.1,1.8,3.2,3l2.2,2.1L231.6,248.7z"/>
		<path class="st2" d="M238.2,238l1.3,2.3l-1.7,1.7l-4.9-9.3l2.1-2.1l9.3,5l-1.8,1.8l-2.3-1.3L238.2,238z M238.8,235l-2-1.1
			c-0.6-0.3-1.2-0.7-1.8-1l0,0c0.3,0.6,0.8,1.2,1,1.7l1.1,2L238.8,235z"/>
		<path class="st2" d="M240.7,225.3c0.6-0.7,1.3-1.4,2.2-2.2c1.4-1.2,2.6-1.9,3.8-2c1.3-0.1,2.7,0.3,3.8,1.7
			c1.3,1.4,1.7,2.9,1.4,4.2c-0.2,1.3-1.1,2.8-2.7,4.1c-0.9,0.8-1.6,1.3-2,1.7L240.7,225.3z M247.9,230c0.2-0.1,0.4-0.3,0.7-0.4
			c1.6-1.3,1.8-3.1,0.2-4.9c-1.3-1.6-3-1.6-4.6-0.3c-0.3,0.3-0.6,0.6-0.7,0.8L247.9,230z"/>
		<path class="st2" d="M256.9,219l-2.9,2.3l1.6,1.9l3.2-2.7l1.2,1.4l-5,4.1l-6.5-7.8l4.8-4l1.2,1.4l-3,2.6l1.3,1.7l2.9-2.3
			L256.9,219z"/>
		<path class="st2" d="M261.9,217.4c0.7-0.1,1.7-0.4,2.4-1c0.9-0.7,1-1.3,0.7-1.9s-1-0.6-2.2-0.1c-1.7,0.6-3.1,0.4-4-0.7
			c-1-1.3-0.7-3.3,1.2-4.8c0.9-0.7,1.8-1,2.3-1.1l0.7,1.8c-0.4,0.1-1.2,0.3-2,0.9s-0.9,1.2-0.6,1.7c0.4,0.6,1,0.4,2.3,0
			c1.8-0.6,3-0.3,3.9,0.8c1,1.3,0.9,3.3-1.3,5c-0.9,0.7-2,1.1-2.7,1.2L261.9,217.4z"/>
		<path class="st2" d="M265.5,205.2l3.3,4.8c1,1.4,2,1.8,3,1.1s1-1.8,0-3.2l-3.3-4.8l1.9-1.3l3.2,4.7c1.8,2.6,1.3,4.7-0.8,6.2
			c-2.1,1.4-4.1,1.2-6-1.4l-3.2-4.7L265.5,205.2z"/>
		<path class="st2" d="M282.5,201.2c-0.7-1-1.6-2.2-2.3-3.4l0,0c0.4,1.2,0.9,2.7,1.1,3.9l1.1,4l-1.6,1l-3-2.7
			c-0.9-0.8-2-1.9-2.9-2.9l0,0c0.7,1.2,1.4,2.6,2.1,3.7l1.9,3.3l-1.8,1.1l-4.9-8.9l2.6-1.7l2.7,2.3c0.9,0.8,1.9,1.7,2.7,2.6l0,0
			c-0.4-1.1-0.8-2.4-1.1-3.6l-0.9-3.4l2.6-1.6l5.9,8.2l-1.9,1.2L282.5,201.2z"/>
		<path class="st2" d="M284.9,192.6l5.1,8.7l-2,1.2l-5.1-8.7L284.9,192.6z"/>
		<path class="st2" d="M291.5,200.4l-4.9-8.9l2.3-1.3l3.7,2.2c1,0.7,2.2,1.4,3.1,2.2l0,0c-0.8-1.1-1.4-2.2-2.2-3.6l-1.4-2.6l1.9-1
			l4.9,8.9l-2.1,1.1l-3.8-2.3c-1-0.7-2.2-1.4-3.2-2.2l0,0c0.7,1.1,1.4,2.3,2.2,3.8l1.4,2.7L291.5,200.4z"/>
		<path class="st2" d="M297.8,185.5l4.7,9l-2,1l-4.7-9L297.8,185.5z"/>
		<path class="st2" d="M303,191.5c0.7,0,1.7-0.1,2.6-0.6c1-0.4,1.2-1.1,1-1.7c-0.2-0.6-0.9-0.7-2.1-0.6c-1.8,0.2-3.1-0.1-3.8-1.4
			c-0.8-1.6,0-3.3,2.1-4.4c1-0.4,1.9-0.7,2.6-0.7l0.3,1.9c-0.4,0-1.2,0.1-2.1,0.4c-0.9,0.4-1.1,1-0.9,1.6c0.3,0.6,0.9,0.6,2.3,0.4
			c1.9-0.2,3.1,0.3,3.7,1.6c0.8,1.6,0.2,3.4-2.3,4.6c-1,0.6-2.2,0.8-2.9,0.7L303,191.5z"/>
		<path class="st2" d="M309.4,182.1l-2.4,1.1l-0.8-1.8l7.1-3.2l0.8,1.8l-2.6,1.1l3.3,7.5l-2.1,0.9L309.4,182.1z"/>
		<path class="st2" d="M314.4,177.8c0.7-0.3,1.7-0.9,2.8-1.3c1.4-0.6,2.4-0.8,3.3-0.4c0.8,0.2,1.3,0.8,1.7,1.6c0.4,1.2,0,2.3-0.7,3
			l0,0c0.8,0,1.3,0.4,2,1.2c0.7,0.9,1.6,2,1.9,2.3l-2.2,0.9c-0.2-0.2-0.8-0.9-1.6-1.9c-0.8-1.1-1.2-1.2-2.1-0.9l-0.7,0.2l1.6,3.7
			l-2.1,0.9L314.4,177.8z M318.2,181.1l0.9-0.3c1.1-0.4,1.4-1.2,1.1-2c-0.3-0.9-1.1-1-2.1-0.7c-0.6,0.2-0.8,0.3-0.9,0.4L318.2,181.1
			z"/>
		<path class="st2" d="M333,175.9c1.1,3.1-0.1,5.7-2.9,6.7c-2.8,1-5.2-0.6-6.2-3.2c-1-2.9,0-5.7,2.8-6.7
			C329.7,171.7,332.1,173.3,333,175.9z M326.2,178.5c0.7,1.9,2,2.9,3.4,2.3c1.4-0.6,1.8-2.2,1.1-4.1c-0.7-1.7-2-2.9-3.4-2.3
			C325.9,175.1,325.6,176.7,326.2,178.5z"/>
		<path class="st2" d="M500.3,183.4l3.8-9.5l2.4,1l0.6,4.2c0.1,1.2,0.2,2.6,0.2,3.8l0,0c0.3-1.3,0.8-2.6,1.3-4l1.1-2.8l2,0.8
			l-3.8,9.5l-2.2-0.9l-0.6-4.4c-0.1-1.2-0.3-2.7-0.3-4l0,0c-0.4,1.2-0.9,2.6-1.6,4.1l-1.1,2.8L500.3,183.4z"/>
		<path class="st2" d="M515.8,178.8l-2.3,5.3c-0.7,1.6-0.4,2.7,0.6,3.1c1.1,0.4,2,0,2.8-1.7l2.3-5.3l2.1,0.9l-2.3,5.2
			c-1.2,2.9-3.3,3.6-5.8,2.6c-2.3-1-3.1-2.9-1.8-5.9l2.3-5.1L515.8,178.8z"/>
		<path class="st2" d="M526,190.1l-3.3-1.7l-1,2.1l3.8,1.8l-0.8,1.7l-5.8-2.8l4.4-9.1l5.6,2.8l-0.8,1.7l-3.6-1.8l-0.9,1.9l3.3,1.7
			L526,190.1z"/>
		<path class="st2" d="M526.8,192.6c0.4,0.6,1.1,1.3,2,1.8c0.9,0.4,1.7,0.3,1.9-0.2c0.3-0.6,0-1.1-0.9-2c-1.2-1.3-1.8-2.7-1.1-3.9
			c0.8-1.6,2.7-2,4.8-0.9c1,0.6,1.7,1.1,2,1.7l-1.3,1.4c-0.2-0.3-0.8-1-1.7-1.4c-0.9-0.4-1.6-0.3-1.8,0.2c-0.3,0.6,0.1,1.1,1,2.1
			c1.2,1.4,1.6,2.7,0.9,3.9c-0.8,1.6-2.7,2.1-5.1,0.9c-1-0.6-1.9-1.3-2.2-1.9L526.8,192.6z"/>
		<path class="st2" d="M538.3,192.2l-2.3-1.3l1-1.7l6.8,3.9l-1,1.7l-2.4-1.3l-4,7.1l-2-1.1L538.3,192.2z"/>
		<path class="st2" d="M544.6,193.7c0.7,0.3,1.7,0.8,2.7,1.4c1.3,0.8,2,1.6,2.3,2.3c0.2,0.8,0.2,1.4-0.3,2.3
			c-0.7,1.1-1.9,1.3-2.8,1.2l0,0c0.4,0.7,0.4,1.4,0.1,2.3c-0.3,1.1-0.8,2.4-0.8,2.9l-2-1.2c0-0.3,0.2-1.1,0.7-2.3
			c0.4-1.2,0.2-1.8-0.6-2.2l-0.6-0.3l-2.1,3.3l-1.9-1.2L544.6,193.7z M544.3,198.6l0.8,0.4c1,0.6,1.9,0.4,2.3-0.3
			c0.4-0.8,0.2-1.6-0.7-2.1c-0.4-0.3-0.8-0.4-0.9-0.4L544.3,198.6z"/>
		<path class="st2" d="M557.2,207.5c-1.9,2.8-4.7,3.3-7.1,1.7c-2.4-1.7-2.7-4.6-1.1-6.9c1.7-2.6,4.6-3.3,7-1.7
			C558.6,202.3,558.7,205.2,557.2,207.5z M551,203.5c-1.1,1.7-1.1,3.3,0.2,4.2s2.9,0.1,3.9-1.6c1-1.6,1.1-3.3-0.1-4.1
			C553.6,201.2,552.1,202,551,203.5z"/>
		<path class="st2" d="M564.2,208.9l-2.2-1.7l1.1-1.6l6.2,4.7l-1.1,1.6l-2.2-1.7l-4.9,6.6l-1.9-1.3L564.2,208.9z"/>
		<path class="st2" d="M566.8,217.9l-2.2,1.6l-1.9-1.4l8.7-6l2.3,1.9l-3.8,9.9l-1.9-1.6l1-2.6L566.8,217.9z M569.9,218.1l0.9-2.1
			c0.2-0.6,0.6-1.3,0.8-1.9l0,0c-0.4,0.3-1.1,0.9-1.6,1.2l-1.8,1.3L569.9,218.1z"/>
		<path class="st2" d="M577.2,216.6l1.8,1.4l-5.3,6.2l3.1,2.6l-1.2,1.4l-4.8-4.1L577.2,216.6z"/>
		<path class="st2" d="M583.5,229.9l-2.8-2.4l-1.6,1.8l3.1,2.8l-1.2,1.4l-4.8-4.3l6.8-7.6l4.7,4.2l-1.2,1.4l-2.9-2.7L582,226
			l2.8,2.4L583.5,229.9z"/>
		<path class="st2" d="M582,234.2l7-7.2l1.9,1.9l-1.1,4.1c-0.3,1.2-0.8,2.6-1.2,3.7l0,0c0.8-1.1,1.8-2.1,2.8-3.1l2.1-2.1l1.6,1.4
			l-7,7.2l-1.8-1.7l1.1-4.3c0.3-1.2,0.8-2.6,1.2-3.8l0,0c-0.9,1-1.9,2-3,3.2l-2.1,2.2L582,234.2z"/>
		<path class="st2" d="M596.5,237l-1.9-2l1.3-1.3l5.3,5.6l-1.3,1.3l-1.9-2l-5.9,5.7l-1.6-1.7L596.5,237z"/>
		<path class="st2" d="M604.6,250.3c-2.4,2.2-5.3,2-7.3-0.1c-2-2.2-1.4-5.1,0.7-7c2.2-2,5.2-2.1,7.2,0.1
			C607.2,245.6,606.6,248.5,604.6,250.3z M599.6,244.9c-1.4,1.3-1.9,2.9-0.9,4.1c1,1.1,2.7,0.8,4.2-0.4c1.3-1.2,1.9-2.9,0.9-4.1
			C602.7,243.4,601,243.6,599.6,244.9z"/>
		<path class="st2" d="M670,417.5c0.1,0.9,0.1,1.9,0.1,3.1c-0.1,1.9-0.4,3.1-1.2,4.1c-0.8,1-2.1,1.7-3.9,1.6c-1.9-0.1-3.2-0.8-4-1.8
			c-0.9-1.1-1.2-2.7-1.2-4.7c0-1.2,0.1-2,0.2-2.6L670,417.5z M661.6,419.5c0,0.2-0.1,0.6-0.1,0.8c-0.1,2.1,1,3.4,3.4,3.6
			c2.1,0.1,3.2-1.1,3.3-3.1c0-0.6,0-0.9-0.1-1L661.6,419.5z"/>
		<path class="st2" d="M662.1,429.4l-2.6-0.9l0.1-2.3l9.9,3.8l-0.2,3l-10.3,2.4l0.2-2.4l2.7-0.6L662.1,429.4z M663.6,432l2.2-0.4
			c0.6-0.1,1.3-0.2,2-0.3l0,0c-0.6-0.2-1.3-0.4-1.9-0.6l-2.1-0.8L663.6,432z"/>
		<path class="st2" d="M667.1,438.2l0.2-2.7l1.9,0.2l-0.8,7.8l-1.9-0.2l0.2-2.8l-8.1-0.8l0.2-2.3L667.1,438.2z"/>
		<path class="st2" d="M662.2,452.9c-3.3-0.4-5-2.7-4.6-5.7c0.4-3,2.9-4.4,5.8-4c3,0.4,5,2.7,4.6,5.6
			C667.5,451.9,665,453.4,662.2,452.9z M663.1,445.7c-2-0.2-3.4,0.4-3.7,2c-0.2,1.6,1.1,2.6,3.1,2.9c1.8,0.2,3.4-0.4,3.7-2
			C666.3,447.1,665,445.9,663.1,445.7z"/>
		<path class="st2" d="M659.2,453.7c-0.4,0.6-0.9,1.4-1.1,2.4c-0.2,1,0.1,1.7,0.8,1.8c0.7,0.1,1.1-0.3,1.7-1.4
			c0.9-1.6,2-2.4,3.4-2.2c1.7,0.3,2.8,1.9,2.3,4.3c-0.2,1.1-0.6,1.9-1,2.4l-1.8-0.8c0.2-0.3,0.7-1,0.9-2c0.2-1-0.2-1.6-0.7-1.7
			c-0.7-0.1-1,0.4-1.8,1.6c-1,1.7-2,2.3-3.4,2.1c-1.7-0.3-2.9-1.8-2.3-4.6c0.2-1.1,0.7-2.2,1.1-2.7L659.2,453.7z"/>
		<path class="st2" d="M654.4,466.2l4,0.9l6.6-1.8l-0.6,2.6l-2.6,0.4c-0.8,0.1-1.3,0.2-2.1,0.3l0,0c0.6,0.3,1.1,0.7,1.8,1.2l2.1,1.6
			l-0.6,2.6l-5-4.6l-4.1-0.9L654.4,466.2z"/>
		<path class="st2" d="M659.6,479.3l0.7-2.7l1.9,0.6l-2,7.6l-1.9-0.6l0.8-2.7l-7.9-2.1l0.6-2.2L659.6,479.3z"/>
		<path class="st2" d="M652.5,489.9l1.1-3.6l-2.3-0.7l-1.2,4l-1.8-0.6l1.9-6.2l9.7,3l-1.8,6l-1.8-0.6l1.1-3.8l-2-0.7l-1.1,3.6
			L652.5,489.9z"/>
		<path class="st2" d="M645.7,497.3c-0.1-0.4,0-1.4,0.4-2.6c1.1-3.3,3.8-4.3,6.5-3.3c3.2,1.1,4.3,4.1,3.3,7
			c-0.3,1.1-0.9,1.9-1.2,2.2l-1.6-1c0.3-0.3,0.7-0.9,1-1.7c0.6-1.7,0-3.4-2.1-4.1c-1.9-0.7-3.6,0.1-4.2,2c-0.2,0.7-0.3,1.4-0.3,1.9
			L645.7,497.3z"/>
		<path class="st2" d="M645.2,498.3l9.5,3.7l-1,2.4l-4.2,0.7c-1.2,0.2-2.6,0.3-3.8,0.3l0,0c1.3,0.3,2.6,0.8,4,1.3l2.8,1.1l-0.8,2
			l-9.5-3.7l0.9-2.2l4.4-0.7c1.2-0.2,2.7-0.3,4-0.3l0,0c-1.2-0.4-2.6-0.9-4.1-1.6l-2.9-1.1L645.2,498.3z"/>
		<path class="st2" d="M642.5,518.2c-3-1.3-4.1-4-2.9-6.7c1.2-2.8,4-3.4,6.7-2.3c2.8,1.2,4.1,3.9,2.9,6.7
			C647.8,518.7,645.1,519.4,642.5,518.2z M645.3,511.5c-1.8-0.8-3.4-0.4-4.1,0.9c-0.7,1.4,0.3,2.8,2.2,3.6c1.7,0.8,3.4,0.6,4.1-0.9
			C648.1,513.7,647.1,512.2,645.3,511.5z"/>
		<path class="st2" d="M646.4,521.7l-1,2.1l-7.3-3.6l-1.8,3.7l-1.8-0.8l2.8-5.7L646.4,521.7z"/>
		<path class="st2" d="M634.5,534.3c-2.9-1.6-3.8-4.2-2.4-6.9c1.4-2.7,4.2-3.1,6.8-1.8c2.7,1.4,3.8,4.2,2.4,6.8
			C639.7,535.2,636.9,535.6,634.5,534.3z M637.7,527.7c-1.8-0.9-3.4-0.8-4.1,0.7c-0.7,1.3,0.2,2.9,1.9,3.8c1.6,0.9,3.4,0.8,4.1-0.6
			C640.4,530.2,639.5,528.7,637.7,527.7z"/>
		<path class="st2" d="M625.5,540.5c0.1-0.8,0.6-2,1.2-3.2c0.9-1.6,2-2.6,3.2-2.9s2.7-0.1,3.9,0.6c2.9,1.7,3.3,4.8,1.7,7.7
			c-0.7,1.1-1.3,1.9-1.8,2.2l-1.3-1.3c0.4-0.3,1-0.9,1.6-1.8c1-1.7,0.8-3.4-1.1-4.6c-1.8-1-3.6-0.6-4.4,1.1c-0.2,0.4-0.4,0.9-0.4,1
			l1.8,1.1l0.8-1.3l1.6,0.9l-1.9,3.2L625.5,540.5z"/>
		<path class="st2" d="M631.6,548.8l-8.6-5.3l1.2-2l8.6,5.3L631.6,548.8z M632.9,551.3l-0.6-2.6l1-1.6l0.9,2L632.9,551.3z"/>
		<path class="st2" d="M623,548.4l-1.8-2l1.3-2l6.8,8.1l-1.7,2.6l-10.2-2.9l1.3-2.1l2.6,0.8L623,548.4z M623,551.5l2.1,0.7
			c0.6,0.2,1.3,0.4,1.9,0.7l0,0c-0.4-0.4-1-1-1.3-1.4l-1.4-1.7L623,551.5z"/>
	</g>
	<g>
		<path class="st2" d="M331.9,656.7c-0.8,0-2.1-0.1-3.3-0.6c-1.8-0.7-2.9-1.6-3.4-2.7c-0.6-1.1-0.7-2.6-0.1-3.9
			c1.1-3.1,4.1-4.1,7.2-3c1.2,0.4,2.1,1,2.4,1.4l-1.1,1.6c-0.4-0.4-1-0.8-2.1-1.2c-1.8-0.7-3.6-0.1-4.2,2c-0.7,2,0.1,3.6,1.9,4.2
			c0.4,0.2,0.9,0.2,1.1,0.2l0.7-2l-1.4-0.6l0.6-1.7l3.6,1.2L331.9,656.7z"/>
		<path class="st2" d="M344.1,655.6c-1,3.1-3.4,4.4-6.3,3.7c-2.9-0.9-3.9-3.6-3-6.3c0.9-2.9,3.4-4.4,6.2-3.6
			C344,650.3,344.9,653,344.1,655.6z M337,653.6c-0.6,1.9-0.1,3.4,1.3,4c1.4,0.4,2.8-0.7,3.3-2.6c0.6-1.8,0.2-3.4-1.3-4
			C338.9,650.6,337.7,651.7,337,653.6z"/>
		<path class="st2" d="M346.8,651.4c0.6,0,1.8,0.2,2.9,0.6c1.3,0.3,2.1,0.7,2.8,1.3c0.6,0.6,0.9,1.3,0.7,2.2c-0.2,0.9-1,1.6-2.1,1.7
			l0,0c1,0.6,1.7,1.7,1.3,2.9c-0.2,0.9-0.8,1.4-1.6,1.8c-0.9,0.3-2.1,0.3-4.1-0.1c-1.1-0.3-1.9-0.6-2.3-0.8L346.8,651.4z
			 M346.8,660.1c0.2,0.1,0.4,0.1,0.9,0.2c1,0.2,2,0.1,2.2-0.9c0.2-1-0.6-1.7-1.7-1.9l-0.8-0.2L346.8,660.1z M348,655.7l0.8,0.2
			c1.1,0.3,1.9,0,2.1-0.8c0.2-0.8-0.2-1.3-1.2-1.6c-0.4-0.1-0.8-0.2-1-0.2L348,655.7z"/>
		<path class="st2" d="M357.7,654l-2.3,9.9l-2.2-0.6l2.3-9.9L357.7,654z"/>
		<path class="st2" d="M364.1,661.4l-3.7-0.8l-0.6,2.3l4.1,0.9l-0.4,1.8l-6.2-1.3l2.1-9.9l6.1,1.3l-0.4,1.8l-3.9-0.8l-0.4,2l3.7,0.8
			L364.1,661.4z"/>
		<path class="st2" d="M367.1,656.2c0.8,0,1.9,0.1,3,0.3c1.4,0.2,2.4,0.7,3.1,1.3c0.6,0.6,0.7,1.3,0.6,2.2c-0.2,1.2-1.3,2-2.2,2.1
			l0,0c0.7,0.4,0.9,1.1,1,2.1c0.1,1.2,0.2,2.6,0.3,3l-2.3-0.4c-0.1-0.3-0.2-1.1-0.3-2.4c0-1.3-0.4-1.7-1.3-1.9l-0.7-0.1l-0.7,3.9
			l-2.2-0.4L367.1,656.2z M368.5,660.9l0.9,0.1c1.1,0.2,1.9-0.2,2-1.1c0.1-0.9-0.3-1.4-1.4-1.7c-0.6-0.1-0.9-0.1-1-0.1L368.5,660.9z
			"/>
		<path class="st2" d="M374.3,667.5l1.4-10l2.7,0.3l1.6,4c0.4,1.1,0.9,2.4,1.1,3.7l0,0c0-1.3,0.2-2.7,0.3-4.2l0.4-2.9l2.1,0.3
			l-1.4,10l-2.3-0.3l-1.6-4.1c-0.4-1.1-0.9-2.6-1.2-3.8l0,0c-0.1,1.3-0.3,2.8-0.6,4.3l-0.4,3L374.3,667.5z"/>
		<path class="st2" d="M394.4,664.8c-0.3,3.3-2.6,5.1-5.5,4.8c-3-0.3-4.6-2.7-4.2-5.6c0.3-3,2.4-5.1,5.5-4.8
			C393.2,659.5,394.7,662,394.4,664.8z M387.1,664.2c-0.2,2,0.6,3.4,2.1,3.6c1.6,0.1,2.6-1.2,2.8-3.2c0.2-1.8-0.6-3.4-2.1-3.6
			C388.3,660.9,387.3,662.2,387.1,664.2z"/>
		<path class="st2" d="M406.1,670.2c-0.4,0.2-1.3,0.3-2.7,0.3c-3.4-0.1-5.2-2.4-5.1-5.3c0.1-3.4,2.7-5.2,5.8-5.1
			c1.2,0,2.1,0.3,2.4,0.6l-0.6,1.8c-0.4-0.2-1.1-0.4-1.9-0.4c-1.8-0.1-3.2,1-3.3,3.2c-0.1,2,1,3.3,3.1,3.4c0.7,0,1.4-0.1,1.9-0.2
			L406.1,670.2z"/>
		<path class="st2" d="M416.6,665.4c0,3.3-2.1,5.3-5,5.3c-3,0-4.8-2.3-4.7-5.2c0-3,2-5.3,5-5.2C414.9,660.3,416.6,662.6,416.6,665.4
			z M409.2,665.5c0,2,0.9,3.3,2.4,3.4c1.6,0,2.4-1.4,2.4-3.4c0-1.8-0.9-3.3-2.4-3.4C410.2,662.1,409.3,663.5,409.2,665.5z"/>
		<path class="st2" d="M418,660.6c0.8-0.1,1.8-0.2,3-0.3c1.4,0,2.6,0.1,3.3,0.7c0.7,0.4,1,1.1,1,2.1c0,1.3-0.9,2.2-1.7,2.6l0,0
			c0.7,0.2,1.1,0.9,1.4,1.9c0.3,1.1,0.7,2.4,0.9,2.8l-2.3,0.1c-0.2-0.3-0.4-1.1-0.8-2.3c-0.3-1.2-0.8-1.6-1.7-1.6h-0.7l0.1,4
			l-2.2,0.1L418,660.6z M420.4,664.9h0.9c1.1,0,1.8-0.7,1.8-1.6c0-0.9-0.7-1.3-1.7-1.3c-0.6,0-0.9,0.1-1,0.1V664.9z"/>
		<path class="st2" d="M426.7,660.3c0.7-0.1,1.7-0.3,3.1-0.4c1.4-0.1,2.4,0.1,3.1,0.6c0.7,0.4,1.1,1.3,1.2,2.2
			c0.1,1-0.2,1.9-0.8,2.4c-0.8,0.8-1.9,1.2-3.2,1.2c-0.3,0-0.6,0-0.8,0l0.2,3.6l-2.2,0.1L426.7,660.3z M429.3,664.8
			c0.2,0,0.4,0,0.8,0c1.2-0.1,1.9-0.8,1.9-1.8c-0.1-0.9-0.8-1.4-1.9-1.3c-0.4,0-0.8,0.1-0.9,0.1L429.3,664.8z"/>
		<path class="st2" d="M444.8,663.6c0.3,3.3-1.4,5.6-4.4,5.8c-3,0.3-5-1.8-5.2-4.7c-0.3-3,1.3-5.5,4.3-5.8
			C442.6,658.6,444.5,660.9,444.8,663.6z M437.5,664.5c0.2,2,1.2,3.2,2.8,3.1c1.6-0.1,2.2-1.7,2.1-3.7c-0.2-1.8-1.2-3.2-2.8-3.1
			C438,661,437.4,662.5,437.5,664.5z"/>
		<path class="st2" d="M445.5,658.6c0.7-0.2,1.8-0.4,3-0.7c1.4-0.2,2.6-0.1,3.3,0.3c0.7,0.4,1.1,1,1.2,2c0.2,1.2-0.6,2.3-1.4,2.7
			l0,0c0.8,0.2,1.2,0.8,1.6,1.7c0.4,1.1,1,2.3,1.2,2.7l-2.3,0.3c-0.2-0.2-0.6-1-1-2.2c-0.4-1.2-0.9-1.4-1.9-1.3l-0.7,0.1l0.6,3.9
			l-2.2,0.3L445.5,658.6z M448.4,662.6l0.9-0.1c1.1-0.1,1.7-0.8,1.6-1.7c-0.1-0.9-0.8-1.3-1.9-1.1c-0.6,0.1-0.9,0.2-1,0.2
			L448.4,662.6z"/>
		<path class="st2" d="M458,664.2l-0.2,2.7l-2.3,0.4l1.2-10.6l3-0.6l4.9,9.5l-2.4,0.4l-1.2-2.4L458,664.2z M460.2,662.1l-1-2
			c-0.3-0.6-0.6-1.2-0.9-1.8l0,0c0,0.7,0,1.4-0.1,2l-0.2,2.2L460.2,662.1z"/>
		<path class="st2" d="M465.1,657.1l-2.7,0.6l-0.4-1.9l7.6-1.7l0.4,1.9l-2.7,0.6l1.7,8l-2.2,0.4L465.1,657.1z"/>
		<path class="st2" d="M472.7,653.4l2.3,9.8l-2.2,0.6l-2.3-9.8L472.7,653.4z"/>
		<path class="st2" d="M479.4,662.1l-5.8-8.9l2.4-0.7l2.3,3.8c0.7,1.1,1.2,2.1,1.8,3.2l0,0c-0.1-1.2-0.1-2.4,0-3.7l0.1-4.6l2.3-0.7
			l-0.7,10.7L479.4,662.1z"/>
		<path class="st2" d="M493.4,652.6c1,3.1-0.3,5.7-3.1,6.6c-2.9,0.9-5.2-0.8-6.1-3.4c-0.9-2.9,0.2-5.7,3.1-6.6
			C490.2,648.2,492.6,650,493.4,652.6z M486.4,655c0.6,1.9,1.9,3,3.3,2.4c1.4-0.4,1.9-2.1,1.3-4c-0.6-1.8-1.9-3-3.3-2.4
			C486.3,651.4,485.9,653.1,486.4,655z"/>
	</g>
	<g>
		<g>
			<path class="st4" d="M663.1,207.4c-5.9,0-11.7-2.3-16-7c-55.3-60.4-130.6-96.7-212-102c-11.9-0.8-21-11.1-20.2-23
				c0.8-11.9,11.1-21,23-20.2c92.7,6.1,178.3,47.3,241.2,116c8.1,8.8,7.5,22.6-1.3,30.6C673.5,205.5,668.3,207.4,663.1,207.4z"/>
			<path class="st5" d="M747.6,487c-1.1,0-2.2-0.1-3.3-0.2c-11.8-1.8-19.9-12.9-18.1-24.7c2.4-15.9,3.7-32.3,3.7-48.5
				c0-64.5-19.4-126.6-55.8-179.4c-6.8-9.9-4.3-23.4,5.5-30.1c9.9-6.8,23.4-4.3,30.1,5.5c41.6,60.2,63.6,130.7,63.6,204.1
				c0,18.5-1.4,36.9-4.2,55.1C767.3,479.3,758.1,487,747.6,487z"/>
			<path class="st6" d="M580.8,728.8c-7.6,0-14.9-3.9-18.9-11c-5.9-10.5-2.3-23.7,8.1-29.6c34.8-19.8,65.2-45.7,90.3-77
				c25.4-31.6,44.2-67.2,56-105.8c3.4-11.5,15.6-17.9,27-14.5c11.5,3.4,17.9,15.6,14.5,27c-13.3,43.9-34.7,84.4-63.6,120.4
				c-28.6,35.6-63.1,65-102.7,87.6C588.1,727.8,584.4,728.8,580.8,728.8z"/>
			<path class="st7" d="M413.9,772.8c-45.7,0-90.3-8.5-132.5-25.3c-11.1-4.4-16.6-17-12.1-28.1c4.4-11.1,17-16.6,28.1-12.1
				c37,14.7,76.2,22.1,116.5,22.1s79.5-7.5,116.7-22.2c11.1-4.4,23.7,1,28.1,12.1s-1,23.7-12.1,28.1
				C504.5,764.3,459.7,772.8,413.9,772.8z"/>
			<path class="st8" d="M246.7,728.6c-3.7,0-7.3-0.9-10.7-2.9c-39.5-22.6-74-52-102.5-87.6c-28.8-35.9-50.2-76.4-63.5-120.3
				c-3.4-11.5,3-23.6,14.5-27c11.5-3.4,23.6,3,27,14.5c11.7,38.6,30.5,74.1,55.8,105.7c25.1,31.3,55.4,57.2,90.1,77
				c10.5,5.9,14,19.1,8.1,29.6C261.6,724.7,254.3,728.6,246.7,728.6z"/>
			<path class="st9" d="M80.4,488.1c-10.5,0-19.7-7.7-21.4-18.4c-2.9-18.5-4.3-37.4-4.3-56.2c0-73.1,21.8-143.5,63.2-203.6
				c6.8-9.9,20.2-12.3,30.1-5.6c9.9,6.8,12.3,20.2,5.6,30.1c-36.3,52.7-55.5,114.6-55.5,178.9c0,16.6,1.3,33.3,3.9,49.5
				c1.9,11.8-6.2,22.9-18,24.8C82.6,488,81.5,488.1,80.4,488.1z"/>
			<path class="st10" d="M164.4,207.8c-5.2,0-10.5-1.9-14.6-5.7c-8.9-8.1-9.5-21.8-1.4-30.6C211.1,102.6,296.8,61.4,389.4,55
				c11.9-0.8,22.2,8.2,23.1,20.1c0.8,11.9-8.2,22.2-20.1,23.1c-81.4,5.5-156.7,41.8-211.9,102.3
				C176.2,205.4,170.3,207.8,164.4,207.8z"/>
		</g>
		<g>
			<path class="st3" d="M533.9,102.1c-0.4,0-1.4-0.1-2.7-0.6c-3.4-1.2-4.3-4-3.3-6.9c1.2-3.3,4.3-4.3,7.3-3.2c1.1,0.4,1.9,1,2.2,1.3
				l-1.1,1.6c-0.3-0.3-0.9-0.8-1.8-1.1c-1.8-0.7-3.6-0.1-4.3,2.1c-0.8,2,0,3.7,2,4.3c0.7,0.2,1.4,0.3,2,0.3L533.9,102.1z"/>
			<path class="st3" d="M539.1,93.2l2.2,0.9l-3.2,7.9l3.9,1.6l-0.8,1.9L535,103L539.1,93.2z"/>
			<path class="st3" d="M548.7,97.2l-4.1,9.7l-2.2-0.9l4.1-9.7L548.7,97.2z"/>
			<path class="st3" d="M554.1,106.2l-3.6-1.6l-1,2.2l3.9,1.8l-0.8,1.8l-6.1-2.8l4.3-9.6l5.9,2.7l-0.8,1.8l-3.8-1.7l-0.9,2l3.6,1.6
				L554.1,106.2z"/>
			<path class="st3" d="M554,111.1l4.6-9.5l2.4,1.2l0.3,4.4c0.1,1.2,0.1,2.7,0,4l0,0c0.4-1.3,1-2.6,1.8-4l1.3-2.8l2,1l-4.6,9.5
				l-2.2-1.1l-0.2-4.7c-0.1-1.3-0.1-2.8,0-4.1l0,0c-0.6,1.2-1.2,2.7-1.9,4.1l-1.3,2.9L554,111.1z"/>
			<path class="st3" d="M569.3,109.2l-2.4-1.3l0.9-1.8l7.1,3.8l-0.9,1.8l-2.6-1.3l-3.9,7.6l-2.1-1.1L569.3,109.2z"/>
			<path class="st3" d="M578.7,118.9l-3.3-1.9l-1.2,2.2l3.8,2.1L577,123l-5.9-3.2l5.1-9.1l5.7,3.1l-0.9,1.7l-3.6-2l-1.1,1.9l3.3,1.9
				L578.7,118.9z"/>
			<path class="st3" d="M579.5,121.7c0.3,0.6,1.1,1.3,1.9,1.9c0.9,0.6,1.7,0.4,2-0.1s0.1-1.1-0.8-2.1c-1.2-1.4-1.7-2.8-0.9-4.1
				c0.9-1.6,2.9-2,5-0.7c1,0.6,1.7,1.2,2,1.8l-1.4,1.3c-0.2-0.3-0.8-1-1.7-1.6c-0.9-0.6-1.6-0.3-1.8,0.1c-0.3,0.6,0,1.1,0.9,2.2
				c1.2,1.6,1.6,2.8,0.8,4.1c-0.9,1.6-2.8,2.1-5.3,0.7c-1-0.6-1.9-1.4-2.2-2.1L579.5,121.7z"/>
		</g>
		<g>
			<path class="st3" d="M727.4,298.2l-2.8,0.2l-0.8-2.3l11-0.4l1,2.9l-8.8,6.6l-0.9-2.4l2.2-1.7L727.4,298.2z M729.9,300.2l1.9-1.3
				c0.6-0.3,1.2-0.8,1.8-1.2l0,0c-0.7,0.1-1.4,0.2-2.1,0.2l-2.3,0.1L729.9,300.2z"/>
			<path class="st3" d="M729.7,305.8c-0.1,0.7-0.1,1.8,0.2,2.7c0.3,1,0.9,1.4,1.6,1.2c0.7-0.2,0.8-0.8,0.9-2.1
				c0-1.9,0.7-3.2,2.1-3.7c1.7-0.6,3.4,0.4,4.2,2.8c0.3,1.1,0.3,2,0.3,2.7l-2,0.1c0.1-0.4,0.1-1.2-0.2-2.2c-0.3-1-0.9-1.3-1.4-1.1
				c-0.7,0.2-0.8,0.9-0.8,2.3c-0.1,2-0.8,3.1-2.1,3.6c-1.7,0.6-3.6-0.3-4.3-3c-0.3-1.1-0.4-2.3-0.3-3L729.7,305.8z"/>
			<path class="st3" d="M737.7,322.1c-3.3,1-5.9-0.4-6.8-3.4c-0.9-3,0.9-5.3,3.8-6.2c3-0.9,5.8,0.4,6.7,3.4
				C742.3,319,740.5,321.3,737.7,322.1z M735.5,314.9c-2,0.6-3.1,1.9-2.7,3.4c0.4,1.6,2.1,2,4.1,1.4c1.8-0.6,3.1-1.8,2.7-3.4
				C739.2,314.8,737.4,314.3,735.5,314.9z"/>
			<path class="st3" d="M735.1,332.5c-0.3-0.3-0.8-1.2-1.1-2.4c-0.9-3.6,0.8-5.9,3.8-6.7c3.4-0.9,6,1.1,6.8,4.2
				c0.3,1.2,0.3,2.1,0.2,2.7h-1.9c0.1-0.6,0.1-1.2-0.1-2c-0.4-1.8-1.9-3-4.2-2.3c-2,0.6-3,2-2.4,4.1c0.2,0.7,0.6,1.4,0.8,1.8
				L735.1,332.5z"/>
			<path class="st3" d="M745.9,333.9l-10.2,2.3l-0.6-2.3l10.2-2.3L745.9,333.9z"/>
			<path class="st3" d="M739.3,340l-2.8-0.2l-0.6-2.4l10.9,1l0.7,3l-9.6,5.3l-0.6-2.4l2.4-1.3L739.3,340z M741.5,342.3l2-1.1
				c0.6-0.3,1.3-0.7,1.9-0.9l0,0c-0.7,0-1.4,0-2.1-0.1L741,340L741.5,342.3z"/>
			<path class="st3" d="M748.4,346.4c0.3,0.9,0.6,1.9,0.8,3.1c0.3,2,0.2,3.3-0.3,4.4c-0.6,1.2-1.8,2.1-3.6,2.4c-2,0.3-3.4-0.1-4.4-1
				c-1.1-0.9-1.8-2.6-2.2-4.6c-0.2-1.2-0.3-2.1-0.3-2.7L748.4,346.4z M740.3,350.2c0,0.2,0,0.6,0.1,0.8c0.3,2.1,1.8,3.3,4.2,2.9
				c2.1-0.3,3.1-1.8,2.7-3.8c-0.1-0.6-0.2-0.9-0.3-1L740.3,350.2z"/>
			<path class="st3" d="M746.6,367.5c-3.4,0.4-5.8-1.3-6.2-4.3c-0.4-3.1,1.7-5.2,4.6-5.7c3.1-0.4,5.7,1.2,6.1,4.3
				C751.6,365.1,749.5,367.1,746.6,367.5z M745.4,360.1c-2,0.3-3.3,1.4-3.1,3c0.2,1.6,1.9,2.3,3.9,2c1.9-0.2,3.3-1.3,3.1-3
				C749.1,360.5,747.4,359.7,745.4,360.1z"/>
			<path class="st3" d="M744,369.5c-0.2,0.7-0.4,1.7-0.3,2.7c0.1,1.1,0.7,1.6,1.3,1.6c0.7-0.1,1-0.6,1.2-1.9c0.4-1.8,1.2-3,2.8-3.2
				c1.8-0.2,3.3,1.1,3.6,3.6c0.1,1.2,0,2.1-0.2,2.7l-2-0.3c0.1-0.4,0.3-1.2,0.2-2.2c-0.1-1-0.7-1.4-1.2-1.4
				c-0.7,0.1-0.9,0.7-1.2,2.1c-0.4,1.9-1.3,2.9-2.8,3c-1.8,0.2-3.3-1-3.7-3.9c-0.1-1.2,0-2.4,0.3-3L744,369.5z"/>
		</g>
		<g>
			<path class="st3" d="M74.7,386.3c-0.1-0.8-0.1-1.8,0-3.2c0.1-1.4,0.4-2.4,1.1-3.1c0.6-0.7,1.4-1,2.6-0.9c1,0.1,1.9,0.4,2.4,1.1
				c0.7,0.9,0.9,2.1,0.9,3.4c0,0.3-0.1,0.6-0.1,0.8l3.8,0.3l-0.2,2.3L74.7,386.3z M79.6,384.4c0.1-0.2,0.1-0.4,0.1-0.8
				c0.1-1.2-0.4-2.1-1.6-2.1c-1-0.1-1.6,0.6-1.7,1.8c0,0.4,0,0.8,0,1L79.6,384.4z"/>
			<path class="st3" d="M75.5,377.2c0-0.8,0-1.9,0.1-3.1c0.1-1.6,0.6-2.6,1.2-3.3c0.6-0.6,1.3-0.8,2.3-0.8c1.3,0.1,2.1,1.2,2.3,2.1
				l0,0c0.3-0.7,1.1-1,2.1-1.2c1.2-0.2,2.6-0.3,3-0.6l-0.2,2.4c-0.3,0.1-1.2,0.3-2.6,0.4c-1.3,0.1-1.8,0.6-1.9,1.6l-0.1,0.7l4.1,0.4
				l-0.2,2.3L75.5,377.2z M80.2,375.3l0.1-0.9c0.1-1.2-0.3-1.9-1.3-2c-1-0.1-1.6,0.4-1.7,1.6c-0.1,0.6,0,0.9,0,1.1L80.2,375.3z"/>
			<path class="st3" d="M82.7,358.9c3.4,0.4,5.2,2.8,4.8,5.9c-0.4,3.1-3,4.6-6,4.1c-3.1-0.4-5.2-2.8-4.8-5.8
				C77.3,359.9,79.8,358.6,82.7,358.9z M81.8,366.5c2,0.2,3.6-0.4,3.8-2c0.2-1.6-1.2-2.7-3.2-3c-1.9-0.2-3.6,0.4-3.8,2
				C78.4,365.1,79.8,366.2,81.8,366.5z"/>
			<path class="st3" d="M88.7,355.8l-10.9,1.6l0.4-2.6l4.6-0.6c1.3-0.1,2.6-0.2,3.9-0.3l0,0c-1.2-0.4-2.3-1-3.4-1.6l-4.2-2.1
				l0.4-2.4l9.8,5.2L88.7,355.8z"/>
			<path class="st3" d="M86.8,341.6l-0.8,3.8l2.4,0.4l0.9-4.2l1.9,0.3l-1.3,6.6l-10.3-2l1.2-6.3l1.9,0.3l-0.8,4l2.1,0.4l0.8-3.8
				L86.8,341.6z"/>
			<path class="st3" d="M88.6,333.5l-0.9,3.8l2.4,0.6l0.9-4.2L93,334l-1.4,6.6l-10.2-2.3l1.4-6.3l1.9,0.4l-0.9,4l2.1,0.4l0.9-3.8
				L88.6,333.5z"/>
			<path class="st3" d="M83.4,329.9c0.1-0.9,0.3-2,0.6-3.1c0.4-1.9,1.1-3.1,2.1-3.9c1-0.9,2.4-1.2,4.2-0.8c2,0.4,3.1,1.6,3.7,2.8
				c0.7,1.3,0.7,3,0.1,5c-0.3,1.2-0.6,2-0.8,2.6L83.4,329.9z M92.2,329.8c0.1-0.2,0.2-0.6,0.2-0.8c0.6-2.1-0.2-3.8-2.7-4.3
				c-2.1-0.6-3.6,0.4-4,2.3c-0.1,0.6-0.2,0.9-0.2,1.1L92.2,329.8z"/>
			<path class="st3" d="M93.6,311.3c3.3,1,4.7,3.6,3.9,6.5c-0.9,3-3.7,4.1-6.5,3.2c-3-0.9-4.7-3.4-3.9-6.5
				C88,311.6,90.8,310.6,93.6,311.3z M91.6,318.7c2,0.6,3.7,0,4.1-1.4c0.4-1.6-0.8-2.9-2.7-3.4c-1.8-0.6-3.7-0.1-4.1,1.4
				C88.4,316.8,89.6,318.1,91.6,318.7z"/>
			<path class="st3" d="M89.3,308.3c0.1-0.8,0.3-1.9,0.8-3.1c0.4-1.4,1-2.4,1.8-3c0.7-0.4,1.4-0.6,2.3-0.2c1.2,0.4,1.9,1.6,1.9,2.6
				l0,0c0.6-0.6,1.3-0.8,2.3-0.8c1.2,0,2.7,0.1,3.1,0.1l-0.8,2.3c-0.3,0.1-1.2,0-2.6-0.1c-1.3-0.1-1.8,0.2-2.1,1.1l-0.2,0.7l3.9,1.2
				l-0.8,2.2L89.3,308.3z M94.4,307.4l0.3-0.9c0.3-1.1,0-2-0.9-2.2c-0.9-0.3-1.6,0.2-1.9,1.2c-0.2,0.6-0.2,0.9-0.2,1L94.4,307.4z"/>
			<path class="st3" d="M100,295.4l-1.3,3.7l2.3,0.8l1.4-4.1l1.8,0.7l-2.2,6.3l-9.9-3.4l2.1-6.1l1.8,0.7l-1.3,3.9l2,0.8l1.3-3.7
				L100,295.4z"/>
			<path class="st3" d="M102.5,294c0.6-0.4,1.2-1.2,1.6-2.2c0.4-1,0.2-1.7-0.4-2c-0.6-0.2-1.1,0.1-2,1.1c-1.2,1.4-2.4,2.1-3.9,1.6
				c-1.7-0.7-2.4-2.6-1.6-4.9c0.4-1.1,1-1.8,1.4-2.3l1.6,1.2c-0.3,0.3-0.9,0.9-1.2,1.9c-0.3,1-0.1,1.6,0.4,1.8
				c0.7,0.2,1.1-0.2,2.1-1.3c1.3-1.4,2.6-2,3.9-1.4c1.7,0.7,2.6,2.4,1.6,5.1c-0.4,1.1-1.1,2.1-1.7,2.6L102.5,294z"/>
		</g>
		<g>
			<path class="st3" d="M238.1,118.7c0.6-0.4,1.4-1.1,2.7-1.8c1.2-0.8,2.3-1,3.2-0.9c0.9,0.1,1.7,0.7,2.2,1.6
				c0.6,0.9,0.7,1.8,0.4,2.7c-0.3,1.1-1.1,2-2.3,2.7c-0.2,0.1-0.6,0.3-0.7,0.3l1.9,3.2l-2,1.2L238.1,118.7z M242.6,121.5
				c0.2-0.1,0.4-0.2,0.7-0.3c1.1-0.7,1.4-1.6,0.9-2.6c-0.4-0.8-1.3-1-2.3-0.3c-0.4,0.2-0.7,0.4-0.8,0.6L242.6,121.5z"/>
			<path class="st3" d="M246,113.9l2.1-1.1l4.1,7.5l3.7-2l1,1.8l-5.7,3.2L246,113.9z"/>
			<path class="st3" d="M259,115.7l0.6,2.8l-2.2,1.1l-2-10.8l2.8-1.4l7.8,7.8l-2.2,1.2l-2-2L259,115.7z M260.6,112.8l-1.6-1.7
				c-0.4-0.4-1-1.1-1.4-1.6l0,0c0.1,0.7,0.3,1.4,0.6,2l0.4,2.2L260.6,112.8z"/>
			<path class="st3" d="M267.2,114.4l-4.6-9.5l2.4-1.2l3.7,2.6c1,0.8,2.2,1.7,3.1,2.4l0,0c-0.8-1.2-1.4-2.4-2.1-3.9l-1.3-2.8l2-1
				l4.6,9.5l-2.2,1.1l-3.8-2.7c-1-0.8-2.2-1.7-3.2-2.6l0,0c0.7,1.2,1.3,2.6,2.1,4.1l1.3,2.9L267.2,114.4z"/>
			<path class="st3" d="M280.7,103.3l-3.6,1.6l1,2.2l3.9-1.8l0.8,1.8l-6.1,2.8l-4.2-9.6l5.9-2.7l0.8,1.8l-3.8,1.7l0.9,2l3.6-1.6
				L280.7,103.3z"/>
			<path class="st3" d="M283,97.9l-2.6,1.1l-0.8-1.9l7.5-3.1l0.8,1.9l-2.7,1.1l3.2,7.9l-2.2,0.9L283,97.9z"/>
			<path class="st3" d="M292.5,100.3l0.2,2.8l-2.3,0.9l-0.8-10.9l2.9-1.1l6.8,8.6l-2.3,0.9l-1.8-2.2L292.5,100.3z M294.3,97.6
				l-1.4-1.9c-0.4-0.6-0.9-1.2-1.2-1.7l0,0c0.1,0.7,0.2,1.4,0.3,2.1l0.2,2.3L294.3,97.6z"/>
		</g>
		<g>
			<path class="st3" d="M653.6,657.5l1.3,2.4l-1.8,1.7l-5-9.8l2.2-2.2l9.7,5.2l-1.8,1.8l-2.4-1.3L653.6,657.5z M654.3,654.4l-2-1.1
				c-0.6-0.3-1.2-0.8-1.8-1.1l0,0c0.3,0.6,0.8,1.2,1.1,1.8l1.1,2L654.3,654.4z"/>
			<path class="st3" d="M665.9,648.6c-0.1,0.4-0.7,1.3-1.6,2.2c-2.6,2.6-5.5,2.3-7.6,0.3c-2.6-2.4-2.2-5.7,0-8
				c0.9-0.9,1.7-1.3,2.1-1.6l1,1.7c-0.4,0.2-1.1,0.6-1.7,1.1c-1.3,1.3-1.6,3.2,0.1,4.8c1.6,1.4,3.3,1.4,4.8,0
				c0.4-0.6,0.9-1.2,1.1-1.7L665.9,648.6z"/>
			<path class="st3" d="M671.8,642.2c-0.1,0.4-0.7,1.3-1.4,2.3c-2.4,2.7-5.3,2.6-7.6,0.4c-2.7-2.4-2.3-5.7-0.2-8
				c0.9-0.9,1.7-1.4,2.1-1.6l1,1.7c-0.4,0.2-1.1,0.6-1.7,1.2c-1.3,1.3-1.4,3.2,0.2,4.8c1.6,1.4,3.3,1.4,4.8-0.1
				c0.4-0.6,0.9-1.2,1.1-1.7L671.8,642.2z"/>
			<path class="st3" d="M666.8,632.5l7.9,7l-1.6,1.8l-7.9-7L666.8,632.5z"/>
			<path class="st3" d="M678.1,627.2c2.7,2.2,2.9,5.1,0.9,7.5c-2,2.3-5,2.2-7.2,0.3c-2.4-2-2.9-5.1-0.9-7.5
				C672.9,625,675.9,625.3,678.1,627.2z M673.3,633.1c1.6,1.3,3.3,1.6,4.3,0.3c1-1.2,0.4-2.9-1.1-4.2c-1.4-1.2-3.2-1.6-4.3-0.3
				C671.2,630.1,671.8,631.7,673.3,633.1z"/>
			<path class="st3" d="M683.1,629.5l-8.2-6.6l1.8-2.1l4.3,0.7c1.2,0.2,2.7,0.6,3.9,0.9l0,0c-1.2-0.8-2.3-1.6-3.6-2.6l-2.4-1.9
				l1.3-1.7l8.2,6.6l-1.6,2l-4.6-0.8c-1.2-0.2-2.8-0.6-4-0.9l0,0c1.1,0.8,2.3,1.7,3.7,2.8l2.4,2L683.1,629.5z"/>
			<path class="st3" d="M682.8,612.8l8.3,6.3l-1.4,1.9l-8.3-6.3L682.8,612.8z"/>
			<path class="st3" d="M690.5,616.1c0.7-0.3,1.4-0.9,2.1-1.8c0.7-0.9,0.7-1.6,0.1-2c-0.6-0.3-1.1-0.2-2.2,0.6c-1.6,1-3,1.4-4.2,0.4
				c-1.4-1.1-1.7-3.1-0.2-5.1c0.7-1,1.4-1.6,2-1.9l1.2,1.6c-0.4,0.2-1.1,0.7-1.7,1.4c-0.6,0.8-0.6,1.6-0.1,1.8
				c0.6,0.4,1.1,0.1,2.3-0.7c1.7-1.1,2.9-1.2,4.1-0.3c1.4,1,1.8,3,0.1,5.3c-0.7,1-1.7,1.8-2.2,2L690.5,616.1z"/>
			<path class="st3" d="M691.5,604.4l-1.6,2.3l-1.7-1.1l4.6-6.7l1.7,1.1l-1.7,2.3l7,4.9l-1.3,2L691.5,604.4z"/>
			<path class="st3" d="M700.6,601.3l1.8,2.1l-1.3,2l-7-8.5l1.7-2.6l10.6,3.1l-1.4,2.1l-2.7-0.8L700.6,601.3z M700.6,598.1l-2.2-0.7
				c-0.7-0.2-1.3-0.4-2-0.7l0,0c0.4,0.4,1,1,1.4,1.6l1.6,1.8L700.6,598.1z"/>
			<path class="st3" d="M705,595c0.7-0.3,1.4-1,2-1.9s0.4-1.7-0.1-2c-0.6-0.3-1.1-0.1-2.2,0.7c-1.4,1.1-2.9,1.6-4.1,0.8
				c-1.6-1-1.9-2.9-0.6-5c0.7-1,1.3-1.6,1.9-2l1.3,1.4c-0.4,0.2-1,0.8-1.6,1.6c-0.6,0.9-0.4,1.6,0,1.8c0.6,0.3,1.1,0,2.3-0.9
				c1.6-1.2,2.9-1.4,4.1-0.7c1.4,0.9,2,2.9,0.6,5.3c-0.7,1-1.6,1.9-2.1,2.2L705,595z"/>
		</g>
		<g>
			<path class="st3" d="M339.1,746.5c0.6,0.4,1.4,1,2.4,1.2c1.1,0.2,1.7-0.1,1.9-0.8c0.1-0.7-0.2-1.1-1.4-1.8
				c-1.6-1-2.4-2.1-2.2-3.7c0.3-1.8,2.1-2.8,4.6-2.2c1.1,0.2,2,0.7,2.6,1.1l-0.9,1.8c-0.3-0.3-1-0.8-2-0.9c-1-0.2-1.6,0.1-1.7,0.7
				c-0.1,0.7,0.3,1.1,1.6,1.9c1.7,1,2.3,2.2,2,3.7c-0.3,1.7-2,2.9-4.8,2.3c-1.2-0.2-2.2-0.8-2.8-1.2L339.1,746.5z"/>
			<path class="st3" d="M357.2,747.1c-0.7,3.3-3,5.1-6.1,4.6c-3.1-0.6-4.4-3.2-3.9-6.1c0.6-3.1,3-5,6-4.4
				C356.4,741.5,357.6,744.2,357.2,747.1z M349.6,745.9c-0.3,2,0.3,3.7,1.9,3.9c1.6,0.3,2.8-1,3.1-3c0.3-1.9-0.2-3.6-1.9-3.9
				C351.2,742.5,350,743.9,349.6,745.9z"/>
			<path class="st3" d="M365.3,753.4c-0.4,0.1-1.4,0.2-2.8,0c-3.6-0.6-5.1-3.1-4.7-6c0.6-3.6,3.3-5.1,6.6-4.7
				c1.2,0.2,2.1,0.6,2.4,0.9l-0.8,1.8c-0.4-0.2-1.1-0.6-1.9-0.7c-1.9-0.3-3.4,0.7-3.8,2.9c-0.3,2.1,0.7,3.6,2.8,3.9
				c0.7,0.1,1.6,0.1,2,0L365.3,753.4z"/>
			<path class="st3" d="M370.5,743.7l-1.3,10.5l-2.3-0.3l1.3-10.5L370.5,743.7z"/>
			<path class="st3" d="M381.2,750.2c-0.3,3.4-2.7,5.2-5.8,4.9c-3.1-0.3-4.7-2.9-4.3-5.9c0.3-3.1,2.6-5.2,5.7-4.9
				C380.1,744.7,381.5,747.3,381.2,750.2z M373.6,749.5c-0.2,2,0.6,3.6,2.1,3.8c1.6,0.2,2.7-1.2,2.9-3.2c0.2-1.9-0.6-3.6-2.1-3.8
				C375,746.1,373.9,747.5,373.6,749.5z"/>
			<path class="st3" d="M382.4,753.2c0.6,0.3,1.6,0.8,2.6,0.9c1.1,0.1,1.7-0.3,1.8-1c0-0.7-0.4-1.1-1.7-1.7
				c-1.7-0.8-2.8-1.8-2.7-3.3c0.1-1.8,1.8-3,4.2-2.8c1.2,0.1,2,0.4,2.7,0.8l-0.7,1.9c-0.4-0.2-1.1-0.6-2.1-0.7
				c-1-0.1-1.6,0.3-1.6,0.9c0,0.7,0.6,1,1.8,1.7c1.8,0.8,2.6,1.9,2.4,3.3c-0.1,1.8-1.7,3.1-4.4,2.9c-1.2-0.1-2.3-0.6-2.9-0.9
				L382.4,753.2z"/>
			<path class="st3" d="M401.2,756.5c-0.4,0.2-1.4,0.3-2.7,0.3c-3.7-0.2-5.3-2.6-5.2-5.5c0.2-3.6,2.8-5.5,6-5.3
				c1.2,0.1,2.1,0.3,2.6,0.6l-0.6,1.9c-0.4-0.2-1.1-0.4-2-0.4c-1.9-0.1-3.4,1-3.6,3.3c-0.1,2.1,1.1,3.4,3.2,3.6c0.7,0,1.6-0.1,2-0.2
				L401.2,756.5z"/>
			<path class="st3" d="M412,751.8c-0.1,3.4-2.2,5.5-5.2,5.5c-3.1-0.1-4.9-2.4-4.8-5.5c0.1-3.1,2.1-5.5,5.2-5.3
				C410.3,746.4,412,748.9,412,751.8z M404.3,751.8c0,2,0.9,3.6,2.4,3.6c1.6,0,2.6-1.4,2.6-3.6c0-1.9-0.8-3.6-2.4-3.6
				C405.3,748.2,404.4,749.8,404.3,751.8z"/>
			<path class="st3" d="M422.2,753c-0.1-1.2-0.1-2.8-0.1-4.3l0,0c-0.3,1.3-0.7,2.9-1.1,4.1l-1.2,4.1h-1.9l-1.2-4
				c-0.3-1.2-0.8-2.7-1-4.1l0,0c0,1.4-0.1,3-0.1,4.3l-0.1,4h-2.2l0.6-10.5h3.1l1.1,3.4c0.3,1.2,0.7,2.6,0.9,3.8l0,0
				c0.3-1.2,0.7-2.6,0.9-3.8l1.1-3.4h3.1l0.8,10.5h-2.3L422.2,753z"/>
			<path class="st3" d="M432.6,752.2l-3.9,0.2l0.1,2.4l4.3-0.2l0.1,1.9l-6.7,0.3l-0.4-10.5l6.5-0.3l0.1,1.9l-4.1,0.2l0.1,2.2
				l3.9-0.2V752.2z"/>
			<path class="st3" d="M434,746.2c0.8-0.2,1.9-0.3,3.1-0.4c1.6-0.1,2.7,0,3.4,0.6c0.7,0.4,1,1.1,1.1,2.1c0.1,1.3-0.8,2.3-1.7,2.7
				l0,0c0.8,0.2,1.2,0.9,1.6,1.9c0.4,1.1,0.8,2.4,1.1,2.9l-2.4,0.1c-0.2-0.3-0.4-1.1-0.9-2.3c-0.3-1.3-0.9-1.6-1.8-1.6h-0.7l0.3,4.1
				l-2.3,0.1L434,746.2z M436.7,750.5l0.9-0.1c1.2-0.1,1.9-0.7,1.8-1.7c-0.1-1-0.8-1.4-1.9-1.3c-0.6,0-0.9,0.1-1.1,0.1L436.7,750.5z
				"/>
			<path class="st3" d="M451.5,754.9c-0.4,0.2-1.3,0.6-2.7,0.7c-3.6,0.3-5.7-1.8-6-4.7c-0.3-3.6,2-5.8,5.2-6.1
				c1.2-0.1,2.2,0,2.7,0.2l-0.3,1.9c-0.4-0.1-1.2-0.2-2-0.2c-1.9,0.2-3.2,1.4-3,3.8c0.2,2.1,1.6,3.3,3.7,3.1
				c0.7-0.1,1.4-0.3,1.9-0.6L451.5,754.9z"/>
			<path class="st3" d="M454.2,744.2l1.2,10.5l-2.3,0.2l-1.2-10.5L454.2,744.2z"/>
			<path class="st3" d="M459.4,751.4l-0.3,2.8l-2.4,0.3l1.8-10.8l3.1-0.4l4.7,10l-2.6,0.3l-1.1-2.6L459.4,751.4z M461.8,749.3
				l-1-2.1c-0.2-0.6-0.6-1.3-0.8-1.9l0,0c-0.1,0.7-0.1,1.4-0.2,2.1l-0.3,2.3L461.8,749.3z"/>
			<path class="st3" d="M465.7,742.6l2.3-0.3l1.3,8.3l4.1-0.7l0.3,2l-6.5,1.1L465.7,742.6z"/>
			<path class="st3" d="M480.5,746.2l-3.8,0.7l0.4,2.4l4.2-0.8l0.3,1.9l-6.6,1.2l-1.9-10.3l6.3-1.2l0.3,1.9l-4,0.8l0.4,2.1l3.8-0.7
				L480.5,746.2z"/>
			<path class="st3" d="M482.9,747.7c0.7,0.2,1.7,0.3,2.7,0.1c1.1-0.2,1.6-0.8,1.4-1.4c-0.1-0.7-0.7-0.9-2-1.1
				c-1.8-0.2-3.1-0.9-3.4-2.4c-0.3-1.8,0.8-3.4,3.2-3.9c1.1-0.2,2.1-0.2,2.8,0l-0.1,2c-0.4-0.1-1.2-0.2-2.2,0
				c-1,0.2-1.4,0.8-1.3,1.3c0.1,0.7,0.8,0.8,2.2,1c2,0.3,3,1,3.3,2.4c0.3,1.7-0.7,3.4-3.4,4.1c-1.2,0.2-2.4,0.2-3,0L482.9,747.7z"/>
		</g>
		<g>
			<path class="st3" d="M120.8,595.3c-0.4-0.2-1.1-1-1.8-2c-1.9-3.1-1-5.9,1.6-7.5c3-1.9,6.1-0.8,7.8,2c0.7,1,0.9,2,1,2.4l-1.9,0.6
				c-0.1-0.6-0.2-1.2-0.7-1.9c-1-1.6-2.8-2.2-4.7-1c-1.8,1.1-2.2,2.9-1.1,4.7c0.3,0.6,0.9,1.2,1.3,1.6L120.8,595.3z"/>
			<path class="st3" d="M130.9,601.5c-2.9,1.9-5.8,1.3-7.5-1.2c-1.7-2.6-0.8-5.5,1.8-7c2.7-1.8,5.7-1.3,7.5,1.2
				C134.3,597,133.3,599.9,130.9,601.5z M126.6,595.2c-1.7,1.1-2.4,2.8-1.6,4c0.9,1.3,2.7,1.2,4.3,0.1c1.6-1,2.4-2.7,1.6-4
				C130.1,594,128.3,594.1,126.6,595.2z"/>
			<path class="st3" d="M135.6,610.6c1-0.8,2.2-1.7,3.4-2.6l0,0c-1.3,0.6-2.8,1-4,1.4l-4.1,1.3l-1.1-1.6l2.7-3.2
				c0.8-1,1.8-2.1,2.8-3.1l0,0c-1.2,0.8-2.6,1.7-3.7,2.3l-3.3,2.1l-1.2-1.8l9-5.6l1.8,2.6l-2.2,2.9c-0.8,1-1.7,2-2.6,2.9l0,0
				c1.1-0.4,2.4-1,3.7-1.3l3.4-1.1l1.8,2.6l-8.2,6.6l-1.3-1.9L135.6,610.6z"/>
			<path class="st3" d="M144.6,611.8l-4.8,3.7c-1.4,1.1-1.8,2.2-1,3.1c0.8,1,1.9,1,3.3-0.1l4.8-3.7l1.4,1.9l-4.7,3.6
				c-2.6,2-4.8,1.6-6.5-0.6c-1.6-2.1-1.3-4.2,1.3-6.2l4.7-3.6L144.6,611.8z"/>
			<path class="st3" d="M141.2,624.6l8.1-6.6l1.8,2.1l-1.7,4.1c-0.4,1.2-1.1,2.4-1.7,3.6l0,0c1-1,2-1.9,3.2-2.9l2.3-1.9l1.3,1.7
				l-8.1,6.6l-1.6-1.9l1.8-4.3c0.4-1.2,1.1-2.6,1.8-3.8l0,0c-1,0.9-2.1,1.9-3.4,3l-2.4,2L141.2,624.6z"/>
			<path class="st3" d="M157.5,627.9l-8,6.8l-1.6-1.8l8-6.8L157.5,627.9z"/>
			<path class="st3" d="M158.6,629.4c0.7,0.6,1.4,1.3,2.3,2.2c1.3,1.4,1.9,2.7,2,4c0.1,1.3-0.4,2.7-1.8,3.9c-1.6,1.3-3,1.7-4.3,1.6
				c-1.4-0.2-2.9-1.2-4.2-2.8c-0.8-0.9-1.3-1.7-1.7-2.1L158.6,629.4z M153.7,636.8c0.1,0.2,0.3,0.4,0.6,0.7c1.4,1.7,3.2,1.9,5.1,0.2
				c1.7-1.4,1.7-3.1,0.3-4.7c-0.3-0.4-0.7-0.7-0.8-0.8L153.7,636.8z"/>
			<path class="st3" d="M161.4,644.1l-2.4,1.3l-1.7-1.8l9.9-4.8l2.1,2.2l-5.5,9.6l-1.8-1.9l1.4-2.4L161.4,644.1z M164.5,644.8l1.2-2
				c0.3-0.6,0.8-1.2,1.1-1.8l0,0c-0.6,0.3-1.2,0.8-1.8,1l-2,1.1L164.5,644.8z"/>
			<path class="st3" d="M172.1,644.2c0.7,0.6,1.6,1.2,2.4,2.1c1.4,1.4,2.1,2.6,2.2,3.9c0.2,1.3-0.2,2.8-1.6,4
				c-1.4,1.4-2.9,1.9-4.2,1.8c-1.4-0.1-2.9-1-4.3-2.4c-0.9-0.9-1.4-1.6-1.8-2L172.1,644.2z M167.7,652c0.1,0.2,0.3,0.4,0.6,0.7
				c1.6,1.6,3.3,1.7,5.1-0.1c1.6-1.6,1.4-3.2,0-4.7c-0.3-0.3-0.7-0.6-0.8-0.7L167.7,652z"/>
		</g>
	</g>
</g>
</svg>
