<?xml version="1.0" encoding="utf-8"?>
<!-- Generator: Adobe Illustrator 25.2.1, SVG Export Plug-In . SVG Version: 6.00 Build 0)  -->
<svg version="1.1" id="Layer_1" xmlns="http://www.w3.org/2000/svg" xmlns:xlink="http://www.w3.org/1999/xlink" x="0px" y="0px"
	 viewBox="0 0 649 424" style="enable-background:new 0 0 649 424;" xml:space="preserve">
<style type="text/css">
	.st0{fill:#F78D20;}
	.st1{fill:#FFFFFF;}
	.st2{fill:#FFFFFF;stroke:#6D6E70;stroke-width:0.5;stroke-miterlimit:10;}
	.st3{fill:#E6E7E8;}
	.st4{fill:none;stroke:#929497;stroke-miterlimit:10;}
	.st5{fill:#6AAAE4;stroke:#F1F1F2;stroke-miterlimit:10;}
	.st6{fill:none;stroke:#F78D20;stroke-width:2;stroke-miterlimit:10;stroke-dasharray:6.044,4.0293;}
	.st7{fill:none;stroke:#606161;stroke-width:0.5;stroke-miterlimit:10;}
	.st8{fill:#FFFFFF;stroke:#606161;stroke-width:0.5;stroke-miterlimit:10;}
	.st9{fill:none;stroke:#6D6E70;stroke-width:0.5;stroke-miterlimit:10;}
	.st10{fill:none;stroke:#808184;stroke-linecap:round;stroke-linejoin:round;stroke-miterlimit:10;}
	.st11{fill:none;stroke:#808184;stroke-width:0.719;stroke-linecap:round;stroke-linejoin:round;stroke-miterlimit:10;}
	.st12{fill:#808184;}
	.st13{fill:#58595B;}
</style>
<g>
	<path class="st0" d="M635.4,360.2H10.3c-2.8,0-5-2.2-5-5v-27.3h635v27.3C640.4,357.9,638.2,360.2,635.4,360.2z"/>
	<g>
		<g>
			<path class="st1" d="M273.2,331.7h4.6v1.4h-2.9v1.7h2.7v1.4h-2.7v3h-1.7V331.7z"/>
			<path class="st1" d="M281.9,339.2l-0.1-0.5h0c-0.4,0.4-0.9,0.7-1.5,0.7c-1.1,0-1.7-0.8-1.7-1.7c0-1.4,1.3-2.1,3.2-2.1v-0.1
				c0-0.3-0.2-0.7-1-0.7c-0.6,0-1.1,0.2-1.5,0.4l-0.3-1.1c0.4-0.2,1.1-0.5,2.1-0.5c1.8,0,2.4,1.1,2.4,2.3v1.9c0,0.5,0,1,0.1,1.3
				H281.9z M281.7,336.6c-0.9,0-1.6,0.2-1.6,0.9c0,0.4,0.3,0.6,0.7,0.6c0.4,0,0.8-0.3,0.9-0.6c0-0.1,0-0.2,0-0.3V336.6z"/>
			<path class="st1" d="M289,339.1c-0.3,0.1-0.9,0.2-1.5,0.2c-1.7,0-2.9-1.1-2.9-2.8c0-1.6,1.1-2.9,3.1-2.9c0.4,0,0.9,0.1,1.3,0.2
				l-0.3,1.2c-0.2-0.1-0.5-0.2-0.9-0.2c-0.9,0-1.5,0.6-1.4,1.5c0,1,0.7,1.5,1.5,1.5c0.4,0,0.7-0.1,1-0.2L289,339.1z"/>
			<path class="st1" d="M290.3,331.3h1.7v3.1h0c0.2-0.2,0.4-0.4,0.7-0.6c0.2-0.1,0.6-0.2,0.9-0.2c1.1,0,1.9,0.7,1.9,2.4v3.2h-1.7v-3
				c0-0.7-0.2-1.2-0.9-1.2c-0.4,0-0.7,0.3-0.8,0.6c0,0.1-0.1,0.3-0.1,0.4v3.2h-1.7V331.3z"/>
			<path class="st1" d="M300.1,339.2l-0.1-0.5h0c-0.4,0.4-0.9,0.7-1.5,0.7c-1.1,0-1.7-0.8-1.7-1.7c0-1.4,1.3-2.1,3.2-2.1v-0.1
				c0-0.3-0.2-0.7-1-0.7c-0.6,0-1.1,0.2-1.5,0.4l-0.3-1.1c0.4-0.2,1.1-0.5,2.1-0.5c1.8,0,2.4,1.1,2.4,2.3v1.9c0,0.5,0,1,0.1,1.3
				H300.1z M299.9,336.6c-0.9,0-1.6,0.2-1.6,0.9c0,0.4,0.3,0.6,0.7,0.6c0.4,0,0.8-0.3,0.9-0.6c0-0.1,0-0.2,0-0.3V336.6z"/>
			<path class="st1" d="M308.4,331.3v6.2c0,0.6,0,1.2,0,1.6h-1.5l-0.1-0.8h0c-0.3,0.6-1,0.9-1.7,0.9c-1.3,0-2.3-1.1-2.3-2.8
				c0-1.8,1.1-2.9,2.4-2.9c0.7,0,1.2,0.2,1.4,0.6h0v-2.9H308.4z M306.7,336.1c0-0.1,0-0.2,0-0.3c-0.1-0.5-0.5-0.8-1-0.8
				c-0.8,0-1.2,0.7-1.2,1.5c0,0.9,0.5,1.5,1.1,1.5c0.5,0,0.9-0.3,1-0.8c0-0.1,0-0.2,0-0.4V336.1z"/>
			<path class="st1" d="M313.1,339.2l-0.1-0.5h0c-0.4,0.4-0.9,0.7-1.5,0.7c-1.1,0-1.7-0.8-1.7-1.7c0-1.4,1.3-2.1,3.2-2.1v-0.1
				c0-0.3-0.2-0.7-1-0.7c-0.6,0-1.1,0.2-1.5,0.4l-0.3-1.1c0.4-0.2,1.1-0.5,2.1-0.5c1.8,0,2.4,1.1,2.4,2.3v1.9c0,0.5,0,1,0.1,1.3
				H313.1z M312.9,336.6c-0.9,0-1.6,0.2-1.6,0.9c0,0.4,0.3,0.6,0.7,0.6c0.4,0,0.8-0.3,0.9-0.6c0-0.1,0-0.2,0-0.3V336.6z"/>
			<path class="st1" d="M324,336.4c0,2-1.4,2.9-2.8,2.9c-1.6,0-2.8-1-2.8-2.8c0-1.7,1.1-2.9,2.9-2.9
				C322.9,333.7,324,334.8,324,336.4z M320.1,336.5c0,0.9,0.4,1.6,1.1,1.6c0.7,0,1.1-0.7,1.1-1.6c0-0.8-0.3-1.6-1.1-1.6
				C320.4,334.9,320.1,335.7,320.1,336.5z"/>
			<path class="st1" d="M325.3,335.5c0-0.7,0-1.2,0-1.7h1.4l0.1,0.7h0c0.2-0.3,0.7-0.9,1.6-0.9c0.7,0,1.2,0.4,1.5,0.9h0
				c0.2-0.3,0.4-0.5,0.7-0.7c0.3-0.2,0.6-0.3,1-0.3c1,0,1.8,0.7,1.8,2.3v3.2h-1.6v-2.9c0-0.8-0.3-1.2-0.8-1.2
				c-0.4,0-0.7,0.3-0.8,0.6c0,0.1-0.1,0.3-0.1,0.4v3.2h-1.6v-3c0-0.7-0.2-1.1-0.8-1.1c-0.4,0-0.7,0.3-0.8,0.6
				c-0.1,0.1-0.1,0.3-0.1,0.4v3.1h-1.6V335.5z"/>
			<path class="st1" d="M335.1,335.5c0-0.7,0-1.2,0-1.7h1.5l0.1,0.7h0c0.2-0.3,0.8-0.9,1.7-0.9c1.1,0,1.9,0.7,1.9,2.3v3.2h-1.7v-3
				c0-0.7-0.2-1.2-0.9-1.2c-0.5,0-0.7,0.3-0.9,0.6c0,0.1-0.1,0.3-0.1,0.4v3.1h-1.7V335.5z"/>
			<path class="st1" d="M343.6,332.3c0,0.5-0.4,0.8-0.9,0.8c-0.5,0-0.9-0.4-0.9-0.8c0-0.5,0.3-0.9,0.9-0.9
				C343.3,331.4,343.6,331.8,343.6,332.3z M341.9,339.2v-5.4h1.7v5.4H341.9z"/>
			<path class="st1" d="M349.2,339.1c-0.3,0.1-0.9,0.2-1.5,0.2c-1.7,0-2.9-1.1-2.9-2.8c0-1.6,1.1-2.9,3.1-2.9c0.4,0,0.9,0.1,1.3,0.2
				l-0.3,1.2c-0.2-0.1-0.5-0.2-0.9-0.2c-0.9,0-1.5,0.6-1.4,1.5c0,1,0.7,1.5,1.5,1.5c0.4,0,0.7-0.1,1-0.2L349.2,339.1z"/>
			<path class="st1" d="M353.5,339.2l-0.1-0.5h0c-0.4,0.4-0.9,0.7-1.5,0.7c-1.1,0-1.7-0.8-1.7-1.7c0-1.4,1.3-2.1,3.2-2.1v-0.1
				c0-0.3-0.2-0.7-1-0.7c-0.6,0-1.1,0.2-1.5,0.4l-0.3-1.1c0.4-0.2,1.1-0.5,2.1-0.5c1.8,0,2.4,1.1,2.4,2.3v1.9c0,0.5,0,1,0.1,1.3
				H353.5z M353.3,336.6c-0.9,0-1.6,0.2-1.6,0.9c0,0.4,0.3,0.6,0.7,0.6c0.4,0,0.8-0.3,0.9-0.6c0-0.1,0-0.2,0-0.3V336.6z"/>
			<path class="st1" d="M356.6,335.5c0-0.7,0-1.2,0-1.7h1.5l0.1,0.7h0c0.2-0.3,0.8-0.9,1.7-0.9c1.1,0,1.9,0.7,1.9,2.3v3.2H360v-3
				c0-0.7-0.2-1.2-0.9-1.2c-0.5,0-0.7,0.3-0.9,0.6c0,0.1-0.1,0.3-0.1,0.4v3.1h-1.7V335.5z"/>
			<path class="st1" d="M366.4,339.2l-0.1-0.5h0c-0.4,0.4-0.9,0.7-1.5,0.7c-1.1,0-1.7-0.8-1.7-1.7c0-1.4,1.3-2.1,3.2-2.1v-0.1
				c0-0.3-0.2-0.7-1-0.7c-0.6,0-1.1,0.2-1.5,0.4l-0.3-1.1c0.4-0.2,1.1-0.5,2.1-0.5c1.8,0,2.4,1.1,2.4,2.3v1.9c0,0.5,0,1,0.1,1.3
				H366.4z M366.2,336.6c-0.9,0-1.6,0.2-1.6,0.9c0,0.4,0.3,0.6,0.7,0.6c0.4,0,0.8-0.3,0.9-0.6c0-0.1,0-0.2,0-0.3V336.6z"/>
			<path class="st1" d="M369.5,331.3h1.7v7.8h-1.7V331.3z"/>
		</g>
	</g>
</g>
<path class="st2" d="M106.5,343.6H11c-3.1,0-5.7-2.5-5.7-5.7V11c0-3.1,2.5-5.7,5.7-5.7h623.7c3.1,0,5.7,2.5,5.7,5.7V338
	c0,3.1-2.5,5.7-5.7,5.7h-88.4"/>
<path class="st3" d="M633.2,416.4H11.5c-2.4,0-4.4-2-4.4-4.4v-41.6c0-2.4,2-4.4,4.4-4.4h621.7c2.4,0,4.4,2,4.4,4.4V412
	C637.6,414.4,635.6,416.4,633.2,416.4z"/>
<path class="st4" d="M195.6,51H32.5c-9.2,0-16.7,7.5-16.7,16.7l0,207.7c0,9.9,8,17.9,17.9,17.9h67.7v-62.9h94.1c0,0,0,0,0,0
	L195.6,51z"/>
<rect x="106.5" y="234.7" class="st4" width="89.1" height="58.5"/>
<rect x="200.7" y="234.7" class="st4" width="258.2" height="58.5"/>
<polygon class="st4" points="200.7,100.4 417.4,100.4 417.4,169 458.9,169 458.9,229.5 200.7,229.5 "/>
<rect x="463.3" y="234.7" class="st5" width="83" height="58.5"/>
<rect x="551.6" y="234.7" class="st0" width="78.1" height="58.2"/>
<path class="st4" d="M612.7,335.6h-61.1v-36.9h78.1v19.9C629.7,328,622.1,335.6,612.7,335.6z"/>
<path class="st4" d="M629.7,68c0-9.4-7.6-17-17-17h-412v43.9h304.2V169h-41.5v60.7h166.4V68z"/>
<rect x="421.9" y="100.4" class="st0" width="78.1" height="64.6"/>
<path class="st0" d="M640.4,43.1H5.3v-32c0-3.2,2.6-5.8,5.8-5.8h624c2.9,0,5.3,2.4,5.3,5.3V43.1z"/>
<g>
	<path class="st6" d="M175.1,412.2H19c-4,0-7.3-3.3-7.3-7.3v-27.4c0-4,3.3-7.3,7.3-7.3h156.1c4,0,7.3,3.3,7.3,7.3v27.4
		C182.4,409,179.1,412.2,175.1,412.2z"/>
</g>
<g>
	<path class="st7" d="M120.6,343.6c0-7.8-6.3-14.1-14.1-14.1v14.1"/>
	<path class="st7" d="M120.6,343.6c0-7.8,6.3-14.1,14.1-14.1v14.1"/>
	<path class="st7" d="M153.5,343.6c0-7.8-6.3-14.1-14.1-14.1v14.1"/>
	<path class="st7" d="M153.5,343.6c0-7.8,6.3-14.1,14.1-14.1v14.1"/>
	<rect x="134.6" y="338.8" class="st7" width="4.8" height="4.8"/>
</g>
<g>
	<path class="st7" d="M499.3,343.6c0-7.8-6.3-14.1-14.1-14.1v14.1"/>
	<path class="st7" d="M499.3,343.6c0-7.8,6.3-14.1,14.1-14.1v14.1"/>
	<path class="st7" d="M532.2,343.6c0-7.8-6.3-14.1-14.1-14.1v14.1"/>
	<path class="st7" d="M532.2,343.6c0-7.8,6.3-14.1,14.1-14.1v14.1"/>
	<rect x="513.4" y="338.8" class="st7" width="4.8" height="4.8"/>
</g>
<g>
	<path class="st8" d="M532.2,43.1c0,7.8,6.3,14.1,14.1,14.1V43.1"/>
	<path class="st8" d="M532.2,43.1c0,7.8-6.3,14.1-14.1,14.1V43.1"/>
	<path class="st8" d="M499.3,43.1c0,7.8,6.3,14.1,14.1,14.1V43.1"/>
	<path class="st8" d="M499.3,43.1c0,7.8-6.3,14.1-14.1,14.1V43.1"/>
	
		<rect x="513.4" y="43.1" transform="matrix(-1 -1.224647e-16 1.224647e-16 -1 1031.5554 91.0769)" class="st8" width="4.8" height="4.8"/>
</g>
<line class="st9" x1="485.3" y1="343.6" x2="167.6" y2="343.6"/>
<g>
	<polygon class="st10" points="83.8,402 83.8,381.3 97.2,383.7 97.2,399.6 	"/>
	<polyline class="st11" points="90.3,382.5 90.3,381.3 97.2,383.7 97.2,399.6 90.3,402 90.3,400.8 	"/>
	<polygon class="st10" points="127,381.3 127,402 121.5,399.6 121.5,383.7 	"/>
	<polygon class="st10" points="98.8,382.7 91.7,378.4 127,378.4 119.9,382.7 	"/>
	<polygon class="st10" points="98.8,400.6 91.7,404.9 127,404.9 119.9,400.6 	"/>
	<line class="st10" x1="119.9" y1="382.7" x2="119.9" y2="400.6"/>
	<line class="st10" x1="98.8" y1="382.7" x2="98.8" y2="400.6"/>
	
		<rect x="126.1" y="377" transform="matrix(-1.836970e-16 1 -1 -1.836970e-16 506.6386 250.0344)" class="st10" width="4.4" height="2.7"/>
	
		<rect x="126.1" y="403.5" transform="matrix(-1.836970e-16 1 -1 -1.836970e-16 533.1919 276.5877)" class="st10" width="4.4" height="2.7"/>
	<path class="st10" d="M131.2,405.4L131.2,405.4c0-0.3,0.2-0.5,0.5-0.5h5.3c0.3,0,0.5,0.2,0.5,0.5l0,0c0,0.3-0.2,0.5-0.5,0.5h-5.3
		C131.5,405.9,131.2,405.7,131.2,405.4z"/>
	<path class="st10" d="M131.2,377.9L131.2,377.9c0-0.3,0.2-0.5,0.5-0.5h5.3c0.3,0,0.5,0.2,0.5,0.5l0,0c0,0.3-0.2,0.5-0.5,0.5h-5.3
		C131.5,378.4,131.2,378.2,131.2,377.9z"/>
	<path class="st10" d="M94.5,405.4L94.5,405.4c0-0.3,0.2-0.5,0.5-0.5h5.3c0.3,0,0.5,0.2,0.5,0.5l0,0c0,0.3-0.2,0.5-0.5,0.5H95
		C94.8,405.9,94.5,405.7,94.5,405.4z"/>
	<path class="st10" d="M94.5,377.9L94.5,377.9c0-0.3,0.2-0.5,0.5-0.5h5.3c0.3,0,0.5,0.2,0.5,0.5l0,0c0,0.3-0.2,0.5-0.5,0.5H95
		C94.8,378.4,94.5,378.2,94.5,377.9z"/>
	<path class="st10" d="M90,378.4h50.5c3.3,0,5.9,2.7,5.9,5.9v14.6c0,3.3-2.7,5.9-5.9,5.9H90"/>
	<line class="st10" x1="124.8" y1="384.2" x2="124.8" y2="388.9"/>
	<path class="st10" d="M86.4,381.8c1-2,3-3.3,5.3-3.3h47.2c3.3,0,5.9,2.7,5.9,5.9v14.6c0,3.3-2.7,5.9-5.9,5.9H91.7
		c-2.3,0-4.4-1.4-5.3-3.3"/>
</g>
<g>
	<path class="st1" d="M239.8,394.5h-21.5c-1.6,0-2.9-1.3-2.9-2.9l0,0c0-1.6,1.3-2.9,2.9-2.9h21.5c1.6,0,2.9,1.3,2.9,2.9l0,0
		C242.7,393.2,241.4,394.5,239.8,394.5z"/>
	<path class="st1" d="M314.1,394.5h-21.5c-1.6,0-2.9-1.3-2.9-2.9l0,0c0-1.6,1.3-2.9,2.9-2.9h21.5c1.6,0,2.9,1.3,2.9,2.9l0,0
		C317,393.2,315.7,394.5,314.1,394.5z"/>
	<path class="st1" d="M388.4,394.5h-21.5c-1.6,0-2.9-1.3-2.9-2.9l0,0c0-1.6,1.3-2.9,2.9-2.9h21.5c1.6,0,2.9,1.3,2.9,2.9l0,0
		C391.3,393.2,390,394.5,388.4,394.5z"/>
	<path class="st1" d="M462.7,394.5h-21.5c-1.6,0-2.9-1.3-2.9-2.9l0,0c0-1.6,1.3-2.9,2.9-2.9h21.5c1.6,0,2.9,1.3,2.9,2.9l0,0
		C465.6,393.2,464.3,394.5,462.7,394.5z"/>
	<path class="st1" d="M537,394.5h-21.5c-1.6,0-2.9-1.3-2.9-2.9l0,0c0-1.6,1.3-2.9,2.9-2.9H537c1.6,0,2.9,1.3,2.9,2.9l0,0
		C539.9,393.2,538.6,394.5,537,394.5z"/>
	<path class="st1" d="M610.9,394.5h-20.8c-1.6,0-2.9-1.3-2.9-2.9l0,0c0-1.6,1.3-2.9,2.9-2.9h20.8c1.6,0,2.9,1.3,2.9,2.9l0,0
		C613.8,393.2,612.5,394.5,610.9,394.5z"/>
</g>
<line class="st9" x1="546.3" y1="43.1" x2="640.4" y2="43.1"/>
<line class="st7" x1="5.3" y1="43.1" x2="485.3" y2="43.1"/>
<g>
	<g>
		<path class="st12" d="M573.1,320.4l0.4-3.3c0.1-0.6,0.2-1.5,0.3-2.1h0c-0.3,0.6-0.6,1.3-0.9,2l-1.8,3.3h-0.6l-0.5-3.3
			c-0.1-0.7-0.2-1.4-0.2-2h0c-0.1,0.6-0.3,1.5-0.5,2.1l-0.8,3.3h-0.7l1.6-6.1h1l0.5,3.5c0.1,0.5,0.1,1.1,0.1,1.5h0
			c0.2-0.5,0.5-1,0.7-1.5l1.9-3.5h1l-0.8,6.1H573.1z"/>
		<path class="st12" d="M578.4,320.4c0-0.3,0-0.7,0.1-1.1h0c-0.5,0.9-1.1,1.2-1.7,1.2c-0.8,0-1.3-0.6-1.3-1.4c0-1.5,1.1-3.1,3-3.1
			c0.4,0,0.9,0.1,1.2,0.2l-0.4,2.3c-0.1,0.8-0.2,1.5-0.2,2H578.4z M578.9,316.6c-0.1,0-0.3-0.1-0.5-0.1c-1.1,0-2,1.2-2.1,2.4
			c0,0.5,0.2,1,0.7,1c0.6,0,1.4-0.8,1.6-2L578.9,316.6z"/>
		<path class="st12" d="M580.7,320.4l0.5-2.8c0.1-0.6,0.2-1.1,0.2-1.5h0.7c0,0.3-0.1,0.6-0.1,0.9h0c0.3-0.6,0.7-1,1.3-1
			c0.1,0,0.2,0,0.2,0l-0.1,0.7c0,0-0.1,0-0.2,0c-0.6,0-1.2,0.8-1.4,1.8l-0.4,1.9H580.7z"/>
		<path class="st12" d="M584,320.4l1.2-6.4h0.7l-0.8,4h0c0.1-0.2,0.3-0.3,0.4-0.4l1.5-1.5h0.9l-1.9,1.8l1.3,2.6h-0.8l-1-2.2
			l-0.5,0.5l-0.3,1.7H584z"/>
		<path class="st12" d="M591.7,320.2c-0.3,0.2-0.9,0.3-1.4,0.3c-1.2,0-1.7-0.8-1.7-1.7c0-1.3,1-2.8,2.4-2.8c0.8,0,1.3,0.5,1.3,1.1
			c0,1.1-1.3,1.4-2.9,1.4c0,0.2,0,0.6,0.1,0.8c0.2,0.4,0.5,0.6,1,0.6c0.5,0,0.9-0.2,1.2-0.3L591.7,320.2z M590.8,316.5
			c-0.7,0-1.2,0.7-1.4,1.4c1.2,0,2.1-0.1,2.1-0.8C591.5,316.7,591.2,316.5,590.8,316.5z"/>
		<path class="st12" d="M595.1,314.9l-0.2,1.2h1l-0.1,0.6h-1l-0.4,2.1c0,0.2-0.1,0.5-0.1,0.7c0,0.3,0.1,0.4,0.4,0.4
			c0.1,0,0.3,0,0.4,0l0,0.6c-0.1,0.1-0.4,0.1-0.6,0.1c-0.7,0-0.9-0.4-0.9-0.8c0-0.3,0-0.5,0.1-0.8l0.4-2.2h-0.6l0.1-0.6h0.6l0.2-1
			L595.1,314.9z"/>
		<path class="st12" d="M596.5,319.7c0.2,0.1,0.6,0.3,0.9,0.3c0.5,0,0.8-0.3,0.8-0.7c0-0.3-0.2-0.5-0.6-0.8
			c-0.5-0.3-0.8-0.7-0.8-1.1c0-0.8,0.7-1.4,1.6-1.4c0.4,0,0.7,0.1,0.9,0.2l-0.2,0.6c-0.2-0.1-0.4-0.2-0.8-0.2
			c-0.5,0-0.8,0.3-0.8,0.7c0,0.3,0.2,0.5,0.6,0.7c0.5,0.3,0.8,0.7,0.8,1.1c0,0.9-0.7,1.4-1.7,1.4c-0.5,0-0.9-0.1-1.1-0.3
			L596.5,319.7z"/>
		<path class="st12" d="M600.2,320.4l0.8-4.4h0.7l-0.8,4.4H600.2z M601.1,314.8c0-0.3,0.2-0.5,0.5-0.5s0.4,0.2,0.4,0.5
			c0,0.3-0.2,0.5-0.5,0.5C601.3,315.3,601.1,315.1,601.1,314.8z"/>
		<path class="st12" d="M607.4,314l-1,5c-0.1,0.5-0.2,1-0.2,1.4h-0.7l0.1-0.9h0c-0.4,0.6-0.9,1-1.6,1c-0.8,0-1.3-0.7-1.3-1.6
			c0-1.5,1.2-3,2.7-3c0.3,0,0.6,0.1,0.8,0.2l0.4-2.1H607.4z M606.1,316.7c-0.2-0.1-0.4-0.2-0.7-0.2c-1,0-1.9,1.1-1.9,2.3
			c0,0.5,0.2,1.1,0.8,1.1c0.6,0,1.3-0.7,1.5-1.6L606.1,316.7z"/>
		<path class="st12" d="M611.1,320.2c-0.3,0.2-0.9,0.3-1.4,0.3c-1.2,0-1.7-0.8-1.7-1.7c0-1.3,1-2.8,2.4-2.8c0.8,0,1.3,0.5,1.3,1.1
			c0,1.1-1.3,1.4-2.9,1.4c0,0.2,0,0.6,0.1,0.8c0.2,0.4,0.5,0.6,1,0.6c0.5,0,0.9-0.2,1.2-0.3L611.1,320.2z M610.2,316.5
			c-0.7,0-1.2,0.7-1.4,1.4c1.2,0,2.1-0.1,2.1-0.8C610.9,316.7,610.6,316.5,610.2,316.5z"/>
	</g>
</g>
<g>
	<g>
		<path class="st12" d="M79.7,153.6c0.4-0.1,0.9-0.1,1.5-0.1c0.8,0,1.3,0.2,1.7,0.5c0.3,0.3,0.5,0.7,0.5,1.3c0,0.5-0.2,1-0.5,1.3
			c-0.4,0.4-1.1,0.7-1.9,0.7c-0.2,0-0.5,0-0.6-0.1v2.4h-0.8V153.6z M80.5,156.5c0.2,0,0.4,0.1,0.6,0.1c0.9,0,1.5-0.5,1.5-1.3
			c0-0.8-0.6-1.2-1.4-1.2c-0.3,0-0.6,0-0.7,0.1V156.5z"/>
		<path class="st12" d="M85.2,157.6c0,1.1,0.7,1.5,1.5,1.5c0.6,0,0.9-0.1,1.2-0.2l0.1,0.6c-0.3,0.1-0.8,0.3-1.4,0.3
			c-1.3,0-2.1-0.9-2.1-2.2s0.8-2.3,2-2.3c1.4,0,1.8,1.3,1.8,2.1c0,0.2,0,0.3,0,0.4H85.2z M87.6,157c0-0.5-0.2-1.3-1.1-1.3
			c-0.8,0-1.2,0.7-1.2,1.3H87.6z"/>
		<path class="st12" d="M89.8,156.6c0-0.5,0-1,0-1.4h0.7l0,0.9h0c0.2-0.6,0.7-1,1.2-1c0.1,0,0.2,0,0.2,0v0.7c-0.1,0-0.2,0-0.3,0
			c-0.6,0-1,0.4-1.1,1c0,0.1,0,0.2,0,0.4v2.3h-0.8V156.6z"/>
		<path class="st12" d="M93.6,157.6c0,1.1,0.7,1.5,1.5,1.5c0.6,0,0.9-0.1,1.2-0.2l0.1,0.6c-0.3,0.1-0.8,0.3-1.4,0.3
			c-1.3,0-2.1-0.9-2.1-2.2s0.8-2.3,2-2.3c1.4,0,1.8,1.3,1.8,2.1c0,0.2,0,0.3,0,0.4H93.6z M96,157c0-0.5-0.2-1.3-1.1-1.3
			c-0.8,0-1.2,0.7-1.2,1.3H96z"/>
		<path class="st12" d="M101.4,159.4c-0.2,0.1-0.7,0.3-1.3,0.3c-1.3,0-2.2-0.9-2.2-2.2c0-1.3,0.9-2.3,2.3-2.3c0.5,0,0.9,0.1,1.1,0.2
			l-0.2,0.6c-0.2-0.1-0.5-0.2-0.9-0.2c-1,0-1.5,0.7-1.5,1.6c0,1,0.6,1.6,1.5,1.6c0.5,0,0.7-0.1,1-0.2L101.4,159.4z"/>
		<path class="st12" d="M103.1,157.6c0,1.1,0.7,1.5,1.5,1.5c0.6,0,0.9-0.1,1.2-0.2l0.1,0.6c-0.3,0.1-0.8,0.3-1.4,0.3
			c-1.3,0-2.1-0.9-2.1-2.2s0.8-2.3,2-2.3c1.4,0,1.8,1.3,1.8,2.1c0,0.2,0,0.3,0,0.4H103.1z M105.5,157c0-0.5-0.2-1.3-1.1-1.3
			c-0.8,0-1.2,0.7-1.2,1.3H105.5z"/>
		<path class="st12" d="M111.5,153.2v5.3c0,0.4,0,0.8,0,1.1h-0.7l0-0.8h0c-0.2,0.5-0.8,0.9-1.5,0.9c-1.1,0-1.9-0.9-1.9-2.2
			c0-1.4,0.9-2.3,2-2.3c0.7,0,1.1,0.3,1.3,0.7h0v-2.6H111.5z M110.7,157c0-0.1,0-0.2,0-0.3c-0.1-0.5-0.5-0.9-1.1-0.9
			c-0.8,0-1.3,0.7-1.3,1.7c0,0.9,0.4,1.6,1.3,1.6c0.5,0,1-0.4,1.2-0.9c0-0.1,0-0.2,0-0.3V157z"/>
		<path class="st12" d="M113.8,157.6c0,1.1,0.7,1.5,1.5,1.5c0.6,0,0.9-0.1,1.2-0.2l0.1,0.6c-0.3,0.1-0.8,0.3-1.4,0.3
			c-1.3,0-2.1-0.9-2.1-2.2s0.8-2.3,2-2.3c1.4,0,1.8,1.3,1.8,2.1c0,0.2,0,0.3,0,0.4H113.8z M116.1,157c0-0.5-0.2-1.3-1.1-1.3
			c-0.8,0-1.2,0.7-1.2,1.3H116.1z"/>
		<path class="st12" d="M118.4,156.6c0-0.5,0-1,0-1.4h0.7l0,0.9h0c0.2-0.6,0.7-1,1.2-1c0.1,0,0.2,0,0.2,0v0.7c-0.1,0-0.2,0-0.3,0
			c-0.6,0-1,0.4-1.1,1c0,0.1,0,0.2,0,0.4v2.3h-0.8V156.6z"/>
		<path class="st12" d="M125.7,157.4c0,1.6-1.1,2.3-2.2,2.3c-1.2,0-2.1-0.9-2.1-2.2c0-1.5,1-2.3,2.2-2.3
			C124.9,155.1,125.7,156,125.7,157.4z M122.3,157.4c0,1,0.5,1.7,1.3,1.7c0.8,0,1.3-0.7,1.3-1.7c0-0.7-0.4-1.7-1.3-1.7
			S122.3,156.6,122.3,157.4z"/>
		<path class="st12" d="M127.1,158.8c0.2,0.2,0.6,0.3,1,0.3c0.6,0,0.8-0.3,0.8-0.6c0-0.4-0.2-0.6-0.8-0.8c-0.8-0.3-1.2-0.7-1.2-1.2
			c0-0.7,0.6-1.3,1.5-1.3c0.4,0,0.8,0.1,1.1,0.3l-0.2,0.6c-0.2-0.1-0.5-0.3-0.9-0.3c-0.5,0-0.7,0.3-0.7,0.6c0,0.4,0.3,0.5,0.8,0.7
			c0.8,0.3,1.1,0.7,1.1,1.3c0,0.8-0.6,1.3-1.6,1.3c-0.5,0-0.9-0.1-1.2-0.3L127.1,158.8z"/>
	</g>
</g>
<g>
	<g>
		<path class="st12" d="M366.2,73.9c0-0.8-0.1-1.9-0.1-2.6h0c-0.2,0.7-0.5,1.5-0.8,2.3l-1.1,2.9h-0.6l-1-2.9
			c-0.3-0.9-0.5-1.6-0.7-2.4h0c0,0.8-0.1,1.8-0.1,2.7l-0.2,2.6h-0.7l0.4-6.1h1l1,2.9c0.3,0.7,0.5,1.4,0.6,2h0c0.2-0.6,0.4-1.3,0.6-2
			l1.1-2.9h1l0.4,6.1h-0.8L366.2,73.9z"/>
		<path class="st12" d="M369.3,74.6c0,1.1,0.7,1.5,1.5,1.5c0.6,0,0.9-0.1,1.2-0.2l0.1,0.6c-0.3,0.1-0.8,0.3-1.4,0.3
			c-1.3,0-2.1-0.9-2.1-2.2s0.8-2.3,2-2.3c1.4,0,1.8,1.3,1.8,2.1c0,0.2,0,0.3,0,0.4H369.3z M371.6,74c0-0.5-0.2-1.3-1.1-1.3
			c-0.8,0-1.2,0.7-1.2,1.3H371.6z"/>
		<path class="st12" d="M373.8,73.6c0-0.5,0-1,0-1.4h0.7l0,0.9h0c0.2-0.6,0.7-1,1.2-1c0.1,0,0.2,0,0.2,0v0.7c-0.1,0-0.2,0-0.3,0
			c-0.6,0-1,0.4-1.1,1c0,0.1,0,0.2,0,0.4v2.3h-0.8V73.6z"/>
		<path class="st12" d="M380.3,76.4c-0.2,0.1-0.7,0.3-1.3,0.3c-1.3,0-2.2-0.9-2.2-2.2c0-1.3,0.9-2.3,2.3-2.3c0.5,0,0.9,0.1,1.1,0.2
			l-0.2,0.6c-0.2-0.1-0.5-0.2-0.9-0.2c-1,0-1.5,0.7-1.5,1.6c0,1,0.6,1.6,1.5,1.6c0.5,0,0.7-0.1,1-0.2L380.3,76.4z"/>
		<path class="st12" d="M384.2,76.6l-0.1-0.5h0c-0.2,0.3-0.7,0.6-1.3,0.6c-0.9,0-1.3-0.6-1.3-1.3c0-1.1,0.9-1.6,2.6-1.6v-0.1
			c0-0.4-0.1-1-1-1c-0.4,0-0.8,0.1-1.1,0.3l-0.2-0.5c0.4-0.2,0.9-0.4,1.4-0.4c1.3,0,1.7,0.9,1.7,1.8v1.6c0,0.4,0,0.7,0.1,1H384.2z
			 M384.1,74.4c-0.9,0-1.8,0.1-1.8,1c0,0.5,0.3,0.8,0.7,0.8c0.6,0,0.9-0.4,1.1-0.7c0-0.1,0-0.2,0-0.3V74.4z"/>
		<path class="st12" d="M386.6,73.4c0-0.5,0-0.8,0-1.2h0.7l0,0.7h0c0.2-0.4,0.7-0.8,1.4-0.8c0.6,0,1.5,0.4,1.5,1.9v2.6h-0.8v-2.5
			c0-0.7-0.3-1.3-1-1.3c-0.5,0-0.9,0.4-1.1,0.8c0,0.1-0.1,0.2-0.1,0.4v2.6h-0.8V73.4z"/>
		<path class="st12" d="M395.2,76.4c-0.2,0.1-0.7,0.3-1.3,0.3c-1.3,0-2.2-0.9-2.2-2.2c0-1.3,0.9-2.3,2.3-2.3c0.5,0,0.9,0.1,1.1,0.2
			L395,73c-0.2-0.1-0.5-0.2-0.9-0.2c-1,0-1.5,0.7-1.5,1.6c0,1,0.6,1.6,1.5,1.6c0.5,0,0.7-0.1,1-0.2L395.2,76.4z"/>
		<path class="st12" d="M398.2,70.4l-1.1,1.3h-0.6l0.8-1.3H398.2z M396.6,76.6v-4.4h0.8v4.4H396.6z"/>
		<path class="st12" d="M401.5,76.6l-0.1-0.5h0c-0.2,0.3-0.7,0.6-1.3,0.6c-0.9,0-1.3-0.6-1.3-1.3c0-1.1,0.9-1.6,2.6-1.6v-0.1
			c0-0.4-0.1-1-1-1c-0.4,0-0.8,0.1-1.1,0.3l-0.2-0.5c0.4-0.2,0.9-0.4,1.4-0.4c1.3,0,1.7,0.9,1.7,1.8v1.6c0,0.4,0,0.7,0.1,1H401.5z
			 M401.4,74.4c-0.9,0-1.8,0.1-1.8,1c0,0.5,0.3,0.8,0.7,0.8c0.6,0,0.9-0.4,1.1-0.7c0-0.1,0-0.2,0-0.3V74.4z"/>
		<path class="st12" d="M403.8,75.8c0.2,0.2,0.6,0.3,1,0.3c0.6,0,0.8-0.3,0.8-0.6c0-0.4-0.2-0.6-0.8-0.8c-0.8-0.3-1.2-0.7-1.2-1.2
			c0-0.7,0.6-1.3,1.5-1.3c0.4,0,0.8,0.1,1.1,0.3l-0.2,0.6c-0.2-0.1-0.5-0.3-0.9-0.3c-0.5,0-0.7,0.3-0.7,0.6c0,0.4,0.3,0.5,0.8,0.7
			c0.8,0.3,1.1,0.7,1.1,1.3c0,0.8-0.6,1.3-1.6,1.3c-0.5,0-0.9-0.1-1.2-0.3L403.8,75.8z"/>
		<path class="st12" d="M414,72.2c0,0.3,0,0.7,0,1.2V76c0,1-0.2,1.6-0.6,2c-0.4,0.4-1,0.5-1.6,0.5c-0.5,0-1.1-0.1-1.4-0.4l0.2-0.6
			c0.3,0.2,0.7,0.3,1.3,0.3c0.8,0,1.4-0.4,1.4-1.5v-0.5h0c-0.2,0.4-0.7,0.7-1.4,0.7c-1.1,0-1.9-0.9-1.9-2.1c0-1.5,1-2.3,2-2.3
			c0.8,0,1.2,0.4,1.4,0.8h0l0-0.7H414z M413.2,74c0-0.1,0-0.3,0-0.4c-0.1-0.5-0.5-0.8-1.1-0.8c-0.8,0-1.3,0.6-1.3,1.6
			c0,0.9,0.4,1.6,1.3,1.6c0.5,0,0.9-0.3,1.1-0.8c0-0.1,0.1-0.3,0.1-0.4V74z"/>
		<path class="st12" d="M416.2,74.6c0,1.1,0.7,1.5,1.5,1.5c0.6,0,0.9-0.1,1.2-0.2l0.1,0.6c-0.3,0.1-0.8,0.3-1.4,0.3
			c-1.3,0-2.1-0.9-2.1-2.2s0.8-2.3,2-2.3c1.4,0,1.8,1.3,1.8,2.1c0,0.2,0,0.3,0,0.4H416.2z M418.6,74c0-0.5-0.2-1.3-1.1-1.3
			c-0.8,0-1.2,0.7-1.2,1.3H418.6z"/>
		<path class="st12" d="M420.8,73.4c0-0.5,0-0.8,0-1.2h0.7l0,0.7h0c0.2-0.4,0.7-0.8,1.4-0.8c0.6,0,1.5,0.4,1.5,1.9v2.6h-0.8v-2.5
			c0-0.7-0.3-1.3-1-1.3c-0.5,0-0.9,0.4-1.1,0.8c0,0.1-0.1,0.2-0.1,0.4v2.6h-0.8V73.4z"/>
		<path class="st12" d="M426.8,74.6c0,1.1,0.7,1.5,1.5,1.5c0.6,0,0.9-0.1,1.2-0.2l0.1,0.6c-0.3,0.1-0.8,0.3-1.4,0.3
			c-1.3,0-2.1-0.9-2.1-2.2s0.8-2.3,2-2.3c1.4,0,1.8,1.3,1.8,2.1c0,0.2,0,0.3,0,0.4H426.8z M429.1,74c0-0.5-0.2-1.3-1.1-1.3
			c-0.8,0-1.2,0.7-1.2,1.3H429.1z"/>
		<path class="st12" d="M431.3,73.6c0-0.5,0-1,0-1.4h0.7l0,0.9h0c0.2-0.6,0.7-1,1.2-1c0.1,0,0.2,0,0.2,0v0.7c-0.1,0-0.2,0-0.3,0
			c-0.6,0-1,0.4-1.1,1c0,0.1,0,0.2,0,0.4v2.3h-0.8V73.6z"/>
		<path class="st12" d="M437.2,76.6l-0.1-0.5h0c-0.2,0.3-0.7,0.6-1.3,0.6c-0.9,0-1.3-0.6-1.3-1.3c0-1.1,0.9-1.6,2.6-1.6v-0.1
			c0-0.4-0.1-1-1-1c-0.4,0-0.8,0.1-1.1,0.3l-0.2-0.5c0.4-0.2,0.9-0.4,1.4-0.4c1.3,0,1.7,0.9,1.7,1.8v1.6c0,0.4,0,0.7,0.1,1H437.2z
			 M437.1,74.4c-0.9,0-1.8,0.1-1.8,1c0,0.5,0.3,0.8,0.7,0.8c0.6,0,0.9-0.4,1.1-0.7c0-0.1,0-0.2,0-0.3V74.4z"/>
		<path class="st12" d="M439.6,70.2h0.8v6.4h-0.8V70.2z"/>
		<path class="st12" d="M442.7,74.6c0,1.1,0.7,1.5,1.5,1.5c0.6,0,0.9-0.1,1.2-0.2l0.1,0.6c-0.3,0.1-0.8,0.3-1.4,0.3
			c-1.3,0-2.1-0.9-2.1-2.2s0.8-2.3,2-2.3c1.4,0,1.8,1.3,1.8,2.1c0,0.2,0,0.3,0,0.4H442.7z M445,74c0-0.5-0.2-1.3-1.1-1.3
			c-0.8,0-1.2,0.7-1.2,1.3H445z"/>
		<path class="st12" d="M447.1,75.8c0.2,0.2,0.6,0.3,1,0.3c0.6,0,0.8-0.3,0.8-0.6c0-0.4-0.2-0.6-0.8-0.8c-0.8-0.3-1.2-0.7-1.2-1.2
			c0-0.7,0.6-1.3,1.5-1.3c0.4,0,0.8,0.1,1.1,0.3l-0.2,0.6c-0.2-0.1-0.5-0.3-0.9-0.3c-0.5,0-0.7,0.3-0.7,0.6c0,0.4,0.3,0.5,0.8,0.7
			c0.8,0.3,1.1,0.7,1.1,1.3c0,0.8-0.6,1.3-1.6,1.3c-0.5,0-0.9-0.1-1.2-0.3L447.1,75.8z"/>
	</g>
</g>
<g>
	<g>
		<path class="st12" d="M310.9,157.7l-0.6,1.9h-0.8l2.1-6.1h0.9l2.1,6.1h-0.8l-0.6-1.9H310.9z M312.9,157.1l-0.6-1.7
			c-0.1-0.4-0.2-0.8-0.3-1.1h0c-0.1,0.4-0.2,0.7-0.3,1.1l-0.6,1.8H312.9z"/>
		<path class="st12" d="M315.8,159.6c0-0.3,0-0.7,0-1.1v-5.3h0.8v2.7h0c0.3-0.5,0.8-0.8,1.5-0.8c1.1,0,1.8,0.9,1.8,2.2
			c0,1.6-1,2.3-2,2.3c-0.6,0-1.1-0.2-1.5-0.8h0l0,0.7H315.8z M316.6,157.8c0,0.1,0,0.2,0,0.3c0.2,0.5,0.6,0.9,1.2,0.9
			c0.8,0,1.3-0.7,1.3-1.7c0-0.9-0.5-1.6-1.3-1.6c-0.5,0-1,0.4-1.2,1c0,0.1,0,0.2,0,0.3V157.8z"/>
		<path class="st12" d="M323.9,159.6l-0.1-0.5h0c-0.2,0.3-0.7,0.6-1.3,0.6c-0.9,0-1.3-0.6-1.3-1.3c0-1.1,0.9-1.6,2.6-1.6v-0.1
			c0-0.4-0.1-1-1-1c-0.4,0-0.8,0.1-1.1,0.3l-0.2-0.5c0.4-0.2,0.9-0.4,1.4-0.4c1.3,0,1.7,0.9,1.7,1.8v1.6c0,0.4,0,0.7,0.1,1H323.9z
			 M323.8,157.4c-0.9,0-1.8,0.1-1.8,1c0,0.5,0.3,0.8,0.7,0.8c0.6,0,0.9-0.4,1.1-0.7c0-0.1,0-0.2,0-0.3V157.4z"/>
		<path class="st12" d="M326.3,156.6c0-0.5,0-1,0-1.4h0.7l0,0.9h0c0.2-0.6,0.7-1,1.2-1c0.1,0,0.2,0,0.2,0v0.7c-0.1,0-0.2,0-0.3,0
			c-0.6,0-1,0.4-1.1,1c0,0.1,0,0.2,0,0.4v2.3h-0.8V156.6z"/>
		<path class="st12" d="M329.8,156.6c0-0.5,0-1,0-1.4h0.7l0,0.9h0c0.2-0.6,0.7-1,1.2-1c0.1,0,0.2,0,0.2,0v0.7c-0.1,0-0.2,0-0.3,0
			c-0.6,0-1,0.4-1.1,1c0,0.1,0,0.2,0,0.4v2.3h-0.8V156.6z"/>
		<path class="st12" d="M337.1,157.4c0,1.6-1.1,2.3-2.2,2.3c-1.2,0-2.1-0.9-2.1-2.2c0-1.5,1-2.3,2.2-2.3
			C336.3,155.1,337.1,156,337.1,157.4z M333.7,157.4c0,1,0.5,1.7,1.3,1.7c0.8,0,1.3-0.7,1.3-1.7c0-0.7-0.4-1.7-1.3-1.7
			C334.1,155.7,333.7,156.6,333.7,157.4z"/>
		<path class="st12" d="M339.5,154v1.3h1.1v0.6h-1.1v2.3c0,0.5,0.2,0.8,0.6,0.8c0.2,0,0.4,0,0.5-0.1l0,0.6c-0.2,0.1-0.4,0.1-0.7,0.1
			c-0.4,0-0.7-0.1-0.9-0.3c-0.2-0.2-0.3-0.6-0.3-1.1v-2.4h-0.7v-0.6h0.7v-1L339.5,154z"/>
		<path class="st12" d="M342.4,157.6c0,1.1,0.7,1.5,1.5,1.5c0.6,0,0.9-0.1,1.2-0.2l0.1,0.6c-0.3,0.1-0.8,0.3-1.4,0.3
			c-1.3,0-2.1-0.9-2.1-2.2s0.8-2.3,2-2.3c1.4,0,1.8,1.3,1.8,2.1c0,0.2,0,0.3,0,0.4H342.4z M344.7,157c0-0.5-0.2-1.3-1.1-1.3
			c-0.8,0-1.2,0.7-1.2,1.3H344.7z"/>
		<path class="st12" d="M346.9,158.8c0.2,0.2,0.6,0.3,1,0.3c0.6,0,0.8-0.3,0.8-0.6c0-0.4-0.2-0.6-0.8-0.8c-0.8-0.3-1.2-0.7-1.2-1.2
			c0-0.7,0.6-1.3,1.5-1.3c0.4,0,0.8,0.1,1.1,0.3l-0.2,0.6c-0.2-0.1-0.5-0.3-0.9-0.3c-0.5,0-0.7,0.3-0.7,0.6c0,0.4,0.3,0.5,0.8,0.7
			c0.8,0.3,1.1,0.7,1.1,1.3c0,0.8-0.6,1.3-1.6,1.3c-0.5,0-0.9-0.1-1.2-0.3L346.9,158.8z"/>
	</g>
</g>
<rect x="200.7" y="301.8" class="st4" width="258.2" height="58.5"/>
<g>
	<g>
		<path class="st12" d="M323.7,265.7c-0.3,0.1-0.9,0.3-1.6,0.3c-1.7,0-3-1.1-3-3.1c0-1.9,1.3-3.2,3.2-3.2c0.8,0,1.2,0.2,1.4,0.3
			l-0.2,0.6c-0.3-0.1-0.7-0.3-1.2-0.3c-1.4,0-2.4,0.9-2.4,2.5c0,1.5,0.9,2.4,2.3,2.4c0.5,0,1-0.1,1.3-0.3L323.7,265.7z"/>
		<path class="st12" d="M327.6,265.9l-0.1-0.5h0c-0.2,0.3-0.7,0.6-1.3,0.6c-0.9,0-1.3-0.6-1.3-1.3c0-1.1,0.9-1.6,2.6-1.6V263
			c0-0.4-0.1-1-1-1c-0.4,0-0.8,0.1-1.1,0.3l-0.2-0.5c0.4-0.2,0.9-0.4,1.4-0.4c1.3,0,1.7,0.9,1.7,1.8v1.6c0,0.4,0,0.7,0.1,1H327.6z
			 M327.5,263.6c-0.9,0-1.8,0.1-1.8,1c0,0.5,0.3,0.8,0.7,0.8c0.6,0,0.9-0.4,1.1-0.7c0-0.1,0-0.2,0-0.3V263.6z"/>
		<path class="st12" d="M328.9,267.1c0.4,0,0.7-0.1,0.9-0.3c0.2-0.3,0.3-0.6,0.3-1.6v-3.6h0.8v4c0,0.8-0.1,1.4-0.5,1.8
			c-0.4,0.4-0.9,0.5-1.4,0.5L328.9,267.1z M330.9,260.3c0,0.3-0.2,0.5-0.5,0.5c-0.3,0-0.5-0.2-0.5-0.5c0-0.3,0.2-0.5,0.5-0.5
			C330.7,259.8,330.9,260,330.9,260.3z"/>
		<path class="st12" d="M335,265.9l-0.1-0.5h0c-0.2,0.3-0.7,0.6-1.3,0.6c-0.9,0-1.3-0.6-1.3-1.3c0-1.1,0.9-1.6,2.6-1.6V263
			c0-0.4-0.1-1-1-1c-0.4,0-0.8,0.1-1.1,0.3l-0.2-0.5c0.4-0.2,0.9-0.4,1.4-0.4c1.3,0,1.7,0.9,1.7,1.8v1.6c0,0.4,0,0.7,0.1,1H335z
			 M334.9,263.6c-0.9,0-1.8,0.1-1.8,1c0,0.5,0.3,0.8,0.7,0.8c0.6,0,0.9-0.4,1.1-0.7c0-0.1,0-0.2,0-0.3V263.6z"/>
		<path class="st12" d="M337.3,265c0.2,0.2,0.6,0.3,1,0.3c0.6,0,0.8-0.3,0.8-0.6c0-0.4-0.2-0.6-0.8-0.8c-0.8-0.3-1.2-0.7-1.2-1.2
			c0-0.7,0.6-1.3,1.5-1.3c0.4,0,0.8,0.1,1.1,0.3l-0.2,0.6c-0.2-0.1-0.5-0.3-0.9-0.3c-0.5,0-0.7,0.3-0.7,0.6c0,0.4,0.3,0.5,0.8,0.7
			c0.8,0.3,1.1,0.7,1.1,1.3c0,0.8-0.6,1.3-1.6,1.3c-0.5,0-0.9-0.1-1.2-0.3L337.3,265z"/>
	</g>
</g>
<g>
	<g>
		<path class="st12" d="M146.3,259.9c0.5-0.1,1-0.1,1.7-0.1c1.1,0,1.9,0.3,2.5,0.8c0.5,0.5,0.9,1.2,0.9,2.2c0,1-0.3,1.8-0.9,2.4
			c-0.6,0.6-1.5,0.9-2.7,0.9c-0.6,0-1,0-1.4-0.1V259.9z M147,265.2c0.2,0,0.5,0,0.8,0c1.7,0,2.6-0.9,2.6-2.6c0-1.4-0.8-2.3-2.5-2.3
			c-0.4,0-0.7,0-0.9,0.1V265.2z"/>
		<path class="st12" d="M153.2,263.8c0,1.1,0.7,1.5,1.5,1.5c0.6,0,0.9-0.1,1.2-0.2l0.1,0.6c-0.3,0.1-0.8,0.3-1.4,0.3
			c-1.3,0-2.1-0.9-2.1-2.2s0.8-2.3,2-2.3c1.4,0,1.8,1.3,1.8,2.1c0,0.2,0,0.3,0,0.4H153.2z M155.5,263.3c0-0.5-0.2-1.3-1.1-1.3
			c-0.8,0-1.2,0.7-1.2,1.3H155.5z"/>
		<path class="st12" d="M157.8,259.5h0.8v6.4h-0.8V259.5z"/>
		<path class="st12" d="M161.3,260.3c0,0.3-0.2,0.5-0.5,0.5c-0.3,0-0.5-0.2-0.5-0.5c0-0.3,0.2-0.5,0.5-0.5
			C161.1,259.8,161.3,260,161.3,260.3z M160.4,265.9v-4.4h0.8v4.4H160.4z"/>
	</g>
</g>
<g>
	<g>
		<path class="st1" d="M249.5,26.2c0,2.2-1.3,3.5-3.3,3.5c-2,0-3.2-1.5-3.2-3.4c0-2,1.3-3.5,3.3-3.5
			C248.4,22.8,249.5,24.4,249.5,26.2z M244.7,26.3c0,1.3,0.6,2.2,1.6,2.2c1,0,1.6-1,1.6-2.3c0-1.2-0.6-2.2-1.6-2.2
			C245.3,24,244.7,25,244.7,26.3z"/>
		<path class="st1" d="M250.9,26.4c0-0.6,0-1.2,0-1.6h1.3l0.1,0.7h0c0.4-0.5,0.9-0.8,1.6-0.8c1.1,0,2,0.9,2,2.5
			c0,1.8-1.1,2.6-2.2,2.6c-0.6,0-1-0.2-1.3-0.6h0v2.4h-1.5V26.4z M252.4,27.6c0,0.1,0,0.2,0,0.3c0.1,0.4,0.5,0.7,0.9,0.7
			c0.7,0,1-0.5,1-1.4c0-0.8-0.3-1.4-1-1.4c-0.4,0-0.8,0.3-0.9,0.8c0,0.1,0,0.2,0,0.3V27.6z"/>
		<path class="st1" d="M258.3,27.7c0,0.6,0.7,0.9,1.4,0.9c0.5,0,0.9-0.1,1.3-0.2l0.2,1c-0.5,0.2-1.1,0.3-1.8,0.3
			c-1.7,0-2.6-1-2.6-2.5c0-1.2,0.8-2.6,2.5-2.6c1.6,0,2.2,1.2,2.2,2.4c0,0.3,0,0.5,0,0.6H258.3z M260.1,26.7c0-0.4-0.2-1-0.9-1
			c-0.6,0-0.9,0.6-0.9,1H260.1z"/>
		<path class="st1" d="M262.8,26.4c0-0.7,0-1.2,0-1.6h1.3l0,0.9h0c0.2-0.7,0.8-1,1.3-1c0.1,0,0.2,0,0.3,0v1.4c-0.1,0-0.2,0-0.4,0
			c-0.6,0-0.9,0.3-1,0.8c0,0.1,0,0.2,0,0.3v2.5h-1.5V26.4z"/>
		<path class="st1" d="M269.6,29.7l-0.1-0.5h0c-0.3,0.4-0.8,0.6-1.4,0.6c-1,0-1.6-0.7-1.6-1.5c0-1.3,1.1-1.9,2.9-1.9v-0.1
			c0-0.3-0.1-0.6-0.9-0.6c-0.5,0-1,0.2-1.3,0.4l-0.3-1c0.3-0.2,1-0.4,1.9-0.4c1.6,0,2.1,1,2.1,2.1v1.7c0,0.5,0,0.9,0.1,1.2H269.6z
			 M269.4,27.4c-0.8,0-1.4,0.2-1.4,0.8c0,0.4,0.3,0.6,0.6,0.6c0.4,0,0.7-0.2,0.8-0.6c0-0.1,0-0.2,0-0.3V27.4z"/>
		<path class="st1" d="M276.1,29.5c-0.3,0.1-0.8,0.2-1.4,0.2c-1.6,0-2.6-1-2.6-2.5c0-1.4,1-2.6,2.8-2.6c0.4,0,0.8,0.1,1.2,0.2
			l-0.2,1.1c-0.2-0.1-0.4-0.1-0.8-0.1c-0.8,0-1.3,0.6-1.3,1.4c0,0.9,0.6,1.4,1.3,1.4c0.4,0,0.6-0.1,0.9-0.1L276.1,29.5z"/>
		<path class="st1" d="M278.8,23.4c0,0.4-0.3,0.8-0.8,0.8c-0.5,0-0.8-0.3-0.8-0.8c0-0.4,0.3-0.8,0.8-0.8
			C278.5,22.6,278.8,23,278.8,23.4z M277.3,29.7v-4.9h1.5v4.9H277.3z"/>
		<path class="st1" d="M285.1,27.2c0,1.8-1.3,2.6-2.6,2.6c-1.4,0-2.5-0.9-2.5-2.5s1-2.6,2.6-2.6C284.1,24.7,285.1,25.7,285.1,27.2z
			 M281.6,27.2c0,0.8,0.3,1.5,1,1.5c0.6,0,1-0.6,1-1.5c0-0.7-0.3-1.5-1-1.5C281.9,25.7,281.6,26.5,281.6,27.2z M284.2,22.6l-1.2,1.5
			h-1l0.9-1.5H284.2z"/>
		<path class="st1" d="M286.4,26.3c0-0.6,0-1.1,0-1.6h1.3l0.1,0.7h0c0.2-0.3,0.7-0.8,1.5-0.8c1,0,1.7,0.7,1.7,2.1v2.9h-1.5V27
			c0-0.6-0.2-1.1-0.8-1.1c-0.4,0-0.7,0.3-0.8,0.6c0,0.1-0.1,0.2-0.1,0.4v2.8h-1.5V26.3z"/>
		<path class="st1" d="M299.5,22.6v5.6c0,0.5,0,1.1,0,1.5h-1.3l-0.1-0.7h0c-0.3,0.5-0.9,0.8-1.5,0.8c-1.2,0-2.1-1-2.1-2.5
			c0-1.6,1-2.6,2.2-2.6c0.6,0,1.1,0.2,1.3,0.5h0v-2.6H299.5z M298,26.8c0-0.1,0-0.2,0-0.3c-0.1-0.4-0.4-0.7-0.9-0.7
			c-0.7,0-1,0.6-1,1.4c0,0.8,0.4,1.3,1,1.3c0.4,0,0.8-0.3,0.9-0.7c0-0.1,0-0.2,0-0.4V26.8z"/>
		<path class="st1" d="M302.2,27.7c0,0.6,0.7,0.9,1.4,0.9c0.5,0,0.9-0.1,1.3-0.2l0.2,1c-0.5,0.2-1.1,0.3-1.8,0.3
			c-1.7,0-2.6-1-2.6-2.5c0-1.2,0.8-2.6,2.5-2.6c1.6,0,2.2,1.2,2.2,2.4c0,0.3,0,0.5,0,0.6H302.2z M304,26.7c0-0.4-0.2-1-0.9-1
			c-0.6,0-0.9,0.6-0.9,1H304z"/>
		<path class="st1" d="M308.8,28.3c0.3,0.2,0.9,0.4,1.3,0.4c0.5,0,0.6-0.2,0.6-0.4c0-0.2-0.2-0.4-0.7-0.6c-1-0.3-1.4-0.9-1.4-1.5
			c0-0.9,0.8-1.6,2-1.6c0.6,0,1.1,0.1,1.4,0.3l-0.3,1c-0.2-0.1-0.6-0.3-1.1-0.3c-0.4,0-0.6,0.2-0.6,0.4c0,0.2,0.2,0.4,0.8,0.6
			c0.9,0.3,1.3,0.8,1.3,1.5c0,0.9-0.7,1.6-2.1,1.6c-0.6,0-1.2-0.1-1.6-0.3L308.8,28.3z"/>
		<path class="st1" d="M318.1,28.1c0,0.6,0,1.2,0,1.6h-1.3l-0.1-0.7h0c-0.2,0.3-0.6,0.8-1.5,0.8c-1,0-1.7-0.6-1.7-2.1v-2.9h1.5v2.6
			c0,0.7,0.2,1.1,0.8,1.1c0.4,0,0.7-0.3,0.8-0.5c0-0.1,0-0.2,0-0.3v-2.9h1.5V28.1z M317.4,22.6l-1.2,1.5h-1l0.9-1.5H317.4z"/>
		<path class="st1" d="M319.6,26.4c0-0.6,0-1.2,0-1.6h1.3l0.1,0.7h0c0.4-0.5,0.9-0.8,1.6-0.8c1.1,0,2,0.9,2,2.5
			c0,1.8-1.1,2.6-2.2,2.6c-0.6,0-1-0.2-1.3-0.6h0v2.4h-1.5V26.4z M321.1,27.6c0,0.1,0,0.2,0,0.3c0.1,0.4,0.5,0.7,0.9,0.7
			c0.7,0,1-0.5,1-1.4c0-0.8-0.3-1.4-1-1.4c-0.4,0-0.8,0.3-0.9,0.8c0,0.1,0,0.2,0,0.3V27.6z"/>
		<path class="st1" d="M327.1,27.7c0.1,0.6,0.7,0.9,1.4,0.9c0.5,0,0.9-0.1,1.3-0.2l0.2,1c-0.5,0.2-1.1,0.3-1.8,0.3
			c-1.7,0-2.6-1-2.6-2.5c0-1.2,0.8-2.6,2.5-2.6c1.6,0,2.2,1.2,2.2,2.4c0,0.3,0,0.5,0,0.6H327.1z M328.9,26.7c0-0.4-0.2-1-0.9-1
			c-0.6,0-0.9,0.6-0.9,1H328.9z"/>
		<path class="st1" d="M331.6,26.4c0-0.7,0-1.2,0-1.6h1.3l0,0.9h0c0.2-0.7,0.8-1,1.3-1c0.1,0,0.2,0,0.3,0v1.4c-0.1,0-0.2,0-0.4,0
			c-0.6,0-0.9,0.3-1,0.8c0,0.1,0,0.2,0,0.3v2.5h-1.5V26.4z"/>
		<path class="st1" d="M340.7,29.7l-0.1-0.5h0c-0.3,0.4-0.8,0.6-1.4,0.6c-1,0-1.6-0.7-1.6-1.5c0-1.3,1.1-1.9,2.9-1.9v-0.1
			c0-0.3-0.1-0.6-0.9-0.6c-0.5,0-1,0.2-1.3,0.4l-0.3-1c0.3-0.2,1-0.4,1.9-0.4c1.6,0,2.1,1,2.1,2.1v1.7c0,0.5,0,0.9,0.1,1.2H340.7z
			 M340.5,27.4c-0.8,0-1.4,0.2-1.4,0.8c0,0.4,0.3,0.6,0.6,0.6c0.4,0,0.7-0.2,0.8-0.6c0-0.1,0-0.2,0-0.3V27.4z"/>
		<path class="st1" d="M350.4,22.6v5.6c0,0.5,0,1.1,0,1.5h-1.3l-0.1-0.7h0c-0.3,0.5-0.9,0.8-1.5,0.8c-1.2,0-2.1-1-2.1-2.5
			c0-1.6,1-2.6,2.2-2.6c0.6,0,1.1,0.2,1.3,0.5h0v-2.6H350.4z M348.9,26.8c0-0.1,0-0.2,0-0.3c-0.1-0.4-0.4-0.7-0.9-0.7
			c-0.7,0-1,0.6-1,1.4c0,0.8,0.4,1.3,1,1.3c0.4,0,0.8-0.3,0.9-0.7c0-0.1,0-0.2,0-0.4V26.8z"/>
		<path class="st1" d="M356.8,27.2c0,1.8-1.3,2.6-2.6,2.6c-1.4,0-2.5-0.9-2.5-2.5s1-2.6,2.6-2.6C355.8,24.7,356.8,25.7,356.8,27.2z
			 M353.2,27.2c0,0.8,0.3,1.5,1,1.5c0.6,0,1-0.6,1-1.5c0-0.7-0.3-1.5-1-1.5C353.5,25.7,353.2,26.5,353.2,27.2z"/>
		<path class="st1" d="M358,26.3c0-0.6,0-1.1,0-1.6h1.3l0.1,0.7h0c0.2-0.3,0.6-0.8,1.5-0.8c0.6,0,1.1,0.3,1.3,0.8h0
			c0.2-0.2,0.4-0.4,0.6-0.6c0.3-0.2,0.6-0.2,0.9-0.2c0.9,0,1.6,0.7,1.6,2.1v2.9h-1.5V27c0-0.7-0.2-1.1-0.7-1.1
			c-0.4,0-0.6,0.2-0.7,0.5c0,0.1-0.1,0.3-0.1,0.4v2.9H361v-2.7c0-0.6-0.2-1-0.7-1c-0.4,0-0.6,0.3-0.7,0.5c0,0.1-0.1,0.3-0.1,0.4v2.8
			H358V26.3z"/>
		<path class="st1" d="M368.5,23.4c0,0.4-0.3,0.8-0.8,0.8c-0.5,0-0.8-0.3-0.8-0.8c0-0.4,0.3-0.8,0.8-0.8
			C368.2,22.6,368.5,23,368.5,23.4z M366.9,29.7v-4.9h1.5v4.9H366.9z"/>
		<path class="st1" d="M373.6,29.5c-0.3,0.1-0.8,0.2-1.4,0.2c-1.6,0-2.6-1-2.6-2.5c0-1.4,1-2.6,2.8-2.6c0.4,0,0.8,0.1,1.2,0.2
			l-0.2,1.1c-0.2-0.1-0.4-0.1-0.8-0.1c-0.8,0-1.3,0.6-1.3,1.4c0,0.9,0.6,1.4,1.3,1.4c0.4,0,0.6-0.1,0.9-0.1L373.6,29.5z"/>
		<path class="st1" d="M376.4,23.4c0,0.4-0.3,0.8-0.8,0.8c-0.5,0-0.8-0.3-0.8-0.8c0-0.4,0.3-0.8,0.8-0.8
			C376.1,22.6,376.4,23,376.4,23.4z M374.8,29.7v-4.9h1.5v4.9H374.8z"/>
		<path class="st1" d="M377.9,22.6h1.5v7.1h-1.5V22.6z"/>
		<path class="st1" d="M382.5,23.4c0,0.4-0.3,0.8-0.8,0.8c-0.5,0-0.8-0.3-0.8-0.8c0-0.4,0.3-0.8,0.8-0.8
			C382.2,22.6,382.5,23,382.5,23.4z M380.9,29.7v-4.9h1.5v4.9H380.9z"/>
		<path class="st1" d="M388.8,27.2c0,1.8-1.3,2.6-2.6,2.6c-1.4,0-2.5-0.9-2.5-2.5s1-2.6,2.6-2.6C387.8,24.7,388.8,25.7,388.8,27.2z
			 M385.2,27.2c0,0.8,0.3,1.5,1,1.5c0.6,0,1-0.6,1-1.5c0-0.7-0.3-1.5-1-1.5C385.5,25.7,385.2,26.5,385.2,27.2z"/>
	</g>
</g>
<g>
	<path class="st1" d="M278.2,349h4.1v1.2h-2.6v1.5h2.4v1.2h-2.4v2.7h-1.5V349z"/>
	<path class="st1" d="M286.2,355.7l-0.1-0.5h0c-0.3,0.4-0.8,0.6-1.4,0.6c-1,0-1.6-0.7-1.6-1.5c0-1.3,1.1-1.9,2.9-1.9v-0.1
		c0-0.3-0.1-0.6-0.9-0.6c-0.5,0-1,0.2-1.3,0.4l-0.3-1c0.3-0.2,1-0.4,1.9-0.4c1.6,0,2.1,1,2.1,2.1v1.7c0,0.5,0,0.9,0.1,1.2H286.2z
		 M286,353.4c-0.8,0-1.4,0.2-1.4,0.8c0,0.4,0.3,0.6,0.6,0.6c0.4,0,0.7-0.2,0.8-0.6c0-0.1,0-0.2,0-0.3V353.4z"/>
	<path class="st1" d="M292.7,355.6c-0.3,0.1-0.8,0.2-1.4,0.2c-1.6,0-2.6-1-2.6-2.5c0-1.4,1-2.6,2.8-2.6c0.4,0,0.8,0.1,1.2,0.2
		l-0.2,1.1c-0.2-0.1-0.5-0.1-0.8-0.1c-0.8,0-1.3,0.6-1.3,1.4c0,0.9,0.6,1.4,1.3,1.4c0.4,0,0.6-0.1,0.9-0.1L292.7,355.6z"/>
	<path class="st1" d="M293.9,348.6h1.5v2.8h0c0.2-0.2,0.4-0.4,0.6-0.5c0.2-0.1,0.5-0.2,0.8-0.2c1,0,1.7,0.7,1.7,2.1v2.9H297V353
		c0-0.6-0.2-1.1-0.8-1.1c-0.4,0-0.7,0.3-0.8,0.5c0,0.1,0,0.2,0,0.3v2.9h-1.5V348.6z"/>
	<path class="st1" d="M302.8,355.7l-0.1-0.5h0c-0.3,0.4-0.8,0.6-1.4,0.6c-1,0-1.6-0.7-1.6-1.5c0-1.3,1.1-1.9,2.9-1.9v-0.1
		c0-0.3-0.1-0.6-0.9-0.6c-0.5,0-1,0.2-1.3,0.4l-0.3-1c0.3-0.2,1-0.4,1.9-0.4c1.6,0,2.1,1,2.1,2.1v1.7c0,0.5,0,0.9,0.1,1.2H302.8z
		 M302.6,353.4c-0.8,0-1.4,0.2-1.4,0.8c0,0.4,0.3,0.6,0.6,0.6c0.4,0,0.7-0.2,0.8-0.6c0-0.1,0-0.2,0-0.3V353.4z"/>
	<path class="st1" d="M310.3,348.6v5.6c0,0.5,0,1.1,0,1.5H309l-0.1-0.7h0c-0.3,0.5-0.9,0.8-1.5,0.8c-1.2,0-2.1-1-2.1-2.5
		c0-1.6,1-2.6,2.2-2.6c0.6,0,1.1,0.2,1.3,0.5h0v-2.6H310.3z M308.8,352.9c0-0.1,0-0.2,0-0.3c-0.1-0.4-0.4-0.7-0.9-0.7
		c-0.7,0-1,0.6-1,1.4c0,0.8,0.4,1.3,1,1.3c0.4,0,0.8-0.3,0.9-0.7c0-0.1,0-0.2,0-0.3V352.9z"/>
	<path class="st1" d="M314.7,355.7l-0.1-0.5h0c-0.3,0.4-0.8,0.6-1.4,0.6c-1,0-1.6-0.7-1.6-1.5c0-1.3,1.1-1.9,2.9-1.9v-0.1
		c0-0.3-0.1-0.6-0.9-0.6c-0.5,0-1,0.2-1.3,0.4l-0.3-1c0.3-0.2,1-0.4,1.9-0.4c1.6,0,2.1,1,2.1,2.1v1.7c0,0.5,0,0.9,0.1,1.2H314.7z
		 M314.5,353.4c-0.8,0-1.4,0.2-1.4,0.8c0,0.4,0.3,0.6,0.6,0.6c0.4,0,0.7-0.2,0.8-0.6c0-0.1,0-0.2,0-0.3V353.4z"/>
	<path class="st1" d="M324.5,353.2c0,1.8-1.3,2.6-2.6,2.6c-1.4,0-2.5-0.9-2.5-2.5s1-2.6,2.6-2.6
		C323.5,350.7,324.5,351.8,324.5,353.2z M321,353.3c0,0.8,0.3,1.5,1,1.5c0.6,0,1-0.6,1-1.5c0-0.7-0.3-1.5-1-1.5
		C321.2,351.8,321,352.6,321,353.3z"/>
	<path class="st1" d="M325.8,352.4c0-0.6,0-1.1,0-1.6h1.3l0.1,0.7h0c0.2-0.3,0.6-0.8,1.5-0.8c0.6,0,1.1,0.3,1.3,0.8h0
		c0.2-0.2,0.4-0.5,0.6-0.6c0.3-0.2,0.6-0.2,0.9-0.2c0.9,0,1.6,0.7,1.6,2.1v2.9h-1.5v-2.7c0-0.7-0.2-1.1-0.7-1.1
		c-0.4,0-0.6,0.2-0.7,0.5c0,0.1-0.1,0.3-0.1,0.4v2.9h-1.5V353c0-0.6-0.2-1-0.7-1c-0.4,0-0.6,0.3-0.7,0.5c0,0.1-0.1,0.3-0.1,0.4v2.8
		h-1.5V352.4z"/>
	<path class="st1" d="M334.7,352.4c0-0.6,0-1.1,0-1.6h1.3l0.1,0.7h0c0.2-0.3,0.7-0.8,1.5-0.8c1,0,1.7,0.7,1.7,2.1v2.9h-1.5V353
		c0-0.6-0.2-1.1-0.8-1.1c-0.4,0-0.7,0.3-0.8,0.6c0,0.1-0.1,0.2-0.1,0.4v2.8h-1.5V352.4z"/>
	<path class="st1" d="M342.4,349.5c0,0.4-0.3,0.8-0.8,0.8c-0.5,0-0.8-0.3-0.8-0.8c0-0.4,0.3-0.8,0.8-0.8
		C342.1,348.7,342.4,349,342.4,349.5z M340.8,355.7v-4.9h1.5v4.9H340.8z"/>
	<path class="st1" d="M347.5,355.6c-0.3,0.1-0.8,0.2-1.4,0.2c-1.6,0-2.6-1-2.6-2.5c0-1.4,1-2.6,2.8-2.6c0.4,0,0.8,0.1,1.2,0.2
		l-0.2,1.1c-0.2-0.1-0.4-0.1-0.8-0.1c-0.8,0-1.3,0.6-1.3,1.4c0,0.9,0.6,1.4,1.3,1.4c0.4,0,0.6-0.1,0.9-0.1L347.5,355.6z"/>
	<path class="st1" d="M351.5,355.7l-0.1-0.5h0c-0.3,0.4-0.8,0.6-1.4,0.6c-1,0-1.6-0.7-1.6-1.5c0-1.3,1.1-1.9,2.9-1.9v-0.1
		c0-0.3-0.1-0.6-0.9-0.6c-0.5,0-1,0.2-1.3,0.4l-0.3-1c0.3-0.2,1-0.4,1.9-0.4c1.6,0,2.1,1,2.1,2.1v1.7c0,0.5,0,0.9,0.1,1.2H351.5z
		 M351.3,353.4c-0.8,0-1.4,0.2-1.4,0.8c0,0.4,0.3,0.6,0.6,0.6c0.4,0,0.7-0.2,0.8-0.6c0-0.1,0-0.2,0-0.3V353.4z"/>
	<path class="st1" d="M354.3,352.4c0-0.6,0-1.1,0-1.6h1.3l0.1,0.7h0c0.2-0.3,0.7-0.8,1.5-0.8c1,0,1.7,0.7,1.7,2.1v2.9h-1.5V353
		c0-0.6-0.2-1.1-0.8-1.1c-0.4,0-0.7,0.3-0.8,0.6c0,0.1-0.1,0.2-0.1,0.4v2.8h-1.5V352.4z"/>
	<path class="st1" d="M363.2,355.7l-0.1-0.5h0c-0.3,0.4-0.8,0.6-1.4,0.6c-1,0-1.6-0.7-1.6-1.5c0-1.3,1.1-1.9,2.9-1.9v-0.1
		c0-0.3-0.1-0.6-0.9-0.6c-0.5,0-1,0.2-1.3,0.4l-0.3-1c0.3-0.2,1-0.4,1.9-0.4c1.6,0,2.1,1,2.1,2.1v1.7c0,0.5,0,0.9,0.1,1.2H363.2z
		 M363,353.4c-0.8,0-1.4,0.2-1.4,0.8c0,0.4,0.3,0.6,0.6,0.6c0.4,0,0.7-0.2,0.8-0.6c0-0.1,0-0.2,0-0.3V353.4z"/>
	<path class="st1" d="M366,348.6h1.5v7.1H366V348.6z"/>
</g>
<g>
	<g>
		<path class="st1" d="M470.4,269.3l-0.5,1.7h-1.6l2.1-6.7h2l2.1,6.7h-1.6l-0.5-1.7H470.4z M472.2,268.2l-0.4-1.4
			c-0.1-0.4-0.2-0.9-0.3-1.3h0c-0.1,0.4-0.2,0.9-0.3,1.3l-0.4,1.4H472.2z"/>
		<path class="st1" d="M480.2,269.5c0,0.6,0,1.2,0,1.6h-1.3l-0.1-0.7h0c-0.2,0.3-0.6,0.8-1.5,0.8c-1,0-1.7-0.6-1.7-2.1v-2.9h1.5v2.6
			c0,0.7,0.2,1.1,0.8,1.1c0.4,0,0.7-0.3,0.8-0.5c0-0.1,0-0.2,0-0.3v-2.9h1.5V269.5z"/>
		<path class="st1" d="M483.4,264.8v1.4h1.1v1.1h-1.1v1.8c0,0.6,0.1,0.9,0.6,0.9c0.2,0,0.3,0,0.5,0l0,1.1c-0.2,0.1-0.6,0.1-1,0.1
			c-0.5,0-0.9-0.2-1.1-0.4c-0.3-0.3-0.4-0.8-0.4-1.4v-2h-0.6v-1.1h0.6v-1.1L483.4,264.8z"/>
		<path class="st1" d="M490.5,268.6c0,1.8-1.3,2.6-2.6,2.6c-1.4,0-2.5-0.9-2.5-2.5s1-2.6,2.6-2.6
			C489.5,266.1,490.5,267.1,490.5,268.6z M487,268.6c0,0.8,0.3,1.5,1,1.5c0.6,0,1-0.6,1-1.5c0-0.7-0.3-1.5-1-1.5
			C487.2,267.1,487,267.9,487,268.6z"/>
		<path class="st1" d="M494.3,267.9v1h-2.6v-1H494.3z"/>
		<path class="st1" d="M496.9,269.1c0.1,0.6,0.7,0.9,1.4,0.9c0.5,0,0.9-0.1,1.3-0.2l0.2,1c-0.5,0.2-1.1,0.3-1.8,0.3
			c-1.7,0-2.6-1-2.6-2.5c0-1.2,0.8-2.6,2.5-2.6c1.6,0,2.2,1.2,2.2,2.4c0,0.3,0,0.5,0,0.6H496.9z M498.7,268.1c0-0.4-0.2-1-0.9-1
			c-0.6,0-0.9,0.6-0.9,1H498.7z"/>
		<path class="st1" d="M501.4,269.7c0.3,0.2,0.9,0.4,1.3,0.4c0.5,0,0.6-0.2,0.6-0.4s-0.2-0.4-0.7-0.6c-1-0.3-1.4-0.9-1.4-1.5
			c0-0.9,0.8-1.6,2-1.6c0.6,0,1.1,0.1,1.4,0.3l-0.3,1c-0.2-0.1-0.6-0.3-1.1-0.3c-0.4,0-0.6,0.1-0.6,0.4c0,0.2,0.2,0.3,0.8,0.6
			c0.9,0.3,1.3,0.8,1.3,1.5c0,0.9-0.7,1.6-2.1,1.6c-0.6,0-1.2-0.1-1.6-0.3L501.4,269.7z"/>
		<path class="st1" d="M509.7,270.9c-0.3,0.1-0.8,0.2-1.4,0.2c-1.6,0-2.6-1-2.6-2.5c0-1.4,1-2.6,2.8-2.6c0.4,0,0.8,0.1,1.2,0.2
			l-0.2,1.1c-0.2-0.1-0.4-0.2-0.8-0.2c-0.8,0-1.3,0.6-1.3,1.4c0,0.9,0.6,1.4,1.3,1.4c0.4,0,0.6-0.1,0.9-0.1L509.7,270.9z"/>
		<path class="st1" d="M513.6,271.1l-0.1-0.5h0c-0.3,0.4-0.8,0.6-1.4,0.6c-1,0-1.6-0.7-1.6-1.5c0-1.3,1.1-1.9,2.9-1.9v-0.1
			c0-0.3-0.1-0.6-0.9-0.6c-0.5,0-1,0.2-1.3,0.4l-0.3-1c0.3-0.2,1-0.4,1.9-0.4c1.6,0,2.1,1,2.1,2.1v1.7c0,0.5,0,0.9,0.1,1.2H513.6z
			 M513.4,268.8c-0.8,0-1.4,0.2-1.4,0.8c0,0.4,0.3,0.6,0.6,0.6c0.4,0,0.7-0.2,0.8-0.6c0-0.1,0-0.2,0-0.3V268.8z"/>
		<path class="st1" d="M516.4,267.7c0-0.6,0-1.1,0-1.6h1.3l0.1,0.7h0c0.2-0.3,0.7-0.8,1.5-0.8c1,0,1.7,0.7,1.7,2.1v2.9h-1.5v-2.7
			c0-0.6-0.2-1.1-0.8-1.1c-0.4,0-0.7,0.3-0.8,0.6c0,0.1-0.1,0.2-0.1,0.4v2.8h-1.5V267.7z"/>
		<path class="st1" d="M523.8,269.1c0.1,0.6,0.7,0.9,1.4,0.9c0.5,0,0.9-0.1,1.3-0.2l0.2,1c-0.5,0.2-1.1,0.3-1.8,0.3
			c-1.7,0-2.6-1-2.6-2.5c0-1.2,0.8-2.6,2.5-2.6c1.6,0,2.2,1.2,2.2,2.4c0,0.3,0,0.5,0,0.6H523.8z M525.5,268.1c0-0.4-0.2-1-0.9-1
			c-0.6,0-0.9,0.6-0.9,1H525.5z"/>
		<path class="st1" d="M533.1,268.6c0,1.8-1.3,2.6-2.6,2.6c-1.4,0-2.5-0.9-2.5-2.5s1-2.6,2.6-2.6
			C532.1,266.1,533.1,267.1,533.1,268.6z M529.5,268.6c0,0.8,0.3,1.5,1,1.5c0.6,0,1-0.6,1-1.5c0-0.7-0.3-1.5-1-1.5
			C529.8,267.1,529.5,267.9,529.5,268.6z"/>
		<path class="st1" d="M470.4,281l-0.5,1.7h-1.6l2.1-6.7h2l2.1,6.7h-1.6l-0.5-1.7H470.4z M472.2,279.9l-0.4-1.4
			c-0.1-0.4-0.2-0.9-0.3-1.3h0c-0.1,0.4-0.2,0.9-0.3,1.3l-0.4,1.4H472.2z"/>
		<path class="st1" d="M480.2,281.2c0,0.6,0,1.2,0,1.6h-1.3l-0.1-0.7h0c-0.2,0.3-0.6,0.8-1.5,0.8c-1,0-1.7-0.6-1.7-2.1v-2.9h1.5v2.6
			c0,0.7,0.2,1.1,0.8,1.1c0.4,0,0.7-0.3,0.8-0.5c0-0.1,0-0.2,0-0.3v-2.9h1.5V281.2z"/>
		<path class="st1" d="M483.4,276.5v1.4h1.1v1.1h-1.1v1.8c0,0.6,0.1,0.9,0.6,0.9c0.2,0,0.3,0,0.5,0l0,1.1c-0.2,0.1-0.6,0.1-1,0.1
			c-0.5,0-0.9-0.2-1.1-0.4c-0.3-0.3-0.4-0.8-0.4-1.4v-2h-0.6v-1.1h0.6v-1.1L483.4,276.5z"/>
		<path class="st1" d="M490.5,280.2c0,1.8-1.3,2.6-2.6,2.6c-1.4,0-2.5-0.9-2.5-2.5s1-2.6,2.6-2.6
			C489.5,277.7,490.5,278.8,490.5,280.2z M487,280.3c0,0.8,0.3,1.5,1,1.5c0.6,0,1-0.6,1-1.5c0-0.7-0.3-1.5-1-1.5
			C487.2,278.8,487,279.6,487,280.3z"/>
		<path class="st1" d="M494.3,279.6v1h-2.6v-1H494.3z"/>
		<path class="st1" d="M499.4,282.6c-0.3,0.1-0.8,0.2-1.4,0.2c-1.6,0-2.6-1-2.6-2.5c0-1.4,1-2.6,2.8-2.6c0.4,0,0.8,0.1,1.2,0.2
			l-0.2,1.1c-0.2-0.1-0.5-0.1-0.8-0.1c-0.8,0-1.3,0.6-1.3,1.4c0,0.9,0.6,1.4,1.3,1.4c0.4,0,0.6-0.1,0.9-0.1L499.4,282.6z"/>
		<path class="st1" d="M505.3,280.2c0,1.8-1.3,2.6-2.6,2.6c-1.4,0-2.5-0.9-2.5-2.5s1-2.6,2.6-2.6
			C504.3,277.7,505.3,278.8,505.3,280.2z M501.8,280.3c0,0.8,0.3,1.5,1,1.5c0.6,0,1-0.6,1-1.5c0-0.7-0.3-1.5-1-1.5
			C502.1,278.8,501.8,279.6,501.8,280.3z"/>
		<path class="st1" d="M506.5,282.7c0-0.3,0-0.9,0-1.5v-5.6h1.5v2.8h0c0.3-0.4,0.8-0.7,1.5-0.7c1.2,0,2,1,2,2.5
			c0,1.8-1.1,2.6-2.2,2.6c-0.6,0-1.1-0.2-1.5-0.8h0l-0.1,0.7H506.5z M508.1,280.7c0,0.1,0,0.2,0,0.3c0.1,0.4,0.5,0.7,0.9,0.7
			c0.6,0,1-0.5,1-1.4c0-0.8-0.3-1.4-1-1.4c-0.4,0-0.8,0.3-0.9,0.7c0,0.1,0,0.2,0,0.3V280.7z"/>
		<path class="st1" d="M512.9,279.5c0-0.7,0-1.2,0-1.6h1.3l0,0.9h0c0.2-0.7,0.8-1,1.3-1c0.1,0,0.2,0,0.3,0v1.4c-0.1,0-0.2,0-0.4,0
			c-0.6,0-0.9,0.3-1,0.8c0,0.1,0,0.2,0,0.3v2.5h-1.5V279.5z"/>
		<path class="st1" d="M521.8,280.2c0,1.8-1.3,2.6-2.6,2.6c-1.4,0-2.5-0.9-2.5-2.5s1-2.6,2.6-2.6
			C520.8,277.7,521.8,278.8,521.8,280.2z M518.3,280.3c0,0.8,0.3,1.5,1,1.5c0.6,0,1-0.6,1-1.5c0-0.7-0.3-1.5-1-1.5
			C518.6,278.8,518.3,279.6,518.3,280.3z"/>
	</g>
</g>
<g>
	<g>
		<path class="st1" d="M565,268.5c0-0.8-0.1-1.8-0.1-2.8h0c-0.2,0.9-0.5,1.8-0.8,2.6l-0.8,2.6h-1.2l-0.7-2.6
			c-0.2-0.8-0.4-1.7-0.6-2.6h0c0,0.9-0.1,1.9-0.1,2.8l-0.1,2.6h-1.4l0.4-6.7h2l0.7,2.2c0.2,0.8,0.4,1.6,0.6,2.4h0
			c0.2-0.8,0.4-1.7,0.6-2.4l0.7-2.2h2l0.4,6.7h-1.5L565,268.5z"/>
		<path class="st1" d="M572.9,268.6c0,1.8-1.3,2.6-2.6,2.6c-1.4,0-2.5-0.9-2.5-2.5s1-2.6,2.6-2.6
			C571.9,266.1,572.9,267.1,572.9,268.6z M569.4,268.6c0,0.8,0.3,1.5,1,1.5c0.6,0,1-0.6,1-1.5c0-0.7-0.3-1.5-1-1.5
			C569.6,267.1,569.4,267.9,569.4,268.6z M571.9,264l-1.2,1.5h-1l0.9-1.5H571.9z"/>
		<path class="st1" d="M578.9,264v5.6c0,0.5,0,1.1,0,1.5h-1.3l-0.1-0.7h0c-0.3,0.5-0.9,0.8-1.5,0.8c-1.2,0-2.1-1-2.1-2.5
			c0-1.6,1-2.6,2.2-2.6c0.6,0,1.1,0.2,1.3,0.5h0V264H578.9z M577.4,268.2c0-0.1,0-0.2,0-0.3c-0.1-0.4-0.4-0.7-0.9-0.7
			c-0.7,0-1,0.6-1,1.4c0,0.8,0.4,1.3,1,1.3c0.4,0,0.8-0.3,0.9-0.7c0-0.1,0-0.2,0-0.3V268.2z"/>
		<path class="st1" d="M585.1,269.5c0,0.6,0,1.2,0,1.6h-1.3l-0.1-0.7h0c-0.2,0.3-0.6,0.8-1.5,0.8c-1,0-1.7-0.6-1.7-2.1v-2.9h1.5v2.6
			c0,0.7,0.2,1.1,0.8,1.1c0.4,0,0.7-0.3,0.8-0.5c0-0.1,0-0.2,0-0.3v-2.9h1.5V269.5z"/>
		<path class="st1" d="M586.6,264h1.5v7.1h-1.5V264z"/>
		<path class="st1" d="M594.5,268.6c0,1.8-1.3,2.6-2.6,2.6c-1.4,0-2.5-0.9-2.5-2.5s1-2.6,2.6-2.6
			C593.5,266.1,594.5,267.1,594.5,268.6z M591,268.6c0,0.8,0.3,1.5,1,1.5c0.6,0,1-0.6,1-1.5c0-0.7-0.3-1.5-1-1.5
			C591.2,267.1,591,267.9,591,268.6z"/>
		<path class="st1" d="M562.9,282.5c-0.6,0.3-1.3,0.4-1.8,0.4c-1.4,0-2.1-0.8-2.1-2.1c0-1.5,1.1-3,2.8-3c1,0,1.7,0.5,1.7,1.5
			c0,1.2-1.2,1.7-3.2,1.6c0,0.1,0,0.4,0.1,0.5c0.2,0.2,0.5,0.4,0.9,0.4c0.5,0,1-0.1,1.4-0.3L562.9,282.5z M561.6,278.8
			c-0.7,0-1,0.5-1.1,1c1.1,0,1.7-0.1,1.7-0.6C562.2,279,562,278.8,561.6,278.8z"/>
		<path class="st1" d="M569.3,282.5c-0.4,0.2-1,0.3-1.8,0.3c-1.8,0-3-1.1-3-2.9c0-1.5,0.7-2.7,1.7-3.4c0.7-0.5,1.5-0.7,2.5-0.7
			c0.7,0,1.3,0.2,1.5,0.3l-0.4,1.2c-0.2-0.1-0.6-0.2-1.2-0.2c-0.6,0-1.1,0.2-1.5,0.5c-0.6,0.5-0.9,1.2-0.9,2.2
			c0,1.1,0.6,1.8,1.8,1.8c0.5,0,0.9-0.1,1.3-0.2L569.3,282.5z"/>
		<path class="st1" d="M575.3,279.8c0,1.8-1.2,3.1-2.9,3.1c-1.2,0-2.1-0.8-2.1-2c0-1.7,1.2-3.1,2.9-3.1
			C574.5,277.7,575.3,278.6,575.3,279.8z M571.8,280.8c0,0.6,0.3,0.9,0.8,0.9c0.8,0,1.2-1.1,1.2-2c0-0.5-0.2-0.9-0.8-0.9
			C572.2,278.8,571.8,280,571.8,280.8z"/>
		<path class="st1" d="M576,282.7l0.6-3.3c0.1-0.6,0.2-1.2,0.2-1.6h1.2l-0.1,0.8h0c0.4-0.6,1-0.9,1.7-0.9c0.8,0,1.1,0.5,1.2,0.9
			c0.4-0.6,1-0.9,1.7-0.9c0.8,0,1.2,0.5,1.2,1.3c0,0.2,0,0.6-0.1,0.8l-0.5,2.8h-1.4l0.5-2.7c0-0.2,0.1-0.4,0.1-0.6
			c0-0.3-0.2-0.6-0.5-0.6c-0.5,0-0.9,0.6-1.1,1.6l-0.4,2.2h-1.4l0.5-2.7c0-0.2,0.1-0.4,0.1-0.6c0-0.3-0.1-0.6-0.5-0.6
			c-0.5,0-1,0.7-1.2,1.6l-0.4,2.2H576z"/>
		<path class="st1" d="M584.7,282.7l0.6-3.3c0.1-0.6,0.2-1.2,0.2-1.6h1.2l-0.1,0.8h0c0.4-0.6,1-0.9,1.7-0.9c0.8,0,1.1,0.5,1.2,0.9
			c0.4-0.6,1-0.9,1.7-0.9c0.8,0,1.2,0.5,1.2,1.3c0,0.2,0,0.6-0.1,0.8l-0.5,2.8h-1.4l0.5-2.7c0-0.2,0.1-0.4,0.1-0.6
			c0-0.3-0.1-0.6-0.5-0.6c-0.5,0-1,0.6-1.1,1.6l-0.4,2.2h-1.4l0.5-2.7c0-0.2,0.1-0.4,0.1-0.6c0-0.3-0.1-0.6-0.5-0.6
			c-0.5,0-1,0.7-1.2,1.6l-0.4,2.2H584.7z"/>
		<path class="st1" d="M597.4,282.5c-0.6,0.3-1.3,0.4-1.8,0.4c-1.4,0-2.1-0.8-2.1-2.1c0-1.5,1.1-3,2.8-3c1,0,1.7,0.5,1.7,1.5
			c0,1.2-1.2,1.7-3.2,1.6c0,0.1,0,0.4,0.2,0.5c0.2,0.2,0.5,0.4,0.9,0.4c0.5,0,1-0.1,1.4-0.3L597.4,282.5z M596.2,278.8
			c-0.7,0-1,0.5-1.1,1c1.1,0,1.7-0.1,1.7-0.6C596.7,279,596.5,278.8,596.2,278.8z"/>
		<path class="st1" d="M598.7,282.7l0.5-2.9c0.1-0.7,0.2-1.6,0.2-2h1.2c0,0.3-0.1,0.7-0.1,1h0c0.3-0.6,0.9-1.1,1.6-1.1
			c0.1,0,0.2,0,0.3,0l-0.3,1.4c-0.1,0-0.2,0-0.2,0c-0.9,0-1.3,0.8-1.5,1.8l-0.3,1.8H598.7z"/>
		<path class="st1" d="M606.3,282.6c-0.3,0.1-0.8,0.2-1.4,0.2c-1.2,0-2.1-0.7-2.1-2c0-1.7,1.3-3.1,3.2-3.1c0.4,0,0.8,0.1,1,0.2
			l-0.4,1.1c-0.2-0.1-0.4-0.1-0.7-0.1c-1,0-1.7,0.9-1.7,1.8c0,0.7,0.4,1,1,1c0.4,0,0.7-0.1,1-0.2L606.3,282.6z"/>
		<path class="st1" d="M611.4,282.5c-0.6,0.3-1.3,0.4-1.8,0.4c-1.4,0-2.1-0.8-2.1-2.1c0-1.5,1.1-3,2.8-3c1,0,1.7,0.5,1.7,1.5
			c0,1.2-1.2,1.7-3.2,1.6c0,0.1,0,0.4,0.1,0.5c0.2,0.2,0.5,0.4,0.9,0.4c0.5,0,1-0.1,1.4-0.3L611.4,282.5z M610.1,278.8
			c-0.7,0-1,0.5-1.1,1c1.1,0,1.7-0.1,1.7-0.6C610.7,279,610.5,278.8,610.1,278.8z"/>
	</g>
</g>
<g>
	<g>
		<path class="st1" d="M435.6,140.6c-1-0.3-1.8-0.6-2.7-0.9c-0.1-0.1-0.3-0.1-0.5-0.1c-1.5-0.1-2.9-1.2-2.9-3.4c0-2,1.3-3.5,3.3-3.5
			c2.1,0,3.2,1.6,3.2,3.4c0,1.5-0.7,2.6-1.6,3v0c0.5,0.1,1.1,0.3,1.6,0.4L435.6,140.6z M434.4,136c0-1.2-0.6-2.2-1.6-2.2
			c-1,0-1.6,1-1.6,2.3c0,1.3,0.6,2.3,1.6,2.3C433.8,138.3,434.4,137.3,434.4,136z"/>
		<path class="st1" d="M442,137.8c0,0.6,0,1.2,0,1.6h-1.3l-0.1-0.7h0c-0.2,0.3-0.6,0.8-1.5,0.8c-1,0-1.7-0.6-1.7-2.1v-2.9h1.5v2.6
			c0,0.7,0.2,1.1,0.8,1.1c0.4,0,0.7-0.3,0.8-0.5c0-0.1,0-0.2,0-0.3v-2.9h1.5V137.8z"/>
		<path class="st1" d="M445.1,133.2c0,0.4-0.3,0.8-0.8,0.8c-0.5,0-0.8-0.3-0.8-0.8c0-0.4,0.3-0.8,0.8-0.8
			C444.8,132.4,445.1,132.7,445.1,133.2z M443.5,139.4v-4.9h1.5v4.9H443.5z"/>
		<path class="st1" d="M451.4,136.9c0,1.8-1.3,2.6-2.6,2.6c-1.4,0-2.5-0.9-2.5-2.5s1-2.6,2.6-2.6
			C450.4,134.4,451.4,135.4,451.4,136.9z M447.8,137c0,0.8,0.3,1.5,1,1.5c0.6,0,1-0.6,1-1.5c0-0.7-0.3-1.5-1-1.5
			C448.1,135.5,447.8,136.2,447.8,137z"/>
		<path class="st1" d="M452.6,138.1c0.3,0.2,0.9,0.4,1.3,0.4c0.5,0,0.6-0.2,0.6-0.4s-0.2-0.4-0.7-0.6c-1-0.3-1.4-0.9-1.4-1.5
			c0-0.9,0.8-1.6,2-1.6c0.6,0,1.1,0.1,1.4,0.3l-0.3,1c-0.2-0.1-0.6-0.3-1.1-0.3c-0.4,0-0.6,0.1-0.6,0.4c0,0.2,0.2,0.3,0.8,0.6
			c0.9,0.3,1.3,0.8,1.3,1.5c0,0.9-0.7,1.6-2.1,1.6c-0.6,0-1.2-0.1-1.6-0.3L452.6,138.1z"/>
		<path class="st1" d="M460.9,139.3c-0.3,0.1-0.8,0.2-1.4,0.2c-1.6,0-2.6-1-2.6-2.5c0-1.4,1-2.6,2.8-2.6c0.4,0,0.8,0.1,1.2,0.2
			l-0.2,1.1c-0.2-0.1-0.4-0.1-0.8-0.1c-0.8,0-1.3,0.6-1.3,1.4c0,0.9,0.6,1.4,1.3,1.4c0.4,0,0.6-0.1,0.9-0.2L460.9,139.3z"/>
		<path class="st1" d="M466.8,136.9c0,1.8-1.3,2.6-2.6,2.6c-1.4,0-2.5-0.9-2.5-2.5s1-2.6,2.6-2.6
			C465.8,134.4,466.8,135.4,466.8,136.9z M463.3,137c0,0.8,0.3,1.5,1,1.5c0.6,0,1-0.6,1-1.5c0-0.7-0.3-1.5-1-1.5
			C463.6,135.5,463.3,136.2,463.3,137z"/>
		<path class="st1" d="M433.4,150.8c-0.6,0.3-1.3,0.4-1.8,0.4c-1.4,0-2.1-0.8-2.1-2.1c0-1.5,1.1-3,2.8-3c1,0,1.7,0.5,1.7,1.5
			c0,1.2-1.2,1.7-3.2,1.6c0,0.1,0,0.4,0.2,0.5c0.2,0.2,0.5,0.4,0.9,0.4c0.5,0,1-0.1,1.4-0.3L433.4,150.8z M432.2,147.1
			c-0.7,0-1,0.5-1.1,1c1.1,0,1.7-0.1,1.7-0.6C432.7,147.3,432.5,147.1,432.2,147.1z"/>
		<path class="st1" d="M439.8,150.9c-0.4,0.2-1,0.3-1.8,0.3c-1.8,0-3-1.1-3-2.9c0-1.5,0.7-2.7,1.7-3.4c0.7-0.5,1.5-0.7,2.5-0.7
			c0.7,0,1.3,0.2,1.5,0.3l-0.4,1.2c-0.2-0.1-0.6-0.2-1.2-0.2s-1.1,0.2-1.5,0.5c-0.6,0.5-0.9,1.2-0.9,2.2c0,1.1,0.6,1.8,1.8,1.8
			c0.5,0,0.9-0.1,1.3-0.2L439.8,150.9z"/>
		<path class="st1" d="M445.8,148.1c0,1.8-1.2,3.1-2.9,3.1c-1.2,0-2.1-0.8-2.1-2c0-1.7,1.2-3.1,2.9-3.1
			C445.1,146.1,445.8,147,445.8,148.1z M442.3,149.2c0,0.6,0.3,0.9,0.8,0.9c0.8,0,1.2-1.1,1.2-2c0-0.4-0.2-0.9-0.8-0.9
			C442.7,147.2,442.3,148.4,442.3,149.2z"/>
		<path class="st1" d="M446.6,151.1l0.6-3.3c0.1-0.6,0.2-1.2,0.2-1.6h1.2l-0.1,0.8h0c0.4-0.6,1-0.9,1.7-0.9c0.8,0,1.1,0.5,1.2,0.9
			c0.4-0.6,1-0.9,1.7-0.9c0.8,0,1.2,0.5,1.2,1.3c0,0.2,0,0.6-0.1,0.8l-0.5,2.8h-1.4l0.5-2.7c0-0.2,0.1-0.4,0.1-0.6
			c0-0.3-0.1-0.6-0.5-0.6c-0.5,0-1,0.6-1.1,1.6l-0.4,2.2h-1.4l0.5-2.7c0-0.2,0.1-0.4,0.1-0.6c0-0.3-0.1-0.6-0.5-0.6
			c-0.5,0-1,0.7-1.2,1.6l-0.4,2.2H446.6z"/>
		<path class="st1" d="M455.2,151.1l0.6-3.3c0.1-0.6,0.2-1.2,0.2-1.6h1.2l-0.1,0.8h0c0.4-0.6,1-0.9,1.7-0.9c0.8,0,1.1,0.5,1.2,0.9
			c0.4-0.6,1-0.9,1.7-0.9c0.8,0,1.2,0.5,1.2,1.3c0,0.2,0,0.6-0.1,0.8l-0.5,2.8H461l0.5-2.7c0-0.2,0.1-0.4,0.1-0.6
			c0-0.3-0.2-0.6-0.5-0.6c-0.5,0-0.9,0.6-1.1,1.6l-0.4,2.2h-1.4l0.5-2.7c0-0.2,0.1-0.4,0.1-0.6c0-0.3-0.1-0.6-0.5-0.6
			c-0.5,0-1,0.7-1.2,1.6l-0.4,2.2H455.2z"/>
		<path class="st1" d="M468,150.8c-0.6,0.3-1.3,0.4-1.8,0.4c-1.4,0-2.1-0.8-2.1-2.1c0-1.5,1.1-3,2.8-3c1,0,1.7,0.5,1.7,1.5
			c0,1.2-1.2,1.7-3.2,1.6c0,0.1,0,0.4,0.1,0.5c0.2,0.2,0.5,0.4,0.9,0.4c0.5,0,1-0.1,1.4-0.3L468,150.8z M466.7,147.1
			c-0.7,0-1,0.5-1.1,1c1.1,0,1.7-0.1,1.7-0.6C467.2,147.3,467,147.1,466.7,147.1z"/>
		<path class="st1" d="M469.2,151.1l0.5-2.9c0.1-0.7,0.2-1.6,0.2-2h1.2c0,0.3-0.1,0.7-0.1,1h0c0.3-0.6,0.9-1.1,1.6-1.1
			c0.1,0,0.2,0,0.3,0l-0.3,1.4c-0.1,0-0.1,0-0.2,0c-0.9,0-1.3,0.8-1.5,1.8l-0.3,1.8H469.2z"/>
		<path class="st1" d="M476.8,150.9c-0.3,0.1-0.8,0.2-1.4,0.2c-1.2,0-2.1-0.7-2.1-2c0-1.7,1.3-3.1,3.2-3.1c0.4,0,0.8,0.1,1,0.2
			l-0.3,1.1c-0.2-0.1-0.4-0.1-0.7-0.1c-1,0-1.7,0.9-1.7,1.8c0,0.7,0.4,1,1,1c0.4,0,0.7-0.1,1-0.2L476.8,150.9z"/>
		<path class="st1" d="M482,150.8c-0.6,0.3-1.3,0.4-1.8,0.4c-1.4,0-2.1-0.8-2.1-2.1c0-1.5,1.1-3,2.8-3c1,0,1.7,0.5,1.7,1.5
			c0,1.2-1.2,1.7-3.2,1.6c0,0.1,0,0.4,0.2,0.5c0.2,0.2,0.5,0.4,0.9,0.4c0.5,0,1-0.1,1.4-0.3L482,150.8z M480.7,147.1
			c-0.7,0-1,0.5-1.1,1c1.1,0,1.7-0.1,1.7-0.6C481.2,147.3,481,147.1,480.7,147.1z"/>
	</g>
</g>
<g>
	<g>
		<path class="st13" d="M39.4,380.6c0.4-0.1,1-0.1,1.9-0.1c0.8,0,1.4,0.2,1.9,0.5c0.4,0.3,0.6,0.8,0.6,1.4c0,0.6-0.2,1.1-0.6,1.4
			c-0.5,0.4-1.2,0.6-2,0.6c-0.2,0-0.3,0-0.5,0v2.2h-1.4V380.6z M40.7,383.3c0.1,0,0.3,0,0.5,0c0.7,0,1.2-0.4,1.2-1
			c0-0.6-0.4-0.9-1.1-0.9c-0.3,0-0.5,0-0.6,0.1V383.3z"/>
		<path class="st13" d="M48.9,385.2c0,0.6,0,1,0,1.4h-1.2l-0.1-0.6h0c-0.2,0.3-0.6,0.7-1.4,0.7c-0.9,0-1.5-0.6-1.5-1.9v-2.6h1.4v2.4
			c0,0.6,0.2,1,0.7,1c0.4,0,0.6-0.3,0.7-0.5c0-0.1,0-0.2,0-0.3v-2.6h1.4V385.2z"/>
		<path class="st13" d="M50.4,383.6c0-0.5,0-1,0-1.4h1.2l0.1,0.6h0c0.2-0.3,0.6-0.7,1.4-0.7c0.9,0,1.6,0.6,1.6,1.9v2.6h-1.4v-2.4
			c0-0.6-0.2-1-0.7-1c-0.4,0-0.6,0.3-0.7,0.5c0,0.1-0.1,0.2-0.1,0.3v2.5h-1.4V383.6z"/>
		<path class="st13" d="M57.4,380.9v1.3h1v1h-1v1.6c0,0.5,0.1,0.8,0.5,0.8c0.2,0,0.3,0,0.4,0l0,1c-0.2,0.1-0.5,0.1-0.9,0.1
			c-0.4,0-0.8-0.2-1-0.4c-0.3-0.3-0.4-0.7-0.4-1.3v-1.8h-0.6v-1h0.6v-1L57.4,380.9z"/>
		<path class="st13" d="M63.8,384.3c0,1.6-1.1,2.3-2.3,2.3c-1.3,0-2.3-0.8-2.3-2.3c0-1.4,0.9-2.3,2.3-2.3
			C62.9,382.1,63.8,383,63.8,384.3z M60.7,384.4c0,0.8,0.3,1.3,0.9,1.3c0.5,0,0.9-0.5,0.9-1.3c0-0.7-0.3-1.3-0.9-1.3
			C60.9,383,60.7,383.7,60.7,384.4z"/>
		<path class="st13" d="M38.5,399.2l0.8-4.5c0.1-0.5,0.2-1.3,0.3-1.7h1.2l-0.1,0.6h0c0.4-0.5,0.9-0.7,1.4-0.7c1,0,1.4,0.8,1.4,1.7
			c0,1.5-1,2.9-2.5,2.9c-0.4,0-0.7-0.1-0.8-0.2h0l-0.4,1.9H38.5z M40.4,396.3c0.1,0.1,0.3,0.2,0.6,0.2c0.7,0,1.2-1,1.2-1.9
			c0-0.4-0.1-0.7-0.6-0.7c-0.5,0-0.9,0.5-1.1,1.4L40.4,396.3z"/>
		<path class="st13" d="M44.3,397.4l0.8-4.4h1.3l-0.8,4.4H44.3z M45.3,391.8c0-0.4,0.4-0.7,0.7-0.7c0.4,0,0.6,0.3,0.6,0.6
			c0,0.5-0.4,0.7-0.8,0.7C45.6,392.4,45.3,392.2,45.3,391.8z"/>
		<path class="st13" d="M50.2,397.2c-0.3,0.1-0.7,0.2-1.3,0.2c-1.1,0-1.9-0.7-1.9-1.8c0-1.6,1.2-2.8,2.9-2.8c0.4,0,0.7,0.1,0.9,0.2
			l-0.3,1c-0.2-0.1-0.3-0.1-0.6-0.1c-0.9,0-1.5,0.8-1.5,1.6c0,0.6,0.4,0.9,0.9,0.9c0.4,0,0.6-0.1,0.9-0.2L50.2,397.2z"/>
		<path class="st13" d="M51.2,397.4l1.2-6.4h1.3l-0.7,3.8h0c0.1-0.2,0.3-0.3,0.4-0.5l1.1-1.3h1.6l-1.9,1.8l1.2,2.6H54l-0.8-1.9
			l-0.5,0.5l-0.3,1.4H51.2z"/>
		<path class="st13" d="M61,393l-0.6,3c-0.1,0.6-0.2,1-0.2,1.4h-1.1l0.1-0.7h0c-0.5,0.6-1,0.8-1.5,0.8c-0.7,0-1.1-0.4-1.1-1.2
			c0-0.2,0-0.5,0.1-0.8l0.5-2.5h1.3l-0.4,2.4c0,0.2-0.1,0.4-0.1,0.6c0,0.3,0.1,0.5,0.4,0.5c0.4,0,0.9-0.5,1.1-1.4l0.4-2H61z"/>
		<path class="st13" d="M61.3,399.2l0.8-4.5c0.1-0.5,0.2-1.3,0.3-1.7h1.2l-0.1,0.6h0c0.4-0.5,0.9-0.7,1.4-0.7c1,0,1.4,0.8,1.4,1.7
			c0,1.5-1,2.9-2.5,2.9c-0.4,0-0.7-0.1-0.8-0.2h0l-0.4,1.9H61.3z M63.2,396.3c0.1,0.1,0.3,0.2,0.6,0.2c0.7,0,1.2-1,1.2-1.9
			c0-0.4-0.1-0.7-0.6-0.7c-0.5,0-0.9,0.5-1.1,1.4L63.2,396.3z"/>
	</g>
</g>
</svg>
