<svg xmlns="http://www.w3.org/2000/svg" viewBox="0 0 66.17 66.17"><defs><style>.cls-1{fill:#e01a83;}.cls-2{fill:#fff;}</style></defs><title>Asset 8</title><g id="Layer_2" data-name="Layer 2"><g id="Layer_1-2" data-name="Layer 1"><rect class="cls-1" width="66.17" height="66.17"/><polygon class="cls-2" points="5.17 8.67 5.17 18.89 7.41 18.89 7.41 5.54 5.62 5.54 3.55 7.96 3.55 10.31 3.57 10.31 5.15 8.67 5.17 8.67"/><path class="cls-2" d="M11.21,15.8V8.63c0-.81.3-1.38,1.07-1.38s1.08.57,1.08,1.38V15.8c0,.81-.29,1.38-1.08,1.38s-1.07-.57-1.07-1.38m4.4-.35V9c0-2.09-1-3.61-3.33-3.61S9,6.9,9,9v6.46c0,2.07,1,3.6,3.31,3.6s3.33-1.53,3.33-3.6"/><path class="cls-2" d="M20.75,6.55V8.29h.32a.4.4,0,0,0,.46-.46V7c0-.3-.14-.45-.46-.45Zm0,2.26v2.58h-.94V5.78h1.37c1,0,1.3.47,1.3,1.26v.72c0,.6-.21,1-.75,1.08l.9,2.55h-1Z"/><polygon class="cls-2" points="22.99 5.78 25.24 5.78 25.24 6.55 23.94 6.55 23.94 8.15 24.87 8.15 24.87 8.91 23.94 8.91 23.94 10.62 25.24 10.62 25.24 11.39 22.99 11.39 22.99 5.78"/><path class="cls-2" d="M27.09,10.62c.39,0,.53-.23.53-.57V7.11c0-.33-.14-.56-.53-.56h-.4v4.07Zm1.48-3.34v2.6c0,.86-.36,1.51-1.37,1.51H25.75V5.78H27.2c1,0,1.37.64,1.37,1.5"/><path class="cls-2" d="M31.84,5.78V10c0,.87-.37,1.43-1.33,1.43A1.27,1.27,0,0,1,29.1,10V5.78h.95v4.33c0,.33.13.56.46.56s.46-.23.46-.56V5.78Z"/><path class="cls-2" d="M32.38,9.94V7.23c0-.88.41-1.52,1.4-1.52s1.33.58,1.33,1.41v.66h-.86V7c0-.34-.11-.54-.45-.54s-.48.24-.48.58v3c0,.34.14.58.48.58s.45-.22.45-.55v-1h.86v1c0,.8-.33,1.39-1.33,1.39a1.32,1.32,0,0,1-1.4-1.51"/><path class="cls-2" d="M35.63,9.94V7.23c0-.88.41-1.52,1.4-1.52s1.33.58,1.33,1.41v.66H37.5V7c0-.34-.11-.54-.45-.54s-.48.24-.48.58v3c0,.34.14.58.48.58s.45-.22.45-.55v-1h.86v1c0,.8-.33,1.39-1.33,1.39a1.32,1.32,0,0,1-1.4-1.51"/><rect class="cls-2" x="38.87" y="5.78" width="0.94" height="5.61"/><path class="cls-2" d="M42.27,10.09v-3c0-.34-.15-.58-.48-.58s-.48.24-.48.58v3c0,.34.14.58.48.58s.48-.24.48-.58m.28-4.71-1.48.19V5l1.48-.31ZM40.36,9.94V7.23a1.43,1.43,0,1,1,2.86,0V9.94a1.43,1.43,0,1,1-2.86,0"/><polygon class="cls-2" points="44.55 7.86 44.55 11.39 43.75 11.39 43.75 5.78 44.68 5.78 45.7 9 45.7 5.78 46.48 5.78 46.48 11.39 45.65 11.39 44.55 7.86"/><path class="cls-2" d="M49.23,10.62c.38,0,.53-.23.53-.57V7.11c0-.33-.15-.56-.53-.56h-.4v4.07Zm1.48-3.34v2.6c0,.86-.36,1.51-1.37,1.51H47.89V5.78h1.45c1,0,1.37.64,1.37,1.5"/><polygon class="cls-2" points="51.24 5.78 53.49 5.78 53.49 6.55 52.18 6.55 52.18 8.15 53.12 8.15 53.12 8.91 52.18 8.91 52.18 10.62 53.49 10.62 53.49 11.39 51.24 11.39 51.24 5.78"/><polygon class="cls-2" points="54.86 5.78 55.8 5.78 55.8 10.62 56.93 10.62 56.93 11.39 54.86 11.39 54.86 5.78"/><path class="cls-2" d="M58.39,9.61h.76l-.38-2.25h0Zm-1.18,1.78,1.06-5.61h1.07l1.07,5.61h-1l-.17-1h-1l-.17,1Z"/><path class="cls-2" d="M60.67,10.18V9.43h.87v.77c0,.31.14.49.47.49s.43-.2.43-.49V10A1,1,0,0,0,62,9.19l-.55-.56a1.88,1.88,0,0,1-.79-1.49V7A1.18,1.18,0,0,1,62,5.71c.94,0,1.31.47,1.31,1.28v.45h-.86V7c0-.32-.15-.48-.44-.48a.42.42,0,0,0-.45.47v.11c0,.32.17.5.45.76l.6.6a1.88,1.88,0,0,1,.76,1.46v.27A1.21,1.21,0,0,1,62,11.45a1.16,1.16,0,0,1-1.33-1.27"/><path class="cls-2" d="M21.15,18.47c.39,0,.54-.23.54-.57V15a.49.49,0,0,0-.54-.56h-.4v4.07Zm1.48-3.33v2.59c0,.86-.35,1.51-1.36,1.51H19.81V13.63h1.46c1,0,1.36.64,1.36,1.51"/><polygon class="cls-2" points="23.17 13.63 25.42 13.63 25.42 14.4 24.11 14.4 24.11 16.01 25.05 16.01 25.05 16.77 24.11 16.77 24.11 18.47 25.42 18.47 25.42 19.24 23.17 19.24 23.17 13.63"/><path class="cls-2" d="M25.83,18v-.75h.88v.77c0,.31.14.49.46.49s.43-.19.43-.49v-.22a1,1,0,0,0-.42-.79l-.56-.55a1.92,1.92,0,0,1-.78-1.5V14.8a1.16,1.16,0,0,1,1.32-1.23c.94,0,1.32.46,1.32,1.27v.45h-.86v-.48c0-.33-.15-.48-.45-.48a.41.41,0,0,0-.45.46v.12c0,.31.18.49.45.76l.6.59a1.87,1.87,0,0,1,.76,1.46V18a1.21,1.21,0,0,1-1.37,1.32A1.17,1.17,0,0,1,25.83,18"/><rect class="cls-2" x="29.03" y="13.63" width="0.94" height="5.61"/><path class="cls-2" d="M31.94,16.25h1.34v3H32.6v-.61a.85.85,0,0,1-.9.68c-.81,0-1.18-.65-1.18-1.52V15.08a1.32,1.32,0,0,1,1.41-1.51c1,0,1.35.57,1.35,1.4v.5h-.86V14.9c0-.35-.13-.55-.47-.55s-.49.24-.49.58v3c0,.34.14.58.46.58s.47-.17.47-.54V17h-.45Z"/><path class="cls-2" d="M36.55,13.63v4.25c0,.86-.37,1.43-1.33,1.43a1.27,1.27,0,0,1-1.41-1.43V13.63h.95V18c0,.33.13.55.46.55s.46-.22.46-.55V13.63Z"/><path class="cls-2" d="M38,17.46h.75l-.37-2.25h0Zm-1.18,1.78,1-5.61H39L40,19.24h-1l-.17-1h-1l-.16,1Z"/><polygon class="cls-2" points="40.4 13.63 41.35 13.63 41.35 18.47 42.47 18.47 42.47 19.24 40.4 19.24 40.4 13.63"/><path class="cls-2" d="M44.24,18.47c.39,0,.54-.23.54-.57V15a.49.49,0,0,0-.54-.56h-.4v4.07Zm1.48-3.33v2.59c0,.86-.36,1.51-1.37,1.51H42.9V13.63h1.45c1,0,1.37.64,1.37,1.51"/><path class="cls-2" d="M47.17,17.46h.75l-.37-2.25h0ZM46,19.24,47,13.63h1.08l1.06,5.61h-1l-.18-1H47l-.16,1Z"/><path class="cls-2" d="M50.91,18.47c.39,0,.54-.23.54-.57V15a.49.49,0,0,0-.54-.56h-.4v4.07Zm1.48-3.33v2.59c0,.86-.35,1.51-1.36,1.51H49.57V13.63H51c1,0,1.36.64,1.36,1.51"/><polygon class="cls-2" points="52.93 13.63 55.18 13.63 55.18 14.4 53.87 14.4 53.87 16.01 54.8 16.01 54.8 16.77 53.87 16.77 53.87 18.47 55.18 18.47 55.18 19.24 52.93 19.24 52.93 13.63"/><path class="cls-2" d="M55.59,18v-.75h.87v.77a.43.43,0,0,0,.47.49c.3,0,.43-.19.43-.49v-.22a1,1,0,0,0-.42-.79l-.56-.55A1.89,1.89,0,0,1,55.6,15V14.8a1.16,1.16,0,0,1,1.32-1.23c.94,0,1.32.46,1.32,1.27v.45h-.86v-.48c0-.33-.15-.48-.45-.48a.41.41,0,0,0-.45.46v.12c0,.31.18.49.45.76l.6.59a1.9,1.9,0,0,1,.76,1.46V18a1.21,1.21,0,0,1-1.37,1.32A1.17,1.17,0,0,1,55.59,18"/><path class="cls-2" d="M39,43.51H26.78a.14.14,0,0,0-.13.15v3.68a.14.14,0,0,0,.13.15H39a.15.15,0,0,0,.14-.15V43.66a.14.14,0,0,0-.14-.15"/><path class="cls-2" d="M39,35.66H26.78a.14.14,0,0,0-.13.15V39.5a.14.14,0,0,0,.13.15H39a.15.15,0,0,0,.14-.15V35.81a.15.15,0,0,0-.14-.15"/><path class="cls-2" d="M38.87,30.09,33,24.21a.11.11,0,0,0-.15,0L27,30.09a.1.1,0,0,0,.07.18H38.8a.1.1,0,0,0,.07-.18"/><path class="cls-2" d="M44.4,47.54l5.88-5.89a.1.1,0,0,0,0-.14L44.4,35.62a.11.11,0,0,0-.18.07V47.46a.11.11,0,0,0,.18.08"/><path class="cls-2" d="M27,53.06,32.84,59A.11.11,0,0,0,33,59l5.88-5.89a.1.1,0,0,0-.07-.17H27a.1.1,0,0,0-.07.17"/><path class="cls-2" d="M21.43,35.62l-5.89,5.89a.1.1,0,0,0,0,.14l5.89,5.89a.1.1,0,0,0,.17-.08V35.69a.1.1,0,0,0-.17-.07"/></g></g></svg>