<svg xmlns="http://www.w3.org/2000/svg" viewBox="0 0 66.17 66.17"><defs><style>.cls-1{fill:#ef412a;}.cls-2{fill:#fff;}</style></defs><title>Asset 13</title><g id="Layer_2" data-name="Layer 2"><g id="Layer_1-2" data-name="Layer 1"><rect class="cls-1" width="66.17" height="66.17"/><path class="cls-2" d="M33,48a7.93,7.93,0,1,1,7.93-7.93A7.93,7.93,0,0,1,33,48M48.2,25H40a.11.11,0,0,0-.11.1v2.74A.11.11,0,0,0,40,28h3.27l-3.63,3.64a10.77,10.77,0,1,0-8,19.15v3.15H28.34a.1.1,0,0,0-.11.1V57a.1.1,0,0,0,.11.1h3.24v3.1a.11.11,0,0,0,.11.11h2.93a.11.11,0,0,0,.1-.11v-3.1H38a.1.1,0,0,0,.1-.1V54a.1.1,0,0,0-.1-.1H34.72v-3.2a10.76,10.76,0,0,0,7.06-16.83l3.58-3.58v3.06a.1.1,0,0,0,.11.1H48.2a.1.1,0,0,0,.11-.1V25.14a.11.11,0,0,0-.11-.1"/><path class="cls-2" d="M37.82,36.83H28.2a.1.1,0,0,0-.1.1v2.33a.09.09,0,0,0,.1.09h9.62a.09.09,0,0,0,.1-.09V36.93a.1.1,0,0,0-.1-.1"/><path class="cls-2" d="M37.82,41H28.2a.1.1,0,0,0-.1.1v2.33a.09.09,0,0,0,.1.09h9.62a.09.09,0,0,0,.1-.09V41.09a.1.1,0,0,0-.1-.1"/><path class="cls-2" d="M11,9.77a2,2,0,0,0-1.89.92h0V7.37h3.86V5.54H7v7.52H9.08v-.3c0-.79.35-1.22,1-1.22s1,.47,1,1.2V16c0,.71-.26,1.2-.95,1.2s-1-.51-1-1.3V14.2H7v1.51c0,2,.81,3.33,3.09,3.33s3.19-1.2,3.19-3V12.72c0-2.1-1.08-3-2.28-3"/><rect class="cls-2" x="19.84" y="5.6" width="0.94" height="5.61"/><path class="cls-2" d="M22.75,8.22h1.34v3h-.67V10.6a.86.86,0,0,1-.91.68c-.81,0-1.18-.65-1.18-1.52V7.05a1.33,1.33,0,0,1,1.42-1.51c1,0,1.34.57,1.34,1.4v.5h-.86V6.87c0-.35-.13-.55-.47-.55s-.49.24-.49.58v3c0,.34.15.58.47.58s.46-.17.46-.54V9h-.45Z"/><path class="cls-2" d="M27.37,5.6V9.84c0,.87-.37,1.44-1.33,1.44a1.27,1.27,0,0,1-1.41-1.44V5.6h.94V9.94c0,.33.13.55.47.55s.46-.22.46-.55V5.6Z"/><path class="cls-2" d="M28.81,9.43h.76l-.38-2.25h0Zm-1.18,1.78L28.69,5.6h1.07l1.07,5.61h-1l-.17-1h-1l-.17,1Z"/><polygon class="cls-2" points="31.22 5.6 32.16 5.6 32.16 10.44 33.29 10.44 33.29 11.21 31.22 11.21 31.22 5.6"/><path class="cls-2" d="M35.06,10.44c.38,0,.53-.23.53-.57V6.93c0-.33-.15-.56-.53-.56h-.4v4.07Zm1.48-3.33V9.7c0,.86-.36,1.51-1.37,1.51H33.72V5.6h1.45c1,0,1.37.64,1.37,1.51"/><path class="cls-2" d="M38,9.43h.75l-.37-2.25h0ZM36.8,11.21,37.86,5.6h1.07L40,11.21H39l-.17-1h-1l-.17,1Z"/><path class="cls-2" d="M41.73,10.44c.38,0,.53-.23.53-.57V6.93c0-.33-.15-.56-.53-.56h-.4v4.07Zm1.48-3.33V9.7c0,.86-.36,1.51-1.37,1.51H40.39V5.6h1.45c1,0,1.37.64,1.37,1.51"/><path class="cls-2" d="M21.18,18.29c.39,0,.54-.23.54-.57V14.79a.5.5,0,0,0-.54-.57h-.39v4.07ZM22.66,15v2.6c0,.86-.35,1.5-1.36,1.5H19.84v-5.6H21.3c1,0,1.36.63,1.36,1.5"/><polygon class="cls-2" points="23.2 13.46 25.45 13.46 25.45 14.22 24.14 14.22 24.14 15.83 25.08 15.83 25.08 16.59 24.14 16.59 24.14 18.29 25.45 18.29 25.45 19.06 23.2 19.06 23.2 13.46"/><path class="cls-2" d="M28.24,16.07h1.34v3h-.67v-.61a.86.86,0,0,1-.91.68c-.81,0-1.18-.65-1.18-1.51V14.9a1.33,1.33,0,0,1,1.42-1.51c1,0,1.34.58,1.34,1.4v.5h-.86v-.57c0-.35-.13-.55-.47-.55s-.49.24-.49.58v3c0,.34.14.58.47.58s.46-.17.46-.53v-1h-.45Z"/><path class="cls-2" d="M32.08,13.06l-1.48.19v-.53l1.48-.32Zm-2,.4h2.25v.76H31.06v1.61H32v.76h-.94v1.7h1.31v.77H30.12Z"/><polygon class="cls-2" points="33.67 15.54 33.67 19.06 32.87 19.06 32.87 13.46 33.8 13.46 34.82 16.67 34.82 13.46 35.6 13.46 35.6 19.06 34.77 19.06 33.67 15.54"/><polygon class="cls-2" points="36.14 13.46 38.39 13.46 38.39 14.22 37.08 14.22 37.08 15.83 38.02 15.83 38.02 16.59 37.08 16.59 37.08 18.29 38.39 18.29 38.39 19.06 36.14 19.06 36.14 13.46"/><path class="cls-2" d="M39.83,14.22V16h.32a.41.41,0,0,0,.46-.46v-.83a.4.4,0,0,0-.46-.46Zm0,2.27v2.57h-.94V13.45h1.37c1,0,1.3.48,1.3,1.26v.72c0,.61-.21,1-.75,1.09l.9,2.54h-1Z"/><path class="cls-2" d="M44,17.76v-3c0-.34-.15-.58-.48-.58s-.48.24-.48.58v3c0,.34.14.58.48.58s.48-.24.48-.58m-1.91-.14V14.9a1.43,1.43,0,1,1,2.86,0v2.72a1.43,1.43,0,1,1-2.86,0"/></g></g></svg>