<svg xmlns="http://www.w3.org/2000/svg" viewBox="0 0 66.17 66.17"><defs><style>.cls-1{fill:#2d9a47;}.cls-2{fill:#fff;}</style></defs><title>Asset 15</title><g id="Layer_2" data-name="Layer 2"><g id="Layer_1-2" data-name="Layer 1"><rect class="cls-1" width="66.17" height="66.17"/><path class="cls-2" d="M55.79,41.35a3.11,3.11,0,0,0-3-3.37c-.91,0-2,1-2.59,1.6C49.6,39,48.58,38,47.68,38a3.17,3.17,0,0,0-3.08,3.37,3.44,3.44,0,0,0,1,2.39l4.64,4.64,4.63-4.64h0a3.44,3.44,0,0,0,1-2.39"/><path class="cls-2" d="M36,56h0a.77.77,0,0,1-.7-.63L32.93,41.62l-3.56,6.61A.76.76,0,0,1,27.94,48L26.43,37.39l-2.78,6.23a.76.76,0,0,1-.69.45H12.19a.77.77,0,1,1,0-1.53H22.46l3.65-8.19a.75.75,0,0,1,.8-.44.76.76,0,0,1,.65.65l1.56,10.92L32.64,39a.77.77,0,0,1,.8-.39.74.74,0,0,1,.62.62l2.18,12.71,8-26.41a.75.75,0,0,1,.67-.54.73.73,0,0,1,.74.43L49.8,34a.76.76,0,1,1-1.38.66l-3.33-6.91L36.77,55.43A.76.76,0,0,1,36,56"/><path class="cls-2" d="M9.92,19.07c2.27,0,3.25-1.2,3.25-3.05v-2a2,2,0,0,0-1.65-2.26,2.15,2.15,0,0,0,1.53-2.17V8.46c0-1.89-.9-3.05-3-3.05C7.76,5.41,7,6.79,7,8.76V9.94H9V8.58c0-.83.26-1.3,1-1.3s1,.47,1,1.2V9.92c0,.71-.47,1.08-1.2,1.08H8.88v1.71h.95c.78,0,1.1.37,1.1,1.08V16c0,.7-.32,1.2-1,1.2s-1-.51-1-1.3V14h-2v1.75c0,2,.8,3.33,3.08,3.33"/><path class="cls-2" d="M18.14,10V9.25H19V10c0,.31.14.5.47.5s.43-.2.43-.5V9.8A1,1,0,0,0,19.49,9l-.56-.55A1.89,1.89,0,0,1,18.15,7V6.77a1.16,1.16,0,0,1,1.32-1.23c.94,0,1.31.46,1.31,1.27v.45h-.86V6.78c0-.33-.14-.48-.44-.48a.41.41,0,0,0-.45.46v.12c0,.31.17.49.45.76l.6.59a1.9,1.9,0,0,1,.76,1.46V10a1.21,1.21,0,0,1-1.37,1.32A1.17,1.17,0,0,1,18.14,10"/><path class="cls-2" d="M22.29,9.43H23l-.37-2.25h0Zm-1.18,1.78L22.16,5.6h1.08l1.07,5.61h-1l-.18-1h-1l-.16,1Z"/><polygon class="cls-2" points="24.69 5.6 25.64 5.6 25.64 10.44 26.76 10.44 26.76 11.21 24.69 11.21 24.69 5.6"/><path class="cls-2" d="M29.85,5.6V9.84c0,.87-.38,1.44-1.34,1.44a1.27,1.27,0,0,1-1.4-1.44V5.6h.94V9.94c0,.33.13.55.46.55s.47-.22.47-.55V5.6Z"/><path class="cls-2" d="M31.72,10.44c.39,0,.54-.23.54-.57V6.93a.49.49,0,0,0-.54-.56h-.4v4.07ZM33.2,7.11V9.7c0,.86-.36,1.51-1.36,1.51H30.38V5.6h1.46c1,0,1.36.64,1.36,1.51"/><polygon class="cls-2" points="20.02 16.93 20.02 19.06 19.08 19.06 19.08 16.93 18.03 13.46 19.01 13.46 19.59 15.58 19.59 15.58 20.16 13.46 21.07 13.46 20.02 16.93"/><path class="cls-2" d="M23.26,16.54v1.75h.41a.4.4,0,0,0,.46-.45V17c0-.3-.14-.46-.47-.46Zm0-.72h.33a.39.39,0,0,0,.44-.45v-.69c0-.31-.14-.46-.45-.46h-.32Zm-1-2.36h1.37c.94,0,1.25.43,1.25,1.23v.57a.81.81,0,0,1-.56.89.86.86,0,0,1,.71.94v.74c0,.79-.36,1.23-1.3,1.23H22.31Z"/><rect class="cls-2" x="25.54" y="13.46" width="0.94" height="5.61"/><polygon class="cls-2" points="27.03 13.46 29.28 13.46 29.28 14.22 27.98 14.22 27.98 15.83 28.91 15.83 28.91 16.59 27.98 16.59 27.98 18.29 29.28 18.29 29.28 19.06 27.03 19.06 27.03 13.46"/><polygon class="cls-2" points="30.58 15.54 30.58 19.06 29.79 19.06 29.79 13.46 30.71 13.46 31.73 16.67 31.73 13.46 32.51 13.46 32.51 19.06 31.69 19.06 30.58 15.54"/><polygon class="cls-2" points="33.05 13.46 35.3 13.46 35.3 14.22 33.99 14.22 33.99 15.83 34.93 15.83 34.93 16.59 33.99 16.59 33.99 18.29 35.3 18.29 35.3 19.06 33.05 19.06 33.05 13.46"/><path class="cls-2" d="M35.71,17.86V17.1h.88v.77c0,.32.14.5.46.5s.43-.2.43-.5v-.21a1,1,0,0,0-.42-.8l-.55-.55a1.89,1.89,0,0,1-.79-1.5v-.19A1.17,1.17,0,0,1,37,13.39c1,0,1.32.46,1.32,1.27v.46H37.5v-.49q0-.48-.45-.48a.41.41,0,0,0-.44.46v.12c0,.31.17.5.44.76l.61.6a1.88,1.88,0,0,1,.76,1.45v.27A1.22,1.22,0,0,1,37,19.13a1.17,1.17,0,0,1-1.33-1.27"/><polygon class="cls-2" points="38.68 13.46 41.19 13.46 41.19 14.22 40.41 14.22 40.41 19.06 39.46 19.06 39.46 14.22 38.68 14.22 38.68 13.46"/><path class="cls-2" d="M42.24,17.28H43L42.62,15h0Zm-1.18,1.78,1.06-5.6h1.07l1.07,5.6h-1l-.17-1h-1l-.17,1Z"/><path class="cls-2" d="M45.59,14.22V16h.32a.41.41,0,0,0,.46-.46v-.83a.4.4,0,0,0-.46-.46Zm0,2.27v2.57h-.94V13.45H46c.95,0,1.3.48,1.3,1.26v.72c0,.61-.21,1-.75,1.09l.9,2.54h-1Z"/></g></g></svg>