<svg xmlns="http://www.w3.org/2000/svg" viewBox="0 0 66.17 66.17"><defs><style>.cls-1{fill:#1a3668;}.cls-2{fill:#fff;}</style></defs><title>Asset 1</title><g id="Layer_2" data-name="Layer 2"><g id="Layer_1-2" data-name="Layer 1"><rect class="cls-1" width="66.17" height="66.17"/><path class="cls-2" d="M38.53,43.07a7.45,7.45,0,0,0,2.32-6.4,6,6,0,0,1,5.3,5.91A5.89,5.89,0,0,1,44.2,47a7.47,7.47,0,0,0-5.67-3.89m5,7.38a5.93,5.93,0,0,1-8.87,5.16,7.39,7.39,0,0,0,1.9-6.53,7.45,7.45,0,0,0,3.6.93,7.36,7.36,0,0,0,3.25-.75,5.93,5.93,0,0,1,.12,1.19m-20.2,0a6.26,6.26,0,0,1,.13-1.23,7.41,7.41,0,0,0,6.82-.19,7.76,7.76,0,0,0-.13,1.37,7.41,7.41,0,0,0,2.11,5.17,5.86,5.86,0,0,1-3,.82,6,6,0,0,1-5.94-5.94M20.8,42.58a6,6,0,0,1,5.31-5.91,7.3,7.3,0,0,0,2.36,6.45A7.46,7.46,0,0,0,22.77,47a6,6,0,0,1-2-4.4M33.48,31.69a6,6,0,0,1,5.44,3.57,7.46,7.46,0,0,0-5.44,4.17A7.46,7.46,0,0,0,28,35.26a5.93,5.93,0,0,1,5.44-3.57m1.41,13.5A5.91,5.91,0,0,1,43,47.84a5.94,5.94,0,0,1-8.07-2.65m-2.84,0a6,6,0,0,1-5.31,3.28A5.86,5.86,0,0,1,24,47.84a5.93,5.93,0,0,1,8-2.61m-4.43-8.52a5.94,5.94,0,0,1,5.06,5.87,5.5,5.5,0,0,1-.08.91,5.94,5.94,0,0,1-5.06-5.87,5.5,5.5,0,0,1,.08-.91m5.89,18a5.9,5.9,0,0,1-.06-8.45,5.9,5.9,0,0,1,.06,8.45m5.91-17.08a6,6,0,0,1-5.07,5.87,6.84,6.84,0,0,1-.07-.91,5.94,5.94,0,0,1,5.06-5.87,6.84,6.84,0,0,1,.08.91m8.23,5a7.44,7.44,0,0,0-7.16-7.43,7.43,7.43,0,0,0-14,0,7.43,7.43,0,0,0-4.29,13.29,7.33,7.33,0,0,0-.3,2.06,7.43,7.43,0,0,0,11.63,6.13,7.43,7.43,0,0,0,11.28-8.2,7.42,7.42,0,0,0,2.86-5.85"/><polygon class="cls-2" points="9.9 5.55 9.9 18.89 7.66 18.89 7.66 8.67 7.64 8.67 6.07 10.31 6.05 10.31 6.05 7.97 8.12 5.55 9.9 5.55"/><polygon class="cls-2" points="10.93 5.55 16.56 5.55 16.56 7.61 13.62 18.89 11.4 18.89 14.39 7.38 10.93 7.38 10.93 5.55"/><path class="cls-2" d="M23.82,10.32h.75L24.2,8.07h0ZM22.64,12.1l1.05-5.61h1.08l1.07,5.61h-1l-.17-1h-1l-.16,1Z"/><polygon class="cls-2" points="26.22 6.49 27.17 6.49 27.17 11.33 28.29 11.33 28.29 12.1 26.22 12.1 26.22 6.49"/><rect class="cls-2" x="28.72" y="6.49" width="0.94" height="5.61"/><path class="cls-2" d="M31.24,10.32H32l-.37-2.25h0ZM30.06,12.1l1.06-5.61h1.07l1.07,5.61h-1l-.17-1h-1l-.17,1Z"/><polygon class="cls-2" points="34.44 8.57 34.44 12.1 33.65 12.1 33.65 6.49 34.57 6.49 35.59 9.71 35.59 6.49 36.38 6.49 36.38 12.1 35.55 12.1 34.44 8.57"/><polygon class="cls-2" points="37.83 11.33 39.26 11.33 39.26 12.1 36.84 12.1 36.84 11.33 38.33 7.26 36.99 7.26 36.99 6.49 39.32 6.49 39.32 7.26 37.83 11.33"/><path class="cls-2" d="M40.81,10.32h.75l-.37-2.25h0ZM39.62,12.1l1.06-5.61h1.08l1.06,5.61h-1l-.18-1h-1l-.16,1Z"/><path class="cls-2" d="M43.08,10.89v-.75H44v.77a.43.43,0,0,0,.47.49c.3,0,.43-.19.43-.49v-.22a1,1,0,0,0-.42-.79l-.56-.56a1.87,1.87,0,0,1-.78-1.49V7.66a1.17,1.17,0,0,1,1.32-1.24c.94,0,1.32.47,1.32,1.28v.45h-.86V7.66q0-.48-.45-.48a.42.42,0,0,0-.45.47v.11c0,.32.18.5.45.76l.6.6a1.9,1.9,0,0,1,.76,1.46v.27a1.21,1.21,0,0,1-1.37,1.31,1.16,1.16,0,0,1-1.33-1.27"/><path class="cls-2" d="M48.09,7.26V9.47h.35A.4.4,0,0,0,48.9,9V7.71c0-.3-.14-.45-.46-.45Zm-.94-.77h1.39c1,0,1.3.47,1.3,1.26V8.93c0,.79-.35,1.27-1.3,1.27h-.45v1.9h-.94Z"/><path class="cls-2" d="M51,10.32h.75l-.37-2.25h0ZM49.85,12.1l1.06-5.61H52l1.07,5.61h-1l-.17-1h-1l-.17,1Z"/><path class="cls-2" d="M54.38,7.26V9h.31a.41.41,0,0,0,.47-.47V7.71c0-.3-.14-.45-.47-.45Zm0,2.27V12.1h-.94V6.49h1.37c.95,0,1.3.47,1.3,1.26v.72c0,.6-.22,1-.75,1.08l.9,2.55h-1Z"/><path class="cls-2" d="M57.65,10.32h.76L58,8.07h0ZM56.47,12.1l1.06-5.61H58.6l1.07,5.61h-1l-.17-1h-1l-.17,1Z"/><polygon class="cls-2" points="22.78 13.93 23.73 13.93 23.73 18.77 24.85 18.77 24.85 19.54 22.78 19.54 22.78 13.93"/><path class="cls-2" d="M27.15,18.24v-3c0-.34-.15-.58-.49-.58s-.48.24-.48.58v3c0,.34.15.58.48.58s.49-.24.49-.58m-1.91-.15V15.38a1.43,1.43,0,1,1,2.85,0v2.71a1.43,1.43,0,1,1-2.85,0"/><path class="cls-2" d="M30.05,16.54h1.34v3h-.68v-.61a.85.85,0,0,1-.9.68c-.81,0-1.18-.65-1.18-1.52V15.38A1.32,1.32,0,0,1,30,13.87c1.05,0,1.35.57,1.35,1.4v.5h-.86V15.2c0-.35-.13-.55-.47-.55s-.49.24-.49.58v3c0,.34.14.58.47.58s.46-.17.46-.54v-1h-.45Z"/><path class="cls-2" d="M32.87,14.7v1.75h.31a.41.41,0,0,0,.47-.47v-.83c0-.3-.14-.45-.47-.45Zm0,2.27v2.57h-.94V13.93H33.3c1,0,1.3.47,1.3,1.26v.72c0,.6-.22,1-.75,1.08l.9,2.55h-1Z"/><path class="cls-2" d="M36.14,17.76h.76l-.38-2.25h0ZM35,19.54,36,13.93h1.07l1.07,5.61h-1l-.17-1H36l-.17,1Z"/><path class="cls-2" d="M39.49,14.7v1.75h.32a.41.41,0,0,0,.46-.47v-.83c0-.3-.14-.45-.46-.45Zm0,2.27v2.57h-.94V13.93h1.37c.95,0,1.3.47,1.3,1.26v.72c0,.6-.21,1-.75,1.08l.9,2.55h-1Z"/><polygon class="cls-2" points="22.78 21.37 23.73 21.37 23.73 26.21 24.85 26.21 24.85 26.98 22.78 26.98 22.78 21.37"/><path class="cls-2" d="M27.15,25.68v-3c0-.34-.15-.58-.49-.58s-.48.24-.48.58v3c0,.34.15.58.48.58s.49-.24.49-.58m-1.91-.15V22.82a1.43,1.43,0,1,1,2.85,0v2.71a1.43,1.43,0,1,1-2.85,0"/><path class="cls-2" d="M28.58,25.77V25h.88v.77c0,.31.14.49.46.49s.43-.19.43-.49v-.22a1,1,0,0,0-.42-.79l-.56-.56a1.89,1.89,0,0,1-.78-1.49v-.19a1.16,1.16,0,0,1,1.32-1.23c.94,0,1.32.46,1.32,1.27V23h-.86v-.48c0-.33-.15-.48-.45-.48a.41.41,0,0,0-.45.46v.12c0,.31.18.49.45.76l.6.59a1.87,1.87,0,0,1,.76,1.46v.27a1.21,1.21,0,0,1-1.37,1.32,1.17,1.17,0,0,1-1.33-1.28"/><path class="cls-2" d="M34.56,25.68v-3c0-.34-.15-.58-.49-.58s-.48.24-.48.58v3c0,.34.15.58.48.58s.49-.24.49-.58m-1.91-.15V22.82a1.43,1.43,0,1,1,2.85,0v2.71a1.43,1.43,0,1,1-2.85,0"/><path class="cls-2" d="M37,24.46v1.75h.41a.41.41,0,0,0,.47-.46v-.84c0-.3-.15-.45-.48-.45Zm0-.72h.33a.4.4,0,0,0,.45-.46v-.69c0-.3-.14-.45-.46-.45H37ZM36,21.37H37.4c.94,0,1.26.44,1.26,1.23v.57a.83.83,0,0,1-.56.9.84.84,0,0,1,.7.93v.75c0,.79-.36,1.23-1.3,1.23H36Z"/><path class="cls-2" d="M41.77,21.37V25.7c0,.82-.35,1.34-1.29,1.34s-1.25-.53-1.25-1.24V24.68h.9v1.13c0,.28.1.45.35.45s.35-.17.35-.46V21.37Z"/><polygon class="cls-2" points="42.3 21.37 44.55 21.37 44.55 22.14 43.24 22.14 43.24 23.75 44.18 23.75 44.18 24.51 43.24 24.51 43.24 26.21 44.55 26.21 44.55 26.98 42.3 26.98 42.3 21.37"/><polygon class="cls-2" points="44.95 21.37 47.45 21.37 47.45 22.14 46.67 22.14 46.67 26.98 45.72 26.98 45.72 22.14 44.95 22.14 44.95 21.37"/><rect class="cls-2" x="47.89" y="21.37" width="0.94" height="5.61"/><polygon class="cls-2" points="52.4 21.37 51.33 26.98 50.3 26.98 49.24 21.37 50.2 21.37 50.84 25.28 50.85 25.28 51.51 21.37 52.4 21.37"/><path class="cls-2" d="M54.53,25.68v-3c0-.34-.15-.58-.49-.58s-.48.24-.48.58v3c0,.34.15.58.48.58s.49-.24.49-.58m-1.91-.15V22.82a1.43,1.43,0,1,1,2.85,0v2.71a1.43,1.43,0,1,1-2.85,0"/><path class="cls-2" d="M56,25.77V25h.87v.77c0,.31.14.49.47.49s.43-.19.43-.49v-.22a1,1,0,0,0-.42-.79l-.56-.56A1.86,1.86,0,0,1,56,22.73v-.19a1.16,1.16,0,0,1,1.32-1.23c.94,0,1.31.46,1.31,1.27V23h-.86v-.48c0-.33-.14-.48-.44-.48a.41.41,0,0,0-.45.46v.12c0,.31.17.49.45.76l.6.59a1.9,1.9,0,0,1,.76,1.46v.27a1.21,1.21,0,0,1-1.37,1.32A1.17,1.17,0,0,1,56,25.77"/></g></g></svg>