<svg xmlns="http://www.w3.org/2000/svg" viewBox="0 0 66.17 66.17"><defs><style>.cls-1{fill:#f36e24;}.cls-2{fill:#fff;}</style></defs><title>Asset 9</title><g id="Layer_2" data-name="Layer 2"><g id="Layer_1-2" data-name="Layer 1"><rect class="cls-1" width="66.17" height="66.17"/><path class="cls-2" d="M48.25,53.53l-6.44,3.71V49.81l6.44-3.72ZM27,57.24V50.37l5.95,3.44Zm-1,0-6.44-3.71V46.09L26,49.81Zm6.93-20.56L27,40.11V33.24Zm7.9,3.43-5.95-3.43,5.95-3.44Zm-5.95,5.13,6.44-3.71,6.44,3.71L41.32,49Zm-1.46-.85-6-3.43,6-3.43ZM40.34,41,34.4,44.39V37.53ZM33.42,53l-6-3.43,6-3.44ZM49,44.82l-7.18-4.14V32.39a.49.49,0,0,0-.24-.42l-7.42-4.28a.48.48,0,0,0-.49,0L26.24,32a.49.49,0,0,0-.24.42v8.29l-7.17,4.14a.48.48,0,0,0-.25.42v8.57a.47.47,0,0,0,.25.42l7.41,4.28a.45.45,0,0,0,.25.07.42.42,0,0,0,.24-.07l7.18-4.14,7.17,4.14a.42.42,0,0,0,.24.07.45.45,0,0,0,.25-.07L49,54.23a.48.48,0,0,0,.24-.42V45.24a.49.49,0,0,0-.24-.42"/><path class="cls-2" d="M11,11c0,.74-.36,1.22-1.07,1.22s-1.06-.48-1.06-1.34V8.51c0-.85.32-1.34,1.08-1.34s1,.51,1,1.34Zm2.22-2c0-2.06-.91-3.56-3.27-3.56S6.6,6.64,6.6,8.71v2c0,2.19.86,3.29,2.48,3.29a1.94,1.94,0,0,0,1.85-1.08h0v2.87c0,.8-.32,1.37-1.13,1.37s-1.1-.47-1.1-1.29v-.89h-2v.71c0,2,.71,3.34,3.18,3.34s3.31-1.51,3.31-3.6Z"/><rect class="cls-2" x="17.49" y="5.53" width="0.94" height="5.61"/><polygon class="cls-2" points="19.77 7.61 19.77 11.14 18.98 11.14 18.98 5.53 19.91 5.53 20.93 8.75 20.93 5.53 21.71 5.53 21.71 11.14 20.88 11.14 19.77 7.61"/><path class="cls-2" d="M23.59,10.37c.39,0,.53-.23.53-.57V6.86c0-.33-.14-.56-.53-.56h-.4v4.07ZM25.07,7v2.6c0,.86-.36,1.51-1.37,1.51H22.25V5.53H23.7c1,0,1.37.63,1.37,1.5"/><path class="cls-2" d="M28.34,5.53V9.77c0,.87-.37,1.43-1.33,1.43A1.27,1.27,0,0,1,25.6,9.77V5.53h.95V9.86c0,.33.13.56.46.56s.46-.23.46-.56V5.53Z"/><path class="cls-2" d="M28.83,9.93V9.18h.87v.76c0,.32.14.5.47.5s.43-.2.43-.5V9.73a1,1,0,0,0-.43-.79l-.55-.56a1.89,1.89,0,0,1-.79-1.5V6.69a1.17,1.17,0,0,1,1.33-1.23c.94,0,1.31.47,1.31,1.28v.45h-.86V6.7c0-.32-.15-.48-.44-.48a.42.42,0,0,0-.45.47V6.8c0,.32.17.5.45.76l.6.6a1.88,1.88,0,0,1,.76,1.45v.28a1.21,1.21,0,0,1-1.37,1.31,1.17,1.17,0,0,1-1.33-1.27"/><polygon class="cls-2" points="31.79 5.53 34.3 5.53 34.3 6.3 33.52 6.3 33.52 11.14 32.57 11.14 32.57 6.3 31.79 6.3 31.79 5.53"/><path class="cls-2" d="M35.68,6.3V8H36c.33,0,.47-.16.47-.46V6.75c0-.3-.14-.45-.47-.45Zm0,2.26v2.58h-.94V5.53h1.37c1,0,1.3.47,1.3,1.26V7.5c0,.61-.22,1-.75,1.09l.9,2.55h-1Z"/><rect class="cls-2" x="37.92" y="5.53" width="0.94" height="5.61"/><path class="cls-2" d="M40.44,9.36h.75l-.37-2.25h0Zm-1.18,1.78,1.06-5.61h1.07l1.07,5.61h-1l-.17-1h-1l-.17,1Z"/><polygon class="cls-2" points="43.81 10.31 43.33 11.57 42.8 11.57 42.92 10.23 43.81 10.23 43.81 10.31"/><rect class="cls-2" x="17.49" y="12.97" width="0.94" height="5.61"/><polygon class="cls-2" points="19.77 15.05 19.77 18.57 18.98 18.57 18.98 12.97 19.91 12.97 20.93 16.18 20.93 12.97 21.71 12.97 21.71 18.57 20.88 18.57 19.77 15.05"/><polygon class="cls-2" points="23.04 15.05 23.04 18.57 22.25 18.57 22.25 12.97 23.17 12.97 24.19 16.18 24.19 12.97 24.98 12.97 24.98 18.57 24.15 18.57 23.04 15.05"/><path class="cls-2" d="M27.42,17.28v-3c0-.34-.15-.58-.49-.58s-.48.24-.48.58v3c0,.34.15.58.48.58s.49-.24.49-.58m-1.91-.15V14.42a1.43,1.43,0,1,1,2.86,0v2.71a1.43,1.43,0,1,1-2.86,0"/><polygon class="cls-2" points="31.75 12.97 30.69 18.57 29.66 18.57 28.59 12.97 29.55 12.97 30.2 16.88 30.21 16.88 30.87 12.97 31.75 12.97"/><path class="cls-2" d="M32.68,16.8h.75l-.37-2.25h0ZM31.5,18.58,32.56,13h1.07l1.07,5.61h-1l-.17-1h-1l-.17,1Z"/><path class="cls-2" d="M35,17.13V14.42c0-.88.41-1.52,1.41-1.52s1.33.58,1.33,1.41V15h-.86v-.74c0-.34-.12-.54-.46-.54s-.48.24-.48.58v3c0,.34.14.58.48.58s.46-.22.46-.55v-1h.86v1c0,.81-.33,1.4-1.33,1.4A1.32,1.32,0,0,1,35,17.13"/><rect class="cls-2" x="38.21" y="12.97" width="0.94" height="5.61"/><path class="cls-2" d="M41.61,17.28v-3c0-.34-.15-.58-.49-.58s-.48.24-.48.58v3c0,.34.15.58.48.58s.49-.24.49-.58m.28-4.71-1.48.19v-.53l1.48-.31ZM39.7,17.13V14.42a1.43,1.43,0,1,1,2.85,0v2.71a1.43,1.43,0,1,1-2.85,0"/><polygon class="cls-2" points="43.88 15.05 43.88 18.57 43.09 18.57 43.09 12.97 44.01 12.97 45.03 16.18 45.03 12.97 45.81 12.97 45.81 18.57 44.99 18.57 43.88 15.05"/><polygon class="cls-2" points="47.22 12.97 49.47 12.97 49.47 13.74 48.16 13.74 48.16 15.34 49.1 15.34 49.1 16.1 48.16 16.1 48.16 17.81 49.47 17.81 49.47 18.57 47.22 18.57 47.22 12.97"/><rect class="cls-2" x="17.49" y="20.41" width="0.94" height="5.61"/><polygon class="cls-2" points="19.77 22.49 19.77 26.02 18.98 26.02 18.98 20.41 19.91 20.41 20.93 23.63 20.93 20.41 21.71 20.41 21.71 26.02 20.88 26.02 19.77 22.49"/><polygon class="cls-2" points="22.25 20.41 24.46 20.41 24.46 21.18 23.19 21.18 23.19 22.78 24.13 22.78 24.13 23.54 23.19 23.54 23.19 26.02 22.25 26.02 22.25 20.41"/><path class="cls-2" d="M25.81,21.18v1.74h.31c.33,0,.47-.16.47-.46v-.83c0-.3-.14-.45-.47-.45Zm0,2.26V26h-.94V20.41h1.37c1,0,1.3.47,1.3,1.25v.72c0,.61-.22,1-.75,1.09l.9,2.55h-1Z"/><path class="cls-2" d="M29.08,24.24h.76L29.46,22h0ZM27.9,26,29,20.41H30L31.1,26h-1L30,25H29l-.17,1Z"/><polygon class="cls-2" points="31.49 20.41 33.74 20.41 33.74 21.18 32.43 21.18 32.43 22.78 33.37 22.78 33.37 23.54 32.43 23.54 32.43 25.25 33.74 25.25 33.74 26.02 31.49 26.02 31.49 20.41"/><path class="cls-2" d="M34.15,24.81v-.75H35v.76c0,.32.14.5.46.5s.43-.2.43-.5v-.21a1,1,0,0,0-.42-.79l-.56-.56a1.91,1.91,0,0,1-.78-1.5v-.19a1.17,1.17,0,0,1,1.32-1.23c.94,0,1.32.46,1.32,1.28v.45h-.86v-.49q0-.48-.45-.48a.42.42,0,0,0-.45.47v.11c0,.32.18.5.45.76l.6.6a1.86,1.86,0,0,1,.77,1.45v.28a1.22,1.22,0,0,1-1.38,1.31,1.17,1.17,0,0,1-1.33-1.27"/><polygon class="cls-2" points="37.12 20.41 39.62 20.41 39.62 21.18 38.85 21.18 38.85 26.02 37.9 26.02 37.9 21.18 37.12 21.18 37.12 20.41"/><path class="cls-2" d="M41,21.18v1.74h.32a.4.4,0,0,0,.46-.46v-.83c0-.3-.14-.45-.46-.45Zm0,2.26V26h-.94V20.41h1.37c1,0,1.3.47,1.3,1.25v.72c0,.61-.21,1-.75,1.09l.9,2.55h-1Z"/><path class="cls-2" d="M46,20.41v4.24c0,.87-.37,1.43-1.33,1.43a1.27,1.27,0,0,1-1.41-1.43V20.41h.95v4.33c0,.33.13.56.46.56s.46-.23.46-.56V20.41Z"/><path class="cls-2" d="M46.52,24.57V21.86c0-.88.41-1.52,1.4-1.52s1.34.58,1.34,1.41v.66H48.4v-.74c0-.34-.12-.54-.46-.54s-.48.24-.48.58v3c0,.34.14.58.48.58s.46-.22.46-.55v-1h.86v1c0,.81-.34,1.4-1.34,1.4a1.32,1.32,0,0,1-1.4-1.51"/><polygon class="cls-2" points="49.58 20.41 52.08 20.41 52.08 21.18 51.3 21.18 51.3 26.02 50.35 26.02 50.35 21.18 49.58 21.18 49.58 20.41"/><path class="cls-2" d="M55.26,20.41v4.24c0,.87-.38,1.43-1.34,1.43a1.26,1.26,0,0,1-1.4-1.43V20.41h.94v4.33c0,.33.13.56.46.56s.47-.23.47-.56V20.41Z"/><path class="cls-2" d="M56.73,21.18v1.74h.32a.4.4,0,0,0,.46-.46v-.83c0-.3-.14-.45-.46-.45Zm0,2.26V26h-.94V20.41h1.37c1,0,1.3.47,1.3,1.25v.72c0,.61-.21,1-.75,1.09l.9,2.55h-1Z"/><path class="cls-2" d="M60,24.24h.75L60.39,22h0ZM58.83,26l1.05-5.61H61L62,26h-1l-.17-1h-1l-.16,1Z"/></g></g></svg>