<svg xmlns="http://www.w3.org/2000/svg" viewBox="0 0 66.17 66.17"><defs><style>.cls-1{fill:#00558a;}.cls-2{fill:#fff;}</style></defs><title>Asset 2</title><g id="Layer_2" data-name="Layer 2"><g id="Layer_1-2" data-name="Layer 1"><rect class="cls-1" width="66.17" height="66.17"/><path class="cls-2" d="M43.91,29.37a2.43,2.43,0,0,0-.46,1.69,2.37,2.37,0,0,0,1.14,1.32,2.39,2.39,0,0,0,.46-1.68,2.41,2.41,0,0,0-1.14-1.33"/><path class="cls-2" d="M42.86,34.24a2.34,2.34,0,0,0,.46-1.68,2.41,2.41,0,0,0-1.14-1.33,2.39,2.39,0,0,0-.45,1.69,2.37,2.37,0,0,0,1.13,1.32"/><path class="cls-2" d="M45.5,33.33A2.15,2.15,0,0,0,47,34a2.2,2.2,0,0,0,1.35-.87,2.11,2.11,0,0,0-1.45-.61,2.24,2.24,0,0,0-1.35.86"/><path class="cls-2" d="M46.61,29.68a2.58,2.58,0,0,0-.54,1.76,2.43,2.43,0,0,0,1.74-.54,2.53,2.53,0,0,0,.54-1.76,2.43,2.43,0,0,0-1.74.54"/><path class="cls-2" d="M45.23,35.87a2.2,2.2,0,0,0,1.49-.57,2.09,2.09,0,0,0-1.29-.9,2.23,2.23,0,0,0-1.5.57,2.13,2.13,0,0,0,1.3.9"/><path class="cls-2" d="M45.92,48.24H40.16a.81.81,0,0,0-.81.81.82.82,0,0,0,.81.82h5.76a.82.82,0,0,0,.81-.82.81.81,0,0,0-.81-.81"/><path class="cls-2" d="M45.92,57.21H40.16a.82.82,0,0,0-.81.82.81.81,0,0,0,.81.81h5.76a.81.81,0,0,0,.81-.81.82.82,0,0,0-.81-.82"/><path class="cls-2" d="M20,46.27a3.45,3.45,0,0,0-.4-.11l.4.11"/><path class="cls-2" d="M29.36,49.79q.57,0,1.14,0v3l-1.14,0Zm16.34.65H40.37a.47.47,0,0,0-.46.46v1.62l-3.48.38-5.09-.12v-3.1a16.22,16.22,0,0,0,2-.41c4.89-1.39,6-4.43,5.85-7.23s.81-4,2.12-4.46a5.31,5.31,0,0,1,1.09-.28,8.32,8.32,0,0,0,.47,2.48l.34,0a8.34,8.34,0,0,1-.48-2.5,6.42,6.42,0,0,1,1.16,0,7.35,7.35,0,0,1-1.1-.78,5.52,5.52,0,0,1,1.85-3A10,10,0,0,0,46,31.88l-.29-.19a10.33,10.33,0,0,1-1.25,1.47,5.88,5.88,0,0,0-1.9,3,11.07,11.07,0,0,1-.84-.84c-1.21-1.36-2.76-.36-5,1.7s-5,2.13-7.73-.65c-3.59-3.68-6.72-3.66-8.87-3.45,1.47.63,2,2,2.73,5.49.78,3.66,2.74,5.32,5.43,5.55-1.24.2-1.57.37-3.57,1.76-1.57,1.08-3.77.74-4.66.54,1.64.51,3.58,2.23,5.32,2.82a12.4,12.4,0,0,0,3.17.65v3l-9.65-.21v2.07l17.55-.39,3.48.39v1.61a.46.46,0,0,0,.46.46H45.7a.46.46,0,0,0,.47-.46V50.9a.47.47,0,0,0-.47-.46"/><path class="cls-2" d="M18.38,54.24a.74.74,0,0,1-.68.79h-.41a.74.74,0,0,1-.68-.79V52.81a.75.75,0,0,1,.68-.8h.41a.75.75,0,0,1,.68.8Z"/><polygon class="cls-2" points="5.08 7.97 5.08 10.31 5.1 10.31 6.67 8.68 6.69 8.68 6.69 18.89 8.93 18.89 8.93 5.55 7.14 5.55 5.08 7.97"/><path class="cls-2" d="M14.56,15.88c0,.85-.31,1.34-1.08,1.34s-1-.51-1-1.34V13.44c0-.75.35-1.22,1.06-1.22s1.06.47,1.06,1.34Zm2.23-.19v-2c0-2.19-.87-3.29-2.48-3.29a1.91,1.91,0,0,0-1.85,1.08h0V8.64c0-.81.25-1.38,1.06-1.38s1,.47,1,1.3v.89h2.05V8.74c0-2-.65-3.35-3.13-3.35S10.21,6.91,10.21,9v6.5c0,2.06.91,3.56,3.27,3.56s3.31-1.3,3.31-3.36"/><path class="cls-2" d="M23.34,7.26V9.47h.34c.33,0,.47-.16.47-.46V7.71c0-.3-.14-.45-.47-.45Zm-.95-.77h1.4c.95,0,1.3.47,1.3,1.26V8.93c0,.79-.35,1.27-1.3,1.27h-.45v1.9h-.95Z"/><path class="cls-2" d="M26.28,10.32H27l-.37-2.25h0ZM25.1,12.1l1.06-5.61h1.07L28.3,12.1h-1l-.17-1h-1l-.17,1Z"/><polygon class="cls-2" points="29.6 11.33 31.03 11.33 31.03 12.1 28.62 12.1 28.62 11.33 30.1 7.26 28.77 7.26 28.77 6.49 31.09 6.49 31.09 7.26 29.6 11.33"/><polygon class="cls-2" points="32.55 11.27 32.07 12.54 31.55 12.54 31.66 11.2 32.55 11.2 32.55 11.27"/><path class="cls-2" d="M36.46,6.49v4.33c0,.82-.35,1.34-1.29,1.34s-1.25-.53-1.25-1.24V9.8h.9v1.13c0,.28.1.45.35.45s.35-.17.35-.46V6.49Z"/><path class="cls-2" d="M39.73,6.49v4.24c0,.87-.37,1.43-1.33,1.43A1.27,1.27,0,0,1,37,10.73V6.49h.95v4.33c0,.34.13.56.46.56s.46-.22.46-.56V6.49Z"/><path class="cls-2" d="M40.22,10.89v-.75h.87v.77c0,.31.14.49.47.49s.43-.19.43-.49v-.22a1,1,0,0,0-.43-.79L41,9.34a1.88,1.88,0,0,1-.79-1.49V7.66a1.18,1.18,0,0,1,1.33-1.24c.94,0,1.31.47,1.31,1.28v.45H42V7.66c0-.32-.15-.48-.44-.48a.42.42,0,0,0-.45.47v.11c0,.32.17.5.45.76l.6.6a1.9,1.9,0,0,1,.76,1.46v.27a1.21,1.21,0,0,1-1.37,1.31,1.16,1.16,0,0,1-1.33-1.27"/><polygon class="cls-2" points="43.18 6.49 45.69 6.49 45.69 7.26 44.91 7.26 44.91 12.1 43.96 12.1 43.96 7.26 43.18 7.26 43.18 6.49"/><rect class="cls-2" x="46.13" y="6.49" width="0.94" height="5.61"/><path class="cls-2" d="M47.61,10.65V7.94A1.33,1.33,0,0,1,49,6.42c1,0,1.33.58,1.33,1.41v.66h-.86V7.76c0-.35-.11-.55-.45-.55s-.48.24-.48.58v3c0,.34.14.58.48.58s.45-.22.45-.55v-1h.86v1c0,.8-.33,1.39-1.33,1.39a1.33,1.33,0,0,1-1.41-1.51"/><rect class="cls-2" x="50.86" y="6.49" width="0.94" height="5.61"/><path class="cls-2" d="M53.38,10.32h.76l-.37-2.25h0ZM52.2,12.1l1.06-5.61h1.08L55.4,12.1h-1l-.17-1h-1l-.17,1Z"/><polygon class="cls-2" points="22.39 14.34 24.64 14.34 24.64 15.11 23.34 15.11 23.34 16.72 24.27 16.72 24.27 17.48 23.34 17.48 23.34 19.18 24.64 19.18 24.64 19.95 22.39 19.95 22.39 14.34"/><rect class="cls-2" x="26.01" y="14.34" width="0.94" height="5.61"/><polygon class="cls-2" points="28.3 16.43 28.3 19.95 27.5 19.95 27.5 14.34 28.43 14.34 29.45 17.56 29.45 14.34 30.23 14.34 30.23 19.95 29.41 19.95 28.3 16.43"/><path class="cls-2" d="M30.72,18.74V18h.87v.77c0,.32.15.5.47.5s.43-.2.43-.5v-.21a1,1,0,0,0-.42-.8l-.56-.55a1.88,1.88,0,0,1-.78-1.5v-.19a1.17,1.17,0,0,1,1.32-1.23c.94,0,1.32.46,1.32,1.27V16h-.86v-.49q0-.48-.45-.48a.41.41,0,0,0-.45.46v.12c0,.31.18.49.45.76l.6.59a1.91,1.91,0,0,1,.76,1.46v.27A1.21,1.21,0,0,1,32.05,20a1.17,1.17,0,0,1-1.33-1.28"/><polygon class="cls-2" points="33.69 14.34 36.19 14.34 36.19 15.11 35.41 15.11 35.41 19.95 34.46 19.95 34.46 15.11 33.69 15.11 33.69 14.34"/><rect class="cls-2" x="36.63" y="14.34" width="0.94" height="5.61"/><polygon class="cls-2" points="38.01 14.34 40.52 14.34 40.52 15.11 39.74 15.11 39.74 19.95 38.79 19.95 38.79 15.11 38.01 15.11 38.01 14.34"/><path class="cls-2" d="M43.69,14.34v4.25c0,.87-.37,1.43-1.33,1.43A1.26,1.26,0,0,1,41,18.59V14.34h.94v4.34c0,.33.14.55.47.55s.46-.22.46-.55V14.34Z"/><path class="cls-2" d="M44.22,18.5V15.79a1.32,1.32,0,0,1,1.41-1.51c1,0,1.33.58,1.33,1.4v.67H46.1v-.74c0-.35-.11-.55-.45-.55s-.48.24-.48.58v3c0,.34.14.58.48.58s.45-.21.45-.54v-1H47v1c0,.8-.33,1.4-1.33,1.4a1.33,1.33,0,0,1-1.41-1.52"/><rect class="cls-2" x="47.47" y="14.34" width="0.94" height="5.61"/><path class="cls-2" d="M50.87,18.65v-3c0-.34-.15-.58-.49-.58s-.48.24-.48.58v3c0,.34.15.58.48.58s.49-.24.49-.58M49,18.5V15.79a1.43,1.43,0,1,1,2.86,0V18.5a1.43,1.43,0,1,1-2.86,0"/><polygon class="cls-2" points="53.15 16.43 53.15 19.95 52.35 19.95 52.35 14.34 53.28 14.34 54.3 17.56 54.3 14.34 55.08 14.34 55.08 19.95 54.25 19.95 53.15 16.43"/><polygon class="cls-2" points="55.62 14.34 57.87 14.34 57.87 15.11 56.56 15.11 56.56 16.72 57.49 16.72 57.49 17.48 56.56 17.48 56.56 19.18 57.87 19.18 57.87 19.95 55.62 19.95 55.62 14.34"/><path class="cls-2" d="M58.28,18.74V18h.87v.77c0,.32.15.5.47.5s.43-.2.43-.5v-.21a1,1,0,0,0-.42-.8l-.56-.55a1.88,1.88,0,0,1-.78-1.5v-.19a1.17,1.17,0,0,1,1.32-1.23c.94,0,1.32.46,1.32,1.27V16h-.86v-.49q0-.48-.45-.48a.41.41,0,0,0-.45.46v.12c0,.31.17.49.45.76l.6.59A1.91,1.91,0,0,1,61,18.43v.27A1.21,1.21,0,0,1,59.61,20a1.17,1.17,0,0,1-1.33-1.28"/><path class="cls-2" d="M22.34,26.6v-.75h.88v.76c0,.32.14.5.46.5s.43-.2.43-.5V26.4a1,1,0,0,0-.42-.79l-.55-.56a1.89,1.89,0,0,1-.79-1.5v-.19a1.17,1.17,0,0,1,1.33-1.23c.94,0,1.31.46,1.31,1.28v.45h-.86v-.49q0-.48-.45-.48a.41.41,0,0,0-.44.47v.11c0,.32.17.5.44.76l.61.6a1.88,1.88,0,0,1,.76,1.45v.28a1.21,1.21,0,0,1-1.37,1.31,1.17,1.17,0,0,1-1.34-1.27"/><path class="cls-2" d="M27.45,26.51v-3c0-.34-.15-.58-.48-.58s-.48.24-.48.58v3c0,.34.14.58.48.58s.48-.24.48-.58m.28-4.71L26.25,22v-.53l1.48-.31Zm-2.19,4.56V23.64a1.43,1.43,0,1,1,2.86,0v2.72a1.43,1.43,0,1,1-2.86,0"/><polygon class="cls-2" points="28.93 22.2 29.88 22.2 29.88 27.04 31 27.04 31 27.8 28.93 27.8 28.93 22.2"/><rect class="cls-2" x="31.43" y="22.2" width="0.94" height="5.61"/><path class="cls-2" d="M34.26,27c.39,0,.53-.24.53-.57V23.53c0-.33-.14-.56-.53-.56h-.4V27Zm1.48-3.34v2.6c0,.86-.36,1.51-1.37,1.51H32.92V22.2h1.45c1,0,1.37.63,1.37,1.5"/><path class="cls-2" d="M37.18,26h.76l-.38-2.25h0ZM36,27.81l1.06-5.61h1.07l1.07,5.61h-1l-.17-1h-1l-.17,1Z"/><path class="cls-2" d="M39.46,26.6v-.75h.87v.76c0,.32.14.5.47.5s.43-.2.43-.5V26.4a1,1,0,0,0-.43-.79l-.55-.56a1.89,1.89,0,0,1-.79-1.5v-.19a1.17,1.17,0,0,1,1.33-1.23c.94,0,1.31.46,1.31,1.28v.45h-.86v-.49c0-.32-.15-.48-.44-.48a.42.42,0,0,0-.45.47v.11c0,.32.17.5.45.76l.6.6a1.88,1.88,0,0,1,.76,1.45v.28a1.21,1.21,0,0,1-1.37,1.31,1.17,1.17,0,0,1-1.33-1.27"/></g></g></svg>