<svg xmlns="http://www.w3.org/2000/svg" viewBox="0 0 66.17 66.17"><defs><style>.cls-1{fill:#ea1c2d;}.cls-2{fill:#fff;}.cls-3{fill:none;stroke:#fff;stroke-linecap:round;stroke-miterlimit:10;stroke-width:0.73px;}</style></defs><title>Asset 17</title><g id="Layer_2" data-name="Layer 2"><g id="Layer_1-2" data-name="Layer 1"><rect class="cls-1" width="66.17" height="66.17"/><path class="cls-2" d="M51,31.57a1.83,1.83,0,1,1,1.83,1.83A1.83,1.83,0,0,1,51,31.57"/><path class="cls-2" d="M54.93,34.11a2.45,2.45,0,0,1,2.22,2.43v5.08a.71.71,0,0,1-1.42,0V37.26c0-.17,0-.39-.35-.39s-.25.22-.26.36V50.3a1,1,0,1,1-2,0V42.77a.28.28,0,0,0-.29-.3h0a.28.28,0,0,0-.29.3V50.3a1,1,0,0,1-2,0V37.23c0-.14-.06-.36-.26-.36s-.35.22-.35.39v4.36a.71.71,0,0,1-1.42,0V36.54a2.45,2.45,0,0,1,2.22-2.43h4.28"/><path class="cls-2" d="M40.07,32.53a1.74,1.74,0,1,0-1.74,1.74,1.73,1.73,0,0,0,1.74-1.74"/><path class="cls-2" d="M34.84,36.46l-1.45,4.7s-.25.86.48,1.07.94-.62.94-.62L36,37.69s.06-.3.29-.24.14.39.14.39l-2,7.34h1.89v5.26a.9.9,0,1,0,1.8,0V45.18h.52v5.26a.91.91,0,0,0,1.81,0V45.18h1.88l-2-7.34s-.08-.32.15-.39.29.24.29.24l1.16,3.92s.22.84.94.62.48-1.07.48-1.07l-1.44-4.7s-.52-1.36-1.66-1.36H36.49c-1.14,0-1.65,1.36-1.65,1.36"/><path class="cls-2" d="M29.68,32.53a1.74,1.74,0,1,0-1.74,1.74,1.73,1.73,0,0,0,1.74-1.74"/><path class="cls-2" d="M24.45,36.46,23,41.16s-.26.86.47,1.07.94-.62.94-.62l1.17-3.92s.06-.3.29-.24.14.39.14.39l-2,7.34h1.88v5.26a.9.9,0,0,0,1.8,0V45.18h.52v5.26a.91.91,0,0,0,1.81,0V45.18h1.88l-2-7.34s-.09-.32.14-.39.29.24.29.24l1.16,3.92s.22.84.94.62.48-1.07.48-1.07l-1.44-4.7s-.52-1.36-1.66-1.36H26.1c-1.14,0-1.65,1.36-1.65,1.36"/><path class="cls-2" d="M45.89,42.24a1.45,1.45,0,1,0-1.44-1.44,1.44,1.44,0,0,0,1.44,1.44"/><path class="cls-2" d="M42.43,46.73a.5.5,0,0,0,.21.68.48.48,0,0,0,.62-.2L44,44.7s.14-.16.14,0V50.6h0a.74.74,0,0,0,1.48,0V48.28s0-.33.23-.33.22.33.22.33V50.6a.74.74,0,0,0,.74.74.75.75,0,0,0,.75-.74V44.71c0-.17.09-.05.09-.05l.61,1.71a4.15,4.15,0,0,0,.35.8.55.55,0,0,0,.72-.29.58.58,0,0,0-.06-.53h0c0-.06-.92-2.27-1-2.58-.33-1-.92-.94-1.49-1s-.91,0-.91,0-.37,0-1.12,0-1,.41-1.82,2.54c-.12.31-.52,1.3-.53,1.36Z"/><path class="cls-2" d="M14.18,31.57a1.83,1.83,0,1,0-1.83,1.83,1.83,1.83,0,0,0,1.83-1.83"/><path class="cls-2" d="M10.21,34.11A2.45,2.45,0,0,0,8,36.54v5.08a.72.72,0,0,0,1.43,0V37.26c0-.17,0-.39.34-.39s.25.22.26.36V50.3a1,1,0,0,0,2,0V42.77a.28.28,0,0,1,.29-.3.29.29,0,0,1,.3.3V50.3a1,1,0,1,0,2,0V37.23c0-.14.05-.36.25-.36s.35.22.35.39v4.36a.71.71,0,0,0,1.42,0V36.54a2.45,2.45,0,0,0-2.22-2.43H10.21"/><line class="cls-3" x1="8.64" y1="42.33" x2="6.96" y2="51"/><path class="cls-2" d="M17.58,41.48a.55.55,0,0,0-.45-.24.52.52,0,0,0-.52.52.89.89,0,0,0,.05.23l1.45,2.64a.91.91,0,0,1,.09.34v5.66h0a.71.71,0,1,0,1.42,0V48.4s0-.32.21-.32.22.32.22.32v2.23a.71.71,0,0,0,1.42,0V45a.91.91,0,0,1,.09-.34l1.35-2.43a2.34,2.34,0,0,0,.16-.44.53.53,0,0,0-1-.28h0a16,16,0,0,1-.94,1.46.55.55,0,0,1-.44.21H19a.58.58,0,0,1-.45-.21c-.22-.22-.89-1.42-.94-1.46Z"/><path class="cls-2" d="M19.84,42.24A1.45,1.45,0,1,0,18.4,40.8a1.45,1.45,0,0,0,1.44,1.44"/><polygon class="cls-2" points="19.84 44.27 21.48 45.46 22.25 48.31 19.84 48.31 17.44 48.31 18.21 45.46 19.84 44.27"/><polygon class="cls-2" points="9.24 8.7 9.26 8.7 9.26 18.92 11.5 18.92 11.5 5.57 9.71 5.57 7.64 8 7.64 10.34 7.66 10.34 9.24 8.7"/><polygon class="cls-2" points="15.64 5.6 17.85 5.6 17.85 6.37 16.58 6.37 16.58 7.98 17.53 7.98 17.53 8.74 16.58 8.74 16.58 11.21 15.64 11.21 15.64 5.6"/><rect class="cls-2" x="18.26" y="5.6" width="0.94" height="5.61"/><polygon class="cls-2" points="20.54 7.69 20.54 11.21 19.75 11.21 19.75 5.6 20.68 5.6 21.69 8.82 21.69 5.6 22.48 5.6 22.48 11.21 21.65 11.21 20.54 7.69"/><path class="cls-2" d="M17,18.29c.39,0,.54-.23.54-.57V14.79a.5.5,0,0,0-.54-.57h-.4v4.07ZM18.46,15v2.6c0,.86-.35,1.5-1.36,1.5H15.64v-5.6H17.1c1,0,1.36.63,1.36,1.5"/><polygon class="cls-2" points="19 13.46 21.25 13.46 21.25 14.22 19.94 14.22 19.94 15.83 20.88 15.83 20.88 16.59 19.94 16.59 19.94 18.29 21.25 18.29 21.25 19.06 19 19.06 19 13.46"/><polygon class="cls-2" points="22.62 13.46 23.56 13.46 23.56 18.29 24.69 18.29 24.69 19.06 22.62 19.06 22.62 13.46"/><path class="cls-2" d="M26.15,17.29h.75L26.53,15h0ZM25,19.06,26,13.46H27.1l1.07,5.6h-1L27,18H26l-.16,1Z"/><path class="cls-2" d="M30.36,14.22v2.21h.35a.4.4,0,0,0,.46-.46V14.68a.4.4,0,0,0-.46-.46Zm-.94-.76h1.4c.95,0,1.3.47,1.3,1.25V15.9c0,.78-.35,1.26-1.3,1.26h-.46v1.9h-.94Z"/><path class="cls-2" d="M34.51,17.76v-3c0-.34-.14-.58-.48-.58s-.48.24-.48.58v3c0,.34.15.58.48.58s.48-.24.48-.58m-1.91-.14V14.9a1.43,1.43,0,1,1,2.86,0v2.72a1.43,1.43,0,1,1-2.86,0"/><path class="cls-2" d="M36.94,16.54v1.75h.41a.4.4,0,0,0,.46-.45V17c0-.3-.14-.46-.47-.46Zm0-.72h.33a.39.39,0,0,0,.44-.45v-.69c0-.31-.14-.46-.45-.46h-.32ZM36,13.46h1.37c.94,0,1.25.43,1.25,1.23v.57a.81.81,0,0,1-.56.89.86.86,0,0,1,.71.94v.74c0,.79-.36,1.23-1.3,1.23H36Z"/><path class="cls-2" d="M40.17,14.22V16h.31a.42.42,0,0,0,.47-.46v-.83c0-.31-.15-.46-.47-.46Zm0,2.27v2.57h-1V13.45H40.6c.95,0,1.3.48,1.3,1.26v.72c0,.61-.22,1-.76,1.09l.91,2.54h-1Z"/><polygon class="cls-2" points="42.41 13.46 44.66 13.46 44.66 14.22 43.35 14.22 43.35 15.83 44.28 15.83 44.28 16.59 43.35 16.59 43.35 18.29 44.66 18.29 44.66 19.06 42.41 19.06 42.41 13.46"/><polygon class="cls-2" points="46.08 18.29 47.51 18.29 47.51 19.06 45.09 19.06 45.09 18.29 46.57 14.22 45.24 14.22 45.24 13.46 47.57 13.46 47.57 14.22 46.08 18.29"/><path class="cls-2" d="M49.05,17.29h.76L49.43,15h0Zm-1.18,1.77,1.06-5.6H50l1.06,5.6h-1l-.17-1h-1l-.17,1Z"/></g></g></svg>