<svg xmlns="http://www.w3.org/2000/svg" viewBox="0 0 66.17 66.17"><defs><style>.cls-1{fill:#40ae49;}.cls-2{fill:#fff;}</style></defs><title>Asset 3</title><g id="Layer_2" data-name="Layer 2"><g id="Layer_1-2" data-name="Layer 1"><rect class="cls-1" width="66.17" height="66.17"/><rect class="cls-2" x="26.48" y="46.07" width="2.02" height="4.6" rx="0.13"/><path class="cls-2" d="M47.65,52.53H18.72a.14.14,0,0,0-.14.14v1.77a.13.13,0,0,0,.14.13H47.65a.13.13,0,0,0,.13-.13V52.67a.14.14,0,0,0-.13-.14"/><path class="cls-2" d="M47.65,56.05H18.72a.13.13,0,0,0-.14.13V58a.13.13,0,0,0,.14.13H47.65a.13.13,0,0,0,.13-.13V56.18a.13.13,0,0,0-.13-.13"/><path class="cls-2" d="M42.15,41.26a4.34,4.34,0,0,0-2.51-.94,3.32,3.32,0,0,0-2.32,1,.25.25,0,0,0-.08.18v.16a.28.28,0,0,0,.08.2.26.26,0,0,0,.21,0h0a.38.38,0,0,0,.15-.09,2.34,2.34,0,0,1,1.16-.24,4.37,4.37,0,0,1,3,1.25l0,0a.35.35,0,0,0,.26.1.31.31,0,0,0,.24-.1l0,0a4.39,4.39,0,0,1,3-1.25,2.34,2.34,0,0,1,1.16.24.49.49,0,0,0,.16.1.47.47,0,0,0,.17,0,.25.25,0,0,0,.18-.24v-.14a.31.31,0,0,0-.07-.18,3.38,3.38,0,0,0-2.36-1,4.26,4.26,0,0,0-2.49.94"/><path class="cls-2" d="M40.35,29.73a.27.27,0,0,0-.13.15l0,.1a.24.24,0,0,0,0,.22.27.27,0,0,0,.18.1h0a.25.25,0,0,0,.14,0,1.09,1.09,0,0,1,.17,0,2.51,2.51,0,0,1,2.07,1.35v0a.29.29,0,0,0,.19.15h.09a.29.29,0,0,0,.14,0h0a2.89,2.89,0,0,1,1.29-.32,2,2,0,0,1,1.32.42.52.52,0,0,0,.1.11l.09,0h.07l.12,0a.24.24,0,0,0,.12-.14l0-.09a.17.17,0,0,0,0-.07.21.21,0,0,0,0-.12,2.17,2.17,0,0,0-2-1.18,3.11,3.11,0,0,0-1,.19,2.53,2.53,0,0,0-2-1.09,2.44,2.44,0,0,0-1.09.27"/><path class="cls-2" d="M34.24,34.18v.13a.25.25,0,0,0,.12.2.24.24,0,0,0,.2,0h0a.29.29,0,0,0,.12-.1,2.14,2.14,0,0,1,1.11-.25,3.54,3.54,0,0,1,2.28.87l0,0a.4.4,0,0,0,.23.08h0a.34.34,0,0,0,.23-.11l0,0a3.46,3.46,0,0,1,2.53-1.17,1.75,1.75,0,0,1,.76.14.53.53,0,0,0,.15.08h.16a.26.26,0,0,0,.17-.25V33.7a.23.23,0,0,0-.09-.18,2.82,2.82,0,0,0-1.85-.72,3.46,3.46,0,0,0-2.16.89,3.64,3.64,0,0,0-1.93-.64,2.78,2.78,0,0,0-2.06,1,.25.25,0,0,0-.06.18"/><path class="cls-2" d="M19.59,36.51a3.14,3.14,0,0,1,3.14-3.14h.2a4.24,4.24,0,0,1,8.47.32A4.09,4.09,0,0,1,31,35.55a4.74,4.74,0,0,1-1,9.37l-6.33,0a3.36,3.36,0,0,1-2.45-5.66,3.14,3.14,0,0,1-1.58-2.72"/><polygon class="cls-2" points="5.28 7.96 5.28 10.3 5.3 10.3 6.88 8.67 6.89 8.67 6.89 18.88 9.14 18.88 9.14 5.54 7.35 5.54 5.28 7.96"/><path class="cls-2" d="M14.47,9.77a2,2,0,0,0-1.89.92h0V7.37h3.86V5.54h-5.9v7.52h2v-.3c0-.79.36-1.22,1-1.22s1,.47,1,1.2V16c0,.71-.25,1.2-.94,1.2s-1.05-.51-1.05-1.3V14.2h-2v1.51c0,2,.8,3.33,3.09,3.33s3.18-1.2,3.18-3V12.72c0-2.1-1.08-3-2.28-3"/><polygon class="cls-2" points="25.11 6.49 24.05 12.1 23.02 12.1 21.95 6.49 22.91 6.49 23.56 10.4 23.57 10.4 24.23 6.49 25.11 6.49"/><rect class="cls-2" x="25.38" y="6.49" width="0.94" height="5.61"/><path class="cls-2" d="M28.08,11.33c.39,0,.54-.23.54-.57V7.82a.49.49,0,0,0-.54-.56h-.4v4.07ZM29.56,8v2.59c0,.86-.36,1.51-1.37,1.51H26.74V6.49h1.45c1,0,1.37.64,1.37,1.51"/><path class="cls-2" d="M30.88,10.32h.75l-.37-2.25h0ZM29.7,12.1l1.06-5.61h1.07L32.9,12.1h-1l-.17-1h-1l-.17,1Z"/><path class="cls-2" d="M23.43,18.77c.39,0,.54-.23.54-.57V15.26a.49.49,0,0,0-.54-.56H23v4.07Zm1.48-3.33V18c0,.86-.35,1.51-1.36,1.51H22.09V13.93h1.46c1,0,1.36.64,1.36,1.51"/><polygon class="cls-2" points="25.33 13.93 27.58 13.93 27.58 14.7 26.27 14.7 26.27 16.3 27.2 16.3 27.2 17.07 26.27 17.07 26.27 18.77 27.58 18.77 27.58 19.54 25.33 19.54 25.33 13.93"/><polygon class="cls-2" points="28.7 13.93 30.95 13.93 30.95 14.7 29.64 14.7 29.64 16.3 30.58 16.3 30.58 17.07 29.64 17.07 29.64 18.77 30.95 18.77 30.95 19.54 28.7 19.54 28.7 13.93"/><path class="cls-2" d="M31.24,18.09V15.38a1.32,1.32,0,0,1,1.41-1.51c1,0,1.33.57,1.33,1.4v.66h-.86V15.2c0-.35-.11-.55-.45-.55s-.48.24-.48.58v3c0,.34.14.58.48.58s.45-.22.45-.55v-1H34v1c0,.8-.33,1.4-1.33,1.4a1.33,1.33,0,0,1-1.41-1.52"/><path class="cls-2" d="M36.28,18.24v-3c0-.34-.15-.58-.49-.58s-.48.24-.48.58v3c0,.34.15.58.48.58s.49-.24.49-.58m-1.91-.15V15.38a1.43,1.43,0,1,1,2.85,0v2.71a1.43,1.43,0,1,1-2.85,0"/><path class="cls-2" d="M37.58,18.33v-.75h.88v.77c0,.31.14.49.46.49s.43-.19.43-.49v-.22a1,1,0,0,0-.42-.79l-.55-.56a1.87,1.87,0,0,1-.79-1.49V15.1a1.17,1.17,0,0,1,1.33-1.23c.94,0,1.31.46,1.31,1.27v.45h-.86v-.48c0-.33-.15-.48-.45-.48a.41.41,0,0,0-.44.46v.12c0,.31.17.49.44.76l.61.59A1.9,1.9,0,0,1,40.29,18v.27a1.21,1.21,0,0,1-1.37,1.32,1.18,1.18,0,0,1-1.34-1.28"/><rect class="cls-2" x="40.66" y="13.93" width="0.94" height="5.61"/><path class="cls-2" d="M42,18.33v-.75h.88v.77c0,.31.14.49.46.49s.43-.19.43-.49v-.22a1,1,0,0,0-.42-.79l-.55-.56A1.87,1.87,0,0,1,42,15.29V15.1a1.17,1.17,0,0,1,1.33-1.23c.94,0,1.31.46,1.31,1.27v.45h-.86v-.48c0-.33-.15-.48-.45-.48a.41.41,0,0,0-.44.46v.12c0,.31.17.49.44.76l.61.59A1.9,1.9,0,0,1,44.68,18v.27a1.21,1.21,0,0,1-1.37,1.32A1.18,1.18,0,0,1,42,18.33"/><polygon class="cls-2" points="44.82 13.93 47.32 13.93 47.32 14.7 46.55 14.7 46.55 19.54 45.59 19.54 45.59 14.7 44.82 14.7 44.82 13.93"/><polygon class="cls-2" points="47.64 13.93 49.89 13.93 49.89 14.7 48.58 14.7 48.58 16.3 49.52 16.3 49.52 17.07 48.58 17.07 48.58 18.77 49.89 18.77 49.89 19.54 47.64 19.54 47.64 13.93"/><polygon class="cls-2" points="52.86 15.9 52.84 15.9 52.2 19.54 51.76 19.54 51.06 15.9 51.04 15.9 51.04 19.54 50.27 19.54 50.27 13.93 51.37 13.93 51.98 17.09 51.99 17.09 52.53 13.93 53.72 13.93 53.72 19.54 52.86 19.54 52.86 15.9"/><path class="cls-2" d="M55.17,17.76h.75l-.37-2.25h0ZM54,19.54l1-5.61h1.08l1.07,5.61h-1l-.17-1H55l-.16,1Z"/><path class="cls-2" d="M57.32,18.33v-.75h.87v.77c0,.31.14.49.47.49s.43-.19.43-.49v-.22a1,1,0,0,0-.43-.79l-.55-.56a1.87,1.87,0,0,1-.79-1.49V15.1a1.17,1.17,0,0,1,1.33-1.23c.94,0,1.31.46,1.31,1.27v.45H59.1v-.48c0-.33-.15-.48-.44-.48a.41.41,0,0,0-.45.46v.12c0,.31.17.49.45.76l.6.59A1.9,1.9,0,0,1,60,18v.27a1.21,1.21,0,0,1-1.37,1.32,1.17,1.17,0,0,1-1.33-1.28"/><polygon class="cls-2" points="21.99 21.37 24.49 21.37 24.49 22.14 23.71 22.14 23.71 26.98 22.76 26.98 22.76 22.14 21.99 22.14 21.99 21.37"/><polygon class="cls-2" points="24.8 21.37 27.05 21.37 27.05 22.14 25.75 22.14 25.75 23.75 26.68 23.75 26.68 24.51 25.75 24.51 25.75 26.21 27.05 26.21 27.05 26.98 24.8 26.98 24.8 21.37"/><path class="cls-2" d="M28.38,22.14v1.75h.31a.41.41,0,0,0,.46-.47v-.83c0-.3-.14-.45-.46-.45Zm0,2.27V27h-.95V21.37h1.38c1,0,1.3.47,1.3,1.26v.72c0,.6-.22,1-.76,1.08l.9,2.55h-1Z"/><path class="cls-2" d="M31.43,22.14v1.75h.32a.41.41,0,0,0,.46-.47v-.83c0-.3-.14-.45-.46-.45Zm0,2.27V27h-.94V21.37h1.37c1,0,1.3.47,1.3,1.26v.72c0,.6-.21,1-.75,1.08l.9,2.55h-1Z"/><polygon class="cls-2" points="33.55 21.37 35.8 21.37 35.8 22.14 34.49 22.14 34.49 23.75 35.43 23.75 35.43 24.51 34.49 24.51 34.49 26.21 35.8 26.21 35.8 26.98 33.55 26.98 33.55 21.37"/><path class="cls-2" d="M36.09,25.77V25H37v.77c0,.31.14.49.46.49s.43-.19.43-.49v-.22a1,1,0,0,0-.42-.79l-.56-.56a1.86,1.86,0,0,1-.78-1.49v-.19a1.16,1.16,0,0,1,1.32-1.23c.94,0,1.32.46,1.32,1.27V23h-.87v-.48c0-.33-.14-.48-.44-.48a.41.41,0,0,0-.45.46v.12c0,.31.18.49.45.76L38,24a1.9,1.9,0,0,1,.76,1.46v.27a1.21,1.21,0,0,1-1.37,1.32,1.17,1.17,0,0,1-1.33-1.28"/><polygon class="cls-2" points="38.93 21.37 41.44 21.37 41.44 22.14 40.66 22.14 40.66 26.98 39.71 26.98 39.71 22.14 38.93 22.14 38.93 21.37"/><path class="cls-2" d="M42.69,22.14v1.75H43a.41.41,0,0,0,.46-.47v-.83c0-.3-.14-.45-.46-.45Zm0,2.27V27h-.94V21.37h1.37c1,0,1.3.47,1.3,1.26v.72c0,.6-.21,1-.75,1.08l.9,2.55h-1Z"/><polygon class="cls-2" points="44.81 21.37 47.06 21.37 47.06 22.14 45.75 22.14 45.75 23.75 46.69 23.75 46.69 24.51 45.75 24.51 45.75 26.21 47.06 26.21 47.06 26.98 44.81 26.98 44.81 21.37"/><path class="cls-2" d="M47.35,25.77V25h.87v.77c0,.31.14.49.47.49s.43-.19.43-.49v-.22a1,1,0,0,0-.42-.79l-.56-.56a1.86,1.86,0,0,1-.78-1.49v-.19a1.16,1.16,0,0,1,1.32-1.23c.94,0,1.31.46,1.31,1.27V23h-.86v-.48c0-.33-.14-.48-.44-.48a.41.41,0,0,0-.45.46v.12c0,.31.17.49.45.76l.6.59a1.9,1.9,0,0,1,.76,1.46v.27a1.21,1.21,0,0,1-1.37,1.32,1.17,1.17,0,0,1-1.33-1.28"/></g></g></svg>