<svg xmlns="http://www.w3.org/2000/svg" viewBox="0 0 66.17 66.17"><defs><style>.cls-1{fill:#c22033;}.cls-2{fill:#fff;}</style></defs><title>Asset 14</title><g id="Layer_2" data-name="Layer 2"><g id="Layer_1-2" data-name="Layer 1"><rect class="cls-1" width="66.17" height="66.17"/><polygon class="cls-2" points="29.35 35.48 17.48 28.63 17.48 50.8 29.35 54.38 29.35 35.48"/><polygon class="cls-2" points="30.66 35.53 30.66 54.38 42.6 50.79 42.6 28.63 30.66 35.53"/><polygon class="cls-2" points="49.46 50.4 49.11 50.4 50.51 55.31 51.91 50.4 51.57 50.4 51.91 50.4 51.91 30.68 51.57 30.68 51.22 30.68 50.85 30.68 50.15 30.68 49.81 30.68 49.46 30.68 49.11 30.68 49.11 50.4 49.46 50.4"/><polygon class="cls-2" points="45.15 29.58 43.88 28.57 43.88 51.4 30.69 55.66 30.08 55.66 29.96 55.66 29.35 55.66 16.22 51.99 16.22 28.57 14.95 29.58 14.95 52.88 29.29 56.85 29.96 56.85 30.08 56.85 30.75 56.85 43.98 52.65 45.15 52.31 45.15 29.58"/><path class="cls-2" d="M51.92,28.07a1.41,1.41,0,1,0-2.81,0v1.51h2.81Z"/><path class="cls-2" d="M8.39,15l2-5.49h0V15Zm2,3.92H12.5V16.72h.91V15H12.5V5.55H10.3l-3.88,9.8v1.37h4Z"/><polygon class="cls-2" points="19.16 5.6 21.41 5.6 21.41 6.37 20.1 6.37 20.1 7.98 21.03 7.98 21.03 8.74 20.1 8.74 20.1 10.44 21.41 10.44 21.41 11.21 19.16 11.21 19.16 5.6"/><path class="cls-2" d="M23.25,10.44c.39,0,.53-.23.53-.57V6.93c0-.33-.14-.56-.53-.56h-.4v4.07Zm1.48-3.33V9.7c0,.86-.36,1.51-1.37,1.51H21.91V5.6h1.45c1,0,1.37.64,1.37,1.51"/><path class="cls-2" d="M28,5.6V9.84c0,.87-.37,1.44-1.33,1.44a1.28,1.28,0,0,1-1.41-1.44V5.6h.95V9.94c0,.33.13.55.46.55s.46-.22.46-.55V5.6Z"/><path class="cls-2" d="M28.54,9.76V7.05c0-.88.41-1.51,1.4-1.51s1.33.57,1.33,1.4V7.6h-.86V6.87c0-.35-.11-.55-.45-.55s-.48.24-.48.58v3c0,.34.14.58.48.58s.45-.21.45-.55v-1h.86v1c0,.8-.33,1.4-1.33,1.4s-1.4-.65-1.4-1.52"/><path class="cls-2" d="M32.74,9.43h.75l-.37-2.25h0Zm-1.19,1.78L32.61,5.6h1.08l1.07,5.61h-1l-.18-1h-1l-.16,1Z"/><path class="cls-2" d="M35,9.76V7.05c0-.88.41-1.51,1.4-1.51s1.34.57,1.34,1.4V7.6H36.9V6.87c0-.35-.12-.55-.46-.55S36,6.56,36,6.9v3c0,.34.14.58.48.58s.46-.21.46-.55v-1h.86v1c0,.8-.34,1.4-1.34,1.4S35,10.63,35,9.76"/><rect class="cls-2" x="38.27" y="5.6" width="0.94" height="5.61"/><path class="cls-2" d="M41.67,9.91v-3c0-.34-.15-.58-.49-.58s-.48.24-.48.58v3c0,.34.15.58.48.58s.49-.24.49-.58M42,5.2l-1.48.2V4.87L42,4.55Zm-2.2,4.56V7.05a1.43,1.43,0,1,1,2.86,0V9.76a1.43,1.43,0,1,1-2.86,0"/><polygon class="cls-2" points="43.94 7.69 43.94 11.21 43.14 11.21 43.14 5.6 44.07 5.6 45.09 8.82 45.09 5.6 45.87 5.6 45.87 11.21 45.05 11.21 43.94 7.69"/><path class="cls-2" d="M20.49,18.29c.39,0,.54-.23.54-.57V14.79a.5.5,0,0,0-.54-.57H20.1v4.07ZM22,15v2.6c0,.86-.35,1.5-1.36,1.5H19.15v-5.6h1.46c1,0,1.36.63,1.36,1.5"/><polygon class="cls-2" points="22.51 13.46 24.76 13.46 24.76 14.22 23.45 14.22 23.45 15.83 24.39 15.83 24.39 16.59 23.45 16.59 23.45 18.29 24.76 18.29 24.76 19.06 22.51 19.06 22.51 13.46"/><path class="cls-2" d="M26.13,17.62V14.9a1.33,1.33,0,0,1,1.41-1.51c1,0,1.33.58,1.33,1.4v.67H28v-.74c0-.35-.12-.55-.46-.55s-.48.24-.48.58v3c0,.34.15.58.48.58s.46-.21.46-.54v-1h.86v1c0,.8-.33,1.4-1.33,1.4a1.33,1.33,0,0,1-1.41-1.51"/><path class="cls-2" d="M30.33,17.29h.75L30.71,15h0Zm-1.18,1.77,1.06-5.6h1.07l1.07,5.6h-1l-.17-1h-1l-.17,1Z"/><polygon class="cls-2" points="32.74 13.46 33.68 13.46 33.68 18.29 34.8 18.29 34.8 19.06 32.74 19.06 32.74 13.46"/><rect class="cls-2" x="35.23" y="13.45" width="0.94" height="5.61"/><path class="cls-2" d="M38.06,18.29c.39,0,.54-.23.54-.57V14.79a.5.5,0,0,0-.54-.57h-.4v4.07ZM39.54,15v2.6c0,.86-.35,1.5-1.36,1.5H36.72v-5.6h1.46c1,0,1.36.63,1.36,1.5"/><path class="cls-2" d="M41,17.29h.75L41.37,15h0ZM39.8,19.06l1.06-5.6h1.08L43,19.06H42l-.18-1h-1l-.16,1Z"/><path class="cls-2" d="M44.73,18.29c.39,0,.54-.23.54-.57V14.79a.5.5,0,0,0-.54-.57h-.4v4.07ZM46.21,15v2.6c0,.86-.35,1.5-1.36,1.5H43.39v-5.6h1.46c1,0,1.36.63,1.36,1.5"/></g></g></svg>