<svg xmlns="http://www.w3.org/2000/svg" viewBox="0 0 66.17 66.17"><defs><style>.cls-1{fill:#48773c;}.cls-2{fill:#fff;}</style></defs><title>Asset 5</title><g id="Layer_2" data-name="Layer 2"><g id="Layer_1-2" data-name="Layer 1"><rect class="cls-1" width="66.17" height="66.17"/><path class="cls-2" d="M43.59,43.84c-.27-.08-1.42-1.66-.51-2.7.15-.17-.3-.68-.18-.69a.83.83,0,0,1,.89.71c0,.2,0,.4,0,.6a10.19,10.19,0,0,1-.22,2.08M40.8,49a2.08,2.08,0,0,1-.32-.12c-.56-.29-.49.17-.77.07s.31-.74-.51-.2-.6-.09-1-1a1.85,1.85,0,0,1,1.06-2.18,14.2,14.2,0,0,1,1.85-.49c1.23-.3,1.49-1,1.71-.59l.12.24a1.72,1.72,0,0,1,.16.66A10.37,10.37,0,0,1,40.8,49m-7.21,3a10.48,10.48,0,0,1-2.87-.41.43.43,0,0,1-.12-.5,2.27,2.27,0,0,1,2-1.22c1.66-.16,3.83,1.07,4.18.88s1-1.11,2.07-1.08a1.59,1.59,0,0,1,.93.24A10.15,10.15,0,0,1,33.59,52m-1.38-6.66c-.14.23-.53,1.95-.79,1.75s.11-2,.18-2.13c.41-.74,1.28-.7.61.38m4.17-2a.93.93,0,0,1-1-.08c-.26-.2.16-.53.32-.55.34,0,.86.45.66.63m4.5,0c-.11,0-.2-.14-.29-.39a.24.24,0,0,1,.34-.3,1,1,0,0,1,.48.59c0,.17-.41.15-.53.1m.44.32c.34,0,.86.44.65.63a.91.91,0,0,1-1-.09c-.26-.2.16-.53.32-.54m-11,4.07A3.06,3.06,0,0,1,29.74,49a2.15,2.15,0,0,1-1.4.53c-.46,0-.53-1.28-.53-1.91,0-.22-.31.43-.47-.9-.1-.85-.65.09-.69-.47s-.31-.46-.6-.81-.64,0-1,.21-.24.27-.8.09h0a10.27,10.27,0,0,1-.8-4c0-.35,0-.69.05-1a.36.36,0,0,1,.07-.1c.54-.64.52-.79.52-.79l.6-.2a9.7,9.7,0,0,1,1.67.41c.6.23,1.53.73,2.07.51s.7-.38.66-.71-.36-.5-.76-.23c-.14.1-.45-.61-.69-.58s.3.85.1.88-.62-.84-.69-1-.39-.5-.67-.23c-.6.57-1.58.54-1.78.69-.6.44-.75-.15-.74-.51,0-.09.05-.17.07-.25A1.22,1.22,0,0,1,25,38.52c.27.18.45,0,.56-.15a.38.38,0,0,0,0-.42c-.07-.14.13-.24.27-.28a5.55,5.55,0,0,0,.77-.46,2.6,2.6,0,0,1,1.55,0,.82.82,0,0,0,1-.2,2.82,2.82,0,0,1,.74-.62c.15-.07-.36-.55-.78,0s-.64.57-.84.57-1.38-.29-1.52-.67.37-.65.8-.86a10.6,10.6,0,0,1,1.93-.27c.62-.14,1.41-.45,1.81-.18s-1.66.74-1,1.1c.25.14,1.34-.62,1.71-.82.88-.45-.85-.6-.63-1.52s-2.12-.64-3.3-.55a10.1,10.1,0,0,1,5.49-1.61,10.21,10.21,0,0,1,9.93,7.83,1.35,1.35,0,0,1-.05.47.66.66,0,0,1-1.19.09c-.1-.15-.54-.56-.53.15s.69.78,0,1.2a2.5,2.5,0,0,1-1.08.43,1.4,1.4,0,0,0-.52,1.23c.08.39,1,1.45.32,1.41A4,4,0,0,1,38.92,43c-.21-.57-.44-1.12-.61-1.55a.61.61,0,0,0-1-.28c-.36.25.1.5-.16,1s-.45,1-.83.57c-1-1.15-2.44-.58-2.67-1.85-.12-.69-.72-.63-1.21-1s-.78-.6-.86-.32,1.56,1.55,1.67,1.88c.18.49-.49.93-1,1s-.7-.27-1.17-.76-.69-.85-.72-.46a2.21,2.21,0,0,0,.94,1.69c.41.26.87.38.74.81s0,.18-.47.64a1.26,1.26,0,0,0-.52,1.24c0,.64-.13.68-.23,1.21s-.33.07-.53.85M24.88,36.43l.05-.06a1.35,1.35,0,0,1,.81-.29c.25,0,.59.08.63.25s-.64.48-.76.59c-.36.33-.91,1-1.23,1.06a.36.36,0,0,1-.26,0,9.38,9.38,0,0,1,.76-1.52m.52-1c.13-.19.57-.75.62-.82a.85.85,0,0,1,.5-.2c.15,0,.36.06.39.18a1.44,1.44,0,0,1-.14.65,1.67,1.67,0,0,1-1.08.48c-.24,0-.33-.22-.29-.29m32.46,6a30.26,30.26,0,0,0-48.57,0,2.78,2.78,0,0,0-.19.27,2.78,2.78,0,0,0,.19.27,30.26,30.26,0,0,0,48.57,0,2.78,2.78,0,0,0,.19-.27,2.78,2.78,0,0,0-.19-.27"/><polygon class="cls-2" points="8.35 5.55 8.35 18.89 6.11 18.89 6.11 8.68 6.09 8.68 4.52 10.31 4.5 10.31 4.5 7.97 6.56 5.55 8.35 5.55"/><path class="cls-2" d="M15.75,8.44V9.6a2.14,2.14,0,0,1-1.54,2.17A2.05,2.05,0,0,1,15.87,14v2c0,1.84-1,3-3.25,3s-3.09-1.29-3.09-3.32V14h2.05v1.91c0,.79.27,1.3,1,1.3s1-.5,1-1.2V13.77c0-.71-.31-1.08-1.1-1.08h-.94V11h.84c.73,0,1.2-.37,1.2-1.08V8.46c0-.73-.25-1.2-1-1.2s-1,.47-1,1.3V9.92h-2V8.74c0-2,.81-3.35,3.13-3.35,2.06,0,3,1.17,3,3.05"/><path class="cls-2" d="M21.79,10.32h.75l-.37-2.25h0ZM20.61,12.1l1.06-5.61h1.07l1.07,5.61h-1l-.17-1h-1l-.17,1Z"/><path class="cls-2" d="M24.07,10.65V7.94c0-.88.41-1.51,1.41-1.51s1.33.57,1.33,1.4v.66H26V7.76c0-.35-.12-.55-.46-.55s-.48.24-.48.58v3c0,.34.14.58.48.58s.46-.22.46-.55v-1h.86v1c0,.8-.33,1.4-1.33,1.4a1.33,1.33,0,0,1-1.41-1.52"/><path class="cls-2" d="M27.32,10.65V7.94c0-.88.41-1.51,1.41-1.51s1.33.57,1.33,1.4v.66H29.2V7.76c0-.35-.12-.55-.46-.55s-.48.24-.48.58v3c0,.34.14.58.48.58s.46-.22.46-.55v-1h.86v1c0,.8-.33,1.4-1.33,1.4a1.33,1.33,0,0,1-1.41-1.52"/><rect class="cls-2" x="30.57" y="6.49" width="0.94" height="5.61"/><path class="cls-2" d="M34,10.8v-3c0-.34-.15-.58-.49-.58s-.48.24-.48.58v3c0,.34.15.58.48.58s.49-.24.49-.58m.28-4.71-1.48.19V5.76l1.48-.32Zm-2.19,4.56V7.94a1.43,1.43,0,1,1,2.85,0v2.71a1.43,1.43,0,1,1-2.85,0"/><polygon class="cls-2" points="36.24 8.57 36.24 12.1 35.45 12.1 35.45 6.49 36.37 6.49 37.39 9.71 37.39 6.49 38.17 6.49 38.17 12.1 37.35 12.1 36.24 8.57"/><path class="cls-2" d="M21.7,15.11v2.21h.35a.4.4,0,0,0,.46-.46V15.57a.4.4,0,0,0-.46-.46Zm-.94-.77h1.39c1,0,1.3.48,1.3,1.26v1.18c0,.79-.34,1.27-1.3,1.27H21.7V20h-.94Z"/><path class="cls-2" d="M25.85,18.65v-3c0-.34-.15-.58-.49-.58s-.48.24-.48.58v3c0,.34.15.58.48.58s.49-.24.49-.58m-1.91-.15V15.79a1.43,1.43,0,1,1,2.85,0V18.5a1.43,1.43,0,1,1-2.85,0"/><path class="cls-2" d="M28.27,15.11v1.75h.32a.41.41,0,0,0,.46-.46v-.83a.4.4,0,0,0-.46-.46Zm0,2.27V20h-.94V14.34H28.7c.95,0,1.3.48,1.3,1.26v.72c0,.61-.21,1-.75,1.08l.9,2.55h-1Z"/><polygon class="cls-2" points="31.38 14.34 33.63 14.34 33.63 15.11 32.32 15.11 32.32 16.72 33.26 16.72 33.26 17.48 32.32 17.48 32.32 19.18 33.63 19.18 33.63 19.95 31.38 19.95 31.38 14.34"/><polygon class="cls-2" points="34.13 14.34 35.08 14.34 35.08 19.18 36.2 19.18 36.2 19.95 34.13 19.95 34.13 14.34"/><path class="cls-2" d="M37.5,18.5V15.79c0-.88.41-1.51,1.4-1.51s1.33.58,1.33,1.4v.67h-.86v-.74c0-.35-.11-.55-.45-.55s-.48.24-.48.58v3c0,.34.14.58.48.58s.45-.21.45-.54v-1h.86v1c0,.8-.33,1.4-1.33,1.4s-1.4-.65-1.4-1.52"/><polygon class="cls-2" points="40.74 14.34 41.69 14.34 41.69 19.18 42.81 19.18 42.81 19.95 40.74 19.95 40.74 14.34"/><rect class="cls-2" x="43.24" y="14.34" width="0.94" height="5.61"/><polygon class="cls-2" points="47.33 16.31 47.3 16.31 46.66 19.95 46.23 19.95 45.52 16.31 45.51 16.31 45.51 19.95 44.73 19.95 44.73 14.34 45.83 14.34 46.44 17.5 46.45 17.5 47 14.34 48.19 14.34 48.19 19.95 47.33 19.95 47.33 16.31"/><path class="cls-2" d="M49.76,18.17h.75l-.37-2.25h0ZM48.57,20l1.06-5.61h1.08L51.77,20h-1l-.18-1h-1l-.16,1Z"/></g></g></svg>