<svg xmlns="http://www.w3.org/2000/svg" viewBox="0 0 66.17 66.17"><defs><style>.cls-1{fill:#f99d25;}.cls-2{fill:#fff;}</style></defs><title>Asset 7</title><g id="Layer_2" data-name="Layer 2"><g id="Layer_1-2" data-name="Layer 1"><rect class="cls-1" width="66.17" height="66.17"/><path class="cls-2" d="M13.11,51.11h9.17a.24.24,0,0,0,.23-.23.25.25,0,0,0-.06-.15h0l-4.56-5.91,0-.05a.26.26,0,0,0-.17-.07.2.2,0,0,0-.15.06l0,0,0,0L13,50.67l-.07.08a.28.28,0,0,0,0,.13.23.23,0,0,0,.23.23"/><path class="cls-2" d="M22.25,51.94H13.06a.22.22,0,0,0-.22.22v7.19a.22.22,0,0,0,.22.23h3V55.06a.23.23,0,0,1,.23-.23H19a.23.23,0,0,1,.23.23v4.52h3a.23.23,0,0,0,.23-.23V52.16a.22.22,0,0,0-.23-.22"/><path class="cls-2" d="M53.19,53a.22.22,0,0,1-.22.22H50.25A.22.22,0,0,1,50,53V51.35a.22.22,0,0,1,.22-.22H53a.22.22,0,0,1,.22.22Zm0,3a.22.22,0,0,1-.22.22H50.25a.22.22,0,0,1-.22-.22V54.4a.22.22,0,0,1,.22-.22H53a.22.22,0,0,1,.22.22ZM49,53a.22.22,0,0,1-.22.22H46.1a.22.22,0,0,1-.22-.22V51.35a.22.22,0,0,1,.22-.22h2.72a.22.22,0,0,1,.22.22Zm0,3a.22.22,0,0,1-.22.22H46.1a.22.22,0,0,1-.22-.22V54.4a.22.22,0,0,1,.22-.22h2.72a.22.22,0,0,1,.22.22Zm5-6h-9.1a.22.22,0,0,0-.22.22v9.19a.22.22,0,0,0,.22.21H54a.22.22,0,0,0,.22-.21V50.27a.22.22,0,0,0-.22-.22"/><path class="cls-2" d="M31.57,35.26a.12.12,0,0,1-.12.12h-2a.12.12,0,0,1-.12-.12V33a.12.12,0,0,1,.12-.12h2a.12.12,0,0,1,.12.12Zm0,5.22a.11.11,0,0,1-.12.11h-2a.11.11,0,0,1-.12-.11V38.21a.12.12,0,0,1,.12-.12h2a.12.12,0,0,1,.12.12Zm0,5.21a.12.12,0,0,1-.12.12h-2a.12.12,0,0,1-.12-.12V43.42a.11.11,0,0,1,.12-.11h2a.11.11,0,0,1,.12.11Zm0,5.22a.12.12,0,0,1-.12.12h-2a.12.12,0,0,1-.12-.12V48.64a.12.12,0,0,1,.12-.12h2a.12.12,0,0,1,.12.12Zm0,5.22a.11.11,0,0,1-.12.11h-2a.11.11,0,0,1-.12-.11V53.86a.12.12,0,0,1,.12-.12h2a.12.12,0,0,1,.12.12Zm-4-20.87a.12.12,0,0,1-.12.12h-2a.12.12,0,0,1-.12-.12V33a.13.13,0,0,1,.12-.12h2a.13.13,0,0,1,.12.12Zm0,5.22a.12.12,0,0,1-.12.11h-2a.12.12,0,0,1-.12-.11V38.21a.12.12,0,0,1,.12-.12h2a.12.12,0,0,1,.12.12Zm0,5.21a.12.12,0,0,1-.12.12h-2a.12.12,0,0,1-.12-.12V43.42a.12.12,0,0,1,.12-.11h2a.12.12,0,0,1,.12.11Zm0,5.22a.12.12,0,0,1-.12.12h-2a.12.12,0,0,1-.12-.12V48.64a.12.12,0,0,1,.12-.12h2a.12.12,0,0,1,.12.12Zm0,5.22a.12.12,0,0,1-.12.11h-2a.12.12,0,0,1-.12-.11V53.86a.12.12,0,0,1,.12-.12h2a.12.12,0,0,1,.12.12Zm5.29-27.4H24a.22.22,0,0,0-.22.22V59.37a.22.22,0,0,0,.22.22h8.9a.22.22,0,0,0,.22-.22V29a.22.22,0,0,0-.22-.22"/><rect class="cls-2" x="44.71" y="47.12" width="9.52" height="2.2" rx="0.18"/><path class="cls-2" d="M42.61,43.77a.22.22,0,0,1-.22.22H39.74a.22.22,0,0,1-.22-.22V42.11a.21.21,0,0,1,.22-.21h2.65a.21.21,0,0,1,.22.21Zm0,3.07a.22.22,0,0,1-.22.22H39.74a.22.22,0,0,1-.22-.22V45.18a.21.21,0,0,1,.22-.21h2.65a.21.21,0,0,1,.22.21Zm0,3.07a.22.22,0,0,1-.22.22H39.74a.22.22,0,0,1-.22-.22V48.25a.22.22,0,0,1,.22-.22h2.65a.22.22,0,0,1,.22.22Zm0,3.07a.22.22,0,0,1-.22.22H39.74a.22.22,0,0,1-.22-.22V51.32a.22.22,0,0,1,.22-.22h2.65a.22.22,0,0,1,.22.22Zm0,3.07a.22.22,0,0,1-.22.22H39.74a.22.22,0,0,1-.22-.22V54.39a.22.22,0,0,1,.22-.22h2.65a.22.22,0,0,1,.22.22Zm-4-12.86v3.66a.21.21,0,0,1-.21.21H35.69a.21.21,0,0,1-.22-.21v-.46s0-.06,0-.08a0,0,0,0,0,0,0l0,0,0,0c.34-.49,1.87-2.37,2.51-3.16l.06-.08a.25.25,0,0,1,.2-.09.25.25,0,0,1,.24.2Zm0,6.72a.22.22,0,0,1-.22.22H35.69a.22.22,0,0,1-.22-.22V48.25a.22.22,0,0,1,.22-.22h2.65a.22.22,0,0,1,.22.22Zm0,3.07a.22.22,0,0,1-.22.22H35.69a.22.22,0,0,1-.22-.22V51.32a.22.22,0,0,1,.22-.22h2.65a.22.22,0,0,1,.22.22Zm0,3.07a.22.22,0,0,1-.22.22H35.69a.22.22,0,0,1-.22-.22V54.39a.22.22,0,0,1,.22-.22h2.65a.22.22,0,0,1,.22.22Zm1.38-15.54.06-.08c.6-.77,1.61-2,2.1-2.61l.07-.08a.22.22,0,0,1,.19-.09.24.24,0,0,1,.24.2v2.81a.25.25,0,0,1-.24.25H40.13a.26.26,0,0,1-.24-.25.25.25,0,0,1,0-.15m3.68-6a.23.23,0,0,0-.22-.17.28.28,0,0,0-.13,0h0l-.08.1-8.75,11.1,0,0a.24.24,0,0,0-.07.17V59.42a.21.21,0,0,0,.21.22h8.9a.21.21,0,0,0,.21-.22V34.57a.15.15,0,0,0,0-.09"/><polygon class="cls-2" points="4.73 7.97 4.73 10.31 4.75 10.31 6.32 8.67 6.34 8.67 6.34 18.89 8.58 18.89 8.58 5.54 6.79 5.54 4.73 7.97"/><polygon class="cls-2" points="9.84 7.97 9.84 10.31 9.86 10.31 11.44 8.67 11.46 8.67 11.46 18.89 13.7 18.89 13.7 5.54 11.91 5.54 9.84 7.97"/><path class="cls-2" d="M19,9.72V7c0-.88.41-1.52,1.41-1.52s1.33.58,1.33,1.41v.66h-.86V6.82c0-.34-.12-.54-.46-.54s-.48.24-.48.58v3c0,.34.14.58.48.58s.46-.22.46-.55v-1h.86v1c0,.81-.33,1.4-1.33,1.4A1.32,1.32,0,0,1,19,9.72"/><rect class="cls-2" x="22.25" y="5.56" width="0.94" height="5.61"/><path class="cls-2" d="M26.47,5.56V9.8c0,.87-.37,1.43-1.33,1.43a1.26,1.26,0,0,1-1.4-1.43V5.56h.94V9.89c0,.33.13.56.46.56s.47-.23.47-.56V5.56Z"/><path class="cls-2" d="M28.35,10.4c.39,0,.54-.23.54-.57V6.89a.49.49,0,0,0-.54-.56H28V10.4Zm1.48-3.34v2.6c0,.86-.36,1.51-1.36,1.51H27V5.56h1.46c1,0,1.36.63,1.36,1.5"/><path class="cls-2" d="M31.28,9.39H32l-.37-2.25h0Zm-1.19,1.78,1.06-5.61h1.08l1.06,5.61h-1l-.18-1h-1l-.16,1Z"/><path class="cls-2" d="M35,10.4c.39,0,.54-.23.54-.57V6.89A.49.49,0,0,0,35,6.33h-.4V10.4ZM36.5,7.06v2.6c0,.86-.35,1.51-1.36,1.51H33.68V5.56h1.46c1,0,1.36.63,1.36,1.5"/><polygon class="cls-2" points="37.04 5.56 39.29 5.56 39.29 6.33 37.98 6.33 37.98 7.93 38.91 7.93 38.91 8.69 37.98 8.69 37.98 10.4 39.29 10.4 39.29 11.17 37.04 11.17 37.04 5.56"/><path class="cls-2" d="M39.7,10V9.21h.87V10c0,.32.15.5.47.5s.43-.2.43-.5V9.76A1,1,0,0,0,41.05,9l-.56-.56a1.88,1.88,0,0,1-.78-1.5V6.72A1.17,1.17,0,0,1,41,5.49c.94,0,1.32.47,1.32,1.28v.45h-.86V6.73q0-.48-.45-.48a.42.42,0,0,0-.45.47v.11c0,.32.18.5.45.76l.6.6a1.88,1.88,0,0,1,.76,1.45v.28A1.21,1.21,0,0,1,41,11.23,1.17,1.17,0,0,1,39.7,10"/><polygon class="cls-2" points="45.6 9.03 45.6 11.17 44.66 11.17 44.66 9.03 43.61 5.56 44.59 5.56 45.16 7.68 45.17 7.68 45.74 5.56 46.64 5.56 45.6 9.03"/><path class="cls-2" d="M19,17.16V14.45c0-.88.41-1.52,1.41-1.52s1.33.58,1.33,1.41V15h-.86v-.74c0-.34-.12-.54-.46-.54s-.48.24-.48.58v3c0,.34.14.58.48.58s.46-.22.46-.55v-1h.86v1c0,.81-.33,1.4-1.33,1.4A1.32,1.32,0,0,1,19,17.16"/><path class="cls-2" d="M24.16,17.31v-3c0-.34-.15-.58-.49-.58s-.48.24-.48.58v3c0,.34.15.58.48.58s.49-.24.49-.58m-1.91-.15V14.45a1.43,1.43,0,1,1,2.85,0v2.71a1.43,1.43,0,1,1-2.85,0"/><polygon class="cls-2" points="28.23 14.97 28.21 14.97 27.57 18.61 27.14 18.61 26.43 14.97 26.41 14.97 26.41 18.61 25.64 18.61 25.64 13 26.74 13 27.35 16.16 27.36 16.16 27.9 13 29.09 13 29.09 18.61 28.23 18.61 28.23 14.97"/><path class="cls-2" d="M32.37,13v4.24c0,.87-.37,1.43-1.33,1.43a1.26,1.26,0,0,1-1.41-1.43V13h.94v4.33c0,.33.13.56.47.56s.46-.23.46-.56V13Z"/><polygon class="cls-2" points="33.7 15.08 33.7 18.61 32.9 18.61 32.9 13 33.83 13 34.85 16.22 34.85 13 35.63 13 35.63 18.61 34.81 18.61 33.7 15.08"/><rect class="cls-2" x="36.17" y="13" width="0.94" height="5.61"/><path class="cls-2" d="M39,17.84c.39,0,.53-.23.53-.57V14.33c0-.33-.14-.56-.53-.56h-.4v4.07Zm1.48-3.34v2.6c0,.86-.36,1.51-1.37,1.51H37.66V13h1.45c1,0,1.37.64,1.37,1.5"/><path class="cls-2" d="M41.92,16.83h.76l-.38-2.25h0Zm-1.18,1.78L41.8,13h1.07l1.07,5.61H43l-.17-1h-1l-.17,1Z"/><path class="cls-2" d="M45.67,17.84c.39,0,.53-.23.53-.57V14.33c0-.33-.14-.56-.53-.56h-.4v4.07Zm1.48-3.34v2.6c0,.86-.36,1.51-1.37,1.51H44.33V13h1.45c1,0,1.37.64,1.37,1.5"/><polygon class="cls-2" points="47.68 13 49.93 13 49.93 13.77 48.63 13.77 48.63 15.37 49.56 15.37 49.56 16.13 48.63 16.13 48.63 17.84 49.93 17.84 49.93 18.61 47.68 18.61 47.68 13"/><path class="cls-2" d="M50.34,17.4v-.75h.88v.76c0,.32.14.5.46.5s.43-.2.43-.5V17.2a1,1,0,0,0-.42-.79l-.55-.56a1.89,1.89,0,0,1-.79-1.5v-.19a1.17,1.17,0,0,1,1.33-1.23c.94,0,1.31.46,1.31,1.28v.45h-.86v-.49q0-.48-.45-.48a.41.41,0,0,0-.44.47v.11c0,.32.17.5.44.76l.61.6a1.88,1.88,0,0,1,.76,1.45v.28a1.21,1.21,0,0,1-1.37,1.31,1.17,1.17,0,0,1-1.34-1.27"/><path class="cls-2" d="M19,24.84v-.75h.88v.76c0,.32.14.5.46.5s.43-.2.43-.5v-.21a1,1,0,0,0-.42-.79l-.56-.56a1.91,1.91,0,0,1-.78-1.5V21.6a1.17,1.17,0,0,1,1.32-1.23c.94,0,1.32.46,1.32,1.28v.45h-.86v-.49q0-.48-.45-.48a.42.42,0,0,0-.45.47v.11c0,.32.18.5.45.76l.6.6a1.85,1.85,0,0,1,.76,1.45v.28a1.21,1.21,0,0,1-1.37,1.31A1.17,1.17,0,0,1,19,24.84"/><path class="cls-2" d="M24.06,24.75v-3c0-.34-.15-.58-.49-.58s-.48.24-.48.58v3c0,.34.15.58.48.58s.49-.24.49-.58m-1.91-.15V21.89a1.43,1.43,0,1,1,2.85,0V24.6a1.43,1.43,0,1,1-2.85,0"/><path class="cls-2" d="M25.49,24.84v-.75h.87v.76c0,.32.15.5.47.5s.43-.2.43-.5v-.21a1,1,0,0,0-.42-.79l-.56-.56a1.88,1.88,0,0,1-.78-1.5V21.6a1.17,1.17,0,0,1,1.32-1.23c.94,0,1.32.46,1.32,1.28v.45h-.86v-.49q0-.48-.45-.48a.42.42,0,0,0-.45.47v.11c0,.32.18.5.45.76l.6.6a1.88,1.88,0,0,1,.76,1.45v.28a1.21,1.21,0,0,1-1.37,1.31,1.17,1.17,0,0,1-1.33-1.27"/><polygon class="cls-2" points="28.46 20.44 30.96 20.44 30.96 21.21 30.18 21.21 30.18 26.05 29.23 26.05 29.23 21.21 28.46 21.21 28.46 20.44"/><polygon class="cls-2" points="31.4 20.44 33.65 20.44 33.65 21.21 32.34 21.21 32.34 22.81 33.28 22.81 33.28 23.57 32.34 23.57 32.34 25.28 33.65 25.28 33.65 26.05 31.4 26.05 31.4 20.44"/><polygon class="cls-2" points="34.95 22.52 34.95 26.05 34.15 26.05 34.15 20.44 35.08 20.44 36.1 23.66 36.1 20.44 36.88 20.44 36.88 26.05 36.05 26.05 34.95 22.52"/><rect class="cls-2" x="37.42" y="20.44" width="0.94" height="5.61"/><path class="cls-2" d="M39.85,23.52v1.76h.41a.4.4,0,0,0,.46-.46V24c0-.3-.14-.46-.47-.46Zm0-.72h.33c.3,0,.44-.15.44-.45v-.69a.39.39,0,0,0-.45-.45h-.32Zm-1-2.36h1.37c.94,0,1.26.44,1.26,1.23v.57a.81.81,0,0,1-.57.89.86.86,0,0,1,.71.94v.74c0,.8-.36,1.24-1.3,1.24H38.9Z"/><polygon class="cls-2" points="42.14 20.44 43.08 20.44 43.08 25.28 44.2 25.28 44.2 26.05 42.14 26.05 42.14 20.44"/><polygon class="cls-2" points="44.63 20.44 46.88 20.44 46.88 21.21 45.58 21.21 45.58 22.81 46.51 22.81 46.51 23.57 45.58 23.57 45.58 25.28 46.88 25.28 46.88 26.05 44.63 26.05 44.63 20.44"/><path class="cls-2" d="M47.29,24.84v-.75h.88v.76c0,.32.14.5.46.5s.43-.2.43-.5v-.21a1,1,0,0,0-.42-.79l-.55-.56a1.89,1.89,0,0,1-.79-1.5V21.6a1.17,1.17,0,0,1,1.33-1.23c.94,0,1.31.46,1.31,1.28v.45h-.86v-.49q0-.48-.45-.48a.41.41,0,0,0-.44.47v.11c0,.32.17.5.44.76l.61.6A1.88,1.88,0,0,1,50,24.52v.28a1.21,1.21,0,0,1-1.37,1.31,1.17,1.17,0,0,1-1.34-1.27"/></g></g></svg>