<svg xmlns="http://www.w3.org/2000/svg" viewBox="0 0 66.17 66.17"><defs><style>.cls-1{fill:#007dbb;}.cls-2{fill:#fff;}</style></defs><title>Asset 4</title><g id="Layer_2" data-name="Layer 2"><g id="Layer_1-2" data-name="Layer 1"><rect class="cls-1" width="66.17" height="66.17"/><path class="cls-2" d="M41.2,49.31a2.21,2.21,0,1,1,2.2-2.21,2.2,2.2,0,0,1-2.2,2.21m9.56-1c-.84-1.12-6.22-8-13.76-8-6.55,0-13.55,5.94-13.55,5.94s-2.63-5.39-8-5.91H15.3a.22.22,0,0,0-.21.21.78.78,0,0,0,.09.2,16.51,16.51,0,0,1,2.46,7.7,16.55,16.55,0,0,1-2.47,7.72l0,.07a.25.25,0,0,0,0,.11.22.22,0,0,0,.2.22h.12c5.4-.51,8-5.91,8-5.91s7,5.94,13.55,5.94c7.54,0,12.92-6.86,13.76-8l.05-.08a.17.17,0,0,0,0-.16.35.35,0,0,0-.05-.08"/><path class="cls-2" d="M23,34.15a.34.34,0,0,1,.06-.06.28.28,0,0,1,.12,0,.2.2,0,0,1,.15.06h0c4.11,3.92,8.42.74,9.32,0L32.7,34h.17l.08.09c.9.74,5.21,3.92,9.32,0h0a.2.2,0,0,1,.15-.06.28.28,0,0,1,.12,0,.34.34,0,0,1,.06.06c.79.78,4.24,3.75,7.88.58a.21.21,0,0,0,.07-.15v-1.5a.22.22,0,0,0-.22-.22h-.05l-.1.05a6.64,6.64,0,0,1-7.75-1.08l-.09-.09a.15.15,0,0,0-.09,0,.1.1,0,0,0-.07,0,.18.18,0,0,0-.11.08c-.94.71-5.25,3.63-9.09.05l-.06-.06a.22.22,0,0,0-.3,0l-.06.06c-3.84,3.58-8.16.66-9.09-.05a.18.18,0,0,0-.11-.08.1.1,0,0,0-.07,0,.15.15,0,0,0-.09,0l-.09.09a6.62,6.62,0,0,1-7.74,1.08l-.12-.05h0a.21.21,0,0,0-.21.22v1.5a.2.2,0,0,0,.06.15c3.64,3.17,7.09.2,7.88-.58"/><path class="cls-2" d="M15.26,27.41h0a.21.21,0,0,0-.21.22v1.5a.2.2,0,0,0,.06.15c3.64,3.17,7.09.2,7.88-.58a.17.17,0,0,1,.06-.06.19.19,0,0,1,.12,0,.2.2,0,0,1,.15.06h0c4.11,3.92,8.42.74,9.32,0l.09-.09h.16l.09.09c.9.74,5.21,3.92,9.32,0h0a.2.2,0,0,1,.15-.06.19.19,0,0,1,.12,0,.17.17,0,0,1,.06.06c.79.78,4.24,3.75,7.88.58a.2.2,0,0,0,.06-.15v-1.5a.21.21,0,0,0-.21-.22h-.05l-.11.05a6.62,6.62,0,0,1-7.74-1.08l-.09-.09-.09,0h-.07a.31.31,0,0,0-.11.08c-.94.72-5.25,3.64-9.09.06l-.06-.06a.22.22,0,0,0-.3,0l-.06.06c-3.84,3.58-8.16.66-9.09-.06a.31.31,0,0,0-.11-.08H23.3l-.09,0-.09.09a6.64,6.64,0,0,1-7.75,1.08l-.11-.05"/><polygon class="cls-2" points="8.57 5.57 8.57 18.9 6.33 18.9 6.33 8.7 6.31 8.7 4.74 10.33 4.72 10.33 4.72 7.99 6.78 5.57 8.57 5.57"/><path class="cls-2" d="M11.29,15l2-5.49h0V15Zm4.11,3.92V16.74h.91V15H15.4V5.56H13.2l-3.88,9.8v1.38h4v2.17Z"/><polygon class="cls-2" points="25.32 6.49 24.25 12.1 23.22 12.1 22.16 6.49 23.12 6.49 23.76 10.4 23.77 10.4 24.43 6.49 25.32 6.49"/><rect class="cls-2" x="25.7" y="6.49" width="0.94" height="5.61"/><path class="cls-2" d="M28.53,11.33c.39,0,.54-.23.54-.57V7.82a.49.49,0,0,0-.54-.56h-.4v4.07ZM30,8v2.59c0,.86-.35,1.51-1.36,1.51H27.19V6.49h1.46c1,0,1.36.64,1.36,1.51"/><path class="cls-2" d="M31.46,10.32h.75l-.37-2.25h0ZM30.27,12.1l1.06-5.61h1.08l1.06,5.61h-1l-.18-1h-1l-.16,1Z"/><path class="cls-2" d="M22.25,18.74V18h.87v.77c0,.32.14.5.47.5s.43-.2.43-.5v-.21a1,1,0,0,0-.42-.8L23,17.2a1.88,1.88,0,0,1-.78-1.5v-.19a1.17,1.17,0,0,1,1.32-1.23c.94,0,1.31.46,1.31,1.27V16H24v-.49c0-.32-.14-.48-.44-.48a.41.41,0,0,0-.45.46v.12c0,.31.17.49.45.76l.6.59A1.91,1.91,0,0,1,25,18.43v.27A1.21,1.21,0,0,1,23.58,20a1.17,1.17,0,0,1-1.33-1.28"/><path class="cls-2" d="M28.18,14.34v4.25c0,.87-.37,1.43-1.33,1.43a1.26,1.26,0,0,1-1.4-1.43V14.34h.94v4.34c0,.33.13.55.46.55s.47-.22.47-.55V14.34Z"/><path class="cls-2" d="M29.66,17.43v1.75h.42a.4.4,0,0,0,.46-.45v-.85c0-.29-.14-.45-.47-.45Zm0-.72H30a.4.4,0,0,0,.45-.45v-.69c0-.31-.14-.46-.45-.46h-.33Zm-.94-2.37h1.37c.94,0,1.25.44,1.25,1.24v.57a.81.81,0,0,1-.56.89.85.85,0,0,1,.7.94v.74c0,.79-.35,1.23-1.3,1.23H28.72Z"/><polygon class="cls-2" points="34.55 16.31 34.52 16.31 33.89 19.95 33.45 19.95 32.75 16.31 32.73 16.31 32.73 19.95 31.95 19.95 31.95 14.34 33.05 14.34 33.66 17.5 33.67 17.5 34.22 14.34 35.41 14.34 35.41 19.95 34.55 19.95 34.55 16.31"/><path class="cls-2" d="M37,18.17h.75l-.37-2.25h0ZM35.8,20l1.06-5.61h1.07L39,20H38l-.17-1h-1l-.17,1Z"/><path class="cls-2" d="M40.33,15.11v1.75h.31a.41.41,0,0,0,.46-.46v-.83a.4.4,0,0,0-.46-.46Zm0,2.27V20h-.95V14.34h1.38c1,0,1.3.48,1.3,1.26v.72c0,.6-.22,1-.76,1.08L42.2,20h-1Z"/><rect class="cls-2" x="42.57" y="14.34" width="0.94" height="5.61"/><polygon class="cls-2" points="44.85 16.43 44.85 19.95 44.05 19.95 44.05 14.34 44.98 14.34 46 17.56 46 14.34 46.78 14.34 46.78 19.95 45.96 19.95 44.85 16.43"/><path class="cls-2" d="M48.35,18.17h.76l-.38-2.25h0ZM47.17,20l1.06-5.61H49.3L50.37,20h-1l-.17-1h-1l-.17,1Z"/></g></g></svg>