<svg xmlns="http://www.w3.org/2000/svg" viewBox="0 0 66.17 66.17"><defs><style>.cls-1{fill:#8f1838;}.cls-2{fill:#fff;}</style></defs><title>Asset 10</title><g id="Layer_2" data-name="Layer 2"><g id="Layer_1-2" data-name="Layer 1"><rect class="cls-1" width="66.17" height="66.17"/><path class="cls-2" d="M44.41,34.92,38.3,40.73a1,1,0,0,0-.35.87V57.88a.35.35,0,0,0,.35.35h6.31a.35.35,0,0,0,.35-.35V35.07c0-.19-.15-.54-.55-.15"/><path class="cls-2" d="M26.82,42.49,20.71,48.3a1,1,0,0,0-.35.87v8.71a.35.35,0,0,0,.35.35H27a.35.35,0,0,0,.35-.35V42.63c0-.19-.16-.54-.55-.14"/><path class="cls-2" d="M47.18,27.88a.15.15,0,0,0,0-.13A.13.13,0,0,0,47,27.7h-.09l-4.67,1.06h-.09l-.09,0a.18.18,0,0,0,0,.25l.06.06,1.06,1.06L32.61,40.78l-4.89-4.9a.15.15,0,0,0-.2,0l-1.33,1.33h0l-7.84,7.85a.13.13,0,0,0,0,.2l1.32,1.32a.13.13,0,0,0,.2,0l7.75-7.74,3.55,3.55v0l1.33,1.32a.13.13,0,0,0,.2,0l12-12,1.12,1.12a.18.18,0,0,0,.25,0,.16.16,0,0,0,0-.11v0l1-4.77Z"/><path class="cls-2" d="M35.65,43.51l-3,3a.15.15,0,0,1-.19,0l-2.67-2.73c-.49-.49-.6-.09-.6.1v14a.35.35,0,0,0,.35.35h6.31a.35.35,0,0,0,.34-.35V43.62c0-.19-.15-.55-.58-.11"/><path class="cls-2" d="M10.57,15.86c0,.81-.3,1.38-1.11,1.38s-1.08-.57-1.08-1.38V13.69c0-.8.3-1.37,1.08-1.37s1.11.57,1.11,1.37ZM8.46,8.48c0-.81.28-1.28,1-1.28s1,.47,1,1.28v.91c0,.8-.28,1.28-1,1.28s-1-.48-1-1.28Zm4.35,7.14V14.17a2.64,2.64,0,0,0-1.5-2.68,2.34,2.34,0,0,0,1.3-2.32V8.62c0-2.09-1.08-3.21-3.15-3.21S6.35,6.53,6.35,8.62v.55a2.38,2.38,0,0,0,1.26,2.32,2.63,2.63,0,0,0-1.47,2.68v1.45c0,2,1,3.45,3.32,3.45s3.35-1.42,3.35-3.45"/><polygon class="cls-2" points="16.98 5.53 19.49 5.53 19.49 6.3 18.71 6.3 18.71 11.14 17.76 11.14 17.76 6.3 16.98 6.3 16.98 5.53"/><path class="cls-2" d="M20.87,6.3V8h.31a.4.4,0,0,0,.46-.46V6.75c0-.3-.14-.45-.46-.45Zm0,2.26v2.58h-.95V5.53H21.3c.95,0,1.3.47,1.3,1.26v.72c0,.6-.22,1-.76,1.08l.9,2.55h-1Z"/><path class="cls-2" d="M24.14,9.36h.75l-.37-2.25h0ZM23,11.14,24,5.53h1.07l1.07,5.61h-1l-.17-1H24l-.17,1Z"/><path class="cls-2" d="M27.49,8.61v1.76h.41a.4.4,0,0,0,.46-.46V9.07c0-.3-.14-.46-.47-.46Zm0-.72h.33a.4.4,0,0,0,.45-.45V6.75a.4.4,0,0,0-.46-.45h-.32Zm-.95-2.36h1.37c.94,0,1.26.44,1.26,1.23v.57a.81.81,0,0,1-.57.89.86.86,0,0,1,.71.94V9.9c0,.8-.36,1.24-1.3,1.24H26.54Z"/><path class="cls-2" d="M30.77,9.36h.75l-.37-2.25h0Zm-1.18,1.78,1.06-5.61h1.07l1.07,5.61h-1l-.17-1h-1l-.17,1Z"/><path class="cls-2" d="M35.6,5.53V9.86a1.17,1.17,0,0,1-1.3,1.34c-1,0-1.24-.54-1.24-1.25V8.84H34V10c0,.28.1.45.35.45s.35-.17.35-.46V5.53Z"/><path class="cls-2" d="M38,9.84v-3c0-.34-.15-.58-.49-.58s-.48.24-.48.58v3c0,.34.15.58.48.58s.49-.24.49-.58m-1.91-.15V7A1.43,1.43,0,1,1,39,7V9.69a1.43,1.43,0,1,1-2.85,0"/><path class="cls-2" d="M41.72,10.37c.39,0,.54-.23.54-.57V6.86a.49.49,0,0,0-.54-.56h-.39v4.07ZM43.2,7v2.6c0,.86-.35,1.51-1.36,1.51H40.38V5.53h1.46c1,0,1.36.64,1.36,1.5"/><polygon class="cls-2" points="43.74 5.53 45.99 5.53 45.99 6.3 44.68 6.3 44.68 7.9 45.62 7.9 45.62 8.66 44.68 8.66 44.68 10.37 45.99 10.37 45.99 11.14 43.74 11.14 43.74 5.53"/><path class="cls-2" d="M46.41,9.69V7c0-.88.41-1.52,1.4-1.52s1.34.58,1.34,1.41v.66h-.86V6.79c0-.34-.12-.54-.46-.54s-.48.24-.48.58v3c0,.34.14.58.48.58s.46-.22.46-.55v-1h.86v1c0,.8-.33,1.39-1.34,1.39a1.32,1.32,0,0,1-1.4-1.51"/><polygon class="cls-2" points="49.66 5.53 51.91 5.53 51.91 6.3 50.6 6.3 50.6 7.9 51.53 7.9 51.53 8.66 50.6 8.66 50.6 10.37 51.91 10.37 51.91 11.14 49.66 11.14 49.66 5.53"/><polygon class="cls-2" points="53.2 7.61 53.2 11.14 52.41 11.14 52.41 5.53 53.34 5.53 54.35 8.75 54.35 5.53 55.14 5.53 55.14 11.14 54.31 11.14 53.2 7.61"/><polygon class="cls-2" points="55.57 5.53 58.07 5.53 58.07 6.3 57.3 6.3 57.3 11.14 56.34 11.14 56.34 6.3 55.57 6.3 55.57 5.53"/><polygon class="cls-2" points="58.51 5.53 60.76 5.53 60.76 6.3 59.45 6.3 59.45 7.9 60.39 7.9 60.39 8.66 59.45 8.66 59.45 10.37 60.76 10.37 60.76 11.14 58.51 11.14 58.51 5.53"/><polygon class="cls-2" points="18.92 16.44 18.92 18.58 17.98 18.58 17.98 16.44 16.93 12.97 17.91 12.97 18.49 15.1 18.49 15.1 19.07 12.97 19.97 12.97 18.92 16.44"/><path class="cls-2" d="M21.21,17.13V14.42a1.33,1.33,0,0,1,1.41-1.52c1,0,1.33.58,1.33,1.41V15h-.86v-.74c0-.34-.12-.54-.45-.54s-.48.24-.48.58v3c0,.34.14.58.48.58s.45-.22.45-.55v-1H24v1c0,.8-.33,1.39-1.33,1.39a1.33,1.33,0,0,1-1.41-1.51"/><path class="cls-2" d="M25.4,13.74v1.74h.32a.4.4,0,0,0,.46-.46v-.83c0-.3-.14-.45-.46-.45Zm0,2.26v2.58h-.94V13h1.37c1,0,1.3.47,1.3,1.26V15c0,.6-.21,1-.75,1.08l.9,2.55h-1Z"/><polygon class="cls-2" points="27.64 12.97 29.89 12.97 29.89 13.74 28.59 13.74 28.59 15.34 29.52 15.34 29.52 16.1 28.59 16.1 28.59 17.81 29.89 17.81 29.89 18.58 27.64 18.58 27.64 12.97"/><path class="cls-2" d="M30.31,17.13V14.42a1.33,1.33,0,0,1,1.41-1.52c1,0,1.33.58,1.33,1.41V15h-.86v-.74c0-.34-.11-.54-.45-.54s-.48.24-.48.58v3c0,.34.14.58.48.58s.45-.22.45-.55v-1h.86v1c0,.8-.33,1.39-1.33,1.39a1.33,1.33,0,0,1-1.41-1.51"/><rect class="cls-2" x="33.56" y="12.97" width="0.94" height="5.61"/><polygon class="cls-2" points="37.65 14.94 37.62 14.94 36.99 18.58 36.55 18.58 35.84 14.94 35.83 14.94 35.83 18.58 35.05 18.58 35.05 12.97 36.15 12.97 36.76 16.13 36.77 16.13 37.32 12.97 38.51 12.97 38.51 18.58 37.65 18.58 37.65 14.94"/><rect class="cls-2" x="39.04" y="12.97" width="0.94" height="5.61"/><polygon class="cls-2" points="40.53 12.97 42.78 12.97 42.78 13.74 41.47 13.74 41.47 15.34 42.41 15.34 42.41 16.1 41.47 16.1 41.47 17.81 42.78 17.81 42.78 18.58 40.53 18.58 40.53 12.97"/><polygon class="cls-2" points="44.08 15.05 44.08 18.58 43.28 18.58 43.28 12.97 44.21 12.97 45.23 16.19 45.23 12.97 46.01 12.97 46.01 18.58 45.19 18.58 44.08 15.05"/><polygon class="cls-2" points="46.44 12.97 48.95 12.97 48.95 13.74 48.17 13.74 48.17 18.58 47.22 18.58 47.22 13.74 46.44 13.74 46.44 12.97"/><path class="cls-2" d="M51.17,17.28v-3c0-.34-.15-.58-.49-.58s-.48.24-.48.58v3c0,.34.15.58.48.58s.49-.24.49-.58m-1.91-.15V14.42a1.43,1.43,0,1,1,2.85,0v2.71a1.43,1.43,0,1,1-2.85,0"/><polygon class="cls-2" points="17.09 20.41 19.34 20.41 19.34 21.18 18.03 21.18 18.03 22.78 18.97 22.78 18.97 23.54 18.03 23.54 18.03 25.25 19.34 25.25 19.34 26.02 17.09 26.02 17.09 20.41"/><path class="cls-2" d="M19.76,24.57V21.86c0-.88.41-1.52,1.4-1.52s1.34.58,1.34,1.41v.66h-.86v-.74c0-.34-.12-.54-.46-.54s-.48.24-.48.58v3c0,.34.14.58.48.58s.46-.22.46-.55v-1h.86v1a1.21,1.21,0,0,1-1.34,1.39,1.32,1.32,0,0,1-1.4-1.51"/><path class="cls-2" d="M24.92,24.72v-3c0-.34-.15-.58-.49-.58s-.48.24-.48.58v3c0,.34.15.58.48.58s.49-.24.49-.58M23,24.57V21.86a1.43,1.43,0,1,1,2.85,0v2.71a1.43,1.43,0,1,1-2.85,0"/><polygon class="cls-2" points="27.19 22.49 27.19 26.02 26.4 26.02 26.4 20.41 27.32 20.41 28.34 23.63 28.34 20.41 29.13 20.41 29.13 26.02 28.3 26.02 27.19 22.49"/><path class="cls-2" d="M31.57,24.72v-3c0-.34-.15-.58-.49-.58s-.48.24-.48.58v3c0,.34.15.58.48.58s.49-.24.49-.58M31.85,20l-1.48.19v-.53l1.48-.31Zm-2.19,4.56V21.86a1.43,1.43,0,1,1,2.85,0v2.71a1.43,1.43,0,1,1-2.85,0"/><polygon class="cls-2" points="35.65 22.38 35.62 22.38 34.98 26.02 34.55 26.02 33.84 22.38 33.83 22.38 33.83 26.02 33.05 26.02 33.05 20.41 34.15 20.41 34.76 23.57 34.77 23.57 35.32 20.41 36.51 20.41 36.51 26.02 35.65 26.02 35.65 22.38"/><rect class="cls-2" x="37.04" y="20.41" width="0.94" height="5.61"/><path class="cls-2" d="M38.53,24.57V21.86c0-.88.41-1.52,1.41-1.52s1.33.58,1.33,1.41v.66h-.86v-.74c0-.34-.12-.54-.46-.54s-.48.24-.48.58v3c0,.34.14.58.48.58s.46-.22.46-.55v-1h.86v1c0,.8-.33,1.39-1.33,1.39a1.32,1.32,0,0,1-1.41-1.51"/><path class="cls-2" d="M43.69,24.72v-3c0-.34-.15-.58-.49-.58s-.48.24-.48.58v3c0,.34.15.58.48.58s.49-.24.49-.58m-1.91-.15V21.86a1.43,1.43,0,1,1,2.85,0v2.71a1.43,1.43,0,1,1-2.85,0"/></g></g></svg>