<svg xmlns="http://www.w3.org/2000/svg" viewBox="0 0 66.17 66.17"><defs><style>.cls-1{fill:#00add8;}.cls-2{fill:#fff;}</style></defs><title>Asset 12</title><g id="Layer_2" data-name="Layer 2"><g id="Layer_1-2" data-name="Layer 1"><rect class="cls-1" width="66.17" height="66.17"/><path class="cls-2" d="M43.61,31.89a3,3,0,0,0-2.27.14c-3,1.2-5,1.64-8.14.66-2-.62-3.82-1.91-6-1.13a12.25,12.25,0,0,1-4.43,1l-.95-4.85H44.29ZM36,46.29a3.82,3.82,0,0,1-2.86,1,3.83,3.83,0,0,1-2.87-1,4.25,4.25,0,0,1-.53-5.19c.39-.73,3.15-4.87,3.39-5.23v0c.23.36,3,4.5,3.38,5.23A4.25,4.25,0,0,1,36,46.29m9.28-19.53a.3.3,0,0,0-.22-.1h-24a.3.3,0,0,0-.22.1.3.3,0,0,0-.06.22l4,24.4a.29.29,0,0,0,.28.23h5l.34,4H28.29l4.84,4.84L38,55.58H35.91l.34-4h5a.28.28,0,0,0,.28-.24L45.33,27a.25.25,0,0,0-.06-.22"/><path class="cls-2" d="M9,13.45c0-.74.35-1.22,1.06-1.22s1.06.48,1.06,1.34V15.9c0,.84-.31,1.33-1.08,1.33s-1-.51-1-1.33Zm1,5.61c2.38,0,3.31-1.3,3.31-3.36v-2c0-2.18-.87-3.29-2.48-3.29A1.91,1.91,0,0,0,9,11.53H9V8.65c0-.8.25-1.37,1.06-1.37s1,.47,1,1.29v.89h2V8.75c0-2-.65-3.34-3.13-3.34S6.74,6.92,6.74,9V15.5c0,2.07.91,3.56,3.27,3.56"/><path class="cls-2" d="M21.25,9.43H22l-.37-2.25h0Zm-1.19,1.78L21.12,5.6H22.2l1.06,5.61h-1l-.18-1h-1l-.16,1Z"/><path class="cls-2" d="M25,8.22h1.34v3h-.68V10.6a.85.85,0,0,1-.9.68c-.81,0-1.18-.65-1.18-1.52V7.05a1.32,1.32,0,0,1,1.41-1.51c1,0,1.35.57,1.35,1.4v.5h-.86V6.87c0-.35-.13-.55-.47-.55s-.49.24-.49.58v3c0,.34.14.58.46.58s.47-.17.47-.54V9H25Z"/><path class="cls-2" d="M29.56,5.6V9.84c0,.87-.37,1.44-1.33,1.44a1.27,1.27,0,0,1-1.4-1.44V5.6h.94V9.94c0,.33.13.55.46.55s.47-.22.47-.55V5.6Z"/><path class="cls-2" d="M31,9.43h.75l-.37-2.25h0Zm-1.18,1.78L30.89,5.6H32L33,11.21h-1l-.17-1h-1l-.17,1Z"/><polygon class="cls-2" points="34.28 5.6 35.23 5.6 35.23 10.44 36.35 10.44 36.35 11.21 34.28 11.21 34.28 5.6"/><rect class="cls-2" x="36.78" y="5.6" width="0.94" height="5.61"/><polygon class="cls-2" points="40.86 7.57 40.84 7.57 40.2 11.21 39.76 11.21 39.06 7.57 39.04 7.57 39.04 11.21 38.27 11.21 38.27 5.6 39.37 5.6 39.98 8.76 39.99 8.76 40.53 5.6 41.72 5.6 41.72 11.21 40.86 11.21 40.86 7.57"/><path class="cls-2" d="M43.2,6.37V8.58h.35A.4.4,0,0,0,44,8.12V6.83a.4.4,0,0,0-.46-.46Zm-.94-.77h1.4c1,0,1.3.47,1.3,1.26V8c0,.79-.35,1.27-1.3,1.27H43.2v1.9h-.94Z"/><rect class="cls-2" x="45.44" y="5.6" width="0.94" height="5.61"/><path class="cls-2" d="M48,9.43h.76l-.38-2.25h0Zm-1.18,1.78L47.84,5.6h1.07L50,11.21H49l-.17-1h-1l-.17,1Z"/><polygon class="cls-2" points="22.05 16.93 22.05 19.06 21.11 19.06 21.11 16.93 20.06 13.46 21.04 13.46 21.61 15.58 21.62 15.58 22.19 13.46 23.09 13.46 22.05 16.93"/><path class="cls-2" d="M24.29,17.86V17.1h.87v.77c0,.32.15.5.47.5s.43-.2.43-.5v-.21a1,1,0,0,0-.42-.8l-.56-.55a1.88,1.88,0,0,1-.78-1.5v-.19a1.17,1.17,0,0,1,1.32-1.23c.94,0,1.32.46,1.32,1.27v.46h-.86v-.49q0-.48-.45-.48a.41.41,0,0,0-.45.46v.12c0,.31.18.5.45.76l.6.6A1.88,1.88,0,0,1,27,17.54v.27a1.21,1.21,0,0,1-1.37,1.32,1.17,1.17,0,0,1-1.33-1.27"/><path class="cls-2" d="M28.44,17.29h.75L28.82,15h0Zm-1.18,1.77,1.06-5.6h1.07l1.07,5.6h-1l-.17-1h-1l-.17,1Z"/><polygon class="cls-2" points="31.64 15.54 31.64 19.06 30.84 19.06 30.84 13.46 31.77 13.46 32.79 16.67 32.79 13.46 33.57 13.46 33.57 19.06 32.75 19.06 31.64 15.54"/><polygon class="cls-2" points="34.11 13.46 36.36 13.46 36.36 14.22 35.05 14.22 35.05 15.83 35.99 15.83 35.99 16.59 35.05 16.59 35.05 18.29 36.36 18.29 36.36 19.06 34.11 19.06 34.11 13.46"/><path class="cls-2" d="M37.9,17.29h.75L38.28,15h0Zm-1.19,1.77,1.06-5.6h1.08l1.06,5.6H39l-.18-1h-1l-.16,1Z"/><polygon class="cls-2" points="42.9 15.42 42.87 15.42 42.24 19.06 41.8 19.06 41.09 15.42 41.08 15.42 41.08 19.06 40.3 19.06 40.3 13.46 41.4 13.46 42.01 16.61 42.02 16.61 42.57 13.46 43.76 13.46 43.76 19.06 42.9 19.06 42.9 15.42"/><rect class="cls-2" x="44.29" y="13.45" width="0.94" height="5.61"/><polygon class="cls-2" points="45.78 13.46 48.03 13.46 48.03 14.22 46.72 14.22 46.72 15.83 47.66 15.83 47.66 16.59 46.72 16.59 46.72 18.29 48.03 18.29 48.03 19.06 45.78 19.06 45.78 13.46"/><polygon class="cls-2" points="49.33 15.54 49.33 19.06 48.53 19.06 48.53 13.46 49.46 13.46 50.48 16.67 50.48 13.46 51.26 13.46 51.26 19.06 50.44 19.06 49.33 15.54"/><polygon class="cls-2" points="51.69 13.46 54.2 13.46 54.2 14.22 53.42 14.22 53.42 19.06 52.47 19.06 52.47 14.22 51.69 14.22 51.69 13.46"/><path class="cls-2" d="M56.42,17.76v-3c0-.34-.15-.58-.49-.58s-.48.24-.48.58v3c0,.34.15.58.48.58s.49-.24.49-.58m-1.91-.14V14.9a1.43,1.43,0,1,1,2.85,0v2.72a1.43,1.43,0,1,1-2.85,0"/></g></g></svg>