<svg xmlns="http://www.w3.org/2000/svg" viewBox="0 0 66.17 66.17"><defs><style>.cls-1{fill:#fdb714;}.cls-2{fill:#fff;}</style></defs><title>Asset 11</title><g id="Layer_2" data-name="Layer 2"><g id="Layer_1-2" data-name="Layer 1"><rect class="cls-1" width="66.17" height="66.17"/><path class="cls-2" d="M33.11,46.73a5,5,0,0,1-1.5-9.86v1.87a3.31,3.31,0,1,0,3,0V36.86a5,5,0,0,1-1.49,9.87m-.72-10.84a.72.72,0,0,1,1.44,0v3.33a.72.72,0,0,1-1.44,0Zm.72-3.83a9.7,9.7,0,1,0,9.69,9.7,9.7,9.7,0,0,0-9.69-9.7"/><path class="cls-2" d="M22,41.67a.81.81,0,0,0-.75-.79H17a.81.81,0,0,0-.75.79.82.82,0,0,0,.75.8h4.25a.82.82,0,0,0,.75-.8"/><path class="cls-2" d="M50,41.67a.81.81,0,0,0-.75-.79H45a.81.81,0,0,0-.76.79.82.82,0,0,0,.76.8h4.24a.82.82,0,0,0,.75-.8"/><path class="cls-2" d="M33.11,58.55a.81.81,0,0,0,.8-.74V53.56a.8.8,0,0,0-1.6,0v4.25a.81.81,0,0,0,.8.74"/><path class="cls-2" d="M47.76,50.06A.81.81,0,0,0,47.51,49l-3.69-2.11a.8.8,0,0,0-1,.31A.82.82,0,0,0,43,48.27l3.69,2.11a.81.81,0,0,0,1-.32"/><path class="cls-2" d="M24.73,56.32a.81.81,0,0,0,1.06-.25l2.11-3.68a.8.8,0,0,0-1.39-.8L24.4,55.28a.82.82,0,0,0,.33,1"/><path class="cls-2" d="M41.52,56.3a.79.79,0,0,0,.32-1l-2.11-3.68a.8.8,0,0,0-1.39.8l2.12,3.68a.81.81,0,0,0,1.06.24"/><path class="cls-2" d="M18.48,50.09a.81.81,0,0,0,1,.32l3.68-2.12a.8.8,0,0,0-.79-1.38L18.73,49a.81.81,0,0,0-.25,1.06"/><path class="cls-2" d="M33.11,30.54a.81.81,0,0,0,.8-.74V25.55a.8.8,0,0,0-1.6,0V29.8a.81.81,0,0,0,.8.74"/><path class="cls-2" d="M23.45,36.14a.81.81,0,0,0-.25-1.06L19.51,33a.8.8,0,0,0-.79,1.39l3.68,2.11a.82.82,0,0,0,1.05-.33"/><path class="cls-2" d="M38.64,32a.81.81,0,0,0,1.06-.25l2.11-3.68a.8.8,0,0,0-1.38-.8L38.32,31a.81.81,0,0,0,.32,1"/><path class="cls-2" d="M27.56,32a.81.81,0,0,0,.32-1L25.76,27.3A.81.81,0,0,0,24.7,27a.82.82,0,0,0-.32,1.05l2.12,3.68a.81.81,0,0,0,1.06.25"/><path class="cls-2" d="M42.76,36.13a.81.81,0,0,0,1.05.31l3.68-2.11a.82.82,0,0,0,.25-1.07.83.83,0,0,0-1.05-.32L43,35.06a.82.82,0,0,0-.25,1.07"/><polygon class="cls-2" points="6.79 7.38 10.25 7.38 7.26 18.89 9.48 18.89 12.41 7.61 12.41 5.55 6.79 5.55 6.79 7.38"/><polygon class="cls-2" points="17.94 5.49 20.19 5.49 20.19 6.26 18.88 6.26 18.88 7.86 19.82 7.86 19.82 8.62 18.88 8.62 18.88 10.33 20.19 10.33 20.19 11.1 17.94 11.1 17.94 5.49"/><polygon class="cls-2" points="21.44 7.57 21.44 11.1 20.64 11.1 20.64 5.49 21.57 5.49 22.59 8.71 22.59 5.49 23.37 5.49 23.37 11.1 22.55 11.1 21.44 7.57"/><polygon class="cls-2" points="23.86 5.49 26.11 5.49 26.11 6.26 24.8 6.26 24.8 7.86 25.74 7.86 25.74 8.62 24.8 8.62 24.8 10.33 26.11 10.33 26.11 11.1 23.86 11.1 23.86 5.49"/><path class="cls-2" d="M27.51,6.26V8h.31a.4.4,0,0,0,.46-.46V6.71c0-.3-.14-.45-.46-.45Zm0,2.26V11.1h-1V5.49h1.38c.95,0,1.29.47,1.29,1.25v.72c0,.61-.21,1-.75,1.09l.9,2.55h-1Z"/><path class="cls-2" d="M31.12,8.1h1.34v3h-.68v-.62a.84.84,0,0,1-.9.68c-.81,0-1.18-.64-1.18-1.51V6.94a1.33,1.33,0,0,1,1.41-1.52c1,0,1.35.58,1.35,1.41v.49H31.6V6.75c0-.34-.13-.54-.47-.54s-.49.24-.49.58v3c0,.34.14.58.46.58s.47-.18.47-.54v-1h-.45Z"/><path class="cls-2" d="M32.94,5.49h1V11.1h-1Zm1.25-.4-1.49.19V4.75l1.49-.31Z"/><path class="cls-2" d="M35.42,9.32h.75L35.8,7.07h0ZM34.23,11.1l1.06-5.61h1.08l1.06,5.61h-1l-.18-1h-1l-.16,1Z"/><path class="cls-2" d="M39.62,9.32h.76L40,7.07h0ZM38.44,11.1,39.5,5.49h1.08l1.06,5.61h-1l-.17-1h-1l-.17,1Z"/><path class="cls-2" d="M41.85,9.89V9.13h.87V9.9c0,.32.14.5.47.5s.43-.2.43-.5V9.69a1,1,0,0,0-.42-.8l-.56-.55a1.88,1.88,0,0,1-.78-1.5V6.65a1.17,1.17,0,0,1,1.32-1.23c.94,0,1.31.46,1.31,1.27v.46h-.86V6.66c0-.32-.14-.48-.44-.48a.41.41,0,0,0-.45.46v.12c0,.32.17.5.45.76l.6.6a1.88,1.88,0,0,1,.76,1.45v.28a1.21,1.21,0,0,1-1.37,1.31,1.17,1.17,0,0,1-1.33-1.27"/><polygon class="cls-2" points="45 5.49 47.25 5.49 47.25 6.26 45.94 6.26 45.94 7.86 46.88 7.86 46.88 8.62 45.94 8.62 45.94 10.33 47.25 10.33 47.25 11.1 45 11.1 45 5.49"/><path class="cls-2" d="M49.53,9.85V6.79c0-.34-.15-.58-.49-.58s-.48.24-.48.58V9.85c0,.33.15.58.48.58s.49-.25.49-.58m-.84,1.63V11.1a1.3,1.3,0,0,1-1.07-1.45V6.93a1.43,1.43,0,1,1,2.85,0V9.65A1.34,1.34,0,0,1,49.78,11l.69.13v.71Z"/><path class="cls-2" d="M53.69,5.49V9.73c0,.87-.37,1.43-1.33,1.43A1.26,1.26,0,0,1,51,9.73V5.49h.94V9.82c0,.33.13.56.46.56s.47-.23.47-.56V5.49Z"/><rect class="cls-2" x="54.18" y="5.49" width="0.94" height="5.61"/><path class="cls-2" d="M56.56,8.57v1.76H57a.41.41,0,0,0,.46-.46V9c0-.3-.14-.46-.47-.46Zm0-.72h.33a.39.39,0,0,0,.45-.45V6.71a.39.39,0,0,0-.45-.45h-.33Zm-.94-2.36H57c1,0,1.26.44,1.26,1.23v.57a.81.81,0,0,1-.56.89.86.86,0,0,1,.7.94v.74c0,.8-.35,1.24-1.3,1.24H55.62Z"/><polygon class="cls-2" points="58.8 5.49 59.74 5.49 59.74 10.33 60.87 10.33 60.87 11.1 58.8 11.1 58.8 5.49"/><polygon class="cls-2" points="61.25 5.49 63.5 5.49 63.5 6.26 62.19 6.26 62.19 7.86 63.13 7.86 63.13 8.62 62.19 8.62 62.19 10.33 63.5 10.33 63.5 11.1 61.25 11.1 61.25 5.49"/><polygon class="cls-2" points="19.78 16.82 19.78 18.95 18.83 18.95 18.83 16.82 17.78 13.34 18.77 13.34 19.34 15.47 19.35 15.47 19.92 13.34 20.82 13.34 19.78 16.82"/><polygon class="cls-2" points="22.59 15.43 22.59 18.95 21.8 18.95 21.8 13.34 22.73 13.34 23.75 16.56 23.75 13.34 24.53 13.34 24.53 18.95 23.7 18.95 22.59 15.43"/><path class="cls-2" d="M26.85,17.65v-3c0-.34-.15-.58-.49-.58s-.48.24-.48.58v3c0,.34.15.58.48.58s.49-.24.49-.58m-1.92-.15V14.79a1.43,1.43,0,1,1,2.86,0V17.5a1.43,1.43,0,1,1-2.86,0"/><path class="cls-2" d="M28.93,17.5V14.79c0-.88.41-1.52,1.4-1.52s1.33.58,1.33,1.41v.66H30.8v-.73c0-.35-.11-.55-.45-.55s-.48.24-.48.58v3c0,.34.14.58.48.58s.45-.22.45-.55v-1h.86v1c0,.8-.33,1.4-1.33,1.4s-1.4-.65-1.4-1.52"/><path class="cls-2" d="M34,17.65v-3c0-.34-.14-.58-.48-.58s-.48.24-.48.58v3c0,.34.15.58.48.58S34,18,34,17.65M32,17.5V14.79a1.43,1.43,0,1,1,2.86,0V17.5a1.43,1.43,0,1,1-2.86,0"/><polygon class="cls-2" points="36.09 15.43 36.09 18.95 35.3 18.95 35.3 13.34 36.23 13.34 37.24 16.56 37.24 13.34 38.03 13.34 38.03 18.95 37.2 18.95 36.09 15.43"/><polygon class="cls-2" points="38.33 13.34 40.83 13.34 40.83 14.11 40.05 14.11 40.05 18.95 39.1 18.95 39.1 14.11 38.33 14.11 38.33 13.34"/><path class="cls-2" d="M41.76,17.17h.75l-.37-2.25h0ZM40.57,19l1.06-5.61h1.08L43.78,19h-1l-.18-1h-1l-.16,1Z"/><polygon class="cls-2" points="46.63 15.31 46.6 15.31 45.97 18.95 45.53 18.95 44.82 15.31 44.81 15.31 44.81 18.95 44.03 18.95 44.03 13.34 45.13 13.34 45.74 16.5 45.75 16.5 46.3 13.34 47.49 13.34 47.49 18.95 46.63 18.95 46.63 15.31"/><rect class="cls-2" x="47.89" y="13.34" width="0.94" height="5.61"/><polygon class="cls-2" points="50.04 15.43 50.04 18.95 49.24 18.95 49.24 13.34 50.17 13.34 51.19 16.56 51.19 13.34 51.97 13.34 51.97 18.95 51.15 18.95 50.04 15.43"/><path class="cls-2" d="M53.41,17.17h.75l-.37-2.25h0ZM52.23,19l1.06-5.61h1.07L55.43,19h-1l-.17-1h-1l-.17,1Z"/><polygon class="cls-2" points="56.48 15.43 56.48 18.95 55.69 18.95 55.69 13.34 56.61 13.34 57.63 16.56 57.63 13.34 58.41 13.34 58.41 18.95 57.59 18.95 56.48 15.43"/><polygon class="cls-2" points="58.71 13.34 61.22 13.34 61.22 14.11 60.44 14.11 60.44 18.95 59.49 18.95 59.49 14.11 58.71 14.11 58.71 13.34"/><polygon class="cls-2" points="61.52 13.34 63.77 13.34 63.77 14.11 62.46 14.11 62.46 15.71 63.4 15.71 63.4 16.48 62.46 16.48 62.46 18.18 63.77 18.18 63.77 18.95 61.52 18.95 61.52 13.34"/></g></g></svg>