<svg xmlns="http://www.w3.org/2000/svg" viewBox="0 0 66.17 66.17"><defs><style>.cls-1{fill:#cd8b2a;}.cls-2{fill:#fff;}.cls-3{fill:none;stroke:#fff;stroke-miterlimit:10;stroke-width:0.41px;}</style></defs><title>Asset 6</title><g id="Layer_2" data-name="Layer 2"><g id="Layer_1-2" data-name="Layer 1"><rect class="cls-1" width="66.17" height="66.17"/><path class="cls-2" d="M49.88,34.33a10.89,10.89,0,0,0-8.22-2l-.16,0c-1.64.39-4.24,1-7.28,4.81l0,.06,0,.05a.25.25,0,0,0-.05.15.27.27,0,0,0,0,.12l.07.12c.38.64.86,1.46,1.27,2.22v0a.26.26,0,0,0,.23.15.22.22,0,0,0,.18-.08l.06-.08c2.7-3.73,4.83-4.25,6.26-4.59l.18,0A7.86,7.86,0,0,1,48,36.71c1.6,1.26,2.41,3.27,2.41,6,0,4.52-2.2,6.29-4,7a7.57,7.57,0,0,1-5.63-.37l-.12-.06c-1.57-.68-3.91-2.1-6.13-6.54C30,33.74,26.3,32.9,23.84,32.34l-.13,0a10.69,10.69,0,0,0-8.09,2c-1.6,1.28-3.51,3.76-3.51,8.34a9.78,9.78,0,0,0,2.05,6.57,10,10,0,0,0,10,3.45,9.48,9.48,0,0,0,3.92-1.82l1.4,1.27a.25.25,0,0,0,.33,0,.21.21,0,0,0,.05-.15v0l1-6.23v-.07a.25.25,0,0,0-.08-.17.2.2,0,0,0-.15,0h-.11l-6,1.67-.11,0a.23.23,0,0,0-.12.06.25.25,0,0,0,0,.33l.07.06,1.34,1.21a6.28,6.28,0,0,1-2.19.93,7,7,0,0,1-7-2.26l0-.05a6.78,6.78,0,0,1-1.44-4.74c0-2.71.8-4.71,2.37-6A7.64,7.64,0,0,1,23,35.27l.13,0c2,.45,4.79,1.08,8.6,8.74,2,4,4.46,6.58,7.58,8a11.13,11.13,0,0,0,4.76,1.1,9.46,9.46,0,0,0,3.31-.59c1.81-.67,6-3,6-9.82,0-4.57-1.94-7.06-3.56-8.35"/><path class="cls-3" d="M49.89,34.32a10.86,10.86,0,0,0-8.22-2l-.16,0c-1.64.39-4.25,1-7.29,4.81a.18.18,0,0,0,0,.07l0,0a.25.25,0,0,0-.05.15.28.28,0,0,0,0,.13l.07.11c.38.64.87,1.47,1.27,2.23,0,0,0,0,0,0a.29.29,0,0,0,.24.14.29.29,0,0,0,.18-.07.35.35,0,0,0,0-.08c2.71-3.74,4.83-4.26,6.27-4.6l.17,0A7.87,7.87,0,0,1,48,36.7c1.6,1.27,2.41,3.28,2.41,6,0,4.53-2.2,6.3-4.05,7a7.57,7.57,0,0,1-5.63-.37l-.12-.06c-1.58-.68-3.92-2.11-6.13-6.55-4.46-9-8.19-9.8-10.66-10.36l-.13,0a10.61,10.61,0,0,0-8.09,2c-1.6,1.28-3.51,3.77-3.51,8.35a9.82,9.82,0,0,0,2,6.57,10,10,0,0,0,10,3.47,9.69,9.69,0,0,0,3.93-1.83l1.4,1.27a.25.25,0,0,0,.33,0,.21.21,0,0,0,.05-.15v0l1-6.24v-.07a.21.21,0,0,0-.08-.16.22.22,0,0,0-.15-.06h-.11l-6,1.68h-.11a.19.19,0,0,0-.11.07.22.22,0,0,0,0,.32l.07.07,1.33,1.21a6.33,6.33,0,0,1-2.19.93,7,7,0,0,1-7-2.27l0,0a6.81,6.81,0,0,1-1.44-4.75c0-2.71.8-4.72,2.37-6A7.64,7.64,0,0,1,23,35.26l.13,0c2,.45,4.8,1.08,8.61,8.75,2,4,4.47,6.59,7.59,8a11.08,11.08,0,0,0,4.76,1.1,9.5,9.5,0,0,0,3.31-.59c1.81-.67,6-3,6-9.83,0-4.58-1.94-7.07-3.56-8.36"/><polygon class="cls-2" points="6.61 8.7 6.63 8.7 6.63 18.91 8.87 18.91 8.87 5.57 7.08 5.57 5.01 7.99 5.01 10.33 5.03 10.33 6.61 8.7"/><path class="cls-2" d="M10.21,8.32V9.94h2V8.26c0-.8.4-1,.87-1s.8.18.8,1V9.33a2.64,2.64,0,0,1-.82,2.3L11.84,13a4.63,4.63,0,0,0-1.67,3.48v2.46H16V17.08H12.31v-.63a2.56,2.56,0,0,1,.94-2l1.44-1.51a4.21,4.21,0,0,0,1.42-3.37V8.22c0-1.91-.93-2.81-2.93-2.81a2.63,2.63,0,0,0-3,2.91"/><path class="cls-2" d="M23.22,6.33V8.54h.35c.32,0,.46-.16.46-.47V6.78c0-.3-.14-.45-.46-.45Zm-.94-.77h1.4c.95,0,1.3.47,1.3,1.26V8c0,.79-.35,1.27-1.3,1.27h-.46v1.9h-.94Z"/><path class="cls-2" d="M26.41,6.33V8.07h.31a.4.4,0,0,0,.46-.46V6.78c0-.3-.14-.45-.46-.45Zm0,2.26v2.58h-.95V5.56h1.38c.95,0,1.29.47,1.29,1.26v.72c0,.6-.21,1-.75,1.08l.9,2.55h-1Z"/><path class="cls-2" d="M30.56,9.87v-3c0-.34-.15-.58-.49-.58s-.48.24-.48.58v3c0,.34.15.58.48.58s.49-.24.49-.58m-1.91-.15V7A1.43,1.43,0,1,1,31.5,7V9.72a1.43,1.43,0,1,1-2.85,0"/><path class="cls-2" d="M33.38,10.4c.38,0,.53-.23.53-.57V6.89c0-.33-.15-.56-.53-.56H33V10.4Zm1.48-3.34v2.6c0,.86-.36,1.51-1.37,1.51H32V5.56h1.45c1,0,1.37.64,1.37,1.5"/><path class="cls-2" d="M38.13,5.56V9.8c0,.87-.37,1.43-1.33,1.43A1.26,1.26,0,0,1,35.39,9.8V5.56h.94V9.89c0,.33.14.56.47.56s.46-.23.46-.56V5.56Z"/><path class="cls-2" d="M38.66,9.72V7a1.33,1.33,0,0,1,1.41-1.52c1,0,1.33.58,1.33,1.41v.66h-.86V6.82c0-.34-.11-.54-.45-.54s-.48.24-.48.58v3c0,.34.14.58.48.58s.45-.22.45-.55v-1h.86v1c0,.8-.33,1.39-1.33,1.39a1.33,1.33,0,0,1-1.41-1.51"/><path class="cls-2" d="M41.91,9.72V7a1.33,1.33,0,0,1,1.41-1.52c1,0,1.33.58,1.33,1.41v.66h-.86V6.82c0-.34-.11-.54-.45-.54s-.48.24-.48.58v3c0,.34.14.58.48.58s.45-.22.45-.55v-1h.86v1c0,.8-.33,1.39-1.33,1.39a1.33,1.33,0,0,1-1.41-1.51"/><rect class="cls-2" x="45.16" y="5.56" width="0.94" height="5.61"/><path class="cls-2" d="M48.56,9.87v-3c0-.34-.15-.58-.49-.58s-.48.24-.48.58v3c0,.34.15.58.48.58s.49-.24.49-.58m.28-4.71-1.48.19V4.82l1.48-.31ZM46.65,9.72V7A1.43,1.43,0,1,1,49.5,7V9.72a1.43,1.43,0,1,1-2.85,0"/><polygon class="cls-2" points="50.83 7.64 50.83 11.17 50.04 11.17 50.04 5.56 50.97 5.56 51.98 8.78 51.98 5.56 52.77 5.56 52.77 11.17 51.94 11.17 50.83 7.64"/><polygon class="cls-2" points="24.12 16.47 24.12 18.61 23.17 18.61 23.17 16.47 22.12 13 23.11 13 23.68 15.13 23.69 15.13 24.26 13 25.16 13 24.12 16.47"/><path class="cls-2" d="M26.41,17.16V14.45c0-.88.41-1.52,1.4-1.52s1.33.58,1.33,1.41V15h-.86v-.74c0-.34-.11-.54-.45-.54s-.48.24-.48.58v3c0,.34.14.58.48.58s.45-.22.45-.55v-1h.86v1c0,.8-.33,1.39-1.33,1.39a1.32,1.32,0,0,1-1.4-1.51"/><path class="cls-2" d="M31.57,17.31v-3c0-.34-.15-.58-.49-.58s-.48.24-.48.58v3c0,.34.15.58.48.58s.49-.24.49-.58m-1.92-.15V14.45a1.43,1.43,0,1,1,2.86,0v2.71a1.43,1.43,0,1,1-2.86,0"/><polygon class="cls-2" points="33.84 15.08 33.84 18.61 33.04 18.61 33.04 13 33.97 13 34.99 16.22 34.99 13 35.77 13 35.77 18.61 34.95 18.61 33.84 15.08"/><path class="cls-2" d="M36.26,17.4v-.75h.88v.77c0,.31.14.49.46.49s.43-.2.43-.49V17.2a1,1,0,0,0-.42-.79l-.56-.56a1.9,1.9,0,0,1-.78-1.49v-.19a1.17,1.17,0,0,1,1.32-1.24c.94,0,1.32.47,1.32,1.28v.45h-.86v-.49q0-.48-.45-.48a.42.42,0,0,0-.45.47v.11c0,.32.18.5.45.76l.6.6A1.85,1.85,0,0,1,39,17.09v.27a1.21,1.21,0,0,1-1.37,1.31,1.16,1.16,0,0,1-1.33-1.27"/><path class="cls-2" d="M42.2,13v4.24c0,.87-.38,1.43-1.33,1.43a1.26,1.26,0,0,1-1.41-1.43V13h.94v4.33c0,.33.13.56.47.56s.46-.23.46-.56V13Z"/><polygon class="cls-2" points="45.33 14.97 45.3 14.97 44.67 18.61 44.23 18.61 43.53 14.97 43.51 14.97 43.51 18.61 42.73 18.61 42.73 13 43.83 13 44.44 16.16 44.45 16.16 45 13 46.19 13 46.19 18.61 45.33 18.61 45.33 14.97"/><path class="cls-2" d="M48.64,17.31v-3c0-.34-.15-.58-.49-.58s-.48.24-.48.58v3c0,.34.15.58.48.58s.49-.24.49-.58m-1.92-.15V14.45a1.43,1.43,0,1,1,2.86,0v2.71a1.43,1.43,0,1,1-2.86,0"/><path class="cls-2" d="M23.22,21.21V23h.32a.4.4,0,0,0,.46-.46v-.83c0-.3-.14-.45-.46-.45Zm0,2.26v2.58h-.94V20.44h1.37c1,0,1.3.47,1.3,1.26v.72c0,.6-.21,1-.75,1.08l.9,2.55h-1Z"/><polygon class="cls-2" points="25.46 20.44 27.71 20.44 27.71 21.21 26.41 21.21 26.41 22.81 27.34 22.81 27.34 23.57 26.41 23.57 26.41 25.28 27.71 25.28 27.71 26.05 25.46 26.05 25.46 20.44"/><path class="cls-2" d="M28.12,24.84v-.75H29v.77c0,.31.14.49.46.49s.43-.2.43-.49v-.22a1,1,0,0,0-.42-.79l-.55-.56a1.88,1.88,0,0,1-.79-1.49v-.19a1.18,1.18,0,0,1,1.33-1.24c.94,0,1.31.47,1.31,1.28v.45h-.86v-.49q0-.48-.45-.48a.41.41,0,0,0-.44.47v.11c0,.32.17.5.44.76l.61.6a1.88,1.88,0,0,1,.76,1.45v.28a1.21,1.21,0,0,1-1.37,1.31,1.17,1.17,0,0,1-1.34-1.27"/><path class="cls-2" d="M32.27,21.21v2.21h.34a.41.41,0,0,0,.47-.47V21.66c0-.3-.14-.45-.47-.45Zm-1-.77h1.4c1,0,1.3.47,1.3,1.26v1.18c0,.79-.35,1.26-1.3,1.26h-.45v1.91h-1Z"/><path class="cls-2" d="M36.42,24.75v-3c0-.34-.15-.58-.49-.58s-.48.24-.48.58v3c0,.34.15.58.48.58s.49-.24.49-.58m-1.91-.15V21.89a1.43,1.43,0,1,1,2.85,0V24.6a1.43,1.43,0,1,1-2.85,0"/><polygon class="cls-2" points="38.69 22.52 38.69 26.05 37.9 26.05 37.9 20.44 38.82 20.44 39.84 23.66 39.84 20.44 40.63 20.44 40.63 26.05 39.8 26.05 38.69 22.52"/><path class="cls-2" d="M41.11,24.84v-.75H42v.77c0,.31.14.49.46.49s.43-.2.43-.49v-.22a1,1,0,0,0-.42-.79l-.55-.56a1.88,1.88,0,0,1-.79-1.49v-.19a1.17,1.17,0,0,1,1.32-1.24c1,0,1.32.47,1.32,1.28v.45H42.9v-.49q0-.48-.45-.48a.42.42,0,0,0-.45.47v.11c0,.32.18.5.45.76l.61.6a1.88,1.88,0,0,1,.76,1.45v.28a1.22,1.22,0,0,1-1.38,1.31,1.16,1.16,0,0,1-1.33-1.27"/><path class="cls-2" d="M45.26,24.27H46L45.64,22h0Zm-1.18,1.78,1.06-5.61h1.07l1.07,5.61h-1l-.17-1h-1l-.17,1Z"/><path class="cls-2" d="M48.61,23.52v1.76H49a.41.41,0,0,0,.47-.46V24c0-.3-.15-.46-.48-.46Zm0-.72h.33a.39.39,0,0,0,.45-.45v-.69c0-.3-.14-.45-.46-.45h-.32Zm-.94-2.36H49c.94,0,1.26.44,1.26,1.23v.57a.84.84,0,0,1-.56.9.84.84,0,0,1,.7.93v.74c0,.8-.36,1.24-1.3,1.24H47.67Z"/><polygon class="cls-2" points="50.9 20.44 51.84 20.44 51.84 25.28 52.97 25.28 52.97 26.05 50.9 26.05 50.9 20.44"/><polygon class="cls-2" points="53.39 20.44 55.64 20.44 55.64 21.21 54.34 21.21 54.34 22.81 55.27 22.81 55.27 23.57 54.34 23.57 54.34 25.28 55.64 25.28 55.64 26.05 53.39 26.05 53.39 20.44"/><path class="cls-2" d="M56.06,24.84v-.75h.87v.77c0,.31.14.49.47.49s.43-.2.43-.49v-.22a1,1,0,0,0-.43-.79l-.55-.56a1.88,1.88,0,0,1-.79-1.49v-.19a1.18,1.18,0,0,1,1.33-1.24c.94,0,1.31.47,1.31,1.28v.45h-.86v-.49c0-.32-.15-.48-.44-.48a.42.42,0,0,0-.45.47v.11c0,.32.17.5.45.76l.6.6a1.88,1.88,0,0,1,.76,1.45v.28a1.21,1.21,0,0,1-1.37,1.31,1.16,1.16,0,0,1-1.33-1.27"/></g></g></svg>