<svg xmlns="http://www.w3.org/2000/svg" viewBox="0 0 66.17 66.17"><defs><style>.cls-1{fill:#d19f2a;}.cls-2{fill:#fff;}</style></defs><title>Asset 16</title><g id="Layer_2" data-name="Layer 2"><g id="Layer_1-2" data-name="Layer 1"><rect class="cls-1" width="66.17" height="66.17"/><path class="cls-2" d="M26.41,56.23v1a.45.45,0,0,0,.43.42h11a.46.46,0,0,0,.43-.44h0V56.12A17,17,0,0,0,50,43.06v0A.13.13,0,0,0,50,43a.44.44,0,0,0-.44-.44H14.77a.44.44,0,0,0-.44.44l0,.2A17.05,17.05,0,0,0,26.41,56.23"/><path class="cls-2" d="M38.22,27.67c-.15.21-3.51,5,.07,9,1.64,1.79,1.5,3.38,1,4.45h2.3A5.67,5.67,0,0,0,40,35.48c-2.64-2.88,0-6.78.07-6.84a.85.85,0,0,0-.37-1.28,1.21,1.21,0,0,0-1.51.31"/><path class="cls-2" d="M32.4,41.08h2.3a5.67,5.67,0,0,0-1.59-5.6c-2.64-2.88,0-6.78.07-6.84a.87.87,0,0,0-.37-1.29,1.23,1.23,0,0,0-1.51.32c-.15.21-3.51,5,.07,9,1.64,1.79,1.5,3.38,1,4.45"/><path class="cls-2" d="M24.37,27.67c-.14.21-3.5,5,.08,9,1.64,1.8,1.5,3.38,1,4.45h2.3a5.66,5.66,0,0,0-1.6-5.6c-2.64-2.88,0-6.78.08-6.84a.86.86,0,0,0-.38-1.28,1.21,1.21,0,0,0-1.51.31"/><path class="cls-2" d="M12.73,17.06H9.05v-.63a2.56,2.56,0,0,1,.94-2l1.44-1.51A4.2,4.2,0,0,0,12.84,9.5V8.2c0-1.91-.92-2.81-2.93-2.81a2.63,2.63,0,0,0-3,2.91V9.91H9V8.24c0-.8.39-1,.86-1s.81.18.81,1V9.3a2.65,2.65,0,0,1-.83,2.31L8.57,12.94A4.67,4.67,0,0,0,6.9,16.43v2.46h5.83Z"/><polygon class="cls-2" points="20.25 8.74 19.34 8.74 19.34 11.21 18.4 11.21 18.4 5.6 19.34 5.6 19.34 7.98 20.25 7.98 20.25 5.6 21.2 5.6 21.2 11.21 20.25 11.21 20.25 8.74"/><path class="cls-2" d="M22.77,9.43h.75l-.37-2.25h0Zm-1.18,1.78L22.65,5.6h1.07l1.07,5.61h-1l-.17-1h-1l-.17,1Z"/><polygon class="cls-2" points="27.77 7.57 27.75 7.57 27.11 11.21 26.67 11.21 25.97 7.57 25.95 7.57 25.95 11.21 25.18 11.21 25.18 5.6 26.27 5.6 26.89 8.76 26.89 8.76 27.44 5.6 28.63 5.6 28.63 11.21 27.77 11.21 27.77 7.57"/><path class="cls-2" d="M30.11,8.69v1.75h.41c.32,0,.47-.16.47-.45V9.14c0-.3-.14-.45-.47-.45Zm0-.72h.33a.4.4,0,0,0,.45-.46V6.83a.4.4,0,0,0-.46-.46h-.32ZM29.17,5.6h1.36c.95,0,1.26.44,1.26,1.23V7.4a.82.82,0,0,1-.56.9.85.85,0,0,1,.7.93V10c0,.79-.36,1.23-1.3,1.23H29.17Z"/><path class="cls-2" d="M33.34,6.37V8.12h.32a.41.41,0,0,0,.46-.47V6.83a.4.4,0,0,0-.46-.46Zm0,2.27v2.57H32.4V5.6h1.37c.95,0,1.3.47,1.3,1.26v.72c0,.6-.21,1-.75,1.08l.9,2.55h-1Z"/><polygon class="cls-2" points="35.58 5.6 37.83 5.6 37.83 6.37 36.52 6.37 36.52 7.98 37.46 7.98 37.46 8.74 36.52 8.74 36.52 10.44 37.83 10.44 37.83 11.21 35.58 11.21 35.58 5.6"/><path class="cls-2" d="M18.4,17.62V14.9a1.32,1.32,0,0,1,1.4-1.51c1,0,1.33.58,1.33,1.4v.67h-.86v-.74c0-.35-.11-.55-.45-.55s-.48.24-.48.58v3c0,.34.14.58.48.58s.45-.21.45-.54v-1h.86v1c0,.8-.33,1.4-1.33,1.4a1.32,1.32,0,0,1-1.4-1.51"/><polygon class="cls-2" points="21.64 13.46 23.89 13.46 23.89 14.22 22.59 14.22 22.59 15.83 23.52 15.83 23.52 16.59 22.59 16.59 22.59 18.29 23.89 18.29 23.89 19.06 21.64 19.06 21.64 13.46"/><path class="cls-2" d="M25.34,14.22V16h.32a.41.41,0,0,0,.46-.46v-.83a.4.4,0,0,0-.46-.46Zm0,2.27v2.57H24.4V13.45h1.37c.95,0,1.3.48,1.3,1.26v.72c0,.61-.22,1-.75,1.09l.9,2.54h-1Z"/><path class="cls-2" d="M29.49,17.76v-3c0-.34-.15-.58-.49-.58s-.48.24-.48.58v3c0,.34.15.58.48.58s.49-.24.49-.58m-1.91-.14V14.9a1.43,1.43,0,1,1,2.85,0v2.72a1.43,1.43,0,1,1-2.85,0"/></g></g></svg>