<svg id="Capa_1" data-name="Capa 1" xmlns="http://www.w3.org/2000/svg" viewBox="0 0 24.44 42.62"><defs><style>.cls-1{fill:#4c5c6e;}</style></defs><g id="Grupo_1708" data-name="Grupo 1708"><g id="Grupo_910" data-name="Grupo 910"><path id="Trazado_1009" data-name="Trazado 1009" class="cls-1" d="M12.52,11.79A12.19,12.19,0,0,0,6.37,34.54a3.14,3.14,0,0,1,1.13,1,1.82,1.82,0,0,1,.18.71v1.55a1.85,1.85,0,0,0,1.63,1.63h6.52a1.89,1.89,0,0,0,1.62-1.63V36.31a2.15,2.15,0,0,1,.6-1.37l.06-.06s.39-.22.76-.45a12.21,12.21,0,0,0-6.35-22.64m4.26,18.28a5,5,0,0,1-4.35,2.13,4.74,4.74,0,0,1-4.26-2.14,12,12,0,0,1,0-11.25,4.74,4.74,0,0,1,4.34-2.23,5.08,5.08,0,0,1,3.4,1.23,8.43,8.43,0,0,1,2.39,6.76,9.33,9.33,0,0,1-1.49,5.5" transform="translate(-0.28 -0.69)"/></g><g id="Grupo_911" data-name="Grupo 911"><path id="Trazado_1010" data-name="Trazado 1010" class="cls-1" d="M9.65,40.59h5.74c1.39,0,1.39,2.72,0,2.72H9.65C8.25,43.31,8.25,40.59,9.65,40.59Z" transform="translate(-0.28 -0.69)"/></g><g id="Grupo_912" data-name="Grupo 912"><path id="Trazado_1011" data-name="Trazado 1011" class="cls-1" d="M13.86,1.74v6.1c0,1.39-2.71,1.39-2.71,0V1.74C11.15.34,13.86.34,13.86,1.74Z" transform="translate(-0.28 -0.69)"/><path id="Trazado_1012" data-name="Trazado 1012" class="cls-1" d="M3.54,3.49,7.86,7.81c1,1-.93,2.9-1.92,1.92L1.62,5.41C.63,4.42,2.55,2.51,3.54,3.49Z" transform="translate(-0.28 -0.69)"/><path id="Trazado_1013" data-name="Trazado 1013" class="cls-1" d="M23.43,5.41,19.11,9.73c-1,1-2.91-.94-1.92-1.92l4.32-4.32C22.49,2.51,24.41,4.42,23.43,5.41Z" transform="translate(-0.28 -0.69)"/></g></g></svg>