<svg id="Capa_1" data-name="Capa 1" xmlns="http://www.w3.org/2000/svg" viewBox="0 0 56.65 56.65"><defs><style>.cls-1{opacity:0.29;}.cls-2{fill:#fff;}.cls-3{fill:none;stroke:#fff;stroke-width:2px;}</style></defs><g id="Grupo_2438" data-name="Grupo 2438" class="cls-1"><g id="Grupo_2437" data-name="Grupo 2437"><path id="Trazado_2391" data-name="Trazado 2391" class="cls-2" d="M29,56.32A27.32,27.32,0,0,0,56.32,29h0A27.32,27.32,0,0,0,1.68,29h0A27.32,27.32,0,0,0,29,56.32h0" transform="translate(-0.68 -0.92)"/></g></g><g id="Grupo_2441" data-name="Grupo 2441"><path id="Trazado_2392" data-name="Trazado 2392" class="cls-3" d="M29,56.57A27.34,27.34,0,0,0,56.33,29.24h0a27.33,27.33,0,0,0-54.65,0h0A27.33,27.33,0,0,0,29,56.57Z" transform="translate(-0.68 -0.92)"/></g><g id="Grupo_2443" data-name="Grupo 2443"><path id="Trazado_2394" data-name="Trazado 2394" class="cls-3" d="M15.15,32.9v9.5h27.7V32.9" transform="translate(-0.68 -0.92)"/></g><g id="Grupo_2444" data-name="Grupo 2444"><path id="Trazado_2395" data-name="Trazado 2395" class="cls-3" d="M29,11.77V32.41" transform="translate(-0.68 -0.92)"/></g><g id="Grupo_2445" data-name="Grupo 2445"><path id="Trazado_2396" data-name="Trazado 2396" class="cls-3" d="M34.1,26.92,29,32.41l-5.1-5.49" transform="translate(-0.68 -0.92)"/></g></svg>