<svg id="Capa_1" data-name="Capa 1" xmlns="http://www.w3.org/2000/svg" viewBox="0 0 52.58 52.58"><defs><style>.cls-1{opacity:0.32;}.cls-2{fill:#fff;}</style></defs><g id="Grupo_3666" data-name="Grupo 3666" class="cls-1"><g id="Grupo_3665" data-name="Grupo 3665"><path id="Trazado_3686" data-name="Trazado 3686" class="cls-2" d="M27.5,52.79A25.29,25.29,0,0,0,52.79,27.5h0A25.29,25.29,0,1,0,27.5,52.79h0" transform="translate(-1.21 -1.21)"/></g></g><g id="Grupo_3669" data-name="Grupo 3669"><path class="cls-2" d="M27.5,53.79h0A26.29,26.29,0,1,1,53.79,27.5,26.09,26.09,0,0,1,27.5,53.79Zm0-50.58a24.29,24.29,0,1,0,0,48.58v0a24.29,24.29,0,0,0,0-48.58Z" transform="translate(-1.21 -1.21)"/></g><g id="Grupo_3670" data-name="Grupo 3670"><path id="Trazado_3688" data-name="Trazado 3688" class="cls-2" d="M37.63,28.77c1.4-.7,1.4-1.84,0-2.54L22.86,18.85a1.6,1.6,0,0,0-2.25.36,1.56,1.56,0,0,0-.29,1.2V34.59a1.62,1.62,0,0,0,1.33,1.85,1.59,1.59,0,0,0,1.21-.29Z" transform="translate(-1.21 -1.21)"/></g></svg>