<svg id="Capa_1" data-name="Capa 1" xmlns="http://www.w3.org/2000/svg" xmlns:xlink="http://www.w3.org/1999/xlink" viewBox="0 0 116.16 116.16"><defs><style>.cls-1{fill:none;}.cls-2{fill:#eef2f4;}.cls-3{opacity:0.46;}.cls-4{clip-path:url(#clip-path);}.cls-5{fill:#fff;}.cls-6{fill:#4a5b6d;}.cls-7{clip-path:url(#clip-path-2);}.cls-8{fill:#5fae32;}.cls-9{fill:#e5a61e;}.cls-10{fill:#b60922;}.cls-11{fill:#4a8f32;}.cls-12{fill:#3c6c33;}.cls-13{fill:#feb500;}.cls-14{fill:#e8271e;}.cls-15{fill:#fa8a14;}.cls-16{fill:#0086cc;}.cls-17{fill:#8e0b34;}.cls-18{fill:#11b2dc;}.cls-19{fill:#ee511d;}.cls-20{fill:#df032c;}.cls-21{fill:#cf0055;}.cls-22{fill:#093959;}.cls-23{fill:#bf841c;}.cls-24{fill:#00578d;}</style><clipPath id="clip-path" transform="translate(-2.77 -1.42)"><rect class="cls-1" x="31.81" y="32.04" width="58.15" height="49.67"/></clipPath><clipPath id="clip-path-2" transform="translate(-2.77 -1.42)"><rect class="cls-1" x="7.48" y="6.55" width="106.22" height="106.2"/></clipPath></defs><path id="shutterstock_1928164502" data-name="shutterstock 1928164502" class="cls-2" d="M2.77,59.5a58.08,58.08,0,0,0,58.08,58.08h0A58.08,58.08,0,0,0,118.93,59.5h0A58.08,58.08,0,0,0,60.85,1.42h0A58.08,58.08,0,0,0,2.77,59.5" transform="translate(-2.77 -1.42)"/><g id="Grupo_2440" data-name="Grupo 2440" class="cls-3"><g id="Grupo_2439" data-name="Grupo 2439"><g class="cls-4"><g id="Grupo_2438" data-name="Grupo 2438"><g id="Grupo_2437" data-name="Grupo 2437"><path id="Trazado_2391" data-name="Trazado 2391" class="cls-5" d="M60.88,80.86A21.44,21.44,0,0,0,82.33,59.42h0A21.44,21.44,0,0,0,60.89,38h0A21.44,21.44,0,0,0,39.44,59.42h0A21.44,21.44,0,0,0,60.88,80.86h0" transform="translate(-2.77 -1.42)"/></g></g></g></g></g><g id="Grupo_2441" data-name="Grupo 2441"><path class="cls-6" d="M61.1,81.86h0A22.45,22.45,0,1,1,77,75.29,22.3,22.3,0,0,1,61.1,81.86ZM61.1,39a20.45,20.45,0,1,0,0,40.89h0A20.45,20.45,0,1,0,61.1,39Z" transform="translate(-2.77 -1.42)"/></g><g id="Grupo_2443" data-name="Grupo 2443"><polygon class="cls-6" points="69.84 69.32 46.09 69.32 46.09 60.87 48.09 60.87 48.09 67.32 67.84 67.32 67.84 60.87 69.84 60.87 69.84 69.32"/></g><g id="Grupo_2444" data-name="Grupo 2444"><rect class="cls-6" x="57.08" y="44.28" width="2" height="16.2"/></g><g id="Grupo_2445" data-name="Grupo 2445"><polygon class="cls-6" points="58.16 61.95 53.42 56.86 54.89 55.5 58.16 59.02 61.43 55.5 62.9 56.86 58.16 61.95"/></g><g id="Grupo_3727" data-name="Grupo 3727"><g class="cls-7"><g id="Grupo_3726" data-name="Grupo 3726"><path id="Trazado_3748" data-name="Trazado 3748" class="cls-8" d="M34.76,44.5a29.81,29.81,0,0,1,4.77-6.12L23.92,21.26A53,53,0,0,0,14,34.16Z" transform="translate(-2.77 -1.42)"/><path id="Trazado_3749" data-name="Trazado 3749" class="cls-9" d="M73,32.41a29.51,29.51,0,0,1,6.55,4.1L95.23,19.42a53.5,53.5,0,0,0-13.87-8.66Z" transform="translate(-2.77 -1.42)"/><path id="Trazado_3750" data-name="Trazado 3750" class="cls-10" d="M108.88,37.55,88.13,47.9a29.23,29.23,0,0,1,2.08,7.33l23.08-2.18a52.7,52.7,0,0,0-4.41-15.5" transform="translate(-2.77 -1.42)"/><path id="Trazado_3751" data-name="Trazado 3751" class="cls-11" d="M86.64,44.9l20.75-10.34a53.28,53.28,0,0,0-9.7-12.88L82,38.77a30.24,30.24,0,0,1,4.6,6.13" transform="translate(-2.77 -1.42)"/><path id="Trazado_3752" data-name="Trazado 3752" class="cls-12" d="M30.64,59.65c0-.47,0-.94,0-1.4L7.59,56.18c-.07,1.14-.11,2.3-.11,3.47A52.9,52.9,0,0,0,9.05,72.48l22.3-6.4a29.62,29.62,0,0,1-.7-6.44" transform="translate(-2.77 -1.42)"/><path id="Trazado_3753" data-name="Trazado 3753" class="cls-13" d="M83.74,78.61a30.08,30.08,0,0,1-5.63,5.3L90.3,103.64a53.45,53.45,0,0,0,11.93-11.08Z" transform="translate(-2.77 -1.42)"/><path id="Trazado_3754" data-name="Trazado 3754" class="cls-14" d="M90.53,59.64A30.3,30.3,0,0,1,89.85,66l22.29,6.4a52.89,52.89,0,0,0,1.56-12.77c0-1.1,0-2.18-.1-3.26L90.51,58.56c0,.36,0,.72,0,1.08" transform="translate(-2.77 -1.42)"/><path id="Trazado_3755" data-name="Trazado 3755" class="cls-15" d="M37.81,79.06l-18.45,14A53.47,53.47,0,0,0,31.41,104L43.59,84.28a30.18,30.18,0,0,1-5.78-5.22" transform="translate(-2.77 -1.42)"/><path id="Trazado_3756" data-name="Trazado 3756" class="cls-16" d="M31,54.91a29.29,29.29,0,0,1,2.21-7.43L12.49,37.15a52.79,52.79,0,0,0-4.58,15.7Z" transform="translate(-2.77 -1.42)"/><path id="Trazado_3757" data-name="Trazado 3757" class="cls-17" d="M87.46,105.43,75.29,85.72a29.43,29.43,0,0,1-7.1,2.89l4.3,22.8a52.67,52.67,0,0,0,15-6" transform="translate(-2.77 -1.42)"/><path id="Trazado_3758" data-name="Trazado 3758" class="cls-18" d="M89,69.24a30,30,0,0,1-3.24,6.67l18.51,14a53.1,53.1,0,0,0,7-14.23Z" transform="translate(-2.77 -1.42)"/><path id="Trazado_3759" data-name="Trazado 3759" class="cls-19" d="M64.91,89.27a29.8,29.8,0,0,1-4.32.32,29.06,29.06,0,0,1-3.49-.21l-4.29,22.8a53.34,53.34,0,0,0,16.39-.13Z" transform="translate(-2.77 -1.42)"/><path id="Trazado_3760" data-name="Trazado 3760" class="cls-20" d="M62.5,29.76a29.72,29.72,0,0,1,7.41,1.43L78.24,9.55a52.85,52.85,0,0,0-15.74-3Z" transform="translate(-2.77 -1.42)"/><path id="Trazado_3761" data-name="Trazado 3761" class="cls-21" d="M53.8,88.81A29.84,29.84,0,0,1,46.45,86L34.26,105.75a52.89,52.89,0,0,0,15.25,5.83Z" transform="translate(-2.77 -1.42)"/><path id="Trazado_3762" data-name="Trazado 3762" class="cls-22" d="M51.59,31.08a29.51,29.51,0,0,1,7.56-1.35V6.55A52.91,52.91,0,0,0,43.2,9.45Z" transform="translate(-2.77 -1.42)"/><path id="Trazado_3763" data-name="Trazado 3763" class="cls-23" d="M35.78,76.4a29.54,29.54,0,0,1-3.53-7.09L10,75.71a52.84,52.84,0,0,0,7.36,14.71Z" transform="translate(-2.77 -1.42)"/><path id="Trazado_3764" data-name="Trazado 3764" class="cls-24" d="M42,36.15a30.23,30.23,0,0,1,6.43-3.88L40.08,10.65A53.59,53.59,0,0,0,26.41,19Z" transform="translate(-2.77 -1.42)"/></g></g></g></svg>