<?xml version="1.0" encoding="utf-8"?>
<!-- Generator: Adobe Illustrator 26.0.3, SVG Export Plug-In . SVG Version: 6.00 Build 0)  -->
<svg version="1.1" id="Capa_1" xmlns="http://www.w3.org/2000/svg" xmlns:xlink="http://www.w3.org/1999/xlink" x="0px" y="0px"
	 viewBox="0 0 820 430" style="enable-background:new 0 0 820 430;" xml:space="preserve">
<style type="text/css">
	.st0{fill:#FFFFFF;}
	.st1{opacity:0.2;}
	.st2{clip-path:url(#SVGID_00000022529789692009308660000014396044401002768045_);fill:#FFFFFF;}
	.st3{clip-path:url(#SVGID_00000062162127128679730400000016619021706662481822_);fill:#FFFFFF;}
	.st4{clip-path:url(#SVGID_00000133503128530243646630000006826425109402172038_);fill:#FFFFFF;}
	.st5{opacity:0.25;}
	.st6{clip-path:url(#SVGID_00000023259575833638967340000014912977819802182319_);fill:#FFFFFF;}
	.st7{clip-path:url(#SVGID_00000120543396239271100580000005663226593760959894_);fill:#FFFFFF;}
	.st8{clip-path:url(#SVGID_00000059299589268586354000000011837171953498134916_);fill:#FFFFFF;}
</style>
<g>
	<path class="st0" d="M8.5,115.7c0-0.1,0.1-0.2,0.2-0.2H9c0.1,0,0.2,0.1,0.2,0.1l3,6.5l0,0l3-6.5c0-0.1,0.1-0.1,0.2-0.1h0.2
		c0.2,0,0.2,0.1,0.2,0.2l1.6,9.3c0,0.2-0.1,0.3-0.2,0.3h-1.3c-0.1,0-0.2-0.1-0.3-0.2l-0.8-5.2l0,0l-2.4,5.4c0,0.1-0.1,0.2-0.2,0.2
		H12c-0.1,0-0.2-0.1-0.2-0.2l-2.5-5.4l0,0l-0.8,5.2c0,0.1-0.1,0.2-0.2,0.2H7.1c-0.2,0-0.3-0.1-0.3-0.3L8.5,115.7z"/>
	<path class="st0" d="M24.3,125l4.3-9.3c0-0.1,0.1-0.2,0.2-0.2H29c0.1,0,0.2,0.1,0.2,0.2l4.3,9.3c0.1,0.2,0,0.4-0.2,0.4H32
		c-0.2,0-0.3-0.1-0.4-0.3l-0.7-1.5h-4.1l-0.7,1.5c-0.1,0.1-0.2,0.3-0.4,0.3h-1.2C24.3,125.3,24.2,125.1,24.3,125z M27.4,114l2.3-1.6
		c0.2-0.2,0.6,0,0.7,0.3c0.2,0.3,0.2,0.7-0.1,0.8l-2.6,1.2c-0.2,0.1-0.3-0.1-0.5-0.3C27.3,114.3,27.3,114.1,27.4,114z M30.3,122
		l-1.4-3l0,0l-1.4,3H30.3z"/>
	<path class="st0" d="M40.2,124.4c-0.1-0.1-0.2-0.2-0.1-0.4l0.5-0.9c0.1-0.2,0.3-0.2,0.5-0.1c0.6,0.4,1.2,0.9,2.1,0.9
		c0.7,0,1.3-0.5,1.3-1.1c0-0.7-0.6-1.2-1.8-1.7c-1.3-0.5-2.6-1.4-2.6-3c0-1.2,0.9-2.7,3.1-2.7c1.4,0,2.5,0.7,2.8,0.9
		c0.1,0.1,0.2,0.3,0.1,0.5l-0.5,0.8c-0.1,0.2-0.3,0.3-0.5,0.2c-0.6-0.4-1.2-0.8-1.9-0.8c-0.8,0-1.2,0.4-1.2,1c0,0.7,0.5,1.1,1.6,1.6
		c1.3,0.5,2.9,1.3,2.9,3.1c0,1.4-1.2,2.7-3.2,2.7C41.5,125.5,40.6,124.7,40.2,124.4z"/>
	<path class="st0" d="M67,115.5c2.8,0,5,2.2,5,5c0,1.3-0.5,2.5-1.3,3.3l1.4,1.7c0.1,0.2,0,0.4-0.2,0.4h-1.5c-0.1,0-0.2-0.1-0.2-0.1
		l-0.7-1c-0.7,0.4-1.5,0.6-2.3,0.6c-2.8,0-5-2.2-5-5S64.2,115.5,67,115.5z M67,123.7c0.4,0,0.8-0.1,1.2-0.2l-1.7-2.2
		c-0.1-0.2,0-0.4,0.2-0.4h1.5c0.1,0,0.2,0.1,0.2,0.1l1.1,1.4c0.4-0.5,0.6-1.2,0.6-1.9c0-1.7-1.4-3.2-3.2-3.2c-1.7,0-3.2,1.5-3.2,3.2
		C63.8,122.2,65.2,123.7,67,123.7z"/>
	<path class="st0" d="M79.6,115.9c0-0.1,0.1-0.3,0.3-0.3h1.3c0.2,0,0.3,0.1,0.3,0.3v5.8c0,1.2,0.8,2,2,2s2-0.8,2-2v-5.8
		c0-0.1,0.1-0.3,0.3-0.3H87c0.1,0,0.3,0.1,0.3,0.3v5.9c0,2.1-1.7,3.7-3.9,3.7c-2.2,0-3.8-1.6-3.8-3.7V115.9z"/>
	<path class="st0" d="M95.5,115.9c0-0.1,0.1-0.3,0.3-0.3h5.6c0.2,0,0.3,0.1,0.3,0.3v1.1c0,0.1-0.1,0.3-0.3,0.3h-4.1v2.3h3.4
		c0.1,0,0.3,0.1,0.3,0.3v1.1c0,0.2-0.1,0.3-0.3,0.3h-3.4v2.4h4.1c0.2,0,0.3,0.1,0.3,0.3v1.1c0,0.1-0.1,0.3-0.3,0.3h-5.6
		c-0.2,0-0.3-0.1-0.3-0.3V115.9z"/>
</g>
<g>
	<path class="st0" d="M8.8,227.2c0-0.1,0.1-0.3,0.3-0.3h5.6c0.2,0,0.3,0.1,0.3,0.3v1.1c0,0.1-0.1,0.3-0.3,0.3h-4.1v2.3H14
		c0.1,0,0.3,0.1,0.3,0.3v1.1c0,0.2-0.1,0.3-0.3,0.3h-3.4v2.4h4.1c0.2,0,0.3,0.1,0.3,0.3v1.1c0,0.1-0.1,0.3-0.3,0.3H9.1
		c-0.2,0-0.3-0.1-0.3-0.3V227.2z"/>
	<path class="st0" d="M22.3,235.6c-0.1-0.1-0.2-0.2-0.1-0.4l0.5-0.9c0.1-0.2,0.3-0.2,0.5-0.1c0.6,0.4,1.2,0.9,2.1,0.9
		c0.7,0,1.3-0.5,1.3-1.1c0-0.7-0.6-1.2-1.8-1.7c-1.3-0.5-2.6-1.4-2.6-3c0-1.2,0.9-2.7,3.1-2.7c1.4,0,2.5,0.7,2.8,0.9
		c0.1,0.1,0.2,0.3,0.1,0.5l-0.5,0.8c-0.1,0.2-0.3,0.3-0.5,0.2c-0.6-0.4-1.2-0.8-1.9-0.8c-0.8,0-1.2,0.4-1.2,1c0,0.7,0.5,1.1,1.6,1.6
		c1.3,0.5,2.9,1.3,2.9,3.1c0,1.4-1.2,2.7-3.2,2.7C23.6,236.7,22.7,236,22.3,235.6z"/>
</g>
<g class="st1">
	<g>
		<g>
			<defs>
				<rect id="SVGID_1_" x="37.9" y="75.5" width="409" height="51.3"/>
			</defs>
			<clipPath id="SVGID_00000001639241426523812540000014392113681408671109_">
				<use xlink:href="#SVGID_1_"  style="overflow:visible;"/>
			</clipPath>
			<path style="clip-path:url(#SVGID_00000001639241426523812540000014392113681408671109_);fill:#FFFFFF;" d="M107.2,93.9
				c0.8-0.8,0.8-2-0.1-2.8c-6.9-6.3-14.5-9.5-24.7-9.5c-12.4,0-23.3,6.1-30,15.5c-3,4.2-5.1,9.1-6.1,14.5c-0.4,2.2-0.7,4.5-0.7,6.8
				c0,2.6,0.3,5.2,0.8,7.6h18.1c-1-2.5-1.5-5.2-1.5-8c0-2.2,0.3-4.4,0.9-6.4c2.3-7.8,8.8-13.6,17.1-14.5c0.6-0.1,1.3-0.1,2-0.1
				s1.4,0,2.1,0.1c4.2,0.4,8.1,1.9,11.7,5.1c0.7,0.7,1.8,0.7,2.5,0l4.9-5.1L107.2,93.9z M151.5,126h16.2l-6.7-14.5L154.3,97
				l-6.7-14.4c-0.3-0.6-1-1.1-1.7-1.1h-1c-0.7,0-1.4,0.5-1.7,1.1L136.5,97l-6.7,14.5L123,126h16.2l6.1-13.3h0.1L151.5,126z
				 M208.2,126H225l-7.8-14.5L209.4,97l-7.8-14.5c-0.3-0.6-1.2-1-1.7-1h-1.6c-0.8,0-1.7,0.7-1.8,1.6l-2.3,13.8l-2.4,14.5l-2.4,14.5
				h15.3l0.7-5.2h0.2L208.2,126z M246.1,126h15.4l-2.4-14.5L256.7,97l-2.3-13.8c-0.1-0.9-1-1.6-1.8-1.6H251c-0.5,0-1.4,0.4-1.7,1
				l-7.8,14.5l-7.8,14.5l-7.8,14.5h16.6l2.7-5.2h0.2L246.1,126z M338.7,126h16.1v-14.5V97.1V84.5c0-1-0.9-1.9-1.9-1.9h-12.2
				c-1,0-1.9,0.9-1.9,1.9V97v14.5V126H338.7z M439.1,118.3c0-2.3-0.2-4.6-0.6-6.8c-1-5.3-3.1-10.2-6.1-14.5
				c-6.6-9.4-17.5-15.5-29.9-15.5s-23.3,6.1-29.9,15.5c-3,4.2-5.1,9.1-6.1,14.5c-0.4,2.2-0.6,4.5-0.6,6.8c0,2.6,0.3,5.2,0.8,7.6h17
				c-1-2.4-1.5-4.9-1.5-7.6c0-2.4,0.4-4.7,1.2-6.8c2.8-7.9,10.3-13.6,19.1-13.6c8.8,0,16.4,5.7,19.2,13.6c0.8,2.1,1.2,4.4,1.2,6.8
				c0,2.7-0.6,5.3-1.5,7.6h17C438.8,123.5,439.1,121,439.1,118.3"/>
		</g>
	</g>
</g>
<g class="st1">
	<g>
		<g>
			<defs>
				<rect id="SVGID_00000147937685045021555000000009132897050421900456_" x="121.9" y="33.4" width="324.3" height="36.8"/>
			</defs>
			<clipPath id="SVGID_00000057839841197775428800000002139635550365790635_">
				<use xlink:href="#SVGID_00000147937685045021555000000009132897050421900456_"  style="overflow:visible;"/>
			</clipPath>
			<path style="clip-path:url(#SVGID_00000057839841197775428800000002139635550365790635_);fill:#FFFFFF;" d="M129.7,69.4H161
				L154.3,55l-6.7-14.4c-0.3-0.6-1-1.1-1.7-1.1h-1c-0.7,0-1.4,0.5-1.7,1.1L136.5,55L129.7,69.4z M191.7,69.4h25.5L209.4,55
				l-7.8-14.5c-0.3-0.6-1.2-1-1.7-1h-1.6c-0.8,0-1.7,0.7-1.8,1.6L194.1,55L191.7,69.4z M233.6,69.4h25.5L256.7,55l-2.3-13.8
				c-0.1-0.9-1-1.6-1.8-1.6H251c-0.5,0-1.4,0.4-1.7,1L241.4,55L233.6,69.4z M321.1,69.4c2.1-2.7,3.5-6,3.5-10c0-1.6-0.2-3-0.6-4.5
				c-2.3-8.4-11-14.5-21.3-14.5H279c-1.1,0-1.9,0.9-1.9,1.9V55v14.5H293V55.2h8.5c3.9,0,6.6,2.8,6.6,6.9s-2.7,7.3-6.6,7.3H321.1z
				 M338.7,69.4h16.1V55V42.4c0-1-0.9-1.9-1.9-1.9h-12.2c-1,0-1.9,0.9-1.9,1.9V55v14.4H338.7z M438.4,69.4c-1-5.3-3.1-10.2-6.1-14.5
				c-6.6-9.4-17.5-15.5-29.9-15.5s-23.3,6.1-29.9,15.5c-3,4.2-5.1,9.1-6.1,14.5h16.9c2.8-7.9,10.3-13.6,19.1-13.6
				c8.8,0,16.4,5.7,19.2,13.6H438.4z"/>
		</g>
	</g>
</g>
<g class="st1">
	<g>
		<g>
			<defs>
				<rect id="SVGID_00000111899542823767654950000004988679091516725128_" x="44.6" y="5.2" width="395.4" height="22.4"/>
			</defs>
			<clipPath id="SVGID_00000085947660538187816800000000044018733579799951_">
				<use xlink:href="#SVGID_00000111899542823767654950000004988679091516725128_"  style="overflow:visible;"/>
			</clipPath>
			<path style="clip-path:url(#SVGID_00000085947660538187816800000000044018733579799951_);fill:#FFFFFF;" d="M107.2,23.5
				c0.8-0.8,0.8-2-0.1-2.9c-6.9-6.3-14.5-9.5-24.7-9.5c-12.4,0-23.3,6.1-30,15.5H81c0.6-0.1,1.3-0.1,2-0.1s1.4,0,2.1,0.1h19.1
				L107.2,23.5z M194.1,26.7h15.3l-7.8-14.5c-0.3-0.6-1.2-1-1.7-1h-1.6c-0.8,0-1.7,0.7-1.8,1.6L194.1,26.7z M241.4,26.7h15.3
				l-2.3-13.8c-0.1-0.9-1-1.6-1.8-1.6H251c-0.5,0-1.4,0.4-1.7,1L241.4,26.7z M277.1,26.7h47c-2.3-8.4-11-14.5-21.3-14.5H279
				c-1.1,0-1.9,0.9-1.9,1.9V26.7z M432.3,26.7c-6.6-9.4-17.5-15.5-29.9-15.5s-23.3,6.1-29.9,15.5H432.3z"/>
		</g>
	</g>
</g>
<path class="st0" d="M105.6,196l-6.2-6.1c-0.6-0.7-1.9-0.7-2.6-0.1c-3.7,3.2-8.1,4.9-13.7,4.9c-8.6,0-15.6-5.2-18.5-12.7l0,0
	c-1-2.4-1.5-5.1-1.5-7.9c0-2.2,0.3-4.4,0.9-6.4l0,0c2.3-7.8,8.8-13.6,17.1-14.5l0,0c0.6-0.1,1.3-0.1,2-0.1s1.4,0,2.1,0.1l0,0
	c4.2,0.4,8.1,1.9,11.7,5.1c0.7,0.7,1.8,0.7,2.5,0l4.9-5.1l0,0l3-3.2c0.8-0.8,0.8-2-0.1-2.8c-6.9-6.3-14.5-9.5-24.7-9.5
	c-12.4,0-23.3,6.1-30,15.5l0,0c-3,4.2-5.1,9.1-6.1,14.5l0,0c-0.4,2.2-0.7,4.5-0.7,6.8c0,2.6,0.3,5.2,0.8,7.6l0,0
	c0.8,6,6.8,14.7,7,14.5c6.7,8.8,17.1,14.5,28.9,14.5c9.1,0,17.8-3.3,24.8-10.2c0.7-0.7,0.8-2.1,0.1-2.8L105.6,196z"/>
<path class="st0" d="M179.5,207.3l-5-10.8l0,0l-6.9-14.8l-6.6-14.1l0,0l-6.7-14.5l0,0l-6.7-14.4c-0.3-0.6-1-1.1-1.7-1.1h-1
	c-0.7,0-1.4,0.5-1.7,1.1l-6.7,14.4l0,0l-6.7,14.5l0,0l-6.6,14.1l-6.9,14.8l0,0l-5,10.8c-0.6,1.3,0.2,2.6,1.7,2.6h11.2
	c2,0,3.2-1.2,3.7-2.4l3.7-8.1h27.7l3.7,8c0.9,1.9,1.7,2.5,3.6,2.5h11.3C179.3,209.9,180.1,208.6,179.5,207.3z M139.2,182l6.1-13.3
	h0.1l6.1,13.3l1.6,3.2h-15.5L139.2,182z"/>
<path class="st0" d="M265.8,207.7l-1.9-11.2h-0.1l-2.5-15l0,0l-2.3-13.9l0,0l-2.6-15.8l0,0l-2.1-12.5c-0.1-0.9-1-1.6-1.8-1.6h-1.6
	c-0.5,0-1.4,0.4-1.7,1l-7.8,14.5l0,0l-7.8,14.5l0,0l-7.9,14.7l-0.2,0.3h-0.2l-0.4-0.6l-7.7-14.5l0,0l-7.8-14.5l0,0l-7.8-14.5
	c-0.3-0.6-1.2-1-1.7-1h-1.6c-0.8,0-1.7,0.7-1.8,1.6l-2.3,13.4l0,0l-2.5,14.9l0,0l-2.4,14.5l0,0l-2.5,14.9l0,0l-1.8,10.8
	c-0.2,1.3,0.7,2.2,1.9,2.2h12c1,0,1.8-0.8,1.9-1.6l1.7-11.8h-0.1l2.1-14.5h-0.1l0.8-5.2h0.2l2.9,5.7h0.1l7.4,14.3h0.1l6.8,12.9
	c0.3,0.6,1.1,1.1,1.7,1.1h1.8c0.5,0,1.4-0.5,1.7-1.1l6.9-13.3l0,0l7.7-14.8l0,0l2.5-4.9h0.2l0.8,5.2l0,0l2.1,14.5l0,0l1.7,11.8
	c0.1,0.8,1,1.6,1.9,1.6h12C265.1,209.9,266,209,265.8,207.7z"/>
<path class="st0" d="M324.3,182L324.3,182c-2.6-4.5-7.2-7-11.3-8.3v-0.1c3-1.2,6.2-3.5,8.4-6.3l0,0c2-2.6,3.3-5.8,3.3-9.7
	c0-1.6-0.2-3-0.6-4.5l0,0c-2.4-8.3-11.1-14.5-21.3-14.5H279c-1.1,0-1.9,0.9-1.9,1.9V153v14.1l0,0V182l0,0v14.5l0,0V208
	c0,1,0.8,1.9,1.9,1.9h25.3c9.9,0,18.4-5.1,21.2-13.4l0,0c0.6-1.9,1-4,1-6.2C326.5,187,325.7,184.3,324.3,182z M292.9,167.6v-14.2
	h8.5c3.9,0,6.6,2.8,6.6,6.9c0,4.1-2.7,7.3-6.6,7.3l0,0l0,0H292.9L292.9,167.6L292.9,167.6z M301.6,195.4h-8.7V182l0,0v-1.2h8.9
	c1.9,0,3.4,0.4,4.7,1.2l0,0c2,1.3,3.1,3.5,3.1,6C309.6,192.8,306.7,195.4,301.6,195.4z"/>
<path class="st0" d="M354.8,153.1v-12.5c0-1-0.9-1.9-1.9-1.9h-12.2c-1,0-1.9,0.9-1.9,1.9v12.5l0,0v14.5V182v13.5l0,0V208
	c0,1,0.9,1.9,1.9,1.9h12.2c1,0,1.9-0.9,1.9-1.9v-11.5l0,0V182v-14.5V153.1L354.8,153.1z"/>
<path class="st0" d="M438.5,168.1L438.5,168.1c-1-5.3-3.2-10.7-6.2-15l0,0c-6.6-9.4-17.5-15.5-29.9-15.5s-23.3,6.1-29.9,15.5l0,0
	c-3,4.2-5.2,9.4-6.1,14.7l0,0c-0.4,2.1-0.6,4.3-0.6,6.5c0,2.6,0.3,5.2,0.8,7.6c1.1,5.4,3.5,10.5,6.7,14.7h0.1
	c6.7,8.6,17.1,14.2,29,14.2s22.4-5.5,29-14.2l0,0c0.1-0.1,0.1-0.2,0.2-0.2l0,0l0,0c3.1-4.1,5.5-9.2,6.6-14.5l0,0
	c0.5-2.5,0.8-5,0.8-7.6C439.1,172.2,438.8,170.1,438.5,168.1z M402.4,153.9c8.7,0,16.3,5.9,19.2,13.6l0,0c0.8,2.1,1.2,4.4,1.2,6.8
	c0,2.7-0.6,5.3-1.5,7.6l0,0c-3.1,7.4-10.4,12.6-18.9,12.6c-8.4,0-15.7-5.3-18.7-12.6l0,0c-1-2.4-1.5-4.9-1.5-7.6
	c0-2.4,0.4-4.7,1.2-6.8l0,0C386.2,159.8,393.7,153.9,402.4,153.9z"/>
<path class="st0" d="M95.6,283.3c-0.3-0.7-0.9-1.3-1.8-1.3H65.6v-13.3l0,0v-0.4h23.2c1,0,1.9-0.8,1.9-1.9v-11.1
	c0-0.5-0.2-0.9-0.5-1.2l0,0c-0.4-0.4-0.9-0.7-1.4-0.7H65.6v-12.6h28.2c0.9,0,1.7-0.8,1.9-1.6h-0.1c0-0.1,0-0.2,0-0.3v-11.1
	c0-1-0.8-1.9-1.9-1.9h-42c-1.1,0-1.9,0.9-1.9,1.9L49.7,239l0.1,15.2l0,0v14.7l0,0v14.7l0,0V295c0,1,0.8,1.9,1.9,1.9h42.2
	c1.1,0,1.9-0.9,1.9-1.9v-11.1C95.8,283.7,95.7,283.5,95.6,283.3L95.6,283.3z"/>
<path class="st0" d="M168,225.7h-13.6c-0.8,0-1.5,0.6-1.7,1.1l-5.7,12.5l0,0l-6.6,14.7l0,0l-4.5,10h-0.6l-4.5-10l0,0l-6.6-14.7
	l-5.7-12.5c-0.2-0.5-0.9-1.1-1.7-1.1h-13.6c-1.5,0-2.3,1.3-1.7,2.6l5.1,11l6.8,14.7l0,0l6.8,14.7l0,0l6.8,14.7l0,0l6.3,13.5
	c0.3,0.6,0.9,1.1,1.7,1.1h1c0.8,0,1.4-0.5,1.7-1.1l6.2-13.2l0,0l7.2-15.4l0,0l6.7-14.3l0,0l6.8-14.7l0,0l5.1-11
	C170.3,227,169.5,225.7,168,225.7z"/>
<path class="st0" d="M295.8,283.3L295.8,283.3c-0.3-0.7-0.9-1.3-1.8-1.3h-24.3v-13.3l0,0V254v-1.3v-13.3l0,0v-11.7
	c0-1-0.9-1.9-1.9-1.9h-12.1c-1.1,0-1.9,0.9-1.9,1.9v11.7l0,0v13.3v1.3v14.7l0,0v14.7l0,0V295c0,1,0.8,1.9,1.9,1.9H294
	c1.1,0,1.9-0.9,1.9-1.9v-11.1C295.9,283.7,295.9,283.5,295.8,283.3z"/>
<path class="st0" d="M360.3,252.1v-12.8l0,0v-11.7c0-1-0.9-1.9-1.9-1.9h-12.5c-1.1,0-1.9,0.9-1.9,1.9v11.7l0,0V254l0,0v14.7l0,0v1.4
	c0,7.4-5.4,11.6-12.7,11.6c-7.2,0-12.5-4.2-12.5-11.6v-1.4l0,0V254l0,0v-14.7l0,0v-11.7c0-1-0.8-1.9-1.9-1.9h-12.5
	c-1,0-1.9,0.9-1.9,1.9v11.7l0,0v12.5l0,0v16.8l0,0v2.2c0,4.5,1.1,8.7,3.1,12.4l0,0c4.8,8.9,14.5,14.7,25.8,14.7
	c11.4,0,21.2-5.8,26-14.7l0,0c2-3.7,3.1-7.9,3.1-12.4v-2.2l0,0L360.3,252.1L360.3,252.1z"/>
<path class="st0" d="M430.4,283.3L430.4,283.3l-6-6.4c-0.6-0.7-1.9-0.7-2.6-0.1c-3.7,3.2-8,4.9-13.7,4.9c-8.8,0-15.8-5.4-18.7-13
	l0,0c-0.9-2.4-1.4-4.9-1.4-7.6c0-2.5,0.4-4.8,1.1-7c2.7-8,9.8-13.9,18.8-13.9c5,0,9.6,1.5,13.8,5.2c0.7,0.7,1.8,0.7,2.5,0l5.7-5.9
	l0,0l2.3-2.3c0.8-0.8,0.8-2-0.1-2.8c-6.9-6.3-14.5-9.5-24.7-9.5c-12.1,0-22.7,5.8-29.4,14.7l0,0c-3.2,4.3-5.5,9.2-6.7,14.7
	c-0.5,2.4-0.7,4.9-0.7,7.4s0.3,4.9,0.7,7.2l0,0c1.1,5.3,3.3,10.2,6.4,14.3l0,0c6.7,8.9,17.6,15,29.7,15c9.1,0,17.8-3.2,24.8-9.9
	c0.7-0.7,0.8-2,0.1-2.7L430.4,283.3z"/>
<path class="st0" d="M456.5,225.7h-12.2c-1,0-1.9,0.9-1.9,1.9v11.7l0,0v13v1.7v14.7l0,0v13.2l0,0V295c0,1,0.9,1.9,1.9,1.9h12.2
	c1,0,1.9-0.9,1.9-1.9v-11.7l0,0v-14.7l0,0V254v-1.7v-13l0,0v-11.7C458.5,226.6,457.6,225.7,456.5,225.7z"/>
<path class="st0" d="M615.2,239.3v-11.7c0-1-0.9-1.9-1.9-1.9h-12.2c-1.1,0-1.9,0.9-1.9,1.9v11.7l0,0V253v1v9.8H599l-10.5-10.1
	l-14.9-14.3l0,0l-13.7-13.1c-0.8-0.8-1.5-1.5-2.5-1.5h-1.5c-1,0-1.9,0.8-1.9,1.8v12.8l0,0v14.7l0,0v14.7v14.7l0,0v11.7
	c0,1,0.9,1.9,1.9,1.9H568c1.1,0,1.9-0.9,1.9-1.9v-11.7l0,0v-14.7l0,0V257h0.1l11.6,11.6l0,0l14.2,14.2l0,0l13.9,13.9
	c0.8,0.8,1.5,1.1,2.5,1.1h1c1,0,1.9-0.6,1.9-1.8v-12.8v-14.7l0,0V254v-1L615.2,239.3L615.2,239.3z"/>
<path class="st0" d="M498.4,219.3l17.9-8.4c1.7-0.8,1.9-3.7,0.5-6.2s-4-3.9-5.7-2.6l-16.2,11.4c-0.8,0.6-0.7,2.4-0.1,3.9
	C495.8,218.9,497.2,219.9,498.4,219.3z"/>
<g class="st5">
	<g>
		<g>
			<defs>
				<rect id="SVGID_00000065037496033161868300000015717808198720701617_" x="41.9" y="360.3" width="581.1" height="36.2"/>
			</defs>
			<clipPath id="SVGID_00000063593177731420432580000005038470752536581778_">
				<use xlink:href="#SVGID_00000065037496033161868300000015717808198720701617_"  style="overflow:visible;"/>
			</clipPath>
			<path style="clip-path:url(#SVGID_00000063593177731420432580000005038470752536581778_);fill:#FFFFFF;" d="M95.8,392.7v-11.1
				c0-0.2-0.1-0.4-0.1-0.6c-0.3-0.7-0.9-1.3-1.8-1.3H65.6v-13.3H49.7V381v11.7c0,1,0.8,1.9,1.9,1.9h42.2
				C95,394.7,95.8,393.8,95.8,392.7 M144,381l6.8-14.7h-30.7l6.8,14.7l6.3,13.5c0.3,0.6,0.9,1.1,1.7,1.1h1c0.8,0,1.4-0.5,1.7-1.1
				L144,381z M235.3,381c3.2-4.3,5.5-9.2,6.6-14.7h-17c-3,7.6-10.4,13-19,13s-16-5.5-18.9-13h-17c1.1,5.4,3.4,10.4,6.5,14.7
				c6.6,8.9,17.2,14.7,29.4,14.7C218,395.7,228.6,389.9,235.3,381 M295.9,392.7v-11.1c0-0.2-0.1-0.4-0.1-0.6
				c-0.3-0.7-0.9-1.3-1.8-1.3h-24.3v-13.3h-16V381v11.7c0,1,0.8,1.9,1.9,1.9H294C295.1,394.7,295.9,393.8,295.9,392.7 M357.2,381
				c2-3.7,3.1-7.9,3.1-12.4v-2.2h-16.4v1.4c0,7.4-5.4,11.6-12.7,11.6c-7.2,0-12.5-4.2-12.5-11.6v-1.4h-16.4v2.2
				c0,4.5,1.1,8.7,3.1,12.4c4.8,8.9,14.5,14.7,25.8,14.7C342.6,395.7,352.4,389.9,357.2,381 M432.2,385.8c0.7-0.7,0.8-2,0.1-2.7
				l-1.9-2l-6-6.4c-0.6-0.7-1.9-0.7-2.6-0.1c-3.7,3.2-8,4.9-13.7,4.9c-8.8,0-15.8-5.4-18.7-13h-18c1.1,5.4,3.4,10.4,6.6,14.7
				c6.7,8.9,17.4,14.7,29.5,14.7C416.5,395.7,425.3,392.5,432.2,385.8 M458.5,392.7V381v-14.7h-16.1V381v11.7c0,1,0.9,1.9,1.9,1.9
				h12.2C457.6,394.7,458.5,393.8,458.5,392.7 M535.5,381c3.2-4.3,5.5-9.2,6.6-14.7h-17c-3,7.6-10.4,13-19,13c-8.6,0-16-5.5-18.9-13
				h-17c1.1,5.4,3.4,10.4,6.5,14.7c6.6,8.9,17.2,14.7,29.4,14.7C518.2,395.7,528.8,389.9,535.5,381 M570,392.7V381v-14.7h-16V381
				v11.7c0,1,0.9,1.9,1.9,1.9H568C569.2,394.7,570,393.8,570,392.7 M615.2,395.7v-1.8V381v-14.7h-33.6l14.6,14.7l13.5,13.5
				c0.8,0.8,1.5,1.1,2.5,1.1h1h2V395.7z"/>
		</g>
	</g>
</g>
<g class="st5">
	<g>
		<g>
			<defs>
				<rect id="SVGID_00000059311364967399234560000013506564551500830636_" x="119.2" y="402.4" width="424.1" height="21.6"/>
			</defs>
			<clipPath id="SVGID_00000178884797765329321550000000907965287796259002_">
				<use xlink:href="#SVGID_00000059311364967399234560000013506564551500830636_"  style="overflow:visible;"/>
			</clipPath>
			<path style="clip-path:url(#SVGID_00000178884797765329321550000000907965287796259002_);fill:#FFFFFF;" d="M137.7,422l6.3-13.5
				h-17.1l6.3,13.5c0.3,0.6,0.9,1.1,1.7,1.1h1C136.8,423.1,137.4,422.6,137.7,422 M295.9,420.1V409c0-0.2-0.1-0.4-0.1-0.6h-42.1
				v11.7c0,1,0.8,1.9,1.9,1.9H294C295.1,422.1,295.9,421.2,295.9,420.1 M458.5,420.1v-11.7h-16.1v11.7c0,1,0.9,1.9,1.9,1.9h12.2
				C457.6,422.1,458.5,421.2,458.5,420.1 M535.5,408.4h-58.8c6.6,8.9,17.2,14.7,29.4,14.7C518.2,423.1,528.8,417.4,535.5,408.4"/>
		</g>
	</g>
</g>
<g class="st5">
	<g>
		<g>
			<defs>
				<rect id="SVGID_00000020376224279049603640000010823811495617379213_" x="41.9" y="303.3" width="508.6" height="50.9"/>
			</defs>
			<clipPath id="SVGID_00000089569892310787612030000009233789569454376323_">
				<use xlink:href="#SVGID_00000020376224279049603640000010823811495617379213_"  style="overflow:visible;"/>
			</clipPath>
			<path style="clip-path:url(#SVGID_00000089569892310787612030000009233789569454376323_);fill:#FFFFFF;" d="M95.8,350.4v-11.1
				c0-0.2-0.1-0.4-0.1-0.6c-0.3-0.7-0.9-1.3-1.8-1.3H65.6V324v-0.4h23.2c1,0,1.9-0.8,1.9-1.9v-11.1c0-0.5-0.2-0.9-0.5-1.2H49.7V324
				v14.7v11.7c0,1,0.8,1.9,1.9,1.9h42.2C95,352.3,95.8,351.4,95.8,350.4 M241.8,324c0.5-2.3,0.7-4.7,0.7-7.2s-0.3-5-0.7-7.4h-17
				c0.9,2.3,1.4,4.8,1.4,7.4c0,2.5-0.5,5-1.4,7.2c-3,7.6-10.4,13-19,13s-16-5.5-18.9-13c-0.9-2.3-1.4-4.7-1.4-7.2
				c0-2.6,0.5-5.1,1.4-7.4h-17c-0.5,2.4-0.7,4.9-0.7,7.4s0.2,4.9,0.7,7.2c1.1,5.4,3.4,10.4,6.5,14.7c6.6,8.9,17.2,14.7,29.4,14.7
				c12.1,0,22.8-5.7,29.4-14.7C238.5,334.4,240.8,329.5,241.8,324 M295.9,350.4v-11.1c0-0.2-0.1-0.4-0.1-0.6
				c-0.3-0.7-0.9-1.3-1.8-1.3h-24.2V324v-14.7h-16V324v14.7v11.7c0,1,0.8,1.9,1.9,1.9H294C295.1,352.3,295.9,351.4,295.9,350.4
				 M357.2,338.7c2-3.7,3.1-7.9,3.1-12.4V324v-14.7h-16.4V324v1.4c0,7.4-5.4,11.6-12.7,11.6c-7.2,0-12.5-4.2-12.5-11.6V324v-14.7
				h-16.4V324v2.2c0,4.5,1.1,8.7,3.1,12.4c4.8,8.9,14.5,14.7,25.8,14.7C342.6,353.3,352.4,347.5,357.2,338.7 M432.2,343.5
				c0.7-0.7,0.8-2,0.1-2.7l-1.9-2l-6-6.4c-0.6-0.7-1.9-0.7-2.7-0.1c-3.7,3.2-8,4.9-13.7,4.9c-8.8,0-15.8-5.4-18.7-13
				c-0.9-2.4-1.4-4.9-1.4-7.6c0-2.5,0.4-4.8,1.1-7h-17.7c-0.5,2.4-0.7,4.9-0.7,7.4s0.3,4.9,0.7,7.2c1.1,5.4,3.4,10.4,6.6,14.7
				c6.7,8.9,17.4,14.7,29.5,14.7C416.5,353.3,425.3,350.2,432.2,343.5 M458.5,350.4v-11.7V324v-14.7h-16.1V324v14.7v11.7
				c0,1,0.9,1.9,1.9,1.9h12.2C457.6,352.3,458.5,351.4,458.5,350.4 M542.7,316.8c0-2.5-0.3-5-0.7-7.4h-17c0.9,2.3,1.4,4.8,1.4,7.4
				c0,2.5-0.5,5-1.4,7.2c-3,7.6-10.4,13-19,13c-8.6,0-16-5.5-18.9-13c-0.9-2.3-1.4-4.7-1.4-7.2c0-2.6,0.5-5.1,1.4-7.4h-17
				c-0.5,2.4-0.7,4.9-0.7,7.4s0.2,4.9,0.7,7.2c1.1,5.4,3.4,10.4,6.5,14.7c6.6,8.9,17.2,14.7,29.4,14.7c12.1,0,22.8-5.7,29.4-14.7
				c3.2-4.3,5.5-9.2,6.6-14.7C542.5,321.7,542.7,319.3,542.7,316.8"/>
		</g>
	</g>
</g>
<path class="st0" d="M242.1,255.2L242.1,255.2c-1-5.3-3.2-10.7-6.2-15l0,0c-6.6-9.4-17.5-15.5-29.9-15.5s-23.3,6.1-29.9,15.5l0,0
	c-3,4.2-5.2,9.4-6.1,14.7l0,0c-0.4,2.1-0.6,4.3-0.6,6.5c0,2.6,0.3,5.2,0.8,7.6c1.1,5.4,3.5,10.5,6.7,14.7h0.1
	c6.7,8.6,17.1,14.2,29,14.2s22.4-5.5,29-14.2l0,0c0.1-0.1,0.1-0.2,0.2-0.2l0,0l0,0c3.1-4.1,5.5-9.2,6.6-14.5l0,0
	c0.5-2.5,0.8-5,0.8-7.6C242.6,259.3,242.4,257.2,242.1,255.2z M206,241c8.7,0,16.3,5.9,19.2,13.6l0,0c0.8,2.1,1.2,4.4,1.2,6.8
	c0,2.7-0.6,5.3-1.5,7.6l0,0c-3.1,7.4-10.4,12.6-18.9,12.6c-8.4,0-15.7-5.3-18.7-12.6l0,0c-1-2.4-1.5-4.9-1.5-7.6
	c0-2.4,0.4-4.7,1.2-6.8l0,0C189.7,246.9,197.3,241,206,241z"/>
<path class="st0" d="M542,254.8L542,254.8c-1-5.3-3.2-10.7-6.2-15l0,0c-6.6-9.4-17.5-15.5-29.9-15.5s-23.3,6.1-29.9,15.5l0,0
	c-3,4.2-5.2,9.4-6.1,14.7l0,0c-0.4,2.1-0.6,4.3-0.6,6.5c0,2.6,0.3,5.2,0.8,7.6c1.1,5.4,3.5,10.5,6.7,14.7h0.1
	c6.7,8.6,17.1,14.2,29,14.2s22.4-5.5,29-14.2l0,0c0.1-0.1,0.1-0.2,0.2-0.2l0,0l0,0c3.1-4.1,5.5-9.2,6.6-14.5l0,0
	c0.5-2.5,0.8-5,0.8-7.6C542.6,258.9,542.4,256.8,542,254.8z M505.9,240.6c8.7,0,16.3,5.9,19.2,13.6l0,0c0.8,2.1,1.2,4.4,1.2,6.8
	c0,2.7-0.6,5.3-1.5,7.6l0,0c-3.1,7.4-10.4,12.6-18.9,12.6c-8.4,0-15.7-5.3-18.7-12.6l0,0c-1-2.4-1.5-4.9-1.5-7.6
	c0-2.4,0.4-4.7,1.2-6.8l0,0C489.7,246.5,497.3,240.6,505.9,240.6z"/>
</svg>
