<?xml version="1.0" encoding="utf-8"?>
<!-- Generator: Adobe Illustrator 25.1.0, SVG Export Plug-In . SVG Version: 6.00 Build 0)  -->
<svg version="1.1" id="Capa_1" xmlns="http://www.w3.org/2000/svg" xmlns:xlink="http://www.w3.org/1999/xlink" x="0px" y="0px"
	 viewBox="0 0 742.8 742.8" style="enable-background:new 0 0 742.8 742.8;" xml:space="preserve">
<style type="text/css">
	.st0{fill:#FFFFFF;}
	.st1{enable-background:new    ;}
	.st2{fill:#0071CE;}
	.st3{fill:#002F87;}
	.st4{fill:#FFB71B;}
	.st5{fill:#76BC21;}
	.st6{fill:none;stroke:#002F87;stroke-miterlimit:10;}
	.st7{fill:none;stroke:#76BC21;stroke-miterlimit:10;}
	.st8{fill:none;stroke:#FFB71B;stroke-miterlimit:10;}
</style>
<g id="Layer_4">
	<path class="st0" d="M634.1,108.8c-145-145-380.2-145-525.3,0s-145,380.2,0,525.3s380.2,145,525.3,0S779.1,253.8,634.1,108.8
		C634.1,108.8,634.1,108.8,634.1,108.8z M536.5,657.3c-50,29-106.7,44.3-164.5,44.4c-29,0-58-3.8-86-11.4
		c-84.7-22.5-156.8-77.8-200.4-153.8c-30.2-52.3-44.2-104.7-44.2-165.1c0-182.3,147.8-330.1,330.1-330.1c0,0,0,0,0,0
		c60.3,0,112.8,14.1,165.1,44.2c157.9,91.2,212,293.1,120.9,451c0,0,0,0,0,0C627.1,588.7,588.7,627.1,536.5,657.3z"/>
	<g class="st1">
		<path class="st2" d="M214.4,64.7c0.8,0,1.8-0.1,2.8-0.6c1-0.5,1.4-1.2,1-1.9c-0.3-0.6-1-0.7-2.4-0.6c-1.9,0.3-3.5-0.1-4.2-1.6
			c-0.8-1.7-0.1-3.7,2.3-4.9c1.1-0.6,2.1-0.7,2.8-0.8l0.4,2.1c-0.5,0-1.3,0.1-2.3,0.6s-1.2,1.2-1,1.7c0.3,0.6,1,0.6,2.5,0.5
			c2.1-0.2,3.4,0.3,4.1,1.7c0.8,1.7,0.3,3.7-2.5,5.1c-1.1,0.6-2.4,0.8-3.1,0.8L214.4,64.7z"/>
	</g>
	<g class="st1">
		<path class="st2" d="M227.2,56.1l-3.7,1.7l1.1,2.4l4.1-1.9l0.9,1.9l-6.4,3l-4.7-10.1l6.2-2.9l0.9,1.9l-3.9,1.8l1,2.1l3.7-1.7
			L227.2,56.1z"/>
	</g>
	<g class="st1">
		<path class="st2" d="M226.7,49.4c0.7-0.4,1.8-1,3-1.6c1.5-0.7,2.7-0.9,3.6-0.6c0.8,0.2,1.5,0.8,1.9,1.7c0.6,1.3,0,2.6-0.7,3.3l0,0
			c0.8,0,1.5,0.5,2.2,1.3c0.8,1,1.7,2.2,2.1,2.5l-2.4,1c-0.3-0.2-0.9-0.9-1.7-2.1c-0.8-1.2-1.4-1.3-2.4-0.9l-0.7,0.3l1.8,4l-2.3,1
			L226.7,49.4z M230.9,52.8l0.9-0.4c1.1-0.5,1.6-1.4,1.2-2.3c-0.4-0.9-1.2-1.1-2.3-0.7c-0.6,0.2-0.9,0.4-1,0.5L230.9,52.8z"/>
	</g>
	<g class="st1">
		<path class="st2" d="M238.8,44.1l2.3-0.9l3.3,8.4l4.1-1.6l0.8,2l-6.5,2.6L238.8,44.1z"/>
	</g>
	<g class="st1">
		<path class="st2" d="M252.2,47.8l0.2,3l-2.5,0.9L249.4,40l3.1-1.1l7,9.3l-2.5,0.9l-1.8-2.4L252.2,47.8z M254.2,45.1l-1.5-2
			c-0.4-0.6-0.9-1.3-1.3-1.8l0,0c0.1,0.7,0.2,1.5,0.2,2.2l0.2,2.4L254.2,45.1z"/>
	</g>
	<g class="st1">
		<path class="st2" d="M271.5,44c-0.4,0.4-1.3,0.9-2.6,1.3c-3.7,1.2-6.3-0.5-7.2-3.5c-1.2-3.6,0.8-6.4,4-7.5
			c1.2-0.4,2.3-0.4,2.8-0.4l0.1,2.1c-0.6,0-1.3,0-2.1,0.2c-1.9,0.6-3,2.2-2.3,4.6c0.7,2.1,2.4,3.1,4.5,2.4c0.7-0.2,1.5-0.6,1.9-1
			L271.5,44z"/>
	</g>
	<g class="st1">
		<path class="st2" d="M274.8,40.4l0,3l-2.5,0.7l0.3-11.6l3.2-0.9l6.3,9.7l-2.6,0.7l-1.6-2.5L274.8,40.4z M277,37.8l-1.3-2.1
			c-0.4-0.6-0.8-1.3-1.1-1.9l0,0c0,0.7,0.1,1.5,0.1,2.2l0,2.4L277,37.8z"/>
	</g>
	<g class="st1">
		<path class="st2" d="M280.5,30.3c0.9-0.4,2-0.7,3.2-1c2-0.5,3.5-0.5,4.7,0.1c1.3,0.6,2.4,1.7,2.8,3.6c0.5,2.1,0.1,3.7-0.7,4.8
			c-0.9,1.2-2.5,2.1-4.6,2.6c-1.3,0.3-2.2,0.5-2.8,0.5L280.5,30.3z M285.1,38.5c0.2,0,0.6-0.1,0.9-0.2c2.2-0.5,3.4-2.1,2.7-4.7
			c-0.5-2.2-2.1-3.1-4.2-2.6c-0.5,0.1-0.9,0.3-1.1,0.4L285.1,38.5z"/>
	</g>
	<g class="st1">
		<path class="st2" d="M299.5,32.2l-4,0.9l0.6,2.6l4.5-1l0.4,2l-6.9,1.5l-2.4-10.9l6.7-1.5l0.4,2l-4.2,0.9l0.5,2.3l4-0.9L299.5,32.2
			z"/>
	</g>
	<g class="st1">
		<path class="st2" d="M302.5,36.4l-2.1-10.9l2.9-0.5l3,3.6c0.9,1,1.8,2.3,2.5,3.4l0,0c-0.4-1.4-0.8-2.9-1.1-4.5l-0.6-3.2l2.3-0.4
			l2.1,10.9l-2.6,0.5l-3.1-3.8c-0.9-1-1.9-2.3-2.6-3.5l0,0c0.3,1.4,0.7,3,1,4.7l0.6,3.3L302.5,36.4z"/>
	</g>
	<g class="st1">
		<path class="st2" d="M315.5,31.1l-0.3,2.9l-2.6,0.4l1.6-11.5l3.3-0.5l5.1,10.4l-2.7,0.4l-1.3-2.7L315.5,31.1z M318,28.8l-1.1-2.2
			c-0.3-0.6-0.6-1.4-0.9-2l0,0c-0.1,0.7-0.1,1.5-0.2,2.2l-0.3,2.4L318,28.8z"/>
	</g>
	<g class="st1">
		<path class="st2" d="M336.5,25.5c0.4,3.6-1.5,6.1-4.8,6.4c-3.3,0.4-5.5-1.9-5.8-5c-0.4-3.3,1.4-6,4.7-6.4
			C334,20.1,336.2,22.4,336.5,25.5z M328.6,26.6c0.2,2.2,1.4,3.6,3.1,3.4c1.7-0.2,2.5-1.9,2.2-4.1c-0.2-2-1.4-3.6-3.1-3.4
			C329.1,22.7,328.3,24.4,328.6,26.6z"/>
	</g>
	<g class="st1">
		<path class="st2" d="M347.5,26c-0.2-1.3-0.3-2.9-0.5-4.5l0,0c-0.2,1.4-0.6,3.1-0.9,4.4l-1,4.4l-2,0.2l-1.5-4.2
			c-0.5-1.3-1-2.8-1.3-4.2l0,0c0.1,1.5,0.1,3.2,0.2,4.6l0.1,4.2l-2.3,0.2l-0.2-11.1l3.3-0.3l1.4,3.6c0.4,1.3,0.9,2.6,1.2,3.9l0,0
			c0.2-1.3,0.5-2.8,0.7-4.1l0.9-3.8L349,19l1.5,11l-2.4,0.2L347.5,26z"/>
	</g>
	<g class="st1">
		<path class="st2" d="M352.2,30l-0.5-11.1l2.9-0.1l2.5,4c0.7,1.1,1.4,2.5,2,3.7l0,0c-0.2-1.5-0.3-3-0.4-4.6l-0.1-3.2l2.3-0.1
			l0.5,11.1l-2.6,0.1l-2.6-4.2c-0.7-1.2-1.5-2.6-2.1-3.8l0,0c0.1,1.5,0.2,3,0.3,4.8l0.1,3.3L352.2,30z"/>
	</g>
	<g class="st1">
		<path class="st2" d="M365.7,18.4l0.2,11.1l-2.5,0l-0.2-11.1L365.7,18.4z"/>
	</g>
	<g class="st1">
		<path class="st2" d="M376,29.2c-0.5,0.2-1.5,0.5-2.9,0.4c-3.8-0.1-5.8-2.5-5.7-5.7c0.1-3.8,2.8-5.9,6.2-5.8c1.3,0,2.3,0.3,2.7,0.5
			l-0.5,2c-0.5-0.2-1.2-0.4-2.1-0.4c-2,0-3.6,1.1-3.6,3.6c0,2.2,1.3,3.7,3.5,3.7c0.8,0,1.6-0.1,2.1-0.3L376,29.2z"/>
	</g>
	<g class="st1">
		<path class="st2" d="M380.4,26.7l-0.9,2.8l-2.6-0.1l3.7-11l3.3,0.1l3.1,11.2l-2.7-0.1l-0.8-2.9L380.4,26.7z M383.2,24.9l-0.6-2.4
			c-0.2-0.7-0.4-1.5-0.5-2.2l0,0c-0.2,0.7-0.4,1.5-0.6,2.1l-0.7,2.3L383.2,24.9z"/>
	</g>
	<g class="st1">
		<path class="st2" d="M388.1,29.9l0.7-11.1l2.9,0.2l2.1,4.2c0.6,1.2,1.2,2.6,1.6,3.9l0,0c-0.1-1.5,0-3,0.1-4.6l0.2-3.2l2.3,0.1
			l-0.7,11.1l-2.6-0.2l-2.1-4.4c-0.6-1.2-1.2-2.7-1.7-4l-0.1,0c0,1.5-0.1,3-0.2,4.8l-0.2,3.3L388.1,29.9z"/>
	</g>
	<g class="st1">
		<path class="st2" d="M401.9,28l-1.1,2.8l-2.6-0.2l4.4-10.8L406,20l2.4,11.4l-2.7-0.2l-0.6-2.9L401.9,28z M404.9,26.3l-0.5-2.4
			c-0.1-0.7-0.3-1.5-0.4-2.2l0,0c-0.2,0.6-0.5,1.5-0.7,2.1l-0.9,2.3L404.9,26.3z"/>
	</g>
	<g class="st1">
		<path class="st2" d="M410.8,20.6l2.5,0.3l-1.1,8.9l4.4,0.5l-0.3,2.1l-6.9-0.8L410.8,20.6z"/>
	</g>
	<g class="st1">
		<path class="st2" d="M430.8,30.3c0.2-1.3,0.4-2.9,0.6-4.5l0,0c-0.6,1.3-1.3,2.8-1.9,4.1l-2,4.1l-1.9-0.3l-0.5-4.4
			c-0.1-1.3-0.3-3-0.3-4.4l0,0c-0.3,1.5-0.6,3.2-0.9,4.5l-0.9,4.1l-2.3-0.4l2.5-10.9l3.3,0.5l0.5,3.8c0.1,1.3,0.3,2.7,0.3,4.1l0,0
			c0.5-1.2,1.1-2.6,1.7-3.8l1.8-3.5l3.2,0.5l-1.2,11.1l-2.4-0.4L430.8,30.3z"/>
	</g>
	<g class="st1">
		<path class="st2" d="M437.5,33l-1.3,2.6l-2.6-0.5l5.5-10.2l3.2,0.6l1.2,11.6l-2.7-0.5l-0.3-3L437.5,33z M440.6,31.7l-0.2-2.4
			c-0.1-0.7-0.1-1.5-0.1-2.2l0,0c-0.3,0.6-0.6,1.4-0.9,2l-1.1,2.2L440.6,31.7z M444,23.2l-2.4,1.6l-2-0.4l1.8-1.7L444,23.2z"/>
	</g>
	<g class="st1">
		<path class="st2" d="M445.4,34.9c0.6,0.5,1.5,1.1,2.6,1.3c1.1,0.3,1.8-0.1,2-0.8c0.2-0.7-0.3-1.2-1.5-1.9c-1.7-1-2.6-2.3-2.2-3.9
			c0.4-1.8,2.3-2.9,4.8-2.3c1.2,0.3,2.1,0.7,2.6,1.2l-1,1.8c-0.4-0.3-1.1-0.8-2.1-1c-1.1-0.2-1.7,0.1-1.8,0.7
			c-0.2,0.7,0.4,1.1,1.7,2c1.7,1.1,2.4,2.3,2.1,3.9c-0.4,1.8-2.2,3-5.1,2.4c-1.2-0.3-2.4-0.9-2.9-1.4L445.4,34.9z"/>
	</g>
	<g class="st1">
		<path class="st2" d="M464.4,41.9c-0.5,0.1-1.6,0.1-2.9-0.3c-3.7-1-5-3.8-4.2-6.9c1-3.7,4.1-5,7.4-4.1c1.3,0.3,2.1,0.8,2.5,1.2
			l-1,1.8c-0.4-0.3-1.1-0.7-1.9-0.9c-1.9-0.5-3.7,0.2-4.4,2.6c-0.6,2.2,0.3,3.8,2.5,4.4c0.7,0.2,1.6,0.3,2.1,0.2L464.4,41.9z"/>
	</g>
	<g class="st1">
		<path class="st2" d="M476.7,40c-1,3.5-3.8,5-6.9,4c-3.2-0.9-4.3-3.9-3.4-6.9c1-3.2,3.7-5,6.9-4C476.5,34.1,477.6,37,476.7,40z
			 M468.9,37.8c-0.6,2.1-0.1,3.8,1.5,4.3c1.6,0.5,3-0.8,3.6-2.8c0.6-1.9,0.1-3.8-1.5-4.3C471,34.5,469.6,35.7,468.9,37.8z"/>
	</g>
	<g class="st1">
		<path class="st2" d="M476.4,45.9l3.6-10.5l2.8,0.9l0.9,4.6c0.3,1.3,0.4,2.8,0.5,4.2l0,0c0.3-1.4,0.7-2.9,1.3-4.5l1-3.1l2.2,0.7
			l-3.6,10.5l-2.5-0.8l-0.9-4.8c-0.2-1.3-0.5-2.9-0.6-4.3h-0.1c-0.4,1.4-0.9,2.9-1.5,4.6l-1.1,3.2L476.4,45.9z"/>
	</g>
	<g class="st1">
		<path class="st2" d="M490.8,39.1l6.4,2.4l-0.7,1.9l-4-1.5l-0.9,2.4l3.7,1.4l-0.7,1.9l-3.7-1.4l-1.6,4.2l-2.4-0.9L490.8,39.1z"/>
	</g>
	<g class="st1">
		<path class="st2" d="M501.1,43l-4,10.3l-2.3-0.9l4-10.3L501.1,43z"/>
	</g>
	<g class="st1">
		<path class="st2" d="M502.4,52.4l-1.8,2.3l-2.4-1l7.4-9l3,1.3l-1.1,11.6l-2.5-1l0.3-3L502.4,52.4z M505.7,51.7l0.3-2.4
			c0.1-0.7,0.2-1.5,0.3-2.2l0,0c-0.4,0.5-0.9,1.3-1.3,1.8l-1.5,1.9L505.7,51.7z"/>
	</g>
	<g class="st1">
		<path class="st2" d="M513,48c0.7,0.2,1.9,0.6,3.1,1.1c1.4,0.6,2.2,1.2,2.7,1.9c0.5,0.7,0.7,1.6,0.3,2.5c-0.4,0.9-1.3,1.5-2.6,1.4
			l0,0c1,0.8,1.5,2.1,0.9,3.4c-0.4,0.9-1.2,1.4-2,1.7c-1,0.3-2.4,0-4.4-0.9c-1.1-0.5-1.9-1-2.4-1.3L513,48z M511.5,57.4
			c0.2,0.1,0.5,0.3,0.9,0.4c1,0.5,2.1,0.5,2.6-0.6c0.5-1-0.3-1.8-1.4-2.4l-0.8-0.4L511.5,57.4z M513.5,52.9l0.8,0.3
			c1.2,0.5,2.1,0.3,2.4-0.4c0.3-0.8-0.1-1.4-1.1-1.9c-0.5-0.2-0.8-0.3-1-0.4L513.5,52.9z"/>
	</g>
	<g class="st1">
		<path class="st2" d="M522.2,52.1l2.3,1.1l-3.9,8.1l4,1.9l-0.9,1.9l-6.3-3L522.2,52.1z"/>
	</g>
	<g class="st1">
		<path class="st2" d="M532.6,64.5l-3.6-1.9l-1.2,2.3l4.1,2.1l-0.9,1.8l-6.3-3.3l5.1-9.9l6.1,3.2l-0.9,1.8l-3.9-2l-1.1,2.1l3.6,1.9
			L532.6,64.5z"/>
	</g>
	<path class="st3" d="M639.3,553.8c3.2-4.8,4.3-10.7,3-16.3c-1.3-5.6-4.8-10.3-9.8-13.2c-9.4-5.4-21.3-2.6-27.4,6.2
		c-88.5,129.1-264.9,162-394,73.5c-28.8-19.8-53.8-44.7-73.5-73.5c-3.9-5.6-10.3-9-17.2-9c-11.4,0.1-20.6,9.3-20.5,20.7
		c0,4.1,1.3,8.2,3.6,11.6c95.9,139.9,283.3,182.4,430.1,97.6C578.3,625.8,611.9,594.7,639.3,553.8z"/>
	<path class="st4" d="M164,177.4c48.4-52.2,114.7-84.1,185.6-89.5c10.7-0.9,19-9.8,19.1-20.6c0-11.4-9.2-20.7-20.6-20.7
		c-0.5,0-1.1,0-1.6,0.1C177.3,59.8,46.8,200.8,46.8,370.4c0,51.5,10.1,96.1,31.8,140.3c2.5,5.2,7.1,9.1,12.6,10.8
		c5.4,1.7,11.4,1,16.3-1.9c9.3-5.5,13-17.2,8.3-26.9C65.6,387.6,84.7,262.6,164,177.4z"/>
	<path class="st5" d="M635.4,519.5c4.9,2.9,10.9,3.6,16.3,1.9c5.5-1.7,10.1-5.6,12.6-10.8c21.7-44.2,31.8-88.8,31.8-140.3
		c0-169.6-130.5-310.6-299.6-323.7c-0.5,0-1.1-0.1-1.6-0.1c-11.4,0-20.6,9.2-20.6,20.6c0,10.8,8.3,19.7,19.1,20.6
		C549.4,100,666.1,236.4,653.9,392.5c-2.7,34.8-11.8,68.7-26.8,100.2C622.5,502.4,626,514.1,635.4,519.5z"/>
	<path class="st0" d="M567.9,173.9c-108.5-108.5-284.5-108.5-393,0s-108.5,284.5,0,393s284.5,108.5,393,0
		c52.1-52.1,81.4-122.8,81.4-196.5C649.5,296.7,620.2,225.9,567.9,173.9z"/>
	<circle class="st2" cx="371.4" cy="370.4" r="40"/>
	<path class="st4" d="M371.4,362.2c0.9,0.1,1.8-0.4,2.1-1.3l1.1-12.2c0-1.2-1.4-2.2-3.2-2.2s-3.2,1-3.2,2.2l1.1,12.2
		C369.6,361.8,370.5,362.3,371.4,362.2L371.4,362.2z"/>
	<path class="st4" d="M364.8,366c0.6-0.7,0.5-1.8-0.1-2.5l-10-7c-1-0.6-2.6,0.1-3.5,1.7s-0.7,3.2,0.3,3.9l11.1,5.2
		C363.6,367.4,364.5,366.9,364.8,366L364.8,366z"/>
	<path class="st4" d="M378,366c0.4,0.9,1.3,1.3,2.2,1.2l11.1-5.2c1-0.6,1.2-2.3,0.3-3.9s-2.5-2.3-3.5-1.7l-10,7
		C377.5,364.2,377.4,365.2,378,366z"/>
	<path class="st4" d="M378,373.7c0.4-0.9,1.3-1.3,2.2-1.2l11.1,5.2c1,0.6,1.2,2.3,0.3,3.9s-2.5,2.3-3.5,1.7l-10-7
		C377.5,375.5,377.5,374.4,378,373.7L378,373.7z"/>
	<path class="st4" d="M364.8,373.7c0.6,0.7,0.5,1.8-0.1,2.5l-10,7c-1,0.6-2.6-0.1-3.5-1.7s-0.7-3.3,0.3-3.9l11.1-5.2
		C363.6,372.3,364.5,372.8,364.8,373.7L364.8,373.7z"/>
	<path class="st4" d="M371.4,377.5c0.9-0.1,1.8,0.4,2.1,1.3l1.1,12.2c0,1.2-1.4,2.2-3.2,2.2s-3.2-1-3.2-2.2l1.1-12.2
		C369.6,377.9,370.5,377.4,371.4,377.5L371.4,377.5z"/>
	<path class="st4" d="M376.2,391.6L376.2,391.6c0.2,0,0.3,0,0.3-0.1s-0.1-0.1-0.2-0.1h-0.1L376.2,391.6z M376.2,392H376v-0.9
		c0.1,0,0.2,0,0.4,0c0.1,0,0.2,0,0.3,0.1c0.1,0,0.1,0.1,0.1,0.2c0,0.1-0.1,0.2-0.2,0.2l0,0c0.1,0,0.2,0.1,0.2,0.2
		c0,0.1,0,0.1,0.1,0.2h-0.3c0-0.1,0-0.1-0.1-0.2c0-0.1-0.1-0.1-0.2-0.1h-0.1L376.2,392z M376.3,390.9c-0.4,0-0.7,0.3-0.7,0.7
		c0,0.4,0.3,0.7,0.7,0.7c0.4,0,0.7-0.3,0.7-0.7c0,0,0,0,0,0C377,391.2,376.7,390.9,376.3,390.9C376.3,390.9,376.3,390.9,376.3,390.9
		z M376.3,390.7c0.5,0,0.9,0.4,0.9,0.9c0,0,0,0,0,0c0,0.5-0.4,1-0.9,1c-0.5,0-1-0.4-1-0.9S375.8,390.7,376.3,390.7
		C376.3,390.7,376.3,390.7,376.3,390.7z"/>
	<circle class="st3" cx="218.9" cy="551.8" r="8.4"/>
	<circle class="st3" cx="523.7" cy="552.3" r="8.4"/>
	<circle class="st3" cx="370" cy="608.3" r="8.4"/>
	<path class="st6" d="M175.2,504.7c74.1,108.2,221.9,135.7,330.1,61.6c24.2-16.6,45-37.4,61.6-61.6"/>
	<circle class="st5" cx="604.1" cy="329.4" r="8.4"/>
	<circle class="st5" cx="523.7" cy="189.3" r="8.4"/>
	<circle class="st5" cx="575" cy="250.1" r="8.4"/>
	<path class="st7" d="M585.2,472.9c56.5-118.3,6.5-260.1-111.9-316.6c-26.4-12.6-54.9-20.2-84-22.5"/>
	<path class="st8" d="M351.8,99.2"/>
	<circle class="st4" cx="218" cy="189.3" r="8.4"/>
	<circle class="st4" cx="136.9" cy="330.4" r="8.4"/>
	<path class="st8" d="M352.7,133.8c-130.8,10.2-228.5,124.4-218.4,255.2c2.3,29.1,9.9,57.6,22.5,83.9"/>
	<g class="st1">
		<path class="st0" d="M614.2,193.3l-2.2,0.8l-1.2-1.7l8.8-3l1.6,2.1l-5.6,7.5l-1.3-1.8l1.4-1.9L614.2,193.3z M616.8,194.2l1.2-1.6
			c0.3-0.4,0.8-1,1.1-1.4l0,0c-0.5,0.2-1.1,0.5-1.6,0.7l-1.8,0.7L616.8,194.2z"/>
	</g>
	<g class="st1">
		<path class="st0" d="M623.3,204.3c0.9-0.6,1.9-1.4,3-2.1l0,0c-1.1,0.4-2.3,0.8-3.4,1.1l-3.5,1.1l-0.9-1.3l2.3-2.7
			c0.7-0.8,1.6-1.8,2.4-2.6l0,0c-1,0.6-2.2,1.4-3.1,1.9l-2.9,1.8l-1-1.5l7.7-4.5l1.5,2.2l-2,2.4c-0.7,0.8-1.5,1.7-2.2,2.4l0,0
			c1-0.4,2.1-0.8,3.1-1.1l3-0.9l1.5,2.2l-7.1,5.4l-1.1-1.6L623.3,204.3z"/>
	</g>
	<g class="st1">
		<path class="st0" d="M629.9,204.5c0.4,0.4,1,1.2,1.6,2.1c0.7,1,1,1.7,1,2.5c0.1,0.7-0.2,1.4-0.9,1.8c-0.7,0.4-1.5,0.4-2.4-0.2l0,0
			c0.3,1,0.1,2.1-0.9,2.7c-0.7,0.4-1.4,0.5-2.1,0.2c-0.8-0.3-1.6-1-2.6-2.5c-0.5-0.8-0.9-1.5-1.1-1.9L629.9,204.5z M624.8,210.2
			c0.1,0.2,0.2,0.4,0.4,0.7c0.5,0.8,1.2,1.3,2,0.8c0.8-0.5,0.6-1.4,0.1-2.2l-0.4-0.6L624.8,210.2z M628.1,208.1l0.4,0.6
			c0.6,0.9,1.2,1.1,1.8,0.8c0.6-0.4,0.6-1,0.1-1.8c-0.2-0.4-0.4-0.6-0.5-0.7L628.1,208.1z"/>
	</g>
	<g class="st1">
		<path class="st0" d="M635.4,213.1l-7.6,4.6l-1-1.7l7.6-4.6L635.4,213.1z"/>
	</g>
	<g class="st1">
		<path class="st0" d="M634.7,221.9l-1.7-2.8l-1.8,1.1l1.8,3.2l-1.4,0.8l-2.9-4.9l7.7-4.5l2.8,4.7l-1.4,0.8l-1.8-3l-1.6,0.9l1.7,2.8
			L634.7,221.9z"/>
	</g>
	<g class="st1">
		<path class="st0" d="M632.3,225.4l7.8-4.3l1.1,2.1l-2,3.2c-0.6,0.9-1.3,1.9-2,2.7l0,0c1-0.7,2-1.3,3.2-1.9l2.3-1.2l0.9,1.6
			l-7.8,4.3l-1-1.9l2.1-3.3c0.6-0.9,1.3-2,2-2.9l0,0c-1,0.6-2.1,1.2-3.4,1.9l-2.4,1.3L632.3,225.4z"/>
	</g>
	<g class="st1">
		<path class="st0" d="M643.9,231.6l-1.1-2.1l1.5-0.8l3.1,6.1l-1.5,0.8l-1.1-2.2l-6.4,3.3l-0.9-1.8L643.9,231.6z"/>
	</g>
	<g class="st1">
		<path class="st0" d="M642.5,240l-2.3,0.4l-0.9-1.9l9.2-1.4l1.1,2.4l-6.8,6.4l-0.9-1.9l1.8-1.6L642.5,240z M644.9,241.3l1.5-1.3
			c0.4-0.4,0.9-0.8,1.4-1.2l0,0c-0.5,0.1-1.2,0.3-1.7,0.4l-1.9,0.3L644.9,241.3z"/>
	</g>
	<g class="st1">
		<path class="st0" d="M651.4,243.1l0.8,1.8l-6.6,3l1.5,3.2l-1.5,0.7l-2.3-5.1L651.4,243.1z"/>
	</g>
	<g class="st1">
		<path class="st0" d="M301.7,669.2c-0.7,0.1-1.9,0.1-3-0.2c-1.6-0.4-2.6-1.1-3.2-2c-0.6-0.9-0.8-2.2-0.4-3.4c0.7-2.9,3.2-4,6-3.3
			c1.1,0.3,1.9,0.7,2.3,1l-0.8,1.5c-0.4-0.3-1-0.6-1.9-0.9c-1.6-0.4-3.1,0.2-3.5,2.1c-0.4,1.8,0.4,3.1,2,3.5c0.4,0.1,0.8,0.1,1,0.1
			l0.4-1.8l-1.3-0.3l0.4-1.5l3.2,0.8L301.7,669.2z"/>
	</g>
	<g class="st1">
		<path class="st0" d="M312.2,667.2c-0.6,2.9-2.7,4.2-5.2,3.7c-2.6-0.5-3.7-2.8-3.2-5.3c0.5-2.6,2.6-4.2,5.2-3.7
			C311.6,662.4,312.7,664.8,312.2,667.2z M305.9,666c-0.4,1.7,0.2,3.1,1.5,3.4c1.3,0.3,2.4-0.8,2.7-2.5c0.3-1.6-0.1-3.1-1.5-3.3
			C307.2,663.2,306.2,664.3,305.9,666z"/>
	</g>
	<g class="st1">
		<path class="st0" d="M314.2,663.2c0.5,0,1.6,0.1,2.6,0.3c1.2,0.2,1.9,0.5,2.5,1c0.6,0.4,0.9,1.1,0.7,1.9c-0.1,0.8-0.7,1.4-1.8,1.6
			l0,0c1,0.5,1.6,1.3,1.4,2.5c-0.1,0.8-0.6,1.4-1.2,1.7c-0.7,0.4-1.8,0.5-3.6,0.2c-1-0.2-1.7-0.4-2.1-0.5L314.2,663.2z M314.9,670.8
			c0.2,0.1,0.4,0.1,0.8,0.2c0.9,0.2,1.8,0,1.9-1c0.2-0.9-0.6-1.4-1.6-1.6l-0.7-0.1L314.9,670.8z M315.6,666.9l0.6,0.1
			c1,0.2,1.7-0.1,1.8-0.8c0.1-0.7-0.3-1.1-1.2-1.3c-0.4-0.1-0.7-0.1-0.9-0.1L315.6,666.9z"/>
	</g>
	<g class="st1">
		<path class="st0" d="M324,664.8l-1.4,8.8l-2-0.3l1.4-8.8L324,664.8z"/>
	</g>
	<g class="st1">
		<path class="st0" d="M330.2,670.9l-3.2-0.5l-0.3,2.1l3.6,0.5l-0.2,1.6l-5.6-0.8l1.3-8.8l5.4,0.8l-0.2,1.6l-3.4-0.5l-0.3,1.8
			l3.2,0.5L330.2,670.9z"/>
	</g>
	<g class="st1">
		<path class="st0" d="M332.6,666.2c0.7,0,1.6,0,2.7,0.1c1.3,0.2,2.2,0.5,2.8,1c0.5,0.5,0.7,1.1,0.6,1.9c-0.1,1.1-1,1.8-1.8,2l0,0
			c0.6,0.3,0.9,1,1,1.8c0.2,1,0.3,2.2,0.4,2.6l-2-0.2c-0.1-0.3-0.2-1-0.4-2.1c-0.1-1.1-0.5-1.5-1.3-1.6l-0.6-0.1l-0.4,3.5l-2-0.2
			L332.6,666.2z M334.2,670.2l0.8,0.1c1,0.1,1.6-0.3,1.7-1.1c0.1-0.8-0.4-1.3-1.3-1.4c-0.5-0.1-0.8-0.1-0.9,0L334.2,670.2z"/>
	</g>
	<g class="st1">
		<path class="st0" d="M339.6,675.8l0.8-8.9l2.4,0.2l1.6,3.4c0.4,1,0.9,2.1,1.2,3.2l0,0c0-1.2,0-2.4,0.2-3.7l0.2-2.6l1.8,0.2
			l-0.8,8.9l-2.1-0.2l-1.6-3.6c-0.4-1-0.9-2.2-1.3-3.3l0,0c-0.1,1.2-0.1,2.4-0.3,3.9l-0.2,2.7L339.6,675.8z"/>
	</g>
	<g class="st1">
		<path class="st0" d="M357.2,672.5c-0.2,2.9-2.1,4.6-4.7,4.4c-2.6-0.2-4.1-2.2-3.9-4.8c0.2-2.7,2-4.6,4.6-4.4
			C356,667.9,357.4,670.1,357.2,672.5z M350.8,672.3c-0.1,1.7,0.6,3,2,3.1c1.4,0.1,2.2-1.2,2.3-2.9c0.1-1.6-0.6-3-2-3.1
			C351.8,669.3,350.9,670.5,350.8,672.3z"/>
	</g>
	<g class="st1">
		<path class="st0" d="M367.6,677.1c-0.4,0.2-1.2,0.4-2.3,0.3c-3.1-0.1-4.6-2-4.6-4.5c0.1-3,2.3-4.7,5-4.6c1,0,1.8,0.2,2.2,0.4
			l-0.4,1.6c-0.4-0.2-1-0.3-1.7-0.4c-1.6,0-2.9,0.9-2.9,2.9c0,1.8,1,2.9,2.8,3c0.6,0,1.3-0.1,1.7-0.3L367.6,677.1z"/>
	</g>
	<g class="st1">
		<path class="st0" d="M377.1,672.8c0,2.9-1.7,4.7-4.3,4.7c-2.6,0-4.2-1.9-4.2-4.5c0-2.7,1.7-4.7,4.3-4.7
			C375.5,668.3,377,670.3,377.1,672.8z M370.6,673c0,1.7,0.8,3,2.2,2.9c1.4,0,2.1-1.3,2.1-3c0-1.6-0.8-3-2.2-2.9
			C371.4,670,370.6,671.3,370.6,673z"/>
	</g>
	<g class="st1">
		<path class="st0" d="M378.3,668.5c0.6-0.1,1.6-0.2,2.7-0.3c1.3,0,2.2,0.1,2.9,0.6c0.5,0.4,0.9,1,0.9,1.8c0,1.1-0.7,1.9-1.5,2.2
			l0,0c0.6,0.2,1,0.8,1.2,1.6c0.3,1,0.6,2.1,0.8,2.5l-2.1,0.1c-0.2-0.2-0.4-1-0.7-2.1c-0.3-1.1-0.7-1.4-1.5-1.4l-0.6,0l0.1,3.5
			l-2,0.1L378.3,668.5z M380.4,672.3l0.8,0c1,0,1.6-0.6,1.6-1.3c0-0.8-0.6-1.2-1.5-1.2c-0.5,0-0.8,0.1-0.9,0.1L380.4,672.3z"/>
	</g>
	<g class="st1">
		<path class="st0" d="M386,668.3c0.6-0.1,1.5-0.3,2.7-0.3c1.2-0.1,2.1,0.1,2.8,0.6c0.6,0.4,1,1.1,1.1,2c0,0.9-0.2,1.6-0.7,2.2
			c-0.6,0.7-1.6,1-2.8,1.1c-0.3,0-0.5,0-0.7,0l0.2,3.2l-2,0.1L386,668.3z M388.3,672.2c0.2,0,0.4,0,0.7,0c1.1-0.1,1.7-0.6,1.6-1.5
			c0-0.8-0.6-1.3-1.6-1.2c-0.4,0-0.7,0.1-0.8,0.1L388.3,672.2z"/>
	</g>
	<g class="st1">
		<path class="st0" d="M402.1,671.4c0.2,2.9-1.4,4.8-4,5c-2.6,0.2-4.3-1.7-4.5-4.2c-0.2-2.7,1.3-4.8,4-5
			C400.2,667,401.9,668.9,402.1,671.4z M395.6,672c0.1,1.7,1.1,2.9,2.4,2.8c1.4-0.1,2-1.5,1.9-3.2c-0.1-1.6-1-2.9-2.4-2.8
			C396.2,668.9,395.5,670.3,395.6,672z"/>
	</g>
	<g class="st1">
		<path class="st0" d="M402.9,667c0.6-0.2,1.6-0.4,2.6-0.5c1.3-0.1,2.3-0.1,2.9,0.4c0.6,0.4,0.9,0.9,1,1.8c0.1,1.1-0.6,2-1.3,2.4
			l0,0c0.6,0.2,1.1,0.7,1.4,1.5c0.4,1,0.8,2.1,1,2.4l-2,0.2c-0.2-0.2-0.5-0.9-0.8-2c-0.4-1.1-0.8-1.3-1.6-1.3l-0.6,0.1l0.4,3.5
			l-2,0.2L402.9,667z M405.3,670.6l0.8-0.1c1-0.1,1.5-0.7,1.4-1.5c-0.1-0.8-0.7-1.2-1.6-1.1c-0.5,0.1-0.8,0.1-0.9,0.2L405.3,670.6z"
			/>
	</g>
	<g class="st1">
		<path class="st0" d="M413.7,672.2l-0.3,2.3l-2.1,0.3l1.4-9.2l2.6-0.4l4,8.4l-2.1,0.3l-1-2.2L413.7,672.2z M415.8,670.4l-0.8-1.8
			c-0.2-0.5-0.5-1.1-0.7-1.6l0,0c-0.1,0.5-0.1,1.2-0.2,1.8l-0.3,1.9L415.8,670.4z"/>
	</g>
	<g class="st1">
		<path class="st0" d="M420.3,666.3l-2.4,0.4l-0.3-1.7l6.7-1.1l0.3,1.7l-2.4,0.4l1.2,7.1l-2,0.3L420.3,666.3z"/>
	</g>
	<g class="st1">
		<path class="st0" d="M427.3,663.3l1.6,8.8l-2,0.4l-1.6-8.8L427.3,663.3z"/>
	</g>
	<g class="st1">
		<path class="st0" d="M432.7,671.4l-4.6-8.1l2.2-0.4l1.8,3.5c0.5,1,1,1.9,1.4,3l0,0c0-1.1,0.1-2.2,0.2-3.2l0.4-4l2.1-0.4l-1.2,9.3
			L432.7,671.4z"/>
	</g>
	<g class="st1">
		<path class="st0" d="M445.6,663.9c0.7,2.8-0.7,5-3.2,5.6c-2.6,0.6-4.5-1-5.1-3.5c-0.6-2.6,0.6-4.9,3.2-5.5
			C443.1,659.8,445,661.5,445.6,663.9z M439.3,665.4c0.4,1.7,1.5,2.7,2.8,2.4c1.3-0.3,1.8-1.7,1.4-3.4c-0.4-1.6-1.4-2.7-2.8-2.4
			C439.4,662.3,438.9,663.8,439.3,665.4z"/>
	</g>
	<g class="st1">
		<path class="st0" d="M96.1,254.4c0.5-0.4,1.1-1,1.4-1.8c0.4-0.9,0.2-1.5-0.3-1.7c-0.5-0.2-1,0-1.8,0.9c-1.1,1.2-2.2,1.7-3.4,1.2
			c-1.4-0.6-2-2.2-1.1-4.2c0.4-0.9,0.9-1.5,1.3-1.9l1.3,1.1c-0.3,0.3-0.8,0.7-1.1,1.5c-0.3,0.8-0.2,1.3,0.3,1.5c0.5,0.2,1-0.1,1.8-1
			c1.2-1.2,2.2-1.6,3.4-1.1c1.4,0.6,2.1,2.2,1.1,4.4c-0.4,0.9-1.1,1.8-1.5,2.1L96.1,254.4z"/>
	</g>
	<g class="st1">
		<path class="st0" d="M100.2,239.6c2.6,1.3,3.5,3.6,2.3,5.9c-1.1,2.4-3.6,2.9-5.9,1.8c-2.4-1.1-3.5-3.5-2.3-5.9
			C95.6,239,98,238.5,100.2,239.6z M97.6,245.4c1.6,0.7,3,0.5,3.6-0.7c0.6-1.2-0.2-2.5-1.8-3.2c-1.4-0.7-3-0.6-3.6,0.7
			C95.2,243.4,96,244.7,97.6,245.4z"/>
	</g>
	<g class="st1">
		<path class="st0" d="M107.6,234.4c0,0.4-0.2,1.2-0.7,2.2c-1.4,2.7-3.8,3.3-6.1,2.1c-2.7-1.4-3.2-4.1-2-6.5c0.5-0.9,1-1.5,1.3-1.8
			l1.2,1.1c-0.3,0.3-0.7,0.7-1.1,1.4c-0.7,1.4-0.4,3,1.3,3.9c1.6,0.8,3.1,0.4,3.9-1.2c0.3-0.5,0.5-1.2,0.5-1.6L107.6,234.4z"/>
	</g>
	<g class="st1">
		<path class="st0" d="M101.6,227.5l7.8,4.2l-0.9,1.8l-7.8-4.2L101.6,227.5z"/>
	</g>
	<g class="st1">
		<path class="st0" d="M109.1,227.3l1.7,1.7l-1,1.8l-6.4-6.7l1.3-2.3l9.1,1.9l-1.1,1.9l-2.3-0.5L109.1,227.3z M108.9,224.6l-1.9-0.4
			c-0.5-0.1-1.2-0.3-1.7-0.4l0,0c0.4,0.4,0.9,0.8,1.3,1.2l1.4,1.4L108.9,224.6z"/>
	</g>
	<g class="st1">
		<path class="st0" d="M106.6,218.3l1-1.7l6.2,3.7l1.8-3l1.5,0.9l-2.8,4.8L106.6,218.3z"/>
	</g>
</g>
<g id="Layer_5">
	<g class="st1">
		<path class="st4" d="M235,206.1c-0.3,0.2-1.1,0.3-2.1,0.3c-2.8,0-4.2-1.7-4.2-4c0-2.8,2-4.3,4.4-4.3c0.9,0,1.7,0.2,2,0.4l-0.4,1.5
			c-0.4-0.2-0.9-0.3-1.5-0.3c-1.5,0-2.6,0.9-2.6,2.7c0,1.6,1,2.6,2.6,2.6c0.6,0,1.2-0.1,1.5-0.3L235,206.1z"/>
	</g>
	<g class="st1">
		<path class="st4" d="M236.3,198.3c0.6-0.1,1.5-0.2,2.4-0.2c1.2,0,2,0.2,2.6,0.6c0.5,0.4,0.7,0.9,0.7,1.7c0,1-0.7,1.7-1.4,2v0
			c0.6,0.2,0.9,0.8,1.1,1.5c0.3,0.9,0.5,2,0.7,2.3h-1.9c-0.1-0.2-0.3-0.9-0.6-1.9c-0.2-1-0.6-1.3-1.3-1.3h-0.6v3.2h-1.8V198.3z
			 M238.1,201.8h0.7c0.9,0,1.5-0.5,1.5-1.2c0-0.7-0.5-1.1-1.3-1.1c-0.4,0-0.7,0-0.8,0.1V201.8z"/>
	</g>
	<g class="st1">
		<path class="st4" d="M248.6,202.9h-3v1.9h3.3v1.5h-5.2v-8.1h5v1.5h-3.2v1.7h3V202.9z"/>
	</g>
	<g class="st1">
		<path class="st4" d="M252.4,204.2l-0.6,2.1h-1.9l2.5-8.1h2.4l2.5,8.1h-2l-0.6-2.1H252.4z M254.4,202.9l-0.5-1.7
			c-0.1-0.5-0.3-1.1-0.4-1.6h0c-0.1,0.5-0.2,1.1-0.4,1.6l-0.5,1.7H254.4z"/>
	</g>
	<g class="st1">
		<path class="st4" d="M258.5,198.3c0.6-0.1,1.5-0.2,2.4-0.2c1.2,0,2,0.2,2.6,0.6c0.5,0.4,0.7,0.9,0.7,1.7c0,1-0.7,1.7-1.4,2v0
			c0.6,0.2,0.9,0.8,1.1,1.5c0.3,0.9,0.5,2,0.7,2.3h-1.9c-0.1-0.2-0.3-0.9-0.6-1.9c-0.2-1-0.6-1.3-1.3-1.3h-0.6v3.2h-1.8V198.3z
			 M260.3,201.8h0.7c0.9,0,1.5-0.5,1.5-1.2c0-0.7-0.5-1.1-1.3-1.1c-0.4,0-0.7,0-0.8,0.1V201.8z"/>
	</g>
	<g class="st1">
		<path class="st4" d="M236.4,216.4c0,2.7-1.6,4.3-4,4.3c-2.4,0-3.8-1.8-3.8-4.1c0-2.4,1.5-4.2,3.9-4.2
			C235.1,212.3,236.4,214.2,236.4,216.4z M230.6,216.5c0,1.6,0.7,2.7,2,2.7c1.2,0,1.9-1.2,1.9-2.7c0-1.5-0.7-2.7-2-2.7
			C231.3,213.8,230.6,214.9,230.6,216.5z"/>
	</g>
	<g class="st1">
		<path class="st4" d="M237.9,212.6c0.6-0.1,1.4-0.2,2.5-0.2c1.1,0,1.9,0.2,2.5,0.6c0.5,0.4,0.9,1.1,0.9,1.9c0,0.8-0.3,1.5-0.7,1.9
			c-0.6,0.6-1.5,0.9-2.6,0.9c-0.2,0-0.5,0-0.6,0v2.9h-1.8V212.6z M239.7,216.2c0.2,0,0.3,0,0.6,0c1,0,1.6-0.5,1.6-1.3
			c0-0.7-0.5-1.2-1.4-1.2c-0.4,0-0.6,0-0.8,0.1V216.2z"/>
	</g>
	<g class="st1">
		<path class="st4" d="M252.5,216.4c0,2.7-1.6,4.3-4,4.3c-2.4,0-3.8-1.8-3.8-4.1c0-2.4,1.5-4.2,3.9-4.2
			C251.1,212.3,252.5,214.2,252.5,216.4z M246.6,216.5c0,1.6,0.7,2.7,2,2.7c1.2,0,1.9-1.2,1.9-2.7c0-1.5-0.7-2.7-2-2.7
			C247.4,213.8,246.6,214.9,246.6,216.5z"/>
	</g>
	<g class="st1">
		<path class="st4" d="M253.9,212.6c0.6-0.1,1.5-0.2,2.4-0.2c1.2,0,2,0.2,2.6,0.6c0.5,0.4,0.7,0.9,0.7,1.7c0,1-0.7,1.7-1.4,2v0
			c0.6,0.2,0.9,0.8,1.1,1.5c0.3,0.9,0.5,2,0.7,2.3h-1.9c-0.1-0.2-0.3-0.9-0.6-1.9c-0.2-1-0.6-1.3-1.3-1.3h-0.6v3.2h-1.8V212.6z
			 M255.8,216h0.7c0.9,0,1.5-0.5,1.5-1.2c0-0.7-0.5-1.1-1.3-1.1c-0.4,0-0.7,0-0.8,0.1V216z"/>
	</g>
	<g class="st1">
		<path class="st4" d="M262.9,214h-2.2v-1.5h6.2v1.5h-2.2v6.5h-1.8V214z"/>
	</g>
	<g class="st1">
		<path class="st4" d="M269.9,212.4v4.7c0,1.4,0.5,2.1,1.5,2.1c1,0,1.5-0.7,1.5-2.1v-4.7h1.8v4.5c0,2.5-1.3,3.7-3.4,3.7
			c-2,0-3.2-1.1-3.2-3.7v-4.5H269.9z"/>
	</g>
	<g class="st1">
		<path class="st4" d="M276.5,220.5v-8.1h2.1l1.7,3c0.5,0.9,1,1.9,1.3,2.8h0c-0.1-1.1-0.2-2.2-0.2-3.4v-2.4h1.7v8.1h-1.9l-1.7-3.1
			c-0.5-0.9-1-1.9-1.4-2.9l0,0c0,1.1,0.1,2.2,0.1,3.5v2.4H276.5z"/>
	</g>
	<g class="st1">
		<path class="st4" d="M286.9,212.4v8.1h-1.8v-8.1H286.9z"/>
	</g>
	<g class="st1">
		<path class="st4" d="M288.7,212.6c0.7-0.1,1.5-0.2,2.5-0.2c1.5,0,2.5,0.3,3.3,0.9c0.8,0.6,1.4,1.6,1.4,3c0,1.5-0.6,2.6-1.3,3.3
			c-0.9,0.7-2.1,1-3.7,1c-0.9,0-1.6-0.1-2.1-0.1V212.6z M290.5,219.2c0.2,0,0.4,0,0.6,0c1.7,0,2.7-0.9,2.7-2.8c0-1.7-1-2.6-2.5-2.6
			c-0.4,0-0.7,0-0.8,0.1V219.2z"/>
	</g>
	<g class="st1">
		<path class="st4" d="M298.8,218.5l-0.6,2.1h-1.9l2.5-8.1h2.4l2.5,8.1h-2l-0.6-2.1H298.8z M300.9,217.1l-0.5-1.7
			c-0.1-0.5-0.3-1.1-0.4-1.6h0c-0.1,0.5-0.2,1.1-0.4,1.6l-0.5,1.7H300.9z"/>
	</g>
	<g class="st1">
		<path class="st4" d="M304.9,212.6c0.7-0.1,1.5-0.2,2.5-0.2c1.5,0,2.5,0.3,3.3,0.9c0.8,0.6,1.4,1.6,1.4,3c0,1.5-0.6,2.6-1.3,3.3
			c-0.9,0.7-2.1,1-3.7,1c-0.9,0-1.6-0.1-2.1-0.1V212.6z M306.8,219.2c0.2,0,0.4,0,0.6,0c1.7,0,2.7-0.9,2.7-2.8c0-1.7-1-2.6-2.5-2.6
			c-0.4,0-0.7,0-0.8,0.1V219.2z"/>
	</g>
	<g class="st1">
		<path class="st4" d="M318.3,217.1h-3v1.9h3.3v1.5h-5.2v-8.1h5v1.5h-3.2v1.7h3V217.1z"/>
	</g>
	<g class="st1">
		<path class="st4" d="M320.2,218.6c0.5,0.3,1.2,0.5,2,0.5c0.8,0,1.3-0.3,1.3-0.9c0-0.5-0.4-0.8-1.4-1.1c-1.3-0.5-2.2-1.2-2.2-2.4
			c0-1.4,1.2-2.4,3.1-2.4c0.9,0,1.6,0.2,2.1,0.4l-0.4,1.5c-0.3-0.2-0.9-0.4-1.7-0.4s-1.2,0.4-1.2,0.8c0,0.5,0.5,0.7,1.5,1.1
			c1.4,0.5,2.1,1.3,2.1,2.4c0,1.4-1,2.5-3.3,2.5c-0.9,0-1.8-0.2-2.3-0.5L320.2,218.6z"/>
	</g>
	<g class="st1">
		<path class="st4" d="M229,226.8c0.6-0.1,1.4-0.2,2.5-0.2c1.1,0,1.9,0.2,2.5,0.6c0.5,0.4,0.9,1.1,0.9,1.9c0,0.8-0.3,1.5-0.7,1.9
			c-0.6,0.6-1.5,0.9-2.6,0.9c-0.2,0-0.5,0-0.6,0v2.9H229V226.8z M230.8,230.5c0.2,0,0.3,0,0.6,0c1,0,1.6-0.5,1.6-1.3
			c0-0.7-0.5-1.2-1.4-1.2c-0.4,0-0.6,0-0.8,0.1V230.5z"/>
	</g>
	<g class="st1">
		<path class="st4" d="M237.5,232.7l-0.6,2.1H235l2.5-8.1h2.4l2.5,8.1h-2l-0.6-2.1H237.5z M239.5,231.3l-0.5-1.7
			c-0.1-0.5-0.3-1.1-0.4-1.6h0c-0.1,0.5-0.2,1.1-0.4,1.6l-0.5,1.7H239.5z"/>
	</g>
	<g class="st1">
		<path class="st4" d="M243.6,226.8c0.6-0.1,1.5-0.2,2.4-0.2c1.2,0,2,0.2,2.6,0.6c0.5,0.4,0.7,0.9,0.7,1.7c0,1-0.7,1.7-1.4,2v0
			c0.6,0.2,0.9,0.8,1.1,1.5c0.3,0.9,0.5,2,0.7,2.3h-1.9c-0.1-0.2-0.3-0.9-0.6-1.9c-0.2-1-0.6-1.3-1.3-1.3h-0.6v3.2h-1.8V226.8z
			 M245.4,230.3h0.7c0.9,0,1.5-0.5,1.5-1.2c0-0.7-0.5-1.1-1.3-1.1c-0.4,0-0.7,0-0.8,0.1V230.3z"/>
	</g>
	<g class="st1">
		<path class="st4" d="M253,232.7l-0.6,2.1h-1.9l2.5-8.1h2.4l2.5,8.1h-2l-0.6-2.1H253z M255.1,231.3l-0.5-1.7
			c-0.1-0.5-0.3-1.1-0.4-1.6h0c-0.1,0.5-0.2,1.1-0.4,1.6l-0.5,1.7H255.1z"/>
		<path class="st4" d="M261.9,234.8v-8.1h2.1l1.7,3c0.5,0.9,1,1.9,1.3,2.8h0c-0.1-1.1-0.2-2.2-0.2-3.4v-2.4h1.7v8.1h-1.9l-1.7-3.1
			c-0.5-0.9-1-1.9-1.4-2.9l0,0c0,1.1,0.1,2.2,0.1,3.5v2.4H261.9z"/>
		<path class="st4" d="M272.3,226.7v4.7c0,1.4,0.5,2.1,1.5,2.1c1,0,1.5-0.7,1.5-2.1v-4.7h1.8v4.5c0,2.5-1.3,3.7-3.4,3.7
			c-2,0-3.2-1.1-3.2-3.7v-4.5H272.3z"/>
	</g>
	<g class="st1">
		<path class="st4" d="M283.7,231.3h-3v1.9h3.3v1.5h-5.2v-8.1h5v1.5h-3.2v1.7h3V231.3z"/>
	</g>
	<g class="st1">
		<path class="st4" d="M285.6,232.9c0.5,0.3,1.2,0.5,2,0.5c0.8,0,1.3-0.3,1.3-0.9c0-0.5-0.4-0.8-1.4-1.1c-1.3-0.5-2.2-1.2-2.2-2.4
			c0-1.4,1.2-2.4,3.1-2.4c0.9,0,1.6,0.2,2.1,0.4l-0.4,1.5c-0.3-0.2-0.9-0.4-1.7-0.4s-1.2,0.4-1.2,0.8c0,0.5,0.5,0.7,1.5,1.1
			c1.4,0.5,2.1,1.3,2.1,2.4c0,1.4-1,2.5-3.3,2.5c-0.9,0-1.8-0.2-2.3-0.5L285.6,232.9z"/>
	</g>
	<g class="st1">
		<path class="st4" d="M293.7,228.2h-2.2v-1.5h6.2v1.5h-2.2v6.5h-1.8V228.2z"/>
		<path class="st4" d="M298.8,226.8c0.6-0.1,1.5-0.2,2.4-0.2c1.2,0,2,0.2,2.6,0.6c0.5,0.4,0.7,0.9,0.7,1.7c0,1-0.7,1.7-1.4,2v0
			c0.6,0.2,0.9,0.8,1.1,1.5c0.3,0.9,0.5,2,0.7,2.3h-1.9c-0.1-0.2-0.3-0.9-0.6-1.9c-0.2-1-0.6-1.3-1.3-1.3h-0.6v3.2h-1.8V226.8z
			 M300.7,230.3h0.7c0.9,0,1.5-0.5,1.5-1.2c0-0.7-0.5-1.1-1.3-1.1c-0.4,0-0.7,0-0.8,0.1V230.3z"/>
	</g>
	<g class="st1">
		<path class="st4" d="M313.6,230.6c0,2.7-1.6,4.3-4,4.3c-2.4,0-3.8-1.8-3.8-4.1c0-2.4,1.5-4.2,3.9-4.2
			C312.2,226.5,313.6,228.4,313.6,230.6z M307.7,230.7c0,1.6,0.7,2.7,2,2.7c1.2,0,1.9-1.2,1.9-2.7c0-1.5-0.7-2.7-2-2.7
			C308.5,228,307.7,229.2,307.7,230.7z"/>
	</g>
	<g class="st1">
		<path class="st4" d="M314.9,232.9c0.5,0.3,1.2,0.5,2,0.5c0.8,0,1.3-0.3,1.3-0.9c0-0.5-0.4-0.8-1.4-1.1c-1.3-0.5-2.2-1.2-2.2-2.4
			c0-1.4,1.2-2.4,3.1-2.4c0.9,0,1.6,0.2,2.1,0.4l-0.4,1.5c-0.3-0.2-0.9-0.4-1.7-0.4s-1.2,0.4-1.2,0.8c0,0.5,0.5,0.7,1.5,1.1
			c1.4,0.5,2.1,1.3,2.1,2.4c0,1.4-1,2.5-3.3,2.5c-0.9,0-1.8-0.2-2.3-0.5L314.9,232.9z"/>
		<path class="st4" d="M326.1,232.7l-0.6,2.1h-1.9l2.5-8.1h2.4l2.5,8.1h-2l-0.6-2.1H326.1z M328.2,231.3l-0.5-1.7
			c-0.1-0.5-0.3-1.1-0.4-1.6h0c-0.1,0.5-0.2,1.1-0.4,1.6l-0.5,1.7H328.2z"/>
	</g>
	<g class="st1">
		<path class="st4" d="M332.4,232.9c0.5,0.3,1.2,0.5,2,0.5c0.8,0,1.3-0.3,1.3-0.9c0-0.5-0.4-0.8-1.4-1.1c-1.3-0.5-2.2-1.2-2.2-2.4
			c0-1.4,1.2-2.4,3.1-2.4c0.9,0,1.6,0.2,2.1,0.4l-0.4,1.5c-0.3-0.2-0.9-0.4-1.7-0.4s-1.2,0.4-1.2,0.8c0,0.5,0.5,0.7,1.5,1.1
			c1.4,0.5,2.1,1.3,2.1,2.4c0,1.4-1,2.5-3.3,2.5c-0.9,0-1.8-0.2-2.3-0.5L332.4,232.9z"/>
	</g>
	<g class="st1">
		<path class="st4" d="M346.4,230.6c0,2.7-1.6,4.3-4,4.3c-2.4,0-3.8-1.8-3.8-4.1c0-2.4,1.5-4.2,3.9-4.2
			C345.1,226.5,346.4,228.4,346.4,230.6z M340.6,230.7c0,1.6,0.7,2.7,2,2.7c1.2,0,1.9-1.2,1.9-2.7c0-1.5-0.7-2.7-2-2.7
			C341.3,228,340.6,229.2,340.6,230.7z"/>
	</g>
	<g class="st1">
		<path class="st4" d="M353.8,234.5c-0.3,0.2-1.1,0.3-2.1,0.3c-2.8,0-4.2-1.7-4.2-4c0-2.8,2-4.3,4.4-4.3c0.9,0,1.7,0.2,2,0.4
			l-0.4,1.5c-0.4-0.2-0.9-0.3-1.5-0.3c-1.5,0-2.6,0.9-2.6,2.7c0,1.6,1,2.6,2.6,2.6c0.6,0,1.2-0.1,1.5-0.3L353.8,234.5z"/>
	</g>
	<g class="st1">
		<path class="st4" d="M357,226.7v8.1h-1.8v-8.1H357z"/>
	</g>
	<g class="st1">
		<path class="st4" d="M360.6,232.7l-0.6,2.1h-1.9l2.5-8.1h2.4l2.5,8.1h-2l-0.6-2.1H360.6z M362.6,231.3l-0.5-1.7
			c-0.1-0.5-0.3-1.1-0.4-1.6h0c-0.1,0.5-0.2,1.1-0.4,1.6l-0.5,1.7H362.6z"/>
	</g>
	<g class="st1">
		<path class="st4" d="M366.7,226.8c0.7-0.1,1.5-0.2,2.5-0.2c1.5,0,2.5,0.3,3.3,0.9c0.8,0.6,1.4,1.6,1.4,3c0,1.5-0.6,2.6-1.3,3.3
			c-0.9,0.7-2.1,1-3.7,1c-0.9,0-1.6-0.1-2.1-0.1V226.8z M368.5,233.4c0.2,0,0.4,0,0.6,0c1.7,0,2.7-0.9,2.7-2.8c0-1.7-1-2.6-2.5-2.6
			c-0.4,0-0.7,0-0.8,0.1V233.4z"/>
	</g>
	<g class="st1">
		<path class="st4" d="M382.7,230.6c0,2.7-1.6,4.3-4,4.3c-2.4,0-3.8-1.8-3.8-4.1c0-2.4,1.5-4.2,3.9-4.2
			C381.3,226.5,382.7,228.4,382.7,230.6z M376.9,230.7c0,1.6,0.7,2.7,2,2.7c1.2,0,1.9-1.2,1.9-2.7c0-1.5-0.7-2.7-2-2.7
			C377.6,228,376.9,229.2,376.9,230.7z"/>
	</g>
	<g class="st1">
		<path class="st4" d="M384.1,232.9c0.5,0.3,1.2,0.5,2,0.5c0.8,0,1.3-0.3,1.3-0.9c0-0.5-0.4-0.8-1.4-1.1c-1.3-0.5-2.2-1.2-2.2-2.4
			c0-1.4,1.2-2.4,3.1-2.4c0.9,0,1.6,0.2,2.1,0.4l-0.4,1.5c-0.3-0.2-0.9-0.4-1.7-0.4c-0.8,0-1.2,0.4-1.2,0.8c0,0.5,0.5,0.7,1.5,1.1
			c1.4,0.5,2.1,1.3,2.1,2.4c0,1.4-1,2.5-3.3,2.5c-0.9,0-1.8-0.2-2.3-0.5L384.1,232.9z"/>
	</g>
	<g class="st1">
		<path class="st4" d="M230.9,249v-3.3l-2.6-4.8h2.1l0.8,1.9c0.3,0.6,0.4,1,0.6,1.5h0c0.2-0.5,0.4-1,0.6-1.5l0.8-1.9h2.1l-2.7,4.7
			v3.4H230.9z"/>
	</g>
	<g class="st1">
		<path class="st4" d="M239.2,241c0.6-0.1,1.4-0.2,2.5-0.2c1.1,0,1.9,0.2,2.5,0.6c0.5,0.4,0.9,1.1,0.9,1.9c0,0.8-0.3,1.5-0.7,1.9
			c-0.6,0.6-1.5,0.9-2.6,0.9c-0.2,0-0.5,0-0.6,0v2.9h-1.8V241z M241,244.7c0.2,0,0.3,0,0.6,0c1,0,1.6-0.5,1.6-1.3
			c0-0.7-0.5-1.2-1.4-1.2c-0.4,0-0.6,0-0.8,0.1V244.7z"/>
	</g>
	<g class="st1">
		<path class="st4" d="M246.2,241c0.6-0.1,1.5-0.2,2.4-0.2c1.2,0,2,0.2,2.6,0.6c0.5,0.4,0.7,0.9,0.7,1.7c0,1-0.7,1.7-1.4,2v0
			c0.6,0.2,0.9,0.8,1.1,1.5c0.3,0.9,0.5,2,0.7,2.3h-1.9c-0.1-0.2-0.3-0.9-0.6-1.9c-0.2-1-0.6-1.3-1.3-1.3H248v3.2h-1.8V241z
			 M248,244.5h0.7c0.9,0,1.5-0.5,1.5-1.2c0-0.7-0.5-1.1-1.3-1.1c-0.4,0-0.7,0-0.8,0.1V244.5z"/>
	</g>
	<g class="st1">
		<path class="st4" d="M260.9,244.9c0,2.7-1.6,4.3-4,4.3c-2.4,0-3.8-1.8-3.8-4.1c0-2.4,1.5-4.2,3.9-4.2
			C259.5,240.8,260.9,242.6,260.9,244.9z M255.1,245c0,1.6,0.7,2.7,2,2.7c1.2,0,1.9-1.2,1.9-2.7c0-1.5-0.7-2.7-2-2.7
			C255.8,242.2,255.1,243.4,255.1,245z"/>
	</g>
	<g class="st1">
		<path class="st4" d="M263.9,249l-2.6-8.1h2l1,3.4c0.3,1,0.5,1.9,0.7,2.9h0c0.2-1,0.5-1.9,0.7-2.9l1-3.5h1.9l-2.7,8.1H263.9z"/>
	</g>
	<g class="st1">
		<path class="st4" d="M274.7,245.6h-3v1.9h3.3v1.5h-5.2v-8.1h5v1.5h-3.2v1.7h3V245.6z"/>
		<path class="st4" d="M281.4,245.6h-3v1.9h3.3v1.5h-5.2v-8.1h5v1.5h-3.2v1.7h3V245.6z"/>
	</g>
	<g class="st1">
		<path class="st4" d="M283.3,241c0.7-0.1,1.5-0.2,2.5-0.2c1.5,0,2.5,0.3,3.3,0.9c0.8,0.6,1.4,1.6,1.4,3c0,1.5-0.6,2.6-1.3,3.3
			c-0.9,0.7-2.1,1-3.7,1c-0.9,0-1.6-0.1-2.1-0.1V241z M285.2,247.6c0.2,0,0.4,0,0.6,0c1.7,0,2.7-0.9,2.7-2.8c0-1.7-1-2.6-2.5-2.6
			c-0.4,0-0.7,0-0.8,0.1V247.6z"/>
	</g>
	<g class="st1">
		<path class="st4" d="M299.3,244.9c0,2.7-1.6,4.3-4,4.3c-2.4,0-3.8-1.8-3.8-4.1c0-2.4,1.5-4.2,3.9-4.2
			C298,240.8,299.3,242.6,299.3,244.9z M293.5,245c0,1.6,0.7,2.7,2,2.7c1.2,0,1.9-1.2,1.9-2.7c0-1.5-0.7-2.7-2-2.7
			C294.2,242.2,293.5,243.4,293.5,245z"/>
	</g>
	<g class="st1">
		<path class="st4" d="M300.8,241c0.6-0.1,1.5-0.2,2.4-0.2c1.2,0,2,0.2,2.6,0.6c0.5,0.4,0.7,0.9,0.7,1.7c0,1-0.7,1.7-1.4,2v0
			c0.6,0.2,0.9,0.8,1.1,1.5c0.3,0.9,0.5,2,0.7,2.3H305c-0.1-0.2-0.3-0.9-0.6-1.9c-0.2-1-0.6-1.3-1.3-1.3h-0.6v3.2h-1.8V241z
			 M302.6,244.5h0.7c0.9,0,1.5-0.5,1.5-1.2c0-0.7-0.5-1.1-1.3-1.1c-0.4,0-0.7,0-0.8,0.1V244.5z"/>
	</g>
	<g class="st1">
		<path class="st4" d="M313,245.6h-3v1.9h3.3v1.5h-5.2v-8.1h5v1.5H310v1.7h3V245.6z"/>
	</g>
	<g class="st1">
		<path class="st4" d="M314.9,247.1c0.5,0.3,1.2,0.5,2,0.5c0.8,0,1.3-0.3,1.3-0.9c0-0.5-0.4-0.8-1.4-1.1c-1.3-0.5-2.2-1.2-2.2-2.4
			c0-1.4,1.2-2.4,3.1-2.4c0.9,0,1.6,0.2,2.1,0.4l-0.4,1.5c-0.3-0.2-0.9-0.4-1.7-0.4s-1.2,0.4-1.2,0.8c0,0.5,0.5,0.7,1.5,1.1
			c1.4,0.5,2.1,1.3,2.1,2.4c0,1.4-1,2.5-3.3,2.5c-0.9,0-1.8-0.2-2.3-0.5L314.9,247.1z"/>
	</g>
	<g class="st1">
		<path class="st5" d="M456.8,203.2c0-1-0.1-2.1-0.1-3.3h0c-0.3,1-0.6,2.2-0.9,3.1l-1,3.2h-1.4l-0.9-3.1c-0.3-0.9-0.5-2.1-0.7-3.2h0
			c0,1.1-0.1,2.3-0.1,3.3l-0.1,3.1h-1.7l0.5-8.1h2.4l0.8,2.7c0.3,0.9,0.5,1.9,0.7,2.9h0c0.2-0.9,0.5-2,0.8-2.9l0.9-2.7h2.4l0.4,8.1
			h-1.8L456.8,203.2z"/>
	</g>
	<g class="st1">
		<path class="st5" d="M462.2,198.2v8.1h-1.8v-8.1H462.2z"/>
	</g>
	<g class="st1">
		<path class="st5" d="M465.5,199.8h-2.2v-1.5h6.2v1.5h-2.2v6.5h-1.8V199.8z"/>
	</g>
	<g class="st1">
		<path class="st5" d="M472.5,198.2v8.1h-1.8v-8.1H472.5z"/>
	</g>
	<g class="st1">
		<path class="st5" d="M481.1,205.9c-0.6,0.2-1.6,0.5-2.7,0.5c-1.5,0-2.5-0.4-3.3-1.1c-0.7-0.7-1.2-1.8-1.1-2.9c0-2.7,2-4.2,4.6-4.2
			c1,0,1.8,0.2,2.2,0.4l-0.4,1.5c-0.4-0.2-1-0.3-1.9-0.3c-1.5,0-2.7,0.9-2.7,2.6c0,1.7,1,2.7,2.5,2.7c0.4,0,0.8,0,0.9-0.1v-1.7h-1.2
			v-1.4h3V205.9z"/>
	</g>
	<g class="st1">
		<path class="st5" d="M484.6,204.2l-0.6,2.1h-1.9l2.5-8.1h2.4l2.5,8.1h-2l-0.6-2.1H484.6z M486.6,202.9l-0.5-1.7
			c-0.1-0.5-0.3-1.1-0.4-1.6h0c-0.1,0.5-0.2,1.1-0.4,1.6l-0.5,1.7H486.6z"/>
	</g>
	<g class="st1">
		<path class="st5" d="M490.7,198.3c0.6-0.1,1.5-0.2,2.4-0.2c1.2,0,2,0.2,2.6,0.6c0.5,0.4,0.7,0.9,0.7,1.7c0,1-0.7,1.7-1.4,2v0
			c0.6,0.2,0.9,0.8,1.1,1.5c0.3,0.9,0.5,2,0.7,2.3h-1.9c-0.1-0.2-0.3-0.9-0.6-1.9c-0.2-1-0.6-1.3-1.3-1.3h-0.6v3.2h-1.8V198.3z
			 M492.5,201.8h0.7c0.9,0,1.5-0.5,1.5-1.2c0-0.7-0.5-1.1-1.3-1.1c-0.4,0-0.7,0-0.8,0.1V201.8z"/>
	</g>
	<g class="st1">
		<path class="st5" d="M505.5,202.9h-3v1.9h3.3v1.5h-5.2v-8.1h5v1.5h-3.2v1.7h3V202.9z"/>
	</g>
	<g class="st1">
		<path class="st5" d="M507.4,198.2h1.8v6.5h3.2v1.5h-5V198.2z"/>
	</g>
	<g class="st1">
		<path class="st5" d="M409.8,220.3c-0.3,0.2-1.1,0.3-2.1,0.3c-2.8,0-4.2-1.7-4.2-4c0-2.8,2-4.3,4.4-4.3c0.9,0,1.7,0.2,2,0.4
			l-0.4,1.5c-0.4-0.2-0.9-0.3-1.5-0.3c-1.5,0-2.6,0.9-2.6,2.7c0,1.6,1,2.6,2.6,2.6c0.6,0,1.2-0.1,1.5-0.3L409.8,220.3z"/>
	</g>
	<g class="st1">
		<path class="st5" d="M413.3,218.5l-0.6,2.1h-1.9l2.5-8.1h2.4l2.5,8.1h-2l-0.6-2.1H413.3z M415.3,217.1l-0.5-1.7
			c-0.1-0.5-0.3-1.1-0.4-1.6h0c-0.1,0.5-0.2,1.1-0.4,1.6l-0.5,1.7H415.3z"/>
	</g>
	<g class="st1">
		<path class="st5" d="M426.3,217.4c0-1-0.1-2.1-0.1-3.3h0c-0.3,1-0.6,2.2-0.9,3.1l-1,3.2h-1.4l-0.9-3.1c-0.3-0.9-0.5-2.1-0.7-3.2h0
			c0,1.1-0.1,2.3-0.1,3.3l-0.1,3.1h-1.7l0.5-8.1h2.4l0.8,2.7c0.3,0.9,0.5,1.9,0.7,2.9h0c0.2-0.9,0.5-2,0.8-2.9l0.9-2.7h2.4l0.4,8.1
			h-1.8L426.3,217.4z"/>
	</g>
	<g class="st1">
		<path class="st5" d="M429.9,212.6c0.5-0.1,1.5-0.2,2.4-0.2c1.1,0,1.8,0.1,2.4,0.5c0.6,0.3,1,0.9,1,1.6c0,0.7-0.4,1.4-1.3,1.7v0
			c0.9,0.3,1.6,0.9,1.6,2c0,0.7-0.3,1.3-0.8,1.7c-0.6,0.5-1.6,0.7-3.2,0.7c-0.9,0-1.6-0.1-2-0.1V212.6z M431.7,215.6h0.6
			c1,0,1.5-0.4,1.5-1c0-0.6-0.5-0.9-1.3-0.9c-0.4,0-0.6,0-0.8,0V215.6z M431.7,219.2c0.2,0,0.4,0,0.7,0c0.8,0,1.6-0.3,1.6-1.2
			c0-0.8-0.7-1.1-1.6-1.1h-0.6V219.2z"/>
		<path class="st5" d="M439.2,212.4v8.1h-1.8v-8.1H439.2z"/>
		<path class="st5" d="M448.4,216.4c0,2.7-1.6,4.3-4,4.3c-2.4,0-3.8-1.8-3.8-4.1c0-2.4,1.5-4.2,3.9-4.2
			C447.1,212.3,448.4,214.2,448.4,216.4z M442.6,216.5c0,1.6,0.7,2.7,2,2.7c1.2,0,1.9-1.2,1.9-2.7c0-1.5-0.7-2.7-2-2.7
			C443.3,213.8,442.6,214.9,442.6,216.5z"/>
	</g>
	<g class="st1">
		<path class="st5" d="M458.5,220.3c-0.3,0.2-1.1,0.3-2.1,0.3c-2.8,0-4.2-1.7-4.2-4c0-2.8,2-4.3,4.4-4.3c0.9,0,1.7,0.2,2,0.4
			l-0.4,1.5c-0.4-0.2-0.9-0.3-1.5-0.3c-1.5,0-2.6,0.9-2.6,2.7c0,1.6,1,2.6,2.6,2.6c0.6,0,1.2-0.1,1.5-0.3L458.5,220.3z"/>
	</g>
	<g class="st1">
		<path class="st5" d="M459.8,212.4h1.8v6.5h3.2v1.5h-5V212.4z"/>
	</g>
	<g class="st1">
		<path class="st5" d="M467.9,212.4v8.1h-1.8v-8.1H467.9z"/>
		<path class="st5" d="M476.6,217.4c0-1-0.1-2.1-0.1-3.3h0c-0.3,1-0.6,2.2-0.9,3.1l-1,3.2h-1.4l-0.9-3.1c-0.3-0.9-0.5-2.1-0.7-3.2h0
			c0,1.1-0.1,2.3-0.1,3.3l-0.1,3.1h-1.7l0.5-8.1h2.4l0.8,2.7c0.3,0.9,0.5,1.9,0.7,2.9h0c0.2-0.9,0.5-2,0.8-2.9l0.9-2.7h2.4l0.4,8.1
			h-1.8L476.6,217.4z"/>
	</g>
	<g class="st1">
		<path class="st5" d="M482,218.5l-0.6,2.1h-1.9l2.5-8.1h2.4l2.5,8.1h-2l-0.6-2.1H482z M484.1,217.1l-0.5-1.7
			c-0.1-0.5-0.3-1.1-0.4-1.6h0c-0.1,0.5-0.2,1.1-0.4,1.6l-0.5,1.7H484.1z M485.3,210.5l-1.5,1.5h-1.5l1-1.5H485.3z"/>
	</g>
	<g class="st1">
		<path class="st5" d="M489,214h-2.2v-1.5h6.2v1.5h-2.2v6.5H489V214z"/>
	</g>
	<g class="st1">
		<path class="st5" d="M496,212.4v8.1h-1.8v-8.1H496z"/>
	</g>
	<g class="st1">
		<path class="st5" d="M503.8,220.3c-0.3,0.2-1.1,0.3-2.1,0.3c-2.8,0-4.2-1.7-4.2-4c0-2.8,2-4.3,4.4-4.3c0.9,0,1.7,0.2,2,0.4
			l-0.4,1.5c-0.4-0.2-0.9-0.3-1.5-0.3c-1.5,0-2.6,0.9-2.6,2.7c0,1.6,1,2.6,2.6,2.6c0.6,0,1.2-0.1,1.5-0.3L503.8,220.3z"/>
	</g>
	<g class="st1">
		<path class="st5" d="M512.4,216.4c0,2.7-1.6,4.3-4,4.3c-2.4,0-3.8-1.8-3.8-4.1c0-2.4,1.5-4.2,3.9-4.2
			C511,212.3,512.4,214.2,512.4,216.4z M506.5,216.5c0,1.6,0.7,2.7,2,2.7c1.2,0,1.9-1.2,1.9-2.7c0-1.5-0.7-2.7-2-2.7
			C507.2,213.8,506.5,214.9,506.5,216.5z"/>
	</g>
	<g class="st1">
		<path class="st5" d="M425.4,268c-0.3,0.2-1.1,0.3-2.1,0.3c-2.8,0-4.2-1.7-4.2-4c0-2.8,2-4.3,4.4-4.3c0.9,0,1.7,0.2,2,0.4l-0.4,1.5
			c-0.4-0.2-0.9-0.3-1.5-0.3c-1.5,0-2.6,0.9-2.6,2.7c0,1.6,1,2.6,2.6,2.6c0.6,0,1.2-0.1,1.5-0.3L425.4,268z"/>
	</g>
	<g class="st1">
		<path class="st5" d="M433.9,264.1c0,2.7-1.6,4.3-4,4.3c-2.4,0-3.8-1.8-3.8-4.1c0-2.4,1.5-4.2,3.9-4.2
			C432.6,260,433.9,261.8,433.9,264.1z M428.1,264.2c0,1.6,0.7,2.7,2,2.7c1.2,0,1.9-1.2,1.9-2.7c0-1.5-0.7-2.7-2-2.7
			C428.8,261.4,428.1,262.6,428.1,264.2z"/>
	</g>
	<g class="st1">
		<path class="st5" d="M435.4,268.2v-8.1h2.1l1.7,3c0.5,0.9,1,1.9,1.3,2.8h0c-0.1-1.1-0.2-2.2-0.2-3.4v-2.4h1.7v8.1h-1.9l-1.7-3.1
			c-0.5-0.9-1-1.9-1.4-2.9l0,0c0,1.1,0.1,2.2,0.1,3.5v2.4H435.4z"/>
	</g>
	<g class="st1">
		<path class="st5" d="M445.4,261.7h-2.2v-1.5h6.2v1.5h-2.2v6.5h-1.8V261.7z"/>
	</g>
	<g class="st1">
		<path class="st5" d="M450.6,260.2c0.6-0.1,1.5-0.2,2.4-0.2c1.2,0,2,0.2,2.6,0.6c0.5,0.4,0.7,0.9,0.7,1.7c0,1-0.7,1.7-1.4,2v0
			c0.6,0.2,0.9,0.8,1.1,1.5c0.3,0.9,0.5,2,0.7,2.3h-1.9c-0.1-0.2-0.3-0.9-0.6-1.9c-0.2-1-0.6-1.3-1.3-1.3h-0.6v3.2h-1.8V260.2z
			 M452.4,263.7h0.7c0.9,0,1.5-0.5,1.5-1.2c0-0.7-0.5-1.1-1.3-1.1c-0.4,0-0.7,0-0.8,0.1V263.7z"/>
	</g>
	<g class="st1">
		<path class="st5" d="M459.8,260.1v8.1H458v-8.1H459.8z"/>
	</g>
	<g class="st1">
		<path class="st5" d="M461.7,260.2c0.5-0.1,1.5-0.2,2.4-0.2c1.1,0,1.8,0.1,2.4,0.5c0.6,0.3,1,0.9,1,1.6c0,0.7-0.4,1.4-1.3,1.7v0
			c0.9,0.3,1.6,0.9,1.6,2c0,0.7-0.3,1.3-0.8,1.7c-0.6,0.5-1.6,0.7-3.2,0.7c-0.9,0-1.6-0.1-2-0.1V260.2z M463.5,263.3h0.6
			c1,0,1.5-0.4,1.5-1c0-0.6-0.5-0.9-1.3-0.9c-0.4,0-0.6,0-0.8,0V263.3z M463.5,266.9c0.2,0,0.4,0,0.7,0c0.8,0,1.6-0.3,1.6-1.2
			c0-0.8-0.7-1.1-1.6-1.1h-0.6V266.9z"/>
	</g>
	<g class="st1">
		<path class="st5" d="M470.9,260.1v4.7c0,1.4,0.5,2.1,1.5,2.1c1,0,1.5-0.7,1.5-2.1v-4.7h1.8v4.5c0,2.5-1.3,3.7-3.4,3.7
			c-2,0-3.2-1.1-3.2-3.7v-4.5H470.9z"/>
		<path class="st5" d="M479.3,260.1v8.1h-1.8v-8.1H479.3z"/>
	</g>
	<g class="st1">
		<path class="st5" d="M481.2,260.2c0.6-0.1,1.5-0.2,2.4-0.2c1.2,0,2,0.2,2.6,0.6c0.5,0.4,0.7,0.9,0.7,1.7c0,1-0.7,1.7-1.4,2v0
			c0.6,0.2,0.9,0.8,1.1,1.5c0.3,0.9,0.5,2,0.7,2.3h-1.9c-0.1-0.2-0.3-0.9-0.6-1.9c-0.2-1-0.6-1.3-1.3-1.3H483v3.2h-1.8V260.2z
			 M483,263.7h0.7c0.9,0,1.5-0.5,1.5-1.2c0-0.7-0.5-1.1-1.3-1.1c-0.4,0-0.7,0-0.8,0.1V263.7z"/>
		<path class="st5" d="M493.1,266.1l-0.6,2.1h-1.9l2.5-8.1h2.4l2.5,8.1h-2l-0.6-2.1H493.1z M495.1,264.8l-0.5-1.7
			c-0.1-0.5-0.3-1.1-0.4-1.6h0c-0.1,0.5-0.2,1.1-0.4,1.6l-0.5,1.7H495.1z"/>
	</g>
	<g class="st1">
		<path class="st5" d="M507.9,268c-0.3,0.2-1.1,0.3-2.1,0.3c-2.8,0-4.2-1.7-4.2-4c0-2.8,2-4.3,4.4-4.3c0.9,0,1.7,0.2,2,0.4l-0.4,1.5
			c-0.4-0.2-0.9-0.3-1.5-0.3c-1.5,0-2.6,0.9-2.6,2.7c0,1.6,1,2.6,2.6,2.6c0.6,0,1.2-0.1,1.5-0.3L507.9,268z"/>
	</g>
	<g class="st1">
		<path class="st5" d="M509.2,260.2c0.6-0.1,1.5-0.2,2.4-0.2c1.2,0,2,0.2,2.6,0.6c0.5,0.4,0.7,0.9,0.7,1.7c0,1-0.7,1.7-1.4,2v0
			c0.6,0.2,0.9,0.8,1.1,1.5c0.3,0.9,0.5,2,0.7,2.3h-1.9c-0.1-0.2-0.3-0.9-0.6-1.9c-0.2-1-0.6-1.3-1.3-1.3h-0.6v3.2h-1.8V260.2z
			 M511.1,263.7h0.7c0.9,0,1.5-0.5,1.5-1.2c0-0.7-0.5-1.1-1.3-1.1c-0.4,0-0.7,0-0.8,0.1V263.7z"/>
	</g>
	<g class="st1">
		<path class="st5" d="M521.5,264.8h-3v1.9h3.3v1.5h-5.2v-8.1h5v1.5h-3.2v1.7h3V264.8z"/>
	</g>
	<g class="st1">
		<path class="st5" d="M525.3,266.1l-0.6,2.1h-1.9l2.5-8.1h2.4l2.5,8.1h-2l-0.6-2.1H525.3z M527.3,264.8l-0.5-1.7
			c-0.1-0.5-0.3-1.1-0.4-1.6h0c-0.1,0.5-0.2,1.1-0.4,1.6l-0.5,1.7H527.3z"/>
	</g>
	<g class="st1">
		<path class="st5" d="M531.4,260.2c0.6-0.1,1.5-0.2,2.4-0.2c1.2,0,2,0.2,2.6,0.6c0.5,0.4,0.7,0.9,0.7,1.7c0,1-0.7,1.7-1.4,2v0
			c0.6,0.2,0.9,0.8,1.1,1.5c0.3,0.9,0.5,2,0.7,2.3h-1.9c-0.1-0.2-0.3-0.9-0.6-1.9c-0.2-1-0.6-1.3-1.3-1.3h-0.6v3.2h-1.8V260.2z
			 M533.2,263.7h0.7c0.9,0,1.5-0.5,1.5-1.2c0-0.7-0.5-1.1-1.3-1.1c-0.4,0-0.7,0-0.8,0.1V263.7z"/>
		<path class="st5" d="M543.2,260.1v4.7c0,1.4,0.5,2.1,1.5,2.1c1,0,1.5-0.7,1.5-2.1v-4.7h1.8v4.5c0,2.5-1.3,3.7-3.4,3.7
			c-2,0-3.2-1.1-3.2-3.7v-4.5H543.2z"/>
	</g>
	<g class="st1">
		<path class="st5" d="M549.8,268.2v-8.1h2.1l1.7,3c0.5,0.9,1,1.9,1.3,2.8h0c-0.1-1.1-0.2-2.2-0.2-3.4v-2.4h1.7v8.1h-1.9l-1.7-3.1
			c-0.5-0.9-1-1.9-1.4-2.9l0,0c0,1.1,0.1,2.2,0.1,3.5v2.4H549.8z"/>
	</g>
	<g class="st1">
		<path class="st5" d="M560.1,266.1l-0.6,2.1h-1.9l2.5-8.1h2.4l2.5,8.1h-2l-0.6-2.1H560.1z M562.2,264.8l-0.5-1.7
			c-0.1-0.5-0.3-1.1-0.4-1.6h0c-0.1,0.5-0.2,1.1-0.4,1.6l-0.5,1.7H562.2z"/>
	</g>
	<g class="st1">
		<path class="st5" d="M450.7,279h-3v1.9h3.3v1.5h-5.2v-8.1h5v1.5h-3.2v1.7h3V279z"/>
	</g>
	<g class="st1">
		<path class="st5" d="M458.4,282.2c-0.3,0.2-1.1,0.3-2.1,0.3c-2.8,0-4.2-1.7-4.2-4c0-2.8,2-4.3,4.4-4.3c0.9,0,1.7,0.2,2,0.4
			l-0.4,1.5c-0.4-0.2-0.9-0.3-1.5-0.3c-1.5,0-2.6,0.9-2.6,2.7c0,1.6,1,2.6,2.6,2.6c0.6,0,1.2-0.1,1.5-0.3L458.4,282.2z"/>
	</g>
	<g class="st1">
		<path class="st5" d="M467,278.3c0,2.7-1.6,4.3-4,4.3c-2.4,0-3.8-1.8-3.8-4.1c0-2.4,1.5-4.2,3.9-4.2
			C465.6,274.2,467,276.1,467,278.3z M461.2,278.4c0,1.6,0.7,2.7,2,2.7c1.2,0,1.9-1.2,1.9-2.7c0-1.5-0.7-2.7-2-2.7
			C461.9,275.7,461.2,276.8,461.2,278.4z"/>
	</g>
	<g class="st1">
		<path class="st5" d="M468.5,282.4v-8.1h2.1l1.7,3c0.5,0.9,1,1.9,1.3,2.8h0c-0.1-1.1-0.2-2.2-0.2-3.4v-2.4h1.7v8.1h-1.9l-1.7-3.1
			c-0.5-0.9-1-1.9-1.4-2.9l0,0c0,1.1,0.1,2.2,0.1,3.5v2.4H468.5z"/>
	</g>
	<g class="st1">
		<path class="st5" d="M484.4,278.3c0,2.7-1.6,4.3-4,4.3c-2.4,0-3.8-1.8-3.8-4.1c0-2.4,1.5-4.2,3.9-4.2
			C483,274.2,484.4,276.1,484.4,278.3z M478.6,278.4c0,1.6,0.7,2.7,2,2.7c1.2,0,1.9-1.2,1.9-2.7c0-1.5-0.7-2.7-2-2.7
			C479.3,275.7,478.6,276.8,478.6,278.4z"/>
	</g>
	<g class="st1">
		<path class="st5" d="M492.6,279.3c0-1-0.1-2.1-0.1-3.3h0c-0.3,1-0.6,2.2-0.9,3.1l-1,3.2h-1.4l-0.9-3.1c-0.3-0.9-0.5-2.1-0.7-3.2h0
			c0,1.1-0.1,2.3-0.1,3.3l-0.1,3.1h-1.7l0.5-8.1h2.4l0.8,2.7c0.3,0.9,0.5,1.9,0.7,2.9h0c0.2-0.9,0.5-2,0.8-2.9l0.9-2.7h2.4l0.4,8.1
			h-1.8L492.6,279.3z"/>
	</g>
	<g class="st1">
		<path class="st5" d="M498.1,274.3v8.1h-1.8v-8.1H498.1z M499.2,272.4l-1.5,1.5h-1.5l1-1.5H499.2z"/>
	</g>
	<g class="st1">
		<path class="st5" d="M501.7,280.4l-0.6,2.1h-1.9l2.5-8.1h2.4l2.5,8.1h-2l-0.6-2.1H501.7z M503.7,279l-0.5-1.7
			c-0.1-0.5-0.3-1.1-0.4-1.6h0c-0.1,0.5-0.2,1.1-0.4,1.6l-0.5,1.7H503.7z"/>
	</g>
	<g class="st1">
		<path class="st5" d="M516.5,282.2c-0.3,0.2-1.1,0.3-2.1,0.3c-2.8,0-4.2-1.7-4.2-4c0-2.8,2-4.3,4.4-4.3c0.9,0,1.7,0.2,2,0.4
			l-0.4,1.5c-0.4-0.2-0.9-0.3-1.5-0.3c-1.5,0-2.6,0.9-2.6,2.7c0,1.6,1,2.6,2.6,2.6c0.6,0,1.2-0.1,1.5-0.3L516.5,282.2z"/>
	</g>
	<g class="st1">
		<path class="st5" d="M519.7,274.3v8.1h-1.8v-8.1H519.7z"/>
	</g>
	<g class="st1">
		<path class="st5" d="M521.5,274.5c0.6-0.1,1.5-0.2,2.4-0.2c1.2,0,2,0.2,2.6,0.6c0.5,0.4,0.7,0.9,0.7,1.7c0,1-0.7,1.7-1.4,2v0
			c0.6,0.2,0.9,0.8,1.1,1.5c0.3,0.9,0.5,2,0.7,2.3h-1.9c-0.1-0.2-0.3-0.9-0.6-1.9c-0.2-1-0.6-1.3-1.3-1.3h-0.6v3.2h-1.8V274.5z
			 M523.3,277.9h0.7c0.9,0,1.5-0.5,1.5-1.2c0-0.7-0.5-1.1-1.3-1.1c-0.4,0-0.7,0-0.8,0.1V277.9z"/>
	</g>
	<g class="st1">
		<path class="st5" d="M534.7,282.2c-0.3,0.2-1.1,0.3-2.1,0.3c-2.8,0-4.2-1.7-4.2-4c0-2.8,2-4.3,4.4-4.3c0.9,0,1.7,0.2,2,0.4
			l-0.4,1.5c-0.4-0.2-0.9-0.3-1.5-0.3c-1.5,0-2.6,0.9-2.6,2.7c0,1.6,1,2.6,2.6,2.6c0.6,0,1.2-0.1,1.5-0.3L534.7,282.2z"/>
	</g>
	<g class="st1">
		<path class="st5" d="M537.9,274.3v4.7c0,1.4,0.5,2.1,1.5,2.1c1,0,1.5-0.7,1.5-2.1v-4.7h1.8v4.5c0,2.5-1.3,3.7-3.4,3.7
			c-2,0-3.2-1.1-3.2-3.7v-4.5H537.9z"/>
	</g>
	<g class="st1">
		<path class="st5" d="M544.5,274.3h1.8v6.5h3.2v1.5h-5V274.3z"/>
	</g>
	<g class="st1">
		<path class="st5" d="M552.9,280.4l-0.6,2.1h-1.9l2.5-8.1h2.4l2.5,8.1h-2l-0.6-2.1H552.9z M554.9,279l-0.5-1.7
			c-0.1-0.5-0.3-1.1-0.4-1.6h0c-0.1,0.5-0.2,1.1-0.4,1.6l-0.5,1.7H554.9z"/>
	</g>
	<g class="st1">
		<path class="st5" d="M559,274.5c0.6-0.1,1.5-0.2,2.4-0.2c1.2,0,2,0.2,2.6,0.6c0.5,0.4,0.7,0.9,0.7,1.7c0,1-0.7,1.7-1.4,2v0
			c0.6,0.2,0.9,0.8,1.1,1.5c0.3,0.9,0.5,2,0.7,2.3h-1.9c-0.1-0.2-0.3-0.9-0.6-1.9c-0.2-1-0.6-1.3-1.3-1.3h-0.6v3.2H559V274.5z
			 M560.8,277.9h0.7c0.9,0,1.5-0.5,1.5-1.2c0-0.7-0.5-1.1-1.3-1.1c-0.4,0-0.7,0-0.8,0.1V277.9z"/>
	</g>
	<g class="st1">
		<path class="st5" d="M495.2,341.7l-0.6,2.1h-1.9l2.5-8.1h2.4l2.5,8.1h-2l-0.6-2.1H495.2z M497.3,340.3l-0.5-1.7
			c-0.1-0.5-0.3-1.1-0.4-1.6h0c-0.1,0.5-0.2,1.1-0.4,1.6l-0.5,1.7H497.3z"/>
	</g>
	<g class="st1">
		<path class="st5" d="M501.3,335.8c0.5-0.1,1.5-0.2,2.4-0.2c1.1,0,1.8,0.1,2.4,0.5c0.6,0.3,1,0.9,1,1.6c0,0.7-0.4,1.4-1.3,1.7v0
			c0.9,0.3,1.6,0.9,1.6,2c0,0.7-0.3,1.3-0.8,1.7c-0.6,0.5-1.6,0.7-3.2,0.7c-0.9,0-1.6-0.1-2-0.1V335.8z M503.1,338.9h0.6
			c1,0,1.5-0.4,1.5-1c0-0.6-0.5-0.9-1.3-0.9c-0.4,0-0.6,0-0.8,0V338.9z M503.1,342.5c0.2,0,0.4,0,0.7,0c0.8,0,1.6-0.3,1.6-1.2
			c0-0.8-0.7-1.1-1.6-1.1h-0.6V342.5z"/>
	</g>
	<g class="st1">
		<path class="st5" d="M510.5,341.7l-0.6,2.1H508l2.5-8.1h2.4l2.5,8.1h-2l-0.6-2.1H510.5z M512.5,340.3l-0.5-1.7
			c-0.1-0.5-0.3-1.1-0.4-1.6h0c-0.1,0.5-0.2,1.1-0.4,1.6l-0.5,1.7H512.5z"/>
	</g>
	<g class="st1">
		<path class="st5" d="M516.8,341.9c0.5,0.3,1.2,0.5,2,0.5c0.8,0,1.3-0.3,1.3-0.9c0-0.5-0.4-0.8-1.4-1.1c-1.3-0.5-2.2-1.2-2.2-2.4
			c0-1.4,1.2-2.4,3.1-2.4c0.9,0,1.6,0.2,2.1,0.4l-0.4,1.5c-0.3-0.2-0.9-0.4-1.7-0.4c-0.8,0-1.2,0.4-1.2,0.8c0,0.5,0.5,0.7,1.5,1.1
			c1.4,0.5,2.1,1.3,2.1,2.4c0,1.4-1,2.5-3.3,2.5c-0.9,0-1.8-0.2-2.3-0.5L516.8,341.9z"/>
	</g>
	<g class="st1">
		<path class="st5" d="M524.9,337.2h-2.2v-1.5h6.2v1.5h-2.2v6.5h-1.8V337.2z"/>
	</g>
	<g class="st1">
		<path class="st5" d="M534.9,340.4h-3v1.9h3.3v1.5h-5.2v-8.1h5v1.5H532v1.7h3V340.4z"/>
	</g>
	<g class="st1">
		<path class="st5" d="M542.6,343.6c-0.3,0.2-1.1,0.3-2.1,0.3c-2.8,0-4.2-1.7-4.2-4c0-2.8,2-4.3,4.4-4.3c0.9,0,1.7,0.2,2,0.4
			l-0.4,1.5c-0.4-0.2-0.9-0.3-1.5-0.3c-1.5,0-2.6,0.9-2.6,2.7c0,1.6,1,2.6,2.6,2.6c0.6,0,1.2-0.1,1.5-0.3L542.6,343.6z"/>
	</g>
	<g class="st1">
		<path class="st5" d="M545.8,335.7v8.1H544v-8.1H545.8z"/>
	</g>
	<g class="st1">
		<path class="st5" d="M554.5,340.7c0-1-0.1-2.1-0.1-3.3h0c-0.3,1-0.6,2.2-0.9,3.1l-1,3.2h-1.4l-0.9-3.1c-0.3-0.9-0.5-2.1-0.7-3.2h0
			c0,1.1-0.1,2.3-0.1,3.3l-0.1,3.1h-1.7l0.5-8.1h2.4l0.8,2.7c0.3,0.9,0.5,1.9,0.7,2.9h0c0.2-0.9,0.5-2,0.8-2.9l0.9-2.7h2.4l0.4,8.1
			h-1.8L554.5,340.7z"/>
	</g>
	<g class="st1">
		<path class="st5" d="M559.9,335.7v8.1h-1.8v-8.1H559.9z"/>
	</g>
	<g class="st1">
		<path class="st5" d="M566.6,340.4h-3v1.9h3.3v1.5h-5.2v-8.1h5v1.5h-3.2v1.7h3V340.4z"/>
	</g>
	<g class="st1">
		<path class="st5" d="M568.5,343.8v-8.1h2.1l1.7,3c0.5,0.9,1,1.9,1.3,2.8h0c-0.1-1.1-0.2-2.2-0.2-3.4v-2.4h1.7v8.1h-1.9l-1.7-3.1
			c-0.5-0.9-1-1.9-1.4-2.9l0,0c0,1.1,0.1,2.2,0.1,3.5v2.4H568.5z"/>
	</g>
	<g class="st1">
		<path class="st5" d="M578.5,337.2h-2.2v-1.5h6.2v1.5h-2.2v6.5h-1.8V337.2z"/>
	</g>
	<g class="st1">
		<path class="st5" d="M591,339.7c0,2.7-1.6,4.3-4,4.3c-2.4,0-3.8-1.8-3.8-4.1c0-2.4,1.5-4.2,3.9-4.2
			C589.6,335.6,591,337.4,591,339.7z M585.1,339.8c0,1.6,0.7,2.7,2,2.7c1.2,0,1.9-1.2,1.9-2.7c0-1.5-0.7-2.7-2-2.7
			C585.9,337,585.1,338.2,585.1,339.8z"/>
	</g>
	<g class="st1">
		<path class="st5" d="M514.6,356.1c0.5,0.3,1.2,0.5,2,0.5c0.8,0,1.3-0.3,1.3-0.9c0-0.5-0.4-0.8-1.4-1.1c-1.3-0.5-2.2-1.2-2.2-2.4
			c0-1.4,1.2-2.4,3.1-2.4c0.9,0,1.6,0.2,2.1,0.4l-0.4,1.5c-0.3-0.2-0.9-0.4-1.7-0.4c-0.8,0-1.2,0.4-1.2,0.8c0,0.5,0.5,0.7,1.5,1.1
			c1.4,0.5,2.1,1.3,2.1,2.4c0,1.4-1,2.5-3.3,2.5c-0.9,0-1.8-0.2-2.3-0.5L514.6,356.1z"/>
	</g>
	<g class="st1">
		<path class="st5" d="M523,349.9v4.7c0,1.4,0.5,2.1,1.5,2.1c1,0,1.5-0.7,1.5-2.1v-4.7h1.8v4.5c0,2.5-1.3,3.7-3.4,3.7
			c-2,0-3.2-1.1-3.2-3.7v-4.5H523z"/>
	</g>
	<g class="st1">
		<path class="st5" d="M529.5,356.1c0.5,0.3,1.2,0.5,2,0.5c0.8,0,1.3-0.3,1.3-0.9c0-0.5-0.4-0.8-1.4-1.1c-1.3-0.5-2.2-1.2-2.2-2.4
			c0-1.4,1.2-2.4,3.1-2.4c0.9,0,1.6,0.2,2.1,0.4l-0.4,1.5c-0.3-0.2-0.9-0.4-1.7-0.4c-0.8,0-1.2,0.4-1.2,0.8c0,0.5,0.5,0.7,1.5,1.1
			c1.4,0.5,2.1,1.3,2.1,2.4c0,1.4-1,2.5-3.3,2.5c-0.9,0-1.8-0.2-2.3-0.5L529.5,356.1z"/>
	</g>
	<g class="st1">
		<path class="st5" d="M537.7,351.5h-2.2v-1.5h6.2v1.5h-2.2v6.5h-1.8V351.5z"/>
	</g>
	<g class="st1">
		<path class="st5" d="M547.6,354.6h-3v1.9h3.3v1.5h-5.2v-8.1h5v1.5h-3.2v1.7h3V354.6z"/>
	</g>
	<g class="st1">
		<path class="st5" d="M549.6,358v-8.1h2.1l1.7,3c0.5,0.9,1,1.9,1.3,2.8h0c-0.1-1.1-0.2-2.2-0.2-3.4v-2.4h1.7v8.1h-1.9l-1.7-3.1
			c-0.5-0.9-1-1.9-1.4-2.9l0,0c0,1.1,0.1,2.2,0.1,3.5v2.4H549.6z"/>
	</g>
	<g class="st1">
		<path class="st5" d="M559.6,351.5h-2.2v-1.5h6.2v1.5h-2.2v6.5h-1.8V351.5z"/>
	</g>
	<g class="st1">
		<path class="st5" d="M565.9,355.9l-0.6,2.1h-1.9l2.5-8.1h2.4l2.5,8.1h-2l-0.6-2.1H565.9z M568,354.6l-0.5-1.7
			c-0.1-0.5-0.3-1.1-0.4-1.6h0c-0.1,0.5-0.2,1.1-0.4,1.6l-0.5,1.7H568z"/>
	</g>
	<g class="st1">
		<path class="st5" d="M572,350c0.5-0.1,1.5-0.2,2.4-0.2c1.1,0,1.8,0.1,2.4,0.5c0.6,0.3,1,0.9,1,1.6c0,0.7-0.4,1.4-1.3,1.7v0
			c0.9,0.3,1.6,0.9,1.6,2c0,0.7-0.3,1.3-0.8,1.7c-0.6,0.5-1.6,0.7-3.2,0.7c-0.9,0-1.6-0.1-2-0.1V350z M573.9,353.1h0.6
			c1,0,1.5-0.4,1.5-1c0-0.6-0.5-0.9-1.3-0.9c-0.4,0-0.6,0-0.8,0V353.1z M573.9,356.7c0.2,0,0.4,0,0.7,0c0.8,0,1.6-0.3,1.6-1.2
			c0-0.8-0.7-1.1-1.6-1.1h-0.6V356.7z"/>
	</g>
	<g class="st1">
		<path class="st5" d="M579.5,349.9h1.8v6.5h3.2v1.5h-5V349.9z"/>
	</g>
	<g class="st1">
		<path class="st5" d="M590.6,354.6h-3v1.9h3.3v1.5h-5.2v-8.1h5v1.5h-3.2v1.7h3V354.6z"/>
	</g>
	<g class="st1">
		<path class="st4" d="M156.6,343.6c-0.3,0.2-1.1,0.3-2.1,0.3c-2.8,0-4.2-1.7-4.2-4c0-2.8,2-4.3,4.4-4.3c0.9,0,1.7,0.2,2,0.4
			l-0.4,1.5c-0.4-0.2-0.9-0.3-1.5-0.3c-1.5,0-2.6,0.9-2.6,2.7c0,1.6,1,2.6,2.6,2.6c0.6,0,1.2-0.1,1.5-0.3L156.6,343.6z"/>
	</g>
	<g class="st1">
		<path class="st4" d="M165.1,339.7c0,2.7-1.6,4.3-4,4.3c-2.4,0-3.8-1.8-3.8-4.1c0-2.4,1.5-4.2,3.9-4.2
			C163.8,335.6,165.1,337.4,165.1,339.7z M159.3,339.8c0,1.6,0.7,2.7,2,2.7c1.2,0,1.9-1.2,1.9-2.7c0-1.5-0.7-2.7-2-2.7
			C160,337,159.3,338.2,159.3,339.8z"/>
	</g>
	<g class="st1">
		<path class="st4" d="M173.4,340.7c0-1-0.1-2.1-0.1-3.3h0c-0.3,1-0.6,2.2-0.9,3.1l-1,3.2h-1.4l-0.9-3.1c-0.3-0.9-0.5-2.1-0.7-3.2h0
			c0,1.1-0.1,2.3-0.1,3.3l-0.1,3.1h-1.7l0.5-8.1h2.4l0.8,2.7c0.3,0.9,0.5,1.9,0.7,2.9h0c0.2-0.9,0.5-2,0.8-2.9l0.9-2.7h2.4l0.4,8.1
			h-1.8L173.4,340.7z"/>
	</g>
	<g class="st1">
		<path class="st4" d="M177,335.8c0.6-0.1,1.4-0.2,2.5-0.2c1.1,0,1.9,0.2,2.5,0.6c0.5,0.4,0.9,1.1,0.9,1.9c0,0.8-0.3,1.5-0.7,1.9
			c-0.6,0.6-1.5,0.9-2.6,0.9c-0.2,0-0.5,0-0.6,0v2.9H177V335.8z M178.8,339.5c0.2,0,0.3,0,0.6,0c1,0,1.6-0.5,1.6-1.3
			c0-0.7-0.5-1.2-1.4-1.2c-0.4,0-0.6,0-0.8,0.1V339.5z"/>
	</g>
	<g class="st1">
		<path class="st4" d="M184,335.8c0.6-0.1,1.5-0.2,2.4-0.2c1.2,0,2,0.2,2.6,0.6c0.5,0.4,0.7,0.9,0.7,1.7c0,1-0.7,1.7-1.4,2v0
			c0.6,0.2,0.9,0.8,1.1,1.5c0.3,0.9,0.5,2,0.7,2.3h-1.9c-0.1-0.2-0.3-0.9-0.6-1.9c-0.2-1-0.6-1.3-1.3-1.3h-0.6v3.2H184V335.8z
			 M185.8,339.3h0.7c0.9,0,1.5-0.5,1.5-1.2c0-0.7-0.5-1.1-1.3-1.1c-0.4,0-0.7,0-0.8,0.1V339.3z"/>
	</g>
	<g class="st1">
		<path class="st4" d="M198.7,339.7c0,2.7-1.6,4.3-4,4.3c-2.4,0-3.8-1.8-3.8-4.1c0-2.4,1.5-4.2,3.9-4.2
			C197.3,335.6,198.7,337.4,198.7,339.7z M192.8,339.8c0,1.6,0.7,2.7,2,2.7c1.2,0,1.9-1.2,1.9-2.7c0-1.5-0.7-2.7-2-2.7
			C193.6,337,192.8,338.2,192.8,339.8z"/>
	</g>
	<g class="st1">
		<path class="st4" d="M206.9,340.7c0-1-0.1-2.1-0.1-3.3h0c-0.3,1-0.6,2.2-0.9,3.1l-1,3.2h-1.4l-0.9-3.1c-0.3-0.9-0.5-2.1-0.7-3.2h0
			c0,1.1-0.1,2.3-0.1,3.3l-0.1,3.1h-1.7l0.5-8.1h2.4l0.8,2.7c0.3,0.9,0.5,1.9,0.7,2.9h0c0.2-0.9,0.5-2,0.8-2.9l0.9-2.7h2.4l0.4,8.1
			H207L206.9,340.7z"/>
	</g>
	<g class="st1">
		<path class="st4" d="M212.4,335.7v8.1h-1.8v-8.1H212.4z"/>
	</g>
	<g class="st1">
		<path class="st4" d="M214.2,341.9c0.5,0.3,1.2,0.5,2,0.5c0.8,0,1.3-0.3,1.3-0.9c0-0.5-0.4-0.8-1.4-1.1c-1.3-0.5-2.2-1.2-2.2-2.4
			c0-1.4,1.2-2.4,3.1-2.4c0.9,0,1.6,0.2,2.1,0.4l-0.4,1.5c-0.3-0.2-0.9-0.4-1.7-0.4s-1.2,0.4-1.2,0.8c0,0.5,0.5,0.7,1.5,1.1
			c1.4,0.5,2.1,1.3,2.1,2.4c0,1.4-1,2.5-3.3,2.5c-0.9,0-1.8-0.2-2.3-0.5L214.2,341.9z"/>
	</g>
	<g class="st1">
		<path class="st4" d="M228.2,339.7c0,2.7-1.6,4.3-4,4.3c-2.4,0-3.8-1.8-3.8-4.1c0-2.4,1.5-4.2,3.9-4.2
			C226.8,335.6,228.2,337.4,228.2,339.7z M222.3,339.8c0,1.6,0.7,2.7,2,2.7c1.2,0,1.9-1.2,1.9-2.7c0-1.5-0.7-2.7-2-2.7
			C223.1,337,222.3,338.2,222.3,339.8z"/>
	</g>
	<g class="st1">
		<path class="st4" d="M238.2,343.6c-0.3,0.2-1.1,0.3-2.1,0.3c-2.8,0-4.2-1.7-4.2-4c0-2.8,2-4.3,4.4-4.3c0.9,0,1.7,0.2,2,0.4
			l-0.4,1.5c-0.4-0.2-0.9-0.3-1.5-0.3c-1.5,0-2.6,0.9-2.6,2.7c0,1.6,1,2.6,2.6,2.6c0.6,0,1.2-0.1,1.5-0.3L238.2,343.6z"/>
	</g>
	<g class="st1">
		<path class="st4" d="M246.8,339.7c0,2.7-1.6,4.3-4,4.3c-2.4,0-3.8-1.8-3.8-4.1c0-2.4,1.5-4.2,3.9-4.2
			C245.4,335.6,246.8,337.4,246.8,339.7z M241,339.8c0,1.6,0.7,2.7,2,2.7c1.2,0,1.9-1.2,1.9-2.7c0-1.5-0.7-2.7-2-2.7
			C241.7,337,241,338.2,241,339.8z"/>
	</g>
	<g class="st1">
		<path class="st4" d="M248.3,343.8v-8.1h2.1l1.7,3c0.5,0.9,1,1.9,1.3,2.8h0c-0.1-1.1-0.2-2.2-0.2-3.4v-2.4h1.7v8.1H253l-1.7-3.1
			c-0.5-0.9-1-1.9-1.4-2.9l0,0c0,1.1,0.1,2.2,0.1,3.5v2.4H248.3z"/>
	</g>
	<g class="st1">
		<path class="st4" d="M150.6,349.9h1.8v6.5h3.2v1.5h-5V349.9z"/>
	</g>
	<g class="st1">
		<path class="st4" d="M159,355.9l-0.6,2.1h-1.9l2.5-8.1h2.4l2.5,8.1h-2l-0.6-2.1H159z M161.1,354.6l-0.5-1.7
			c-0.1-0.5-0.3-1.1-0.4-1.6h0c-0.1,0.5-0.2,1.1-0.4,1.6l-0.5,1.7H161.1z"/>
		<path class="st4" d="M165.3,356.1c0.5,0.3,1.2,0.5,2,0.5c0.8,0,1.3-0.3,1.3-0.9c0-0.5-0.4-0.8-1.4-1.1c-1.3-0.5-2.2-1.2-2.2-2.4
			c0-1.4,1.2-2.4,3.1-2.4c0.9,0,1.6,0.2,2.1,0.4l-0.4,1.5c-0.3-0.2-0.9-0.4-1.7-0.4s-1.2,0.4-1.2,0.8c0,0.5,0.5,0.7,1.5,1.1
			c1.4,0.5,2.1,1.3,2.1,2.4c0,1.4-1,2.5-3.3,2.5c-0.9,0-1.8-0.2-2.3-0.5L165.3,356.1z"/>
	</g>
	<g class="st1">
		<path class="st4" d="M180.6,357.8c-0.3,0.2-1.1,0.3-2.1,0.3c-2.8,0-4.2-1.7-4.2-4c0-2.8,2-4.3,4.4-4.3c0.9,0,1.7,0.2,2,0.4
			l-0.4,1.5c-0.4-0.2-0.9-0.3-1.5-0.3c-1.5,0-2.6,0.9-2.6,2.7c0,1.6,1,2.6,2.6,2.6c0.6,0,1.2-0.1,1.5-0.3L180.6,357.8z"/>
	</g>
	<g class="st1">
		<path class="st4" d="M189.2,353.9c0,2.7-1.6,4.3-4,4.3c-2.4,0-3.8-1.8-3.8-4.1c0-2.4,1.5-4.2,3.9-4.2
			C187.8,349.8,189.2,351.7,189.2,353.9z M183.3,354c0,1.6,0.7,2.7,2,2.7c1.2,0,1.9-1.2,1.9-2.7c0-1.5-0.7-2.7-2-2.7
			C184,351.3,183.3,352.4,183.3,354z"/>
	</g>
	<g class="st1">
		<path class="st4" d="M197.4,354.9c0-1-0.1-2.1-0.1-3.3h0c-0.3,1-0.6,2.2-0.9,3.1l-1,3.2H194l-0.9-3.1c-0.3-0.9-0.5-2.1-0.7-3.2h0
			c0,1.1-0.1,2.3-0.1,3.3l-0.1,3.1h-1.7l0.5-8.1h2.4l0.8,2.7c0.3,0.9,0.5,1.9,0.7,2.9h0c0.2-0.9,0.5-2,0.8-2.9l0.9-2.7h2.4l0.4,8.1
			h-1.8L197.4,354.9z"/>
	</g>
	<g class="st1">
		<path class="st4" d="M202.7,349.9v4.7c0,1.4,0.5,2.1,1.5,2.1c1,0,1.5-0.7,1.5-2.1v-4.7h1.8v4.5c0,2.5-1.3,3.7-3.4,3.7
			c-2,0-3.2-1.1-3.2-3.7v-4.5H202.7z"/>
	</g>
	<g class="st1">
		<path class="st4" d="M209.3,358v-8.1h2.1l1.7,3c0.5,0.9,1,1.9,1.3,2.8h0c-0.1-1.1-0.2-2.2-0.2-3.4v-2.4h1.7v8.1h-1.9l-1.7-3.1
			c-0.5-0.9-1-1.9-1.4-2.9l0,0c0,1.1,0.1,2.2,0.1,3.5v2.4H209.3z"/>
	</g>
	<g class="st1">
		<path class="st4" d="M219.7,349.9v8.1h-1.8v-8.1H219.7z"/>
	</g>
	<g class="st1">
		<path class="st4" d="M221.5,350c0.7-0.1,1.5-0.2,2.5-0.2c1.5,0,2.5,0.3,3.3,0.9c0.8,0.6,1.4,1.6,1.4,3c0,1.5-0.6,2.6-1.3,3.3
			c-0.9,0.7-2.1,1-3.7,1c-0.9,0-1.6-0.1-2.1-0.1V350z M223.4,356.6c0.2,0,0.4,0,0.6,0c1.7,0,2.7-0.9,2.7-2.8c0-1.7-1-2.6-2.5-2.6
			c-0.4,0-0.7,0-0.8,0.1V356.6z"/>
	</g>
	<g class="st1">
		<path class="st4" d="M231.7,355.9l-0.6,2.1h-1.9l2.5-8.1h2.4l2.5,8.1h-2l-0.6-2.1H231.7z M233.7,354.6l-0.5-1.7
			c-0.1-0.5-0.3-1.1-0.4-1.6h0c-0.1,0.5-0.2,1.1-0.4,1.6l-0.5,1.7H233.7z"/>
	</g>
	<g class="st1">
		<path class="st4" d="M237.8,350c0.7-0.1,1.5-0.2,2.5-0.2c1.5,0,2.5,0.3,3.3,0.9c0.8,0.6,1.4,1.6,1.4,3c0,1.5-0.6,2.6-1.3,3.3
			c-0.9,0.7-2.1,1-3.7,1c-0.9,0-1.6-0.1-2.1-0.1V350z M239.6,356.6c0.2,0,0.4,0,0.6,0c1.7,0,2.7-0.9,2.7-2.8c0-1.7-1-2.6-2.5-2.6
			c-0.4,0-0.7,0-0.8,0.1V356.6z"/>
	</g>
	<g class="st1">
		<path class="st4" d="M251.2,354.6h-3v1.9h3.3v1.5h-5.2v-8.1h5v1.5h-3.2v1.7h3V354.6z"/>
	</g>
	<g class="st1">
		<path class="st4" d="M253,356.1c0.5,0.3,1.2,0.5,2,0.5c0.8,0,1.3-0.3,1.3-0.9c0-0.5-0.4-0.8-1.4-1.1c-1.3-0.5-2.2-1.2-2.2-2.4
			c0-1.4,1.2-2.4,3.1-2.4c0.9,0,1.6,0.2,2.1,0.4l-0.4,1.5c-0.3-0.2-0.9-0.4-1.7-0.4s-1.2,0.4-1.2,0.8c0,0.5,0.5,0.7,1.5,1.1
			c1.4,0.5,2.1,1.3,2.1,2.4c0,1.4-1,2.5-3.3,2.5c-0.9,0-1.8-0.2-2.3-0.5L253,356.1z"/>
	</g>
	<g class="st1">
		<path class="st4" d="M150.6,364.3c0.7-0.1,1.5-0.2,2.5-0.2c1.5,0,2.5,0.3,3.3,0.9c0.8,0.6,1.4,1.6,1.4,3c0,1.5-0.6,2.6-1.3,3.3
			c-0.9,0.7-2.1,1-3.7,1c-0.9,0-1.6-0.1-2.1-0.1V364.3z M152.5,370.9c0.2,0,0.4,0,0.6,0c1.7,0,2.7-0.9,2.7-2.8c0-1.7-1-2.6-2.5-2.6
			c-0.4,0-0.7,0-0.8,0.1V370.9z"/>
	</g>
	<g class="st1">
		<path class="st4" d="M166.6,368.1c0,2.7-1.6,4.3-4,4.3c-2.4,0-3.8-1.8-3.8-4.1c0-2.4,1.5-4.2,3.9-4.2
			C165.3,364,166.6,365.9,166.6,368.1z M160.8,368.2c0,1.6,0.7,2.7,2,2.7c1.2,0,1.9-1.2,1.9-2.7c0-1.5-0.7-2.7-2-2.7
			C161.5,365.5,160.8,366.7,160.8,368.2z"/>
		<path class="st4" d="M168.1,372.2v-8.1h2.1l1.7,3c0.5,0.9,1,1.9,1.3,2.8h0c-0.1-1.1-0.2-2.2-0.2-3.4v-2.4h1.7v8.1h-1.9l-1.7-3.1
			c-0.5-0.9-1-1.9-1.4-2.9l0,0c0,1.1,0.1,2.2,0.1,3.5v2.4H168.1z"/>
	</g>
	<g class="st1">
		<path class="st4" d="M176.6,364.3c0.7-0.1,1.5-0.2,2.5-0.2c1.5,0,2.5,0.3,3.3,0.9c0.8,0.6,1.4,1.6,1.4,3c0,1.5-0.6,2.6-1.3,3.3
			c-0.9,0.7-2.1,1-3.7,1c-0.9,0-1.6-0.1-2.1-0.1V364.3z M178.5,370.9c0.2,0,0.4,0,0.6,0c1.7,0,2.7-0.9,2.7-2.8c0-1.7-1-2.6-2.5-2.6
			c-0.4,0-0.7,0-0.8,0.1V370.9z"/>
		<path class="st4" d="M190,368.8h-3v1.9h3.3v1.5h-5.2v-8.1h5v1.5h-3.2v1.7h3V368.8z"/>
	</g>
	<g class="st1">
		<path class="st4" d="M201.9,368.1c0,2.7-1.6,4.3-4,4.3c-2.4,0-3.8-1.8-3.8-4.1c0-2.4,1.5-4.2,3.9-4.2
			C200.6,364,201.9,365.9,201.9,368.1z M196.1,368.2c0,1.6,0.7,2.7,2,2.7c1.2,0,1.9-1.2,1.9-2.7c0-1.5-0.7-2.7-2-2.7
			C196.8,365.5,196.1,366.7,196.1,368.2z"/>
	</g>
	<g class="st1">
		<path class="st4" d="M203.4,364.3c0.6-0.1,1.4-0.2,2.5-0.2c1.1,0,1.9,0.2,2.5,0.6c0.5,0.4,0.9,1.1,0.9,1.9c0,0.8-0.3,1.5-0.7,1.9
			c-0.6,0.6-1.5,0.9-2.6,0.9c-0.2,0-0.5,0-0.6,0v2.9h-1.8V364.3z M205.2,367.9c0.2,0,0.3,0,0.6,0c1,0,1.6-0.5,1.6-1.3
			c0-0.7-0.5-1.2-1.4-1.2c-0.4,0-0.6,0-0.8,0.1V367.9z"/>
	</g>
	<g class="st1">
		<path class="st4" d="M215.3,368.8h-3v1.9h3.3v1.5h-5.2v-8.1h5v1.5h-3.2v1.7h3V368.8z"/>
	</g>
	<g class="st1">
		<path class="st4" d="M217.2,364.3c0.6-0.1,1.5-0.2,2.4-0.2c1.2,0,2,0.2,2.6,0.6c0.5,0.4,0.7,0.9,0.7,1.7c0,1-0.7,1.7-1.4,2v0
			c0.6,0.2,0.9,0.8,1.1,1.5c0.3,0.9,0.5,2,0.7,2.3h-1.9c-0.1-0.2-0.3-0.9-0.6-1.9c-0.2-1-0.6-1.3-1.3-1.3H219v3.2h-1.8V364.3z
			 M219,367.8h0.7c0.9,0,1.5-0.5,1.5-1.2c0-0.7-0.5-1.1-1.3-1.1c-0.4,0-0.7,0-0.8,0.1V367.8z"/>
	</g>
	<g class="st1">
		<path class="st4" d="M226.6,370.2l-0.6,2.1h-1.9l2.5-8.1h2.4l2.5,8.1h-2l-0.6-2.1H226.6z M228.7,368.8l-0.5-1.7
			c-0.1-0.5-0.3-1.1-0.4-1.6h0c-0.1,0.5-0.2,1.1-0.4,1.6l-0.5,1.7H228.7z"/>
		<path class="st4" d="M239.7,369.2c0-1-0.1-2.1-0.1-3.3h0c-0.3,1-0.6,2.2-0.9,3.1l-1,3.2h-1.4l-0.9-3.1c-0.3-0.9-0.5-2.1-0.7-3.2h0
			c0,1.1-0.1,2.3-0.1,3.3l-0.1,3.1h-1.7l0.5-8.1h2.4l0.8,2.7c0.3,0.9,0.5,1.9,0.7,2.9h0c0.2-0.9,0.5-2,0.8-2.9l0.9-2.7h2.4l0.4,8.1
			h-1.8L239.7,369.2z"/>
	</g>
	<g class="st1">
		<path class="st4" d="M250.6,368.1c0,2.7-1.6,4.3-4,4.3c-2.4,0-3.8-1.8-3.8-4.1c0-2.4,1.5-4.2,3.9-4.2
			C249.2,364,250.6,365.9,250.6,368.1z M244.7,368.2c0,1.6,0.7,2.7,2,2.7c1.2,0,1.9-1.2,1.9-2.7c0-1.5-0.7-2.7-2-2.7
			C245.4,365.5,244.7,366.7,244.7,368.2z"/>
	</g>
	<g class="st1">
		<path class="st4" d="M251.9,370.4c0.5,0.3,1.2,0.5,2,0.5c0.8,0,1.3-0.3,1.3-0.9c0-0.5-0.4-0.8-1.4-1.1c-1.3-0.5-2.2-1.2-2.2-2.4
			c0-1.4,1.2-2.4,3.1-2.4c0.9,0,1.6,0.2,2.1,0.4l-0.4,1.5c-0.3-0.2-0.9-0.4-1.7-0.4s-1.2,0.4-1.2,0.8c0,0.5,0.5,0.7,1.5,1.1
			c1.4,0.5,2.1,1.3,2.1,2.4c0,1.4-1,2.5-3.3,2.5c-0.9,0-1.8-0.2-2.3-0.5L251.9,370.4z"/>
		<path class="st4" d="M262.6,372.2v-3.3l-2.6-4.8h2.1l0.8,1.9c0.3,0.6,0.4,1,0.6,1.5h0c0.2-0.5,0.4-1,0.6-1.5l0.8-1.9h2.1l-2.7,4.7
			v3.4H262.6z"/>
	</g>
	<g class="st1">
		<path class="st4" d="M156.6,386.2c-0.3,0.2-1.1,0.3-2.1,0.3c-2.8,0-4.2-1.7-4.2-4c0-2.8,2-4.3,4.4-4.3c0.9,0,1.7,0.2,2,0.4
			l-0.4,1.5c-0.4-0.2-0.9-0.3-1.5-0.3c-1.5,0-2.6,0.9-2.6,2.7c0,1.6,1,2.6,2.6,2.6c0.6,0,1.2-0.1,1.5-0.3L156.6,386.2z"/>
	</g>
	<g class="st1">
		<path class="st4" d="M165.1,382.3c0,2.7-1.6,4.3-4,4.3c-2.4,0-3.8-1.8-3.8-4.1c0-2.4,1.5-4.2,3.9-4.2
			C163.8,378.3,165.1,380.1,165.1,382.3z M159.3,382.5c0,1.6,0.7,2.7,2,2.7c1.2,0,1.9-1.2,1.9-2.7c0-1.5-0.7-2.7-2-2.7
			C160,379.7,159.3,380.9,159.3,382.5z"/>
	</g>
	<g class="st1">
		<path class="st4" d="M166.6,386.5v-8.1h2.1l1.7,3c0.5,0.9,1,1.9,1.3,2.8h0c-0.1-1.1-0.2-2.2-0.2-3.4v-2.4h1.7v8.1h-1.9l-1.7-3.1
			c-0.5-0.9-1-1.9-1.4-2.9l0,0c0,1.1,0.1,2.2,0.1,3.5v2.4H166.6z"/>
		<path class="st4" d="M177.8,386.5v-8.1h2.1l1.7,3c0.5,0.9,1,1.9,1.3,2.8h0c-0.1-1.1-0.2-2.2-0.2-3.4v-2.4h1.7v8.1h-1.9l-1.7-3.1
			c-0.5-0.9-1-1.9-1.4-2.9l0,0c0,1.1,0.1,2.2,0.1,3.5v2.4H177.8z"/>
		<path class="st4" d="M188.1,378.4v4.7c0,1.4,0.5,2.1,1.5,2.1c1,0,1.5-0.7,1.5-2.1v-4.7h1.8v4.5c0,2.5-1.3,3.7-3.4,3.7
			c-2,0-3.2-1.1-3.2-3.7v-4.5H188.1z"/>
	</g>
	<g class="st1">
		<path class="st4" d="M199.5,383.1h-3v1.9h3.3v1.5h-5.2v-8.1h5v1.5h-3.2v1.7h3V383.1z"/>
	</g>
	<g class="st1">
		<path class="st4" d="M201.4,384.6c0.5,0.3,1.2,0.5,2,0.5c0.8,0,1.3-0.3,1.3-0.9c0-0.5-0.4-0.8-1.4-1.1c-1.3-0.5-2.2-1.2-2.2-2.4
			c0-1.4,1.2-2.4,3.1-2.4c0.9,0,1.6,0.2,2.1,0.4l-0.4,1.5c-0.3-0.2-0.9-0.4-1.7-0.4s-1.2,0.4-1.2,0.8c0,0.5,0.5,0.7,1.5,1.1
			c1.4,0.5,2.1,1.3,2.1,2.4c0,1.4-1,2.5-3.3,2.5c-0.9,0-1.8-0.2-2.3-0.5L201.4,384.6z"/>
	</g>
	<g class="st1">
		<path class="st4" d="M209.6,379.9h-2.2v-1.5h6.2v1.5h-2.2v6.5h-1.8V379.9z"/>
		<path class="st4" d="M214.7,378.5c0.6-0.1,1.5-0.2,2.4-0.2c1.2,0,2,0.2,2.6,0.6c0.5,0.4,0.7,0.9,0.7,1.7c0,1-0.7,1.7-1.4,2v0
			c0.6,0.2,0.9,0.8,1.1,1.5c0.3,0.9,0.5,2,0.7,2.3h-1.9c-0.1-0.2-0.3-0.9-0.6-1.9c-0.2-1-0.6-1.3-1.3-1.3h-0.6v3.2h-1.8V378.5z
			 M216.5,382h0.7c0.9,0,1.5-0.5,1.5-1.2c0-0.7-0.5-1.1-1.3-1.1c-0.4,0-0.7,0-0.8,0.1V382z"/>
	</g>
	<g class="st1">
		<path class="st4" d="M229.4,382.3c0,2.7-1.6,4.3-4,4.3c-2.4,0-3.8-1.8-3.8-4.1c0-2.4,1.5-4.2,3.9-4.2
			C228,378.3,229.4,380.1,229.4,382.3z M223.6,382.5c0,1.6,0.7,2.7,2,2.7c1.2,0,1.9-1.2,1.9-2.7c0-1.5-0.7-2.7-2-2.7
			C224.3,379.7,223.6,380.9,223.6,382.5z"/>
	</g>
	<g class="st1">
		<path class="st4" d="M230.8,384.6c0.5,0.3,1.2,0.5,2,0.5c0.8,0,1.3-0.3,1.3-0.9c0-0.5-0.4-0.8-1.4-1.1c-1.3-0.5-2.2-1.2-2.2-2.4
			c0-1.4,1.2-2.4,3.1-2.4c0.9,0,1.6,0.2,2.1,0.4l-0.4,1.5c-0.3-0.2-0.9-0.4-1.7-0.4s-1.2,0.4-1.2,0.8c0,0.5,0.5,0.7,1.5,1.1
			c1.4,0.5,2.1,1.3,2.1,2.4c0,1.4-1,2.5-3.3,2.5c-0.9,0-1.8-0.2-2.3-0.5L230.8,384.6z"/>
	</g>
	<g class="st1">
		<path class="st4" d="M246,386.2c-0.3,0.2-1.1,0.3-2.1,0.3c-2.8,0-4.2-1.7-4.2-4c0-2.8,2-4.3,4.4-4.3c0.9,0,1.7,0.2,2,0.4l-0.4,1.5
			c-0.4-0.2-0.9-0.3-1.5-0.3c-1.5,0-2.6,0.9-2.6,2.7c0,1.6,1,2.6,2.6,2.6c0.6,0,1.2-0.1,1.5-0.3L246,386.2z"/>
	</g>
	<g class="st1">
		<path class="st4" d="M247.4,378.4h1.8v6.5h3.2v1.5h-5V378.4z"/>
	</g>
	<g class="st1">
		<path class="st4" d="M255.5,378.4v8.1h-1.8v-8.1H255.5z"/>
	</g>
	<g class="st1">
		<path class="st4" d="M262.1,383.1h-3v1.9h3.3v1.5h-5.2v-8.1h5v1.5h-3.2v1.7h3V383.1z"/>
	</g>
	<g class="st1">
		<path class="st4" d="M264,386.5v-8.1h2.1l1.7,3c0.5,0.9,1,1.9,1.3,2.8h0c-0.1-1.1-0.2-2.2-0.2-3.4v-2.4h1.7v8.1h-1.9l-1.7-3.1
			c-0.5-0.9-1-1.9-1.4-2.9l0,0c0,1.1,0.1,2.2,0.1,3.5v2.4H264z"/>
	</g>
	<g class="st1">
		<path class="st4" d="M274,379.9h-2.2v-1.5h6.2v1.5h-2.2v6.5H274V379.9z"/>
	</g>
	<g class="st1">
		<path class="st4" d="M284,383.1h-3v1.9h3.3v1.5h-5.2v-8.1h5v1.5h-3.2v1.7h3V383.1z"/>
	</g>
	<g class="st1">
		<path class="st4" d="M285.9,384.6c0.5,0.3,1.2,0.5,2,0.5c0.8,0,1.3-0.3,1.3-0.9c0-0.5-0.4-0.8-1.4-1.1c-1.3-0.5-2.2-1.2-2.2-2.4
			c0-1.4,1.2-2.4,3.1-2.4c0.9,0,1.6,0.2,2.1,0.4l-0.4,1.5c-0.3-0.2-0.9-0.4-1.7-0.4s-1.2,0.4-1.2,0.8c0,0.5,0.5,0.7,1.5,1.1
			c1.4,0.5,2.1,1.3,2.1,2.4c0,1.4-1,2.5-3.3,2.5c-0.9,0-1.8-0.2-2.3-0.5L285.9,384.6z"/>
	</g>
	<g class="st1">
		<path class="st3" d="M441.4,510.3c0.5,0.3,1.2,0.5,2,0.5c0.8,0,1.3-0.3,1.3-0.9c0-0.5-0.4-0.8-1.4-1.1c-1.3-0.5-2.2-1.2-2.2-2.4
			c0-1.4,1.2-2.4,3.1-2.4c0.9,0,1.6,0.2,2.1,0.4l-0.4,1.5c-0.3-0.2-0.9-0.4-1.7-0.4c-0.8,0-1.2,0.4-1.2,0.8c0,0.5,0.5,0.7,1.5,1.1
			c1.4,0.5,2.1,1.3,2.1,2.4c0,1.4-1,2.5-3.3,2.5c-0.9,0-1.8-0.2-2.3-0.5L441.4,510.3z"/>
	</g>
	<g class="st1">
		<path class="st3" d="M452.8,508.8h-3v1.9h3.3v1.5H448v-8.1h5v1.5h-3.2v1.7h3V508.8z"/>
	</g>
	<g class="st1">
		<path class="st3" d="M461.3,511.8c-0.6,0.2-1.6,0.5-2.7,0.5c-1.5,0-2.5-0.4-3.3-1.1c-0.7-0.7-1.2-1.8-1.1-2.9c0-2.7,2-4.2,4.6-4.2
			c1,0,1.8,0.2,2.2,0.4l-0.4,1.5c-0.4-0.2-1-0.3-1.9-0.3c-1.5,0-2.7,0.9-2.7,2.6c0,1.7,1,2.7,2.5,2.7c0.4,0,0.8,0,0.9-0.1V509h-1.2
			v-1.4h3V511.8z"/>
	</g>
	<g class="st1">
		<path class="st3" d="M464.7,504.1v4.7c0,1.4,0.5,2.1,1.5,2.1c1,0,1.5-0.7,1.5-2.1v-4.7h1.8v4.5c0,2.5-1.3,3.7-3.4,3.7
			c-2,0-3.2-1.1-3.2-3.7v-4.5H464.7z"/>
	</g>
	<g class="st1">
		<path class="st3" d="M471.4,504.2c0.6-0.1,1.5-0.2,2.4-0.2c1.2,0,2,0.2,2.6,0.6c0.5,0.4,0.7,0.9,0.7,1.7c0,1-0.7,1.7-1.4,2v0
			c0.6,0.2,0.9,0.8,1.1,1.5c0.3,0.9,0.5,2,0.7,2.3h-1.9c-0.1-0.2-0.3-0.9-0.6-1.9c-0.2-1-0.6-1.3-1.3-1.3h-0.6v3.2h-1.8V504.2z
			 M473.2,507.7h0.7c0.9,0,1.5-0.5,1.5-1.2c0-0.7-0.5-1.1-1.3-1.1c-0.4,0-0.7,0-0.8,0.1V507.7z"/>
	</g>
	<g class="st1">
		<path class="st3" d="M480.6,504.1v8.1h-1.8v-8.1H480.6z"/>
	</g>
	<g class="st1">
		<path class="st3" d="M482.4,504.2c0.7-0.1,1.5-0.2,2.5-0.2c1.5,0,2.5,0.3,3.3,0.9c0.8,0.6,1.4,1.6,1.4,3c0,1.5-0.6,2.6-1.3,3.3
			c-0.9,0.7-2.1,1-3.7,1c-0.9,0-1.6-0.1-2.1-0.1V504.2z M484.3,510.8c0.2,0,0.4,0,0.6,0c1.7,0,2.7-0.9,2.7-2.8c0-1.7-1-2.6-2.5-2.6
			c-0.4,0-0.7,0-0.8,0.1V510.8z"/>
	</g>
	<g class="st1">
		<path class="st3" d="M492.5,510.1l-0.6,2.1h-1.9l2.5-8.1h2.4l2.5,8.1h-2l-0.6-2.1H492.5z M494.6,508.7l-0.5-1.7
			c-0.1-0.5-0.3-1.1-0.4-1.6h0c-0.1,0.5-0.2,1.1-0.4,1.6l-0.5,1.7H494.6z"/>
	</g>
	<g class="st1">
		<path class="st3" d="M498.6,504.2c0.7-0.1,1.5-0.2,2.5-0.2c1.5,0,2.5,0.3,3.3,0.9c0.8,0.6,1.4,1.6,1.4,3c0,1.5-0.6,2.6-1.3,3.3
			c-0.9,0.7-2.1,1-3.7,1c-0.9,0-1.6-0.1-2.1-0.1V504.2z M500.5,510.8c0.2,0,0.4,0,0.6,0c1.7,0,2.7-0.9,2.7-2.8c0-1.7-1-2.6-2.5-2.6
			c-0.4,0-0.7,0-0.8,0.1V510.8z"/>
		<path class="st3" d="M509.9,504.2c0.7-0.1,1.5-0.2,2.5-0.2c1.5,0,2.5,0.3,3.3,0.9c0.8,0.6,1.4,1.6,1.4,3c0,1.5-0.6,2.6-1.3,3.3
			c-0.9,0.7-2.1,1-3.7,1c-0.9,0-1.6-0.1-2.1-0.1V504.2z M511.7,510.8c0.2,0,0.4,0,0.6,0c1.7,0,2.7-0.9,2.7-2.8c0-1.7-1-2.6-2.5-2.6
			c-0.4,0-0.7,0-0.8,0.1V510.8z"/>
		<path class="st3" d="M523.3,508.8h-3v1.9h3.3v1.5h-5.2v-8.1h5v1.5h-3.2v1.7h3V508.8z"/>
	</g>
	<g class="st1">
		<path class="st3" d="M426.5,518.3h1.8v6.5h3.2v1.5h-5V518.3z"/>
	</g>
	<g class="st1">
		<path class="st3" d="M434.9,524.3l-0.6,2.1h-1.9l2.5-8.1h2.4l2.5,8.1h-2l-0.6-2.1H434.9z M437,523l-0.5-1.7
			c-0.1-0.5-0.3-1.1-0.4-1.6h0c-0.1,0.5-0.2,1.1-0.4,1.6l-0.5,1.7H437z"/>
	</g>
	<g class="st1">
		<path class="st3" d="M445.7,518.3v8.1h-1.8v-8.1H445.7z"/>
	</g>
	<g class="st1">
		<path class="st3" d="M447.5,526.4v-8.1h2.1l1.7,3c0.5,0.9,1,1.9,1.3,2.8h0c-0.1-1.1-0.2-2.2-0.2-3.4v-2.4h1.7v8.1h-1.9l-1.7-3.1
			c-0.5-0.9-1-1.9-1.4-2.9l0,0c0,1.1,0.1,2.2,0.1,3.5v2.4H447.5z"/>
	</g>
	<g class="st1">
		<path class="st3" d="M456.1,518.3h4.9v1.5h-3.1v1.8h2.9v1.5h-2.9v3.2h-1.8V518.3z"/>
	</g>
	<g class="st1">
		<path class="st3" d="M469.8,522.3c0,2.7-1.6,4.3-4,4.3c-2.4,0-3.8-1.8-3.8-4.1c0-2.4,1.5-4.2,3.9-4.2
			C468.5,518.2,469.8,520,469.8,522.3z M464,522.4c0,1.6,0.7,2.7,2,2.7c1.2,0,1.9-1.2,1.9-2.7c0-1.5-0.7-2.7-2-2.7
			C464.7,519.6,464,520.8,464,522.4z"/>
	</g>
	<g class="st1">
		<path class="st3" d="M471.3,518.4c0.6-0.1,1.5-0.2,2.4-0.2c1.2,0,2,0.2,2.6,0.6c0.5,0.4,0.7,0.9,0.7,1.7c0,1-0.7,1.7-1.4,2v0
			c0.6,0.2,0.9,0.8,1.1,1.5c0.3,0.9,0.5,2,0.7,2.3h-1.9c-0.1-0.2-0.3-0.9-0.6-1.9c-0.2-1-0.6-1.3-1.3-1.3h-0.6v3.2h-1.8V518.4z
			 M473.1,521.9h0.7c0.9,0,1.5-0.5,1.5-1.2c0-0.7-0.5-1.1-1.3-1.1c-0.4,0-0.7,0-0.8,0.1V521.9z"/>
	</g>
	<g class="st1">
		<path class="st3" d="M485.5,523.3c0-1-0.1-2.1-0.1-3.3h0c-0.3,1-0.6,2.2-0.9,3.1l-1,3.2h-1.4l-0.9-3.1c-0.3-0.9-0.5-2.1-0.7-3.2h0
			c0,1.1-0.1,2.3-0.1,3.3l-0.1,3.1h-1.7l0.5-8.1h2.4l0.8,2.7c0.3,0.9,0.5,1.9,0.7,2.9h0c0.2-0.9,0.5-2,0.8-2.9l0.9-2.7h2.4l0.4,8.1
			h-1.8L485.5,523.3z"/>
	</g>
	<g class="st1">
		<path class="st3" d="M491,524.3l-0.6,2.1h-1.9l2.5-8.1h2.4l2.5,8.1h-2l-0.6-2.1H491z M493,523l-0.5-1.7c-0.1-0.5-0.3-1.1-0.4-1.6
			h0c-0.1,0.5-0.2,1.1-0.4,1.6l-0.5,1.7H493z"/>
	</g>
	<g class="st1">
		<path class="st3" d="M502.7,526.2c-0.3,0.2-1.1,0.3-2.1,0.3c-2.8,0-4.2-1.7-4.2-4c0-2.8,2-4.3,4.4-4.3c0.9,0,1.7,0.2,2,0.4
			l-0.4,1.5c-0.4-0.2-0.9-0.3-1.5-0.3c-1.5,0-2.6,0.9-2.6,2.7c0,1.6,1,2.6,2.6,2.6c0.6,0,1.2-0.1,1.5-0.3L502.7,526.2z"/>
	</g>
	<g class="st1">
		<path class="st3" d="M505.9,518.3v8.1h-1.8v-8.1H505.9z"/>
	</g>
	<g class="st1">
		<path class="st3" d="M515.2,522.3c0,2.7-1.6,4.3-4,4.3c-2.4,0-3.8-1.8-3.8-4.1c0-2.4,1.5-4.2,3.9-4.2
			C513.8,518.2,515.2,520,515.2,522.3z M509.3,522.4c0,1.6,0.7,2.7,2,2.7c1.2,0,1.9-1.2,1.9-2.7c0-1.5-0.7-2.7-2-2.7
			C510,519.6,509.3,520.8,509.3,522.4z M513.4,516.4l-1.5,1.5h-1.5l1-1.5H513.4z"/>
	</g>
	<g class="st1">
		<path class="st3" d="M516.6,526.4v-8.1h2.1l1.7,3c0.5,0.9,1,1.9,1.3,2.8h0c-0.1-1.1-0.2-2.2-0.2-3.4v-2.4h1.7v8.1h-1.9l-1.7-3.1
			c-0.5-0.9-1-1.9-1.4-2.9l0,0c0,1.1,0.1,2.2,0.1,3.5v2.4H516.6z"/>
	</g>
	<g class="st1">
		<path class="st3" d="M223.9,508.8h-3v1.9h3.3v1.5h-5.2v-8.1h5v1.5h-3.2v1.7h3V508.8z M223.7,502.2l-1.5,1.5h-1.5l1-1.5H223.7z"/>
	</g>
	<g class="st1">
		<path class="st3" d="M227.3,505.6h-2.2v-1.5h6.2v1.5h-2.2v6.5h-1.8V505.6z"/>
	</g>
	<g class="st1">
		<path class="st3" d="M234.3,504.1v8.1h-1.8v-8.1H234.3z"/>
	</g>
	<g class="st1">
		<path class="st3" d="M242.1,511.9c-0.3,0.2-1.1,0.3-2.1,0.3c-2.8,0-4.2-1.7-4.2-4c0-2.8,2-4.3,4.4-4.3c0.9,0,1.7,0.2,2,0.4
			l-0.4,1.5c-0.4-0.2-0.9-0.3-1.5-0.3c-1.5,0-2.6,0.9-2.6,2.7c0,1.6,1,2.6,2.6,2.6c0.6,0,1.2-0.1,1.5-0.3L242.1,511.9z"/>
	</g>
	<g class="st1">
		<path class="st3" d="M245.5,510.1l-0.6,2.1H243l2.5-8.1h2.4l2.5,8.1h-2l-0.6-2.1H245.5z M247.6,508.7l-0.5-1.7
			c-0.1-0.5-0.3-1.1-0.4-1.6h0c-0.1,0.5-0.2,1.1-0.4,1.6l-0.5,1.7H247.6z"/>
		<path class="st3" d="M255.8,512.2v-3.3l-2.6-4.8h2.1l0.8,1.9c0.3,0.6,0.4,1,0.6,1.5h0c0.2-0.5,0.4-1,0.6-1.5l0.8-1.9h2.1l-2.7,4.7
			v3.4H255.8z"/>
	</g>
	<g class="st1">
		<path class="st3" d="M225,526.2c-0.3,0.2-1.1,0.3-2.1,0.3c-2.8,0-4.2-1.7-4.2-4c0-2.8,2-4.3,4.4-4.3c0.9,0,1.7,0.2,2,0.4l-0.4,1.5
			c-0.4-0.2-0.9-0.3-1.5-0.3c-1.5,0-2.6,0.9-2.6,2.7c0,1.6,1,2.6,2.6,2.6c0.6,0,1.2-0.1,1.5-0.3L225,526.2z"/>
	</g>
	<g class="st1">
		<path class="st3" d="M228.2,518.3v4.7c0,1.4,0.5,2.1,1.5,2.1c1,0,1.5-0.7,1.5-2.1v-4.7h1.8v4.5c0,2.5-1.3,3.7-3.4,3.7
			c-2,0-3.2-1.1-3.2-3.7v-4.5H228.2z"/>
	</g>
	<g class="st1">
		<path class="st3" d="M241.5,523.3c0-1-0.1-2.1-0.1-3.3h0c-0.3,1-0.6,2.2-0.9,3.1l-1,3.2h-1.4l-0.9-3.1c-0.3-0.9-0.5-2.1-0.7-3.2h0
			c0,1.1-0.1,2.3-0.1,3.3l-0.1,3.1h-1.7l0.5-8.1h2.4l0.8,2.7c0.3,0.9,0.5,1.9,0.7,2.9h0c0.2-0.9,0.5-2,0.8-2.9l0.9-2.7h2.4l0.4,8.1
			h-1.8L241.5,523.3z"/>
	</g>
	<g class="st1">
		<path class="st3" d="M245.1,518.4c0.6-0.1,1.4-0.2,2.5-0.2c1.1,0,1.9,0.2,2.5,0.6c0.5,0.4,0.9,1.1,0.9,1.9c0,0.8-0.3,1.5-0.7,1.9
			c-0.6,0.6-1.5,0.9-2.6,0.9c-0.2,0-0.5,0-0.6,0v2.9h-1.8V518.4z M246.9,522.1c0.2,0,0.3,0,0.6,0c1,0,1.6-0.5,1.6-1.3
			c0-0.7-0.5-1.2-1.4-1.2c-0.4,0-0.6,0-0.8,0.1V522.1z"/>
	</g>
	<g class="st1">
		<path class="st3" d="M252.2,518.3h1.8v6.5h3.2v1.5h-5V518.3z"/>
	</g>
	<g class="st1">
		<path class="st3" d="M260.2,518.3v8.1h-1.8v-8.1H260.2z"/>
	</g>
	<g class="st1">
		<path class="st3" d="M268.9,523.3c0-1-0.1-2.1-0.1-3.3h0c-0.3,1-0.6,2.2-0.9,3.1l-1,3.2h-1.4l-0.9-3.1c-0.3-0.9-0.5-2.1-0.7-3.2h0
			c0,1.1-0.1,2.3-0.1,3.3l-0.1,3.1h-1.7l0.5-8.1h2.4l0.8,2.7c0.3,0.9,0.5,1.9,0.7,2.9h0c0.2-0.9,0.5-2,0.8-2.9l0.9-2.7h2.4l0.4,8.1
			H269L268.9,523.3z"/>
	</g>
	<g class="st1">
		<path class="st3" d="M274.3,518.3v8.1h-1.8v-8.1H274.3z"/>
	</g>
	<g class="st1">
		<path class="st3" d="M281,523h-3v1.9h3.3v1.5h-5.2v-8.1h5v1.5H278v1.7h3V523z"/>
	</g>
	<g class="st1">
		<path class="st3" d="M282.9,526.4v-8.1h2.1l1.7,3c0.5,0.9,1,1.9,1.3,2.8h0c-0.1-1.1-0.2-2.2-0.2-3.4v-2.4h1.7v8.1h-1.9l-1.7-3.1
			c-0.5-0.9-1-1.9-1.4-2.9l0,0c0,1.1,0.1,2.2,0.1,3.5v2.4H282.9z"/>
	</g>
	<g class="st1">
		<path class="st3" d="M292.9,519.9h-2.2v-1.5h6.2v1.5h-2.2v6.5h-1.8V519.9z"/>
	</g>
	<g class="st1">
		<path class="st3" d="M305.4,522.3c0,2.7-1.6,4.3-4,4.3c-2.4,0-3.8-1.8-3.8-4.1c0-2.4,1.5-4.2,3.9-4.2
			C304,518.2,305.4,520,305.4,522.3z M299.5,522.4c0,1.6,0.7,2.7,2,2.7c1.2,0,1.9-1.2,1.9-2.7c0-1.5-0.7-2.7-2-2.7
			C300.3,519.6,299.5,520.8,299.5,522.4z"/>
	</g>
	<g class="st1">
		<path class="st3" d="M305.7,571.5c-0.6,0.2-1.6,0.5-2.7,0.5c-1.5,0-2.5-0.4-3.3-1.1c-0.7-0.7-1.2-1.8-1.1-2.9c0-2.7,2-4.2,4.6-4.2
			c1,0,1.8,0.2,2.2,0.4l-0.4,1.5c-0.4-0.2-1-0.3-1.9-0.3c-1.5,0-2.7,0.9-2.7,2.6c0,1.7,1,2.7,2.5,2.7c0.4,0,0.8,0,0.9-0.1v-1.7h-1.2
			v-1.4h3V571.5z"/>
	</g>
	<g class="st1">
		<path class="st3" d="M314.8,567.8c0,2.7-1.6,4.3-4,4.3c-2.4,0-3.8-1.8-3.8-4.1c0-2.4,1.5-4.2,3.9-4.2
			C313.4,563.7,314.8,565.5,314.8,567.8z M308.9,567.9c0,1.6,0.7,2.7,2,2.7c1.2,0,1.9-1.2,1.9-2.7c0-1.5-0.7-2.7-2-2.7
			C309.6,565.1,308.9,566.3,308.9,567.9z"/>
	</g>
	<g class="st1">
		<path class="st3" d="M316.2,563.9c0.5-0.1,1.5-0.2,2.4-0.2c1.1,0,1.8,0.1,2.4,0.5c0.6,0.3,1,0.9,1,1.6c0,0.7-0.4,1.4-1.3,1.7v0
			c0.9,0.3,1.6,0.9,1.6,2c0,0.7-0.3,1.3-0.8,1.7c-0.6,0.5-1.6,0.7-3.2,0.7c-0.9,0-1.6-0.1-2-0.1V563.9z M318,567h0.6
			c1,0,1.5-0.4,1.5-1c0-0.6-0.5-0.9-1.3-0.9c-0.4,0-0.6,0-0.8,0V567z M318,570.6c0.2,0,0.4,0,0.7,0c0.8,0,1.6-0.3,1.6-1.2
			c0-0.8-0.7-1.1-1.6-1.1H318V570.6z"/>
	</g>
	<g class="st1">
		<path class="st3" d="M325.6,563.8v8.1h-1.8v-8.1H325.6z"/>
	</g>
	<g class="st1">
		<path class="st3" d="M332.2,568.5h-3v1.9h3.3v1.5h-5.2v-8.1h5v1.5h-3.2v1.7h3V568.5z"/>
	</g>
	<g class="st1">
		<path class="st3" d="M334.1,563.9c0.6-0.1,1.5-0.2,2.4-0.2c1.2,0,2,0.2,2.6,0.6c0.5,0.4,0.7,0.9,0.7,1.7c0,1-0.7,1.7-1.4,2v0
			c0.6,0.2,0.9,0.8,1.1,1.5c0.3,0.9,0.5,2,0.7,2.3h-1.9c-0.1-0.2-0.3-0.9-0.6-1.9c-0.2-1-0.6-1.3-1.3-1.3h-0.6v3.2h-1.8V563.9z
			 M335.9,567.4h0.7c0.9,0,1.5-0.5,1.5-1.2c0-0.7-0.5-1.1-1.3-1.1c-0.4,0-0.7,0-0.8,0.1V567.4z"/>
	</g>
	<g class="st1">
		<path class="st3" d="M341.5,571.9v-8.1h2.1l1.7,3c0.5,0.9,1,1.9,1.3,2.8h0c-0.1-1.1-0.2-2.2-0.2-3.4v-2.4h1.7v8.1h-1.9l-1.7-3.1
			c-0.5-0.9-1-1.9-1.4-2.9l0,0c0,1.1,0.1,2.2,0.1,3.5v2.4H341.5z"/>
	</g>
	<g class="st1">
		<path class="st3" d="M357.5,567.8c0,2.7-1.6,4.3-4,4.3c-2.4,0-3.8-1.8-3.8-4.1c0-2.4,1.5-4.2,3.9-4.2
			C356.1,563.7,357.5,565.5,357.5,567.8z M351.6,567.9c0,1.6,0.7,2.7,2,2.7c1.2,0,1.9-1.2,1.9-2.7c0-1.5-0.7-2.7-2-2.7
			C352.3,565.1,351.6,566.3,351.6,567.9z"/>
	</g>
	<g class="st1">
		<path class="st3" d="M367.5,571.7c-0.3,0.2-1.1,0.3-2.1,0.3c-2.8,0-4.2-1.7-4.2-4c0-2.8,2-4.3,4.4-4.3c0.9,0,1.7,0.2,2,0.4
			l-0.4,1.5c-0.4-0.2-0.9-0.3-1.5-0.3c-1.5,0-2.6,0.9-2.6,2.7c0,1.6,1,2.6,2.6,2.6c0.6,0,1.2-0.1,1.5-0.3L367.5,571.7z"/>
	</g>
	<g class="st1">
		<path class="st3" d="M376.1,567.8c0,2.7-1.6,4.3-4,4.3c-2.4,0-3.8-1.8-3.8-4.1c0-2.4,1.5-4.2,3.9-4.2
			C374.7,563.7,376.1,565.5,376.1,567.8z M370.2,567.9c0,1.6,0.7,2.7,2,2.7c1.2,0,1.9-1.2,1.9-2.7c0-1.5-0.7-2.7-2-2.7
			C370.9,565.1,370.2,566.3,370.2,567.9z"/>
	</g>
	<g class="st1">
		<path class="st3" d="M377.5,563.9c0.6-0.1,1.5-0.2,2.4-0.2c1.2,0,2,0.2,2.6,0.6c0.5,0.4,0.7,0.9,0.7,1.7c0,1-0.7,1.7-1.4,2v0
			c0.6,0.2,0.9,0.8,1.1,1.5c0.3,0.9,0.5,2,0.7,2.3h-1.9c-0.1-0.2-0.3-0.9-0.6-1.9c-0.2-1-0.6-1.3-1.3-1.3h-0.6v3.2h-1.8V563.9z
			 M379.3,567.4h0.7c0.9,0,1.5-0.5,1.5-1.2c0-0.7-0.5-1.1-1.3-1.1c-0.4,0-0.7,0-0.8,0.1V567.4z"/>
	</g>
	<g class="st1">
		<path class="st3" d="M384.9,563.9c0.6-0.1,1.4-0.2,2.5-0.2c1.1,0,1.9,0.2,2.5,0.6c0.5,0.4,0.9,1.1,0.9,1.9c0,0.8-0.3,1.5-0.7,1.9
			c-0.6,0.6-1.5,0.9-2.6,0.9c-0.2,0-0.5,0-0.6,0v2.9h-1.8V563.9z M386.8,567.6c0.2,0,0.3,0,0.6,0c1,0,1.6-0.5,1.6-1.3
			c0-0.7-0.5-1.2-1.4-1.2c-0.4,0-0.6,0-0.8,0.1V567.6z"/>
	</g>
	<g class="st1">
		<path class="st3" d="M399.5,567.8c0,2.7-1.6,4.3-4,4.3c-2.4,0-3.8-1.8-3.8-4.1c0-2.4,1.5-4.2,3.9-4.2
			C398.2,563.7,399.5,565.5,399.5,567.8z M393.7,567.9c0,1.6,0.7,2.7,2,2.7c1.2,0,1.9-1.2,1.9-2.7c0-1.5-0.7-2.7-2-2.7
			C394.4,565.1,393.7,566.3,393.7,567.9z"/>
	</g>
	<g class="st1">
		<path class="st3" d="M401,563.9c0.6-0.1,1.5-0.2,2.4-0.2c1.2,0,2,0.2,2.6,0.6c0.5,0.4,0.7,0.9,0.7,1.7c0,1-0.7,1.7-1.4,2v0
			c0.6,0.2,0.9,0.8,1.1,1.5c0.3,0.9,0.5,2,0.7,2.3h-1.9c-0.1-0.2-0.3-0.9-0.6-1.9c-0.2-1-0.6-1.3-1.3-1.3h-0.6v3.2H401V563.9z
			 M402.8,567.4h0.7c0.9,0,1.5-0.5,1.5-1.2c0-0.7-0.5-1.1-1.3-1.1c-0.4,0-0.7,0-0.8,0.1V567.4z"/>
	</g>
	<g class="st1">
		<path class="st3" d="M410.4,569.8l-0.6,2.1H408l2.5-8.1h2.4l2.5,8.1h-2l-0.6-2.1H410.4z M412.5,568.4l-0.5-1.7
			c-0.1-0.5-0.3-1.1-0.4-1.6h0c-0.1,0.5-0.2,1.1-0.4,1.6l-0.5,1.7H412.5z"/>
	</g>
	<g class="st1">
		<path class="st3" d="M417.4,565.3h-2.2v-1.5h6.2v1.5h-2.2v6.5h-1.8V565.3z"/>
	</g>
	<g class="st1">
		<path class="st3" d="M424.4,563.8v8.1h-1.8v-8.1H424.4z"/>
	</g>
	<g class="st1">
		<path class="st3" d="M428.1,571.9l-2.6-8.1h2l1,3.4c0.3,1,0.5,1.9,0.7,2.9h0c0.2-1,0.5-1.9,0.7-2.9l1-3.5h1.9l-2.7,8.1H428.1z"/>
	</g>
	<g class="st1">
		<path class="st3" d="M441.1,567.8c0,2.7-1.6,4.3-4,4.3c-2.4,0-3.8-1.8-3.8-4.1c0-2.4,1.5-4.2,3.9-4.2
			C439.8,563.7,441.1,565.5,441.1,567.8z M435.3,567.9c0,1.6,0.7,2.7,2,2.7c1.2,0,1.9-1.2,1.9-2.7c0-1.5-0.7-2.7-2-2.7
			C436,565.1,435.3,566.3,435.3,567.9z"/>
	</g>
	<g class="st1">
		<path class="st3" d="M321.6,586.1v-3.3L319,578h2.1l0.8,1.9c0.3,0.6,0.4,1,0.6,1.5h0c0.2-0.5,0.4-1,0.6-1.5l0.8-1.9h2.1l-2.7,4.7
			v3.4H321.6z"/>
	</g>
	<g class="st1">
		<path class="st3" d="M331.7,584l-0.6,2.1h-1.9l2.5-8.1h2.4l2.5,8.1h-2L334,584H331.7z M333.8,582.7l-0.5-1.7
			c-0.1-0.5-0.3-1.1-0.4-1.6h0c-0.1,0.5-0.2,1.1-0.4,1.6l-0.5,1.7H333.8z"/>
	</g>
	<g class="st1">
		<path class="st3" d="M337.8,578h1.8v6.5h3.2v1.5h-5V578z"/>
	</g>
	<g class="st1">
		<path class="st3" d="M344.8,579.6h-2.2V578h6.2v1.5h-2.2v6.5h-1.8V579.6z"/>
	</g>
	<g class="st1">
		<path class="st3" d="M351.2,584l-0.6,2.1h-1.9l2.5-8.1h2.4l2.5,8.1h-2l-0.6-2.1H351.2z M353.3,582.7l-0.5-1.7
			c-0.1-0.5-0.3-1.1-0.4-1.6h0c-0.1,0.5-0.2,1.1-0.4,1.6l-0.5,1.7H353.3z"/>
	</g>
	<g class="st1">
		<path class="st3" d="M360.1,578.1c0.7-0.1,1.5-0.2,2.5-0.2c1.5,0,2.5,0.3,3.3,0.9c0.8,0.6,1.4,1.6,1.4,3c0,1.5-0.6,2.6-1.3,3.3
			c-0.9,0.7-2.1,1-3.7,1c-0.9,0-1.6-0.1-2.1-0.1V578.1z M361.9,584.7c0.2,0,0.4,0,0.6,0c1.7,0,2.7-0.9,2.7-2.8c0-1.7-1-2.6-2.5-2.6
			c-0.4,0-0.7,0-0.8,0.1V584.7z"/>
	</g>
	<g class="st1">
		<path class="st3" d="M370.5,578v8.1h-1.8V578H370.5z"/>
	</g>
	<g class="st1">
		<path class="st3" d="M372.4,578.1c0.6-0.1,1.5-0.2,2.4-0.2c1.2,0,2,0.2,2.6,0.6c0.5,0.4,0.7,0.9,0.7,1.7c0,1-0.7,1.7-1.4,2v0
			c0.6,0.2,0.9,0.8,1.1,1.5c0.3,0.9,0.5,2,0.7,2.3h-1.9c-0.1-0.2-0.3-0.9-0.6-1.9c-0.2-1-0.6-1.3-1.3-1.3h-0.6v3.2h-1.8V578.1z
			 M374.2,581.6h0.7c0.9,0,1.5-0.5,1.5-1.2c0-0.7-0.5-1.1-1.3-1.1c-0.4,0-0.7,0-0.8,0.1V581.6z"/>
	</g>
	<g class="st1">
		<path class="st3" d="M384.6,582.7h-3v1.9h3.3v1.5h-5.2V578h5v1.5h-3.2v1.7h3V582.7z"/>
	</g>
	<g class="st1">
		<path class="st3" d="M392.3,585.9c-0.3,0.2-1.1,0.3-2.1,0.3c-2.8,0-4.2-1.7-4.2-4c0-2.8,2-4.3,4.4-4.3c0.9,0,1.7,0.2,2,0.4
			l-0.4,1.5c-0.4-0.2-0.9-0.3-1.5-0.3c-1.5,0-2.6,0.9-2.6,2.7c0,1.6,1,2.6,2.6,2.6c0.6,0,1.2-0.1,1.5-0.3L392.3,585.9z"/>
	</g>
	<g class="st1">
		<path class="st3" d="M399.4,585.9c-0.3,0.2-1.1,0.3-2.1,0.3c-2.8,0-4.2-1.7-4.2-4c0-2.8,2-4.3,4.4-4.3c0.9,0,1.7,0.2,2,0.4
			l-0.4,1.5c-0.4-0.2-0.9-0.3-1.5-0.3c-1.5,0-2.6,0.9-2.6,2.7c0,1.6,1,2.6,2.6,2.6c0.6,0,1.2-0.1,1.5-0.3L399.4,585.9z"/>
	</g>
	<g class="st1">
		<path class="st3" d="M402.6,578v8.1h-1.8V578H402.6z"/>
	</g>
	<g class="st1">
		<path class="st3" d="M411.8,582c0,2.7-1.6,4.3-4,4.3c-2.4,0-3.8-1.8-3.8-4.1c0-2.4,1.5-4.2,3.9-4.2
			C410.5,577.9,411.8,579.8,411.8,582z M406,582.1c0,1.6,0.7,2.7,2,2.7c1.2,0,1.9-1.2,1.9-2.7c0-1.5-0.7-2.7-2-2.7
			C406.7,579.4,406,580.5,406,582.1z M410,576.1l-1.5,1.5h-1.5l1-1.5H410z"/>
	</g>
	<g class="st1">
		<path class="st3" d="M413.3,586.1V578h2.1l1.7,3c0.5,0.9,1,1.9,1.3,2.8h0c-0.1-1.1-0.2-2.2-0.2-3.4V578h1.7v8.1h-1.9l-1.7-3.1
			c-0.5-0.9-1-1.9-1.4-2.9l0,0c0,1.1,0.1,2.2,0.1,3.5v2.4H413.3z"/>
	</g>
</g>
</svg>
