<?xml version="1.0" encoding="utf-8"?>
<!-- Generator: Adobe Illustrator 25.1.0, SVG Export Plug-In . SVG Version: 6.00 Build 0)  -->
<svg version="1.1" id="Capa_1" xmlns="http://www.w3.org/2000/svg" xmlns:xlink="http://www.w3.org/1999/xlink" x="0px" y="0px"
	 viewBox="0 0 397.7 451" style="enable-background:new 0 0 397.7 451;" xml:space="preserve">
<style type="text/css">
	.st0{fill:none;}
	.st1{clip-path:url(#SVGID_2_);}
	.st2{clip-path:url(#SVGID_4_);}
	.st3{opacity:0.16;fill:#1D1D1B;enable-background:new    ;}
	.st4{fill:#EDF1F3;}
	.st5{fill:#0078BE;}
	.st6{enable-background:new    ;}
	.st7{fill:#545051;}
	.st8{clip-path:url(#SVGID_6_);}
	.st9{clip-path:url(#SVGID_8_);}
	.st10{fill:#6AAAE4;}
	.st11{clip-path:url(#SVGID_10_);}
	.st12{clip-path:url(#SVGID_12_);}
	.st13{fill:#FFB71B;}
	.st14{clip-path:url(#SVGID_14_);}
	.st15{clip-path:url(#SVGID_16_);}
	.st16{fill:#76BC21;}
	.st17{clip-path:url(#SVGID_18_);}
	.st18{clip-path:url(#SVGID_20_);}
	.st19{fill:#4A5B6D;}
	.st20{clip-path:url(#SVGID_22_);}
	.st21{fill:none;stroke:#A5BCD0;stroke-miterlimit:10;}
	.st22{fill:#A5BCD0;}
	.st23{fill:#FFFFFF;}
	.st24{clip-path:url(#SVGID_24_);}
	.st25{clip-path:url(#SVGID_26_);}
</style>
<rect x="2.6" y="2.5" class="st0" width="389.3" height="443"/>
<g>
	<g>
		<defs>
			<rect id="SVGID_1_" x="2.6" y="2.5" width="389.3" height="443"/>
		</defs>
		<clipPath id="SVGID_2_">
			<use xlink:href="#SVGID_1_"  style="overflow:visible;"/>
		</clipPath>
		<g class="st1">
			<g>
				<g>
					<defs>
						<rect id="SVGID_3_" y="184" width="315.8" height="83"/>
					</defs>
					<clipPath id="SVGID_4_">
						<use xlink:href="#SVGID_3_"  style="overflow:visible;"/>
					</clipPath>
					<g class="st2">
						<rect y="184" class="st3" width="315.8" height="83"/>
					</g>
				</g>
			</g>
			<path class="st4" d="M7.9,186.5h296.9c2.9,0,5.3,2.4,5.3,5.3v64.5c0,2.9-2.4,5.3-5.3,5.3H7.9c-2.9,0-5.3-2.4-5.3-5.3v-64.5
				C2.6,188.9,4.9,186.5,7.9,186.5z"/>
			<path class="st5" d="M44.9,237.6c10.8,0,19.6-8.8,19.6-19.6c0-10.8-8.8-19.6-19.6-19.6s-19.6,8.8-19.6,19.6
				C25.3,228.8,34,237.6,44.9,237.6"/>
		</g>
	</g>
	<g class="st6">
		<path class="st7" d="M90.2,214h-3.9v4.3h4.4v0.6h-5.1v-9.8h4.8v0.6h-4.1v3.8h3.9V214z"/>
	</g>
	<g class="st6">
		<path class="st7" d="M92.4,208.5h0.7v10.3h-0.7V208.5z"/>
	</g>
	<g class="st6">
		<path class="st7" d="M99.2,214.1c0-0.9,0-1.6-0.1-2.2h0.7l0.1,1.3h0c0.5-0.9,1.3-1.5,2.6-1.5c1.8,0,3,1.5,3,3.5
			c0,2.5-1.5,3.8-3.2,3.8c-1,0-1.9-0.4-2.4-1.3h0v4h-0.7V214.1z M99.9,216.1c0,0.2,0,0.4,0.1,0.6c0.3,1.1,1.2,1.8,2.3,1.8
			c1.6,0,2.5-1.3,2.5-3.1c0-1.6-0.9-3-2.4-3c-1,0-2,0.7-2.3,1.9c0,0.2-0.1,0.4-0.1,0.6V216.1z"/>
	</g>
	<g class="st6">
		<path class="st7" d="M107.4,214c0-0.7,0-1.4-0.1-2.1h0.6l0,1.4h0c0.3-0.9,1-1.6,2-1.6c0.1,0,0.2,0,0.3,0v0.7c-0.1,0-0.2,0-0.3,0
			c-1,0-1.6,0.8-1.8,1.9c0,0.2-0.1,0.4-0.1,0.7v3.8h-0.7V214z"/>
	</g>
	<g class="st6">
		<path class="st7" d="M117.5,215.3c0,2.6-1.8,3.7-3.3,3.7c-1.8,0-3.2-1.4-3.2-3.6c0-2.4,1.6-3.7,3.3-3.7
			C116.2,211.7,117.5,213.2,117.5,215.3z M111.7,215.4c0,1.7,1.1,3,2.5,3c1.4,0,2.6-1.3,2.6-3.1c0-1.3-0.7-3-2.6-3
			C112.5,212.3,111.7,213.9,111.7,215.4z"/>
	</g>
	<g class="st6">
		<path class="st7" d="M119.5,214.1c0-0.9,0-1.6-0.1-2.2h0.7l0.1,1.3h0c0.5-0.9,1.3-1.5,2.6-1.5c1.8,0,3,1.5,3,3.5
			c0,2.5-1.5,3.8-3.2,3.8c-1,0-1.9-0.4-2.4-1.3h0v4h-0.7V214.1z M120.1,216.1c0,0.2,0,0.4,0.1,0.6c0.3,1.1,1.2,1.8,2.3,1.8
			c1.6,0,2.5-1.3,2.5-3.1c0-1.6-0.9-3-2.4-3c-1,0-2,0.7-2.3,1.9c0,0.2-0.1,0.4-0.1,0.6V216.1z"/>
	</g>
	<g class="st6">
		<path class="st7" d="M133.7,215.3c0,2.6-1.8,3.7-3.3,3.7c-1.8,0-3.2-1.4-3.2-3.6c0-2.4,1.6-3.7,3.3-3.7
			C132.4,211.7,133.7,213.2,133.7,215.3z M127.9,215.4c0,1.7,1.1,3,2.5,3c1.4,0,2.6-1.3,2.6-3.1c0-1.3-0.7-3-2.6-3
			C128.7,212.3,127.9,213.9,127.9,215.4z M132.1,208.9l-1.8,2h-0.5l1.3-2H132.1z"/>
	</g>
	<g class="st6">
		<path class="st7" d="M135.3,217.9c0.4,0.2,0.9,0.5,1.6,0.5c1.1,0,1.6-0.6,1.6-1.3c0-0.8-0.5-1.2-1.5-1.6c-1.1-0.4-1.8-1.1-1.8-1.9
			c0-1,0.8-1.9,2.1-1.9c0.6,0,1.2,0.2,1.5,0.4l-0.3,0.6c-0.2-0.2-0.7-0.4-1.4-0.4c-0.9,0-1.3,0.6-1.3,1.2c0,0.7,0.5,1,1.4,1.4
			c1.1,0.4,1.8,1,1.8,2.1c0,1.2-0.9,2-2.3,2c-0.7,0-1.3-0.2-1.8-0.5L135.3,217.9z"/>
	</g>
	<g class="st6">
		<path class="st7" d="M141.9,209.9c0,0.3-0.2,0.6-0.6,0.6c-0.3,0-0.5-0.3-0.5-0.6c0-0.3,0.2-0.6,0.6-0.6
			C141.6,209.3,141.9,209.6,141.9,209.9z M141,218.8v-7h0.7v7H141z"/>
	</g>
	<g class="st6">
		<path class="st7" d="M145.1,209.9v2h2v0.6h-2v4.5c0,0.9,0.3,1.5,1,1.5c0.4,0,0.6-0.1,0.8-0.1l0.1,0.5c-0.2,0.1-0.6,0.2-1,0.2
			c-0.5,0-0.9-0.2-1.2-0.5c-0.3-0.4-0.4-0.9-0.4-1.7v-4.4h-1.2v-0.6h1.2v-1.8L145.1,209.9z"/>
	</g>
	<g class="st6">
		<path class="st7" d="M154.4,215.3c0,2.6-1.8,3.7-3.3,3.7c-1.8,0-3.2-1.4-3.2-3.6c0-2.4,1.6-3.7,3.3-3.7
			C153.1,211.7,154.4,213.2,154.4,215.3z M148.6,215.4c0,1.7,1.1,3,2.5,3c1.4,0,2.6-1.3,2.6-3.1c0-1.3-0.7-3-2.6-3
			C149.4,212.3,148.6,213.9,148.6,215.4z"/>
	</g>
	<g class="st6">
		<path class="st7" d="M155.3,220.7c0.2-0.6,0.6-2.2,0.8-3.1l0.9-0.1c-0.3,1.1-0.9,2.7-1.1,3.1L155.3,220.7z"/>
	</g>
	<g class="st6">
		<path class="st7" d="M162.4,208.5h0.7v10.3h-0.7V208.5z"/>
	</g>
	<g class="st6">
		<path class="st7" d="M171.5,215.3c0,2.6-1.8,3.7-3.3,3.7c-1.8,0-3.2-1.4-3.2-3.6c0-2.4,1.6-3.7,3.3-3.7
			C170.2,211.7,171.5,213.2,171.5,215.3z M165.7,215.4c0,1.7,1.1,3,2.5,3c1.4,0,2.6-1.3,2.6-3.1c0-1.3-0.7-3-2.6-3
			C166.5,212.3,165.7,213.9,165.7,215.4z"/>
	</g>
	<g class="st6">
		<path class="st7" d="M173.1,217.9c0.4,0.2,0.9,0.5,1.6,0.5c1.1,0,1.6-0.6,1.6-1.3c0-0.8-0.5-1.2-1.5-1.6c-1.1-0.4-1.8-1.1-1.8-1.9
			c0-1,0.8-1.9,2.1-1.9c0.6,0,1.2,0.2,1.5,0.4l-0.3,0.6c-0.2-0.2-0.7-0.4-1.4-0.4c-0.9,0-1.3,0.6-1.3,1.2c0,0.7,0.5,1,1.4,1.4
			c1.1,0.4,1.8,1,1.8,2.1c0,1.2-0.9,2-2.3,2c-0.7,0-1.3-0.2-1.8-0.5L173.1,217.9z"/>
	</g>
	<g class="st6">
		<path class="st7" d="M182.3,211.9l1.6,4.3c0.3,0.7,0.5,1.3,0.7,1.9h0c0.2-0.6,0.4-1.2,0.7-1.9l1.7-4.3h0.7l-2.8,7h-0.6l-2.7-7
			H182.3z"/>
	</g>
	<g class="st6">
		<path class="st7" d="M193.1,218.8l-0.1-1h0c-0.3,0.5-1.1,1.2-2.2,1.2c-1.4,0-2-1-2-1.9c0-1.6,1.4-2.6,4.2-2.6v-0.2
			c0-0.7-0.1-2.1-1.8-2.1c-0.6,0-1.2,0.2-1.7,0.5l-0.2-0.5c0.6-0.4,1.4-0.6,2-0.6c2,0,2.4,1.5,2.4,2.8v2.7c0,0.6,0,1.1,0.1,1.7
			H193.1z M192.9,215.1c-1.5,0-3.5,0.2-3.5,1.9c0,1,0.7,1.5,1.4,1.5c1.2,0,1.8-0.7,2.1-1.4c0-0.1,0.1-0.3,0.1-0.4V215.1z"/>
	</g>
	<g class="st6">
		<path class="st7" d="M195.9,208.5h0.7v10.3h-0.7V208.5z"/>
		<path class="st7" d="M205.1,215.3c0,2.6-1.8,3.7-3.3,3.7c-1.8,0-3.2-1.4-3.2-3.6c0-2.4,1.6-3.7,3.3-3.7
			C203.8,211.7,205.1,213.2,205.1,215.3z M199.3,215.4c0,1.7,1.1,3,2.5,3c1.4,0,2.6-1.3,2.6-3.1c0-1.3-0.7-3-2.6-3
			C200.1,212.3,199.3,213.9,199.3,215.4z"/>
	</g>
	<g class="st6">
		<path class="st7" d="M207,214c0-0.7,0-1.4-0.1-2.1h0.6l0,1.4h0c0.3-0.9,1-1.6,2-1.6c0.1,0,0.2,0,0.3,0v0.7c-0.1,0-0.2,0-0.3,0
			c-1,0-1.6,0.8-1.8,1.9c0,0.2-0.1,0.4-0.1,0.7v3.8H207V214z"/>
	</g>
	<g class="st6">
		<path class="st7" d="M211.4,215.3c0,2.2,1.2,3.1,2.7,3.1c1,0,1.5-0.2,1.9-0.4l0.2,0.6c-0.3,0.1-1,0.4-2.2,0.4
			c-2,0-3.2-1.4-3.2-3.5c0-2.3,1.3-3.8,3.1-3.8c2.3,0,2.7,2.1,2.7,3.1c0,0.2,0,0.3,0,0.4H211.4z M215.8,214.7c0-1-0.4-2.4-2.1-2.4
			c-1.5,0-2.2,1.4-2.3,2.4H215.8z"/>
	</g>
	<g class="st6">
		<path class="st7" d="M218.1,217.9c0.4,0.2,0.9,0.5,1.6,0.5c1.1,0,1.6-0.6,1.6-1.3c0-0.8-0.5-1.2-1.5-1.6c-1.1-0.4-1.8-1.1-1.8-1.9
			c0-1,0.8-1.9,2.1-1.9c0.6,0,1.2,0.2,1.5,0.4l-0.3,0.6c-0.2-0.2-0.7-0.4-1.4-0.4c-0.9,0-1.3,0.6-1.3,1.2c0,0.7,0.5,1,1.4,1.4
			c1.1,0.4,1.8,1,1.8,2.1c0,1.2-0.9,2-2.3,2c-0.7,0-1.3-0.2-1.8-0.5L218.1,217.9z"/>
	</g>
	<g class="st6">
		<path class="st7" d="M227.3,211.9l1.8,4.6c0.2,0.5,0.4,1,0.5,1.5h0c0.1-0.4,0.3-1,0.5-1.5l1.7-4.5h0.7l-2.1,5.2
			c-0.8,2.2-1.4,3.5-2.3,4.2c-0.6,0.5-1,0.7-1.2,0.7l-0.2-0.6c0.3-0.1,0.8-0.4,1.2-0.8c0.3-0.3,0.8-0.9,1.2-1.7
			c0.1-0.2,0.1-0.2,0.1-0.3s0-0.2-0.1-0.3l-2.6-6.5H227.3z"/>
	</g>
	<g class="st6">
		<path class="st7" d="M237.7,208.5h0.7v10.3h-0.7V208.5z"/>
	</g>
	<g class="st6">
		<path class="st7" d="M244.6,218.8l-0.1-1h0c-0.3,0.5-1.1,1.2-2.2,1.2c-1.4,0-2-1-2-1.9c0-1.6,1.4-2.6,4.2-2.6v-0.2
			c0-0.7-0.1-2.1-1.8-2.1c-0.6,0-1.2,0.2-1.7,0.5l-0.2-0.5c0.6-0.4,1.4-0.6,2-0.6c2,0,2.4,1.5,2.4,2.8v2.7c0,0.6,0,1.1,0.1,1.7
			H244.6z M244.4,215.1c-1.5,0-3.5,0.2-3.5,1.9c0,1,0.7,1.5,1.4,1.5c1.2,0,1.8-0.7,2.1-1.4c0-0.1,0.1-0.3,0.1-0.4V215.1z"/>
	</g>
	<g class="st6">
		<path class="st7" d="M85.7,235.3c0,2.2,1.2,3.1,2.7,3.1c1,0,1.5-0.2,1.9-0.4l0.2,0.6c-0.3,0.1-1,0.4-2.2,0.4c-2,0-3.2-1.4-3.2-3.5
			c0-2.3,1.3-3.8,3.1-3.8c2.3,0,2.7,2.1,2.7,3.1c0,0.2,0,0.3,0,0.4H85.7z M90.2,234.7c0-1-0.4-2.4-2.1-2.4c-1.5,0-2.2,1.4-2.3,2.4
			H90.2z"/>
	</g>
	<g class="st6">
		<path class="st7" d="M92.5,237.9c0.4,0.2,0.9,0.5,1.6,0.5c1.1,0,1.6-0.6,1.6-1.3c0-0.8-0.5-1.2-1.5-1.6c-1.1-0.4-1.8-1.1-1.8-1.9
			c0-1,0.8-1.9,2.1-1.9c0.6,0,1.2,0.2,1.5,0.4l-0.3,0.6c-0.2-0.2-0.7-0.4-1.4-0.4c-0.9,0-1.3,0.6-1.3,1.2c0,0.7,0.5,1,1.4,1.4
			c1.1,0.4,1.8,1,1.8,2.1c0,1.2-0.9,2-2.3,2c-0.7,0-1.3-0.2-1.8-0.5L92.5,237.9z"/>
	</g>
	<g class="st6">
		<path class="st7" d="M99.4,229.9v2h2v0.6h-2v4.5c0,0.9,0.3,1.5,1,1.5c0.4,0,0.6-0.1,0.8-0.1l0.1,0.5c-0.2,0.1-0.6,0.2-1,0.2
			c-0.5,0-0.9-0.2-1.2-0.5c-0.3-0.4-0.4-0.9-0.4-1.7v-4.4h-1.2v-0.6h1.2v-1.8L99.4,229.9z"/>
	</g>
	<g class="st6">
		<path class="st7" d="M103.1,234c0-0.7,0-1.4-0.1-2.1h0.6l0,1.4h0c0.3-0.9,1-1.6,2-1.6c0.1,0,0.2,0,0.3,0v0.7c-0.1,0-0.2,0-0.3,0
			c-1,0-1.6,0.8-1.8,1.9c0,0.2-0.1,0.4-0.1,0.7v3.8h-0.7V234z"/>
	</g>
	<g class="st6">
		<path class="st7" d="M111.3,238.8l-0.1-1h0c-0.3,0.5-1.1,1.2-2.2,1.2c-1.4,0-2-1-2-1.9c0-1.6,1.4-2.6,4.2-2.6v-0.2
			c0-0.7-0.1-2.1-1.8-2.1c-0.6,0-1.2,0.2-1.7,0.5l-0.2-0.5c0.6-0.4,1.4-0.6,2-0.6c2,0,2.4,1.5,2.4,2.8v2.7c0,0.6,0,1.1,0.1,1.7
			H111.3z M111.2,235.1c-1.5,0-3.5,0.2-3.5,1.9c0,1,0.7,1.5,1.4,1.5c1.2,0,1.8-0.7,2.1-1.4c0-0.1,0.1-0.3,0.1-0.4V235.1z"/>
	</g>
	<g class="st6">
		<path class="st7" d="M115.1,229.9v2h2v0.6h-2v4.5c0,0.9,0.3,1.5,1,1.5c0.4,0,0.6-0.1,0.8-0.1l0.1,0.5c-0.2,0.1-0.6,0.2-1,0.2
			c-0.5,0-0.9-0.2-1.2-0.5c-0.3-0.4-0.4-0.9-0.4-1.7v-4.4h-1.2v-0.6h1.2v-1.8L115.1,229.9z"/>
	</g>
	<g class="st6">
		<path class="st7" d="M118.6,235.3c0,2.2,1.2,3.1,2.7,3.1c1,0,1.5-0.2,1.9-0.4l0.2,0.6c-0.3,0.1-1,0.4-2.2,0.4
			c-2,0-3.2-1.4-3.2-3.5c0-2.3,1.3-3.8,3.1-3.8c2.3,0,2.7,2.1,2.7,3.1c0,0.2,0,0.3,0,0.4H118.6z M123,234.7c0-1-0.4-2.4-2.1-2.4
			c-1.5,0-2.2,1.4-2.3,2.4H123z"/>
	</g>
	<g class="st6">
		<path class="st7" d="M131.4,231.9c0,0.5-0.1,1.1-0.1,1.8v4.1c0,1.8-0.4,2.7-0.9,3.2c-0.6,0.6-1.6,0.8-2.4,0.8
			c-0.8,0-1.7-0.2-2.2-0.6l0.2-0.6c0.5,0.3,1.2,0.6,2.1,0.6c1.5,0,2.5-0.8,2.5-2.8v-1h0c-0.4,0.7-1.2,1.3-2.4,1.3
			c-1.8,0-3-1.5-3-3.4c0-2.4,1.6-3.7,3.1-3.7c1.4,0,2.1,0.8,2.3,1.3h0l0-1.2H131.4z M130.7,234.5c0-0.2,0-0.5-0.1-0.7
			c-0.3-0.8-1-1.6-2.2-1.6c-1.5,0-2.5,1.2-2.5,3.1c0,1.6,0.8,2.9,2.5,2.9c0.9,0,1.8-0.6,2.1-1.6c0.1-0.2,0.1-0.5,0.1-0.7V234.5z"/>
	</g>
	<g class="st6">
		<path class="st7" d="M134.6,229.9c0,0.3-0.2,0.6-0.6,0.6c-0.3,0-0.5-0.3-0.5-0.6c0-0.3,0.2-0.6,0.6-0.6
			C134.4,229.3,134.6,229.6,134.6,229.9z M133.7,238.8v-7h0.7v7H133.7z"/>
	</g>
	<g class="st6">
		<path class="st7" d="M140.6,238.8l-0.1-1h0c-0.3,0.5-1.1,1.2-2.2,1.2c-1.4,0-2-1-2-1.9c0-1.6,1.4-2.6,4.2-2.6v-0.2
			c0-0.7-0.1-2.1-1.8-2.1c-0.6,0-1.2,0.2-1.7,0.5l-0.2-0.5c0.6-0.4,1.4-0.6,2-0.6c2,0,2.4,1.5,2.4,2.8v2.7c0,0.6,0,1.1,0.1,1.7
			H140.6z M140.4,235.1c-1.5,0-3.5,0.2-3.5,1.9c0,1,0.7,1.5,1.4,1.5c1.2,0,1.8-0.7,2.1-1.4c0-0.1,0.1-0.3,0.1-0.4V235.1z"/>
	</g>
	<g class="st6">
		<path class="st7" d="M152.6,228.5v8.7c0,0.5,0,1.1,0.1,1.6h-0.6l0-1.3h0c-0.4,0.8-1.2,1.5-2.5,1.5c-1.7,0-3-1.4-3-3.5
			c0-2.3,1.4-3.8,3.1-3.8c1.2,0,2,0.6,2.3,1.2h0v-4.4H152.6z M152,234.6c0-0.2,0-0.4-0.1-0.6c-0.2-0.9-1.1-1.7-2.2-1.7
			c-1.5,0-2.5,1.3-2.5,3.1c0,1.6,0.8,3,2.4,3c1,0,1.9-0.7,2.2-1.8c0-0.2,0.1-0.4,0.1-0.6V234.6z"/>
	</g>
	<g class="st6">
		<path class="st7" d="M155.2,235.3c0,2.2,1.2,3.1,2.7,3.1c1,0,1.5-0.2,1.9-0.4l0.2,0.6c-0.3,0.1-1,0.4-2.2,0.4
			c-2,0-3.2-1.4-3.2-3.5c0-2.3,1.3-3.8,3.1-3.8c2.3,0,2.7,2.1,2.7,3.1c0,0.2,0,0.3,0,0.4H155.2z M159.7,234.7c0-1-0.4-2.4-2.1-2.4
			c-1.5,0-2.2,1.4-2.3,2.4H159.7z"/>
	</g>
	<g class="st6">
		<path class="st7" d="M165.9,233.5c0-0.6,0-1.1-0.1-1.7h0.6l0.1,1.3h0c0.4-0.8,1.2-1.4,2.4-1.4c0.7,0,2.4,0.3,2.4,2.9v4.2h-0.7
			v-4.1c0-1.3-0.5-2.4-1.9-2.4c-1,0-1.8,0.7-2.1,1.6c-0.1,0.2-0.1,0.4-0.1,0.6v4.3h-0.7V233.5z"/>
	</g>
	<g class="st6">
		<path class="st7" d="M174,235.3c0,2.2,1.2,3.1,2.7,3.1c1,0,1.5-0.2,1.9-0.4l0.2,0.6c-0.3,0.1-1,0.4-2.2,0.4c-2,0-3.2-1.4-3.2-3.5
			c0-2.3,1.3-3.8,3.1-3.8c2.3,0,2.7,2.1,2.7,3.1c0,0.2,0,0.3,0,0.4H174z M178.4,234.7c0-1-0.4-2.4-2.1-2.4c-1.5,0-2.2,1.4-2.3,2.4
			H178.4z"/>
	</g>
	<g class="st6">
		<path class="st7" d="M186.8,231.9c0,0.5-0.1,1.1-0.1,1.8v4.1c0,1.8-0.4,2.7-0.9,3.2c-0.6,0.6-1.6,0.8-2.4,0.8
			c-0.8,0-1.7-0.2-2.2-0.6l0.2-0.6c0.5,0.3,1.2,0.6,2.1,0.6c1.5,0,2.5-0.8,2.5-2.8v-1h0c-0.4,0.7-1.2,1.3-2.4,1.3
			c-1.8,0-3-1.5-3-3.4c0-2.4,1.6-3.7,3.1-3.7c1.4,0,2.1,0.8,2.3,1.3h0l0-1.2H186.8z M186,234.5c0-0.2,0-0.5-0.1-0.7
			c-0.3-0.8-1-1.6-2.2-1.6c-1.5,0-2.5,1.2-2.5,3.1c0,1.6,0.8,2.9,2.5,2.9c0.9,0,1.8-0.6,2.1-1.6c0.1-0.2,0.1-0.5,0.1-0.7V234.5z"/>
	</g>
	<g class="st6">
		<path class="st7" d="M195.1,235.3c0,2.6-1.8,3.7-3.3,3.7c-1.8,0-3.2-1.4-3.2-3.6c0-2.4,1.6-3.7,3.3-3.7
			C193.8,231.7,195.1,233.2,195.1,235.3z M189.3,235.4c0,1.7,1.1,3,2.5,3c1.4,0,2.6-1.3,2.6-3.1c0-1.3-0.7-3-2.6-3
			C190.1,232.3,189.3,233.9,189.3,235.4z"/>
	</g>
	<g class="st6">
		<path class="st7" d="M202,238.5c-0.3,0.2-1,0.4-2,0.4c-2,0-3.3-1.4-3.3-3.6c0-2.2,1.5-3.7,3.6-3.7c0.9,0,1.6,0.2,1.8,0.4l-0.2,0.6
			c-0.3-0.2-0.9-0.4-1.7-0.4c-1.9,0-2.8,1.4-2.8,3.1c0,1.8,1.1,3,2.8,3c0.8,0,1.4-0.2,1.7-0.4L202,238.5z"/>
	</g>
	<g class="st6">
		<path class="st7" d="M204.6,229.9c0,0.3-0.2,0.6-0.6,0.6c-0.3,0-0.5-0.3-0.5-0.6c0-0.3,0.2-0.6,0.6-0.6
			C204.4,229.3,204.6,229.6,204.6,229.9z M203.7,238.8v-7h0.7v7H203.7z"/>
	</g>
	<g class="st6">
		<path class="st7" d="M212.8,235.3c0,2.6-1.8,3.7-3.3,3.7c-1.8,0-3.2-1.4-3.2-3.6c0-2.4,1.6-3.7,3.3-3.7
			C211.5,231.7,212.8,233.2,212.8,235.3z M206.9,235.4c0,1.7,1.1,3,2.5,3c1.4,0,2.6-1.3,2.6-3.1c0-1.3-0.7-3-2.6-3
			C207.8,232.3,206.9,233.9,206.9,235.4z"/>
	</g>
	<g class="st6">
		<path class="st7" d="M223.8,228.5v8.7c0,0.5,0,1.1,0.1,1.6h-0.6l0-1.3h0c-0.4,0.8-1.2,1.5-2.5,1.5c-1.7,0-3-1.4-3-3.5
			c0-2.3,1.4-3.8,3.1-3.8c1.2,0,2,0.6,2.3,1.2h0v-4.4H223.8z M223.2,234.6c0-0.2,0-0.4-0.1-0.6c-0.2-0.9-1.1-1.7-2.2-1.7
			c-1.5,0-2.5,1.3-2.5,3.1c0,1.6,0.8,3,2.4,3c1,0,1.9-0.7,2.2-1.8c0-0.2,0.1-0.4,0.1-0.6V234.6z"/>
	</g>
	<g class="st6">
		<path class="st7" d="M226.4,235.3c0,2.2,1.2,3.1,2.7,3.1c1,0,1.5-0.2,1.9-0.4l0.2,0.6c-0.3,0.1-1,0.4-2.2,0.4
			c-2,0-3.2-1.4-3.2-3.5c0-2.3,1.3-3.8,3.1-3.8c2.3,0,2.7,2.1,2.7,3.1c0,0.2,0,0.3,0,0.4H226.4z M230.9,234.7c0-1-0.4-2.4-2.1-2.4
			c-1.5,0-2.2,1.4-2.3,2.4H230.9z"/>
	</g>
	<g class="st6">
		<path class="st7" d="M238.7,238.8l-2.6-9.8h0.7l1.4,5.5c0.3,1.3,0.6,2.4,0.8,3.3h0c0.2-0.9,0.5-2.1,0.9-3.3l1.6-5.5h0.7l1.5,5.5
			c0.3,1.2,0.6,2.4,0.8,3.4h0c0.2-1.1,0.5-2.1,0.9-3.4l1.6-5.5h0.7l-2.9,9.8h-0.7l-1.5-5.6c-0.4-1.4-0.6-2.4-0.8-3.3h0
			c-0.2,0.9-0.4,1.9-0.9,3.3l-1.7,5.6H238.7z"/>
	</g>
	<g class="st6">
		<path class="st7" d="M252.7,238.8l-0.1-1h0c-0.3,0.5-1.1,1.2-2.2,1.2c-1.4,0-2-1-2-1.9c0-1.6,1.4-2.6,4.2-2.6v-0.2
			c0-0.7-0.1-2.1-1.8-2.1c-0.6,0-1.2,0.2-1.7,0.5l-0.2-0.5c0.6-0.4,1.4-0.6,2-0.6c2,0,2.4,1.5,2.4,2.8v2.7c0,0.6,0,1.1,0.1,1.7
			H252.7z M252.5,235.1c-1.5,0-3.5,0.2-3.5,1.9c0,1,0.7,1.5,1.4,1.5c1.2,0,1.8-0.7,2.1-1.4c0-0.1,0.1-0.3,0.1-0.4V235.1z"/>
	</g>
	<g class="st6">
		<path class="st7" d="M255.5,228.5h0.7v10.3h-0.7V228.5z"/>
	</g>
	<g class="st6">
		<path class="st7" d="M258.6,233.5c0-0.6,0-1.1-0.1-1.7h0.6l0.1,1.2h0c0.4-0.8,1.1-1.4,2.2-1.4c1,0,1.7,0.6,2,1.5h0
			c0.2-0.4,0.4-0.7,0.7-0.9c0.4-0.4,0.9-0.6,1.7-0.6c0.7,0,2.3,0.4,2.3,3v4.1h-0.7v-4c0-1.6-0.6-2.5-1.8-2.5c-0.9,0-1.6,0.6-1.8,1.4
			c-0.1,0.2-0.1,0.4-0.1,0.7v4.5H263v-4.3c0-1.3-0.6-2.2-1.7-2.2c-0.9,0-1.7,0.8-1.9,1.6c-0.1,0.2-0.1,0.4-0.1,0.7v4.3h-0.7V233.5z"
			/>
	</g>
	<g class="st6">
		<path class="st7" d="M274.3,238.8l-0.1-1h0c-0.3,0.5-1.1,1.2-2.2,1.2c-1.4,0-2-1-2-1.9c0-1.6,1.4-2.6,4.2-2.6v-0.2
			c0-0.7-0.1-2.1-1.8-2.1c-0.6,0-1.2,0.2-1.7,0.5l-0.2-0.5c0.6-0.4,1.4-0.6,2-0.6c2,0,2.4,1.5,2.4,2.8v2.7c0,0.6,0,1.1,0.1,1.7
			H274.3z M274.2,235.1c-1.5,0-3.5,0.2-3.5,1.9c0,1,0.7,1.5,1.4,1.5c1.2,0,1.8-0.7,2.1-1.4c0-0.1,0.1-0.3,0.1-0.4V235.1z"/>
	</g>
	<g class="st6">
		<path class="st7" d="M277.2,234c0-0.7,0-1.4-0.1-2.1h0.6l0,1.4h0c0.3-0.9,1-1.6,2-1.6c0.1,0,0.2,0,0.3,0v0.7c-0.1,0-0.2,0-0.3,0
			c-1,0-1.6,0.8-1.8,1.9c0,0.2-0.1,0.4-0.1,0.7v3.8h-0.7V234z"/>
	</g>
	<g class="st6">
		<path class="st7" d="M283,229.9v2h2v0.6h-2v4.5c0,0.9,0.3,1.5,1,1.5c0.4,0,0.6-0.1,0.8-0.1l0.1,0.5c-0.2,0.1-0.6,0.2-1,0.2
			c-0.5,0-0.9-0.2-1.2-0.5c-0.3-0.4-0.4-0.9-0.4-1.7v-4.4h-1.2v-0.6h1.2v-1.8L283,229.9z"/>
	</g>
	<g>
		<defs>
			<rect id="SVGID_5_" x="2.6" y="2.5" width="389.3" height="443"/>
		</defs>
		<clipPath id="SVGID_6_">
			<use xlink:href="#SVGID_5_"  style="overflow:visible;"/>
		</clipPath>
		<g class="st8">
			<g>
				<g>
					<defs>
						<rect id="SVGID_7_" x="81.9" y="92" width="315.8" height="83"/>
					</defs>
					<clipPath id="SVGID_8_">
						<use xlink:href="#SVGID_7_"  style="overflow:visible;"/>
					</clipPath>
					<g class="st9">
						<rect x="81.9" y="92" class="st3" width="315.8" height="83"/>
					</g>
				</g>
			</g>
			<path class="st4" d="M89.7,94.5h296.9c2.9,0,5.3,2.4,5.3,5.3v64.5c0,2.9-2.4,5.3-5.3,5.3H89.7c-2.9,0-5.3-2.4-5.3-5.3V99.8
				C84.4,96.9,86.8,94.5,89.7,94.5z"/>
			<path class="st10" d="M126.7,145.6c10.8,0,19.6-8.8,19.6-19.6s-8.8-19.6-19.6-19.6c-10.8,0-19.6,8.8-19.6,19.6l0,0
				C107.1,136.8,115.9,145.6,126.7,145.6"/>
		</g>
	</g>
	<g class="st6">
		<path class="st7" d="M175.7,122.2c-0.1-1.5-0.2-3.3-0.2-4.3h0c-0.3,1.1-0.8,2.2-1.3,3.6l-2.1,5.3h-0.5l-1.9-5.2
			c-0.6-1.5-1-2.7-1.3-3.8h0c0,1.1-0.1,2.8-0.2,4.5l-0.3,4.5h-0.7l0.7-9.8h0.8l2.1,5.6c0.4,1.2,0.8,2.2,1.1,3.2h0
			c0.3-0.9,0.6-1.9,1.1-3.2l2.2-5.6h0.8l0.7,9.8H176L175.7,122.2z"/>
	</g>
	<g class="st6">
		<path class="st7" d="M179.1,123.3c0,2.2,1.2,3.1,2.7,3.1c1,0,1.5-0.2,1.9-0.4l0.2,0.6c-0.3,0.1-1,0.4-2.2,0.4
			c-2,0-3.2-1.4-3.2-3.5c0-2.3,1.3-3.8,3.1-3.8c2.3,0,2.7,2.1,2.7,3.1c0,0.2,0,0.3,0,0.4H179.1z M183.5,122.7c0-1-0.4-2.4-2.1-2.4
			c-1.5,0-2.2,1.4-2.3,2.4H183.5z M183.2,116.9l-1.8,2h-0.5l1.3-2H183.2z"/>
	</g>
	<g class="st6">
		<path class="st7" d="M187.1,117.9v2h2v0.6h-2v4.5c0,0.9,0.3,1.5,1,1.5c0.4,0,0.6-0.1,0.8-0.1l0.1,0.5c-0.2,0.1-0.6,0.2-1,0.2
			c-0.5,0-0.9-0.2-1.2-0.5c-0.3-0.4-0.4-0.9-0.4-1.7v-4.4h-1.2v-0.6h1.2v-1.8L187.1,117.9z"/>
	</g>
	<g class="st6">
		<path class="st7" d="M190.7,122c0-0.7,0-1.4-0.1-2.1h0.6l0,1.4h0c0.3-0.9,1-1.6,2-1.6c0.1,0,0.2,0,0.3,0v0.7c-0.1,0-0.2,0-0.3,0
			c-1,0-1.6,0.8-1.8,1.9c0,0.2-0.1,0.4-0.1,0.7v3.8h-0.7V122z"/>
	</g>
	<g class="st6">
		<path class="st7" d="M196,117.9c0,0.3-0.2,0.6-0.6,0.6c-0.3,0-0.5-0.3-0.5-0.6c0-0.3,0.2-0.6,0.6-0.6
			C195.8,117.3,196,117.6,196,117.9z M195.1,126.8v-7h0.7v7H195.1z"/>
	</g>
	<g class="st6">
		<path class="st7" d="M203.1,126.5c-0.3,0.2-1,0.4-2,0.4c-2,0-3.3-1.4-3.3-3.6c0-2.2,1.5-3.7,3.6-3.7c0.9,0,1.6,0.2,1.8,0.4
			l-0.2,0.6c-0.3-0.2-0.9-0.4-1.7-0.4c-1.9,0-2.8,1.4-2.8,3.1c0,1.8,1.1,3,2.8,3c0.8,0,1.4-0.2,1.7-0.4L203.1,126.5z"/>
	</g>
	<g class="st6">
		<path class="st7" d="M208.7,126.8l-0.1-1h0c-0.3,0.5-1.1,1.2-2.2,1.2c-1.4,0-2-1-2-1.9c0-1.6,1.4-2.6,4.2-2.6v-0.2
			c0-0.7-0.1-2.1-1.8-2.1c-0.6,0-1.2,0.2-1.7,0.5l-0.2-0.5c0.6-0.4,1.4-0.6,2-0.6c2,0,2.4,1.5,2.4,2.8v2.7c0,0.6,0,1.1,0.1,1.7
			H208.7z M208.6,123.1c-1.5,0-3.5,0.2-3.5,1.9c0,1,0.7,1.5,1.4,1.5c1.2,0,1.8-0.7,2.1-1.4c0-0.1,0.1-0.3,0.1-0.4V123.1z"/>
	</g>
	<g class="st6">
		<path class="st7" d="M211.3,125.9c0.4,0.2,0.9,0.5,1.6,0.5c1.1,0,1.6-0.6,1.6-1.3c0-0.8-0.5-1.2-1.5-1.6c-1.1-0.4-1.8-1.1-1.8-1.9
			c0-1,0.8-1.9,2.1-1.9c0.6,0,1.2,0.2,1.5,0.4l-0.3,0.6c-0.2-0.2-0.7-0.4-1.4-0.4c-0.9,0-1.3,0.6-1.3,1.2c0,0.7,0.5,1,1.4,1.4
			c1.1,0.4,1.8,1,1.8,2.1c0,1.2-0.9,2-2.3,2c-0.7,0-1.3-0.2-1.8-0.5L211.3,125.9z"/>
	</g>
	<g class="st6">
		<path class="st7" d="M220.8,123.3c0,2.2,1.2,3.1,2.7,3.1c1,0,1.5-0.2,1.9-0.4l0.2,0.6c-0.3,0.1-1,0.4-2.2,0.4
			c-2,0-3.2-1.4-3.2-3.5c0-2.3,1.3-3.8,3.1-3.8c2.3,0,2.7,2.1,2.7,3.1c0,0.2,0,0.3,0,0.4H220.8z M225.2,122.7c0-1-0.4-2.4-2.1-2.4
			c-1.5,0-2.2,1.4-2.3,2.4H225.2z"/>
	</g>
	<g class="st6">
		<path class="st7" d="M168.4,137.9c0,0.3-0.2,0.6-0.6,0.6c-0.3,0-0.5-0.3-0.5-0.6c0-0.3,0.2-0.6,0.6-0.6
			C168.2,137.3,168.4,137.6,168.4,137.9z M167.5,146.8v-7h0.7v7H167.5z"/>
	</g>
	<g class="st6">
		<path class="st7" d="M170.6,141.5c0-0.6,0-1.1-0.1-1.7h0.6l0.1,1.3h0c0.4-0.8,1.2-1.4,2.4-1.4c0.7,0,2.4,0.3,2.4,2.9v4.2h-0.7
			v-4.1c0-1.3-0.5-2.4-1.9-2.4c-1,0-1.8,0.7-2.1,1.6c-0.1,0.2-0.1,0.4-0.1,0.6v4.3h-0.7V141.5z"/>
	</g>
	<g class="st6">
		<path class="st7" d="M184,136.5v8.7c0,0.5,0,1.1,0.1,1.6h-0.6l0-1.3h0c-0.4,0.8-1.2,1.5-2.5,1.5c-1.7,0-3-1.4-3-3.5
			c0-2.3,1.4-3.8,3.1-3.8c1.2,0,2,0.6,2.3,1.2h0v-4.4H184z M183.3,142.6c0-0.2,0-0.4-0.1-0.6c-0.2-0.9-1.1-1.7-2.2-1.7
			c-1.5,0-2.5,1.3-2.5,3.1c0,1.6,0.8,3,2.4,3c1,0,1.9-0.7,2.2-1.8c0-0.2,0.1-0.4,0.1-0.6V142.6z"/>
	</g>
	<g class="st6">
		<path class="st7" d="M187.3,137.9c0,0.3-0.2,0.6-0.6,0.6c-0.3,0-0.5-0.3-0.5-0.6c0-0.3,0.2-0.6,0.6-0.6
			C187.1,137.3,187.3,137.6,187.3,137.9z M186.4,146.8v-7h0.7v7H186.4z"/>
	</g>
	<g class="st6">
		<path class="st7" d="M194.4,146.5c-0.3,0.2-1,0.4-2,0.4c-2,0-3.3-1.4-3.3-3.6c0-2.2,1.5-3.7,3.6-3.7c0.9,0,1.6,0.2,1.8,0.4
			l-0.2,0.6c-0.3-0.2-0.9-0.4-1.7-0.4c-1.9,0-2.8,1.4-2.8,3.1c0,1.8,1.1,3,2.8,3c0.8,0,1.4-0.2,1.7-0.4L194.4,146.5z"/>
	</g>
	<g class="st6">
		<path class="st7" d="M200,146.8l-0.1-1h0c-0.3,0.5-1.1,1.2-2.2,1.2c-1.4,0-2-1-2-1.9c0-1.6,1.4-2.6,4.2-2.6v-0.2
			c0-0.7-0.1-2.1-1.8-2.1c-0.6,0-1.2,0.2-1.7,0.5l-0.2-0.5c0.6-0.4,1.4-0.6,2-0.6c2,0,2.4,1.5,2.4,2.8v2.7c0,0.6,0,1.1,0.1,1.7H200z
			 M199.9,143.1c-1.5,0-3.5,0.2-3.5,1.9c0,1,0.7,1.5,1.4,1.5c1.2,0,1.8-0.7,2.1-1.4c0-0.1,0.1-0.3,0.1-0.4V143.1z"/>
		<path class="st7" d="M208.5,136.5v8.7c0,0.5,0,1.1,0.1,1.6h-0.6l0-1.3h0c-0.4,0.8-1.2,1.5-2.5,1.5c-1.7,0-3-1.4-3-3.5
			c0-2.3,1.4-3.8,3.1-3.8c1.2,0,2,0.6,2.3,1.2h0v-4.4H208.5z M207.8,142.6c0-0.2,0-0.4-0.1-0.6c-0.2-0.9-1.1-1.7-2.2-1.7
			c-1.5,0-2.5,1.3-2.5,3.1c0,1.6,0.8,3,2.4,3c1,0,1.9-0.7,2.2-1.8c0-0.2,0.1-0.4,0.1-0.6V142.6z"/>
	</g>
	<g class="st6">
		<path class="st7" d="M216.9,143.3c0,2.6-1.8,3.7-3.3,3.7c-1.8,0-3.2-1.4-3.2-3.6c0-2.4,1.6-3.7,3.3-3.7
			C215.6,139.7,216.9,141.2,216.9,143.3z M211.1,143.4c0,1.7,1.1,3,2.5,3c1.4,0,2.6-1.3,2.6-3.1c0-1.3-0.7-3-2.6-3
			C211.9,140.3,211.1,141.9,211.1,143.4z"/>
	</g>
	<g class="st6">
		<path class="st7" d="M218.9,142c0-0.7,0-1.4-0.1-2.1h0.6l0,1.4h0c0.3-0.9,1-1.6,2-1.6c0.1,0,0.2,0,0.3,0v0.7c-0.1,0-0.2,0-0.3,0
			c-1,0-1.6,0.8-1.8,1.9c0,0.2-0.1,0.4-0.1,0.7v3.8h-0.7V142z"/>
	</g>
	<g class="st6">
		<path class="st7" d="M223.2,143.3c0,2.2,1.2,3.1,2.7,3.1c1,0,1.5-0.2,1.9-0.4l0.2,0.6c-0.3,0.1-1,0.4-2.2,0.4
			c-2,0-3.2-1.4-3.2-3.5c0-2.3,1.3-3.8,3.1-3.8c2.3,0,2.7,2.1,2.7,3.1c0,0.2,0,0.3,0,0.4H223.2z M227.7,142.7c0-1-0.4-2.4-2.1-2.4
			c-1.5,0-2.2,1.4-2.3,2.4H227.7z"/>
	</g>
	<g class="st6">
		<path class="st7" d="M230,145.9c0.4,0.2,0.9,0.5,1.6,0.5c1.1,0,1.6-0.6,1.6-1.3c0-0.8-0.5-1.2-1.5-1.6c-1.1-0.4-1.8-1.1-1.8-1.9
			c0-1,0.8-1.9,2.1-1.9c0.6,0,1.2,0.2,1.5,0.4l-0.3,0.6c-0.2-0.2-0.7-0.4-1.4-0.4c-0.9,0-1.3,0.6-1.3,1.2c0,0.7,0.5,1,1.4,1.4
			c1.1,0.4,1.8,1,1.8,2.1c0,1.2-0.9,2-2.3,2c-0.7,0-1.3-0.2-1.8-0.5L230,145.9z"/>
	</g>
	<g>
		<defs>
			<rect id="SVGID_9_" x="2.6" y="2.5" width="389.3" height="443"/>
		</defs>
		<clipPath id="SVGID_10_">
			<use xlink:href="#SVGID_9_"  style="overflow:visible;"/>
		</clipPath>
		<g class="st11">
			<g>
				<g>
					<defs>
						<rect id="SVGID_11_" x="81.9" y="276" width="315.8" height="83"/>
					</defs>
					<clipPath id="SVGID_12_">
						<use xlink:href="#SVGID_11_"  style="overflow:visible;"/>
					</clipPath>
					<g class="st12">
						<rect x="81.9" y="276" class="st3" width="315.8" height="83"/>
					</g>
				</g>
			</g>
			<path class="st4" d="M89.7,278.5h296.9c2.9,0,5.3,2.4,5.3,5.3v64.5c0,2.9-2.4,5.3-5.3,5.3H89.7c-2.9,0-5.3-2.4-5.3-5.3v-64.5
				C84.4,280.9,86.8,278.5,89.7,278.5z"/>
			<path class="st13" d="M126.7,329.6c10.8,0,19.6-8.8,19.6-19.6c0-10.8-8.8-19.6-19.6-19.6c-10.8,0-19.6,8.8-19.6,19.6
				C107.1,320.8,115.9,329.6,126.7,329.6"/>
		</g>
	</g>
	<g class="st6">
		<path class="st7" d="M167.5,301.2c0.6-0.1,1.4-0.2,2.1-0.2c1.3,0,2.1,0.3,2.6,0.8c0.4,0.4,0.7,1.1,0.7,1.7c0,1.3-0.8,2.2-1.9,2.6
			v0c0.8,0.2,1.3,1,1.5,2.1c0.3,1.5,0.5,2.2,0.7,2.6h-0.7c-0.1-0.3-0.4-1.1-0.6-2.4c-0.3-1.4-0.9-2-2.2-2.1h-1.5v4.5h-0.7V301.2z
			 M168.2,305.8h1.6c1.5,0,2.5-0.8,2.5-2.1c0-1.5-1.1-2.1-2.6-2.1c-0.7,0-1.2,0.1-1.4,0.1V305.8z"/>
	</g>
	<g class="st6">
		<path class="st7" d="M175.1,307.3c0,2.2,1.2,3.1,2.7,3.1c1,0,1.5-0.2,1.9-0.4l0.2,0.6c-0.3,0.1-1,0.4-2.2,0.4
			c-2,0-3.2-1.4-3.2-3.5c0-2.3,1.3-3.8,3.1-3.8c2.3,0,2.7,2.1,2.7,3.1c0,0.2,0,0.3,0,0.4H175.1z M179.5,306.7c0-1-0.4-2.4-2.1-2.4
			c-1.5,0-2.2,1.4-2.3,2.4H179.5z"/>
	</g>
	<g class="st6">
		<path class="st7" d="M182.1,306.1c0-0.9,0-1.6-0.1-2.2h0.7l0.1,1.3h0c0.5-0.9,1.3-1.5,2.6-1.5c1.8,0,3,1.5,3,3.5
			c0,2.5-1.5,3.8-3.2,3.8c-1,0-1.9-0.4-2.4-1.3h0v4h-0.7V306.1z M182.8,308.1c0,0.2,0,0.4,0.1,0.6c0.3,1.1,1.2,1.8,2.3,1.8
			c1.6,0,2.5-1.3,2.5-3.1c0-1.6-0.9-3-2.4-3c-1,0-2,0.7-2.3,1.9c0,0.2-0.1,0.4-0.1,0.6V308.1z"/>
	</g>
	<g class="st6">
		<path class="st7" d="M196.3,307.3c0,2.6-1.8,3.7-3.3,3.7c-1.8,0-3.2-1.4-3.2-3.6c0-2.4,1.6-3.7,3.3-3.7
			C195,303.7,196.3,305.2,196.3,307.3z M190.5,307.4c0,1.7,1.1,3,2.5,3c1.4,0,2.6-1.3,2.6-3.1c0-1.3-0.7-3-2.6-3
			C191.3,304.3,190.5,305.9,190.5,307.4z"/>
	</g>
	<g class="st6">
		<path class="st7" d="M198.3,306c0-0.7,0-1.4-0.1-2.1h0.6l0,1.4h0c0.3-0.9,1-1.6,2-1.6c0.1,0,0.2,0,0.3,0v0.7c-0.1,0-0.2,0-0.3,0
			c-1,0-1.6,0.8-1.8,1.9c0,0.2-0.1,0.4-0.1,0.7v3.8h-0.7V306z"/>
	</g>
	<g class="st6">
		<path class="st7" d="M204.1,301.9v2h2v0.6h-2v4.5c0,0.9,0.3,1.5,1,1.5c0.4,0,0.6-0.1,0.8-0.1l0.1,0.5c-0.2,0.1-0.6,0.2-1,0.2
			c-0.5,0-0.9-0.2-1.2-0.5c-0.3-0.4-0.4-0.9-0.4-1.7v-4.4h-1.2v-0.6h1.2v-1.8L204.1,301.9z"/>
	</g>
	<g class="st6">
		<path class="st7" d="M207.7,307.3c0,2.2,1.2,3.1,2.7,3.1c1,0,1.5-0.2,1.9-0.4l0.2,0.6c-0.3,0.1-1,0.4-2.2,0.4
			c-2,0-3.2-1.4-3.2-3.5c0-2.3,1.3-3.8,3.1-3.8c2.3,0,2.7,2.1,2.7,3.1c0,0.2,0,0.3,0,0.4H207.7z M212.1,306.7c0-1-0.4-2.4-2.1-2.4
			c-1.5,0-2.2,1.4-2.3,2.4H212.1z"/>
	</g>
	<g class="st6">
		<path class="st7" d="M214.4,309.9c0.4,0.2,0.9,0.5,1.6,0.5c1.1,0,1.6-0.6,1.6-1.3c0-0.8-0.5-1.2-1.5-1.6c-1.1-0.4-1.8-1.1-1.8-1.9
			c0-1,0.8-1.9,2.1-1.9c0.6,0,1.2,0.2,1.5,0.4l-0.3,0.6c-0.2-0.2-0.7-0.4-1.4-0.4c-0.9,0-1.3,0.6-1.3,1.2c0,0.7,0.5,1,1.4,1.4
			c1.1,0.4,1.8,1,1.8,2.1c0,1.2-0.9,2-2.3,2c-0.7,0-1.3-0.2-1.8-0.5L214.4,309.9z"/>
	</g>
	<g class="st6">
		<path class="st7" d="M219.4,312.7c0.2-0.6,0.6-2.2,0.8-3.1l0.9-0.1c-0.3,1.1-0.9,2.7-1.1,3.1L219.4,312.7z"/>
	</g>
	<g class="st6">
		<path class="st7" d="M232.1,300.5v8.7c0,0.5,0,1.1,0.1,1.6h-0.6l0-1.3h0c-0.4,0.8-1.2,1.5-2.5,1.5c-1.7,0-3-1.4-3-3.5
			c0-2.3,1.4-3.8,3.1-3.8c1.2,0,2,0.6,2.3,1.2h0v-4.4H232.1z M231.4,306.6c0-0.2,0-0.4-0.1-0.6c-0.2-0.9-1.1-1.7-2.2-1.7
			c-1.5,0-2.5,1.3-2.5,3.1c0,1.6,0.8,3,2.4,3c1,0,1.9-0.7,2.2-1.8c0-0.2,0.1-0.4,0.1-0.6V306.6z"/>
	</g>
	<g class="st6">
		<path class="st7" d="M235.4,301.9c0,0.3-0.2,0.6-0.6,0.6c-0.3,0-0.5-0.3-0.5-0.6c0-0.3,0.2-0.6,0.6-0.6
			C235.1,301.3,235.4,301.6,235.4,301.9z M234.5,310.8v-7h0.7v7H234.5z"/>
	</g>
	<g class="st6">
		<path class="st7" d="M241.3,310.8l-0.1-1h0c-0.3,0.5-1.1,1.2-2.2,1.2c-1.4,0-2-1-2-1.9c0-1.6,1.4-2.6,4.2-2.6v-0.2
			c0-0.7-0.1-2.1-1.8-2.1c-0.6,0-1.2,0.2-1.7,0.5l-0.2-0.5c0.6-0.4,1.4-0.6,2-0.6c2,0,2.4,1.5,2.4,2.8v2.7c0,0.6,0,1.1,0.1,1.7
			H241.3z M241.1,307.1c-1.5,0-3.5,0.2-3.5,1.9c0,1,0.7,1.5,1.4,1.5c1.2,0,1.8-0.7,2.1-1.4c0-0.1,0.1-0.3,0.1-0.4V307.1z
			 M241.3,300.9l-1.8,2H239l1.3-2H241.3z"/>
	</g>
	<g class="st6">
		<path class="st7" d="M244.1,300.5h0.7v10.3h-0.7V300.5z"/>
	</g>
	<g class="st6">
		<path class="st7" d="M253.3,307.3c0,2.6-1.8,3.7-3.3,3.7c-1.8,0-3.2-1.4-3.2-3.6c0-2.4,1.6-3.7,3.3-3.7
			C252,303.7,253.3,305.2,253.3,307.3z M247.5,307.4c0,1.7,1.1,3,2.5,3c1.4,0,2.6-1.3,2.6-3.1c0-1.3-0.7-3-2.6-3
			C248.3,304.3,247.5,305.9,247.5,307.4z"/>
	</g>
	<g class="st6">
		<path class="st7" d="M260.9,303.9c0,0.5-0.1,1.1-0.1,1.8v4.1c0,1.8-0.4,2.7-0.9,3.2c-0.6,0.6-1.6,0.8-2.4,0.8
			c-0.8,0-1.7-0.2-2.2-0.6l0.2-0.6c0.5,0.3,1.2,0.6,2.1,0.6c1.5,0,2.5-0.8,2.5-2.8v-1h0c-0.4,0.7-1.2,1.3-2.4,1.3
			c-1.8,0-3-1.5-3-3.4c0-2.4,1.6-3.7,3.1-3.7c1.4,0,2.1,0.8,2.3,1.3h0l0-1.2H260.9z M260.2,306.5c0-0.2,0-0.5-0.1-0.7
			c-0.3-0.8-1-1.6-2.2-1.6c-1.5,0-2.5,1.2-2.5,3.1c0,1.6,0.8,2.9,2.5,2.9c0.9,0,1.8-0.6,2.1-1.6c0.1-0.2,0.1-0.5,0.1-0.7V306.5z"/>
	</g>
	<g class="st6">
		<path class="st7" d="M269.3,307.3c0,2.6-1.8,3.7-3.3,3.7c-1.8,0-3.2-1.4-3.2-3.6c0-2.4,1.6-3.7,3.3-3.7
			C268,303.7,269.3,305.2,269.3,307.3z M263.5,307.4c0,1.7,1.1,3,2.5,3c1.4,0,2.6-1.3,2.6-3.1c0-1.3-0.7-3-2.6-3
			C264.3,304.3,263.5,305.9,263.5,307.4z"/>
	</g>
	<g class="st6">
		<path class="st7" d="M167.2,323.9l1.8,4.6c0.2,0.5,0.4,1,0.5,1.5h0c0.1-0.4,0.3-1,0.5-1.5l1.7-4.5h0.7l-2.1,5.2
			c-0.8,2.2-1.4,3.5-2.3,4.2c-0.6,0.5-1,0.7-1.2,0.7l-0.2-0.6c0.3-0.1,0.8-0.4,1.2-0.8c0.3-0.3,0.8-0.9,1.2-1.7
			c0.1-0.2,0.1-0.2,0.1-0.3s0-0.2-0.1-0.3l-2.6-6.5H167.2z"/>
	</g>
	<g class="st6">
		<path class="st7" d="M181.4,330.8l-0.1-1h0c-0.3,0.5-1.1,1.2-2.2,1.2c-1.4,0-2-1-2-1.9c0-1.6,1.4-2.6,4.2-2.6v-0.2
			c0-0.7-0.1-2.1-1.8-2.1c-0.6,0-1.2,0.2-1.7,0.5l-0.2-0.5c0.6-0.4,1.4-0.6,2-0.6c2,0,2.4,1.5,2.4,2.8v2.7c0,0.6,0,1.1,0.1,1.7
			H181.4z M181.3,327.1c-1.5,0-3.5,0.2-3.5,1.9c0,1,0.7,1.5,1.4,1.5c1.2,0,1.8-0.7,2.1-1.4c0-0.1,0.1-0.3,0.1-0.4V327.1z"/>
	</g>
	<g class="st6">
		<path class="st7" d="M184.3,326.1c0-0.9,0-1.6-0.1-2.2h0.7l0.1,1.3h0c0.5-0.9,1.3-1.5,2.6-1.5c1.8,0,3,1.5,3,3.5
			c0,2.5-1.5,3.8-3.2,3.8c-1,0-1.9-0.4-2.4-1.3h0v4h-0.7V326.1z M184.9,328.1c0,0.2,0,0.4,0.1,0.6c0.3,1.1,1.2,1.8,2.3,1.8
			c1.6,0,2.5-1.3,2.5-3.1c0-1.6-0.9-3-2.4-3c-1,0-2,0.7-2.3,1.9c0,0.2-0.1,0.4-0.1,0.6V328.1z"/>
	</g>
	<g class="st6">
		<path class="st7" d="M192.4,326c0-0.7,0-1.4-0.1-2.1h0.6l0,1.4h0c0.3-0.9,1-1.6,2-1.6c0.1,0,0.2,0,0.3,0v0.7c-0.1,0-0.2,0-0.3,0
			c-1,0-1.6,0.8-1.8,1.9c0,0.2-0.1,0.4-0.1,0.7v3.8h-0.7V326z"/>
	</g>
	<g class="st6">
		<path class="st7" d="M196.8,327.3c0,2.2,1.2,3.1,2.7,3.1c1,0,1.5-0.2,1.9-0.4l0.2,0.6c-0.3,0.1-1,0.4-2.2,0.4
			c-2,0-3.2-1.4-3.2-3.5c0-2.3,1.3-3.8,3.1-3.8c2.3,0,2.7,2.1,2.7,3.1c0,0.2,0,0.3,0,0.4H196.8z M201.2,326.7c0-1-0.4-2.4-2.1-2.4
			c-1.5,0-2.2,1.4-2.3,2.4H201.2z"/>
	</g>
	<g class="st6">
		<path class="st7" d="M203.8,325.5c0-0.6,0-1.1-0.1-1.7h0.6l0.1,1.3h0c0.4-0.8,1.2-1.4,2.4-1.4c0.7,0,2.4,0.3,2.4,2.9v4.2h-0.7
			v-4.1c0-1.3-0.5-2.4-1.9-2.4c-1,0-1.8,0.7-2.1,1.6c-0.1,0.2-0.1,0.4-0.1,0.6v4.3h-0.7V325.5z"/>
	</g>
	<g class="st6">
		<path class="st7" d="M217.2,320.5v8.7c0,0.5,0,1.1,0.1,1.6h-0.6l0-1.3h0c-0.4,0.8-1.2,1.5-2.5,1.5c-1.7,0-3-1.4-3-3.5
			c0-2.3,1.4-3.8,3.1-3.8c1.2,0,2,0.6,2.3,1.2h0v-4.4H217.2z M216.6,326.6c0-0.2,0-0.4-0.1-0.6c-0.2-0.9-1.1-1.7-2.2-1.7
			c-1.5,0-2.5,1.3-2.5,3.1c0,1.6,0.8,3,2.4,3c1,0,1.9-0.7,2.2-1.8c0-0.2,0.1-0.4,0.1-0.6V326.6z"/>
	</g>
	<g class="st6">
		<path class="st7" d="M220.6,321.9c0,0.3-0.2,0.6-0.6,0.6c-0.3,0-0.5-0.3-0.5-0.6c0-0.3,0.2-0.6,0.6-0.6
			C220.3,321.3,220.6,321.6,220.6,321.9z M219.7,330.8v-7h0.7v7H219.7z"/>
	</g>
	<g class="st6">
		<path class="st7" d="M221.9,330.4l3.7-4.9c0.3-0.3,0.5-0.7,0.8-1v0h-4.2v-0.6h5.1l0,0.5l-3.7,4.9c-0.2,0.3-0.5,0.6-0.7,1v0h4.5
			v0.6h-5.4V330.4z"/>
	</g>
	<g class="st6">
		<path class="st7" d="M232.8,330.8l-0.1-1h0c-0.3,0.5-1.1,1.2-2.2,1.2c-1.4,0-2-1-2-1.9c0-1.6,1.4-2.6,4.2-2.6v-0.2
			c0-0.7-0.1-2.1-1.8-2.1c-0.6,0-1.2,0.2-1.7,0.5l-0.2-0.5c0.6-0.4,1.4-0.6,2-0.6c2,0,2.4,1.5,2.4,2.8v2.7c0,0.6,0,1.1,0.1,1.7
			H232.8z M232.6,327.1c-1.5,0-3.5,0.2-3.5,1.9c0,1,0.7,1.5,1.4,1.5c1.2,0,1.8-0.7,2.1-1.4c0-0.1,0.1-0.3,0.1-0.4V327.1z"/>
	</g>
	<g class="st6">
		<path class="st7" d="M233.7,333.3c0.6,0,1.1-0.2,1.4-0.6c0.4-0.4,0.5-1,0.5-2.8v-6h0.7v6.5c0,1.2-0.1,2.1-0.7,2.8
			c-0.5,0.6-1.4,0.7-1.8,0.8L233.7,333.3z M236.6,321.9c0,0.3-0.2,0.6-0.6,0.6c-0.3,0-0.5-0.3-0.5-0.6c0-0.3,0.2-0.6,0.6-0.6
			C236.4,321.3,236.6,321.6,236.6,321.9z"/>
	</g>
	<g class="st6">
		<path class="st7" d="M238.9,327.3c0,2.2,1.2,3.1,2.7,3.1c1,0,1.5-0.2,1.9-0.4l0.2,0.6c-0.3,0.1-1,0.4-2.2,0.4
			c-2,0-3.2-1.4-3.2-3.5c0-2.3,1.3-3.8,3.1-3.8c2.3,0,2.7,2.1,2.7,3.1c0,0.2,0,0.3,0,0.4H238.9z M243.4,326.7c0-1-0.4-2.4-2.1-2.4
			c-1.5,0-2.2,1.4-2.3,2.4H243.4z"/>
	</g>
	<g>
		<defs>
			<rect id="SVGID_13_" x="2.6" y="2.5" width="389.3" height="443"/>
		</defs>
		<clipPath id="SVGID_14_">
			<use xlink:href="#SVGID_13_"  style="overflow:visible;"/>
		</clipPath>
		<g class="st14">
			<g>
				<g>
					<defs>
						<rect id="SVGID_15_" width="315.8" height="83"/>
					</defs>
					<clipPath id="SVGID_16_">
						<use xlink:href="#SVGID_15_"  style="overflow:visible;"/>
					</clipPath>
					<g class="st15">
						<rect class="st3" width="315.8" height="83"/>
					</g>
				</g>
			</g>
			<path class="st4" d="M7.9,2.5h296.9c2.9,0,5.3,2.4,5.3,5.3v64.5c0,2.9-2.4,5.3-5.3,5.3H7.9c-2.9,0-5.3-2.4-5.3-5.3V7.8
				C2.6,4.9,4.9,2.5,7.9,2.5z"/>
			<path class="st16" d="M44.9,53.6c10.8,0,19.6-8.8,19.6-19.6s-8.8-19.6-19.6-19.6S25.3,23.2,25.3,34C25.3,44.8,34,53.6,44.9,53.6"
				/>
		</g>
	</g>
	<g class="st6">
		<path class="st7" d="M85.6,25.2c0.6-0.1,1.3-0.2,2.1-0.2c1.2,0,2,0.3,2.6,0.8c0.5,0.4,0.8,1.1,0.8,1.9c0,0.8-0.2,1.5-0.7,1.9
			c-0.6,0.7-1.7,1.1-2.9,1.1c-0.4,0-0.8,0-1.2-0.1v4.2h-0.7V25.2z M86.3,30.1c0.3,0.1,0.8,0.1,1.2,0.1c1.7,0,2.8-0.9,2.8-2.4
			c0-1.5-1.1-2.2-2.7-2.2c-0.6,0-1.1,0.1-1.4,0.1V30.1z"/>
	</g>
	<g class="st6">
		<path class="st7" d="M92.9,30c0-0.7,0-1.4-0.1-2.1h0.6l0,1.4h0c0.3-0.9,1-1.6,2-1.6c0.1,0,0.2,0,0.3,0v0.7c-0.1,0-0.2,0-0.3,0
			c-1,0-1.6,0.8-1.8,1.9c0,0.2-0.1,0.4-0.1,0.7v3.8h-0.7V30z"/>
	</g>
	<g class="st6">
		<path class="st7" d="M98.2,25.9c0,0.3-0.2,0.6-0.6,0.6c-0.3,0-0.5-0.3-0.5-0.6c0-0.3,0.2-0.6,0.6-0.6C98,25.3,98.2,25.6,98.2,25.9
			z M97.3,34.8v-7H98v7H97.3z"/>
	</g>
	<g class="st6">
		<path class="st7" d="M106.4,31.3c0,2.6-1.8,3.7-3.3,3.7c-1.8,0-3.2-1.4-3.2-3.6c0-2.4,1.6-3.7,3.3-3.7
			C105.1,27.7,106.4,29.2,106.4,31.3z M100.5,31.4c0,1.7,1.1,3,2.5,3c1.4,0,2.6-1.3,2.6-3.1c0-1.3-0.7-3-2.6-3
			C101.4,28.3,100.5,29.9,100.5,31.4z"/>
		<path class="st7" d="M108.3,30c0-0.7,0-1.4-0.1-2.1h0.6l0,1.4h0c0.3-0.9,1-1.6,2-1.6c0.1,0,0.2,0,0.3,0v0.7c-0.1,0-0.2,0-0.3,0
			c-1,0-1.6,0.8-1.8,1.9c0,0.2-0.1,0.4-0.1,0.7v3.8h-0.7V30z"/>
	</g>
	<g class="st6">
		<path class="st7" d="M113.6,25.9c0,0.3-0.2,0.6-0.6,0.6c-0.3,0-0.5-0.3-0.5-0.6c0-0.3,0.2-0.6,0.6-0.6
			C113.4,25.3,113.6,25.6,113.6,25.9z M112.7,34.8v-7h0.7v7H112.7z"/>
	</g>
	<g class="st6">
		<path class="st7" d="M121.4,24.5v8.7c0,0.5,0,1.1,0.1,1.6h-0.6l0-1.3h0c-0.4,0.8-1.2,1.5-2.5,1.5c-1.7,0-3-1.4-3-3.5
			c0-2.3,1.4-3.8,3.1-3.8c1.2,0,2,0.6,2.3,1.2h0v-4.4H121.4z M120.7,30.6c0-0.2,0-0.4-0.1-0.6c-0.2-0.9-1.1-1.7-2.2-1.7
			c-1.5,0-2.5,1.3-2.5,3.1c0,1.6,0.8,3,2.4,3c1,0,1.9-0.7,2.2-1.8c0-0.2,0.1-0.4,0.1-0.6V30.6z"/>
	</g>
	<g class="st6">
		<path class="st7" d="M127.6,34.8l-0.1-1h0c-0.3,0.5-1.1,1.2-2.2,1.2c-1.4,0-2-1-2-1.9c0-1.6,1.4-2.6,4.2-2.6v-0.2
			c0-0.7-0.1-2.1-1.8-2.1c-0.6,0-1.2,0.2-1.7,0.5l-0.2-0.5c0.6-0.4,1.4-0.6,2-0.6c2,0,2.4,1.5,2.4,2.8v2.7c0,0.6,0,1.1,0.1,1.7
			H127.6z M127.5,31.1c-1.5,0-3.5,0.2-3.5,1.9c0,1,0.7,1.5,1.4,1.5c1.2,0,1.8-0.7,2.1-1.4c0-0.1,0.1-0.3,0.1-0.4V31.1z"/>
		<path class="st7" d="M136.1,24.5v8.7c0,0.5,0,1.1,0.1,1.6h-0.6l0-1.3h0c-0.4,0.8-1.2,1.5-2.5,1.5c-1.7,0-3-1.4-3-3.5
			c0-2.3,1.4-3.8,3.1-3.8c1.2,0,2,0.6,2.3,1.2h0v-4.4H136.1z M135.4,30.6c0-0.2,0-0.4-0.1-0.6c-0.2-0.9-1.1-1.7-2.2-1.7
			c-1.5,0-2.5,1.3-2.5,3.1c0,1.6,0.8,3,2.4,3c1,0,1.9-0.7,2.2-1.8c0-0.2,0.1-0.4,0.1-0.6V30.6z"/>
	</g>
	<g class="st6">
		<path class="st7" d="M138.7,31.3c0,2.2,1.2,3.1,2.7,3.1c1,0,1.5-0.2,1.9-0.4l0.2,0.6c-0.3,0.1-1,0.4-2.2,0.4c-2,0-3.2-1.4-3.2-3.5
			c0-2.3,1.3-3.8,3.1-3.8c2.3,0,2.7,2.1,2.7,3.1c0,0.2,0,0.3,0,0.4H138.7z M143.2,30.7c0-1-0.4-2.4-2.1-2.4c-1.5,0-2.2,1.4-2.3,2.4
			H143.2z"/>
	</g>
	<g class="st6">
		<path class="st7" d="M145.5,33.9c0.4,0.2,0.9,0.5,1.6,0.5c1.1,0,1.6-0.6,1.6-1.3c0-0.8-0.5-1.2-1.5-1.6c-1.1-0.4-1.8-1.1-1.8-1.9
			c0-1,0.8-1.9,2.1-1.9c0.6,0,1.2,0.2,1.5,0.4l-0.3,0.6c-0.2-0.2-0.7-0.4-1.4-0.4c-0.9,0-1.3,0.6-1.3,1.2c0,0.7,0.5,1,1.4,1.4
			c1.1,0.4,1.8,1,1.8,2.1c0,1.2-0.9,2-2.3,2c-0.7,0-1.3-0.2-1.8-0.5L145.5,33.9z"/>
	</g>
	<g class="st6">
		<path class="st7" d="M150.5,36.7c0.2-0.6,0.6-2.2,0.8-3.1l0.9-0.1c-0.3,1.1-0.9,2.7-1.1,3.1L150.5,36.7z"/>
	</g>
	<g class="st6">
		<path class="st7" d="M162.4,34.5c-0.3,0.2-1,0.4-2,0.4c-2,0-3.3-1.4-3.3-3.6c0-2.2,1.5-3.7,3.6-3.7c0.9,0,1.6,0.2,1.8,0.4
			l-0.2,0.6c-0.3-0.2-0.9-0.4-1.7-0.4c-1.9,0-2.8,1.4-2.8,3.1c0,1.8,1.1,3,2.8,3c0.8,0,1.4-0.2,1.7-0.4L162.4,34.5z"/>
	</g>
	<g class="st6">
		<path class="st7" d="M169.9,31.3c0,2.6-1.8,3.7-3.3,3.7c-1.8,0-3.2-1.4-3.2-3.6c0-2.4,1.6-3.7,3.3-3.7
			C168.6,27.7,169.9,29.2,169.9,31.3z M164,31.4c0,1.7,1.1,3,2.5,3c1.4,0,2.6-1.3,2.6-3.1c0-1.3-0.7-3-2.6-3
			C164.9,28.3,164,29.9,164,31.4z"/>
	</g>
	<g class="st6">
		<path class="st7" d="M171.8,29.5c0-0.6,0-1.1-0.1-1.7h0.6l0.1,1.2h0c0.4-0.8,1.1-1.4,2.2-1.4c1,0,1.7,0.6,2,1.5h0
			c0.2-0.4,0.4-0.7,0.7-0.9c0.4-0.4,0.9-0.6,1.7-0.6c0.7,0,2.3,0.4,2.3,3v4.1h-0.7v-4c0-1.6-0.6-2.5-1.8-2.5c-0.9,0-1.6,0.6-1.8,1.4
			c-0.1,0.2-0.1,0.4-0.1,0.7v4.5h-0.7v-4.3c0-1.3-0.6-2.2-1.7-2.2c-0.9,0-1.7,0.8-1.9,1.6c-0.1,0.2-0.1,0.4-0.1,0.7v4.3h-0.7V29.5z"
			/>
	</g>
	<g class="st6">
		<path class="st7" d="M183.7,30.1c0-0.9,0-1.6-0.1-2.2h0.7l0.1,1.3h0c0.5-0.9,1.3-1.5,2.6-1.5c1.8,0,3,1.5,3,3.5
			c0,2.5-1.5,3.8-3.2,3.8c-1,0-1.9-0.4-2.4-1.3h0v4h-0.7V30.1z M184.4,32.1c0,0.2,0,0.4,0.1,0.6c0.3,1.1,1.2,1.8,2.3,1.8
			c1.6,0,2.5-1.3,2.5-3.1c0-1.6-0.9-3-2.4-3c-1,0-2,0.7-2.3,1.9c0,0.2-0.1,0.4-0.1,0.6V32.1z"/>
	</g>
	<g class="st6">
		<path class="st7" d="M191.9,30c0-0.7,0-1.4-0.1-2.1h0.6l0,1.4h0c0.3-0.9,1-1.6,2-1.6c0.1,0,0.2,0,0.3,0v0.7c-0.1,0-0.2,0-0.3,0
			c-1,0-1.6,0.8-1.8,1.9c0,0.2-0.1,0.4-0.1,0.7v3.8h-0.7V30z"/>
	</g>
	<g class="st6">
		<path class="st7" d="M202.1,31.3c0,2.6-1.8,3.7-3.3,3.7c-1.8,0-3.2-1.4-3.2-3.6c0-2.4,1.6-3.7,3.3-3.7
			C200.8,27.7,202.1,29.2,202.1,31.3z M196.2,31.4c0,1.7,1.1,3,2.5,3c1.4,0,2.6-1.3,2.6-3.1c0-1.3-0.7-3-2.6-3
			C197.1,28.3,196.2,29.9,196.2,31.4z"/>
	</g>
	<g class="st6">
		<path class="st7" d="M204,29.5c0-0.6,0-1.1-0.1-1.7h0.6l0.1,1.2h0c0.4-0.8,1.1-1.4,2.2-1.4c1,0,1.7,0.6,2,1.5h0
			c0.2-0.4,0.4-0.7,0.7-0.9c0.4-0.4,0.9-0.6,1.7-0.6c0.7,0,2.3,0.4,2.3,3v4.1h-0.7v-4c0-1.6-0.6-2.5-1.8-2.5c-0.9,0-1.6,0.6-1.8,1.4
			c-0.1,0.2-0.1,0.4-0.1,0.7v4.5h-0.7v-4.3c0-1.3-0.6-2.2-1.7-2.2c-0.9,0-1.7,0.8-1.9,1.6c-0.1,0.2-0.1,0.4-0.1,0.7v4.3H204V29.5z"
			/>
	</g>
	<g class="st6">
		<path class="st7" d="M216.8,25.9c0,0.3-0.2,0.6-0.6,0.6c-0.3,0-0.5-0.3-0.5-0.6c0-0.3,0.2-0.6,0.6-0.6
			C216.6,25.3,216.8,25.6,216.8,25.9z M215.9,34.8v-7h0.7v7H215.9z"/>
	</g>
	<g class="st6">
		<path class="st7" d="M218.6,33.9c0.4,0.2,0.9,0.5,1.6,0.5c1.1,0,1.6-0.6,1.6-1.3c0-0.8-0.5-1.2-1.5-1.6c-1.1-0.4-1.8-1.1-1.8-1.9
			c0-1,0.8-1.9,2.1-1.9c0.6,0,1.2,0.2,1.5,0.4l-0.3,0.6c-0.2-0.2-0.7-0.4-1.4-0.4c-0.9,0-1.3,0.6-1.3,1.2c0,0.7,0.5,1,1.4,1.4
			c1.1,0.4,1.8,1,1.8,2.1c0,1.2-0.9,2-2.3,2c-0.7,0-1.3-0.2-1.8-0.5L218.6,33.9z"/>
	</g>
	<g class="st6">
		<path class="st7" d="M230.4,31.3c0,2.6-1.8,3.7-3.3,3.7c-1.8,0-3.2-1.4-3.2-3.6c0-2.4,1.6-3.7,3.3-3.7
			C229.1,27.7,230.4,29.2,230.4,31.3z M224.6,31.4c0,1.7,1.1,3,2.5,3c1.4,0,2.6-1.3,2.6-3.1c0-1.3-0.7-3-2.6-3
			C225.4,28.3,224.6,29.9,224.6,31.4z"/>
	</g>
	<g class="st6">
		<path class="st7" d="M232,33.9c0.4,0.2,0.9,0.5,1.6,0.5c1.1,0,1.6-0.6,1.6-1.3c0-0.8-0.5-1.2-1.5-1.6c-1.1-0.4-1.8-1.1-1.8-1.9
			c0-1,0.8-1.9,2.1-1.9c0.6,0,1.2,0.2,1.5,0.4l-0.3,0.6c-0.2-0.2-0.7-0.4-1.4-0.4c-0.9,0-1.3,0.6-1.3,1.2c0,0.7,0.5,1,1.4,1.4
			c1.1,0.4,1.8,1,1.8,2.1c0,1.2-0.9,2-2.3,2c-0.7,0-1.3-0.2-1.8-0.5L232,33.9z"/>
	</g>
	<g class="st6">
		<path class="st7" d="M241.2,27.9l1.8,4.6c0.2,0.5,0.4,1,0.5,1.5h0c0.1-0.4,0.3-1,0.5-1.5l1.7-4.5h0.7l-2.1,5.2
			c-0.8,2.2-1.4,3.5-2.3,4.2c-0.6,0.5-1,0.7-1.2,0.7l-0.2-0.6c0.3-0.1,0.8-0.4,1.2-0.8c0.3-0.3,0.8-0.9,1.2-1.7
			c0.1-0.2,0.1-0.2,0.1-0.3s0-0.2-0.1-0.3l-2.6-6.5H241.2z"/>
	</g>
	<g class="st6">
		<path class="st7" d="M91.6,51.3c0,2.6-1.8,3.7-3.3,3.7c-1.8,0-3.2-1.4-3.2-3.6c0-2.4,1.6-3.7,3.3-3.7
			C90.3,47.7,91.6,49.2,91.6,51.3z M85.7,51.4c0,1.7,1.1,3,2.5,3c1.4,0,2.6-1.3,2.6-3.1c0-1.3-0.7-3-2.6-3
			C86.6,48.3,85.7,49.9,85.7,51.4z"/>
	</g>
	<g class="st6">
		<path class="st7" d="M93.4,54.8c0-0.5,0.1-1.1,0.1-1.6v-8.7h0.7v4.6h0c0.5-0.9,1.3-1.4,2.6-1.4c1.8,0,3,1.5,3,3.6
			c0,2.5-1.6,3.7-3.1,3.7c-1.1,0-1.9-0.4-2.5-1.4h0l0,1.3H93.4z M94.2,52.2c0,0.2,0,0.3,0.1,0.5c0.3,1.1,1.2,1.8,2.3,1.8
			c1.6,0,2.5-1.3,2.5-3.1c0-1.6-0.9-3-2.4-3c-1,0-2,0.7-2.3,1.9c0,0.2-0.1,0.4-0.1,0.6V52.2z"/>
	</g>
	<g class="st6">
		<path class="st7" d="M99.7,57.3c0.6,0,1.1-0.2,1.4-0.6c0.4-0.4,0.5-1,0.5-2.8v-6h0.7v6.5c0,1.2-0.1,2.1-0.7,2.8
			c-0.5,0.6-1.4,0.7-1.8,0.8L99.7,57.3z M102.5,45.9c0,0.3-0.2,0.6-0.6,0.6c-0.3,0-0.5-0.3-0.5-0.6c0-0.3,0.2-0.6,0.6-0.6
			C102.3,45.3,102.5,45.6,102.5,45.9z"/>
	</g>
	<g class="st6">
		<path class="st7" d="M104.9,51.3c0,2.2,1.2,3.1,2.7,3.1c1,0,1.5-0.2,1.9-0.4l0.2,0.6c-0.3,0.1-1,0.4-2.2,0.4c-2,0-3.2-1.4-3.2-3.5
			c0-2.3,1.3-3.8,3.1-3.8c2.3,0,2.7,2.1,2.7,3.1c0,0.2,0,0.3,0,0.4H104.9z M109.3,50.7c0-1-0.4-2.4-2.1-2.4c-1.5,0-2.2,1.4-2.3,2.4
			H109.3z"/>
	</g>
	<g class="st6">
		<path class="st7" d="M112.8,45.9v2h2v0.6h-2V53c0,0.9,0.3,1.5,1,1.5c0.4,0,0.6-0.1,0.8-0.1l0.1,0.5c-0.2,0.1-0.6,0.2-1,0.2
			c-0.5,0-0.9-0.2-1.2-0.5c-0.3-0.4-0.4-0.9-0.4-1.7v-4.4H111v-0.6h1.2v-1.8L112.8,45.9z"/>
	</g>
	<g class="st6">
		<path class="st7" d="M117.4,45.9c0,0.3-0.2,0.6-0.6,0.6c-0.3,0-0.5-0.3-0.5-0.6c0-0.3,0.2-0.6,0.6-0.6
			C117.1,45.3,117.4,45.6,117.4,45.9z M116.5,54.8v-7h0.7v7H116.5z"/>
	</g>
	<g class="st6">
		<path class="st7" d="M119.4,47.9l1.6,4.3c0.3,0.7,0.5,1.3,0.7,1.9h0c0.2-0.6,0.4-1.2,0.7-1.9l1.7-4.3h0.7l-2.8,7h-0.6l-2.7-7
			H119.4z"/>
	</g>
	<g class="st6">
		<path class="st7" d="M132.1,51.3c0,2.6-1.8,3.7-3.3,3.7c-1.8,0-3.2-1.4-3.2-3.6c0-2.4,1.6-3.7,3.3-3.7
			C130.8,47.7,132.1,49.2,132.1,51.3z M126.3,51.4c0,1.7,1.1,3,2.5,3c1.4,0,2.6-1.3,2.6-3.1c0-1.3-0.7-3-2.6-3
			C127.1,48.3,126.3,49.9,126.3,51.4z"/>
	</g>
	<g class="st6">
		<path class="st7" d="M133.7,53.9c0.4,0.2,0.9,0.5,1.6,0.5c1.1,0,1.6-0.6,1.6-1.3c0-0.8-0.5-1.2-1.5-1.6c-1.1-0.4-1.8-1.1-1.8-1.9
			c0-1,0.8-1.9,2.1-1.9c0.6,0,1.2,0.2,1.5,0.4l-0.3,0.6c-0.2-0.2-0.7-0.4-1.4-0.4c-0.9,0-1.3,0.6-1.3,1.2c0,0.7,0.5,1,1.4,1.4
			c1.1,0.4,1.8,1,1.8,2.1c0,1.2-0.9,2-2.3,2c-0.7,0-1.3-0.2-1.8-0.5L133.7,53.9z"/>
	</g>
	<g class="st6">
		<path class="st7" d="M145.3,52.3l-0.7,2.5h-2.3l3-9.8h2.9l3,9.8h-2.4l-0.8-2.5H145.3z M147.8,50.7l-0.6-2.1
			c-0.2-0.6-0.3-1.3-0.5-1.9h0c-0.1,0.6-0.3,1.3-0.4,1.9l-0.6,2.1H147.8z"/>
	</g>
	<g class="st6">
		<path class="st7" d="M152.9,52.6c0.6,0.3,1.5,0.6,2.4,0.6c1,0,1.6-0.4,1.6-1.1c0-0.6-0.5-1-1.6-1.4c-1.6-0.6-2.7-1.5-2.7-2.9
			c0-1.7,1.4-2.9,3.7-2.9c1.1,0,1.9,0.2,2.5,0.5l-0.5,1.8c-0.4-0.2-1.1-0.5-2-0.5s-1.4,0.4-1.4,0.9c0,0.6,0.6,0.9,1.8,1.4
			c1.7,0.6,2.5,1.5,2.5,2.9c0,1.6-1.3,3-3.9,3c-1.1,0-2.2-0.3-2.8-0.6L152.9,52.6z"/>
	</g>
	<g class="st6">
		<path class="st7" d="M169,54.4c-0.7,0.2-2,0.6-3.3,0.6c-1.8,0-3.1-0.4-4-1.3c-0.9-0.8-1.4-2.1-1.4-3.6c0-3.2,2.4-5.1,5.6-5.1
			c1.3,0,2.2,0.2,2.7,0.5l-0.5,1.8c-0.5-0.2-1.2-0.4-2.3-0.4c-1.8,0-3.2,1-3.2,3.2c0,2,1.3,3.2,3.1,3.2c0.5,0,0.9-0.1,1.1-0.1v-2
			h-1.5v-1.7h3.6V54.4z"/>
	</g>
	<g>
		<defs>
			<rect id="SVGID_17_" x="2.6" y="2.5" width="389.3" height="443"/>
		</defs>
		<clipPath id="SVGID_18_">
			<use xlink:href="#SVGID_17_"  style="overflow:visible;"/>
		</clipPath>
		<g class="st17">
			<g>
				<g>
					<defs>
						<rect id="SVGID_19_" y="368" width="315.8" height="83"/>
					</defs>
					<clipPath id="SVGID_20_">
						<use xlink:href="#SVGID_19_"  style="overflow:visible;"/>
					</clipPath>
					<g class="st18">
						<rect y="368" class="st3" width="315.8" height="83"/>
					</g>
				</g>
			</g>
			<path class="st4" d="M7.9,370.5h296.9c2.9,0,5.3,2.4,5.3,5.3v64.5c0,2.9-2.4,5.3-5.3,5.3H7.9c-2.9,0-5.3-2.4-5.3-5.3v-64.5
				C2.6,372.9,4.9,370.5,7.9,370.5z"/>
			<path class="st19" d="M44.9,421.6c10.8,0,19.6-8.8,19.6-19.6c0-10.8-8.8-19.6-19.6-19.6s-19.6,8.8-19.6,19.6
				C25.3,412.8,34,421.6,44.9,421.6"/>
		</g>
	</g>
	<g class="st6">
		<path class="st7" d="M85.6,393.2c0.6-0.1,1.3-0.2,2.1-0.2c1.2,0,2,0.3,2.6,0.8c0.5,0.4,0.8,1.1,0.8,1.9c0,0.8-0.2,1.5-0.7,1.9
			c-0.6,0.7-1.7,1.1-2.9,1.1c-0.4,0-0.8,0-1.2-0.1v4.2h-0.7V393.2z M86.3,398.1c0.3,0.1,0.8,0.1,1.2,0.1c1.7,0,2.8-0.9,2.8-2.4
			c0-1.5-1.1-2.2-2.7-2.2c-0.6,0-1.1,0.1-1.4,0.1V398.1z"/>
	</g>
	<g class="st6">
		<path class="st7" d="M98.7,399.3c0,2.6-1.8,3.7-3.3,3.7c-1.8,0-3.2-1.4-3.2-3.6c0-2.4,1.6-3.7,3.3-3.7
			C97.4,395.7,98.7,397.2,98.7,399.3z M92.9,399.4c0,1.7,1.1,3,2.5,3c1.4,0,2.6-1.3,2.6-3.1c0-1.3-0.7-3-2.6-3
			C93.7,396.3,92.9,397.9,92.9,399.4z"/>
	</g>
	<g class="st6">
		<path class="st7" d="M100.6,392.5h0.7v10.3h-0.7V392.5z"/>
	</g>
	<g class="st6">
		<path class="st7" d="M105.8,392.9l-1.8,2h-0.5l1.3-2H105.8z M103.7,402.8v-7h0.7v7H103.7z"/>
	</g>
	<g class="st6">
		<path class="st7" d="M107.8,393.9v2h2v0.6h-2v4.5c0,0.9,0.3,1.5,1,1.5c0.4,0,0.6-0.1,0.8-0.1l0.1,0.5c-0.2,0.1-0.6,0.2-1,0.2
			c-0.5,0-0.9-0.2-1.2-0.5c-0.3-0.4-0.4-0.9-0.4-1.7v-4.4H106v-0.6h1.2v-1.8L107.8,393.9z"/>
	</g>
	<g class="st6">
		<path class="st7" d="M112.3,393.9c0,0.3-0.2,0.6-0.6,0.6c-0.3,0-0.5-0.3-0.5-0.6c0-0.3,0.2-0.6,0.6-0.6
			C112.1,393.3,112.3,393.6,112.3,393.9z M111.4,402.8v-7h0.7v7H111.4z"/>
	</g>
	<g class="st6">
		<path class="st7" d="M119.4,402.5c-0.3,0.2-1,0.4-2,0.4c-2,0-3.3-1.4-3.3-3.6c0-2.2,1.5-3.7,3.6-3.7c0.9,0,1.6,0.2,1.8,0.4
			l-0.2,0.6c-0.3-0.2-0.9-0.4-1.7-0.4c-1.9,0-2.8,1.4-2.8,3.1c0,1.8,1.1,3,2.8,3c0.8,0,1.4-0.2,1.7-0.4L119.4,402.5z"/>
	</g>
	<g class="st6">
		<path class="st7" d="M125,402.8l-0.1-1h0c-0.3,0.5-1.1,1.2-2.2,1.2c-1.4,0-2-1-2-1.9c0-1.6,1.4-2.6,4.2-2.6v-0.2
			c0-0.7-0.1-2.1-1.8-2.1c-0.6,0-1.2,0.2-1.7,0.5l-0.2-0.5c0.6-0.4,1.4-0.6,2-0.6c2,0,2.4,1.5,2.4,2.8v2.7c0,0.6,0,1.1,0.1,1.7H125z
			 M124.8,399.1c-1.5,0-3.5,0.2-3.5,1.9c0,1,0.7,1.5,1.4,1.5c1.2,0,1.8-0.7,2.1-1.4c0-0.1,0.1-0.3,0.1-0.4V399.1z"/>
	</g>
	<g class="st6">
		<path class="st7" d="M127.5,401.9c0.4,0.2,0.9,0.5,1.6,0.5c1.1,0,1.6-0.6,1.6-1.3c0-0.8-0.5-1.2-1.5-1.6c-1.1-0.4-1.8-1.1-1.8-1.9
			c0-1,0.8-1.9,2.1-1.9c0.6,0,1.2,0.2,1.5,0.4l-0.3,0.6c-0.2-0.2-0.7-0.4-1.4-0.4c-0.9,0-1.3,0.6-1.3,1.2c0,0.7,0.5,1,1.4,1.4
			c1.1,0.4,1.8,1,1.8,2.1c0,1.2-0.9,2-2.3,2c-0.7,0-1.3-0.2-1.8-0.5L127.5,401.9z"/>
	</g>
	<g class="st6">
		<path class="st7" d="M132.6,404.7c0.2-0.6,0.6-2.2,0.8-3.1l0.9-0.1c-0.3,1.1-0.9,2.7-1.1,3.1L132.6,404.7z"/>
	</g>
	<g class="st6">
		<path class="st7" d="M139.7,398.1c0-0.9,0-1.6-0.1-2.2h0.7l0.1,1.3h0c0.5-0.9,1.3-1.5,2.6-1.5c1.8,0,3,1.5,3,3.5
			c0,2.5-1.5,3.8-3.2,3.8c-1,0-1.9-0.4-2.4-1.3h0v4h-0.7V398.1z M140.3,400.1c0,0.2,0,0.4,0.1,0.6c0.3,1.1,1.2,1.8,2.3,1.8
			c1.6,0,2.5-1.3,2.5-3.1c0-1.6-0.9-3-2.4-3c-1,0-2,0.7-2.3,1.9c0,0.2-0.1,0.4-0.1,0.6V400.1z"/>
	</g>
	<g class="st6">
		<path class="st7" d="M147.8,398c0-0.7,0-1.4-0.1-2.1h0.6l0,1.4h0c0.3-0.9,1-1.6,2-1.6c0.1,0,0.2,0,0.3,0v0.7c-0.1,0-0.2,0-0.3,0
			c-1,0-1.6,0.8-1.8,1.9c0,0.2-0.1,0.4-0.1,0.7v3.8h-0.7V398z"/>
	</g>
	<g class="st6">
		<path class="st7" d="M156.1,402.8l-0.1-1h0c-0.3,0.5-1.1,1.2-2.2,1.2c-1.4,0-2-1-2-1.9c0-1.6,1.4-2.6,4.2-2.6v-0.2
			c0-0.7-0.1-2.1-1.8-2.1c-0.6,0-1.2,0.2-1.7,0.5l-0.2-0.5c0.6-0.4,1.4-0.6,2-0.6c2,0,2.4,1.5,2.4,2.8v2.7c0,0.6,0,1.1,0.1,1.7
			H156.1z M155.9,399.1c-1.5,0-3.5,0.2-3.5,1.9c0,1,0.7,1.5,1.4,1.5c1.2,0,1.8-0.7,2.1-1.4c0-0.1,0.1-0.3,0.1-0.4V399.1z
			 M156.1,392.9l-1.8,2h-0.5l1.3-2H156.1z"/>
	</g>
	<g class="st6">
		<path class="st7" d="M163.8,402.5c-0.3,0.2-1,0.4-2,0.4c-2,0-3.3-1.4-3.3-3.6c0-2.2,1.5-3.7,3.6-3.7c0.9,0,1.6,0.2,1.8,0.4
			l-0.2,0.6c-0.3-0.2-0.9-0.4-1.7-0.4c-1.9,0-2.8,1.4-2.8,3.1c0,1.8,1.1,3,2.8,3c0.8,0,1.4-0.2,1.7-0.4L163.8,402.5z"/>
	</g>
	<g class="st6">
		<path class="st7" d="M167,393.9v2h2v0.6h-2v4.5c0,0.9,0.3,1.5,1,1.5c0.4,0,0.6-0.1,0.8-0.1l0.1,0.5c-0.2,0.1-0.6,0.2-1,0.2
			c-0.5,0-0.9-0.2-1.2-0.5c-0.3-0.4-0.4-0.9-0.4-1.7v-4.4h-1.2v-0.6h1.2v-1.8L167,393.9z"/>
	</g>
	<g class="st6">
		<path class="st7" d="M171.5,393.9c0,0.3-0.2,0.6-0.6,0.6c-0.3,0-0.5-0.3-0.5-0.6c0-0.3,0.2-0.6,0.6-0.6
			C171.3,393.3,171.5,393.6,171.5,393.9z M170.6,402.8v-7h0.7v7H170.6z"/>
	</g>
	<g class="st6">
		<path class="st7" d="M178.5,402.5c-0.3,0.2-1,0.4-2,0.4c-2,0-3.3-1.4-3.3-3.6c0-2.2,1.5-3.7,3.6-3.7c0.9,0,1.6,0.2,1.8,0.4
			l-0.2,0.6c-0.3-0.2-0.9-0.4-1.7-0.4c-1.9,0-2.8,1.4-2.8,3.1c0,1.8,1.1,3,2.8,3c0.8,0,1.4-0.2,1.7-0.4L178.5,402.5z"/>
	</g>
	<g class="st6">
		<path class="st7" d="M184.2,402.8l-0.1-1h0c-0.3,0.5-1.1,1.2-2.2,1.2c-1.4,0-2-1-2-1.9c0-1.6,1.4-2.6,4.2-2.6v-0.2
			c0-0.7-0.1-2.1-1.8-2.1c-0.6,0-1.2,0.2-1.7,0.5l-0.2-0.5c0.6-0.4,1.4-0.6,2-0.6c2,0,2.4,1.5,2.4,2.8v2.7c0,0.6,0,1.1,0.1,1.7
			H184.2z M184,399.1c-1.5,0-3.5,0.2-3.5,1.9c0,1,0.7,1.5,1.4,1.5c1.2,0,1.8-0.7,2.1-1.4c0-0.1,0.1-0.3,0.1-0.4V399.1z"/>
	</g>
	<g class="st6">
		<path class="st7" d="M186.7,401.9c0.4,0.2,0.9,0.5,1.6,0.5c1.1,0,1.6-0.6,1.6-1.3c0-0.8-0.5-1.2-1.5-1.6c-1.1-0.4-1.8-1.1-1.8-1.9
			c0-1,0.8-1.9,2.1-1.9c0.6,0,1.2,0.2,1.5,0.4l-0.3,0.6c-0.2-0.2-0.7-0.4-1.4-0.4c-0.9,0-1.3,0.6-1.3,1.2c0,0.7,0.5,1,1.4,1.4
			c1.1,0.4,1.8,1,1.8,2.1c0,1.2-0.9,2-2.3,2c-0.7,0-1.3-0.2-1.8-0.5L186.7,401.9z"/>
	</g>
	<g class="st6">
		<path class="st7" d="M85.7,419.3c0,2.2,1.2,3.1,2.7,3.1c1,0,1.5-0.2,1.9-0.4l0.2,0.6c-0.3,0.1-1,0.4-2.2,0.4c-2,0-3.2-1.4-3.2-3.5
			c0-2.3,1.3-3.8,3.1-3.8c2.3,0,2.7,2.1,2.7,3.1c0,0.2,0,0.3,0,0.4H85.7z M90.2,418.7c0-1-0.4-2.4-2.1-2.4c-1.5,0-2.2,1.4-2.3,2.4
			H90.2z"/>
	</g>
	<g class="st6">
		<path class="st7" d="M97.3,413.9c0,0.3-0.2,0.6-0.6,0.6c-0.3,0-0.5-0.3-0.5-0.6c0-0.3,0.2-0.6,0.6-0.6
			C97.1,413.3,97.3,413.6,97.3,413.9z M96.4,422.8v-7h0.7v7H96.4z"/>
	</g>
	<g class="st6">
		<path class="st7" d="M99.5,417.5c0-0.6,0-1.1-0.1-1.7h0.6l0.1,1.3h0c0.4-0.8,1.2-1.4,2.4-1.4c0.7,0,2.4,0.3,2.4,2.9v4.2h-0.7v-4.1
			c0-1.3-0.5-2.4-1.9-2.4c-1,0-1.8,0.7-2.1,1.6c-0.1,0.2-0.1,0.4-0.1,0.6v4.3h-0.7V417.5z"/>
	</g>
	<g class="st6">
		<path class="st7" d="M108.2,413.9c0,0.3-0.2,0.6-0.6,0.6c-0.3,0-0.5-0.3-0.5-0.6c0-0.3,0.2-0.6,0.6-0.6
			C108,413.3,108.2,413.6,108.2,413.9z M107.3,422.8v-7h0.7v7H107.3z"/>
	</g>
	<g class="st6">
		<path class="st7" d="M115.2,422.5c-0.3,0.2-1,0.4-2,0.4c-2,0-3.3-1.4-3.3-3.6c0-2.2,1.5-3.7,3.6-3.7c0.9,0,1.6,0.2,1.8,0.4
			l-0.2,0.6c-0.3-0.2-0.9-0.4-1.7-0.4c-1.9,0-2.8,1.4-2.8,3.1c0,1.8,1.1,3,2.8,3c0.8,0,1.4-0.2,1.7-0.4L115.2,422.5z"/>
	</g>
	<g class="st6">
		<path class="st7" d="M117.8,413.9c0,0.3-0.2,0.6-0.6,0.6c-0.3,0-0.5-0.3-0.5-0.6c0-0.3,0.2-0.6,0.6-0.6
			C117.6,413.3,117.8,413.6,117.8,413.9z M116.9,422.8v-7h0.7v7H116.9z"/>
	</g>
	<g class="st6">
		<path class="st7" d="M123.8,422.8l-0.1-1h0c-0.3,0.5-1.1,1.2-2.2,1.2c-1.4,0-2-1-2-1.9c0-1.6,1.4-2.6,4.2-2.6v-0.2
			c0-0.7-0.1-2.1-1.8-2.1c-0.6,0-1.2,0.2-1.7,0.5l-0.2-0.5c0.6-0.4,1.4-0.6,2-0.6c2,0,2.4,1.5,2.4,2.8v2.7c0,0.6,0,1.1,0.1,1.7
			H123.8z M123.6,419.1c-1.5,0-3.5,0.2-3.5,1.9c0,1,0.7,1.5,1.4,1.5c1.2,0,1.8-0.7,2.1-1.4c0-0.1,0.1-0.3,0.1-0.4V419.1z"/>
	</g>
	<g class="st6">
		<path class="st7" d="M127.5,413.9v2h2v0.6h-2v4.5c0,0.9,0.3,1.5,1,1.5c0.4,0,0.6-0.1,0.8-0.1l0.1,0.5c-0.2,0.1-0.6,0.2-1,0.2
			c-0.5,0-0.9-0.2-1.2-0.5c-0.3-0.4-0.4-0.9-0.4-1.7v-4.4h-1.2v-0.6h1.2v-1.8L127.5,413.9z"/>
	</g>
	<g class="st6">
		<path class="st7" d="M132,413.9c0,0.3-0.2,0.6-0.6,0.6c-0.3,0-0.5-0.3-0.5-0.6c0-0.3,0.2-0.6,0.6-0.6
			C131.8,413.3,132,413.6,132,413.9z M131.1,422.8v-7h0.7v7H131.1z"/>
	</g>
	<g class="st6">
		<path class="st7" d="M134.1,415.9l1.6,4.3c0.3,0.7,0.5,1.3,0.7,1.9h0c0.2-0.6,0.4-1.2,0.7-1.9l1.7-4.3h0.7l-2.8,7H136l-2.7-7
			H134.1z"/>
	</g>
	<g class="st6">
		<path class="st7" d="M144.8,422.8l-0.1-1h0c-0.3,0.5-1.1,1.2-2.2,1.2c-1.4,0-2-1-2-1.9c0-1.6,1.4-2.6,4.2-2.6v-0.2
			c0-0.7-0.1-2.1-1.8-2.1c-0.6,0-1.2,0.2-1.7,0.5l-0.2-0.5c0.6-0.4,1.4-0.6,2-0.6c2,0,2.4,1.5,2.4,2.8v2.7c0,0.6,0,1.1,0.1,1.7
			H144.8z M144.7,419.1c-1.5,0-3.5,0.2-3.5,1.9c0,1,0.7,1.5,1.4,1.5c1.2,0,1.8-0.7,2.1-1.4c0-0.1,0.1-0.3,0.1-0.4V419.1z"/>
	</g>
	<g class="st6">
		<path class="st7" d="M147.4,421.9c0.4,0.2,0.9,0.5,1.6,0.5c1.1,0,1.6-0.6,1.6-1.3c0-0.8-0.5-1.2-1.5-1.6c-1.1-0.4-1.8-1.1-1.8-1.9
			c0-1,0.8-1.9,2.1-1.9c0.6,0,1.2,0.2,1.5,0.4l-0.3,0.6c-0.2-0.2-0.7-0.4-1.4-0.4c-0.9,0-1.3,0.6-1.3,1.2c0,0.7,0.5,1,1.4,1.4
			c1.1,0.4,1.8,1,1.8,2.1c0,1.2-0.9,2-2.3,2c-0.7,0-1.3-0.2-1.8-0.5L147.4,421.9z"/>
	</g>
	<g>
		<defs>
			<rect id="SVGID_21_" x="2.6" y="2.5" width="389.3" height="443"/>
		</defs>
		<clipPath id="SVGID_22_">
			<use xlink:href="#SVGID_21_"  style="overflow:visible;"/>
		</clipPath>
		<g class="st20">
			<path class="st21" d="M309.9,37.5h28.2c6.6,0,12,5.4,12,12v37"/>
			<path class="st22" d="M309.9,39.5c1.1,0,2-0.9,2-2s-0.9-2-2-2s-2,0.9-2,2S308.8,39.5,309.9,39.5"/>
			<polyline class="st21" points="353.8,82.5 350,86.5 346.3,82.5 			"/>
			<path class="st21" d="M354.9,353.5v42.2c0,6.6-5.4,12-12,12h-37"/>
			<path class="st22" d="M352.9,353.5c0,1.1,0.9,2,2,2s2-0.9,2-2s-0.9-2-2-2S352.9,352.4,352.9,353.5"/>
			<polyline class="st21" points="309.9,411.4 305.9,407.7 309.9,404 			"/>
			<path class="st21" d="M354.9,169.2v27.2c0,6.6-5.4,12-12,12h-37"/>
			<path class="st22" d="M352.9,169.2c0,1.1,0.9,2,2,2s2-0.9,2-2s-0.9-2-2-2S352.9,168.1,352.9,169.2"/>
			<polyline class="st21" points="309.9,212.1 305.9,208.4 309.9,204.7 			"/>
			<path class="st21" d="M38.7,370.5v-27.2c0-6.6,5.4-12,12-12h37"/>
			<path class="st22" d="M40.7,370.5c0-1.1-0.9-2-2-2s-2,0.9-2,2s0.9,2,2,2S40.7,371.6,40.7,370.5"/>
			<polyline class="st21" points="83.7,327.6 87.7,331.3 83.7,335 			"/>
			<path class="st21" d="M38.7,186.5v-27.2c0-6.6,5.4-12,12-12h37"/>
			<path class="st22" d="M40.7,186.5c0-1.1-0.9-2-2-2s-2,0.9-2,2s0.9,2,2,2S40.7,187.6,40.7,186.5"/>
			<polyline class="st21" points="83.7,143.6 87.7,147.3 83.7,151.1 			"/>
			<path class="st21" d="M309.6,238.5h31.2c6.6,0,12,5.4,12,12v22"/>
			<path class="st22" d="M309.6,240.5c1.1,0,2-0.9,2-2s-0.9-2-2-2s-2,0.9-2,2S308.5,240.5,309.6,240.5"/>
			<polyline class="st21" points="356.5,268.5 352.8,272.5 349,268.5 			"/>
			<path class="st21" d="M84,301.2H52.8c-6.6,0-12-5.4-12-12v-22"/>
			<path class="st22" d="M84,299.2c-1.1,0-2,0.9-2,2s0.9,2,2,2s2-0.9,2-2S85.1,299.2,84,299.2"/>
			<polyline class="st21" points="37.1,271.2 40.8,267.2 44.5,271.2 			"/>
			<path class="st21" d="M84,117.2H52.8c-6.6,0-12-5.4-12-12v-22"/>
			<path class="st22" d="M84,115.2c-1.1,0-2,0.9-2,2s0.9,2,2,2s2-0.9,2-2S85.1,115.2,84,115.2"/>
			<polyline class="st21" points="37.1,87.2 40.8,83.2 44.5,87.2 			"/>
			<path class="st23" d="M40.4,26.5c-0.3,0-0.5,0.2-0.5,0.4c0,0,0,0,0,0.1v6.5h5.5c0.8,0,1.5,0.7,1.5,1.5c0,0.3,0.2,0.5,0.4,0.5
				c0,0,0,0,0.1,0h4L49,32.3c-0.1-0.2-0.1-0.4,0-0.6l2.4-3.2h-4.5V30c0,0.3-0.2,0.5-0.5,0.5s-0.5-0.2-0.5-0.5v-3
				c0-0.3-0.2-0.5-0.4-0.5c0,0,0,0-0.1,0H40.4z M39.4,43.5c-0.3,0-0.5-0.2-0.5-0.4c0,0,0,0,0-0.1V27c0-0.8,0.7-1.5,1.5-1.5h5
				c0.8,0,1.5,0.7,1.5,1.5v0.5h5.5c0.3,0,0.5,0.2,0.5,0.4c0,0,0,0,0,0.1c0,0.1,0,0.2-0.1,0.3L50,32l2.8,3.7c0.2,0.2,0.1,0.5-0.1,0.7
				c0,0,0,0,0,0c-0.1,0.1-0.2,0.1-0.3,0.1h-5c-0.8,0-1.5-0.7-1.5-1.5c0-0.3-0.2-0.5-0.4-0.5c0,0,0,0-0.1,0h-5.5V43
				C39.9,43.3,39.7,43.5,39.4,43.5C39.4,43.5,39.4,43.5,39.4,43.5"/>
			<path class="st23" d="M120.2,132h3v-2h-3V132z M121.7,135c-0.3,0-0.5-0.2-0.5-0.4c0,0,0,0,0-0.1V133h-1c-0.5,0-1-0.4-1-0.9
				c0,0,0-0.1,0-0.1v-2c0-0.5,0.4-1,0.9-1c0,0,0.1,0,0.1,0h1v-11.5c0-0.3,0.2-0.5,0.5-0.5s0.5,0.2,0.5,0.5v11.5h1c0.5,0,1,0.4,1,0.9
				c0,0,0,0.1,0,0.1v2c0,0.5-0.4,1-0.9,1c0,0-0.1,0-0.1,0h-1v1.5C122.2,134.7,122.1,134.9,121.7,135C121.8,135,121.8,135,121.7,135
				 M125.2,122.9h3v-2h-3V122.9z M126.7,134.9c-0.3,0-0.5-0.2-0.5-0.4c0,0,0,0,0-0.1v-10.5h-1c-0.5,0-1-0.4-1-0.9c0,0,0-0.1,0-0.1
				v-2c0-0.5,0.4-1,0.9-1c0,0,0.1,0,0.1,0h1v-2.5c0-0.3,0.2-0.5,0.5-0.5s0.5,0.2,0.5,0.5v2.5h1c0.5,0,1,0.4,1,0.9c0,0,0,0.1,0,0.1v2
				c0,0.5-0.4,1-0.9,1c0,0-0.1,0-0.1,0h-1v10.5C127.2,134.7,127.1,134.9,126.7,134.9C126.8,135,126.8,135,126.7,134.9 M130.2,128.9
				h3v-2h-3V128.9z M131.7,134.9c-0.3,0-0.5-0.2-0.5-0.4c0,0,0,0,0-0.1v-4.5h-1c-0.5,0-1-0.4-1-0.9c0,0,0-0.1,0-0.1v-2
				c0-0.5,0.4-1,0.9-1c0,0,0.1,0,0.1,0h1v-8.5c0-0.3,0.2-0.5,0.5-0.5s0.5,0.2,0.5,0.5v8.5h1c0.5,0,1,0.4,1,0.9c0,0,0,0.1,0,0.1v2
				c0,0.5-0.4,1-0.9,1c0,0-0.1,0-0.1,0h-1v4.5C132.2,134.7,132.1,134.9,131.7,134.9C131.8,135,131.8,135,131.7,134.9"/>
			<path class="st23" d="M119.2,303c-0.8,0-1.5,0.7-1.5,1.5v11c0,0.8,0.7,1.5,1.5,1.5h1c0.8,0,1.5-0.7,1.5-1.5v-5
				c0-1.4,1.1-2.5,2.5-2.5c0,0,0,0,0,0h10c0.5,0,1.1,0.2,1.5,0.5v-1c0-0.8-0.7-1.5-1.5-1.5h-5.5c-1.1,0-2-0.9-2-2c0-0.5-0.4-1-0.9-1
				c0,0-0.1,0-0.1,0H119.2z M124.2,309c-0.8,0-1.5,0.7-1.5,1.5v5c0,0.5-0.2,1.1-0.5,1.5h12c0.8,0,1.5-0.7,1.5-1.5v-5
				c0-0.8-0.7-1.5-1.5-1.5H124.2z M134.2,318h-15c-1.4,0-2.5-1.1-2.5-2.5c0,0,0,0,0,0v-11c0-1.4,1.1-2.5,2.5-2.5c0,0,0,0,0,0h6.5
				c1.1,0,2,0.9,2,2c0,0.5,0.4,1,0.9,1c0,0,0.1,0,0.1,0h5.5c1.4,0,2.5,1.1,2.5,2.5c0,0,0,0,0,0v8C136.7,316.8,135.6,317.9,134.2,318
				C134.3,318,134.2,318,134.2,318"/>
			<path class="st23" d="M49.4,397h-9c-0.3,0-0.5-0.2-0.5-0.5s0.2-0.5,0.5-0.5h9c0.3,0,0.5,0.2,0.5,0.5S49.6,397,49.4,397 M49.4,399
				h-9c-0.3,0-0.5-0.2-0.5-0.5s0.2-0.5,0.5-0.5h9c0.3,0,0.5,0.2,0.5,0.5S49.6,399,49.4,399 M40.9,404c-0.6,0-1-0.4-1-1s0.4-1,1-1
				s1,0.4,1,1c0,0.5-0.4,1-0.9,1C40.9,404,40.9,404,40.9,404 M41.4,406h-1c-0.3,0-0.5-0.2-0.5-0.5s0.2-0.5,0.5-0.5h1
				c0.3,0,0.5,0.2,0.5,0.5S41.6,406,41.4,406 M41.4,408h-1c-0.3,0-0.5-0.2-0.5-0.5s0.2-0.5,0.5-0.5h1c0.3,0,0.5,0.2,0.5,0.5
				S41.6,408,41.4,408 M40.4,392c-0.8,0-1.5,0.7-1.5,1.5v0.5h12v-0.5c0-0.8-0.7-1.5-1.5-1.5L40.4,392z M38.9,409h12v-14h-12V409z
				 M38.9,410v0.5c0,0.8,0.7,1.5,1.5,1.5h9c0.8,0,1.5-0.7,1.5-1.5V410H38.9z M49.4,413h-9c-1.4,0-2.5-1.1-2.5-2.5c0,0,0,0,0,0v-17
				c0-1.4,1.1-2.5,2.5-2.5c0,0,0,0,0,0h9c1.4,0,2.5,1.1,2.5,2.5c0,0,0,0,0,0v17C51.9,411.8,50.8,412.9,49.4,413
				C49.4,413,49.4,413,49.4,413"/>
		</g>
	</g>
	<g>
		<defs>
			<rect id="SVGID_23_" x="34.4" y="207" width="21" height="22"/>
		</defs>
		<clipPath id="SVGID_24_">
			<use xlink:href="#SVGID_23_"  style="overflow:visible;"/>
		</clipPath>
		<g class="st24">
			<path class="st13" d="M45.5,214.2c0.4,0,0.8-0.2,1-0.6l0.5-5.8c0-0.6-0.7-1-1.5-1s-1.5,0.5-1.5,1l0.5,5.8
				C44.6,214,45,214.3,45.5,214.2L45.5,214.2z"/>
			<path class="st13" d="M42.3,216.1c0.3-0.4,0.3-0.8,0-1.2l-4.8-3.4c-0.5-0.3-1.2,0.1-1.7,0.8c-0.4,0.6-0.4,1.4,0.1,1.8l5.3,2.5
				C41.7,216.7,42.1,216.4,42.3,216.1L42.3,216.1z"/>
			<path class="st13" d="M48.6,216.1c0.2,0.4,0.6,0.6,1,0.6l5.3-2.5c0.5-0.5,0.6-1.3,0.1-1.8c-0.4-0.7-1.2-1.1-1.7-0.8l-4.8,3.4
				C48.3,215.2,48.3,215.7,48.6,216.1L48.6,216.1z"/>
			<path class="st13" d="M48.6,219.7c0.2-0.4,0.6-0.6,1-0.6l5.3,2.5c0.5,0.3,0.6,1.1,0.1,1.8s-1.2,1.1-1.7,0.8l-4.8-3.4
				C48.3,220.5,48.3,220,48.6,219.7L48.6,219.7z"/>
			<path class="st13" d="M42.3,219.7c0.3,0.4,0.3,0.8,0,1.2l-4.8,3.4c-0.5,0.3-1.2-0.1-1.7-0.8s-0.3-1.6,0.1-1.8l5.3-2.5
				C41.7,219.1,42.1,219.3,42.3,219.7L42.3,219.7z"/>
		</g>
	</g>
	<g>
		<defs>
			<rect id="SVGID_25_" x="2.6" y="2.5" width="389.3" height="443"/>
		</defs>
		<clipPath id="SVGID_26_">
			<use xlink:href="#SVGID_25_"  style="overflow:visible;"/>
		</clipPath>
		<g class="st25">
			<path class="st13" d="M45.5,221.4c0.4,0,0.8,0.2,1,0.6l0.5,5.8c0,0.6-0.7,1.1-1.5,1.1s-1.5-0.5-1.5-1.1l0.5-5.8
				C44.6,221.7,45,221.4,45.5,221.4L45.5,221.4z"/>
			<path class="st13" d="M47.7,228.2L47.7,228.2C47.7,228.2,47.8,228.2,47.7,228.2c0.1-0.1,0.1-0.1,0-0.1l0,0V228.2z M47.7,228.4
				h-0.1V228h0.2c0,0,0.1,0,0.2,0c0,0,0.1,0.1,0,0.1c0,0,0,0,0,0l0,0c0,0,0.1,0,0.1,0.1c0,0,0,0.1,0,0.1h-0.1c0,0,0-0.1,0-0.1
				c0,0,0-0.1-0.1-0.1l0,0L47.7,228.4z M47.8,227.9c-0.2,0-0.3,0.1-0.3,0.3s0.1,0.3,0.3,0.3c0.2,0,0.3-0.1,0.3-0.3c0,0,0,0,0,0
				C48.1,228,48,227.9,47.8,227.9C47.8,227.9,47.8,227.9,47.8,227.9z M47.8,227.8c0.2,0,0.4,0.2,0.4,0.4c0,0.2-0.2,0.4-0.4,0.4
				c-0.2,0-0.4-0.2-0.4-0.4C47.4,228,47.6,227.8,47.8,227.8z"/>
		</g>
	</g>
</g>
</svg>
