<?xml version="1.0" encoding="utf-8"?>
<!-- Generator: Adobe Illustrator 25.1.0, SVG Export Plug-In . SVG Version: 6.00 Build 0)  -->
<svg version="1.1" id="Capa_1" xmlns="http://www.w3.org/2000/svg" xmlns:xlink="http://www.w3.org/1999/xlink" x="0px" y="0px"
	 viewBox="0 0 398.2 576.7" style="enable-background:new 0 0 398.2 576.7;" xml:space="preserve">
<style type="text/css">
	.st0{fill:#D3D3D3;}
	.st1{fill:none;}
	.st2{clip-path:url(#SVGID_2_);}
	.st3{fill:#EDF1F3;}
	.st4{fill:none;stroke:#A5BCD0;stroke-miterlimit:10;}
	.st5{enable-background:new    ;}
	.st6{fill:#545051;}
	.st7{clip-path:url(#SVGID_6_);}
	.st8{fill:#6AAAE4;}
	.st9{fill:#FFFFFF;}
	.st10{fill:#A5BCD0;}
	.st11{fill:#4A5B6D;}
	.st12{clip-path:url(#SVGID_12_);}
</style>
<path class="st0" d="M121.7,24.7h267.7c3.2,0,5.8,2.5,5.8,5.8v536.9c0,3.1-2.6,5.8-5.8,5.8H121.7c-3.2,0-5.8-2.5-5.8-5.8V30.5
	C116,27.3,118.6,24.7,121.7,24.7z"/>
<rect x="-9.6" y="-5.5" class="st1" width="417.2" height="583.7"/>
<g>
	<g>
		<defs>
			<rect id="SVGID_1_" x="-9.6" y="-5.5" width="417.2" height="583.7"/>
		</defs>
		<clipPath id="SVGID_2_">
			<use xlink:href="#SVGID_1_"  style="overflow:visible;"/>
		</clipPath>
		<g class="st2">
			<g>
				<g>
					<g>
						<defs>
							<rect id="SVGID_3_" x="115.9" y="24.7" width="282.2" height="552"/>
						</defs>
						<clipPath id="SVGID_4_">
							<use xlink:href="#SVGID_3_"  style="overflow:visible;"/>
						</clipPath>
					</g>
				</g>
			</g>
			<path class="st3" d="M124.4,27.4h261.8c3.1,0,5.7,2.5,5.7,5.7v531.7c0,3.1-2.5,5.7-5.7,5.7H124.4c-3.1,0-5.7-2.5-5.7-5.7V33.1
				C118.8,30,121.3,27.4,124.4,27.4z"/>
		</g>
	</g>
</g>
<path class="st0" d="M10.5,141.4h170.9c2.9,0,5.3,2.4,5.3,5.3v59.5c0,2.9-2.4,5.3-5.3,5.3H10.5c-2.9,0-5.3-2.4-5.3-5.3v-59.5
	C5.2,143.8,7.5,141.4,10.5,141.4z"/>
<line class="st4" x1="181" y1="87.5" x2="200.6" y2="87.5"/>
<line class="st4" x1="181" y1="173.6" x2="200.6" y2="173.6"/>
<g class="st5">
	<path class="st6" d="M210.7,82.7c0.7-0.1,1.6-0.2,2.5-0.2c1.8,0,3.1,0.5,3.9,1.3c0.8,0.8,1.2,1.9,1.2,3.4c0,1.4-0.4,2.7-1.3,3.7
		c-0.9,0.9-2.3,1.5-4.2,1.5c-0.8,0-1.5,0-2.2-0.1v-9.6H210.7z M211.3,91.7c0.4,0.1,1,0.1,1.6,0.1c3.1,0,4.7-1.8,4.7-4.6
		c0-2.5-1.4-4.2-4.5-4.2c-0.8,0-1.3,0.1-1.8,0.1V91.7z"/>
</g>
<g class="st5">
	<path class="st6" d="M221.1,83.4c0,0.3-0.2,0.6-0.6,0.6c-0.3,0-0.5-0.3-0.5-0.6c0-0.3,0.2-0.6,0.6-0.6
		C220.9,82.7,221.1,83,221.1,83.4z M220.2,92.3v-7h0.7v7H220.2z"/>
</g>
<g class="st5">
	<path class="st6" d="M223.3,87.4c0-0.7,0-1.4-0.1-2.1h0.6v1.4l0,0c0.3-0.9,1-1.6,2-1.6c0.1,0,0.2,0,0.3,0v0.7c-0.1,0-0.2,0-0.3,0
		c-1,0-1.6,0.8-1.8,1.9c0,0.2-0.1,0.4-0.1,0.7v3.8h-0.7v-4.8H223.3z"/>
</g>
<g class="st5">
	<path class="st6" d="M227.6,88.7c0,2.2,1.2,3.1,2.7,3.1c1,0,1.5-0.2,1.9-0.4l0.2,0.6c-0.3,0.1-1,0.4-2.2,0.4c-2,0-3.2-1.4-3.2-3.5
		c0-2.3,1.3-3.8,3.1-3.8c2.3,0,2.7,2.1,2.7,3.1c0,0.2,0,0.3,0,0.4h-5.2V88.7z M232.1,88.2c0-1-0.4-2.4-2.1-2.4
		c-1.5,0-2.2,1.4-2.3,2.4H232.1z"/>
</g>
<g class="st5">
	<path class="st6" d="M239.6,92c-0.3,0.2-1,0.4-2,0.4c-2,0-3.3-1.4-3.3-3.6s1.5-3.7,3.6-3.7c0.9,0,1.6,0.2,1.8,0.4l-0.2,0.6
		c-0.3-0.2-0.9-0.4-1.7-0.4c-1.9,0-2.8,1.4-2.8,3.1c0,1.8,1.1,3,2.8,3c0.8,0,1.4-0.2,1.7-0.4L239.6,92z"/>
</g>
<g class="st5">
	<path class="st6" d="M242.8,83.3v2h2v0.6h-2v4.5c0,0.9,0.3,1.5,1,1.5c0.4,0,0.6-0.1,0.8-0.1l0.1,0.5c-0.2,0.1-0.6,0.2-1,0.2
		c-0.5,0-0.9-0.2-1.2-0.5c-0.3-0.4-0.4-0.9-0.4-1.7v-4.4h-1.2v-0.6h1.2v-1.8L242.8,83.3z"/>
</g>
<g class="st5">
	<path class="st6" d="M252.1,88.7c0,2.6-1.8,3.7-3.3,3.7c-1.8,0-3.2-1.4-3.2-3.6c0-2.4,1.6-3.7,3.3-3.7
		C250.8,85.2,252.1,86.6,252.1,88.7z M246.3,88.8c0,1.7,1.1,3,2.5,3s2.6-1.3,2.6-3.1c0-1.3-0.7-3-2.6-3
		C247.1,85.7,246.3,87.3,246.3,88.8z"/>
</g>
<g class="st5">
	<path class="st6" d="M254,87.4c0-0.7,0-1.4-0.1-2.1h0.6v1.4l0,0c0.3-0.9,1-1.6,2-1.6c0.1,0,0.2,0,0.3,0v0.7c-0.1,0-0.2,0-0.3,0
		c-1,0-1.6,0.8-1.8,1.9c0,0.2-0.1,0.4-0.1,0.7v3.8H254V87.4z"/>
	<path class="st6" d="M269.1,91.9c-0.5,0.2-1.5,0.5-2.8,0.5s-2.5-0.3-3.5-1.3c-0.8-0.8-1.3-2.1-1.3-3.7c0-2.7,1.8-5,5.1-5
		c1.1,0,1.9,0.3,2.3,0.4l-0.2,0.6c-0.5-0.2-1.2-0.4-2.1-0.4c-2.7,0-4.3,1.7-4.3,4.4c0,2.8,1.6,4.4,4.2,4.4c1,0,1.7-0.1,2-0.3V88
		h-2.3v-0.6h3v4.5H269.1z"/>
</g>
<g class="st5">
	<path class="st6" d="M271.5,88.7c0,2.2,1.2,3.1,2.7,3.1c1,0,1.5-0.2,1.9-0.4l0.2,0.6c-0.3,0.1-1,0.4-2.2,0.4c-2,0-3.2-1.4-3.2-3.5
		c0-2.3,1.3-3.8,3.1-3.8c2.3,0,2.7,2.1,2.7,3.1c0,0.2,0,0.3,0,0.4h-5.2V88.7z M275.9,88.2c0-1-0.4-2.4-2.1-2.4
		c-1.5,0-2.2,1.4-2.3,2.4H275.9z"/>
</g>
<g class="st5">
	<path class="st6" d="M278.5,87c0-0.6,0-1.1-0.1-1.7h0.6l0.1,1.3l0,0c0.4-0.8,1.2-1.4,2.4-1.4c0.7,0,2.4,0.3,2.4,2.9v4.2h-0.7v-4.1
		c0-1.3-0.5-2.4-1.9-2.4c-1,0-1.8,0.7-2.1,1.6c-0.1,0.2-0.1,0.4-0.1,0.6v4.3h-0.7V87H278.5z"/>
</g>
<g class="st5">
	<path class="st6" d="M286.5,88.7c0,2.2,1.2,3.1,2.7,3.1c1,0,1.5-0.2,1.9-0.4l0.2,0.6c-0.3,0.1-1,0.4-2.2,0.4c-2,0-3.2-1.4-3.2-3.5
		c0-2.3,1.3-3.8,3.1-3.8c2.3,0,2.7,2.1,2.7,3.1c0,0.2,0,0.3,0,0.4h-5.2V88.7z M291,88.2c0-1-0.4-2.4-2.1-2.4c-1.5,0-2.2,1.4-2.3,2.4
		H291z"/>
</g>
<g class="st5">
	<path class="st6" d="M293.6,87.4c0-0.7,0-1.4-0.1-2.1h0.6v1.4l0,0c0.3-0.9,1-1.6,2-1.6c0.1,0,0.2,0,0.3,0v0.7c-0.1,0-0.2,0-0.3,0
		c-1,0-1.6,0.8-1.8,1.9c0,0.2-0.1,0.4-0.1,0.7v3.8h-0.7v-4.8H293.6z"/>
</g>
<g class="st5">
	<path class="st6" d="M301.8,92.3l-0.1-1l0,0c-0.3,0.5-1.1,1.2-2.2,1.2c-1.4,0-2-1-2-1.9c0-1.6,1.4-2.6,4.2-2.6v-0.2
		c0-0.7-0.1-2.1-1.8-2.1c-0.6,0-1.2,0.2-1.7,0.5l-0.2-0.5c0.6-0.4,1.4-0.6,2-0.6c2,0,2.4,1.5,2.4,2.8v2.7c0,0.6,0,1.1,0.1,1.7H301.8
		z M301.7,88.6c-1.5,0-3.5,0.2-3.5,1.9c0,1,0.7,1.5,1.4,1.5c1.2,0,1.8-0.7,2.1-1.4c0-0.1,0.1-0.3,0.1-0.4v-1.6H301.7z"/>
</g>
<g class="st5">
	<path class="st6" d="M304.7,82h0.7v10.3h-0.7V82z"/>
</g>
<g>
	<g>
		<defs>
			<rect id="SVGID_5_" x="-9.6" y="-5.5" width="417.2" height="583.7"/>
		</defs>
		<clipPath id="SVGID_6_">
			<use xlink:href="#SVGID_5_"  style="overflow:visible;"/>
		</clipPath>
		<g class="st7">
			<g>
				<g>
					<g>
						<defs>
							<rect id="SVGID_7_" y="136" width="189.6" height="78.2"/>
						</defs>
						<clipPath id="SVGID_8_">
							<use xlink:href="#SVGID_7_"  style="overflow:visible;"/>
						</clipPath>
					</g>
				</g>
			</g>
			<path class="st8" d="M7.9,138.6h170.9c2.9,0,5.3,2.4,5.3,5.3v59.5c0,2.9-2.4,5.3-5.3,5.3H7.9c-2.9,0-5.3-2.4-5.3-5.3v-59.5
				C2.6,140.9,4.9,138.6,7.9,138.6z"/>
		</g>
	</g>
</g>
<g class="st5">
	<path class="st9" d="M85.6,175.9c0-1.1-0.1-2.3-0.1-3.6l0,0c-0.3,1.1-0.6,2.4-1,3.4l-1.1,3.4h-1.5l-0.9-3.4c-0.3-1-0.6-2.3-0.8-3.4
		l0,0c-0.1,1.2-0.1,2.5-0.2,3.6l-0.2,3.3H78l0.6-8.8h2.6l0.9,2.9c0.3,1,0.5,2.1,0.7,3.1l0,0c0.2-1,0.5-2.2,0.8-3.1l0.9-2.9h2.6
		l0.5,8.8h-1.9L85.6,175.9z"/>
</g>
<g class="st5">
	<path class="st9" d="M91.3,171.2c0,0.5-0.4,1-1.1,1c-0.6,0-1-0.4-1-1s0.4-1,1-1S91.2,170.6,91.3,171.2z M89.2,179.3v-6.4h2v6.4
		H89.2z"/>
</g>
<g class="st5">
	<path class="st9" d="M94.3,176.8c0.1,0.8,0.9,1.2,1.8,1.2c0.7,0,1.2-0.1,1.8-0.3l0.3,1.3c-0.6,0.3-1.4,0.4-2.3,0.4
		c-2.2,0-3.4-1.2-3.4-3.2c0-1.6,1-3.4,3.2-3.4c2.1,0,2.8,1.6,2.8,3.2c0,0.3,0,0.6-0.1,0.8H94.3z M96.6,175.4c0-0.5-0.2-1.3-1.1-1.3
		c-0.8,0-1.2,0.8-1.2,1.3H96.6z"/>
</g>
<g class="st5">
	<path class="st9" d="M99.6,175c0-0.8,0-1.5-0.1-2h1.7l0.1,0.9l0,0c0.3-0.4,0.8-1,1.9-1c0.8,0,1.5,0.4,1.7,1.1l0,0
		c0.2-0.3,0.5-0.6,0.8-0.8c0.4-0.2,0.7-0.3,1.2-0.3c1.2,0,2.1,0.9,2.1,2.8v3.7h-1.9v-3.5c0-0.9-0.3-1.5-0.9-1.5
		c-0.5,0-0.8,0.3-0.9,0.7c-0.1,0.1-0.1,0.4-0.1,0.5v3.7h-1.9v-3.6c0-0.8-0.3-1.4-0.9-1.4c-0.5,0-0.8,0.4-0.9,0.7
		c-0.1,0.2-0.1,0.3-0.1,0.5v3.7h-1.9V175H99.6z"/>
</g>
<g class="st5">
	<path class="st9" d="M110.8,179.3c0-0.4,0.1-1.2,0.1-1.9v-7.3h2v3.6l0,0c0.4-0.5,1-0.9,1.9-0.9c1.5,0,2.6,1.3,2.6,3.2
		c0,2.3-1.5,3.4-2.9,3.4c-0.7,0-1.5-0.3-1.9-1l0,0l-0.1,0.9H110.8z M112.8,176.6c0,0.1,0,0.2,0,0.4c0.1,0.5,0.6,0.9,1.2,0.9
		c0.8,0,1.4-0.7,1.4-1.8c0-1-0.4-1.8-1.4-1.8c-0.5,0-1,0.4-1.2,1c0,0.1,0,0.2,0,0.4V176.6z"/>
	<path class="st9" d="M118.6,175c0-0.9,0-1.5-0.1-2.1h1.7l0.1,1.2h0.1c0.3-0.9,1.1-1.3,1.7-1.3c0.2,0,0.3,0,0.4,0v1.9
		c-0.1,0-0.3-0.1-0.5-0.1c-0.7,0-1.2,0.4-1.4,1c0,0.1,0,0.3,0,0.4v3.2h-2C118.6,179.2,118.6,175,118.6,175z"/>
</g>
<g class="st5">
	<path class="st9" d="M129.8,176c0,2.3-1.7,3.4-3.4,3.4c-1.9,0-3.3-1.2-3.3-3.3s1.4-3.4,3.4-3.4C128.5,172.8,129.8,174.1,129.8,176z
		 M125.2,176.1c0,1.1,0.5,1.9,1.3,1.9s1.3-0.8,1.3-1.9c0-0.9-0.4-1.9-1.3-1.9C125.5,174.2,125.2,175.2,125.2,176.1z"/>
</g>
<g class="st5">
	<path class="st9" d="M130.9,177.6c0.4,0.2,1.1,0.5,1.7,0.5c0.6,0,0.8-0.2,0.8-0.5s-0.2-0.5-0.9-0.7c-1.3-0.4-1.8-1.2-1.8-1.9
		c0-1.2,1-2.1,2.6-2.1c0.7,0,1.4,0.2,1.8,0.4l-0.4,1.4c-0.3-0.2-0.8-0.4-1.4-0.4c-0.5,0-0.8,0.2-0.8,0.5s0.2,0.5,1,0.7
		c1.2,0.4,1.7,1,1.7,2c0,1.2-0.9,2.1-2.8,2.1c-0.8,0-1.6-0.2-2.1-0.4L130.9,177.6z"/>
</g>
<g class="st5">
	<path class="st6" d="M130.6,9.8c-0.1-1.4-0.1-3-0.1-4.7h-0.1c-0.4,1.5-0.8,3.1-1.3,4.4l-1.4,4.5h-2l-1.2-4.4c-0.4-1.3-0.8-3-1-4.5
		l0,0c-0.1,1.5-0.1,3.3-0.2,4.7l-0.2,4.4h-2.4l0.7-11.5h3.5l1.1,3.8c0.4,1.3,0.7,2.8,1,4.1h0.1c0.3-1.3,0.7-2.8,1.1-4.1l1.2-3.8h3.4
		l0.6,11.5h-2.5L130.6,9.8z"/>
</g>
<g class="st5">
	<path class="st6" d="M138.3,3.6c0,0.7-0.5,1.3-1.4,1.3c-0.8,0-1.4-0.6-1.3-1.3c0-0.7,0.5-1.3,1.4-1.3
		C137.7,2.3,138.2,2.9,138.3,3.6z M135.6,14.2V5.9h2.6v8.3C138.2,14.2,135.6,14.2,135.6,14.2z"/>
</g>
<g class="st5">
	<path class="st6" d="M142.5,10.9c0.1,1.1,1.1,1.6,2.3,1.6c0.9,0,1.6-0.1,2.3-0.3l0.3,1.8c-0.9,0.3-1.9,0.5-3,0.5
		c-2.8,0-4.4-1.6-4.4-4.2c0-2.1,1.3-4.4,4.2-4.4c2.7,0,3.7,2.1,3.7,4.1c0,0.4-0.1,0.8-0.1,1h-5.3V10.9z M145.5,9.1
		c0-0.6-0.3-1.7-1.5-1.7c-1.1,0-1.5,1-1.6,1.7H145.5z"/>
</g>
<g class="st5">
	<path class="st6" d="M149.8,8.6c0-1,0-1.9-0.1-2.7h2.2L152,7h0.1c0.4-0.5,1.1-1.3,2.5-1.3c1.1,0,1.9,0.5,2.3,1.4l0,0
		c0.3-0.4,0.7-0.8,1.1-1c0.5-0.3,1-0.4,1.6-0.4c1.6,0,2.8,1.1,2.8,3.6v4.9h-2.5V9.7c0-1.2-0.4-1.9-1.2-1.9c-0.6,0-1,0.4-1.2,0.9
		c-0.1,0.2-0.1,0.5-0.1,0.7v4.9h-2.5V9.6c0-1.1-0.4-1.8-1.2-1.8c-0.7,0-1.1,0.5-1.2,0.9c-0.1,0.2-0.1,0.4-0.1,0.6v4.8h-2.5V8.6
		H149.8z"/>
</g>
<g class="st5">
	<path class="st6" d="M164.7,14.2c0-0.5,0.1-1.5,0.1-2.5V2.2h2.6v4.7l0,0c0.5-0.7,1.4-1.2,2.5-1.2c2,0,3.5,1.6,3.4,4.2
		c0,3-1.9,4.5-3.8,4.5c-1,0-1.9-0.4-2.5-1.3l0,0l-0.1,1.2L164.7,14.2L164.7,14.2z M167.3,10.7c0,0.2,0,0.3,0.1,0.5
		c0.2,0.7,0.8,1.2,1.5,1.2c1.1,0,1.8-0.9,1.8-2.3c0-1.3-0.6-2.3-1.8-2.3c-0.7,0-1.3,0.5-1.5,1.3c0,0.2-0.1,0.3-0.1,0.5V10.7z"/>
</g>
<g class="st5">
	<path class="st6" d="M175.2,8.7c0-1.2,0-2-0.1-2.7h2.2l0.1,1.5h0.1c0.4-1.2,1.4-1.7,2.2-1.7c0.2,0,0.4,0,0.5,0v2.4
		c-0.2,0-0.4-0.1-0.7-0.1c-1,0-1.6,0.5-1.8,1.3c0,0.2-0.1,0.4-0.1,0.6v4.2H175V8.7H175.2z"/>
</g>
<g class="st5">
	<path class="st6" d="M190.2,10c0,3-2.2,4.4-4.4,4.4c-2.4,0-4.3-1.6-4.3-4.3s1.8-4.4,4.4-4.4C188.5,5.7,190.2,7.5,190.2,10z
		 M184.2,10.1c0,1.4,0.6,2.5,1.7,2.5c1,0,1.6-1,1.6-2.5c0-1.2-0.5-2.5-1.6-2.5C184.6,7.6,184.2,8.8,184.2,10.1z"/>
</g>
<g class="st5">
	<path class="st6" d="M192,12c0.5,0.3,1.5,0.6,2.2,0.6c0.8,0,1.1-0.3,1.1-0.7s-0.3-0.6-1.2-1c-1.7-0.6-2.4-1.5-2.4-2.5
		c0-1.5,1.3-2.7,3.4-2.7c1,0,1.8,0.2,2.3,0.5L197,8c-0.4-0.2-1.1-0.5-1.8-0.5c-0.6,0-1,0.3-1,0.7s0.3,0.6,1.3,1
		c1.6,0.5,2.2,1.3,2.3,2.6c0,1.5-1.2,2.7-3.6,2.7c-1.1,0-2.1-0.2-2.7-0.6L192,12z"/>
</g>
<g class="st5">
	<path class="st6" d="M211.8,162.1l-1.2,3.4h-0.7l3.5-9.8h0.7l3.5,9.8h-0.7l-1.2-3.4H211.8z M215.5,161.5l-1.2-3.3
		c-0.2-0.7-0.4-1.2-0.5-1.7l0,0c-0.1,0.6-0.3,1.1-0.5,1.7l-1.2,3.3H215.5z"/>
</g>
<g class="st5">
	<path class="st6" d="M219.2,164.6c0.4,0.2,0.9,0.5,1.6,0.5c1.1,0,1.6-0.6,1.6-1.3c0-0.8-0.5-1.2-1.5-1.6c-1.1-0.4-1.8-1.1-1.8-1.9
		c0-1,0.8-1.9,2.1-1.9c0.6,0,1.2,0.2,1.5,0.4l-0.3,0.6c-0.2-0.2-0.7-0.4-1.4-0.4c-0.9,0-1.3,0.6-1.3,1.2c0,0.7,0.5,1,1.4,1.4
		c1.1,0.4,1.8,1,1.8,2.1c0,1.2-0.9,2-2.3,2c-0.7,0-1.3-0.2-1.8-0.5L219.2,164.6z"/>
</g>
<g class="st5">
	<path class="st6" d="M230.2,163.8c0,0.6,0,1.2,0.1,1.7h-0.6v-1.2l0,0c-0.3,0.6-1.1,1.4-2.4,1.4c-0.9,0-2.4-0.4-2.4-3.1v-4h0.7v3.9
		c0,1.5,0.5,2.6,1.9,2.6c1,0,1.8-0.7,2-1.4c0.1-0.2,0.1-0.5,0.1-0.8v-4.3h0.7v5.2H230.2z"/>
</g>
<g class="st5">
	<path class="st6" d="M232.6,160.2c0-0.6,0-1.1-0.1-1.7h0.6l0.1,1.3l0,0c0.4-0.8,1.2-1.4,2.4-1.4c0.7,0,2.4,0.3,2.4,2.9v4.2h-0.7
		v-4.1c0-1.3-0.5-2.4-1.9-2.4c-1,0-1.8,0.7-2.1,1.6c-0.1,0.2-0.1,0.4-0.1,0.6v4.3h-0.7v-5.3H232.6z"/>
</g>
<g class="st5">
	<path class="st6" d="M241.3,156.5v2h2v0.6h-2v4.5c0,0.9,0.3,1.5,1,1.5c0.4,0,0.6-0.1,0.8-0.1l0.1,0.5c-0.2,0.1-0.6,0.2-1,0.2
		c-0.5,0-0.9-0.2-1.2-0.5c-0.3-0.4-0.4-0.9-0.4-1.7v-4.4h-1.2v-0.6h1.2v-1.8L241.3,156.5z"/>
</g>
<g class="st5">
	<path class="st6" d="M250.6,161.9c0,2.6-1.8,3.7-3.3,3.7c-1.8,0-3.2-1.4-3.2-3.6c0-2.4,1.6-3.7,3.3-3.7
		C249.3,158.4,250.6,159.8,250.6,161.9z M244.8,162c0,1.7,1.1,3,2.5,3s2.6-1.3,2.6-3.1c0-1.3-0.7-3-2.6-3
		C245.6,158.9,244.8,160.5,244.8,162z"/>
</g>
<g class="st5">
	<path class="st6" d="M252.2,164.6c0.4,0.2,0.9,0.5,1.6,0.5c1.1,0,1.6-0.6,1.6-1.3c0-0.8-0.5-1.2-1.5-1.6c-1.1-0.4-1.8-1.1-1.8-1.9
		c0-1,0.8-1.9,2.1-1.9c0.6,0,1.2,0.2,1.5,0.4l-0.3,0.6c-0.2-0.2-0.7-0.4-1.4-0.4c-0.9,0-1.3,0.6-1.3,1.2c0,0.7,0.5,1,1.4,1.4
		c1.1,0.4,1.8,1,1.8,2.1c0,1.2-0.9,2-2.3,2c-0.7,0-1.3-0.2-1.8-0.5L252.2,164.6z"/>
</g>
<g class="st5">
	<path class="st6" d="M268.3,165.1c-0.5,0.3-1.4,0.5-2.6,0.5c-2.4,0-4.6-1.5-4.6-5c0-2.9,1.9-5.1,4.9-5.1c1.2,0,2,0.3,2.3,0.4
		l-0.2,0.6c-0.5-0.2-1.2-0.4-2-0.4c-2.6,0-4.2,1.7-4.2,4.5c0,2.7,1.5,4.4,4.1,4.4c0.8,0,1.7-0.2,2.2-0.4L268.3,165.1z"/>
</g>
<g class="st5">
	<path class="st6" d="M275.7,161.9c0,2.6-1.8,3.7-3.3,3.7c-1.8,0-3.2-1.4-3.2-3.6c0-2.4,1.6-3.7,3.3-3.7
		C274.4,158.4,275.7,159.8,275.7,161.9z M269.9,162c0,1.7,1.1,3,2.5,3s2.6-1.3,2.6-3.1c0-1.3-0.7-3-2.6-3
		C270.7,158.9,269.9,160.5,269.9,162z"/>
</g>
<g class="st5">
	<path class="st6" d="M277.7,160.6c0-0.7,0-1.4-0.1-2.1h0.6v1.4l0,0c0.3-0.9,1-1.6,2-1.6c0.1,0,0.2,0,0.3,0v0.7c-0.1,0-0.2,0-0.3,0
		c-1,0-1.6,0.8-1.8,1.9c0,0.2-0.1,0.4-0.1,0.7v3.8h-0.7v-4.8H277.7z"/>
</g>
<g class="st5">
	<path class="st6" d="M282.1,160.7c0-0.9,0-1.6-0.1-2.2h0.7l0.1,1.3l0,0c0.5-0.9,1.3-1.5,2.6-1.5c1.8,0,3,1.5,3,3.5
		c0,2.5-1.5,3.8-3.2,3.8c-1,0-1.9-0.4-2.4-1.3l0,0v4h-0.7V160.7z M282.8,162.7c0,0.2,0,0.4,0.1,0.6c0.3,1.1,1.2,1.8,2.3,1.8
		c1.6,0,2.5-1.3,2.5-3.1c0-1.6-0.9-3-2.5-3c-1,0-2,0.7-2.3,1.9c0,0.2-0.1,0.4-0.1,0.6V162.7z"/>
</g>
<g class="st5">
	<path class="st6" d="M296.4,161.9c0,2.6-1.8,3.7-3.3,3.7c-1.8,0-3.2-1.4-3.2-3.6c0-2.4,1.6-3.7,3.3-3.7
		C295.1,158.4,296.4,159.8,296.4,161.9z M290.6,162c0,1.7,1.1,3,2.5,3s2.6-1.3,2.6-3.1c0-1.3-0.7-3-2.6-3
		C291.4,158.9,290.6,160.5,290.6,162z"/>
</g>
<g class="st5">
	<path class="st6" d="M298.3,160.6c0-0.7,0-1.4-0.1-2.1h0.6v1.4l0,0c0.3-0.9,1-1.6,2-1.6c0.1,0,0.2,0,0.3,0v0.7c-0.1,0-0.2,0-0.3,0
		c-1,0-1.6,0.8-1.8,1.9c0,0.2-0.1,0.4-0.1,0.7v3.8h-0.7v-4.8H298.3z"/>
</g>
<g class="st5">
	<path class="st6" d="M306.6,165.5l-0.1-1l0,0c-0.3,0.5-1.1,1.2-2.2,1.2c-1.4,0-2-1-2-1.9c0-1.6,1.4-2.6,4.2-2.6V161
		c0-0.7-0.1-2.1-1.8-2.1c-0.6,0-1.2,0.2-1.7,0.5l-0.2-0.5c0.6-0.4,1.4-0.6,2-0.6c2,0,2.4,1.5,2.4,2.8v2.7c0,0.6,0,1.1,0.1,1.7
		L306.6,165.5L306.6,165.5z M306.4,161.8c-1.5,0-3.5,0.2-3.5,1.9c0,1,0.7,1.5,1.4,1.5c1.2,0,1.8-0.7,2.1-1.4c0-0.1,0.1-0.3,0.1-0.4
		v-1.6H306.4z"/>
</g>
<g class="st5">
	<path class="st6" d="M310.3,156.5v2h2v0.6h-2v4.5c0,0.9,0.3,1.5,1,1.5c0.4,0,0.6-0.1,0.8-0.1l0.1,0.5c-0.2,0.1-0.6,0.2-1,0.2
		c-0.5,0-0.9-0.2-1.2-0.5c-0.3-0.4-0.4-0.9-0.4-1.7v-4.4h-1.2v-0.6h1.2v-1.8L310.3,156.5z"/>
</g>
<g class="st5">
	<path class="st6" d="M314.8,156.5c0,0.3-0.2,0.6-0.6,0.6c-0.3,0-0.5-0.3-0.5-0.6s0.2-0.6,0.6-0.6
		C314.6,155.9,314.8,156.2,314.8,156.5z M313.9,165.5v-7h0.7v7H313.9z"/>
</g>
<g class="st5">
	<path class="st6" d="M316.9,158.5l1.6,4.3c0.3,0.7,0.5,1.3,0.7,1.9l0,0c0.2-0.6,0.4-1.2,0.7-1.9l1.7-4.3h0.7l-2.8,7h-0.6l-2.7-7
		H316.9z"/>
</g>
<g class="st5">
	<path class="st6" d="M329.6,161.9c0,2.6-1.8,3.7-3.3,3.7c-1.8,0-3.2-1.4-3.2-3.6c0-2.4,1.6-3.7,3.3-3.7
		C328.3,158.4,329.6,159.8,329.6,161.9z M323.8,162c0,1.7,1.1,3,2.5,3s2.6-1.3,2.6-3.1c0-1.3-0.7-3-2.6-3
		C324.6,158.9,323.8,160.5,323.8,162z"/>
</g>
<g class="st5">
	<path class="st6" d="M331.2,164.6c0.4,0.2,0.9,0.5,1.6,0.5c1.1,0,1.6-0.6,1.6-1.3c0-0.8-0.5-1.2-1.5-1.6c-1.1-0.4-1.8-1.1-1.8-1.9
		c0-1,0.8-1.9,2.1-1.9c0.6,0,1.2,0.2,1.5,0.4l-0.3,0.6c-0.2-0.2-0.7-0.4-1.4-0.4c-0.9,0-1.3,0.6-1.3,1.2c0,0.7,0.5,1,1.4,1.4
		c1.1,0.4,1.8,1,1.8,2.1c0,1.2-0.9,2-2.3,2c-0.7,0-1.3-0.2-1.8-0.5L331.2,164.6z"/>
</g>
<g class="st5">
	<path class="st6" d="M336.2,167.3c0.2-0.6,0.6-2.2,0.8-3.1l0.9-0.1c-0.3,1.1-0.9,2.7-1.1,3.1L336.2,167.3z"/>
</g>
<g class="st5">
	<path class="st6" d="M217.3,182.5c-0.5,0.3-1.4,0.5-2.6,0.5c-2.4,0-4.6-1.5-4.6-5c0-2.9,1.9-5.1,4.9-5.1c1.2,0,2,0.3,2.3,0.4
		L217,174c-0.5-0.2-1.2-0.4-2-0.4c-2.6,0-4.2,1.7-4.2,4.5c0,2.7,1.5,4.4,4.1,4.4c0.8,0,1.7-0.2,2.2-0.4L217.3,182.5z"/>
</g>
<g class="st5">
	<path class="st6" d="M218.9,179.3c0,2.2,1.2,3.1,2.7,3.1c1,0,1.5-0.2,1.9-0.4l0.2,0.6c-0.3,0.1-1,0.4-2.2,0.4c-2,0-3.2-1.4-3.2-3.5
		c0-2.3,1.3-3.8,3.1-3.8c2.3,0,2.7,2.1,2.7,3.1c0,0.2,0,0.3,0,0.4L218.9,179.3L218.9,179.3z M223.4,178.8c0-1-0.4-2.4-2.1-2.4
		c-1.5,0-2.2,1.4-2.3,2.4H223.4z"/>
</g>
<g class="st5">
	<path class="st6" d="M225.9,177.6c0-0.6,0-1.1-0.1-1.7h0.6l0.1,1.3l0,0c0.4-0.8,1.2-1.4,2.4-1.4c0.7,0,2.4,0.3,2.4,2.9v4.2h-0.7
		v-4.1c0-1.3-0.5-2.4-1.9-2.4c-1,0-1.8,0.7-2.1,1.6c-0.1,0.2-0.1,0.4-0.1,0.6v4.3h-0.7v-5.3H225.9z"/>
</g>
<g class="st5">
	<path class="st6" d="M234.6,173.9v2h2v0.6h-2v4.5c0,0.9,0.3,1.5,1,1.5c0.4,0,0.6-0.1,0.8-0.1l0.1,0.5c-0.2,0.1-0.6,0.2-1,0.2
		c-0.5,0-0.9-0.2-1.2-0.5c-0.3-0.4-0.4-0.9-0.4-1.7v-4.4h-1.2v-0.6h1.2v-1.8L234.6,173.9z"/>
</g>
<g class="st5">
	<path class="st6" d="M238.2,178c0-0.7,0-1.4-0.1-2.1h0.6v1.4l0,0c0.3-0.9,1-1.6,2-1.6c0.1,0,0.2,0,0.3,0v0.7c-0.1,0-0.2,0-0.3,0
		c-1,0-1.6,0.8-1.8,1.9c0,0.2-0.1,0.4-0.1,0.7v3.8h-0.7V178H238.2z"/>
</g>
<g class="st5">
	<path class="st6" d="M248.4,179.3c0,2.6-1.8,3.7-3.3,3.7c-1.8,0-3.2-1.4-3.2-3.6c0-2.4,1.6-3.7,3.3-3.7
		C247.1,175.8,248.4,177.2,248.4,179.3z M242.6,179.4c0,1.7,1.1,3,2.5,3s2.6-1.3,2.6-3.1c0-1.3-0.7-3-2.6-3
		C243.4,176.3,242.6,177.9,242.6,179.4z"/>
</g>
<g class="st5">
	<path class="st6" d="M254.2,182.9l-0.1-1l0,0c-0.3,0.5-1.1,1.2-2.2,1.2c-1.4,0-2-1-2-1.9c0-1.6,1.4-2.6,4.2-2.6v-0.2
		c0-0.7-0.1-2.1-1.8-2.1c-0.6,0-1.2,0.2-1.7,0.5l-0.2-0.5c0.6-0.4,1.4-0.6,2-0.6c2,0,2.4,1.5,2.4,2.8v2.7c0,0.6,0,1.1,0.1,1.7
		L254.2,182.9L254.2,182.9z M254,179.2c-1.5,0-3.5,0.2-3.5,1.9c0,1,0.7,1.5,1.4,1.5c1.2,0,1.8-0.7,2.1-1.4c0-0.1,0.1-0.3,0.1-0.4
		v-1.6H254z"/>
</g>
<g class="st5">
	<path class="st6" d="M257,177.6c0-0.6,0-1.1-0.1-1.7h0.6l0.1,1.2l0,0c0.4-0.8,1.1-1.4,2.2-1.4c1,0,1.7,0.6,2,1.5l0,0
		c0.2-0.4,0.4-0.7,0.7-0.9c0.4-0.4,0.9-0.6,1.7-0.6c0.7,0,2.3,0.4,2.3,3v4.1h-0.7v-4c0-1.6-0.6-2.5-1.8-2.5c-0.9,0-1.6,0.6-1.8,1.4
		c-0.1,0.2-0.1,0.4-0.1,0.7v4.5h-0.7v-4.3c0-1.3-0.6-2.2-1.7-2.2c-0.9,0-1.7,0.8-1.9,1.6c-0.1,0.2-0.1,0.4-0.1,0.7v4.3H257V177.6z"
		/>
</g>
<g class="st5">
	<path class="st6" d="M269.2,179.3c0,2.2,1.2,3.1,2.7,3.1c1,0,1.5-0.2,1.9-0.4l0.2,0.6c-0.3,0.1-1,0.4-2.2,0.4c-2,0-3.2-1.4-3.2-3.5
		c0-2.3,1.3-3.8,3.1-3.8c2.3,0,2.7,2.1,2.7,3.1c0,0.2,0,0.3,0,0.4L269.2,179.3L269.2,179.3z M273.6,178.8c0-1-0.4-2.4-2.1-2.4
		c-1.5,0-2.2,1.4-2.3,2.4H273.6z M273.4,172.9l-1.8,2h-0.5l1.3-2H273.4z"/>
</g>
<g class="st5">
	<path class="st6" d="M276.2,178c0-0.7,0-1.4-0.1-2.1h0.6v1.4l0,0c0.3-0.9,1-1.6,2-1.6c0.1,0,0.2,0,0.3,0v0.7c-0.1,0-0.2,0-0.3,0
		c-1,0-1.6,0.8-1.8,1.9c0,0.2-0.1,0.4-0.1,0.7v3.8h-0.7V178H276.2z"/>
</g>
<g class="st5">
	<path class="st6" d="M281.5,173.9c0,0.3-0.2,0.6-0.6,0.6c-0.3,0-0.5-0.3-0.5-0.6s0.2-0.6,0.6-0.6
		C281.3,173.3,281.5,173.6,281.5,173.9z M280.6,182.9v-7h0.7v7H280.6z"/>
</g>
<g class="st5">
	<path class="st6" d="M288.6,182.6c-0.3,0.2-1,0.4-2,0.4c-2,0-3.3-1.4-3.3-3.6c0-2.2,1.5-3.7,3.6-3.7c0.9,0,1.6,0.2,1.8,0.4
		l-0.2,0.6c-0.3-0.2-0.9-0.4-1.7-0.4c-1.9,0-2.8,1.4-2.8,3.1c0,1.8,1.1,3,2.8,3c0.8,0,1.4-0.2,1.7-0.4L288.6,182.6z"/>
</g>
<g class="st5">
	<path class="st6" d="M294.2,182.9l-0.1-1l0,0c-0.3,0.5-1.1,1.2-2.2,1.2c-1.4,0-2-1-2-1.9c0-1.6,1.4-2.6,4.2-2.6v-0.2
		c0-0.7-0.1-2.1-1.8-2.1c-0.6,0-1.2,0.2-1.7,0.5l-0.2-0.5c0.6-0.4,1.4-0.6,2-0.6c2,0,2.4,1.5,2.4,2.8v2.7c0,0.6,0,1.1,0.1,1.7
		L294.2,182.9L294.2,182.9z M294.1,179.2c-1.5,0-3.5,0.2-3.5,1.9c0,1,0.7,1.5,1.4,1.5c1.2,0,1.8-0.7,2.1-1.4c0-0.1,0.1-0.3,0.1-0.4
		v-1.6H294.1z"/>
</g>
<g class="st5">
	<path class="st6" d="M211.8,201.9l-1.2,3.4h-0.7l3.5-9.8h0.7l3.5,9.8h-0.7l-1.2-3.4H211.8z M215.5,201.3l-1.2-3.3
		c-0.2-0.7-0.4-1.2-0.5-1.7l0,0c-0.1,0.6-0.3,1.1-0.5,1.7l-1.2,3.3H215.5z"/>
</g>
<g class="st5">
	<path class="st6" d="M224.4,203.6c0,0.6,0,1.2,0.1,1.7h-0.6v-1.2l0,0c-0.3,0.6-1.1,1.4-2.4,1.4c-0.9,0-2.4-0.4-2.4-3.1v-4h0.7v3.9
		c0,1.5,0.5,2.6,1.9,2.6c1,0,1.8-0.7,2-1.4c0.1-0.2,0.1-0.5,0.1-0.8v-4.3h0.7v5.2H224.4z"/>
</g>
<g class="st5">
	<path class="st6" d="M232.5,195v8.7c0,0.5,0,1.1,0.1,1.6H232V204l0,0c-0.4,0.8-1.2,1.5-2.5,1.5c-1.7,0-3-1.4-3-3.5
		c0-2.3,1.4-3.8,3.1-3.8c1.2,0,2,0.6,2.3,1.2l0,0V195H232.5z M231.8,201.1c0-0.2,0-0.4-0.1-0.6c-0.2-0.9-1.1-1.7-2.2-1.7
		c-1.5,0-2.5,1.3-2.5,3.1c0,1.6,0.8,3,2.4,3c1,0,1.9-0.7,2.2-1.8c0-0.2,0.1-0.4,0.1-0.6v-1.4H231.8z"/>
</g>
<g class="st5">
	<path class="st6" d="M235.8,196.3c0,0.3-0.2,0.6-0.6,0.6c-0.3,0-0.5-0.3-0.5-0.6s0.2-0.6,0.6-0.6
		C235.5,195.7,235.8,196,235.8,196.3z M234.9,205.3v-7h0.7v7H234.9z"/>
</g>
<g class="st5">
	<path class="st6" d="M239,196.3v2h2v0.6h-2v4.5c0,0.9,0.3,1.5,1,1.5c0.4,0,0.6-0.1,0.8-0.1l0.1,0.5c-0.2,0.1-0.6,0.2-1,0.2
		c-0.5,0-0.9-0.2-1.2-0.5c-0.3-0.4-0.4-0.9-0.4-1.7v-4.4h-1.2v-0.6h1.2v-1.8L239,196.3z"/>
</g>
<g class="st5">
	<path class="st6" d="M248.3,201.7c0,2.6-1.8,3.7-3.3,3.7c-1.8,0-3.2-1.4-3.2-3.6c0-2.4,1.6-3.7,3.3-3.7
		C247,198.2,248.3,199.6,248.3,201.7z M242.5,201.8c0,1.7,1.1,3,2.5,3s2.6-1.3,2.6-3.1c0-1.3-0.7-3-2.6-3
		C243.3,198.7,242.5,200.3,242.5,201.8z"/>
</g>
<g class="st5">
	<path class="st6" d="M250.3,200.4c0-0.7,0-1.4-0.1-2.1h0.6v1.4l0,0c0.3-0.9,1-1.6,2-1.6c0.1,0,0.2,0,0.3,0v0.7c-0.1,0-0.2,0-0.3,0
		c-1,0-1.6,0.8-1.8,1.9c0,0.2-0.1,0.4-0.1,0.7v3.8h-0.7v-4.8H250.3z"/>
</g>
<g class="st5">
	<path class="st6" d="M256.8,195.3l-1.8,2h-0.5l1.3-2H256.8z M254.7,205.3v-7h0.7v7H254.7z"/>
</g>
<g class="st5">
	<path class="st6" d="M261.5,205.3l-0.1-1l0,0c-0.3,0.5-1.1,1.2-2.2,1.2c-1.4,0-2-1-2-1.9c0-1.6,1.4-2.6,4.2-2.6v-0.2
		c0-0.7-0.1-2.1-1.8-2.1c-0.6,0-1.2,0.2-1.7,0.5l-0.2-0.5c0.6-0.4,1.4-0.6,2-0.6c2,0,2.4,1.5,2.4,2.8v2.7c0,0.6,0,1.1,0.1,1.7
		L261.5,205.3L261.5,205.3z M261.3,201.6c-1.5,0-3.5,0.2-3.5,1.9c0,1,0.7,1.5,1.4,1.5c1.2,0,1.8-0.7,2.1-1.4c0-0.1,0.1-0.3,0.1-0.4
		v-1.6H261.3z"/>
</g>
<g class="st5">
	<path class="st6" d="M210.7,218c0.5-0.1,1.2-0.2,2-0.2c1.2,0,2,0.3,2.6,0.8c0.4,0.4,0.6,0.9,0.6,1.6c0,1-0.7,1.8-1.7,2.2l0,0
		c0.8,0.2,2.1,0.9,2.1,2.5c0,0.8-0.3,1.4-0.7,1.9c-0.6,0.7-1.7,0.9-3.1,0.9c-0.8,0-1.3-0.1-1.7-0.1V218H210.7z M211.3,222.2h1.4
		c1.4,0,2.3-0.8,2.3-1.9c0-1.4-1-1.9-2.5-1.9c-0.7,0-1,0-1.2,0.1V222.2z M211.3,227.1c0.3,0.1,0.7,0.1,1.2,0.1
		c1.5,0,2.9-0.5,2.9-2.2c0-1.5-1.3-2.2-2.9-2.2h-1.2V227.1z"/>
</g>
<g class="st5">
	<path class="st6" d="M219,218.7c0,0.3-0.2,0.6-0.6,0.6c-0.3,0-0.5-0.3-0.5-0.6s0.2-0.6,0.6-0.6C218.7,218.1,219,218.4,219,218.7z
		 M218.1,227.7v-7h0.7v7H218.1z"/>
</g>
<g class="st5">
	<path class="st6" d="M221.3,224.1c0,2.2,1.2,3.1,2.7,3.1c1,0,1.5-0.2,1.9-0.4l0.2,0.6c-0.3,0.1-1,0.4-2.2,0.4c-2,0-3.2-1.4-3.2-3.5
		c0-2.3,1.3-3.8,3.1-3.8c2.3,0,2.7,2.1,2.7,3.1c0,0.2,0,0.3,0,0.4L221.3,224.1L221.3,224.1z M225.8,223.6c0-1-0.4-2.4-2.1-2.4
		c-1.5,0-2.2,1.4-2.3,2.4H225.8z"/>
</g>
<g class="st5">
	<path class="st6" d="M228.3,222.4c0-0.6,0-1.1-0.1-1.7h0.6l0.1,1.3l0,0c0.4-0.8,1.2-1.4,2.4-1.4c0.7,0,2.4,0.3,2.4,2.9v4.2H233
		v-4.1c0-1.3-0.5-2.4-1.9-2.4c-1,0-1.8,0.7-2.1,1.6c-0.1,0.2-0.1,0.4-0.1,0.6v4.3h-0.7v-5.3H228.3z"/>
</g>
<g class="st5">
	<path class="st6" d="M236.4,224.1c0,2.2,1.2,3.1,2.7,3.1c1,0,1.5-0.2,1.9-0.4l0.2,0.6c-0.3,0.1-1,0.4-2.2,0.4c-2,0-3.2-1.4-3.2-3.5
		c0-2.3,1.3-3.8,3.1-3.8c2.3,0,2.7,2.1,2.7,3.1c0,0.2,0,0.3,0,0.4L236.4,224.1L236.4,224.1z M240.8,223.6c0-1-0.4-2.4-2.1-2.4
		c-1.5,0-2.2,1.4-2.3,2.4H240.8z"/>
</g>
<g class="st5">
	<path class="st6" d="M243.1,226.8c0.4,0.2,0.9,0.5,1.6,0.5c1.1,0,1.6-0.6,1.6-1.3c0-0.8-0.5-1.2-1.5-1.6c-1.1-0.4-1.8-1.1-1.8-1.9
		c0-1,0.8-1.9,2.1-1.9c0.6,0,1.2,0.2,1.5,0.4l-0.3,0.6c-0.2-0.2-0.7-0.4-1.4-0.4c-0.9,0-1.3,0.6-1.3,1.2c0,0.7,0.5,1,1.4,1.4
		c1.1,0.4,1.8,1,1.8,2.1c0,1.2-0.9,2-2.3,2c-0.7,0-1.3-0.2-1.8-0.5L243.1,226.8z"/>
</g>
<g class="st5">
	<path class="st6" d="M252.6,218c0.6-0.1,1.4-0.2,2.1-0.2c1.3,0,2.1,0.3,2.6,0.8c0.4,0.4,0.7,1.1,0.7,1.7c0,1.3-0.8,2.2-1.9,2.6l0,0
		c0.8,0.2,1.3,1,1.5,2.1c0.3,1.5,0.5,2.2,0.7,2.6h-0.7c-0.1-0.3-0.4-1.1-0.6-2.4c-0.3-1.4-0.9-2-2.2-2.1h-1.5v4.5h-0.7L252.6,218
		L252.6,218z M253.3,222.6h1.6c1.5,0,2.5-0.8,2.5-2.1c0-1.5-1.1-2.1-2.6-2.1c-0.7,0-1.2,0.1-1.4,0.1v4.1H253.3z"/>
</g>
<g class="st5">
	<path class="st6" d="M263.9,227.7l-0.1-1l0,0c-0.3,0.5-1.1,1.2-2.2,1.2c-1.4,0-2-1-2-1.9c0-1.6,1.4-2.6,4.2-2.6v-0.2
		c0-0.7-0.1-2.1-1.8-2.1c-0.6,0-1.2,0.2-1.7,0.5l-0.2-0.5c0.6-0.4,1.4-0.6,2-0.6c2,0,2.4,1.5,2.4,2.8v2.7c0,0.6,0,1.1,0.1,1.7
		L263.9,227.7L263.9,227.7z M263.7,224c-1.5,0-3.5,0.2-3.5,1.9c0,1,0.7,1.5,1.4,1.5c1.2,0,1.8-0.7,2.1-1.4c0-0.1,0.1-0.3,0.1-0.4
		V224H263.7z"/>
</g>
<g class="st5">
	<path class="st6" d="M268.8,217.7l-1.8,2h-0.5l1.3-2H268.8z M266.7,227.7v-7h0.7v7H266.7z"/>
</g>
<g class="st5">
	<path class="st6" d="M274.6,227.4c-0.3,0.2-1,0.4-2,0.4c-2,0-3.3-1.4-3.3-3.6c0-2.2,1.5-3.7,3.6-3.7c0.9,0,1.6,0.2,1.8,0.4
		l-0.2,0.6c-0.3-0.2-0.9-0.4-1.7-0.4c-1.9,0-2.8,1.4-2.8,3.1c0,1.8,1.1,3,2.8,3c0.8,0,1.4-0.2,1.7-0.4L274.6,227.4z"/>
</g>
<g class="st5">
	<path class="st6" d="M276.3,224.1c0,2.2,1.2,3.1,2.7,3.1c1,0,1.5-0.2,1.9-0.4l0.2,0.6c-0.3,0.1-1,0.4-2.2,0.4c-2,0-3.2-1.4-3.2-3.5
		c0-2.3,1.3-3.8,3.1-3.8c2.3,0,2.7,2.1,2.7,3.1c0,0.2,0,0.3,0,0.4L276.3,224.1L276.3,224.1z M280.7,223.6c0-1-0.4-2.4-2.1-2.4
		c-1.5,0-2.2,1.4-2.3,2.4H280.7z"/>
</g>
<g class="st5">
	<path class="st6" d="M283,226.8c0.4,0.2,0.9,0.5,1.6,0.5c1.1,0,1.6-0.6,1.6-1.3c0-0.8-0.5-1.2-1.5-1.6c-1.1-0.4-1.8-1.1-1.8-1.9
		c0-1,0.8-1.9,2.1-1.9c0.6,0,1.2,0.2,1.5,0.4l-0.3,0.6c-0.2-0.2-0.7-0.4-1.4-0.4c-0.9,0-1.3,0.6-1.3,1.2c0,0.7,0.5,1,1.4,1.4
		c1.1,0.4,1.8,1,1.8,2.1c0,1.2-0.9,2-2.3,2c-0.7,0-1.3-0.2-1.8-0.5L283,226.8z"/>
</g>
<g class="st5">
	<path class="st6" d="M217.3,249.7c-0.5,0.3-1.4,0.5-2.6,0.5c-2.4,0-4.6-1.5-4.6-5c0-2.9,1.9-5.1,4.9-5.1c1.2,0,2,0.3,2.3,0.4
		l-0.2,0.6c-0.5-0.2-1.2-0.4-2-0.4c-2.6,0-4.2,1.7-4.2,4.5c0,2.7,1.5,4.4,4.1,4.4c0.8,0,1.7-0.2,2.2-0.4L217.3,249.7z"/>
</g>
<g class="st5">
	<path class="st6" d="M224.8,246.5c0,2.6-1.8,3.7-3.3,3.7c-1.8,0-3.2-1.4-3.2-3.6c0-2.4,1.6-3.7,3.3-3.7
		C223.5,243,224.8,244.4,224.8,246.5z M218.9,246.6c0,1.7,1.1,3,2.5,3s2.6-1.3,2.6-3.1c0-1.3-0.7-3-2.6-3
		C219.7,243.5,218.9,245.1,218.9,246.6z"/>
</g>
<g class="st5">
	<path class="st6" d="M226.7,244.8c0-0.6,0-1.1-0.1-1.7h0.6l0.1,1.2l0,0c0.4-0.8,1.1-1.4,2.2-1.4c1,0,1.7,0.6,2,1.5l0,0
		c0.2-0.4,0.4-0.7,0.7-0.9c0.4-0.4,0.9-0.6,1.7-0.6c0.7,0,2.3,0.4,2.3,3v4.1h-0.7v-4c0-1.6-0.6-2.5-1.8-2.5c-0.9,0-1.6,0.6-1.8,1.4
		c-0.1,0.2-0.1,0.4-0.1,0.7v4.5h-0.7v-4.3c0-1.3-0.6-2.2-1.7-2.2c-0.9,0-1.7,0.8-1.9,1.6c-0.1,0.2-0.1,0.4-0.1,0.7v4.3h-0.7V244.8z"
		/>
</g>
<g class="st5">
	<path class="st6" d="M238.6,245.3c0-0.9,0-1.6-0.1-2.2h0.7l0.1,1.3l0,0c0.5-0.9,1.3-1.5,2.6-1.5c1.8,0,3,1.5,3,3.5
		c0,2.5-1.5,3.8-3.2,3.8c-1,0-1.9-0.4-2.4-1.3l0,0v4h-0.7L238.6,245.3L238.6,245.3z M239.3,247.4c0,0.2,0,0.4,0.1,0.6
		c0.3,1.1,1.2,1.8,2.3,1.8c1.6,0,2.5-1.3,2.5-3.1c0-1.6-0.9-3-2.4-3c-1,0-2,0.7-2.3,1.9c0,0.2-0.1,0.4-0.1,0.6v1.2H239.3z"/>
</g>
<g class="st5">
	<path class="st6" d="M246.8,245.2c0-0.7,0-1.4-0.1-2.1h0.6v1.4l0,0c0.3-0.9,1-1.6,2-1.6c0.1,0,0.2,0,0.3,0v0.7c-0.1,0-0.2,0-0.3,0
		c-1,0-1.6,0.8-1.8,1.9c0,0.2-0.1,0.4-0.1,0.7v3.8h-0.7v-4.8H246.8z"/>
</g>
<g class="st5">
	<path class="st6" d="M255.1,250.1l-0.1-1l0,0c-0.3,0.5-1.1,1.2-2.2,1.2c-1.4,0-2-1-2-1.9c0-1.6,1.4-2.6,4.2-2.6v-0.2
		c0-0.7-0.1-2.1-1.8-2.1c-0.6,0-1.2,0.2-1.7,0.5l-0.2-0.5c0.6-0.4,1.4-0.6,2-0.6c2,0,2.4,1.5,2.4,2.8v2.7c0,0.6,0,1.1,0.1,1.7
		L255.1,250.1L255.1,250.1z M254.9,246.4c-1.5,0-3.5,0.2-3.5,1.9c0,1,0.7,1.5,1.4,1.5c1.2,0,1.8-0.7,2.1-1.4c0-0.1,0.1-0.3,0.1-0.4
		v-1.6H254.9z"/>
</g>
<g class="st5">
	<path class="st6" d="M257.6,249.2c0.4,0.2,0.9,0.5,1.6,0.5c1.1,0,1.6-0.6,1.6-1.3c0-0.8-0.5-1.2-1.5-1.6c-1.1-0.4-1.8-1.1-1.8-1.9
		c0-1,0.8-1.9,2.1-1.9c0.6,0,1.2,0.2,1.5,0.4L261,244c-0.2-0.2-0.7-0.4-1.4-0.4c-0.9,0-1.3,0.6-1.3,1.2c0,0.7,0.5,1,1.4,1.4
		c1.1,0.4,1.8,1,1.8,2.1c0,1.2-0.9,2-2.3,2c-0.7,0-1.3-0.2-1.8-0.5L257.6,249.2z"/>
</g>
<g class="st5">
	<path class="st6" d="M217.3,272.1c-0.5,0.3-1.4,0.5-2.6,0.5c-2.4,0-4.6-1.5-4.6-5c0-2.9,1.9-5.1,4.9-5.1c1.2,0,2,0.3,2.3,0.4
		l-0.2,0.6c-0.5-0.2-1.2-0.4-2-0.4c-2.6,0-4.2,1.7-4.2,4.5c0,2.7,1.5,4.4,4.1,4.4c0.8,0,1.7-0.2,2.2-0.4L217.3,272.1z"/>
</g>
<g class="st5">
	<path class="st6" d="M224.8,268.9c0,2.6-1.8,3.7-3.3,3.7c-1.8,0-3.2-1.4-3.2-3.6c0-2.4,1.6-3.7,3.3-3.7
		C223.5,265.4,224.8,266.8,224.8,268.9z M218.9,269c0,1.7,1.1,3,2.5,3s2.6-1.3,2.6-3.1c0-1.3-0.7-3-2.6-3
		C219.7,265.9,218.9,267.5,218.9,269z"/>
</g>
<g class="st5">
	<path class="st6" d="M226.7,267.2c0-0.6,0-1.1-0.1-1.7h0.6l0.1,1.2l0,0c0.4-0.8,1.1-1.4,2.2-1.4c1,0,1.7,0.6,2,1.5l0,0
		c0.2-0.4,0.4-0.7,0.7-0.9c0.4-0.4,0.9-0.6,1.7-0.6c0.7,0,2.3,0.4,2.3,3v4.1h-0.7v-4c0-1.6-0.6-2.5-1.8-2.5c-0.9,0-1.6,0.6-1.8,1.4
		c-0.1,0.2-0.1,0.4-0.1,0.7v4.5h-0.7v-4.3c0-1.3-0.6-2.2-1.7-2.2c-0.9,0-1.7,0.8-1.9,1.6c-0.1,0.2-0.1,0.4-0.1,0.7v4.3h-0.7V267.2z"
		/>
</g>
<g class="st5">
	<path class="st6" d="M238.8,268.9c0,2.2,1.2,3.1,2.7,3.1c1,0,1.5-0.2,1.9-0.4l0.2,0.6c-0.3,0.1-1,0.4-2.2,0.4c-2,0-3.2-1.4-3.2-3.5
		c0-2.3,1.3-3.8,3.1-3.8c2.3,0,2.7,2.1,2.7,3.1c0,0.2,0,0.3,0,0.4L238.8,268.9L238.8,268.9z M243.3,268.4c0-1-0.4-2.4-2.1-2.4
		c-1.5,0-2.2,1.4-2.3,2.4H243.3z"/>
</g>
<g class="st5">
	<path class="st6" d="M245.8,267.6c0-0.7,0-1.4-0.1-2.1h0.6v1.4l0,0c0.3-0.9,1-1.6,2-1.6c0.1,0,0.2,0,0.3,0v0.7c-0.1,0-0.2,0-0.3,0
		c-1,0-1.6,0.8-1.8,1.9c0,0.2-0.1,0.4-0.1,0.7v3.8h-0.7v-4.8H245.8z"/>
</g>
<g class="st5">
	<path class="st6" d="M254.8,272.2c-0.3,0.2-1,0.4-2,0.4c-2,0-3.3-1.4-3.3-3.6s1.5-3.7,3.6-3.7c0.9,0,1.6,0.2,1.8,0.4l-0.2,0.6
		c-0.3-0.2-0.9-0.4-1.7-0.4c-1.9,0-2.8,1.4-2.8,3.1c0,1.8,1.1,3,2.8,3c0.8,0,1.4-0.2,1.7-0.4L254.8,272.2z"/>
</g>
<g class="st5">
	<path class="st6" d="M257.4,263.5c0,0.3-0.2,0.6-0.6,0.6c-0.3,0-0.5-0.3-0.5-0.6c0-0.3,0.2-0.6,0.6-0.6
		C257.2,262.9,257.4,263.2,257.4,263.5z M256.5,272.5v-7h0.7v7H256.5z"/>
</g>
<g class="st5">
	<path class="st6" d="M265.6,268.9c0,2.6-1.8,3.7-3.3,3.7c-1.8,0-3.2-1.4-3.2-3.6c0-2.4,1.6-3.7,3.3-3.7
		C264.3,265.4,265.6,266.8,265.6,268.9z M259.8,269c0,1.7,1.1,3,2.5,3s2.6-1.3,2.6-3.1c0-1.3-0.7-3-2.6-3
		C260.6,265.9,259.8,267.5,259.8,269z"/>
</g>
<g class="st5">
	<path class="st6" d="M275.8,267.6h-3.9v4.3h4.4v0.6h-5.1v-9.8h4.8v0.6h-4.1v3.8h3.9L275.8,267.6L275.8,267.6z"/>
</g>
<g class="st5">
	<path class="st6" d="M277.9,262.2h0.7v10.3h-0.7V262.2z"/>
</g>
<g class="st5">
	<path class="st6" d="M281.2,268.9c0,2.2,1.2,3.1,2.7,3.1c1,0,1.5-0.2,1.9-0.4l0.2,0.6c-0.3,0.1-1,0.4-2.2,0.4c-2,0-3.2-1.4-3.2-3.5
		c0-2.3,1.3-3.8,3.1-3.8c2.3,0,2.7,2.1,2.7,3.1c0,0.2,0,0.3,0,0.4L281.2,268.9L281.2,268.9z M285.7,268.4c0-1-0.4-2.4-2.1-2.4
		c-1.5,0-2.2,1.4-2.3,2.4H285.7z"/>
</g>
<g class="st5">
	<path class="st6" d="M293.2,272.2c-0.3,0.2-1,0.4-2,0.4c-2,0-3.3-1.4-3.3-3.6s1.5-3.7,3.6-3.7c0.9,0,1.6,0.2,1.8,0.4l-0.2,0.6
		c-0.3-0.2-0.9-0.4-1.7-0.4c-1.9,0-2.8,1.4-2.8,3.1c0,1.8,1.1,3,2.8,3c0.8,0,1.4-0.2,1.7-0.4L293.2,272.2z"/>
</g>
<g class="st5">
	<path class="st6" d="M296.4,263.5v2h2v0.6h-2v4.5c0,0.9,0.3,1.5,1,1.5c0.4,0,0.6-0.1,0.8-0.1l0.1,0.5c-0.2,0.1-0.6,0.2-1,0.2
		c-0.5,0-0.9-0.2-1.2-0.5c-0.3-0.4-0.4-0.9-0.4-1.7v-4.4h-1.2v-0.6h1.2v-1.8L296.4,263.5z"/>
</g>
<g class="st5">
	<path class="st6" d="M300,267.6c0-0.7,0-1.4-0.1-2.1h0.6v1.4l0,0c0.3-0.9,1-1.6,2-1.6c0.1,0,0.2,0,0.3,0v0.7c-0.1,0-0.2,0-0.3,0
		c-1,0-1.6,0.8-1.8,1.9c0,0.2-0.1,0.4-0.1,0.7v3.8H300V267.6z"/>
</g>
<g class="st5">
	<path class="st6" d="M310.2,268.9c0,2.6-1.8,3.7-3.3,3.7c-1.8,0-3.2-1.4-3.2-3.6c0-2.4,1.6-3.7,3.3-3.7
		C308.9,265.4,310.2,266.8,310.2,268.9z M304.3,269c0,1.7,1.1,3,2.5,3s2.6-1.3,2.6-3.1c0-1.3-0.7-3-2.6-3
		C305.2,265.9,304.3,267.5,304.3,269z M308.6,262.5l-1.8,2h-0.5l1.3-2H308.6z"/>
</g>
<g class="st5">
	<path class="st6" d="M312.1,267.2c0-0.6,0-1.1-0.1-1.7h0.6l0.1,1.3l0,0c0.4-0.8,1.2-1.4,2.4-1.4c0.7,0,2.4,0.3,2.4,2.9v4.2h-0.7
		v-4.1c0-1.3-0.5-2.4-1.9-2.4c-1,0-1.8,0.7-2.1,1.6c-0.1,0.2-0.1,0.4-0.1,0.6v4.3H312v-5.3H312.1z"/>
</g>
<g class="st5">
	<path class="st6" d="M320.8,263.5c0,0.3-0.2,0.6-0.6,0.6c-0.3,0-0.5-0.3-0.5-0.6c0-0.3,0.2-0.6,0.6-0.6
		C320.6,262.9,320.8,263.2,320.8,263.5z M319.9,272.5v-7h0.7v7H319.9z"/>
</g>
<g class="st5">
	<path class="st6" d="M327.9,272.2c-0.3,0.2-1,0.4-2,0.4c-2,0-3.3-1.4-3.3-3.6s1.5-3.7,3.6-3.7c0.9,0,1.6,0.2,1.8,0.4l-0.2,0.6
		c-0.3-0.2-0.9-0.4-1.7-0.4c-1.9,0-2.8,1.4-2.8,3.1c0,1.8,1.1,3,2.8,3c0.8,0,1.4-0.2,1.7-0.4L327.9,272.2z"/>
</g>
<g class="st5">
	<path class="st6" d="M335.3,268.9c0,2.6-1.8,3.7-3.3,3.7c-1.8,0-3.2-1.4-3.2-3.6c0-2.4,1.6-3.7,3.3-3.7
		C334,265.4,335.3,266.8,335.3,268.9z M329.5,269c0,1.7,1.1,3,2.5,3s2.6-1.3,2.6-3.1c0-1.3-0.7-3-2.6-3
		C330.3,265.9,329.5,267.5,329.5,269z"/>
</g>
<g class="st5">
	<path class="st6" d="M217.3,294.5c-0.5,0.3-1.4,0.5-2.6,0.5c-2.4,0-4.6-1.5-4.6-5c0-2.9,1.9-5.1,4.9-5.1c1.2,0,2,0.3,2.3,0.4
		L217,286c-0.5-0.2-1.2-0.4-2-0.4c-2.6,0-4.2,1.7-4.2,4.5c0,2.7,1.5,4.4,4.1,4.4c0.8,0,1.7-0.2,2.2-0.4L217.3,294.5z"/>
</g>
<g class="st5">
	<path class="st6" d="M224.1,293.2c0,0.6,0,1.2,0.1,1.7h-0.6v-1.2l0,0c-0.3,0.6-1.1,1.4-2.4,1.4c-0.9,0-2.4-0.4-2.4-3.1v-4h0.7v3.9
		c0,1.5,0.5,2.6,1.9,2.6c1,0,1.8-0.7,2-1.4c0.1-0.2,0.1-0.5,0.1-0.8V288h0.7v5.2H224.1z"/>
	<path class="st6" d="M226.4,289.6c0-0.6,0-1.1-0.1-1.7h0.6l0.1,1.2l0,0c0.4-0.8,1.1-1.4,2.2-1.4c1,0,1.7,0.6,2,1.5l0,0
		c0.2-0.4,0.4-0.7,0.7-0.9c0.4-0.4,0.9-0.6,1.7-0.6c0.7,0,2.3,0.4,2.3,3v4.1h-0.7v-4c0-1.6-0.6-2.5-1.8-2.5c-0.9,0-1.6,0.6-1.8,1.4
		c-0.1,0.2-0.1,0.4-0.1,0.7v4.5h-0.7v-4.3c0-1.3-0.6-2.2-1.7-2.2c-0.9,0-1.7,0.8-1.9,1.6c-0.1,0.2-0.1,0.4-0.1,0.7v4.3h-0.7V289.6z"
		/>
</g>
<g class="st5">
	<path class="st6" d="M238.4,290.1c0-0.9,0-1.6-0.1-2.2h0.7l0.1,1.3l0,0c0.5-0.9,1.3-1.5,2.6-1.5c1.8,0,3,1.5,3,3.5
		c0,2.5-1.5,3.8-3.2,3.8c-1,0-1.9-0.4-2.4-1.3l0,0v4h-0.7L238.4,290.1L238.4,290.1z M239.1,292.2c0,0.2,0,0.4,0.1,0.6
		c0.3,1.1,1.2,1.8,2.3,1.8c1.6,0,2.5-1.3,2.5-3.1c0-1.6-0.9-3-2.4-3c-1,0-2,0.7-2.3,1.9c0,0.2-0.1,0.4-0.1,0.6v1.2H239.1z"/>
</g>
<g class="st5">
	<path class="st6" d="M246.6,284.6h0.7v10.3h-0.7V284.6z"/>
</g>
<g class="st5">
	<path class="st6" d="M250.6,285.9c0,0.3-0.2,0.6-0.6,0.6c-0.3,0-0.5-0.3-0.5-0.6c0-0.3,0.2-0.6,0.6-0.6
		C250.4,285.3,250.6,285.6,250.6,285.9z M249.7,294.9v-7h0.7v7H249.7z"/>
</g>
<g class="st5">
	<path class="st6" d="M252.8,289.6c0-0.6,0-1.1-0.1-1.7h0.6l0.1,1.2l0,0c0.4-0.8,1.1-1.4,2.2-1.4c1,0,1.7,0.6,2,1.5l0,0
		c0.2-0.4,0.4-0.7,0.7-0.9c0.4-0.4,0.9-0.6,1.7-0.6c0.7,0,2.3,0.4,2.3,3v4.1h-0.7v-4c0-1.6-0.6-2.5-1.8-2.5c-0.9,0-1.6,0.6-1.8,1.4
		c-0.1,0.2-0.1,0.4-0.1,0.7v4.5h-0.7v-4.3c0-1.3-0.6-2.2-1.7-2.2c-0.9,0-1.7,0.8-1.9,1.6c-0.1,0.2-0.1,0.4-0.1,0.7v4.3h-0.7
		L252.8,289.6L252.8,289.6z"/>
</g>
<g class="st5">
	<path class="st6" d="M265.6,285.9c0,0.3-0.2,0.6-0.6,0.6c-0.3,0-0.5-0.3-0.5-0.6c0-0.3,0.2-0.6,0.6-0.6
		C265.4,285.3,265.6,285.6,265.6,285.9z M264.7,294.9v-7h0.7v7H264.7z"/>
</g>
<g class="st5">
	<path class="st6" d="M267.9,291.3c0,2.2,1.2,3.1,2.7,3.1c1,0,1.5-0.2,1.9-0.4l0.2,0.6c-0.3,0.1-1,0.4-2.2,0.4c-2,0-3.2-1.4-3.2-3.5
		c0-2.3,1.3-3.8,3.1-3.8c2.3,0,2.7,2.1,2.7,3.1c0,0.2,0,0.3,0,0.4L267.9,291.3L267.9,291.3z M272.4,290.8c0-1-0.4-2.4-2.1-2.4
		c-1.5,0-2.2,1.4-2.3,2.4H272.4z"/>
</g>
<g class="st5">
	<path class="st6" d="M274.9,289.6c0-0.6,0-1.1-0.1-1.7h0.6l0.1,1.3l0,0c0.4-0.8,1.2-1.4,2.4-1.4c0.7,0,2.4,0.3,2.4,2.9v4.2h-0.7
		v-4.1c0-1.3-0.5-2.4-1.9-2.4c-1,0-1.8,0.7-2.1,1.6c-0.1,0.2-0.1,0.4-0.1,0.6v4.3h-0.7v-5.3H274.9z"/>
</g>
<g class="st5">
	<path class="st6" d="M283.6,285.9v2h2v0.6h-2v4.5c0,0.9,0.3,1.5,1,1.5c0.4,0,0.6-0.1,0.8-0.1l0.1,0.5c-0.2,0.1-0.6,0.2-1,0.2
		c-0.5,0-0.9-0.2-1.2-0.5c-0.3-0.4-0.4-0.9-0.4-1.7v-4.4h-1.2v-0.6h1.2v-1.8L283.6,285.9z"/>
</g>
<g class="st5">
	<path class="st6" d="M292.9,291.3c0,2.6-1.8,3.7-3.3,3.7c-1.8,0-3.2-1.4-3.2-3.6c0-2.4,1.6-3.7,3.3-3.7
		C291.6,287.8,292.9,289.2,292.9,291.3z M287.1,291.4c0,1.7,1.1,3,2.5,3s2.6-1.3,2.6-3.1c0-1.3-0.7-3-2.6-3
		C287.9,288.3,287.1,289.9,287.1,291.4z"/>
</g>
<g class="st5">
	<path class="st6" d="M210.7,307.5h4.8v0.6h-4.1v3.9h3.8v0.6h-3.8v4.7h-0.7V307.5z"/>
</g>
<g class="st5">
	<path class="st6" d="M218.3,308.3c0,0.3-0.2,0.6-0.6,0.6c-0.3,0-0.5-0.3-0.5-0.6c0-0.3,0.2-0.6,0.6-0.6
		C218,307.7,218.3,308,218.3,308.3z M217.4,317.3v-7h0.7v7H217.4z"/>
</g>
<g class="st5">
	<path class="st6" d="M220.4,312c0-0.6,0-1.1-0.1-1.7h0.6l0.1,1.3l0,0c0.4-0.8,1.2-1.4,2.4-1.4c0.7,0,2.4,0.3,2.4,2.9v4.2h-0.7v-4.1
		c0-1.3-0.5-2.4-1.9-2.4c-1,0-1.8,0.7-2.1,1.6c-0.1,0.2-0.1,0.4-0.1,0.6v4.3h-0.7V312H220.4z"/>
	<path class="st6" d="M232,317.3l-0.1-1l0,0c-0.3,0.5-1.1,1.2-2.2,1.2c-1.4,0-2-1-2-1.9c0-1.6,1.4-2.6,4.2-2.6v-0.2
		c0-0.7-0.1-2.1-1.8-2.1c-0.6,0-1.2,0.2-1.7,0.5l-0.2-0.5c0.6-0.4,1.4-0.6,2-0.6c2,0,2.4,1.5,2.4,2.8v2.7c0,0.6,0,1.1,0.1,1.7H232z
		 M231.8,313.6c-1.5,0-3.5,0.2-3.5,1.9c0,1,0.7,1.5,1.4,1.5c1.2,0,1.8-0.7,2.1-1.4c0-0.1,0.1-0.3,0.1-0.4v-1.6H231.8z"/>
</g>
<g class="st5">
	<path class="st6" d="M234.9,312c0-0.6,0-1.1-0.1-1.7h0.6l0.1,1.3l0,0c0.4-0.8,1.2-1.4,2.4-1.4c0.7,0,2.4,0.3,2.4,2.9v4.2h-0.7v-4.1
		c0-1.3-0.5-2.4-1.9-2.4c-1,0-1.8,0.7-2.1,1.6c-0.1,0.2-0.1,0.4-0.1,0.6v4.3h-0.7V312H234.9z"/>
</g>
<g class="st5">
	<path class="st6" d="M241.9,316.9l3.7-4.9c0.3-0.3,0.5-0.7,0.8-1l0,0h-4.2v-0.6h5.1v0.5l-3.7,4.9c-0.2,0.3-0.5,0.6-0.7,1l0,0h4.5
		v0.6H242v-0.5H241.9z"/>
</g>
<g class="st5">
	<path class="st6" d="M252.8,317.3l-0.1-1l0,0c-0.3,0.5-1.1,1.2-2.2,1.2c-1.4,0-2-1-2-1.9c0-1.6,1.4-2.6,4.2-2.6v-0.2
		c0-0.7-0.1-2.1-1.8-2.1c-0.6,0-1.2,0.2-1.7,0.5l-0.2-0.5c0.6-0.4,1.4-0.6,2-0.6c2,0,2.4,1.5,2.4,2.8v2.7c0,0.6,0,1.1,0.1,1.7H252.8
		z M252.7,313.6c-1.5,0-3.5,0.2-3.5,1.9c0,1,0.7,1.5,1.4,1.5c1.2,0,1.8-0.7,2.1-1.4c0-0.1,0.1-0.3,0.1-0.4v-1.6H252.7z"/>
</g>
<g class="st5">
	<path class="st6" d="M255.4,316.4c0.4,0.2,0.9,0.5,1.6,0.5c1.1,0,1.6-0.6,1.6-1.3c0-0.8-0.5-1.2-1.5-1.6c-1.1-0.4-1.8-1.1-1.8-1.9
		c0-1,0.8-1.9,2.1-1.9c0.6,0,1.2,0.2,1.5,0.4l-0.3,0.6c-0.2-0.2-0.7-0.4-1.4-0.4c-0.9,0-1.3,0.6-1.3,1.2c0,0.7,0.5,1,1.4,1.4
		c1.1,0.4,1.8,1,1.8,2.1c0,1.2-0.9,2-2.3,2c-0.7,0-1.3-0.2-1.8-0.5L255.4,316.4z"/>
	<path class="st6" d="M264.5,310.3l1.8,4.6c0.2,0.5,0.4,1,0.5,1.5l0,0c0.1-0.4,0.3-1,0.5-1.5l1.7-4.5h0.7l-2.1,5.2
		c-0.8,2.2-1.4,3.5-2.3,4.2c-0.6,0.5-1,0.7-1.2,0.7l-0.2-0.6c0.3-0.1,0.8-0.4,1.2-0.8c0.3-0.3,0.8-0.9,1.2-1.7
		c0.1-0.2,0.1-0.2,0.1-0.3s0-0.2-0.1-0.3l-2.6-6.5L264.5,310.3L264.5,310.3z"/>
</g>
<g class="st5">
	<path class="st6" d="M275,307.7c0.6-0.1,1.4-0.2,2.1-0.2c1.3,0,2.1,0.3,2.6,0.8c0.4,0.4,0.7,1.1,0.7,1.7c0,1.3-0.8,2.2-1.9,2.6l0,0
		c0.8,0.2,1.3,1,1.5,2.1c0.3,1.5,0.5,2.2,0.7,2.6H280c-0.1-0.3-0.4-1.1-0.6-2.4c-0.3-1.4-0.9-2-2.2-2.1h-1.5v4.5H275V307.7z
		 M275.6,312.2h1.6c1.5,0,2.5-0.8,2.5-2.1c0-1.5-1.1-2.1-2.6-2.1c-0.7,0-1.2,0.1-1.4,0.1v4.1H275.6z"/>
</g>
<g class="st5">
	<path class="st6" d="M282.5,313.7c0,2.2,1.2,3.1,2.7,3.1c1,0,1.5-0.2,1.9-0.4l0.2,0.6c-0.3,0.1-1,0.4-2.2,0.4c-2,0-3.2-1.4-3.2-3.5
		c0-2.3,1.3-3.8,3.1-3.8c2.3,0,2.7,2.1,2.7,3.1c0,0.2,0,0.3,0,0.4L282.5,313.7L282.5,313.7z M287,313.2c0-1-0.4-2.4-2.1-2.4
		c-1.5,0-2.2,1.4-2.3,2.4H287z"/>
</g>
<g class="st5">
	<path class="st6" d="M289.6,307h0.7v10.3h-0.7V307z"/>
</g>
<g class="st5">
	<path class="st6" d="M296.5,317.3l-0.1-1l0,0c-0.3,0.5-1.1,1.2-2.2,1.2c-1.4,0-2-1-2-1.9c0-1.6,1.4-2.6,4.2-2.6v-0.2
		c0-0.7-0.1-2.1-1.8-2.1c-0.6,0-1.2,0.2-1.7,0.5l-0.2-0.5c0.6-0.4,1.4-0.6,2-0.6c2,0,2.4,1.5,2.4,2.8v2.7c0,0.6,0,1.1,0.1,1.7H296.5
		z M296.3,313.6c-1.5,0-3.5,0.2-3.5,1.9c0,1,0.7,1.5,1.4,1.5c1.2,0,1.8-0.7,2.1-1.4c0-0.1,0.1-0.3,0.1-0.4v-1.6H296.3z"/>
</g>
<g class="st5">
	<path class="st6" d="M304.2,317c-0.3,0.2-1,0.4-2,0.4c-2,0-3.3-1.4-3.3-3.6s1.5-3.7,3.6-3.7c0.9,0,1.6,0.2,1.8,0.4l-0.2,0.6
		c-0.3-0.2-0.9-0.4-1.7-0.4c-1.9,0-2.8,1.4-2.8,3.1c0,1.8,1.1,3,2.8,3c0.8,0,1.4-0.2,1.7-0.4L304.2,317z"/>
</g>
<g class="st5">
	<path class="st6" d="M306.9,308.3c0,0.3-0.2,0.6-0.6,0.6c-0.3,0-0.5-0.3-0.5-0.6c0-0.3,0.2-0.6,0.6-0.6
		C306.6,307.7,306.9,308,306.9,308.3z M306,317.3v-7h0.7v7H306z"/>
</g>
<g class="st5">
	<path class="st6" d="M315,313.7c0,2.6-1.8,3.7-3.3,3.7c-1.8,0-3.2-1.4-3.2-3.6c0-2.4,1.6-3.7,3.3-3.7
		C313.7,310.2,315,311.6,315,313.7z M309.2,313.8c0,1.7,1.1,3,2.5,3s2.6-1.3,2.6-3.1c0-1.3-0.7-3-2.6-3
		C310,310.7,309.2,312.3,309.2,313.8z M313.4,307.3l-1.8,2h-0.5l1.3-2H313.4z"/>
</g>
<g class="st5">
	<path class="st6" d="M317,312c0-0.6,0-1.1-0.1-1.7h0.6l0.1,1.3l0,0c0.4-0.8,1.2-1.4,2.4-1.4c0.7,0,2.4,0.3,2.4,2.9v4.2h-0.7v-4.1
		c0-1.3-0.5-2.4-1.9-2.4c-1,0-1.8,0.7-2.1,1.6c-0.1,0.2-0.1,0.4-0.1,0.6v4.3H317V312z"/>
</g>
<g class="st5">
	<path class="st6" d="M333.3,317c-0.3,0.2-1,0.4-2,0.4c-2,0-3.3-1.4-3.3-3.6s1.5-3.7,3.6-3.7c0.9,0,1.6,0.2,1.8,0.4l-0.2,0.6
		c-0.3-0.2-0.9-0.4-1.7-0.4c-1.9,0-2.8,1.4-2.8,3.1c0,1.8,1.1,3,2.8,3c0.8,0,1.4-0.2,1.7-0.4L333.3,317z"/>
</g>
<g class="st5">
	<path class="st6" d="M340.8,313.7c0,2.6-1.8,3.7-3.3,3.7c-1.8,0-3.2-1.4-3.2-3.6c0-2.4,1.6-3.7,3.3-3.7
		C339.5,310.2,340.8,311.6,340.8,313.7z M334.9,313.8c0,1.7,1.1,3,2.5,3s2.6-1.3,2.6-3.1c0-1.3-0.7-3-2.6-3
		C335.7,310.7,334.9,312.3,334.9,313.8z"/>
</g>
<g class="st5">
	<path class="st6" d="M342.7,312c0-0.6,0-1.1-0.1-1.7h0.6l0.1,1.3l0,0c0.4-0.8,1.2-1.4,2.4-1.4c0.7,0,2.4,0.3,2.4,2.9v4.2h-0.7v-4.1
		c0-1.3-0.5-2.4-1.9-2.4c-1,0-1.8,0.7-2.1,1.6c-0.1,0.2-0.1,0.4-0.1,0.6v4.3h-0.7V312H342.7z"/>
</g>
<g class="st5">
	<path class="st6" d="M211.3,324.9v9.8h-0.7v-9.8H211.3z"/>
</g>
<g class="st5">
	<path class="st6" d="M213.8,329.4c0-0.6,0-1.1-0.1-1.7h0.6l0.1,1.3l0,0c0.4-0.8,1.2-1.4,2.4-1.4c0.7,0,2.4,0.3,2.4,2.9v4.2h-0.7
		v-4.1c0-1.3-0.5-2.4-1.9-2.4c-1,0-1.8,0.7-2.1,1.6c-0.1,0.2-0.1,0.4-0.1,0.6v4.3h-0.7v-5.3H213.8z"/>
</g>
<g class="st5">
	<path class="st6" d="M221.2,327.7l1.6,4.3c0.3,0.7,0.5,1.3,0.7,1.9l0,0c0.2-0.6,0.4-1.2,0.7-1.9l1.7-4.3h0.7l-2.8,7h-0.6l-2.7-7
		H221.2z"/>
</g>
<g class="st5">
	<path class="st6" d="M228.1,331.1c0,2.2,1.2,3.1,2.7,3.1c1,0,1.5-0.2,1.9-0.4l0.2,0.6c-0.3,0.1-1,0.4-2.2,0.4c-2,0-3.2-1.4-3.2-3.5
		c0-2.3,1.3-3.8,3.1-3.8c2.3,0,2.7,2.1,2.7,3.1c0,0.2,0,0.3,0,0.4L228.1,331.1L228.1,331.1z M232.5,330.6c0-1-0.4-2.4-2.1-2.4
		c-1.5,0-2.2,1.4-2.3,2.4H232.5z"/>
</g>
<g class="st5">
	<path class="st6" d="M235.1,329.8c0-0.7,0-1.4-0.1-2.1h0.6v1.4l0,0c0.3-0.9,1-1.6,2-1.6c0.1,0,0.2,0,0.3,0v0.7c-0.1,0-0.2,0-0.3,0
		c-1,0-1.6,0.8-1.8,1.9c0,0.2-0.1,0.4-0.1,0.7v3.8H235v-4.8H235.1z"/>
</g>
<g class="st5">
	<path class="st6" d="M239.3,333.8c0.4,0.2,0.9,0.5,1.6,0.5c1.1,0,1.6-0.6,1.6-1.3c0-0.8-0.5-1.2-1.5-1.6c-1.1-0.4-1.8-1.1-1.8-1.9
		c0-1,0.8-1.9,2.1-1.9c0.6,0,1.2,0.2,1.5,0.4l-0.3,0.6c-0.2-0.2-0.7-0.4-1.4-0.4c-0.9,0-1.3,0.6-1.3,1.2c0,0.7,0.5,1,1.4,1.4
		c1.1,0.4,1.8,1,1.8,2.1c0,1.2-0.9,2-2.3,2c-0.7,0-1.3-0.2-1.8-0.5L239.3,333.8z"/>
</g>
<g class="st5">
	<path class="st6" d="M245.9,325.7c0,0.3-0.2,0.6-0.6,0.6c-0.3,0-0.5-0.3-0.5-0.6c0-0.3,0.2-0.6,0.6-0.6
		C245.6,325.1,245.9,325.4,245.9,325.7z M245,334.7v-7h0.7v7H245z"/>
</g>
<g class="st5">
	<path class="st6" d="M254,331.1c0,2.6-1.8,3.7-3.3,3.7c-1.8,0-3.2-1.4-3.2-3.6c0-2.4,1.6-3.7,3.3-3.7
		C252.7,327.6,254,329,254,331.1z M248.2,331.2c0,1.7,1.1,3,2.5,3s2.6-1.3,2.6-3.1c0-1.3-0.7-3-2.6-3
		C249,328.1,248.2,329.7,248.2,331.2z"/>
</g>
<g class="st5">
	<path class="st6" d="M256,329.4c0-0.6,0-1.1-0.1-1.7h0.6l0.1,1.3l0,0c0.4-0.8,1.2-1.4,2.4-1.4c0.7,0,2.4,0.3,2.4,2.9v4.2h-0.7v-4.1
		c0-1.3-0.5-2.4-1.9-2.4c-1,0-1.8,0.7-2.1,1.6c-0.1,0.2-0.1,0.4-0.1,0.6v4.3H256V329.4z"/>
</g>
<g class="st5">
	<path class="st6" d="M264.7,325.7c0,0.3-0.2,0.6-0.6,0.6c-0.3,0-0.5-0.3-0.5-0.6c0-0.3,0.2-0.6,0.6-0.6
		C264.4,325.1,264.7,325.4,264.7,325.7z M263.8,334.7v-7h0.7v7H263.8z"/>
</g>
<g class="st5">
	<path class="st6" d="M266.5,333.8c0.4,0.2,0.9,0.5,1.6,0.5c1.1,0,1.6-0.6,1.6-1.3c0-0.8-0.5-1.2-1.5-1.6c-1.1-0.4-1.8-1.1-1.8-1.9
		c0-1,0.8-1.9,2.1-1.9c0.6,0,1.2,0.2,1.5,0.4l-0.3,0.6c-0.2-0.2-0.7-0.4-1.4-0.4c-0.9,0-1.3,0.6-1.3,1.2c0,0.7,0.5,1,1.4,1.4
		c1.1,0.4,1.8,1,1.8,2.1c0,1.2-0.9,2-2.3,2c-0.7,0-1.3-0.2-1.8-0.5L266.5,333.8z"/>
</g>
<g class="st5">
	<path class="st6" d="M273.4,325.7v2h2v0.6h-2v4.5c0,0.9,0.3,1.5,1,1.5c0.4,0,0.6-0.1,0.8-0.1l0.1,0.5c-0.2,0.1-0.6,0.2-1,0.2
		c-0.5,0-0.9-0.2-1.2-0.5c-0.3-0.4-0.4-0.9-0.4-1.7v-4.4h-1.2v-0.6h1.2v-1.8L273.4,325.7z"/>
</g>
<g class="st5">
	<path class="st6" d="M280.9,334.7l-0.1-1l0,0c-0.3,0.5-1.1,1.2-2.2,1.2c-1.4,0-2-1-2-1.9c0-1.6,1.4-2.6,4.2-2.6v-0.2
		c0-0.7-0.1-2.1-1.8-2.1c-0.6,0-1.2,0.2-1.7,0.5l-0.2-0.5c0.6-0.4,1.4-0.6,2-0.6c2,0,2.4,1.5,2.4,2.8v2.7c0,0.6,0,1.1,0.1,1.7H280.9
		z M280.7,331c-1.5,0-3.5,0.2-3.5,1.9c0,1,0.7,1.5,1.4,1.5c1.2,0,1.8-0.7,2.1-1.4c0-0.1,0.1-0.3,0.1-0.4V331H280.7z"/>
</g>
<g class="st5">
	<path class="st6" d="M283.4,333.8c0.4,0.2,0.9,0.5,1.6,0.5c1.1,0,1.6-0.6,1.6-1.3c0-0.8-0.5-1.2-1.5-1.6c-1.1-0.4-1.8-1.1-1.8-1.9
		c0-1,0.8-1.9,2.1-1.9c0.6,0,1.2,0.2,1.5,0.4l-0.3,0.6c-0.2-0.2-0.7-0.4-1.4-0.4c-0.9,0-1.3,0.6-1.3,1.2c0,0.7,0.5,1,1.4,1.4
		c1.1,0.4,1.8,1,1.8,2.1c0,1.2-0.9,2-2.3,2c-0.7,0-1.3-0.2-1.8-0.5L283.4,333.8z"/>
</g>
<g class="st5">
	<path class="st6" d="M210.7,347.3h0.7v9.2h4.4v0.6h-5L210.7,347.3L210.7,347.3z"/>
</g>
<g class="st5">
	<path class="st6" d="M217.3,353.5c0,2.2,1.2,3.1,2.7,3.1c1,0,1.5-0.2,1.9-0.4l0.2,0.6c-0.3,0.1-1,0.4-2.2,0.4c-2,0-3.2-1.4-3.2-3.5
		c0-2.3,1.3-3.8,3.1-3.8c2.3,0,2.7,2.1,2.7,3.1c0,0.2,0,0.3,0,0.4L217.3,353.5L217.3,353.5z M221.7,353c0-1-0.4-2.4-2.1-2.4
		c-1.5,0-2.2,1.4-2.3,2.4H221.7z"/>
</g>
<g class="st5">
	<path class="st6" d="M230,350.1c0,0.5-0.1,1.1-0.1,1.8v4.1c0,1.8-0.4,2.7-0.9,3.2c-0.6,0.6-1.6,0.8-2.4,0.8c-0.8,0-1.7-0.2-2.2-0.6
		l0.2-0.6c0.5,0.3,1.2,0.6,2.1,0.6c1.5,0,2.5-0.8,2.5-2.8v-1l0,0c-0.4,0.7-1.2,1.3-2.4,1.3c-1.8,0-3-1.5-3-3.4
		c0-2.4,1.6-3.7,3.1-3.7c1.4,0,2.1,0.8,2.3,1.3l0,0v-1.2h0.8V350.1z M229.3,352.8c0-0.2,0-0.5-0.1-0.7c-0.3-0.8-1-1.6-2.2-1.6
		c-1.5,0-2.5,1.2-2.5,3.1c0,1.6,0.8,2.9,2.5,2.9c0.9,0,1.8-0.6,2.1-1.6c0.1-0.2,0.1-0.5,0.1-0.7L229.3,352.8L229.3,352.8z"/>
</g>
<g class="st5">
	<path class="st6" d="M236.2,357.1l-0.1-1l0,0c-0.3,0.5-1.1,1.2-2.2,1.2c-1.4,0-2-1-2-1.9c0-1.6,1.4-2.6,4.2-2.6v-0.2
		c0-0.7-0.1-2.1-1.8-2.1c-0.6,0-1.2,0.2-1.7,0.5l-0.2-0.5c0.6-0.4,1.4-0.6,2-0.6c2,0,2.4,1.5,2.4,2.8v2.7c0,0.6,0,1.1,0.1,1.7H236.2
		z M236,353.4c-1.5,0-3.5,0.2-3.5,1.9c0,1,0.7,1.5,1.4,1.5c1.2,0,1.8-0.7,2.1-1.4c0-0.1,0.1-0.3,0.1-0.4v-1.6H236z"/>
</g>
<g class="st5">
	<path class="st6" d="M239.1,346.8h0.7v10.3h-0.7V346.8z"/>
</g>
<g class="st5">
	<path class="st6" d="M241.3,358.9c0.2-0.6,0.6-2.2,0.8-3.1l0.9-0.1c-0.3,1.1-0.9,2.7-1.1,3.1L241.3,358.9z"/>
</g>
<g class="st5">
	<path class="st6" d="M255,356.8c-0.5,0.3-1.4,0.5-2.6,0.5c-2.4,0-4.6-1.5-4.6-5c0-2.9,1.9-5.1,4.9-5.1c1.2,0,2,0.3,2.3,0.4
		l-0.2,0.6c-0.5-0.2-1.2-0.4-2-0.4c-2.6,0-4.2,1.7-4.2,4.5c0,2.7,1.5,4.4,4.1,4.4c0.8,0,1.7-0.2,2.2-0.4L255,356.8z"/>
</g>
<g class="st5">
	<path class="st6" d="M256.7,353.5c0,2.2,1.2,3.1,2.7,3.1c1,0,1.5-0.2,1.9-0.4l0.2,0.6c-0.3,0.1-1,0.4-2.2,0.4c-2,0-3.2-1.4-3.2-3.5
		c0-2.3,1.3-3.8,3.1-3.8c2.3,0,2.7,2.1,2.7,3.1c0,0.2,0,0.3,0,0.4L256.7,353.5L256.7,353.5z M261.1,353c0-1-0.4-2.4-2.1-2.4
		c-1.5,0-2.2,1.4-2.3,2.4H261.1z"/>
</g>
<g class="st5">
	<path class="st6" d="M263.7,351.8c0-0.6,0-1.1-0.1-1.7h0.6l0.1,1.3l0,0c0.4-0.8,1.2-1.4,2.4-1.4c0.7,0,2.4,0.3,2.4,2.9v4.2h-0.7
		V353c0-1.3-0.5-2.4-1.9-2.4c-1,0-1.8,0.7-2.1,1.6c-0.1,0.2-0.1,0.4-0.1,0.6v4.3h-0.7v-5.3H263.7z"/>
</g>
<g class="st5">
	<path class="st6" d="M272.4,348.1v2h2v0.6h-2v4.5c0,0.9,0.3,1.5,1,1.5c0.4,0,0.6-0.1,0.8-0.1l0.1,0.5c-0.2,0.1-0.6,0.2-1,0.2
		c-0.5,0-0.9-0.2-1.2-0.5c-0.3-0.4-0.4-0.9-0.4-1.7v-4.4h-1.2v-0.6h1.2v-1.8L272.4,348.1z"/>
</g>
<g class="st5">
	<path class="st6" d="M276,352.2c0-0.7,0-1.4-0.1-2.1h0.6v1.4l0,0c0.3-0.9,1-1.6,2-1.6c0.1,0,0.2,0,0.3,0v0.7c-0.1,0-0.2,0-0.3,0
		c-1,0-1.6,0.8-1.8,1.9c0,0.2-0.1,0.4-0.1,0.7v3.8H276V352.2z"/>
</g>
<g class="st5">
	<path class="st6" d="M286.2,353.5c0,2.6-1.8,3.7-3.3,3.7c-1.8,0-3.2-1.4-3.2-3.6c0-2.4,1.6-3.7,3.3-3.7
		C284.9,350,286.2,351.4,286.2,353.5z M280.3,353.6c0,1.7,1.1,3,2.5,3s2.6-1.3,2.6-3.1c0-1.3-0.7-3-2.6-3
		C281.2,350.5,280.3,352.1,280.3,353.6z"/>
</g>
<g class="st5">
	<path class="st6" d="M292,357.1l-0.1-1l0,0c-0.3,0.5-1.1,1.2-2.2,1.2c-1.4,0-2-1-2-1.9c0-1.6,1.4-2.6,4.2-2.6v-0.2
		c0-0.7-0.1-2.1-1.8-2.1c-0.6,0-1.2,0.2-1.7,0.5l-0.2-0.5c0.6-0.4,1.4-0.6,2-0.6c2,0,2.4,1.5,2.4,2.8v2.7c0,0.6,0,1.1,0.1,1.7H292z
		 M291.8,353.4c-1.5,0-3.5,0.2-3.5,1.9c0,1,0.7,1.5,1.4,1.5c1.2,0,1.8-0.7,2.1-1.4c0-0.1,0.1-0.3,0.1-0.4v-1.6H291.8z"/>
</g>
<g class="st5">
	<path class="st6" d="M294.8,351.8c0-0.6,0-1.1-0.1-1.7h0.6l0.1,1.2l0,0c0.4-0.8,1.1-1.4,2.2-1.4c1,0,1.7,0.6,2,1.5l0,0
		c0.2-0.4,0.4-0.7,0.7-0.9c0.4-0.4,0.9-0.6,1.7-0.6c0.7,0,2.3,0.4,2.3,3v4.1h-0.7v-4c0-1.6-0.6-2.5-1.8-2.5c-0.9,0-1.6,0.6-1.8,1.4
		c-0.1,0.2-0.1,0.4-0.1,0.7v4.5h-0.7v-4.3c0-1.3-0.6-2.2-1.7-2.2c-0.9,0-1.7,0.8-1.9,1.6c-0.1,0.2-0.1,0.4-0.1,0.7v4.3h-0.7V351.8z"
		/>
</g>
<g class="st5">
	<path class="st6" d="M307,353.5c0,2.2,1.2,3.1,2.7,3.1c1,0,1.5-0.2,1.9-0.4l0.2,0.6c-0.3,0.1-1,0.4-2.2,0.4c-2,0-3.2-1.4-3.2-3.5
		c0-2.3,1.3-3.8,3.1-3.8c2.3,0,2.7,2.1,2.7,3.1c0,0.2,0,0.3,0,0.4L307,353.5L307,353.5z M311.4,353c0-1-0.4-2.4-2.1-2.4
		c-1.5,0-2.2,1.4-2.3,2.4H311.4z M311.1,347.1l-1.8,2h-0.5l1.3-2H311.1z"/>
</g>
<g class="st5">
	<path class="st6" d="M314,352.2c0-0.7,0-1.4-0.1-2.1h0.6v1.4l0,0c0.3-0.9,1-1.6,2-1.6c0.1,0,0.2,0,0.3,0v0.7c-0.1,0-0.2,0-0.3,0
		c-1,0-1.6,0.8-1.8,1.9c0,0.2-0.1,0.4-0.1,0.7v3.8H314V352.2z"/>
</g>
<g class="st5">
	<path class="st6" d="M319.3,348.2c0,0.3-0.2,0.6-0.6,0.6c-0.3,0-0.5-0.3-0.5-0.6c0-0.3,0.2-0.6,0.6-0.6
		C319.1,347.5,319.3,347.8,319.3,348.2z M318.4,357.1v-7h0.7v7H318.4z"/>
</g>
<g class="st5">
	<path class="st6" d="M326.3,356.8c-0.3,0.2-1,0.4-2,0.4c-2,0-3.3-1.4-3.3-3.6s1.5-3.7,3.6-3.7c0.9,0,1.6,0.2,1.8,0.4l-0.2,0.6
		c-0.3-0.2-0.9-0.4-1.7-0.4c-1.9,0-2.8,1.4-2.8,3.1c0,1.8,1.1,3,2.8,3c0.8,0,1.4-0.2,1.7-0.4L326.3,356.8z"/>
</g>
<g class="st5">
	<path class="st6" d="M332,357.1l-0.1-1l0,0c-0.3,0.5-1.1,1.2-2.2,1.2c-1.4,0-2-1-2-1.9c0-1.6,1.4-2.6,4.2-2.6v-0.2
		c0-0.7-0.1-2.1-1.8-2.1c-0.6,0-1.2,0.2-1.7,0.5l-0.2-0.5c0.6-0.4,1.4-0.6,2-0.6c2,0,2.4,1.5,2.4,2.8v2.7c0,0.6,0,1.1,0.1,1.7H332z
		 M331.8,353.4c-1.5,0-3.5,0.2-3.5,1.9c0,1,0.7,1.5,1.4,1.5c1.2,0,1.8-0.7,2.1-1.4c0-0.1,0.1-0.3,0.1-0.4v-1.6H331.8z"/>
</g>
<g class="st5">
	<path class="st6" d="M210.7,369.7h0.7v9.2h4.4v0.6h-5L210.7,369.7L210.7,369.7z"/>
</g>
<g class="st5">
	<path class="st6" d="M217.3,375.9c0,2.2,1.2,3.1,2.7,3.1c1,0,1.5-0.2,1.9-0.4l0.2,0.6c-0.3,0.1-1,0.4-2.2,0.4c-2,0-3.2-1.4-3.2-3.5
		c0-2.3,1.3-3.8,3.1-3.8c2.3,0,2.7,2.1,2.7,3.1c0,0.2,0,0.3,0,0.4L217.3,375.9L217.3,375.9z M221.7,375.4c0-1-0.4-2.4-2.1-2.4
		c-1.5,0-2.2,1.4-2.3,2.4H221.7z"/>
</g>
<g class="st5">
	<path class="st6" d="M230,372.5c0,0.5-0.1,1.1-0.1,1.8v4.1c0,1.8-0.4,2.7-0.9,3.2c-0.6,0.6-1.6,0.8-2.4,0.8c-0.8,0-1.7-0.2-2.2-0.6
		l0.2-0.6c0.5,0.3,1.2,0.6,2.1,0.6c1.5,0,2.5-0.8,2.5-2.8v-1l0,0c-0.4,0.7-1.2,1.3-2.4,1.3c-1.8,0-3-1.5-3-3.4
		c0-2.4,1.6-3.7,3.1-3.7c1.4,0,2.1,0.8,2.3,1.3l0,0v-1.2h0.8V372.5z M229.3,375.2c0-0.2,0-0.5-0.1-0.7c-0.3-0.8-1-1.6-2.2-1.6
		c-1.5,0-2.5,1.2-2.5,3.1c0,1.6,0.8,2.9,2.5,2.9c0.9,0,1.8-0.6,2.1-1.6c0.1-0.2,0.1-0.5,0.1-0.7L229.3,375.2L229.3,375.2z"/>
	<path class="st6" d="M236.1,379.5l-0.1-1l0,0c-0.3,0.5-1.1,1.2-2.2,1.2c-1.4,0-2-1-2-1.9c0-1.6,1.4-2.6,4.2-2.6V375
		c0-0.7-0.1-2.1-1.8-2.1c-0.6,0-1.2,0.2-1.7,0.5l-0.2-0.5c0.6-0.4,1.4-0.6,2-0.6c2,0,2.4,1.5,2.4,2.8v2.7c0,0.6,0,1.1,0.1,1.7H236.1
		z M236,375.8c-1.5,0-3.5,0.2-3.5,1.9c0,1,0.7,1.5,1.4,1.5c1.2,0,1.8-0.7,2.1-1.4c0-0.1,0.1-0.3,0.1-0.4v-1.6H236z"/>
</g>
<g class="st5">
	<path class="st6" d="M239,369.2h0.7v10.3H239V369.2z"/>
	<path class="st6" d="M245.6,372.5l1.8,4.6c0.2,0.5,0.4,1,0.5,1.5l0,0c0.1-0.4,0.3-1,0.5-1.5l1.7-4.5h0.7l-2.1,5.2
		c-0.8,2.2-1.4,3.5-2.3,4.2c-0.6,0.5-1,0.7-1.2,0.7l-0.2-0.6c0.3-0.1,0.8-0.4,1.2-0.8c0.3-0.3,0.8-0.9,1.2-1.7
		c0.1-0.2,0.1-0.2,0.1-0.3s0-0.2-0.1-0.3l-2.6-6.5L245.6,372.5L245.6,372.5z"/>
</g>
<g class="st5">
	<path class="st6" d="M257.2,376.1l-1.2,3.4h-0.7l3.5-9.8h0.7l3.5,9.8h-0.7l-1.2-3.4H257.2z M260.8,375.5l-1.2-3.3
		c-0.2-0.7-0.4-1.2-0.5-1.7l0,0c-0.1,0.6-0.3,1.1-0.5,1.7l-1.2,3.3H260.8z"/>
</g>
<g class="st5">
	<path class="st6" d="M264.6,378.6c0.4,0.2,0.9,0.5,1.6,0.5c1.1,0,1.6-0.6,1.6-1.3c0-0.8-0.5-1.2-1.5-1.6c-1.1-0.4-1.8-1.1-1.8-1.9
		c0-1,0.8-1.9,2.1-1.9c0.6,0,1.2,0.2,1.5,0.4l-0.3,0.6c-0.2-0.2-0.7-0.4-1.4-0.4c-0.9,0-1.3,0.6-1.3,1.2c0,0.7,0.5,1,1.4,1.4
		c1.1,0.4,1.8,1,1.8,2.1c0,1.2-0.9,2-2.3,2c-0.7,0-1.3-0.2-1.8-0.5L264.6,378.6z"/>
</g>
<g class="st5">
	<path class="st6" d="M275.6,377.8c0,0.6,0,1.2,0.1,1.7H275v-1.2l0,0c-0.3,0.6-1.1,1.4-2.4,1.4c-0.9,0-2.4-0.4-2.4-3.1v-4h0.7v3.9
		c0,1.5,0.5,2.6,1.9,2.6c1,0,1.8-0.7,2-1.4c0.1-0.2,0.1-0.5,0.1-0.8v-4.3h0.7L275.6,377.8L275.6,377.8z"/>
</g>
<g class="st5">
	<path class="st6" d="M278,374.2c0-0.6,0-1.1-0.1-1.7h0.6l0.1,1.3l0,0c0.4-0.8,1.2-1.4,2.4-1.4c0.7,0,2.4,0.3,2.4,2.9v4.2h-0.7v-4.1
		c0-1.3-0.5-2.4-1.9-2.4c-1,0-1.8,0.7-2.1,1.6c-0.1,0.2-0.1,0.4-0.1,0.6v4.3H278V374.2z"/>
</g>
<g class="st5">
	<path class="st6" d="M286.6,370.5v2h2v0.6h-2v4.5c0,0.9,0.3,1.5,1,1.5c0.4,0,0.6-0.1,0.8-0.1l0.1,0.5c-0.2,0.1-0.6,0.2-1,0.2
		c-0.5,0-0.9-0.2-1.2-0.5c-0.3-0.4-0.4-0.9-0.4-1.7v-4.4h-1.2v-0.6h1.2v-1.8L286.6,370.5z"/>
</g>
<g class="st5">
	<path class="st6" d="M296,375.9c0,2.6-1.8,3.7-3.3,3.7c-1.8,0-3.2-1.4-3.2-3.6c0-2.4,1.6-3.7,3.3-3.7
		C294.7,372.4,296,373.8,296,375.9z M290.2,376c0,1.7,1.1,3,2.5,3s2.6-1.3,2.6-3.1c0-1.3-0.7-3-2.6-3
		C291,372.9,290.2,374.5,290.2,376z"/>
</g>
<g class="st5">
	<path class="st6" d="M297.5,378.6c0.4,0.2,0.9,0.5,1.6,0.5c1.1,0,1.6-0.6,1.6-1.3c0-0.8-0.5-1.2-1.5-1.6c-1.1-0.4-1.8-1.1-1.8-1.9
		c0-1,0.8-1.9,2.1-1.9c0.6,0,1.2,0.2,1.5,0.4l-0.3,0.6c-0.2-0.2-0.7-0.4-1.4-0.4c-0.9,0-1.3,0.6-1.3,1.2c0,0.7,0.5,1,1.4,1.4
		c1.1,0.4,1.8,1,1.8,2.1c0,1.2-0.9,2-2.3,2c-0.7,0-1.3-0.2-1.8-0.5L297.5,378.6z"/>
</g>
<g class="st5">
	<path class="st6" d="M217.3,396.6c-0.5,0.3-1.4,0.5-2.6,0.5c-2.4,0-4.6-1.5-4.6-5c0-2.9,1.9-5.1,4.9-5.1c1.2,0,2,0.3,2.3,0.4
		L217,388c-0.5-0.2-1.2-0.4-2-0.4c-2.6,0-4.2,1.7-4.2,4.5c0,2.7,1.5,4.4,4.1,4.4c0.8,0,1.7-0.2,2.2-0.4L217.3,396.6z"/>
</g>
<g class="st5">
	<path class="st6" d="M224.8,393.3c0,2.6-1.8,3.7-3.3,3.7c-1.8,0-3.2-1.4-3.2-3.6c0-2.4,1.6-3.7,3.3-3.7
		C223.5,389.8,224.8,391.2,224.8,393.3z M218.9,393.4c0,1.7,1.1,3,2.5,3s2.6-1.3,2.6-3.1c0-1.3-0.7-3-2.6-3
		C219.7,390.3,218.9,391.9,218.9,393.4z"/>
</g>
<g class="st5">
	<path class="st6" d="M226.7,392c0-0.7,0-1.4-0.1-2.1h0.6v1.4l0,0c0.3-0.9,1-1.6,2-1.6c0.1,0,0.2,0,0.3,0v0.7c-0.1,0-0.2,0-0.3,0
		c-1,0-1.6,0.8-1.8,1.9c0,0.2-0.1,0.4-0.1,0.7v3.8h-0.7V392H226.7z"/>
</g>
<g class="st5">
	<path class="st6" d="M231.1,392.2c0-0.9,0-1.6-0.1-2.2h0.7l0.1,1.3l0,0c0.5-0.9,1.3-1.5,2.6-1.5c1.8,0,3,1.5,3,3.5
		c0,2.5-1.5,3.8-3.2,3.8c-1,0-1.9-0.4-2.4-1.3l0,0v4h-0.7L231.1,392.2L231.1,392.2z M231.8,394.2c0,0.2,0,0.4,0.1,0.6
		c0.3,1.1,1.2,1.8,2.3,1.8c1.6,0,2.5-1.3,2.5-3.1c0-1.6-0.9-3-2.5-3c-1,0-2,0.7-2.3,1.9c0,0.2-0.1,0.4-0.1,0.6V394.2z"/>
</g>
<g class="st5">
	<path class="st6" d="M245.4,393.3c0,2.6-1.8,3.7-3.3,3.7c-1.8,0-3.2-1.4-3.2-3.6c0-2.4,1.6-3.7,3.3-3.7
		C244.1,389.8,245.4,391.2,245.4,393.3z M239.6,393.4c0,1.7,1.1,3,2.5,3s2.6-1.3,2.6-3.1c0-1.3-0.7-3-2.6-3
		C240.4,390.3,239.6,391.9,239.6,393.4z"/>
</g>
<g class="st5">
	<path class="st6" d="M247.3,392c0-0.7,0-1.4-0.1-2.1h0.6v1.4l0,0c0.3-0.9,1-1.6,2-1.6c0.1,0,0.2,0,0.3,0v0.7c-0.1,0-0.2,0-0.3,0
		c-1,0-1.6,0.8-1.8,1.9c0,0.2-0.1,0.4-0.1,0.7v3.8h-0.7V392H247.3z"/>
</g>
<g class="st5">
	<path class="st6" d="M255.6,396.9l-0.1-1l0,0c-0.3,0.5-1.1,1.2-2.2,1.2c-1.4,0-2-1-2-1.9c0-1.6,1.4-2.6,4.2-2.6v-0.2
		c0-0.7-0.1-2.1-1.8-2.1c-0.6,0-1.2,0.2-1.7,0.5l-0.2-0.5c0.6-0.4,1.4-0.6,2-0.6c2,0,2.4,1.5,2.4,2.8v2.7c0,0.6,0,1.1,0.1,1.7H255.6
		z M255.4,393.2c-1.5,0-3.5,0.2-3.5,1.9c0,1,0.7,1.5,1.4,1.5c1.2,0,1.8-0.7,2.1-1.4c0-0.1,0.1-0.3,0.1-0.4v-1.6H255.4z"/>
</g>
<g class="st5">
	<path class="st6" d="M259.3,387.9v2h2v0.6h-2v4.5c0,0.9,0.3,1.5,1,1.5c0.4,0,0.6-0.1,0.8-0.1l0.1,0.5c-0.2,0.1-0.6,0.2-1,0.2
		c-0.5,0-0.9-0.2-1.2-0.5c-0.3-0.4-0.4-0.9-0.4-1.7v-4.4h-1.2v-0.6h1.2v-1.8L259.3,387.9z"/>
</g>
<g class="st5">
	<path class="st6" d="M263.8,388c0,0.3-0.2,0.6-0.6,0.6c-0.3,0-0.5-0.3-0.5-0.6c0-0.3,0.2-0.6,0.6-0.6
		C263.6,387.3,263.8,387.6,263.8,388z M262.9,396.9v-7h0.7v7H262.9z"/>
</g>
<g class="st5">
	<path class="st6" d="M265.9,389.9l1.6,4.3c0.3,0.7,0.5,1.3,0.7,1.9l0,0c0.2-0.6,0.4-1.2,0.7-1.9l1.7-4.3h0.7l-2.8,7h-0.6l-2.7-7
		H265.9z"/>
</g>
<g class="st5">
	<path class="st6" d="M278.6,393.3c0,2.6-1.8,3.7-3.3,3.7c-1.8,0-3.2-1.4-3.2-3.6c0-2.4,1.6-3.7,3.3-3.7
		C277.3,389.8,278.6,391.2,278.6,393.3z M272.8,393.4c0,1.7,1.1,3,2.5,3s2.6-1.3,2.6-3.1c0-1.3-0.7-3-2.6-3
		C273.6,390.3,272.8,391.9,272.8,393.4z"/>
</g>
<g class="st5">
	<path class="st6" d="M280.2,396c0.4,0.2,0.9,0.5,1.6,0.5c1.1,0,1.6-0.6,1.6-1.3c0-0.8-0.5-1.2-1.5-1.6c-1.1-0.4-1.8-1.1-1.8-1.9
		c0-1,0.8-1.9,2.1-1.9c0.6,0,1.2,0.2,1.5,0.4l-0.3,0.6c-0.2-0.2-0.7-0.4-1.4-0.4c-0.9,0-1.3,0.6-1.3,1.2c0,0.7,0.5,1,1.4,1.4
		c1.1,0.4,1.8,1,1.8,2.1c0,1.2-0.9,2-2.3,2c-0.7,0-1.3-0.2-1.8-0.5L280.2,396z"/>
</g>
<g class="st5">
	<path class="st6" d="M285.2,398.7c0.2-0.6,0.6-2.2,0.8-3.1l0.9-0.1c-0.3,1.1-0.9,2.7-1.1,3.1L285.2,398.7z"/>
</g>
<g class="st5">
	<path class="st6" d="M300.6,392.3c-0.1-1.5-0.2-3.3-0.2-4.3l0,0c-0.3,1.1-0.8,2.2-1.3,3.6l-2.1,5.3h-0.5l-1.9-5.2
		c-0.6-1.5-1-2.7-1.3-3.8l0,0c0,1.1-0.1,2.8-0.2,4.5l-0.3,4.5H292l0.7-9.8h0.8l2.1,5.6c0.5,1.2,0.8,2.2,1.1,3.2l0,0
		c0.3-0.9,0.6-1.9,1.1-3.2l2.2-5.6h0.8l0.7,9.8h-0.7L300.6,392.3z"/>
</g>
<g class="st5">
	<path class="st6" d="M303.9,393.3c0,2.2,1.2,3.1,2.7,3.1c1,0,1.5-0.2,1.9-0.4l0.2,0.6c-0.3,0.1-1,0.4-2.2,0.4c-2,0-3.2-1.4-3.2-3.5
		c0-2.3,1.3-3.8,3.1-3.8c2.3,0,2.7,2.1,2.7,3.1c0,0.2,0,0.3,0,0.4L303.9,393.3L303.9,393.3z M308.3,392.8c0-1-0.4-2.4-2.1-2.4
		c-1.5,0-2.2,1.4-2.3,2.4H308.3z M308.1,386.9l-1.8,2h-0.5l1.3-2H308.1z"/>
</g>
<g class="st5">
	<path class="st6" d="M311,389.9l1.2,1.7c0.3,0.4,0.5,0.8,0.8,1.2l0,0c0.3-0.4,0.5-0.8,0.8-1.2l1.2-1.7h0.8l-2.4,3.4l2.5,3.6h-0.8
		l-1.2-1.8c-0.3-0.4-0.6-0.9-0.9-1.3l0,0c-0.3,0.4-0.5,0.8-0.9,1.3l-1.2,1.8h-0.8l2.6-3.6l-2.4-3.4H311z"/>
</g>
<g class="st5">
	<path class="st6" d="M318.4,388c0,0.3-0.2,0.6-0.6,0.6c-0.3,0-0.5-0.3-0.5-0.6c0-0.3,0.2-0.6,0.6-0.6
		C318.1,387.3,318.4,387.6,318.4,388z M317.5,396.9v-7h0.7v7H317.5z"/>
</g>
<g class="st5">
	<path class="st6" d="M325.4,396.6c-0.3,0.2-1,0.4-2,0.4c-2,0-3.3-1.4-3.3-3.6s1.5-3.7,3.6-3.7c0.9,0,1.6,0.2,1.8,0.4l-0.2,0.6
		c-0.3-0.2-0.9-0.4-1.7-0.4c-1.9,0-2.8,1.4-2.8,3.1c0,1.8,1.1,3,2.8,3c0.8,0,1.4-0.2,1.7-0.4L325.4,396.6z"/>
</g>
<g class="st5">
	<path class="st6" d="M332.9,393.3c0,2.6-1.8,3.7-3.3,3.7c-1.8,0-3.2-1.4-3.2-3.6c0-2.4,1.6-3.7,3.3-3.7
		C331.6,389.8,332.9,391.2,332.9,393.3z M327.1,393.4c0,1.7,1.1,3,2.5,3s2.6-1.3,2.6-3.1c0-1.3-0.7-3-2.6-3
		C327.9,390.3,327.1,391.9,327.1,393.4z"/>
</g>
<g class="st5">
	<path class="st6" d="M218.7,414.3c0,3.5-2.1,5.1-4.4,5.1c-2.4,0-4.3-1.9-4.3-4.9c0-3.2,1.9-5.1,4.4-5.1S218.7,411.3,218.7,414.3z
		 M210.7,414.5c0,2.2,1.3,4.4,3.6,4.4s3.6-2.1,3.6-4.5c0-2.1-1.1-4.4-3.6-4.4C211.9,410,210.7,412.2,210.7,414.5z"/>
</g>
<g class="st5">
	<path class="st6" d="M220.6,414.6c0-0.9,0-1.6-0.1-2.2h0.7l0.1,1.3l0,0c0.5-0.9,1.3-1.5,2.6-1.5c1.8,0,3,1.5,3,3.5
		c0,2.5-1.5,3.8-3.2,3.8c-1,0-1.9-0.4-2.4-1.3l0,0v4h-0.7L220.6,414.6L220.6,414.6z M221.3,416.6c0,0.2,0,0.4,0.1,0.6
		c0.3,1.1,1.2,1.8,2.3,1.8c1.6,0,2.5-1.3,2.5-3.1c0-1.6-0.9-3-2.4-3c-1,0-2,0.7-2.3,1.9c0,0.2-0.1,0.4-0.1,0.6v1.2H221.3z"/>
</g>
<g class="st5">
	<path class="st6" d="M229,415.7c0,2.2,1.2,3.1,2.7,3.1c1,0,1.5-0.2,1.9-0.4l0.2,0.6c-0.3,0.1-1,0.4-2.2,0.4c-2,0-3.2-1.4-3.2-3.5
		c0-2.3,1.3-3.8,3.1-3.8c2.3,0,2.7,2.1,2.7,3.1c0,0.2,0,0.3,0,0.4L229,415.7L229,415.7z M233.4,415.2c0-1-0.4-2.4-2.1-2.4
		c-1.5,0-2.2,1.4-2.3,2.4H233.4z"/>
</g>
<g class="st5">
	<path class="st6" d="M236,414.4c0-0.7,0-1.4-0.1-2.1h0.6v1.4l0,0c0.3-0.9,1-1.6,2-1.6c0.1,0,0.2,0,0.3,0v0.7c-0.1,0-0.2,0-0.3,0
		c-1,0-1.6,0.8-1.8,1.9c0,0.2-0.1,0.4-0.1,0.7v3.8H236V414.4z"/>
</g>
<g class="st5">
	<path class="st6" d="M244.3,419.3l-0.1-1l0,0c-0.3,0.5-1.1,1.2-2.2,1.2c-1.4,0-2-1-2-1.9c0-1.6,1.4-2.6,4.2-2.6v-0.2
		c0-0.7-0.1-2.1-1.8-2.1c-0.6,0-1.2,0.2-1.7,0.5l-0.2-0.5c0.6-0.4,1.4-0.6,2-0.6c2,0,2.4,1.5,2.4,2.8v2.7c0,0.6,0,1.1,0.1,1.7H244.3
		z M244.1,415.6c-1.5,0-3.5,0.2-3.5,1.9c0,1,0.7,1.5,1.4,1.5c1.2,0,1.8-0.7,2.1-1.4c0-0.1,0.1-0.3,0.1-0.4v-1.6H244.1z"/>
</g>
<g class="st5">
	<path class="st6" d="M252,419c-0.3,0.2-1,0.4-2,0.4c-2,0-3.3-1.4-3.3-3.6s1.5-3.7,3.6-3.7c0.9,0,1.6,0.2,1.8,0.4l-0.2,0.6
		c-0.3-0.2-0.9-0.4-1.7-0.4c-1.9,0-2.8,1.4-2.8,3.1c0,1.8,1.1,3,2.8,3c0.8,0,1.4-0.2,1.7-0.4L252,419z"/>
</g>
<g class="st5">
	<path class="st6" d="M254.6,410.4c0,0.3-0.2,0.6-0.6,0.6c-0.3,0-0.5-0.3-0.5-0.6c0-0.3,0.2-0.6,0.6-0.6
		C254.4,409.7,254.6,410,254.6,410.4z M253.7,419.3v-7h0.7v7H253.7z"/>
</g>
<g class="st5">
	<path class="st6" d="M262.8,415.7c0,2.6-1.8,3.7-3.3,3.7c-1.8,0-3.2-1.4-3.2-3.6c0-2.4,1.6-3.7,3.3-3.7
		C261.5,412.2,262.8,413.6,262.8,415.7z M257,415.8c0,1.7,1.1,3,2.5,3s2.6-1.3,2.6-3.1c0-1.3-0.7-3-2.6-3
		C257.8,412.7,257,414.3,257,415.8z"/>
</g>
<g class="st5">
	<path class="st6" d="M264.7,414c0-0.6,0-1.1-0.1-1.7h0.6l0.1,1.3l0,0c0.4-0.8,1.2-1.4,2.4-1.4c0.7,0,2.4,0.3,2.4,2.9v4.2h-0.7v-4.1
		c0-1.3-0.5-2.4-1.9-2.4c-1,0-1.8,0.7-2.1,1.6c-0.1,0.2-0.1,0.4-0.1,0.6v4.3h-0.7V414H264.7z"/>
</g>
<g class="st5">
	<path class="st6" d="M272.8,415.7c0,2.2,1.2,3.1,2.7,3.1c1,0,1.5-0.2,1.9-0.4l0.2,0.6c-0.3,0.1-1,0.4-2.2,0.4c-2,0-3.2-1.4-3.2-3.5
		c0-2.3,1.3-3.8,3.1-3.8c2.3,0,2.7,2.1,2.7,3.1c0,0.2,0,0.3,0,0.4L272.8,415.7L272.8,415.7z M277.2,415.2c0-1-0.4-2.4-2.1-2.4
		c-1.5,0-2.2,1.4-2.3,2.4H277.2z"/>
</g>
<g class="st5">
	<path class="st6" d="M279.5,418.4c0.4,0.2,0.9,0.5,1.6,0.5c1.1,0,1.6-0.6,1.6-1.3c0-0.8-0.5-1.2-1.5-1.6c-1.1-0.4-1.8-1.1-1.8-1.9
		c0-1,0.8-1.9,2.1-1.9c0.6,0,1.2,0.2,1.5,0.4l-0.3,0.6c-0.2-0.2-0.7-0.4-1.4-0.4c-0.9,0-1.3,0.6-1.3,1.2c0,0.7,0.5,1,1.4,1.4
		c1.1,0.4,1.8,1,1.8,2.1c0,1.2-0.9,2-2.3,2c-0.7,0-1.3-0.2-1.8-0.5L279.5,418.4z"/>
</g>
<g class="st5">
	<path class="st6" d="M210.7,432.1c0.6-0.1,1.4-0.2,2.1-0.2c1.3,0,2.1,0.3,2.6,0.8c0.4,0.4,0.7,1.1,0.7,1.7c0,1.3-0.8,2.2-1.9,2.6
		l0,0c0.8,0.2,1.3,1,1.5,2.1c0.3,1.5,0.5,2.2,0.7,2.6h-0.7c-0.1-0.3-0.4-1.1-0.6-2.4c-0.3-1.4-0.9-2-2.2-2.1h-1.5v4.5h-0.7
		L210.7,432.1L210.7,432.1z M211.3,436.7h1.6c1.5,0,2.5-0.8,2.5-2.1c0-1.5-1.1-2.1-2.6-2.1c-0.7,0-1.2,0.1-1.4,0.1v4.1H211.3z"/>
</g>
<g class="st5">
	<path class="st6" d="M218.3,438.1c0,2.2,1.2,3.1,2.7,3.1c1,0,1.5-0.2,1.9-0.4l0.2,0.6c-0.3,0.1-1,0.4-2.2,0.4c-2,0-3.2-1.4-3.2-3.5
		c0-2.3,1.3-3.8,3.1-3.8c2.3,0,2.7,2.1,2.7,3.1c0,0.2,0,0.3,0,0.4L218.3,438.1L218.3,438.1z M222.7,437.6c0-1-0.4-2.4-2.1-2.4
		c-1.5,0-2.2,1.4-2.3,2.4H222.7z"/>
</g>
<g class="st5">
	<path class="st6" d="M230.3,441.4c-0.3,0.2-1,0.4-2,0.4c-2,0-3.3-1.4-3.3-3.6s1.5-3.7,3.6-3.7c0.9,0,1.6,0.2,1.8,0.4l-0.2,0.6
		c-0.3-0.2-0.9-0.4-1.7-0.4c-1.9,0-2.8,1.4-2.8,3.1c0,1.8,1.1,3,2.8,3c0.8,0,1.4-0.2,1.7-0.4L230.3,441.4z"/>
</g>
<g class="st5">
	<path class="st6" d="M237.3,440c0,0.6,0,1.2,0.1,1.7h-0.6v-1.2l0,0c-0.3,0.6-1.1,1.4-2.4,1.4c-0.9,0-2.4-0.4-2.4-3.1v-4h0.7v3.9
		c0,1.5,0.5,2.6,1.9,2.6c1,0,1.8-0.7,2-1.4c0.1-0.2,0.1-0.5,0.1-0.8v-4.3h0.7v5.2H237.3z"/>
</g>
<g class="st5">
	<path class="st6" d="M239.8,436.8c0-0.7,0-1.4-0.1-2.1h0.6v1.4l0,0c0.3-0.9,1-1.6,2-1.6c0.1,0,0.2,0,0.3,0v0.7c-0.1,0-0.2,0-0.3,0
		c-1,0-1.6,0.8-1.8,1.9c0,0.2-0.1,0.4-0.1,0.7v3.8h-0.7v-4.8H239.8z"/>
</g>
<g class="st5">
	<path class="st6" d="M243.9,440.8c0.4,0.2,0.9,0.5,1.6,0.5c1.1,0,1.6-0.6,1.6-1.3c0-0.8-0.5-1.2-1.5-1.6c-1.1-0.4-1.8-1.1-1.8-1.9
		c0-1,0.8-1.9,2.1-1.9c0.6,0,1.2,0.2,1.5,0.4l-0.3,0.6c-0.2-0.2-0.7-0.4-1.4-0.4c-0.9,0-1.3,0.6-1.3,1.2c0,0.7,0.5,1,1.4,1.4
		c1.1,0.4,1.8,1,1.8,2.1c0,1.2-0.9,2-2.3,2c-0.7,0-1.3-0.2-1.8-0.5L243.9,440.8z"/>
</g>
<g class="st5">
	<path class="st6" d="M255.8,438.1c0,2.6-1.8,3.7-3.3,3.7c-1.8,0-3.2-1.4-3.2-3.6c0-2.4,1.6-3.7,3.3-3.7
		C254.5,434.6,255.8,436,255.8,438.1z M249.9,438.2c0,1.7,1.1,3,2.5,3s2.6-1.3,2.6-3.1c0-1.3-0.7-3-2.6-3
		C250.7,435.1,249.9,436.7,249.9,438.2z"/>
</g>
<g class="st5">
	<path class="st6" d="M257.3,440.8c0.4,0.2,0.9,0.5,1.6,0.5c1.1,0,1.6-0.6,1.6-1.3c0-0.8-0.5-1.2-1.5-1.6c-1.1-0.4-1.8-1.1-1.8-1.9
		c0-1,0.8-1.9,2.1-1.9c0.6,0,1.2,0.2,1.5,0.4l-0.3,0.6c-0.2-0.2-0.7-0.4-1.4-0.4c-0.9,0-1.3,0.6-1.3,1.2c0,0.7,0.5,1,1.4,1.4
		c1.1,0.4,1.8,1,1.8,2.1c0,1.2-0.9,2-2.3,2c-0.7,0-1.3-0.2-1.8-0.5L257.3,440.8z"/>
</g>
<g class="st5">
	<path class="st6" d="M267.5,431.9v4.3h5.4v-4.3h0.7v9.8h-0.7v-4.9h-5.4v4.9h-0.7v-9.8H267.5z"/>
</g>
<g class="st5">
	<path class="st6" d="M281.3,440c0,0.6,0,1.2,0.1,1.7h-0.6v-1.2l0,0c-0.3,0.6-1.1,1.4-2.4,1.4c-0.9,0-2.4-0.4-2.4-3.1v-4h0.7v3.9
		c0,1.5,0.5,2.6,1.9,2.6c1,0,1.8-0.7,2-1.4c0.1-0.2,0.1-0.5,0.1-0.8v-4.3h0.7v5.2H281.3z"/>
</g>
<g class="st5">
	<path class="st6" d="M283.7,436.4c0-0.6,0-1.1-0.1-1.7h0.6l0.1,1.2l0,0c0.4-0.8,1.1-1.4,2.2-1.4c1,0,1.7,0.6,2,1.5l0,0
		c0.2-0.4,0.4-0.7,0.7-0.9c0.4-0.4,0.9-0.6,1.7-0.6c0.7,0,2.3,0.4,2.3,3v4.1h-0.7v-4c0-1.6-0.6-2.5-1.8-2.5c-0.9,0-1.6,0.6-1.8,1.4
		c-0.1,0.2-0.1,0.4-0.1,0.7v4.5h-0.7v-4.3c0-1.3-0.6-2.2-1.7-2.2c-0.9,0-1.7,0.8-1.9,1.6c-0.1,0.2-0.1,0.4-0.1,0.7v4.3h-0.7V436.4z"
		/>
</g>
<g class="st5">
	<path class="st6" d="M299.5,441.7l-0.1-1l0,0c-0.3,0.5-1.1,1.2-2.2,1.2c-1.4,0-2-1-2-1.9c0-1.6,1.4-2.6,4.2-2.6v-0.2
		c0-0.7-0.1-2.1-1.8-2.1c-0.6,0-1.2,0.2-1.7,0.5l-0.2-0.5c0.6-0.4,1.4-0.6,2-0.6c2,0,2.4,1.5,2.4,2.8v2.7c0,0.6,0,1.1,0.1,1.7H299.5
		z M299.3,438c-1.5,0-3.5,0.2-3.5,1.9c0,1,0.7,1.5,1.4,1.5c1.2,0,1.8-0.7,2.1-1.4c0-0.1,0.1-0.3,0.1-0.4V438H299.3z"/>
</g>
<g class="st5">
	<path class="st6" d="M302.3,436.4c0-0.6,0-1.1-0.1-1.7h0.6l0.1,1.3l0,0c0.4-0.8,1.2-1.4,2.4-1.4c0.7,0,2.4,0.3,2.4,2.9v4.2H307
		v-4.1c0-1.3-0.5-2.4-1.9-2.4c-1,0-1.8,0.7-2.1,1.6c-0.1,0.2-0.1,0.4-0.1,0.6v4.3h-0.7v-5.3H302.3z"/>
</g>
<g class="st5">
	<path class="st6" d="M316.2,438.1c0,2.6-1.8,3.7-3.3,3.7c-1.8,0-3.2-1.4-3.2-3.6c0-2.4,1.6-3.7,3.3-3.7
		C314.9,434.6,316.2,436,316.2,438.1z M310.4,438.2c0,1.7,1.1,3,2.5,3s2.6-1.3,2.6-3.1c0-1.3-0.7-3-2.6-3
		C311.2,435.1,310.4,436.7,310.4,438.2z"/>
</g>
<g class="st5">
	<path class="st6" d="M317.8,440.8c0.4,0.2,0.9,0.5,1.6,0.5c1.1,0,1.6-0.6,1.6-1.3c0-0.8-0.5-1.2-1.5-1.6c-1.1-0.4-1.8-1.1-1.8-1.9
		c0-1,0.8-1.9,2.1-1.9c0.6,0,1.2,0.2,1.5,0.4l-0.3,0.6c-0.2-0.2-0.7-0.4-1.4-0.4c-0.9,0-1.3,0.6-1.3,1.2c0,0.7,0.5,1,1.4,1.4
		c1.1,0.4,1.8,1,1.8,2.1c0,1.2-0.9,2-2.3,2c-0.7,0-1.3-0.2-1.8-0.5L317.8,440.8z"/>
</g>
<g class="st5">
	<path class="st6" d="M212.5,454.9h-3.2v-0.6h7.1v0.6h-3.2v9.2h-0.7L212.5,454.9L212.5,454.9z"/>
</g>
<g class="st5">
	<path class="st6" d="M216.6,459.2c0-0.7,0-1.4-0.1-2.1h0.6v1.4l0,0c0.3-0.9,1-1.6,2-1.6c0.1,0,0.2,0,0.3,0v0.7c-0.1,0-0.2,0-0.3,0
		c-1,0-1.6,0.8-1.8,1.9c0,0.2-0.1,0.4-0.1,0.7v3.8h-0.7v-4.8H216.6z"/>
</g>
<g class="st5">
	<path class="st6" d="M224.9,464.1l-0.1-1l0,0c-0.3,0.5-1.1,1.2-2.2,1.2c-1.4,0-2-1-2-1.9c0-1.6,1.4-2.6,4.2-2.6v-0.2
		c0-0.7-0.1-2.1-1.8-2.1c-0.6,0-1.2,0.2-1.7,0.5l-0.2-0.5c0.6-0.4,1.4-0.6,2-0.6c2,0,2.4,1.5,2.4,2.8v2.7c0,0.6,0,1.1,0.1,1.7H224.9
		z M224.7,460.4c-1.5,0-3.5,0.2-3.5,1.9c0,1,0.7,1.5,1.4,1.5c1.2,0,1.8-0.7,2.1-1.4c0-0.1,0.1-0.3,0.1-0.4v-1.6H224.7z"/>
</g>
<g class="st5">
	<path class="st6" d="M227.7,458.8c0-0.6,0-1.1-0.1-1.7h0.6l0.1,1.3l0,0c0.4-0.8,1.2-1.4,2.4-1.4c0.7,0,2.4,0.3,2.4,2.9v4.2h-0.7
		V460c0-1.3-0.5-2.4-1.9-2.4c-1,0-1.8,0.7-2.1,1.6c-0.1,0.2-0.1,0.4-0.1,0.6v4.3h-0.7v-5.3H227.7z"/>
</g>
<g class="st5">
	<path class="st6" d="M235.2,463.2c0.4,0.2,0.9,0.5,1.6,0.5c1.1,0,1.6-0.6,1.6-1.3c0-0.8-0.5-1.2-1.5-1.6c-1.1-0.4-1.8-1.1-1.8-1.9
		c0-1,0.8-1.9,2.1-1.9c0.6,0,1.2,0.2,1.5,0.4l-0.3,0.6c-0.2-0.2-0.7-0.4-1.4-0.4c-0.9,0-1.3,0.6-1.3,1.2c0,0.7,0.5,1,1.4,1.4
		c1.1,0.4,1.8,1,1.8,2.1c0,1.2-0.9,2-2.3,2c-0.7,0-1.3-0.2-1.8-0.5L235.2,463.2z"/>
</g>
<g class="st5">
	<path class="st6" d="M241.2,464.1v-6.4h-1v-0.6h1v-0.4c0-1.1,0.2-1.9,0.8-2.5c0.4-0.4,1-0.6,1.5-0.6c0.4,0,0.8,0.1,1,0.2l-0.2,0.6
		c-0.2-0.1-0.5-0.2-0.9-0.2c-1.3,0-1.6,1.2-1.6,2.5v0.4h1.9v0.6h-1.9v6.4H241.2z"/>
</g>
<g class="st5">
	<path class="st6" d="M251,460.6c0,2.6-1.8,3.7-3.3,3.7c-1.8,0-3.2-1.4-3.2-3.6c0-2.4,1.6-3.7,3.3-3.7
		C249.7,457,251,458.4,251,460.6z M245.1,460.6c0,1.7,1.1,3,2.5,3s2.6-1.3,2.6-3.1c0-1.3-0.7-3-2.6-3
		C245.9,457.6,245.1,459.2,245.1,460.6z"/>
</g>
<g class="st5">
	<path class="st6" d="M252.9,459.2c0-0.7,0-1.4-0.1-2.1h0.6v1.4l0,0c0.3-0.9,1-1.6,2-1.6c0.1,0,0.2,0,0.3,0v0.7c-0.1,0-0.2,0-0.3,0
		c-1,0-1.6,0.8-1.8,1.9c0,0.2-0.1,0.4-0.1,0.7v3.8h-0.7v-4.8H252.9z"/>
</g>
<g class="st5">
	<path class="st6" d="M257.4,458.8c0-0.6,0-1.1-0.1-1.7h0.6l0.1,1.2l0,0c0.4-0.8,1.1-1.4,2.2-1.4c1,0,1.7,0.6,2,1.5l0,0
		c0.2-0.4,0.4-0.7,0.7-0.9c0.4-0.4,0.9-0.6,1.7-0.6c0.7,0,2.3,0.4,2.3,3v4.1h-0.7v-4c0-1.6-0.6-2.5-1.8-2.5c-0.9,0-1.6,0.6-1.8,1.4
		c-0.1,0.2-0.1,0.4-0.1,0.7v4.5h-0.7v-4.3c0-1.3-0.6-2.2-1.7-2.2c-0.9,0-1.7,0.8-1.9,1.6c-0.1,0.2-0.1,0.4-0.1,0.7v4.3h-0.7V458.8z"
		/>
</g>
<g class="st5">
	<path class="st6" d="M273.1,464.1l-0.1-1l0,0c-0.3,0.5-1.1,1.2-2.2,1.2c-1.4,0-2-1-2-1.9c0-1.6,1.4-2.6,4.2-2.6v-0.2
		c0-0.7-0.1-2.1-1.8-2.1c-0.6,0-1.2,0.2-1.7,0.5l-0.2-0.5c0.6-0.4,1.4-0.6,2-0.6c2,0,2.4,1.5,2.4,2.8v2.7c0,0.6,0,1.1,0.1,1.7H273.1
		z M272.9,460.4c-1.5,0-3.5,0.2-3.5,1.9c0,1,0.7,1.5,1.4,1.5c1.2,0,1.8-0.7,2.1-1.4c0-0.1,0.1-0.3,0.1-0.4v-1.6H272.9z"/>
</g>
<g class="st5">
	<path class="st6" d="M280.8,463.8c-0.3,0.2-1,0.4-2,0.4c-2,0-3.3-1.4-3.3-3.6s1.5-3.7,3.6-3.7c0.9,0,1.6,0.2,1.8,0.4l-0.2,0.6
		c-0.3-0.2-0.9-0.4-1.7-0.4c-1.9,0-2.8,1.4-2.8,3.1c0,1.8,1.1,3,2.8,3c0.8,0,1.4-0.2,1.7-0.4L280.8,463.8z"/>
</g>
<g class="st5">
	<path class="st6" d="M283.5,455.2c0,0.3-0.2,0.6-0.6,0.6c-0.3,0-0.5-0.3-0.5-0.6c0-0.3,0.2-0.6,0.6-0.6
		C283.2,454.6,283.5,454.8,283.5,455.2z M282.6,464.1v-7h0.7v7H282.6z"/>
</g>
<g class="st5">
	<path class="st6" d="M291.6,460.6c0,2.6-1.8,3.7-3.3,3.7c-1.8,0-3.2-1.4-3.2-3.6c0-2.4,1.6-3.7,3.3-3.7
		C290.3,457,291.6,458.4,291.6,460.6z M285.8,460.6c0,1.7,1.1,3,2.5,3s2.6-1.3,2.6-3.1c0-1.3-0.7-3-2.6-3
		C286.6,457.6,285.8,459.2,285.8,460.6z M290,454.1l-1.8,2h-0.5l1.3-2H290z"/>
</g>
<g class="st5">
	<path class="st6" d="M293.6,458.8c0-0.6,0-1.1-0.1-1.7h0.6l0.1,1.3l0,0c0.4-0.8,1.2-1.4,2.4-1.4c0.7,0,2.4,0.3,2.4,2.9v4.2h-0.7
		V460c0-1.3-0.5-2.4-1.9-2.4c-1,0-1.8,0.7-2.1,1.6c-0.1,0.2-0.1,0.4-0.1,0.6v4.3h-0.7v-5.3H293.6z"/>
</g>
<g class="st5">
	<path class="st6" d="M305.1,454.5c0.7-0.1,1.6-0.2,2.5-0.2c1.8,0,3.1,0.5,3.9,1.3s1.2,1.9,1.2,3.4c0,1.4-0.4,2.7-1.3,3.7
		c-0.9,0.9-2.3,1.5-4.2,1.5c-0.8,0-1.5,0-2.2-0.1v-9.6H305.1z M305.8,463.5c0.4,0.1,1,0.1,1.6,0.1c3.1,0,4.7-1.8,4.7-4.6
		c0-2.5-1.4-4.2-4.5-4.2c-0.8,0-1.3,0.1-1.8,0.1L305.8,463.5L305.8,463.5z"/>
</g>
<g class="st5">
	<path class="st6" d="M315.5,455.2c0,0.3-0.2,0.6-0.6,0.6c-0.3,0-0.5-0.3-0.5-0.6c0-0.3,0.2-0.6,0.6-0.6
		C315.3,454.6,315.5,454.8,315.5,455.2z M314.6,464.1v-7h0.7v7H314.6z"/>
</g>
<g class="st5">
	<path class="st6" d="M323.3,457.2c0,0.5-0.1,1.1-0.1,1.8v4.1c0,1.8-0.4,2.7-0.9,3.2c-0.6,0.6-1.6,0.8-2.4,0.8s-1.7-0.2-2.2-0.6
		l0.2-0.6c0.5,0.3,1.2,0.6,2.1,0.6c1.5,0,2.5-0.8,2.5-2.8v-1l0,0c-0.4,0.7-1.2,1.3-2.4,1.3c-1.8,0-3-1.5-3-3.4
		c0-2.4,1.6-3.7,3.1-3.7c1.4,0,2.1,0.8,2.3,1.3l0,0V457h0.8V457.2z M322.6,459.8c0-0.2,0-0.5-0.1-0.7c-0.3-0.8-1-1.6-2.2-1.6
		c-1.5,0-2.5,1.2-2.5,3.1c0,1.6,0.8,2.9,2.5,2.9c0.9,0,1.8-0.6,2.1-1.6c0.1-0.2,0.1-0.5,0.1-0.7v-1.4H322.6z"/>
</g>
<g class="st5">
	<path class="st6" d="M326.6,455.2c0,0.3-0.2,0.6-0.6,0.6c-0.3,0-0.5-0.3-0.5-0.6c0-0.3,0.2-0.6,0.6-0.6
		C326.4,454.6,326.6,454.8,326.6,455.2z M325.7,464.1v-7h0.7v7H325.7z"/>
</g>
<g class="st5">
	<path class="st6" d="M329.8,455.1v2h2v0.6h-2v4.5c0,0.9,0.3,1.5,1,1.5c0.4,0,0.6-0.1,0.8-0.1l0.1,0.5c-0.2,0.1-0.6,0.2-1,0.2
		c-0.5,0-0.9-0.2-1.2-0.5c-0.3-0.4-0.4-0.9-0.4-1.7v-4.4h-1.2v-0.6h1.2v-1.8L329.8,455.1z"/>
</g>
<g class="st5">
	<path class="st6" d="M337.3,464.1l-0.1-1l0,0c-0.3,0.5-1.1,1.2-2.2,1.2c-1.4,0-2-1-2-1.9c0-1.6,1.4-2.6,4.2-2.6v-0.2
		c0-0.7-0.1-2.1-1.8-2.1c-0.6,0-1.2,0.2-1.7,0.5l-0.2-0.5c0.6-0.4,1.4-0.6,2-0.6c2,0,2.4,1.5,2.4,2.8v2.7c0,0.6,0,1.1,0.1,1.7H337.3
		z M337.2,460.4c-1.5,0-3.5,0.2-3.5,1.9c0,1,0.7,1.5,1.4,1.5c1.2,0,1.8-0.7,2.1-1.4c0-0.1,0.1-0.3,0.1-0.4v-1.6H337.2z"/>
</g>
<g class="st5">
	<path class="st6" d="M340.2,453.8h0.7v10.3h-0.7V453.8z"/>
</g>
<g class="st5">
	<path class="st6" d="M210.3,485.4c0.6,0.4,1.3,0.7,2.1,0.7c1.5,0,2.3-0.8,2.3-2c0-1.1-0.6-1.7-2-2.3c-1.6-0.6-2.5-1.4-2.5-2.7
		c0-1.4,1.2-2.5,2.8-2.5c0.9,0,1.6,0.2,1.9,0.5l-0.3,0.6c-0.3-0.2-0.9-0.5-1.7-0.5c-1.6,0-2.1,1-2.1,1.8c0,1.1,0.6,1.6,2,2.2
		c1.6,0.7,2.5,1.4,2.5,2.8s-1,2.7-3.1,2.7c-0.8,0-1.8-0.3-2.3-0.7L210.3,485.4z"/>
	<path class="st6" d="M222.7,484.8c0,0.6,0,1.2,0.1,1.7h-0.6v-1.2l0,0c-0.3,0.6-1.1,1.4-2.4,1.4c-0.9,0-2.4-0.4-2.4-3.1v-4h0.7v3.9
		c0,1.5,0.5,2.6,1.9,2.6c1,0,1.8-0.7,2-1.4c0.1-0.2,0.1-0.5,0.1-0.8v-4.3h0.7v5.2H222.7z"/>
</g>
<g class="st5">
	<path class="st6" d="M224.8,485.6c0.4,0.2,0.9,0.5,1.6,0.5c1.1,0,1.6-0.6,1.6-1.3c0-0.8-0.5-1.2-1.5-1.6c-1.1-0.4-1.8-1.1-1.8-1.9
		c0-1,0.8-1.9,2.1-1.9c0.6,0,1.2,0.2,1.5,0.4l-0.3,0.6c-0.2-0.2-0.7-0.4-1.4-0.4c-0.9,0-1.3,0.6-1.3,1.2c0,0.7,0.5,1,1.4,1.4
		c1.1,0.4,1.8,1,1.8,2.1c0,1.2-0.9,2-2.3,2c-0.7,0-1.3-0.2-1.8-0.5L224.8,485.6z"/>
</g>
<g class="st5">
	<path class="st6" d="M231.7,477.5v2h2v0.6h-2v4.5c0,0.9,0.3,1.5,1,1.5c0.4,0,0.6-0.1,0.8-0.1l0.1,0.5c-0.2,0.1-0.6,0.2-1,0.2
		c-0.5,0-0.9-0.2-1.2-0.5c-0.3-0.4-0.4-0.9-0.4-1.7v-4.4h-1.2v-0.6h1.2v-1.8L231.7,477.5z"/>
</g>
<g class="st5">
	<path class="st6" d="M235.3,483c0,2.2,1.2,3.1,2.7,3.1c1,0,1.5-0.2,1.9-0.4l0.2,0.6c-0.3,0.1-1,0.4-2.2,0.4c-2,0-3.2-1.4-3.2-3.5
		c0-2.3,1.3-3.8,3.1-3.8c2.3,0,2.7,2.1,2.7,3.1c0,0.2,0,0.3,0,0.4L235.3,483L235.3,483z M239.7,482.4c0-1-0.4-2.4-2.1-2.4
		c-1.5,0-2.2,1.4-2.3,2.4H239.7z"/>
</g>
<g class="st5">
	<path class="st6" d="M242.3,481.2c0-0.6,0-1.1-0.1-1.7h0.6l0.1,1.3l0,0c0.4-0.8,1.2-1.4,2.4-1.4c0.7,0,2.4,0.3,2.4,2.9v4.2H247
		v-4.1c0-1.3-0.5-2.4-1.9-2.4c-1,0-1.8,0.7-2.1,1.6c-0.1,0.2-0.1,0.4-0.1,0.6v4.3h-0.7v-5.3H242.3z"/>
</g>
<g class="st5">
	<path class="st6" d="M250.9,477.5v2h2v0.6h-2v4.5c0,0.9,0.3,1.5,1,1.5c0.4,0,0.6-0.1,0.8-0.1l0.1,0.5c-0.2,0.1-0.6,0.2-1,0.2
		c-0.5,0-0.9-0.2-1.2-0.5c-0.3-0.4-0.4-0.9-0.4-1.7v-4.4H249v-0.6h1.2v-1.8L250.9,477.5z"/>
</g>
<g class="st5">
	<path class="st6" d="M258.4,486.5l-0.1-1l0,0c-0.3,0.5-1.1,1.2-2.2,1.2c-1.4,0-2-1-2-1.9c0-1.6,1.4-2.6,4.2-2.6V482
		c0-0.7-0.1-2.1-1.8-2.1c-0.6,0-1.2,0.2-1.7,0.5l-0.2-0.5c0.6-0.4,1.4-0.6,2-0.6c2,0,2.4,1.5,2.4,2.8v2.7c0,0.6,0,1.1,0.1,1.7H258.4
		z M258.3,482.8c-1.5,0-3.5,0.2-3.5,1.9c0,1,0.7,1.5,1.4,1.5c1.2,0,1.8-0.7,2.1-1.4c0-0.1,0.1-0.3,0.1-0.4v-1.6H258.3z"/>
</g>
<g class="st5">
	<path class="st6" d="M261.2,486.5c0-0.5,0.1-1.1,0.1-1.6v-8.7h0.7v4.6l0,0c0.5-0.9,1.3-1.4,2.6-1.4c1.8,0,3,1.5,3,3.6
		c0,2.5-1.6,3.7-3.1,3.7c-1.1,0-1.9-0.4-2.5-1.4l0,0v1.3h-0.8V486.5z M262,483.8c0,0.2,0,0.3,0.1,0.5c0.3,1.1,1.2,1.8,2.3,1.8
		c1.6,0,2.5-1.3,2.5-3.1c0-1.6-0.9-3-2.4-3c-1,0-2,0.7-2.3,1.9c0,0.2-0.1,0.4-0.1,0.6v1.3H262z"/>
</g>
<g class="st5">
	<path class="st6" d="M270.3,477.6c0,0.3-0.2,0.6-0.6,0.6c-0.3,0-0.5-0.3-0.5-0.6c0-0.3,0.2-0.6,0.6-0.6
		C270.1,477,270.3,477.2,270.3,477.6z M269.4,486.5v-7h0.7v7H269.4z"/>
</g>
<g class="st5">
	<path class="st6" d="M272.5,476.2h0.7v10.3h-0.7V476.2z"/>
</g>
<g class="st5">
	<path class="st6" d="M276.5,477.6c0,0.3-0.2,0.6-0.6,0.6c-0.3,0-0.5-0.3-0.5-0.6c0-0.3,0.2-0.6,0.6-0.6
		C276.3,477,276.5,477.2,276.5,477.6z M275.6,486.5v-7h0.7v7H275.6z"/>
</g>
<g class="st5">
	<path class="st6" d="M284.3,476.2v8.7c0,0.5,0,1.1,0.1,1.6h-0.6v-1.3l0,0c-0.4,0.8-1.2,1.5-2.5,1.5c-1.7,0-3-1.4-3-3.5
		c0-2.3,1.4-3.8,3.1-3.8c1.2,0,2,0.6,2.3,1.2l0,0v-4.4L284.3,476.2L284.3,476.2z M283.6,482.3c0-0.2,0-0.4-0.1-0.6
		c-0.2-0.9-1.1-1.7-2.2-1.7c-1.5,0-2.5,1.3-2.5,3.1c0,1.6,0.8,3,2.4,3c1,0,1.9-0.7,2.2-1.8c0-0.2,0.1-0.4,0.1-0.6v-1.4H283.6z"/>
</g>
<g class="st5">
	<path class="st6" d="M290.5,486.5l-0.1-1l0,0c-0.3,0.5-1.1,1.2-2.2,1.2c-1.4,0-2-1-2-1.9c0-1.6,1.4-2.6,4.2-2.6V482
		c0-0.7-0.1-2.1-1.8-2.1c-0.6,0-1.2,0.2-1.7,0.5l-0.2-0.5c0.6-0.4,1.4-0.6,2-0.6c2,0,2.4,1.5,2.4,2.8v2.7c0,0.6,0,1.1,0.1,1.7H290.5
		z M290.3,482.8c-1.5,0-3.5,0.2-3.5,1.9c0,1,0.7,1.5,1.4,1.5c1.2,0,1.8-0.7,2.1-1.4c0-0.1,0.1-0.3,0.1-0.4v-1.6H290.3z"/>
</g>
<g class="st5">
	<path class="st6" d="M299,476.2v8.7c0,0.5,0,1.1,0.1,1.6h-0.6v-1.3l0,0c-0.4,0.8-1.2,1.5-2.5,1.5c-1.7,0-3-1.4-3-3.5
		c0-2.3,1.4-3.8,3.1-3.8c1.2,0,2,0.6,2.3,1.2l0,0v-4.4L299,476.2L299,476.2z M298.3,482.3c0-0.2,0-0.4-0.1-0.6
		c-0.2-0.9-1.1-1.7-2.2-1.7c-1.5,0-2.5,1.3-2.5,3.1c0,1.6,0.8,3,2.4,3c1,0,1.9-0.7,2.2-1.8c0-0.2,0.1-0.4,0.1-0.6v-1.4H298.3z"/>
</g>
<g class="st5">
	<path class="st6" d="M304.8,479.6l1.8,4.6c0.2,0.5,0.4,1,0.5,1.5l0,0c0.1-0.4,0.3-1,0.5-1.5l1.7-4.5h0.7l-2.1,5.2
		c-0.8,2.2-1.4,3.5-2.3,4.2c-0.6,0.5-1,0.7-1.2,0.7l-0.2-0.6c0.3-0.1,0.8-0.4,1.2-0.8c0.3-0.3,0.8-0.9,1.2-1.7
		c0.1-0.2,0.1-0.2,0.1-0.3s0-0.2-0.1-0.3l-2.6-6.5L304.8,479.6L304.8,479.6z"/>
</g>
<g class="st5">
	<path class="st6" d="M211.8,500.5l-1.2,3.4h-0.7l3.5-9.8h0.7l3.5,9.8h-0.7l-1.2-3.4H211.8z M215.5,499.9l-1.2-3.3
		c-0.2-0.7-0.4-1.2-0.5-1.7l0,0c-0.1,0.6-0.3,1.1-0.5,1.7l-1.2,3.3H215.5z"/>
</g>
<g class="st5">
	<path class="st6" d="M219.2,503c0.4,0.2,0.9,0.5,1.6,0.5c1.1,0,1.6-0.6,1.6-1.3c0-0.8-0.5-1.2-1.5-1.6c-1.1-0.4-1.8-1.1-1.8-1.9
		c0-1,0.8-1.9,2.1-1.9c0.6,0,1.2,0.2,1.5,0.4l-0.3,0.6c-0.2-0.2-0.7-0.4-1.4-0.4c-0.9,0-1.3,0.6-1.3,1.2c0,0.7,0.5,1,1.4,1.4
		c1.1,0.4,1.8,1,1.8,2.1c0,1.2-0.9,2-2.3,2c-0.7,0-1.3-0.2-1.8-0.5L219.2,503z"/>
</g>
<g class="st5">
	<path class="st6" d="M230.2,502.2c0,0.6,0,1.2,0.1,1.7h-0.6v-1.2l0,0c-0.3,0.6-1.1,1.4-2.4,1.4c-0.9,0-2.4-0.4-2.4-3.1v-4h0.7v3.9
		c0,1.5,0.5,2.6,1.9,2.6c1,0,1.8-0.7,2-1.4c0.1-0.2,0.1-0.5,0.1-0.8V497h0.7v5.2H230.2z"/>
</g>
<g class="st5">
	<path class="st6" d="M232.6,498.6c0-0.6,0-1.1-0.1-1.7h0.6l0.1,1.3l0,0c0.4-0.8,1.2-1.4,2.4-1.4c0.7,0,2.4,0.3,2.4,2.9v4.2h-0.7
		v-4.1c0-1.3-0.5-2.4-1.9-2.4c-1,0-1.8,0.7-2.1,1.6c-0.1,0.2-0.1,0.4-0.1,0.6v4.3h-0.7v-5.3H232.6z"/>
</g>
<g class="st5">
	<path class="st6" d="M241.3,494.9v2h2v0.6h-2v4.5c0,0.9,0.3,1.5,1,1.5c0.4,0,0.6-0.1,0.8-0.1l0.1,0.5c-0.2,0.1-0.6,0.2-1,0.2
		c-0.5,0-0.9-0.2-1.2-0.5c-0.3-0.4-0.4-0.9-0.4-1.7v-4.4h-1.2V497h1.2v-1.8L241.3,494.9z"/>
</g>
<g class="st5">
	<path class="st6" d="M250.6,500.4c0,2.6-1.8,3.7-3.3,3.7c-1.8,0-3.2-1.4-3.2-3.6c0-2.4,1.6-3.7,3.3-3.7
		C249.3,496.8,250.6,498.2,250.6,500.4z M244.8,500.4c0,1.7,1.1,3,2.5,3s2.6-1.3,2.6-3.1c0-1.3-0.7-3-2.6-3
		C245.6,497.4,244.8,499,244.8,500.4z"/>
</g>
<g class="st5">
	<path class="st6" d="M252.2,503c0.4,0.2,0.9,0.5,1.6,0.5c1.1,0,1.6-0.6,1.6-1.3c0-0.8-0.5-1.2-1.5-1.6c-1.1-0.4-1.8-1.1-1.8-1.9
		c0-1,0.8-1.9,2.1-1.9c0.6,0,1.2,0.2,1.5,0.4l-0.3,0.6c-0.2-0.2-0.7-0.4-1.4-0.4c-0.9,0-1.3,0.6-1.3,1.2c0,0.7,0.5,1,1.4,1.4
		c1.1,0.4,1.8,1,1.8,2.1c0,1.2-0.9,2-2.3,2c-0.7,0-1.3-0.2-1.8-0.5L252.2,503z"/>
</g>
<g class="st5">
	<path class="st6" d="M268.3,503.6c-0.5,0.3-1.4,0.5-2.6,0.5c-2.4,0-4.6-1.5-4.6-5c0-2.9,1.9-5.1,4.9-5.1c1.2,0,2,0.3,2.3,0.4
		L268,495c-0.5-0.2-1.2-0.4-2-0.4c-2.6,0-4.2,1.7-4.2,4.5c0,2.7,1.5,4.4,4.1,4.4c0.8,0,1.7-0.2,2.2-0.4L268.3,503.6z"/>
</g>
<g class="st5">
	<path class="st6" d="M275.7,500.4c0,2.6-1.8,3.7-3.3,3.7c-1.8,0-3.2-1.4-3.2-3.6c0-2.4,1.6-3.7,3.3-3.7
		C274.4,496.8,275.7,498.2,275.7,500.4z M269.9,500.4c0,1.7,1.1,3,2.5,3s2.6-1.3,2.6-3.1c0-1.3-0.7-3-2.6-3
		C270.7,497.4,269.9,499,269.9,500.4z"/>
</g>
<g class="st5">
	<path class="st6" d="M277.7,499c0-0.7,0-1.4-0.1-2.1h0.6v1.4l0,0c0.3-0.9,1-1.6,2-1.6c0.1,0,0.2,0,0.3,0v0.7c-0.1,0-0.2,0-0.3,0
		c-1,0-1.6,0.8-1.8,1.9c0,0.2-0.1,0.4-0.1,0.7v3.8h-0.7V499H277.7z"/>
</g>
<g class="st5">
	<path class="st6" d="M282.1,499.2c0-0.9,0-1.6-0.1-2.2h0.7l0.1,1.3l0,0c0.5-0.9,1.3-1.5,2.6-1.5c1.8,0,3,1.5,3,3.5
		c0,2.5-1.5,3.8-3.2,3.8c-1,0-1.9-0.4-2.4-1.3l0,0v4h-0.7V499.2z M282.8,501.2c0,0.2,0,0.4,0.1,0.6c0.3,1.1,1.2,1.8,2.3,1.8
		c1.6,0,2.5-1.3,2.5-3.1c0-1.6-0.9-3-2.5-3c-1,0-2,0.7-2.3,1.9c0,0.2-0.1,0.4-0.1,0.6V501.2z"/>
</g>
<g class="st5">
	<path class="st6" d="M296.4,500.4c0,2.6-1.8,3.7-3.3,3.7c-1.8,0-3.2-1.4-3.2-3.6c0-2.4,1.6-3.7,3.3-3.7
		C295.1,496.8,296.4,498.2,296.4,500.4z M290.6,500.4c0,1.7,1.1,3,2.5,3s2.6-1.3,2.6-3.1c0-1.3-0.7-3-2.6-3
		C291.4,497.4,290.6,499,290.6,500.4z"/>
</g>
<g class="st5">
	<path class="st6" d="M298.3,499c0-0.7,0-1.4-0.1-2.1h0.6v1.4l0,0c0.3-0.9,1-1.6,2-1.6c0.1,0,0.2,0,0.3,0v0.7c-0.1,0-0.2,0-0.3,0
		c-1,0-1.6,0.8-1.8,1.9c0,0.2-0.1,0.4-0.1,0.7v3.8h-0.7V499H298.3z"/>
</g>
<g class="st5">
	<path class="st6" d="M306.6,503.9l-0.1-1l0,0c-0.3,0.5-1.1,1.2-2.2,1.2c-1.4,0-2-1-2-1.9c0-1.6,1.4-2.6,4.2-2.6v-0.2
		c0-0.7-0.1-2.1-1.8-2.1c-0.6,0-1.2,0.2-1.7,0.5l-0.2-0.5c0.6-0.4,1.4-0.6,2-0.6c2,0,2.4,1.5,2.4,2.8v2.7c0,0.6,0,1.1,0.1,1.7H306.6
		z M306.4,500.2c-1.5,0-3.5,0.2-3.5,1.9c0,1,0.7,1.5,1.4,1.5c1.2,0,1.8-0.7,2.1-1.4c0-0.1,0.1-0.3,0.1-0.4v-1.6H306.4z"/>
</g>
<g class="st5">
	<path class="st6" d="M310.3,494.9v2h2v0.6h-2v4.5c0,0.9,0.3,1.5,1,1.5c0.4,0,0.6-0.1,0.8-0.1l0.1,0.5c-0.2,0.1-0.6,0.2-1,0.2
		c-0.5,0-0.9-0.2-1.2-0.5c-0.3-0.4-0.4-0.9-0.4-1.7v-4.4h-1.2V497h1.2v-1.8L310.3,494.9z"/>
</g>
<g class="st5">
	<path class="st6" d="M314.8,495c0,0.3-0.2,0.6-0.6,0.6c-0.3,0-0.5-0.3-0.5-0.6c0-0.3,0.2-0.6,0.6-0.6
		C314.6,494.4,314.8,494.6,314.8,495z M313.9,503.9v-7h0.7v7H313.9z"/>
</g>
<g class="st5">
	<path class="st6" d="M316.9,497l1.6,4.3c0.3,0.7,0.5,1.3,0.7,1.9l0,0c0.2-0.6,0.4-1.2,0.7-1.9l1.7-4.3h0.7l-2.8,7h-0.6l-2.7-7
		H316.9z"/>
</g>
<g class="st5">
	<path class="st6" d="M329.6,500.4c0,2.6-1.8,3.7-3.3,3.7c-1.8,0-3.2-1.4-3.2-3.6c0-2.4,1.6-3.7,3.3-3.7
		C328.3,496.8,329.6,498.2,329.6,500.4z M323.8,500.4c0,1.7,1.1,3,2.5,3s2.6-1.3,2.6-3.1c0-1.3-0.7-3-2.6-3
		C324.6,497.4,323.8,499,323.8,500.4z"/>
</g>
<g class="st5">
	<path class="st6" d="M331.2,503c0.4,0.2,0.9,0.5,1.6,0.5c1.1,0,1.6-0.6,1.6-1.3c0-0.8-0.5-1.2-1.5-1.6c-1.1-0.4-1.8-1.1-1.8-1.9
		c0-1,0.8-1.9,2.1-1.9c0.6,0,1.2,0.2,1.5,0.4l-0.3,0.6c-0.2-0.2-0.7-0.4-1.4-0.4c-0.9,0-1.3,0.6-1.3,1.2c0,0.7,0.5,1,1.4,1.4
		c1.1,0.4,1.8,1,1.8,2.1c0,1.2-0.9,2-2.3,2c-0.7,0-1.3-0.2-1.8-0.5L331.2,503z"/>
</g>
<g class="st5">
	<path class="st6" d="M211.3,511.5v9.8h-0.7v-9.8H211.3z"/>
</g>
<g class="st5">
	<path class="st6" d="M213.8,516c0-0.6,0-1.1-0.1-1.7h0.6l0.1,1.3l0,0c0.4-0.8,1.2-1.4,2.4-1.4c0.7,0,2.4,0.3,2.4,2.9v4.2h-0.7v-4.1
		c0-1.3-0.5-2.4-1.9-2.4c-1,0-1.8,0.7-2.1,1.6c-0.1,0.2-0.1,0.4-0.1,0.6v4.3h-0.7V516H213.8z"/>
</g>
<g class="st5">
	<path class="st6" d="M222.4,512.3v2h2v0.6h-2v4.5c0,0.9,0.3,1.5,1,1.5c0.4,0,0.6-0.1,0.8-0.1l0.1,0.5c-0.2,0.1-0.6,0.2-1,0.2
		c-0.5,0-0.9-0.2-1.2-0.5c-0.3-0.4-0.4-0.9-0.4-1.7v-4.4h-1.2v-0.6h1.2v-1.8L222.4,512.3z"/>
</g>
<g class="st5">
	<path class="st6" d="M226,517.8c0,2.2,1.2,3.1,2.7,3.1c1,0,1.5-0.2,1.9-0.4l0.2,0.6c-0.3,0.1-1,0.4-2.2,0.4c-2,0-3.2-1.4-3.2-3.5
		c0-2.3,1.3-3.8,3.1-3.8c2.3,0,2.7,2.1,2.7,3.1c0,0.2,0,0.3,0,0.4H226V517.8z M230.4,517.2c0-1-0.4-2.4-2.1-2.4
		c-1.5,0-2.2,1.4-2.3,2.4H230.4z"/>
</g>
<g class="st5">
	<path class="st6" d="M233,516.4c0-0.7,0-1.4-0.1-2.1h0.6v1.4l0,0c0.3-0.9,1-1.6,2-1.6c0.1,0,0.2,0,0.3,0v0.7c-0.1,0-0.2,0-0.3,0
		c-1,0-1.6,0.8-1.8,1.9c0,0.2-0.1,0.4-0.1,0.7v3.8H233V516.4z"/>
</g>
<g class="st5">
	<path class="st6" d="M237.4,516c0-0.6,0-1.1-0.1-1.7h0.6l0.1,1.3l0,0c0.4-0.8,1.2-1.4,2.4-1.4c0.7,0,2.4,0.3,2.4,2.9v4.2h-0.7v-4.1
		c0-1.3-0.5-2.4-1.9-2.4c-1,0-1.8,0.7-2.1,1.6c-0.1,0.2-0.1,0.4-0.1,0.6v4.3h-0.7V516H237.4z"/>
</g>
<g class="st5">
	<path class="st6" d="M249.1,521.3l-0.1-1l0,0c-0.3,0.5-1.1,1.2-2.2,1.2c-1.4,0-2-1-2-1.9c0-1.6,1.4-2.6,4.2-2.6v-0.2
		c0-0.7-0.1-2.1-1.8-2.1c-0.6,0-1.2,0.2-1.7,0.5l-0.2-0.5c0.6-0.4,1.4-0.6,2-0.6c2,0,2.4,1.5,2.4,2.8v2.7c0,0.6,0,1.1,0.1,1.7
		L249.1,521.3L249.1,521.3z M248.9,517.6c-1.5,0-3.5,0.2-3.5,1.9c0,1,0.7,1.5,1.4,1.5c1.2,0,1.8-0.7,2.1-1.4c0-0.1,0.1-0.3,0.1-0.4
		v-1.6H248.9z"/>
</g>
<g class="st5">
	<path class="st6" d="M256.8,521c-0.3,0.2-1,0.4-2,0.4c-2,0-3.3-1.4-3.3-3.6c0-2.2,1.5-3.7,3.6-3.7c0.9,0,1.6,0.2,1.8,0.4l-0.2,0.6
		c-0.3-0.2-0.9-0.4-1.7-0.4c-1.9,0-2.8,1.4-2.8,3.1c0,1.8,1.1,3,2.8,3c0.8,0,1.4-0.2,1.7-0.4L256.8,521z"/>
</g>
<g class="st5">
	<path class="st6" d="M259.4,512.4c0,0.3-0.2,0.6-0.6,0.6c-0.3,0-0.5-0.3-0.5-0.6s0.2-0.6,0.6-0.6
		C259.2,511.8,259.4,512,259.4,512.4z M258.5,521.3v-7h0.7v7H258.5z"/>
</g>
<g class="st5">
	<path class="st6" d="M267.6,517.8c0,2.6-1.8,3.7-3.3,3.7c-1.8,0-3.2-1.4-3.2-3.6c0-2.4,1.6-3.7,3.3-3.7
		C266.3,514.2,267.6,515.6,267.6,517.8z M261.8,517.8c0,1.7,1.1,3,2.5,3s2.6-1.3,2.6-3.1c0-1.3-0.7-3-2.6-3
		C262.6,514.8,261.8,516.4,261.8,517.8z"/>
</g>
<g class="st5">
	<path class="st6" d="M269.5,516c0-0.6,0-1.1-0.1-1.7h0.6l0.1,1.3l0,0c0.4-0.8,1.2-1.4,2.4-1.4c0.7,0,2.4,0.3,2.4,2.9v4.2h-0.7v-4.1
		c0-1.3-0.5-2.4-1.9-2.4c-1,0-1.8,0.7-2.1,1.6c-0.1,0.2-0.1,0.4-0.1,0.6v4.3h-0.7V516H269.5z"/>
</g>
<g class="st5">
	<path class="st6" d="M281.1,521.3l-0.1-1l0,0c-0.3,0.5-1.1,1.2-2.2,1.2c-1.4,0-2-1-2-1.9c0-1.6,1.4-2.6,4.2-2.6v-0.2
		c0-0.7-0.1-2.1-1.8-2.1c-0.6,0-1.2,0.2-1.7,0.5l-0.2-0.5c0.6-0.4,1.4-0.6,2-0.6c2,0,2.4,1.5,2.4,2.8v2.7c0,0.6,0,1.1,0.1,1.7
		L281.1,521.3L281.1,521.3z M281,517.6c-1.5,0-3.5,0.2-3.5,1.9c0,1,0.7,1.5,1.4,1.5c1.2,0,1.8-0.7,2.1-1.4c0-0.1,0.1-0.3,0.1-0.4
		v-1.6H281z"/>
</g>
<g class="st5">
	<path class="st6" d="M284,511h0.7v10.3H284V511z"/>
</g>
<path class="st0" d="M10.5,56h170.9c2.9,0,5.3,2.4,5.3,5.3v59.5c0,2.9-2.4,5.3-5.3,5.3H10.5c-2.9,0-5.3-2.4-5.3-5.3V61.3
	C5.2,58.4,7.5,56,10.5,56z"/>
<rect x="-9.6" y="-5.5" class="st1" width="417.2" height="583.7"/>
<g>
	<path class="st10" d="M35.8,169.1c0.1,0,0.3,0.1,0.4,0.1l0.6,0.7l0.6-0.6c0.1-0.1,0.2-0.2,0.4-0.2h1.5c0.8,0,1.5-0.7,1.5-1.5v-2
		c0-0.8-0.7-1.5-1.5-1.5h-5c-0.8,0-1.5,0.7-1.5,1.5v2c0,0.8,0.7,1.5,1.5,1.5H35.8z M36.8,171.1c-0.1,0-0.3-0.1-0.4-0.1l-0.8-0.9
		h-1.3c-1.4,0-2.5-1.1-2.5-2.5l0,0v-2c0-1.4,1.1-2.5,2.5-2.5l0,0h5c1.4,0,2.5,1.1,2.5,2.5l0,0v2c0,1.4-1.1,2.5-2.5,2.5l0,0H38
		l-0.9,0.9C37,171.1,36.9,171.1,36.8,171.1 M29.3,174.1c-0.8,0-1.5,0.7-1.5,1.5s0.7,1.5,1.5,1.5s1.5-0.7,1.5-1.5
		S30.1,174.2,29.3,174.1 M28.6,178l-0.7,1.4c0,0.2-0.1,0.4-0.1,0.7v1c0,0.5,0.4,1,0.9,1h0.1h1c0.5,0,1-0.4,1-0.9v-0.1v-1
		c0-0.2-0.1-0.5-0.2-0.7l-0.7-1.4C29.5,178.2,29,178.2,28.6,178 M29.8,183.1h-1c-1.1,0-2-0.9-2-2v-1c0-0.4,0.1-0.8,0.3-1.1l0.7-1.4
		c-1.1-0.8-1.3-2.4-0.5-3.5s2.4-1.3,3.5-0.5s1.3,2.4,0.5,3.5c-0.1,0.2-0.3,0.3-0.4,0.4l0.7,1.4c0.1,0.4,0.2,0.8,0.2,1.2v1
		C31.8,182.3,30.9,183.1,29.8,183.1 M36.8,173.1c-1.1,0-2,0.9-2,2s0.9,2,2,2s2-0.9,2-2S37.9,173.1,36.8,173.1 M35.7,177.9
		L35.7,177.9l-1.5,1.5c-0.3,0.3-0.4,0.6-0.4,1v0.7c0,0.5,0.4,1,0.9,1h0.1h4c0.5,0,1-0.4,1-0.9v-0.1v-0.7c0-0.4-0.2-0.8-0.4-1.1
		l-1.4-1.4v-0.1C37.3,178.2,36.4,178.3,35.7,177.9 M38.8,183.1h-4c-1.1,0-2-0.9-2-2v-0.7c0-0.7,0.3-1.3,0.7-1.8l1.3-1.3
		c-1.3-1.1-1.4-3-0.3-4.2c1.1-1.3,3-1.4,4.2-0.3c1.3,1.1,1.4,3,0.3,4.2l0,0l-0.3,0.3l1.3,1.3c0.5,0.5,0.7,1.1,0.7,1.8v0.7
		c0.1,1-0.7,1.9-1.7,2C38.9,183.1,38.9,183.2,38.8,183.1 M44.3,174.1c-0.8,0-1.5,0.7-1.5,1.5s0.7,1.5,1.5,1.5s1.5-0.7,1.5-1.5
		S45.1,174.2,44.3,174.1 M43.7,178l-0.7,1.4c-0.1,0.2-0.2,0.5-0.2,0.7v1c0,0.5,0.4,1,0.9,1h0.1h1c0.5,0,1-0.4,1-0.9v-0.1v-1
		c0-0.2-0.1-0.5-0.2-0.7l-0.7-1.4C44.5,178.1,44.1,178.1,43.7,178 M44.8,183.1h-1c-1.1,0-2-0.9-2-2v-1c0-0.4,0.1-0.8,0.3-1.1
		l0.7-1.4c-1.1-0.9-1.3-2.4-0.4-3.5c0.9-1.1,2.4-1.3,3.5-0.4c1.1,0.9,1.3,2.4,0.4,3.5c-0.1,0.2-0.3,0.3-0.4,0.4l0.7,1.4
		c0.2,0.3,0.3,0.7,0.3,1.1v1C46.8,182.3,45.9,183.1,44.8,183.1"/>
	<g>
		<g>
			<g>
				<defs>
					<rect id="SVGID_9_" y="50" width="189.6" height="78.2"/>
				</defs>
				<clipPath id="SVGID_10_">
					<use xlink:href="#SVGID_9_"  style="overflow:visible;"/>
				</clipPath>
			</g>
		</g>
	</g>
	<path class="st11" d="M7.9,52.5h170.9c2.9,0,5.3,2.4,5.3,5.3v59.5c0,2.9-2.4,5.3-5.3,5.3H7.9c-2.9,0-5.3-2.4-5.3-5.3V57.8
		C2.6,54.9,4.9,52.5,7.9,52.5z"/>
</g>
<g class="st5">
	<path class="st9" d="M77.8,82.5c0.6-0.1,1.5-0.2,2.7-0.2s2.1,0.2,2.7,0.7c0.6,0.4,0.9,1.2,0.9,2c0,0.9-0.3,1.6-0.8,2.1
		c-0.7,0.6-1.7,0.9-2.8,0.9c-0.3,0-0.5,0-0.7,0v3.1h-2C77.8,91.1,77.8,82.5,77.8,82.5z M79.8,86.5c0.2,0,0.4,0.1,0.7,0.1
		c1.1,0,1.7-0.5,1.7-1.4c0-0.8-0.6-1.3-1.5-1.3c-0.4,0-0.7,0-0.8,0.1L79.8,86.5L79.8,86.5z"/>
</g>
<g class="st5">
	<path class="st9" d="M85.2,86.9c0-0.9,0-1.5-0.1-2.1h1.7l0.1,1.2H87c0.3-0.9,1.1-1.3,1.7-1.3c0.2,0,0.3,0,0.4,0v1.9
		c-0.1,0-0.3-0.1-0.5-0.1c-0.7,0-1.2,0.4-1.4,1c0,0.1,0,0.3,0,0.4v3.2h-2V86.9z"/>
</g>
<g class="st5">
	<path class="st9" d="M91.7,88.6c0.1,0.8,0.9,1.2,1.8,1.2c0.7,0,1.2-0.1,1.8-0.3l0.3,1.3c-0.6,0.3-1.4,0.4-2.3,0.4
		c-2.2,0-3.4-1.2-3.4-3.2c0-1.6,1-3.4,3.2-3.4c2.1,0,2.8,1.6,2.8,3.2c0,0.3,0,0.6-0.1,0.8H91.7z M94,87.3c0-0.5-0.2-1.3-1.1-1.3
		c-0.8,0-1.2,0.8-1.2,1.3H94z"/>
</g>
<g class="st5">
	<path class="st9" d="M97,89.5c0.4,0.2,1.1,0.5,1.7,0.5s0.8-0.2,0.8-0.5s-0.2-0.5-0.9-0.7c-1.3-0.4-1.8-1.2-1.8-1.9
		c0-1.2,1-2.1,2.6-2.1c0.7,0,1.4,0.2,1.8,0.4l-0.4,1.4c-0.3-0.2-0.8-0.4-1.4-0.4c-0.5,0-0.8,0.2-0.8,0.5s0.2,0.5,1,0.7
		c1.2,0.4,1.7,1,1.7,2c0,1.2-0.9,2.1-2.8,2.1c-0.8,0-1.6-0.2-2.1-0.4L97,89.5z"/>
</g>
<g class="st5">
	<path class="st9" d="M104.7,83.1c0,0.5-0.4,1-1.1,1c-0.6,0-1-0.4-1-1s0.4-1,1-1C104.3,82.1,104.7,82.5,104.7,83.1z M102.7,91.2
		v-6.4h2v6.4H102.7z"/>
</g>
<g class="st5">
	<path class="st9" d="M112.4,81.9v7.3c0,0.7,0,1.5,0.1,1.9h-1.8l-0.1-0.9l0,0c-0.4,0.7-1.2,1.1-2,1.1c-1.5,0-2.7-1.3-2.7-3.3
		c0-2.1,1.3-3.4,2.8-3.4c0.8,0,1.4,0.3,1.7,0.7l0,0v-3.4C110.4,81.9,112.4,81.9,112.4,81.9z M110.4,87.5c0-0.1,0-0.2,0-0.4
		c-0.1-0.5-0.5-1-1.2-1c-0.9,0-1.4,0.8-1.4,1.8c0,1.1,0.5,1.8,1.4,1.8c0.6,0,1-0.4,1.1-0.9c0-0.1,0.1-0.3,0.1-0.5V87.5z"/>
</g>
<g class="st5">
	<path class="st9" d="M115.4,88.6c0.1,0.8,0.9,1.2,1.8,1.2c0.7,0,1.2-0.1,1.8-0.3l0.3,1.3c-0.6,0.3-1.4,0.4-2.3,0.4
		c-2.2,0-3.4-1.2-3.4-3.2c0-1.6,1-3.4,3.2-3.4c2.1,0,2.8,1.6,2.8,3.2c0,0.3,0,0.6-0.1,0.8H115.4z M117.8,87.3c0-0.5-0.2-1.3-1.1-1.3
		c-0.8,0-1.2,0.8-1.2,1.3H117.8z"/>
</g>
<g class="st5">
	<path class="st9" d="M120.8,86.9c0-0.8,0-1.5-0.1-2h1.7l0.1,0.9l0,0c0.3-0.4,0.9-1,2-1c1.3,0,2.3,0.9,2.3,2.7v3.8h-2v-3.5
		c0-0.8-0.3-1.4-1-1.4c-0.5,0-0.9,0.4-1,0.7c-0.1,0.1-0.1,0.3-0.1,0.5v3.7h-2L120.8,86.9L120.8,86.9z"/>
</g>
<g class="st5">
	<path class="st9" d="M130.5,83v1.8h1.4v1.5h-1.4v2.3c0,0.8,0.2,1.1,0.8,1.1c0.2,0,0.4,0,0.6-0.1v1.5c-0.3,0.1-0.7,0.2-1.3,0.2
		s-1.2-0.2-1.5-0.5c-0.4-0.4-0.5-1-0.5-1.9v-2.6h-0.8v-1.5h0.8v-1.4L130.5,83z"/>
</g>
<g class="st5">
	<path class="st9" d="M134.6,88.6c0.1,0.8,0.9,1.2,1.8,1.2c0.7,0,1.2-0.1,1.8-0.3l0.3,1.3c-0.7,0.3-1.4,0.4-2.3,0.4
		c-2.2,0-3.4-1.2-3.4-3.2c0-1.6,1-3.4,3.2-3.4c2.1,0,2.8,1.6,2.8,3.2c0,0.3,0,0.6-0.1,0.8H134.6z M136.9,87.3c0-0.5-0.2-1.3-1.1-1.3
		c-0.8,0-1.2,0.8-1.2,1.3H136.9z"/>
</g>
<g>
	<g>
		<defs>
			<rect id="SVGID_11_" x="-9.6" y="-5.5" width="417.2" height="583.7"/>
		</defs>
		<clipPath id="SVGID_12_">
			<use xlink:href="#SVGID_11_"  style="overflow:visible;"/>
		</clipPath>
		<g class="st12">
			<path class="st10" d="M39.1,83.1c-2.2,0-4,1.8-4,4s1.8,4,4,4s4-1.8,4-4S41.3,83.1,39.1,83.1 M39.1,82.1c2.8,0,5,2.3,5,5
				c0,1.5-0.7,2.9-1.9,3.9l3.5,1.6c0.3,0.2,0.6,0.4,0.9,0.6c2.8-4.1,1.8-9.6-2.2-12.5c-4.2-2.8-9.8-1.8-12.7,2.3
				c-2.2,3.1-2.2,7.2,0,10.3c0.2-0.3,0.5-0.5,0.8-0.6l3.5-1.6c-2.2-1.7-2.6-4.8-0.9-7C36.1,82.8,37.6,82.1,39.1,82.1 M37.1,91.7
				L33,93.6c-0.3,0.1-0.5,0.3-0.6,0.5c1.7,1.9,4.1,3,6.7,3c2.6,0,5-1.1,6.7-3c-0.2-0.2-0.4-0.4-0.6-0.5l-4.1-1.9
				C39.9,92.2,38.4,92.2,37.1,91.7 M39.1,98.1c-5.5,0-10-4.5-10-10s4.5-10,10-10s10,4.5,10,10S44.7,98.1,39.1,98.1"/>
		</g>
	</g>
</g>
</svg>
