<?xml version="1.0" encoding="utf-8"?>
<!-- Generator: Adobe Illustrator 25.2.1, SVG Export Plug-In . SVG Version: 6.00 Build 0)  -->
<svg version="1.1" id="Layer_1" xmlns="http://www.w3.org/2000/svg" xmlns:xlink="http://www.w3.org/1999/xlink" x="0px" y="0px"
	 viewBox="0 0 742.8 742.8" style="enable-background:new 0 0 742.8 742.8;" xml:space="preserve">
<style type="text/css">
	.st0{fill:#FFFFFF;}
	.st1{fill:#002F87;}
	.st2{fill:#FFB71B;}
	.st3{fill:#76BC21;}
	.st4{fill:#0071CE;}
	.st5{fill:none;stroke:#002F87;stroke-miterlimit:10;}
	.st6{fill:none;stroke:#76BC21;stroke-miterlimit:10;}
	.st7{fill:none;stroke:#FFB71B;stroke-miterlimit:10;}
	.st8{font-family:'MyriadPro-Bold';}
	.st9{font-size:13.2277px;}
	.st10{font-size:13.2px;}
	.st11{font-size:13.1901px;}
	.st12{font-size:13.2534px;}
	.st13{font-size:13.2237px;}
	.st14{font-size:13.2026px;}
	.st15{font-size:13.2422px;}
	.st16{font-size:13.1663px;}
	.st17{font-size:13.1643px;}
	.st18{font-size:13.1689px;}
	.st19{font-size:13.198px;}
	.st20{font-size:12px;}
</style>
<g id="Layer_4">
	<path class="st0" d="M634.1,108.8c-145-145-380.2-145-525.3,0s-145,380.2,0,525.3s380.2,145,525.3,0S779.1,253.8,634.1,108.8
		C634.1,108.8,634.1,108.8,634.1,108.8z M536.5,657.3c-50,29-106.7,44.3-164.5,44.4c-29,0-58-3.8-86-11.4
		c-84.7-22.5-156.8-77.8-200.4-153.8c-30.2-52.3-44.2-104.7-44.2-165.1c0-182.3,147.8-330.1,330.1-330.1c0,0,0,0,0,0
		c60.3,0,112.8,14.1,165.1,44.2c157.9,91.2,212,293.1,120.9,451c0,0,0,0,0,0C627.1,588.7,588.7,627.1,536.5,657.3z"/>
	<path class="st1" d="M639.3,553.8c3.2-4.8,4.3-10.7,3-16.3c-1.3-5.6-4.8-10.3-9.8-13.2c-9.4-5.4-21.3-2.6-27.4,6.2
		c-88.5,129.1-264.9,162-394,73.5c-28.8-19.8-53.8-44.7-73.5-73.5c-3.9-5.6-10.3-9-17.2-9c-11.4,0.1-20.6,9.3-20.5,20.7
		c0,4.1,1.3,8.2,3.6,11.6c95.9,139.9,283.3,182.4,430.1,97.6C578.3,625.8,611.9,594.7,639.3,553.8z"/>
	<path class="st2" d="M164,177.4c48.4-52.2,114.7-84.1,185.6-89.5c10.7-0.9,19-9.8,19.1-20.6c0-11.4-9.2-20.7-20.6-20.7
		c-0.5,0-1.1,0-1.6,0.1C177.3,59.8,46.8,200.8,46.8,370.4c0,51.5,10.1,96.1,31.8,140.3c2.5,5.2,7.1,9.1,12.6,10.8
		c5.4,1.7,11.4,1,16.3-1.9c9.3-5.5,13-17.2,8.3-26.9C65.6,387.6,84.7,262.6,164,177.4z"/>
	<path class="st3" d="M635.4,519.5c4.9,2.9,10.9,3.6,16.3,1.9c5.5-1.7,10.1-5.6,12.6-10.8c21.7-44.2,31.8-88.8,31.8-140.3
		c0-169.6-130.5-310.6-299.6-323.7c-0.5,0-1.1-0.1-1.6-0.1c-11.4,0-20.6,9.2-20.6,20.6c0,10.8,8.3,19.7,19.1,20.6
		C549.4,100,666.1,236.4,653.9,392.5c-2.7,34.8-11.8,68.7-26.8,100.2C622.5,502.4,626,514.1,635.4,519.5z"/>
	<path class="st0" d="M567.9,173.9c-108.5-108.5-284.5-108.5-393,0s-108.5,284.5,0,393s284.5,108.5,393,0
		c52.1-52.1,81.4-122.8,81.4-196.5C649.5,296.7,620.2,225.9,567.9,173.9z"/>
	<circle class="st4" cx="371.4" cy="370.4" r="40"/>
	<path class="st2" d="M371.4,362.2c0.9,0.1,1.8-0.4,2.1-1.3l1.1-12.2c0-1.2-1.4-2.2-3.2-2.2s-3.2,1-3.2,2.2l1.1,12.2
		C369.6,361.8,370.5,362.3,371.4,362.2L371.4,362.2z"/>
	<path class="st2" d="M364.8,366c0.6-0.7,0.5-1.8-0.1-2.5l-10-7c-1-0.6-2.6,0.1-3.5,1.7s-0.7,3.2,0.3,3.9l11.1,5.2
		C363.6,367.4,364.5,366.9,364.8,366L364.8,366z"/>
	<path class="st2" d="M378,366c0.4,0.9,1.3,1.3,2.2,1.2l11.1-5.2c1-0.6,1.2-2.3,0.3-3.9s-2.5-2.3-3.5-1.7l-10,7
		C377.5,364.2,377.4,365.2,378,366z"/>
	<path class="st2" d="M378,373.7c0.4-0.9,1.3-1.3,2.2-1.2l11.1,5.2c1,0.6,1.2,2.3,0.3,3.9s-2.5,2.3-3.5,1.7l-10-7
		C377.5,375.5,377.5,374.4,378,373.7L378,373.7z"/>
	<path class="st2" d="M364.8,373.7c0.6,0.7,0.5,1.8-0.1,2.5l-10,7c-1,0.6-2.6-0.1-3.5-1.7s-0.7-3.3,0.3-3.9l11.1-5.2
		C363.6,372.3,364.5,372.8,364.8,373.7L364.8,373.7z"/>
	<path class="st2" d="M371.4,377.5c0.9-0.1,1.8,0.4,2.1,1.3l1.1,12.2c0,1.2-1.4,2.2-3.2,2.2s-3.2-1-3.2-2.2l1.1-12.2
		C369.6,377.9,370.5,377.4,371.4,377.5L371.4,377.5z"/>
	<path class="st2" d="M376.2,391.6L376.2,391.6c0.2,0,0.3,0,0.3-0.1s-0.1-0.1-0.2-0.1h-0.1L376.2,391.6z M376.2,392H376v-0.9
		c0.1,0,0.2,0,0.4,0c0.1,0,0.2,0,0.3,0.1c0.1,0,0.1,0.1,0.1,0.2c0,0.1-0.1,0.2-0.2,0.2l0,0c0.1,0,0.2,0.1,0.2,0.2
		c0,0.1,0,0.1,0.1,0.2h-0.3c0-0.1,0-0.1-0.1-0.2c0-0.1-0.1-0.1-0.2-0.1h-0.1L376.2,392z M376.3,390.9c-0.4,0-0.7,0.3-0.7,0.7
		c0,0.4,0.3,0.7,0.7,0.7c0.4,0,0.7-0.3,0.7-0.7c0,0,0,0,0,0C377,391.2,376.7,390.9,376.3,390.9C376.3,390.9,376.3,390.9,376.3,390.9
		z M376.3,390.7c0.5,0,0.9,0.4,0.9,0.9c0,0,0,0,0,0c0,0.5-0.4,1-0.9,1c-0.5,0-1-0.4-1-0.9S375.8,390.7,376.3,390.7
		C376.3,390.7,376.3,390.7,376.3,390.7z"/>
	<circle class="st1" cx="218.9" cy="551.8" r="8.4"/>
	<circle class="st1" cx="523.7" cy="552.3" r="8.4"/>
	<circle class="st1" cx="370" cy="608.3" r="8.4"/>
	<path class="st5" d="M175.2,504.7c74.1,108.2,221.9,135.7,330.1,61.6c24.2-16.6,45-37.4,61.6-61.6"/>
	<circle class="st3" cx="604.1" cy="329.4" r="8.4"/>
	<circle class="st3" cx="523.7" cy="189.3" r="8.4"/>
	<circle class="st3" cx="575" cy="250.1" r="8.4"/>
	<path class="st6" d="M585.2,472.9c56.5-118.3,6.5-260.1-111.9-316.6c-26.4-12.6-54.9-20.2-84-22.5"/>
	<circle class="st2" cx="218" cy="189.3" r="8.4"/>
	<circle class="st2" cx="136.9" cy="330.4" r="8.4"/>
	<path class="st7" d="M352.7,133.8c-130.8,10.2-228.5,124.4-218.4,255.2c2.3,29.1,9.9,57.6,22.5,83.9"/>
	<text transform="matrix(0.5888 0.8083 -0.8083 0.5888 610.6501 192.2712)" class="st0 st8 st9">A</text>
	<text transform="matrix(0.5631 0.8264 -0.8264 0.5631 615.7803 199.24)" class="st0 st8 st10">M</text>
	<text transform="matrix(0.5363 0.844 -0.844 0.5363 622.0696 208.52)" class="st0 st8 st10">B</text>
	<text transform="matrix(0.5195 0.8545 -0.8545 0.5195 626.3401 215.2799)" class="st0 st8 st10">I</text>
	<text transform="matrix(0.5041 0.8637 -0.8637 0.5041 628.3096 218.5)" class="st0 st8 st10">E</text>
	<text transform="matrix(0.4801 0.8772 -0.8772 0.4801 631.9296 224.6801)" class="st0 st8 st10">N</text>
	<text transform="matrix(0.4562 0.8899 -0.8899 0.4562 636.2605 232.6101)" class="st0 st8 st10">T</text>
	<text transform="matrix(0.4348 0.9005 -0.9005 0.4348 639.2 238.3099)" class="st0 st8 st10">A</text>
	<text transform="matrix(0.4117 0.9113 -0.9113 0.4117 642.9099 246.0099)" class="st0 st8 st10">L</text>
	<text transform="matrix(0.9707 0.2402 -0.2402 0.9707 293.5101 667.6005)" class="st0 st8 st11">G</text>
	<text transform="matrix(0.9787 0.2055 -0.2055 0.9787 302.4101 669.75)" class="st0 st8 st10">O</text>
	<text transform="matrix(0.9841 0.1774 -0.1774 0.9841 311.81 671.71)" class="st0 st8 st10">B</text>
	<text transform="matrix(0.9873 0.1587 -0.1587 0.9873 319.74 673.12)" class="st0 st8 st10">I</text>
	<text transform="matrix(0.99 0.1411 -0.1411 0.99 323.56 673.75)" class="st0 st8 st10">E</text>
	<text transform="matrix(0.9932 0.1168 -0.1168 0.9932 330.73 674.77)" class="st0 st8 st10">R</text>
	<text transform="matrix(0.996 8.963770e-02 -8.963770e-02 0.996 338.6797 675.7099)" class="st0 st8 st12">N</text>
	<text transform="matrix(0.9982 5.989229e-02 -5.989229e-02 0.9982 347.9298 676.5403)" class="st0 st8 st13">O</text>
	<text transform="matrix(0.9998 1.999600e-02 -1.999600e-02 0.9998 360.221 677.2099)" class="st0 st8 st14">C</text>
	<text transform="matrix(0.9999 -1.064631e-02 1.064631e-02 0.9999 368.09 677.43)" class="st0 st8 st10">O</text>
	<text transform="matrix(0.9995 -3.193410e-02 3.193410e-02 0.9995 377.68 677.34)" class="st0 st8 st10">R</text>
	<text transform="matrix(0.9984 -5.704129e-02 5.704129e-02 0.9984 385.67 677.09)" class="st0 st8 st10">P</text>
	<text transform="matrix(0.9968 -7.974522e-02 7.974522e-02 0.9968 393.4101 676.6599)" class="st0 st8 st15">O</text>
	<text transform="matrix(0.9937 -0.1125 0.1125 0.9937 403 675.83)" class="st0 st8 st10">R</text>
	<text transform="matrix(0.9902 -0.1399 0.1399 0.9902 411.15 674.91)" class="st0 st8 st10">A</text>
	<text transform="matrix(0.9867 -0.1626 0.1626 0.9867 418.95 673.8099)" class="st0 st8 st10">T</text>
	<text transform="matrix(0.9837 -0.18 0.18 0.9837 426.08 672.6199)" class="st0 st8 st10">I</text>
	<text transform="matrix(0.9799 -0.1994 0.1994 0.9799 429.83 671.9499)" class="st0 st8 st10">V</text>
	<text transform="matrix(0.974 -0.2267 0.2267 0.974 437.81 670.34)" class="st0 st8 st10">O</text>
	<text transform="matrix(0.3987 -0.9171 0.9171 0.3987 97.6699 256.0505)" class="st0 st8 st15">S</text>
	<text transform="matrix(0.4311 -0.9023 0.9023 0.4311 100.4592 249.6403)" class="st0 st8 st16">O</text>
	<text transform="matrix(0.4512 -0.8924 0.8924 0.4512 104.4897 241.1298)" class="st0 st8 st17">C</text>
	<text transform="matrix(0.4711 -0.8821 0.8821 0.4711 108.0205 234.2302)" class="st0 st8 st18">I</text>
	<text transform="matrix(0.4882 -0.8728 0.8728 0.4882 109.7 231.0298)" class="st0 st8 st10">A</text>
	<text transform="matrix(0.5101 -0.8601 0.8601 0.5101 113.8399 223.63)" class="st0 st8 st19">L</text>
</g>
<g id="Layer_5">
	<text transform="matrix(1 0 0 1 228.24 206.3)" class="st2 st8 st20">C</text>
	<text transform="matrix(1 0 0 1 235.54 206.3)" class="st2 st8 st20">R</text>
	<text transform="matrix(1 0 0 1 242.95 206.3)" class="st2 st8 st20">E</text>
	<text transform="matrix(1 0 0 1 249.68 206.3)" class="st2 st8 st20">A</text>
	<text transform="matrix(1 0 0 1 257.66 206.3)" class="st2 st8 st20">R</text>
	<text transform="matrix(1 0 0 1 228.24 220.53)" class="st2 st8 st20">O</text>
	<text transform="matrix(1 0 0 1 237.11 220.53)" class="st2 st8 st20">P</text>
	<text transform="matrix(1 0 0 1 244.28 220.53)" class="st2 st8 st20">O</text>
	<text transform="matrix(1 0 0 1 253.15 220.53)" class="st2 st8 st20">R</text>
	<text transform="matrix(1 0 0 1 260.54 220.53)" class="st2 st8 st20">T</text>
	<text transform="matrix(1 0 0 1 267.28 220.53)" class="st2 st8 st20">U</text>
	<text transform="matrix(1 0 0 1 275.71 220.53)" class="st2 st8 st20">N</text>
	<text transform="matrix(1 0 0 1 284.26 220.53)" class="st2 st8 st20">I</text>
	<text transform="matrix(1 0 0 1 287.92 220.53)" class="st2 st8 st20">D</text>
	<text transform="matrix(1 0 0 1 296.16 220.53)" class="st2 st8 st20">A</text>
	<text transform="matrix(1 0 0 1 304.14 220.53)" class="st2 st8 st20">D</text>
	<text transform="matrix(1 0 0 1 312.74 220.53)" class="st2 st8 st20">E</text>
	<text transform="matrix(1 0 0 1 319.36 220.53)" class="st2 st8 st20">S</text>
	<text transform="matrix(1 0 0 1 228.24 234.76)" class="st2 st8 st20">P</text>
	<text transform="matrix(1 0 0 1 234.82 234.76)" class="st2 st8 st20">A</text>
	<text transform="matrix(1 0 0 1 242.81 234.76)" class="st2 st8 st20">R</text>
	<text transform="matrix(1 0 0 1 250.37 234.76)" class="st2 st8 st20">A NU</text>
	<text transform="matrix(1 0 0 1 278.09 234.76)" class="st2 st8 st20">E</text>
	<text transform="matrix(1 0 0 1 284.71 234.76)" class="st2 st8 st20">S</text>
	<text transform="matrix(1 0 0 1 291.36 234.76)" class="st2 st8 st20">TR</text>
	<text transform="matrix(1 0 0 1 305.38 234.76)" class="st2 st8 st20">O</text>
	<text transform="matrix(1 0 0 1 314.09 234.76)" class="st2 st8 st20">S A</text>
	<text transform="matrix(1 0 0 1 331.59 234.76)" class="st2 st8 st20">S</text>
	<text transform="matrix(1 0 0 1 338.22 234.76)" class="st2 st8 st20">O</text>
	<text transform="matrix(1 0 0 1 347.07 234.76)" class="st2 st8 st20">C</text>
	<text transform="matrix(1 0 0 1 354.36 234.76)" class="st2 st8 st20">I</text>
	<text transform="matrix(1 0 0 1 357.92 234.76)" class="st2 st8 st20">A</text>
	<text transform="matrix(1 0 0 1 365.91 234.76)" class="st2 st8 st20">D</text>
	<text transform="matrix(1 0 0 1 374.5 234.76)" class="st2 st8 st20">O</text>
	<text transform="matrix(1 0 0 1 383.21 234.76)" class="st2 st8 st20">S</text>
	<text transform="matrix(1 0 0 1 228.24 248.98)" class="st2 st8 st20">Y </text>
	<text transform="matrix(1 0 0 1 238.38 248.98)" class="st2 st8 st20">P</text>
	<text transform="matrix(1 0 0 1 245.42 248.98)" class="st2 st8 st20">R</text>
	<text transform="matrix(1 0 0 1 252.7 248.98)" class="st2 st8 st20">O</text>
	<text transform="matrix(1 0 0 1 261.24 248.98)" class="st2 st8 st20">V</text>
	<text transform="matrix(1 0 0 1 269.09 248.98)" class="st2 st8 st20">EE</text>
	<text transform="matrix(1 0 0 1 282.53 248.98)" class="st2 st8 st20">D</text>
	<text transform="matrix(1 0 0 1 291.12 248.98)" class="st2 st8 st20">O</text>
	<text transform="matrix(1 0 0 1 299.99 248.98)" class="st2 st8 st20">R</text>
	<text transform="matrix(1 0 0 1 307.4 248.98)" class="st2 st8 st20">E</text>
	<text transform="matrix(1 0 0 1 314.02 248.98)" class="st2 st8 st20">S</text>
	<text transform="matrix(1 0 0 1 449.14 206.3)" class="st3 st8 st20">M</text>
	<text transform="matrix(1 0 0 1 459.58 206.3)" class="st3 st8 st20">I</text>
	<text transform="matrix(1 0 0 1 463.15 206.3)" class="st3 st8 st20">T</text>
	<text transform="matrix(1 0 0 1 469.89 206.3)" class="st3 st8 st20">I</text>
	<text transform="matrix(1 0 0 1 473.52 206.3)" class="st3 st8 st20">G</text>
	<text transform="matrix(1 0 0 1 481.91 206.3)" class="st3 st8 st20">A</text>
	<text transform="matrix(1 0 0 1 489.89 206.3)" class="st3 st8 st20">R </text>
	<text transform="matrix(1 0 0 1 499.91 206.3)" class="st3 st8 st20">E</text>
	<text transform="matrix(1 0 0 1 506.63 206.3)" class="st3 st8 st20">L</text>
	<text transform="matrix(1 0 0 1 403.11 220.53)" class="st3 st8 st20">C</text>
	<text transform="matrix(1 0 0 1 410.59 220.53)" class="st3 st8 st20">A</text>
	<text transform="matrix(1 0 0 1 418.66 220.53)" class="st3 st8 st20">M</text>
	<text transform="matrix(1 0 0 1 429.09 220.53)" class="st3 st8 st20">BIO </text>
	<text transform="matrix(1 0 0 1 451.75 220.53)" class="st3 st8 st20">C</text>
	<text transform="matrix(1 0 0 1 459.05 220.53)" class="st3 st8 st20">L</text>
	<text transform="matrix(1 0 0 1 465.29 220.53)" class="st3 st8 st20">IM</text>
	<text transform="matrix(1 0 0 1 479.36 220.53)" class="st3 st8 st20">Á</text>
	<text transform="matrix(1 0 0 1 486.66 220.53)" class="st3 st8 st20">T</text>
	<text transform="matrix(1 0 0 1 493.4 220.53)" class="st3 st8 st20">I</text>
	<text transform="matrix(1 0 0 1 497.06 220.53)" class="st3 st8 st20">C</text>
	<text transform="matrix(1 0 0 1 504.16 220.53)" class="st3 st8 st20">O</text>
	<text transform="matrix(1 0 0 1 486.08 268.2)" class="st3 st8 st20">F</text>
	<text transform="matrix(1 0 0 1 492.45 268.2)" class="st3 st8 st20">O</text>
	<text transform="matrix(1 0 0 1 501.25 268.2)" class="st3 st8 st20">M</text>
	<text transform="matrix(1 0 0 1 511.68 268.2)" class="st3 st8 st20">E</text>
	<text transform="matrix(1 0 0 1 518.4 268.2)" class="st3 st8 st20">N</text>
	<text transform="matrix(1 0 0 1 526.85 268.2)" class="st3 st8 st20">T</text>
	<text transform="matrix(1 0 0 1 532.91 268.2)" class="st3 st8 st20">A</text>
	<text transform="matrix(1 0 0 1 540.9 268.2)" class="st3 st8 st20">R </text>
	<text transform="matrix(1 0 0 1 550.92 268.2)" class="st3 st8 st20">L</text>
	<text transform="matrix(1 0 0 1 557.45 268.2)" class="st3 st8 st20">A</text>
	<text transform="matrix(1 0 0 1 445.11 282.43)" class="st3 st8 st20">E</text>
	<text transform="matrix(1 0 0 1 451.69 282.43)" class="st3 st8 st20">C</text>
	<text transform="matrix(1 0 0 1 458.79 282.43)" class="st3 st8 st20">O</text>
	<text transform="matrix(1 0 0 1 467.66 282.43)" class="st3 st8 st20">N</text>
	<text transform="matrix(1 0 0 1 476.2 282.43)" class="st3 st8 st20">O</text>
	<text transform="matrix(1 0 0 1 485.01 282.43)" class="st3 st8 st20">M</text>
	<text transform="matrix(1 0 0 1 495.44 282.43)" class="st3 st8 st20">Í</text>
	<text transform="matrix(1 0 0 1 498.99 282.43)" class="st3 st8 st20">A </text>
	<text transform="matrix(1 0 0 1 509.77 282.43)" class="st3 st8 st20">C</text>
	<text transform="matrix(1 0 0 1 517.07 282.43)" class="st3 st8 st20">I</text>
	<text transform="matrix(1 0 0 1 520.73 282.43)" class="st3 st8 st20">R</text>
	<text transform="matrix(1 0 0 1 528.02 282.43)" class="st3 st8 st20">C</text>
	<text transform="matrix(1 0 0 1 535.26 282.43)" class="st3 st8 st20">U</text>
	<text transform="matrix(1 0 0 1 543.69 282.43)" class="st3 st8 st20">L</text>
	<text transform="matrix(1 0 0 1 550.22 282.43)" class="st3 st8 st20">A</text>
	<text transform="matrix(1 0 0 1 558.21 282.43)" class="st3 st8 st20">R</text>
	<text transform="matrix(1 0 0 1 492.54 343.79)" class="st3 st8 st20">A</text>
	<text transform="matrix(1 0 0 1 500.53 343.79)" class="st3 st8 st20">B</text>
	<text transform="matrix(1 0 0 1 507.82 343.79)" class="st3 st8 st20">A</text>
	<text transform="matrix(1 0 0 1 515.93 343.79)" class="st3 st8 st20">S</text>
	<text transform="matrix(1 0 0 1 522.59 343.79)" class="st3 st8 st20">T</text>
	<text transform="matrix(1 0 0 1 529.33 343.79)" class="st3 st8 st20">E</text>
	<text transform="matrix(1 0 0 1 535.91 343.79)" class="st3 st8 st20">C</text>
	<text transform="matrix(1 0 0 1 543.21 343.79)" class="st3 st8 st20">I</text>
	<text transform="matrix(1 0 0 1 546.87 343.79)" class="st3 st8 st20">M</text>
	<text transform="matrix(1 0 0 1 557.31 343.79)" class="st3 st8 st20">I</text>
	<text transform="matrix(1 0 0 1 560.98 343.79)" class="st3 st8 st20">E</text>
	<text transform="matrix(1 0 0 1 567.7 343.79)" class="st3 st8 st20">N</text>
	<text transform="matrix(1 0 0 1 576.15 343.79)" class="st3 st8 st20">T</text>
	<text transform="matrix(1 0 0 1 582.78 343.79)" class="st3 st8 st20">O</text>
	<text transform="matrix(1 0 0 1 513.78 358.02)" class="st3 st8 st20">S</text>
	<text transform="matrix(1 0 0 1 520.36 358.02)" class="st3 st8 st20">U</text>
	<text transform="matrix(1 0 0 1 528.65 358.02)" class="st3 st8 st20">S</text>
	<text transform="matrix(1 0 0 1 535.3 358.02)" class="st3 st8 st20">T</text>
	<text transform="matrix(1 0 0 1 542.04 358.02)" class="st3 st8 st20">E</text>
	<text transform="matrix(1 0 0 1 548.76 358.02)" class="st3 st8 st20">N</text>
	<text transform="matrix(1 0 0 1 557.21 358.02)" class="st3 st8 st20">T</text>
	<text transform="matrix(1 0 0 1 563.27 358.02)" class="st3 st8 st20">A</text>
	<text transform="matrix(1 0 0 1 571.25 358.02)" class="st3 st8 st20">B</text>
	<text transform="matrix(1 0 0 1 578.74 358.02)" class="st3 st8 st20">L</text>
	<text transform="matrix(1 0 0 1 584.98 358.02)" class="st3 st8 st20">E</text>
	<text transform="matrix(1 0 0 1 149.83 343.79)" class="st2 st8 st20">C</text>
	<text transform="matrix(1 0 0 1 156.93 343.79)" class="st2 st8 st20">O</text>
	<text transform="matrix(1 0 0 1 165.74 343.79)" class="st2 st8 st20">M</text>
	<text transform="matrix(1 0 0 1 176.16 343.79)" class="st2 st8 st20">P</text>
	<text transform="matrix(1 0 0 1 183.2 343.79)" class="st2 st8 st20">R</text>
	<text transform="matrix(1 0 0 1 190.48 343.79)" class="st2 st8 st20">O</text>
	<text transform="matrix(1 0 0 1 199.29 343.79)" class="st2 st8 st20">M</text>
	<text transform="matrix(1 0 0 1 209.73 343.79)" class="st2 st8 st20">I</text>
	<text transform="matrix(1 0 0 1 213.35 343.79)" class="st2 st8 st20">S</text>
	<text transform="matrix(1 0 0 1 219.99 343.79)" class="st2 st8 st20">O </text>
	<text transform="matrix(1 0 0 1 231.5 343.79)" class="st2 st8 st20">C</text>
	<text transform="matrix(1 0 0 1 238.6 343.79)" class="st2 st8 st20">O</text>
	<text transform="matrix(1 0 0 1 247.46 343.79)" class="st2 st8 st20">N</text>
	<text transform="matrix(1 0 0 1 149.83 358.02)" class="st2 st8 st20">L</text>
	<text transform="matrix(1 0 0 1 156.36 358.02)" class="st2 st8 st20">AS </text>
	<text transform="matrix(1 0 0 1 173.86 358.02)" class="st2 st8 st20">C</text>
	<text transform="matrix(1 0 0 1 180.96 358.02)" class="st2 st8 st20">O</text>
	<text transform="matrix(1 0 0 1 189.77 358.02)" class="st2 st8 st20">M</text>
	<text transform="matrix(1 0 0 1 200.11 358.02)" class="st2 st8 st20">U</text>
	<text transform="matrix(1 0 0 1 208.54 358.02)" class="st2 st8 st20">N</text>
	<text transform="matrix(1 0 0 1 217.09 358.02)" class="st2 st8 st20">I</text>
	<text transform="matrix(1 0 0 1 220.75 358.02)" class="st2 st8 st20">D</text>
	<text transform="matrix(1 0 0 1 228.99 358.02)" class="st2 st8 st20">A</text>
	<text transform="matrix(1 0 0 1 236.98 358.02)" class="st2 st8 st20">D</text>
	<text transform="matrix(1 0 0 1 245.57 358.02)" class="st2 st8 st20">E</text>
	<text transform="matrix(1 0 0 1 252.19 358.02)" class="st2 st8 st20">S</text>
	<text transform="matrix(1 0 0 1 149.83 372.25)" class="st2 st8 st20">D</text>
	<text transform="matrix(1 0 0 1 158.42 372.25)" class="st2 st8 st20">ON</text>
	<text transform="matrix(1 0 0 1 175.84 372.25)" class="st2 st8 st20">DE </text>
	<text transform="matrix(1 0 0 1 193.74 372.25)" class="st2 st8 st20">O</text>
	<text transform="matrix(1 0 0 1 202.61 372.25)" class="st2 st8 st20">P</text>
	<text transform="matrix(1 0 0 1 209.65 372.25)" class="st2 st8 st20">E</text>
	<text transform="matrix(1 0 0 1 216.37 372.25)" class="st2 st8 st20">R</text>
	<text transform="matrix(1 0 0 1 223.93 372.25)" class="st2 st8 st20">AM</text>
	<text transform="matrix(1 0 0 1 242.36 372.25)" class="st2 st8 st20">O</text>
	<text transform="matrix(1 0 0 1 251.07 372.25)" class="st2 st8 st20">S Y</text>
	<text transform="matrix(1 0 0 1 149.83 386.47)" class="st2 st8 st20">C</text>
	<text transform="matrix(1 0 0 1 156.93 386.47)" class="st2 st8 st20">O</text>
	<text transform="matrix(1 0 0 1 165.8 386.47)" class="st2 st8 st20">N NU</text>
	<text transform="matrix(1 0 0 1 193.92 386.47)" class="st2 st8 st20">E</text>
	<text transform="matrix(1 0 0 1 200.54 386.47)" class="st2 st8 st20">S</text>
	<text transform="matrix(1 0 0 1 207.2 386.47)" class="st2 st8 st20">TR</text>
	<text transform="matrix(1 0 0 1 221.21 386.47)" class="st2 st8 st20">O</text>
	<text transform="matrix(1 0 0 1 229.93 386.47)" class="st2 st8 st20">S </text>
	<text transform="matrix(1 0 0 1 239.31 386.47)" class="st2 st8 st20">C</text>
	<text transform="matrix(1 0 0 1 246.61 386.47)" class="st2 st8 st20">L</text>
	<text transform="matrix(1 0 0 1 252.85 386.47)" class="st2 st8 st20">I</text>
	<text transform="matrix(1 0 0 1 256.52 386.47)" class="st2 st8 st20">E</text>
	<text transform="matrix(1 0 0 1 263.24 386.47)" class="st2 st8 st20">N</text>
	<text transform="matrix(1 0 0 1 271.69 386.47)" class="st2 st8 st20">T</text>
	<text transform="matrix(1 0 0 1 278.43 386.47)" class="st2 st8 st20">E</text>
	<text transform="matrix(1 0 0 1 285.05 386.47)" class="st2 st8 st20">S</text>
	<text transform="matrix(1 0 0 1 440.5 512.17)" class="st1 st8 st20">S</text>
	<text transform="matrix(1 0 0 1 447.18 512.17)" class="st1 st8 st20">E</text>
	<text transform="matrix(1 0 0 1 453.73 512.17)" class="st1 st8 st20">G</text>
	<text transform="matrix(1 0 0 1 462.13 512.17)" class="st1 st8 st20">U</text>
	<text transform="matrix(1 0 0 1 470.56 512.17)" class="st1 st8 st20">R</text>
	<text transform="matrix(1 0 0 1 477.96 512.17)" class="st1 st8 st20">I</text>
	<text transform="matrix(1 0 0 1 481.63 512.17)" class="st1 st8 st20">D</text>
	<text transform="matrix(1 0 0 1 489.86 512.17)" class="st1 st8 st20">A</text>
	<text transform="matrix(1 0 0 1 497.85 512.17)" class="st1 st8 st20">D DE</text>
	<text transform="matrix(1 0 0 1 425.73 526.4)" class="st1 st8 st20">L</text>
	<text transform="matrix(1 0 0 1 432.27 526.4)" class="st1 st8 st20">A </text>
	<text transform="matrix(1 0 0 1 443.04 526.4)" class="st1 st8 st20">I</text>
	<text transform="matrix(1 0 0 1 446.71 526.4)" class="st1 st8 st20">N</text>
	<text transform="matrix(1 0 0 1 455.26 526.4)" class="st1 st8 st20">F</text>
	<text transform="matrix(1 0 0 1 461.63 526.4)" class="st1 st8 st20">O</text>
	<text transform="matrix(1 0 0 1 470.49 526.4)" class="st1 st8 st20">R</text>
	<text transform="matrix(1 0 0 1 477.88 526.4)" class="st1 st8 st20">M</text>
	<text transform="matrix(1 0 0 1 488.29 526.4)" class="st1 st8 st20">A</text>
	<text transform="matrix(1 0 0 1 496 526.4)" class="st1 st8 st20">C</text>
	<text transform="matrix(1 0 0 1 503.3 526.4)" class="st1 st8 st20">I</text>
	<text transform="matrix(1 0 0 1 506.96 526.4)" class="st1 st8 st20">Ó</text>
	<text transform="matrix(1 0 0 1 515.83 526.4)" class="st1 st8 st20">N</text>
	<text transform="matrix(1 0 0 1 218.3 512.17)" class="st1 st8 st20">É</text>
	<text transform="matrix(1 0 0 1 224.95 512.17)" class="st1 st8 st20">T</text>
	<text transform="matrix(1 0 0 1 231.69 512.17)" class="st1 st8 st20">I</text>
	<text transform="matrix(1 0 0 1 235.35 512.17)" class="st1 st8 st20">C</text>
	<text transform="matrix(1 0 0 1 242.83 512.17)" class="st1 st8 st20">A Y</text>
	<text transform="matrix(1 0 0 1 218.3 526.4)" class="st1 st8 st20">C</text>
	<text transform="matrix(1 0 0 1 225.55 526.4)" class="st1 st8 st20">U</text>
	<text transform="matrix(1 0 0 1 233.89 526.4)" class="st1 st8 st20">M</text>
	<text transform="matrix(1 0 0 1 244.32 526.4)" class="st1 st8 st20">P</text>
	<text transform="matrix(1 0 0 1 251.36 526.4)" class="st1 st8 st20">L</text>
	<text transform="matrix(1 0 0 1 257.6 526.4)" class="st1 st8 st20">I</text>
	<text transform="matrix(1 0 0 1 261.27 526.4)" class="st1 st8 st20">M</text>
	<text transform="matrix(1 0 0 1 271.71 526.4)" class="st1 st8 st20">I</text>
	<text transform="matrix(1 0 0 1 275.38 526.4)" class="st1 st8 st20">E</text>
	<text transform="matrix(1 0 0 1 282.1 526.4)" class="st1 st8 st20">N</text>
	<text transform="matrix(1 0 0 1 290.54 526.4)" class="st1 st8 st20">T</text>
	<text transform="matrix(1 0 0 1 297.18 526.4)" class="st1 st8 st20">O</text>
	<text transform="matrix(1 0 0 1 298.15 571.89)" class="st1 st8 st20">G</text>
	<text transform="matrix(1 0 0 1 306.57 571.89)" class="st1 st8 st20">O</text>
	<text transform="matrix(1 0 0 1 315.44 571.89)" class="st1 st8 st20">B</text>
	<text transform="matrix(1 0 0 1 322.93 571.89)" class="st1 st8 st20">I</text>
	<text transform="matrix(1 0 0 1 326.6 571.89)" class="st1 st8 st20">E</text>
	<text transform="matrix(1 0 0 1 333.32 571.89)" class="st1 st8 st20">R</text>
	<text transform="matrix(1 0 0 1 340.73 571.89)" class="st1 st8 st20">N</text>
	<text transform="matrix(1 0 0 1 349.27 571.89)" class="st1 st8 st20">O </text>
	<text transform="matrix(1 0 0 1 360.77 571.89)" class="st1 st8 st20">C</text>
	<text transform="matrix(1 0 0 1 367.87 571.89)" class="st1 st8 st20">O</text>
	<text transform="matrix(1 0 0 1 376.74 571.89)" class="st1 st8 st20">R</text>
	<text transform="matrix(1 0 0 1 384.15 571.89)" class="st1 st8 st20">P</text>
	<text transform="matrix(1 0 0 1 391.32 571.89)" class="st1 st8 st20">O</text>
	<text transform="matrix(1 0 0 1 400.19 571.89)" class="st1 st8 st20">R</text>
	<text transform="matrix(1 0 0 1 407.75 571.89)" class="st1 st8 st20">A</text>
	<text transform="matrix(1 0 0 1 415.06 571.89)" class="st1 st8 st20">T</text>
	<text transform="matrix(1 0 0 1 421.79 571.89)" class="st1 st8 st20">I</text>
	<text transform="matrix(1 0 0 1 425.4 571.89)" class="st1 st8 st20">V</text>
	<text transform="matrix(1 0 0 1 432.93 571.89)" class="st1 st8 st20">O</text>
	<text transform="matrix(1 0 0 1 318.9 586.12)" class="st1 st8 st20">Y </text>
	<text transform="matrix(1 0 0 1 329.04 586.12)" class="st1 st8 st20">A</text>
	<text transform="matrix(1 0 0 1 337.02 586.12)" class="st1 st8 st20">L</text>
	<text transform="matrix(1 0 0 1 342.48 586.12)" class="st1 st8 st20">T</text>
	<text transform="matrix(1 0 0 1 348.54 586.12)" class="st1 st8 st20">A </text>
	<text transform="matrix(1 0 0 1 359.31 586.12)" class="st1 st8 st20">D</text>
	<text transform="matrix(1 0 0 1 367.92 586.12)" class="st1 st8 st20">I</text>
	<text transform="matrix(1 0 0 1 371.59 586.12)" class="st1 st8 st20">R</text>
	<text transform="matrix(1 0 0 1 379 586.12)" class="st1 st8 st20">E</text>
	<text transform="matrix(1 0 0 1 385.59 586.12)" class="st1 st8 st20">C</text>
	<text transform="matrix(1 0 0 1 392.68 586.12)" class="st1 st8 st20">C</text>
	<text transform="matrix(1 0 0 1 399.98 586.12)" class="st1 st8 st20">I</text>
	<text transform="matrix(1 0 0 1 403.64 586.12)" class="st1 st8 st20">Ó</text>
	<text transform="matrix(1 0 0 1 412.51 586.12)" class="st1 st8 st20">N</text>
</g>
</svg>
