<svg id="Capa_1" data-name="Capa 1" xmlns="http://www.w3.org/2000/svg" viewBox="0 0 28.33 18.01"><defs><style>.cls-1{fill:none;stroke:#fff;stroke-linecap:round;stroke-linejoin:round;stroke-width:1.66px;}</style></defs><path class="cls-1" d="M23.54,6.24l-1.95.59a.79.79,0,0,0-.52,1l2.18,8.08a.8.8,0,0,0,1,.55l2-.58a.79.79,0,0,0,.53-1l-2.2-8.08A.8.8,0,0,0,23.54,6.24Zm-.32,9.51a4.83,4.83,0,0,1-.7.24.83.83,0,0,1-.85-.29c-.29-.37-.79-1-1.37-1.7-3.33-4-5.41-5-8-4.61a10.26,10.26,0,0,0-2.62.94c-1,.4-2.78.38-2.82-.76,0-.73,1.4-1.4,3-2.44,2.43-1.55,3.83-1.21,6-.55a51.6,51.6,0,0,0,5.27,1.47M12.65,21.87c2.38,1.1,3-.37,3-.37a2.11,2.11,0,0,0,1.94-1.64,1.93,1.93,0,0,0,2.18-1.75c1.42,0,2.72-1.48,1.55-2.79m-17.68.5s.63.49,1.29.91m3-8.39c-1.17-.2-2.15-.4-2.15-.4m4,13.78a.37.37,0,0,0-.3-.16,1.71,1.71,0,0,1-1.13-.39A1.86,1.86,0,0,1,8,20.6a.42.42,0,0,0-.52-.24A1.31,1.31,0,0,1,6,19.15a.35.35,0,0,0-.32-.34c-1-.07-1.63-1.27-1-1.92a1.23,1.23,0,0,1,1.78.51.28.28,0,0,0,.4.14,1.14,1.14,0,0,1,1.59.72.34.34,0,0,0,.36.21,1.35,1.35,0,0,1,1.61,1.37.41.41,0,0,0,.4.37c.7,0,1.14.33,1.21.71a1.36,1.36,0,0,0,.6.95C12.79,22.28,10.62,22.83,9.82,21.72ZM3.36,6.24l1.94.59a.78.78,0,0,1,.53,1L3.65,15.86a.8.8,0,0,1-1,.55l-2-.58a.79.79,0,0,1-.53-1l2.2-8.08A.8.8,0,0,1,3.36,6.24ZM19.82,18.11l-2-2.29m-.15,4L16,18M15.7,21.5l-1.23-1.44" transform="translate(0.71 -5.19)"/></svg>