<svg id="Capa_1" data-name="Capa 1" xmlns="http://www.w3.org/2000/svg" viewBox="0 0 26.56 26.12"><defs><style>.cls-1{fill:#fff;}</style></defs><path class="cls-1" d="M22.65,4.34A4.06,4.06,0,0,1,22,2a3.46,3.46,0,0,1,2,1.63,3.29,3.29,0,0,1,.29,2.13A4,4,0,0,1,22.65,4.34Zm2.19,7a4,4,0,0,1-.31,3,4.23,4.23,0,0,0-.41,3.46,9.23,9.23,0,0,1,.23,1.48,6,6,0,0,1-.55,2.93,6.81,6.81,0,0,1-4.62,3.35,7.54,7.54,0,0,1-4.63-.63c.24-.31.45-.61.64-.89l0,0,.21-.31a.6.6,0,0,0-.18-.82.58.58,0,0,0-.81.18c-.07.09-.13.19-.19.28l0,0c-.28.41-.58.84-.9,1.22a.72.72,0,0,0-.23.23.3.3,0,0,0,0,.08A2.88,2.88,0,0,1,11,25.94h0a3.58,3.58,0,0,1-2-.7.62.62,0,0,0-.73,0,3.53,3.53,0,0,1-2,.7h0c-1.43,0-2.39-1.4-3.23-2.61l0,0a8.83,8.83,0,0,1-1.67-4.76,6,6,0,0,1,2-4.78A4,4,0,0,1,8,13.6a1.27,1.27,0,0,0,1.33,0,4,4,0,0,1,4.64.16,6,6,0,0,1,2,4.78,7.57,7.57,0,0,1-.2,1.55.59.59,0,0,0,1.15.27,8.53,8.53,0,0,0,.23-1.79,7.11,7.11,0,0,0-2.4-5.72c-.12-.1-.25-.19-.38-.28.25-.09.48-.16.72-.23a4.2,4.2,0,0,0,2.84-2,4,4,0,0,1,2.51-1.71A3.61,3.61,0,0,1,22.9,9a.4.4,0,0,0,.22.22.39.39,0,0,0,.18,0h0A3.57,3.57,0,0,1,24.84,11.29ZM12.39,7.11a4.76,4.76,0,0,1,2,0,7.35,7.35,0,0,1-2.14,2.71,2.64,2.64,0,0,1-2.5.45,4.66,4.66,0,0,1,1.29-.85.43.43,0,0,0,.22-.59.44.44,0,0,0-.58-.22,5.81,5.81,0,0,0-1.21.73,2.92,2.92,0,0,1,.19-.52A3.54,3.54,0,0,1,12.39,7.11Zm14.32-1a.44.44,0,0,0-.54-.32,5.07,5.07,0,0,0-1.08.43,4.3,4.3,0,0,0-.31-3,4.39,4.39,0,0,0-3-2.22.46.46,0,0,0-.44.18.46.46,0,0,0-.12.24,4.89,4.89,0,0,0,.71,3.39,4.8,4.8,0,0,0,2.42,1.91,5,5,0,0,0-1,1.13,4.71,4.71,0,0,0-3.17-.38,5.15,5.15,0,0,0-3.26,2.23,3.08,3.08,0,0,1-2.18,1.5,11.12,11.12,0,0,0-1.58.57l-.29.14a5.36,5.36,0,0,0-3.74.45,5.09,5.09,0,0,0-.19-.77A2.51,2.51,0,0,1,9.18,11a3.77,3.77,0,0,0,1.44.31,3.67,3.67,0,0,0,2.16-.75A7.8,7.8,0,0,0,15.42,7a.47.47,0,0,0-.14-.4.6.6,0,0,0-.21-.14,5.56,5.56,0,0,0-2.85-.19A4.39,4.39,0,0,0,8.88,8.48a3.94,3.94,0,0,0-.36,1.94,1.74,1.74,0,0,0-.11.18,5.71,5.71,0,0,0-2.23-2,.45.45,0,0,0-.6.2.44.44,0,0,0,.2.59A4.45,4.45,0,0,1,8,11.68a3.35,3.35,0,0,1,.22.7,5.11,5.11,0,0,0-5.62.47A7.16,7.16,0,0,0,.17,18.57,10,10,0,0,0,2.05,24l0,0c.91,1.3,2.14,3.08,4.18,3.11a4.59,4.59,0,0,0,2.38-.7,4.73,4.73,0,0,0,2.34.7h0a3.94,3.94,0,0,0,2.74-1.3,9.35,9.35,0,0,0,4.12,1,7.61,7.61,0,0,0,1.54-.16c.66-.14,4-1,5.44-4a7.05,7.05,0,0,0,.67-3.51,10.37,10.37,0,0,0-.26-1.66,3.11,3.11,0,0,1,.29-2.64A5.13,5.13,0,0,0,26,11a4.77,4.77,0,0,0-1.89-2.65,4.15,4.15,0,0,1,1.19-1.17,4.08,4.08,0,0,1,1.13-.49A.44.44,0,0,0,26.71,6.11Z" transform="translate(-0.17 -1)"/></svg>