<svg id="Capa_1" data-name="Capa 1" xmlns="http://www.w3.org/2000/svg" viewBox="0 0 26.67 23.57"><defs><style>.cls-1{fill:#fff;}</style></defs><path class="cls-1" d="M6.71,13.7V4.51l3.45,3.54a.58.58,0,0,0,.84,0,.63.63,0,0,0,0-.87L6.53,2.59a.6.6,0,0,0-.84,0L1.22,7.18a.63.63,0,0,0,0,.87.58.58,0,0,0,.84,0L5.51,4.51V13.7A6.12,6.12,0,0,0,.15,20.44,6,6,0,0,0,6.71,26a6.18,6.18,0,0,0,0-12.25M9.5,23.32a4.71,4.71,0,0,1-6.78,0,5,5,0,0,1,0-7,4.71,4.71,0,0,1,6.78,0,5,5,0,0,1,0,7" transform="translate(-0.12 -2.41)"/><path class="cls-1" d="M25,12.92a6.27,6.27,0,0,0,0-8.7,5.88,5.88,0,0,0-8.48,0,6.27,6.27,0,0,0,0,8.7,5.91,5.91,0,0,0,3.64,1.77v5.48H16.32a.61.61,0,0,0,0,1.22h3.87v4a.62.62,0,0,0,.6.62.61.61,0,0,0,.6-.62h0v-4h3.87a.61.61,0,0,0,0-1.22H21.39V14.69A5.83,5.83,0,0,0,25,12.92M17.4,5.08a4.71,4.71,0,0,1,6.78,0,5,5,0,0,1,0,7,4.69,4.69,0,0,1-6.78,0,5,5,0,0,1,0-7" transform="translate(-0.12 -2.41)"/></svg>