<svg id="Capa_1" data-name="Capa 1" xmlns="http://www.w3.org/2000/svg" viewBox="0 0 20.47 28.15"><defs><style>.cls-1{fill:#fff;}</style></defs><path class="cls-1" d="M20.49,28.24H9a3.43,3.43,0,0,1-3.2-2.56,3.18,3.18,0,0,1-2.56-3.2V3.29A3.17,3.17,0,0,1,6.41.09H17.93a3.43,3.43,0,0,1,3.2,2.56,3.17,3.17,0,0,1,2.56,3.2V25a3.17,3.17,0,0,1-3.2,3.2M7.18,25.68A1.92,1.92,0,0,0,9,27H20.49A2,2,0,0,0,22.41,25V5.85a1.93,1.93,0,0,0-1.28-1.79V22.48a3.17,3.17,0,0,1-3.2,3.2ZM4.49,15.44v7A2,2,0,0,0,6.41,24.4H17.93a2,2,0,0,0,1.92-1.92v-7ZM12.17,3.93A3.77,3.77,0,0,1,16,7.77a3.39,3.39,0,0,1-.9,2.43l1.28.77a3.14,3.14,0,0,1,1.54,2.68v.51h1.92V3.29a2,2,0,0,0-1.92-1.92H6.41A2,2,0,0,0,4.49,3.29V14.16H6.41v-.51A3.1,3.1,0,0,1,8,11l1.28-.77a3.73,3.73,0,0,1,.51-5.38,3.36,3.36,0,0,1,2.43-.89m-1.92,7.16-1.66,1a1.86,1.86,0,0,0-.9,1.66v.38h9v-.51a2.18,2.18,0,0,0-.9-1.66l-1.66-1a3.65,3.65,0,0,1-1.92.51,2.49,2.49,0,0,1-1.92-.39m1.92-5.88a2.56,2.56,0,1,0,2.56,2.56,2.56,2.56,0,0,0-2.56-2.56m1.92,16.63H7.69a.64.64,0,0,1,0-1.28h6.4a.64.64,0,0,1,0,1.28m2.56-2.56h-9a.64.64,0,0,1,0-1.28h9a.64.64,0,0,1,0,1.28" transform="translate(-3.21 -0.09)"/></svg>