<svg id="Capa_1" data-name="Capa 1" xmlns="http://www.w3.org/2000/svg" viewBox="0 0 22.37 27.96"><defs><style>.cls-1{fill:#fff;}</style></defs><path class="cls-1" d="M17,11.68h0L9.26,19.37v1.82h1.81l7.69-7.69Zm-5.6,10.91H8.56a.66.66,0,0,1-.7-.7v-2.8c0-.14.14-.42.14-.56l8.39-8.38a.67.67,0,0,1,1,0l2.8,2.79a.68.68,0,0,1,0,1l-8.39,8.39c0,.14-.28.28-.42.28M19,2.59V5.81h3.22Zm-13.28-1a2.14,2.14,0,0,0-2.1,2.09v21a2.14,2.14,0,0,0,2.1,2.09H21.14a2.14,2.14,0,0,0,2.1-2.09V7.21h-4.9a.66.66,0,0,1-.7-.7V1.62ZM21.14,28.18H5.76a3.46,3.46,0,0,1-3.5-3.49v-21A3.46,3.46,0,0,1,5.76.22H18.34c.14,0,.42.14.56.14L24.5,6a.84.84,0,0,1,.14.56V24.69a3.46,3.46,0,0,1-3.5,3.49" transform="translate(-2.26 -0.22)"/></svg>