<svg id="Capa_1" data-name="Capa 1" xmlns="http://www.w3.org/2000/svg" viewBox="0 0 26.42 26.32"><defs><style>.cls-1{fill:#fff;}</style></defs><path class="cls-1" d="M3.53,22.1A3.25,3.25,0,0,1,.24,18.82V17.76a3.16,3.16,0,0,1,1.84-2.89l4.47-2.23a6.54,6.54,0,0,1-.79-9.33,6.63,6.63,0,0,1,9.33-.66A5,5,0,0,1,16.14,4a.64.64,0,0,1-.13.92c-.13,0-.13.14-.26.14a.72.72,0,0,1-.53-.27A5.39,5.39,0,0,0,7.86,3.31a5.27,5.27,0,0,0-1.44,7.36A4.48,4.48,0,0,0,8,12.24a.82.82,0,0,1,.26.92c-.13,0-.13.14-.26.14L2.61,16.06a1.88,1.88,0,0,0-1,1.7v1.06a2,2,0,0,0,2,2,.66.66,0,0,1,0,1.31M16,7.64a5.26,5.26,0,1,0,5.26,5.26A5.27,5.27,0,0,0,16,7.64M13.38,19,8,21.44a1.71,1.71,0,0,0-1.19,1.71v.92a2,2,0,0,0,2,2H23.24a2,2,0,0,0,2-2v-.92A2,2,0,0,0,24,21.31L18.64,19a6,6,0,0,1-2.63.52A6,6,0,0,1,13.38,19m9.86,8.41H8.78a3.75,3.75,0,0,1-2.36-.92,3.77,3.77,0,0,1-.92-2.37v-.92a3.33,3.33,0,0,1,2-3l4.6-2.1a6.56,6.56,0,1,1,9.2-1.19A10.14,10.14,0,0,1,20.09,18l4.6,2.1a3.33,3.33,0,0,1,2,3v.92a3.83,3.83,0,0,1-.92,2.37,4.46,4.46,0,0,1-2.5.92" transform="translate(-0.24 -1.04)"/></svg>