<svg id="Capa_1" data-name="Capa 1" xmlns="http://www.w3.org/2000/svg" viewBox="0 0 26.42 26.29"><defs><style>.cls-1{fill:#fff;}</style></defs><path class="cls-1" d="M12.07,8.94c.13,0,.39.13.53.13l.78.92.79-.79a1,1,0,0,1,.53-.26h2a2,2,0,0,0,2-2V4.34a2,2,0,0,0-2-2H10.1a2,2,0,0,0-2,2V7a2,2,0,0,0,2,2Zm1.31,2.63c-.13,0-.39-.13-.52-.13l-1-1.18H10.1A3.26,3.26,0,0,1,6.81,7V4.34A3.26,3.26,0,0,1,10.1,1.05h6.57A3.26,3.26,0,0,1,20,4.34V7a3.26,3.26,0,0,1-3.29,3.29H15l-1.18,1.18a1.29,1.29,0,0,1-.4.13M3.52,15.51a2,2,0,0,0,0,4,2,2,0,1,0,0-4M2.6,20.64l-.92,1.84c0,.26-.13.53-.13.92v1.32A1.24,1.24,0,0,0,2.87,26H4.18A1.24,1.24,0,0,0,5.5,24.72V23.4a2.3,2.3,0,0,0-.27-.92l-.92-1.84a3.78,3.78,0,0,1-1.71,0m1.58,6.71H2.87A2.64,2.64,0,0,1,.24,24.72V23.4A2.66,2.66,0,0,1,.63,22l.92-1.84A3.36,3.36,0,0,1,.9,15.51a3.47,3.47,0,0,1,4.6-.65,3.46,3.46,0,0,1,.65,4.6c-.13.26-.39.39-.52.52l.92,1.84a6.77,6.77,0,0,1,.26,1.58v1.32a2.64,2.64,0,0,1-2.63,2.63m9.2-13.15A2.63,2.63,0,1,0,16,16.83a2.63,2.63,0,0,0-2.63-2.63m-1.44,6.31h0l-2,2a2,2,0,0,0-.53,1.32v.92A1.24,1.24,0,0,0,10.76,26H16a1.24,1.24,0,0,0,1.32-1.31V23.8a2.69,2.69,0,0,0-.53-1.45L15,20.51v-.13a3.53,3.53,0,0,1-3,.13M16,27.35H10.76a2.64,2.64,0,0,1-2.63-2.63V23.8a3.77,3.77,0,0,1,.92-2.37l1.71-1.71a3.91,3.91,0,1,1,5.52-.39l-.4.39,1.71,1.71a3.17,3.17,0,0,1,.92,2.37v.92A2.45,2.45,0,0,1,16,27.35m7.23-11.84a2,2,0,1,0,2,2,2,2,0,0,0-2-2m-.79,5.13-.92,1.84a1.92,1.92,0,0,0-.26.92v1.32A1.24,1.24,0,0,0,22.59,26H23.9a1.24,1.24,0,0,0,1.32-1.31V23.4a2.48,2.48,0,0,0-.27-.92L24,20.64a3.25,3.25,0,0,1-1.58,0m1.45,6.71H22.59A2.64,2.64,0,0,1,20,24.72V23.4A2.66,2.66,0,0,1,20.35,22l.92-1.84a3.28,3.28,0,1,1,4.6-.53c-.13.26-.39.39-.52.53L26.27,22a2.66,2.66,0,0,1,.39,1.44v1.32a2.85,2.85,0,0,1-2.76,2.63" transform="translate(-0.24 -1.05)"/></svg>