<svg id="Capa_1" data-name="Capa 1" xmlns="http://www.w3.org/2000/svg" viewBox="0 0 23.14 27.9"><defs><style>.cls-1{fill:#fff;}</style></defs><path class="cls-1" d="M3.38,6.35H23.49V6.14A1.54,1.54,0,0,0,23,5a1.49,1.49,0,0,0-1.09-.48h-17A1.48,1.48,0,0,0,3.84,5l0,0a1.67,1.67,0,0,0-.43,1.13Zm8.51,12.48a.79.79,0,0,1,0,1.57H8.73A.78.78,0,0,1,8,19.62a.7.7,0,0,1,.13-.45L9.59,16.5a.75.75,0,0,1,1-.31.8.8,0,0,1,.3,1.06l-.86,1.54h1.83Zm.73-4.53a.72.72,0,0,1-1,.28.8.8,0,0,1-.3-1.07l1.46-2.64a.72.72,0,0,1,1-.27.6.6,0,0,1,.3.31l1.5,2.71a.77.77,0,0,1-.3,1.06.72.72,0,0,1-1-.31l-.87-1.51Zm3.26,2.95a.79.79,0,0,1,.26-1.06.72.72,0,0,1,1,.31l1.53,2.77a.78.78,0,0,1-.3,1.07.72.72,0,0,1-.36.1H14.88a.79.79,0,0,1,0-1.58h1.83Zm7.38-9.32-1.6,15.22a6.13,6.13,0,0,1-1.59,3.56,4.58,4.58,0,0,1-3.33,1.44H10.16a4.53,4.53,0,0,1-3.33-1.44,5.94,5.94,0,0,1-1.59-3.56L3.61,7.93h-1a.77.77,0,0,1-.77-.79v-1A3.13,3.13,0,0,1,2.75,4l0,0A3,3,0,0,1,5,3H9.36A4,4,0,0,1,10,1.38l0-.07A2.41,2.41,0,0,1,11.92.25h3a2.42,2.42,0,0,1,1.92,1.06A3.74,3.74,0,0,1,17.54,3h4.39a3,3,0,0,1,2.19.92A3.18,3.18,0,0,1,25,6.14v1a.77.77,0,0,1-.77.79ZM15.94,3a1.59,1.59,0,0,0-.33-.72.89.89,0,0,0-.7-.45h-3a.89.89,0,0,0-.7.45l0,0a1.88,1.88,0,0,0-.3.69Zm5.79,5.1H5.14l1.6,15A4.4,4.4,0,0,0,7.9,25.65a3,3,0,0,0,2.26,1h6.58a3.21,3.21,0,0,0,2.26-1A4.51,4.51,0,0,0,20.16,23Z" transform="translate(-1.88 -0.25)"/></svg>