<svg id="Capa_1" data-name="Capa 1" xmlns="http://www.w3.org/2000/svg" viewBox="0 0 26.54 23.59"><defs><style>.cls-1{fill:#fff;}</style></defs><path class="cls-1" d="M20.09,20.1a.74.74,0,0,1,0-1.48,5.16,5.16,0,1,0,0-10.32h-.74V9a.74.74,0,1,1-1.48,0,5.23,5.23,0,0,0-5.16-5.16H12a5.91,5.91,0,0,0-5.9,5.9v.73a.7.7,0,0,1-.74.74,3.69,3.69,0,1,0,0,7.37.74.74,0,0,1,0,1.48A5.23,5.23,0,0,1,.18,14.94,5.35,5.35,0,0,1,4.6,9.78,7.49,7.49,0,0,1,6.81,4.47,7.38,7.38,0,0,1,12,2.4h.73a6.52,6.52,0,0,1,6.2,4.43h1.18a6.64,6.64,0,0,1,0,13.27M12.71,26a.7.7,0,0,1-.73-.74V13.76l-3.1,3.09a.73.73,0,0,1-1-1l4.42-4.42c.15-.15.3-.15.59-.15s.44.15.59.15l4.42,4.42a.73.73,0,0,1-1,1l-3.39-3.09v11.5a.7.7,0,0,1-.74.74" transform="translate(-0.18 -2.4)"/></svg>