<svg id="Capa_1" data-name="Capa 1" xmlns="http://www.w3.org/2000/svg" viewBox="0 0 18.61 27.98"><defs><style>.cls-1{fill:#fff;}</style></defs><path class="cls-1" d="M12.87,3.7H9.38a.55.55,0,0,1-.58-.58.55.55,0,0,1,.58-.58h3.49a.55.55,0,0,1,.58.58.55.55,0,0,1-.58.58M9.38,9.52A1.56,1.56,0,0,0,7.63,10.8v.46c0,1.28,1.17,2.56,3.49,4,2.33-1.4,3.49-2.68,3.49-4a1.55,1.55,0,0,0-1.28-1.74h-.46a1.44,1.44,0,0,0-1.28.81c-.12.35-.47.47-.7.23a.24.24,0,0,1-.23-.23,1.44,1.44,0,0,0-1.28-.81m1.74,7c-.11,0-.23,0-.23-.12-3-1.63-4.42-3.37-4.42-5.12A2.65,2.65,0,0,1,8.91,8.35h.47a2.37,2.37,0,0,1,1.74.7,2.41,2.41,0,0,1,1.75-.7,2.66,2.66,0,0,1,2.91,2.45v.46c0,1.75-1.4,3.49-4.42,5.12,0,.12-.12.12-.24.12M7.05,1.38A1.78,1.78,0,0,0,5.31,3.12V21.73a1.79,1.79,0,0,0,1.74,1.75h3.72l-.11-.12a2.3,2.3,0,0,1-.47-2.09A1.9,1.9,0,0,1,11.94,20a3.43,3.43,0,0,1,1.74.58,3.21,3.21,0,0,0,2.1.58A1.1,1.1,0,0,0,16.94,20V3.12a2.4,2.4,0,0,0-.47-1.28,2.42,2.42,0,0,0-1.28-.46ZM22.17,28.13a.55.55,0,0,1-.58-.58V17.08A4.22,4.22,0,0,0,18.1,13v7a2.32,2.32,0,0,1-2.32,2.32A4.93,4.93,0,0,1,13,21.5a1.85,1.85,0,0,0-1-.35.59.59,0,0,0-.58.47.91.91,0,0,0,.23,1l4.07,4.54a.56.56,0,0,1,0,.81.55.55,0,0,1-.81,0l-3-3.37H7.05a2.88,2.88,0,0,1-2.91-2.91V3.12A2.88,2.88,0,0,1,7.05.21h8.14A2.88,2.88,0,0,1,18.1,3.12v8.72a5.28,5.28,0,0,1,4.66,5.24V27.55a.55.55,0,0,1-.59.58" transform="translate(-4.14 -0.21)"/></svg>