<svg id="Capa_1" data-name="Capa 1" xmlns="http://www.w3.org/2000/svg" viewBox="0 0 24.97 28.09"><defs><style>.cls-1{fill:#fff;}</style></defs><path class="cls-1" d="M13.36,1.71a6.2,6.2,0,1,0,6.2,6.19,6.21,6.21,0,0,0-6.2-6.19M12.59,25H4.84A3.83,3.83,0,0,1,1,21.08V20a3.91,3.91,0,0,1,2.32-3.56L8.72,14a7.69,7.69,0,1,1,12.39-6,7.64,7.64,0,0,1-2.94,6l4,1.7a.8.8,0,0,1,.46,1.09.79.79,0,0,1-1.08.46L16.46,15a6.86,6.86,0,0,1-3.1.62A6.84,6.84,0,0,1,10.27,15L3.91,18a2,2,0,0,0-1.39,2v1.09A2.38,2.38,0,0,0,4.84,23.4h7.75a.78.78,0,0,1,0,1.55M25.6,28a.72.72,0,0,1-1.09,0c-.11-.11-.22-.44-.32-.56l.07-4.6L18.92,28a.78.78,0,1,1-1.08-1.12l5.34-5.17-4.6-.08a.77.77,0,0,1,0-1.53l6.58.11a.74.74,0,0,1,.75.78l-.1,6.57a1.53,1.53,0,0,1-.23.43" transform="translate(-0.97 -0.16)"/></svg>