<svg id="Capa_1" data-name="Capa 1" xmlns="http://www.w3.org/2000/svg" viewBox="0 0 24.81 28"><defs><style>.cls-1{fill:#fff;}</style></defs><path class="cls-1" d="M13,1.67a6,6,0,1,0,6,6,6,6,0,0,0-6-6m-.75,22.49H4.79a3.71,3.71,0,0,1-3.74-3.75V19.36a3.8,3.8,0,0,1,2.24-3.45l5.25-2.4a7.44,7.44,0,1,1,12-5.84,7.36,7.36,0,0,1-2.85,5.84l3.9,1.65a.81.81,0,1,1-.6,1.5L16,14.56a6.67,6.67,0,0,1-3,.6,6.72,6.72,0,0,1-3-.6L3.89,17.41a1.94,1.94,0,0,0-1.34,1.95v1.05a2.3,2.3,0,0,0,2.24,2.25h7.5a.75.75,0,1,1,0,1.5" transform="translate(-1.05 -0.18)"/><path class="cls-1" d="M24.43,21.77c0,1.57-1.42,3.13-4.27,4.84-2.84-1.71-4.27-3.27-4.27-4.84v-.56A1.92,1.92,0,0,1,18,19.64a1.74,1.74,0,0,1,1.56,1,.31.31,0,0,0,.29.28c.28.29.71.14.85-.28a1.77,1.77,0,0,1,1.57-1h.57a1.91,1.91,0,0,1,1.56,2.13M22.3,18.22a2.89,2.89,0,0,0-2.14.85A2.89,2.89,0,0,0,18,18.22h-.57a3.23,3.23,0,0,0-3,3.55c0,2.14,1.71,4.27,5.41,6.27,0,.14.14.14.28.14s.29,0,.29-.14c3.7-2,5.4-4.13,5.4-6.27v-.56a3.23,3.23,0,0,0-3.55-3" transform="translate(-1.05 -0.18)"/></svg>