<svg id="Capa_1" data-name="Capa 1" xmlns="http://www.w3.org/2000/svg" viewBox="0 0 26.42 25.98"><defs><style>.cls-1{fill:#fff;}</style></defs><path class="cls-1" d="M9.49,10.3V11c0,.13-.13.39-.13.52l-.8.78.8.78,2.51,1.3.13.13,1.32,1.3c.13.13.13.26.13.52v1l1.19,1.17c.13.13.13.26.13.52v3.63l.66.65.79-.78,1.19-2.33V17.71c0-.13.13-.39.13-.52l2.12-2.08-.79-.78c-.14-.13-.14-.26-.14-.52v-1.3a.62.62,0,0,1,.66-.65h2V11A.62.62,0,0,1,22,10.3h2.64A12,12,0,0,0,13.45,2.51h-.26l.13.39c.13,0,.13.13.13.26v1.3c0,.13-.13.39-.13.52l-.27.13c.14,0,.14.13.27.13l1,1.17h.4V5.76a.62.62,0,0,1,.66-.65h2.64a.62.62,0,0,1,.66.65v1L19.92,8a1.21,1.21,0,0,1,.13.39V9.65c0,.13-.13.39-.13.52l-1.32,1.3c-.13.13-.26.13-.53.13H16.75c-.13,0-.26,0-.26-.13l-2.64-1.3L13.71,10l-.79-.78-.79.78a2.23,2.23,0,0,1-.66.26Zm2.24-7.66a11.68,11.68,0,0,0-10,13.25,11.8,11.8,0,0,0,13.48,9.87,11.75,11.75,0,0,0,10-13.25c0-.26-.14-.65-.14-.91H22.7v.65a.62.62,0,0,1-.66.65h-2v.39l1.19,1.17a.61.61,0,0,1,0,.91l-2.51,2.34v2.34c0,.13,0,.26-.13.26L17.28,22.9l-.13.13-1.32,1.3a.65.65,0,0,1-.93,0L13.58,23c-.13-.13-.13-.26-.13-.52V18.88l-1.19-1.17c-.13-.13-.13-.26-.13-.52v-1l-1.06-1-2.51-1.3-.13-.13-1.32-1.3c-.13.26-.26,0-.26-.13s.13-.39.13-.52l1.19-1v-1A.62.62,0,0,1,8.83,9H11.2l1.19-1.16a1.4,1.4,0,0,1,.4-.13c.13,0,.4.13.53.13L14.51,9l2.37,1.3h.93l.92-.91V8.61L17.54,7.45a1.31,1.31,0,0,1-.13-.39V6.41H16.09v.65a.62.62,0,0,1-.66.65H14.11c-.13,0-.4-.13-.53-.13L12.53,6.41H11.47a.62.62,0,0,1-.66-.65c0-.13.13-.39.13-.52l1.19-1V3.29Zm1.72,24.55A13.14,13.14,0,0,1,.24,14.2a13.14,13.14,0,0,1,13.21-13,13.14,13.14,0,0,1,13.21,13,13.14,13.14,0,0,1-13.21,13" transform="translate(-0.24 -1.21)"/></svg>