<svg id="Capa_1" data-name="Capa 1" xmlns="http://www.w3.org/2000/svg" viewBox="0 0 26.54 28.02"><defs><style>.cls-1{fill:#fff;}</style></defs><path class="cls-1" d="M26.68,9.69A2.78,2.78,0,0,0,23.89,7L20.27,7l.09-.08a4,4,0,0,0,1.27-3,3.88,3.88,0,0,0-1-2.57A3.72,3.72,0,0,0,17.72.19a4.46,4.46,0,0,0-3.95,2.32,6.6,6.6,0,0,0-.42.89,6.06,6.06,0,0,0-.45-.88A4.44,4.44,0,0,0,8.9.3,3.72,3.72,0,0,0,6,1.58a3.91,3.91,0,0,0-.94,2.59A4,4,0,0,0,6.43,7.11l.09.08-3.62,0A2.75,2.75,0,0,0,.18,10l.05,3.5A2.76,2.76,0,0,0,3,16.25h.19l.12,9.25A2.76,2.76,0,0,0,6,28.21h0L21.23,28A2.75,2.75,0,0,0,24,25.23L23.84,16H24a2.74,2.74,0,0,0,2.72-2.78ZM14.75,3.08a3.32,3.32,0,0,1,3-1.76h.05a2.67,2.67,0,0,1,2,.83A2.82,2.82,0,0,1,20.51,4a2.87,2.87,0,0,1-.93,2.14,3.39,3.39,0,0,1-2.33.94h-.09L14,7.1V6.29a6.58,6.58,0,0,1,.8-3.21M6.21,4.16a2.8,2.8,0,0,1,.66-1.85,2.65,2.65,0,0,1,2.05-.88H9a3.3,3.3,0,0,1,3,1.68,6.49,6.49,0,0,1,.88,3.19v.81l-3.29,0a3.46,3.46,0,0,1-2.36-.87,2.91,2.91,0,0,1-1-2.12M24,14.86l-2.82,0a.57.57,0,1,0,0,1.13l1.53,0,.12,9.25a1.63,1.63,0,0,1-1.61,1.64l-7,.09,0-2.18a.57.57,0,0,0-.57-.56h0a.57.57,0,0,0-.56.57l0,2.18-7,.09a1.63,1.63,0,0,1-1.65-1.61L4.3,16.23l1.61,0a.57.57,0,0,0,0-1.13l-2.18,0H3a1.63,1.63,0,0,1-1.65-1.61l0-3.5a1.61,1.61,0,0,1,.46-1.16,1.64,1.64,0,0,1,1.15-.49l9.93-.12,0,3.11a.57.57,0,0,0,.57.56h0a.57.57,0,0,0,.56-.57l0-3.12,3.2,0h.1L23.9,8.1a1.62,1.62,0,0,1,1.65,1.61l0,3.5A1.63,1.63,0,0,1,24,14.86" transform="translate(-0.18 -0.19)"/><path class="cls-1" d="M16.08,12.33h0a3.51,3.51,0,0,0-2.58,1.15,3.45,3.45,0,0,0-2.58-1.12,3.5,3.5,0,0,0-3.48,3.51c0,1.56,1,3.22,2.81,4.94A20.78,20.78,0,0,0,13.11,23l.14.08a.57.57,0,0,0,.58,0L14,23a19.17,19.17,0,0,0,2.85-2.2c1.84-1.73,2.77-3.4,2.76-5a3.5,3.5,0,0,0-3.5-3.49m-2.55,9.59c-.86-.55-5-3.31-5-6.05a2.36,2.36,0,0,1,2.36-2.38h0A2.37,2.37,0,0,1,13,14.71a.55.55,0,0,0,.49.29h0a.54.54,0,0,0,.49-.29,2.37,2.37,0,0,1,2.08-1.25h0a2.38,2.38,0,0,1,2.38,2.36c0,2.74-4.07,5.54-4.93,6.1" transform="translate(-0.18 -0.19)"/><path class="cls-1" d="M16.08,14.14h0a.56.56,0,0,0-.57.57.57.57,0,0,0,.57.56h0a.55.55,0,0,1,.4.16.56.56,0,0,1,.17.4.56.56,0,0,0,.56.56h0a.56.56,0,0,0,.56-.56,1.71,1.71,0,0,0-1.7-1.69" transform="translate(-0.18 -0.19)"/></svg>