<svg id="Capa_1" data-name="Capa 1" xmlns="http://www.w3.org/2000/svg" viewBox="0 0 24.74 27.93"><defs><style>.cls-1{fill:#fff;}</style></defs><path class="cls-1" d="M13.48,7.85A3.83,3.83,0,1,0,9.64,4a3.84,3.84,0,0,0,3.84,3.83m0-6.61A2.78,2.78,0,1,1,10.69,4a2.78,2.78,0,0,1,2.79-2.78" transform="translate(-1.08 -0.19)"/><path class="cls-1" d="M20.62,17.41V12.33a3.9,3.9,0,0,0-3.89-3.9H10.22a3.9,3.9,0,0,0-3.89,3.9v5.08a1.87,1.87,0,0,0,2.78,1.76V26a2,2,0,0,0,2,2.12A2.11,2.11,0,0,0,13.15,26V20.11a.33.33,0,0,1,.65,0V26a2.1,2.1,0,0,0,2.08,2.12A2,2,0,0,0,17.84,26V19.17a1.87,1.87,0,0,0,2.78-1.76m-2.76,0a.59.59,0,0,0,0-.13V12.49a.52.52,0,0,0-.52-.52.52.52,0,0,0-.53.52v6h0V26a1,1,0,0,1-.9,1.06,1,1,0,0,1-1-1.06V20.11a1.39,1.39,0,0,0-2.77,0V26a1,1,0,0,1-1,1.06,1,1,0,0,1-.9-1.06V18.5h0v-6A.53.53,0,0,0,9.63,12a.52.52,0,0,0-.52.53v4.79a.59.59,0,0,0,0,.13.93.93,0,0,1-.92.95.85.85,0,0,1-.79-.95V12.33a2.85,2.85,0,0,1,2.84-2.85h6.51a2.85,2.85,0,0,1,2.84,2.85v5.08a.85.85,0,0,1-.79.95.93.93,0,0,1-.92-.95" transform="translate(-1.08 -0.19)"/><path class="cls-1" d="M4.61,11a.5.5,0,0,0,.33.12.53.53,0,0,0,.34-.93,2.24,2.24,0,0,1-.83-1.74A2.27,2.27,0,0,1,6.72,6.19,2.25,2.25,0,0,1,8.65,7.27a.52.52,0,0,0,.72.17.51.51,0,0,0,.17-.72A3.29,3.29,0,0,0,6.72,5.14,3.32,3.32,0,0,0,3.4,8.46,3.28,3.28,0,0,0,4.61,11" transform="translate(-1.08 -0.19)"/><path class="cls-1" d="M7.2,20.37A1.25,1.25,0,0,0,6,21.62v4.63a.8.8,0,0,1-.79.81.72.72,0,0,1-.68-.81v-6h0v-4.7A.53.53,0,0,0,4,15a.52.52,0,0,0-.52.53v3.67a.5.5,0,0,0,0,.12.71.71,0,0,1-.69.72c-.41,0-.59-.36-.59-.72V15.41a2.32,2.32,0,0,1,2.32-2.32A.52.52,0,0,0,5,12.57.53.53,0,0,0,4.45,12h-.3a3.38,3.38,0,0,0-3.07,3.36v3.93a1.67,1.67,0,0,0,1.64,1.77A1.88,1.88,0,0,0,3.43,21v5.29a1.77,1.77,0,0,0,1.73,1.87A1.86,1.86,0,0,0,7,26.25V21.62a.2.2,0,0,1,.2-.2.52.52,0,0,0,.52-.52.52.52,0,0,0-.52-.53" transform="translate(-1.08 -0.19)"/><path class="cls-1" d="M17.53,7.44a.52.52,0,0,0,.72-.17,2.25,2.25,0,0,1,1.93-1.08,2.27,2.27,0,0,1,2.27,2.27,2.22,2.22,0,0,1-.83,1.74.53.53,0,0,0,.34.93.52.52,0,0,0,.33-.12A3.28,3.28,0,0,0,23.5,8.46a3.32,3.32,0,0,0-3.32-3.32,3.29,3.29,0,0,0-2.82,1.58.51.51,0,0,0,.17.72" transform="translate(-1.08 -0.19)"/><path class="cls-1" d="M22.75,12.05h-.3a.53.53,0,0,0-.53.53.52.52,0,0,0,.53.52,2.32,2.32,0,0,1,2.32,2.32v3.93c0,.36-.18.72-.59.72a.71.71,0,0,1-.69-.72.5.5,0,0,0,0-.12V15.55A.52.52,0,0,0,23,15a.53.53,0,0,0-.53.53v4.7h0v6a.72.72,0,0,1-.68.81.8.8,0,0,1-.79-.81V21.62a1.25,1.25,0,0,0-1.25-1.25.52.52,0,0,0-.52.53.52.52,0,0,0,.52.52.2.2,0,0,1,.2.2v4.63a1.86,1.86,0,0,0,1.84,1.87,1.77,1.77,0,0,0,1.73-1.87V21a1.71,1.71,0,0,0,.71.16,1.67,1.67,0,0,0,1.64-1.77V15.41a3.37,3.37,0,0,0-3.07-3.36" transform="translate(-1.08 -0.19)"/></svg>