<svg id="Capa_1" data-name="Capa 1" xmlns="http://www.w3.org/2000/svg" xmlns:xlink="http://www.w3.org/1999/xlink" viewBox="0 0 713.82 713.82"><defs><style>.cls-1,.cls-4{fill:none;}.cls-2{clip-path:url(#clip-path);}.cls-3{fill:#6aaae4;}.cls-4{stroke:#fff;stroke-miterlimit:10;stroke-width:3px;}.cls-5{fill:#4a5b6d;}.cls-6{fill:#ee7402;}.cls-7{fill:#76bc21;}.cls-8{fill:#fff;}.cls-9{fill:#004b93;}.cls-10{fill:#fbb800;}</style><clipPath id="clip-path" transform="translate(-13.09 -5.59)"><rect class="cls-1" x="12.79" y="5.29" width="714.42" height="714.42"/></clipPath></defs><g class="cls-2"><path class="cls-3" d="M369.8,362.3H14.59c0-196.18,159-355.21,355.21-355.21Z" transform="translate(-13.09 -5.59)"/><path class="cls-4" d="M369.8,362.3H14.59c0-196.18,159-355.21,355.21-355.21Z" transform="translate(-13.09 -5.59)"/><path class="cls-5" d="M369.8,362.7V717.91c-196.18,0-355.21-159-355.21-355.21Z" transform="translate(-13.09 -5.59)"/><path class="cls-4" d="M369.8,362.7V717.91c-196.18,0-355.21-159-355.21-355.21Z" transform="translate(-13.09 -5.59)"/><path class="cls-6" d="M370.2,362.7H725.41c0,196.18-159,355.21-355.21,355.21Z" transform="translate(-13.09 -5.59)"/><path class="cls-4" d="M370.2,362.7H725.41c0,196.18-159,355.21-355.21,355.21Z" transform="translate(-13.09 -5.59)"/><path class="cls-7" d="M370.2,362.3V7.09c196.18,0,355.21,159,355.21,355.21Z" transform="translate(-13.09 -5.59)"/><path class="cls-4" d="M370.2,362.3V7.09c196.18,0,355.21,159,355.21,355.21Z" transform="translate(-13.09 -5.59)"/><path class="cls-8" d="M368.8,676.6c173.43,0,314-140.59,314-314s-140.59-314-314-314-314,140.59-314,314,140.59,314,314,314" transform="translate(-13.09 -5.59)"/></g><path class="cls-9" d="M307.88,327.14a.52.52,0,0,1,.52-.52h11.42a.52.52,0,0,1,.52.52v3a.52.52,0,0,1-.52.52h-7.64v3.42h6.29a.55.55,0,0,1,.52.53v3a.53.53,0,0,1-.52.53h-6.29v3.72h7.64a.52.52,0,0,1,.52.52v3a.52.52,0,0,1-.52.52H308.4a.52.52,0,0,1-.52-.52Z" transform="translate(-13.09 -5.59)"/><path class="cls-9" d="M326.35,326.79a.52.52,0,0,1,.49-.45h.44a.6.6,0,0,1,.47.28l6.4,11.91h.06l6.39-11.91a.6.6,0,0,1,.47-.28h.44a.54.54,0,0,1,.5.45l3.11,18.52a.5.5,0,0,1-.52.61h-3.25a.57.57,0,0,1-.53-.44L339.58,337h-.05l-4.64,8.93a.64.64,0,0,1-.46.31h-.5a.59.59,0,0,1-.47-.31L328.8,337h-.05l-1.22,8.52a.54.54,0,0,1-.52.44h-3.25a.51.51,0,0,1-.53-.61Z" transform="translate(-13.09 -5.59)"/><path class="cls-9" d="M348.81,327.14a.52.52,0,0,1,.53-.52H356a6.15,6.15,0,1,1,0,12.3h-2.9v6.48a.54.54,0,0,1-.52.52h-3.25a.52.52,0,0,1-.53-.52Zm7.09,7.75a2,2,0,0,0,2-2.18,2,2,0,0,0-2-2h-2.79v4.22Z" transform="translate(-13.09 -5.59)"/><path class="cls-9" d="M365.1,327.14a.53.53,0,0,1,.53-.52h8.24a5.89,5.89,0,0,1,1.93,11.5l3.78,7a.52.52,0,0,1-.47.8h-3.67a.51.51,0,0,1-.44-.25l-3.66-7.3h-1.91v7a.54.54,0,0,1-.52.52h-3.28a.53.53,0,0,1-.53-.52Zm8.41,7.72a2.12,2.12,0,0,0,2.1-2.2,2,2,0,0,0-2.1-2.1h-4.08v4.3Z" transform="translate(-13.09 -5.59)"/><path class="cls-9" d="M383.79,327.14a.53.53,0,0,1,.53-.52h11.41a.52.52,0,0,1,.53.52v3a.52.52,0,0,1-.53.52H388.1v3.42h6.28a.55.55,0,0,1,.53.53v3a.53.53,0,0,1-.53.53H388.1v3.72h7.63a.52.52,0,0,1,.53.52v3a.52.52,0,0,1-.53.52H384.32a.53.53,0,0,1-.53-.52Z" transform="translate(-13.09 -5.59)"/><path class="cls-9" d="M399.56,344.07a.62.62,0,0,1-.11-.82l1.27-2.24a.64.64,0,0,1,.94-.16,7.1,7.1,0,0,0,3.91,1.51,1.73,1.73,0,0,0,1.91-1.65c0-1.16-1-1.9-2.84-2.79-2.68-1.29-5.35-2.78-5.35-6.09,0-2.73,2.12-5.49,6.37-5.49a10.33,10.33,0,0,1,5.9,2.07.7.7,0,0,1,.16.88l-1.4,2.13a.87.87,0,0,1-1.22.19,7.51,7.51,0,0,0-3.72-1.49,1.5,1.5,0,0,0-1.68,1.52c0,.91,1.07,1.62,3,2.56,2.43,1.19,5.57,2.54,5.57,6.29,0,2.84-2.45,5.71-6.5,5.71A8.74,8.74,0,0,1,399.56,344.07Z" transform="translate(-13.09 -5.59)"/><path class="cls-9" d="M413.59,345.2l8.63-18.55a.57.57,0,0,1,.47-.31H423a.57.57,0,0,1,.47.31l8.63,18.55a.49.49,0,0,1-.47.72h-3.06c-.5,0-.72-.17-1-.69l-1-2.18h-7.5l-1,2.21a1,1,0,0,1-1,.66h-3A.49.49,0,0,1,413.59,345.2Zm11.34-5.9-2.1-4.55h0l-2.07,4.55Z" transform="translate(-13.09 -5.59)"/><path class="cls-9" d="M268.26,360.22a.53.53,0,0,1,.53-.52H277A5.89,5.89,0,0,1,279,371.2l3.78,7a.52.52,0,0,1-.47.8H278.6a.51.51,0,0,1-.44-.25l-3.66-7.3h-1.91v7a.54.54,0,0,1-.52.52h-3.28a.53.53,0,0,1-.53-.52Zm8.41,7.72a2.12,2.12,0,0,0,2.1-2.2,2,2,0,0,0-2.1-2.1h-4.08v4.3Z" transform="translate(-13.09 -5.59)"/><path class="cls-9" d="M287,360.22a.53.53,0,0,1,.53-.52h11.41a.52.52,0,0,1,.53.52v3a.52.52,0,0,1-.53.52h-7.63v3.42h6.28a.55.55,0,0,1,.53.53v3a.53.53,0,0,1-.53.53h-6.28V375h7.63a.52.52,0,0,1,.53.52v3a.52.52,0,0,1-.53.52H287.48a.53.53,0,0,1-.53-.52Z" transform="translate(-13.09 -5.59)"/><path class="cls-9" d="M312,359.45a10.66,10.66,0,0,1,6.72,2.59.49.49,0,0,1,.06.75l-2.18,2.31a.56.56,0,0,1-.74,0,5.1,5.1,0,0,0-3.62-1.32,5.53,5.53,0,0,0,0,11.05,6.57,6.57,0,0,0,2.46-.44v-1.6H313a.5.5,0,0,1-.52-.49V369.6a.51.51,0,0,1,.52-.53h5.54a.52.52,0,0,1,.5.53l0,7.42a.49.49,0,0,1-.23.44,13.93,13.93,0,0,1-6.83,1.79,9.9,9.9,0,1,1,0-19.8Z" transform="translate(-13.09 -5.59)"/><path class="cls-9" d="M323.34,360.22a.52.52,0,0,1,.53-.52h11.41a.53.53,0,0,1,.53.52v3a.53.53,0,0,1-.53.52h-7.64v3.42h6.29a.54.54,0,0,1,.52.53v3a.53.53,0,0,1-.52.53h-6.29V375h7.64a.53.53,0,0,1,.53.52v3a.53.53,0,0,1-.53.52H323.87a.52.52,0,0,1-.53-.52Z" transform="translate(-13.09 -5.59)"/><path class="cls-9" d="M339.91,359.92a.52.52,0,0,1,.52-.5h.42c.27,0,.47.2.69.42L352.12,370h0v-9.79a.52.52,0,0,1,.53-.52H356a.55.55,0,0,1,.53.52v18.56a.49.49,0,0,1-.53.5h-.27A.89.89,0,0,1,355,379l-10.73-10.78h0v10.29a.52.52,0,0,1-.53.52h-3.28a.54.54,0,0,1-.52-.52Z" transform="translate(-13.09 -5.59)"/><path class="cls-9" d="M361.36,360.22a.52.52,0,0,1,.52-.52h11.41a.52.52,0,0,1,.53.52v3a.52.52,0,0,1-.53.52h-7.63v3.42h6.28a.55.55,0,0,1,.53.53v3a.53.53,0,0,1-.53.53h-6.28V375h7.63a.52.52,0,0,1,.53.52v3a.52.52,0,0,1-.53.52H361.88a.52.52,0,0,1-.52-.52Z" transform="translate(-13.09 -5.59)"/><path class="cls-9" d="M378,360.22a.52.52,0,0,1,.52-.52h8.25a5.89,5.89,0,0,1,1.93,11.5l3.77,7a.52.52,0,0,1-.46.8h-3.67a.5.5,0,0,1-.44-.25l-3.67-7.3h-1.9v7a.55.55,0,0,1-.53.52H378.5a.52.52,0,0,1-.52-.52Zm8.41,7.72a2.12,2.12,0,0,0,2.09-2.2,2,2,0,0,0-2.09-2.1h-4.08v4.3Z" transform="translate(-13.09 -5.59)"/><path class="cls-9" d="M394.82,378.28l8.63-18.55a.56.56,0,0,1,.47-.31h.28a.54.54,0,0,1,.46.31l8.63,18.55a.48.48,0,0,1-.46.72h-3.06c-.5,0-.72-.16-1-.69l-1-2.18h-7.5l-1,2.21a1,1,0,0,1-1,.66h-3A.49.49,0,0,1,394.82,378.28Zm11.33-5.9-2.09-4.55h0L402,372.38Z" transform="translate(-13.09 -5.59)"/><path class="cls-9" d="M417.4,363.75h-3.94a.52.52,0,0,1-.53-.52v-3a.52.52,0,0,1,.53-.52H425.7a.52.52,0,0,1,.52.52v3a.52.52,0,0,1-.52.52h-3.94v14.73a.55.55,0,0,1-.53.52h-3.31a.54.54,0,0,1-.52-.52Z" transform="translate(-13.09 -5.59)"/><path class="cls-9" d="M429.14,360.22a.55.55,0,0,1,.53-.52H433a.55.55,0,0,1,.53.52v18.26a.55.55,0,0,1-.53.52h-3.3a.55.55,0,0,1-.53-.52Z" transform="translate(-13.09 -5.59)"/><path class="cls-9" d="M450,360a.55.55,0,0,1,.47-.3h3.66a.49.49,0,0,1,.47.72L445.9,379a.51.51,0,0,1-.46.31h-.28a.52.52,0,0,1-.47-.31l-8.6-18.55a.49.49,0,0,1,.47-.72h3.66a.55.55,0,0,1,.47.3l4.55,10.07h.17Z" transform="translate(-13.09 -5.59)"/><path class="cls-9" d="M453.21,378.28l8.63-18.55a.55.55,0,0,1,.47-.31h.27a.56.56,0,0,1,.47.31l8.63,18.55a.49.49,0,0,1-.47.72h-3.06c-.5,0-.72-.16-1-.69l-1-2.18h-7.5l-1,2.21a1,1,0,0,1-1,.66h-3A.49.49,0,0,1,453.21,378.28Zm11.33-5.9-2.1-4.55h0l-2.07,4.55Z" transform="translate(-13.09 -5.59)"/><g class="cls-2"><path class="cls-10" d="M370.28,269.16c14,0,25.43-7.26,27-16.61L411,96.76c0-15.39-18-28-40.71-28s-40.68,12.64-40.68,28l13.77,155.79c1.51,9.35,13,16.61,26.94,16.61Z" transform="translate(-13.09 -5.59)"/><path class="cls-10" d="M286.08,317.84c7-12.07,6.44-25.66-.9-31.69l-128-89.8c-13.3-7.69-33.27,1.59-44.62,21.24s-9.35,41.53,3.94,49.24l141.78,66c8.89,3.33,20.94-3,27.88-15.05Z" transform="translate(-13.09 -5.59)"/><path class="cls-10" d="M454.54,317.77c7,12,19,18.37,27.87,15.05l141.8-66c13.35-7.7,15.27-29.63,4-49.24s-31.33-28.93-44.65-21.24l-128,89.8c-7.34,6-7.87,19.62-.92,31.69Z" transform="translate(-13.09 -5.59)"/><path class="cls-10" d="M454.54,415.12c7-12.1,19-18.37,27.87-15.06l141.8,66c13.35,7.7,15.27,29.64,4,49.27s-31.33,28.9-44.65,21.21l-128-89.77c-7.34-6.05-7.87-19.64-.92-31.68Z" transform="translate(-13.09 -5.59)"/><path class="cls-10" d="M286.08,415.07c7,12,6.44,25.62-.9,31.68l-128,89.77c-13.3,7.68-33.27-1.6-44.62-21.21s-9.35-41.57,3.94-49.27l141.78-66c8.89-3.31,20.94,3,27.9,15.06Z" transform="translate(-13.09 -5.59)"/><path class="cls-10" d="M370.28,463.71c14,0,25.43,7.23,27,16.6L411,636.08c0,15.42-18,28.07-40.71,28.07s-40.68-12.65-40.68-28.07l13.77-155.77c1.51-9.37,13-16.6,26.94-16.6Z" transform="translate(-13.09 -5.59)"/><path class="cls-10" d="M370.28,269.16c14,0,25.43-7.26,27-16.61L411,96.76c0-15.39-18-28-40.71-28s-40.68,12.64-40.68,28l13.77,155.79c1.51,9.35,13,16.61,26.94,16.61Z" transform="translate(-13.09 -5.59)"/><path class="cls-10" d="M286.08,317.84c7-12.07,6.44-25.66-.9-31.69l-128-89.8c-13.3-7.69-33.27,1.59-44.62,21.24s-9.35,41.53,3.94,49.24l141.78,66c8.89,3.33,20.94-3,27.88-15.05Z" transform="translate(-13.09 -5.59)"/><path class="cls-10" d="M454.54,317.77c7,12,19,18.37,27.87,15.05l141.8-66c13.35-7.7,15.27-29.63,4-49.24s-31.33-28.93-44.65-21.24l-128,89.8c-7.34,6-7.87,19.62-.92,31.69Z" transform="translate(-13.09 -5.59)"/><path class="cls-10" d="M454.54,415.12c7-12.1,19-18.37,27.87-15.06l141.8,66c13.35,7.7,15.27,29.64,4,49.27s-31.33,28.9-44.65,21.21l-128-89.77c-7.34-6.05-7.87-19.64-.92-31.68Z" transform="translate(-13.09 -5.59)"/><path class="cls-10" d="M286.08,415.07c7,12,6.44,25.62-.9,31.68l-128,89.77c-13.3,7.68-33.27-1.6-44.62-21.21s-9.35-41.57,3.94-49.27l141.78-66c8.89-3.31,20.94,3,27.9,15.06Z" transform="translate(-13.09 -5.59)"/><path class="cls-10" d="M370.28,463.71c14,0,25.43,7.23,27,16.6L411,636.08c0,15.42-18,28.07-40.71,28.07s-40.68-12.65-40.68-28.07l13.77-155.77c1.51-9.37,13-16.6,26.94-16.6Z" transform="translate(-13.09 -5.59)"/><path class="cls-10" d="M429.37,629.08a9.4,9.4,0,1,1-.05,18.79,9.4,9.4,0,1,1,0-18.79Zm-.12,2.12a7.26,7.26,0,0,0,.07,14.51,7.26,7.26,0,0,0,0-14.51ZM428,643.09h-2.44v-9a23.06,23.06,0,0,1,3.71-.33c1.89,0,2.73.27,3.34.72a2.2,2.2,0,0,1,1,1.94c0,.95-.83,1.73-2,2.06v.11a2.68,2.68,0,0,1,1.73,2.28,8.77,8.77,0,0,0,.66,2.17h-2.72a6.17,6.17,0,0,1-.67-2.06,1.44,1.44,0,0,0-1.67-1.33H428ZM428,638H429c1,0,1.84-.38,1.84-1.16s-.62-1.23-1.73-1.23c-.45,0-.78.06-1,.06Z" transform="translate(-13.09 -5.59)"/></g></svg>