<svg id="Capa_1" data-name="Capa 1" xmlns="http://www.w3.org/2000/svg" viewBox="0 0 152.47 190.16"><defs><style>.cls-1{fill:#1f334f;}</style></defs><path class="cls-1" d="M39,7.39h0L37.44,12h3Zm3,9.47-.77-2.37H36.67l-.78,2.37H32.83L37.35,4.12h3.43l4.46,12.74Z" transform="translate(-4.26 -3.92)"/><path class="cls-1" d="M51.34,6.63H49.29V10h2.05A1.64,1.64,0,0,0,53.2,8.3c0-1.11-.71-1.67-1.86-1.67m.59,5.82H49.29v4.41H46.11V4.14h5.75c2.82,0,4.46,1.73,4.46,4.08a4,4,0,0,1-4.39,4.23" transform="translate(-4.26 -3.92)"/><path class="cls-1" d="M62.64,6.53a2,2,0,0,0-2.19,2.09v3.73a2.22,2.22,0,0,0,4.44,0V8.6a2.07,2.07,0,0,0-2.25-2.07m.06,10.55c-2.86,0-5.45-1.36-5.45-4.66V8.76c0-3.23,2.62-4.84,5.36-4.84s5.48,1.52,5.48,4.8v3.54c0,3.32-2.73,4.82-5.39,4.82" transform="translate(-4.26 -3.92)"/><polygon class="cls-1" points="71.03 7.93 71.03 12.94 67.87 12.94 67.87 7.91 63.68 0.21 67.02 0.21 69.55 5.18 72.09 0.21 75.23 0.21 71.03 7.93"/><path class="cls-1" d="M83.63,7.39h0L82.1,12h3Zm3,9.47-.77-2.37H81.33l-.79,2.37H77.49L82,4.12h3.43L89.9,16.86Z" transform="translate(-4.26 -3.92)"/><polygon class="cls-1" points="96.4 12.94 96.4 4.84 96.34 4.84 94.02 11.23 91.83 11.23 89.49 4.86 89.45 4.86 89.45 12.94 86.51 12.94 86.51 0.21 90.45 0.21 92.95 6.82 95.38 0.21 99.34 0.21 99.34 12.94 96.4 12.94"/><path class="cls-1" d="M110.48,6.53a2,2,0,0,0-2.2,2.09v3.73a2.23,2.23,0,0,0,4.45,0V8.6a2.07,2.07,0,0,0-2.25-2.07m0,10.55c-2.85,0-5.44-1.36-5.44-4.66V8.76c0-3.23,2.62-4.84,5.35-4.84s5.48,1.52,5.48,4.8v3.54c0,3.32-2.73,4.82-5.39,4.82" transform="translate(-4.26 -3.92)"/><path class="cls-1" d="M122,17.08c-2.23,0-4.17-.61-5.39-2.29l2-1.82a4,4,0,0,0,3.23,1.63c1,0,2-.32,2-1.22,0-.69-.52-.93-1.16-1.18-.32-.12-1.79-.51-2.21-.62-1.77-.45-3.29-1.39-3.29-3.55,0-2.39,2-4.11,4.82-4.11,2.23,0,3.77.63,4.79,2L124.7,7.63A3.32,3.32,0,0,0,122,6.42c-.92,0-1.73.38-1.73,1.23s.77.95,1.72,1.2l1.87.5c1.88.52,3.2,1.52,3.2,3.57,0,2.78-2.5,4.16-5.13,4.16" transform="translate(-4.26 -3.92)"/><polygon class="cls-1" points="0 17.81 0 30.54 9.41 30.54 9.41 27.93 3.18 27.93 3.18 25.4 8.39 25.4 8.39 22.83 3.18 22.83 3.18 20.4 9.37 20.4 9.37 17.81 0 17.81"/><polygon class="cls-1" points="10.67 30.54 10.67 17.81 13.85 17.81 13.85 27.93 19.92 27.93 19.92 30.54 10.67 30.54"/><path class="cls-1" d="M35.38,24.23H33.32V27.6h2.06a1.64,1.64,0,0,0,1.85-1.71c0-1.11-.71-1.66-1.85-1.66M36,30.05H33.32v4.41H30.15V21.73h5.74c2.82,0,4.47,1.73,4.47,4.09A4.05,4.05,0,0,1,36,30.05" transform="translate(-4.26 -3.92)"/><path class="cls-1" d="M45,25h-.06l-1.48,4.61h3Zm3,9.48-.76-2.38H42.69l-.78,2.38h-3l4.51-12.75H46.8l4.46,12.75Z" transform="translate(-4.26 -3.92)"/><path class="cls-1" d="M56.53,34.67c-2.8,0-5.43-1.41-5.43-4.58V26.21c0-3.12,2.54-4.69,5.34-4.69,2.48,0,5.18,1.25,5.18,4.19v.61h-3V26a1.94,1.94,0,0,0-2.11-1.9,2,2,0,0,0-2.21,2V30a2,2,0,0,0,2.25,2.06,1.9,1.9,0,0,0,2.07-1.9v-.3h3v.63c0,2.92-2.63,4.17-5.09,4.17" transform="translate(-4.26 -3.92)"/><polygon class="cls-1" points="64.44 20.36 64.44 30.54 61.24 30.54 61.24 20.38 57.62 20.38 57.62 17.81 68.04 17.81 68.04 20.36 64.44 20.36"/><path class="cls-1" d="M78,24.12a2,2,0,0,0-2.2,2.09v3.73a2.23,2.23,0,0,0,4.45,0V26.19A2.08,2.08,0,0,0,78,24.12m0,10.55c-2.86,0-5.44-1.35-5.44-4.66V26.35c0-3.23,2.62-4.83,5.35-4.83s5.48,1.51,5.48,4.8v3.53c0,3.32-2.73,4.82-5.39,4.82" transform="translate(-4.26 -3.92)"/><path class="cls-1" d="M94.9,34.67c-2.8,0-5.42-1.23-5.42-4.58V26.21c0-3.12,2.53-4.69,5.34-4.69,2.48,0,5.23,1.16,5.23,4.12v.46h-3v-.23a1.89,1.89,0,0,0-2.13-1.82,2,2,0,0,0-2.25,2V30a2.06,2.06,0,0,0,2.25,2.11A1.82,1.82,0,0,0,97,30.26v-.32H94.42V27.57h5.63V30.5c0,2.92-2.68,4.17-5.15,4.17" transform="translate(-4.26 -3.92)"/><polygon class="cls-1" points="97.19 30.54 97.19 17.81 100.37 17.81 100.37 27.93 106.44 27.93 106.44 30.54 97.19 30.54"/><path class="cls-1" d="M116.79,24.12a2,2,0,0,0-2.2,2.09v3.73A2.23,2.23,0,0,0,119,30V26.19a2.08,2.08,0,0,0-2.25-2.07m0,10.55c-2.85,0-5.44-1.35-5.44-4.66V26.35c0-3.23,2.62-4.83,5.35-4.83s5.48,1.51,5.48,4.8v3.53c0,3.32-2.73,4.82-5.39,4.82" transform="translate(-4.26 -3.92)"/><path class="cls-1" d="M129.44,29.17h-2.51V32h2.53a1.43,1.43,0,0,0,1.61-1.45c0-.84-.57-1.34-1.63-1.34m-.16-5h-2.35V26.8h2.42a1.34,1.34,0,0,0,1.52-1.37c0-.95-.77-1.24-1.59-1.24m1.13,10.27h-6.66V21.73h6.48c2.5,0,3.8,1.29,3.8,3.23a2.92,2.92,0,0,1-1.91,2.86v0a3,3,0,0,1,2.18,3,3.6,3.6,0,0,1-3.89,3.64" transform="translate(-4.26 -3.92)"/><path class="cls-1" d="M140.35,25h0l-1.49,4.61h3Zm3,9.48-.77-2.38h-4.55l-.79,2.38h-3l4.52-12.75h3.42l4.47,12.75Z" transform="translate(-4.26 -3.92)"/><polygon class="cls-1" points="143.22 17.81 143.22 30.54 152.47 30.54 152.47 27.93 146.4 27.93 146.4 17.81 143.22 17.81"/><path class="cls-1" d="M108.3,59c-1.36,3-.94,5.54.81,6.46s4-.35,5.57-3.18,1.34-5.26-.8-6.37S109.64,56,108.3,59m-2.39-.66c1.68-3.63,5-5,8.64-3.1,3.35,1.7,4.1,4.83,2.4,7.91-1.83,3.37-5.24,4.75-8.59,3.07-3-1.52-4-4.64-2.45-7.88m46.54,57-10,.75-.5,2-.49,0c-.11-3.26-.49-6.32-.49-6.32l.52,0,.78,1.94,10.05-.77-.23-2.55-2.58-.71-.06-.72,3.44-.26a86.66,86.66,0,0,1,.8,10.72l-3.42.26-.05-.74,2.44-1.11ZM141,106.66l2.68.27.21.78-2.93.62-.15-.25a14.4,14.4,0,0,1-1.53-3.39c-1-3.66.61-6.25,4.22-7.44,3.8-1.26,6.93.68,8,4.7a15.4,15.4,0,0,1,.45,3.91l-3,.77-.2-.78,2.14-1.5a4.19,4.19,0,0,0-.17-1.13c-.94-3.4-3.43-4.71-6.56-3.64s-4.46,3.08-3.68,6a6.87,6.87,0,0,0,.45,1.06Zm-1.82-18,1.37,2.8,3.16-3.11Zm-.94.11-3.75.28.06,1.53-.48.23c-.94-1.73-2.07-3.57-2.07-3.57l.47-.26,1.19,1,12.43-.7.43,1-8.35,8.82.05,1.52-.47.22c-1-2.48-2-4.77-2-4.77l.46-.22,1.19,1L140,92.09Zm-3.9-8.35a2.61,2.61,0,0,0,1.56,1.26,3,3,0,0,0,2.44-.5,2.85,2.85,0,0,0,1.24-1.81,2.24,2.24,0,0,0-.58-1.87l-.73-.9L134,79.93Zm-1,0-3.12,2.37.39,1.61-.4.31c-1.57-2.12-3.27-4.26-3.27-4.26l.41-.31,1.38.79,7.77-6.07-.36-1.57.43-.31,3.2,4.17a5.41,5.41,0,0,1,1.43,3.36,3.09,3.09,0,0,1-1.34,2.58c-1.83,1.31-4.1.65-5.78-1.64Zm-10.22-9,8.41-3.83,2.74,2.77-.34.38-1.6-.53-6.9,7.09.78,1.51-.35.39c-1.82-1.86-3.64-3.6-3.64-3.6l.33-.41,1.53.5,5.54-5.9L120.41,74l-.34-.31,2.78-9.79-5.06,6.34.7,1.45-.35.39-3.5-2.53.33-.38,1.58.51L122.88,62l-.74-1.49.35-.39,3.21,2.37Zm-22.92-9.9,1.57-2.14.79.21-.92,2.84h-.3A13.36,13.36,0,0,1,97.67,62c-3.57-1-5.14-3.77-4.31-7.42.86-3.82,3.55-5.61,8.16-4.54A13.15,13.15,0,0,1,105,51.56l-.79,2.9-.8-.17-.2-2.63a5.22,5.22,0,0,0-.94-.37c-3.92-1-5.87.89-6.54,3.87s.55,5.43,3.32,6.19a5.11,5.11,0,0,0,1.19.19m-20.59-3,.09-9.93-1.52-.67v-.5c2.82-.09,5.42,0,5.42,0v.5l-1.55.63L82,58.71l2.87.07L86,56.56h.75l-.3,3.17s-4.62-.2-8.39-.1v-.5Zm-12-3,3.07-.56L68.58,51Zm-.16.92-.69,3.71,1.51.38.09.5-4,.94-.08-.49,1.23-.85,2.75-12.14.89-.16,6.3,10.46,1.47.37.08.51-5.23.71-.09-.48L73,59l-1.8-3.26ZM58,63.48l.65-.31a2.78,2.78,0,0,0,1.71-1.28,2.38,2.38,0,0,0,0-2c-.6-1.5-1.83-2-3.48-1.34l-.84.38Zm-2.22-5.34.74-.32a2.37,2.37,0,0,0,1.43-3.22,2.08,2.08,0,0,0-3-1.3l-1,.49Zm-.05,6L51.77,55l-1.66,0-.19-.47,5.54-2.31a3.89,3.89,0,0,1,3-.27,2.58,2.58,0,0,1,1.61,1.55c.62,1.55-.23,3.06-2.2,4.13,2.41-.86,4-.36,4.74,1.42a3,3,0,0,1-.3,2.77,5.61,5.61,0,0,1-2.88,2l-4.76,2.08-.18-.47Zm-13.57,2c1.93,2.71,4.33,3.62,6,2.56s1.68-3.62,0-6.42-3.88-3.8-5.89-2.52c-2.16,1.38-2,3.74-.15,6.38M40.36,68c-2.29-3.26-1.77-6.85,1.64-9,3.18-2,6.25-1.07,8.07,1.93,2,3.28,1.46,6.91-1.66,8.94-2.85,1.88-6,1.09-8-1.83m-3.47,9.79-7-7.08-1.55.61L28,70.93l3.89-3.79.37.34L31.59,69l7.11,7.25,2.22-2.17-.76-2.38.54-.55,2,2.44s-3.05,2.9-6.1,6l-.35-.37Zm-5,1.34,2.75,2a15.89,15.89,0,0,1-1.82,3.68c-2.24,3.19-5.44,3.79-8.58,1.57s-4.2-5.44-1.44-9.23a19.58,19.58,0,0,1,2.68-2.82l.23-.2,2.44,1.76-.53.75L25.16,76a3.16,3.16,0,0,0-.83.76c-2.37,3-1.63,5.65,1.27,7.67,2.6,1.8,5.26,1.43,6.93-1a2,2,0,0,0,.35-.76l-2.4-1.72-1.43.88-.42-.28,3.16-4.32.42.27ZM14.51,100.59l8,2.61c.36-.4.71-.8,1.07-1.19l.49.16c-.44,1.32-.88,2.65-1.3,4l-.48-.15-.15-1.66-9.41-3c-.37.45-.74.89-1.1,1.34l-.49-.16c.38-1.19.76-2.38,1.16-3.57q4.94-1.8,9.88-3.4l-6.68-2.38c-.37.4-.74.8-1.1,1.21l-.49-.17c.48-1.38,1-2.75,1.48-4.11.16,0,.32.12.48.18,0,.57,0,1.15.05,1.72l10.56,3.82c-.11.29-.21.59-.32.88-3.88,1.22-7.75,2.52-11.63,3.93m-4,14.52,7.38.65c2,.18,3-.59,3.15-2.46a3.42,3.42,0,0,0-.33-2.1c-.45-.76-1.13-1.09-2.48-1.24l-7.12-.79c-.28.51-.54,1-.81,1.52l-.51,0c.16-1.55.34-3.09.53-4.64l.5.06.45,1.69,6.79.79a3.9,3.9,0,0,1,3.35,2,5.76,5.76,0,0,1,.58,3.41c-.28,2.93-1.8,4.44-4.28,4.24l-7.41-.59c-.26.52-.5,1-.76,1.56l-.51,0q.21-2.81.47-5.61l.51,0,.5,1.58m131.72,40.33c8.34-7.11,4.81-21.33,4.81-21.33-1,4.53-6,12.79-7.14,15.33a39.07,39.07,0,0,0-2.41,8.5c-.37,1.53-.75,2.77-.75,2.77a58.83,58.83,0,0,1,5.49-5.27m-32,28.05C102.2,180.19,93.76,176,84,178a16.88,16.88,0,0,1-3,.43,16.52,16.52,0,0,1-3-.43c-9.79-2-18.23,2.19-26.33,5.49-6,2.22-14,1.87-19.29-1.57a22.32,22.32,0,0,0,9.79,6.29c6.76,2.52,14.79.8,20.39-2.85,4.79-2.53,8.93-7.49,15.24-5.62a61.07,61.07,0,0,0-17.63,11.77l3.33,2.57A48.3,48.3,0,0,1,81,180.63a48.3,48.3,0,0,1,17.46,13.45l3.34-2.57a61.12,61.12,0,0,0-17.64-11.77c6.32-1.87,10.45,3.09,15.24,5.62,5.61,3.65,13.63,5.37,20.4,2.85a22.49,22.49,0,0,0,9.79-6.29c-5.33,3.44-13.24,3.79-19.3,1.57m13-10.29c5.26-2.06,11.38-1.62,16.05-5.32,4.93-3.9,9.61-9.94,10.55-16.82-3.5,9.35-12.25,10.13-18.12,15.84a15.4,15.4,0,0,1-3.43,2.78l-.07-.09a22.45,22.45,0,0,0,3.86-5c3.43-5.65,2.22-13.58,4.79-19.67A47.25,47.25,0,0,0,131,155.48c-2.09,6.14-2.9,13.08-7.76,17.72M20.5,155.44A57.6,57.6,0,0,1,26,160.71s-.37-1.24-.74-2.77a39.66,39.66,0,0,0-2.41-8.5c-1.2-2.54-6.18-10.8-7.14-15.33,0,0-3.53,14.22,4.8,21.33m101.17,26.07c6.51,0,16.46-3.26,21.28-12,0,0-4.21,6.22-20.51,6.22-4.08,0-11.63,1.58-11.63,1.58a1.94,1.94,0,0,1-1.24,0,17.11,17.11,0,0,1,2.8-.81,13,13,0,0,0,7.61-5c2.72-4,6-10.6,6.67-11.06C121,164,117,168.3,111.89,172.59c-3.92,3.25-7.75,4.08-12.31,5.1a3.57,3.57,0,0,0,1.33.25c4.46,0,11.47,3.57,20.76,3.57m-59.79-3.57a3.57,3.57,0,0,0,1.33-.25c-4.56-1-8.39-1.85-12.29-5.1-5.16-4.29-9.09-8.64-14.77-12.18.7.46,4,7.08,6.67,11.06a12.9,12.9,0,0,0,7.61,5,16.56,16.56,0,0,1,2.78.81,1.83,1.83,0,0,1-1.21,0s-7.57-1.58-11.66-1.58c-16.29,0-20.51-6.22-20.51-6.22,4.82,8.74,14.76,12,21.29,12,9.29,0,16.29-3.57,20.76-3.57M12.93,151.06c3.49,9.35,12.24,10.13,18.12,15.84a15.18,15.18,0,0,0,3.43,2.78l.07-.09a21.87,21.87,0,0,1-3.86-5C27.25,159,28.47,151.06,25.9,145a48.48,48.48,0,0,1,5.87,10.51c2.1,6.14,2.91,13.08,7.77,17.72-5.26-2.06-11.39-1.62-16.07-5.32-4.92-3.9-9.6-9.94-10.54-16.82m70.42-16.25a65.29,65.29,0,0,0,19.81-4c1.13-.43,1.38-1,1.39-1.82a4.27,4.27,0,0,0,0-.7,98.67,98.67,0,0,0-4.5-19.08c-.28-.83-.43-1-.68-1a2.2,2.2,0,0,0-.69.17,53.39,53.39,0,0,1-15,2.58,1.31,1.31,0,0,0-1.35,1.48c0,3.3.11,8.5.11,15.49v5.87a1.3,1.3,0,0,0,.2.79,1.08,1.08,0,0,0,.77.16M63.67,105.15c-.28.61-.15.8-.15.8a.56.56,0,0,0,.27.2,57.14,57.14,0,0,0,14.78,2.25,1.39,1.39,0,0,0,1-.27,1.71,1.71,0,0,0,.33-1.2c.12-6.44.29-13.14.68-19.71a37,37,0,0,1-6.13-.73,81.15,81.15,0,0,0-10.77,18.66m16.13,7.32a1.31,1.31,0,0,0-1.32-1.5,53.82,53.82,0,0,1-15.2-2.86,1.78,1.78,0,0,0-.5-.12c-.16,0-.26.06-.4.44a85.42,85.42,0,0,0-5.1,22.21c-.05.54.09.65.46.82a64,64,0,0,0,20.59,3.44s.8,0,1-.24.33-.51.32-1.44c0-5.69.14-20.75.14-20.75m24.14,44a32.71,32.71,0,0,1-2.82,4.77,50.57,50.57,0,0,0,16-13.54,48.06,48.06,0,0,1-11.24,6.7,4.41,4.41,0,0,0-1.91,2.07m19.89-28.86a46.28,46.28,0,0,1-.91,9.22,37.07,37.07,0,0,0,4.64-18.27,40.24,40.24,0,0,0-.52-6.46,19.63,19.63,0,0,1-2.43,6.43,5.3,5.3,0,0,0-1.06,3.25c.27,3.09.28,5.83.28,5.83m-11.17-34a10.07,10.07,0,0,0,.09-7,12.46,12.46,0,0,0-3.4-3.87A43.49,43.49,0,0,0,98.94,77a3.84,3.84,0,0,1,.59,2,5.51,5.51,0,0,1-1.6,3.57,51.43,51.43,0,0,1,13.33,11s.6.76.94.73.46-.64.46-.64m-57,36.19a75.28,75.28,0,0,1,5.16-21.9,1.08,1.08,0,0,0,.09-.37c0-.23-.12-.35-.52-.54A25.83,25.83,0,0,1,50.1,99.32a.21.21,0,0,1,0-.29.23.23,0,0,1,.29,0A30.8,30.8,0,0,0,61,105.25a1.5,1.5,0,0,0,.43.1c.18,0,.33-.12.64-.76a78.14,78.14,0,0,1,11.08-18.4c-3.65-.89-7.37-2.85-8.29-5,0,0-.12-.24,0-.33s.35.13.35.13c4.06,4.39,15.82,4.1,15.82,4.1,4.91,0,15.11-1.72,15.11-5.85,0-3.74-5.41-5.7-15.24-5.82-29.73,0-45.66,25.74-45.66,46.18,0,24.67,21,46.17,45.14,46.17,0-.4-.31-5.8-.31-5.8,0-.59-.17-.79-.91-.87,0,0-10.55-.81-14-2.59-.13-.09-.06-.23.13-.18a96.73,96.73,0,0,0,13.88,1.22.74.74,0,0,0,.77-.81c0-.77-.31-17.51-.31-17.51,0-1.26-.24-1.47-1.45-1.57a61.94,61.94,0,0,1-20.73-4.5c-.17-.06-.25-.08-.33,0s-.14.33-.14.33a94.45,94.45,0,0,0,.32,15.32c0,.13,0,.2-.14.2s-.17-.13-.17-.13a53.11,53.11,0,0,1-1.67-13.55c0-.35,0-2.31,0-2.31a1.1,1.1,0,0,0-.68-1.08,43.31,43.31,0,0,1-7.91-5.15.21.21,0,0,1,0-.31.22.22,0,0,1,.25,0,49.5,49.5,0,0,0,8,4l.32,0c.17-.11.16-.35.19-.72m66.87-14.41a20.47,20.47,0,0,0,2.91-9.24,5.1,5.1,0,0,0,0-.66,36,36,0,0,0-9-16.32,8.64,8.64,0,0,1,.1,1.44A13.6,13.6,0,0,1,115.2,96a4,4,0,0,0-.41,1.45,2.11,2.11,0,0,0,.39,1,53.65,53.65,0,0,1,7.3,16.86m-2.2,9.11c0-.16-.16,0-.16,0a43.68,43.68,0,0,1-10.2,7,2.27,2.27,0,0,0-1.59,2.49A51.79,51.79,0,0,1,106,151.15s-.13.33.29.11a45.54,45.54,0,0,0,11.23-7.72,10.13,10.13,0,0,0,2.88-6,48.26,48.26,0,0,0-.14-13.11m-18,31.56c0-.15-.14-.12-.14-.12a3.86,3.86,0,0,0-.87.2,64.76,64.76,0,0,1-18.66,3.06c-.6,0-.76.2-.81.91l-.34,5.68A47.64,47.64,0,0,0,99,162.23a26.53,26.53,0,0,0,3.13-5.61,2.41,2.41,0,0,0,.19-.6m-4.74-50.44c.35-.13.58-.23.7-.54a1.85,1.85,0,0,0-.17-1,84,84,0,0,0-9.49-17.45,50.85,50.85,0,0,1-6.87.59c.2,6.72.36,13.39.46,19.82,0,.57.1.9.29,1a1.1,1.1,0,0,0,.73.21,48.5,48.5,0,0,0,14.35-2.72m4.85-2.07a30.42,30.42,0,0,0,7-4.92,1.43,1.43,0,0,0,.5-1,2.41,2.41,0,0,0-.54-1.3,47.91,47.91,0,0,0-13-12.4,19.8,19.8,0,0,1-5.88,2.36,75.71,75.71,0,0,1,10.3,16.51c.29.62.48,1,.7,1a1.35,1.35,0,0,0,1-.25m2.73,31.9s0-1.1-.37-1.35-1.22.11-1.22.11a64.78,64.78,0,0,1-19.92,3.54c-1.34.09-1.26.4-1.34,1.45,0,6.22-.18,12.08-.34,17.4,0,0,0,.54.14.75s.7.13.7.13A63,63,0,0,0,102.58,153c.91-.39,1-.92,1.31-1.94,1.66-6.69,1.26-15.64,1.26-15.64m3-7.18c-.29-.25-.4-1.45-.4-1.45a80.65,80.65,0,0,0-4.72-18.63,2.41,2.41,0,0,1-.22-.81c0-.32.16-.59.86-1a26.78,26.78,0,0,0,7.65-5.23c.31-.31.55-.43.66-.41h0c.12,0,.32.15.56.55A63,63,0,0,1,119,117.44a6.9,6.9,0,0,1,.23,1.56,2.76,2.76,0,0,1-1,2.13,49.44,49.44,0,0,1-8.82,6.75c-.08,0-.94.57-1.2.35" transform="translate(-4.26 -3.92)"/></svg>