<svg id="Capa_1" data-name="Capa 1" xmlns="http://www.w3.org/2000/svg" viewBox="0 0 742.25 386.17"><defs><style>.cls-1{fill:none;stroke:#fff;stroke-miterlimit:4.2;stroke-width:0.26px;}.cls-2{fill:#fff;}</style></defs><path class="cls-1" d="M9.51,92.73a1.83,1.83,0,0,1,1.83-1.83H38.93a20.9,20.9,0,0,1,21,20.74c0,8.88-5.89,16.11-14.28,19.49L58.9,155.64a1.82,1.82,0,0,1-1.64,2.79H47.13a1.66,1.66,0,0,1-1.54-.86L32.76,132H22.05v24.6a1.89,1.89,0,0,1-1.84,1.83H11.34a1.82,1.82,0,0,1-1.83-1.83Zm28.36,28.94a9.82,9.82,0,0,0,9.55-9.84,9.59,9.59,0,0,0-9.55-9.35H22.14v19.19Z" transform="translate(-9.37 -10.69)"/><path class="cls-1" d="M77.91,92.73a1.83,1.83,0,0,1,1.83-1.83H119a1.83,1.83,0,0,1,1.83,1.83v7.91a1.83,1.83,0,0,1-1.83,1.84H90.45V118.3h23.83a1.9,1.9,0,0,1,1.83,1.83v8a1.83,1.83,0,0,1-1.83,1.83H90.45v16.89H119a1.83,1.83,0,0,1,1.83,1.83v7.91a1.82,1.82,0,0,1-1.83,1.83H79.74a1.82,1.82,0,0,1-1.83-1.83Z" transform="translate(-9.37 -10.69)"/><path class="cls-1" d="M167.82,89.93a36.44,36.44,0,0,1,23.54,9,1.86,1.86,0,0,1,.1,2.7l-6,6.27a1.65,1.65,0,0,1-2.51,0,21.86,21.86,0,0,0-14.57-5.6c-12.06,0-21.61,10.33-21.61,22.39a22,22,0,0,0,21.71,22.09A30.24,30.24,0,0,0,180,144.35v-8.2h-7.72a1.75,1.75,0,0,1-1.83-1.74v-7.62a1.77,1.77,0,0,1,1.83-1.83h18.52a1.81,1.81,0,0,1,1.74,1.83v24.7a1.84,1.84,0,0,1-.77,1.54,48.77,48.77,0,0,1-23.93,6.27,34.69,34.69,0,0,1,0-69.37Z" transform="translate(-9.37 -10.69)"/><path class="cls-1" d="M211.14,92.73A1.83,1.83,0,0,1,213,90.9h39.27a1.83,1.83,0,0,1,1.83,1.83v7.91a1.83,1.83,0,0,1-1.83,1.84H223.68V118.3h23.83a1.9,1.9,0,0,1,1.83,1.83v8a1.83,1.83,0,0,1-1.83,1.83H223.68v16.89h28.56a1.83,1.83,0,0,1,1.83,1.83v7.91a1.82,1.82,0,0,1-1.83,1.83H213a1.82,1.82,0,0,1-1.83-1.83Z" transform="translate(-9.37 -10.69)"/><path class="cls-1" d="M271.43,91.67a1.82,1.82,0,0,1,1.84-1.74h1.44a2.12,2.12,0,0,1,1.64.68l39.37,42h.19V92.73a1.83,1.83,0,0,1,1.83-1.83h8.88a1.9,1.9,0,0,1,1.83,1.83v64.93a1.81,1.81,0,0,1-1.83,1.74h-1.35a2.08,2.08,0,0,1-1.64-.68l-39.56-43.61h-.19V156.6a1.82,1.82,0,0,1-1.83,1.83h-8.78a1.89,1.89,0,0,1-1.84-1.83Z" transform="translate(-9.37 -10.69)"/><path class="cls-1" d="M349.58,92.73a1.83,1.83,0,0,1,1.83-1.83h39.27a1.83,1.83,0,0,1,1.83,1.83v7.91a1.83,1.83,0,0,1-1.83,1.84H362.12V118.3H386a1.9,1.9,0,0,1,1.83,1.83v8A1.83,1.83,0,0,1,386,130H362.12v16.89h28.56a1.83,1.83,0,0,1,1.83,1.83v7.91a1.82,1.82,0,0,1-1.83,1.83H351.41a1.82,1.82,0,0,1-1.83-1.83Z" transform="translate(-9.37 -10.69)"/><path class="cls-1" d="M409.87,92.73a1.83,1.83,0,0,1,1.84-1.83H439.3a20.89,20.89,0,0,1,21,20.74c0,8.88-5.88,16.11-14.28,19.49l13.22,24.51a1.82,1.82,0,0,1-1.64,2.79H447.5a1.65,1.65,0,0,1-1.54-.86L433.13,132H422.42v24.6a1.89,1.89,0,0,1-1.84,1.83h-8.87a1.83,1.83,0,0,1-1.84-1.83Zm28.37,28.94a9.82,9.82,0,0,0,9.55-9.84,9.59,9.59,0,0,0-9.55-9.35H422.51v19.19Z" transform="translate(-9.37 -10.69)"/><path class="cls-1" d="M470.27,155.93l30-64.94a1.74,1.74,0,0,1,1.64-1.06h1A1.66,1.66,0,0,1,504.52,91l29.71,64.94a1.7,1.7,0,0,1-1.64,2.5H524.2c-1.45,0-2.12-.57-2.8-1.93l-4.73-10.42H487.82L483.1,156.5a2.91,2.91,0,0,1-2.8,1.93h-8.39A1.7,1.7,0,0,1,470.27,155.93ZM512,135.38l-9.65-21.23H502l-9.46,21.23Z" transform="translate(-9.37 -10.69)"/><path class="cls-1" d="M554,102.48H539.25a1.83,1.83,0,0,1-1.84-1.84V92.73a1.83,1.83,0,0,1,1.84-1.83h42.16a1.83,1.83,0,0,1,1.83,1.83v7.91a1.83,1.83,0,0,1-1.83,1.84H566.65V156.6a1.89,1.89,0,0,1-1.84,1.83h-9A1.89,1.89,0,0,1,554,156.6Z" transform="translate(-9.37 -10.69)"/><path class="cls-1" d="M598.58,92.73a1.9,1.9,0,0,1,1.83-1.83h9a1.9,1.9,0,0,1,1.84,1.83V156.6a1.89,1.89,0,0,1-1.84,1.83h-9a1.89,1.89,0,0,1-1.83-1.83Z" transform="translate(-9.37 -10.69)"/><path class="cls-1" d="M624.14,93.41a1.71,1.71,0,0,1,1.64-2.51h9.84A1.77,1.77,0,0,1,637.26,92l18.63,41.49h.48L675,92a1.77,1.77,0,0,1,1.64-1.06h9.84a1.7,1.7,0,0,1,1.64,2.51L658.2,158.34a1.73,1.73,0,0,1-1.64,1.06h-1a1.72,1.72,0,0,1-1.64-1.06Z" transform="translate(-9.37 -10.69)"/><path class="cls-1" d="M687.33,155.93l30-64.94A1.74,1.74,0,0,1,719,89.93h1A1.64,1.64,0,0,1,721.58,91l29.72,64.94a1.7,1.7,0,0,1-1.64,2.5h-8.39c-1.45,0-2.12-.57-2.8-1.93l-4.73-10.42H704.89l-4.72,10.42a2.91,2.91,0,0,1-2.8,1.93H689A1.7,1.7,0,0,1,687.33,155.93ZM729,135.38l-9.64-21.23h-.29l-9.46,21.23Z" transform="translate(-9.37 -10.69)"/><path class="cls-1" d="M9.51,13.62a1.83,1.83,0,0,1,1.83-1.83H38.93A20.9,20.9,0,0,1,60,32.53C60,41.41,54.08,48.64,45.69,52L58.9,76.53a1.82,1.82,0,0,1-1.64,2.79H47.13a1.66,1.66,0,0,1-1.54-.86L32.76,52.89H22.05v24.6a1.89,1.89,0,0,1-1.84,1.83H11.34a1.82,1.82,0,0,1-1.83-1.83ZM37.87,42.56a9.82,9.82,0,0,0,9.55-9.84,9.59,9.59,0,0,0-9.55-9.35H22.14V42.56Z" transform="translate(-9.37 -10.69)"/><path class="cls-1" d="M77.91,13.62a1.83,1.83,0,0,1,1.83-1.83H119a1.83,1.83,0,0,1,1.83,1.83v7.91A1.83,1.83,0,0,1,119,23.37H90.45V39.19h23.83A1.9,1.9,0,0,1,116.11,41v8a1.83,1.83,0,0,1-1.83,1.83H90.45V67.75H119a1.83,1.83,0,0,1,1.83,1.83v7.91A1.82,1.82,0,0,1,119,79.32H79.74a1.82,1.82,0,0,1-1.83-1.83Z" transform="translate(-9.37 -10.69)"/><path class="cls-1" d="M167.82,10.82a36.44,36.44,0,0,1,23.54,9,1.86,1.86,0,0,1,.1,2.7l-6,6.27a1.65,1.65,0,0,1-2.51,0,21.86,21.86,0,0,0-14.57-5.6c-12.06,0-21.61,10.33-21.61,22.39A22,22,0,0,0,168.5,67.65,30.24,30.24,0,0,0,180,65.24V57h-7.72a1.75,1.75,0,0,1-1.83-1.74V47.68a1.78,1.78,0,0,1,1.83-1.84h18.52a1.82,1.82,0,0,1,1.74,1.84v24.7a1.84,1.84,0,0,1-.77,1.54,48.77,48.77,0,0,1-23.93,6.27,34.69,34.69,0,0,1,0-69.37Z" transform="translate(-9.37 -10.69)"/><path class="cls-1" d="M211.14,13.62A1.83,1.83,0,0,1,213,11.79h39.27a1.83,1.83,0,0,1,1.83,1.83v7.91a1.83,1.83,0,0,1-1.83,1.84H223.68V39.19h23.83A1.9,1.9,0,0,1,249.34,41v8a1.83,1.83,0,0,1-1.83,1.83H223.68V67.75h28.56a1.83,1.83,0,0,1,1.83,1.83v7.91a1.82,1.82,0,0,1-1.83,1.83H213a1.82,1.82,0,0,1-1.83-1.83Z" transform="translate(-9.37 -10.69)"/><path class="cls-1" d="M271.43,12.56a1.82,1.82,0,0,1,1.84-1.74h1.44a2.12,2.12,0,0,1,1.64.68l39.37,42h.19V13.62a1.83,1.83,0,0,1,1.83-1.83h8.88a1.9,1.9,0,0,1,1.83,1.83V78.55a1.81,1.81,0,0,1-1.83,1.74h-1.35a2.08,2.08,0,0,1-1.64-.68L284.07,36h-.19V77.49a1.82,1.82,0,0,1-1.83,1.83h-8.78a1.89,1.89,0,0,1-1.84-1.83Z" transform="translate(-9.37 -10.69)"/><path class="cls-1" d="M349.58,13.62a1.83,1.83,0,0,1,1.83-1.83h39.27a1.83,1.83,0,0,1,1.83,1.83v7.91a1.83,1.83,0,0,1-1.83,1.84H362.12V39.19H386A1.9,1.9,0,0,1,387.78,41v8A1.83,1.83,0,0,1,386,50.86H362.12V67.75h28.56a1.83,1.83,0,0,1,1.83,1.83v7.91a1.82,1.82,0,0,1-1.83,1.83H351.41a1.82,1.82,0,0,1-1.83-1.83Z" transform="translate(-9.37 -10.69)"/><path class="cls-1" d="M409.87,13.62a1.83,1.83,0,0,1,1.84-1.83H439.3a20.89,20.89,0,0,1,21,20.74c0,8.88-5.88,16.11-14.28,19.49l13.22,24.51a1.82,1.82,0,0,1-1.64,2.79H447.5a1.65,1.65,0,0,1-1.54-.86L433.13,52.89H422.42v24.6a1.89,1.89,0,0,1-1.84,1.83h-8.87a1.83,1.83,0,0,1-1.84-1.83Zm28.37,28.94a9.82,9.82,0,0,0,9.55-9.84,9.59,9.59,0,0,0-9.55-9.35H422.51V42.56Z" transform="translate(-9.37 -10.69)"/><path class="cls-1" d="M470.27,76.82l30-64.94a1.73,1.73,0,0,1,1.64-1.06h1a1.64,1.64,0,0,1,1.64,1.06l29.71,64.94a1.7,1.7,0,0,1-1.64,2.5H524.2c-1.45,0-2.12-.57-2.8-1.93L516.67,67H487.82L483.1,77.39a2.91,2.91,0,0,1-2.8,1.93h-8.39A1.7,1.7,0,0,1,470.27,76.82ZM512,56.27,502.3,35H502l-9.46,21.23Z" transform="translate(-9.37 -10.69)"/><path class="cls-1" d="M554,23.37H539.25a1.83,1.83,0,0,1-1.84-1.84V13.62a1.83,1.83,0,0,1,1.84-1.83h42.16a1.83,1.83,0,0,1,1.83,1.83v7.91a1.83,1.83,0,0,1-1.83,1.84H566.65V77.49a1.89,1.89,0,0,1-1.84,1.83h-9A1.89,1.89,0,0,1,554,77.49Z" transform="translate(-9.37 -10.69)"/><path class="cls-1" d="M598.58,13.62a1.9,1.9,0,0,1,1.83-1.83h9a1.9,1.9,0,0,1,1.84,1.83V77.49a1.89,1.89,0,0,1-1.84,1.83h-9a1.89,1.89,0,0,1-1.83-1.83Z" transform="translate(-9.37 -10.69)"/><path class="cls-1" d="M624.14,14.3a1.71,1.71,0,0,1,1.64-2.51h9.84a1.77,1.77,0,0,1,1.64,1.06l18.63,41.49h.48L675,12.85a1.77,1.77,0,0,1,1.64-1.06h9.84a1.7,1.7,0,0,1,1.64,2.51L658.2,79.23a1.73,1.73,0,0,1-1.64,1.06h-1A1.72,1.72,0,0,1,654,79.23Z" transform="translate(-9.37 -10.69)"/><path class="cls-1" d="M687.33,76.82l30-64.94A1.73,1.73,0,0,1,719,10.82h1a1.62,1.62,0,0,1,1.64,1.06L751.3,76.82a1.7,1.7,0,0,1-1.64,2.5h-8.39c-1.45,0-2.12-.57-2.8-1.93L733.74,67H704.89l-4.72,10.42a2.91,2.91,0,0,1-2.8,1.93H689A1.7,1.7,0,0,1,687.33,76.82ZM729,56.27,719.37,35h-.29l-9.46,21.23Z" transform="translate(-9.37 -10.69)"/><path class="cls-1" d="M9.51,330.06a1.83,1.83,0,0,1,1.83-1.83H38.93A20.9,20.9,0,0,1,60,349c0,8.88-5.89,16.11-14.28,19.49L58.9,393a1.82,1.82,0,0,1-1.64,2.79H47.13a1.66,1.66,0,0,1-1.54-.86L32.76,369.33H22.05v24.6a1.89,1.89,0,0,1-1.84,1.83H11.34a1.82,1.82,0,0,1-1.83-1.83ZM37.87,359a9.82,9.82,0,0,0,9.55-9.84,9.59,9.59,0,0,0-9.55-9.35H22.14V359Z" transform="translate(-9.37 -10.69)"/><path class="cls-1" d="M77.91,330.06a1.83,1.83,0,0,1,1.83-1.83H119a1.83,1.83,0,0,1,1.83,1.83V338a1.83,1.83,0,0,1-1.83,1.84H90.45v15.82h23.83a1.9,1.9,0,0,1,1.83,1.83v8a1.83,1.83,0,0,1-1.83,1.83H90.45v16.89H119a1.83,1.83,0,0,1,1.83,1.83v7.91a1.82,1.82,0,0,1-1.83,1.83H79.74a1.82,1.82,0,0,1-1.83-1.83Z" transform="translate(-9.37 -10.69)"/><path class="cls-1" d="M167.82,327.26a36.44,36.44,0,0,1,23.54,9,1.86,1.86,0,0,1,.1,2.7l-6,6.27a1.65,1.65,0,0,1-2.51,0,21.86,21.86,0,0,0-14.57-5.6c-12.06,0-21.61,10.33-21.61,22.39a22,22,0,0,0,21.71,22.09A30.24,30.24,0,0,0,180,381.68v-8.2h-7.72a1.75,1.75,0,0,1-1.83-1.74v-7.62a1.77,1.77,0,0,1,1.83-1.83h18.52a1.81,1.81,0,0,1,1.74,1.83v24.7a1.84,1.84,0,0,1-.77,1.54,48.77,48.77,0,0,1-23.93,6.27,34.69,34.69,0,0,1,0-69.37Z" transform="translate(-9.37 -10.69)"/><path class="cls-1" d="M211.14,330.06a1.83,1.83,0,0,1,1.83-1.83h39.27a1.83,1.83,0,0,1,1.83,1.83V338a1.83,1.83,0,0,1-1.83,1.84H223.68v15.82h23.83a1.9,1.9,0,0,1,1.83,1.83v8a1.83,1.83,0,0,1-1.83,1.83H223.68v16.89h28.56a1.83,1.83,0,0,1,1.83,1.83v7.91a1.82,1.82,0,0,1-1.83,1.83H213a1.82,1.82,0,0,1-1.83-1.83Z" transform="translate(-9.37 -10.69)"/><path class="cls-1" d="M271.43,329a1.82,1.82,0,0,1,1.84-1.74h1.44a2.12,2.12,0,0,1,1.64.68l39.37,42h.19V330.06a1.83,1.83,0,0,1,1.83-1.83h8.88a1.9,1.9,0,0,1,1.83,1.83V395a1.81,1.81,0,0,1-1.83,1.74h-1.35a2.08,2.08,0,0,1-1.64-.68l-39.56-43.61h-.19v41.49a1.82,1.82,0,0,1-1.83,1.83h-8.78a1.89,1.89,0,0,1-1.84-1.83Z" transform="translate(-9.37 -10.69)"/><path class="cls-1" d="M349.58,330.06a1.83,1.83,0,0,1,1.83-1.83h39.27a1.83,1.83,0,0,1,1.83,1.83V338a1.83,1.83,0,0,1-1.83,1.84H362.12v15.82H386a1.9,1.9,0,0,1,1.83,1.83v8A1.83,1.83,0,0,1,386,367.3H362.12v16.89h28.56a1.83,1.83,0,0,1,1.83,1.83v7.91a1.82,1.82,0,0,1-1.83,1.83H351.41a1.82,1.82,0,0,1-1.83-1.83Z" transform="translate(-9.37 -10.69)"/><path class="cls-1" d="M409.87,330.06a1.83,1.83,0,0,1,1.84-1.83H439.3a20.89,20.89,0,0,1,21,20.74c0,8.88-5.88,16.11-14.28,19.49L459.27,393a1.82,1.82,0,0,1-1.64,2.79H447.5a1.65,1.65,0,0,1-1.54-.86l-12.83-25.57H422.42v24.6a1.89,1.89,0,0,1-1.84,1.83h-8.87a1.83,1.83,0,0,1-1.84-1.83ZM438.24,359a9.82,9.82,0,0,0,9.55-9.84,9.59,9.59,0,0,0-9.55-9.35H422.51V359Z" transform="translate(-9.37 -10.69)"/><path class="cls-1" d="M470.27,393.26l30-64.94a1.74,1.74,0,0,1,1.64-1.06h1a1.66,1.66,0,0,1,1.64,1.06l29.71,64.94a1.7,1.7,0,0,1-1.64,2.5H524.2c-1.45,0-2.12-.57-2.8-1.93l-4.73-10.41H487.82l-4.72,10.41a2.91,2.91,0,0,1-2.8,1.93h-8.39A1.7,1.7,0,0,1,470.27,393.26ZM512,372.71l-9.65-21.23H502l-9.46,21.23Z" transform="translate(-9.37 -10.69)"/><path class="cls-1" d="M554,339.81H539.25a1.83,1.83,0,0,1-1.84-1.84v-7.91a1.83,1.83,0,0,1,1.84-1.83h42.16a1.83,1.83,0,0,1,1.83,1.83V338a1.83,1.83,0,0,1-1.83,1.84H566.65v54.12a1.89,1.89,0,0,1-1.84,1.83h-9a1.89,1.89,0,0,1-1.83-1.83Z" transform="translate(-9.37 -10.69)"/><path class="cls-1" d="M598.58,330.06a1.9,1.9,0,0,1,1.83-1.83h9a1.9,1.9,0,0,1,1.84,1.83v63.87a1.89,1.89,0,0,1-1.84,1.83h-9a1.89,1.89,0,0,1-1.83-1.83Z" transform="translate(-9.37 -10.69)"/><path class="cls-1" d="M624.14,330.74a1.71,1.71,0,0,1,1.64-2.51h9.84a1.77,1.77,0,0,1,1.64,1.06l18.63,41.49h.48L675,329.29a1.77,1.77,0,0,1,1.64-1.06h9.84a1.7,1.7,0,0,1,1.64,2.51L658.2,395.67a1.73,1.73,0,0,1-1.64,1.06h-1a1.72,1.72,0,0,1-1.64-1.06Z" transform="translate(-9.37 -10.69)"/><path class="cls-1" d="M687.33,393.26l30-64.94a1.74,1.74,0,0,1,1.64-1.06h1a1.64,1.64,0,0,1,1.64,1.06l29.72,64.94a1.7,1.7,0,0,1-1.64,2.5h-8.39c-1.45,0-2.12-.57-2.8-1.93l-4.73-10.41H704.89l-4.72,10.41a2.91,2.91,0,0,1-2.8,1.93H689A1.7,1.7,0,0,1,687.33,393.26ZM729,372.71l-9.64-21.23h-.29l-9.46,21.23Z" transform="translate(-9.37 -10.69)"/><path class="cls-1" d="M9.51,171.84A1.83,1.83,0,0,1,11.34,170H38.93a20.9,20.9,0,0,1,21,20.74c0,8.88-5.89,16.11-14.28,19.49L58.9,234.75a1.82,1.82,0,0,1-1.64,2.79H47.13a1.66,1.66,0,0,1-1.54-.86L32.76,211.11H22.05v24.6a1.89,1.89,0,0,1-1.84,1.83H11.34a1.82,1.82,0,0,1-1.83-1.83Zm28.36,28.95a9.83,9.83,0,0,0,9.55-9.85,9.59,9.59,0,0,0-9.55-9.35H22.14v19.2Z" transform="translate(-9.37 -10.69)"/><path class="cls-1" d="M77.91,171.84A1.83,1.83,0,0,1,79.74,170H119a1.83,1.83,0,0,1,1.83,1.83v7.91a1.83,1.83,0,0,1-1.83,1.84H90.45v15.82h23.83a1.9,1.9,0,0,1,1.83,1.83v8a1.83,1.83,0,0,1-1.83,1.83H90.45V226H119a1.83,1.83,0,0,1,1.83,1.83v7.91a1.82,1.82,0,0,1-1.83,1.83H79.74a1.82,1.82,0,0,1-1.83-1.83Z" transform="translate(-9.37 -10.69)"/><path class="cls-1" d="M167.82,169a36.44,36.44,0,0,1,23.54,9,1.86,1.86,0,0,1,.1,2.7l-6,6.27a1.65,1.65,0,0,1-2.51,0,21.86,21.86,0,0,0-14.57-5.6c-12.06,0-21.61,10.33-21.61,22.39a22,22,0,0,0,21.71,22.09A30.24,30.24,0,0,0,180,223.46v-8.2h-7.72a1.75,1.75,0,0,1-1.83-1.74V205.9a1.77,1.77,0,0,1,1.83-1.83h18.52a1.81,1.81,0,0,1,1.74,1.83v24.7a1.84,1.84,0,0,1-.77,1.54,48.77,48.77,0,0,1-23.93,6.27,34.69,34.69,0,0,1,0-69.37Z" transform="translate(-9.37 -10.69)"/><path class="cls-1" d="M211.14,171.84A1.83,1.83,0,0,1,213,170h39.27a1.83,1.83,0,0,1,1.83,1.83v7.91a1.83,1.83,0,0,1-1.83,1.84H223.68v15.82h23.83a1.9,1.9,0,0,1,1.83,1.83v8a1.83,1.83,0,0,1-1.83,1.83H223.68V226h28.56a1.83,1.83,0,0,1,1.83,1.83v7.91a1.82,1.82,0,0,1-1.83,1.83H213a1.82,1.82,0,0,1-1.83-1.83Z" transform="translate(-9.37 -10.69)"/><path class="cls-1" d="M271.43,170.78a1.82,1.82,0,0,1,1.84-1.74h1.44a2.12,2.12,0,0,1,1.64.68l39.37,42h.19V171.84a1.83,1.83,0,0,1,1.83-1.83h8.88a1.9,1.9,0,0,1,1.83,1.83v64.93a1.81,1.81,0,0,1-1.83,1.74h-1.35a2.08,2.08,0,0,1-1.64-.68l-39.56-43.61h-.19v41.49a1.82,1.82,0,0,1-1.83,1.83h-8.78a1.89,1.89,0,0,1-1.84-1.83Z" transform="translate(-9.37 -10.69)"/><path class="cls-1" d="M349.58,171.84a1.83,1.83,0,0,1,1.83-1.83h39.27a1.83,1.83,0,0,1,1.83,1.83v7.91a1.83,1.83,0,0,1-1.83,1.84H362.12v15.82H386a1.9,1.9,0,0,1,1.83,1.83v8a1.83,1.83,0,0,1-1.83,1.83H362.12V226h28.56a1.83,1.83,0,0,1,1.83,1.83v7.91a1.82,1.82,0,0,1-1.83,1.83H351.41a1.82,1.82,0,0,1-1.83-1.83Z" transform="translate(-9.37 -10.69)"/><path class="cls-1" d="M409.87,171.84a1.83,1.83,0,0,1,1.84-1.83H439.3a20.89,20.89,0,0,1,21,20.74c0,8.88-5.88,16.11-14.28,19.49l13.22,24.51a1.82,1.82,0,0,1-1.64,2.79H447.5a1.65,1.65,0,0,1-1.54-.86l-12.83-25.57H422.42v24.6a1.89,1.89,0,0,1-1.84,1.83h-8.87a1.83,1.83,0,0,1-1.84-1.83Zm28.37,28.95a9.83,9.83,0,0,0,9.55-9.85,9.59,9.59,0,0,0-9.55-9.35H422.51v19.2Z" transform="translate(-9.37 -10.69)"/><path class="cls-1" d="M470.27,235l30-64.94a1.74,1.74,0,0,1,1.64-1.06h1a1.66,1.66,0,0,1,1.64,1.06L534.23,235a1.7,1.7,0,0,1-1.64,2.5H524.2c-1.45,0-2.12-.57-2.8-1.92l-4.73-10.42H487.82l-4.72,10.42a2.92,2.92,0,0,1-2.8,1.92h-8.39A1.7,1.7,0,0,1,470.27,235ZM512,214.49l-9.65-21.23H502l-9.46,21.23Z" transform="translate(-9.37 -10.69)"/><path class="cls-1" d="M554,181.59H539.25a1.83,1.83,0,0,1-1.84-1.84v-7.91a1.83,1.83,0,0,1,1.84-1.83h42.16a1.83,1.83,0,0,1,1.83,1.83v7.91a1.83,1.83,0,0,1-1.83,1.84H566.65v54.12a1.89,1.89,0,0,1-1.84,1.83h-9a1.89,1.89,0,0,1-1.83-1.83Z" transform="translate(-9.37 -10.69)"/><path class="cls-1" d="M598.58,171.84a1.9,1.9,0,0,1,1.83-1.83h9a1.9,1.9,0,0,1,1.84,1.83v63.87a1.89,1.89,0,0,1-1.84,1.83h-9a1.89,1.89,0,0,1-1.83-1.83Z" transform="translate(-9.37 -10.69)"/><path class="cls-1" d="M624.14,172.52a1.71,1.71,0,0,1,1.64-2.51h9.84a1.77,1.77,0,0,1,1.64,1.06l18.63,41.49h.48L675,171.07a1.77,1.77,0,0,1,1.64-1.06h9.84a1.7,1.7,0,0,1,1.64,2.51L658.2,237.45a1.73,1.73,0,0,1-1.64,1.06h-1a1.72,1.72,0,0,1-1.64-1.06Z" transform="translate(-9.37 -10.69)"/><path class="cls-1" d="M687.33,235l30-64.94A1.74,1.74,0,0,1,719,169h1a1.64,1.64,0,0,1,1.64,1.06L751.3,235a1.7,1.7,0,0,1-1.64,2.5h-8.39c-1.45,0-2.12-.57-2.8-1.92l-4.73-10.42H704.89l-4.72,10.42a2.92,2.92,0,0,1-2.8,1.92H689A1.7,1.7,0,0,1,687.33,235ZM729,214.49l-9.64-21.23h-.29l-9.46,21.23Z" transform="translate(-9.37 -10.69)"/><path class="cls-2" d="M9.51,251a1.83,1.83,0,0,1,1.83-1.83H38.93a20.9,20.9,0,0,1,21,20.75c0,8.87-5.89,16.11-14.28,19.48L58.9,313.87a1.83,1.83,0,0,1-1.64,2.8H47.13a1.65,1.65,0,0,1-1.54-.87L32.76,290.23H22.05v24.6a1.9,1.9,0,0,1-1.84,1.84H11.34a1.83,1.83,0,0,1-1.83-1.84Zm28.36,29a9.83,9.83,0,0,0,9.55-9.84,9.6,9.6,0,0,0-9.55-9.36H22.14v19.2Z" transform="translate(-9.37 -10.69)"/><path class="cls-2" d="M77.91,251a1.83,1.83,0,0,1,1.83-1.83H119a1.83,1.83,0,0,1,1.83,1.83v7.92a1.83,1.83,0,0,1-1.83,1.83H90.45v15.82h23.83a1.9,1.9,0,0,1,1.83,1.84v8a1.84,1.84,0,0,1-1.83,1.84H90.45v16.88H119a1.83,1.83,0,0,1,1.83,1.83v7.91a1.83,1.83,0,0,1-1.83,1.84H79.74a1.83,1.83,0,0,1-1.83-1.84Z" transform="translate(-9.37 -10.69)"/><path class="cls-2" d="M167.82,248.17a36.43,36.43,0,0,1,23.54,9,1.86,1.86,0,0,1,.1,2.7l-6,6.27a1.65,1.65,0,0,1-2.51,0,21.9,21.9,0,0,0-14.57-5.59c-12.06,0-21.61,10.32-21.61,22.38A22,22,0,0,0,168.5,305,30.24,30.24,0,0,0,180,302.58v-8.2h-7.72a1.75,1.75,0,0,1-1.83-1.74V285a1.77,1.77,0,0,1,1.83-1.83h18.52a1.81,1.81,0,0,1,1.74,1.83v24.7a1.83,1.83,0,0,1-.77,1.54,48.72,48.72,0,0,1-23.93,6.28,34.69,34.69,0,0,1,0-69.37Z" transform="translate(-9.37 -10.69)"/><path class="cls-2" d="M211.14,251a1.83,1.83,0,0,1,1.83-1.83h39.27a1.83,1.83,0,0,1,1.83,1.83v7.92a1.83,1.83,0,0,1-1.83,1.83H223.68v15.82h23.83a1.9,1.9,0,0,1,1.83,1.84v8a1.84,1.84,0,0,1-1.83,1.84H223.68v16.88h28.56a1.83,1.83,0,0,1,1.83,1.83v7.91a1.83,1.83,0,0,1-1.83,1.84H213a1.83,1.83,0,0,1-1.83-1.84Z" transform="translate(-9.37 -10.69)"/><path class="cls-2" d="M271.43,249.9a1.81,1.81,0,0,1,1.84-1.73h1.44a2.11,2.11,0,0,1,1.64.67l39.37,42h.19V251a1.83,1.83,0,0,1,1.83-1.83h8.88a1.9,1.9,0,0,1,1.83,1.83V315.9a1.81,1.81,0,0,1-1.83,1.73h-1.35a2.11,2.11,0,0,1-1.64-.67l-39.56-43.61h-.19v41.48a1.83,1.83,0,0,1-1.83,1.84h-8.78a1.9,1.9,0,0,1-1.84-1.84Z" transform="translate(-9.37 -10.69)"/><path class="cls-2" d="M349.58,251a1.83,1.83,0,0,1,1.83-1.83h39.27a1.83,1.83,0,0,1,1.83,1.83v7.92a1.83,1.83,0,0,1-1.83,1.83H362.12v15.82H386a1.9,1.9,0,0,1,1.83,1.84v8a1.84,1.84,0,0,1-1.83,1.84H362.12v16.88h28.56a1.83,1.83,0,0,1,1.83,1.83v7.91a1.83,1.83,0,0,1-1.83,1.84H351.41a1.83,1.83,0,0,1-1.83-1.84Z" transform="translate(-9.37 -10.69)"/><path class="cls-2" d="M409.87,251a1.83,1.83,0,0,1,1.84-1.83H439.3a20.89,20.89,0,0,1,21,20.75c0,8.87-5.88,16.11-14.28,19.48l13.22,24.51a1.83,1.83,0,0,1-1.64,2.8H447.5a1.64,1.64,0,0,1-1.54-.87l-12.83-25.57H422.42v24.6a1.9,1.9,0,0,1-1.84,1.84h-8.87a1.83,1.83,0,0,1-1.84-1.84Zm28.37,29a9.83,9.83,0,0,0,9.55-9.84,9.6,9.6,0,0,0-9.55-9.36H422.51v19.2Z" transform="translate(-9.37 -10.69)"/><path class="cls-2" d="M470.27,314.16l30-64.93a1.73,1.73,0,0,1,1.64-1.06h1a1.64,1.64,0,0,1,1.64,1.06l29.71,64.93a1.7,1.7,0,0,1-1.64,2.51H524.2c-1.45,0-2.12-.58-2.8-1.93l-4.73-10.42H487.82l-4.72,10.42a2.92,2.92,0,0,1-2.8,1.93h-8.39A1.7,1.7,0,0,1,470.27,314.16ZM512,293.61l-9.65-21.23H502l-9.46,21.23Z" transform="translate(-9.37 -10.69)"/><path class="cls-2" d="M554,260.71H539.25a1.83,1.83,0,0,1-1.84-1.83V251a1.83,1.83,0,0,1,1.84-1.83h42.16a1.83,1.83,0,0,1,1.83,1.83v7.92a1.83,1.83,0,0,1-1.83,1.83H566.65v54.12a1.9,1.9,0,0,1-1.84,1.84h-9a1.9,1.9,0,0,1-1.83-1.84Z" transform="translate(-9.37 -10.69)"/><path class="cls-2" d="M598.58,251a1.9,1.9,0,0,1,1.83-1.83h9a1.9,1.9,0,0,1,1.84,1.83v63.87a1.9,1.9,0,0,1-1.84,1.84h-9a1.9,1.9,0,0,1-1.83-1.84Z" transform="translate(-9.37 -10.69)"/><path class="cls-2" d="M624.14,251.64a1.71,1.71,0,0,1,1.64-2.51h9.84a1.77,1.77,0,0,1,1.64,1.06l18.63,41.49h.48L675,250.19a1.77,1.77,0,0,1,1.64-1.06h9.84a1.7,1.7,0,0,1,1.64,2.51L658.2,316.57a1.73,1.73,0,0,1-1.64,1.06h-1a1.72,1.72,0,0,1-1.64-1.06Z" transform="translate(-9.37 -10.69)"/><path class="cls-2" d="M687.33,314.16l30-64.93a1.73,1.73,0,0,1,1.64-1.06h1a1.62,1.62,0,0,1,1.64,1.06l29.72,64.93a1.7,1.7,0,0,1-1.64,2.51h-8.39c-1.45,0-2.12-.58-2.8-1.93l-4.73-10.42H704.89l-4.72,10.42a2.92,2.92,0,0,1-2.8,1.93H689A1.71,1.71,0,0,1,687.33,314.16ZM729,293.61l-9.64-21.23h-.29l-9.46,21.23Z" transform="translate(-9.37 -10.69)"/></svg>