<svg id="Capa_1" data-name="Capa 1" xmlns="http://www.w3.org/2000/svg" viewBox="0 0 742.21 363.55"><defs><style>.cls-1{fill:#fff;}.cls-2{fill:none;stroke:#fff;stroke-miterlimit:4.2;stroke-width:0.26px;}</style></defs><path class="cls-1" d="M.32,297.22l28-60.59a1.62,1.62,0,0,1,1.53-1h.9a1.53,1.53,0,0,1,1.53,1L60,297.22a1.59,1.59,0,0,1-1.53,2.34H50.65a2.59,2.59,0,0,1-2.61-1.8L43.63,288H16.71l-4.41,9.72a2.73,2.73,0,0,1-2.62,1.8H1.85A1.59,1.59,0,0,1,.32,297.22ZM39.22,278l-9-19.81h-.27L21.12,278Z" transform="translate(-0.02 -14.28)"/><path class="cls-1" d="M69.73,293.44c-.9-.72-1.26-1.26-.45-2.7l3.25-5.58a2.07,2.07,0,0,1,3.06-.63c3.69,2.79,7.74,5.58,13.59,5.58,4.68,0,8.2-3.06,8.2-6.94,0-4.59-3.88-7.74-11.44-10.8C77.48,269,69,263.55,69,252.92c0-8,5.95-17.28,20.26-17.28a31.7,31.7,0,0,1,18,6,2.23,2.23,0,0,1,.54,3l-3.42,5.13c-.72,1.08-2.07,1.8-3.15,1.08-3.87-2.43-7.57-4.95-12.52-4.95-5.13,0-7.92,2.88-7.92,6.3,0,4.23,3.33,7.12,10.62,10.09,8.74,3.51,18.82,8.73,18.82,20.34,0,9.28-8,17.83-20.71,17.83C78.2,300.46,72.35,295.69,69.73,293.44Z" transform="translate(-0.02 -14.28)"/><path class="cls-1" d="M154.46,235.64a34,34,0,0,1,22,8.37,1.74,1.74,0,0,1,.09,2.52l-5.58,5.85a1.54,1.54,0,0,1-2.34,0A20.4,20.4,0,0,0,155,247.16c-11.26,0-20.17,9.63-20.17,20.89a20.48,20.48,0,0,0,20.26,20.62,28.15,28.15,0,0,0,10.71-2.25v-7.66h-7.2a1.64,1.64,0,0,1-1.71-1.62V270a1.65,1.65,0,0,1,1.71-1.71h17.28A1.69,1.69,0,0,1,177.5,270v23.05a1.73,1.73,0,0,1-.72,1.44,45.48,45.48,0,0,1-22.32,5.85,32.37,32.37,0,0,1,0-64.73Z" transform="translate(-0.02 -14.28)"/><path class="cls-2" d="M195,238.25a1.71,1.71,0,0,1,1.71-1.71h36.65a1.71,1.71,0,0,1,1.71,1.71v7.38a1.71,1.71,0,0,1-1.71,1.71H206.68v14.77h22.24a1.77,1.77,0,0,1,1.71,1.71v7.47a1.71,1.71,0,0,1-1.71,1.71H206.68v15.76h26.65a1.71,1.71,0,0,1,1.71,1.71v7.38a1.71,1.71,0,0,1-1.71,1.71H196.68a1.71,1.71,0,0,1-1.71-1.71Z" transform="translate(-0.02 -14.28)"/><path class="cls-2" d="M278.88,235.64A32.52,32.52,0,0,1,303,289.84l8.82,11.34a1.68,1.68,0,0,1-1.44,2.7h-10A1.79,1.79,0,0,1,299,303l-4.86-6.21a33.06,33.06,0,0,1-15.22,3.69,32.41,32.41,0,0,1,0-64.82Zm0,53.12a20.58,20.58,0,0,0,7.83-1.53L275.82,273a1.68,1.68,0,0,1,1.44-2.7h10a1.8,1.8,0,0,1,1.45.9l6.93,9a20.64,20.64,0,1,0-16.75,8.56Z" transform="translate(-0.02 -14.28)"/><path class="cls-2" d="M326.68,238.25a1.78,1.78,0,0,1,1.72-1.71H337a1.71,1.71,0,0,1,1.71,1.71v37.54c0,7.65,5.22,13,13.06,13s13.14-5.32,13.14-12.88V238.25a1.71,1.71,0,0,1,1.71-1.71h8.55a1.77,1.77,0,0,1,1.71,1.71v38.17c0,13.69-10.89,24-25.11,24s-25-10.35-25-24Z" transform="translate(-0.02 -14.28)"/><path class="cls-2" d="M395.83,238.25a1.77,1.77,0,0,1,1.71-1.71h8.37a1.77,1.77,0,0,1,1.71,1.71v59.6a1.77,1.77,0,0,1-1.71,1.71h-8.37a1.77,1.77,0,0,1-1.71-1.71Z" transform="translate(-0.02 -14.28)"/><path class="cls-2" d="M427.25,238.25a1.71,1.71,0,0,1,1.71-1.71h21.16a20.08,20.08,0,1,1,.09,40.15H439v21.16a1.77,1.77,0,0,1-1.71,1.71H429a1.71,1.71,0,0,1-1.71-1.71Zm22.51,27.46c5,0,8.91-4,8.91-9.37a8.67,8.67,0,0,0-8.91-8.73H439v18.1Z" transform="translate(-0.02 -14.28)"/><path class="cls-2" d="M513.32,235.64A32.41,32.41,0,1,1,481,268.14,32.35,32.35,0,0,1,513.32,235.64Zm0,53.12a20.71,20.71,0,1,0-20.62-20.62A20.76,20.76,0,0,0,513.32,288.76Z" transform="translate(-0.02 -14.28)"/><path class="cls-2" d="M552.84,297.22l28-60.59a1.62,1.62,0,0,1,1.53-1h.9a1.53,1.53,0,0,1,1.53,1l27.73,60.59a1.59,1.59,0,0,1-1.53,2.34h-7.83a2.59,2.59,0,0,1-2.61-1.8L596.15,288H569.23l-4.41,9.72a2.73,2.73,0,0,1-2.62,1.8h-7.83A1.59,1.59,0,0,1,552.84,297.22ZM591.74,278l-9-19.81h-.27L573.64,278Z" transform="translate(-0.02 -14.28)"/><path class="cls-2" d="M622.16,293.44c-.9-.72-1.26-1.26-.45-2.7l3.24-5.58a2.08,2.08,0,0,1,3.07-.63c3.69,2.79,7.74,5.58,13.59,5.58,4.68,0,8.19-3.06,8.19-6.94,0-4.59-3.87-7.74-11.43-10.8-8.46-3.42-16.93-8.82-16.93-19.45,0-8,5.95-17.28,20.26-17.28a31.7,31.7,0,0,1,18,6,2.23,2.23,0,0,1,.54,3l-3.42,5.13c-.72,1.08-2.07,1.8-3.15,1.08-3.88-2.43-7.57-4.95-12.52-4.95-5.13,0-7.92,2.88-7.92,6.3,0,4.23,3.33,7.12,10.62,10.09,8.74,3.51,18.82,8.73,18.82,20.34,0,9.28-8,17.83-20.71,17.83C630.63,300.46,624.78,295.69,622.16,293.44Z" transform="translate(-0.02 -14.28)"/><path class="cls-2" d="M706.79,235.64a34,34,0,0,1,22,8.37,1.74,1.74,0,0,1,.09,2.52l-5.58,5.85a1.54,1.54,0,0,1-2.34,0,20.41,20.41,0,0,0-13.6-5.22c-11.25,0-20.16,9.63-20.16,20.89a20.48,20.48,0,0,0,20.26,20.62,28.15,28.15,0,0,0,10.71-2.25v-7.66h-7.2a1.64,1.64,0,0,1-1.71-1.62V270a1.65,1.65,0,0,1,1.71-1.71h17.28a1.69,1.69,0,0,1,1.62,1.71v23.05a1.73,1.73,0,0,1-.72,1.44,45.49,45.49,0,0,1-22.33,5.85,32.37,32.37,0,0,1,0-64.73Z" transform="translate(-0.02 -14.28)"/><path class="cls-1" d="M7.79,164.42A1.71,1.71,0,0,1,9.5,162.7H46.15a1.71,1.71,0,0,1,1.71,1.72v7.38a1.71,1.71,0,0,1-1.71,1.71H19.5v14.76H41.74A1.78,1.78,0,0,1,43.45,190v7.47a1.71,1.71,0,0,1-1.71,1.71H19.5v15.76H46.15a1.71,1.71,0,0,1,1.71,1.71V224a1.71,1.71,0,0,1-1.71,1.71H9.5A1.71,1.71,0,0,1,7.79,224Z" transform="translate(-0.02 -14.28)"/><path class="cls-1" d="M91.7,161.8A32.52,32.52,0,0,1,115.83,216l8.83,11.34a1.68,1.68,0,0,1-1.44,2.7h-10a1.79,1.79,0,0,1-1.44-.9l-4.86-6.21a33.06,33.06,0,0,1-15.22,3.69,32.42,32.42,0,0,1,0-64.83Zm0,53.13a20.63,20.63,0,0,0,7.84-1.53l-10.9-14.23a1.68,1.68,0,0,1,1.44-2.7h10a1.79,1.79,0,0,1,1.44.9l6.93,9a20.64,20.64,0,1,0-16.75,8.56Z" transform="translate(-0.02 -14.28)"/><path class="cls-1" d="M139.51,164.42a1.77,1.77,0,0,1,1.71-1.72h8.55a1.71,1.71,0,0,1,1.71,1.72V202c0,7.65,5.22,13,13.06,13s13.14-5.32,13.14-12.88V164.42a1.71,1.71,0,0,1,1.71-1.72H188a1.77,1.77,0,0,1,1.71,1.72v38.17c0,13.69-10.9,24-25.12,24s-25-10.35-25-24Z" transform="translate(-0.02 -14.28)"/><path class="cls-1" d="M208.74,164.42a1.77,1.77,0,0,1,1.71-1.72h8.37a1.78,1.78,0,0,1,1.72,1.72V224a1.78,1.78,0,0,1-1.72,1.71h-8.37a1.77,1.77,0,0,1-1.71-1.71Z" transform="translate(-0.02 -14.28)"/><path class="cls-1" d="M240.16,164.42a1.71,1.71,0,0,1,1.71-1.72H263a20.08,20.08,0,1,1,.09,40.16H251.87V224a1.77,1.77,0,0,1-1.72,1.71h-8.28a1.71,1.71,0,0,1-1.71-1.71Zm22.51,27.46c5,0,8.91-4,8.91-9.37a8.67,8.67,0,0,0-8.91-8.73h-10.8v18.1Z" transform="translate(-0.02 -14.28)"/><path class="cls-1" d="M326.23,161.8a32.42,32.42,0,1,1-32.32,32.51A32.35,32.35,0,0,1,326.23,161.8Zm0,53.13a20.71,20.71,0,1,0-20.62-20.62A20.75,20.75,0,0,0,326.23,214.93Z" transform="translate(-0.02 -14.28)"/><path class="cls-2" d="M366,223.39l28-60.6a1.62,1.62,0,0,1,1.53-1h.9a1.53,1.53,0,0,1,1.53,1l27.73,60.6a1.59,1.59,0,0,1-1.53,2.34h-7.84a2.59,2.59,0,0,1-2.61-1.8l-4.41-9.72H382.42L378,223.93a2.71,2.71,0,0,1-2.61,1.8h-7.84A1.59,1.59,0,0,1,366,223.39Zm38.9-19.18-9-19.81h-.27l-8.83,19.81Z" transform="translate(-0.02 -14.28)"/><path class="cls-2" d="M435.36,219.61c-.9-.72-1.26-1.26-.45-2.7l3.24-5.59a2.09,2.09,0,0,1,3.06-.63c3.69,2.8,7.74,5.59,13.6,5.59,4.68,0,8.19-3.07,8.19-6.94,0-4.59-3.87-7.74-11.43-10.8-8.47-3.42-16.93-8.82-16.93-19.45,0-8,5.94-17.29,20.26-17.29a31.67,31.67,0,0,1,18,6,2.23,2.23,0,0,1,.54,3L470,175.94c-.72,1.08-2.07,1.8-3.15,1.08-3.87-2.43-7.56-5-12.51-5-5.14,0-7.93,2.88-7.93,6.3,0,4.23,3.33,7.11,10.63,10.09,8.73,3.51,18.82,8.73,18.82,20.34,0,9.28-8,17.83-20.71,17.83C443.82,226.63,438,221.86,435.36,219.61Z" transform="translate(-0.02 -14.28)"/><path class="cls-2" d="M520.08,161.8a34.06,34.06,0,0,1,22,8.38,1.74,1.74,0,0,1,.09,2.52l-5.58,5.85a1.55,1.55,0,0,1-2.35,0,20.4,20.4,0,0,0-13.59-5.22c-11.25,0-20.17,9.63-20.17,20.89a20.49,20.49,0,0,0,20.26,20.62,28.15,28.15,0,0,0,10.71-2.25v-7.66h-7.2a1.64,1.64,0,0,1-1.71-1.62V196.2a1.65,1.65,0,0,1,1.71-1.71h17.29a1.69,1.69,0,0,1,1.62,1.71v23.05a1.73,1.73,0,0,1-.72,1.44,45.54,45.54,0,0,1-22.33,5.85,32.37,32.37,0,0,1,0-64.74Z" transform="translate(-0.02 -14.28)"/><path class="cls-2" d="M560.5,164.42a1.71,1.71,0,0,1,1.71-1.72h36.65a1.71,1.71,0,0,1,1.71,1.72v7.38a1.71,1.71,0,0,1-1.71,1.71H572.21v14.76h22.23a1.78,1.78,0,0,1,1.71,1.72v7.47a1.71,1.71,0,0,1-1.71,1.71H572.21v15.76h26.65a1.71,1.71,0,0,1,1.71,1.71V224a1.71,1.71,0,0,1-1.71,1.71H562.21A1.71,1.71,0,0,1,560.5,224Z" transform="translate(-0.02 -14.28)"/><path class="cls-2" d="M644.41,161.8A32.53,32.53,0,0,1,668.54,216l8.82,11.34a1.68,1.68,0,0,1-1.44,2.7h-10a1.79,1.79,0,0,1-1.44-.9l-4.86-6.21a33.09,33.09,0,0,1-15.22,3.69,32.42,32.42,0,0,1,0-64.83Zm0,53.13a20.58,20.58,0,0,0,7.83-1.53l-10.89-14.23a1.68,1.68,0,0,1,1.44-2.7h10a1.79,1.79,0,0,1,1.44.9l6.94,9a20.64,20.64,0,1,0-16.75,8.56Z" transform="translate(-0.02 -14.28)"/><path class="cls-2" d="M692.84,164.42a1.78,1.78,0,0,1,1.72-1.72h8.37a1.77,1.77,0,0,1,1.71,1.72V224a1.77,1.77,0,0,1-1.71,1.71h-8.37a1.78,1.78,0,0,1-1.72-1.71Z" transform="translate(-0.02 -14.28)"/><path class="cls-2" d="M7.8,312.07a1.71,1.71,0,0,1,1.71-1.71H46.16a1.71,1.71,0,0,1,1.71,1.71v7.38a1.71,1.71,0,0,1-1.71,1.71H19.51v14.77H41.75a1.77,1.77,0,0,1,1.71,1.71v7.47a1.71,1.71,0,0,1-1.71,1.71H19.51v15.76H46.16a1.71,1.71,0,0,1,1.71,1.71v7.38a1.71,1.71,0,0,1-1.71,1.71H9.51a1.71,1.71,0,0,1-1.71-1.71Z" transform="translate(-0.02 -14.28)"/><path class="cls-2" d="M91.71,309.45a32.53,32.53,0,0,1,24.13,54.21L124.66,375a1.68,1.68,0,0,1-1.44,2.7h-10a1.79,1.79,0,0,1-1.44-.9l-4.86-6.21a33.06,33.06,0,0,1-15.22,3.69,32.42,32.42,0,0,1,0-64.83Zm0,53.13a20.58,20.58,0,0,0,7.83-1.53L88.65,346.82a1.68,1.68,0,0,1,1.44-2.7h10a1.79,1.79,0,0,1,1.45.9l6.93,9a20.64,20.64,0,1,0-16.75,8.56Z" transform="translate(-0.02 -14.28)"/><path class="cls-2" d="M139.52,312.07a1.77,1.77,0,0,1,1.71-1.71h8.55a1.71,1.71,0,0,1,1.71,1.71v37.54c0,7.65,5.22,13,13.06,13s13.14-5.32,13.14-12.88V312.07a1.71,1.71,0,0,1,1.71-1.71H188a1.77,1.77,0,0,1,1.71,1.71v38.17c0,13.69-10.9,24-25.12,24s-25-10.35-25-24Z" transform="translate(-0.02 -14.28)"/><path class="cls-2" d="M208.75,312.07a1.77,1.77,0,0,1,1.71-1.71h8.37a1.77,1.77,0,0,1,1.71,1.71v59.6a1.77,1.77,0,0,1-1.71,1.71h-8.37a1.77,1.77,0,0,1-1.71-1.71Z" transform="translate(-0.02 -14.28)"/><path class="cls-2" d="M240.17,312.07a1.71,1.71,0,0,1,1.71-1.71H263a20.08,20.08,0,1,1,.09,40.15H251.87v21.16a1.77,1.77,0,0,1-1.71,1.71h-8.28a1.71,1.71,0,0,1-1.71-1.71Zm22.51,27.46c5,0,8.91-4,8.91-9.37a8.67,8.67,0,0,0-8.91-8.73H251.87v18.1Z" transform="translate(-0.02 -14.28)"/><path class="cls-2" d="M326.24,309.45A32.42,32.42,0,1,1,293.92,342,32.35,32.35,0,0,1,326.24,309.45Zm0,53.13A20.71,20.71,0,1,0,305.62,342,20.76,20.76,0,0,0,326.24,362.58Z" transform="translate(-0.02 -14.28)"/><path class="cls-2" d="M365.76,371l28-60.59a1.61,1.61,0,0,1,1.53-1h.9a1.52,1.52,0,0,1,1.53,1L425.45,371a1.59,1.59,0,0,1-1.53,2.34h-7.83a2.59,2.59,0,0,1-2.61-1.8l-4.41-9.72H382.15l-4.41,9.72a2.73,2.73,0,0,1-2.62,1.8h-7.83A1.59,1.59,0,0,1,365.76,371Zm38.9-19.18-9-19.81h-.27l-8.82,19.81Z" transform="translate(-0.02 -14.28)"/><path class="cls-2" d="M435.08,367.26c-.9-.72-1.26-1.26-.45-2.7l3.25-5.58a2.08,2.08,0,0,1,3.06-.64c3.69,2.8,7.74,5.59,13.59,5.59,4.68,0,8.2-3.06,8.2-6.94,0-4.59-3.88-7.74-11.44-10.8-8.46-3.42-16.93-8.82-16.93-19.45,0-8,5.95-17.29,20.26-17.29a31.68,31.68,0,0,1,18,6,2.23,2.23,0,0,1,.54,3l-3.42,5.13c-.72,1.08-2.07,1.8-3.15,1.08-3.87-2.43-7.57-4.95-12.52-4.95-5.13,0-7.92,2.88-7.92,6.3,0,4.23,3.33,7.11,10.62,10.09,8.74,3.51,18.82,8.73,18.82,20.34,0,9.28-8,17.83-20.71,17.83C443.55,374.28,437.7,369.51,435.08,367.26Z" transform="translate(-0.02 -14.28)"/><path class="cls-2" d="M519.72,309.45a34,34,0,0,1,22,8.38,1.74,1.74,0,0,1,.09,2.52l-5.58,5.85a1.54,1.54,0,0,1-2.34,0A20.4,20.4,0,0,0,520.26,321c-11.26,0-20.17,9.63-20.17,20.89a20.48,20.48,0,0,0,20.26,20.62,28.15,28.15,0,0,0,10.71-2.25v-7.66h-7.2a1.64,1.64,0,0,1-1.71-1.62v-7.11a1.65,1.65,0,0,1,1.71-1.71h17.28a1.69,1.69,0,0,1,1.62,1.71v23a1.73,1.73,0,0,1-.72,1.44,45.48,45.48,0,0,1-22.32,5.85,32.37,32.37,0,0,1,0-64.74Z" transform="translate(-0.02 -14.28)"/><path class="cls-2" d="M560.14,312.07a1.71,1.71,0,0,1,1.71-1.71h36.64a1.71,1.71,0,0,1,1.71,1.71v7.38a1.71,1.71,0,0,1-1.71,1.71H571.84v14.77h22.24a1.77,1.77,0,0,1,1.71,1.71v7.47a1.71,1.71,0,0,1-1.71,1.71H571.84v15.76h26.65a1.71,1.71,0,0,1,1.71,1.71v7.38a1.71,1.71,0,0,1-1.71,1.71H561.85a1.71,1.71,0,0,1-1.71-1.71Z" transform="translate(-0.02 -14.28)"/><path class="cls-2" d="M644.05,309.45a32.53,32.53,0,0,1,24.13,54.21L677,375a1.68,1.68,0,0,1-1.44,2.7h-10a1.79,1.79,0,0,1-1.44-.9l-4.86-6.21a33,33,0,0,1-15.21,3.69,32.42,32.42,0,0,1,0-64.83Zm0,53.13a20.58,20.58,0,0,0,7.83-1.53L641,346.82a1.68,1.68,0,0,1,1.44-2.7h10a1.79,1.79,0,0,1,1.44.9l6.93,9a20.63,20.63,0,1,0-16.74,8.56Z" transform="translate(-0.02 -14.28)"/><path class="cls-2" d="M691.85,312.07a1.77,1.77,0,0,1,1.71-1.71h8.55a1.71,1.71,0,0,1,1.71,1.71v37.54c0,7.65,5.23,13,13.06,13S730,357.26,730,349.7V312.07a1.71,1.71,0,0,1,1.71-1.71h8.55a1.77,1.77,0,0,1,1.71,1.71v38.17c0,13.69-10.89,24-25.12,24s-25-10.35-25-24Z" transform="translate(-0.02 -14.28)"/><path class="cls-2" d="M.33,149.56,28.33,89a1.62,1.62,0,0,1,1.53-1h.9a1.53,1.53,0,0,1,1.53,1L60,149.56a1.59,1.59,0,0,1-1.53,2.34H50.66a2.59,2.59,0,0,1-2.61-1.8l-4.41-9.72H16.72L12.3,150.1a2.71,2.71,0,0,1-2.61,1.8H1.86A1.59,1.59,0,0,1,.33,149.56Zm38.89-19.17-9-19.81H30l-8.82,19.81Z" transform="translate(-0.02 -14.28)"/><path class="cls-2" d="M69.74,145.78c-.9-.72-1.26-1.26-.45-2.7l3.24-5.58a2.1,2.1,0,0,1,3.07-.63c3.69,2.79,7.74,5.58,13.59,5.58,4.68,0,8.19-3.06,8.19-6.93,0-4.59-3.87-7.75-11.43-10.81C77.49,121.29,69,115.89,69,105.27,69,97.25,75,88,89.28,88a31.73,31.73,0,0,1,18,6,2.23,2.23,0,0,1,.54,3l-3.42,5.13c-.72,1.08-2.07,1.8-3.15,1.08-3.88-2.43-7.57-5-12.52-5-5.13,0-7.92,2.88-7.92,6.31,0,4.23,3.33,7.11,10.62,10.08,8.74,3.51,18.82,8.73,18.82,20.35,0,9.27-8,17.82-20.71,17.82C78.21,152.8,72.35,148,69.74,145.78Z" transform="translate(-0.02 -14.28)"/><path class="cls-2" d="M154.37,88a34,34,0,0,1,22,8.37,1.74,1.74,0,0,1,.09,2.52l-5.58,5.86a1.54,1.54,0,0,1-2.34,0,20.37,20.37,0,0,0-13.6-5.23c-11.25,0-20.16,9.64-20.16,20.89A20.48,20.48,0,0,0,155,141a28.17,28.17,0,0,0,10.72-2.25v-7.65h-7.2a1.64,1.64,0,0,1-1.72-1.62v-7.12a1.66,1.66,0,0,1,1.72-1.71H175.8a1.69,1.69,0,0,1,1.62,1.71v23a1.73,1.73,0,0,1-.72,1.44,45.49,45.49,0,0,1-22.33,5.85,32.37,32.37,0,0,1,0-64.73Z" transform="translate(-0.02 -14.28)"/><path class="cls-2" d="M194.79,90.59a1.72,1.72,0,0,1,1.72-1.71h36.64a1.71,1.71,0,0,1,1.71,1.71V98a1.71,1.71,0,0,1-1.71,1.71H206.5v14.77h22.24a1.77,1.77,0,0,1,1.71,1.71v7.47a1.71,1.71,0,0,1-1.71,1.71H206.5V141.1h26.65a1.71,1.71,0,0,1,1.71,1.71v7.38a1.71,1.71,0,0,1-1.71,1.71H196.51a1.72,1.72,0,0,1-1.72-1.71Z" transform="translate(-0.02 -14.28)"/><path class="cls-2" d="M278.7,88a32.51,32.51,0,0,1,24.13,54.2l8.83,11.34a1.69,1.69,0,0,1-1.44,2.71h-10a1.79,1.79,0,0,1-1.44-.9l-4.86-6.22a33,33,0,0,1-15.22,3.69,32.41,32.41,0,0,1,0-64.82Zm0,53.12a20.59,20.59,0,0,0,7.84-1.53l-10.9-14.23a1.68,1.68,0,0,1,1.44-2.7h10a1.79,1.79,0,0,1,1.44.9l6.93,9a20.63,20.63,0,1,0-16.75,8.55Z" transform="translate(-0.02 -14.28)"/><path class="cls-2" d="M326.51,90.59a1.77,1.77,0,0,1,1.71-1.71h8.55a1.71,1.71,0,0,1,1.71,1.71v37.55c0,7.65,5.23,13,13.06,13s13.14-5.31,13.14-12.88V90.59a1.71,1.71,0,0,1,1.71-1.71H375a1.77,1.77,0,0,1,1.71,1.71v38.17c0,13.69-10.9,24-25.12,24s-25-10.35-25-24Z" transform="translate(-0.02 -14.28)"/><path class="cls-2" d="M395.74,90.59a1.77,1.77,0,0,1,1.71-1.71h8.38a1.77,1.77,0,0,1,1.71,1.71v59.6a1.77,1.77,0,0,1-1.71,1.71h-8.38a1.77,1.77,0,0,1-1.71-1.71Z" transform="translate(-0.02 -14.28)"/><path class="cls-2" d="M427.16,90.59a1.71,1.71,0,0,1,1.71-1.71H450a20.08,20.08,0,1,1,.09,40.16H438.87v21.15a1.77,1.77,0,0,1-1.71,1.71h-8.29a1.71,1.71,0,0,1-1.71-1.71Zm22.51,27.46c5,0,8.92-4,8.92-9.36a8.68,8.68,0,0,0-8.92-8.74h-10.8v18.1Z" transform="translate(-0.02 -14.28)"/><path class="cls-2" d="M513.23,88a32.41,32.41,0,1,1-32.32,32.5A32.36,32.36,0,0,1,513.23,88Zm0,53.12a20.71,20.71,0,1,0-20.62-20.62A20.75,20.75,0,0,0,513.23,141.1Z" transform="translate(-0.02 -14.28)"/><path class="cls-2" d="M552.75,149.56l28-60.59a1.64,1.64,0,0,1,1.54-1h.9a1.53,1.53,0,0,1,1.53,1l27.73,60.59a1.59,1.59,0,0,1-1.53,2.34h-7.84a2.59,2.59,0,0,1-2.61-1.8l-4.41-9.72H569.14l-4.41,9.72a2.71,2.71,0,0,1-2.61,1.8h-7.84A1.59,1.59,0,0,1,552.75,149.56Zm38.9-19.17-9-19.81h-.27l-8.83,19.81Z" transform="translate(-0.02 -14.28)"/><path class="cls-2" d="M622.17,145.78c-.9-.72-1.26-1.26-.45-2.7L625,137.5a2.09,2.09,0,0,1,3.06-.63c3.69,2.79,7.74,5.58,13.6,5.58,4.68,0,8.19-3.06,8.19-6.93,0-4.59-3.87-7.75-11.44-10.81-8.46-3.42-16.92-8.82-16.92-19.44,0-8,5.94-17.29,20.26-17.29a31.69,31.69,0,0,1,18,6,2.23,2.23,0,0,1,.54,3l-3.42,5.13c-.72,1.08-2.07,1.8-3.15,1.08-3.87-2.43-7.56-5-12.51-5-5.14,0-7.93,2.88-7.93,6.31,0,4.23,3.33,7.11,10.63,10.08,8.73,3.51,18.81,8.73,18.81,20.35,0,9.27-8,17.82-20.7,17.82C630.63,152.8,624.78,148,622.17,145.78Z" transform="translate(-0.02 -14.28)"/><path class="cls-2" d="M706.89,88a34.07,34.07,0,0,1,22,8.37,1.74,1.74,0,0,1,.09,2.52l-5.58,5.86a1.55,1.55,0,0,1-2.35,0,20.36,20.36,0,0,0-13.59-5.23c-11.26,0-20.17,9.64-20.17,20.89A20.48,20.48,0,0,0,707.52,141a28.15,28.15,0,0,0,10.71-2.25v-7.65H711a1.64,1.64,0,0,1-1.71-1.62v-7.12a1.65,1.65,0,0,1,1.71-1.71h17.29a1.69,1.69,0,0,1,1.62,1.71v23a1.73,1.73,0,0,1-.72,1.44,45.54,45.54,0,0,1-22.33,5.85,32.37,32.37,0,0,1,0-64.73Z" transform="translate(-0.02 -14.28)"/><path class="cls-2" d="M7.9,17a1.72,1.72,0,0,1,1.71-1.72H46.26A1.72,1.72,0,0,1,48,17v7.38a1.71,1.71,0,0,1-1.71,1.71H19.61V40.89H41.84a1.77,1.77,0,0,1,1.72,1.71v7.47a1.71,1.71,0,0,1-1.72,1.71H19.61V67.54H46.26A1.71,1.71,0,0,1,48,69.25v7.38a1.71,1.71,0,0,1-1.71,1.71H9.61A1.71,1.71,0,0,1,7.9,76.63Z" transform="translate(-0.02 -14.28)"/><path class="cls-2" d="M91.81,14.41a32.53,32.53,0,0,1,24.13,54.21L124.76,80a1.68,1.68,0,0,1-1.44,2.7h-10a1.79,1.79,0,0,1-1.44-.9L107,75.55a33.09,33.09,0,0,1-15.22,3.69,32.42,32.42,0,0,1,0-64.83Zm0,53.13A20.58,20.58,0,0,0,99.64,66L88.75,51.78a1.68,1.68,0,0,1,1.44-2.7h10a1.79,1.79,0,0,1,1.44.9l6.94,9a20.64,20.64,0,1,0-16.75,8.56Z" transform="translate(-0.02 -14.28)"/><path class="cls-2" d="M139.61,17a1.79,1.79,0,0,1,1.72-1.72h8.55A1.72,1.72,0,0,1,151.59,17V54.57c0,7.65,5.22,13,13,13s13.15-5.32,13.15-12.88V17a1.72,1.72,0,0,1,1.71-1.72h8.55A1.78,1.78,0,0,1,189.76,17V55.2c0,13.69-10.89,24-25.12,24s-25-10.35-25-24Z" transform="translate(-0.02 -14.28)"/><path class="cls-2" d="M208.85,17a1.78,1.78,0,0,1,1.71-1.72h8.37A1.78,1.78,0,0,1,220.64,17v59.6a1.77,1.77,0,0,1-1.71,1.71h-8.37a1.77,1.77,0,0,1-1.71-1.71Z" transform="translate(-0.02 -14.28)"/><path class="cls-2" d="M240.27,17A1.72,1.72,0,0,1,242,15.31h21.16a20.08,20.08,0,1,1,.09,40.16H252V76.63a1.77,1.77,0,0,1-1.71,1.71H242a1.71,1.71,0,0,1-1.71-1.71Zm22.51,27.46c5,0,8.91-4.05,8.91-9.37a8.67,8.67,0,0,0-8.91-8.73H252v18.1Z" transform="translate(-0.02 -14.28)"/><path class="cls-2" d="M326.34,14.41A32.42,32.42,0,1,1,294,46.92,32.35,32.35,0,0,1,326.34,14.41Zm0,53.13a20.71,20.71,0,1,0-20.62-20.62A20.76,20.76,0,0,0,326.34,67.54Z" transform="translate(-0.02 -14.28)"/><path class="cls-2" d="M365.86,76l28-60.59a1.61,1.61,0,0,1,1.53-1h.9a1.52,1.52,0,0,1,1.53,1L425.55,76A1.59,1.59,0,0,1,424,78.34h-7.83a2.59,2.59,0,0,1-2.61-1.8l-4.41-9.72H382.25l-4.42,9.72a2.71,2.71,0,0,1-2.61,1.8h-7.83A1.59,1.59,0,0,1,365.86,76Zm38.9-19.18-9-19.81h-.27l-8.82,19.81Z" transform="translate(-0.02 -14.28)"/><path class="cls-2" d="M435.18,72.22c-.9-.72-1.26-1.26-.45-2.7L438,63.94A2.09,2.09,0,0,1,441,63.3c3.69,2.8,7.74,5.59,13.59,5.59,4.68,0,8.19-3.06,8.19-6.94,0-4.59-3.87-7.74-11.43-10.8-8.46-3.42-16.93-8.82-16.93-19.45,0-8,6-17.29,20.26-17.29a31.68,31.68,0,0,1,18,6,2.23,2.23,0,0,1,.54,3l-3.42,5.13c-.72,1.08-2.07,1.8-3.15,1.08-3.88-2.43-7.57-4.95-12.52-4.95-5.13,0-7.92,2.88-7.92,6.3,0,4.23,3.33,7.11,10.62,10.09,8.74,3.51,18.82,8.73,18.82,20.34,0,9.28-8,17.83-20.71,17.83C443.65,79.24,437.79,74.47,435.18,72.22Z" transform="translate(-0.02 -14.28)"/><path class="cls-2" d="M519.81,14.41a34,34,0,0,1,22,8.38,1.74,1.74,0,0,1,.09,2.52l-5.58,5.85a1.54,1.54,0,0,1-2.34,0,20.4,20.4,0,0,0-13.59-5.22c-11.26,0-20.17,9.63-20.17,20.89a20.48,20.48,0,0,0,20.25,20.62,28.17,28.17,0,0,0,10.72-2.25V57.54H524a1.64,1.64,0,0,1-1.71-1.62V48.81A1.65,1.65,0,0,1,524,47.1h17.28a1.69,1.69,0,0,1,1.62,1.71v23a1.73,1.73,0,0,1-.72,1.44,45.49,45.49,0,0,1-22.33,5.85,32.37,32.37,0,0,1,0-64.74Z" transform="translate(-0.02 -14.28)"/><path class="cls-2" d="M560.24,17A1.72,1.72,0,0,1,562,15.31h36.64A1.72,1.72,0,0,1,600.3,17v7.38a1.71,1.71,0,0,1-1.71,1.71H571.94V40.89h22.24a1.77,1.77,0,0,1,1.71,1.71v7.47a1.71,1.71,0,0,1-1.71,1.71H571.94V67.54h26.65a1.71,1.71,0,0,1,1.71,1.71v7.38a1.71,1.71,0,0,1-1.71,1.71H562a1.71,1.71,0,0,1-1.71-1.71Z" transform="translate(-0.02 -14.28)"/><path class="cls-2" d="M644.15,14.41a32.52,32.52,0,0,1,24.12,54.21L677.1,80a1.68,1.68,0,0,1-1.44,2.7h-10a1.79,1.79,0,0,1-1.44-.9l-4.86-6.21a33,33,0,0,1-15.21,3.69,32.42,32.42,0,0,1,0-64.83Zm0,53.13A20.58,20.58,0,0,0,652,66l-10.9-14.23a1.68,1.68,0,0,1,1.44-2.7h10A1.79,1.79,0,0,1,654,50l6.93,9a20.63,20.63,0,1,0-16.74,8.56Z" transform="translate(-0.02 -14.28)"/><path class="cls-2" d="M692,17a1.78,1.78,0,0,1,1.71-1.72h8.55A1.72,1.72,0,0,1,703.92,17V54.57c0,7.65,5.23,13,13.06,13s13.14-5.32,13.14-12.88V17a1.72,1.72,0,0,1,1.71-1.72h8.56A1.78,1.78,0,0,1,742.1,17V55.2c0,13.69-10.89,24-25.12,24s-25-10.35-25-24Z" transform="translate(-0.02 -14.28)"/></svg>