<svg id="Capa_1" data-name="Capa 1" xmlns="http://www.w3.org/2000/svg" xmlns:xlink="http://www.w3.org/1999/xlink" viewBox="0 0 217.2 94.45"><defs><style>.cls-1{fill:none;}.cls-2{fill:#fff;}.cls-3{opacity:0.4;}.cls-4{clip-path:url(#clip-path);}.cls-5{opacity:0.2;}.cls-6{clip-path:url(#clip-path-2);}</style><clipPath id="clip-path" transform="translate(-10.63 -18.27)"><rect class="cls-1" x="61.49" y="9.27" width="64.67" height="112.45"/></clipPath><clipPath id="clip-path-2" transform="translate(-10.63 -18.27)"><rect class="cls-1" x="9.63" y="10.22" width="45.78" height="110.56"/></clipPath></defs><path class="cls-2" d="M180.6,18.27a46.77,46.77,0,1,1-9.44.95,47.4,47.4,0,0,1,9.44-.95" transform="translate(-10.63 -18.27)"/><g class="cls-3"><g class="cls-4"><path class="cls-2" d="M109.71,18.27a47.4,47.4,0,0,1,9.45.95v92.56a47.23,47.23,0,1,1-9.45-93.51" transform="translate(-10.63 -18.27)"/></g></g><g class="cls-5"><g class="cls-6"><path class="cls-2" d="M48.41,19.22v92.56a47.26,47.26,0,0,1,0-92.56" transform="translate(-10.63 -18.27)"/></g></g></svg>