<svg id="Capa_1" data-name="Capa 1" xmlns="http://www.w3.org/2000/svg" viewBox="0 0 271.85 113.37"><defs><style>.cls-1{fill:#007dc3;}.cls-2{fill:#ffb71b;}</style></defs><path class="cls-1" d="M31.08,115.75c-.07-1.94-.14-4.29-.14-6.64h-.07c-.51,2.06-1.18,4.36-1.8,6.26l-2,6.31H24.24l-1.73-6.26c-.52-1.9-1.08-4.2-1.46-6.31H21c-.09,2.18-.17,4.68-.29,6.69L20.43,122H17l1-16.18H23l1.58,5.4c.5,1.87,1,3.89,1.37,5.78H26c.46-1.87,1-4,1.54-5.8l1.72-5.38H34L34.9,122H31.32Z" transform="translate(-15.58 -8.81)"/><path class="cls-1" d="M43.56,117.79,42.41,122H38.62l4.94-16.18h4.8l5,16.18H49.44l-1.25-4.16Zm4.11-2.73-1-3.43c-.29-1-.58-2.16-.82-3.12h-.05c-.24,1-.48,2.18-.74,3.12l-1,3.43ZM50.14,102l-2.93,3H44.28l2-3Z" transform="translate(-15.58 -8.81)"/><path class="cls-1" d="M57.82,118.18a9.35,9.35,0,0,0,4,1c1.68,0,2.57-.7,2.57-1.76s-.77-1.58-2.71-2.28c-2.69-.93-4.44-2.42-4.44-4.77,0-2.76,2.3-4.87,6.12-4.87a10,10,0,0,1,4.13.81l-.82,3a7.74,7.74,0,0,0-3.38-.76c-1.59,0-2.35.72-2.35,1.56,0,1,.91,1.48,3,2.28,2.85,1.05,4.2,2.54,4.2,4.82,0,2.71-2.09,5-6.53,5a10.51,10.51,0,0,1-4.59-1Z" transform="translate(-15.58 -8.81)"/><path class="cls-1" d="M83.07,117.79,81.91,122H78.12l4.95-16.18h4.8l5,16.18H89l-1.25-4.16Zm4.1-2.73-1-3.43c-.29-1-.57-2.16-.81-3.12h0c-.24,1-.48,2.18-.75,3.12l-1,3.43Z" transform="translate(-15.58 -8.81)"/><path class="cls-1" d="M97.2,105.77h3.67v13.1h6.44V122H97.2Z" transform="translate(-15.58 -8.81)"/><path class="cls-1" d="M111.62,105.77h3.68v13.1h6.43V122H111.62Z" transform="translate(-15.58 -8.81)"/><path class="cls-1" d="M130,117.79,128.81,122H125L130,105.77h4.8l5,16.18h-3.94l-1.25-4.16Zm4.1-2.73-1-3.43c-.29-1-.58-2.16-.82-3.12h-.05c-.24,1-.48,2.18-.74,3.12l-1,3.43ZM136.54,102l-2.93,3h-2.93l2-3Z" transform="translate(-15.58 -8.81)"/><path class="cls-1" d="M150.6,106a32.08,32.08,0,0,1,4.94-.34c3.08,0,5.07.55,6.63,1.73a7.15,7.15,0,0,1,2.73,6.09,8.21,8.21,0,0,1-2.68,6.56c-1.71,1.41-4.3,2.08-7.47,2.08a31.69,31.69,0,0,1-4.15-.24Zm3.67,13.2a6.92,6.92,0,0,0,1.27.07c3.32,0,5.48-1.8,5.48-5.67,0-3.36-2-5.13-5.09-5.13a7.82,7.82,0,0,0-1.66.14Z" transform="translate(-15.58 -8.81)"/><path class="cls-1" d="M179.09,115.11h-6V119h6.64v3H169.46V105.77h10v3h-6.31v3.36h6Z" transform="translate(-15.58 -8.81)"/><path class="cls-1" d="M184.44,105.77h3.67v13.1h6.43V122h-10.1Z" transform="translate(-15.58 -8.81)"/><path class="cls-1" d="M205.37,106a30.91,30.91,0,0,1,4.87-.34c2.4,0,4.08.36,5.23,1.27a4.12,4.12,0,0,1,1.49,3.39,4.28,4.28,0,0,1-2.86,4v.07a4.07,4.07,0,0,1,2.16,3c.51,1.82,1,3.93,1.32,4.56h-3.74a20.73,20.73,0,0,1-1.13-3.77c-.43-2-1.13-2.57-2.61-2.59H209V122h-3.62Zm3.62,7h1.44c1.83,0,2.91-.92,2.91-2.33s-1-2.23-2.69-2.26a9,9,0,0,0-1.66.12Z" transform="translate(-15.58 -8.81)"/><path class="cls-1" d="M231.38,115.11h-5.95V119h6.65v3H221.76V105.77h10v3h-6.31v3.36h5.95Z" transform="translate(-15.58 -8.81)"/><path class="cls-1" d="M240,108.84h-4.34v-3.07H248v3.07h-4.42V122H240Z" transform="translate(-15.58 -8.81)"/><path class="cls-1" d="M254.18,117.79,253,122h-3.79l4.94-16.18H259L264,122h-3.94l-1.24-4.16Zm4.11-2.73-1-3.43c-.29-1-.58-2.16-.82-3.12h0c-.24,1-.48,2.18-.74,3.12l-1,3.43Z" transform="translate(-15.58 -8.81)"/><path class="cls-1" d="M272,105.77V122h-3.67V105.77Z" transform="translate(-15.58 -8.81)"/><path class="cls-1" d="M277.32,105.77H281v13.1h6.43V122h-10.1Z" transform="translate(-15.58 -8.81)"/><path class="cls-2" d="M49.93,34.78c1.81,0,3.29-.94,3.49-2.15l1.79-20.19c0-2-2.34-3.63-5.27-3.63s-5.27,1.64-5.27,3.63l1.78,20.19c.19,1.21,1.68,2.15,3.49,2.15Z" transform="translate(-15.58 -8.81)"/><path class="cls-2" d="M39,41.08c.9-1.56.83-3.32-.12-4.1L22.32,25.35c-1.73-1-4.31.2-5.78,2.75s-1.22,5.38.51,6.38L35.41,43c1.16.44,2.72-.39,3.62-2Z" transform="translate(-15.58 -8.81)"/><path class="cls-2" d="M60.84,41.07c.91,1.56,2.47,2.38,3.61,2l18.37-8.54c1.73-1,2-3.84.52-6.38s-4.06-3.75-5.79-2.76L61,37c-.95.78-1,2.54-.12,4.1Z" transform="translate(-15.58 -8.81)"/><path class="cls-2" d="M60.84,53.69c.91-1.57,2.47-2.38,3.61-1.95l18.37,8.54c1.73,1,2,3.84.52,6.39s-4.06,3.74-5.79,2.74L61,57.78c-.95-.78-1-2.54-.12-4.1Z" transform="translate(-15.58 -8.81)"/><path class="cls-2" d="M39,53.68c.9,1.56.83,3.32-.12,4.1L22.32,69.41c-1.73,1-4.31-.2-5.78-2.74s-1.22-5.39.51-6.39l18.36-8.54c1.16-.43,2.72.38,3.62,1.95Z" transform="translate(-15.58 -8.81)"/><path class="cls-2" d="M49.93,60c1.81,0,3.29.94,3.49,2.15l1.79,20.18c0,2-2.34,3.64-5.27,3.64s-5.27-1.64-5.27-3.64l1.78-20.18c.19-1.21,1.68-2.15,3.49-2.15Z" transform="translate(-15.58 -8.81)"/><path class="cls-2" d="M58.06,81.84a1.51,1.51,0,1,1,0,3,1.51,1.51,0,1,1,0-3Zm0,.34a1.14,1.14,0,0,0-1.12,1.17,1.12,1.12,0,0,0,1.13,1.15,1.1,1.1,0,0,0,1.11-1.15,1.13,1.13,0,0,0-1.11-1.17Zm-.21,1.9h-.39V82.65a5.21,5.21,0,0,1,.6-.05.78.78,0,0,1,.53.12.33.33,0,0,1,.16.31c0,.15-.13.27-.32.32v0a.45.45,0,0,1,.28.37,1.63,1.63,0,0,0,.1.34h-.43a.88.88,0,0,1-.11-.32.23.23,0,0,0-.27-.22h-.15Zm0-.81H58c.17,0,.3-.07.3-.19s-.1-.2-.28-.2h-.17Z" transform="translate(-15.58 -8.81)"/></svg>